<svg width="92" height="92" viewBox="0 0 92 92" fill="none" xmlns="http://www.w3.org/2000/svg">
<rect width="92" height="92" rx="5" fill="#EA4B71"/>
<path fill-rule="evenodd" clip-rule="evenodd" d="M84 34C84 38.4183 80.4183 42 76 42C72.2724 42 69.1402 39.4505 68.2521 36H57.0828C55.1274 36 53.4587 37.4137 53.1372 39.3424L52.8084 41.3152C52.4962 43.1883 51.5487 44.8185 50.2088 46C51.5487 47.1815 52.4962 48.8117 52.8084 50.6848L53.1372 52.6576C53.4587 54.5863 55.1274 56 57.0828 56H60.2521C61.1402 52.5495 64.2724 50 68 50C72.4183 50 76 53.5817 76 58C76 62.4183 72.4183 66 68 66C64.2724 66 61.1402 63.4505 60.2521 60H57.0828C53.1721 60 49.8346 57.1727 49.1917 53.3152L48.8628 51.3424C48.5414 49.4137 46.8726 48 44.9173 48H41.6544C40.6558 51.2801 37.6066 53.6667 34 53.6667C30.3934 53.6667 27.3443 51.2801 26.3457 48H21.6544C20.6558 51.2801 17.6066 53.6667 14 53.6667C9.58173 53.6667 6 50.0849 6 45.6667C6 41.2484 9.58173 37.6667 14 37.6667C17.8468 37.6667 21.0594 40.3817 21.8262 44H26.1739C26.9407 40.3817 30.1533 37.6667 34 37.6667C37.8468 37.6667 41.0594 40.3817 41.8262 44H44.9173C46.8726 44 48.5414 42.5863 48.8628 40.6576L49.1917 38.6848C49.8346 34.8273 53.1721 32 57.0828 32H68.2521C69.1402 28.5496 72.2724 26 76 26C80.4183 26 84 29.5817 84 34ZM80 34C80 36.2091 78.2092 38 76 38C73.7909 38 72 36.2091 72 34C72 31.7909 73.7909 30 76 30C78.2092 30 80 31.7909 80 34ZM14 49.6667C16.2092 49.6667 18 47.8758 18 45.6667C18 43.4575 16.2092 41.6667 14 41.6667C11.7909 41.6667 10 43.4575 10 45.6667C10 47.8758 11.7909 49.6667 14 49.6667ZM34 49.6667C36.2092 49.6667 38 47.8758 38 45.6667C38 43.4575 36.2092 41.6667 34 41.6667C31.7909 41.6667 30 43.4575 30 45.6667C30 47.8758 31.7909 49.6667 34 49.6667ZM68 62C70.2092 62 72 60.2091 72 58C72 55.7909 70.2092 54 68 54C65.7909 54 64 55.7909 64 58C64 60.2091 65.7909 62 68 62Z" fill="white"/>
</svg>
