<svg width="656" height="656" viewBox="0 0 656 656" fill="none" xmlns="http://www.w3.org/2000/svg">
<g filter="url(#filter0_d_2577_14174)">
<g clip-path="url(#clip0_2577_14174)">
<rect x="72" y="60" width="512" height="512" rx="116" fill="url(#paint0_linear_2577_14174)"/>
<g opacity="0.8">
<g filter="url(#filter1_f_2577_14174)">
<path d="M531.752 -296.036C443.918 -481.357 354.211 -504.038 334.704 -474.284C83.9602 -91.8255 185.607 242.645 232.925 561.689C235.832 877.711 368.855 805.291 395.502 737.668C443.853 614.968 666.826 -11.0433 531.752 -296.036Z" fill="url(#paint1_linear_2577_14174)"/>
</g>
<g filter="url(#filter2_f_2577_14174)">
<path d="M458.061 70.9878C363.362 -78.6743 346.941 -97.2218 338.008 -75.1869C272.258 113.534 155.566 511.975 214.805 595.978C344.542 775.699 376.477 774.254 399.559 733.264C422.64 692.275 576.434 258.065 458.061 70.9878Z" fill="url(#paint2_linear_2577_14174)"/>
</g>
<g filter="url(#filter3_f_2577_14174)">
<path d="M424.81 241.717C356.932 134.443 345.162 121.149 338.759 136.943C291.631 272.213 207.989 557.806 250.451 618.017C343.443 746.837 366.333 745.8 382.877 716.42C399.421 687.04 509.657 375.81 424.81 241.717Z" fill="url(#paint3_linear_2577_14174)"/>
</g>
<g filter="url(#filter4_f_2577_14174)">
<path d="M311.077 743.611C136 587 67.0002 532.5 196.625 -115.07C209.832 10.872 333.251 560.209 359.221 697.273C346.52 585.526 465.216 165.545 475.862 71.4925C475.862 71.4925 482.384 56.9649 490.845 76.7033C627 346.5 490.845 650.5 389.69 719.209C374.704 729.388 365.764 724.857 361.451 709.378C363.945 723.442 364.711 730.211 363.302 727.898C363.002 767.318 337.646 761.563 311.077 743.611Z" fill="url(#paint4_radial_2577_14174)"/>
</g>
</g>
<g filter="url(#filter5_f_2577_14174)">
<circle cx="474" cy="283" r="7" fill="#BFACFF"/>
</g>
<g filter="url(#filter6_f_2577_14174)">
<circle cx="491" cy="267" r="7" fill="#BFACFF"/>
</g>
<g filter="url(#filter7_f_2577_14174)">
<circle cx="452.5" cy="273.5" r="3.5" fill="#BFACFF"/>
</g>
<g filter="url(#filter8_ddiiii_2577_14174)">
<path d="M497.001 269.275C497.001 269.276 497.001 269.277 497.002 269.278L498.385 270.966C498.936 271.639 498.261 272.613 497.437 272.333L495.37 271.629C494.096 271.196 492.732 271.094 491.407 271.334C490.083 271.574 488.841 272.148 487.8 273.001L486.108 274.386C485.435 274.937 484.461 274.262 484.741 273.438L485.445 271.37C485.878 270.096 485.98 268.732 485.74 267.407C485.5 266.083 484.926 264.841 484.073 263.8L482.688 262.108C482.137 261.435 482.812 260.461 483.636 260.741L485.704 261.445C486.978 261.878 488.342 261.98 489.667 261.74C490.991 261.5 492.233 260.926 493.274 260.073L494.966 258.688C495.639 258.137 496.613 258.812 496.333 259.636L495.629 261.704C495.196 262.978 495.094 264.342 495.334 265.667C495.574 266.991 496.147 268.232 497 269.273C497 269.274 497.001 269.275 497.001 269.275Z" fill="url(#paint5_linear_2577_14174)"/>
</g>
<g filter="url(#filter9_ddiiii_2577_14174)">
<path d="M458.229 276.439C458.229 276.439 458.23 276.44 458.23 276.44L459.266 277.705C459.679 278.209 459.173 278.939 458.556 278.729L457.008 278.202C456.053 277.877 455.032 277.801 454.039 277.981C453.047 278.161 452.117 278.59 451.337 279.229L450.07 280.267C449.566 280.68 448.836 280.174 449.046 279.557L449.573 278.008C449.898 277.053 449.974 276.031 449.794 275.039C449.614 274.047 449.185 273.117 448.546 272.337L447.508 271.07C447.095 270.565 447.601 269.836 448.218 270.046L449.767 270.573C450.722 270.898 451.743 270.974 452.736 270.794C453.728 270.614 454.658 270.185 455.438 269.546L456.705 268.508C457.209 268.095 457.939 268.601 457.729 269.218L457.202 270.767C456.877 271.722 456.801 272.743 456.981 273.735C457.161 274.727 457.59 275.657 458.229 276.437C458.229 276.438 458.229 276.438 458.229 276.439Z" fill="url(#paint6_linear_2577_14174)"/>
</g>
<g filter="url(#filter10_ddiiii_2577_14174)">
<path d="M475.928 292.253C475.928 292.254 475.927 292.254 475.927 292.256L475.116 295.092C474.796 296.215 473.204 296.215 472.884 295.092L472.073 292.254C471.575 290.511 470.641 288.924 469.359 287.643C468.078 286.361 466.491 285.428 464.748 284.929L461.906 284.117C460.783 283.796 460.784 282.205 461.906 281.884L464.746 281.073C466.489 280.575 468.076 279.641 469.357 278.359C470.639 277.078 471.572 275.491 472.071 273.748L472.883 270.906C473.204 269.783 474.795 269.784 475.116 270.906L475.927 273.746C476.425 275.489 477.359 277.076 478.641 278.357C479.922 279.639 481.509 280.572 483.252 281.071L486.094 281.883C487.217 282.204 487.216 283.795 486.094 284.116L483.254 284.927C481.511 285.425 479.924 286.359 478.643 287.641C477.362 288.922 476.428 290.508 475.93 292.25C475.93 292.251 475.929 292.252 475.928 292.253Z" fill="url(#paint7_linear_2577_14174)"/>
</g>
<g opacity="0.51">
<g filter="url(#filter11_d_2577_14174)">
<circle cx="159" cy="504" r="1" fill="white" fill-opacity="0.78" shape-rendering="crispEdges"/>
</g>
<g filter="url(#filter12_d_2577_14174)">
<circle cx="178" cy="490" r="1" fill="white" fill-opacity="0.78" shape-rendering="crispEdges"/>
</g>
<circle cx="157" cy="477" r="3" fill="white"/>
<circle cx="234" cy="457" r="2" fill="white"/>
<g filter="url(#filter13_f_2577_14174)">
<circle cx="187.786" cy="322.889" r="1.58974" fill="#D9D9D9"/>
</g>
<g filter="url(#filter14_f_2577_14174)">
<circle cx="515.803" cy="97.6751" r="1.58974" transform="rotate(180 515.803 97.6751)" fill="#D9D9D9"/>
</g>
<g filter="url(#filter15_f_2577_14174)">
<circle cx="216.59" cy="179.316" r="1.58974" transform="rotate(180 216.59 179.316)" fill="#D9D9D9"/>
</g>
<g filter="url(#filter16_f_2577_14174)">
<circle cx="232.487" cy="157.59" r="1.58974" transform="rotate(180 232.487 157.59)" fill="#D9D9D9"/>
</g>
<g filter="url(#filter17_f_2577_14174)">
<circle cx="130.025" cy="113.043" r="1.58974" transform="rotate(180 130.025 113.043)" fill="#D9D9D9"/>
</g>
<g filter="url(#filter18_f_2577_14174)">
<circle cx="220.111" cy="79.6581" r="1.58974" fill="#D9D9D9"/>
</g>
<g filter="url(#filter19_f_2577_14174)">
<circle cx="483.479" cy="340.906" r="1.58974" transform="rotate(180 483.479 340.906)" fill="#D9D9D9"/>
</g>
<g filter="url(#filter20_f_2577_14174)">
<circle cx="147.889" cy="205.914" r="1.58974" transform="rotate(180 147.889 205.914)" fill="#D9D9D9"/>
</g>
<g filter="url(#filter21_f_2577_14174)">
<circle cx="142.744" cy="359.453" r="1.58974" transform="rotate(180 142.744 359.453)" fill="#D9D9D9"/>
</g>
<circle cx="159.171" cy="338.256" r="1.05983" transform="rotate(180 159.171 338.256)" fill="#D9D9D9"/>
<circle cx="98.2307" cy="356.803" r="1.05983" transform="rotate(180 98.2307 356.803)" fill="#D9D9D9"/>
<circle cx="303.838" cy="420.393" r="1.05983" transform="rotate(180 303.838 420.393)" fill="#D9D9D9"/>
<circle cx="142.06" cy="190.017" r="1.05983" fill="#D9D9D9"/>
<circle cx="1.05983" cy="1.05983" r="1.05983" transform="matrix(1 0 0 -1 170.299 432.051)" fill="#D9D9D9"/>
<g filter="url(#filter22_d_2577_14174)">
<circle cx="328" cy="212.667" r="1" fill="white" fill-opacity="0.78" shape-rendering="crispEdges"/>
</g>
<circle cx="307" cy="199.667" r="3" fill="white"/>
<circle cx="384" cy="179.667" r="2" fill="white"/>
<circle cx="453.838" cy="143.06" r="1.05983" transform="rotate(180 453.838 143.06)" fill="#D9D9D9"/>
<circle cx="1.05983" cy="1.05983" r="1.05983" transform="matrix(1 0 0 -1 320.299 154.718)" fill="#D9D9D9"/>
<g filter="url(#filter23_d_2577_14174)">
<circle cx="383" cy="511.667" r="1" fill="white" fill-opacity="0.78" shape-rendering="crispEdges"/>
</g>
<circle cx="362" cy="498.667" r="3" fill="white"/>
<circle cx="439" cy="478.667" r="2" fill="white"/>
<circle cx="508.838" cy="442.06" r="1.05983" transform="rotate(180 508.838 442.06)" fill="#D9D9D9"/>
<circle cx="1.05983" cy="1.05983" r="1.05983" transform="matrix(1 0 0 -1 375.299 453.718)" fill="#D9D9D9"/>
</g>
<g filter="url(#filter24_ddiiii_2577_14174)">
<path d="M218.045 368.664C191.421 368.664 171.325 347.928 171.325 322.328C171.325 296.6 190.397 275.736 218.045 275.736C232.637 275.736 242.749 280.216 250.813 289.816L238.141 300.824C232.765 295.192 226.109 292.376 218.045 292.376C200.765 292.376 189.885 305.944 189.885 322.328C189.885 338.712 200.765 352.024 218.429 352.024C227.133 352.024 233.661 349.08 238.909 343.32L251.965 354.456C245.181 362.648 233.661 368.664 218.045 368.664Z" fill="url(#paint8_linear_2577_14174)"/>
<path d="M284.581 368.664C266.277 368.664 251.685 353.176 251.685 333.976C251.685 314.776 266.277 299.032 284.581 299.032C296.101 299.032 302.117 303.768 305.701 310.936V300.44H322.853V367H306.085V356.12C302.501 363.672 296.485 368.664 284.581 368.664ZM268.965 333.848C268.965 343.96 276.389 353.048 287.397 353.048C298.789 353.048 306.085 344.344 306.085 333.976C306.085 323.608 298.789 314.648 287.397 314.648C276.389 314.648 268.965 323.48 268.965 333.848Z" fill="url(#paint9_linear_2577_14174)"/>
<path d="M333.12 367V273.56H350.4V367H333.12Z" fill="url(#paint10_linear_2577_14174)"/>
<path d="M369.836 368.664C363.18 368.664 358.316 363.544 358.316 357.4C358.316 351.384 363.18 346.264 369.836 346.264C376.492 346.264 381.228 351.384 381.228 357.4C381.228 363.544 376.492 368.664 369.836 368.664Z" fill="url(#paint11_linear_2577_14174)"/>
<path d="M416.956 368.664C398.652 368.664 384.06 353.176 384.06 333.976C384.06 314.776 398.652 299.032 416.956 299.032C428.476 299.032 434.492 303.768 438.076 310.936V300.44H455.228V367H438.46V356.12C434.876 363.672 428.86 368.664 416.956 368.664ZM401.34 333.848C401.34 343.96 408.764 353.048 419.772 353.048C431.164 353.048 438.46 344.344 438.46 333.976C438.46 323.608 431.164 314.648 419.772 314.648C408.764 314.648 401.34 323.48 401.34 333.848Z" fill="url(#paint12_linear_2577_14174)"/>
<path d="M465.495 367V300.44H482.775V367H465.495Z" fill="url(#paint13_linear_2577_14174)"/>
</g>
</g>
<rect x="75" y="63" width="506" height="506" rx="113" stroke="url(#paint14_linear_2577_14174)" stroke-opacity="0.3" stroke-width="6"/>
</g>
<defs>
<filter id="filter0_d_2577_14174" x="0" y="0" width="656" height="656" filterUnits="userSpaceOnUse" color-interpolation-filters="sRGB">
<feFlood flood-opacity="0" result="BackgroundImageFix"/>
<feColorMatrix in="SourceAlpha" type="matrix" values="0 0 0 0 0 0 0 0 0 0 0 0 0 0 0 0 0 0 127 0" result="hardAlpha"/>
<feOffset dy="12"/>
<feGaussianBlur stdDeviation="36"/>
<feComposite in2="hardAlpha" operator="out"/>
<feColorMatrix type="matrix" values="0 0 0 0 0.054902 0 0 0 0 0.188235 0 0 0 0 0.411765 0 0 0 0.3 0"/>
<feBlend mode="normal" in2="BackgroundImageFix" result="effect1_dropShadow_2577_14174"/>
<feBlend mode="normal" in="SourceGraphic" in2="effect1_dropShadow_2577_14174" result="shape"/>
</filter>
<filter id="filter1_f_2577_14174" x="75.551" y="-581.642" width="595.558" height="1474.43" filterUnits="userSpaceOnUse" color-interpolation-filters="sRGB">
<feFlood flood-opacity="0" result="BackgroundImageFix"/>
<feBlend mode="normal" in="SourceGraphic" in2="BackgroundImageFix" result="shape"/>
<feGaussianBlur stdDeviation="48.245" result="effect1_foregroundBlur_2577_14174"/>
</filter>
<filter id="filter2_f_2577_14174" x="137.487" y="-143.921" width="425.913" height="960.806" filterUnits="userSpaceOnUse" color-interpolation-filters="sRGB">
<feFlood flood-opacity="0" result="BackgroundImageFix"/>
<feBlend mode="normal" in="SourceGraphic" in2="BackgroundImageFix" result="shape"/>
<feGaussianBlur stdDeviation="30.5237" result="effect1_foregroundBlur_2577_14174"/>
</filter>
<filter id="filter3_f_2577_14174" x="167.307" y="59.9518" width="360.731" height="744.13" filterUnits="userSpaceOnUse" color-interpolation-filters="sRGB">
<feFlood flood-opacity="0" result="BackgroundImageFix"/>
<feBlend mode="normal" in="SourceGraphic" in2="BackgroundImageFix" result="shape"/>
<feGaussianBlur stdDeviation="35.7406" result="effect1_foregroundBlur_2577_14174"/>
</filter>
<filter id="filter4_f_2577_14174" x="65.5988" y="-179" width="546.49" height="1000.36" filterUnits="userSpaceOnUse" color-interpolation-filters="sRGB">
<feFlood flood-opacity="0" result="BackgroundImageFix"/>
<feBlend mode="normal" in="SourceGraphic" in2="BackgroundImageFix" result="shape"/>
<feGaussianBlur stdDeviation="31.965" result="effect1_foregroundBlur_2577_14174"/>
</filter>
<filter id="filter5_f_2577_14174" x="453" y="262" width="42" height="42" filterUnits="userSpaceOnUse" color-interpolation-filters="sRGB">
<feFlood flood-opacity="0" result="BackgroundImageFix"/>
<feBlend mode="normal" in="SourceGraphic" in2="BackgroundImageFix" result="shape"/>
<feGaussianBlur stdDeviation="7" result="effect1_foregroundBlur_2577_14174"/>
</filter>
<filter id="filter6_f_2577_14174" x="470" y="246" width="42" height="42" filterUnits="userSpaceOnUse" color-interpolation-filters="sRGB">
<feFlood flood-opacity="0" result="BackgroundImageFix"/>
<feBlend mode="normal" in="SourceGraphic" in2="BackgroundImageFix" result="shape"/>
<feGaussianBlur stdDeviation="7" result="effect1_foregroundBlur_2577_14174"/>
</filter>
<filter id="filter7_f_2577_14174" x="435" y="256" width="35" height="35" filterUnits="userSpaceOnUse" color-interpolation-filters="sRGB">
<feFlood flood-opacity="0" result="BackgroundImageFix"/>
<feBlend mode="normal" in="SourceGraphic" in2="BackgroundImageFix" result="shape"/>
<feGaussianBlur stdDeviation="7" result="effect1_foregroundBlur_2577_14174"/>
</filter>
<filter id="filter8_ddiiii_2577_14174" x="464.243" y="246.38" width="52.5874" height="54.7451" filterUnits="userSpaceOnUse" color-interpolation-filters="sRGB">
<feFlood flood-opacity="0" result="BackgroundImageFix"/>
<feColorMatrix in="SourceAlpha" type="matrix" values="0 0 0 0 0 0 0 0 0 0 0 0 0 0 0 0 0 0 127 0" result="hardAlpha"/>
<feOffset dy="8.29324"/>
<feGaussianBlur stdDeviation="9.12257"/>
<feComposite in2="hardAlpha" operator="out"/>
<feColorMatrix type="matrix" values="0 0 0 0 0 0 0 0 0 0 0 0 0 0 0 0 0 0 0.1 0"/>
<feBlend mode="normal" in2="BackgroundImageFix" result="effect1_dropShadow_2577_14174"/>
<feColorMatrix in="SourceAlpha" type="matrix" values="0 0 0 0 0 0 0 0 0 0 0 0 0 0 0 0 0 0 127 0" result="hardAlpha"/>
<feOffset dy="3.45947"/>
<feGaussianBlur stdDeviation="7.7838"/>
<feComposite in2="hardAlpha" operator="out"/>
<feColorMatrix type="matrix" values="0 0 0 0 0 0 0 0 0 0 0 0 0 0 0 0 0 0 0.16 0"/>
<feBlend mode="normal" in2="effect1_dropShadow_2577_14174" result="effect2_dropShadow_2577_14174"/>
<feBlend mode="normal" in="SourceGraphic" in2="effect2_dropShadow_2577_14174" result="shape"/>
<feColorMatrix in="SourceAlpha" type="matrix" values="0 0 0 0 0 0 0 0 0 0 0 0 0 0 0 0 0 0 127 0" result="hardAlpha"/>
<feOffset dy="-3.3173"/>
<feGaussianBlur stdDeviation="5.80527"/>
<feComposite in2="hardAlpha" operator="arithmetic" k2="-1" k3="1"/>
<feColorMatrix type="matrix" values="0 0 0 0 0 0 0 0 0 0 0 0 0 0 0 0 0 0 0.24 0"/>
<feBlend mode="normal" in2="shape" result="effect3_innerShadow_2577_14174"/>
<feColorMatrix in="SourceAlpha" type="matrix" values="0 0 0 0 0 0 0 0 0 0 0 0 0 0 0 0 0 0 127 0" result="hardAlpha"/>
<feOffset dy="-6.05407"/>
<feGaussianBlur stdDeviation="12.1081"/>
<feComposite in2="hardAlpha" operator="arithmetic" k2="-1" k3="1"/>
<feColorMatrix type="matrix" values="0 0 0 0 0.6775 0 0 0 0 0.625 0 0 0 0 1 0 0 0 0.66 0"/>
<feBlend mode="normal" in2="effect3_innerShadow_2577_14174" result="effect4_innerShadow_2577_14174"/>
<feColorMatrix in="SourceAlpha" type="matrix" values="0 0 0 0 0 0 0 0 0 0 0 0 0 0 0 0 0 0 127 0" result="hardAlpha"/>
<feMorphology radius="3.45947" operator="erode" in="SourceAlpha" result="effect5_innerShadow_2577_14174"/>
<feOffset/>
<feGaussianBlur stdDeviation="5.1892"/>
<feComposite in2="hardAlpha" operator="arithmetic" k2="-1" k3="1"/>
<feColorMatrix type="matrix" values="0 0 0 0 1 0 0 0 0 1 0 0 0 0 1 0 0 0 1 0"/>
<feBlend mode="normal" in2="effect4_innerShadow_2577_14174" result="effect5_innerShadow_2577_14174"/>
<feColorMatrix in="SourceAlpha" type="matrix" values="0 0 0 0 0 0 0 0 0 0 0 0 0 0 0 0 0 0 127 0" result="hardAlpha"/>
<feMorphology radius="3.45947" operator="erode" in="SourceAlpha" result="effect6_innerShadow_2577_14174"/>
<feOffset/>
<feGaussianBlur stdDeviation="3.8919"/>
<feComposite in2="hardAlpha" operator="arithmetic" k2="-1" k3="1"/>
<feColorMatrix type="matrix" values="0 0 0 0 1 0 0 0 0 1 0 0 0 0 1 0 0 0 1 0"/>
<feBlend mode="normal" in2="effect5_innerShadow_2577_14174" result="effect6_innerShadow_2577_14174"/>
</filter>
<filter id="filter9_ddiiii_2577_14174" x="433.691" y="259.288" width="39.3921" height="41.0083" filterUnits="userSpaceOnUse" color-interpolation-filters="sRGB">
<feFlood flood-opacity="0" result="BackgroundImageFix"/>
<feColorMatrix in="SourceAlpha" type="matrix" values="0 0 0 0 0 0 0 0 0 0 0 0 0 0 0 0 0 0 127 0" result="hardAlpha"/>
<feOffset dy="6.21227"/>
<feGaussianBlur stdDeviation="6.8335"/>
<feComposite in2="hardAlpha" operator="out"/>
<feColorMatrix type="matrix" values="0 0 0 0 0 0 0 0 0 0 0 0 0 0 0 0 0 0 0.1 0"/>
<feBlend mode="normal" in2="BackgroundImageFix" result="effect1_dropShadow_2577_14174"/>
<feColorMatrix in="SourceAlpha" type="matrix" values="0 0 0 0 0 0 0 0 0 0 0 0 0 0 0 0 0 0 127 0" result="hardAlpha"/>
<feOffset dy="2.5914"/>
<feGaussianBlur stdDeviation="5.83066"/>
<feComposite in2="hardAlpha" operator="out"/>
<feColorMatrix type="matrix" values="0 0 0 0 0 0 0 0 0 0 0 0 0 0 0 0 0 0 0.16 0"/>
<feBlend mode="normal" in2="effect1_dropShadow_2577_14174" result="effect2_dropShadow_2577_14174"/>
<feBlend mode="normal" in="SourceGraphic" in2="effect2_dropShadow_2577_14174" result="shape"/>
<feColorMatrix in="SourceAlpha" type="matrix" values="0 0 0 0 0 0 0 0 0 0 0 0 0 0 0 0 0 0 127 0" result="hardAlpha"/>
<feOffset dy="-2.48491"/>
<feGaussianBlur stdDeviation="4.34859"/>
<feComposite in2="hardAlpha" operator="arithmetic" k2="-1" k3="1"/>
<feColorMatrix type="matrix" values="0 0 0 0 0 0 0 0 0 0 0 0 0 0 0 0 0 0 0.24 0"/>
<feBlend mode="normal" in2="shape" result="effect3_innerShadow_2577_14174"/>
<feColorMatrix in="SourceAlpha" type="matrix" values="0 0 0 0 0 0 0 0 0 0 0 0 0 0 0 0 0 0 127 0" result="hardAlpha"/>
<feOffset dy="-4.53496"/>
<feGaussianBlur stdDeviation="9.06991"/>
<feComposite in2="hardAlpha" operator="arithmetic" k2="-1" k3="1"/>
<feColorMatrix type="matrix" values="0 0 0 0 0.6775 0 0 0 0 0.625 0 0 0 0 1 0 0 0 0.66 0"/>
<feBlend mode="normal" in2="effect3_innerShadow_2577_14174" result="effect4_innerShadow_2577_14174"/>
<feColorMatrix in="SourceAlpha" type="matrix" values="0 0 0 0 0 0 0 0 0 0 0 0 0 0 0 0 0 0 127 0" result="hardAlpha"/>
<feMorphology radius="2.5914" operator="erode" in="SourceAlpha" result="effect5_innerShadow_2577_14174"/>
<feOffset/>
<feGaussianBlur stdDeviation="3.88711"/>
<feComposite in2="hardAlpha" operator="arithmetic" k2="-1" k3="1"/>
<feColorMatrix type="matrix" values="0 0 0 0 1 0 0 0 0 1 0 0 0 0 1 0 0 0 1 0"/>
<feBlend mode="normal" in2="effect4_innerShadow_2577_14174" result="effect5_innerShadow_2577_14174"/>
<feColorMatrix in="SourceAlpha" type="matrix" values="0 0 0 0 0 0 0 0 0 0 0 0 0 0 0 0 0 0 127 0" result="hardAlpha"/>
<feMorphology radius="2.5914" operator="erode" in="SourceAlpha" result="effect6_innerShadow_2577_14174"/>
<feOffset/>
<feGaussianBlur stdDeviation="2.91533"/>
<feComposite in2="hardAlpha" operator="arithmetic" k2="-1" k3="1"/>
<feColorMatrix type="matrix" values="0 0 0 0 1 0 0 0 0 1 0 0 0 0 1 0 0 0 1 0"/>
<feBlend mode="normal" in2="effect5_innerShadow_2577_14174" result="effect6_innerShadow_2577_14174"/>
</filter>
<filter id="filter10_ddiiii_2577_14174" x="436.572" y="253.81" width="74.8566" height="77.7495" filterUnits="userSpaceOnUse" color-interpolation-filters="sRGB">
<feFlood flood-opacity="0" result="BackgroundImageFix"/>
<feColorMatrix in="SourceAlpha" type="matrix" values="0 0 0 0 0 0 0 0 0 0 0 0 0 0 0 0 0 0 127 0" result="hardAlpha"/>
<feOffset dy="11.1329"/>
<feGaussianBlur stdDeviation="12.2461"/>
<feComposite in2="hardAlpha" operator="out"/>
<feColorMatrix type="matrix" values="0 0 0 0 0 0 0 0 0 0 0 0 0 0 0 0 0 0 0.1 0"/>
<feBlend mode="normal" in2="BackgroundImageFix" result="effect1_dropShadow_2577_14174"/>
<feColorMatrix in="SourceAlpha" type="matrix" values="0 0 0 0 0 0 0 0 0 0 0 0 0 0 0 0 0 0 127 0" result="hardAlpha"/>
<feOffset dy="4.64399"/>
<feGaussianBlur stdDeviation="10.449"/>
<feComposite in2="hardAlpha" operator="out"/>
<feColorMatrix type="matrix" values="0 0 0 0 0 0 0 0 0 0 0 0 0 0 0 0 0 0 0.16 0"/>
<feBlend mode="normal" in2="effect1_dropShadow_2577_14174" result="effect2_dropShadow_2577_14174"/>
<feBlend mode="normal" in="SourceGraphic" in2="effect2_dropShadow_2577_14174" result="shape"/>
<feColorMatrix in="SourceAlpha" type="matrix" values="0 0 0 0 0 0 0 0 0 0 0 0 0 0 0 0 0 0 127 0" result="hardAlpha"/>
<feOffset dy="-4.45314"/>
<feGaussianBlur stdDeviation="7.793"/>
<feComposite in2="hardAlpha" operator="arithmetic" k2="-1" k3="1"/>
<feColorMatrix type="matrix" values="0 0 0 0 0 0 0 0 0 0 0 0 0 0 0 0 0 0 0.24 0"/>
<feBlend mode="normal" in2="shape" result="effect3_innerShadow_2577_14174"/>
<feColorMatrix in="SourceAlpha" type="matrix" values="0 0 0 0 0 0 0 0 0 0 0 0 0 0 0 0 0 0 127 0" result="hardAlpha"/>
<feOffset dy="-8.12698"/>
<feGaussianBlur stdDeviation="16.254"/>
<feComposite in2="hardAlpha" operator="arithmetic" k2="-1" k3="1"/>
<feColorMatrix type="matrix" values="0 0 0 0 0.6775 0 0 0 0 0.625 0 0 0 0 1 0 0 0 0.66 0"/>
<feBlend mode="normal" in2="effect3_innerShadow_2577_14174" result="effect4_innerShadow_2577_14174"/>
<feColorMatrix in="SourceAlpha" type="matrix" values="0 0 0 0 0 0 0 0 0 0 0 0 0 0 0 0 0 0 127 0" result="hardAlpha"/>
<feMorphology radius="4.64399" operator="erode" in="SourceAlpha" result="effect5_innerShadow_2577_14174"/>
<feOffset/>
<feGaussianBlur stdDeviation="6.96599"/>
<feComposite in2="hardAlpha" operator="arithmetic" k2="-1" k3="1"/>
<feColorMatrix type="matrix" values="0 0 0 0 1 0 0 0 0 1 0 0 0 0 1 0 0 0 1 0"/>
<feBlend mode="normal" in2="effect4_innerShadow_2577_14174" result="effect5_innerShadow_2577_14174"/>
<feColorMatrix in="SourceAlpha" type="matrix" values="0 0 0 0 0 0 0 0 0 0 0 0 0 0 0 0 0 0 127 0" result="hardAlpha"/>
<feMorphology radius="4.64399" operator="erode" in="SourceAlpha" result="effect6_innerShadow_2577_14174"/>
<feOffset/>
<feGaussianBlur stdDeviation="5.22449"/>
<feComposite in2="hardAlpha" operator="arithmetic" k2="-1" k3="1"/>
<feColorMatrix type="matrix" values="0 0 0 0 1 0 0 0 0 1 0 0 0 0 1 0 0 0 1 0"/>
<feBlend mode="normal" in2="effect5_innerShadow_2577_14174" result="effect6_innerShadow_2577_14174"/>
</filter>
<filter id="filter11_d_2577_14174" x="152" y="497" width="14" height="14" filterUnits="userSpaceOnUse" color-interpolation-filters="sRGB">
<feFlood flood-opacity="0" result="BackgroundImageFix"/>
<feColorMatrix in="SourceAlpha" type="matrix" values="0 0 0 0 0 0 0 0 0 0 0 0 0 0 0 0 0 0 127 0" result="hardAlpha"/>
<feOffset/>
<feGaussianBlur stdDeviation="3"/>
<feComposite in2="hardAlpha" operator="out"/>
<feColorMatrix type="matrix" values="0 0 0 0 1 0 0 0 0 1 0 0 0 0 1 0 0 0 0.35 0"/>
<feBlend mode="normal" in2="BackgroundImageFix" result="effect1_dropShadow_2577_14174"/>
<feBlend mode="normal" in="SourceGraphic" in2="effect1_dropShadow_2577_14174" result="shape"/>
</filter>
<filter id="filter12_d_2577_14174" x="171" y="483" width="14" height="14" filterUnits="userSpaceOnUse" color-interpolation-filters="sRGB">
<feFlood flood-opacity="0" result="BackgroundImageFix"/>
<feColorMatrix in="SourceAlpha" type="matrix" values="0 0 0 0 0 0 0 0 0 0 0 0 0 0 0 0 0 0 127 0" result="hardAlpha"/>
<feOffset/>
<feGaussianBlur stdDeviation="3"/>
<feComposite in2="hardAlpha" operator="out"/>
<feColorMatrix type="matrix" values="0 0 0 0 1 0 0 0 0 1 0 0 0 0 1 0 0 0 0.35 0"/>
<feBlend mode="normal" in2="BackgroundImageFix" result="effect1_dropShadow_2577_14174"/>
<feBlend mode="normal" in="SourceGraphic" in2="effect1_dropShadow_2577_14174" result="shape"/>
</filter>
<filter id="filter13_f_2577_14174" x="184.607" y="319.709" width="6.35893" height="6.35893" filterUnits="userSpaceOnUse" color-interpolation-filters="sRGB">
<feFlood flood-opacity="0" result="BackgroundImageFix"/>
<feBlend mode="normal" in="SourceGraphic" in2="BackgroundImageFix" result="shape"/>
<feGaussianBlur stdDeviation="0.794872" result="effect1_foregroundBlur_2577_14174"/>
</filter>
<filter id="filter14_f_2577_14174" x="512.624" y="94.4957" width="6.35917" height="6.35893" filterUnits="userSpaceOnUse" color-interpolation-filters="sRGB">
<feFlood flood-opacity="0" result="BackgroundImageFix"/>
<feBlend mode="normal" in="SourceGraphic" in2="BackgroundImageFix" result="shape"/>
<feGaussianBlur stdDeviation="0.794872" result="effect1_foregroundBlur_2577_14174"/>
</filter>
<filter id="filter15_f_2577_14174" x="213.41" y="176.137" width="6.35893" height="6.35893" filterUnits="userSpaceOnUse" color-interpolation-filters="sRGB">
<feFlood flood-opacity="0" result="BackgroundImageFix"/>
<feBlend mode="normal" in="SourceGraphic" in2="BackgroundImageFix" result="shape"/>
<feGaussianBlur stdDeviation="0.794872" result="effect1_foregroundBlur_2577_14174"/>
</filter>
<filter id="filter16_f_2577_14174" x="229.308" y="154.41" width="6.35893" height="6.35893" filterUnits="userSpaceOnUse" color-interpolation-filters="sRGB">
<feFlood flood-opacity="0" result="BackgroundImageFix"/>
<feBlend mode="normal" in="SourceGraphic" in2="BackgroundImageFix" result="shape"/>
<feGaussianBlur stdDeviation="0.794872" result="effect1_foregroundBlur_2577_14174"/>
</filter>
<filter id="filter17_f_2577_14174" x="126.846" y="109.863" width="6.35893" height="6.35893" filterUnits="userSpaceOnUse" color-interpolation-filters="sRGB">
<feFlood flood-opacity="0" result="BackgroundImageFix"/>
<feBlend mode="normal" in="SourceGraphic" in2="BackgroundImageFix" result="shape"/>
<feGaussianBlur stdDeviation="0.794872" result="effect1_foregroundBlur_2577_14174"/>
</filter>
<filter id="filter18_f_2577_14174" x="216.931" y="76.4786" width="6.35893" height="6.35893" filterUnits="userSpaceOnUse" color-interpolation-filters="sRGB">
<feFlood flood-opacity="0" result="BackgroundImageFix"/>
<feBlend mode="normal" in="SourceGraphic" in2="BackgroundImageFix" result="shape"/>
<feGaussianBlur stdDeviation="0.794872" result="effect1_foregroundBlur_2577_14174"/>
</filter>
<filter id="filter19_f_2577_14174" x="480.299" y="337.726" width="6.35917" height="6.35893" filterUnits="userSpaceOnUse" color-interpolation-filters="sRGB">
<feFlood flood-opacity="0" result="BackgroundImageFix"/>
<feBlend mode="normal" in="SourceGraphic" in2="BackgroundImageFix" result="shape"/>
<feGaussianBlur stdDeviation="0.794872" result="effect1_foregroundBlur_2577_14174"/>
</filter>
<filter id="filter20_f_2577_14174" x="144.71" y="202.735" width="6.35893" height="6.35893" filterUnits="userSpaceOnUse" color-interpolation-filters="sRGB">
<feFlood flood-opacity="0" result="BackgroundImageFix"/>
<feBlend mode="normal" in="SourceGraphic" in2="BackgroundImageFix" result="shape"/>
<feGaussianBlur stdDeviation="0.794872" result="effect1_foregroundBlur_2577_14174"/>
</filter>
<filter id="filter21_f_2577_14174" x="139.564" y="356.274" width="6.35893" height="6.35893" filterUnits="userSpaceOnUse" color-interpolation-filters="sRGB">
<feFlood flood-opacity="0" result="BackgroundImageFix"/>
<feBlend mode="normal" in="SourceGraphic" in2="BackgroundImageFix" result="shape"/>
<feGaussianBlur stdDeviation="0.794872" result="effect1_foregroundBlur_2577_14174"/>
</filter>
<filter id="filter22_d_2577_14174" x="321" y="205.667" width="14" height="14" filterUnits="userSpaceOnUse" color-interpolation-filters="sRGB">
<feFlood flood-opacity="0" result="BackgroundImageFix"/>
<feColorMatrix in="SourceAlpha" type="matrix" values="0 0 0 0 0 0 0 0 0 0 0 0 0 0 0 0 0 0 127 0" result="hardAlpha"/>
<feOffset/>
<feGaussianBlur stdDeviation="3"/>
<feComposite in2="hardAlpha" operator="out"/>
<feColorMatrix type="matrix" values="0 0 0 0 1 0 0 0 0 1 0 0 0 0 1 0 0 0 0.35 0"/>
<feBlend mode="normal" in2="BackgroundImageFix" result="effect1_dropShadow_2577_14174"/>
<feBlend mode="normal" in="SourceGraphic" in2="effect1_dropShadow_2577_14174" result="shape"/>
</filter>
<filter id="filter23_d_2577_14174" x="376" y="504.667" width="14" height="14" filterUnits="userSpaceOnUse" color-interpolation-filters="sRGB">
<feFlood flood-opacity="0" result="BackgroundImageFix"/>
<feColorMatrix in="SourceAlpha" type="matrix" values="0 0 0 0 0 0 0 0 0 0 0 0 0 0 0 0 0 0 127 0" result="hardAlpha"/>
<feOffset/>
<feGaussianBlur stdDeviation="3"/>
<feComposite in2="hardAlpha" operator="out"/>
<feColorMatrix type="matrix" values="0 0 0 0 1 0 0 0 0 1 0 0 0 0 1 0 0 0 0.35 0"/>
<feBlend mode="normal" in2="BackgroundImageFix" result="effect1_dropShadow_2577_14174"/>
<feBlend mode="normal" in="SourceGraphic" in2="effect1_dropShadow_2577_14174" result="shape"/>
</filter>
<filter id="filter24_ddiiii_2577_14174" x="150.229" y="259.56" width="353.642" height="139.789" filterUnits="userSpaceOnUse" color-interpolation-filters="sRGB">
<feFlood flood-opacity="0" result="BackgroundImageFix"/>
<feColorMatrix in="SourceAlpha" type="matrix" values="0 0 0 0 0 0 0 0 0 0 0 0 0 0 0 0 0 0 127 0" result="hardAlpha"/>
<feOffset dy="9.58904"/>
<feGaussianBlur stdDeviation="10.5479"/>
<feComposite in2="hardAlpha" operator="out"/>
<feColorMatrix type="matrix" values="0 0 0 0 0 0 0 0 0 0 0 0 0 0 0 0 0 0 0.1 0"/>
<feBlend mode="normal" in2="BackgroundImageFix" result="effect1_dropShadow_2577_14174"/>
<feColorMatrix in="SourceAlpha" type="matrix" values="0 0 0 0 0 0 0 0 0 0 0 0 0 0 0 0 0 0 127 0" result="hardAlpha"/>
<feOffset dy="4"/>
<feGaussianBlur stdDeviation="9"/>
<feComposite in2="hardAlpha" operator="out"/>
<feColorMatrix type="matrix" values="0 0 0 0 0 0 0 0 0 0 0 0 0 0 0 0 0 0 0.16 0"/>
<feBlend mode="normal" in2="effect1_dropShadow_2577_14174" result="effect2_dropShadow_2577_14174"/>
<feBlend mode="normal" in="SourceGraphic" in2="effect2_dropShadow_2577_14174" result="shape"/>
<feColorMatrix in="SourceAlpha" type="matrix" values="0 0 0 0 0 0 0 0 0 0 0 0 0 0 0 0 0 0 127 0" result="hardAlpha"/>
<feOffset dy="-3.83562"/>
<feGaussianBlur stdDeviation="6.71233"/>
<feComposite in2="hardAlpha" operator="arithmetic" k2="-1" k3="1"/>
<feColorMatrix type="matrix" values="0 0 0 0 0 0 0 0 0 0 0 0 0 0 0 0 0 0 0.24 0"/>
<feBlend mode="normal" in2="shape" result="effect3_innerShadow_2577_14174"/>
<feColorMatrix in="SourceAlpha" type="matrix" values="0 0 0 0 0 0 0 0 0 0 0 0 0 0 0 0 0 0 127 0" result="hardAlpha"/>
<feOffset dy="-7"/>
<feGaussianBlur stdDeviation="23.5"/>
<feComposite in2="hardAlpha" operator="arithmetic" k2="-1" k3="1"/>
<feColorMatrix type="matrix" values="0 0 0 0 0.6775 0 0 0 0 0.625 0 0 0 0 1 0 0 0 0.5 0"/>
<feBlend mode="normal" in2="effect3_innerShadow_2577_14174" result="effect4_innerShadow_2577_14174"/>
<feColorMatrix in="SourceAlpha" type="matrix" values="0 0 0 0 0 0 0 0 0 0 0 0 0 0 0 0 0 0 127 0" result="hardAlpha"/>
<feMorphology radius="4" operator="erode" in="SourceAlpha" result="effect5_innerShadow_2577_14174"/>
<feOffset/>
<feGaussianBlur stdDeviation="6"/>
<feComposite in2="hardAlpha" operator="arithmetic" k2="-1" k3="1"/>
<feColorMatrix type="matrix" values="0 0 0 0 1 0 0 0 0 1 0 0 0 0 1 0 0 0 1 0"/>
<feBlend mode="normal" in2="effect4_innerShadow_2577_14174" result="effect5_innerShadow_2577_14174"/>
<feColorMatrix in="SourceAlpha" type="matrix" values="0 0 0 0 0 0 0 0 0 0 0 0 0 0 0 0 0 0 127 0" result="hardAlpha"/>
<feMorphology radius="4" operator="erode" in="SourceAlpha" result="effect6_innerShadow_2577_14174"/>
<feOffset/>
<feGaussianBlur stdDeviation="4.5"/>
<feComposite in2="hardAlpha" operator="arithmetic" k2="-1" k3="1"/>
<feColorMatrix type="matrix" values="0 0 0 0 1 0 0 0 0 1 0 0 0 0 1 0 0 0 1 0"/>
<feBlend mode="normal" in2="effect5_innerShadow_2577_14174" result="effect6_innerShadow_2577_14174"/>
</filter>
<linearGradient id="paint0_linear_2577_14174" x1="328" y1="60" x2="328" y2="572" gradientUnits="userSpaceOnUse">
<stop stop-color="#3E3C77"/>
<stop offset="1" stop-color="#53489C"/>
</linearGradient>
<linearGradient id="paint1_linear_2577_14174" x1="384.663" y1="788.181" x2="193.664" y2="-436.004" gradientUnits="userSpaceOnUse">
<stop stop-color="#0006F7"/>
<stop offset="0.445833" stop-color="#5B5D9D" stop-opacity="0.24"/>
<stop offset="1" stop-color="#5B5EEE" stop-opacity="0"/>
</linearGradient>
<linearGradient id="paint2_linear_2577_14174" x1="390.863" y1="765.437" x2="331.753" y2="-140.23" gradientUnits="userSpaceOnUse">
<stop stop-color="#721EF4"/>
<stop offset="1" stop-color="#2E0CFF" stop-opacity="0.03"/>
</linearGradient>
<linearGradient id="paint3_linear_2577_14174" x1="376.644" y1="739.481" x2="334.275" y2="90.3215" gradientUnits="userSpaceOnUse">
<stop stop-color="white"/>
<stop offset="0.482292" stop-color="#7F30FF"/>
<stop offset="1" stop-color="#9D9FFF" stop-opacity="0"/>
</linearGradient>
<radialGradient id="paint4_radial_2577_14174" cx="0" cy="0" r="1" gradientUnits="userSpaceOnUse" gradientTransform="translate(292.163 759.577) rotate(-52.9732) scale(816.922 1694.58)">
<stop stop-color="white"/>
<stop offset="0.314134" stop-color="#9B8DFF"/>
<stop offset="1" stop-color="#3518FF" stop-opacity="0"/>
</radialGradient>
<linearGradient id="paint5_linear_2577_14174" x1="480.771" y1="259.766" x2="500.303" y2="273.308" gradientUnits="userSpaceOnUse">
<stop stop-color="white"/>
<stop offset="1" stop-color="#E3E0F4"/>
</linearGradient>
<linearGradient id="paint6_linear_2577_14174" x1="446.072" y1="269.316" x2="460.703" y2="279.459" gradientUnits="userSpaceOnUse">
<stop stop-color="white"/>
<stop offset="1" stop-color="#E3E0F4"/>
</linearGradient>
<linearGradient id="paint7_linear_2577_14174" x1="474" y1="267" x2="474" y2="299" gradientUnits="userSpaceOnUse">
<stop stop-color="white"/>
<stop offset="1" stop-color="#E3E0F4"/>
</linearGradient>
<linearGradient id="paint8_linear_2577_14174" x1="327.882" y1="273.56" x2="327.882" y2="368.664" gradientUnits="userSpaceOnUse">
<stop stop-color="white"/>
<stop offset="1" stop-color="#E3E0F4"/>
</linearGradient>
<linearGradient id="paint9_linear_2577_14174" x1="327.882" y1="273.56" x2="327.882" y2="368.664" gradientUnits="userSpaceOnUse">
<stop stop-color="white"/>
<stop offset="1" stop-color="#E3E0F4"/>
</linearGradient>
<linearGradient id="paint10_linear_2577_14174" x1="327.882" y1="273.56" x2="327.882" y2="368.664" gradientUnits="userSpaceOnUse">
<stop stop-color="white"/>
<stop offset="1" stop-color="#E3E0F4"/>
</linearGradient>
<linearGradient id="paint11_linear_2577_14174" x1="327.882" y1="273.56" x2="327.882" y2="368.664" gradientUnits="userSpaceOnUse">
<stop stop-color="white"/>
<stop offset="1" stop-color="#E3E0F4"/>
</linearGradient>
<linearGradient id="paint12_linear_2577_14174" x1="327.882" y1="273.56" x2="327.882" y2="368.664" gradientUnits="userSpaceOnUse">
<stop stop-color="white"/>
<stop offset="1" stop-color="#E3E0F4"/>
</linearGradient>
<linearGradient id="paint13_linear_2577_14174" x1="327.882" y1="273.56" x2="327.882" y2="368.664" gradientUnits="userSpaceOnUse">
<stop stop-color="white"/>
<stop offset="1" stop-color="#E3E0F4"/>
</linearGradient>
<linearGradient id="paint14_linear_2577_14174" x1="328" y1="60" x2="328" y2="572" gradientUnits="userSpaceOnUse">
<stop stop-color="white" stop-opacity="0"/>
<stop offset="1" stop-color="#D8CEFF"/>
</linearGradient>
<clipPath id="clip0_2577_14174">
<rect x="72" y="60" width="512" height="512" rx="116" fill="white"/>
</clipPath>
</defs>
</svg>
