<?xml version="1.0" encoding="utf-8"?>
<!-- Generator: Adobe Illustrator 27.5.0, SVG Export Plug-In . SVG Version: 6.00 Build 0)  -->
<svg version="1.1" id="Layer_1" xmlns="http://www.w3.org/2000/svg" xmlns:xlink="http://www.w3.org/1999/xlink" x="0px" y="0px"
	 viewBox="0 0 56 56" style="enable-background:new 0 0 56 56;" xml:space="preserve">
<style type="text/css">
	.st0{fill:#292929;}
	.st1{fill:#FFFFFF;}
</style>
<path class="st0" d="M12,0h32c6.6,0,12,5.4,12,12v32c0,6.6-5.4,12-12,12H12C5.4,56,0,50.6,0,44V12C0,5.4,5.4,0,12,0z"/>
<g>
	<path class="st1" d="M13.2,32.1c-0.7-0.4-1.3-1-1.7-1.7c-0.4-0.7-0.6-1.5-0.6-2.3c0-0.8,0.2-1.6,0.6-2.3c0.4-0.7,0.9-1.3,1.6-1.7
		c0.7-0.4,1.5-0.6,2.4-0.6c0.7,0,1.3,0.1,1.9,0.3c0.5,0.2,1,0.6,1.4,1.1L17.5,26c-0.5-0.6-1.2-0.8-2-0.8c-0.6,0-1,0.1-1.5,0.4
		s-0.7,0.6-1,1.1c-0.2,0.5-0.3,0.9-0.3,1.5s0.1,1,0.3,1.5c0.2,0.4,0.6,0.8,1,1.1c0.4,0.3,0.9,0.4,1.5,0.4c0.8,0,1.5-0.3,2-0.9
		l1.3,1.1c-0.4,0.4-0.8,0.8-1.4,1s-1.2,0.4-2,0.4C14.7,32.7,13.9,32.5,13.2,32.1z"/>
	<path class="st1" d="M21.1,32.2c-0.5-0.3-0.9-0.7-1.2-1.2c-0.3-0.5-0.4-1.1-0.4-1.7s0.1-1.2,0.4-1.7c0.3-0.5,0.7-0.9,1.2-1.3
		c0.5-0.3,1-0.5,1.6-0.5c0.5,0,1,0.1,1.3,0.3c0.3,0.2,0.6,0.5,0.8,0.9v-1h1.7v6.6h-1.7v-1.1c-0.2,0.4-0.5,0.7-0.8,0.9
		s-0.8,0.3-1.3,0.3C22.2,32.7,21.6,32.5,21.1,32.2z M21.5,30.2c0.2,0.3,0.4,0.5,0.6,0.7c0.3,0.2,0.6,0.3,0.9,0.3
		c0.4,0,0.7-0.1,1-0.3c0.3-0.2,0.5-0.4,0.7-0.7c0.2-0.3,0.2-0.6,0.2-0.9s-0.1-0.7-0.2-1c-0.2-0.3-0.4-0.5-0.7-0.7
		c-0.3-0.2-0.6-0.3-1-0.3c-0.4,0-0.7,0.1-0.9,0.3c-0.3,0.2-0.5,0.4-0.6,0.7c-0.2,0.3-0.2,0.6-0.2,0.9C21.2,29.6,21.3,29.9,21.5,30.2
		z"/>
	<path class="st1" d="M28.2,23.3h1.7v9.2h-1.7V23.3z"/>
	<path class="st1" d="M37.1,23.7h1.5l3.6,8.9h-1.9l-0.6-1.7H36l-0.6,1.7h-1.9L37.1,23.7z M39.1,29.3l-0.9-2.4
		c-0.1-0.4-0.2-0.7-0.3-1c-0.1,0.4-0.2,0.8-0.3,1l-0.9,2.4H39.1z"/>
	<path class="st1" d="M43.3,23.7h1.8v8.9h-1.8V23.7z"/>
</g>
<g>
	<path class="st1" d="M49.6,12.5c0.5-0.1,0.5-0.3,0-0.4l-0.6-0.1c-0.8-0.2-1.5-1-1.7-1.7l-0.1-0.6c-0.1-0.5-0.3-0.5-0.4,0l-0.1,0.6
		c-0.2,0.8-1,1.5-1.7,1.7l-0.6,0.1c-0.5,0.1-0.5,0.3,0,0.4l0.6,0.1c0.8,0.2,1.5,1,1.7,1.7l0.1,0.6c0.1,0.5,0.3,0.5,0.4,0l0.1-0.6
		c0.2-0.8,1-1.5,1.7-1.7L49.6,12.5z"/>
	<path class="st1" d="M44.1,8.2c0.3-0.1,0.3-0.2,0-0.3l-0.4-0.1c-0.5-0.1-1-0.6-1.2-1.2l-0.1-0.4c-0.1-0.3-0.2-0.3-0.3,0l-0.1,0.4
		c-0.1,0.5-0.6,1-1.2,1.2l-0.4,0.1c-0.3,0.1-0.3,0.2,0,0.3l0.4,0.1c0.5,0.1,1,0.6,1.2,1.2l0.1,0.4c0.1,0.3,0.2,0.3,0.3,0l0.1-0.4
		c0.1-0.5,0.6-1,1.2-1.2L44.1,8.2z"/>
</g>
</svg>
