<svg width="131" height="105" viewBox="0 0 131 105" fill="none" xmlns="http://www.w3.org/2000/svg">
<path d="M68.046 55.551L68.366 55.232C68.574 55.024 68.798 54.8 69.022 54.592L69.47 54.16L70.797 52.849L72.62 51.074L74.171 49.539L75.626 48.099L77.146 46.596L78.537 45.221L80.488 43.302C80.856 42.934 81.239 42.582 81.623 42.23C82.327 41.591 83.062 40.967 83.798 40.359C84.486 39.816 85.189 39.288 85.909 38.776C86.916 38.057 87.956 37.401 89.011 36.761C90.051 36.154 91.122 35.578 92.21 35.0342C93.233 34.5385 94.288 34.0748 95.36 33.659C95.952 33.4191 96.559 33.2112 97.167 33.0033C97.471 32.9074 97.775 32.7954 98.094 32.6995C95.392 22.0651 90.45 12.1504 83.59 3.5949C82.263 1.9478 80.248 0.988297 78.137 0.988297H22.0867C21.511 0.988297 21.0312 1.452 21.0312 2.0437C21.0312 2.3795 21.1912 2.6834 21.463 2.8913C40.5889 16.9158 56.452 34.9383 67.918 55.695L68.046 55.551Z" fill="#00D6B9"/>
<path d="M45.77 104.885C74.715 104.885 99.934 88.91 113.079 65.306C113.543 64.474 113.99 63.643 114.422 62.795C113.766 64.059 113.031 65.274 112.215 66.425C111.927 66.825 111.639 67.225 111.336 67.625C110.952 68.12 110.568 68.584 110.168 69.048C109.848 69.416 109.529 69.768 109.193 70.119C108.521 70.823 107.818 71.495 107.082 72.118C106.666 72.47 106.266 72.806 105.835 73.126C105.339 73.51 104.827 73.877 104.315 74.213C103.996 74.437 103.66 74.645 103.324 74.853C102.988 75.061 102.636 75.269 102.268 75.477C101.549 75.876 100.797 76.26 100.046 76.596C99.39 76.884 98.718 77.156 98.047 77.412C97.311 77.683 96.575 77.923 95.808 78.131C94.672 78.451 93.537 78.691 92.37 78.867C91.538 78.995 90.675 79.091 89.827 79.155C88.931 79.219 88.02 79.235 87.108 79.235C86.101 79.219 85.093 79.155 84.07 79.043C83.318 78.963 82.567 78.851 81.815 78.723C81.16 78.611 80.504 78.467 79.848 78.307C79.496 78.227 79.161 78.131 78.809 78.035C77.849 77.779 76.89 77.507 75.93 77.236C75.451 77.092 74.971 76.964 74.507 76.82C73.787 76.612 73.084 76.388 72.38 76.164C71.804 75.988 71.229 75.796 70.653 75.604C70.109 75.429 69.55 75.253 69.006 75.061L67.887 74.677C67.439 74.517 66.975 74.357 66.527 74.197L65.568 73.845C64.928 73.622 64.288 73.382 63.665 73.142C63.297 72.998 62.929 72.87 62.561 72.726C62.066 72.534 61.586 72.342 61.09 72.15C60.578 71.942 60.051 71.735 59.539 71.527L58.531 71.111L57.284 70.599L56.325 70.199L55.333 69.768L54.47 69.384L53.686 69.032L52.886 68.664L52.071 68.28L51.031 67.801L49.944 67.289C49.56 67.097 49.176 66.921 48.793 66.729L47.817 66.249C30.6102 57.662 15.0824 46.084 1.93729 32.0435C1.53749 31.6277 0.881889 31.5957 0.450089 31.9955C0.242188 32.1874 0.114288 32.4752 0.114288 32.7631L0.146187 82.225V86.239C0.146187 88.574 1.29759 90.749 3.23259 92.044C15.818 100.455 30.6262 104.917 45.77 104.885Z" fill="#3370FF"/>
<path d="M130.83 35.1629C121.059 30.3815 109.881 29.358 99.406 32.3004C98.958 32.4284 98.527 32.5563 98.095 32.6842C97.791 32.7802 97.487 32.8761 97.167 32.9881C96.56 33.196 95.952 33.4198 95.36 33.6437C94.289 34.0595 93.249 34.5233 92.21 35.019C91.123 35.5467 90.051 36.122 89.012 36.73C87.94 37.354 86.917 38.025 85.909 38.745C85.19 39.257 84.486 39.784 83.799 40.328C83.047 40.936 82.327 41.544 81.624 42.199C81.24 42.551 80.872 42.903 80.488 43.271L78.537 45.19L77.146 46.565L75.627 48.068L74.172 49.507L72.62 51.043L70.813 52.834L69.486 54.145L69.038 54.577C68.83 54.785 68.607 55.008 68.383 55.216L68.063 55.536L67.567 56C67.375 56.176 67.199 56.336 67.007 56.512C62.194 60.941 56.821 64.731 51.048 67.818L52.087 68.297L52.903 68.681L53.702 69.049L54.486 69.401L55.35 69.785L56.341 70.216L57.301 70.616L58.548 71.128L59.555 71.544C60.067 71.752 60.595 71.959 61.107 72.167C61.586 72.359 62.082 72.551 62.578 72.743C62.946 72.887 63.313 73.015 63.681 73.159C64.321 73.399 64.96 73.623 65.584 73.862L66.544 74.214C66.991 74.374 67.439 74.534 67.903 74.694L69.022 75.078C69.566 75.254 70.11 75.446 70.669 75.621C71.245 75.813 71.821 75.989 72.397 76.181C73.1 76.405 73.82 76.613 74.523 76.837C75.003 76.981 75.483 77.125 75.947 77.253C76.906 77.524 77.866 77.796 78.825 78.052C79.177 78.148 79.513 78.228 79.865 78.324C80.52 78.484 81.176 78.612 81.832 78.74C82.583 78.868 83.335 78.98 84.086 79.06C85.11 79.172 86.117 79.236 87.125 79.252C88.036 79.268 88.948 79.236 89.843 79.172C90.707 79.108 91.554 79.012 92.386 78.884C93.537 78.708 94.689 78.452 95.824 78.148C96.576 77.94 97.327 77.7 98.063 77.429C98.735 77.189 99.406 76.917 100.062 76.613C100.813 76.277 101.565 75.893 102.285 75.494C102.637 75.302 102.988 75.094 103.34 74.87C103.692 74.662 104.012 74.438 104.332 74.23C104.843 73.878 105.355 73.527 105.851 73.143C106.283 72.823 106.698 72.487 107.098 72.135C107.818 71.512 108.521 70.84 109.193 70.136C109.529 69.785 109.849 69.433 110.169 69.065C110.568 68.601 110.968 68.121 111.336 67.642C111.64 67.258 111.928 66.858 112.215 66.442C113.015 65.291 113.751 64.092 114.406 62.844L115.158 61.357L121.842 48.036L121.922 47.876C124.129 43.111 127.136 38.825 130.83 35.1629Z" fill="#133C9A"/>
</svg>
