<svg width="160" height="24" viewBox="0 0 160 24" fill="none" xmlns="http://www.w3.org/2000/svg">
<path d="M7.95343 21.1394C4.89586 21.1304 2.25471 19.458 0.987296 16.2895C-0.280118 13.121 0.108924 9.16314 1.74363 5.61504C4.8012 5.62409 7.44235 7.29648 8.70976 10.465C9.97718 13.6335 9.58814 17.5913 7.95343 21.1394Z" fill="white"/>
<path d="M7.95343 21.1394C4.89586 21.1304 2.25471 19.458 0.987296 16.2895C-0.280118 13.121 0.108924 9.16314 1.74363 5.61504C4.8012 5.62409 7.44235 7.29648 8.70976 10.465C9.97718 13.6335 9.58814 17.5913 7.95343 21.1394Z" fill="url(#paint0_radial_115_86)"/>
<path d="M7.95343 21.1394C4.89586 21.1304 2.25471 19.458 0.987296 16.2895C-0.280118 13.121 0.108924 9.16314 1.74363 5.61504C4.8012 5.62409 7.44235 7.29648 8.70976 10.465C9.97718 13.6335 9.58814 17.5913 7.95343 21.1394Z" fill="black" fill-opacity="0.5" style="mix-blend-mode:hard-light"/>
<path d="M7.95343 21.1394C4.89586 21.1304 2.25471 19.458 0.987296 16.2895C-0.280118 13.121 0.108924 9.16314 1.74363 5.61504C4.8012 5.62409 7.44235 7.29648 8.70976 10.465C9.97718 13.6335 9.58814 17.5913 7.95343 21.1394Z" fill="url(#paint1_linear_115_86)" fill-opacity="0.5" style="mix-blend-mode:hard-light"/>
<path d="M7.9354 21.1112C4.89702 21.0957 2.27411 19.4306 1.01347 16.279C-0.248375 13.1244 0.135612 9.18218 1.76165 5.64327C4.80004 5.65882 7.42295 7.32385 8.68359 10.4755C9.94543 13.63 9.56144 17.5723 7.9354 21.1112Z" stroke="url(#paint2_linear_115_86)" stroke-opacity="0.05" stroke-width="0.056338"/>
<path d="M7.31038 21.2574C11.3543 20.2215 14.8836 17.3754 16.6285 13.2361C18.3735 9.09671 17.9448 4.58749 15.8598 0.976291C11.8159 2.01214 8.2866 4.85826 6.54167 8.99762C4.79674 13.137 5.2254 17.6462 7.31038 21.2574Z" fill="white"/>
<path d="M7.31038 21.2574C11.3543 20.2215 14.8836 17.3754 16.6285 13.2361C18.3735 9.09671 17.9448 4.58749 15.8598 0.976291C11.8159 2.01214 8.2866 4.85826 6.54167 8.99762C4.79674 13.137 5.2254 17.6462 7.31038 21.2574Z" fill="url(#paint3_radial_115_86)"/>
<path d="M16.6025 13.2251C14.8642 17.349 11.3512 20.1866 7.32411 21.2248C5.25257 17.624 4.82926 13.1324 6.56764 9.00855C8.30603 4.88472 11.819 2.04706 15.8461 1.00889C17.9176 4.60967 18.3409 9.10131 16.6025 13.2251Z" stroke="url(#paint4_linear_115_86)" stroke-opacity="0.05" stroke-width="0.056338"/>
<path d="M7.23368 21.2069C9.78906 23.2373 13.2102 23.9506 16.5772 22.8141C19.9441 21.6775 22.5058 18.9445 23.7304 15.6382C21.175 13.6078 17.7538 12.8944 14.3869 14.031C11.0199 15.1676 8.45822 17.9006 7.23368 21.2069Z" fill="white"/>
<path d="M7.23368 21.2069C9.78906 23.2373 13.2102 23.9506 16.5772 22.8141C19.9441 21.6775 22.5058 18.9445 23.7304 15.6382C21.175 13.6078 17.7538 12.8944 14.3869 14.031C11.0199 15.1676 8.45822 17.9006 7.23368 21.2069Z" fill="url(#paint5_radial_115_86)"/>
<path d="M7.23368 21.2069C9.78906 23.2373 13.2102 23.9506 16.5772 22.8141C19.9441 21.6775 22.5058 18.9445 23.7304 15.6382C21.175 13.6078 17.7538 12.8944 14.3869 14.031C11.0199 15.1676 8.45822 17.9006 7.23368 21.2069Z" fill="black" fill-opacity="0.2" style="mix-blend-mode:hard-light"/>
<path d="M7.23368 21.2069C9.78906 23.2373 13.2102 23.9506 16.5772 22.8141C19.9441 21.6775 22.5058 18.9445 23.7304 15.6382C21.175 13.6078 17.7538 12.8944 14.3869 14.031C11.0199 15.1676 8.45822 17.9006 7.23368 21.2069Z" fill="url(#paint6_linear_115_86)" fill-opacity="0.5" style="mix-blend-mode:hard-light"/>
<path d="M16.5682 22.7874C13.2176 23.9184 9.81361 23.2124 7.2672 21.1975C8.49194 17.9068 11.0444 15.189 14.3959 14.0577C17.7465 12.9266 21.1504 13.6326 23.6968 15.6476C22.4721 18.9383 19.9196 21.656 16.5682 22.7874Z" stroke="url(#paint7_linear_115_86)" stroke-opacity="0.05" stroke-width="0.056338"/>
<path d="M34.2124 19V5.4H39.4924L41.6924 12.2L42.3724 14.74L43.0524 12.2L45.2524 5.4H50.4124V19H46.3324L46.5924 9.98L45.5324 13.68L43.7924 19H40.8324L39.0524 13.6L38.0324 10.02L38.2924 19H34.2124ZM52.4155 7.3V4.6H56.2955V7.3H52.4155ZM52.4155 19V8.14H56.2955V19H52.4155ZM58.1038 19V8.14H61.9838V9.58C62.6638 8.34 63.7438 7.76 65.0038 7.76C66.9638 7.76 68.6238 8.98 68.6238 11.78V19H64.7438V12.56C64.7438 11.34 64.3038 10.86 63.4838 10.86C62.6038 10.86 61.9838 11.58 61.9838 12.88V19H58.1038ZM70.9327 15.22V11.06H69.7327V8.14H70.9327V5.62H74.8127V8.14H76.9327V11.06H74.8127V14.6C74.8127 15.5 75.0327 16.06 76.2127 16.06H76.9327V19C76.4927 19.2 75.6727 19.38 74.6527 19.38C72.1527 19.38 70.9327 17.88 70.9327 15.22Z" fill="#001E13"/>
<path d="M87.232 10.519C87.232 13.687 94.1125 11.2285 94.1125 15.832C94.1125 17.9935 92.3635 19.198 89.971 19.198C87.562 19.198 85.912 18.0925 85.417 15.832H87.001C87.364 17.1685 88.3705 17.8945 89.9875 17.8945C91.6705 17.8945 92.5615 17.152 92.5615 16.03C92.5615 12.598 85.681 15.1555 85.681 10.618C85.681 9.001 87.034 7.582 89.509 7.582C91.6705 7.582 93.403 8.6215 93.8155 11.014H92.215C91.8685 9.529 90.9115 8.8855 89.476 8.8855C88.057 8.8855 87.232 9.529 87.232 10.519ZM96.2499 16.4755V11.3935H95.0289V10.2385H96.2499V8.2255H97.7019V10.2385H99.6324V11.3935H97.7019V16.4755C97.7019 17.5315 98.0154 18.0265 99.3024 18.0265H99.5994V19.066C99.4344 19.1485 99.0714 19.198 98.6589 19.198C97.0254 19.198 96.2499 18.3235 96.2499 16.4755ZM102.516 13.093H101.064C101.345 11.1625 102.615 10.024 104.76 10.024C107.103 10.024 108.242 11.3935 108.242 13.4395V16.888C108.242 17.8945 108.324 18.5215 108.555 19H107.021C106.856 18.6535 106.806 18.142 106.79 17.614C106.047 18.7195 104.859 19.198 103.803 19.198C101.988 19.198 100.767 18.3565 100.767 16.69C100.767 15.4855 101.427 14.611 102.714 14.182C103.902 13.786 105.107 13.687 106.79 13.6705V13.4725C106.79 12.0535 106.13 11.278 104.628 11.278C103.374 11.278 102.698 11.971 102.516 13.093ZM102.252 16.657C102.252 17.4655 102.929 17.944 103.952 17.944C105.569 17.944 106.79 16.6735 106.79 15.172V14.7595C103.061 14.7925 102.252 15.5845 102.252 16.657ZM110.787 19V10.2385H112.239V11.5915C112.833 10.519 113.774 10.024 114.83 10.024C115.176 10.024 115.49 10.1065 115.655 10.2385V11.542C115.407 11.4595 115.094 11.4265 114.747 11.4265C112.998 11.4265 112.239 12.5155 112.239 14.0995V19H110.787ZM117.305 16.4755V11.3935H116.084V10.2385H117.305V8.2255H118.757V10.2385H120.688V11.3935H118.757V16.4755C118.757 17.5315 119.071 18.0265 120.358 18.0265H120.655V19.066C120.49 19.1485 120.127 19.198 119.714 19.198C118.081 19.198 117.305 18.3235 117.305 16.4755ZM129.809 16.1455C129.33 18.1915 127.862 19.198 125.865 19.198C123.324 19.198 121.79 17.482 121.79 14.6275C121.79 11.6575 123.324 10.024 125.783 10.024C128.258 10.024 129.743 11.7235 129.743 14.512V14.875H123.275C123.357 16.8385 124.281 17.944 125.865 17.944C127.103 17.944 127.977 17.35 128.291 16.1455H129.809ZM125.783 11.278C124.38 11.278 123.539 12.1525 123.324 13.786H128.225C128.027 12.169 127.152 11.278 125.783 11.278ZM131.843 19V10.2385H133.295V11.5915C133.889 10.519 134.829 10.024 135.885 10.024C136.232 10.024 136.545 10.1065 136.71 10.2385V11.542C136.463 11.4595 136.149 11.4265 135.803 11.4265C134.054 11.4265 133.295 12.5155 133.295 14.0995V19H131.843ZM141.763 19V7.78H143.281V13.192L148.413 7.78H150.327L145.047 13.291L150.459 19H148.413L143.281 13.621V19H141.763ZM152.06 9.067V7.12H153.512V9.067H152.06ZM152.06 19V10.2385H153.512V19H152.06ZM156.178 16.4755V11.3935H154.957V10.2385H156.178V8.2255H157.63V10.2385H159.56V11.3935H157.63V16.4755C157.63 17.5315 157.943 18.0265 159.23 18.0265H159.527V19.066C159.362 19.1485 158.999 19.198 158.587 19.198C156.953 19.198 156.178 18.3235 156.178 16.4755Z" fill="#002719" fill-opacity="0.6"/>
<defs>
<radialGradient id="paint0_radial_115_86" cx="0" cy="0" r="1" gradientUnits="userSpaceOnUse" gradientTransform="translate(-3.00503 15.023) rotate(-10.029) scale(17.9572 17.784)">
<stop stop-color="#00B0BB"/>
<stop offset="1" stop-color="#00DB65"/>
</radialGradient>
<linearGradient id="paint1_linear_115_86" x1="7.39036" y1="4.81308" x2="1.62975" y2="18.6894" gradientUnits="userSpaceOnUse">
<stop stop-color="#18E299"/>
<stop offset="1"/>
</linearGradient>
<linearGradient id="paint2_linear_115_86" x1="7.94816" y1="8.01562" x2="1.7612" y2="18.746" gradientUnits="userSpaceOnUse">
<stop/>
<stop offset="1" stop-opacity="0"/>
</linearGradient>
<radialGradient id="paint3_radial_115_86" cx="0" cy="0" r="1" gradientUnits="userSpaceOnUse" gradientTransform="translate(8.11404 20.8822) rotate(-75.7542) scale(21.6246 23.7772)">
<stop stop-color="#00BBBB"/>
<stop offset="0.712616" stop-color="#00DB65"/>
</radialGradient>
<linearGradient id="paint4_linear_115_86" x1="7.60205" y1="5.8709" x2="15.5561" y2="16.3719" gradientUnits="userSpaceOnUse">
<stop/>
<stop offset="1" stop-opacity="0"/>
</linearGradient>
<radialGradient id="paint5_radial_115_86" cx="0" cy="0" r="1" gradientUnits="userSpaceOnUse" gradientTransform="translate(7.84537 21.5181) rotate(-20.3525) scale(18.5603 17.32)">
<stop stop-color="#00B0BB"/>
<stop offset="1" stop-color="#00DB65"/>
</radialGradient>
<linearGradient id="paint6_linear_115_86" x1="16.8078" y1="13.0071" x2="10.0409" y2="22.9937" gradientUnits="userSpaceOnUse">
<stop stop-color="#00B1BC"/>
<stop offset="1"/>
</linearGradient>
<linearGradient id="paint7_linear_115_86" x1="16.8078" y1="13.0071" x2="14.1687" y2="23.841" gradientUnits="userSpaceOnUse">
<stop/>
<stop offset="1" stop-opacity="0"/>
</linearGradient>
</defs>
</svg>
