<svg width="20" height="20" viewBox="0 0 20 20" fill="none" xmlns="http://www.w3.org/2000/svg">
<path d="M10 18.5C5.30558 18.5 1.5 14.6944 1.5 10C1.5 5.30558 5.30558 1.5 10 1.5C14.6944 1.5 18.5 5.30558 18.5 10C18.5 14.6944 14.6944 18.5 10 18.5ZM10 20C15.5228 20 20 15.5228 20 10C20 4.47715 15.5228 0 10 0C4.47715 0 0 4.47715 0 10C0 15.5228 4.47715 20 10 20Z" fill="black"/>
<path d="M14.1032 2.55413C13.5411 2.42252 12.9552 2.35291 12.3529 2.35291C8.12959 2.35291 4.70589 5.77661 4.70589 9.99996C4.70589 14.2233 8.12959 17.6471 12.3529 17.6471C12.9552 17.6471 13.5411 17.5774 14.1032 17.4458C16.72 16.0007 18.4938 13.2162 18.5 10.0168C18.4909 13.404 15.7423 16.1471 12.3529 16.1471C8.95802 16.1471 6.20589 13.3949 6.20589 9.99996C6.20589 6.60504 8.95802 3.85291 12.3529 3.85291C15.7423 3.85291 18.4909 6.59595 18.5 9.98315C18.4938 6.78378 16.72 3.99926 14.1032 2.55413Z" fill="black" fill-opacity="0.5"/>
<path d="M15.6034 15.2182C17.3383 14.1353 18.4941 12.2112 18.5 10.0167V10.0085C18.4953 12.1 16.7984 13.794 14.7059 13.794C12.6104 13.794 10.9118 12.0953 10.9118 9.99993C10.9118 7.9045 12.6104 6.20581 14.7059 6.20581C16.7984 6.20581 18.4953 7.89985 18.5 9.99133V9.98312C18.4941 7.78863 17.3383 5.86452 15.6034 4.78157C15.3116 4.73176 15.0118 4.70581 14.7059 4.70581C11.782 4.70581 9.41176 7.07607 9.41176 9.99993C9.41176 12.9237 11.782 15.294 14.7059 15.294C15.0118 15.294 15.3117 15.2681 15.6034 15.2182Z" fill="black" fill-opacity="0.3"/>
</svg>
