<svg width="27" height="27" viewBox="0 0 27 27" fill="none" xmlns="http://www.w3.org/2000/svg">
<path d="M13.9049 4.10085L12.344 5.66177C12.2095 5.79623 12.2095 6.01546 12.344 6.15285L19.0993 12.9081C19.2337 13.0425 19.2337 13.2618 19.0993 13.3991L12.344 20.1544C12.2095 20.2888 12.2095 20.5081 12.344 20.6455L13.9049 22.2064C14.0394 22.3408 14.2586 22.3408 14.396 22.2064L23.2033 13.3991C23.3377 13.2647 23.3377 13.0455 23.2033 12.9081L14.396 4.10085C14.2615 3.96638 14.0423 3.96638 13.9049 4.10085Z" fill="black"/>
<path d="M9.20192 12.9045L12.8032 9.30324C12.9376 9.16878 12.9376 8.94955 12.8032 8.81217L11.2422 7.25124C11.1078 7.11678 10.8885 7.11678 10.7512 7.25124L5.10085 12.9045C4.96638 13.0389 4.96638 13.2582 5.10085 13.3955L10.7541 19.0517C10.8885 19.1862 11.1078 19.1862 11.2452 19.0517L12.8061 17.4908C12.9405 17.3563 12.9405 17.1371 12.8061 16.9997L9.20192 13.3955C9.06746 13.2611 9.06746 13.0419 9.20192 12.9045Z" fill="black"/>
</svg>
