<svg width="161" height="76" viewBox="0 0 161 76" fill="none" xmlns="http://www.w3.org/2000/svg">
<path d="M12.6 21.2L4.8 24L5 15.7L0 9.2L7.9 6.8L12.6 0L17.3 6.8L25.2 9.2L20.2 15.7L20.4 24L12.6 21.2Z" fill="#FF492C"/>
<path d="M46.4 21.2L38.6 24L38.9 15.7L33.8 9.2L41.7 6.8L46.4 0L51.1 6.8L59 9.2L54 15.7L54.2 24L46.4 21.2Z" fill="#FF492C"/>
<path d="M80.2 21.2L72.4 24L72.7 15.7L67.6 9.2L75.6 6.8L80.2 0L84.9 6.8L92.8 9.2L87.8 15.7L88 24L80.2 21.2Z" fill="#FF492C"/>
<path d="M114 21.2L106.2 24L106.5 15.7L101.4 9.2L109.4 6.8L114 0L118.7 6.8L126.7 9.2L121.6 15.7L121.8 24L114 21.2Z" fill="#FF492C"/>
<path d="M147.8 0L143.2 6.8L135.2 9.2L140.3 15.7L140 24L147.8 21.2V0Z" fill="#FF492C"/>
<path d="M155.4 15.7L160.5 9.2L152.5 6.8L147.8 0V21.2L155.6 24L155.4 15.7Z" fill="#38536B"/>
<path d="M40.0663 56.6613C40.0663 66.8282 31.8282 75.0663 21.6613 75.0663C11.4945 75.0663 3.25644 66.8282 3.25644 56.6613C3.25644 46.4945 11.4945 38.2564 21.6613 38.2564C31.8282 38.2564 40.0663 46.5018 40.0663 56.6613Z" fill="#FF492C"/>
<path d="M29.627 53.6577H24.8712V53.4368C24.8712 52.627 25.0331 51.957 25.3571 51.4343C25.681 50.9043 26.2405 50.4405 27.0503 50.0282L27.4184 49.8442C28.0736 49.5129 28.2429 49.2258 28.2429 48.8871C28.2429 48.4822 27.8896 48.1877 27.3227 48.1877C26.6454 48.1877 26.1374 48.5411 25.7841 49.2552L24.8712 48.3423C25.0699 47.9153 25.3939 47.5767 25.8209 47.3043C26.2552 47.0319 26.7337 46.8994 27.2564 46.8994C27.9117 46.8994 28.4785 47.0687 28.9423 47.4221C29.4209 47.7755 29.6564 48.2613 29.6564 48.8724C29.6564 49.8515 29.1043 50.4478 28.0736 50.9779L27.492 51.2724C26.8736 51.5816 26.5718 51.8613 26.4834 52.3546H29.627V53.6577V53.6577ZM29.2074 55.1595H24.0025L21.4037 59.665H26.6086L29.2147 64.1705L31.8135 59.665L29.2074 55.1595ZM21.8528 62.6761C18.5399 62.6761 15.8454 59.9816 15.8454 56.6687C15.8454 53.3558 18.5399 50.6613 21.8528 50.6613L23.9141 46.3546C23.2442 46.2221 22.5595 46.1558 21.8528 46.1558C16.0442 46.1558 11.3325 50.8675 11.3325 56.6687C11.3325 62.4773 16.0368 67.189 21.8528 67.189C24.1644 67.189 26.3068 66.438 28.0442 65.1718L25.762 61.2258C24.7166 62.1239 23.3472 62.6761 21.8528 62.6761Z" fill="white"/>
</svg>
