<svg width="115" height="54" viewBox="0 0 115 54" fill="none" xmlns="http://www.w3.org/2000/svg">
<g clip-path="url(#clip0_12158_115893)">
<path d="M8.95263 15.0632L3.41053 17.0526L3.55263 11.1553L0 6.53684L5.61316 4.83158L8.95263 0L12.2921 4.83158L17.9053 6.53684L14.3526 11.1553L14.4947 17.0526L8.95263 15.0632Z" fill="#FF492C"/>
<path d="M32.9684 15.0632L27.4263 17.0526L27.6394 11.1553L24.0157 6.53684L29.6289 4.83158L32.9684 0L36.3079 4.83158L41.921 6.53684L38.3684 11.1553L38.5105 17.0526L32.9684 15.0632Z" fill="#FF492C"/>
<path d="M56.9842 15.0632L51.4421 17.0526L51.6553 11.1553L48.0316 6.53684L53.7158 4.83158L56.9842 0L60.3237 4.83158L65.9369 6.53684L62.3843 11.1553L62.5264 17.0526L56.9842 15.0632Z" fill="#FF492C"/>
<path d="M81 15.0632L75.4579 17.0526L75.671 11.1553L72.0474 6.53684L77.7316 4.83158L81 0L84.3395 4.83158L90.0237 6.53684L86.4 11.1553L86.5421 17.0526L81 15.0632Z" fill="#FF492C"/>
<path d="M105.016 0L101.747 4.83158L96.0631 6.53684L99.6868 11.1553L99.4736 17.0526L105.016 15.0632V0Z" fill="#FF492C"/>
<path d="M110.416 11.1553L114.039 6.53684L108.355 4.83158L105.016 0V15.0632L110.558 17.0526L110.416 11.1553Z" fill="white"/>
<path d="M28.4682 40.2593C28.4682 47.4831 22.6148 53.3365 15.391 53.3365C8.1672 53.3365 2.31384 47.4831 2.31384 40.2593C2.31384 33.0355 8.1672 27.1821 15.391 27.1821C22.6148 27.1821 28.4682 33.0407 28.4682 40.2593Z" fill="#FF492C"/>
<path d="M21.0507 38.1252H17.6716V37.9683C17.6716 37.3929 17.7866 36.9168 18.0168 36.5454C18.247 36.1689 18.6445 35.8393 19.2199 35.5464L19.4815 35.4156C19.947 35.1802 20.0673 34.9762 20.0673 34.7356C20.0673 34.4479 19.8163 34.2386 19.4135 34.2386C18.9322 34.2386 18.5713 34.4897 18.3202 34.9971L17.6716 34.3485C17.8128 34.0451 18.043 33.8045 18.3464 33.611C18.655 33.4174 18.995 33.3233 19.3664 33.3233C19.832 33.3233 20.2347 33.4436 20.5642 33.6947C20.9043 33.9458 21.0716 34.2909 21.0716 34.7251C21.0716 35.4208 20.6793 35.8445 19.947 36.2212L19.5338 36.4304C19.0944 36.6501 18.8799 36.8488 18.8171 37.1993H21.0507V38.1252ZM20.7526 39.1923H17.0544L15.2079 42.3936H18.9061L20.7578 45.5948L22.6043 42.3936L20.7526 39.1923ZM15.527 44.533C13.173 44.533 11.2585 42.6185 11.2585 40.2646C11.2585 37.9107 13.173 35.9962 15.527 35.9962L16.9916 32.9362C16.5156 32.842 16.0291 32.7949 15.527 32.7949C11.3998 32.7949 8.052 36.1427 8.052 40.2646C8.052 44.3918 11.3945 47.7396 15.527 47.7396C17.1694 47.7396 18.6916 47.206 19.9261 46.3063L18.3045 43.5026C17.5618 44.1407 16.5888 44.533 15.527 44.533Z" fill="white"/>
</g>
<defs>
<clipPath id="clip0_12158_115893">
<rect width="114.395" height="54" fill="white"/>
</clipPath>
</defs>
</svg>
