<svg width="161" height="75" viewBox="0 0 161 75" fill="none" xmlns="http://www.w3.org/2000/svg">
<path d="M12.6 21.2L4.8 24L5 15.7L0 9.2L7.9 6.8L12.6 0L17.3 6.8L25.2 9.2L20.2 15.7L20.4 24L12.6 21.2Z" fill="#E9A944"/>
<path d="M46.4 21.2L38.6 24L38.9 15.7L33.8 9.2L41.7 6.8L46.4 0L51.1 6.8L59 9.2L54 15.7L54.2 24L46.4 21.2Z" fill="#E9A944"/>
<path d="M80.2 21.2L72.4 24L72.7 15.7L67.6 9.2L75.6 6.8L80.2 0L84.9 6.8L92.8 9.2L87.8 15.7L88 24L80.2 21.2Z" fill="#E9A944"/>
<path d="M114 21.2L106.2 24L106.5 15.7L101.4 9.2L109.4 6.8L114 0L118.7 6.8L126.7 9.2L121.6 15.7L121.8 24L114 21.2Z" fill="#E9A944"/>
<path fill-rule="evenodd" clip-rule="evenodd" d="M40 56.5C40 66.7175 31.7175 75 21.5 75C11.2825 75 3 66.7175 3 56.5C3 46.2825 11.2825 38 21.5 38C31.7175 38 40 46.2825 40 56.5Z" fill="#FF6154"/>
<path fill-rule="evenodd" clip-rule="evenodd" d="M23.967 56.5H18.725V50.95H23.967C24.703 50.95 25.4088 51.2424 25.9292 51.7628C26.4496 52.2832 26.742 52.989 26.742 53.725C26.742 54.461 26.4496 55.1668 25.9292 55.6872C25.4088 56.2076 24.703 56.5 23.967 56.5ZM23.967 47.25H15.025V65.75H18.725V60.2H23.967C25.6843 60.2 27.3312 59.5178 28.5455 58.3035C29.7598 57.0892 30.442 55.4423 30.442 53.725C30.442 52.0077 29.7598 50.3608 28.5455 49.1465C27.3312 47.9322 25.6843 47.25 23.967 47.25Z" fill="white"/>
<path d="M147.6 21.2L139.8 24L140.1 15.7L135 9.2L143 6.8L147.6 0L152.3 6.8L160.3 9.2L155.2 15.7L155.4 24L147.6 21.2Z" fill="#E9A944"/>
</svg>
