<svg xmlns="http://www.w3.org/2000/svg" viewBox="0 0 122 37"><path d="M104.953 36.286c-4.22 1.634-5.936.086-5.936-.891 1.495-.126 5.067-.331 5.936.891Zm5.356-1.336a5.486 5.486 0 0 1-7.083-.497c1.44-.4 5.372-.874 7.083.497Zm-7.139-3.176c.16 2.033-1.922 3.176-4.17 3.341.41-2.045 2.509-2.958 4.17-3.341Zm4.032-1.874c.238.869-.089 3.228-3.323 4.164.139-1.593.986-3.667 3.323-4.164Zm6.413 2.365a5.005 5.005 0 0 1-6.385.571c1.296-.668 4.408-1.57 6.385-.571Zm-3.417-4.706c.443.856.537 3.295-2.326 4.763-.166-1.57.465-4.255 2.326-4.763Zm7.083.948a4.389 4.389 0 0 1-2.657 2.217 4.243 4.243 0 0 1-3.39-.44c1.805-1.697 4.685-2.348 6.047-1.777Zm-4.28-4.547c1.284 2.24-.073 4.798-1.485 5.849-.628-2.082-.052-4.351 1.484-5.849Zm6.662-.097c.155 3.479-3.478 3.29-5.184 3.313.537-.731 3.522-3.381 5.184-3.313Zm-4.48-3.25c.675.743 1.688 3.599-.555 5.929-.703-1.685-.858-4.272.554-5.929Zm6.385-1.542c.116 2.81-2.249 4.232-4.53 4.21.686-1.354 2.52-3.964 4.53-4.21Zm-4.785-1.936c1.512.89 1.34 3.764.448 5.26-1.002-1.393-1.75-3.124-.448-5.26Zm4.884-2.633c.748 2.559-1.45 4.29-2.769 4.438.338-1.222.781-3.387 2.77-4.438Zm-4.607-.851c1.667.835 2.457 2.832 1.833 4.632-1.163-.937-2.564-2.919-1.833-4.632Zm4.685-3.096c1.03 3.113-1.335 4.13-2.215 4.38.105-1.324.947-3.963 2.215-4.38Zm-4.619-.817c.676.195 2.603 1.777 2.254 4.61-1.268-.714-2.808-2.074-2.254-4.61Zm3.921-3.9c1.152 3.826-.77 5.397-1.401 5.71-.1-1.21-.222-4.037 1.401-5.71Zm-4.264.096c1.207.337 2.73 2.553 2.658 4.684-1.196-.548-2.985-2.827-2.658-4.684Zm.36-5.934c2.802 2.896 3.195 5.18 2.376 7.996-1.269-1.142-2.282-4.569-2.376-7.996ZM17.047 36.286c4.22 1.634 5.936.086 5.936-.891-1.495-.126-5.067-.331-5.936.891ZM11.69 34.95a5.486 5.486 0 0 0 7.083-.497c-1.44-.4-5.372-.874-7.083.497Zm7.139-3.176c-.16 2.033 1.922 3.176 4.17 3.341-.41-2.045-2.509-2.958-4.17-3.341ZM14.798 29.9c-.238.869.089 3.228 3.323 4.164-.139-1.593-.986-3.667-3.323-4.164Zm-6.413 2.365a5.005 5.005 0 0 0 6.385.571c-1.296-.668-4.408-1.57-6.385-.571Zm3.417-4.706c-.443.856-.537 3.295 2.326 4.763.166-1.57-.465-4.255-2.326-4.763Zm-7.083.948a4.389 4.389 0 0 0 2.657 2.217 4.243 4.243 0 0 0 3.39-.44c-1.805-1.697-4.685-2.348-6.047-1.777Zm4.28-4.547c-1.284 2.24.073 4.798 1.485 5.849.628-2.082.052-4.351-1.484-5.849Zm-6.662-.097c-.155 3.479 3.478 3.29 5.184 3.313-.537-.731-3.522-3.381-5.184-3.313Zm4.48-3.25c-.675.743-1.688 3.599.555 5.929.703-1.685.858-4.272-.554-5.929ZM.433 19.071c-.116 2.81 2.249 4.232 4.53 4.21-.686-1.354-2.52-3.964-4.53-4.21Zm4.785-1.936c-1.512.89-1.34 3.764-.448 5.26 1.002-1.393 1.75-3.124.448-5.26ZM.333 14.502c-.748 2.559 1.45 4.29 2.769 4.438-.338-1.222-.781-3.387-2.77-4.438Zm4.607-.851c-1.667.835-2.457 2.832-1.833 4.632 1.163-.937 2.564-2.919 1.833-4.632ZM.255 10.555c-1.03 3.113 1.335 4.13 2.215 4.38-.105-1.324-.947-3.963-2.215-4.38Zm4.619-.817c-.676.195-2.603 1.777-2.254 4.61 1.268-.714 2.808-2.074 2.254-4.61Zm-3.921-3.9c-1.152 3.826.77 5.397 1.401 5.71.1-1.21.222-4.037-1.401-5.71Zm4.264.096c-1.207.337-2.73 2.553-2.658 4.684 1.196-.548 2.985-2.827 2.658-4.684ZM4.857 0C2.055 2.896 1.662 5.18 2.481 7.996 3.75 6.854 4.763 3.427 4.857 0Zm50.977 35c.162 0 .288-.108.288-.27V22.67c0-.162-.126-.27-.288-.27h-4.59c-.162 0-.27.108-.27.27v1.782c0 .162.108.288.27.288h2.124v9.99c0 .162.108.27.27.27h2.196Zm5.436.216c1.782 0 3.348-.936 3.366-2.754.036-1.332-.846-2.106-1.944-2.538l-1.332-.522c-.396-.162-.702-.396-.702-.72 0-.27.162-.576.702-.576.486 0 .972.252 1.548.702.162.108.288.126.414 0l.918-1.08c.072-.108.126-.252.018-.378a3.973 3.973 0 0 0-3.042-1.386c-1.692 0-3.168.99-3.168 2.718 0 1.224.756 1.98 1.908 2.43l1.152.468c.594.234.792.432.792.774 0 .396-.324.576-.81.576-.63 0-1.224-.27-1.998-.828-.144-.09-.306-.144-.45.09l-.72 1.008c-.126.18-.144.396-.054.522.738.882 1.908 1.494 3.402 1.494Zm8.334 0c.612 0 1.584-.108 1.584-.558v-1.494c0-.18-.144-.27-.324-.252-.234.018-.396.018-.558.018-.45 0-.756-.252-.756-.738v-3.888h1.35c.162 0 .27-.108.27-.27V26.45c0-.162-.108-.27-.27-.27h-1.35v-2.07c0-.162-.126-.27-.288-.27h-2.214c-.162 0-.288.108-.288.27v2.07h-1.098c-.162 0-.27.108-.27.27v1.584c0 .162.108.27.27.27h1.098v4.194c0 2.052 1.386 2.718 2.844 2.718ZM17.175 15c.09 0 .15-.06.15-.15v-2.26h.72c1.69 0 2.49-.93 2.49-2.29 0-1.36-.8-2.3-2.49-2.3h-2.15c-.09 0-.15.06-.15.15v6.7c0 .09.06.15.15.15h1.28Zm.15-5.6h.68c.53 0 1.02.17 1.02.9 0 .72-.49.89-1.02.89h-.68V9.4Zm5.5 5.6c.09 0 .16-.06.16-.15v-2.36c0-.73.38-1.13 1.01-1.13.15 0 .26.02.36.05.14.03.21 0 .21-.13v-.97c0-.09-.02-.15-.09-.2-.08-.06-.21-.13-.45-.13-.57 0-.88.4-1.04.93l-.05-.65c0-.12-.06-.16-.15-.16h-1.18c-.09 0-.15.06-.15.15v4.6c0 .09.06.15.15.15h1.22Zm4.77.12c1.48 0 2.58-1.12 2.58-2.57 0-1.45-1.1-2.57-2.58-2.57s-2.57 1.12-2.57 2.57c0 1.45 1.09 2.57 2.57 2.57Zm0-1.4c-.62 0-1.1-.45-1.1-1.17s.48-1.17 1.1-1.17c.62 0 1.1.45 1.1 1.17s-.48 1.17-1.1 1.17Zm5.49 1.4c.7 0 1.2-.28 1.53-.75l.02.48c0 .09.07.15.16.15h1.1c.09 0 .17-.06.17-.15V8c0-.09-.07-.15-.16-.15h-1.23c-.09 0-.15.06-.15.15v2.59c-.33-.39-.8-.61-1.44-.61-1.36 0-2.3 1.12-2.3 2.57 0 1.46.94 2.57 2.3 2.57Zm.33-1.39c-.65 0-1.14-.46-1.14-1.18 0-.71.49-1.18 1.14-1.18.67 0 1.13.47 1.13 1.17 0 .72-.46 1.19-1.13 1.19Zm5.52 1.39c.71 0 1.16-.35 1.44-.85l.04.57c0 .12.07.16.16.16h1.17c.09 0 .16-.06.16-.15v-4.6c0-.09-.07-.15-.16-.15h-1.21c-.09 0-.16.06-.16.15v2.48c0 .65-.33.99-.85.99-.54 0-.82-.34-.82-.99v-2.48c0-.09-.07-.15-.16-.15h-1.22c-.09 0-.15.06-.15.15v2.84c0 1.28.74 2.03 1.76 2.03Zm6.44 0c.79 0 1.45-.35 1.87-.9.06-.07.05-.15-.01-.21l-.69-.66c-.08-.08-.19-.08-.26-.01-.27.25-.53.38-.86.38-.74 0-1.18-.56-1.18-1.2 0-.63.44-1.14 1.16-1.14.34 0 .6.12.86.38.08.07.19.07.27-.01l.69-.66c.06-.06.07-.15.01-.21-.42-.55-1.08-.9-1.9-.9-1.48 0-2.56 1.1-2.56 2.54 0 1.47 1.1 2.6 2.6 2.6Zm4.77 0c.34 0 .88-.06.88-.31v-.83c0-.1-.08-.15-.18-.14-.13.01-.22.01-.31.01-.25 0-.42-.14-.42-.41v-2.16h.75c.09 0 .15-.06.15-.15v-.88c0-.09-.06-.15-.15-.15h-.75V8.95c0-.09-.07-.15-.16-.15h-1.23c-.09 0-.16.06-.16.15v1.15h-.61c-.09 0-.15.06-.15.15v.88c0 .09.06.15.15.15h.61v2.33c0 1.14.77 1.51 1.58 1.51Zm5.95 0c1.48 0 2.58-1.12 2.58-2.57 0-1.45-1.1-2.57-2.58-2.57s-2.57 1.12-2.57 2.57c0 1.45 1.09 2.57 2.57 2.57Zm0-1.4c-.62 0-1.1-.45-1.1-1.17s.48-1.17 1.1-1.17c.62 0 1.1.45 1.1 1.17s-.48 1.17-1.1 1.17Zm5.15 1.28c.09 0 .16-.06.16-.15v-3.57h.98c.09 0 .15-.06.15-.15v-.88c0-.09-.06-.15-.15-.15h-.98v-.49c0-.33.11-.57.58-.57.11 0 .25.03.42.06.07.01.13 0 .13-.07V8.02c0-.06-.03-.13-.09-.16-.3-.15-.52-.17-.82-.17-1.09 0-1.76.52-1.76 1.72v.69h-.58c-.09 0-.15.06-.15.15v.88c0 .09.06.15.15.15h.58v3.57c0 .09.06.15.15.15h1.23Zm6.08.12c.34 0 .88-.06.88-.31v-.83c0-.1-.08-.15-.18-.14-.13.01-.22.01-.31.01-.25 0-.42-.14-.42-.41v-2.16h.75c.09 0 .15-.06.15-.15v-.88c0-.09-.06-.15-.15-.15h-.75V8.95c0-.09-.07-.15-.16-.15h-1.23c-.09 0-.16.06-.16.15v1.15h-.61c-.09 0-.15.06-.15.15v.88c0 .09.06.15.15.15h.61v2.33c0 1.14.77 1.51 1.58 1.51Zm4.65-5.14c-.7 0-1.15.35-1.43.85V8c0-.09-.07-.15-.16-.15h-1.22c-.09 0-.15.06-.15.15v6.85c0 .09.06.15.15.15h1.22c.09 0 .16-.06.16-.15v-2.48c0-.65.32-.99.85-.99.54 0 .82.34.82.99v2.48c0 .09.07.15.16.15h1.21c.09 0 .16-.06.16-.15v-2.84c0-1.28-.75-2.03-1.77-2.03Zm5.34 5.14c.69 0 1.32-.2 1.74-.62.09-.08.09-.16.05-.22l-.41-.58c-.06-.07-.1-.09-.18-.05-.41.23-.75.27-1.08.27-.7 0-1.16-.26-1.33-.79h2.82c.45 0 .58-.3.58-.8 0-1.26-.87-2.35-2.37-2.35-1.51 0-2.52 1.11-2.52 2.55 0 1.49 1.09 2.59 2.7 2.59Zm-1.23-3.05c.12-.58.55-.83 1.06-.83s.9.24 1 .83h-2.06Zm8.87 2.93c.08 0 .15-.04.18-.12l1.03-3 1.02 3c.03.08.1.12.18.12h1.25c.08 0 .15-.04.18-.12l1.52-4.61c.04-.11-.01-.17-.12-.17h-1.19c-.08 0-.15.04-.18.12l-.91 3-.99-3a.183.183 0 0 0-.18-.12h-1.17c-.08 0-.15.04-.18.12l-.99 3-.91-3a.183.183 0 0 0-.18-.12h-1.18c-.11 0-.17.06-.13.17l1.52 4.61c.03.08.1.12.18.12h1.25Zm8.28.12c.69 0 1.32-.2 1.74-.62.09-.08.09-.16.05-.22l-.41-.58c-.06-.07-.1-.09-.18-.05-.41.23-.75.27-1.08.27-.7 0-1.16-.26-1.33-.79h2.82c.45 0 .58-.3.58-.8 0-1.26-.87-2.35-2.37-2.35-1.51 0-2.52 1.11-2.52 2.55 0 1.49 1.09 2.59 2.7 2.59Zm-1.23-3.05c.12-.58.55-.83 1.06-.83s.9.24 1 .83h-2.06Zm6.73 3.05c.69 0 1.32-.2 1.74-.62.09-.08.09-.16.05-.22l-.41-.58c-.06-.07-.1-.09-.18-.05-.41.23-.75.27-1.08.27-.7 0-1.16-.26-1.33-.79h2.82c.45 0 .58-.3.58-.8 0-1.26-.87-2.35-2.37-2.35-1.51 0-2.52 1.11-2.52 2.55 0 1.49 1.09 2.59 2.7 2.59Zm-1.23-3.05c.12-.58.55-.83 1.06-.83s.9.24 1 .83h-2.06Zm5.66 2.93c.09 0 .16-.06.16-.15v-.99l.55-.64 1.22 1.69c.05.07.1.09.18.09h1.32c.12 0 .16-.08.09-.19l-1.89-2.65 1.63-1.87c.08-.11.05-.19-.09-.19h-1.38c-.07 0-.13.02-.18.08l-1.45 1.76V8c0-.09-.07-.15-.16-.15h-1.23c-.09 0-.15.06-.15.15v6.85c0 .09.06.15.15.15h1.23Z" fill="currentColor"></path></svg>
