<svg width="121" height="54" viewBox="0 0 121 54" fill="none" xmlns="http://www.w3.org/2000/svg">
<path d="M22.608 0H0.107971V22.5H22.608V0Z" fill="#00B67A"/>
<path d="M46.983 0H24.483V22.5H46.983V0Z" fill="#00B67A"/>
<path d="M71.358 0H48.858V22.5H71.358V0Z" fill="#00B67A"/>
<path d="M95.733 0H73.233V22.5H95.733V0Z" fill="#00B67A"/>
<path d="M120.108 0H108.858V22.5H120.108V0Z" fill="#DCDCE6"/>
<path d="M108.858 0H97.608V22.5H108.858V0Z" fill="#00B67A"/>
<path d="M11.358 15.1641L14.78 14.2969L16.21 18.7031L11.358 15.1641ZM19.233 9.46871H13.21L11.358 3.79691L9.50702 9.46871H3.48297L8.35797 12.9844L6.50702 18.6562L11.382 15.1406L14.382 12.9844L19.233 9.46871Z" fill="white"/>
<path d="M35.733 15.1641L39.155 14.2969L40.585 18.7031L35.733 15.1641ZM43.608 9.46871H37.585L35.733 3.79691L33.882 9.46871H27.858L32.733 12.9844L30.882 18.6562L35.757 15.1406L38.757 12.9844L43.608 9.46871Z" fill="white"/>
<path d="M60.108 15.1641L63.53 14.2969L64.96 18.7031L60.108 15.1641ZM67.983 9.46871H61.96L60.108 3.79691L58.257 9.46871H52.233L57.108 12.9844L55.257 18.6562L60.132 15.1406L63.132 12.9844L67.983 9.46871Z" fill="white"/>
<path d="M84.483 15.1641L87.905 14.2969L89.335 18.7031L84.483 15.1641ZM92.358 9.46871H86.335L84.483 3.79691L82.632 9.46871H76.608L81.483 12.9844L79.632 18.6562L84.507 15.1406L87.507 12.9844L92.358 9.46871Z" fill="white"/>
<path d="M108.858 15.1641L112.28 14.2969L113.71 18.7031L108.858 15.1641ZM116.733 9.46871H110.71L108.858 3.79691L107.007 9.46871H100.983L105.858 12.9844L104.007 18.6562L108.882 15.1406L111.882 12.9844L116.733 9.46871Z" fill="white"/>
<path d="M19.875 41.5801H27.491V43.001H24.496V50.9886H22.849V43.001H19.868V41.5801H19.875ZM27.165 44.1762H28.573V45.4909H28.599C28.646 45.305 28.732 45.1257 28.858 44.9531C28.984 44.7804 29.137 44.6144 29.316 44.475C29.496 44.3289 29.695 44.216 29.914 44.1231C30.133 44.0368 30.359 43.9903 30.585 43.9903C30.757 43.9903 30.883 43.9969 30.95 44.0036C31.016 44.0102 31.083 44.0235 31.156 44.0301V45.4776C31.049 45.4577 30.943 45.4444 30.83 45.4311C30.717 45.4178 30.611 45.4112 30.505 45.4112C30.253 45.4112 30.014 45.4643 29.788 45.5639C29.562 45.6635 29.37 45.8162 29.204 46.0088C29.038 46.208 28.905 46.447 28.805 46.7391C28.706 47.0313 28.659 47.3633 28.659 47.7417V50.9819H27.159V44.1762H27.165ZM38.054 50.9886H36.58V50.0391H36.554C36.368 50.3843 36.096 50.6566 35.73 50.8624C35.365 51.0682 34.993 51.1745 34.615 51.1745C33.719 51.1745 33.068 50.9554 32.67 50.5105C32.271 50.0656 32.072 49.395 32.072 48.4987V44.1762H33.573V48.3526C33.573 48.9502 33.685 49.3751 33.918 49.6208C34.144 49.8664 34.469 49.9926 34.881 49.9926C35.199 49.9926 35.458 49.9461 35.671 49.8465C35.883 49.7469 36.056 49.6208 36.182 49.4548C36.315 49.2954 36.408 49.0962 36.467 48.8705C36.527 48.6447 36.554 48.3991 36.554 48.1335V44.1828H38.054V50.9886ZM40.611 48.8041C40.657 49.2423 40.823 49.5477 41.109 49.727C41.401 49.8996 41.746 49.9926 42.151 49.9926C42.29 49.9926 42.45 49.9793 42.629 49.9594C42.808 49.9395 42.981 49.893 43.134 49.8332C43.293 49.7735 43.419 49.6805 43.525 49.561C43.625 49.4415 43.672 49.2888 43.665 49.0962C43.658 48.9037 43.585 48.7443 43.452 48.6248C43.32 48.4987 43.154 48.4057 42.948 48.326C42.742 48.253 42.51 48.1866 42.244 48.1335C41.978 48.0804 41.713 48.0206 41.441 47.9608C41.162 47.9011 40.889 47.8214 40.631 47.7351C40.372 47.6488 40.139 47.5293 39.933 47.3765C39.728 47.2305 39.562 47.0379 39.442 46.8055C39.316 46.5731 39.256 46.2876 39.256 45.9424C39.256 45.5705 39.349 45.2651 39.528 45.0128C39.708 44.7605 39.94 44.5613 40.212 44.4086C40.491 44.2559 40.797 44.1496 41.135 44.0832C41.474 44.0235 41.799 43.9903 42.105 43.9903C42.456 43.9903 42.795 44.0301 43.114 44.1032C43.433 44.1762 43.725 44.2957 43.984 44.4684C44.243 44.6343 44.455 44.8535 44.628 45.119C44.8 45.3846 44.907 45.71 44.953 46.0884H43.386C43.313 45.7299 43.154 45.4842 42.895 45.3647C42.636 45.2386 42.337 45.1788 42.005 45.1788C41.899 45.1788 41.773 45.1854 41.626 45.2054C41.48 45.2253 41.348 45.2585 41.215 45.305C41.089 45.3514 40.982 45.4245 40.889 45.5174C40.803 45.6104 40.757 45.7299 40.757 45.8826C40.757 46.0685 40.823 46.2146 40.949 46.3275C41.075 46.4403 41.241 46.5333 41.447 46.613C41.653 46.686 41.885 46.7524 42.151 46.8055C42.417 46.8586 42.689 46.9184 42.968 46.9782C43.24 47.0379 43.506 47.1176 43.771 47.2039C44.037 47.2902 44.269 47.4097 44.475 47.5625C44.681 47.7152 44.847 47.9011 44.973 48.1268C45.099 48.3526 45.165 48.6381 45.165 48.9701C45.165 49.3751 45.073 49.7137 44.887 49.9992C44.701 50.2781 44.462 50.5105 44.17 50.6831C43.877 50.8558 43.545 50.9886 43.187 51.0682C42.828 51.1479 42.47 51.1877 42.118 51.1877C41.686 51.1877 41.288 51.1413 40.923 51.0417C40.558 50.9421 40.239 50.796 39.973 50.6034C39.708 50.4043 39.495 50.1586 39.342 49.8664C39.19 49.5743 39.11 49.2224 39.097 48.8174H40.611V48.8041ZM45.564 44.1762H46.699V42.1312H48.2V44.1762H49.554V45.2983H48.2V48.9369C48.2 49.0962 48.206 49.229 48.22 49.3485C48.233 49.4614 48.266 49.561 48.313 49.6407C48.359 49.7204 48.432 49.7801 48.532 49.82C48.631 49.8598 48.758 49.8797 48.93 49.8797C49.036 49.8797 49.143 49.8797 49.249 49.8731C49.355 49.8664 49.461 49.8532 49.568 49.8266V50.9886C49.402 51.0085 49.236 51.0217 49.083 51.0417C48.924 51.0616 48.764 51.0682 48.598 51.0682C48.2 51.0682 47.881 51.0284 47.642 50.9554C47.403 50.8823 47.21 50.7694 47.078 50.6234C46.938 50.4773 46.852 50.298 46.799 50.0789C46.752 49.8598 46.719 49.6075 46.713 49.3286V45.3116H45.577V44.1762H45.564ZM50.617 44.1762H52.038V45.0991H52.064C52.277 44.7007 52.569 44.4219 52.947 44.2492C53.326 44.0766 53.731 43.9903 54.176 43.9903C54.713 43.9903 55.178 44.0832 55.577 44.2758C55.975 44.4617 56.307 44.7207 56.572 45.0526C56.838 45.3846 57.031 45.7697 57.163 46.208C57.296 46.6462 57.363 47.1176 57.363 47.6156C57.363 48.0737 57.303 48.5186 57.183 48.9435C57.064 49.3751 56.885 49.7536 56.646 50.0855C56.406 50.4175 56.101 50.6765 55.729 50.8757C55.357 51.0749 54.926 51.1745 54.421 51.1745C54.202 51.1745 53.983 51.1545 53.764 51.1147C53.545 51.0749 53.332 51.0085 53.133 50.9222C52.934 50.8358 52.741 50.723 52.575 50.5835C52.403 50.4441 52.263 50.2847 52.144 50.1055H52.117V53.505H50.617V44.1762ZM55.862 47.589C55.862 47.2836 55.822 46.9848 55.743 46.6927C55.663 46.4005 55.543 46.1482 55.384 45.9225C55.225 45.6967 55.025 45.5174 54.793 45.3846C54.554 45.2518 54.282 45.1788 53.976 45.1788C53.346 45.1788 52.868 45.3979 52.549 45.8361C52.23 46.2744 52.071 46.8586 52.071 47.589C52.071 47.9343 52.111 48.253 52.197 48.5451C52.283 48.8373 52.403 49.0896 52.575 49.3021C52.741 49.5145 52.941 49.6805 53.173 49.8C53.405 49.9262 53.678 49.986 53.983 49.986C54.328 49.986 54.614 49.9129 54.853 49.7735C55.092 49.634 55.284 49.4481 55.437 49.229C55.59 49.0033 55.703 48.751 55.769 48.4655C55.829 48.18 55.862 47.8878 55.862 47.589ZM58.511 41.5801H60.012V43.001H58.511V41.5801ZM58.511 44.1762H60.012V50.9886H58.511V44.1762ZM61.353 41.5801H62.854V50.9886H61.353V41.5801ZM67.455 51.1745C66.911 51.1745 66.426 51.0815 66.001 50.9022C65.576 50.723 65.217 50.4707 64.919 50.1586C64.626 49.8399 64.401 49.4614 64.248 49.0232C64.095 48.585 64.016 48.1003 64.016 47.5757C64.016 47.0578 64.095 46.5798 64.248 46.1416C64.401 45.7033 64.626 45.3249 64.919 45.0062C65.211 44.6875 65.576 44.4418 66.001 44.2625C66.426 44.0832 66.911 43.9903 67.455 43.9903C67.999 43.9903 68.484 44.0832 68.909 44.2625C69.334 44.4418 69.693 44.6941 69.991 45.0062C70.283 45.3249 70.509 45.7033 70.662 46.1416C70.815 46.5798 70.894 47.0578 70.894 47.5757C70.894 48.1003 70.815 48.585 70.662 49.0232C70.509 49.4614 70.283 49.8399 69.991 50.1586C69.699 50.4773 69.334 50.723 68.909 50.9022C68.484 51.0815 67.999 51.1745 67.455 51.1745ZM67.455 49.986C67.787 49.986 68.079 49.9129 68.325 49.7735C68.57 49.634 68.77 49.4481 68.929 49.2224C69.088 48.9966 69.201 48.7377 69.281 48.4522C69.354 48.1667 69.394 47.8745 69.394 47.5757C69.394 47.2836 69.354 46.9981 69.281 46.7059C69.208 46.4138 69.088 46.1615 68.929 45.9357C68.77 45.71 68.57 45.5307 68.325 45.3913C68.079 45.2518 67.787 45.1788 67.455 45.1788C67.123 45.1788 66.831 45.2518 66.585 45.3913C66.34 45.5307 66.14 45.7166 65.981 45.9357C65.822 46.1615 65.709 46.4138 65.629 46.7059C65.556 46.9981 65.516 47.2836 65.516 47.5757C65.516 47.8745 65.556 48.1667 65.629 48.4522C65.702 48.7377 65.822 48.9966 65.981 49.2224C66.14 49.4481 66.34 49.634 66.585 49.7735C66.831 49.9196 67.123 49.986 67.455 49.986ZM71.333 44.1762H72.468V42.1312H73.969V44.1762H75.323V45.2983H73.969V48.9369C73.969 49.0962 73.975 49.229 73.988 49.3485C74.002 49.4614 74.035 49.561 74.081 49.6407C74.128 49.7204 74.201 49.7801 74.301 49.82C74.4 49.8598 74.526 49.8797 74.699 49.8797C74.805 49.8797 74.911 49.8797 75.018 49.8731C75.124 49.8664 75.23 49.8532 75.336 49.8266V50.9886C75.17 51.0085 75.004 51.0217 74.852 51.0417C74.692 51.0616 74.533 51.0682 74.367 51.0682C73.969 51.0682 73.65 51.0284 73.411 50.9554C73.172 50.8823 72.979 50.7694 72.846 50.6234C72.707 50.4773 72.621 50.298 72.568 50.0789C72.521 49.8598 72.488 49.6075 72.481 49.3286V45.3116H71.346V44.1762H71.333Z" fill="#022A1C"/>
<path d="M9.11798 48.1201L13.043 47.1042L14.689 52.1637L9.11798 48.1201ZM18.122 41.58H11.243L9.11798 35.0332L6.99402 41.58L0.107971 41.5733L5.67902 45.6169L3.55402 52.1637L9.11798 48.1201L12.558 45.6235L18.122 41.58Z" fill="#022A1C"/>
</svg>
