<svg width="121" height="54" viewBox="0 0 121 54" fill="none" xmlns="http://www.w3.org/2000/svg">
<g clip-path="url(#clip0_12158_115879)">
<path d="M22.6079 0H0.10791V22.5H22.6079V0Z" fill="#00B67A"/>
<path d="M46.9829 0H24.4829V22.5H46.9829V0Z" fill="#00B67A"/>
<path d="M71.3579 0H48.8579V22.5H71.3579V0Z" fill="#00B67A"/>
<path d="M95.7329 0H73.2329V22.5H95.7329V0Z" fill="#00B67A"/>
<path d="M120.108 0H108.858V22.5H120.108V0Z" fill="#AFAFAF"/>
<path d="M108.858 0H97.6079V22.5H108.858V0Z" fill="#00B67A"/>
<path d="M11.3579 15.1641L14.7799 14.2969L16.2099 18.7031L11.3579 15.1641ZM19.2329 9.46867H13.2099L11.3579 3.79688L9.50696 9.46867H3.48291L8.35791 12.9844L6.50696 18.6562L11.3819 15.1406L14.3819 12.9844L19.2329 9.46867Z" fill="white"/>
<path d="M35.7329 15.1641L39.1549 14.2969L40.5849 18.7031L35.7329 15.1641ZM43.6079 9.46867H37.5849L35.7329 3.79688L33.8819 9.46867H27.8579L32.7329 12.9844L30.8819 18.6562L35.7569 15.1406L38.7569 12.9844L43.6079 9.46867Z" fill="white"/>
<path d="M60.1079 15.1641L63.5299 14.2969L64.9599 18.7031L60.1079 15.1641ZM67.9829 9.46867H61.9599L60.1079 3.79688L58.2569 9.46867H52.2329L57.1079 12.9844L55.2569 18.6562L60.1319 15.1406L63.1319 12.9844L67.9829 9.46867Z" fill="white"/>
<path d="M84.4829 15.1641L87.9049 14.2969L89.3349 18.7031L84.4829 15.1641ZM92.3579 9.46867H86.3349L84.4829 3.79688L82.6319 9.46867H76.6079L81.4829 12.9844L79.6319 18.6562L84.5069 15.1406L87.5069 12.9844L92.3579 9.46867Z" fill="white"/>
<path d="M108.858 15.1641L112.28 14.2969L113.71 18.7031L108.858 15.1641ZM116.733 9.46867H110.71L108.858 3.79688L107.007 9.46867H100.983L105.858 12.9844L104.007 18.6562L108.882 15.1406L111.882 12.9844L116.733 9.46867Z" fill="white"/>
<path d="M19.8749 41.5801H27.4909V43.001H24.4959V50.9886H22.8489V43.001H19.8679V41.5801H19.8749ZM27.1649 44.1762H28.5729V45.4909H28.5989C28.6459 45.305 28.7319 45.1257 28.8579 44.9531C28.9839 44.7804 29.1369 44.6144 29.3159 44.475C29.4959 44.3289 29.6949 44.216 29.9139 44.1231C30.1329 44.0368 30.3589 43.9903 30.5849 43.9903C30.7569 43.9903 30.8829 43.9969 30.9499 44.0036C31.0159 44.0102 31.0829 44.0235 31.1559 44.0301V45.4776C31.0489 45.4577 30.9429 45.4444 30.8299 45.4311C30.7169 45.4178 30.6109 45.4112 30.5049 45.4112C30.2529 45.4112 30.0139 45.4643 29.7879 45.5639C29.5619 45.6635 29.3699 45.8162 29.2039 46.0088C29.0379 46.208 28.9049 46.447 28.8049 46.7391C28.7059 47.0313 28.6589 47.3633 28.6589 47.7417V50.9819H27.1589V44.1762H27.1649ZM38.0539 50.9886H36.5799V50.0391H36.5539C36.3679 50.3843 36.0959 50.6566 35.7299 50.8624C35.3649 51.0682 34.9929 51.1745 34.6149 51.1745C33.7189 51.1745 33.0679 50.9554 32.6699 50.5105C32.2709 50.0656 32.0719 49.395 32.0719 48.4987V44.1762H33.5729V48.3526C33.5729 48.9502 33.6849 49.3751 33.9179 49.6208C34.1439 49.8664 34.4689 49.9926 34.8809 49.9926C35.1989 49.9926 35.4579 49.9461 35.6709 49.8465C35.8829 49.7469 36.0559 49.6208 36.1819 49.4548C36.3149 49.2954 36.4079 49.0962 36.4669 48.8705C36.5269 48.6447 36.5539 48.3991 36.5539 48.1335V44.1828H38.0539V50.9886ZM40.6109 48.8041C40.6569 49.2423 40.8229 49.5477 41.1089 49.727C41.4009 49.8996 41.7459 49.9926 42.1509 49.9926C42.2899 49.9926 42.4499 49.9793 42.6289 49.9594C42.8079 49.9395 42.9809 49.893 43.1339 49.8332C43.2929 49.7735 43.4189 49.6805 43.5249 49.561C43.6249 49.4415 43.6719 49.2888 43.6649 49.0962C43.6579 48.9037 43.5849 48.7443 43.4519 48.6248C43.3199 48.4987 43.1539 48.4057 42.9479 48.326C42.7419 48.253 42.5099 48.1866 42.2439 48.1335C41.9779 48.0804 41.7129 48.0206 41.4409 47.9608C41.1619 47.9011 40.8889 47.8214 40.6309 47.7351C40.3719 47.6488 40.1389 47.5293 39.9329 47.3765C39.7279 47.2305 39.5619 47.0379 39.4419 46.8055C39.3159 46.5731 39.2559 46.2876 39.2559 45.9424C39.2559 45.5705 39.3489 45.2651 39.5279 45.0128C39.7079 44.7605 39.9399 44.5613 40.2119 44.4086C40.4909 44.2559 40.7969 44.1496 41.1349 44.0832C41.4739 44.0235 41.7989 43.9903 42.1049 43.9903C42.4559 43.9903 42.7949 44.0301 43.1139 44.1032C43.4329 44.1762 43.7249 44.2957 43.9839 44.4684C44.2429 44.6343 44.4549 44.8535 44.6279 45.119C44.7999 45.3846 44.9069 45.71 44.9529 46.0884H43.3859C43.3129 45.7299 43.1539 45.4842 42.8949 45.3647C42.6359 45.2386 42.3369 45.1788 42.0049 45.1788C41.8989 45.1788 41.7729 45.1854 41.6259 45.2054C41.4799 45.2253 41.3479 45.2585 41.2149 45.305C41.0889 45.3514 40.9819 45.4245 40.8889 45.5174C40.8029 45.6104 40.7569 45.7299 40.7569 45.8826C40.7569 46.0685 40.8229 46.2146 40.9489 46.3275C41.0749 46.4403 41.2409 46.5333 41.4469 46.613C41.6529 46.686 41.8849 46.7524 42.1509 46.8055C42.4169 46.8586 42.6889 46.9184 42.9679 46.9782C43.2399 47.0379 43.5059 47.1176 43.7709 47.2039C44.0369 47.2902 44.2689 47.4097 44.4749 47.5625C44.6809 47.7152 44.8469 47.9011 44.9729 48.1268C45.0989 48.3526 45.1649 48.6381 45.1649 48.9701C45.1649 49.3751 45.0729 49.7137 44.8869 49.9992C44.7009 50.2781 44.4619 50.5105 44.1699 50.6831C43.8769 50.8558 43.5449 50.9886 43.1869 51.0682C42.8279 51.1479 42.4699 51.1877 42.1179 51.1877C41.6859 51.1877 41.2879 51.1413 40.9229 51.0417C40.5579 50.9421 40.2389 50.796 39.9729 50.6034C39.7079 50.4043 39.4949 50.1586 39.3419 49.8664C39.1899 49.5743 39.1099 49.2224 39.0969 48.8174H40.6109V48.8041ZM45.5639 44.1762H46.6989V42.1312H48.1999V44.1762H49.5539V45.2983H48.1999V48.9369C48.1999 49.0962 48.2059 49.229 48.2199 49.3485C48.2329 49.4614 48.2659 49.561 48.3129 49.6407C48.3589 49.7204 48.4319 49.7801 48.5319 49.82C48.6309 49.8598 48.7579 49.8797 48.9299 49.8797C49.0359 49.8797 49.1429 49.8797 49.2489 49.8731C49.3549 49.8664 49.4609 49.8532 49.5679 49.8266V50.9886C49.4019 51.0085 49.2359 51.0217 49.0829 51.0417C48.9239 51.0616 48.7639 51.0682 48.5979 51.0682C48.1999 51.0682 47.8809 51.0284 47.6419 50.9554C47.4029 50.8823 47.2099 50.7694 47.0779 50.6234C46.9379 50.4773 46.8519 50.298 46.7989 50.0789C46.7519 49.8598 46.7189 49.6075 46.7129 49.3286V45.3116H45.5769V44.1762H45.5639ZM50.6169 44.1762H52.0379V45.0991H52.0639C52.2769 44.7007 52.5689 44.4219 52.9469 44.2492C53.3259 44.0766 53.7309 43.9903 54.1759 43.9903C54.7129 43.9903 55.1779 44.0832 55.5769 44.2758C55.9749 44.4617 56.3069 44.7207 56.5719 45.0526C56.8379 45.3846 57.0309 45.7697 57.1629 46.208C57.2959 46.6462 57.3629 47.1176 57.3629 47.6156C57.3629 48.0737 57.3029 48.5186 57.1829 48.9435C57.0639 49.3751 56.8849 49.7536 56.6459 50.0855C56.4059 50.4175 56.1009 50.6765 55.7289 50.8757C55.3569 51.0749 54.9259 51.1745 54.4209 51.1745C54.2019 51.1745 53.9829 51.1545 53.7639 51.1147C53.5449 51.0749 53.3319 51.0085 53.1329 50.9222C52.9339 50.8358 52.7409 50.723 52.5749 50.5835C52.4029 50.4441 52.2629 50.2847 52.1439 50.1055H52.1169V53.505H50.6169V44.1762ZM55.8619 47.589C55.8619 47.2836 55.8219 46.9848 55.7429 46.6927C55.6629 46.4005 55.5429 46.1482 55.3839 45.9225C55.2249 45.6967 55.0249 45.5174 54.7929 45.3846C54.5539 45.2518 54.2819 45.1788 53.9759 45.1788C53.3459 45.1788 52.8679 45.3979 52.5489 45.8361C52.2299 46.2744 52.0709 46.8586 52.0709 47.589C52.0709 47.9343 52.1109 48.253 52.1969 48.5451C52.2829 48.8373 52.4029 49.0896 52.5749 49.3021C52.7409 49.5145 52.9409 49.6805 53.1729 49.8C53.4049 49.9262 53.6779 49.986 53.9829 49.986C54.3279 49.986 54.6139 49.9129 54.8529 49.7735C55.0919 49.634 55.2839 49.4481 55.4369 49.229C55.5899 49.0033 55.7029 48.751 55.7689 48.4655C55.8289 48.18 55.8619 47.8878 55.8619 47.589ZM58.5109 41.5801H60.0119V43.001H58.5109V41.5801ZM58.5109 44.1762H60.0119V50.9886H58.5109V44.1762ZM61.3529 41.5801H62.8539V50.9886H61.3529V41.5801ZM67.4549 51.1745C66.9109 51.1745 66.4259 51.0815 66.0009 50.9022C65.5759 50.723 65.2169 50.4707 64.9189 50.1586C64.6259 49.8399 64.4009 49.4614 64.2479 49.0232C64.0949 48.585 64.0159 48.1003 64.0159 47.5757C64.0159 47.0578 64.0949 46.5798 64.2479 46.1416C64.4009 45.7033 64.6259 45.3249 64.9189 45.0062C65.2109 44.6875 65.5759 44.4418 66.0009 44.2625C66.4259 44.0832 66.9109 43.9903 67.4549 43.9903C67.9989 43.9903 68.4839 44.0832 68.9089 44.2625C69.3339 44.4418 69.6929 44.6941 69.9909 45.0062C70.2829 45.3249 70.5089 45.7033 70.6619 46.1416C70.8149 46.5798 70.8939 47.0578 70.8939 47.5757C70.8939 48.1003 70.8149 48.585 70.6619 49.0232C70.5089 49.4614 70.2829 49.8399 69.9909 50.1586C69.6989 50.4773 69.3339 50.723 68.9089 50.9022C68.4839 51.0815 67.9989 51.1745 67.4549 51.1745ZM67.4549 49.986C67.7869 49.986 68.0789 49.9129 68.3249 49.7735C68.5699 49.634 68.7699 49.4481 68.9289 49.2224C69.0879 48.9966 69.2009 48.7377 69.2809 48.4522C69.3539 48.1667 69.3939 47.8745 69.3939 47.5757C69.3939 47.2836 69.3539 46.9981 69.2809 46.7059C69.2079 46.4138 69.0879 46.1615 68.9289 45.9357C68.7699 45.71 68.5699 45.5307 68.3249 45.3913C68.0789 45.2518 67.7869 45.1788 67.4549 45.1788C67.1229 45.1788 66.8309 45.2518 66.5849 45.3913C66.3399 45.5307 66.1399 45.7166 65.9809 45.9357C65.8219 46.1615 65.7089 46.4138 65.6289 46.7059C65.5559 46.9981 65.5159 47.2836 65.5159 47.5757C65.5159 47.8745 65.5559 48.1667 65.6289 48.4522C65.7019 48.7377 65.8219 48.9966 65.9809 49.2224C66.1399 49.4481 66.3399 49.634 66.5849 49.7735C66.8309 49.9196 67.1229 49.986 67.4549 49.986ZM71.3329 44.1762H72.4679V42.1312H73.9689V44.1762H75.3229V45.2983H73.9689V48.9369C73.9689 49.0962 73.9749 49.229 73.9879 49.3485C74.0019 49.4614 74.0349 49.561 74.0809 49.6407C74.1279 49.7204 74.2009 49.7801 74.3009 49.82C74.3999 49.8598 74.5259 49.8797 74.6989 49.8797C74.8049 49.8797 74.9109 49.8797 75.0179 49.8731C75.1239 49.8664 75.2299 49.8532 75.3359 49.8266V50.9886C75.1699 51.0085 75.0039 51.0217 74.8519 51.0417C74.6919 51.0616 74.5329 51.0682 74.3669 51.0682C73.9689 51.0682 73.6499 51.0284 73.4109 50.9554C73.1719 50.8823 72.9789 50.7694 72.8459 50.6234C72.7069 50.4773 72.6209 50.298 72.5679 50.0789C72.5209 49.8598 72.4879 49.6075 72.4809 49.3286V45.3116H71.3459V44.1762H71.3329Z" fill="#111827"/>
<path d="M9.11792 48.1201L13.0429 47.1042L14.6889 52.1637L9.11792 48.1201ZM18.1219 41.58H11.2429L9.11792 35.0332L6.99396 41.58L0.10791 41.5733L5.67896 45.6169L3.55396 52.1637L9.11792 48.1201L12.5579 45.6235L18.1219 41.58Z" fill="#111827"/>
</g>
<defs>
<clipPath id="clip0_12158_115879">
<rect width="121" height="54" fill="white"/>
</clipPath>
</defs>
</svg>
