<svg xmlns="http://www.w3.org/2000/svg" width="101" height="32" preserveAspectRatio="xMinYMin meet">
  <path fill="#003087" d="M12.237 2.8h-7.8c-.5 0-1 .4-1.1.9l-3.1 20c-.1.4.2.7.6.7h3.7c.5 0 1-.4 1.1-.9l.8-5.4c.1-.5.5-.9 1.1-.9h2.5c5.1 0 8.1-2.5 8.9-7.4.3-2.1 0-3.8-1-5-1.1-1.3-3.1-2-5.7-2Zm.9 7.3c-.4 2.8-2.6 2.8-4.6 2.8h-1.2l.8-5.2c0-.3.3-.5.6-.5h.5c1.4 0 2.7 0 3.4.8.5.4.7 1.1.5 2.1ZM35.437 10h-3.7c-.3 0-.6.2-.6.5l-.2 1-.3-.4c-.8-1.2-2.6-1.6-4.4-1.6-4.1 0-7.6 3.1-8.3 7.5-.4 2.2.1 4.3 1.4 5.7 1.1 1.3 2.8 1.9 4.7 1.9 3.3 0 5.2-2.1 5.2-2.1l-.2 1c-.1.4.2.8.6.8h3.4c.5 0 1-.4 1.1-.9l2-12.8c.1-.2-.3-.6-.7-.6Zm-5.1 7.2c-.4 2.1-2 3.6-4.2 3.6-1.1 0-1.9-.3-2.5-1-.6-.7-.8-1.6-.6-2.6.3-2.1 2.1-3.6 4.2-3.6 1.1 0 1.9.4 2.5 1 .5.7.7 1.6.6 2.6ZM55.337 10h-3.7c-.4 0-.7.2-.9.5l-5.2 7.6-2.2-7.3c-.1-.5-.6-.8-1-.8h-3.7c-.4 0-.8.4-.6.9l4.1 12.1-3.9 5.4c-.3.4 0 1 .5 1h3.7c.4 0 .7-.2.9-.5l12.5-18c.3-.3 0-.9-.5-.9Z"/>
  <path fill="#009cde" d="M67.737 2.8h-7.8c-.5 0-1 .4-1.1.9l-3.1 19.9c-.1.4.2.7.6.7h4c.4 0 .7-.3.7-.6l.9-5.7c.1-.5.5-.9 1.1-.9h2.5c5.1 0 8.1-2.5 8.9-7.4.3-2.1 0-3.8-1-5-1.2-1.2-3.1-1.9-5.7-1.9Zm.9 7.3c-.4 2.8-2.6 2.8-4.6 2.8h-1.2l.8-5.2c0-.3.3-.5.6-.5h.5c1.4 0 2.7 0 3.4.8.5.4.6 1.1.5 2.1ZM90.937 10h-3.7c-.3 0-.6.2-.6.5l-.2 1-.3-.4c-.8-1.2-2.6-1.6-4.4-1.6-4.1 0-7.6 3.1-8.3 7.5-.4 2.2.1 4.3 1.4 5.7 1.1 1.3 2.8 1.9 4.7 1.9 3.3 0 5.2-2.1 5.2-2.1l-.2 1c-.1.4.2.8.6.8h3.4c.5 0 1-.4 1.1-.9l2-12.8c0-.2-.3-.6-.7-.6Zm-5.2 7.2c-.4 2.1-2 3.6-4.2 3.6-1.1 0-1.9-.3-2.5-1-.6-.7-.8-1.6-.6-2.6.3-2.1 2.1-3.6 4.2-3.6 1.1 0 1.9.4 2.5 1 .6.7.8 1.6.6 2.6ZM95.337 3.3l-3.2 20.3c-.1.4.2.7.6.7h3.2c.5 0 1-.4 1.1-.9l3.2-19.9c.1-.4-.2-.7-.6-.7h-3.6c-.4 0-.6.2-.7.5Z"/>
</svg>
