<svg width="208" height="120" fill="none" xmlns="http://www.w3.org/2000/svg">
  <g clip-path="url(#a)">
    <path d="M0 0h104v120H0V0Z" fill="url(#b)"/>
    <path d="M104 0h104v120H104V0Z" fill="url(#c)"/>
    <path d="M122 18h86v102h-86V18Z" fill="#101010"/>
    <path d="M122 21c0-1.6569 1.343-3 3-3h29v102h-32V21Z" fill="#1C1C1C"/>
    <rect x="126" y="22" width="12" height="4" rx="1" fill="#444"/>
    <rect x="126" y="30" width="24" height="4" rx="1" fill="#444"/>
    <rect x="126" y="36" width="24" height="4" rx="1" fill="#2B2B2B"/>
    <rect x="126" y="42" width="24" height="4" rx="1" fill="#2B2B2B"/>
    <rect x="126" y="48" width="24" height="4" rx="1" fill="#2B2B2B"/>
    <rect x="126" y="54" width="24" height="4" rx="1" fill="#2B2B2B"/>
    <rect x="126" y="60" width="24" height="4" rx="1" fill="#2B2B2B"/>
    <rect x="161" y="24" width="24" height="2" rx="1" fill="#444"/>
    <rect x="161" y="28" width="58" height="2" rx="1" fill="#2B2B2B"/>
    <path fill="#303030" d="M161 48h47v11h-47z"/>
    <rect x="164" y="52" width="24" height="3" rx="1" fill="#444"/>
    <path fill="#303030" d="M161 60h47v11h-47z"/>
    <rect x="164" y="64" width="24" height="3" rx="1" fill="#444"/>
    <path fill="#303030" d="M161 72h47v11h-47z"/>
    <rect x="164" y="76" width="24" height="3" rx="1" fill="#444"/>
    <circle cx="163.5" cy="41.5" r="2.5" fill="#444"/>
    <rect x="168" y="39" width="24" height="2" rx="1" fill="#444"/>
    <rect x="168" y="42" width="15" height="2" rx="1" fill="#2B2B2B"/>
    <g clip-path="url(#d)">
      <path d="M18 26c0-3.7712 0-5.6569 1.1716-6.8284C20.3431 18 22.2288 18 26 18h78v102H18V26Z" fill="#E5E7EB"/>
      <path d="M18 17.5h190v102H18v-102Z" fill="#fff"/>
      <path d="M18 20.5c0-1.6569 1.3431-3 3-3h29v102H18v-99Z" fill="#F3F4F6"/>
      <rect x="22" y="21.5" width="12" height="4" rx="1" fill="#E5E7EB"/>
      <rect x="22" y="29.5" width="24" height="4" rx="1" fill="#D1D5DB"/>
      <rect x="22" y="35.5" width="24" height="4" rx="1" fill="#E5E7EB"/>
      <rect x="22" y="41.5" width="24" height="4" rx="1" fill="#E5E7EB"/>
      <rect x="22" y="47.5" width="24" height="4" rx="1" fill="#E5E7EB"/>
      <rect x="22" y="53.5" width="24" height="4" rx="1" fill="#E5E7EB"/>
      <rect x="22" y="59.5" width="24" height="4" rx="1" fill="#E5E7EB"/>
      <rect x="57" y="23.5" width="24" height="2" rx="1" fill="#D1D5DB"/>
      <rect x="57" y="27.5" width="58" height="2" rx="1" fill="#E5E7EB"/>
      <g clip-path="url(#e)">
        <rect x="57" y="47.5" width="156" height="35" rx="1" fill="#F3F4F6"/>
        <path fill="#fff" d="M57 47.5h156v11H57z"/>
        <rect x="60" y="51.5" width="24" height="3" rx="1" fill="#E5E7EB"/>
        <path fill="#fff" d="M57 59.5h156v11H57z"/>
        <rect x="60" y="63.5" width="24" height="3" rx="1" fill="#E5E7EB"/>
        <path fill="#fff" d="M57 71.5h156v11H57z"/>
        <rect x="60" y="75.5" width="24" height="3" rx="1" fill="#E5E7EB"/>
      </g>
      <rect x="56.5" y="47" width="157" height="36" rx="1.5" stroke="#F3F4F6"/>
      <circle cx="59.5" cy="41" r="2.5" fill="#F3F4F6"/>
      <rect x="64" y="38.5" width="24" height="2" rx="1" fill="#E5E7EB"/>
      <rect x="64" y="41.5" width="15" height="2" rx="1" fill="#F3F4F6"/>
    </g>
  </g>
  <defs>
    <clipPath id="a">
      <path fill="#fff" d="M0 0h208v120H0z"/>
    </clipPath>
    <clipPath id="d">
      <path d="M18 26c0-3.7712 0-5.6569 1.1716-6.8284C20.3431 18 22.2288 18 26 18h78v102H18V26Z" fill="#fff"/>
    </clipPath>
    <clipPath id="e">
      <rect x="57" y="47.5" width="156" height="35" rx="1" fill="#fff"/>
    </clipPath>
    <radialGradient id="b" cx="0" cy="0" r="1" gradientUnits="userSpaceOnUse" gradientTransform="matrix(-169.80903551 178.07418414 -351.05784642 -334.76382102 192.774 -55)">
      <stop stop-color="#A2ABBE"/>
      <stop offset="1" stop-color="#D4D4D5"/>
    </radialGradient>
    <radialGradient id="c" cx="0" cy="0" r="1" gradientUnits="userSpaceOnUse" gradientTransform="rotate(125.932 103.83350377 52.98343942) scale(326.659 590.989)">
      <stop stop-color="#282E39"/>
      <stop offset="1" stop-color="#D4D4D5"/>
    </radialGradient>
  </defs>
</svg>
