<svg width="32" height="32" fill="none" xmlns="http://www.w3.org/2000/svg"><g clip-path="url(#a)"><rect width="32" height="32" rx="16" fill="#E5E7EB"/><path d="M16 21.333A6.667 6.667 0 1 0 16 8a6.667 6.667 0 0 0 0 13.333Z" fill="#1F2937"/><path d="M26.667 32a10.667 10.667 0 1 0-21.334 0" fill="#1F2937"/><path d="M16 21.333A6.667 6.667 0 1 0 16 8a6.667 6.667 0 0 0 0 13.333Zm0 0A10.667 10.667 0 0 1 26.667 32M16 21.333A10.666 10.666 0 0 0 5.333 32" stroke="#1F2937" stroke-width="1.5" stroke-linecap="round" stroke-linejoin="round"/></g><defs><clipPath id="a"><rect width="32" height="32" rx="16" fill="#fff"/></clipPath></defs></svg>