<svg xmlns="http://www.w3.org/2000/svg" width="164" height="60" viewBox="0 0 164 60" fill="none" transform="matrix(1, 0, 0, 1, 0, 0)">
<path d="M99.3478 19.3403C100.625 19.6156 101.657 20.2254 102.443 21.1695C103.249 22.1135 103.652 23.2248 103.652 24.5033C103.652 26.1948 103.072 27.5519 101.913 28.5747C100.773 29.5975 99.1119 30.1088 96.9302 30.1088H89.851C89.4947 30.1088 89.2058 29.82 89.2058 29.4637V9.95443C89.2058 9.59812 89.4947 9.30928 89.851 9.30928H96.8123C98.8957 9.30928 100.478 9.77149 101.559 10.6959C102.64 11.6203 103.18 12.889 103.18 14.5018C103.18 15.8393 102.817 16.921 102.09 17.7471C101.382 18.5732 100.468 19.1042 99.3478 19.3403ZM91.8887 17.9956C91.8887 18.2331 92.0813 18.4257 92.3188 18.4257H96.37C97.6869 18.4257 98.6893 18.1208 99.3772 17.5111C100.085 16.9014 100.439 16.0458 100.439 14.9443C100.439 13.8822 100.095 13.0463 99.4067 12.4366C98.7188 11.8269 97.6673 11.522 96.2521 11.522H92.3188C92.0813 11.522 91.8887 11.7146 91.8887 11.9521V17.9956ZM96.429 27.8666C97.8442 27.8666 98.935 27.5421 99.7015 26.893C100.488 26.244 100.881 25.3294 100.881 24.1492C100.881 22.9888 100.478 22.084 99.6721 21.435C98.8859 20.7662 97.7852 20.4319 96.37 20.4319H92.3188C92.0813 20.4319 91.8887 20.6244 91.8887 20.862V27.4365C91.8887 27.6741 92.0813 27.8666 92.3188 27.8666H96.429Z" fill="#000000"/>
<path d="M120.708 21.1104C120.708 21.5269 120.687 21.9014 120.645 22.234C120.619 22.4389 120.441 22.5856 120.234 22.5856H108.092C107.849 22.5856 107.653 22.787 107.671 23.0293C107.795 24.6578 108.308 25.8966 109.21 26.7455C110.212 27.6699 111.431 28.1321 112.866 28.1321C114.163 28.1321 115.244 27.8076 116.109 27.1585C116.848 26.5997 117.347 25.8897 117.606 25.0287C117.696 24.7293 117.958 24.5033 118.271 24.5033H119.822C120.223 24.5033 120.529 24.8663 120.418 25.2514C120.179 26.0755 119.795 26.8292 119.264 27.5126C118.595 28.3977 117.721 29.0861 116.64 29.5778C115.559 30.0695 114.34 30.3154 112.984 30.3154C111.431 30.3154 110.055 29.981 108.856 29.3123C107.657 28.6435 106.714 27.6896 106.026 26.4505C105.358 25.1917 105.024 23.7165 105.024 22.025C105.024 20.3335 105.358 18.8584 106.026 17.5996C106.714 16.3408 107.657 15.377 108.856 14.7083C110.055 14.0396 111.431 13.7052 112.984 13.7052C114.556 13.7052 115.922 14.0396 117.082 14.7083C118.261 15.377 119.155 16.272 119.765 17.3931C120.394 18.5142 120.708 19.7533 120.708 21.1104ZM117.586 21.2875C117.816 21.2875 118.006 21.1074 118.006 20.878C118.006 19.8577 117.806 18.9911 117.406 18.2782C116.954 17.4718 116.335 16.8719 115.549 16.4785C114.763 16.0851 113.908 15.8884 112.984 15.8884C111.51 15.8884 110.271 16.3506 109.269 17.2751C108.353 18.1017 107.823 19.2896 107.678 20.8387C107.655 21.0827 107.852 21.2875 108.097 21.2875H117.586Z" fill="#000000"/>
<path d="M137.927 21.1104C137.927 21.5269 137.906 21.9014 137.864 22.234C137.838 22.4389 137.659 22.5856 137.453 22.5856H125.31C125.067 22.5856 124.871 22.787 124.89 23.0293C125.013 24.6578 125.526 25.8966 126.428 26.7455C127.431 27.6699 128.649 28.1321 130.084 28.1321C131.381 28.1321 132.462 27.8076 133.327 27.1585C134.066 26.5997 134.565 25.8897 134.824 25.0287C134.914 24.7293 135.176 24.5033 135.489 24.5033H137.041C137.441 24.5033 137.747 24.8663 137.636 25.2514C137.398 26.0755 137.013 26.8292 136.482 27.5126C135.814 28.3977 134.939 29.0861 133.858 29.5778C132.777 30.0695 131.558 30.3154 130.202 30.3154C128.649 30.3154 127.274 29.981 126.075 29.3123C124.876 28.6435 123.932 27.6896 123.244 26.4505C122.576 25.1917 122.242 23.7165 122.242 22.025C122.242 20.3335 122.576 18.8584 123.244 17.5996C123.932 16.3408 124.876 15.377 126.075 14.7083C127.274 14.0396 128.649 13.7052 130.202 13.7052C131.775 13.7052 133.141 14.0396 134.3 14.7083C135.48 15.377 136.374 16.272 136.983 17.3931C137.612 18.5142 137.927 19.7533 137.927 21.1104ZM134.805 21.2875C135.034 21.2875 135.224 21.1074 135.224 20.878C135.224 19.8577 135.024 18.9911 134.625 18.2782C134.172 17.4718 133.553 16.8719 132.767 16.4785C131.981 16.0851 131.126 15.8884 130.202 15.8884C128.728 15.8884 127.49 16.3506 126.487 17.2751C125.572 18.1017 125.041 19.2896 124.897 20.8387C124.874 21.0827 125.07 21.2875 125.315 21.2875H134.805Z" fill="#000000"/>
<path d="M148.777 13.6462C150.664 13.6462 152.187 14.2559 153.347 15.4754C154.506 16.6752 155.086 18.4158 155.086 20.6974V29.4637C155.086 29.82 154.797 30.1088 154.441 30.1088H153.048C152.692 30.1088 152.403 29.82 152.403 29.4637V20.9334C152.403 19.3206 151.99 18.0815 151.165 17.2161C150.339 16.3506 149.219 15.9179 147.804 15.9179C146.33 15.9179 145.15 16.3998 144.266 17.3636C143.381 18.3077 142.939 19.6943 142.939 21.5235V29.4637C142.939 29.82 142.65 30.1088 142.294 30.1088H140.902C140.545 30.1088 140.256 29.82 140.256 29.4637V14.5569C140.256 14.2006 140.545 13.9117 140.902 13.9117H142.294C142.65 13.9117 142.939 14.2006 142.939 14.5569V17.7471C143.352 16.4293 144.079 15.4164 145.121 14.7083C146.182 14.0002 147.401 13.6462 148.777 13.6462Z" fill="#000000"/>
<path d="M101.297 33.8938C101.653 33.8938 101.942 34.1827 101.942 34.539V35.4319C101.942 35.7882 101.653 36.077 101.297 36.077H96.5053C96.2678 36.077 96.0752 36.2696 96.0752 36.5071V54.0482C96.0752 54.4045 95.7864 54.6934 95.4301 54.6934H94.0375C93.6812 54.6934 93.3923 54.4045 93.3923 54.0482V36.5071C93.3923 36.2696 93.1998 36.077 92.9622 36.077H88.1705C87.8142 36.077 87.5253 35.7882 87.5253 35.4319V34.539C87.5253 34.1827 87.8142 33.8938 88.1705 33.8938H101.297Z" fill="#000000"/>
<path d="M111.95 38.2307C113.837 38.2307 115.36 38.8405 116.52 40.0599C117.68 41.2597 118.26 43.0004 118.26 45.2819V54.0482C118.26 54.4045 117.971 54.6934 117.614 54.6934H116.222C115.865 54.6934 115.577 54.4045 115.577 54.0482V45.518C115.577 43.9051 115.164 42.666 114.338 41.8006C113.513 40.9352 112.393 40.5025 110.977 40.5025C109.503 40.5025 108.324 40.9844 107.44 41.9481C106.555 42.8922 106.113 44.2788 106.113 46.108V54.0482C106.113 54.4045 105.824 54.6934 105.468 54.6934H104.075C103.719 54.6934 103.43 54.4045 103.43 54.0482V33.5064C103.43 33.1501 103.719 32.8612 104.075 32.8612H105.468C105.824 32.8612 106.113 33.1501 106.113 33.5064V42.3317C106.526 41.0139 107.253 40.0009 108.294 39.2929C109.356 38.5848 110.574 38.2307 111.95 38.2307Z" fill="#000000"/>
<path d="M136.084 45.695C136.084 46.2654 136.045 46.7571 135.966 47.1701H123.023C123.082 49.019 123.603 50.4056 124.586 51.33C125.588 52.2545 126.807 52.7167 128.242 52.7167C129.539 52.7167 130.62 52.3921 131.485 51.7431C132.224 51.1842 132.723 50.4743 132.981 49.6132C133.071 49.3138 133.334 49.0878 133.646 49.0878H135.198C135.599 49.0878 135.905 49.4508 135.793 49.8359C135.555 50.66 135.17 51.4137 134.639 52.0971C133.971 52.9822 133.096 53.6706 132.015 54.1623C130.934 54.654 129.716 54.8999 128.36 54.8999C126.807 54.8999 125.431 54.5655 124.232 53.8968C123.033 53.2281 122.09 52.2741 121.402 51.035C120.733 49.7762 120.399 48.3011 120.399 46.6096C120.399 44.9181 120.733 43.4429 121.402 42.1841C122.09 40.9253 123.033 39.9616 124.232 39.2929C125.431 38.6241 126.807 38.2898 128.36 38.2898C129.932 38.2898 131.298 38.6241 132.458 39.2929C133.637 39.9616 134.531 40.8565 135.14 41.9776C135.769 43.0987 136.084 44.3378 136.084 45.695ZM133.372 45.872C133.43 44.6722 133.234 43.6691 132.782 42.8627C132.33 42.0563 131.711 41.4564 130.924 41.063C130.138 40.6697 129.283 40.473 128.36 40.473C126.885 40.473 125.647 40.9352 124.645 41.8596C123.642 42.7644 123.102 44.1018 123.023 45.872H133.372Z" fill="#000000"/>
<path d="M141.097 41.7711C141.627 40.65 142.404 39.7846 143.426 39.1748C144.289 38.6431 145.293 38.336 146.437 38.2535C146.792 38.2279 147.082 38.5196 147.082 38.8759V40.5064C147.082 40.8627 146.793 41.1515 146.436 41.1515H146.256C144.743 41.1515 143.504 41.5449 142.541 42.3317C141.578 43.0987 141.097 44.3772 141.097 46.167V54.0482C141.097 54.4045 140.808 54.6934 140.451 54.6934H139.059C138.703 54.6934 138.414 54.4045 138.414 54.0482V39.1414C138.414 38.7851 138.703 38.4963 139.059 38.4963H140.451C140.808 38.4963 141.097 38.7851 141.097 39.1414V41.7711Z" fill="#000000"/>
<path d="M163.438 45.695C163.438 46.1115 163.417 46.486 163.375 46.8186C163.349 47.0235 163.171 47.1701 162.964 47.1701H150.821C150.578 47.1701 150.383 47.3716 150.401 47.6138C150.524 49.2424 151.037 50.4811 151.94 51.33C152.942 52.2545 154.161 52.7167 155.596 52.7167C156.893 52.7167 157.974 52.3921 158.839 51.7431C159.578 51.1842 160.077 50.4743 160.336 49.6132C160.425 49.3138 160.688 49.0878 161 49.0878H162.552C162.953 49.0878 163.259 49.4508 163.147 49.8359C162.909 50.66 162.525 51.4137 161.993 52.0971C161.325 52.9822 160.45 53.6706 159.369 54.1623C158.288 54.654 157.07 54.8999 155.714 54.8999C154.161 54.8999 152.785 54.5655 151.586 53.8968C150.387 53.2281 149.444 52.2741 148.756 51.035C148.088 49.7762 147.753 48.3011 147.753 46.6096C147.753 44.9181 148.088 43.4429 148.756 42.1841C149.444 40.9253 150.387 39.9616 151.586 39.2929C152.785 38.6241 154.161 38.2898 155.714 38.2898C157.286 38.2898 158.652 38.6241 159.812 39.2929C160.991 39.9616 161.885 40.8565 162.495 41.9776C163.124 43.0987 163.438 44.3378 163.438 45.695ZM160.316 45.872C160.545 45.872 160.736 45.6919 160.736 45.4626C160.736 44.4422 160.536 43.5756 160.136 42.8627C159.684 42.0563 159.065 41.4564 158.279 41.063C157.492 40.6697 156.637 40.473 155.714 40.473C154.24 40.473 153.001 40.9352 151.999 41.8596C151.083 42.6863 150.553 43.8741 150.408 45.4233C150.385 45.6672 150.582 45.872 150.827 45.872H160.316Z" fill="#000000"/>
<path fill-rule="evenodd" clip-rule="evenodd" d="M38.6874 0.00301322C37.9468 -0.0478181 37.3239 0.551166 37.3457 1.29318L37.6089 10.2687C37.6158 10.5042 37.7988 10.6969 38.0337 10.7159C38.2764 10.7356 38.4927 10.5637 38.5283 10.3229L39.8441 1.44045C39.9515 0.715673 39.4184 0.0531834 38.6874 0.00301322ZM31.3804 2.86888C30.6667 3.04563 30.2478 3.78531 30.4633 4.48824L33.8833 15.6474C33.9567 15.8868 34.209 16.0227 34.4493 15.9522C34.6698 15.8874 34.808 15.6692 34.7722 15.4422L32.9543 3.91315C32.8372 3.17097 32.1097 2.68826 31.3804 2.86888ZM12.9823 12.2713L13.7324 11.7691C16.2315 11.0348 17.6727 12.5289 18.9825 14.5152C19.0213 14.3284 19.0531 14.1718 19.0808 14.0349L19.0808 14.0346L19.081 14.0338L19.0811 14.0335C19.1316 13.7837 19.1689 13.5994 19.2121 13.4165L19.2402 13.2969C19.4931 12.2177 19.7496 11.1236 21.0351 10.778C22.4345 10.4018 23.5765 10.845 24.5561 11.9013C25.6406 13.0706 26.337 14.4446 26.8784 15.9154C26.8992 15.9721 26.9161 16.0285 26.9321 16.0823C27.0177 16.3692 27.0798 16.5774 27.6048 16.3152C29.1044 15.5662 30.5002 16.0428 31.3581 17.4833C32.3034 19.0707 32.7505 20.8308 32.9339 22.6387C33.3556 26.7934 33.2613 30.9195 32.5819 35.0707L32.5563 35.2276C31.9933 38.6686 31.4335 42.0897 30.2589 45.3804C29.011 48.8763 27.5175 52.2508 25.061 55.1032C24.2929 55.9952 23.5117 56.8761 22.7306 57.7569C22.3764 58.1563 22.0222 58.5558 21.6692 58.9562C21.5047 59.0503 21.3569 59.1788 21.2091 59.3074C20.8575 59.6132 20.5058 59.9191 19.93 59.7611C19.8302 59.7337 19.7158 59.7493 19.6018 59.7648C19.3791 59.795 19.1576 59.8251 19.0479 59.5358C18.8598 59.0398 19.124 58.6755 19.4776 58.3184C20.7641 57.0188 22.03 55.7168 23.1672 54.2603C26.3409 50.1956 28.4379 45.6585 29.5742 40.665C30.9189 34.7553 31.6581 28.791 30.9571 22.7188C30.7912 21.2817 30.4525 19.899 29.7784 18.6113C29.601 18.2724 29.3896 17.8912 28.9525 17.9344C28.5217 17.977 28.4419 18.379 28.3751 18.7162L28.375 18.7166L28.3749 18.7171C28.3708 18.7376 28.3668 18.7578 28.3628 18.7777C28.3613 18.7853 28.3597 18.7928 28.3581 18.8003C28.256 19.2922 28.2092 19.801 28.1931 20.3044C28.0475 24.8682 27.1594 29.2511 25.0413 33.3371C24.8865 33.6357 24.708 33.9251 24.513 34.1992C24.1611 34.6938 23.694 34.9874 23.1073 34.6466C22.5158 34.3029 22.4938 33.7268 22.8357 33.2188C24.5059 30.737 25.1205 27.8814 25.7048 25.0354C26.4909 21.2062 25.7494 17.5807 23.8515 14.1997L23.8387 14.1768C23.4025 13.3996 22.8135 12.35 21.7671 12.7169C20.9796 12.9931 21.0517 13.9135 21.1121 14.6845C21.1201 14.7856 21.1278 14.8841 21.1333 14.9782C21.1871 15.8895 21.2744 16.7984 21.3617 17.7073L21.3617 17.7073C21.556 19.7313 21.7504 21.7552 21.5749 23.8057C21.3884 25.984 20.9362 28.1082 20.4838 30.2333C20.3662 30.7857 20.2486 31.3381 20.1356 31.8916C20.0938 32.0967 20.0218 32.2988 19.9388 32.4916C19.6648 33.1286 19.3537 33.8441 18.4937 33.5376C17.7323 33.2663 17.8943 32.6001 18.0418 31.9932L18.0621 31.9092L18.1459 31.5605C18.9364 28.2732 19.728 24.9814 19.6473 21.5672C19.5756 18.5354 18.0927 16.1389 16.0308 14.0503C15.6413 13.6558 14.9694 13.3584 14.5748 13.7223C14.0326 14.2224 13.9482 15.0022 14.0868 15.7936C14.8433 20.1137 15.4965 24.4488 15.4394 28.8517C15.4241 30.0291 15.3112 31.2077 15.1894 32.3801C15.1235 33.0148 14.8199 33.557 14.0586 33.4592C13.3021 33.3621 13.1804 32.7845 13.2287 32.1344C13.2572 31.7507 13.281 31.3665 13.3048 30.9823C13.3488 30.2735 13.3928 29.5647 13.4659 28.8589C13.8458 25.193 12.0517 22.3825 9.90027 19.7068C9.84764 19.6413 9.78687 19.5815 9.72462 19.5248C9.68749 19.491 9.64984 19.4562 9.61168 19.421C9.16461 19.0084 8.64813 18.5318 8.09142 18.7635C7.44716 19.0317 7.58438 19.8319 7.68497 20.4185L7.6922 20.4607C7.90837 21.7265 8.14725 22.9885 8.38614 24.2504C8.64879 25.6379 8.91144 27.0254 9.14387 28.4179C10.054 33.8704 9.14022 39.0995 6.90839 44.0897C5.86014 46.4335 4.76107 48.7856 3.10758 50.8032C2.81458 51.1607 2.49915 51.5031 2.16656 51.824C1.79507 52.1825 1.33812 52.3079 0.910862 51.9625C0.409432 51.5571 0.568406 51.0842 0.877706 50.6162C1.40463 49.8188 1.92408 49.0165 2.44345 48.2143L2.44392 48.2135C2.65373 47.8895 2.86353 47.5654 3.0738 47.2417C4.50152 45.2931 5.27847 43.0546 6.05605 40.8144L6.05609 40.8143L6.05612 40.8142L6.05616 40.8141C6.17333 40.4765 6.29052 40.1389 6.40996 39.8022C6.64472 39.1404 6.55229 38.6041 6.16447 38.0293C5.4138 36.9167 4.67573 35.7955 3.93765 34.6744C3.28605 33.6847 2.63445 32.6949 1.97418 31.711L1.96256 31.6937C1.30777 30.7179 0.653926 29.7436 0.248295 28.6346C-0.506608 26.5708 0.50138 25.1093 2.70774 25.0033C3.60812 24.96 4.32439 25.3615 5.05595 25.8019C5.27804 25.9355 5.47546 26.1065 5.67685 26.2808C6.01684 26.5752 6.36818 26.8794 6.86874 27.0308C6.76489 26.0152 6.53474 25.0183 6.30605 24.0278C5.81982 21.9218 5.34015 19.8442 6.09486 17.6744L6.36343 17.3583C6.41073 17.2885 6.46993 17.2309 6.54156 17.1851L6.96536 16.8811L6.96491 16.8786C9.3176 16.5199 10.9083 17.7935 12.4311 19.8371C12.4636 18.9336 12.376 18.0648 12.2914 17.2273C12.1117 15.4457 11.9461 13.8052 12.9823 12.2713ZM6.09486 17.6744L6.07934 17.6927L6.10308 17.6509L6.09486 17.6744ZM7.27678 35.772C7.50147 34.4002 7.60886 33.1711 7.455 31.9242C7.43692 31.7777 7.43499 31.6272 7.43306 31.4765C7.42799 31.0807 7.42291 30.6842 7.12443 30.3583C6.07326 29.2105 5.00909 28.072 3.66808 27.2486C3.19492 26.9581 2.62243 26.6685 2.15874 27.1373C1.78132 27.5189 2.02614 27.9592 2.24143 28.3465L2.24145 28.3465L2.24147 28.3465L2.24154 28.3467C2.27584 28.4084 2.30938 28.4687 2.33954 28.5272C2.98186 29.7741 3.78826 30.9153 4.59489 32.0568C5.09789 32.7687 5.60099 33.4806 6.06442 34.2184C6.13416 34.3294 6.19922 34.4453 6.26543 34.5633C6.50062 34.9824 6.75047 35.4276 7.27678 35.772ZM51.7146 13.5379C52.102 13.9063 52.4821 14.0309 52.9025 13.5647C53.0981 13.3478 53.3386 13.1659 53.5775 12.9941C55.8394 11.3674 57.9853 12.1538 58.6944 14.8481C58.7497 15.0581 58.7564 15.305 58.763 15.5476C58.7751 15.9954 58.7869 16.4285 59.1028 16.5871C59.4366 16.7548 59.7753 16.495 60.1277 16.2247C60.3258 16.0728 60.5282 15.9175 60.7366 15.8329C62.8989 14.9556 64.877 16.201 65.0285 18.5561C65.0952 19.5911 64.8942 20.5909 64.6933 21.5907L64.6933 21.5908C64.554 22.2838 64.4148 22.9768 64.3646 23.6816C63.4536 26.497 63.3002 29.4089 63.1457 32.3414L63.1293 32.6503C63.6681 32.1147 64.1824 31.5691 64.6924 31.028C65.5525 30.1154 66.4005 29.2155 67.3341 28.3981C69.1062 26.8465 71.1266 26.0943 73.5007 26.4553C75.5868 26.7725 76.6154 28.9504 75.5143 30.7472C75.2735 31.1401 74.9876 31.5099 74.6891 31.8622C73.1004 33.7378 71.8482 35.8316 70.7557 38.0177C69.2216 41.0875 69.5978 43.4086 71.9605 45.9709C72.4927 47.3724 73.6333 48.2147 74.7669 49.0517C74.8431 49.108 74.9192 49.1642 74.9952 49.2206C75.5888 49.6614 76.0289 50.149 75.5192 50.8443C74.9974 51.5561 74.4876 51.1769 73.9879 50.8052C73.938 50.768 73.8882 50.731 73.8385 50.6951C71.323 48.8793 69.4771 46.5458 68.3068 43.6716C67.2081 40.9733 68.1377 38.5843 69.4264 36.2575C70.653 34.0429 72.0351 31.9336 73.6444 29.9677C74.3223 29.1396 73.9447 28.4656 72.8647 28.3435C71.338 28.1708 70.0425 28.7022 68.9026 29.6632C67.0872 31.1936 65.5429 32.9825 64.1381 34.882C63.5073 35.735 62.8019 36.1355 61.7199 36.1932C57.067 36.4414 53.2134 38.4102 50.0757 41.8222C49.9898 41.9156 49.907 42.012 49.8242 42.1084L49.8241 42.1085L49.8241 42.1085L49.824 42.1086C49.6868 42.2683 49.5496 42.428 49.3988 42.5736C48.9602 42.9971 48.4537 43.4315 47.8611 42.9239C47.2254 42.3793 47.5591 41.764 47.9684 41.2471C48.3862 40.7194 48.8367 40.2121 49.3164 39.74C52.2277 36.8752 55.6923 35.026 59.7339 34.4283C61.0547 34.233 61.4539 33.9765 61.3647 32.4842C61.142 28.7601 61.9436 25.1127 62.8276 21.5022C63.0482 20.6011 63.251 19.6901 63.2077 18.7553C63.1497 17.5042 62.399 17.0365 61.2343 17.5184C59.6845 18.1596 58.8047 19.4422 58.1609 20.8933C56.6632 24.2694 56.014 27.7959 56.4189 31.4896C56.4247 31.5422 56.4308 31.5948 56.4369 31.6473C56.4455 31.7203 56.454 31.7934 56.4615 31.8665C56.5257 32.4901 56.3496 32.9994 55.6543 33.0567C54.9594 33.1141 54.7109 32.6132 54.6362 32.0141C54.3952 30.0821 54.3493 28.1481 54.6531 26.219C54.9297 24.4626 55.4923 22.7849 56.0875 21.1151C56.687 19.433 57.066 17.7052 56.8676 15.9072L56.8625 15.8615C56.7909 15.2091 56.706 14.4357 56.0063 14.1905C55.2256 13.9168 54.6642 14.5423 54.1958 15.0735C53.2606 16.1339 52.6884 17.4028 52.2765 18.7429C51.1546 22.3938 50.6838 26.1484 50.4998 29.949C50.4673 30.6213 50.404 31.2938 50.3146 31.9609C50.2627 32.348 50.0984 32.7325 49.6262 32.7306C49.1758 32.7289 48.9464 32.3755 48.8864 31.9885C48.8691 31.8773 48.8512 31.7659 48.8334 31.6543C48.7242 30.9733 48.614 30.2855 48.6323 29.6046C48.7519 25.1584 49.3181 20.7838 50.973 16.6129C51.158 16.1466 51.3008 15.7036 50.8949 15.3384C50.4744 14.96 50.0685 15.2407 49.7206 15.4814L49.7203 15.4816L49.7191 15.4824L49.7183 15.483C49.6925 15.5008 49.6671 15.5184 49.642 15.5354C48.1058 16.5803 47.5284 18.2471 46.966 19.8704L46.9018 20.0555C45.5562 23.9282 45.2713 27.9571 45.3182 32.0272C45.3195 32.1348 45.329 32.2536 45.3389 32.3769L45.3389 32.3769C45.3876 32.9854 45.445 33.7022 44.56 33.7098C43.6877 33.7173 43.6264 32.9622 43.5664 32.2229L43.5663 32.222C43.5612 32.1599 43.5562 32.098 43.5507 32.0366C43.125 27.2895 43.7561 22.7036 45.484 18.264C45.5189 18.1744 45.532 18.0763 45.5512 17.9339C45.5622 17.8515 45.5753 17.7542 45.5957 17.6351C44.5209 18.1914 44.189 19.0918 43.8685 19.9613L43.85 20.0115C42.3441 24.0927 41.8057 28.335 41.7074 32.6637C41.546 39.7703 43.2667 46.2656 47.7314 51.9202C49.4142 54.0515 51.3797 55.8877 53.5051 57.5637C53.5921 57.6322 53.6805 57.699 53.7689 57.7657C53.9161 57.8769 54.0632 57.988 54.2035 58.1073C54.2352 58.1342 54.2675 58.1614 54.3001 58.1887C54.7662 58.5795 55.2877 59.0169 54.7797 59.6604C54.2812 60.2919 53.7024 59.9124 53.1771 59.568L53.105 59.5209C52.8377 59.3467 52.5603 59.1879 52.2828 59.0291C52.1595 58.9585 52.0362 58.888 51.9138 58.816C51.7478 58.661 51.583 58.5049 51.4181 58.3489L51.4178 58.3486L51.4175 58.3482L51.4171 58.3479C51.0653 58.0149 50.7137 57.6819 50.352 57.3602C45.9814 53.4732 42.6522 48.8884 41.0086 43.2173C39.5072 38.0368 39.4631 32.7475 40.0895 27.4402C40.4706 24.2117 41.1899 21.0544 42.5979 18.096C43.2442 16.7381 44.272 15.8869 45.8667 16.0121C46.4473 16.0577 46.6893 15.7398 46.9798 15.3581C47.0017 15.3294 47.0238 15.3002 47.0464 15.2709C48.425 13.4808 49.8769 12.9654 51.7146 13.5379ZM42.8234 7.33918C43.1021 6.62599 43.9447 6.32089 44.6154 6.69032C45.2483 7.03893 45.4621 7.84527 45.0851 8.46167L40.4154 16.0972C40.2746 16.3275 39.9705 16.3947 39.7457 16.2452C39.5594 16.1212 39.4846 15.8841 39.566 15.6757L42.8234 7.33918Z" fill="#000000"/>
</svg>