<svg xmlns="http://www.w3.org/2000/svg" width="162" height="16" viewBox="0 0 162 16" fill="none">
<path d="M8.3 7.84C9.08667 7.98667 9.73333 8.38 10.24 9.02C10.7467 9.66 11 10.3933 11 11.22C11 11.9667 10.8133 12.6267 10.44 13.2C10.08 13.76 9.55333 14.2 8.86 14.52C8.16667 14.84 7.34667 15 6.4 15H0.38L0.38 1.04L6.14 1.04C7.08667 1.04 7.9 1.19333 8.58 1.5C9.27333 1.80667 9.79333 2.23333 10.14 2.78C10.5 3.32667 10.68 3.94667 10.68 4.64C10.68 5.45333 10.46 6.13333 10.02 6.68C9.59333 7.22667 9.02 7.61333 8.3 7.84ZM3.18 6.8H5.74C6.40667 6.8 6.92 6.65333 7.28 6.36C7.64 6.05333 7.82 5.62 7.82 5.06C7.82 4.5 7.64 4.06667 7.28 3.76C6.92 3.45333 6.40667 3.3 5.74 3.3L3.18 3.3V6.8ZM6 12.72C6.68 12.72 7.20667 12.56 7.58 12.24C7.96667 11.92 8.16 11.4667 8.16 10.88C8.16 10.28 7.96 9.81333 7.56 9.48C7.16 9.13333 6.62 8.96 5.94 8.96H3.18V12.72H6ZM23.9316 9.22C23.9316 9.62 23.9049 9.98 23.8516 10.3H15.7516C15.8182 11.1 16.0982 11.7267 16.5916 12.18C17.0849 12.6333 17.6916 12.86 18.4116 12.86C19.4516 12.86 20.1916 12.4133 20.6316 11.52H23.6516C23.3316 12.5867 22.7182 13.4667 21.8116 14.16C20.9049 14.84 19.7916 15.18 18.4716 15.18C17.4049 15.18 16.4449 14.9467 15.5916 14.48C14.7516 14 14.0916 13.3267 13.6116 12.46C13.1449 11.5933 12.9116 10.5933 12.9116 9.46C12.9116 8.31333 13.1449 7.30667 13.6116 6.44C14.0782 5.57333 14.7316 4.90667 15.5716 4.44C16.4116 3.97333 17.3782 3.74 18.4716 3.74C19.5249 3.74 20.4649 3.96667 21.2916 4.42C22.1316 4.87333 22.7782 5.52 23.2316 6.36C23.6982 7.18667 23.9316 8.14 23.9316 9.22ZM21.0316 8.42C21.0182 7.7 20.7582 7.12667 20.2516 6.7C19.7449 6.26 19.1249 6.04 18.3916 6.04C17.6982 6.04 17.1116 6.25333 16.6316 6.68C16.1649 7.09333 15.8782 7.67333 15.7716 8.42H21.0316ZM36.6753 9.22C36.6753 9.62 36.6486 9.98 36.5953 10.3L28.4953 10.3C28.562 11.1 28.842 11.7267 29.3353 12.18C29.8286 12.6333 30.4353 12.86 31.1553 12.86C32.1953 12.86 32.9353 12.4133 33.3753 11.52H36.3953C36.0753 12.5867 35.462 13.4667 34.5553 14.16C33.6486 14.84 32.5353 15.18 31.2153 15.18C30.1486 15.18 29.1886 14.9467 28.3353 14.48C27.4953 14 26.8353 13.3267 26.3553 12.46C25.8886 11.5933 25.6553 10.5933 25.6553 9.46C25.6553 8.31333 25.8886 7.30667 26.3553 6.44C26.822 5.57333 27.4753 4.90667 28.3153 4.44C29.1553 3.97333 30.122 3.74 31.2153 3.74C32.2686 3.74 33.2086 3.96667 34.0353 4.42C34.8753 4.87333 35.522 5.52 35.9753 6.36C36.442 7.18667 36.6753 8.14 36.6753 9.22ZM33.7753 8.42C33.762 7.7 33.502 7.12667 32.9953 6.7C32.4886 6.26 31.8686 6.04 31.1353 6.04C30.442 6.04 29.8553 6.25333 29.3753 6.68C28.9086 7.09333 28.622 7.67333 28.5153 8.42L33.7753 8.42ZM45.2591 3.76C46.5791 3.76 47.6457 4.18 48.4591 5.02C49.2724 5.84667 49.6791 7.00667 49.6791 8.5L49.6791 15H46.8791L46.8791 8.88C46.8791 8 46.6591 7.32667 46.2191 6.86C45.7791 6.38 45.1791 6.14 44.4191 6.14C43.6457 6.14 43.0324 6.38 42.5791 6.86C42.1391 7.32667 41.9191 8 41.9191 8.88L41.9191 15H39.1191L39.1191 3.92H41.9191V5.3C42.2924 4.82 42.7657 4.44667 43.3391 4.18C43.9257 3.9 44.5657 3.76 45.2591 3.76ZM62.2417 1.04V3.3L58.5217 3.3L58.5217 15H55.7217L55.7217 3.3H52.0017V1.04L62.2417 1.04ZM70.9247 3.76C71.7647 3.76 72.5114 3.94667 73.1647 4.32C73.818 4.68 74.3247 5.22 74.6847 5.94C75.058 6.64667 75.2447 7.5 75.2447 8.5V15H72.4447V8.88C72.4447 8 72.2247 7.32667 71.7847 6.86C71.3447 6.38 70.7447 6.14 69.9847 6.14C69.2114 6.14 68.598 6.38 68.1447 6.86C67.7047 7.32667 67.4847 8 67.4847 8.88V15H64.6847V0.2H67.4847V5.3C67.8447 4.82 68.3247 4.44667 68.9247 4.18C69.5247 3.9 70.1914 3.76 70.9247 3.76ZM88.6073 9.22C88.6073 9.62 88.5807 9.98 88.5273 10.3H80.4273C80.494 11.1 80.774 11.7267 81.2673 12.18C81.7607 12.6333 82.3673 12.86 83.0873 12.86C84.1273 12.86 84.8673 12.4133 85.3073 11.52H88.3273C88.0073 12.5867 87.394 13.4667 86.4873 14.16C85.5807 14.84 84.4673 15.18 83.1473 15.18C82.0807 15.18 81.1207 14.9467 80.2673 14.48C79.4273 14 78.7673 13.3267 78.2873 12.46C77.8207 11.5933 77.5873 10.5933 77.5873 9.46C77.5873 8.31333 77.8207 7.30667 78.2873 6.44C78.754 5.57333 79.4073 4.90667 80.2473 4.44C81.0873 3.97333 82.054 3.74 83.1473 3.74C84.2007 3.74 85.1407 3.96667 85.9673 4.42C86.8073 4.87333 87.454 5.52 87.9073 6.36C88.374 7.18667 88.6073 8.14 88.6073 9.22ZM85.7073 8.42C85.694 7.7 85.434 7.12667 84.9273 6.7C84.4207 6.26 83.8007 6.04 83.0673 6.04C82.374 6.04 81.7873 6.25333 81.3073 6.68C80.8407 7.09333 80.554 7.67333 80.4473 8.42H85.7073ZM93.8511 5.64C94.2111 5.05333 94.6778 4.59333 95.2511 4.26C95.8378 3.92667 96.5044 3.76 97.2511 3.76V6.7H96.5111C95.6311 6.7 94.9644 6.90667 94.5111 7.32C94.0711 7.73333 93.8511 8.45333 93.8511 9.48V15H91.0511V3.92L93.8511 3.92V5.64ZM109.837 9.22C109.837 9.62 109.81 9.98 109.757 10.3H101.657C101.724 11.1 102.004 11.7267 102.497 12.18C102.99 12.6333 103.597 12.86 104.317 12.86C105.357 12.86 106.097 12.4133 106.537 11.52H109.557C109.237 12.5867 108.624 13.4667 107.717 14.16C106.81 14.84 105.697 15.18 104.377 15.18C103.31 15.18 102.35 14.9467 101.497 14.48C100.657 14 99.997 13.3267 99.517 12.46C99.0504 11.5933 98.817 10.5933 98.817 9.46C98.817 8.31333 99.0504 7.30667 99.517 6.44C99.9837 5.57333 100.637 4.90667 101.477 4.44C102.317 3.97333 103.284 3.74 104.377 3.74C105.43 3.74 106.37 3.96667 107.197 4.42C108.037 4.87333 108.684 5.52 109.137 6.36C109.604 7.18667 109.837 8.14 109.837 9.22ZM106.937 8.42C106.924 7.7 106.664 7.12667 106.157 6.7C105.65 6.26 105.03 6.04 104.297 6.04C103.604 6.04 103.017 6.25333 102.537 6.68C102.07 7.09333 101.784 7.67333 101.677 8.42H106.937ZM113.521 15.14C113.014 15.14 112.594 14.9867 112.261 14.68C111.941 14.36 111.781 13.9667 111.781 13.5C111.781 13.0333 111.941 12.6467 112.261 12.34C112.594 12.02 113.014 11.86 113.521 11.86C114.014 11.86 114.421 12.02 114.741 12.34C115.061 12.6467 115.221 13.0333 115.221 13.5C115.221 13.9667 115.061 14.36 114.741 14.68C114.421 14.9867 114.014 15.14 113.521 15.14ZM117.156 9.46C117.156 8.31333 117.389 7.31333 117.856 6.46C118.323 5.59333 118.969 4.92667 119.796 4.46C120.623 3.98 121.569 3.74 122.636 3.74C124.009 3.74 125.143 4.08667 126.036 4.78C126.943 5.46 127.549 6.42 127.856 7.66H124.836C124.676 7.18 124.403 6.80667 124.016 6.54C123.643 6.26 123.176 6.12 122.616 6.12C121.816 6.12 121.183 6.41333 120.716 7C120.249 7.57333 120.016 8.39333 120.016 9.46C120.016 10.5133 120.249 11.3333 120.716 11.92C121.183 12.4933 121.816 12.78 122.616 12.78C123.749 12.78 124.489 12.2733 124.836 11.26H127.856C127.549 12.46 126.943 13.4133 126.036 14.12C125.129 14.8267 123.996 15.18 122.636 15.18C121.569 15.18 120.623 14.9467 119.796 14.48C118.969 14 118.323 13.3333 117.856 12.48C117.389 11.6133 117.156 10.6067 117.156 9.46ZM135.227 15.18C134.161 15.18 133.201 14.9467 132.347 14.48C131.494 14 130.821 13.3267 130.327 12.46C129.847 11.5933 129.607 10.5933 129.607 9.46C129.607 8.32667 129.854 7.32667 130.347 6.46C130.854 5.59333 131.541 4.92667 132.407 4.46C133.274 3.98 134.241 3.74 135.307 3.74C136.374 3.74 137.341 3.98 138.207 4.46C139.074 4.92667 139.754 5.59333 140.247 6.46C140.754 7.32667 141.007 8.32667 141.007 9.46C141.007 10.5933 140.747 11.5933 140.227 12.46C139.721 13.3267 139.027 14 138.147 14.48C137.281 14.9467 136.307 15.18 135.227 15.18ZM135.227 12.74C135.734 12.74 136.207 12.62 136.647 12.38C137.101 12.1267 137.461 11.7533 137.727 11.26C137.994 10.7667 138.127 10.1667 138.127 9.46C138.127 8.40667 137.847 7.6 137.287 7.04C136.741 6.46667 136.067 6.18 135.267 6.18C134.467 6.18 133.794 6.46667 133.247 7.04C132.714 7.6 132.447 8.40667 132.447 9.46C132.447 10.5133 132.707 11.3267 133.227 11.9C133.761 12.46 134.427 12.74 135.227 12.74ZM157.221 3.76C158.581 3.76 159.675 4.18 160.501 5.02C161.341 5.84667 161.761 7.00667 161.761 8.5V15H158.961V8.88C158.961 8.01333 158.741 7.35333 158.301 6.9C157.861 6.43333 157.261 6.2 156.501 6.2C155.741 6.2 155.135 6.43333 154.681 6.9C154.241 7.35333 154.021 8.01333 154.021 8.88V15H151.221V8.88C151.221 8.01333 151.001 7.35333 150.561 6.9C150.121 6.43333 149.521 6.2 148.761 6.2C147.988 6.2 147.375 6.43333 146.921 6.9C146.481 7.35333 146.261 8.01333 146.261 8.88V15H143.461V3.92H146.261V5.26C146.621 4.79333 147.081 4.42667 147.641 4.16C148.215 3.89333 148.841 3.76 149.521 3.76C150.388 3.76 151.161 3.94667 151.841 4.32C152.521 4.68 153.048 5.2 153.421 5.88C153.781 5.24 154.301 4.72667 154.981 4.34C155.675 3.95333 156.421 3.76 157.221 3.76Z" fill="#030000"/>
</svg>