<svg xmlns="http://www.w3.org/2000/svg" width="232" height="132" fill="none"><g clip-path="url(#a)"><mask id="b" width="232" height="132" x="0" y="0" maskUnits="userSpaceOnUse" style="mask-type:luminance"><path fill="#fff" d="M232 0H0v132h232z"/></mask><g mask="url(#b)"><path fill="#f7f7f7" d="M0 0h232v132H0z"/><mask id="c" width="264" height="171" x="12" y="12" maskUnits="userSpaceOnUse" style="mask-type:luminance"><path fill="#fff" d="M268 12H20a8 8 0 0 0-8 8v155a8 8 0 0 0 8 8h248a8 8 0 0 0 8-8V20a8 8 0 0 0-8-8"/></mask><g mask="url(#c)"><path fill="#fff" d="M268 12H20a8 8 0 0 0-8 8v155a8 8 0 0 0 8 8h248a8 8 0 0 0 8-8V20a8 8 0 0 0-8-8"/><path fill="#f7f7f7" d="M87 14.25H20A5.75 5.75 0 0 0 14.25 20v23A5.75 5.75 0 0 0 20 48.75h67A5.75 5.75 0 0 0 92.75 43V20A5.75 5.75 0 0 0 87 14.25"/><path stroke="#e8e8e8" stroke-width=".5" d="M87 14.25H20A5.75 5.75 0 0 0 14.25 20v23A5.75 5.75 0 0 0 20 48.75h67A5.75 5.75 0 0 0 92.75 43V20A5.75 5.75 0 0 0 87 14.25Z"/><path fill="#fff" d="M29 42.25h-6A2.75 2.75 0 0 0 20.25 45v6A2.75 2.75 0 0 0 23 53.75h6A2.75 2.75 0 0 0 31.75 51v-6A2.75 2.75 0 0 0 29 42.25"/><path stroke="#e8e8e8" stroke-width=".5" d="M29 42.25h-6A2.75 2.75 0 0 0 20.25 45v6A2.75 2.75 0 0 0 23 53.75h6A2.75 2.75 0 0 0 31.75 51v-6A2.75 2.75 0 0 0 29 42.25Z"/><path fill="#212121" d="M28.454 44.845a4.004 4.004 0 0 1-4.908 0q-.195.15-.374.327a4 4 0 0 0-.327.374 4.004 4.004 0 0 1 0 4.908q.15.196.327.374c.119.12.245.226.374.327a4.004 4.004 0 0 1 4.908 0q.195-.15.374-.327c.12-.119.226-.245.327-.374a4.004 4.004 0 0 1 0-4.908q-.15-.195-.327-.374a4 4 0 0 0-.374-.327"/><path fill="#fff" d="M36 41.75a6.25 6.25 0 1 1 0 12.5 6.25 6.25 0 0 1 0-12.5"/><path stroke="#d3d3d3" stroke-width=".5" d="M36 41.75a6.25 6.25 0 1 1 0 12.5 6.25 6.25 0 0 1 0-12.5Z"/><path stroke="#212121" stroke-linecap="round" stroke-linejoin="round" d="M33.008 53a3.112 3.112 0 0 1 5.983 0m-2.992-4.197a1.556 1.556 0 1 0 0-3.112 1.556 1.556 0 0 0 0 3.111"/><path fill="#c9c9c9" d="M57.5 66h-36a1.5 1.5 0 0 0 0 3h36a1.5 1.5 0 0 0 0-3"/><path fill="#dedede" d="M33.5 75h-12a1.5 1.5 0 0 0 0 3h12a1.5 1.5 0 0 0 0-3M24 96h-3.5a.75.75 0 0 0 0 1.5H24a.75.75 0 0 0 0-1.5M34.417 96h-3.5a.75.75 0 0 0 0 1.5h3.5a.75.75 0 1 0 0-1.5M44.834 96h-3.5a.75.75 0 1 0 0 1.5h3.5a.75.75 0 0 0 0-1.5M55.25 96h-3.5a.75.75 0 0 0 0 1.5h3.5a.75.75 0 0 0 0-1.5M65.667 96h-3.5a.75.75 0 0 0 0 1.5h3.5a.75.75 0 0 0 0-1.5M76.084 96h-3.5a.75.75 0 1 0 0 1.5h3.5a.75.75 0 0 0 0-1.5M86.5 96H83a.75.75 0 0 0 0 1.5h3.5a.75.75 0 0 0 0-1.5"/><path fill="#d3d3d3" d="M53.75 108h-.5a.75.75 0 0 0 0 1.5h.5a.75.75 0 0 0 0-1.5M64.167 108h-.5a.75.75 0 0 0 0 1.5h.5a.75.75 0 0 0 0-1.5"/><path fill="#e8e8e8" d="M73.334 108.75a.75.75 0 0 1 .75-.75h.5a.75.75 0 0 1 0 1.5h-.5a.75.75 0 0 1-.75-.75M83.75 108.75a.75.75 0 0 1 .75-.75h.5a.75.75 0 0 1 0 1.5h-.5a.75.75 0 0 1-.75-.75"/><path fill="#d3d3d3" d="M22.5 119.5H22a.75.75 0 0 0 0 1.5h.5a.75.75 0 0 0 0-1.5"/><path fill="#f0f0f0" stroke="#e0e0e0" stroke-width=".5" d="M34.917 116h-4.5a2 2 0 0 0-2 2v4.5a2 2 0 0 0 2 2h4.5a2 2 0 0 0 2-2V118a2 2 0 0 0-2-2Z"/><path fill="#d3d3d3" d="M32.917 119.5h-.5a.75.75 0 0 0 0 1.5h.5a.75.75 0 0 0 0-1.5M43.334 119.5h-.5a.75.75 0 0 0 0 1.5h.5a.75.75 0 0 0 0-1.5M53.75 119.5h-.5a.75.75 0 0 0 0 1.5h.5a.75.75 0 0 0 0-1.5M64.167 119.5h-.5a.75.75 0 0 0 0 1.5h.5a.75.75 0 0 0 0-1.5"/><path fill="#e8e8e8" d="M74.584 119.5h-.5a.75.75 0 0 0 0 1.5h.5a.75.75 0 0 0 0-1.5M83.75 120.25a.75.75 0 0 1 .75-.75h.5a.75.75 0 0 1 0 1.5h-.5a.75.75 0 0 1-.75-.75"/><path fill="#d3d3d3" d="M22.5 131H22a.75.75 0 0 0 0 1.5h.5a.75.75 0 0 0 0-1.5"/><path fill="#e8e8e8" d="M31.667 131.75a.75.75 0 0 1 .75-.75h.5a.75.75 0 0 1 0 1.5h-.5a.75.75 0 0 1-.75-.75"/><path fill="#d3d3d3" d="M43.334 131h-.5a.75.75 0 0 0 0 1.5h.5a.75.75 0 0 0 0-1.5"/><path fill="#e8e8e8" d="M52.5 131.75a.75.75 0 0 1 .75-.75h.5a.75.75 0 0 1 0 1.5h-.5a.75.75 0 0 1-.75-.75"/><path fill="#d3d3d3" d="M64.167 131h-.5a.75.75 0 0 0 0 1.5h.5a.75.75 0 0 0 0-1.5"/><path fill="#e8e8e8" d="M74.584 131h-.5a.75.75 0 0 0 0 1.5h.5a.75.75 0 0 0 0-1.5M83.75 131.75a.75.75 0 0 1 .75-.75h.5a.75.75 0 0 1 0 1.5h-.5a.75.75 0 0 1-.75-.75"/><path fill="#fff" d="M96 12h180v163H96z"/><path stroke="#e0e0e0" d="M96 12v134"/><path fill="#dedede" d="M119.5 18h-7a1.5 1.5 0 0 0 0 3h7a1.5 1.5 0 0 0 0-3M147.5 18h-7a1.5 1.5 0 0 0 0 3h7a1.5 1.5 0 0 0 0-3M175.5 18h-7a1.5 1.5 0 0 0 0 3h7a1.5 1.5 0 0 0 0-3M203.5 18h-7a1.5 1.5 0 0 0 0 3h7a1.5 1.5 0 0 0 0-3M231.5 18h-7a1.5 1.5 0 0 0 0 3h7a1.5 1.5 0 0 0 0-3"/><mask id="d" width="168" height="113" x="102" y="27" maskUnits="userSpaceOnUse" style="mask-type:luminance"><path fill="#fff" d="M266 27H106a4 4 0 0 0-4 4v105a4 4 0 0 0 4 4h160a4 4 0 0 0 4-4V31a4 4 0 0 0-4-4"/></mask><g mask="url(#d)"><path fill="#fff" d="M130.333 27.5H102.5v16h27.833z"/><path stroke="#ebebeb" d="M130.333 27.5H102.5v16h27.833z"/><path fill="#fff" d="M158.166 27.5h-27.833v16h27.833z"/><path stroke="#ebebeb" d="M158.166 27.5h-27.833v16h27.833z"/><path fill="#fff" d="M186 27.5h-27.833v16H186z"/><path stroke="#ebebeb" d="M186 27.5h-27.833v16H186z"/><path fill="#fff" d="M213.833 27.5H186v16h27.833z"/><path stroke="#ebebeb" d="M213.833 27.5H186v16h27.833z"/><path fill="#fff" d="M241.666 27.5h-27.833v16h27.833z"/><path stroke="#ebebeb" d="M241.666 27.5h-27.833v16h27.833z"/><path fill="#f0f0f0" stroke="#e0e0e0" stroke-width=".5" d="M130.333 43.5H102.5v16h27.833z"/><path stroke="#ebebeb" d="M130.333 43.5H102.5v16h27.833z"/><path fill="#fff" d="M158.166 43.5h-27.833v16h27.833z"/><path stroke="#ebebeb" d="M158.166 43.5h-27.833v16h27.833z"/><path fill="#fff" d="M186 43.5h-27.833v16H186z"/><path stroke="#ebebeb" d="M186 43.5h-27.833v16H186z"/><path fill="#f0f0f0" stroke="#e0e0e0" stroke-width=".5" d="M213.833 43.5v16H186v-16z"/><path stroke="#ebebeb" d="M213.833 43.5v16H186v-16z"/><path fill="#fff" d="M241.666 43.5h-27.833v16h27.833z"/><path stroke="#ebebeb" d="M241.666 43.5h-27.833v16h27.833z"/><path fill="#fff" d="M130.333 59.5H102.5v16h27.833z"/><path stroke="#ebebeb" d="M130.333 59.5H102.5v16h27.833z"/><path fill="#fff" d="M158.166 59.5h-27.833v16h27.833z"/><path stroke="#ebebeb" d="M158.166 59.5h-27.833v16h27.833z"/><path fill="#fff" d="M186 59.5h-27.833v16H186z"/><path stroke="#ebebeb" d="M186 59.5h-27.833v16H186z"/><path fill="#fff" d="M213.833 59.5H186v16h27.833z"/><path stroke="#ebebeb" d="M213.833 59.5H186v16h27.833z"/><path fill="#fff" d="M241.666 59.5h-27.833v16h27.833z"/><path stroke="#ebebeb" d="M241.666 59.5h-27.833v16h27.833z"/><path fill="#fff" d="M130.333 75.5H102.5v16h27.833z"/><path stroke="#ebebeb" d="M130.333 75.5H102.5v16h27.833z"/><path fill="#fff" d="M158.166 75.5h-27.833v16h27.833z"/><path stroke="#ebebeb" d="M158.166 75.5h-27.833v16h27.833z"/><path fill="#f0f0f0" stroke="#e0e0e0" stroke-width=".5" d="M186 75.5h-27.833v16H186z"/><path stroke="#ebebeb" d="M186 75.5h-27.833v16H186z"/><path fill="#fff" d="M213.833 75.5H186v16h27.833z"/><path stroke="#ebebeb" d="M213.833 75.5H186v16h27.833z"/><path fill="#fff" d="M241.666 75.5h-27.833v16h27.833z"/><path stroke="#ebebeb" d="M241.666 75.5h-27.833v16h27.833z"/><path fill="#fff" d="M130.333 91.5H102.5v16h27.833z"/><path stroke="#ebebeb" d="M130.333 91.5H102.5v16h27.833z"/><path fill="#fff" d="M158.166 91.5h-27.833v16h27.833z"/><path stroke="#ebebeb" d="M158.166 91.5h-27.833v16h27.833z"/><path fill="#fff" d="M186 91.5h-27.833v16H186z"/><path stroke="#ebebeb" d="M186 91.5h-27.833v16H186z"/><path fill="#fff" d="M213.833 91.5H186v16h27.833z"/><path stroke="#ebebeb" d="M213.833 91.5H186v16h27.833z"/><path fill="#fff" d="M241.666 91.5h-27.833v16h27.833z"/><path stroke="#ebebeb" d="M241.666 91.5h-27.833v16h27.833z"/><path fill="#fff" d="M130.333 107.5H102.5v16h27.833z"/><path stroke="#ebebeb" d="M130.333 107.5H102.5v16h27.833z"/><path fill="#f0f0f0" stroke="#e0e0e0" stroke-width=".5" d="M158.166 107.5h-27.833v16h27.833z"/><path stroke="#ebebeb" d="M158.166 107.5h-27.833v16h27.833z"/><path fill="#fff" d="M186 107.5h-27.833v16H186z"/><path stroke="#ebebeb" d="M186 107.5h-27.833v16H186z"/><path fill="#fff" d="M213.833 107.5H186v16h27.833z"/><path stroke="#ebebeb" d="M213.833 107.5H186v16h27.833z"/><path fill="#fff" d="M241.666 107.5h-27.833v16h27.833z"/><path stroke="#ebebeb" d="M241.666 107.5h-27.833v16h27.833z"/><path fill="#fff" d="M130.333 123.5H102.5v16h27.833z"/><path stroke="#ebebeb" d="M130.333 123.5H102.5v16h27.833z"/><path fill="#fff" d="M158.166 123.5h-27.833v16h27.833z"/><path stroke="#ebebeb" d="M158.166 123.5h-27.833v16h27.833z"/><path fill="#fff" d="M186 123.5h-27.833v16H186z"/><path stroke="#ebebeb" d="M186 123.5h-27.833v16H186z"/><path fill="#fff" d="M213.833 123.5H186v16h27.833z"/><path stroke="#ebebeb" d="M213.833 123.5H186v16h27.833z"/><path fill="#f0f0f0" stroke="#e0e0e0" stroke-width=".5" d="M241.666 123.5v16h-27.833v-16z"/><path stroke="#ebebeb" d="M241.666 123.5v16h-27.833v-16z"/></g><path stroke="#ebebeb" d="M266 27.5H106a3.5 3.5 0 0 0-3.5 3.5v105a3.5 3.5 0 0 0 3.5 3.5h160a3.5 3.5 0 0 0 3.5-3.5V31a3.5 3.5 0 0 0-3.5-3.5Z"/></g><path stroke="#e0e0e0" d="M268 11.5H20a8.5 8.5 0 0 0-8.5 8.5v155a8.5 8.5 0 0 0 8.5 8.5h248a8.5 8.5 0 0 0 8.5-8.5V20a8.5 8.5 0 0 0-8.5-8.5Z"/></g></g><defs><clipPath id="a"><path fill="#fff" d="M0 0h232v132H0z"/></clipPath></defs></svg>