<svg xmlns="http://www.w3.org/2000/svg" width="232" height="132" fill="none"><mask id="a" width="232" height="132" x="0" y="0" maskUnits="userSpaceOnUse" style="mask-type:luminance"><path fill="#fff" d="M232 0H0v132h232z"/></mask><g mask="url(#a)"><path fill="#f7f7f7" d="M0 0h232v132H0z"/><mask id="b" width="264" height="171" x="12" y="12" maskUnits="userSpaceOnUse" style="mask-type:luminance"><path fill="#fff" d="M268 12H20a8 8 0 0 0-8 8v155a8 8 0 0 0 8 8h248a8 8 0 0 0 8-8V20a8 8 0 0 0-8-8"/></mask><g mask="url(#b)"><path fill="#fff" d="M268 12H20a8 8 0 0 0-8 8v155a8 8 0 0 0 8 8h248a8 8 0 0 0 8-8V20a8 8 0 0 0-8-8"/><path fill="#f7f7f7" d="M87 14.25H20A5.75 5.75 0 0 0 14.25 20v23A5.75 5.75 0 0 0 20 48.75h67A5.75 5.75 0 0 0 92.75 43V20A5.75 5.75 0 0 0 87 14.25"/><path stroke="#e8e8e8" stroke-width=".5" d="M87 14.25H20A5.75 5.75 0 0 0 14.25 20v23A5.75 5.75 0 0 0 20 48.75h67A5.75 5.75 0 0 0 92.75 43V20A5.75 5.75 0 0 0 87 14.25Z"/><path fill="#fff" d="M29 42.25h-6A2.75 2.75 0 0 0 20.25 45v6A2.75 2.75 0 0 0 23 53.75h6A2.75 2.75 0 0 0 31.75 51v-6A2.75 2.75 0 0 0 29 42.25"/><path stroke="#e8e8e8" stroke-width=".5" d="M29 42.25h-6A2.75 2.75 0 0 0 20.25 45v6A2.75 2.75 0 0 0 23 53.75h6A2.75 2.75 0 0 0 31.75 51v-6A2.75 2.75 0 0 0 29 42.25Z"/><path fill="#212121" d="M28.454 44.845a4.004 4.004 0 0 1-4.908 0q-.195.15-.374.327a4 4 0 0 0-.327.374 4.004 4.004 0 0 1 0 4.908q.15.196.327.374c.119.12.245.226.374.327a4.004 4.004 0 0 1 4.908 0q.195-.15.374-.327c.12-.119.226-.245.327-.374a4.004 4.004 0 0 1 0-4.908q-.15-.195-.327-.374a4 4 0 0 0-.374-.327"/><path fill="#fff" d="M36 41.75a6.25 6.25 0 1 1 0 12.5 6.25 6.25 0 0 1 0-12.5"/><path stroke="#d3d3d3" stroke-width=".5" d="M36 41.75a6.25 6.25 0 1 1 0 12.5 6.25 6.25 0 0 1 0-12.5Z"/><path stroke="#212121" stroke-linecap="round" stroke-linejoin="round" d="M33.008 53a3.112 3.112 0 0 1 5.983 0m-2.992-4.197a1.556 1.556 0 1 0 0-3.112 1.556 1.556 0 0 0 0 3.111"/><path fill="#c9c9c9" d="M57.5 66h-36a1.5 1.5 0 0 0 0 3h36a1.5 1.5 0 0 0 0-3"/><path fill="#dedede" d="M33.5 75h-12a1.5 1.5 0 0 0 0 3h12a1.5 1.5 0 0 0 0-3M24 96h-3.5a.75.75 0 0 0 0 1.5H24a.75.75 0 0 0 0-1.5M34.417 96h-3.5a.75.75 0 0 0 0 1.5h3.5a.75.75 0 1 0 0-1.5M44.834 96h-3.5a.75.75 0 1 0 0 1.5h3.5a.75.75 0 0 0 0-1.5M55.25 96h-3.5a.75.75 0 0 0 0 1.5h3.5a.75.75 0 0 0 0-1.5M65.667 96h-3.5a.75.75 0 0 0 0 1.5h3.5a.75.75 0 0 0 0-1.5M76.084 96h-3.5a.75.75 0 1 0 0 1.5h3.5a.75.75 0 0 0 0-1.5M86.5 96H83a.75.75 0 0 0 0 1.5h3.5a.75.75 0 0 0 0-1.5"/><path fill="#d3d3d3" d="M53.75 108h-.5a.75.75 0 0 0 0 1.5h.5a.75.75 0 0 0 0-1.5M64.167 108h-.5a.75.75 0 0 0 0 1.5h.5a.75.75 0 0 0 0-1.5"/><path fill="#e8e8e8" d="M73.334 108.75a.75.75 0 0 1 .75-.75h.5a.75.75 0 0 1 0 1.5h-.5a.75.75 0 0 1-.75-.75M83.75 108.75a.75.75 0 0 1 .75-.75h.5a.75.75 0 0 1 0 1.5h-.5a.75.75 0 0 1-.75-.75"/><path fill="#d3d3d3" d="M22.5 119.5H22a.75.75 0 0 0 0 1.5h.5a.75.75 0 0 0 0-1.5"/><path fill="#f0f0f0" stroke="#e0e0e0" stroke-width=".5" d="M34.917 116h-4.5a2 2 0 0 0-2 2v4.5a2 2 0 0 0 2 2h4.5a2 2 0 0 0 2-2V118a2 2 0 0 0-2-2Z"/><path fill="#d3d3d3" d="M32.917 119.5h-.5a.75.75 0 0 0 0 1.5h.5a.75.75 0 0 0 0-1.5M43.334 119.5h-.5a.75.75 0 0 0 0 1.5h.5a.75.75 0 0 0 0-1.5M53.75 119.5h-.5a.75.75 0 0 0 0 1.5h.5a.75.75 0 0 0 0-1.5M64.167 119.5h-.5a.75.75 0 0 0 0 1.5h.5a.75.75 0 0 0 0-1.5"/><path fill="#e8e8e8" d="M74.584 119.5h-.5a.75.75 0 0 0 0 1.5h.5a.75.75 0 0 0 0-1.5M83.75 120.25a.75.75 0 0 1 .75-.75h.5a.75.75 0 0 1 0 1.5h-.5a.75.75 0 0 1-.75-.75"/><path fill="#d3d3d3" d="M22.5 131H22a.75.75 0 0 0 0 1.5h.5a.75.75 0 0 0 0-1.5"/><path fill="#e8e8e8" d="M31.667 131.75a.75.75 0 0 1 .75-.75h.5a.75.75 0 0 1 0 1.5h-.5a.75.75 0 0 1-.75-.75"/><path fill="#d3d3d3" d="M43.334 131h-.5a.75.75 0 0 0 0 1.5h.5a.75.75 0 0 0 0-1.5"/><path fill="#e8e8e8" d="M52.5 131.75a.75.75 0 0 1 .75-.75h.5a.75.75 0 0 1 0 1.5h-.5a.75.75 0 0 1-.75-.75"/><path fill="#d3d3d3" d="M64.167 131h-.5a.75.75 0 0 0 0 1.5h.5a.75.75 0 0 0 0-1.5"/><path fill="#e8e8e8" d="M74.584 131h-.5a.75.75 0 0 0 0 1.5h.5a.75.75 0 0 0 0-1.5M83.75 131.75a.75.75 0 0 1 .75-.75h.5a.75.75 0 0 1 0 1.5h-.5a.75.75 0 0 1-.75-.75"/><path fill="#000" d="M96 12h180v163H96z"/><path fill="#fff" d="M96 12h180v163H96z"/><path fill="#dedede" d="M123.5 24h-7a1.5 1.5 0 0 0 0 3h7a1.5 1.5 0 0 0 0-3M161.5 24h-7a1.5 1.5 0 0 0 0 3h7a1.5 1.5 0 0 0 0-3M199.5 24h-7a1.5 1.5 0 0 0 0 3h7a1.5 1.5 0 0 0 0-3M237.5 24h-7a1.5 1.5 0 0 0 0 3h7a1.5 1.5 0 0 0 0-3"/><path fill="#f0f0f0" stroke="#e0e0e0" stroke-width=".5" d="M104 43a4 4 0 0 1 4-4h24a4 4 0 0 1 4 4v3a4 4 0 0 1-4 4h-24a4 4 0 0 1-4-4z"/><path fill="#d3d3d3" d="M120.5 43h-1a1.5 1.5 0 0 0 0 3h1a1.5 1.5 0 0 0 0-3"/><path fill="#f0f0f0" stroke="#e0e0e0" stroke-width=".5" d="M142 43a4 4 0 0 1 4-4h24a4 4 0 0 1 4 4v3a4 4 0 0 1-4 4h-24a4 4 0 0 1-4-4z"/><path fill="#d3d3d3" d="M156 44.5a1.5 1.5 0 0 1 1.5-1.5h1a1.5 1.5 0 0 1 0 3h-1a1.5 1.5 0 0 1-1.5-1.5"/><path fill="#f0f0f0" stroke="#e0e0e0" stroke-width=".5" d="M180 43a4 4 0 0 1 4-4h24a4 4 0 0 1 4 4v3a4 4 0 0 1-4 4h-24a4 4 0 0 1-4-4z"/><path fill="#d3d3d3" d="M196.5 43h-1a1.5 1.5 0 0 0 0 3h1a1.5 1.5 0 0 0 0-3"/><path fill="#f0f0f0" stroke="#e0e0e0" stroke-width=".5" d="M218 43a4 4 0 0 1 4-4h24a4 4 0 0 1 4 4v3a4 4 0 0 1-4 4h-24a4 4 0 0 1-4-4zM104 61a4 4 0 0 1 4-4h24a4 4 0 0 1 4 4v3a4 4 0 0 1-4 4h-24a4 4 0 0 1-4-4z"/><path fill="#d3d3d3" d="M120.5 61h-1a1.5 1.5 0 0 0 0 3h1a1.5 1.5 0 0 0 0-3"/><path fill="#f0f0f0" stroke="#e0e0e0" stroke-width=".5" d="M142 61a4 4 0 0 1 4-4h24a4 4 0 0 1 4 4v3a4 4 0 0 1-4 4h-24a4 4 0 0 1-4-4z"/><path fill="#d3d3d3" d="M156 62.5a1.5 1.5 0 0 1 1.5-1.5h1a1.5 1.5 0 0 1 0 3h-1a1.5 1.5 0 0 1-1.5-1.5"/><path fill="#f0f0f0" stroke="#e0e0e0" stroke-width=".5" d="M180 61a4 4 0 0 1 4-4h24a4 4 0 0 1 4 4v3a4 4 0 0 1-4 4h-24a4 4 0 0 1-4-4z"/><path fill="#d3d3d3" d="M196.5 61h-1a1.5 1.5 0 0 0 0 3h1a1.5 1.5 0 0 0 0-3"/><path fill="#f0f0f0" stroke="#e0e0e0" stroke-width=".5" d="M218 61a4 4 0 0 1 4-4h24a4 4 0 0 1 4 4v3a4 4 0 0 1-4 4h-24a4 4 0 0 1-4-4zM104 79a4 4 0 0 1 4-4h24a4 4 0 0 1 4 4v3a4 4 0 0 1-4 4h-24a4 4 0 0 1-4-4z"/><path fill="#d3d3d3" d="M120.5 79h-1a1.5 1.5 0 0 0 0 3h1a1.5 1.5 0 0 0 0-3"/><path fill="#f0f0f0" stroke="#e0e0e0" stroke-width=".5" d="M142 79a4 4 0 0 1 4-4h24a4 4 0 0 1 4 4v3a4 4 0 0 1-4 4h-24a4 4 0 0 1-4-4z"/><path fill="#d3d3d3" d="M156 80.5a1.5 1.5 0 0 1 1.5-1.5h1a1.5 1.5 0 0 1 0 3h-1a1.5 1.5 0 0 1-1.5-1.5"/><path fill="#f0f0f0" stroke="#e0e0e0" stroke-width=".5" d="M180 79a4 4 0 0 1 4-4h24a4 4 0 0 1 4 4v3a4 4 0 0 1-4 4h-24a4 4 0 0 1-4-4z"/><path fill="#d3d3d3" d="M196.5 79h-1a1.5 1.5 0 0 0 0 3h1a1.5 1.5 0 0 0 0-3"/><path fill="#f0f0f0" stroke="#e0e0e0" stroke-width=".5" d="M218 79a4 4 0 0 1 4-4h24a4 4 0 0 1 4 4v3a4 4 0 0 1-4 4h-24a4 4 0 0 1-4-4zM104 97a4 4 0 0 1 4-4h24a4 4 0 0 1 4 4v3a4 4 0 0 1-4 4h-24a4 4 0 0 1-4-4z"/><path fill="#d3d3d3" d="M120.5 97h-1a1.5 1.5 0 0 0 0 3h1a1.5 1.5 0 0 0 0-3"/><path fill="#f0f0f0" stroke="#e0e0e0" stroke-width=".5" d="M142 97a4 4 0 0 1 4-4h24a4 4 0 0 1 4 4v3a4 4 0 0 1-4 4h-24a4 4 0 0 1-4-4z"/><path fill="#d3d3d3" d="M156 98.5a1.5 1.5 0 0 1 1.5-1.5h1a1.5 1.5 0 0 1 0 3h-1a1.5 1.5 0 0 1-1.5-1.5"/><path fill="#f0f0f0" stroke="#e0e0e0" stroke-width=".5" d="M180 97a4 4 0 0 1 4-4h24a4 4 0 0 1 4 4v3a4 4 0 0 1-4 4h-24a4 4 0 0 1-4-4z"/><path fill="#d3d3d3" d="M196.5 97h-1a1.5 1.5 0 0 0 0 3h1a1.5 1.5 0 0 0 0-3"/><path fill="#f0f0f0" stroke="#e0e0e0" stroke-width=".5" d="M218 97a4 4 0 0 1 4-4h24a4 4 0 0 1 4 4v3a4 4 0 0 1-4 4h-24a4 4 0 0 1-4-4zM104 115a4 4 0 0 1 4-4h24a4 4 0 0 1 4 4v3a4 4 0 0 1-4 4h-24a4 4 0 0 1-4-4z"/><path fill="#d3d3d3" d="M120.5 115h-1a1.5 1.5 0 0 0 0 3h1a1.5 1.5 0 0 0 0-3"/><path fill="#f0f0f0" stroke="#e0e0e0" stroke-width=".5" d="M142 115a4 4 0 0 1 4-4h24a4 4 0 0 1 4 4v3a4 4 0 0 1-4 4h-24a4 4 0 0 1-4-4z"/><path fill="#d3d3d3" d="M156 116.5a1.5 1.5 0 0 1 1.5-1.5h1a1.5 1.5 0 0 1 0 3h-1a1.5 1.5 0 0 1-1.5-1.5"/><path fill="#f0f0f0" stroke="#e0e0e0" stroke-width=".5" d="M180 115a4 4 0 0 1 4-4h24a4 4 0 0 1 4 4v3a4 4 0 0 1-4 4h-24a4 4 0 0 1-4-4z"/><path fill="#d3d3d3" d="M196.5 115h-1a1.5 1.5 0 0 0 0 3h1a1.5 1.5 0 0 0 0-3"/><path fill="#f0f0f0" stroke="#e0e0e0" stroke-width=".5" d="M218 115a4 4 0 0 1 4-4h24a4 4 0 0 1 4 4v3a4 4 0 0 1-4 4h-24a4 4 0 0 1-4-4zM104 133a4 4 0 0 1 4-4h24a4 4 0 0 1 4 4v3a4 4 0 0 1-4 4h-24a4 4 0 0 1-4-4zM142 133a4 4 0 0 1 4-4h24a4 4 0 0 1 4 4v3a4 4 0 0 1-4 4h-24a4 4 0 0 1-4-4zM180 133a4 4 0 0 1 4-4h24a4 4 0 0 1 4 4v3a4 4 0 0 1-4 4h-24a4 4 0 0 1-4-4zM218 133a4 4 0 0 1 4-4h24a4 4 0 0 1 4 4v3a4 4 0 0 1-4 4h-24a4 4 0 0 1-4-4z"/><path stroke="#e0e0e0" d="M96 12v163"/></g><path stroke="#e0e0e0" d="M268 11.5H20a8.5 8.5 0 0 0-8.5 8.5v155a8.5 8.5 0 0 0 8.5 8.5h248a8.5 8.5 0 0 0 8.5-8.5V20a8.5 8.5 0 0 0-8.5-8.5Z"/></g></svg>