<svg xmlns="http://www.w3.org/2000/svg" width="232" height="132" fill="none"><g clip-path="url(#a)"><path fill="#222225" d="M0 0h232v132H0z"/><mask id="b" width="232" height="132" x="0" y="0" maskUnits="userSpaceOnUse" style="mask-type:luminance"><path fill="#fff" d="M232 0H0v132h232z"/></mask><g mask="url(#b)"><path fill="#222225" d="M0 0h232v132H0z"/><mask id="c" width="264" height="171" x="12" y="12" maskUnits="userSpaceOnUse" style="mask-type:luminance"><path fill="#fff" d="M268 12H20a8 8 0 0 0-8 8v155a8 8 0 0 0 8 8h248a8 8 0 0 0 8-8V20a8 8 0 0 0-8-8"/></mask><g mask="url(#c)"><path fill="#2a2a2d" d="M268 12H20a8 8 0 0 0-8 8v155a8 8 0 0 0 8 8h248a8 8 0 0 0 8-8V20a8 8 0 0 0-8-8"/><path fill="#404045" d="M95 14.25H20A5.75 5.75 0 0 0 14.25 20v23A5.75 5.75 0 0 0 20 48.75h75a5.75 5.75 0 0 0 5.75-5.75V20A5.75 5.75 0 0 0 95 14.25"/><path stroke="#fff" stroke-opacity=".15" stroke-width=".5" d="M95 14.25H20A5.75 5.75 0 0 0 14.25 20v23A5.75 5.75 0 0 0 20 48.75h75a5.75 5.75 0 0 0 5.75-5.75V20A5.75 5.75 0 0 0 95 14.25Z"/><path fill="#fff" d="M29 42.25h-6A2.75 2.75 0 0 0 20.25 45v6A2.75 2.75 0 0 0 23 53.75h6A2.75 2.75 0 0 0 31.75 51v-6A2.75 2.75 0 0 0 29 42.25"/><path stroke="#e8e8e8" stroke-width=".5" d="M29 42.25h-6A2.75 2.75 0 0 0 20.25 45v6A2.75 2.75 0 0 0 23 53.75h6A2.75 2.75 0 0 0 31.75 51v-6A2.75 2.75 0 0 0 29 42.25Z"/><path fill="#212121" d="M28.454 44.845a4.004 4.004 0 0 1-4.908 0q-.195.15-.374.327a4 4 0 0 0-.327.374 4.004 4.004 0 0 1 0 4.908q.15.196.327.374c.119.12.245.226.374.327a4.004 4.004 0 0 1 4.908 0q.195-.15.374-.327c.12-.119.226-.245.327-.374a4.004 4.004 0 0 1 0-4.908q-.15-.195-.327-.374a4 4 0 0 0-.374-.327"/><path fill="#222225" d="M36 41.75a6.25 6.25 0 1 1 0 12.5 6.25 6.25 0 0 1 0-12.5"/><path stroke="#fff" stroke-width=".5" d="M36 41.75a6.25 6.25 0 1 1 0 12.5 6.25 6.25 0 0 1 0-12.5Z"/><path stroke="#fff" stroke-linecap="round" stroke-linejoin="round" d="M33.008 53a3.112 3.112 0 0 1 5.983 0m-2.992-4.197a1.556 1.556 0 1 0 0-3.112 1.556 1.556 0 0 0 0 3.111"/><path fill="#7e7e7e" d="M57.5 66h-36a1.5 1.5 0 0 0 0 3h36a1.5 1.5 0 0 0 0-3"/><path fill="#b2b2b2" d="M33.5 75h-12a1.5 1.5 0 0 0 0 3h12a1.5 1.5 0 0 0 0-3"/><path fill="#2a2a2d" d="M104 12h172v163H104z"/><path fill="#b2b2b2" d="M124.5 26h-7a1.5 1.5 0 0 0 0 3h7a1.5 1.5 0 0 0 0-3M147.5 26h-7a1.5 1.5 0 0 0 0 3h7a1.5 1.5 0 0 0 0-3M170.5 26h-7a1.5 1.5 0 0 0 0 3h7a1.5 1.5 0 0 0 0-3M193.5 26h-7a1.5 1.5 0 0 0 0 3h7a1.5 1.5 0 0 0 0-3M216.5 26h-7a1.5 1.5 0 0 0 0 3h7a1.5 1.5 0 0 0 0-3M239.5 26h-7a1.5 1.5 0 0 0 0 3h7a1.5 1.5 0 0 0 0-3"/><path fill="#404045" stroke="#4f4f55" stroke-width=".5" d="M183 47a4 4 0 0 1 4-4h9a4 4 0 0 1 4 4v9a4 4 0 0 1-4 4h-9a4 4 0 0 1-4-4z"/><path fill="#9c9c9e" d="M192 50h-1a1.5 1.5 0 0 0 0 3h1a1.5 1.5 0 0 0 0-3"/><path fill="#404045" stroke="#4f4f55" stroke-width=".5" d="M206 47a4 4 0 0 1 4-4h9a4 4 0 0 1 4 4v9a4 4 0 0 1-4 4h-9a4 4 0 0 1-4-4z"/><path fill="#9c9c9e" d="M215 50h-1a1.5 1.5 0 0 0 0 3h1a1.5 1.5 0 0 0 0-3"/><path fill="#404045" stroke="#4f4f55" stroke-width=".5" d="M114 70a4 4 0 0 1 4-4h9a4 4 0 0 1 4 4v9a4 4 0 0 1-4 4h-9a4 4 0 0 1-4-4z"/><path fill="#9c9c9e" d="M123 73h-1a1.5 1.5 0 0 0 0 3h1a1.5 1.5 0 0 0 0-3M143.5 74.5A1.5 1.5 0 0 1 145 73h1a1.5 1.5 0 0 1 0 3h-1a1.5 1.5 0 0 1-1.5-1.5"/><path fill="#404045" stroke="#4f4f55" stroke-width=".5" d="M160 70a4 4 0 0 1 4-4h9a4 4 0 0 1 4 4v9a4 4 0 0 1-4 4h-9a4 4 0 0 1-4-4z"/><path fill="#9c9c9e" d="M169 73h-1a1.5 1.5 0 0 0 0 3h1a1.5 1.5 0 0 0 0-3M189.5 74.5A1.5 1.5 0 0 1 191 73h1a1.5 1.5 0 0 1 0 3h-1a1.5 1.5 0 0 1-1.5-1.5"/><path fill="#404045" stroke="#4f4f55" stroke-width=".5" d="M206 70a4 4 0 0 1 4-4h9a4 4 0 0 1 4 4v9a4 4 0 0 1-4 4h-9a4 4 0 0 1-4-4z"/><path fill="#9c9c9e" d="M215 73h-1a1.5 1.5 0 0 0 0 3h1a1.5 1.5 0 0 0 0-3"/><path fill="#404045" stroke="#4f4f55" stroke-width=".5" d="M114 93a4 4 0 0 1 4-4h9a4 4 0 0 1 4 4v9a4 4 0 0 1-4 4h-9a4 4 0 0 1-4-4z"/><path fill="#9c9c9e" d="M123 96h-1a1.5 1.5 0 0 0 0 3h1a1.5 1.5 0 0 0 0-3"/><path fill="#404045" stroke="#4f4f55" stroke-width=".5" d="M137 93a4 4 0 0 1 4-4h9a4 4 0 0 1 4 4v9a4 4 0 0 1-4 4h-9a4 4 0 0 1-4-4z"/><path fill="#9c9c9e" d="M146 96h-1a1.5 1.5 0 0 0 0 3h1a1.5 1.5 0 0 0 0-3M169 96h-1a1.5 1.5 0 0 0 0 3h1a1.5 1.5 0 0 0 0-3"/><path fill="#fff" d="M196 89h-9a4 4 0 0 0-4 4v9a4 4 0 0 0 4 4h9a4 4 0 0 0 4-4v-9a4 4 0 0 0-4-4"/><path fill="#27272a" d="M192 96h-1a1.5 1.5 0 0 0 0 3h1a1.5 1.5 0 0 0 0-3"/><path fill="#404045" stroke="#4f4f55" stroke-width=".5" d="M206 93a4 4 0 0 1 4-4h9a4 4 0 0 1 4 4v9a4 4 0 0 1-4 4h-9a4 4 0 0 1-4-4z"/><path fill="#9c9c9e" d="M215 96h-1a1.5 1.5 0 0 0 0 3h1a1.5 1.5 0 0 0 0-3M123 119h-1a1.5 1.5 0 0 0 0 3h1a1.5 1.5 0 0 0 0-3"/><path fill="#404045" stroke="#4f4f55" stroke-width=".5" d="M137 116a4 4 0 0 1 4-4h9a4 4 0 0 1 4 4v9a4 4 0 0 1-4 4h-9a4 4 0 0 1-4-4z"/><path fill="#9c9c9e" d="M146 119h-1a1.5 1.5 0 0 0 0 3h1a1.5 1.5 0 0 0 0-3"/><path fill="#404045" stroke="#4f4f55" stroke-width=".5" d="M160 116a4 4 0 0 1 4-4h9a4 4 0 0 1 4 4v9a4 4 0 0 1-4 4h-9a4 4 0 0 1-4-4z"/><path fill="#9c9c9e" d="M169 119h-1a1.5 1.5 0 0 0 0 3h1a1.5 1.5 0 0 0 0-3"/><path fill="#404045" stroke="#4f4f55" stroke-width=".5" d="M183 116a4 4 0 0 1 4-4h9a4 4 0 0 1 4 4v9a4 4 0 0 1-4 4h-9a4 4 0 0 1-4-4z"/><path fill="#9c9c9e" d="M192 119h-1a1.5 1.5 0 0 0 0 3h1a1.5 1.5 0 0 0 0-3"/><path fill="#404045" stroke="#4f4f55" stroke-width=".5" d="M206 116a4 4 0 0 1 4-4h9a4 4 0 0 1 4 4v9a4 4 0 0 1-4 4h-9a4 4 0 0 1-4-4z"/><path fill="#9c9c9e" d="M215 119h-1a1.5 1.5 0 0 0 0 3h1a1.5 1.5 0 0 0 0-3"/></g><path stroke="#fff" stroke-opacity=".14" d="M268 11.5H20a8.5 8.5 0 0 0-8.5 8.5v155a8.5 8.5 0 0 0 8.5 8.5h248a8.5 8.5 0 0 0 8.5-8.5V20a8.5 8.5 0 0 0-8.5-8.5ZM103.5 12v134"/></g></g><defs><clipPath id="a"><path fill="#fff" d="M0 0h232v132H0z"/></clipPath></defs></svg>