<svg id="Camada_1" data-name="Camada 1" xmlns="http://www.w3.org/2000/svg" viewBox="0 0 1099.99 444.5">
  <defs>
    <style>
      .cls-1 {
        fill: #000;
        stroke-width: 0px;
      }
    </style>
  </defs>
  <g>
    <g>
      <polygon class="cls-1" points="904.28 371.88 895.06 371.88 914.09 421.61 914.43 421.61 928.84 384.05 943.28 421.62 943.76 421.62 962.79 371.88 959.35 371.88 945.62 407.74 931.29 370.89 931 370.89 917.38 406 904.28 371.88"/>
      <path class="cls-1" d="M839.07,349.46v70.71h-8.95v-70.71h8.95Z"/>
      <path class="cls-1" d="M846.62,397.01c0-14.95,9.97-25.2,25.11-25.2,14.12,0,23.82,9.23,23.82,24.09s-9.97,25.57-24.92,25.57-24-9.32-24-24.46ZM872.75,420.18c7.94,0,13.11-6.46,13.11-21.32,0-15.97-6.37-25.75-15.97-25.75-7.94,0-13.57,6.18-13.57,21.14,0,15.97,6.65,25.94,16.43,25.94Z"/>
      <path class="cls-1" d="M739.61,419.89h-8.91v-2.3s0-39.21,0-39.21v-1.01s-.01-.49-.01-.49l8.85-5.15h.09v45.87l-.02,2.3ZM735.12,356.41c3.31,0,5.71,2.3,5.71,5.43s-2.39,5.52-5.71,5.52-5.71-2.39-5.71-5.52,2.3-5.43,5.71-5.43Z"/>
      <path class="cls-1" d="M749.11,376.95l8.86-5.06h.09v8.91c7.36-5.43,13.35-8.87,18.23-8.87,7.36,0,12.06,4.97,12.06,13.16v34.52s0,.46,0,.46h-9.04v-2.3s0-31.2,0-31.2c0-6.44-3.5-9.48-8.65-9.48-4.33,0-7.82,1.6-12.61,4.92v37.61s0,.46,0,.46h-8.93v-2.3s0-39.21,0-39.21l-.02-1.6Z"/>
      <polygon class="cls-1" points="728.57 354.51 721.32 354.51 702.53 382.31 685.21 356.77 683.75 354.51 672.29 354.51 673.79 356.77 695.79 388.62 695.79 417.71 695.8 419.55 695.8 420.04 705.46 420.04 705.46 419.52 705.46 417.71 705.46 388.61 728.57 354.51"/>
      <path class="cls-1" d="M810,419.89h-9.05v-2.31s0-40.99,0-40.99h-7.29v-3.6h7.31c.4-16.54,9.08-24.55,17.06-24.55,3.69,0,5.72,1.85,5.72,4.62,0,1.85-1.02,3.14-1.48,3.78-2.4-1.2-4.76-2.21-8.73-2.21-4.48,0-6.75,4.21-7.01,7.85-.28,3.92.5,7.38,1.98,10.51h13.48v3.6h-12v43.29Z"/>
    </g>
    <path class="cls-1" d="M962.06,421.62c1.71,0,3.19-.71,4.14-1.87.81-.84,1.29-1.98,1.29-3.27s-.44-2.3-1.18-3.11c-.94-1.2-2.45-1.94-4.25-1.94-3.07,0-5.29,2.13-5.29,5.05s2.23,5.13,5.29,5.13Z"/>
    <g>
      <path class="cls-1" d="M1013.59,420.04h-36.89l9.2-65.7h7.68l-8.15,59.87h29.31l-1.15,5.83Z"/>
      <path class="cls-1" d="M1070.05,351.92c-.19-.13-.65-.4-1.41-.85-.76-.44-1.78-.87-3.03-1.28-1.26-.41-2.67-.62-4.18-.62-4.47,0-7.91,1.46-10.21,4.34-2.28,2.85-3.88,7.35-4.75,13.39l-.9,6.45-4.85.02-.72,5.01h4.84l-6.37,45.43c-.8,5.64-1.97,9.73-3.49,12.16-1.49,2.38-3.41,3.59-5.71,3.59-.83,0-1.57-.1-2.19-.31-.62-.21-1.1-.43-1.41-.66-.45-.33-.55-.42-.57-.44l-.27-.27-2.19,4.28.06.13c.06.12.22.31.89.76.49.33,1.21.64,2.21.96.99.32,2.25.48,3.76.48,8.86,0,14.34-6.93,16.27-20.61l6.38-45.51h13.39l.73-5.12h-13.39l.79-5.54c.49-3.62,1.11-6.48,1.85-8.5.72-1.99,1.6-3.38,2.6-4.15,1-.76,2.29-1.15,3.83-1.15,1.02,0,2.01.15,2.94.45.94.3,1.7.62,2.27.95.74.43.95.59,1.01.65l.3.29,1.73-4.23-.19-.13Z"/>
      <path class="cls-1" d="M1073.67,399.3c7.25,0,13.49-.93,18.55-2.76,5.15-1.86,7.76-5.79,7.76-11.65,0-3.53-1.3-6.54-3.85-8.95-2.55-2.39-6.07-3.61-10.47-3.61-4.62,0-8.76,1.25-12.3,3.72-3.53,2.47-6.31,6.01-8.28,10.53-1.96,4.51-2.95,9.76-2.95,15.59,0,6.13,1.72,10.89,5.11,14.15,3.39,3.26,7.89,4.91,13.4,4.91,3.37,0,6.27-.56,8.63-1.65,2.34-1.09,4.15-2.33,5.47-3.59,1.59-1.52,1.92-2.11,2.04-2.33.01-.02.04-.09.04-.09l-2.86-2.54s-.64.82-1.66,1.78c-1,.93-2.39,1.81-4.15,2.6-1.75.79-3.87,1.18-6.3,1.18-3.69,0-6.67-1.13-8.87-3.36-2.2-2.23-3.31-5.66-3.31-10.22,0-1.62.03-2.86.08-3.72h3.92ZM1084.83,376.89c2.7,0,4.83.72,6.31,2.15,1.49,1.43,2.24,3.27,2.24,5.47,0,4.38-1.78,7.18-5.45,8.57-3.7,1.41-8.44,2.12-14.08,2.12h-3.68c.81-5.72,2.5-10.24,5.01-13.45,2.54-3.23,5.78-4.87,9.64-4.87Z"/>
      <g>
        <polygon class="cls-1" points="1026.78 373.26 1020.19 420.32 1027.45 420.32 1034.04 373.26 1026.78 373.26"/>
        <path class="cls-1" d="M1031.84,367.59c1.72,0,3.19-.72,4.15-1.87.81-.84,1.29-1.98,1.29-3.27s-.44-2.31-1.18-3.12c-.94-1.21-2.45-1.95-4.26-1.95-3.07,0-5.3,2.13-5.3,5.06s2.23,5.14,5.3,5.14Z"/>
      </g>
    </g>
  </g>
  <g>
    <path class="cls-1" d="M121.53,39.71L0,294.54h20.91l37.25-77.61h97.07l15.52,77.61h35.83l-48.61-254.82h-36.43ZM66.76,198.42l61.42-130.66,23.45,130.66h-84.87Z"/>
    <path class="cls-1" d="M442.91,206.84c30.28,0,56.34-3.88,77.47-11.52,21.55-7.8,32.48-24.2,32.48-48.76,0-14.79-5.42-27.38-16.12-37.42-10.68-10.02-25.41-15.1-43.77-15.1-19.33,0-36.62,5.24-51.38,15.56-14.75,10.31-26.39,25.12-34.59,44.01-8.18,18.84-12.33,40.75-12.33,65.13,0,25.6,7.18,45.5,21.35,59.14,14.15,13.63,33,20.54,56,20.54,14.09,0,26.22-2.33,36.05-6.91,9.79-4.56,17.3-9.8,22.88-15,2.63-2.45,7.71-7.8,8.77-10.21l-11.97-11.05-1.38,1.8c-.83.86-1.18,1.64-5.77,5.95-4.14,3.89-9.96,7.53-17.3,10.82-7.3,3.27-16.13,4.93-26.24,4.93-15.35,0-27.77-4.7-36.91-13.97-9.15-9.27-13.79-23.58-13.79-42.55,0-6.66.1-11.82.31-15.39h16.24ZM489.47,113.32c11.24,0,20.07,3.01,26.26,8.95,6.17,5.93,9.3,13.58,9.3,22.73,0,18.2-7.41,29.86-22.64,35.65-15.42,5.87-35.18,8.84-58.71,8.84h-15.19c3.39-23.78,10.41-42.58,20.87-55.91,10.56-13.45,24.05-20.26,40.11-20.26Z"/>
    <path class="cls-1" d="M710.16,106.4c-9.13-8.2-22.29-12.36-39.09-12.36-23.39,0-43.78,16.21-59.37,31.4l5.1-32.38-31.69,12.18-26.9,189.3h30.96l22.21-158.62c3.78-3.7,9.46-7.77,16.89-12.1,7.53-4.39,17.75-6.61,30.39-6.61,22.89,0,34.01,10.62,34.01,32.46,0,4.81-.25,8.64-.76,11.46l-18.83,133.41h30.96l18.78-136.53c.78-5.22,1.18-10.11,1.18-14.55,0-16.35-4.65-28.81-13.82-37.05Z"/>
    <path class="cls-1" d="M898.6,0l-15.47,110.71c-.77-.87-1.66-1.8-3.22-3.36-3.36-3.35-8.9-6.39-16.01-9.15-7.1-2.76-16.14-4.16-26.86-4.16-19.86,0-37.35,5.57-52,16.56-14.61,10.96-25.85,26.03-33.41,44.79-7.53,18.68-11.35,39.87-11.35,62.96,0,24.78,6.11,44.52,18.16,58.66,12.1,14.21,28.75,21.41,49.5,21.41,15.19,0,27.44-3.01,36.42-8.95,7.09-4.69,12.75-9.49,16.88-14.31l-2.16,19.37h29.15L929.72.14l-31.12-.14ZM771.98,221.45c0-32.71,5.94-58.92,17.66-77.89,11.59-18.77,29.5-28.29,53.22-28.29,10.8,0,20.98,3.16,26.68,6.81,7.83,5.02,10.37,9.73,10.37,9.73l-16.57,119.05c-3.54,5.22-9.27,10.91-17.01,16.91-7.75,6-17.8,9.04-29.86,9.04-14.28,0-25.37-4.61-32.96-13.7-7.65-9.15-11.53-23.17-11.53-41.66Z"/>
    <path class="cls-1" d="M1073.09,93.17l-2.89,19.19c-2.54-3.28-6.26-7.13-12.05-10.71-7.46-4.62-18.14-7.61-32.57-7.61-20.62,0-38.64,5.64-53.55,16.75-14.87,11.09-26.37,26.29-34.18,45.17-7.79,18.83-11.74,40.08-11.74,63.17,0,24.79,6.11,44.4,18.17,58.28,12.09,13.94,28.61,21.01,49.1,21.01,15.45,0,27.89-3.01,36.99-8.94,7.06-4.61,12.63-9.32,16.62-14.06l-2.33,19.12h29.4l25.94-188.98-26.9-12.39ZM958.19,221.06c0-32.45,6.13-58.52,18.23-77.49,11.97-18.78,29.69-28.31,52.65-28.31,8.27,0,15.18,1.45,20.53,4.31,5.39,2.89,9.37,5.85,11.84,8.8,2.8,3.37,3.91,5.26,4.32,6.29l-16.98,116.96c-3.54,5.22-9.2,10.78-16.81,16.52-7.62,5.75-17.48,8.66-29.29,8.66-14.02,0-25.04-4.67-32.76-13.89-7.78-9.28-11.73-23.36-11.73-41.85Z"/>
    <path class="cls-1" d="M402.41,93.79l-2.2-.02c-7.91-.06-16.59-.09-26.54-.09-9.14,0-18.17.02-26.84.05-8.03.02-15.76.04-23.01.04-30.57,0-45.81,7.64-60.48,19.97-15.63,13.14-23.55,33.84-23.55,61.53,0,11.28,2.2,21.28,6.55,29.7,4.04,7.84,9.81,14.18,17.16,18.85-13.67,9.37-20.61,21.49-20.61,36.04,0,7.33,1.71,13.63,5.09,18.77-11.12,4.26-20.62,11.11-28.27,20.37-8.05,9.76-12.13,22.7-12.13,38.47,0,18.72,6.84,33.23,20.32,43.15,13.36,9.82,32.68,14.8,57.42,14.8,28.89,0,51.5-6.7,67.19-19.9,15.76-13.26,23.75-31.55,23.75-54.35,0-35.88-26.81-54.07-79.68-54.07-20.8,0-30.91-5.29-30.91-16.16,0-7.97,4.7-14.37,14.38-19.56,7.42,2,15.33,3.01,23.52,3.01,24.3,0,43.93-7.31,58.35-21.72,14.41-14.41,21.72-34.96,21.72-61.06,0-16.29-2.98-28.09-8.87-35.15l15.19-.44,12.45-22.22ZM292.69,292.69c22.11,0,32.33,4.21,41.65,9.63,9.23,5.36,13.71,13.94,13.71,26.23,0,15.02-5.18,26.69-15.41,34.67-10.33,8.06-25.47,12.14-44.99,12.14-16.15,0-34.26-.48-44.85-6.17-14.95-8.04-21.79-18.89-22.17-35.18-.28-11.75,2.81-23.67,8.26-31.89,3.5-5.29,11.24-14.49,23.77-18.24,0,0,18.17,8.81,40.03,8.81ZM340.95,199.7c-8.5,10.99-20.68,16.57-36.22,16.57-11.21,0-19.96-3.38-26.01-10.05-6.08-6.7-9.17-16.59-9.17-29.39,0-22.83,4.65-39.31,13.81-48.97,9.14-9.64,21.29-14.53,36.11-14.53,23.15,0,34.4,12.01,34.4,36.73,0,21.85-4.35,38.55-12.92,49.65Z"/>
  </g>
</svg>