<svg width="84" height="26" viewBox="0 0 84 26" fill="none" xmlns="http://www.w3.org/2000/svg">
<path d="M71.0387 25.9982C70.0052 25.9982 69.1747 25.9059 68.5471 25.7214L69.1008 22.1501C69.6176 22.2793 70.1805 22.3439 70.7896 22.3439C71.4724 22.3439 72.0446 22.1409 72.506 21.7348C72.9858 21.3472 73.3365 20.8212 73.558 20.1568L73.7518 19.5478L68.0488 5.81641H72.5614L75.3575 14.0386C75.6158 14.7399 75.8189 15.5059 75.9665 16.3364C76.1142 15.5059 76.3172 14.7399 76.5756 14.0386L79.3717 5.81641H83.8011L77.4338 21.1258C76.7694 22.6945 75.9296 23.8942 74.9145 24.7247C73.9179 25.5737 72.626 25.9982 71.0387 25.9982Z" fill="#000000"/>
<path d="M63.6239 5.81487H67.3613V20.2107H63.6239V5.81487ZM63.2363 2.40971C63.2363 1.80066 63.4486 1.28388 63.8731 0.859393C64.316 0.434902 64.8512 0.222656 65.4787 0.222656C66.1247 0.222656 66.6599 0.434902 67.0844 0.859393C67.5089 1.28388 67.7212 1.80066 67.7212 2.40971C67.7212 3.03722 67.5089 3.56322 67.0844 3.98771C66.6599 4.4122 66.1247 4.62445 65.4787 4.62445C64.8512 4.62445 64.316 4.4122 63.8731 3.98771C63.4486 3.54476 63.2363 3.01876 63.2363 2.40971Z" fill="#000000"/>
<path d="M53.1266 20.5694C51.8346 20.5694 50.6442 20.2372 49.5553 19.5727C48.4664 18.8899 47.5989 17.9763 46.953 16.832C46.3255 15.6877 46.0117 14.4327 46.0117 13.0669C46.0117 11.7012 46.3255 10.4462 46.953 9.30189C47.5989 8.13916 48.4664 7.21635 49.5553 6.53347C50.6442 5.8506 51.8346 5.50916 53.1266 5.50916C54.3078 5.50916 55.2582 5.73063 55.978 6.17358C56.6978 6.59807 57.2607 7.21635 57.6668 8.02842V0H61.4041V20.2095H57.7775V17.8563C57.353 18.7238 56.7716 19.3974 56.0334 19.8773C55.3136 20.3387 54.3447 20.5694 53.1266 20.5694ZM49.7491 13.0393C49.7491 13.7775 49.9152 14.4696 50.2474 15.1156C50.5981 15.7431 51.0687 16.2506 51.6593 16.6382C52.2683 17.0073 52.9605 17.1919 53.7356 17.1919C54.5292 17.1919 55.2306 17.0073 55.8396 16.6382C56.4671 16.2691 56.947 15.7708 57.2792 15.1433C57.6114 14.5158 57.7775 13.8236 57.7775 13.0669C57.7775 12.3102 57.6114 11.6181 57.2792 10.9906C56.947 10.3447 56.4671 9.83712 55.8396 9.468C55.2306 9.08042 54.5292 8.88663 53.7356 8.88663C52.9605 8.88663 52.2683 9.08042 51.6593 9.468C51.0502 9.83712 50.5796 10.3354 50.2474 10.9629C49.9152 11.5905 49.7491 12.2826 49.7491 13.0393Z" fill="#000000"/>
<path d="M42.9349 20.5713C42.2336 20.5713 41.643 20.3314 41.1631 19.8515C40.6833 19.3717 40.4434 18.7995 40.4434 18.1351C40.4434 17.4707 40.6833 16.9078 41.1631 16.4464C41.643 15.9665 42.2336 15.7266 42.9349 15.7266C43.6363 15.7266 44.2176 15.9665 44.679 16.4464C45.1589 16.9078 45.3988 17.4707 45.3988 18.1351C45.3988 18.818 45.1589 19.3993 44.679 19.8792C44.2176 20.3406 43.6363 20.5713 42.9349 20.5713Z" fill="#000000"/>
<path d="M34.9941 0H38.7315V20.2095H34.9941V0Z" fill="#000000"/>
<path d="M24.4967 20.5719C23.2047 20.5719 22.0143 20.2397 20.9254 19.5753C19.8365 18.8924 18.9691 17.9788 18.3231 16.8346C17.6956 15.6903 17.3818 14.4353 17.3818 13.0695C17.3818 11.7038 17.6956 10.4487 18.3231 9.30446C18.9691 8.14172 19.8365 7.21891 20.9254 6.53603C22.0143 5.85316 23.2047 5.51172 24.4967 5.51172C25.6779 5.51172 26.6284 5.73319 27.3482 6.17614C28.0864 6.61909 28.6585 7.25582 29.0646 8.08635V5.81624H32.7743V20.212H29.1476V17.8589C28.7231 18.7263 28.1418 19.4 27.4035 19.8798C26.6837 20.3412 25.7148 20.5719 24.4967 20.5719ZM21.1192 13.0418C21.1192 13.7801 21.2853 14.4722 21.6175 15.1181C21.9682 15.7456 22.4388 16.2532 23.0294 16.6408C23.6385 17.0099 24.3306 17.1945 25.1057 17.1945C25.8993 17.1945 26.6007 17.0099 27.2097 16.6408C27.8372 16.2716 28.3171 15.7733 28.6493 15.1458C28.9815 14.5183 29.1476 13.8262 29.1476 13.0695C29.1476 12.3128 28.9815 11.6207 28.6493 10.9932C28.3171 10.3472 27.8372 9.83968 27.2097 9.47056C26.6007 9.08298 25.8993 8.88919 25.1057 8.88919C24.3306 8.88919 23.6385 9.08298 23.0294 9.47056C22.4204 9.83968 21.9497 10.338 21.6175 10.9655C21.2853 11.593 21.1192 12.2851 21.1192 13.0418Z" fill="#000000"/>
<path d="M10.1047 20.5753C8.22221 20.5753 6.50579 20.1323 4.95547 19.2465C3.42361 18.3421 2.21474 17.124 1.32884 15.5921C0.442947 14.0603 0 12.3808 0 10.5536C0 8.708 0.424491 7.01926 1.27347 5.4874C2.14091 3.93709 3.34056 2.71898 4.87242 1.83309C6.40428 0.928737 8.14838 0.476562 10.1047 0.476562C11.6735 0.476562 13.0208 0.72572 14.1466 1.22404C15.2909 1.7039 16.306 2.46983 17.1919 3.52183L14.4512 5.90267C13.2884 4.68456 11.8396 4.07551 10.1047 4.07551C8.88663 4.07551 7.81617 4.37081 6.89337 4.96141C5.97056 5.53354 5.26 6.31793 4.76168 7.31456C4.26337 8.29274 4.01421 9.37242 4.01421 10.5536C4.01421 11.7348 4.26337 12.8145 4.76168 13.7927C5.27846 14.7708 5.99824 15.546 6.92105 16.1181C7.86231 16.6903 8.95123 16.9763 10.1878 16.9763C11.9965 16.9763 13.473 16.3488 14.6173 15.0938L17.4411 17.5023C16.6659 18.4436 15.6508 19.1911 14.3958 19.7448C13.1592 20.2985 11.7289 20.5753 10.1047 20.5753Z" fill="#000000"/>
</svg>
