<svg height="22" viewBox="0 0 1027.67 176.59" width="101" xmlns="http://www.w3.org/2000/svg"><path d="m73.55 11.14 22.86 119.81h-14.56l-7.37-36.87h-47.01l-17.7 36.87h-9.77l57.14-119.81zm-42.58 75.39h42.03l-11.61-64.7-30.41 64.7z"/><path d="m158.76 44.58 22.75.17-.69 6.77-11.64.35c3.24 4.17 4.86 9.55 4.86 16.15 0 11.58-3.19 20.56-9.55 26.92-6.37 6.37-14.94 9.55-25.71 9.55-3.71 0-7.24-.46-10.6-1.39-4.63 2.43-6.95 5.56-6.95 9.38 0 5.21 4.8 7.82 14.42 7.82 23.39 0 35.09 7.88 35.09 23.62 0 10.07-3.47 18.03-10.42 23.88s-16.85 8.77-29.7 8.77c-11 0-19.45-2.17-25.36-6.51s-8.86-10.63-8.86-18.85c0-6.95 1.76-12.57 5.3-16.85 3.53-4.28 7.9-7.35 13.11-9.21-1.74-2.31-2.61-5.21-2.61-8.68 0-6.6 3.24-11.99 9.73-16.15-3.59-2.08-6.34-4.98-8.25-8.68s-2.87-8.05-2.87-13.03c0-12.27 3.44-21.31 10.33-27.1s15.6-8.68 26.14-8.68c4.28 0 8.1.58 11.46 1.74zm-37.69 84.94c-4.4 1.51-8.02 3.97-10.86 7.38-2.84 3.42-4.25 7.9-4.25 13.46 0 6.25 2.26 10.88 6.77 13.9 4.52 3.01 10.83 4.52 18.93 4.52 8.92 0 15.75-1.85 20.49-5.56 4.75-3.71 7.12-9.03 7.12-15.98 0-5.67-2.14-9.76-6.43-12.25s-10.66-3.73-19.11-3.73c-5.1 0-9.32-.58-12.68-1.74zm24.84-79.2c-6.83 0-12.36 2.23-16.59 6.69s-6.34 11.9-6.34 22.32c0 5.9 1.42 10.42 4.26 13.55s6.86 4.69 12.07 4.69c7.18 0 12.74-2.55 16.68-7.64s5.9-12.62 5.9-22.58c0-11.35-5.33-17.02-15.98-17.02z"/><path d="m235.83 123.53c-2.38 2.38-5.73 4.58-10.07 6.6s-9.64 3.04-15.89 3.04c-10.19 0-18.41-3.01-24.66-9.03s-9.38-14.7-9.38-26.05 1.82-20.52 5.47-28.92c3.65-8.39 8.74-14.88 15.29-19.45 6.54-4.57 14.1-6.86 22.67-6.86 8.1 0 14.5 2.2 19.19 6.6s7.03 9.84 7.03 16.33c0 10.77-4.72 17.86-14.16 21.28s-20.93 5.12-34.48 5.12h-7.82c-.12 1.62-.17 4.11-.17 7.47 0 8.69 2.11 15.17 6.34 19.45 4.23 4.29 9.87 6.43 16.94 6.43 4.63 0 8.62-.75 11.99-2.26 3.36-1.5 5.99-3.15 7.9-4.95 1.91-1.79 2.87-2.81 2.87-3.04l4.52 4.17c0 .35-1.19 1.71-3.56 4.08zm-36.57-63.92c-4.86 6.2-8.05 14.85-9.55 25.97h7.47c10.65 0 19.48-1.33 26.49-3.99s10.51-8.16 10.51-16.5c0-4.28-1.45-7.82-4.34-10.6-2.9-2.78-6.95-4.17-12.16-4.17-7.41 0-13.55 3.1-18.41 9.29z"/><path d="m268.01 44.58.69 7.99c6.48-6.48 15.34-9.73 26.57-9.73 7.41 0 13.11 1.8 17.11 5.38 3.99 3.59 5.99 8.97 5.99 16.15 0 1.97-.17 4.11-.52 6.43l-8.34 60.62h-12.68l8.34-59.06c.23-1.27.35-3.01.35-5.21 0-10.07-5.27-15.11-15.81-15.11-5.79 0-10.42 1.02-13.9 3.04-3.47 2.03-6.08 3.91-7.82 5.64l-9.9 70.69h-12.68l12.16-86.85h10.42z"/><path d="m377.49 131.43v-10.07c-1.85 2.67-4.75 5.3-8.69 7.9s-9.27 3.91-15.98 3.91c-9.15 0-16.39-3.13-21.71-9.38-5.33-6.25-7.99-14.88-7.99-25.88 0-10.31 1.68-19.63 5.04-27.96 3.36-8.34 8.28-14.94 14.76-19.8s14.13-7.3 22.93-7.3c4.75 0 8.68.61 11.81 1.82 3.13 1.22 5.41 2.55 6.86 3.99 1.45 1.45 2.17 2.29 2.17 2.52h.17l6.95-49.68 12.85-.69-18.41 130.62h-10.77zm-7.13-10.94c3.59-2.78 6.19-5.38 7.82-7.82l7.47-53.67c-1.28-1.62-3.21-3.33-5.82-5.12s-6.4-2.69-11.38-2.69c-10.88 0-18.99 4.32-24.32 12.94-5.33 8.63-7.99 20.35-7.99 35.17 0 8.45 1.76 14.79 5.3 19.02 3.53 4.23 8.6 6.34 15.2 6.34 5.56 0 10.13-1.39 13.72-4.17z"/><path d="m457.47 131.43-.69-10.07c-1.74 2.67-4.6 5.3-8.6 7.9-3.99 2.6-9.41 3.91-16.24 3.91-9.03 0-16.21-3.07-21.54-9.21s-7.99-14.7-7.99-25.71c0-10.31 1.74-19.66 5.21-28.05s8.51-15.05 15.11-19.97 14.47-7.38 23.62-7.38c6.37 0 11.12 1.1 14.24 3.3 3.13 2.2 5.15 4.17 6.08 5.91l2.95-7.47h10.07l-12.16 86.85h-10.07zm-7.9-10.77c3.53-2.66 6.11-5.21 7.73-7.64l7.64-52.63c-.23-.69-.93-1.74-2.08-3.13-1.16-1.39-2.98-2.75-5.47-4.08s-5.64-2-9.47-2c-10.54 0-18.56 4.32-24.06 12.94-5.5 8.63-8.25 20.3-8.25 35 0 8.45 1.79 14.82 5.38 19.11s8.62 6.43 15.11 6.43c5.44 0 9.93-1.33 13.46-3.99z"/><path d="m920.26 43.04h-16.93l34.94 91.28h.62l26.46-68.95 26.5 68.96h.89l34.93-91.29h-6.32l-25.2 65.81-26.3-67.64h-.53l-25 64.46z"/><path d="m800.55 1.87v129.8h-16.44v-129.8z"/><path d="m814.42 89.16c0-27.45 18.3-46.26 46.09-46.26 25.93 0 43.72 16.95 43.72 44.23s-18.3 46.94-45.75 46.94-44.06-17.12-44.06-44.91zm47.96 42.54c14.57 0 24.06-11.86 24.06-39.15 0-29.32-11.69-47.28-29.32-47.28-14.57 0-24.91 11.35-24.91 38.81 0 29.31 12.2 47.62 30.17 47.62z"/><path d="m617.98 131.17h-16.36v-76.21l-.02-1.86v-.91l16.24-9.46h.17v84.21l-.03 4.22zm-8.25-116.55c6.08 0 10.48 4.22 10.48 9.97s-4.39 10.14-10.48 10.14-10.48-4.39-10.48-10.14 4.22-9.97 10.48-9.97z"/><path d="m635.41 52.33 16.26-9.29h.17v16.35c13.52-9.97 24.5-16.29 33.46-16.29 13.52 0 22.14 9.12 22.14 24.16v59.99l.02 3.38v.84h-16.59v-4.22s.01-57.28.01-57.28c0-11.83-6.42-17.4-15.89-17.4-7.94 0-14.36 2.94-23.15 9.03v69.89h-16.39v-76.23z"/><path d="m597.72 11.14h-13.32l-34.49 51.04-31.8-46.89-2.68-4.15h-21.03l2.75 4.15 40.39 58.47v53.4l.01 3.38v.9h17.73v-.95-3.33-53.42z"/><path d="m747.19 131.16h-16.61v-4.24s0-75.24 0-75.24h-13.38v-6.61h13.43c.74-30.36 16.67-45.07 31.31-45.07 6.78 0 10.51 3.39 10.51 8.47 0 3.39-1.86 5.76-2.71 6.95-4.4-2.2-8.73-4.06-16.02-4.06-8.23 0-12.39 7.73-12.86 14.4-.51 7.2.92 13.54 3.63 19.3h24.74v6.61h-22.03v79.48z"/><path d="m499.37 113.06c6.08 0 10.48 4.22 10.48 9.97s-4.39 10.14-10.48 10.14-10.48-4.39-10.48-10.14 4.22-9.97 10.48-9.97z"/></svg>