<svg xmlns="http://www.w3.org/2000/svg" width="176" height="112" viewBox="-3 -3 182 118" fill="none" transform="matrix(1, 0, 0, 1, 0, 0)"><g id="deeditor_bgCarrier" stroke-width="0">
  <rect id="dee_c_e" x="-3" y="-3" width="182" height="118" rx="38.4" fill="#000000" strokewidth="0"/>
</g>
<path fill-rule="evenodd" clip-rule="evenodd" d="M89.6368 0.00562468C87.9209 -0.0892605 86.4777 1.02884 86.5282 2.41394L87.138 19.1682C87.154 19.6078 87.578 19.9675 88.1222 20.003C88.6846 20.0398 89.1857 19.7189 89.2682 19.2694L92.3169 2.68884C92.5657 1.33592 91.3305 0.0992757 89.6368 0.00562468ZM72.7069 5.35524C71.0533 5.68518 70.0827 7.06591 70.582 8.37805L78.506 29.2085C78.676 29.6554 79.2606 29.909 79.8174 29.7774C80.3283 29.6565 80.6485 29.2492 80.5655 28.8254L76.3535 7.30455C76.0822 5.91914 74.3966 5.01809 72.7069 5.35524ZM29.3895 23.8506C29.8004 23.1964 30.4286 22.7181 31.1085 22.3513V22.3513C31.579 22.0975 32.0816 21.8984 32.6079 21.8047C37.556 20.9234 40.6466 23.2091 43.3869 26.3864C43.6377 26.6772 44.1158 26.5709 44.2093 26.1985V26.1985L44.2098 26.1964C44.3268 25.7301 44.4134 25.3855 44.5135 25.0441L44.5786 24.8209C45.1646 22.8064 45.7589 20.7641 48.7373 20.1189C51.9797 19.4167 54.6256 20.244 56.8953 22.2158C59.408 24.3985 61.0216 26.9633 62.276 29.7087C62.3242 29.8146 62.3633 29.9199 62.4004 30.0203C62.5987 30.5558 62.7426 30.9445 63.959 30.455C67.4335 29.0569 70.6675 29.9466 72.6552 32.6355C74.8454 35.5986 75.8813 38.8842 76.3063 42.2589C77.2833 50.0144 77.0648 57.7164 75.4907 65.4653L75.4314 65.7582C74.1269 72.1814 72.8299 78.5674 70.1084 84.7101C67.2171 91.2358 63.7567 97.5348 58.0651 102.859C56.2855 104.524 54.4755 106.169 52.6657 107.813C52.1544 108.277 51.6431 108.742 51.1324 109.207C50.5184 109.766 49.8205 110.23 49.1405 110.707V110.707C48.3258 111.278 47.5109 111.849 46.1768 111.554C45.9456 111.503 45.6806 111.532 45.4164 111.561C44.9004 111.617 44.3872 111.674 44.1331 111.134C43.6972 110.208 44.3094 109.528 45.1287 108.861C48.1094 106.435 51.0424 104.005 53.6773 101.286C61.0306 93.6985 65.8892 85.2292 68.522 75.908C71.6376 64.8766 73.3503 53.7432 71.7261 42.4084C71.3417 39.7258 70.557 37.1448 68.9951 34.7411C68.5841 34.1085 68.0943 33.3969 67.0815 33.4775C66.0834 33.5571 65.8985 34.3075 65.7437 34.9369C65.7342 34.9752 65.7245 35.0146 65.7152 35.0517C65.7118 35.0659 65.7081 35.0799 65.7044 35.0939C65.4678 36.0121 65.3594 36.9619 65.3221 37.9015C64.9847 46.4206 62.927 54.6021 58.0195 62.2293C57.6608 62.7866 57.2472 63.3269 56.7954 63.8385C55.9801 64.7618 54.8979 65.3098 53.5385 64.6737C52.168 64.0321 52.117 62.9567 52.9092 62.0084C56.779 57.3757 58.203 52.0453 59.5568 46.7328C61.3781 39.5849 59.6601 32.8173 55.2628 26.5061L55.2331 26.4634C54.2225 25.0126 52.8578 23.0533 50.4333 23.7382C48.6087 24.2538 48.7758 25.9719 48.9157 27.4111C48.9343 27.5998 48.9521 27.7837 48.9648 27.9593C49.0895 29.6604 49.2918 31.357 49.494 33.0536C49.9442 36.8318 50.3946 40.6097 49.988 44.4373C49.5559 48.5035 48.5082 52.4686 47.46 56.4355C47.1875 57.4666 46.915 58.4978 46.6532 59.531C46.5564 59.9138 46.3895 60.2911 46.1972 60.651C45.5624 61.8401 44.8416 63.1757 42.849 62.6035C41.0849 62.0971 41.4602 60.8535 41.802 59.7206L41.849 59.5638L42.0432 58.9129C43.8747 52.7766 45.7088 46.6319 45.5218 40.2588C45.3557 34.5994 41.9199 30.1259 37.1426 26.2272C36.2401 25.4908 34.6834 24.9357 33.7691 25.615C32.5129 26.5485 32.3173 28.0041 32.6384 29.4814C34.3912 37.5456 35.9046 45.6378 35.7723 53.8565C35.7369 56.0543 35.4753 58.2544 35.1931 60.4429C35.0404 61.6276 34.337 62.6397 32.5731 62.4572C30.8203 62.2759 30.5384 61.1977 30.6503 59.9842C30.7163 59.268 30.7714 58.5508 30.8266 57.8336C30.9285 56.5105 31.0305 55.1874 31.1998 53.87C32.0801 47.0269 27.9232 41.7807 22.9384 36.786C22.8165 36.6638 22.6757 36.5521 22.5315 36.4463C22.4454 36.3832 22.3582 36.3182 22.2698 36.2525C21.234 35.4823 20.0373 34.5927 18.7474 35.0252C17.2547 35.5258 17.5726 37.0196 17.8057 38.1145L17.8225 38.1933C18.3233 40.5561 18.8768 42.9119 19.4303 45.2674C20.0388 47.8574 20.6474 50.4474 21.1859 53.0468C23.2946 63.2248 21.1774 72.9857 16.0064 82.3008C13.5777 86.6759 11.0312 91.0665 7.20011 94.8326C6.52125 95.5 5.79041 96.1391 5.01981 96.7381C4.15909 97.4073 3.10036 97.6414 2.11042 96.9967C0.948634 96.2399 1.31697 95.3572 2.0336 94.4836C3.25446 92.9951 4.458 91.4975 5.66136 90C6.14748 89.3952 6.63466 88.7888 7.12185 88.1845C10.4298 84.5471 12.23 80.3686 14.0316 76.1869C14.3031 75.5567 14.5748 74.926 14.8516 74.2974C15.3955 73.0621 15.1813 72.061 14.2828 70.988C12.5435 68.9112 10.8334 66.8183 9.12334 64.7256C7.61362 62.8781 6.10389 61.0305 4.57408 59.1939L4.54716 59.1616C3.03004 57.3401 1.51511 55.5214 0.575287 53.4513C-1.17379 49.5988 1.16167 46.8707 6.2737 46.6728C8.35984 46.592 10.0194 47.3415 11.7144 48.1636C12.229 48.4129 12.6864 48.7321 13.153 49.0575V49.0575C14.3861 49.9178 15.6805 48.8592 15.3124 47.4014C15.0968 46.5476 14.8534 45.6985 14.6108 44.8519C13.4842 40.9207 12.3729 37.0425 14.1215 32.9922L14.7438 32.4022C14.8534 32.2719 14.9905 32.1643 15.1565 32.0789L16.1367 31.5123C16.1377 31.5118 16.1382 31.5106 16.138 31.5095V31.5095C16.1377 31.508 16.1387 31.5066 16.1402 31.5064C19.7797 31.06 22.632 31.972 25.1762 33.7632C26.6585 34.8069 28.7041 33.9564 28.4786 32.1576V32.1576C28.1076 29.1947 27.7626 26.4409 29.3895 23.8506ZM14.1215 32.9922L14.1208 32.9929C14.1166 32.9969 14.1102 32.9914 14.1136 32.9866V32.9866C14.1169 32.9819 14.1242 32.986 14.1219 32.9913L14.1215 32.9922ZM14.5167 64.5182C15.4568 65.8678 17.2119 65.1617 17.3609 63.5237C17.4823 62.1884 17.4725 60.8953 17.2729 59.5918C17.231 59.3184 17.2265 59.0374 17.222 58.7561C17.2103 58.0173 17.1985 57.2772 16.507 56.6688C14.0715 54.5263 11.6058 52.4011 8.49876 50.8641C7.40248 50.3218 6.07604 49.7812 5.0017 50.6563C4.12723 51.3686 4.69447 52.1905 5.19329 52.9135C5.27276 53.0286 5.35072 53.1416 5.4206 53.2508C6.90883 55.5783 8.77722 57.7086 10.6461 59.8394C11.8116 61.1682 12.9772 62.4971 14.051 63.8743C14.2126 64.0815 14.3633 64.2979 14.5167 64.5182V64.5182ZM117.785 24.9095C119.143 25.0424 120.422 26.2071 121.73 25.8203C122.004 25.7391 122.284 25.5782 122.573 25.3208C123.026 24.9159 123.583 24.5763 124.136 24.2557C129.377 21.2191 134.349 22.6871 135.992 27.7165C136.12 28.1085 136.136 28.5693 136.151 29.0222C136.179 29.8581 136.206 30.6665 136.938 30.9626C137.712 31.2756 138.496 30.7907 139.313 30.2861C139.772 30.0026 140.241 29.7127 140.724 29.5547C145.734 27.9171 150.317 30.2419 150.668 34.6381C150.822 36.5701 150.357 38.4363 149.891 40.3026C149.689 41.1137 149.487 41.9247 149.335 42.7412C149.156 43.7057 148.933 44.6645 148.614 45.5921C146.957 50.4146 146.632 55.3766 146.306 60.3706V60.3706C146.291 60.5915 146.546 60.7239 146.717 60.5844C147.803 59.7017 148.85 58.8071 149.889 57.9189C151.882 56.2154 153.847 54.5356 156.01 53.0098C160.116 50.1135 164.797 48.7094 170.298 49.3832C175.131 49.9753 177.514 54.0408 174.963 57.3948C174.405 58.1282 173.743 58.8185 173.051 59.4761C169.37 62.9772 166.469 66.8857 163.938 70.9664C160.742 76.1175 161.124 80.1392 165.21 84.3739C166.167 85.3663 166.974 86.508 167.866 87.5599C169.254 89.1971 171.247 90.383 173.231 91.5632C173.408 91.6683 173.584 91.7732 173.76 91.8785C175.136 92.7013 176.155 93.6115 174.974 94.9094C173.765 96.2381 172.584 95.5302 171.426 94.8364C171.311 94.7669 171.195 94.6979 171.08 94.6309C165.252 91.2414 160.975 86.8855 158.264 81.5203C155.718 76.4835 157.872 72.024 160.858 67.6807C163.7 63.5468 166.902 59.6094 170.631 55.9397C172.201 54.3939 171.326 53.1358 168.824 52.9079C165.287 52.5855 162.285 53.5774 159.644 55.3713C155.438 58.2281 151.86 61.5673 148.605 65.1131C147.143 66.7053 145.509 67.4529 143.002 67.5606C132.221 68.0239 123.293 71.699 116.023 78.0681C115.824 78.2425 115.632 78.4224 115.44 78.6023C115.122 78.9005 114.804 79.1989 114.455 79.4707C113.438 80.2613 112.265 81.0721 110.892 80.1246C109.419 79.108 110.192 77.9595 111.14 76.9946C112.108 76.0096 113.152 75.0626 114.264 74.1813C121.009 68.8337 129.036 65.3819 138.401 64.2662C141.461 63.9016 142.386 63.4228 142.179 60.6372C141.663 53.6855 143.52 46.877 145.569 40.1374C146.08 38.4554 146.55 36.7549 146.449 35.0099C146.315 32.6745 144.575 31.8015 141.877 32.701C138.286 33.8979 136.248 36.2921 134.756 39.0008C131.286 45.3029 129.782 51.8857 130.72 58.7806C130.733 58.8788 130.747 58.977 130.762 59.075C130.782 59.2112 130.801 59.3477 130.819 59.4841C130.967 60.6482 130.559 61.5989 128.948 61.7058C127.338 61.813 126.763 60.878 126.589 59.7597C126.031 56.1533 125.925 52.5431 126.629 48.9421C127.269 45.6635 128.573 42.5318 129.952 39.4149C131.341 36.2749 132.219 33.0497 131.759 29.6934L131.748 29.6081C131.582 28.3903 131.385 26.9466 129.764 26.4889C127.955 25.978 126.654 27.1456 125.569 28.1372C123.402 30.1166 122.076 32.4852 121.122 34.9868C118.523 41.8018 117.432 48.8103 117.006 55.9048C116.93 57.1598 116.784 58.4151 116.577 59.6603C116.456 60.3829 116.076 61.1007 114.982 61.0971C113.938 61.0939 113.406 60.4343 113.267 59.7119C113.227 59.5043 113.186 59.2964 113.145 59.088C112.892 57.8168 112.636 56.5329 112.679 55.2619C112.956 46.9624 114.268 38.7964 118.102 31.0107C118.531 30.1403 118.861 29.3134 117.921 28.6317C116.947 27.9253 116.006 28.4493 115.2 28.8986L115.197 28.9005L115.195 28.9016C115.135 28.9348 115.076 28.9677 115.018 28.9994C111.459 30.9499 110.121 34.0613 108.818 37.0914L108.669 37.4369C105.552 44.666 104.891 52.1866 105 59.7841C105.003 59.985 105.025 60.2067 105.048 60.4369C105.161 61.5728 105.294 62.9108 103.243 62.925C101.222 62.939 101.08 61.5294 100.941 60.1494C100.929 60.0335 100.918 59.9163 100.905 59.8017C99.9185 50.9404 101.381 42.3801 105.384 34.0928C105.465 33.9255 105.495 33.7424 105.54 33.4766V33.4766C105.579 33.2399 105.341 33.0476 105.127 33.1552C103.041 34.2013 102.33 35.756 101.641 37.2611L101.598 37.3548C98.1092 44.973 96.8618 52.892 96.634 60.9722C96.2601 74.2379 100.247 86.3625 110.591 96.9177C114.49 100.896 119.044 104.324 123.969 107.452C124.17 107.58 124.375 107.705 124.58 107.829C124.921 108.037 125.262 108.244 125.587 108.467C125.66 108.517 125.735 108.568 125.811 108.619C126.891 109.348 128.099 110.165 126.922 111.366C125.767 112.545 124.426 111.836 123.209 111.194L123.042 111.106C122.422 110.781 121.78 110.484 121.137 110.188V110.188C120.567 109.925 120.029 109.6 119.53 109.22C119.398 109.12 119.266 109.019 119.133 108.918L119.131 108.916C118.316 108.294 117.501 107.673 116.663 107.072C106.537 99.8166 98.8231 91.2584 95.0149 80.6723C91.5363 71.002 91.4341 61.1287 92.8854 51.2217C93.7684 45.1952 95.435 39.3016 98.6973 33.7792C100.195 31.2445 102.576 29.6555 106.271 29.8893C107.616 29.9744 108.177 29.381 108.85 28.6685C108.901 28.6149 108.952 28.5604 109.004 28.5057C111.672 25.7147 114.459 24.5837 117.785 24.9095ZM99.2197 13.6998C99.8655 12.3685 101.818 11.799 103.372 12.4886C104.838 13.1393 105.333 14.6445 104.46 15.7951L93.6405 30.0481C93.3143 30.478 92.6097 30.6034 92.0889 30.3244C91.6572 30.0929 91.4839 29.6503 91.6725 29.2613L99.2197 13.6998Z" fill="url(#paint0_linear_1_12)"/>
<defs fill="#000000">
<linearGradient id="paint0_linear_1_12" x1="88" y1="0" x2="88" y2="112" gradientUnits="userSpaceOnUse" fill="#000000">
<stop stop-color="#F4F2ED" fill="#000000"/>
<stop offset="1" stop-color="#F4F2ED" stop-opacity="0" fill="#000000"/>
</linearGradient>
</defs>
</svg>