<svg width="462.6" height="75.201" viewBox="0 0 462.6 75.201" xmlns="http://www.w3.org/2000/svg"><g id="svgGroup" stroke-linecap="round" fill-rule="evenodd" font-size="9pt" stroke="#000" stroke-width="0.25mm" fill="#000" style="stroke:#000;stroke-width:0.25mm;fill:#000"><path d="M 278.7 74 L 269.7 74 L 269.7 0 L 278.7 0 L 278.7 30.3 Q 281.5 26.2 285.8 23.5 A 17.572 17.572 0 0 1 292.925 20.991 A 22.595 22.595 0 0 1 295.9 20.8 A 23.225 23.225 0 0 1 300.965 21.318 Q 306.059 22.456 309.05 26.1 Q 313.175 31.126 313.388 39.209 A 33.764 33.764 0 0 1 313.4 40.1 L 313.4 74 L 304.4 74 L 304.4 41.1 Q 304.4 35.5 301.8 32.1 A 8.42 8.42 0 0 0 295.642 28.753 A 11.979 11.979 0 0 0 294.5 28.7 A 13.23 13.23 0 0 0 287.787 30.566 A 17.586 17.586 0 0 0 285.75 31.95 Q 281.6 35.2 278.7 39.6 L 278.7 74 Z M 179.8 74 L 170.8 74 L 170.8 22 L 179.5 22 L 179.5 30.7 Q 182.3 26.5 186.65 23.65 A 17.316 17.316 0 0 1 193.756 21.025 A 22.629 22.629 0 0 1 197 20.8 A 23.225 23.225 0 0 1 202.065 21.318 Q 207.159 22.456 210.15 26.1 Q 214.275 31.126 214.488 39.209 A 33.764 33.764 0 0 1 214.5 40.1 L 214.5 74 L 205.5 74 L 205.5 41.1 A 19.265 19.265 0 0 0 205.158 37.359 Q 204.719 35.145 203.719 33.397 A 10.966 10.966 0 0 0 202.85 32.1 A 8.579 8.579 0 0 0 196.573 28.747 A 12.061 12.061 0 0 0 195.5 28.7 A 13.122 13.122 0 0 0 188.651 30.664 A 17.353 17.353 0 0 0 186.8 31.95 Q 182.7 35.2 179.8 39.6 L 179.8 74 Z M 0 73.8 L 0 4.2 A 100.907 100.907 0 0 1 1.856 4.006 Q 4.753 3.729 8.576 3.507 A 270.552 270.552 0 0 1 8.7 3.5 A 168.416 168.416 0 0 1 13.537 3.295 Q 16.008 3.224 18.745 3.206 A 285.352 285.352 0 0 1 20.6 3.2 Q 29 3.2 34.859 5.289 A 22.604 22.604 0 0 1 40.3 8.05 A 16.711 16.711 0 0 1 44.863 12.707 Q 47.054 16.14 47.191 20.601 A 19.526 19.526 0 0 1 47.2 21.2 A 17.052 17.052 0 0 1 46.573 25.92 A 13.798 13.798 0 0 1 44.25 30.55 Q 41.3 34.4 35.7 36.9 A 30.217 30.217 0 0 1 40.336 38.96 Q 43.813 40.894 46 43.55 Q 49.5 47.8 49.5 54 Q 49.5 63.315 42.29 68.928 A 22.979 22.979 0 0 1 42 69.15 A 24.681 24.681 0 0 1 34.623 72.86 Q 28.579 74.8 20.2 74.8 A 221.836 221.836 0 0 1 12.12 74.658 A 187.566 187.566 0 0 1 8.65 74.5 A 227.449 227.449 0 0 1 6.066 74.344 Q 3.259 74.157 1.195 73.938 A 65.535 65.535 0 0 1 0 73.8 Z M 104.1 51.7 L 67.7 51.7 A 24.088 24.088 0 0 0 68.839 56.725 Q 70.175 60.538 72.8 63.1 Q 77 67.2 83.9 67.2 Q 88.4 67.2 92 66.25 Q 95.6 65.3 98.9 63.8 L 101 71.5 A 40.77 40.77 0 0 1 96.665 73.126 A 51.863 51.863 0 0 1 92.9 74.15 A 38.914 38.914 0 0 1 87.808 74.969 A 52.025 52.025 0 0 1 82.8 75.2 A 28.318 28.318 0 0 1 75.054 74.195 A 21.108 21.108 0 0 1 65.05 68.05 A 23.521 23.521 0 0 1 59.845 58.51 Q 58.5 53.845 58.5 48 A 35.359 35.359 0 0 1 59.333 40.178 A 28.84 28.84 0 0 1 61.45 34.05 A 24.642 24.642 0 0 1 66.466 26.968 A 22.887 22.887 0 0 1 69.7 24.35 A 21.048 21.048 0 0 1 79.959 20.878 A 26.205 26.205 0 0 1 82 20.8 Q 89.5 20.8 94.45 24.05 Q 99.4 27.3 101.9 32.8 A 28.185 28.185 0 0 1 104.326 42.664 A 33.434 33.434 0 0 1 104.4 44.9 A 75.204 75.204 0 0 1 104.109 51.597 A 69.426 69.426 0 0 1 104.1 51.7 Z M 158.5 51.7 L 122.1 51.7 A 24.088 24.088 0 0 0 123.239 56.725 Q 124.575 60.538 127.2 63.1 Q 131.4 67.2 138.3 67.2 Q 142.8 67.2 146.4 66.25 Q 150 65.3 153.3 63.8 L 155.4 71.5 A 40.77 40.77 0 0 1 151.065 73.126 A 51.863 51.863 0 0 1 147.3 74.15 A 38.914 38.914 0 0 1 142.208 74.969 A 52.025 52.025 0 0 1 137.2 75.2 A 28.318 28.318 0 0 1 129.454 74.195 A 21.108 21.108 0 0 1 119.45 68.05 A 23.521 23.521 0 0 1 114.245 58.51 Q 112.9 53.845 112.9 48 A 35.359 35.359 0 0 1 113.733 40.178 A 28.84 28.84 0 0 1 115.85 34.05 A 24.642 24.642 0 0 1 120.866 26.968 A 22.887 22.887 0 0 1 124.1 24.35 A 21.048 21.048 0 0 1 134.359 20.878 A 26.205 26.205 0 0 1 136.4 20.8 Q 143.9 20.8 148.85 24.05 Q 153.8 27.3 156.3 32.8 A 28.185 28.185 0 0 1 158.726 42.664 A 33.434 33.434 0 0 1 158.8 44.9 A 75.204 75.204 0 0 1 158.509 51.597 A 69.426 69.426 0 0 1 158.5 51.7 Z M 371 51.7 L 334.6 51.7 A 24.088 24.088 0 0 0 335.739 56.725 Q 337.075 60.538 339.7 63.1 Q 343.9 67.2 350.8 67.2 Q 355.3 67.2 358.9 66.25 Q 362.5 65.3 365.8 63.8 L 367.9 71.5 A 40.77 40.77 0 0 1 363.565 73.126 A 51.863 51.863 0 0 1 359.8 74.15 A 38.914 38.914 0 0 1 354.708 74.969 A 52.025 52.025 0 0 1 349.7 75.2 A 28.318 28.318 0 0 1 341.954 74.195 A 21.108 21.108 0 0 1 331.95 68.05 A 23.521 23.521 0 0 1 326.745 58.51 Q 325.4 53.845 325.4 48 A 35.359 35.359 0 0 1 326.233 40.178 A 28.84 28.84 0 0 1 328.35 34.05 A 24.642 24.642 0 0 1 333.366 26.968 A 22.887 22.887 0 0 1 336.6 24.35 A 21.048 21.048 0 0 1 346.859 20.878 A 26.205 26.205 0 0 1 348.9 20.8 Q 356.4 20.8 361.35 24.05 Q 366.3 27.3 368.8 32.8 A 28.185 28.185 0 0 1 371.226 42.664 A 33.434 33.434 0 0 1 371.3 44.9 A 75.204 75.204 0 0 1 371.009 51.597 A 69.426 69.426 0 0 1 371 51.7 Z M 462.3 51.7 L 425.9 51.7 A 24.088 24.088 0 0 0 427.039 56.725 Q 428.375 60.538 431 63.1 Q 435.2 67.2 442.1 67.2 Q 446.6 67.2 450.2 66.25 Q 453.8 65.3 457.1 63.8 L 459.2 71.5 A 40.77 40.77 0 0 1 454.865 73.126 A 51.863 51.863 0 0 1 451.1 74.15 A 38.914 38.914 0 0 1 446.008 74.969 A 52.025 52.025 0 0 1 441 75.2 A 28.318 28.318 0 0 1 433.254 74.195 A 21.108 21.108 0 0 1 423.25 68.05 A 23.521 23.521 0 0 1 418.045 58.51 Q 416.7 53.845 416.7 48 A 35.359 35.359 0 0 1 417.533 40.178 A 28.84 28.84 0 0 1 419.65 34.05 A 24.642 24.642 0 0 1 424.666 26.968 A 22.887 22.887 0 0 1 427.9 24.35 A 21.048 21.048 0 0 1 438.159 20.878 A 26.205 26.205 0 0 1 440.2 20.8 Q 447.7 20.8 452.65 24.05 Q 457.6 27.3 460.1 32.8 A 28.185 28.185 0 0 1 462.526 42.664 A 33.434 33.434 0 0 1 462.6 44.9 A 75.204 75.204 0 0 1 462.309 51.597 A 69.426 69.426 0 0 1 462.3 51.7 Z M 232 56.1 L 232 31.7 L 223 31.7 L 223 23.9 L 232.2 23.9 L 234.1 7.5 L 241 7.5 L 241 23.9 L 255.4 23.9 L 255.4 31.7 L 241 31.7 L 241 56.8 A 21.559 21.559 0 0 0 241.168 59.596 Q 241.641 63.202 243.45 64.9 Q 245.9 67.2 249.3 67.2 Q 251.8 67.2 254.05 66.4 Q 256.3 65.6 258.2 64.5 L 260.7 71.7 A 18.546 18.546 0 0 1 259.082 72.556 Q 258.28 72.935 257.334 73.308 A 43.365 43.365 0 0 1 255.3 74.05 Q 251.9 75.2 248.2 75.2 Q 240.7 75.2 236.35 70.25 A 16.116 16.116 0 0 1 233.122 64.348 Q 232.359 61.917 232.115 58.98 A 34.777 34.777 0 0 1 232 56.1 Z M 392.3 74 L 383.3 74 L 383.3 22 L 392 22 L 392 33.3 Q 393.3 30 395.5 27.15 Q 397.7 24.3 401 22.55 A 14.817 14.817 0 0 1 405.68 21.026 A 19.459 19.459 0 0 1 408.7 20.8 Q 410.2 20.8 411.7 20.95 A 18.972 18.972 0 0 1 412.755 21.084 Q 413.255 21.162 413.682 21.262 A 8.817 8.817 0 0 1 414.2 21.4 L 411.5 30.7 A 9.763 9.763 0 0 0 409.355 30.088 Q 408.259 29.9 407 29.9 A 12.958 12.958 0 0 0 400.37 31.746 A 15.609 15.609 0 0 0 399.95 32 Q 396.622 34.086 394.478 38.442 A 22.927 22.927 0 0 0 394.45 38.5 Q 392.687 42.107 392.37 47.328 A 39.09 39.09 0 0 0 392.3 49.7 L 392.3 74 Z M 20.9 41.6 L 9.5 41.6 L 9.5 66.3 Q 14.8 66.9 20.9 66.9 Q 29.8 66.9 34.8 63.7 Q 39.8 60.5 39.8 54.4 A 11.728 11.728 0 0 0 38.928 49.8 Q 37.826 47.187 35.333 45.312 A 14.027 14.027 0 0 0 34.9 45 A 16.7 16.7 0 0 0 30.226 42.799 Q 26.303 41.6 20.9 41.6 Z M 9.5 11.4 L 9.5 34.2 L 20.5 34.2 Q 28.4 34.2 33.05 30.9 Q 37.7 27.6 37.7 22.4 A 10.798 10.798 0 0 0 37.026 18.501 Q 35.939 15.671 33.1 13.85 A 16.643 16.643 0 0 0 28.614 11.886 Q 25.125 10.9 20.5 10.9 Q 17.2 10.9 14.5 11.05 Q 11.8 11.2 9.5 11.4 Z M 67.6 44.4 L 96.1 44.4 A 24.355 24.355 0 0 0 95.696 39.815 Q 95.2 37.231 94.096 35.207 A 12.422 12.422 0 0 0 92.3 32.7 A 12.488 12.488 0 0 0 85.339 28.924 A 18.395 18.395 0 0 0 81.8 28.6 A 13.58 13.58 0 0 0 76.688 29.535 A 12.524 12.524 0 0 0 72.2 32.65 Q 68.4 36.7 67.6 44.4 Z M 122 44.4 L 150.5 44.4 A 24.355 24.355 0 0 0 150.096 39.815 Q 149.6 37.231 148.496 35.207 A 12.422 12.422 0 0 0 146.7 32.7 A 12.488 12.488 0 0 0 139.739 28.924 A 18.395 18.395 0 0 0 136.2 28.6 A 13.58 13.58 0 0 0 131.088 29.535 A 12.524 12.524 0 0 0 126.6 32.65 Q 122.8 36.7 122 44.4 Z M 334.5 44.4 L 363 44.4 A 24.355 24.355 0 0 0 362.596 39.815 Q 362.1 37.231 360.996 35.207 A 12.422 12.422 0 0 0 359.2 32.7 A 12.488 12.488 0 0 0 352.239 28.924 A 18.395 18.395 0 0 0 348.7 28.6 A 13.58 13.58 0 0 0 343.588 29.535 A 12.524 12.524 0 0 0 339.1 32.65 Q 335.3 36.7 334.5 44.4 Z M 425.8 44.4 L 454.3 44.4 A 24.355 24.355 0 0 0 453.896 39.815 Q 453.4 37.231 452.296 35.207 A 12.422 12.422 0 0 0 450.5 32.7 A 12.488 12.488 0 0 0 443.539 28.924 A 18.395 18.395 0 0 0 440 28.6 A 13.58 13.58 0 0 0 434.888 29.535 A 12.524 12.524 0 0 0 430.4 32.65 Q 426.6 36.7 425.8 44.4 Z" vector-effect="non-scaling-stroke"/></g></svg>