<svg xmlns="http://www.w3.org/2000/svg" width="345" height="138" fill="none"><g clip-path="url(#a)"><path fill="#262543" d="M190.792 16.5h76.416c5.922 0 10.334 0 13.831.286 3.491.285 6.026.852 8.202 1.961a20.623 20.623 0 0 1 9.012 9.012c1.109 2.176 1.676 4.711 1.961 8.202.286 3.497.286 7.909.286 13.831v94.416c0 5.922 0 10.334-.286 13.831-.285 3.491-.852 6.026-1.961 8.202a20.623 20.623 0 0 1-9.012 9.012c-2.176 1.109-4.711 1.676-8.202 1.961-3.497.286-7.909.286-13.831.286h-76.416c-5.922 0-10.334 0-13.831-.286-3.491-.285-6.026-.852-8.202-1.961a20.623 20.623 0 0 1-9.012-9.012c-1.109-2.176-1.676-4.711-1.961-8.202-.286-3.497-.286-7.909-.286-13.831V49.792c0-5.922 0-10.334.286-13.831.285-3.49.852-6.026 1.961-8.202a20.623 20.623 0 0 1 9.012-9.012c2.176-1.109 4.711-1.676 8.202-1.96 3.497-.287 7.909-.287 13.831-.287Z"/><path stroke="url(#b)" d="M190.792 16.5h76.416c5.922 0 10.334 0 13.831.286 3.491.285 6.026.852 8.202 1.961a20.623 20.623 0 0 1 9.012 9.012c1.109 2.176 1.676 4.711 1.961 8.202.286 3.497.286 7.909.286 13.831v94.416c0 5.922 0 10.334-.286 13.831-.285 3.491-.852 6.026-1.961 8.202a20.623 20.623 0 0 1-9.012 9.012c-2.176 1.109-4.711 1.676-8.202 1.961-3.497.286-7.909.286-13.831.286h-76.416c-5.922 0-10.334 0-13.831-.286-3.491-.285-6.026-.852-8.202-1.961a20.623 20.623 0 0 1-9.012-9.012c-1.109-2.176-1.676-4.711-1.961-8.202-.286-3.497-.286-7.909-.286-13.831V49.792c0-5.922 0-10.334.286-13.831.285-3.49.852-6.026 1.961-8.202a20.623 20.623 0 0 1 9.012-9.012c2.176-1.109 4.711-1.676 8.202-1.96 3.497-.287 7.909-.287 13.831-.287Z"/><path fill="#F7F7F7" d="M188.74 30.627v-3.433h-.052l-1.037.73v-.699l1.089-.765h.742v4.167h-.742ZM185.743 30.627v-.8h-2.039v-.61l.329-.562a54.437 54.437 0 0 1 .682-1.12c.115-.185.23-.367.343-.546.116-.181.231-.358.347-.529h1.048v2.752h.563v.615h-.563v.8h-.71Zm-1.346-1.397h1.357v-2.175h-.043l-.263.404-.269.425c-.09.144-.18.29-.268.436a32.092 32.092 0 0 0-.514.866v.044ZM182.41 30.067a.444.444 0 0 1-.459-.453.446.446 0 0 1 .459-.456.44.44 0 0 1 .329.132c.087.087.13.195.13.323a.444.444 0 0 1-.459.454Zm0-2.143a.444.444 0 0 1-.459-.453.446.446 0 0 1 .459-.456.44.44 0 0 1 .329.132c.087.087.13.195.13.324a.444.444 0 0 1-.459.453ZM179.433 26.356c.223 0 .435.042.635.124.2.081.378.208.532.382.155.17.278.391.366.66.089.268.133.59.133.968v.006c0 .468-.067.868-.202 1.201a1.69 1.69 0 0 1-.58.768c-.251.177-.55.266-.899.266-.256 0-.487-.046-.693-.139a1.42 1.42 0 0 1-.508-.386 1.346 1.346 0 0 1-.268-.566l-.006-.032h.73l.012.029a.722.722 0 0 0 .404.424.894.894 0 0 0 .329.058c.22 0 .399-.065.538-.194.14-.13.245-.305.314-.522.072-.22.112-.462.122-.728.002-.029.002-.057.002-.084v-.084l-.129-.695a.859.859 0 0 0-.11-.43.82.82 0 0 0-1.43-.01.804.804 0 0 0-.112.422v.006c0 .162.035.305.107.43.071.123.168.22.291.292a.828.828 0 0 0 .422.107.859.859 0 0 0 .424-.104.774.774 0 0 0 .298-.289.806.806 0 0 0 .11-.419v-.005h.173v.768h-.101a.99.99 0 0 1-.223.306c-.098.094-.219.17-.363.228-.143.058-.31.087-.503.087-.266 0-.5-.06-.705-.18a1.302 1.302 0 0 1-.482-.49 1.432 1.432 0 0 1-.173-.705v-.006c0-.283.065-.534.196-.753a1.4 1.4 0 0 1 .549-.52c.235-.127.501-.19.8-.19ZM287.143 27.912v1.417c.279-.12.462-.4.462-.709a.771.771 0 0 0-.462-.709ZM278.793 28.336c0-.487 0-.731.095-.917a.865.865 0 0 1 .38-.38c.186-.095.43-.095.917-.095h4.522c.487 0 .731 0 .917.095a.865.865 0 0 1 .38.38c.095.186.095.43.095.917v.348c0 .487 0 .73-.095.916a.866.866 0 0 1-.38.38c-.186.095-.43.095-.917.095h-4.522c-.487 0-.731 0-.917-.095a.866.866 0 0 1-.38-.38c-.095-.186-.095-.43-.095-.917v-.347Z"/><path fill="#F7F7F7" fill-rule="evenodd" d="M272.625 27.328c.866 0 1.698.32 2.325.896a.123.123 0 0 0 .169-.001l.451-.44a.119.119 0 0 0 .037-.086.118.118 0 0 0-.038-.085c-1.645-1.522-4.242-1.522-5.888 0a.117.117 0 0 0-.037.085.118.118 0 0 0 .036.086l.452.44a.123.123 0 0 0 .169.001 3.44 3.44 0 0 1 2.324-.896Zm-.001 1.468c.472 0 .928.178 1.278.5a.12.12 0 0 0 .168-.002l.448-.46a.131.131 0 0 0 .036-.09.126.126 0 0 0-.038-.09 2.748 2.748 0 0 0-3.782 0 .127.127 0 0 0-.002.18l.448.46a.12.12 0 0 0 .168.002c.349-.322.804-.5 1.276-.5Zm.878.972a.141.141 0 0 1-.035.098l-.757.854a.114.114 0 0 1-.084.039.111.111 0 0 1-.084-.04l-.758-.853a.141.141 0 0 1-.035-.098c0-.037.015-.071.039-.096a1.194 1.194 0 0 1 1.675 0c.025.025.039.06.039.096ZM267.035 26.833c0-.22-.166-.398-.371-.398h-.371c-.205 0-.371.178-.371.398v3.456c0 .22.166.399.371.399h.371c.205 0 .371-.178.371-.399v-3.456Zm-2.586.452h.371c.205 0 .371.183.371.409v2.586c0 .225-.166.408-.371.408h-.371c-.205 0-.372-.183-.372-.408v-2.586c0-.226.167-.409.372-.409Zm-1.507.922h-.371c-.205 0-.372.185-.372.413v1.654c0 .229.167.414.372.414h.371c.205 0 .371-.185.371-.413V28.62c0-.228-.166-.413-.371-.413Zm-1.844.85h-.372c-.204 0-.371.183-.371.408v.815c0 .226.167.408.371.408h.372c.204 0 .371-.182.371-.408v-.815c0-.225-.167-.407-.371-.407Z" clip-rule="evenodd"/><path fill="#B2B2B2" d="M270.752 57.498c-.322 0-.642-.061-.957-.185a2.34 2.34 0 0 1-.855-.6c-.254-.277-.457-.642-.61-1.094-.153-.456-.23-1.016-.23-1.68v-.01c0-.8.108-1.484.323-2.05.215-.57.524-1.005.927-1.304.404-.303.891-.454 1.46-.454.394 0 .749.073 1.065.22.319.143.584.344.796.605.215.257.361.56.439.908l.015.063h-.884l-.02-.053a1.422 1.422 0 0 0-.786-.84 1.62 1.62 0 0 0-.634-.117c-.427 0-.774.125-1.04.376-.267.247-.466.578-.596.99-.127.411-.2.862-.22 1.353a1.857 1.857 0 0 0-.005.132v.132l.21 1.172c0 .31.07.59.21.84.143.25.335.45.576.6.241.147.51.22.806.22a1.548 1.548 0 0 0 1.377-.806 1.62 1.62 0 0 0 .215-.825v-.01c0-.312-.069-.589-.205-.83a1.447 1.447 0 0 0-.557-.57 1.575 1.575 0 0 0-.815-.21c-.303 0-.577.068-.821.204a1.548 1.548 0 0 0-.576.567c-.14.237-.21.51-.21.815v.005h-.288v-1.27h.171c.088-.192.218-.37.391-.537.172-.166.384-.3.634-.4.251-.1.534-.151.85-.151.443 0 .838.102 1.187.307.348.205.621.485.82.84.202.355.303.758.303 1.211v.01c0 .468-.108.885-.323 1.25a2.317 2.317 0 0 1-.874.864 2.546 2.546 0 0 1-1.269.313ZM262.226 57.333v-.606l2.383-2.578c.3-.326.534-.594.703-.806.17-.215.288-.408.357-.58.068-.173.102-.362.102-.567v-.01c0-.247-.053-.469-.161-.664a1.18 1.18 0 0 0-.459-.464 1.408 1.408 0 0 0-.713-.17c-.28 0-.525.058-.737.175a1.212 1.212 0 0 0-.493.483 1.434 1.434 0 0 0-.176.723l-.005.01-.84-.005-.009-.005a2.058 2.058 0 0 1 1.123-1.87 2.504 2.504 0 0 1 1.196-.278c.41 0 .78.086 1.108.258.329.17.588.402.777.699.192.296.288.634.288 1.015v.01c0 .267-.047.524-.142.771-.091.248-.254.523-.488.826a14.8 14.8 0 0 1-.991 1.108l-1.822 1.88.22-.405v.405l-.215-.147h3.555v.792h-4.561ZM258.286 57.498c-.521 0-.967-.15-1.338-.449-.368-.3-.651-.724-.85-1.274-.198-.553-.297-1.208-.297-1.963v-.01c0-.755.099-1.408.297-1.958.199-.55.482-.975.85-1.274.371-.3.817-.45 1.338-.45.521 0 .967.15 1.338.45.371.3.656.724.854 1.274.202.55.303 1.203.303 1.958v.01c0 .755-.101 1.41-.303 1.963-.198.55-.483.975-.854 1.274-.371.3-.817.45-1.338.45Zm0-.766c.338 0 .627-.119.864-.356.241-.238.425-.575.552-1.011.13-.437.195-.954.195-1.553v-.01c0-.599-.065-1.115-.195-1.548-.127-.436-.311-.771-.552-1.005a1.176 1.176 0 0 0-.864-.357c-.335 0-.623.119-.864.356-.238.235-.42.57-.547 1.006-.127.433-.191.95-.191 1.548v.01c0 .599.064 1.117.191 1.553.127.436.309.773.547 1.01.241.238.529.357.864.357ZM252.71 57.333v-1.46h-3.433v-.801a241.805 241.805 0 0 1 1.187-1.949 128.155 128.155 0 0 1 1.225-1.928c.205-.313.407-.615.606-.908h1.274v4.8h1.001v.786h-1.001v1.46h-.859Zm-2.534-2.242h2.539v-3.989h-.059a140.777 140.777 0 0 0-.996 1.523 171.817 171.817 0 0 0-1.011 1.617c-.163.267-.32.53-.473.79v.06ZM244.707 54.891v-.79h3.281v.79h-3.281ZM240.908 57.498c-.436 0-.825-.086-1.167-.258a2.197 2.197 0 0 1-.825-.703 2.107 2.107 0 0 1-.361-1.011l-.005-.054h.844l.005.04c.03.224.111.429.244.614.137.183.314.328.533.435.221.108.468.161.742.161.312 0 .587-.068.825-.205.238-.14.423-.332.557-.576.133-.244.2-.524.2-.84v-.01c0-.312-.069-.589-.205-.83a1.464 1.464 0 0 0-.552-.571 1.58 1.58 0 0 0-.811-.205c-.234 0-.45.036-.649.107a1.526 1.526 0 0 0-.522.323 1.892 1.892 0 0 0-.176.19 1.783 1.783 0 0 0-.147.23h-.761l.371-4.048h3.921v.786h-3.228l-.239 2.383h.078c.104-.16.233-.293.386-.4.153-.108.324-.19.512-.245.192-.059.394-.088.606-.088.443 0 .835.103 1.177.308.341.202.61.48.805.835.196.351.293.755.293 1.21v.01c0 .472-.106.89-.317 1.255a2.245 2.245 0 0 1-.864.85 2.564 2.564 0 0 1-1.27.307ZM234.726 57.498c-.436 0-.825-.086-1.167-.258a2.212 2.212 0 0 1-.825-.703 2.117 2.117 0 0 1-.361-1.011l-.005-.054h.845l.005.04c.029.224.11.429.244.614.136.183.314.328.532.435.221.108.469.161.742.161.313 0 .588-.068.825-.205.238-.14.424-.332.557-.576.133-.244.2-.524.2-.84v-.01c0-.312-.068-.589-.205-.83a1.45 1.45 0 0 0-.552-.571 1.576 1.576 0 0 0-.81-.205c-.235 0-.451.036-.65.107a1.526 1.526 0 0 0-.522.323 1.892 1.892 0 0 0-.176.19 1.678 1.678 0 0 0-.146.23h-.762l.371-4.048h3.921v.786h-3.228l-.239 2.383h.078c.104-.16.233-.293.386-.4.153-.108.324-.19.513-.245.192-.059.394-.088.605-.088.443 0 .835.103 1.177.308.342.202.61.48.806.835.195.351.293.755.293 1.21v.01c0 .472-.106.89-.318 1.255a2.231 2.231 0 0 1-.864.85 2.564 2.564 0 0 1-1.27.307ZM228.545 57.498c-.436 0-.825-.086-1.167-.258a2.197 2.197 0 0 1-.825-.703 2.108 2.108 0 0 1-.362-1.011l-.005-.054h.845l.005.04c.029.224.111.429.244.614.137.183.314.328.532.435.222.108.469.161.743.161.312 0 .587-.068.825-.205a1.48 1.48 0 0 0 .556-.576c.134-.244.201-.524.201-.84v-.01c0-.312-.069-.589-.206-.83a1.454 1.454 0 0 0-.551-.571 1.582 1.582 0 0 0-.811-.205c-.234 0-.451.036-.649.107a1.52 1.52 0 0 0-.523.323c-.062.058-.12.122-.176.19a1.78 1.78 0 0 0-.146.23h-.762l.371-4.048h3.921v.786h-3.227l-.24 2.383h.079c.104-.16.232-.293.385-.4.153-.108.324-.19.513-.245.192-.059.394-.088.606-.088.442 0 .834.103 1.176.308.342.202.611.48.806.835.195.351.293.755.293 1.21v.01c0 .472-.106.89-.317 1.255a2.24 2.24 0 0 1-.865.85 2.563 2.563 0 0 1-1.269.307ZM220.063 59.09h-.713c.176-.224.339-.508.489-.85.153-.338.285-.712.395-1.122.111-.414.197-.84.259-1.28.062-.442.093-.877.093-1.303 0-.423-.031-.855-.093-1.294-.062-.443-.148-.87-.259-1.28a7.48 7.48 0 0 0-.395-1.132 3.952 3.952 0 0 0-.489-.85h.713c.319.42.581.867.786 1.343.206.472.357.975.455 1.509.097.53.146 1.098.146 1.704 0 .605-.05 1.175-.151 1.709a6.901 6.901 0 0 1-.454 1.508 6.312 6.312 0 0 1-.782 1.338ZM213.564 57.333v-.606l2.383-2.578c.3-.326.534-.594.703-.806a2.45 2.45 0 0 0 .357-.58c.068-.173.102-.362.102-.567v-.01a1.36 1.36 0 0 0-.161-.664 1.18 1.18 0 0 0-.459-.464 1.408 1.408 0 0 0-.713-.17c-.28 0-.526.058-.737.175a1.212 1.212 0 0 0-.493.483 1.434 1.434 0 0 0-.176.723l-.005.01-.84-.005-.01-.005a2.062 2.062 0 0 1 1.123-1.87 2.511 2.511 0 0 1 1.197-.278c.41 0 .779.086 1.108.258.329.17.588.402.777.699.192.296.288.634.288 1.015v.01c0 .267-.048.524-.142.771-.091.248-.254.523-.488.826a14.8 14.8 0 0 1-.991 1.108l-1.822 1.88.22-.405v.405l-.215-.147h3.555v.792h-4.561ZM210.649 57.333v-6.07h-.078l-1.792 1.299v-.928l1.875-1.347h.874v7.046h-.879ZM202.89 57.333v-.606l2.383-2.578c.3-.326.534-.594.703-.806.17-.215.288-.408.357-.58.068-.173.102-.362.102-.567v-.01c0-.247-.053-.469-.161-.664a1.18 1.18 0 0 0-.459-.464 1.408 1.408 0 0 0-.713-.17c-.28 0-.525.058-.737.175a1.212 1.212 0 0 0-.493.483 1.434 1.434 0 0 0-.176.723l-.005.01-.84-.005-.009-.005a2.058 2.058 0 0 1 1.123-1.87 2.504 2.504 0 0 1 1.196-.278c.41 0 .78.086 1.108.258.329.17.588.402.777.699.192.296.288.634.288 1.015v.01c0 .267-.047.524-.142.771-.091.248-.254.523-.488.826-.234.3-.565.669-.991 1.108l-1.822 1.88.22-.405v.405l-.215-.147h3.555v.792h-4.561ZM200.854 59.09a6.62 6.62 0 0 1-.781-1.338 7.077 7.077 0 0 1-.459-1.508 9.466 9.466 0 0 1-.146-1.71c0-.605.048-1.173.146-1.703a6.9 6.9 0 0 1 .454-1.51 6.41 6.41 0 0 1 .786-1.342h.713c-.176.225-.34.508-.493.85-.15.341-.28.719-.391 1.132-.11.41-.197.837-.258 1.28-.062.44-.093.87-.093 1.294 0 .426.031.86.093 1.303.061.44.148.866.258 1.28.111.41.241.784.391 1.123.153.342.317.625.493.85h-.713ZM193.345 57.333v-6.07h-.079l-1.792 1.299v-.928l1.875-1.347h.874v7.046h-.878ZM185.102 54.891v-.79h5.166v.79h-5.166Zm2.188 2.236v-5.263h.791v5.263h-.791Z"/><path fill="#F7F7F7" d="M274.415 74.415c-.979 0-1.685-.18-2.117-.539-.432-.36-.648-.948-.648-1.765v-4.766h-1.328v-1.508h1.328v-2.094h1.976v2.094h1.797v1.508h-1.797v4.305c0 .421.089.731.266.93.182.192.474.288.875.288.14 0 .255-.002.344-.007l.312-.032v1.5a5.923 5.923 0 0 1-1.008.086ZM261.355 74.376v-8.539h1.945v1.313h.133a2.38 2.38 0 0 1 .922-1.086c.411-.26.924-.39 1.539-.39.953 0 1.682.275 2.187.827.505.552.758 1.336.758 2.352v5.523h-1.945v-5.07c0-.667-.141-1.167-.422-1.5-.276-.333-.708-.5-1.297-.5-.385 0-.719.086-1 .258a1.693 1.693 0 0 0-.648.726c-.151.313-.227.683-.227 1.11v4.976h-1.945ZM255.653 74.548c-.849 0-1.578-.18-2.187-.539a3.6 3.6 0 0 1-1.399-1.531c-.328-.662-.492-1.445-.492-2.352v-.008c0-.895.162-1.677.485-2.343a3.648 3.648 0 0 1 1.39-1.547c.599-.37 1.302-.555 2.11-.555.812 0 1.51.18 2.093.54a3.528 3.528 0 0 1 1.36 1.491c.318.641.476 1.391.476 2.25v.641h-6.937V69.29h5.984l-.922 1.219v-.773c0-.568-.086-1.04-.257-1.415-.172-.374-.412-.656-.719-.843a1.96 1.96 0 0 0-1.055-.281c-.401 0-.758.099-1.07.296-.307.193-.552.48-.735.86-.177.375-.265.836-.265 1.383v.78c0 .527.088.977.265 1.352.178.37.428.657.75.86.329.198.717.297 1.164.297.349 0 .649-.05.899-.149.255-.104.461-.226.617-.367a1.45 1.45 0 0 0 .328-.414l.024-.055h1.843l-.015.07a2.856 2.856 0 0 1-.375.844 3.186 3.186 0 0 1-.727.79c-.302.239-.672.434-1.109.585-.438.146-.945.22-1.524.22ZM245.624 77.376c-.75 0-1.398-.099-1.945-.297-.542-.198-.969-.479-1.282-.843a2.39 2.39 0 0 1-.57-1.258l.008-.024h1.937l.016.024c.063.27.253.492.57.664.323.177.756.266 1.297.266.667 0 1.183-.149 1.547-.446.37-.297.555-.719.555-1.266v-1.64h-.133a2.491 2.491 0 0 1-.633.781 2.637 2.637 0 0 1-.883.484c-.328.105-.69.157-1.086.157-.718 0-1.341-.172-1.867-.516a3.423 3.423 0 0 1-1.218-1.445c-.282-.615-.422-1.326-.422-2.133v-.016c0-.822.143-1.546.429-2.171.287-.626.693-1.115 1.219-1.47.531-.353 1.164-.53 1.899-.53.395 0 .757.062 1.085.187a2.736 2.736 0 0 1 1.5 1.36h.102v-1.407h1.945v8.328c0 .656-.166 1.224-.5 1.703-.328.485-.797.857-1.406 1.118-.609.26-1.331.39-2.164.39Zm0-4.945c.448 0 .833-.107 1.156-.32.323-.22.571-.519.742-.899.178-.38.266-.823.266-1.328v-.016c0-.505-.088-.947-.266-1.328a2.039 2.039 0 0 0-.742-.898c-.323-.219-.708-.328-1.156-.328-.453 0-.838.11-1.156.328a2.034 2.034 0 0 0-.719.898c-.161.38-.242.823-.242 1.328v.016c0 .5.081.943.242 1.328.167.38.406.68.719.899.318.213.703.32 1.156.32ZM230.493 74.376l4-11.273h1.672v2.093h-.602l-2.961 9.18h-2.109Zm2.016-2.914.523-1.555h5.172l.523 1.555h-6.218Zm6.148 2.914-2.961-9.18v-2.093h1.063l4.008 11.273h-2.11ZM222.684 74.376v-8.539h1.938v8.54h-1.938Zm.977-9.969c-.318 0-.591-.111-.82-.335a1.083 1.083 0 0 1-.344-.805c0-.323.114-.594.344-.813.229-.224.502-.336.82-.336.318 0 .588.112.812.336.23.22.344.49.344.813 0 .312-.114.58-.344.804a1.105 1.105 0 0 1-.812.337ZM215.85 74.517a3.253 3.253 0 0 1-1.445-.313 2.457 2.457 0 0 1-1-.882c-.24-.386-.359-.839-.359-1.36v-.016c0-.505.125-.94.375-1.304.25-.37.617-.659 1.101-.867.485-.209 1.073-.331 1.766-.368l3.156-.195v1.281l-2.883.188c-.547.031-.95.146-1.211.344-.26.198-.39.474-.39.828v.015c0 .365.138.649.414.852.281.203.638.305 1.07.305.391 0 .74-.079 1.047-.235.307-.156.549-.367.726-.633.178-.27.266-.575.266-.914V68.54c0-.427-.135-.752-.406-.976-.271-.23-.672-.344-1.203-.344-.443 0-.805.078-1.086.234a1.16 1.16 0 0 0-.571.649l-.007.031h-1.836l.008-.07c.062-.48.25-.899.562-1.258.313-.36.727-.638 1.242-.836.516-.198 1.11-.297 1.781-.297.74 0 1.365.115 1.875.344.511.224.899.552 1.165.984.265.427.398.94.398 1.54v5.835h-1.922v-1.172h-.133a2.45 2.45 0 0 1-.609.704 2.634 2.634 0 0 1-.844.453 3.342 3.342 0 0 1-1.047.156ZM209.782 74.525c-.354 0-.651-.118-.891-.352a1.206 1.206 0 0 1-.351-.875c0-.349.117-.64.351-.875.24-.24.537-.36.891-.36.359 0 .656.12.89.36.235.234.352.526.352.875a1.205 1.205 0 0 1-1.242 1.227ZM204.026 74.376V62.532h1.945v11.844h-1.945ZM197.137 74.517a3.253 3.253 0 0 1-1.445-.313 2.457 2.457 0 0 1-1-.882c-.24-.386-.36-.839-.36-1.36v-.016c0-.505.125-.94.375-1.304.25-.37.618-.659 1.102-.867.484-.209 1.073-.331 1.766-.368l3.156-.195v1.281l-2.883.188c-.547.031-.95.146-1.211.344-.26.198-.39.474-.39.828v.015c0 .365.138.649.414.852.281.203.638.305 1.07.305.391 0 .74-.079 1.047-.235.307-.156.549-.367.726-.633.177-.27.266-.575.266-.914V68.54c0-.427-.135-.752-.406-.976-.271-.23-.672-.344-1.203-.344-.443 0-.805.078-1.086.234a1.156 1.156 0 0 0-.571.649l-.007.031h-1.836l.007-.07c.063-.48.25-.899.563-1.258.312-.36.726-.638 1.242-.836.516-.198 1.109-.297 1.781-.297.74 0 1.365.115 1.875.344.511.224.899.552 1.164.984.266.427.399.94.399 1.54v5.835h-1.922v-1.172h-.133a2.45 2.45 0 0 1-.609.704 2.634 2.634 0 0 1-.844.453 3.347 3.347 0 0 1-1.047.156ZM188.077 74.657c-1.068 0-1.99-.24-2.766-.718-.771-.48-1.367-1.16-1.789-2.04-.417-.885-.625-1.934-.625-3.148v-.015c0-1.22.208-2.269.625-3.149.422-.885 1.018-1.568 1.789-2.047.771-.479 1.69-.718 2.758-.718.854 0 1.625.169 2.312.507a4.425 4.425 0 0 1 1.68 1.391c.432.588.693 1.266.781 2.031l-.008.063h-1.968l-.008-.04a2.752 2.752 0 0 0-.531-1.156 2.66 2.66 0 0 0-.969-.773 2.909 2.909 0 0 0-1.289-.281c-.636 0-1.188.169-1.657.508-.468.338-.83.82-1.085 1.445-.25.62-.375 1.357-.375 2.21v.016c0 .855.125 1.594.375 2.22.255.624.617 1.106 1.085 1.445.469.338 1.024.507 1.665.507.479 0 .908-.083 1.289-.25a2.506 2.506 0 0 0 1.492-1.781l.015-.047h1.969v.063a4.076 4.076 0 0 1-.789 1.968 4.37 4.37 0 0 1-1.656 1.32c-.677.313-1.451.47-2.32.47Z"/><path fill="#262543" stroke="url(#c)" stroke-width=".44" d="M214.292 24.175h29.378a3.9 3.9 0 0 1 0 7.8h-29.378a3.901 3.901 0 0 1 0-7.8Z"/><path fill="url(#d)" fill-opacity=".54" d="M18.398 91.9a1.398 1.398 0 1 0-2.796 0 1.398 1.398 0 0 0 2.796 0ZM17 91.9h.262V28.1h-.524v63.8H17Z"/><path fill="#1D1C3C" d="M40.435 32.942h114.627a7.935 7.935 0 0 1 7.934 7.935v29.932a7.935 7.935 0 0 1-7.934 7.934H40.435A7.935 7.935 0 0 1 32.5 70.81V40.877a7.935 7.935 0 0 1 7.935-7.935Z"/><path stroke="url(#e)" d="M40.435 32.942h114.627a7.935 7.935 0 0 1 7.934 7.935v29.932a7.935 7.935 0 0 1-7.934 7.934H40.435A7.935 7.935 0 0 1 32.5 70.81V40.877a7.935 7.935 0 0 1 7.935-7.935Z"/><g clip-path="url(#f)"><rect width="9.835" height="9.835" x="37.901" y="38.343" fill="url(#g)" rx="4.918"/><g filter="url(#h)"><path fill="url(#i)" d="M51.695 61.165s3.714-13.667-3.434-21.418c-7.756 2.394-8.45 16.366-6.626 21.413 2.077 5.749 4.664 8.976 6.528 6.528 1.865-2.448 3.532-6.523 3.532-6.523Z"/></g><g filter="url(#j)"><path fill="url(#k)" fill-opacity=".5" d="M45.297 67.81c-2.455-2.457-3.208-12.252-1.061-22.889.377 6.979 1.616 21.432 1.062 22.889Zm1.786.608c2.508-6.524 6.337-20.12 7.439-21.22 2.002 2.94-.7 13.855-7.44 21.22Z"/></g><g filter="url(#l)" opacity=".56"><g filter="url(#m)"><path fill="url(#n)" d="M52.674 64.62s4.678-17.214-4.326-26.977c-9.768 3.015-10.641 20.614-8.345 26.97 2.616 7.241 5.874 11.306 8.223 8.223 2.348-3.083 4.448-8.217 4.448-8.217Z"/></g><g filter="url(#o)"><path fill="url(#p)" fill-opacity=".5" d="M44.616 72.989c-3.093-3.094-4.041-15.432-1.337-28.83.476 8.79 2.036 26.994 1.337 28.83Zm2.25.765c3.158-8.216 7.981-25.34 9.368-26.728 2.522 3.705-.88 17.452-9.369 26.728Z"/></g></g><g filter="url(#q)"><circle cx="45.623" cy="42.627" r=".134" fill="#BFACFF"/></g><g filter="url(#r)"><circle cx="45.95" cy="42.32" r=".134" fill="#BFACFF"/></g><g filter="url(#s)"><circle cx="45.21" cy="42.445" r=".067" fill="#BFACFF"/></g><g filter="url(#t)"><path fill="url(#u)" d="m46.065 42.364.027.032c.01.013-.003.032-.018.026l-.04-.013a.153.153 0 0 0-.146.026l-.032.027c-.013.01-.032-.003-.026-.018l.013-.04a.152.152 0 0 0-.026-.146l-.027-.032c-.01-.013.002-.032.018-.026l.04.013a.153.153 0 0 0 .145-.026l.033-.027c.013-.01.032.003.026.019l-.013.04a.152.152 0 0 0 .026.145Z"/></g><g filter="url(#v)"><path fill="url(#w)" d="m45.32 42.501.02.025c.008.01-.002.023-.013.02l-.03-.01a.114.114 0 0 0-.11.019l-.023.02c-.01.008-.024-.002-.02-.014l.01-.03a.114.114 0 0 0-.02-.109l-.02-.024c-.008-.01.002-.024.014-.02l.03.01a.114.114 0 0 0 .109-.02l.024-.02c.01-.007.024.003.02.014l-.01.03a.114.114 0 0 0 .02.11Z"/></g><g filter="url(#x)"><path fill="url(#y)" d="m45.66 42.805-.015.054c-.007.022-.037.022-.043 0l-.016-.054a.204.204 0 0 0-.14-.14l-.055-.016c-.022-.007-.022-.037 0-.043l.055-.016a.205.205 0 0 0 .14-.14l.016-.055a.022.022 0 0 1 .043 0l.015.054a.204.204 0 0 0 .141.141l.055.016c.021.006.021.036 0 .043l-.055.015a.206.206 0 0 0-.14.14Z"/></g><g filter="url(#z)"><circle cx="39.572" cy="46.872" r=".019" fill="#fff" fill-opacity=".78" shape-rendering="crispEdges"/></g><g filter="url(#A)"><circle cx="39.937" cy="46.603" r=".019" fill="#fff" fill-opacity=".78" shape-rendering="crispEdges"/></g><circle cx="39.534" cy="46.354" r=".058" fill="#fff"/><circle cx="41.013" cy="45.97" r=".038" fill="#fff"/><g opacity=".51"><g filter="url(#B)"><circle cx="39.572" cy="46.872" r=".019" fill="#fff" fill-opacity=".78" shape-rendering="crispEdges"/></g><g filter="url(#C)"><circle cx="39.937" cy="46.603" r=".019" fill="#fff" fill-opacity=".78" shape-rendering="crispEdges"/></g><circle cx="39.534" cy="46.354" r=".058" fill="#fff"/><circle cx="41.013" cy="45.97" r=".038" fill="#fff"/><g filter="url(#D)"><circle cx="40.125" cy="43.393" r=".03" fill="#D9D9D9"/></g><g filter="url(#E)"><circle cx="46.427" cy="39.068" r=".03" fill="#D9D9D9" transform="rotate(180 46.427 39.068)"/></g><g filter="url(#F)"><circle cx="40.679" cy="40.636" r=".03" fill="#D9D9D9" transform="rotate(180 40.679 40.636)"/></g><g filter="url(#G)"><circle cx="40.984" cy="40.219" r=".03" fill="#D9D9D9" transform="rotate(180 40.984 40.219)"/></g><g filter="url(#H)"><circle cx="39.016" cy="39.363" r=".03" fill="#D9D9D9" transform="rotate(180 39.016 39.363)"/></g><g filter="url(#I)"><circle cx="40.746" cy="38.721" r=".03" fill="#D9D9D9"/></g><g filter="url(#J)"><circle cx="45.806" cy="43.74" r=".03" fill="#D9D9D9" transform="rotate(180 45.806 43.74)"/></g><g filter="url(#K)"><circle cx="39.359" cy="41.147" r=".03" fill="#D9D9D9" transform="rotate(180 39.36 41.147)"/></g><g filter="url(#L)"><circle cx="39.261" cy="44.096" r=".03" fill="#D9D9D9" transform="rotate(180 39.26 44.096)"/></g><circle cx="39.576" cy="43.689" r=".02" fill="#D9D9D9" transform="rotate(180 39.576 43.689)"/><circle cx="38.405" cy="44.045" r=".02" fill="#D9D9D9" transform="rotate(180 38.405 44.045)"/><circle cx="42.355" cy="45.267" r=".02" fill="#D9D9D9" transform="rotate(180 42.355 45.267)"/><circle cx="39.247" cy="40.841" r=".02" fill="#D9D9D9"/><circle cx=".02" cy=".02" r=".02" fill="#D9D9D9" transform="matrix(1 0 0 -1 39.79 45.49)"/><g filter="url(#M)"><circle cx="42.819" cy="41.276" r=".019" fill="#fff" fill-opacity=".78" shape-rendering="crispEdges"/></g><circle cx="42.415" cy="41.026" r=".058" fill="#fff"/><circle cx="43.895" cy="40.642" r=".038" fill="#fff"/><circle cx="45.236" cy="39.939" r=".02" fill="#D9D9D9" transform="rotate(180 45.236 39.94)"/><circle cx=".02" cy=".02" r=".02" fill="#D9D9D9" transform="matrix(1 0 0 -1 42.67 40.163)"/><g filter="url(#N)"><circle cx="43.875" cy="47.019" r=".019" fill="#fff" fill-opacity=".78" shape-rendering="crispEdges"/></g><circle cx="43.472" cy="46.77" r=".058" fill="#fff"/><circle cx="44.951" cy="46.386" r=".038" fill="#fff"/><circle cx="46.293" cy="45.683" r=".02" fill="#D9D9D9" transform="rotate(180 46.293 45.683)"/><circle cx=".02" cy=".02" r=".02" fill="#D9D9D9" transform="matrix(1 0 0 -1 43.727 45.907)"/></g><g clip-path="url(#O)"><path stroke="#070A0D" stroke-linecap="round" stroke-linejoin="round" stroke-width=".659" d="M42.583 42.162V40.99h-1.171m-1.757 2.93h.585m4.686 0h.586m-2.05-.294v.586m-1.757-.586v.586m-.879-2.05h3.515c.323 0 .585.262.585.586v2.343a.586.586 0 0 1-.585.585h-3.515a.586.586 0 0 1-.586-.585v-2.343c0-.324.263-.586.586-.586Z"/></g></g><path fill="#F7F7F7" d="M91.682 41.387v.685h-2.159v-.685h2.159Zm-1.626-.9h.885v3.526c0 .119.018.21.054.274a.29.29 0 0 0 .146.127.56.56 0 0 0 .201.034.86.86 0 0 0 .152-.012c.047-.008.083-.016.107-.022l.15.692a1.66 1.66 0 0 1-.52.088 1.443 1.443 0 0 1-.6-.1.932.932 0 0 1-.423-.348 1.034 1.034 0 0 1-.152-.586v-3.673ZM86.496 42.942v2.2h-.885v-3.755h.846v.638h.044c.087-.21.224-.377.413-.501.191-.124.427-.186.707-.186.26 0 .485.056.677.166.194.111.344.272.45.482.108.21.16.465.159.765v2.391h-.885v-2.254c0-.25-.065-.447-.196-.589-.128-.142-.307-.213-.535-.213a.823.823 0 0 0-.413.103.712.712 0 0 0-.281.291.982.982 0 0 0-.1.462ZM83.193 45.216c-.377 0-.702-.078-.976-.235a1.589 1.589 0 0 1-.628-.67 2.244 2.244 0 0 1-.22-1.024c0-.386.073-.725.22-1.017.148-.294.355-.522.62-.685.266-.165.579-.247.937-.247.232 0 .45.038.655.113.207.073.39.187.548.342.16.155.285.352.377.592.09.238.136.521.136.85v.272h-3.078v-.597h2.23a.951.951 0 0 0-.11-.452.8.8 0 0 0-.3-.315.845.845 0 0 0-.446-.115c-.18 0-.34.044-.476.132a.91.91 0 0 0-.32.342.985.985 0 0 0-.115.462v.52c0 .22.04.407.12.563.08.155.19.274.334.357.144.082.312.122.504.122.129 0 .245-.018.35-.054a.776.776 0 0 0 .27-.163.682.682 0 0 0 .174-.267l.827.093c-.052.218-.152.41-.298.572-.146.162-.331.287-.558.377a2.136 2.136 0 0 1-.777.132ZM78.86 46.629c-.317 0-.59-.043-.819-.13a1.454 1.454 0 0 1-.55-.342 1.184 1.184 0 0 1-.288-.477l.797-.193a.875.875 0 0 0 .156.218c.069.073.16.133.276.18.118.05.265.074.443.074.251 0 .459-.061.624-.183.164-.121.246-.32.246-.597v-.711h-.044a1.253 1.253 0 0 1-.2.28 1.024 1.024 0 0 1-.345.243c-.142.065-.32.098-.535.098-.289 0-.55-.068-.785-.203a1.454 1.454 0 0 1-.557-.611c-.137-.273-.206-.613-.206-1.023 0-.412.069-.76.206-1.043.138-.286.325-.502.56-.648a1.44 1.44 0 0 1 .784-.223c.22 0 .401.038.543.113.143.073.258.162.342.266.085.103.15.2.193.291h.05v-.62h.872v3.816c0 .32-.077.586-.23.797a1.38 1.38 0 0 1-.628.471 2.46 2.46 0 0 1-.905.157Zm.008-2.235a.822.822 0 0 0 .479-.137.844.844 0 0 0 .3-.393c.07-.171.103-.377.103-.616a1.72 1.72 0 0 0-.102-.621.886.886 0 0 0-.299-.413.771.771 0 0 0-.481-.15.78.78 0 0 0-.494.154.932.932 0 0 0-.298.423c-.067.178-.1.38-.1.607 0 .23.033.43.1.604a.891.891 0 0 0 .3.4.83.83 0 0 0 .492.142ZM73.042 45.142h-.969l1.763-5.007h1.12l1.765 5.007h-.968l-1.337-3.98h-.04l-1.334 3.98Zm.031-1.963h2.64v.729h-2.64v-.729ZM68.857 45.142v-3.755h.885v3.755h-.885Zm.445-4.288a.516.516 0 0 1-.362-.14.45.45 0 0 1-.152-.34c0-.133.05-.246.152-.339a.511.511 0 0 1 .362-.142c.141 0 .262.048.361.142a.444.444 0 0 1 .152.34.45.45 0 0 1-.151.34c-.1.093-.22.14-.362.14ZM65.984 45.218c-.238 0-.452-.042-.643-.127a1.05 1.05 0 0 1-.45-.381 1.116 1.116 0 0 1-.164-.621c0-.212.04-.387.118-.526a.91.91 0 0 1 .32-.333c.135-.083.288-.145.457-.188.171-.044.348-.075.53-.095.22-.023.4-.043.536-.061a.794.794 0 0 0 .298-.088c.064-.041.096-.104.096-.189v-.014c0-.184-.055-.327-.164-.428-.11-.101-.267-.152-.472-.152-.217 0-.389.048-.516.142a.704.704 0 0 0-.254.335l-.826-.117a1.32 1.32 0 0 1 .322-.572c.15-.155.334-.27.55-.347.217-.079.457-.118.72-.118.18 0 .36.021.54.064.179.042.343.112.49.21.15.096.268.227.358.394.091.166.137.374.137.623v2.513h-.851v-.516h-.03a1.078 1.078 0 0 1-.591.512c-.145.053-.315.08-.511.08Zm.23-.65a.962.962 0 0 0 .462-.105.777.777 0 0 0 .3-.284.722.722 0 0 0 .108-.384v-.442a.416.416 0 0 1-.142.063c-.065.02-.138.037-.22.052a6.707 6.707 0 0 1-.242.039l-.208.03c-.132.017-.25.046-.354.087a.588.588 0 0 0-.247.171.418.418 0 0 0-.09.279c0 .163.06.286.178.37.119.082.27.124.455.124ZM63.452 45.196a.524.524 0 0 1-.382-.156.507.507 0 0 1-.156-.382.501.501 0 0 1 .156-.376.524.524 0 0 1 .382-.157c.143 0 .268.053.374.157a.515.515 0 0 1 .085.648.562.562 0 0 1-.195.195.509.509 0 0 1-.264.071ZM61.996 40.135v5.007h-.885v-5.007h.885ZM58.239 45.218c-.238 0-.453-.042-.643-.127a1.05 1.05 0 0 1-.45-.381 1.116 1.116 0 0 1-.164-.621c0-.212.04-.387.117-.526a.91.91 0 0 1 .32-.333c.136-.083.288-.145.458-.188.171-.044.348-.075.53-.095.22-.023.399-.043.536-.061a.794.794 0 0 0 .298-.088c.064-.041.095-.104.095-.189v-.014c0-.184-.054-.327-.163-.428-.11-.101-.267-.152-.472-.152-.217 0-.389.048-.516.142a.704.704 0 0 0-.254.335l-.827-.117a1.32 1.32 0 0 1 .323-.572c.15-.155.333-.27.55-.347.217-.079.456-.118.719-.118.18 0 .36.021.54.064.18.042.343.112.492.21.148.096.267.227.356.394.092.166.137.374.137.623v2.513h-.85v-.516h-.03a1.078 1.078 0 0 1-.591.512c-.145.053-.316.08-.511.08Zm.23-.65a.962.962 0 0 0 .462-.105.777.777 0 0 0 .3-.284.722.722 0 0 0 .108-.384v-.442a.417.417 0 0 1-.142.063c-.065.02-.139.037-.22.052a6.707 6.707 0 0 1-.242.039l-.208.03c-.132.017-.25.046-.354.087a.588.588 0 0 0-.247.171.418.418 0 0 0-.09.279c0 .163.059.286.178.37.119.082.27.124.454.124ZM56.367 41.825h-.915a1.139 1.139 0 0 0-.144-.399 1.073 1.073 0 0 0-.619-.481 1.393 1.393 0 0 0-.428-.064c-.272 0-.513.069-.723.205-.21.136-.375.334-.494.597-.119.26-.178.58-.178.956 0 .383.059.706.178.968.12.26.285.458.494.592.21.132.45.198.721.198.15 0 .29-.02.42-.059.133-.04.25-.1.355-.178a1.092 1.092 0 0 0 .418-.68l.914.005a1.968 1.968 0 0 1-.222.67 1.973 1.973 0 0 1-1.083.924 2.388 2.388 0 0 1-.814.132c-.44 0-.833-.102-1.179-.306a2.134 2.134 0 0 1-.816-.882c-.199-.385-.298-.846-.298-1.384 0-.54.1-1 .3-1.384.2-.385.474-.679.82-.883a2.267 2.267 0 0 1 1.173-.305c.279 0 .538.039.777.117.24.079.453.193.64.345.188.15.342.334.463.552.122.217.202.465.24.744Z"/><g fill="#F7F7F7" opacity=".6"><path d="M92.05 67.902v-.047c.004-.303.034-.544.091-.723.059-.18.142-.325.25-.436a1.91 1.91 0 0 1 .388-.303c.098-.062.186-.13.264-.207a.881.881 0 0 0 .186-.265c.046-.099.069-.209.069-.33a.678.678 0 0 0-.103-.376.683.683 0 0 0-.274-.245.854.854 0 0 0-.736-.01.68.68 0 0 0-.283.245.832.832 0 0 0-.13.423h-.743c.011-.293.086-.541.222-.743a1.3 1.3 0 0 1 .543-.462c.227-.105.477-.157.75-.157.3 0 .563.057.788.169a1.246 1.246 0 0 1 .711 1.164 1.224 1.224 0 0 1-.33.883c-.104.114-.23.215-.376.302a1.653 1.653 0 0 0-.338.27.858.858 0 0 0-.185.33c-.04.127-.06.284-.064.471v.047h-.7Zm.37 1.486a.475.475 0 0 1-.345-.142.473.473 0 0 1-.144-.347c0-.133.048-.247.144-.342a.47.47 0 0 1 .345-.144c.132 0 .246.048.342.144a.459.459 0 0 1 .147.342.506.506 0 0 1-.245.423.466.466 0 0 1-.244.066ZM87.814 70.75a1.528 1.528 0 0 1-.499-.08l.176-.6c.134.036.253.052.357.047a.427.427 0 0 0 .276-.118.905.905 0 0 0 .216-.359l.09-.25-1.374-3.803h.782l.951 2.914h.04l.95-2.914h.785l-1.547 4.256a1.7 1.7 0 0 1-.274.496c-.11.137-.243.24-.396.308-.153.069-.331.103-.533.103ZM84.66 69.425c-.239 0-.454-.044-.646-.132a1.088 1.088 0 0 1-.457-.389 1.115 1.115 0 0 1-.166-.623c0-.212.04-.387.122-.523a.902.902 0 0 1 .33-.326c.138-.08.293-.14.464-.18.171-.041.346-.072.524-.093l.547-.064a.804.804 0 0 0 .306-.085c.063-.04.095-.103.095-.191v-.017c0-.214-.06-.38-.18-.497-.12-.117-.297-.176-.534-.176-.246 0-.44.055-.582.164a.876.876 0 0 0-.29.36l-.688-.157c.082-.228.2-.412.357-.552.159-.142.34-.245.546-.309.205-.065.42-.097.647-.097.15 0 .31.018.477.053.17.035.328.098.475.191.148.093.27.226.364.399.094.17.142.393.142.667v2.494h-.714v-.514h-.03a1.041 1.041 0 0 1-.212.28 1.131 1.131 0 0 1-.365.227c-.148.06-.326.09-.533.09Zm.158-.587c.203 0 .375-.04.519-.12a.84.84 0 0 0 .33-.313.812.812 0 0 0 .115-.418v-.484a.38.38 0 0 1-.152.074c-.073.02-.157.04-.252.056-.094.015-.186.028-.276.041l-.225.03a1.808 1.808 0 0 0-.389.09.667.667 0 0 0-.278.184.458.458 0 0 0-.103.313c0 .18.067.317.2.41a.887.887 0 0 0 .511.137ZM80.663 69.415c-.303 0-.574-.077-.812-.232a1.583 1.583 0 0 1-.557-.668c-.134-.29-.2-.638-.2-1.043 0-.406.067-.753.202-1.042.137-.289.324-.51.562-.663.238-.153.508-.23.81-.23.233 0 .42.04.562.118.143.077.254.166.332.269.08.103.142.193.186.271h.044v-1.86h.731v5.007h-.714v-.585h-.06c-.045.08-.108.172-.191.274a1.059 1.059 0 0 1-.338.27 1.18 1.18 0 0 1-.557.114Zm.161-.623c.21 0 .388-.056.533-.166.147-.113.258-.269.333-.467.076-.2.115-.43.115-.695 0-.26-.038-.489-.113-.684a1.006 1.006 0 0 0-.33-.457.868.868 0 0 0-.538-.164.869.869 0 0 0-.55.17c-.147.115-.258.27-.332.468-.074.197-.11.42-.11.667 0 .251.037.477.112.677.075.2.186.36.332.477.149.116.331.174.548.174ZM76.69 69.418c-.352 0-.659-.081-.921-.242a1.632 1.632 0 0 1-.612-.678 2.248 2.248 0 0 1-.217-1.017c0-.39.073-.73.218-1.022a1.63 1.63 0 0 1 .61-.68c.263-.16.57-.241.922-.241.353 0 .66.08.922.242.263.161.466.388.611.68.145.291.218.632.218 1.021 0 .388-.073.727-.218 1.017-.145.29-.348.516-.61.678-.263.161-.57.242-.923.242Zm.003-.614c.228 0 .417-.06.567-.18.15-.121.26-.282.333-.483.073-.2.11-.42.11-.662 0-.24-.037-.46-.11-.66a1.076 1.076 0 0 0-.333-.487.869.869 0 0 0-.567-.183c-.23 0-.42.061-.572.183-.15.123-.262.285-.335.487-.072.2-.108.42-.108.66 0 .241.036.462.108.662.073.2.185.361.335.482a.89.89 0 0 0 .572.181ZM74.34 65.587v.586h-2.05v-.586h2.05Zm-1.5-.9h.73v3.552c0 .142.021.249.064.32.042.07.097.119.164.145a.658.658 0 0 0 .222.036.85.85 0 0 0 .154-.012 6.97 6.97 0 0 0 .103-.02l.132.605a1.44 1.44 0 0 1-.474.078 1.289 1.289 0 0 1-.538-.103.923.923 0 0 1-.404-.332.977.977 0 0 1-.154-.565v-3.704ZM68.09 70.828a2.26 2.26 0 0 1-.77-.117 1.494 1.494 0 0 1-.523-.31 1.305 1.305 0 0 1-.303-.423l.629-.26c.043.072.102.148.175.228.076.081.177.15.304.208.129.057.294.085.496.085.277 0 .506-.068.687-.203.18-.133.271-.347.271-.64v-.739h-.046a1.66 1.66 0 0 1-.19.267 1.032 1.032 0 0 1-.338.254c-.144.072-.33.108-.56.108-.297 0-.564-.07-.802-.208a1.474 1.474 0 0 1-.562-.619c-.137-.274-.206-.61-.206-1.01 0-.399.068-.741.203-1.026.137-.285.325-.504.563-.656.238-.153.507-.23.809-.23.233 0 .421.04.565.118.143.077.255.166.335.269.081.103.144.193.188.271h.054v-.608h.716v3.838c0 .323-.075.588-.225.795-.15.207-.353.36-.609.46-.254.099-.54.148-.86.148Zm-.007-2.149c.21 0 .388-.049.533-.146a.913.913 0 0 0 .333-.426c.076-.186.115-.408.115-.667 0-.253-.038-.475-.113-.668a.991.991 0 0 0-.33-.45.869.869 0 0 0-.538-.163.869.869 0 0 0-.55.17 1.033 1.033 0 0 0-.332.46c-.074.194-.11.411-.11.65 0 .247.037.463.112.649.075.186.186.33.333.435.148.104.33.156.547.156ZM63.133 67.112v2.23H62.4v-3.755h.702v.61h.047c.086-.198.221-.358.406-.478.185-.121.42-.181.701-.181.256 0 .48.053.672.161.193.106.342.264.448.474.106.21.159.47.159.78v2.389h-.731v-2.3c0-.273-.071-.486-.213-.639-.142-.155-.337-.232-.584-.232-.17 0-.32.037-.452.11a.791.791 0 0 0-.311.323c-.075.14-.112.31-.112.508ZM60.687 69.342v-3.755h.731v3.755h-.731Zm.37-4.335a.465.465 0 0 1-.328-.127.414.414 0 0 1-.135-.308c0-.12.045-.223.135-.308a.46.46 0 0 1 .327-.13c.127 0 .236.043.325.13a.405.405 0 0 1 .137.308.41.41 0 0 1-.137.308.456.456 0 0 1-.325.127ZM58.12 69.418c-.351 0-.659-.081-.921-.242a1.632 1.632 0 0 1-.611-.678 2.248 2.248 0 0 1-.218-1.017c0-.39.073-.73.218-1.022a1.63 1.63 0 0 1 .61-.68c.263-.16.57-.241.923-.241.352 0 .659.08.921.242.263.161.466.388.611.68.145.291.218.632.218 1.021 0 .388-.073.727-.218 1.017-.145.29-.348.516-.61.678-.263.161-.57.242-.922.242Zm.003-.614c.228 0 .417-.06.567-.18.15-.121.261-.282.333-.483.073-.2.11-.42.11-.662 0-.24-.037-.46-.11-.66a1.075 1.075 0 0 0-.333-.487.868.868 0 0 0-.567-.183c-.23 0-.42.061-.572.183-.15.123-.262.285-.335.487-.072.2-.108.42-.108.66 0 .241.036.462.108.662.073.2.185.361.335.482a.89.89 0 0 0 .572.181ZM53.635 69.415c-.303 0-.574-.077-.812-.232a1.582 1.582 0 0 1-.557-.668c-.134-.29-.2-.638-.2-1.043 0-.406.067-.753.202-1.042.137-.289.325-.51.563-.663.237-.153.507-.23.809-.23.233 0 .42.04.562.118.144.077.254.166.333.269.08.103.141.193.185.271h.044v-1.86h.731v5.007h-.713v-.585h-.062c-.044.08-.107.172-.19.274a1.06 1.06 0 0 1-.338.27 1.18 1.18 0 0 1-.557.114Zm.161-.623c.21 0 .388-.056.533-.166.147-.113.258-.269.333-.467.076-.2.115-.43.115-.695 0-.26-.038-.489-.113-.684a1.006 1.006 0 0 0-.33-.457.869.869 0 0 0-.538-.164.869.869 0 0 0-.55.17c-.147.115-.257.27-.332.468-.074.197-.11.42-.11.667 0 .251.037.477.112.677.075.2.186.36.333.477.148.116.33.174.547.174ZM48.691 67.784v-2.197h.734v3.755h-.719v-.65h-.04c-.085.2-.224.367-.415.5-.189.133-.424.199-.706.199a1.27 1.27 0 0 1-.64-.16 1.115 1.115 0 0 1-.436-.476c-.104-.21-.157-.47-.157-.78v-2.388h.732v2.3c0 .256.07.46.212.611a.722.722 0 0 0 .553.228.897.897 0 0 0 .748-.413.929.929 0 0 0 .134-.529ZM43.746 69.418c-.352 0-.66-.081-.922-.242a1.632 1.632 0 0 1-.61-.678 2.248 2.248 0 0 1-.218-1.017c0-.39.072-.73.217-1.022a1.63 1.63 0 0 1 .611-.68c.263-.16.57-.241.922-.241.352 0 .66.08.922.242.262.161.466.388.611.68.145.291.218.632.218 1.021 0 .388-.073.727-.218 1.017-.145.29-.349.516-.611.678-.263.161-.57.242-.922.242Zm.002-.614c.229 0 .418-.06.568-.18.15-.121.26-.282.332-.483.073-.2.11-.42.11-.662 0-.24-.037-.46-.11-.66a1.076 1.076 0 0 0-.332-.487.869.869 0 0 0-.568-.183c-.23 0-.42.061-.572.183-.15.123-.261.285-.334.487-.072.2-.108.42-.108.66 0 .241.036.462.108.662.073.2.184.361.334.482a.89.89 0 0 0 .572.181ZM38.855 70.75a1.528 1.528 0 0 1-.5-.08l.177-.6c.133.036.252.052.357.047a.427.427 0 0 0 .276-.118.905.905 0 0 0 .215-.359l.09-.25-1.373-3.803h.782l.951 2.914h.04l.95-2.914h.785l-1.548 4.256a1.7 1.7 0 0 1-.273.496c-.111.137-.243.24-.396.308-.154.069-.331.103-.533.103ZM153.635 59.418c-.37 0-.688-.08-.955-.237a1.608 1.608 0 0 1-.617-.673 2.28 2.28 0 0 1-.215-1.02c0-.384.072-.723.215-1.016.145-.294.348-.523.607-.687.261-.165.565-.247.914-.247.212 0 .417.035.616.105.199.07.378.18.536.33.158.15.282.345.374.584.091.238.137.527.137.868v.26h-2.986v-.548h2.269c0-.193-.039-.363-.117-.511a.885.885 0 0 0-.33-.355.922.922 0 0 0-.494-.13.956.956 0 0 0-.538.152c-.151.1-.269.23-.352.391-.081.16-.122.334-.122.521v.428c0 .25.044.464.132.64a.95.95 0 0 0 .374.404c.16.091.346.137.56.137.138 0 .265-.02.379-.059a.787.787 0 0 0 .486-.477l.692.125a1.252 1.252 0 0 1-.298.535c-.142.152-.32.27-.536.355a2.002 2.002 0 0 1-.731.125ZM149.509 59.342v-3.755h.707v.596h.039a.904.904 0 0 1 .362-.477c.174-.117.371-.176.591-.176a3.208 3.208 0 0 1 .311.017v.7a1.344 1.344 0 0 0-.157-.027 1.495 1.495 0 0 0-.225-.017.957.957 0 0 0-.462.11.818.818 0 0 0-.435.736v2.293h-.731ZM146.682 59.425a1.53 1.53 0 0 1-.645-.132 1.087 1.087 0 0 1-.457-.389 1.114 1.114 0 0 1-.167-.623c0-.212.041-.386.123-.523a.895.895 0 0 1 .33-.326c.138-.08.293-.14.464-.18.171-.041.346-.072.523-.093l.548-.064a.81.81 0 0 0 .306-.085c.063-.04.095-.103.095-.191v-.017c0-.214-.06-.38-.181-.497-.119-.117-.297-.176-.533-.176-.246 0-.44.055-.582.164a.88.88 0 0 0-.291.36l-.687-.157c.082-.228.201-.412.357-.553.158-.141.34-.244.545-.307a2.135 2.135 0 0 1 1.125-.044c.17.034.328.097.474.19.149.093.27.226.365.399.094.17.141.393.141.667v2.494h-.713v-.514h-.03a1.042 1.042 0 0 1-.212.28 1.132 1.132 0 0 1-.365.227c-.148.06-.326.09-.533.09Zm.159-.587c.202 0 .375-.04.519-.12a.817.817 0 0 0 .444-.731v-.484a.376.376 0 0 1-.151.074c-.073.02-.157.04-.252.056-.094.015-.187.028-.276.041l-.225.03a1.804 1.804 0 0 0-.389.09.672.672 0 0 0-.279.184.46.46 0 0 0-.102.313c0 .18.067.317.2.41a.888.888 0 0 0 .511.137ZM138.9 59.342l-1.105-3.755h.756l.736 2.757h.036l.739-2.757h.755l.734 2.745h.036l.731-2.745h.756l-1.103 3.755h-.746l-.762-2.712h-.057l-.762 2.712h-.744ZM135.634 59.418c-.352 0-.659-.081-.922-.242a1.634 1.634 0 0 1-.611-.678 2.248 2.248 0 0 1-.218-1.017c0-.39.073-.73.218-1.022a1.63 1.63 0 0 1 .611-.68c.263-.16.57-.241.922-.241.352 0 .659.08.922.242.262.161.466.388.611.68.145.291.218.632.218 1.021 0 .388-.073.727-.218 1.017-.145.29-.349.516-.611.678-.263.161-.57.242-.922.242Zm.002-.614c.229 0 .418-.06.568-.18.15-.122.26-.282.332-.483a1.9 1.9 0 0 0 .11-.662c0-.24-.036-.46-.11-.66a1.077 1.077 0 0 0-.332-.487.87.87 0 0 0-.568-.183.884.884 0 0 0-.572.183c-.15.123-.261.285-.335.487-.071.2-.107.42-.107.66 0 .241.036.462.107.662.074.2.185.361.335.482.152.12.343.181.572.181ZM129.001 59.342v-5.007h.756v2.176h2.496v-2.176h.758v5.007h-.758v-2.183h-2.496v2.183h-.756ZM125.733 59.388a.474.474 0 0 1-.345-.142.474.474 0 0 1-.144-.347c0-.133.048-.247.144-.342a.47.47 0 0 1 .345-.144.47.47 0 0 1 .345.144.463.463 0 0 1 .144.342.5.5 0 0 1-.245.423.463.463 0 0 1-.244.066ZM124.268 54.335v5.007h-.731v-5.007h.731ZM121.115 59.418c-.37 0-.689-.08-.956-.237a1.606 1.606 0 0 1-.616-.673 2.267 2.267 0 0 1-.216-1.02c0-.384.072-.723.216-1.016a1.67 1.67 0 0 1 .606-.687c.261-.165.565-.247.914-.247.212 0 .418.035.616.105.199.07.378.18.536.33.158.15.283.345.374.584.091.238.137.527.137.868v.26h-2.985v-.548h2.268c0-.193-.039-.363-.117-.511a.885.885 0 0 0-.33-.355.922.922 0 0 0-.494-.13.958.958 0 0 0-.538.152c-.151.1-.269.23-.352.391-.081.16-.122.334-.122.521v.428c0 .25.044.464.132.64.09.176.214.311.374.404.16.091.346.137.56.137.139 0 .265-.02.379-.059a.787.787 0 0 0 .486-.477l.692.125a1.252 1.252 0 0 1-.298.535c-.142.152-.32.27-.535.355a2.01 2.01 0 0 1-.731.125ZM117.074 59.418c-.37 0-.689-.08-.956-.237a1.606 1.606 0 0 1-.616-.673 2.267 2.267 0 0 1-.215-1.02c0-.384.071-.723.215-1.016a1.67 1.67 0 0 1 .606-.687c.261-.165.566-.247.915-.247.211 0 .417.035.616.105.199.07.377.18.535.33.158.15.283.345.374.584.091.238.137.527.137.868v.26H115.7v-.548h2.269a1.07 1.07 0 0 0-.118-.511.885.885 0 0 0-.33-.355.92.92 0 0 0-.494-.13.952.952 0 0 0-.537.152c-.152.1-.269.23-.352.391-.082.16-.123.334-.123.521v.428c0 .25.044.464.132.64.09.176.215.311.374.404.16.091.347.137.56.137.139 0 .265-.02.379-.059a.789.789 0 0 0 .487-.477l.692.125a1.254 1.254 0 0 1-.299.535 1.44 1.44 0 0 1-.535.355 2.005 2.005 0 0 1-.731.125ZM112.166 59.342h-1.62v-5.007h1.672c.49 0 .912.1 1.264.3.352.2.622.485.809.859.189.371.284.817.284 1.337 0 .522-.096.97-.286 1.345a2.006 2.006 0 0 1-.822.865c-.358.2-.792.3-1.301.3Zm-.865-.66h.824c.381 0 .698-.072.951-.215.253-.145.442-.355.567-.629.126-.275.188-.61.188-1.007 0-.393-.062-.726-.188-1a1.331 1.331 0 0 0-.555-.623c-.246-.142-.552-.213-.917-.213h-.87v3.687ZM102.58 59.342v-3.755h.702v.61h.046a.978.978 0 0 1 .384-.483c.178-.118.391-.176.638-.176.251 0 .462.058.631.176.171.117.297.278.379.484h.039c.09-.2.232-.36.428-.48.196-.12.429-.18.699-.18.341 0 .619.106.834.32.217.214.325.535.325.966v2.518h-.731v-2.45c0-.254-.069-.438-.208-.552a.755.755 0 0 0-.496-.172c-.238 0-.423.074-.555.22a.8.8 0 0 0-.198.56v2.394h-.729v-2.496a.655.655 0 0 0-.19-.492.682.682 0 0 0-.497-.186.714.714 0 0 0-.384.11.815.815 0 0 0-.281.301.922.922 0 0 0-.105.448v2.315h-.731ZM100.014 59.418c-.352 0-.66-.081-.922-.242a1.632 1.632 0 0 1-.611-.678 2.247 2.247 0 0 1-.218-1.017c0-.39.073-.73.218-1.022a1.63 1.63 0 0 1 .611-.68c.262-.16.57-.241.922-.241.352 0 .659.08.921.242.263.161.467.388.612.68.145.291.217.632.217 1.021 0 .388-.072.727-.217 1.017a1.63 1.63 0 0 1-.612.678 1.72 1.72 0 0 1-.921.242Zm.002-.614c.228 0 .417-.06.567-.18.15-.122.261-.282.333-.483.073-.2.11-.42.11-.662 0-.24-.037-.46-.11-.66a1.079 1.079 0 0 0-.333-.487.868.868 0 0 0-.567-.183c-.23 0-.42.061-.572.183-.15.123-.261.285-.335.487-.072.2-.107.42-.107.66 0 .241.035.462.107.662.074.2.185.361.335.482a.89.89 0 0 0 .572.181ZM95.924 59.342v-3.755h.707v.596h.039a.907.907 0 0 1 .362-.477c.174-.117.371-.176.591-.176a3.193 3.193 0 0 1 .31.017v.7a1.306 1.306 0 0 0-.156-.027 1.495 1.495 0 0 0-.225-.017.953.953 0 0 0-.462.11.816.816 0 0 0-.435.736v2.293h-.73ZM95.17 55.587v.586h-2.122v-.586h2.122Zm-1.54 3.755v-4.19c0-.235.05-.43.154-.585a.944.944 0 0 1 .408-.35c.17-.078.354-.117.553-.117.146 0 .272.012.376.037.104.023.182.044.232.063l-.17.592a3.369 3.369 0 0 0-.133-.034.751.751 0 0 0-.195-.022c-.178 0-.305.044-.382.132-.075.088-.112.215-.112.381v4.093h-.731ZM88.123 60.75a1.528 1.528 0 0 1-.499-.08l.177-.6c.133.036.252.052.356.047a.427.427 0 0 0 .277-.117.904.904 0 0 0 .215-.36l.09-.25-1.374-3.803h.783l.95 2.914h.04l.95-2.914h.786l-1.548 4.256a1.698 1.698 0 0 1-.274.496c-.11.137-.243.24-.396.308-.153.069-.33.103-.533.103ZM86.678 54.335v5.007h-.731v-5.007h.73ZM84.963 54.335v5.007h-.73v-5.007h.73ZM81.405 59.425c-.238 0-.453-.044-.645-.132a1.088 1.088 0 0 1-.457-.389 1.115 1.115 0 0 1-.166-.623c0-.212.04-.386.122-.523a.902.902 0 0 1 .33-.326c.138-.08.293-.14.464-.18.171-.041.346-.072.523-.093l.548-.064a.804.804 0 0 0 .306-.085c.063-.04.095-.103.095-.191v-.017c0-.214-.06-.38-.18-.497-.12-.117-.297-.176-.534-.176-.246 0-.44.055-.582.164a.876.876 0 0 0-.29.36l-.688-.157c.082-.228.2-.412.357-.553.158-.141.34-.244.545-.307.206-.066.422-.098.648-.098.15 0 .31.018.477.054.17.034.328.097.474.19.149.093.27.226.365.399.094.17.141.393.141.667v2.494h-.713v-.514h-.03a1.041 1.041 0 0 1-.212.28 1.131 1.131 0 0 1-.365.227c-.148.06-.326.09-.533.09Zm.16-.587c.201 0 .374-.04.518-.12a.84.84 0 0 0 .33-.313.812.812 0 0 0 .115-.418v-.484a.38.38 0 0 1-.152.074c-.073.02-.157.04-.252.056-.094.015-.186.028-.276.041l-.225.03a1.81 1.81 0 0 0-.389.09.667.667 0 0 0-.278.184.458.458 0 0 0-.103.313c0 .18.067.317.2.41a.887.887 0 0 0 .511.137ZM78.671 55.65a.714.714 0 0 0-.322-.538c-.19-.129-.427-.193-.714-.193a1.33 1.33 0 0 0-.533.098.82.82 0 0 0-.35.264.623.623 0 0 0-.122.379c0 .119.028.222.083.308a.746.746 0 0 0 .223.218c.092.057.192.105.298.144.106.037.208.068.305.093l.49.127c.16.039.323.092.49.159.169.067.324.155.468.264.143.109.259.244.347.406.09.161.134.354.134.58 0 .283-.073.534-.22.755-.145.22-.356.393-.633.52-.275.127-.609.191-1 .191-.375 0-.699-.06-.973-.178A1.498 1.498 0 0 1 76 58.74c-.155-.22-.24-.48-.257-.782h.758c.015.181.074.332.176.452a.95.95 0 0 0 .399.267c.163.057.341.085.535.085.214 0 .404-.033.57-.1a.954.954 0 0 0 .396-.283.672.672 0 0 0 .144-.428.525.525 0 0 0-.127-.364.938.938 0 0 0-.34-.235 3.316 3.316 0 0 0-.481-.164l-.592-.161c-.4-.11-.719-.27-.954-.482-.233-.212-.35-.492-.35-.841 0-.289.08-.54.236-.755a1.54 1.54 0 0 1 .635-.502c.268-.12.57-.18.905-.18.339 0 .638.059.897.178.26.119.466.283.616.491.15.207.228.445.235.714h-.729ZM73.183 56.503l-.663.118a.785.785 0 0 0-.132-.242.653.653 0 0 0-.24-.189.869.869 0 0 0-.378-.073.91.91 0 0 0-.519.14c-.138.09-.208.209-.208.354 0 .126.047.227.14.303.093.077.243.14.45.188l.596.137c.346.08.603.203.773.37.17.166.254.382.254.647a.984.984 0 0 1-.196.602 1.28 1.28 0 0 1-.54.41 2 2 0 0 1-.8.15c-.42 0-.763-.09-1.029-.27a1.137 1.137 0 0 1-.489-.77l.707-.107a.676.676 0 0 0 .271.418c.137.093.316.14.536.14.24 0 .43-.05.574-.15.144-.1.215-.224.215-.369a.384.384 0 0 0-.132-.296c-.086-.08-.219-.14-.398-.18l-.636-.14c-.35-.08-.61-.207-.777-.381a.922.922 0 0 1-.25-.663c0-.222.062-.416.186-.582.124-.166.295-.296.514-.389.218-.094.468-.141.75-.141.406 0 .725.088.959.264.233.174.387.408.462.701ZM70.136 54.335v.47c0 .138-.026.284-.078.437-.05.151-.122.297-.215.438-.093.14-.202.26-.328.361l-.361-.259c.096-.14.179-.29.249-.447a1.25 1.25 0 0 0 .107-.523v-.477h.626ZM68.511 55.587v.586H66.46v-.586h2.051Zm-1.501-.9h.731v3.552c0 .142.021.249.064.32.042.07.097.119.163.145a.658.658 0 0 0 .223.036.85.85 0 0 0 .154-.012c.044-.008.078-.014.103-.02l.132.605a1.43 1.43 0 0 1-.474.078 1.288 1.288 0 0 1-.538-.103.923.923 0 0 1-.404-.332.977.977 0 0 1-.154-.565v-3.704ZM65.044 59.342v-3.755h.73v3.755h-.73Zm.369-4.335a.465.465 0 0 1-.328-.127.414.414 0 0 1-.134-.308c0-.12.045-.223.134-.308a.46.46 0 0 1 .328-.13c.127 0 .236.044.325.13a.405.405 0 0 1 .137.308.41.41 0 0 1-.137.308.456.456 0 0 1-.325.127ZM62.27 58.657l-.037.267c-.024.195-.066.4-.124.611a9.417 9.417 0 0 1-.179.594c-.06.183-.11.328-.149.435h-.518c.021-.1.05-.238.088-.41.037-.172.074-.363.11-.575.036-.212.063-.428.08-.648l.025-.274h.704ZM58.104 55.587l.829 1.462.836-1.462h.8l-1.172 1.877 1.181 1.878h-.8l-.845-1.404-.844 1.404h-.801l1.168-1.878-1.154-1.877h.802ZM55.192 59.418c-.37 0-.688-.08-.956-.237a1.608 1.608 0 0 1-.616-.673 2.275 2.275 0 0 1-.215-1.02c0-.384.072-.723.215-1.016.145-.294.347-.523.607-.687.26-.165.565-.247.914-.247.212 0 .417.035.616.105.199.07.377.18.535.33.158.15.283.345.374.584.092.238.137.527.137.868v.26h-2.985v-.548h2.27c0-.193-.04-.363-.118-.511a.888.888 0 0 0-.824-.484.955.955 0 0 0-.538.151c-.152.1-.269.23-.352.391a1.13 1.13 0 0 0-.122.521v.428c0 .25.044.464.132.64.09.176.214.311.374.404.16.091.346.137.56.137.138 0 .264-.02.378-.059a.786.786 0 0 0 .486-.477l.693.125a1.253 1.253 0 0 1-.298.535c-.142.152-.32.27-.536.355a2.004 2.004 0 0 1-.73.125ZM52.59 54.335v5.007h-.73v-5.007h.73ZM47.52 59.342h-.802l1.802-5.007h.873l1.802 5.007h-.802l-1.416-4.098h-.039l-1.418 4.098Zm.135-1.96h2.601v.635h-2.601v-.636ZM43.502 59.342v-3.755h.731v3.755h-.73Zm.37-4.335a.465.465 0 0 1-.328-.127.414.414 0 0 1-.135-.308c0-.12.045-.223.135-.308a.46.46 0 0 1 .327-.13c.127 0 .236.044.325.13a.405.405 0 0 1 .137.308.41.41 0 0 1-.136.308.456.456 0 0 1-.326.127ZM38.451 59.342v-5.007h.756v2.176h2.496v-2.176h.758v5.007h-.758v-2.183h-2.496v2.183h-.756Z"/></g><rect width="120.496" height="32.802" x="62.5" y="85.498" fill="#1D1C3C" rx="7.935"/><rect width="120.496" height="32.802" x="62.5" y="85.498" stroke="url(#P)" rx="7.935"/><g fill="#F7F7F7" opacity=".6"><path d="M137.117 107.459v-.046c.003-.303.034-.545.091-.724.058-.179.141-.324.249-.435.108-.111.237-.212.389-.303.097-.062.185-.131.264-.208a.795.795 0 0 0 .254-.594.676.676 0 0 0-.103-.377.674.674 0 0 0-.274-.244.853.853 0 0 0-.735-.01.675.675 0 0 0-.284.245.837.837 0 0 0-.13.423h-.743a1.4 1.4 0 0 1 .223-.744c.137-.203.317-.357.542-.462a1.78 1.78 0 0 1 .751-.156c.3 0 .562.056.787.168a1.245 1.245 0 0 1 .712 1.164c0 .183-.029.347-.086.494a1.223 1.223 0 0 1-.244.389c-.105.114-.23.215-.377.303a1.635 1.635 0 0 0-.337.269.853.853 0 0 0-.186.33c-.039.127-.06.284-.064.472v.046h-.699Zm.369 1.487a.476.476 0 0 1-.344-.142.47.47 0 0 1-.145-.347c0-.134.048-.248.145-.343a.47.47 0 0 1 .344-.144c.132 0 .246.048.343.144a.463.463 0 0 1 .146.343.473.473 0 0 1-.068.247.511.511 0 0 1-.176.176.469.469 0 0 1-.245.066ZM134.602 107.342v-2.198h.733v3.755h-.718v-.65h-.039a1.18 1.18 0 0 1-.416.501c-.189.132-.425.198-.707.198-.241 0-.454-.053-.64-.159a1.11 1.11 0 0 1-.435-.477c-.105-.21-.157-.47-.157-.779v-2.389h.731v2.301c0 .255.071.459.213.611a.724.724 0 0 0 .552.227.895.895 0 0 0 .748-.413.922.922 0 0 0 .135-.528ZM129.657 108.975c-.352 0-.66-.081-.922-.242a1.632 1.632 0 0 1-.611-.677 2.247 2.247 0 0 1-.218-1.017c0-.39.073-.73.218-1.022.145-.292.349-.519.611-.68.262-.161.57-.242.922-.242.352 0 .659.081.921.242.263.161.466.388.612.68.145.292.217.632.217 1.022 0 .388-.072.727-.217 1.017-.146.29-.349.516-.612.677a1.724 1.724 0 0 1-.921.242Zm.002-.614c.228 0 .417-.06.567-.181.15-.12.261-.281.333-.481a1.93 1.93 0 0 0 .11-.663 1.92 1.92 0 0 0-.11-.66 1.076 1.076 0 0 0-.333-.486.864.864 0 0 0-.567-.184c-.23 0-.42.061-.572.184-.15.122-.262.284-.335.486a1.944 1.944 0 0 0-.108.66c0 .241.036.462.108.663.073.2.185.361.335.481a.888.888 0 0 0 .572.181ZM124.765 110.307a1.517 1.517 0 0 1-.499-.08l.176-.599c.134.036.253.051.357.046a.43.43 0 0 0 .277-.117.909.909 0 0 0 .215-.359l.09-.25-1.374-3.804h.783l.951 2.914h.039l.951-2.914h.785l-1.548 4.256a1.71 1.71 0 0 1-.274.497 1.07 1.07 0 0 1-.396.308 1.303 1.303 0 0 1-.533.102ZM120.059 108.975c-.37 0-.689-.079-.956-.237a1.61 1.61 0 0 1-.616-.672 2.27 2.27 0 0 1-.215-1.02c0-.385.071-.724.215-1.017.145-.293.347-.522.606-.687.261-.165.566-.247.914-.247.212 0 .418.035.617.105.198.07.377.18.535.33.158.15.283.345.374.585.091.238.137.527.137.867v.26h-2.985v-.548h2.269c0-.192-.04-.363-.118-.511a.89.89 0 0 0-.824-.484.95.95 0 0 0-.538.152 1.02 1.02 0 0 0-.352.391 1.131 1.131 0 0 0-.122.52v.428c0 .251.044.465.132.641.09.176.214.31.374.403.16.092.347.137.56.137.139 0 .265-.019.379-.059a.793.793 0 0 0 .487-.476l.691.124a1.242 1.242 0 0 1-.298.536c-.142.151-.32.27-.535.354a2.007 2.007 0 0 1-.731.125ZM115.932 108.899v-3.755h.707v.596h.039a.905.905 0 0 1 .362-.476 1.03 1.03 0 0 1 .592-.176 2.477 2.477 0 0 1 .31.017v.699a1.357 1.357 0 0 0-.156-.027 1.55 1.55 0 0 0-.225-.017.956.956 0 0 0-.462.11.815.815 0 0 0-.436.736v2.293h-.731ZM113.106 108.982c-.238 0-.454-.044-.646-.132a1.083 1.083 0 0 1-.457-.388 1.117 1.117 0 0 1-.166-.624c0-.212.04-.386.122-.523a.895.895 0 0 1 .33-.325c.139-.08.293-.14.465-.181a4.5 4.5 0 0 1 .523-.093l.547-.064a.81.81 0 0 0 .306-.085c.064-.039.095-.103.095-.191v-.017c0-.213-.06-.379-.181-.496-.119-.118-.296-.176-.533-.176-.246 0-.44.054-.581.164a.86.86 0 0 0-.291.359l-.687-.157c.081-.228.2-.412.357-.552.158-.142.339-.245.545-.308a2.131 2.131 0 0 1 1.124-.044c.17.034.328.098.475.191.148.092.269.225.364.398.095.171.142.394.142.667v2.494h-.714v-.513h-.029a1.09 1.09 0 0 1-.577.506c-.149.06-.326.09-.533.09Zm.159-.586c.202 0 .374-.04.518-.12a.82.82 0 0 0 .445-.731v-.484a.387.387 0 0 1-.152.073c-.073.021-.157.04-.252.056l-.276.042-.225.029a1.788 1.788 0 0 0-.389.091.663.663 0 0 0-.278.183.456.456 0 0 0-.103.313c0 .181.067.318.201.411a.888.888 0 0 0 .511.137ZM105.324 108.899l-1.105-3.755h.755l.736 2.758h.037l.738-2.758h.755l.734 2.746h.037l.731-2.746h.755l-1.103 3.755h-.745l-.763-2.711h-.056l-.763 2.711h-.743ZM102.057 108.975c-.352 0-.659-.081-.921-.242a1.628 1.628 0 0 1-.612-.677 2.247 2.247 0 0 1-.217-1.017c0-.39.072-.73.217-1.022.145-.292.349-.519.612-.68.262-.161.569-.242.921-.242.352 0 .66.081.922.242.262.161.466.388.611.68.145.292.218.632.218 1.022 0 .388-.073.727-.218 1.017-.145.29-.349.516-.611.677-.262.161-.57.242-.922.242Zm.003-.614c.228 0 .417-.06.567-.181.15-.12.261-.281.332-.481.074-.201.11-.422.11-.663 0-.239-.036-.459-.11-.66a1.066 1.066 0 0 0-.332-.486.864.864 0 0 0-.567-.184.877.877 0 0 0-.572.184c-.15.122-.262.284-.335.486a1.944 1.944 0 0 0-.108.66c0 .241.036.462.108.663.073.2.185.361.335.481a.886.886 0 0 0 .572.181ZM95.424 108.899v-5.007h.756v2.176h2.496v-2.176h.758v5.007h-.758v-2.183H96.18v2.183h-.756ZM92.156 108.946a.477.477 0 0 1-.345-.142.473.473 0 0 1-.144-.347c0-.134.048-.248.144-.343a.471.471 0 0 1 .345-.144.47.47 0 0 1 .345.144.464.464 0 0 1 .144.343.468.468 0 0 1-.068.247.508.508 0 0 1-.176.176.466.466 0 0 1-.245.066ZM89 110.386c-.298 0-.555-.039-.77-.118a1.484 1.484 0 0 1-.523-.31 1.308 1.308 0 0 1-.303-.423l.628-.259c.044.071.103.147.176.227a.906.906 0 0 0 .303.208c.129.057.294.085.496.085.277 0 .506-.067.687-.202.181-.134.272-.348.272-.641v-.738h-.047c-.044.08-.107.168-.19.266a1.018 1.018 0 0 1-.338.254 1.25 1.25 0 0 1-.56.108 1.56 1.56 0 0 1-.802-.208 1.474 1.474 0 0 1-.562-.618c-.137-.274-.205-.611-.205-1.01s.067-.742.203-1.027c.136-.285.324-.504.562-.655.238-.153.508-.23.81-.23.232 0 .42.039.564.117.143.077.255.167.335.269.081.103.144.193.188.272h.054v-.609h.716v3.838c0 .323-.075.588-.225.795-.15.207-.353.36-.608.46a2.356 2.356 0 0 1-.861.149Zm-.007-2.149a.93.93 0 0 0 .533-.147.911.911 0 0 0 .332-.425c.077-.186.115-.409.115-.668 0-.252-.037-.475-.112-.667a.985.985 0 0 0-.33-.45.87.87 0 0 0-.538-.164.87.87 0 0 0-.55.171 1.036 1.036 0 0 0-.333.46c-.073.194-.11.411-.11.65 0 .246.037.462.112.648a.955.955 0 0 0 .333.435c.148.105.33.157.548.157ZM84.042 106.67v2.229h-.731v-3.755h.701v.611h.047c.086-.199.222-.358.406-.479.186-.121.42-.181.701-.181.256 0 .48.054.673.161.192.106.341.264.447.475.106.21.16.47.16.78v2.388h-.732v-2.3c0-.273-.07-.485-.213-.638-.141-.155-.336-.233-.584-.233-.17 0-.32.037-.452.11a.795.795 0 0 0-.31.323c-.076.14-.113.31-.113.509ZM81.596 108.899v-3.755h.731v3.755h-.73Zm.37-4.334a.465.465 0 0 1-.328-.128.412.412 0 0 1-.135-.308.41.41 0 0 1 .135-.308.461.461 0 0 1 .328-.129c.127 0 .235.043.325.129a.406.406 0 0 1 .137.308.41.41 0 0 1-.137.308.456.456 0 0 1-.325.128ZM78.436 107.625l-.005-.892h.128l1.496-1.589h.875l-1.706 1.809h-.115l-.673.672Zm-.672 1.274v-5.007h.731v5.007h-.731Zm2.371 0-1.344-1.785.504-.51 1.738 2.295h-.898ZM76.887 106.061l-.663.117a.786.786 0 0 0-.132-.242.65.65 0 0 0-.24-.188.866.866 0 0 0-.378-.074.91.91 0 0 0-.519.14c-.138.091-.207.209-.207.354 0 .126.046.227.139.303.093.077.243.14.45.189l.596.137c.346.08.603.203.773.369.17.166.254.382.254.648a.983.983 0 0 1-.195.601 1.282 1.282 0 0 1-.54.411c-.23.099-.497.149-.8.149-.42 0-.764-.09-1.03-.269a1.138 1.138 0 0 1-.488-.77l.706-.108a.673.673 0 0 0 .272.418c.136.093.315.14.535.14.24 0 .431-.05.575-.149.143-.101.215-.224.215-.369a.383.383 0 0 0-.132-.296c-.087-.08-.22-.14-.399-.181l-.636-.14c-.35-.079-.61-.207-.777-.381a.921.921 0 0 1-.25-.663c0-.221.063-.415.186-.581.124-.167.296-.296.514-.389.218-.095.469-.142.75-.142.406 0 .726.088.959.264.233.174.387.408.462.702ZM71.246 108.982c-.238 0-.453-.044-.645-.132a1.085 1.085 0 0 1-.458-.388 1.119 1.119 0 0 1-.166-.624c0-.212.04-.386.122-.523a.902.902 0 0 1 .33-.325c.139-.08.294-.14.465-.181a4.52 4.52 0 0 1 .523-.093l.548-.064a.809.809 0 0 0 .305-.085c.064-.039.096-.103.096-.191v-.017c0-.213-.06-.379-.181-.496-.12-.118-.297-.176-.533-.176-.246 0-.44.054-.582.164a.872.872 0 0 0-.29.359l-.688-.157c.082-.228.2-.412.357-.552.158-.142.34-.245.545-.308a2.135 2.135 0 0 1 1.125-.044c.17.034.328.098.474.191.148.092.27.225.364.398.095.171.142.394.142.667v2.494h-.714v-.513h-.029a1.063 1.063 0 0 1-.213.279 1.129 1.129 0 0 1-.364.227 1.42 1.42 0 0 1-.533.09Zm.159-.586c.202 0 .375-.04.518-.12a.839.839 0 0 0 .33-.313.814.814 0 0 0 .115-.418v-.484a.384.384 0 0 1-.151.073c-.074.021-.158.04-.252.056l-.276.042-.225.029a1.78 1.78 0 0 0-.39.091.662.662 0 0 0-.278.183.458.458 0 0 0-.103.313c0 .181.067.318.201.411a.889.889 0 0 0 .511.137ZM170.472 98.9v-3.756h.707v.596h.039a.905.905 0 0 1 .362-.476c.174-.118.371-.176.591-.176a3.094 3.094 0 0 1 .311.017v.7a1.284 1.284 0 0 0-.157-.028 1.48 1.48 0 0 0-.224-.017.958.958 0 0 0-.463.11.818.818 0 0 0-.435.736v2.293h-.731ZM167.906 98.975c-.352 0-.66-.08-.922-.242a1.634 1.634 0 0 1-.611-.677 2.249 2.249 0 0 1-.218-1.017c0-.39.073-.73.218-1.022a1.63 1.63 0 0 1 .611-.68c.262-.161.57-.242.922-.242.352 0 .659.08.921.242.263.161.467.388.612.68.145.291.217.632.217 1.022 0 .388-.072.727-.217 1.017a1.63 1.63 0 0 1-.612.677 1.721 1.721 0 0 1-.921.242Zm.002-.614c.228 0 .417-.06.567-.18.15-.121.261-.282.333-.482.073-.2.11-.421.11-.663 0-.24-.037-.46-.11-.66a1.078 1.078 0 0 0-.333-.486.868.868 0 0 0-.567-.184c-.23 0-.42.061-.572.184a1.09 1.09 0 0 0-.335.486c-.072.2-.107.42-.107.66 0 .242.035.462.107.663.073.2.185.36.335.481a.89.89 0 0 0 .572.181ZM165.718 95.144v.587h-2.123v-.587h2.123Zm-1.541 3.755v-4.19c0-.235.052-.43.154-.585a.946.946 0 0 1 .409-.35c.169-.077.353-.117.552-.117.147 0 .272.013.377.037.104.023.181.044.232.064l-.171.591a3.336 3.336 0 0 0-.132-.034.758.758 0 0 0-.196-.022c-.177 0-.305.044-.381.132-.075.088-.113.215-.113.382v4.092h-.731ZM161.231 96.06l-.662.118a.798.798 0 0 0-.132-.242.658.658 0 0 0-.24-.188.866.866 0 0 0-.379-.074.908.908 0 0 0-.518.14c-.139.091-.208.21-.208.354 0 .126.046.227.139.303.093.077.243.14.45.189l.597.137c.345.08.603.203.772.369.17.166.255.382.255.648a.988.988 0 0 1-.196.601 1.284 1.284 0 0 1-.54.41c-.23.1-.497.15-.8.15-.42 0-.763-.09-1.029-.269a1.135 1.135 0 0 1-.489-.77l.707-.108a.676.676 0 0 0 .271.418c.137.093.315.14.535.14.24 0 .431-.05.575-.15.143-.1.215-.223.215-.368a.384.384 0 0 0-.132-.296c-.086-.08-.219-.14-.398-.181l-.636-.14c-.351-.08-.61-.207-.778-.381a.922.922 0 0 1-.249-.663c0-.221.062-.415.186-.581a1.22 1.22 0 0 1 .513-.39c.219-.094.469-.141.751-.141.406 0 .725.088.958.264.233.175.387.408.462.702ZM155.257 97.626l-.005-.893h.128l1.496-1.59h.875l-1.706 1.81h-.115l-.673.672Zm-.672 1.273v-5.007h.731V98.9h-.731Zm2.371 0-1.344-1.784.503-.511 1.739 2.295h-.898ZM151.201 96.67v2.23h-.731v-3.756h.702v.611h.046c.087-.199.222-.358.406-.479.186-.12.42-.181.702-.181.256 0 .48.054.672.161.193.106.342.264.448.475.106.21.159.47.159.78v2.388h-.731v-2.3c0-.273-.071-.485-.213-.639-.142-.154-.337-.232-.584-.232a.916.916 0 0 0-.453.11.788.788 0 0 0-.31.323c-.075.14-.113.31-.113.508ZM147.643 98.982c-.238 0-.453-.044-.645-.132a1.086 1.086 0 0 1-.457-.388 1.113 1.113 0 0 1-.166-.624c0-.212.04-.386.122-.523a.895.895 0 0 1 .33-.325c.138-.08.293-.14.464-.181.171-.04.346-.072.524-.093l.547-.064a.808.808 0 0 0 .306-.085c.063-.04.095-.103.095-.19v-.018c0-.213-.06-.379-.181-.496-.119-.118-.296-.176-.533-.176-.246 0-.44.054-.582.163a.88.88 0 0 0-.291.36l-.687-.157a1.331 1.331 0 0 1 .903-.86c.205-.065.421-.098.647-.098.15 0 .309.018.477.054a1.4 1.4 0 0 1 .475.19c.148.093.269.226.364.399.094.171.142.394.142.668v2.493h-.714v-.513h-.03a1.04 1.04 0 0 1-.212.279 1.13 1.13 0 0 1-.365.227c-.148.06-.326.09-.533.09Zm.159-.586c.202 0 .375-.04.519-.12a.84.84 0 0 0 .33-.313.818.818 0 0 0 .115-.418v-.484a.383.383 0 0 1-.152.073 2.34 2.34 0 0 1-.252.056 23.9 23.9 0 0 1-.501.071 1.824 1.824 0 0 0-.389.09.669.669 0 0 0-.278.184.456.456 0 0 0-.103.313.47.47 0 0 0 .2.41.888.888 0 0 0 .511.138ZM143.14 96.67v2.23h-.731v-5.008h.721v1.863h.047c.088-.202.222-.362.403-.481.181-.12.417-.179.709-.179.258 0 .483.053.675.159.194.106.344.264.45.474.107.209.161.47.161.783v2.388h-.731v-2.3c0-.276-.071-.49-.213-.64-.141-.154-.339-.23-.591-.23a.969.969 0 0 0-.465.11.793.793 0 0 0-.32.322c-.077.14-.115.31-.115.508ZM141.52 95.144v.587h-2.052v-.587h2.052Zm-1.501-.9h.731v3.553c0 .141.021.248.063.32a.33.33 0 0 0 .164.144.654.654 0 0 0 .222.037c.059 0 .11-.004.154-.012l.103-.02.132.604a1.429 1.429 0 0 1-.474.078 1.283 1.283 0 0 1-.538-.103.919.919 0 0 1-.403-.332.975.975 0 0 1-.154-.565v-3.704ZM136.993 98.215l-.037.266c-.024.196-.066.4-.124.611a16.364 16.364 0 0 1-.328 1.03h-.518l.088-.411c.037-.171.074-.363.11-.575a7.16 7.16 0 0 0 .08-.647l.025-.274h.704ZM132.84 100.307a1.517 1.517 0 0 1-.499-.08l.176-.6c.134.037.253.052.357.047a.428.428 0 0 0 .276-.117.888.888 0 0 0 .215-.36l.091-.249-1.374-3.804h.782l.951 2.914h.039l.951-2.914h.785l-1.547 4.256a1.7 1.7 0 0 1-.274.497c-.111.137-.243.239-.396.308a1.303 1.303 0 0 1-.533.102ZM131.394 93.892V98.9h-.731v-5.007h.731ZM129.68 93.892V98.9h-.731v-5.007h.731ZM126.122 98.982c-.238 0-.453-.044-.645-.132a1.088 1.088 0 0 1-.458-.388 1.122 1.122 0 0 1-.166-.624c0-.212.041-.386.122-.523a.91.91 0 0 1 .33-.325c.139-.08.294-.14.465-.181.171-.04.345-.072.523-.093l.548-.064a.797.797 0 0 0 .305-.085c.064-.04.096-.103.096-.19v-.018c0-.213-.061-.379-.181-.496-.119-.118-.297-.176-.533-.176-.246 0-.44.054-.582.163a.88.88 0 0 0-.291.36l-.687-.157c.082-.228.2-.412.357-.552a1.45 1.45 0 0 1 .545-.308 2.135 2.135 0 0 1 1.125-.044c.169.034.327.098.474.19.148.093.27.226.364.399.095.171.142.394.142.668v2.493h-.714v-.513h-.029a1.025 1.025 0 0 1-.213.279 1.126 1.126 0 0 1-.364.227c-.148.06-.326.09-.533.09Zm.159-.586c.202 0 .375-.04.518-.12a.84.84 0 0 0 .33-.313.808.808 0 0 0 .115-.418v-.484a.378.378 0 0 1-.151.073c-.074.021-.158.04-.252.056l-.276.042-.225.03a1.81 1.81 0 0 0-.389.09.666.666 0 0 0-.279.183.46.46 0 0 0-.103.313c0 .18.067.318.201.41a.888.888 0 0 0 .511.138ZM123.388 95.207a.715.715 0 0 0-.323-.537c-.189-.13-.427-.194-.714-.194-.205 0-.383.033-.533.098a.818.818 0 0 0-.349.264.62.62 0 0 0-.122.38c0 .118.027.221.083.307a.746.746 0 0 0 .222.218c.093.057.193.105.298.144.106.038.208.069.306.093l.489.127c.16.04.324.092.491.16.168.066.324.154.467.263a1.183 1.183 0 0 1 .482.985c0 .284-.073.536-.22.756-.145.22-.356.394-.633.52-.276.128-.609.191-1 .191-.375 0-.699-.06-.973-.178a1.498 1.498 0 0 1-.643-.506 1.463 1.463 0 0 1-.257-.783h.758a.774.774 0 0 0 .176.453.946.946 0 0 0 .399.266c.163.057.341.086.535.086.213 0 .403-.034.57-.1a.952.952 0 0 0 .396-.284.673.673 0 0 0 .144-.428.524.524 0 0 0-.127-.364.944.944 0 0 0-.34-.235 3.314 3.314 0 0 0-.482-.164l-.591-.161c-.401-.11-.719-.27-.954-.482-.233-.212-.349-.492-.349-.84 0-.29.078-.541.234-.756.157-.215.369-.382.636-.501.267-.121.569-.181.905-.181.339 0 .638.06.897.178.261.12.466.283.616.492.15.207.228.445.235.713h-.729ZM117.968 95.144v.587h-2.051v-.587h2.051Zm-1.501-.9h.731v3.553c0 .141.021.248.063.32.043.07.097.118.164.144a.656.656 0 0 0 .223.037c.058 0 .11-.004.154-.012l.102-.02.132.604a1.429 1.429 0 0 1-.474.078 1.286 1.286 0 0 1-.538-.103.919.919 0 0 1-.403-.332.975.975 0 0 1-.154-.565v-3.704ZM113.388 98.982c-.238 0-.453-.044-.645-.132a1.088 1.088 0 0 1-.458-.388 1.122 1.122 0 0 1-.166-.624c0-.212.041-.386.122-.523a.91.91 0 0 1 .33-.325c.139-.08.294-.14.465-.181.171-.04.345-.072.523-.093l.548-.064a.797.797 0 0 0 .305-.085c.064-.04.096-.103.096-.19v-.018c0-.213-.061-.379-.181-.496-.119-.118-.297-.176-.533-.176-.246 0-.44.054-.582.163a.88.88 0 0 0-.291.36l-.687-.157c.081-.228.2-.412.357-.552a1.45 1.45 0 0 1 .545-.308 2.13 2.13 0 0 1 .648-.098c.15 0 .309.018.477.054.169.034.327.098.474.19.148.093.27.226.364.399.095.171.142.394.142.668v2.493h-.714v-.513h-.029a1.025 1.025 0 0 1-.213.279 1.126 1.126 0 0 1-.364.227c-.148.06-.326.09-.533.09Zm.159-.586c.202 0 .375-.04.518-.12a.84.84 0 0 0 .33-.313.808.808 0 0 0 .115-.418v-.484a.378.378 0 0 1-.151.073c-.074.021-.158.04-.252.056a27.802 27.802 0 0 1-.501.071 1.81 1.81 0 0 0-.389.09.666.666 0 0 0-.279.184.46.46 0 0 0-.103.313c0 .18.067.318.201.41a.888.888 0 0 0 .511.138ZM109.873 98.975c-.37 0-.689-.079-.956-.237a1.606 1.606 0 0 1-.616-.672 2.267 2.267 0 0 1-.215-1.02c0-.385.071-.724.215-1.017a1.67 1.67 0 0 1 .606-.687c.261-.165.566-.247.915-.247.211 0 .417.035.616.105.198.07.377.18.535.33.158.15.283.345.374.585.091.238.137.527.137.868v.259h-2.985v-.548h2.269a1.07 1.07 0 0 0-.118-.511.885.885 0 0 0-.33-.355.922.922 0 0 0-.494-.13.952.952 0 0 0-.537.153c-.152.099-.269.23-.352.39-.082.16-.123.334-.123.521v.428c0 .251.044.465.132.64.09.177.215.311.374.404.16.092.347.137.56.137.139 0 .265-.02.379-.058a.788.788 0 0 0 .487-.477l.692.124a1.255 1.255 0 0 1-.299.536c-.141.151-.32.27-.535.354a2.003 2.003 0 0 1-.731.125ZM105.747 98.9v-3.756h.706v.596h.039a.91.91 0 0 1 .362-.476c.175-.118.372-.176.592-.176a3.09 3.09 0 0 1 .31.017v.7a1.258 1.258 0 0 0-.156-.028 1.482 1.482 0 0 0-.225-.017.952.952 0 0 0-.462.11.813.813 0 0 0-.435.736v2.293h-.731ZM103.072 100.386c-.298 0-.555-.039-.77-.118a1.475 1.475 0 0 1-.523-.31 1.3 1.3 0 0 1-.304-.423l.629-.26c.044.072.102.148.176.228.075.082.176.15.303.208.129.057.294.085.496.085.277 0 .506-.067.687-.202.181-.134.272-.348.272-.641v-.738h-.047c-.044.08-.107.168-.191.266a1.018 1.018 0 0 1-.337.254c-.143.072-.33.108-.56.108-.296 0-.564-.07-.802-.208a1.48 1.48 0 0 1-.562-.618c-.137-.274-.205-.61-.205-1.01s.067-.742.203-1.027a1.54 1.54 0 0 1 .562-.655c.238-.153.508-.23.809-.23.233 0 .421.04.565.117.143.077.255.167.335.27.081.102.144.192.188.27h.054v-.608h.716v3.838c0 .323-.075.588-.225.795a1.33 1.33 0 0 1-.608.46 2.363 2.363 0 0 1-.861.149Zm-.007-2.15c.21 0 .387-.048.533-.146a.917.917 0 0 0 .332-.425 1.74 1.74 0 0 0 .115-.668 1.85 1.85 0 0 0-.112-.667.987.987 0 0 0-.331-.45.867.867 0 0 0-.537-.164.872.872 0 0 0-.551.171 1.037 1.037 0 0 0-.332.46c-.073.194-.11.41-.11.65 0 .246.037.462.112.648.075.186.186.33.333.435a.928.928 0 0 0 .548.157ZM97 100.386c-.297 0-.554-.039-.77-.118a1.483 1.483 0 0 1-.523-.31 1.305 1.305 0 0 1-.303-.423l.629-.26c.044.072.102.148.176.228.075.082.176.15.303.208.129.057.294.085.496.085.277 0 .506-.067.687-.202.181-.134.272-.348.272-.641v-.738h-.047a1.67 1.67 0 0 1-.19.266 1.031 1.031 0 0 1-.338.254c-.143.072-.33.108-.56.108-.297 0-.564-.07-.802-.208a1.475 1.475 0 0 1-.562-.618c-.137-.274-.206-.61-.206-1.01s.068-.742.203-1.027c.137-.285.325-.504.563-.655.238-.153.507-.23.809-.23.233 0 .421.04.565.117.143.077.255.167.335.27.081.102.144.192.188.27h.054v-.608h.716v3.838c0 .323-.075.588-.225.795-.15.207-.353.36-.609.46a2.356 2.356 0 0 1-.86.149Zm-.007-2.15c.21 0 .388-.048.533-.146a.913.913 0 0 0 .333-.425c.077-.186.115-.409.115-.668a1.83 1.83 0 0 0-.113-.667.993.993 0 0 0-.33-.45.869.869 0 0 0-.538-.164.87.87 0 0 0-.55.171 1.032 1.032 0 0 0-.332.46c-.074.194-.11.41-.11.65 0 .246.037.462.112.648.075.186.186.33.333.435.148.105.33.157.547.157ZM92.043 96.67v2.23h-.731v-3.756h.701v.611h.047c.086-.199.221-.358.406-.479.185-.12.42-.181.701-.181.256 0 .48.054.672.161.193.106.342.264.448.475.106.21.159.47.159.78v2.388h-.731v-2.3c0-.273-.071-.485-.213-.639-.142-.154-.336-.232-.584-.232-.17 0-.32.037-.453.11a.79.79 0 0 0-.31.323c-.075.14-.112.31-.112.508ZM89.597 98.9v-3.756h.731v3.755h-.73Zm.37-4.336a.465.465 0 0 1-.328-.127.413.413 0 0 1-.135-.308c0-.12.045-.223.135-.308a.46.46 0 0 1 .327-.13c.127 0 .236.044.325.13a.405.405 0 0 1 .137.308.41.41 0 0 1-.137.308.456.456 0 0 1-.325.127ZM87.03 98.975c-.351 0-.659-.08-.921-.242a1.633 1.633 0 0 1-.611-.677 2.247 2.247 0 0 1-.218-1.017c0-.39.073-.73.218-1.022.145-.292.349-.519.61-.68.263-.161.57-.242.923-.242.352 0 .659.08.921.242.263.161.466.388.612.68.145.291.217.632.217 1.022 0 .388-.072.727-.218 1.017-.145.29-.348.516-.61.677-.263.161-.57.242-.922.242Zm.003-.614c.228 0 .417-.06.567-.18.15-.121.261-.282.333-.482.073-.2.11-.421.11-.663 0-.24-.037-.46-.11-.66a1.076 1.076 0 0 0-.333-.486.869.869 0 0 0-.567-.184c-.23 0-.42.061-.572.184-.15.122-.262.284-.335.486-.072.2-.108.42-.108.66 0 .242.036.462.108.663.073.2.185.36.335.481a.89.89 0 0 0 .572.181ZM82.545 98.973c-.303 0-.574-.078-.812-.233a1.583 1.583 0 0 1-.557-.667c-.134-.29-.2-.638-.2-1.044s.067-.753.202-1.042c.137-.288.325-.509.563-.662.237-.153.507-.23.809-.23.233 0 .42.04.562.117.144.077.254.167.333.27.08.102.141.192.185.27h.044v-1.86h.731V98.9h-.713v-.584h-.062a1.92 1.92 0 0 1-.19.274 1.058 1.058 0 0 1-.338.269 1.18 1.18 0 0 1-.557.115Zm.161-.624c.21 0 .388-.055.533-.166.147-.113.258-.268.333-.467.076-.199.115-.43.115-.694 0-.261-.038-.49-.113-.685a1.006 1.006 0 0 0-.33-.457.869.869 0 0 0-.538-.164.87.87 0 0 0-.55.171c-.147.114-.257.27-.332.467-.074.197-.11.42-.11.668 0 .25.037.476.112.677.075.2.186.36.333.477.148.115.33.173.547.173ZM73.233 98.9v-3.756h.701v.611h.047a.97.97 0 0 1 .384-.484 1.13 1.13 0 0 1 .638-.176c.25 0 .46.059.63.176.172.117.298.279.38.484h.038c.09-.2.233-.36.428-.479.196-.12.429-.181.7-.181.34 0 .618.107.833.32.217.214.325.536.325.966v2.518h-.73v-2.45c0-.254-.07-.438-.209-.552a.756.756 0 0 0-.496-.171c-.238 0-.423.073-.555.22a.8.8 0 0 0-.198.56v2.393h-.728v-2.496a.655.655 0 0 0-.191-.491.681.681 0 0 0-.496-.186.71.71 0 0 0-.384.11.808.808 0 0 0-.281.3.92.92 0 0 0-.106.448v2.315h-.73ZM72.637 93.892v.47c0 .138-.026.284-.078.437-.05.152-.122.298-.215.438s-.202.26-.328.362l-.362-.26c.097-.14.18-.289.25-.447.071-.158.107-.332.107-.523v-.477h.626ZM70.967 93.892V98.9h-.755v-5.007h.755Z"/></g><rect width="130" height="56" x="32.5" y="125.5" fill="#1D1C3C" rx="7.935"/><rect width="130" height="56" x="32.5" y="125.5" stroke="url(#Q)" rx="7.935"/></g><defs><filter id="h" width="16.954" height="33.856" x="38.25" y="37.203" color-interpolation-filters="sRGB" filterUnits="userSpaceOnUse"><feFlood flood-opacity="0" result="BackgroundImageFix"/><feBlend in="SourceGraphic" in2="BackgroundImageFix" result="shape"/><feGaussianBlur result="effect1_foregroundBlur_7506_8215" stdDeviation="1.272"/></filter><filter id="j" width="17.237" height="28.541" x="40.453" y="42.399" color-interpolation-filters="sRGB" filterUnits="userSpaceOnUse"><feFlood flood-opacity="0" result="BackgroundImageFix"/><feBlend in="SourceGraphic" in2="BackgroundImageFix" result="shape"/><feGaussianBlur result="effect1_foregroundBlur_7506_8215" stdDeviation="1.261"/></filter><filter id="l" width="44.453" height="44.453" x="24.737" y="33.578" color-interpolation-filters="sRGB" filterUnits="userSpaceOnUse"><feFlood flood-opacity="0" result="BackgroundImageFix"/><feBlend in="SourceGraphic" in2="BackgroundImageFix" result="shape"/><feGaussianBlur result="effect1_foregroundBlur_7506_8215" stdDeviation="1.641"/></filter><filter id="m" width="21.354" height="42.643" x="35.74" y="34.438" color-interpolation-filters="sRGB" filterUnits="userSpaceOnUse"><feFlood flood-opacity="0" result="BackgroundImageFix"/><feBlend in="SourceGraphic" in2="BackgroundImageFix" result="shape"/><feGaussianBlur result="effect1_foregroundBlur_7506_8215" stdDeviation="1.602"/></filter><filter id="o" width="21.711" height="35.948" x="38.514" y="40.983" color-interpolation-filters="sRGB" filterUnits="userSpaceOnUse"><feFlood flood-opacity="0" result="BackgroundImageFix"/><feBlend in="SourceGraphic" in2="BackgroundImageFix" result="shape"/><feGaussianBlur result="effect1_foregroundBlur_7506_8215" stdDeviation="1.588"/></filter><filter id="q" width=".807" height=".807" x="45.22" y="42.224" color-interpolation-filters="sRGB" filterUnits="userSpaceOnUse"><feFlood flood-opacity="0" result="BackgroundImageFix"/><feBlend in="SourceGraphic" in2="BackgroundImageFix" result="shape"/><feGaussianBlur result="effect1_foregroundBlur_7506_8215" stdDeviation=".134"/></filter><filter id="r" width=".807" height=".807" x="45.546" y="41.916" color-interpolation-filters="sRGB" filterUnits="userSpaceOnUse"><feFlood flood-opacity="0" result="BackgroundImageFix"/><feBlend in="SourceGraphic" in2="BackgroundImageFix" result="shape"/><feGaussianBlur result="effect1_foregroundBlur_7506_8215" stdDeviation=".134"/></filter><filter id="s" width=".672" height=".672" x="44.874" y="42.108" color-interpolation-filters="sRGB" filterUnits="userSpaceOnUse"><feFlood flood-opacity="0" result="BackgroundImageFix"/><feBlend in="SourceGraphic" in2="BackgroundImageFix" result="shape"/><feGaussianBlur result="effect1_foregroundBlur_7506_8215" stdDeviation=".134"/></filter><filter id="t" width="1.01" height="1.052" x="45.436" y="41.924" color-interpolation-filters="sRGB" filterUnits="userSpaceOnUse"><feFlood flood-opacity="0" result="BackgroundImageFix"/><feColorMatrix in="SourceAlpha" result="hardAlpha" values="0 0 0 0 0 0 0 0 0 0 0 0 0 0 0 0 0 0 127 0"/><feOffset dy=".159"/><feGaussianBlur stdDeviation=".175"/><feComposite in2="hardAlpha" operator="out"/><feColorMatrix values="0 0 0 0 0 0 0 0 0 0 0 0 0 0 0 0 0 0 0.1 0"/><feBlend in2="BackgroundImageFix" result="effect1_dropShadow_7506_8215"/><feColorMatrix in="SourceAlpha" result="hardAlpha" values="0 0 0 0 0 0 0 0 0 0 0 0 0 0 0 0 0 0 127 0"/><feOffset dy=".066"/><feGaussianBlur stdDeviation=".15"/><feComposite in2="hardAlpha" operator="out"/><feColorMatrix values="0 0 0 0 0 0 0 0 0 0 0 0 0 0 0 0 0 0 0.16 0"/><feBlend in2="effect1_dropShadow_7506_8215" result="effect2_dropShadow_7506_8215"/><feBlend in="SourceGraphic" in2="effect2_dropShadow_7506_8215" result="shape"/><feColorMatrix in="SourceAlpha" result="hardAlpha" values="0 0 0 0 0 0 0 0 0 0 0 0 0 0 0 0 0 0 127 0"/><feOffset dy="-.064"/><feGaussianBlur stdDeviation=".112"/><feComposite in2="hardAlpha" k2="-1" k3="1" operator="arithmetic"/><feColorMatrix values="0 0 0 0 0 0 0 0 0 0 0 0 0 0 0 0 0 0 0.24 0"/><feBlend in2="shape" result="effect3_innerShadow_7506_8215"/><feColorMatrix in="SourceAlpha" result="hardAlpha" values="0 0 0 0 0 0 0 0 0 0 0 0 0 0 0 0 0 0 127 0"/><feOffset dy="-.116"/><feGaussianBlur stdDeviation=".233"/><feComposite in2="hardAlpha" k2="-1" k3="1" operator="arithmetic"/><feColorMatrix values="0 0 0 0 0.6775 0 0 0 0 0.625 0 0 0 0 1 0 0 0 0.66 0"/><feBlend in2="effect3_innerShadow_7506_8215" result="effect4_innerShadow_7506_8215"/><feColorMatrix in="SourceAlpha" result="hardAlpha" values="0 0 0 0 0 0 0 0 0 0 0 0 0 0 0 0 0 0 127 0"/><feMorphology in="SourceAlpha" radius=".066" result="effect5_innerShadow_7506_8215"/><feOffset/><feGaussianBlur stdDeviation=".1"/><feComposite in2="hardAlpha" k2="-1" k3="1" operator="arithmetic"/><feColorMatrix values="0 0 0 0 1 0 0 0 0 1 0 0 0 0 1 0 0 0 1 0"/><feBlend in2="effect4_innerShadow_7506_8215" result="effect5_innerShadow_7506_8215"/><feColorMatrix in="SourceAlpha" result="hardAlpha" values="0 0 0 0 0 0 0 0 0 0 0 0 0 0 0 0 0 0 127 0"/><feMorphology in="SourceAlpha" radius=".066" result="effect6_innerShadow_7506_8215"/><feOffset/><feGaussianBlur stdDeviation=".075"/><feComposite in2="hardAlpha" k2="-1" k3="1" operator="arithmetic"/><feColorMatrix values="0 0 0 0 1 0 0 0 0 1 0 0 0 0 1 0 0 0 1 0"/><feBlend in2="effect5_innerShadow_7506_8215" result="effect6_innerShadow_7506_8215"/></filter><filter id="v" width=".757" height=".788" x="44.849" y="42.172" color-interpolation-filters="sRGB" filterUnits="userSpaceOnUse"><feFlood flood-opacity="0" result="BackgroundImageFix"/><feColorMatrix in="SourceAlpha" result="hardAlpha" values="0 0 0 0 0 0 0 0 0 0 0 0 0 0 0 0 0 0 127 0"/><feOffset dy=".119"/><feGaussianBlur stdDeviation=".131"/><feComposite in2="hardAlpha" operator="out"/><feColorMatrix values="0 0 0 0 0 0 0 0 0 0 0 0 0 0 0 0 0 0 0.1 0"/><feBlend in2="BackgroundImageFix" result="effect1_dropShadow_7506_8215"/><feColorMatrix in="SourceAlpha" result="hardAlpha" values="0 0 0 0 0 0 0 0 0 0 0 0 0 0 0 0 0 0 127 0"/><feOffset dy=".05"/><feGaussianBlur stdDeviation=".112"/><feComposite in2="hardAlpha" operator="out"/><feColorMatrix values="0 0 0 0 0 0 0 0 0 0 0 0 0 0 0 0 0 0 0.16 0"/><feBlend in2="effect1_dropShadow_7506_8215" result="effect2_dropShadow_7506_8215"/><feBlend in="SourceGraphic" in2="effect2_dropShadow_7506_8215" result="shape"/><feColorMatrix in="SourceAlpha" result="hardAlpha" values="0 0 0 0 0 0 0 0 0 0 0 0 0 0 0 0 0 0 127 0"/><feOffset dy="-.048"/><feGaussianBlur stdDeviation=".084"/><feComposite in2="hardAlpha" k2="-1" k3="1" operator="arithmetic"/><feColorMatrix values="0 0 0 0 0 0 0 0 0 0 0 0 0 0 0 0 0 0 0.24 0"/><feBlend in2="shape" result="effect3_innerShadow_7506_8215"/><feColorMatrix in="SourceAlpha" result="hardAlpha" values="0 0 0 0 0 0 0 0 0 0 0 0 0 0 0 0 0 0 127 0"/><feOffset dy="-.087"/><feGaussianBlur stdDeviation=".174"/><feComposite in2="hardAlpha" k2="-1" k3="1" operator="arithmetic"/><feColorMatrix values="0 0 0 0 0.6775 0 0 0 0 0.625 0 0 0 0 1 0 0 0 0.66 0"/><feBlend in2="effect3_innerShadow_7506_8215" result="effect4_innerShadow_7506_8215"/><feColorMatrix in="SourceAlpha" result="hardAlpha" values="0 0 0 0 0 0 0 0 0 0 0 0 0 0 0 0 0 0 127 0"/><feMorphology in="SourceAlpha" radius=".05" result="effect5_innerShadow_7506_8215"/><feOffset/><feGaussianBlur stdDeviation=".075"/><feComposite in2="hardAlpha" k2="-1" k3="1" operator="arithmetic"/><feColorMatrix values="0 0 0 0 1 0 0 0 0 1 0 0 0 0 1 0 0 0 1 0"/><feBlend in2="effect4_innerShadow_7506_8215" result="effect5_innerShadow_7506_8215"/><feColorMatrix in="SourceAlpha" result="hardAlpha" values="0 0 0 0 0 0 0 0 0 0 0 0 0 0 0 0 0 0 127 0"/><feMorphology in="SourceAlpha" radius=".05" result="effect6_innerShadow_7506_8215"/><feOffset/><feGaussianBlur stdDeviation=".056"/><feComposite in2="hardAlpha" k2="-1" k3="1" operator="arithmetic"/><feColorMatrix values="0 0 0 0 1 0 0 0 0 1 0 0 0 0 1 0 0 0 1 0"/><feBlend in2="effect5_innerShadow_7506_8215" result="effect6_innerShadow_7506_8215"/></filter><filter id="x" width="1.438" height="1.494" x="44.904" y="42.066" color-interpolation-filters="sRGB" filterUnits="userSpaceOnUse"><feFlood flood-opacity="0" result="BackgroundImageFix"/><feColorMatrix in="SourceAlpha" result="hardAlpha" values="0 0 0 0 0 0 0 0 0 0 0 0 0 0 0 0 0 0 127 0"/><feOffset dy=".214"/><feGaussianBlur stdDeviation=".235"/><feComposite in2="hardAlpha" operator="out"/><feColorMatrix values="0 0 0 0 0 0 0 0 0 0 0 0 0 0 0 0 0 0 0.1 0"/><feBlend in2="BackgroundImageFix" result="effect1_dropShadow_7506_8215"/><feColorMatrix in="SourceAlpha" result="hardAlpha" values="0 0 0 0 0 0 0 0 0 0 0 0 0 0 0 0 0 0 127 0"/><feOffset dy=".089"/><feGaussianBlur stdDeviation=".201"/><feComposite in2="hardAlpha" operator="out"/><feColorMatrix values="0 0 0 0 0 0 0 0 0 0 0 0 0 0 0 0 0 0 0.16 0"/><feBlend in2="effect1_dropShadow_7506_8215" result="effect2_dropShadow_7506_8215"/><feBlend in="SourceGraphic" in2="effect2_dropShadow_7506_8215" result="shape"/><feColorMatrix in="SourceAlpha" result="hardAlpha" values="0 0 0 0 0 0 0 0 0 0 0 0 0 0 0 0 0 0 127 0"/><feOffset dy="-.086"/><feGaussianBlur stdDeviation=".15"/><feComposite in2="hardAlpha" k2="-1" k3="1" operator="arithmetic"/><feColorMatrix values="0 0 0 0 0 0 0 0 0 0 0 0 0 0 0 0 0 0 0.24 0"/><feBlend in2="shape" result="effect3_innerShadow_7506_8215"/><feColorMatrix in="SourceAlpha" result="hardAlpha" values="0 0 0 0 0 0 0 0 0 0 0 0 0 0 0 0 0 0 127 0"/><feOffset dy="-.156"/><feGaussianBlur stdDeviation=".312"/><feComposite in2="hardAlpha" k2="-1" k3="1" operator="arithmetic"/><feColorMatrix values="0 0 0 0 0.6775 0 0 0 0 0.625 0 0 0 0 1 0 0 0 0.66 0"/><feBlend in2="effect3_innerShadow_7506_8215" result="effect4_innerShadow_7506_8215"/><feColorMatrix in="SourceAlpha" result="hardAlpha" values="0 0 0 0 0 0 0 0 0 0 0 0 0 0 0 0 0 0 127 0"/><feMorphology in="SourceAlpha" radius=".089" result="effect5_innerShadow_7506_8215"/><feOffset/><feGaussianBlur stdDeviation=".134"/><feComposite in2="hardAlpha" k2="-1" k3="1" operator="arithmetic"/><feColorMatrix values="0 0 0 0 1 0 0 0 0 1 0 0 0 0 1 0 0 0 1 0"/><feBlend in2="effect4_innerShadow_7506_8215" result="effect5_innerShadow_7506_8215"/><feColorMatrix in="SourceAlpha" result="hardAlpha" values="0 0 0 0 0 0 0 0 0 0 0 0 0 0 0 0 0 0 127 0"/><feMorphology in="SourceAlpha" radius=".089" result="effect6_innerShadow_7506_8215"/><feOffset/><feGaussianBlur stdDeviation=".1"/><feComposite in2="hardAlpha" k2="-1" k3="1" operator="arithmetic"/><feColorMatrix values="0 0 0 0 1 0 0 0 0 1 0 0 0 0 1 0 0 0 1 0"/><feBlend in2="effect5_innerShadow_7506_8215" result="effect6_innerShadow_7506_8215"/></filter><filter id="z" width=".268" height=".268" x="39.438" y="46.738" color-interpolation-filters="sRGB" filterUnits="userSpaceOnUse"><feFlood flood-opacity="0" result="BackgroundImageFix"/><feColorMatrix in="SourceAlpha" result="hardAlpha" values="0 0 0 0 0 0 0 0 0 0 0 0 0 0 0 0 0 0 127 0"/><feOffset/><feGaussianBlur stdDeviation=".058"/><feComposite in2="hardAlpha" operator="out"/><feColorMatrix values="0 0 0 0 1 0 0 0 0 1 0 0 0 0 1 0 0 0 0.35 0"/><feBlend in2="BackgroundImageFix" result="effect1_dropShadow_7506_8215"/><feBlend in="SourceGraphic" in2="effect1_dropShadow_7506_8215" result="shape"/></filter><filter id="A" width=".268" height=".268" x="39.803" y="46.469" color-interpolation-filters="sRGB" filterUnits="userSpaceOnUse"><feFlood flood-opacity="0" result="BackgroundImageFix"/><feColorMatrix in="SourceAlpha" result="hardAlpha" values="0 0 0 0 0 0 0 0 0 0 0 0 0 0 0 0 0 0 127 0"/><feOffset/><feGaussianBlur stdDeviation=".058"/><feComposite in2="hardAlpha" operator="out"/><feColorMatrix values="0 0 0 0 1 0 0 0 0 1 0 0 0 0 1 0 0 0 0.35 0"/><feBlend in2="BackgroundImageFix" result="effect1_dropShadow_7506_8215"/><feBlend in="SourceGraphic" in2="effect1_dropShadow_7506_8215" result="shape"/></filter><filter id="B" width=".268" height=".268" x="39.438" y="46.738" color-interpolation-filters="sRGB" filterUnits="userSpaceOnUse"><feFlood flood-opacity="0" result="BackgroundImageFix"/><feColorMatrix in="SourceAlpha" result="hardAlpha" values="0 0 0 0 0 0 0 0 0 0 0 0 0 0 0 0 0 0 127 0"/><feOffset/><feGaussianBlur stdDeviation=".058"/><feComposite in2="hardAlpha" operator="out"/><feColorMatrix values="0 0 0 0 1 0 0 0 0 1 0 0 0 0 1 0 0 0 0.35 0"/><feBlend in2="BackgroundImageFix" result="effect1_dropShadow_7506_8215"/><feBlend in="SourceGraphic" in2="effect1_dropShadow_7506_8215" result="shape"/></filter><filter id="C" width=".268" height=".268" x="39.803" y="46.469" color-interpolation-filters="sRGB" filterUnits="userSpaceOnUse"><feFlood flood-opacity="0" result="BackgroundImageFix"/><feColorMatrix in="SourceAlpha" result="hardAlpha" values="0 0 0 0 0 0 0 0 0 0 0 0 0 0 0 0 0 0 127 0"/><feOffset/><feGaussianBlur stdDeviation=".058"/><feComposite in2="hardAlpha" operator="out"/><feColorMatrix values="0 0 0 0 1 0 0 0 0 1 0 0 0 0 1 0 0 0 0.35 0"/><feBlend in2="BackgroundImageFix" result="effect1_dropShadow_7506_8215"/><feBlend in="SourceGraphic" in2="effect1_dropShadow_7506_8215" result="shape"/></filter><filter id="D" width=".121" height=".121" x="40.064" y="43.332" color-interpolation-filters="sRGB" filterUnits="userSpaceOnUse"><feFlood flood-opacity="0" result="BackgroundImageFix"/><feBlend in="SourceGraphic" in2="BackgroundImageFix" result="shape"/><feGaussianBlur result="effect1_foregroundBlur_7506_8215" stdDeviation=".015"/></filter><filter id="E" width=".121" height=".121" x="46.366" y="39.007" color-interpolation-filters="sRGB" filterUnits="userSpaceOnUse"><feFlood flood-opacity="0" result="BackgroundImageFix"/><feBlend in="SourceGraphic" in2="BackgroundImageFix" result="shape"/><feGaussianBlur result="effect1_foregroundBlur_7506_8215" stdDeviation=".015"/></filter><filter id="F" width=".121" height=".121" x="40.618" y="40.575" color-interpolation-filters="sRGB" filterUnits="userSpaceOnUse"><feFlood flood-opacity="0" result="BackgroundImageFix"/><feBlend in="SourceGraphic" in2="BackgroundImageFix" result="shape"/><feGaussianBlur result="effect1_foregroundBlur_7506_8215" stdDeviation=".015"/></filter><filter id="G" width=".121" height=".121" x="40.924" y="40.158" color-interpolation-filters="sRGB" filterUnits="userSpaceOnUse"><feFlood flood-opacity="0" result="BackgroundImageFix"/><feBlend in="SourceGraphic" in2="BackgroundImageFix" result="shape"/><feGaussianBlur result="effect1_foregroundBlur_7506_8215" stdDeviation=".015"/></filter><filter id="H" width=".121" height=".121" x="38.956" y="39.302" color-interpolation-filters="sRGB" filterUnits="userSpaceOnUse"><feFlood flood-opacity="0" result="BackgroundImageFix"/><feBlend in="SourceGraphic" in2="BackgroundImageFix" result="shape"/><feGaussianBlur result="effect1_foregroundBlur_7506_8215" stdDeviation=".015"/></filter><filter id="I" width=".121" height=".121" x="40.685" y="38.66" color-interpolation-filters="sRGB" filterUnits="userSpaceOnUse"><feFlood flood-opacity="0" result="BackgroundImageFix"/><feBlend in="SourceGraphic" in2="BackgroundImageFix" result="shape"/><feGaussianBlur result="effect1_foregroundBlur_7506_8215" stdDeviation=".015"/></filter><filter id="J" width=".121" height=".121" x="45.745" y="43.679" color-interpolation-filters="sRGB" filterUnits="userSpaceOnUse"><feFlood flood-opacity="0" result="BackgroundImageFix"/><feBlend in="SourceGraphic" in2="BackgroundImageFix" result="shape"/><feGaussianBlur result="effect1_foregroundBlur_7506_8215" stdDeviation=".015"/></filter><filter id="K" width=".121" height=".121" x="39.299" y="41.086" color-interpolation-filters="sRGB" filterUnits="userSpaceOnUse"><feFlood flood-opacity="0" result="BackgroundImageFix"/><feBlend in="SourceGraphic" in2="BackgroundImageFix" result="shape"/><feGaussianBlur result="effect1_foregroundBlur_7506_8215" stdDeviation=".015"/></filter><filter id="L" width=".121" height=".121" x="39.2" y="44.036" color-interpolation-filters="sRGB" filterUnits="userSpaceOnUse"><feFlood flood-opacity="0" result="BackgroundImageFix"/><feBlend in="SourceGraphic" in2="BackgroundImageFix" result="shape"/><feGaussianBlur result="effect1_foregroundBlur_7506_8215" stdDeviation=".015"/></filter><filter id="M" width=".268" height=".268" x="42.684" y="41.142" color-interpolation-filters="sRGB" filterUnits="userSpaceOnUse"><feFlood flood-opacity="0" result="BackgroundImageFix"/><feColorMatrix in="SourceAlpha" result="hardAlpha" values="0 0 0 0 0 0 0 0 0 0 0 0 0 0 0 0 0 0 127 0"/><feOffset/><feGaussianBlur stdDeviation=".058"/><feComposite in2="hardAlpha" operator="out"/><feColorMatrix values="0 0 0 0 1 0 0 0 0 1 0 0 0 0 1 0 0 0 0.35 0"/><feBlend in2="BackgroundImageFix" result="effect1_dropShadow_7506_8215"/><feBlend in="SourceGraphic" in2="effect1_dropShadow_7506_8215" result="shape"/></filter><filter id="N" width=".268" height=".268" x="43.741" y="46.885" color-interpolation-filters="sRGB" filterUnits="userSpaceOnUse"><feFlood flood-opacity="0" result="BackgroundImageFix"/><feColorMatrix in="SourceAlpha" result="hardAlpha" values="0 0 0 0 0 0 0 0 0 0 0 0 0 0 0 0 0 0 127 0"/><feOffset/><feGaussianBlur stdDeviation=".058"/><feComposite in2="hardAlpha" operator="out"/><feColorMatrix values="0 0 0 0 1 0 0 0 0 1 0 0 0 0 1 0 0 0 0.35 0"/><feBlend in2="BackgroundImageFix" result="effect1_dropShadow_7506_8215"/><feBlend in="SourceGraphic" in2="effect1_dropShadow_7506_8215" result="shape"/></filter><linearGradient id="b" x1="229" x2="229" y1="16" y2="178" gradientUnits="userSpaceOnUse"><stop stop-color="#3E3D62"/><stop offset="1" stop-color="#3E3D62" stop-opacity="0"/></linearGradient><linearGradient id="c" x1="228.981" x2="228.981" y1="23.955" y2="32.195" gradientUnits="userSpaceOnUse"><stop stop-color="#3E3D62"/><stop offset="1" stop-color="#3E3D62" stop-opacity=".2"/></linearGradient><linearGradient id="d" x1="19" x2="17.29" y1="88.683" y2="28.345" gradientUnits="userSpaceOnUse"><stop stop-color="#C082FF"/><stop offset="1" stop-color="#190032" stop-opacity="0"/></linearGradient><linearGradient id="e" x1="65.699" x2="168.824" y1="32.442" y2="86.958" gradientUnits="userSpaceOnUse"><stop stop-color="#352F4B" stop-opacity=".4"/><stop offset="1" stop-color="#40395B"/></linearGradient><linearGradient id="g" x1="42.819" x2="42.819" y1="38.343" y2="48.179" gradientUnits="userSpaceOnUse"><stop stop-color="#232157"/><stop offset="1" stop-color="#53489C"/></linearGradient><linearGradient id="i" x1="47.184" x2="49.316" y1="68.686" y2="38.568" gradientUnits="userSpaceOnUse"><stop stop-color="#4402FF"/><stop offset="1" stop-color="#BFA2FE" stop-opacity="0"/></linearGradient><linearGradient id="n" x1="46.992" x2="49.678" y1="74.093" y2="36.158" gradientUnits="userSpaceOnUse"><stop stop-color="#4402FF"/><stop offset="1" stop-color="#BFA2FE" stop-opacity="0"/></linearGradient><linearGradient id="u" x1="45.753" x2="46.129" y1="42.181" y2="42.441" gradientUnits="userSpaceOnUse"><stop stop-color="#fff"/><stop offset="1" stop-color="#E3E0F4"/></linearGradient><linearGradient id="w" x1="45.087" x2="45.368" y1="42.364" y2="42.559" gradientUnits="userSpaceOnUse"><stop stop-color="#fff"/><stop offset="1" stop-color="#E3E0F4"/></linearGradient><linearGradient id="y" x1="45.623" x2="45.623" y1="42.32" y2="42.934" gradientUnits="userSpaceOnUse"><stop stop-color="#fff"/><stop offset="1" stop-color="#E3E0F4"/></linearGradient><linearGradient id="P" x1="93.136" x2="176.79" y1="84.998" y2="141.569" gradientUnits="userSpaceOnUse"><stop stop-color="#352F4B" stop-opacity=".4"/><stop offset="1" stop-color="#40395B"/></linearGradient><linearGradient id="Q" x1="65.572" x2="176.313" y1="125" y2="172.885" gradientUnits="userSpaceOnUse"><stop stop-color="#352F4B" stop-opacity=".4"/><stop offset="1" stop-color="#40395B"/></linearGradient><clipPath id="a"><path fill="#fff" d="M0 8a8 8 0 0 1 8-8h329a8 8 0 0 1 8 8v122a8 8 0 0 1-8 8H8a8 8 0 0 1-8-8V8Z"/></clipPath><clipPath id="f"><rect width="9.835" height="9.835" x="37.901" y="38.343" fill="#fff" rx="4.918"/></clipPath><clipPath id="O"><path fill="#fff" d="M39.069 39.819h7.029v7.029h-7.029z"/></clipPath><radialGradient id="k" cx="0" cy="0" r="1" gradientTransform="matrix(-7.15543 -7.15543 7.7535 -7.7535 48.237 55.23)" gradientUnits="userSpaceOnUse"><stop stop-color="#BF9EFF" stop-opacity="0"/><stop offset=".51" stop-color="#EFDBFF"/><stop offset="1" stop-color="#6663F6" stop-opacity="0"/></radialGradient><radialGradient id="p" cx="0" cy="0" r="1" gradientTransform="rotate(-135 35.994 18.565) scale(12.7457 13.8108)" gradientUnits="userSpaceOnUse"><stop stop-color="#BF9EFF" stop-opacity="0"/><stop offset=".51" stop-color="#EFDBFF"/><stop offset="1" stop-color="#6663F6" stop-opacity="0"/></radialGradient></defs></svg>