<svg width="698.4" height="75.201" viewBox="0 0 698.4 75.201" xmlns="http://www.w3.org/2000/svg"><g id="svgGroup" stroke-linecap="round" fill-rule="evenodd" font-size="9pt" stroke="#000" stroke-width="0.25mm" fill="#000" style="stroke:#000;stroke-width:0.25mm;fill:#000"><path d="M 293.5 74 L 284.5 74 L 284.5 0 L 293.5 0 L 293.5 30.3 Q 296.3 26.2 300.6 23.5 A 17.572 17.572 0 0 1 307.725 20.991 A 22.595 22.595 0 0 1 310.7 20.8 A 23.225 23.225 0 0 1 315.765 21.318 Q 320.859 22.456 323.85 26.1 Q 327.975 31.126 328.188 39.209 A 33.764 33.764 0 0 1 328.2 40.1 L 328.2 74 L 319.2 74 L 319.2 41.1 Q 319.2 35.5 316.6 32.1 A 8.42 8.42 0 0 0 310.442 28.753 A 11.979 11.979 0 0 0 309.3 28.7 A 13.23 13.23 0 0 0 302.587 30.566 A 17.586 17.586 0 0 0 300.55 31.95 Q 296.4 35.2 293.5 39.6 L 293.5 74 Z M 663.7 74 L 654.7 74 L 654.7 0 L 663.7 0 L 663.7 30.3 Q 666.5 26.2 670.8 23.5 A 17.572 17.572 0 0 1 677.925 20.991 A 22.595 22.595 0 0 1 680.9 20.8 A 23.225 23.225 0 0 1 685.965 21.318 Q 691.059 22.456 694.05 26.1 Q 698.175 31.126 698.388 39.209 A 33.764 33.764 0 0 1 698.4 40.1 L 698.4 74 L 689.4 74 L 689.4 41.1 Q 689.4 35.5 686.8 32.1 A 8.42 8.42 0 0 0 680.642 28.753 A 11.979 11.979 0 0 0 679.5 28.7 A 13.23 13.23 0 0 0 672.787 30.566 A 17.586 17.586 0 0 0 670.75 31.95 Q 666.6 35.2 663.7 39.6 L 663.7 74 Z M 179.8 74 L 170.8 74 L 170.8 22 L 179.5 22 L 179.5 30.7 Q 182.3 26.5 186.65 23.65 A 17.316 17.316 0 0 1 193.756 21.025 A 22.629 22.629 0 0 1 197 20.8 A 23.225 23.225 0 0 1 202.065 21.318 Q 207.159 22.456 210.15 26.1 Q 214.275 31.126 214.488 39.209 A 33.764 33.764 0 0 1 214.5 40.1 L 214.5 74 L 205.5 74 L 205.5 41.1 A 19.265 19.265 0 0 0 205.158 37.359 Q 204.719 35.145 203.719 33.397 A 10.966 10.966 0 0 0 202.85 32.1 A 8.579 8.579 0 0 0 196.573 28.747 A 12.061 12.061 0 0 0 195.5 28.7 A 13.122 13.122 0 0 0 188.651 30.664 A 17.353 17.353 0 0 0 186.8 31.95 Q 182.7 35.2 179.8 39.6 L 179.8 74 Z M 254 74 L 244.5 74 L 244.5 12.4 L 223 12.4 L 223 4 L 275.5 4 L 275.5 12.4 L 254 12.4 L 254 74 Z M 0 73.8 L 0 4.2 A 100.907 100.907 0 0 1 1.856 4.006 Q 4.753 3.729 8.576 3.507 A 270.552 270.552 0 0 1 8.7 3.5 A 168.416 168.416 0 0 1 13.537 3.295 Q 16.008 3.224 18.745 3.206 A 285.352 285.352 0 0 1 20.6 3.2 Q 29 3.2 34.859 5.289 A 22.604 22.604 0 0 1 40.3 8.05 A 16.711 16.711 0 0 1 44.863 12.707 Q 47.054 16.14 47.191 20.601 A 19.526 19.526 0 0 1 47.2 21.2 A 17.052 17.052 0 0 1 46.573 25.92 A 13.798 13.798 0 0 1 44.25 30.55 Q 41.3 34.4 35.7 36.9 A 30.217 30.217 0 0 1 40.336 38.96 Q 43.813 40.894 46 43.55 Q 49.5 47.8 49.5 54 Q 49.5 63.315 42.29 68.928 A 22.979 22.979 0 0 1 42 69.15 A 24.681 24.681 0 0 1 34.623 72.86 Q 28.579 74.8 20.2 74.8 A 221.836 221.836 0 0 1 12.12 74.658 A 187.566 187.566 0 0 1 8.65 74.5 A 227.449 227.449 0 0 1 6.066 74.344 Q 3.259 74.157 1.195 73.938 A 65.535 65.535 0 0 1 0 73.8 Z M 104.1 51.7 L 67.7 51.7 A 24.088 24.088 0 0 0 68.839 56.725 Q 70.175 60.538 72.8 63.1 Q 77 67.2 83.9 67.2 Q 88.4 67.2 92 66.25 Q 95.6 65.3 98.9 63.8 L 101 71.5 A 40.77 40.77 0 0 1 96.665 73.126 A 51.863 51.863 0 0 1 92.9 74.15 A 38.914 38.914 0 0 1 87.808 74.969 A 52.025 52.025 0 0 1 82.8 75.2 A 28.318 28.318 0 0 1 75.054 74.195 A 21.108 21.108 0 0 1 65.05 68.05 A 23.521 23.521 0 0 1 59.845 58.51 Q 58.5 53.845 58.5 48 A 35.359 35.359 0 0 1 59.333 40.178 A 28.84 28.84 0 0 1 61.45 34.05 A 24.642 24.642 0 0 1 66.466 26.968 A 22.887 22.887 0 0 1 69.7 24.35 A 21.048 21.048 0 0 1 79.959 20.878 A 26.205 26.205 0 0 1 82 20.8 Q 89.5 20.8 94.45 24.05 Q 99.4 27.3 101.9 32.8 A 28.185 28.185 0 0 1 104.326 42.664 A 33.434 33.434 0 0 1 104.4 44.9 A 75.204 75.204 0 0 1 104.109 51.597 A 69.426 69.426 0 0 1 104.1 51.7 Z M 158.5 51.7 L 122.1 51.7 A 24.088 24.088 0 0 0 123.239 56.725 Q 124.575 60.538 127.2 63.1 Q 131.4 67.2 138.3 67.2 Q 142.8 67.2 146.4 66.25 Q 150 65.3 153.3 63.8 L 155.4 71.5 A 40.77 40.77 0 0 1 151.065 73.126 A 51.863 51.863 0 0 1 147.3 74.15 A 38.914 38.914 0 0 1 142.208 74.969 A 52.025 52.025 0 0 1 137.2 75.2 A 28.318 28.318 0 0 1 129.454 74.195 A 21.108 21.108 0 0 1 119.45 68.05 A 23.521 23.521 0 0 1 114.245 58.51 Q 112.9 53.845 112.9 48 A 35.359 35.359 0 0 1 113.733 40.178 A 28.84 28.84 0 0 1 115.85 34.05 A 24.642 24.642 0 0 1 120.866 26.968 A 22.887 22.887 0 0 1 124.1 24.35 A 21.048 21.048 0 0 1 134.359 20.878 A 26.205 26.205 0 0 1 136.4 20.8 Q 143.9 20.8 148.85 24.05 Q 153.8 27.3 156.3 32.8 A 28.185 28.185 0 0 1 158.726 42.664 A 33.434 33.434 0 0 1 158.8 44.9 A 75.204 75.204 0 0 1 158.509 51.597 A 69.426 69.426 0 0 1 158.5 51.7 Z M 385.8 51.7 L 349.4 51.7 A 24.088 24.088 0 0 0 350.539 56.725 Q 351.875 60.538 354.5 63.1 Q 358.7 67.2 365.6 67.2 Q 370.1 67.2 373.7 66.25 Q 377.3 65.3 380.6 63.8 L 382.7 71.5 A 40.77 40.77 0 0 1 378.365 73.126 A 51.863 51.863 0 0 1 374.6 74.15 A 38.914 38.914 0 0 1 369.508 74.969 A 52.025 52.025 0 0 1 364.5 75.2 A 28.318 28.318 0 0 1 356.754 74.195 A 21.108 21.108 0 0 1 346.75 68.05 A 23.521 23.521 0 0 1 341.545 58.51 Q 340.2 53.845 340.2 48 A 35.359 35.359 0 0 1 341.033 40.178 A 28.84 28.84 0 0 1 343.15 34.05 A 24.642 24.642 0 0 1 348.166 26.968 A 22.887 22.887 0 0 1 351.4 24.35 A 21.048 21.048 0 0 1 361.659 20.878 A 26.205 26.205 0 0 1 363.7 20.8 Q 371.2 20.8 376.15 24.05 Q 381.1 27.3 383.6 32.8 A 28.185 28.185 0 0 1 386.026 42.664 A 33.434 33.434 0 0 1 386.1 44.9 A 75.204 75.204 0 0 1 385.809 51.597 A 69.426 69.426 0 0 1 385.8 51.7 Z M 477.1 51.7 L 440.7 51.7 A 24.088 24.088 0 0 0 441.839 56.725 Q 443.175 60.538 445.8 63.1 Q 450 67.2 456.9 67.2 Q 461.4 67.2 465 66.25 Q 468.6 65.3 471.9 63.8 L 474 71.5 A 40.77 40.77 0 0 1 469.665 73.126 A 51.863 51.863 0 0 1 465.9 74.15 A 38.914 38.914 0 0 1 460.808 74.969 A 52.025 52.025 0 0 1 455.8 75.2 A 28.318 28.318 0 0 1 448.054 74.195 A 21.108 21.108 0 0 1 438.05 68.05 A 23.521 23.521 0 0 1 432.845 58.51 Q 431.5 53.845 431.5 48 A 35.359 35.359 0 0 1 432.333 40.178 A 28.84 28.84 0 0 1 434.45 34.05 A 24.642 24.642 0 0 1 439.466 26.968 A 22.887 22.887 0 0 1 442.7 24.35 A 21.048 21.048 0 0 1 452.959 20.878 A 26.205 26.205 0 0 1 455 20.8 Q 462.5 20.8 467.45 24.05 Q 472.4 27.3 474.9 32.8 A 28.185 28.185 0 0 1 477.326 42.664 A 33.434 33.434 0 0 1 477.4 44.9 A 75.204 75.204 0 0 1 477.109 51.597 A 69.426 69.426 0 0 1 477.1 51.7 Z M 595.2 51.7 L 558.8 51.7 A 24.088 24.088 0 0 0 559.939 56.725 Q 561.275 60.538 563.9 63.1 Q 568.1 67.2 575 67.2 Q 579.5 67.2 583.1 66.25 Q 586.7 65.3 590 63.8 L 592.1 71.5 A 40.77 40.77 0 0 1 587.765 73.126 A 51.863 51.863 0 0 1 584 74.15 A 38.914 38.914 0 0 1 578.908 74.969 A 52.025 52.025 0 0 1 573.9 75.2 A 28.318 28.318 0 0 1 566.154 74.195 A 21.108 21.108 0 0 1 556.15 68.05 A 23.521 23.521 0 0 1 550.945 58.51 Q 549.6 53.845 549.6 48 A 35.359 35.359 0 0 1 550.433 40.178 A 28.84 28.84 0 0 1 552.55 34.05 A 24.642 24.642 0 0 1 557.566 26.968 A 22.887 22.887 0 0 1 560.8 24.35 A 21.048 21.048 0 0 1 571.059 20.878 A 26.205 26.205 0 0 1 573.1 20.8 Q 580.6 20.8 585.55 24.05 Q 590.5 27.3 593 32.8 A 28.185 28.185 0 0 1 595.426 42.664 A 33.434 33.434 0 0 1 595.5 44.9 A 75.204 75.204 0 0 1 595.209 51.597 A 69.426 69.426 0 0 1 595.2 51.7 Z M 517.4 56.1 L 517.4 31.7 L 508.4 31.7 L 508.4 23.9 L 517.6 23.9 L 519.5 7.5 L 526.4 7.5 L 526.4 23.9 L 540.8 23.9 L 540.8 31.7 L 526.4 31.7 L 526.4 56.8 A 21.559 21.559 0 0 0 526.568 59.596 Q 527.041 63.202 528.85 64.9 Q 531.3 67.2 534.7 67.2 Q 537.2 67.2 539.45 66.4 Q 541.7 65.6 543.6 64.5 L 546.1 71.7 A 18.546 18.546 0 0 1 544.482 72.556 Q 543.68 72.935 542.734 73.308 A 43.365 43.365 0 0 1 540.7 74.05 Q 537.3 75.2 533.6 75.2 Q 526.1 75.2 521.75 70.25 A 16.116 16.116 0 0 1 518.522 64.348 Q 517.759 61.917 517.515 58.98 A 34.777 34.777 0 0 1 517.4 56.1 Z M 643.4 23.9 L 640.7 31.5 A 30.422 30.422 0 0 0 637.796 30.224 A 23.42 23.42 0 0 0 635.35 29.45 A 20.543 20.543 0 0 0 632.307 28.924 A 26.355 26.355 0 0 0 629.7 28.8 A 15.889 15.889 0 0 0 622.447 30.443 A 16.132 16.132 0 0 0 617.95 33.85 Q 613.2 38.9 613.2 47.8 A 25.192 25.192 0 0 0 613.905 53.86 A 21.45 21.45 0 0 0 615.2 57.6 A 18.564 18.564 0 0 0 618.11 62.177 A 16.275 16.275 0 0 0 620.75 64.6 Q 624.3 67.2 629.1 67.2 Q 632.265 67.2 634.668 66.61 A 15.08 15.08 0 0 0 635.6 66.35 Q 638.289 65.503 641.376 63.912 A 49.095 49.095 0 0 0 641.4 63.9 L 644.2 71.5 Q 641.1 73.2 637.25 74.2 Q 633.4 75.2 628.5 75.2 A 26.803 26.803 0 0 1 621.461 74.31 A 22.074 22.074 0 0 1 615.55 71.75 Q 610 68.3 607 62.15 Q 604 56 604 48 Q 604 40.5 607.05 34.3 Q 610.1 28.1 615.8 24.45 A 23.067 23.067 0 0 1 625.468 21.029 A 29.608 29.608 0 0 1 629.2 20.8 Q 633.6 20.8 636.95 21.6 Q 640.3 22.4 643.4 23.9 Z M 407.1 74 L 398.1 74 L 398.1 22 L 406.8 22 L 406.8 33.3 Q 408.1 30 410.3 27.15 Q 412.5 24.3 415.8 22.55 A 14.817 14.817 0 0 1 420.48 21.026 A 19.459 19.459 0 0 1 423.5 20.8 Q 425 20.8 426.5 20.95 A 18.972 18.972 0 0 1 427.555 21.084 Q 428.055 21.162 428.482 21.262 A 8.817 8.817 0 0 1 429 21.4 L 426.3 30.7 A 9.763 9.763 0 0 0 424.155 30.088 Q 423.059 29.9 421.8 29.9 A 12.958 12.958 0 0 0 415.17 31.746 A 15.609 15.609 0 0 0 414.75 32 Q 411.422 34.086 409.278 38.442 A 22.927 22.927 0 0 0 409.25 38.5 Q 407.487 42.107 407.17 47.328 A 39.09 39.09 0 0 0 407.1 49.7 L 407.1 74 Z M 20.9 41.6 L 9.5 41.6 L 9.5 66.3 Q 14.8 66.9 20.9 66.9 Q 29.8 66.9 34.8 63.7 Q 39.8 60.5 39.8 54.4 A 11.728 11.728 0 0 0 38.928 49.8 Q 37.826 47.187 35.333 45.312 A 14.027 14.027 0 0 0 34.9 45 A 16.7 16.7 0 0 0 30.226 42.799 Q 26.303 41.6 20.9 41.6 Z M 9.5 11.4 L 9.5 34.2 L 20.5 34.2 Q 28.4 34.2 33.05 30.9 Q 37.7 27.6 37.7 22.4 A 10.798 10.798 0 0 0 37.026 18.501 Q 35.939 15.671 33.1 13.85 A 16.643 16.643 0 0 0 28.614 11.886 Q 25.125 10.9 20.5 10.9 Q 17.2 10.9 14.5 11.05 Q 11.8 11.2 9.5 11.4 Z M 67.6 44.4 L 96.1 44.4 A 24.355 24.355 0 0 0 95.696 39.815 Q 95.2 37.231 94.096 35.207 A 12.422 12.422 0 0 0 92.3 32.7 A 12.488 12.488 0 0 0 85.339 28.924 A 18.395 18.395 0 0 0 81.8 28.6 A 13.58 13.58 0 0 0 76.688 29.535 A 12.524 12.524 0 0 0 72.2 32.65 Q 68.4 36.7 67.6 44.4 Z M 122 44.4 L 150.5 44.4 A 24.355 24.355 0 0 0 150.096 39.815 Q 149.6 37.231 148.496 35.207 A 12.422 12.422 0 0 0 146.7 32.7 A 12.488 12.488 0 0 0 139.739 28.924 A 18.395 18.395 0 0 0 136.2 28.6 A 13.58 13.58 0 0 0 131.088 29.535 A 12.524 12.524 0 0 0 126.6 32.65 Q 122.8 36.7 122 44.4 Z M 349.3 44.4 L 377.8 44.4 A 24.355 24.355 0 0 0 377.396 39.815 Q 376.9 37.231 375.796 35.207 A 12.422 12.422 0 0 0 374 32.7 A 12.488 12.488 0 0 0 367.039 28.924 A 18.395 18.395 0 0 0 363.5 28.6 A 13.58 13.58 0 0 0 358.388 29.535 A 12.524 12.524 0 0 0 353.9 32.65 Q 350.1 36.7 349.3 44.4 Z M 440.6 44.4 L 469.1 44.4 A 24.355 24.355 0 0 0 468.696 39.815 Q 468.2 37.231 467.096 35.207 A 12.422 12.422 0 0 0 465.3 32.7 A 12.488 12.488 0 0 0 458.339 28.924 A 18.395 18.395 0 0 0 454.8 28.6 A 13.58 13.58 0 0 0 449.688 29.535 A 12.524 12.524 0 0 0 445.2 32.65 Q 441.4 36.7 440.6 44.4 Z M 558.7 44.4 L 587.2 44.4 A 24.355 24.355 0 0 0 586.796 39.815 Q 586.3 37.231 585.196 35.207 A 12.422 12.422 0 0 0 583.4 32.7 A 12.488 12.488 0 0 0 576.439 28.924 A 18.395 18.395 0 0 0 572.9 28.6 A 13.58 13.58 0 0 0 567.788 29.535 A 12.524 12.524 0 0 0 563.3 32.65 Q 559.5 36.7 558.7 44.4 Z M 491.763 73.262 A 6.418 6.418 0 0 0 496.4 75.2 A 8.605 8.605 0 0 0 497.022 75.178 A 6.461 6.461 0 0 0 501.2 73.35 Q 503.1 71.5 503.1 68.5 A 6.225 6.225 0 0 0 502.521 65.829 A 6.955 6.955 0 0 0 501.05 63.8 Q 499 61.8 496.4 61.8 A 8.813 8.813 0 0 0 494.547 61.985 A 5.979 5.979 0 0 0 491.5 63.6 A 5.927 5.927 0 0 0 489.932 66.44 A 8.624 8.624 0 0 0 489.7 68.5 Q 489.7 71.2 491.7 73.2 A 8.317 8.317 0 0 0 491.763 73.262 Z" vector-effect="non-scaling-stroke"/></g></svg>