<svg xmlns="http://www.w3.org/2000/svg" viewBox="0 0 384.7 311.44"><defs><style>.cls-1{fill:#1a202c;}.cls-2{fill:#007ee5;}</style></defs><g id="Layer_2" data-name="Layer 2"><g id="Layer_1-2" data-name="Layer 1"><path class="cls-1" d="M0,311.44V0H69.22V311.44Z"/><path class="cls-1" d="M347,36c-25-24-62.46-36-111.88-36H96.62V261.15q17.14,12.64,34.57,25.31t34.57,25h69.32c50.1,0,87.68-12.35,112.39-37.06q37.32-36.8,37.23-117.19Q384.7,72,347,36ZM304.4,221.69c-6.52,15.1-16.64,25.39-29.86,31.05-13.37,5.67-29.85,8.41-49.24,8.41H165.76V54.22H225.3c21.11,0,38.27,2.75,51.31,8.24,12.86,5.32,22.47,15.61,28.65,30.37q9.27,22.4,9.26,64.34C314.52,185.14,311.09,206.76,304.4,221.69Z"/><path class="cls-2" d="M165.76,261.15v50.27q-17.25-12.3-34.66-25T96.62,261.15Z"/></g></g></svg>