<svg xmlns="http://www.w3.org/2000/svg" viewBox="0 0 307.33 85.09"><defs><style>.cls-1{fill:#1a202c;}.cls-2{fill:#007ee5;}</style></defs><g id="Layer_2" data-name="Layer 2"><g id="Layer_1-2" data-name="Layer 1"><path class="cls-1" d="M45.37,85.09q-22,0-33.69-11.22T0,43.31q0-20.51,11.34-31.9T45.24,0A83.54,83.54,0,0,1,59.43,1.09a76.54,76.54,0,0,1,11.89,3V19.22A67.69,67.69,0,0,0,46.6,14.74q-15,0-21.47,7T18.61,43.31q0,27.16,28.26,27.16A73.09,73.09,0,0,0,59.5,69.39a65.05,65.05,0,0,0,12-3.27V81.37a94,94,0,0,1-11.89,2.69A89.58,89.58,0,0,1,45.37,85.09Z"/><path class="cls-1" d="M102,85.09A30,30,0,0,1,90.68,83a19.62,19.62,0,0,1-8.43-6.28,16.68,16.68,0,0,1-3.19-10.44A17.42,17.42,0,0,1,85.79,51.9q6.72-5.38,19.9-5.39h19V44.85q0-5.64-3.33-8T108,34.6a70.36,70.36,0,0,0-21.19,3.2V25.63a61,61,0,0,1,10.93-2.76,85.35,85.35,0,0,1,14.06-1.08q14.53,0,22.48,5.57t7.95,17.88V83.8H126.34l-1-5.51a27.41,27.41,0,0,1-9.38,5A46.17,46.17,0,0,1,102,85.09Zm5-11.41a26.77,26.77,0,0,0,10.59-1.92,19.49,19.49,0,0,0,7.07-4.87V57.28H106.1q-10.74,0-10.74,8.33Q95.36,73.68,107.05,73.68Z"/><path class="cls-1" d="M154.59,83.8V1.28h18.34V83.8Z"/><path class="cls-1" d="M199.6,83.8V1.28h18.34V83.8Z"/><path class="cls-1" d="M297.33,10.83c-6.64-6.36-16.55-9.55-29.65-9.55H231v69.2q4.53,3.34,9.16,6.7t9.16,6.62h18.36c13.28,0,23.23-3.28,29.78-9.82s9.87-16.87,9.87-31.05Q307.33,20.35,297.33,10.83ZM286.05,60a15,15,0,0,1-7.91,8.23,33.6,33.6,0,0,1-13.05,2.23H249.32V15.65h15.77c5.59,0,10.14.73,13.6,2.18a14.13,14.13,0,0,1,7.59,8.05q2.45,5.93,2.45,17.05C288.73,50.34,287.82,56.07,286.05,60Z"/><path class="cls-2" d="M249.32,70.48V83.8q-4.57-3.27-9.19-6.62T231,70.48Z"/></g></g></svg>