<?xml version="1.0" encoding="UTF-8"?>
<svg version="1.1" xmlns="http://www.w3.org/2000/svg" width="500" height="500">
<path d="M0 0 C1.5395253 1.34907603 3.07049358 2.70732078 4.60009766 4.06762695 C5.09815918 4.50397461 5.5962207 4.94032227 6.109375 5.38989258 C36.38425963 31.9554397 58.93961776 66.25124615 72.60009766 104.06762695 C73.06609375 105.35660889 73.06609375 105.35660889 73.54150391 106.67163086 C78.79954981 121.50801039 82.11743359 136.53815283 84.60009766 152.06762695 C84.73287109 152.88730957 84.86564453 153.70699219 85.00244141 154.55151367 C88.69166599 178.55738093 87.61556852 204.20816578 83.60009766 228.06762695 C83.36661621 229.46223145 83.36661621 229.46223145 83.12841797 230.88500977 C75.35613769 275.11409374 55.04174294 317.97758901 23.96728516 350.58325195 C21.98087702 352.66799712 20.12590225 354.7918448 18.28759766 357.00512695 C-19.59450414 400.35013231 -80.186286 426.16670577 -136.80029297 430.84057617 C-203.0308833 435.01817038 -267.74064173 415.34185403 -317.9375 371.34643555 C-319.26345697 370.18694262 -320.60245706 369.0424075 -321.94287109 367.8996582 C-368.28668674 327.6039751 -396.07617528 267.24010299 -401.17285156 206.55639648 C-402.49029717 186.31306556 -401.76848774 166.08336986 -398.39990234 146.06762695 C-398.24424805 145.13789063 -398.08859375 144.2081543 -397.92822266 143.25024414 C-390.16283029 99.06035666 -369.92156361 58.64258028 -340.39990234 25.06762695 C-339.61486328 24.17043945 -338.82982422 23.27325195 -338.02099609 22.34887695 C-329.7803017 13.06197267 -321.15138214 4.75930219 -311.39990234 -2.93237305 C-309.95357422 -4.10413086 -309.95357422 -4.10413086 -308.47802734 -5.29956055 C-280.88365956 -27.22097455 -248.54191867 -42.46925093 -214.39990234 -50.93237305 C-213.19462891 -51.2365918 -211.98935547 -51.54081055 -210.74755859 -51.85424805 C-137.50045439 -68.29918782 -56.89814099 -49.10111798 0 0 Z " fill="#FEFEFE" transform="translate(407.39990234375,62.932373046875)"/>
<path d="M0 0 C16.94379761 -0.07054025 33.88754845 -0.12320604 50.83146 -0.15543652 C58.70141108 -0.17080922 66.57127015 -0.1917114 74.44116211 -0.22631836 C81.31230266 -0.25651864 88.18337649 -0.2756444 95.05458158 -0.28226548 C98.68218892 -0.28612679 102.30960564 -0.29499202 105.93715096 -0.31719017 C143.09391851 -0.5355395 183.18080926 2.95087208 211.25 30.25390625 C212.61125 31.61322266 212.61125 31.61322266 214 33 C215.11375 34.09634766 215.11375 34.09634766 216.25 35.21484375 C239.27239936 59.3613837 243.59373323 96.5891418 243.33618164 128.32299805 C243.31233097 131.45973024 243.31568646 134.59562015 243.32226562 137.73242188 C243.30821528 148.33301205 243.02134298 158.56508393 241 169 C240.72675903 170.44354858 240.72675903 170.44354858 240.44799805 171.91625977 C238.24676958 182.9224021 235.74999672 193.78425362 231 204 C230.59273682 204.88196045 230.59273682 204.88196045 230.17724609 205.78173828 C219.49241903 228.47888335 200.55937021 245.31381564 177 254 C152.26892428 262.4782775 126.59430497 263.89172823 100.68701172 264.07080078 C97.29933296 264.09747671 93.91680293 264.1676515 90.53076172 264.27587891 C56.87499607 265.32820406 56.87499607 265.32820406 44.63504028 254.49990845 C43.37452123 253.29229824 42.13062772 252.06704872 40.90557861 250.82347107 C37.55826411 247.6203856 33.73388341 245.07516105 29.9375 242.4375 C28.46437058 241.37876783 26.99279196 240.31787127 25.5234375 239.25390625 C22.34466961 236.96510961 19.16137115 234.68272561 15.9765625 232.40234375 C15.15422119 231.81203369 14.33187988 231.22172363 13.48461914 230.61352539 C11.90738178 229.48143112 10.32852203 228.35159265 8.74780273 227.22436523 C8.03825439 226.71462158 7.32870605 226.20487793 6.59765625 225.6796875 C5.97383057 225.23351074 5.35000488 224.78733398 4.70727539 224.32763672 C2.94859796 222.96002799 1.4507829 221.69504363 0 220 C-0.28855796 217.02567434 -0.39144491 214.2619896 -0.36076355 211.28718567 C-0.36332682 210.38624088 -0.3658901 209.48529608 -0.36853105 208.55704993 C-0.37348842 205.52589066 -0.35694377 202.49522502 -0.34057617 199.46411133 C-0.33973032 197.29620882 -0.34020422 195.12830545 -0.34190369 192.96040344 C-0.34276671 187.06400012 -0.32509128 181.16777877 -0.30418181 175.27141786 C-0.2854661 169.11346492 -0.28366861 162.95550812 -0.28010559 156.79753113 C-0.2707701 145.13157104 -0.24613595 133.46569499 -0.21605712 121.79977196 C-0.18255989 108.5206415 -0.16603888 95.24151657 -0.15097082 81.9623524 C-0.11958772 54.64152162 -0.06679801 27.32076551 0 0 Z " fill="#1B212D" transform="translate(197,118)"/>
<path d="M0 0 C90.72722672 0 90.72722672 0 107.5 15.8125 C123.61239703 33.84876533 125.54684706 60.07145157 125.39111328 83.16796875 C125.37501203 85.99788579 125.39107515 88.82637539 125.41015625 91.65625 C125.43735018 115.49781167 122.17579201 141.03799216 105 159 C77.90587724 182.84653955 29.59912709 174 0 174 C0 116.58 0 59.16 0 0 Z " fill="#FEFEFE" transform="translate(256,164)"/>
<path d="M0 0 C19.47 0 38.94 0 59 0 C59 86.79 59 173.58 59 263 C39.53 263 20.06 263 0 263 C0 176.21 0 89.42 0 0 Z " fill="#1C222E" transform="translate(97,118)"/>
<path d="M0 0 C0.33 0 0.66 0 1 0 C1 57.42 1 114.84 1 174 C21.79 174 42.58 174 64 174 C64 174.33 64 174.66 64 175 C43.21 175 22.42 175 1 175 C1 188.53 1 202.06 1 216 C25.75 216 50.5 216 76 216 C76 216.33 76 216.66 76 217 C66.41978462 217.32731214 56.84154934 217.57456607 47.25692272 217.72537041 C42.80392949 217.79782908 38.35481377 217.89571805 33.90405273 218.05615234 C-1.3851038 219.2948386 -1.3851038 219.2948386 -13.44392395 208.51254272 C-14.68786301 207.30315558 -15.91392081 206.07504899 -17.11958313 204.82749939 C-20.43975087 201.60076567 -24.26743427 199.06952297 -28.0625 196.4375 C-29.53445623 195.37894485 -31.00475003 194.31807047 -32.47265625 193.25390625 C-35.65986479 190.95852808 -38.85702427 188.67764222 -42.05859375 186.40234375 C-42.88544678 185.81203369 -43.7122998 185.22172363 -44.56420898 184.61352539 C-46.15308781 183.47947647 -47.74492136 182.3495526 -49.34008789 181.22436523 C-50.05285889 180.71462158 -50.76562988 180.20487793 -51.5 179.6796875 C-52.1290625 179.23351074 -52.758125 178.78733398 -53.40625 178.32763672 C-55 177 -55 177 -57 174 C-38.19 174 -19.38 174 0 174 C0 116.58 0 59.16 0 0 Z " fill="#027FE5" transform="translate(255,164)"/>
<path d="M0 0 C0.33 0 0.66 0 1 0 C1 57.42 1 114.84 1 174 C21.79 174 42.58 174 64 174 C64 174.33 64 174.66 64 175 C43.21 175 22.42 175 1 175 C1 188.53 1 202.06 1 216 C25.75 216 50.5 216 76 216 C76 216.33 76 216.66 76 217 C50.92 217 25.84 217 0 217 C0 203.14 0 189.28 0 175 C-18.81 175 -37.62 175 -57 175 C-57 174.67 -57 174.34 -57 174 C-38.19 174 -19.38 174 0 174 C0 116.58 0 59.16 0 0 Z " fill="#52687F" transform="translate(255,164)"/>
</svg>
