<svg xmlns="http://www.w3.org/2000/svg" viewBox="0 0 395.81 395.81"><defs><style>.cls-1{fill:#fff;}.cls-2{fill:#1a202c;}.cls-3{fill:#007ee5;}</style></defs><g id="Layer_2" data-name="Layer 2"><g id="Layer_1-2" data-name="Layer 1"><circle class="cls-1" cx="197.91" cy="197.91" r="197.91"/><path class="cls-2" d="M228.75,87.65c-23.7-.63-47.42-.28-71.13-.26-9.81,0-12.5,2.81-12.5,12.5q0,49.2,0,98.36v48.31q0,8.9,0,17.79l45.74,44.29h.07l37.84-.1c43.37-.12,84-27.11,100.85-67C360.51,168.27,309.19,89.79,228.75,87.65Zm63.33,122.68c-6.52,31.64-32.24,53.57-63.45,53.95-12.26.16-24.52,0-37.74,0V132c21.65,1,43-3.62,63.46,5.58C282.54,150.27,298.27,180.34,292.08,210.33Z"/><path class="cls-2" d="M71.17,197.73q0-48.76,0-97.54c0-10.42,3-13.35,13.61-13.52,6.15-.1,12.3-.16,18.45-.08,9.16.1,12.69,3.51,12.83,12.77.17,11.42.07,22.85.05,34.27q-.14,80.4-.3,160.81c0,11.29-3.17,14.5-14.63,14.72-5.85.11-11.72.17-17.57-.07-9.62-.39-12.43-3.23-12.45-12.94-.09-32.81,0-65.61,0-98.42Z"/><path class="cls-3" d="M190.89,264.31v44.4l-.07-.07q-22.87-22.15-45.74-44.33Z"/><path class="cls-2" d="M145.18,198.25q0-49.23,0-98.45c0-9.7,2.71-12.51,12.52-12.52,23.73,0,47.48-.36,71.2.27,80.53,2.13,131.89,80.68,100.92,154-16.89,40-57.53,67-100.93,67.11q-35.16.09-70.32.19c-11.76,0-13.36-1.54-13.39-13-.05-16.4,0-32.81,0-49.22Q145.19,222.42,145.18,198.25ZM191,264.37c13.24,0,25.51.13,37.77,0,31.25-.39,57-22.34,63.53-54,6.18-30-9.56-60.13-37.77-72.8C234,128.34,212.67,133,191,132Z"/><path class="cls-2" d="M71.17,197.73q0-48.81,0-97.63c0-10.43,3-13.36,13.62-13.54,6.16-.1,12.32-.15,18.48-.08,9.15.11,12.69,3.52,12.83,12.79.17,11.43.07,22.86,0,34.3q-.14,80.48-.29,161c0,11.31-3.18,14.51-14.65,14.74-5.86.11-11.73.17-17.59-.07-9.63-.39-12.44-3.24-12.46-13-.09-32.83,0-65.67,0-98.51Z"/></g></g></svg>