<svg xmlns="http://www.w3.org/2000/svg" viewBox="0 0 213.86 181.57"><defs><style>.cls-1{fill:#4285f4;}.cls-2,.cls-6{fill:#ea4335;}.cls-3,.cls-5{fill:#34a853;}.cls-4,.cls-7{fill:#fbbc04;}.cls-4,.cls-5,.cls-6{fill-rule:evenodd;}</style></defs><g id="Layer_2" data-name="Layer 2"><g id="Layer_1-2" data-name="Layer 1"><path class="cls-1" d="M31.78,104.19H20V81.84a21.26,21.26,0,0,1,.15-2.54H31.78a12.45,12.45,0,1,1,0,24.89Z"/><path class="cls-1" d="M31.78,161.54H20V136.65H31.78a12.45,12.45,0,1,1,0,24.89Z"/><path class="cls-1" d="M213.86,90.21a90.77,90.77,0,0,1-90.78,91.36H20V165.16H32.66a16.08,16.08,0,1,0,0-32.15H20V107.82H32.66a16.08,16.08,0,1,0,0-32.15H20.94a21.6,21.6,0,0,1,42.31,6.17v56.52h59.3c26.2,0,48.13-21.44,48.1-47.64a47.66,47.66,0,0,0-47.57-47.51H101.19a21.61,21.61,0,1,1,0-43.21h21.89A90.1,90.1,0,0,1,176.4,17.29a91.08,91.08,0,0,1,37.46,72.92Z"/><rect class="cls-1" x="20.04" width="50.8" height="50.8" rx="25.4"/><path class="cls-1" d="M44.23,149.09a12.44,12.44,0,0,1-12.45,12.45H12.45a12.45,12.45,0,1,1,0-24.89H31.78A12.45,12.45,0,0,1,44.23,149.09Z"/><path class="cls-1" d="M44.23,91.75a12.44,12.44,0,0,1-12.45,12.44H12.45A12.48,12.48,0,0,1,0,91.75,12.45,12.45,0,0,1,12.45,79.3H31.78A12.45,12.45,0,0,1,44.23,91.75Z"/><rect class="cls-2" x="74.27" y="108.09" width="20.7" height="20.27" rx="1.59"/><rect class="cls-3" x="74.27" y="80.71" width="20.7" height="20.45" rx="1.59"/><path class="cls-4" d="M129.52,56.21a1.56,1.56,0,0,1,2-1.49,37.53,37.53,0,0,1,18.7,12.41,37.15,37.15,0,0,1,3,4.31,1.55,1.55,0,0,1-1.33,2.34H131.06a1.55,1.55,0,0,1-1.54-1.55Z"/><path class="cls-5" d="M131.06,80.71h25a1.54,1.54,0,0,1,1.5,1.15,37.75,37.75,0,0,1,1.07,9,37.36,37.36,0,0,1-1.14,9.21,1.53,1.53,0,0,1-1.49,1.14H131.06a1.54,1.54,0,0,1-1.54-1.54V82.25A1.54,1.54,0,0,1,131.06,80.71Z"/><path class="cls-6" d="M103.4,108.09h17.68a1.51,1.51,0,0,1,1.51,1.52v17.27a1.49,1.49,0,0,1-1.48,1.48H103.4a1.51,1.51,0,0,1-1.51-1.51V109.61A1.52,1.52,0,0,1,103.4,108.09Z"/><rect class="cls-7" x="101.89" y="53.32" width="20.71" height="20.45" rx="1.59"/><rect class="cls-7" x="74.27" y="53.32" width="20.7" height="20.45" rx="1.59"/><path class="cls-6" d="M131.06,108.09h20.71a1.55,1.55,0,0,1,1.33,2.35,36.38,36.38,0,0,1-2.89,4.06,37.64,37.64,0,0,1-18.7,12.4,1.56,1.56,0,0,1-2-1.49V109.64A1.55,1.55,0,0,1,131.06,108.09Z"/><path class="cls-3" d="M123.18,87.11,111.49,98.8a1.22,1.22,0,0,1-1.73,0l-7.7-7.7a1.22,1.22,0,0,1,0-1.73l2-2a1.22,1.22,0,0,1,1.73,0l4.88,4.88,8.88-8.88a1.24,1.24,0,0,1,1.73,0l2,2A1.23,1.23,0,0,1,123.18,87.11Z"/></g></g></svg>