<?xml version="1.0" encoding="UTF-8"?>
<svg version="1.1" xmlns="http://www.w3.org/2000/svg" width="600" height="178">
<path d="M0 0 C0.9090509 -0.00315216 1.81810181 -0.00630432 2.75469971 -0.009552 C3.7338031 -0.00752777 4.71290649 -0.00550354 5.72167969 -0.00341797 C6.74348328 -0.00437469 7.76528687 -0.00533142 8.8180542 -0.00631714 C10.98677634 -0.00699789 13.15550052 -0.00515088 15.32421875 -0.00097656 C18.58956704 0.00430717 21.85477356 -0.00089053 25.12011719 -0.00732422 C55.70778181 -0.02018674 82.82245133 2.23177713 106.14355469 24.31689453 C121.61756981 40.46761585 128.93061382 60.51839789 128.74707031 82.72924805 C128.16295832 104.60632833 119.14572161 123.30474069 104.39355469 139.12939453 C86.55585876 155.8557963 65.04335212 161.45741038 41.20605469 161.43017578 C39.7716459 161.43407201 38.33723824 161.43840856 36.90283203 161.44316101 C33.92102278 161.45056368 30.93933214 161.45037202 27.95751953 161.44506836 C24.13644675 161.43922746 20.31585146 161.45634322 16.49485779 161.47941303 C13.54377409 161.49412068 10.59280697 161.4950271 7.64169312 161.49190331 C6.23187297 161.49241625 4.82204626 161.49764902 3.41226196 161.50771523 C1.45033465 161.52002709 -0.51169063 161.51136476 -2.47363281 161.50170898 C-4.14594971 161.50265312 -4.14594971 161.50265312 -5.85205078 161.50361633 C-8.60644531 161.12939453 -8.60644531 161.12939453 -10.25478554 159.9926939 C-12.21157435 157.29520788 -11.98407718 155.25531245 -11.98739624 151.94238281 C-11.99585571 150.64681458 -12.00431519 149.35124634 -12.01303101 148.01641846 C-12.00719788 146.5775134 -12.00105336 145.13860957 -11.99462891 143.69970703 C-11.99869324 142.18690613 -12.00403433 140.6741082 -12.01055908 139.16131592 C-12.02425511 135.04977921 -12.01892468 130.93846792 -12.00942183 126.82692719 C-12.00183703 122.52816654 -12.00886755 118.22942545 -12.01358032 113.93066406 C-12.01904133 106.71106494 -12.01183724 99.49155782 -11.99755859 92.27197266 C-11.98123139 83.92004333 -11.98651966 75.56833369 -12.00303781 67.21640968 C-12.01664288 60.051162 -12.01857714 52.88598053 -12.0107218 45.72072411 C-12.00603988 41.43879977 -12.00543462 37.15697877 -12.01533127 32.87506104 C-12.02398447 28.84982243 -12.01800942 24.82486761 -12.0006485 20.79965973 C-11.9966748 19.3205945 -11.99783276 17.84150547 -12.00443649 16.36244965 C-12.0126064 14.3471104 -12.00055532 12.33171909 -11.98739624 10.31640625 C-11.98626516 9.18741913 -11.98513409 8.05843201 -11.98396873 6.89523315 C-11.60644531 4.12939453 -11.60644531 4.12939453 -10.2013607 2.2851696 C-7.04859159 0.00047665 -3.78648845 0.00378658 0 0 Z M22.39355469 34.12939453 C22.39355469 65.14939453 22.39355469 96.16939453 22.39355469 128.12939453 C54.46137886 129.22542564 54.46137886 129.22542564 81.08105469 115.00439453 C91.73050457 103.59966452 95.23078972 90.61459402 94.73730469 75.47314453 C94.05124824 64.10420919 87.92811362 53.09451785 79.70605469 45.31689453 C62.41233416 31.32042033 43.3425434 32.82008274 22.39355469 34.12939453 Z " fill="#1A202C" transform="translate(461.6064453125,7.87060546875)"/>
<path d="M0 0 C20.87409674 18.18340584 20.87409674 18.18340584 23.00390625 31.4453125 C23.14836281 35.24245641 22.44339058 37.58960619 19.87890625 40.5078125 C15.53571777 43.11659997 11.50453656 42.87524448 6.56640625 42.8828125 C5.73689453 42.90730469 4.90738281 42.93179688 4.05273438 42.95703125 C-1.88482886 42.98514915 -5.28326168 41.9941612 -10.12109375 38.5078125 C-12.38671875 36.17578125 -12.38671875 36.17578125 -14.37109375 33.6953125 C-22.77098766 24.00972055 -34.03535063 18.25918591 -46.84765625 17.3046875 C-61.64888138 17.06531459 -74.10724012 21.84594682 -84.86328125 32.0625 C-94.78087075 42.80369555 -98.06618862 55.88705036 -97.5 70.1640625 C-96.6425761 82.52816886 -90.76634969 92.30908943 -81.93359375 100.7578125 C-70.8889136 110.05265405 -58.35059329 113.67536118 -44.12109375 112.5078125 C-31.30393039 110.26655989 -22.37878772 104.37455655 -13.12109375 95.5078125 C-5.91744015 88.78343424 -0.00721091 85.9504113 10.06640625 86.21484375 C15.06167214 86.73518395 18.6717902 88.70275956 21.87890625 92.5078125 C23.20641624 101.80038245 19.19178485 108.69476246 14.015625 116.21484375 C1.19043439 132.94670565 -17.29004873 143.01655517 -38.0625 146.2265625 C-62.66586285 148.48894069 -83.94307942 142.73018102 -103.546875 127.640625 C-119.51741106 114.34563643 -128.69474213 94.62676013 -131.87109375 74.3828125 C-133.27683814 52.5937744 -129.02159105 30.45287302 -114.5078125 13.3359375 C-85.77612203 -19.20387001 -35.34009283 -28.36823778 0 0 Z " fill="#1A202C" transform="translate(143.12109375,24.4921875)"/>
<path d="M0 0 C0.32613281 -0.56589844 0.65226562 -1.13179687 0.98828125 -1.71484375 C1.42527344 -2.44832031 1.86226563 -3.18179688 2.3125 -3.9375 C2.74175781 -4.66839844 3.17101562 -5.39929687 3.61328125 -6.15234375 C5 -8 5 -8 8 -9 C11.80818456 -9.25691524 15.62156351 -9.23132875 19.4375 -9.25 C20.48744141 -9.270625 21.53738281 -9.29125 22.61914062 -9.3125 C24.13604492 -9.32023437 24.13604492 -9.32023437 25.68359375 -9.328125 C26.60712646 -9.3374707 27.53065918 -9.34681641 28.48217773 -9.35644531 C31.54434583 -8.92293756 32.76213459 -8.1131195 35 -6 C35.50057125 -3.8588562 35.50057125 -3.8588562 35.50120544 -1.33154297 C35.51103958 -0.37254089 35.52087372 0.58646118 35.53100586 1.57452393 C35.52133789 2.62500916 35.51166992 3.67549438 35.50170898 4.7578125 C35.50981346 6.41910187 35.50981346 6.41910187 35.51808167 8.11395264 C35.53061598 11.78457139 35.51404583 15.45441302 35.49609375 19.125 C35.49624863 21.66943401 35.49773573 24.21386827 35.50050354 26.75830078 C35.50188965 32.09484151 35.48972602 37.43110658 35.46655273 42.76757812 C35.43994242 48.93828223 35.43819556 55.10861037 35.4499411 61.27935219 C35.46071846 67.21408555 35.45443169 73.1487041 35.44038582 79.08343506 C35.4358604 81.60967614 35.43554398 84.1359283 35.43945122 86.66217041 C35.44235235 90.18907563 35.4259082 93.71536053 35.40405273 97.2421875 C35.41080521 98.81791534 35.41080521 98.81791534 35.41769409 100.42547607 C35.40778946 101.38447815 35.39788483 102.34348022 35.38768005 103.33154297 C35.38403521 104.58256302 35.38403521 104.58256302 35.38031673 105.8588562 C34.90731958 108.52178114 34.1280032 109.3742271 32 111 C27.43719699 112.52093434 22.90455432 112.22539483 18.125 112.25 C17.13113281 112.270625 16.13726562 112.29125 15.11328125 112.3125 C11.0243262 112.33439534 7.73131329 112.26626369 3.8671875 110.859375 C1.38486877 108.38744254 1.22871277 106.43069149 1 103 C0.030625 103.54269531 -0.93875 104.08539063 -1.9375 104.64453125 C-18.39123449 113.5523928 -34.3290242 116.4636326 -52.8125 111.3125 C-67.64070502 106.26073408 -78.35186501 96.50587655 -86 83 C-93.93781198 66.33444815 -95.74953283 47.67306065 -90 30 C-83.76494768 14.04262515 -74.27895361 3.01447681 -58.875 -4.6875 C-39.11072407 -13.2927325 -18.15165111 -11.29948517 0 0 Z M-53.75 32.8125 C-60.1667258 41.90286155 -61.3807978 50.25984374 -59.6328125 61.32421875 C-57.50994263 68.49253961 -51.50119963 74.72811046 -45.36328125 78.7109375 C-37.65553523 82.6973054 -29.76188713 84.48902701 -21.21875 82.28125 C-11.21755518 78.87424957 -5.01269945 74.45118874 0 65 C2.97971859 57.47390666 3.39055825 49.4624759 0.97265625 41.703125 C-2.79192919 33.48569195 -8.41959724 26.87379538 -16.75 23.0625 C-31.29585521 18.30712426 -43.23632779 22.05988069 -53.75 32.8125 Z " fill="#1A202C" transform="translate(270,57)"/>
<path d="M0 0 C1.10214844 -0.020625 2.20429688 -0.04125 3.33984375 -0.0625 C4.40074219 -0.06765625 5.46164062 -0.0728125 6.5546875 -0.078125 C7.52647949 -0.0874707 8.49827148 -0.09681641 9.49951172 -0.10644531 C12.60145008 0.3146845 13.93027887 1.03590082 16.125 3.25 C17.13658811 6.27988927 17.25061701 9.08478957 17.25198364 12.26358032 C17.25480347 13.27485992 17.25762329 14.28613953 17.26052856 15.32806396 C17.25850433 16.43232727 17.2564801 17.53659058 17.25439453 18.67431641 C17.25614685 19.84257965 17.25789917 21.0108429 17.25970459 22.21450806 C17.26335533 25.42254013 17.26249138 28.63053103 17.2593255 31.83856249 C17.2567827 35.22167067 17.25914598 38.60477622 17.26071167 41.98788452 C17.26253324 47.69261157 17.26013308 53.3973257 17.25537109 59.10205078 C17.24998586 65.6272394 17.25164873 72.1523965 17.2571975 78.67758429 C17.26179847 84.32049021 17.26234403 89.96338684 17.25975883 95.60629404 C17.25822634 98.95719945 17.25832753 102.3080789 17.26129532 105.65898514 C17.26718213 114.19015743 17.22773577 122.71942693 17.125 131.25 C17.11179466 132.48316704 17.09858932 133.71633408 17.08498383 134.98686981 C17.03574392 138.60724706 16.95651294 142.2256402 16.86669922 145.84521484 C16.8463219 147.48474845 16.8463219 147.48474845 16.82553291 149.15740395 C16.79390997 150.1646974 16.76228703 151.17199085 16.72970581 152.20980835 C16.69955289 153.53041039 16.69955289 153.53041039 16.66879082 154.87769127 C15.94896 158.0179814 14.60411197 159.25332126 12.125 161.25 C9.42358398 161.75170898 9.42358398 161.75170898 6.37109375 161.74609375 C4.71883789 161.74706055 4.71883789 161.74706055 3.03320312 161.74804688 C1.88787109 161.72806641 0.74253906 161.70808594 -0.4375 161.6875 C-1.58669922 161.69458984 -2.73589844 161.70167969 -3.91992188 161.70898438 C-12.34780837 161.64480012 -12.34780837 161.64480012 -14.66381836 159.91040039 C-17.14006362 156.51573318 -17.00438469 153.31614194 -17.01544189 149.26626587 C-17.02115204 148.01565872 -17.02686218 146.76505157 -17.03274536 145.47654724 C-17.0339907 144.08804331 -17.0351158 142.69953927 -17.03613281 141.31103516 C-17.04076142 139.85074234 -17.04578614 138.39045072 -17.05117798 136.93016052 C-17.06429893 132.96112123 -17.07074621 128.99209884 -17.07518864 125.02304125 C-17.07811955 122.54367247 -17.08222437 120.06430832 -17.08669281 117.58494186 C-17.10036627 109.82845412 -17.11003395 102.07197693 -17.1138947 94.31547797 C-17.11837675 85.35989135 -17.13593201 76.40445726 -17.1648953 67.44891703 C-17.18650392 60.52738876 -17.19659852 53.60590343 -17.19793582 46.68434179 C-17.19898434 42.54988389 -17.20490215 38.41556941 -17.22275543 34.281147 C-17.23922226 30.39217944 -17.24139849 26.50346332 -17.23261642 22.61447334 C-17.23184533 21.18783839 -17.23619837 19.76118998 -17.24607468 18.334589 C-17.25877487 16.38566749 -17.25113267 14.43664516 -17.24249268 12.48770142 C-17.24395924 11.3974296 -17.2454258 10.30715778 -17.2469368 9.18384743 C-16.82245922 5.83555692 -15.86685471 3.95131389 -13.875 1.25 C-9.77746223 -0.79876888 -4.50346243 0.02092201 0 0 Z " fill="#1A202C" transform="translate(412.875,7.75)"/>
<path d="M0 0 C1.04994141 -0.020625 2.09988281 -0.04125 3.18164062 -0.0625 C4.69854492 -0.07023438 4.69854492 -0.07023438 6.24609375 -0.078125 C7.16962646 -0.0874707 8.09315918 -0.09681641 9.04467773 -0.10644531 C12.05251552 0.31937096 13.38841785 1.15537139 15.5625 3.25 C16.6380214 6.47656419 16.69095724 8.80211533 16.69621277 12.19577026 C16.70047775 13.43796326 16.70474274 14.68015625 16.70913696 15.95999146 C16.70878744 17.33905032 16.7083259 18.71810917 16.70776367 20.09716797 C16.71075541 21.5476083 16.71415798 22.99804784 16.71794128 24.44848633 C16.72678422 28.39067169 16.72911953 32.33283534 16.72975707 36.27502966 C16.73070618 39.56528583 16.73438453 42.85553695 16.73792917 46.14579117 C16.74607494 53.9085574 16.7485133 61.67131202 16.74780273 69.43408203 C16.74720198 77.44283021 16.757753 85.45151102 16.7735464 93.46024215 C16.78662079 100.33506172 16.79198667 107.20985926 16.79134732 114.08469117 C16.7910923 118.19116783 16.79394615 122.29758464 16.80452538 126.40404892 C16.81420459 130.26671297 16.81428677 134.12925993 16.80700874 137.9919281 C16.80596266 139.40888261 16.8083272 140.8258444 16.8143692 142.24278641 C16.82208843 144.17859698 16.81624524 146.11444742 16.80973816 148.05026245 C16.81028293 149.13315992 16.81082769 150.2160574 16.81138897 151.33176994 C16.55196826 154.37348499 15.93888852 156.53366706 14.5625 159.25 C10.19878193 162.03606615 5.06630432 161.54597676 0.0625 161.5 C-0.77925781 161.50773438 -1.62101562 161.51546875 -2.48828125 161.5234375 C-10.73916379 161.49745047 -10.73916379 161.49745047 -14.4375 159.25 C-16.63964267 155.8947875 -16.68874949 153.05615748 -16.69146729 149.10131836 C-16.69710693 147.83947723 -16.70274658 146.57763611 -16.70855713 145.27755737 C-16.70466863 143.88165226 -16.7005723 142.48574771 -16.69628906 141.08984375 C-16.69899949 139.61792833 -16.70256072 138.14601427 -16.70690918 136.67410278 C-16.71602928 132.67829693 -16.7124905 128.68259432 -16.70615101 124.68678665 C-16.70108907 120.50595063 -16.705783 116.32512348 -16.70892334 112.14428711 C-16.71256241 105.12319348 -16.70776542 98.10214193 -16.69824219 91.08105469 C-16.68735774 82.9626284 -16.69088336 74.84430257 -16.701895 66.72587872 C-16.71096954 59.75678236 -16.71225233 52.78771626 -16.70701766 45.81861591 C-16.70389888 41.65574306 -16.7034861 37.49291743 -16.71009064 33.33004761 C-16.71586589 29.41647512 -16.71186393 25.50303221 -16.70030212 21.58947372 C-16.6976565 20.15275157 -16.69841898 18.71601852 -16.70282745 17.27930069 C-16.70828788 15.31909829 -16.70022812 13.35887207 -16.69146729 11.39868164 C-16.69071323 10.30141251 -16.68995918 9.20414337 -16.68918228 8.07362366 C-16.4359051 5.23210685 -16.06462489 3.58065039 -14.4375 1.25 C-9.7168758 -0.3235414 -4.94412261 0.02419143 0 0 Z " fill="#1A202C" transform="translate(338.4375,7.75)"/>
</svg>
