<svg width="171" height="35" viewBox="0 0 171 35" fill="none" xmlns="http://www.w3.org/2000/svg">
<g filter="url(#filter0_dd_2049_5880)">
<path d="M3.5 11.5C3.5 5.97715 7.97715 1.5 13.5 1.5H156.959C162.482 1.5 166.959 5.97715 166.959 11.5V19.5C166.959 25.0228 162.482 29.5 156.959 29.5H13.5C7.97717 29.5 3.5 25.0228 3.5 19.5V11.5Z" fill="white"/>
<path d="M3.5 11.5C3.5 5.97715 7.97715 1.5 13.5 1.5H156.959C162.482 1.5 166.959 5.97715 166.959 11.5V19.5C166.959 25.0228 162.482 29.5 156.959 29.5H13.5C7.97717 29.5 3.5 25.0228 3.5 19.5V11.5Z" stroke="#D3D3D3"/>
<path d="M145.269 13.239H147.131V14.303C147.514 13.4817 148.256 13.071 149.357 13.071C149.871 13.071 150.333 13.1923 150.743 13.435C151.163 13.6683 151.49 14.0043 151.723 14.443C151.975 13.9857 152.293 13.645 152.675 13.421C153.067 13.1877 153.571 13.071 154.187 13.071C154.71 13.071 155.181 13.197 155.601 13.449C156.021 13.6917 156.353 14.0417 156.595 14.499C156.838 14.947 156.959 15.4697 156.959 16.067V20.519H155.069V16.529C155.069 15.9223 154.939 15.4697 154.677 15.171C154.416 14.8723 154.061 14.723 153.613 14.723C153.137 14.723 152.769 14.8583 152.507 15.129C152.255 15.3997 152.129 15.8663 152.129 16.529V20.519H150.239V16.529C150.239 15.9223 150.099 15.4697 149.819 15.171C149.539 14.8723 149.157 14.723 148.671 14.723C148.242 14.723 147.883 14.877 147.593 15.185C147.304 15.4837 147.159 15.9317 147.159 16.529V20.519H145.269V13.239Z" fill="#070A0D"/>
<path d="M140.555 20.701C139.817 20.701 139.155 20.533 138.567 20.197C137.979 19.8517 137.517 19.3897 137.181 18.811C136.845 18.223 136.677 17.5837 136.677 16.893C136.677 16.2023 136.845 15.563 137.181 14.975C137.517 14.387 137.979 13.925 138.567 13.589C139.155 13.2437 139.817 13.071 140.555 13.071C141.292 13.071 141.955 13.2437 142.543 13.589C143.131 13.925 143.593 14.387 143.929 14.975C144.265 15.563 144.433 16.2023 144.433 16.893C144.433 17.5837 144.265 18.223 143.929 18.811C143.593 19.3897 143.131 19.8517 142.543 20.197C141.955 20.533 141.292 20.701 140.555 20.701ZM138.567 16.893C138.567 17.2757 138.646 17.6257 138.805 17.943C138.973 18.2603 139.206 18.5123 139.505 18.699C139.813 18.8857 140.163 18.979 140.555 18.979C140.947 18.979 141.292 18.8857 141.591 18.699C141.899 18.5123 142.132 18.2603 142.291 17.943C142.459 17.6257 142.543 17.2757 142.543 16.893C142.543 16.5103 142.459 16.1603 142.291 15.843C142.123 15.5257 141.889 15.2737 141.591 15.087C141.292 14.891 140.947 14.793 140.555 14.793C140.163 14.793 139.817 14.891 139.519 15.087C139.22 15.2737 138.987 15.5257 138.819 15.843C138.651 16.1603 138.567 16.5103 138.567 16.893Z" fill="#070A0D"/>
<path d="M133.552 20.701C132.87 20.701 132.24 20.533 131.662 20.197C131.092 19.8517 130.64 19.385 130.304 18.797C129.968 18.209 129.8 17.5697 129.8 16.879C129.8 16.179 129.968 15.5397 130.304 14.961C130.64 14.373 131.106 13.911 131.704 13.575C132.301 13.2297 132.968 13.057 133.706 13.057C134.35 13.057 134.928 13.1783 135.442 13.421C135.955 13.6543 136.366 13.9857 136.674 14.415L135.218 15.605C135.05 15.353 134.83 15.1523 134.56 15.003C134.289 14.8537 133.995 14.779 133.678 14.779C133.286 14.779 132.94 14.877 132.642 15.073C132.343 15.2597 132.11 15.5117 131.942 15.829C131.774 16.1463 131.69 16.4963 131.69 16.879C131.69 17.2523 131.774 17.6023 131.942 17.929C132.119 18.2463 132.362 18.503 132.67 18.699C132.978 18.8857 133.328 18.979 133.72 18.979C134.065 18.979 134.364 18.9043 134.616 18.755C134.868 18.6057 135.096 18.391 135.302 18.111L136.674 19.301C135.946 20.2343 134.905 20.701 133.552 20.701Z" fill="#070A0D"/>
<path d="M128.244 20.701C127.889 20.701 127.591 20.5797 127.348 20.337C127.105 20.0943 126.984 19.805 126.984 19.469C126.984 19.133 127.105 18.8483 127.348 18.615C127.591 18.3723 127.889 18.251 128.244 18.251C128.599 18.251 128.893 18.3723 129.126 18.615C129.369 18.8483 129.49 19.133 129.49 19.469C129.49 19.8143 129.369 20.1083 129.126 20.351C128.893 20.5843 128.599 20.701 128.244 20.701Z" fill="#070A0D"/>
<path d="M124.228 10.299H126.118V20.519H124.228V10.299Z" fill="#070A0D"/>
<path d="M118.919 20.701C118.266 20.701 117.664 20.533 117.113 20.197C116.563 19.8517 116.124 19.3897 115.797 18.811C115.48 18.2323 115.321 17.5977 115.321 16.907C115.321 16.2163 115.48 15.5817 115.797 15.003C116.124 14.415 116.563 13.9483 117.113 13.603C117.664 13.2577 118.266 13.085 118.919 13.085C119.517 13.085 119.997 13.197 120.361 13.421C120.735 13.645 121.024 13.967 121.229 14.387V13.239H123.105V20.519H121.271V19.329C121.057 19.7677 120.763 20.1083 120.389 20.351C120.025 20.5843 119.535 20.701 118.919 20.701ZM117.211 16.893C117.211 17.2663 117.295 17.6163 117.463 17.943C117.641 18.2603 117.879 18.517 118.177 18.713C118.485 18.8997 118.835 18.993 119.227 18.993C119.629 18.993 119.983 18.8997 120.291 18.713C120.609 18.5263 120.851 18.2743 121.019 17.957C121.187 17.6397 121.271 17.2897 121.271 16.907C121.271 16.5243 121.187 16.1743 121.019 15.857C120.851 15.5303 120.609 15.2737 120.291 15.087C119.983 14.891 119.629 14.793 119.227 14.793C118.835 14.793 118.485 14.891 118.177 15.087C117.869 15.2737 117.631 15.5257 117.463 15.843C117.295 16.1603 117.211 16.5103 117.211 16.893Z" fill="#070A0D"/>
<path d="M111.642 20.701C110.69 20.701 109.822 20.477 109.038 20.029C108.263 19.5717 107.652 18.9557 107.204 18.181C106.756 17.4063 106.532 16.557 106.532 15.633C106.532 14.6997 106.747 13.8457 107.176 13.071C107.615 12.287 108.221 11.671 108.996 11.223C109.771 10.7657 110.653 10.537 111.642 10.537C112.435 10.537 113.117 10.663 113.686 10.915C114.265 11.1577 114.778 11.545 115.226 12.077L113.84 13.281C113.252 12.665 112.519 12.357 111.642 12.357C111.026 12.357 110.485 12.5063 110.018 12.805C109.551 13.0943 109.192 13.491 108.94 13.995C108.688 14.4897 108.562 15.0357 108.562 15.633C108.562 16.2303 108.688 16.7763 108.94 17.271C109.201 17.7657 109.565 18.1577 110.032 18.447C110.508 18.7363 111.059 18.881 111.684 18.881C112.599 18.881 113.345 18.5637 113.924 17.929L115.352 19.147C114.96 19.623 114.447 20.001 113.812 20.281C113.187 20.561 112.463 20.701 111.642 20.701Z" fill="#070A0D"/>
<path d="M96.1837 20.519V10.719H97.6677V14.527H97.7517C97.929 14.2283 98.1857 13.9623 98.5217 13.729C98.867 13.4957 99.301 13.379 99.8237 13.379C100.309 13.379 100.743 13.491 101.126 13.715C101.518 13.939 101.826 14.2517 102.05 14.653C102.283 15.0543 102.4 15.521 102.4 16.053V20.519H100.916V16.403C100.916 15.8803 100.78 15.4697 100.51 15.171C100.239 14.863 99.861 14.709 99.3757 14.709C98.853 14.709 98.4377 14.863 98.1297 15.171C97.8217 15.4697 97.6677 15.8803 97.6677 16.403V20.519H96.1837Z" fill="#070A0D"/>
<path d="M93.6722 20.701C92.9442 20.6917 92.3655 20.4863 91.9362 20.085C91.5162 19.6743 91.3062 19.1143 91.3062 18.405V14.891H89.8362V13.561H91.3062V11.867L92.7902 11.671V13.561H94.9322V14.891H92.7902V18.293C92.7902 18.6663 92.8929 18.9463 93.0982 19.133C93.3129 19.3103 93.5929 19.399 93.9382 19.399C94.1062 19.399 94.2695 19.3943 94.4282 19.385C94.5962 19.3663 94.7642 19.3337 94.9322 19.287V20.561C94.6895 20.617 94.4795 20.6543 94.3022 20.673C94.1249 20.6917 93.9149 20.701 93.6722 20.701Z" fill="#070A0D"/>
<path d="M87.7792 12.273C87.5179 12.273 87.2985 12.1843 87.1212 12.007C86.9439 11.8297 86.8552 11.6103 86.8552 11.349C86.8552 11.1063 86.9439 10.8963 87.1212 10.719C87.2985 10.5417 87.5179 10.453 87.7792 10.453C88.0499 10.453 88.2692 10.5417 88.4372 10.719C88.6145 10.8963 88.7032 11.1063 88.7032 11.349C88.7032 11.6103 88.6145 11.8297 88.4372 12.007C88.2692 12.1843 88.0499 12.273 87.7792 12.273ZM87.0372 20.519V13.561H88.5212V20.519H87.0372Z" fill="#070A0D"/>
<path d="M76.9554 20.519L74.6734 13.561H76.3954L77.4874 17.621C77.5528 17.873 77.6134 18.1343 77.6694 18.405C77.7348 18.6663 77.7814 18.9137 77.8094 19.147H77.9074C77.9448 18.6523 78.0428 18.139 78.2014 17.607L79.4194 13.561H81.1414L82.3594 17.607C82.4341 17.859 82.4994 18.125 82.5554 18.405C82.6208 18.6757 82.6628 18.923 82.6814 19.147H82.7794C82.7981 18.923 82.8354 18.6757 82.8914 18.405C82.9568 18.125 83.0221 17.8637 83.0874 17.621L84.2074 13.561H85.8174L83.5494 20.519H81.8974L80.6374 16.445C80.5441 16.1557 80.4741 15.8897 80.4274 15.647C80.3808 15.395 80.3434 15.157 80.3154 14.933H80.2174C80.1894 15.1663 80.1521 15.4043 80.1054 15.647C80.0681 15.8897 80.0028 16.1557 79.9094 16.445L78.6914 20.519H76.9554Z" fill="#070A0D"/>
<path d="M67.738 20.701C67.0193 20.701 66.3893 20.5423 65.848 20.225C65.3066 19.9077 64.882 19.4783 64.574 18.937C64.2753 18.3863 64.126 17.761 64.126 17.061C64.126 16.3237 64.28 15.6797 64.588 15.129C64.896 14.5783 65.316 14.149 65.848 13.841C66.3893 13.533 67.0053 13.379 67.696 13.379C68.3773 13.379 68.97 13.533 69.474 13.841C69.978 14.1397 70.3653 14.5597 70.636 15.101C70.916 15.633 71.056 16.2537 71.056 16.963C71.056 17.0563 71.0513 17.1543 71.042 17.257C71.042 17.3597 71.0326 17.4437 71.014 17.509H65.652C65.736 18.041 65.9646 18.4843 66.338 18.839C66.7113 19.1843 67.1873 19.357 67.766 19.357C68.6246 19.357 69.2686 19.063 69.698 18.475L70.706 19.427C70.3886 19.819 69.9733 20.1317 69.46 20.365C68.956 20.589 68.382 20.701 67.738 20.701ZM67.668 14.639C67.1453 14.639 66.702 14.7837 66.338 15.073C65.9833 15.3623 65.7593 15.7823 65.666 16.333H69.544C69.4693 15.8103 69.2733 15.3997 68.956 15.101C68.648 14.793 68.2186 14.639 67.668 14.639Z" fill="#070A0D"/>
<path d="M59.0262 20.701C58.5596 20.701 58.1349 20.589 57.7522 20.365C57.3789 20.1317 57.0756 19.8143 56.8422 19.413C56.6182 19.0117 56.5062 18.545 56.5062 18.013V13.561H57.9902V17.663C57.9902 18.1857 58.1256 18.601 58.3962 18.909C58.6762 19.217 59.0356 19.371 59.4743 19.371C59.9596 19.371 60.3516 19.217 60.6502 18.909C60.9582 18.601 61.1122 18.1857 61.1122 17.663V13.561H62.5962V20.519H61.1682V19.539H61.0842C60.9069 19.8377 60.6456 20.1083 60.3002 20.351C59.9642 20.5843 59.5396 20.701 59.0262 20.701Z" fill="#070A0D"/>
<path d="M48.4415 20.519V13.561H49.8695V14.541H49.9535C50.1308 14.2423 50.3875 13.9763 50.7235 13.743C51.0688 13.5003 51.5168 13.379 52.0675 13.379C52.5528 13.379 52.9915 13.491 53.3835 13.715C53.7755 13.939 54.0835 14.2563 54.3075 14.667C54.5408 15.0683 54.6575 15.535 54.6575 16.067V20.519H53.1735V16.417C53.1735 15.8943 53.0335 15.479 52.7535 15.171C52.4735 14.863 52.0955 14.709 51.6195 14.709C51.1062 14.709 50.6955 14.863 50.3875 15.171C50.0795 15.479 49.9255 15.8943 49.9255 16.417V20.519H48.4415Z" fill="#070A0D"/>
<path d="M45.7108 12.273C45.4495 12.273 45.2302 12.1843 45.0528 12.007C44.8755 11.8297 44.7868 11.6103 44.7868 11.349C44.7868 11.1063 44.8755 10.8963 45.0528 10.719C45.2302 10.5417 45.4495 10.453 45.7108 10.453C45.9815 10.453 46.2008 10.5417 46.3688 10.719C46.5462 10.8963 46.6348 11.1063 46.6348 11.349C46.6348 11.6103 46.5462 11.8297 46.3688 12.007C46.2008 12.1843 45.9815 12.273 45.7108 12.273ZM44.9688 20.519V13.561H46.4528V20.519H44.9688Z" fill="#070A0D"/>
<path d="M42.4574 20.701C41.7294 20.6917 41.1507 20.4863 40.7214 20.085C40.3014 19.6743 40.0914 19.1143 40.0914 18.405V14.891H38.6214V13.561H40.0914V11.867L41.5754 11.671V13.561H43.7174V14.891H41.5754V18.293C41.5754 18.6663 41.678 18.9463 41.8834 19.133C42.098 19.3103 42.378 19.399 42.7234 19.399C42.8914 19.399 43.0547 19.3943 43.2134 19.385C43.3814 19.3663 43.5494 19.3337 43.7174 19.287V20.561C43.4747 20.617 43.2647 20.6543 43.0874 20.673C42.91 20.6917 42.7 20.701 42.4574 20.701Z" fill="#070A0D"/>
<path d="M31.3516 20.519V13.561H32.7796V14.541H32.8636C33.041 14.2423 33.2976 13.9763 33.6336 13.743C33.979 13.5003 34.427 13.379 34.9776 13.379C35.463 13.379 35.9016 13.491 36.2936 13.715C36.6856 13.939 36.9936 14.2563 37.2176 14.667C37.451 15.0683 37.5676 15.535 37.5676 16.067V20.519H36.0836V16.417C36.0836 15.8943 35.9436 15.479 35.6636 15.171C35.3836 14.863 35.0056 14.709 34.5296 14.709C34.0163 14.709 33.6056 14.863 33.2976 15.171C32.9896 15.479 32.8356 15.8943 32.8356 16.417V20.519H31.3516Z" fill="#070A0D"/>
<path d="M26.2298 20.701C25.5392 20.701 24.9232 20.5423 24.3818 20.225C23.8405 19.9077 23.4112 19.4737 23.0938 18.923C22.7858 18.3723 22.6318 17.747 22.6318 17.047C22.6318 16.3377 22.7858 15.7077 23.0938 15.157C23.4112 14.6063 23.8405 14.1723 24.3818 13.855C24.9232 13.5377 25.5392 13.379 26.2298 13.379C26.9205 13.379 27.5365 13.5377 28.0778 13.855C28.6285 14.1723 29.0578 14.6063 29.3658 15.157C29.6738 15.7077 29.8278 16.333 29.8278 17.033C29.8278 17.7423 29.6738 18.3723 29.3658 18.923C29.0578 19.4737 28.6285 19.9077 28.0778 20.225C27.5365 20.5423 26.9205 20.701 26.2298 20.701ZM26.2298 19.343C26.8645 19.343 27.3732 19.1283 27.7558 18.699C28.1478 18.2697 28.3438 17.719 28.3438 17.047C28.3438 16.3657 28.1478 15.8103 27.7558 15.381C27.3732 14.9517 26.8645 14.737 26.2298 14.737C25.5952 14.737 25.0818 14.9517 24.6898 15.381C24.3072 15.8103 24.1158 16.3657 24.1158 17.047C24.1158 17.719 24.3072 18.2697 24.6898 18.699C25.0818 19.1283 25.5952 19.343 26.2298 19.343Z" fill="#070A0D"/>
<path d="M18.568 20.701C17.8493 20.701 17.182 20.5703 16.566 20.309C15.95 20.0477 15.4133 19.6883 14.956 19.231C14.4987 18.7643 14.1393 18.2277 13.878 17.621C13.626 17.005 13.5 16.3423 13.5 15.633C13.5 14.9237 13.626 14.261 13.878 13.645C14.13 13.029 14.48 12.4877 14.928 12.021C15.3853 11.5543 15.922 11.1903 16.538 10.929C17.154 10.6677 17.8307 10.537 18.568 10.537C19.296 10.537 19.9633 10.663 20.57 10.915C21.186 11.167 21.718 11.559 22.166 12.091L21.06 13.099C20.7333 12.7163 20.3647 12.441 19.954 12.273C19.5433 12.0957 19.0813 12.007 18.568 12.007C17.8773 12.007 17.2707 12.1657 16.748 12.483C16.2253 12.8003 15.8193 13.2343 15.53 13.785C15.2407 14.3263 15.096 14.9423 15.096 15.633C15.096 16.3237 15.2453 16.9397 15.544 17.481C15.852 18.0223 16.2673 18.4517 16.79 18.769C17.322 19.077 17.9287 19.231 18.61 19.231C19.1327 19.231 19.5947 19.1423 19.996 18.965C20.4067 18.7783 20.7707 18.503 21.088 18.139L22.222 19.105C21.8207 19.581 21.3167 19.9683 20.71 20.267C20.1033 20.5563 19.3893 20.701 18.568 20.701Z" fill="#070A0D"/>
</g>
<defs>
<filter id="filter0_dd_2049_5880" x="0" y="0" width="170.459" height="35" filterUnits="userSpaceOnUse" color-interpolation-filters="sRGB">
<feFlood flood-opacity="0" result="BackgroundImageFix"/>
<feColorMatrix in="SourceAlpha" type="matrix" values="0 0 0 0 0 0 0 0 0 0 0 0 0 0 0 0 0 0 127 0" result="hardAlpha"/>
<feMorphology radius="1" operator="erode" in="SourceAlpha" result="effect1_dropShadow_2049_5880"/>
<feOffset dy="2"/>
<feGaussianBlur stdDeviation="1"/>
<feColorMatrix type="matrix" values="0 0 0 0 0 0 0 0 0 0 0 0 0 0 0 0 0 0 0.03 0"/>
<feBlend mode="normal" in2="BackgroundImageFix" result="effect1_dropShadow_2049_5880"/>
<feColorMatrix in="SourceAlpha" type="matrix" values="0 0 0 0 0 0 0 0 0 0 0 0 0 0 0 0 0 0 127 0" result="hardAlpha"/>
<feOffset dy="2"/>
<feGaussianBlur stdDeviation="1.5"/>
<feComposite in2="hardAlpha" operator="out"/>
<feColorMatrix type="matrix" values="0 0 0 0 0 0 0 0 0 0 0 0 0 0 0 0 0 0 0.03 0"/>
<feBlend mode="normal" in2="effect1_dropShadow_2049_5880" result="effect2_dropShadow_2049_5880"/>
<feBlend mode="normal" in="SourceGraphic" in2="effect2_dropShadow_2049_5880" result="shape"/>
</filter>
</defs>
</svg>
