<svg width="189" height="40" viewBox="0 0 189 40" fill="none" xmlns="http://www.w3.org/2000/svg">
<path d="M185 0.5H4C2.067 0.5 0.5 2.067 0.5 4V36C0.5 37.933 2.067 39.5 4 39.5H185C186.933 39.5 188.5 37.933 188.5 36V4C188.5 2.067 186.933 0.5 185 0.5Z" fill="white"/>
<path d="M102.289 24.9992V15.1992H103.591V19.0912H103.675C103.862 18.7739 104.123 18.4986 104.459 18.2652C104.795 18.0226 105.229 17.9012 105.761 17.9012C106.265 17.9012 106.708 18.0132 107.091 18.2372C107.483 18.4519 107.786 18.7599 108.001 19.1612C108.225 19.5626 108.337 20.0292 108.337 20.5612V24.9992H107.021V20.8692C107.021 20.3279 106.881 19.8986 106.601 19.5812C106.33 19.2546 105.948 19.0912 105.453 19.0912C104.884 19.0912 104.431 19.2546 104.095 19.5812C103.759 19.8986 103.591 20.3279 103.591 20.8692V24.9992H102.289Z" fill="black"/>
<path d="M99.7917 25.181C99.0824 25.1624 98.5271 24.9617 98.1257 24.579C97.7337 24.187 97.5377 23.641 97.5377 22.941V19.259H96.0117V18.083H97.5377V16.403L98.8537 16.207V18.083H101.038V19.259H98.8537V22.857C98.8537 23.6224 99.2504 24.005 100.044 24.005C100.202 24.005 100.361 24.0004 100.52 23.991C100.688 23.9724 100.86 23.9397 101.038 23.893V25.041C100.786 25.097 100.571 25.1344 100.394 25.153C100.216 25.181 100.016 25.1904 99.7917 25.181Z" fill="black"/>
<path d="M94.047 16.5872C93.795 16.5872 93.5897 16.5079 93.431 16.3492C93.2817 16.1906 93.207 15.9946 93.207 15.7612C93.207 15.5466 93.2817 15.3599 93.431 15.2012C93.5897 15.0332 93.795 14.9492 94.047 14.9492C94.2804 14.9492 94.4764 15.0332 94.635 15.2012C94.7937 15.3599 94.873 15.5466 94.873 15.7612C94.873 15.9946 94.7937 16.1906 94.635 16.3492C94.4764 16.5079 94.2804 16.5872 94.047 16.5872ZM93.389 25.0012V18.0852H94.691V25.0012H93.389Z" fill="black"/>
<path d="M83.5665 25.0019L81.3125 18.0859H82.8105L83.9865 22.2579C84.0612 22.5193 84.1312 22.7899 84.1965 23.0699C84.2618 23.3499 84.3038 23.6019 84.3225 23.8259H84.4205C84.4298 23.6113 84.4625 23.3593 84.5185 23.0699C84.5745 22.7806 84.6445 22.5053 84.7285 22.2439L85.9885 18.0859H87.5285L88.7885 22.2439C88.8725 22.5053 88.9425 22.7806 88.9985 23.0699C89.0638 23.3593 89.1058 23.6113 89.1245 23.8259H89.2225C89.2318 23.6113 89.2692 23.3593 89.3345 23.0699C89.3998 22.7806 89.4652 22.5099 89.5305 22.2579L90.7205 18.0859H92.1485L89.9085 25.0019H88.4105L87.1225 20.8299C87.0198 20.5126 86.9452 20.2279 86.8985 19.9759C86.8518 19.7239 86.8145 19.4859 86.7865 19.2619H86.7025C86.6745 19.4859 86.6372 19.7239 86.5905 19.9759C86.5438 20.2186 86.4738 20.5033 86.3805 20.8299L85.1065 25.0019H83.5665Z" fill="black"/>
<path d="M74.363 25.1823C73.6443 25.1823 73.019 25.0283 72.487 24.7203C71.955 24.403 71.5396 23.969 71.241 23.4183C70.9423 22.8677 70.793 22.2423 70.793 21.5423C70.793 20.833 70.9423 20.2077 71.241 19.6663C71.549 19.1157 71.969 18.6863 72.501 18.3783C73.033 18.061 73.6396 17.9023 74.321 17.9023C75.0116 17.9023 75.6043 18.0563 76.099 18.3643C76.603 18.663 76.9903 19.083 77.261 19.6243C77.5316 20.1657 77.667 20.791 77.667 21.5003C77.667 21.5843 77.6623 21.673 77.653 21.7663C77.653 21.8597 77.6436 21.9343 77.625 21.9903H72.137C72.2116 22.5783 72.4543 23.059 72.865 23.4323C73.2756 23.7963 73.7796 23.9783 74.377 23.9783C75.2636 23.9783 75.931 23.675 76.379 23.0683L77.289 23.8943C76.9716 24.305 76.561 24.6223 76.057 24.8463C75.553 25.0703 74.9883 25.1823 74.363 25.1823ZM74.293 19.0643C73.7236 19.0643 73.2476 19.223 72.865 19.5403C72.4823 19.8577 72.2443 20.315 72.151 20.9123H76.323C76.2483 20.3523 76.0383 19.9043 75.693 19.5683C75.357 19.2323 74.8903 19.0643 74.293 19.0643Z" fill="black"/>
<path d="M65.8716 25.1839C65.3956 25.1839 64.9662 25.0766 64.5836 24.8619C64.2102 24.6379 63.9116 24.3253 63.6876 23.9239C63.4636 23.5226 63.3516 23.0513 63.3516 22.5099V18.0859H64.6536V22.2159C64.6536 22.7573 64.7936 23.1913 65.0736 23.5179C65.3629 23.8353 65.7316 23.9939 66.1796 23.9939C66.7116 23.9939 67.1409 23.8353 67.4676 23.5179C67.7942 23.1913 67.9576 22.7573 67.9576 22.2159V18.0859H69.2736V25.0019H68.0136V23.9939H67.9296C67.7522 24.3113 67.4956 24.5913 67.1596 24.8339C66.8236 25.0673 66.3942 25.1839 65.8716 25.1839Z" fill="black"/>
<path d="M55.4219 25.0003V18.0843H56.6679V19.0923H56.7519C56.9385 18.7843 57.1999 18.509 57.5359 18.2663C57.8719 18.0237 58.3199 17.9023 58.8799 17.9023C59.3745 17.9023 59.8179 18.0143 60.2099 18.2383C60.6019 18.4623 60.9099 18.775 61.1339 19.1763C61.3579 19.5683 61.4699 20.035 61.4699 20.5763V25.0003H60.1539V20.8703C60.1539 20.329 60.0092 19.8997 59.7199 19.5823C59.4399 19.2557 59.0525 19.0923 58.5579 19.0923C57.9979 19.0923 57.5499 19.2557 57.2139 19.5823C56.8872 19.8997 56.7239 20.329 56.7239 20.8703V25.0003H55.4219Z" fill="black"/>
<path d="M52.7697 16.5872C52.5177 16.5872 52.3124 16.5079 52.1537 16.3492C52.0044 16.1906 51.9297 15.9946 51.9297 15.7612C51.9297 15.5466 52.0044 15.3599 52.1537 15.2012C52.3124 15.0332 52.5177 14.9492 52.7697 14.9492C53.003 14.9492 53.199 15.0332 53.3577 15.2012C53.5164 15.3599 53.5957 15.5466 53.5957 15.7612C53.5957 15.9946 53.5164 16.1906 53.3577 16.3492C53.199 16.5079 53.003 16.5872 52.7697 16.5872ZM52.1117 25.0012V18.0852H53.4137V25.0012H52.1117Z" fill="black"/>
<path d="M49.6159 25.181C48.9066 25.1624 48.3513 24.9617 47.9499 24.579C47.5579 24.187 47.3619 23.641 47.3619 22.941V19.259H45.8359V18.083H47.3619V16.403L48.6779 16.207V18.083H50.8619V19.259H48.6779V22.857C48.6779 23.6224 49.0746 24.005 49.8679 24.005C50.0266 24.005 50.1853 24.0004 50.3439 23.991C50.5119 23.9724 50.6846 23.9397 50.8619 23.893V25.041C50.6099 25.097 50.3953 25.1344 50.2179 25.153C50.0406 25.181 49.8399 25.1904 49.6159 25.181Z" fill="black"/>
<path d="M38.7148 25.0003V18.0843H39.9608V19.0923H40.0448C40.2315 18.7843 40.4928 18.509 40.8288 18.2663C41.1648 18.0237 41.6128 17.9023 42.1728 17.9023C42.6675 17.9023 43.1108 18.0143 43.5028 18.2383C43.8948 18.4623 44.2028 18.775 44.4268 19.1763C44.6508 19.5683 44.7628 20.035 44.7628 20.5763V25.0003H43.4468V20.8703C43.4468 20.329 43.3022 19.8997 43.0128 19.5823C42.7328 19.2557 42.3455 19.0923 41.8508 19.0923C41.2908 19.0923 40.8428 19.2557 40.5068 19.5823C40.1802 19.8997 40.0168 20.329 40.0168 20.8703V25.0003H38.7148Z" fill="black"/>
<path d="M33.6475 25.1823C32.9661 25.1823 32.3548 25.0283 31.8135 24.7203C31.2815 24.403 30.8615 23.9737 30.5535 23.4323C30.2548 22.8817 30.1055 22.2563 30.1055 21.5563C30.1055 20.847 30.2548 20.2217 30.5535 19.6803C30.8615 19.1297 31.2815 18.6957 31.8135 18.3783C32.3548 18.061 32.9661 17.9023 33.6475 17.9023C34.3288 17.9023 34.9355 18.061 35.4675 18.3783C36.0088 18.6863 36.4288 19.1157 36.7275 19.6663C37.0355 20.2077 37.1895 20.8283 37.1895 21.5283C37.1895 22.2377 37.0355 22.8677 36.7275 23.4183C36.4288 23.969 36.0088 24.403 35.4675 24.7203C34.9355 25.0283 34.3288 25.1823 33.6475 25.1823ZM33.6475 23.9783C34.3195 23.9783 34.8608 23.7497 35.2715 23.2923C35.6821 22.835 35.8875 22.2517 35.8875 21.5423C35.8875 21.0757 35.7941 20.6603 35.6075 20.2963C35.4208 19.9323 35.1595 19.643 34.8235 19.4283C34.4875 19.2137 34.0955 19.1063 33.6475 19.1063C32.9755 19.1063 32.4341 19.335 32.0235 19.7923C31.6221 20.2497 31.4215 20.833 31.4215 21.5423C31.4215 22.009 31.5101 22.429 31.6875 22.8023C31.8741 23.1663 32.1355 23.4557 32.4715 23.6703C32.8075 23.8757 33.1995 23.9783 33.6475 23.9783Z" fill="black"/>
<path d="M26.04 25.1835C25.3307 25.1835 24.668 25.0575 24.052 24.8055C23.4453 24.5442 22.9133 24.1849 22.456 23.7275C21.9987 23.2609 21.6393 22.7195 21.378 22.1035C21.126 21.4875 21 20.8249 21 20.1155C21 19.4062 21.126 18.7435 21.378 18.1275C21.63 17.5115 21.98 16.9702 22.428 16.5035C22.8853 16.0369 23.4173 15.6729 24.024 15.4115C24.64 15.1502 25.312 15.0195 26.04 15.0195C26.7773 15.0195 27.4493 15.1455 28.056 15.3975C28.6627 15.6495 29.19 16.0369 29.638 16.5595L28.644 17.4415C28.2987 17.0309 27.9067 16.7369 27.468 16.5595C27.0387 16.3822 26.5627 16.2935 26.04 16.2935C25.3307 16.2935 24.7007 16.4615 24.15 16.7975C23.6087 17.1335 23.184 17.5909 22.876 18.1695C22.568 18.7389 22.414 19.3875 22.414 20.1155C22.414 20.8529 22.5727 21.5062 22.89 22.0755C23.2167 22.6449 23.6553 23.0929 24.206 23.4195C24.766 23.7369 25.3913 23.8955 26.082 23.8955C26.6607 23.8955 27.16 23.8022 27.58 23.6155C28 23.4195 28.378 23.1302 28.714 22.7475L29.708 23.5735C29.2973 24.0775 28.784 24.4742 28.168 24.7635C27.5613 25.0435 26.852 25.1835 26.04 25.1835Z" fill="black"/>
<path d="M156.305 17.1995H158.3V18.3395C158.71 17.4595 159.505 17.0195 160.685 17.0195C161.235 17.0195 161.73 17.1495 162.17 17.4095C162.62 17.6595 162.97 18.0195 163.22 18.4895C163.49 17.9995 163.83 17.6345 164.24 17.3945C164.66 17.1445 165.2 17.0195 165.86 17.0195C166.42 17.0195 166.925 17.1545 167.375 17.4245C167.825 17.6845 168.18 18.0595 168.44 18.5495C168.7 19.0295 168.83 19.5895 168.83 20.2295V24.9995H166.805V20.7245C166.805 20.0745 166.665 19.5895 166.385 19.2695C166.105 18.9495 165.725 18.7895 165.245 18.7895C164.735 18.7895 164.34 18.9345 164.06 19.2245C163.79 19.5145 163.655 20.0145 163.655 20.7245V24.9995H161.63V20.7245C161.63 20.0745 161.48 19.5895 161.18 19.2695C160.88 18.9495 160.47 18.7895 159.95 18.7895C159.49 18.7895 159.105 18.9545 158.795 19.2845C158.485 19.6045 158.33 20.0845 158.33 20.7245V24.9995H156.305V17.1995Z" fill="black"/>
<path d="M151.253 25.1945C150.463 25.1945 149.753 25.0145 149.123 24.6545C148.493 24.2845 147.998 23.7895 147.638 23.1695C147.278 22.5395 147.098 21.8545 147.098 21.1145C147.098 20.3745 147.278 19.6895 147.638 19.0595C147.998 18.4295 148.493 17.9345 149.123 17.5745C149.753 17.2045 150.463 17.0195 151.253 17.0195C152.043 17.0195 152.753 17.2045 153.383 17.5745C154.013 17.9345 154.508 18.4295 154.868 19.0595C155.228 19.6895 155.408 20.3745 155.408 21.1145C155.408 21.8545 155.228 22.5395 154.868 23.1695C154.508 23.7895 154.013 24.2845 153.383 24.6545C152.753 25.0145 152.043 25.1945 151.253 25.1945ZM149.123 21.1145C149.123 21.5245 149.208 21.8995 149.378 22.2395C149.558 22.5795 149.808 22.8495 150.128 23.0495C150.458 23.2495 150.833 23.3495 151.253 23.3495C151.673 23.3495 152.043 23.2495 152.363 23.0495C152.693 22.8495 152.943 22.5795 153.113 22.2395C153.293 21.8995 153.383 21.5245 153.383 21.1145C153.383 20.7045 153.293 20.3295 153.113 19.9895C152.933 19.6495 152.683 19.3795 152.363 19.1795C152.043 18.9695 151.673 18.8645 151.253 18.8645C150.833 18.8645 150.463 18.9695 150.143 19.1795C149.823 19.3795 149.573 19.6495 149.393 19.9895C149.213 20.3295 149.123 20.7045 149.123 21.1145Z" fill="black"/>
<path d="M143.75 25.1939C143.02 25.1939 142.345 25.0139 141.725 24.6539C141.115 24.2839 140.63 23.7839 140.27 23.1539C139.91 22.5239 139.73 21.8389 139.73 21.0989C139.73 20.3489 139.91 19.6639 140.27 19.0439C140.63 18.4139 141.13 17.9189 141.77 17.5589C142.41 17.1889 143.125 17.0039 143.915 17.0039C144.605 17.0039 145.225 17.1339 145.775 17.3939C146.325 17.6439 146.765 17.9989 147.095 18.4589L145.535 19.7339C145.355 19.4639 145.12 19.2489 144.83 19.0889C144.54 18.9289 144.225 18.8489 143.885 18.8489C143.465 18.8489 143.095 18.9539 142.775 19.1639C142.455 19.3639 142.205 19.6339 142.025 19.9739C141.845 20.3139 141.755 20.6889 141.755 21.0989C141.755 21.4989 141.845 21.8739 142.025 22.2239C142.215 22.5639 142.475 22.8389 142.805 23.0489C143.135 23.2489 143.51 23.3489 143.93 23.3489C144.3 23.3489 144.62 23.2689 144.89 23.1089C145.16 22.9489 145.405 22.7189 145.625 22.4189L147.095 23.6939C146.315 24.6939 145.2 25.1939 143.75 25.1939Z" fill="black"/>
<path d="M138.065 25.1953C137.685 25.1953 137.365 25.0653 137.105 24.8053C136.845 24.5453 136.715 24.2353 136.715 23.8753C136.715 23.5153 136.845 23.2103 137.105 22.9603C137.365 22.7003 137.685 22.5703 138.065 22.5703C138.445 22.5703 138.76 22.7003 139.01 22.9603C139.27 23.2103 139.4 23.5153 139.4 23.8753C139.4 24.2453 139.27 24.5603 139.01 24.8203C138.76 25.0703 138.445 25.1953 138.065 25.1953Z" fill="black"/>
<path d="M133.762 14.0508H135.787V25.0008H133.762V14.0508Z" fill="black"/>
<path d="M128.074 25.1952C127.374 25.1952 126.729 25.0152 126.139 24.6552C125.549 24.2852 125.079 23.7902 124.729 23.1702C124.389 22.5502 124.219 21.8702 124.219 21.1302C124.219 20.3902 124.389 19.7102 124.729 19.0902C125.079 18.4602 125.549 17.9602 126.139 17.5902C126.729 17.2202 127.374 17.0352 128.074 17.0352C128.714 17.0352 129.229 17.1552 129.619 17.3952C130.019 17.6352 130.329 17.9802 130.549 18.4302V17.2002H132.559V25.0002H130.594V23.7252C130.364 24.1952 130.049 24.5602 129.649 24.8202C129.259 25.0702 128.734 25.1952 128.074 25.1952ZM126.244 21.1152C126.244 21.5152 126.334 21.8902 126.514 22.2402C126.704 22.5802 126.959 22.8552 127.279 23.0652C127.609 23.2652 127.984 23.3652 128.404 23.3652C128.834 23.3652 129.214 23.2652 129.544 23.0652C129.884 22.8652 130.144 22.5952 130.324 22.2552C130.504 21.9152 130.594 21.5402 130.594 21.1302C130.594 20.7202 130.504 20.3452 130.324 20.0052C130.144 19.6552 129.884 19.3802 129.544 19.1802C129.214 18.9702 128.834 18.8652 128.404 18.8652C127.984 18.8652 127.609 18.9702 127.279 19.1802C126.949 19.3802 126.694 19.6502 126.514 19.9902C126.334 20.3302 126.244 20.7052 126.244 21.1152Z" fill="black"/>
<path d="M120.276 25.1947C119.256 25.1947 118.326 24.9547 117.486 24.4747C116.656 23.9847 116.001 23.3247 115.521 22.4947C115.041 21.6647 114.801 20.7547 114.801 19.7647C114.801 18.7647 115.031 17.8497 115.491 17.0197C115.961 16.1797 116.611 15.5197 117.441 15.0397C118.271 14.5497 119.216 14.3047 120.276 14.3047C121.126 14.3047 121.856 14.4397 122.466 14.7097C123.086 14.9697 123.636 15.3847 124.116 15.9547L122.631 17.2447C122.001 16.5847 121.216 16.2547 120.276 16.2547C119.616 16.2547 119.036 16.4147 118.536 16.7347C118.036 17.0447 117.651 17.4697 117.381 18.0097C117.111 18.5397 116.976 19.1247 116.976 19.7647C116.976 20.4047 117.111 20.9897 117.381 21.5197C117.661 22.0497 118.051 22.4697 118.551 22.7797C119.061 23.0897 119.651 23.2447 120.321 23.2447C121.301 23.2447 122.101 22.9047 122.721 22.2247L124.251 23.5297C123.831 24.0397 123.281 24.4447 122.601 24.7447C121.931 25.0447 121.156 25.1947 120.276 25.1947Z" fill="black"/>
<path d="M185 0.5H4C2.067 0.5 0.5 2.067 0.5 4V36C0.5 37.933 2.067 39.5 4 39.5H185C186.933 39.5 188.5 37.933 188.5 36V4C188.5 2.067 186.933 0.5 185 0.5Z" stroke="#747775"/>
</svg>
