<svg width="182" height="45" viewBox="0 0 182 45" fill="none" xmlns="http://www.w3.org/2000/svg">
<g filter="url(#filter0_dddii_2049_5871)">
<path d="M7.5 14.5C7.5 8.97715 11.9772 4.5 17.5 4.5H161.807C167.33 4.5 171.807 8.97715 171.807 14.5V22.5C171.807 28.0228 167.33 32.5 161.807 32.5H17.5C11.9772 32.5 7.5 28.0228 7.5 22.5V14.5Z" fill="#1D2836"/>
<path d="M17.5 4.5V5H161.807V4.5V4H17.5V4.5ZM171.807 14.5H171.307V22.5H171.807H172.307V14.5H171.807ZM161.807 32.5V32H17.5V32.5V33H161.807V32.5ZM7.5 22.5H8V14.5H7.5H7V22.5H7.5ZM17.5 32.5V32C12.2533 32 8 27.7467 8 22.5H7.5H7C7 28.299 11.701 33 17.5 33V32.5ZM171.807 22.5H171.307C171.307 27.7467 167.054 32 161.807 32V32.5V33C167.606 33 172.307 28.299 172.307 22.5H171.807ZM161.807 4.5V5C167.054 5 171.307 9.2533 171.307 14.5H171.807H172.307C172.307 8.70101 167.606 4 161.807 4V4.5ZM17.5 4.5V4C11.701 4 7 8.70101 7 14.5H7.5H8C8 9.2533 12.2533 5 17.5 5V4.5Z" fill="#1D2836"/>
<path d="M150.117 16.239H151.979V17.303C152.362 16.4817 153.104 16.071 154.205 16.071C154.718 16.071 155.18 16.1923 155.591 16.435C156.011 16.6683 156.338 17.0043 156.571 17.443C156.823 16.9857 157.14 16.645 157.523 16.421C157.915 16.1877 158.419 16.071 159.035 16.071C159.558 16.071 160.029 16.197 160.449 16.449C160.869 16.6917 161.2 17.0417 161.443 17.499C161.686 17.947 161.807 18.4697 161.807 19.067V23.519H159.917V19.529C159.917 18.9223 159.786 18.4697 159.525 18.171C159.264 17.8723 158.909 17.723 158.461 17.723C157.985 17.723 157.616 17.8583 157.355 18.129C157.103 18.3997 156.977 18.8663 156.977 19.529V23.519H155.087V19.529C155.087 18.9223 154.947 18.4697 154.667 18.171C154.387 17.8723 154.004 17.723 153.519 17.723C153.09 17.723 152.73 17.877 152.441 18.185C152.152 18.4837 152.007 18.9317 152.007 19.529V23.519H150.117V16.239Z" fill="white"/>
<path d="M145.402 23.701C144.665 23.701 144.002 23.533 143.414 23.197C142.826 22.8517 142.364 22.3897 142.028 21.811C141.692 21.223 141.524 20.5837 141.524 19.893C141.524 19.2023 141.692 18.563 142.028 17.975C142.364 17.387 142.826 16.925 143.414 16.589C144.002 16.2437 144.665 16.071 145.402 16.071C146.14 16.071 146.802 16.2437 147.39 16.589C147.978 16.925 148.44 17.387 148.776 17.975C149.112 18.563 149.28 19.2023 149.28 19.893C149.28 20.5837 149.112 21.223 148.776 21.811C148.44 22.3897 147.978 22.8517 147.39 23.197C146.802 23.533 146.14 23.701 145.402 23.701ZM143.414 19.893C143.414 20.2757 143.494 20.6257 143.652 20.943C143.82 21.2603 144.054 21.5123 144.352 21.699C144.66 21.8857 145.01 21.979 145.402 21.979C145.794 21.979 146.14 21.8857 146.438 21.699C146.746 21.5123 146.98 21.2603 147.138 20.943C147.306 20.6257 147.39 20.2757 147.39 19.893C147.39 19.5103 147.306 19.1603 147.138 18.843C146.97 18.5257 146.737 18.2737 146.438 18.087C146.14 17.891 145.794 17.793 145.402 17.793C145.01 17.793 144.665 17.891 144.366 18.087C144.068 18.2737 143.834 18.5257 143.666 18.843C143.498 19.1603 143.414 19.5103 143.414 19.893Z" fill="white"/>
<path d="M138.399 23.701C137.718 23.701 137.088 23.533 136.509 23.197C135.94 22.8517 135.487 22.385 135.151 21.797C134.815 21.209 134.647 20.5697 134.647 19.879C134.647 19.179 134.815 18.5397 135.151 17.961C135.487 17.373 135.954 16.911 136.551 16.575C137.149 16.2297 137.816 16.057 138.553 16.057C139.197 16.057 139.776 16.1783 140.289 16.421C140.803 16.6543 141.213 16.9857 141.521 17.415L140.065 18.605C139.897 18.353 139.678 18.1523 139.407 18.003C139.137 17.8537 138.843 17.779 138.525 17.779C138.133 17.779 137.788 17.877 137.489 18.073C137.191 18.2597 136.957 18.5117 136.789 18.829C136.621 19.1463 136.537 19.4963 136.537 19.879C136.537 20.2523 136.621 20.6023 136.789 20.929C136.967 21.2463 137.209 21.503 137.517 21.699C137.825 21.8857 138.175 21.979 138.567 21.979C138.913 21.979 139.211 21.9043 139.463 21.755C139.715 21.6057 139.944 21.391 140.149 21.111L141.521 22.301C140.793 23.2343 139.753 23.701 138.399 23.701Z" fill="white"/>
<path d="M133.092 23.701C132.737 23.701 132.438 23.5797 132.196 23.337C131.953 23.0943 131.832 22.805 131.832 22.469C131.832 22.133 131.953 21.8483 132.196 21.615C132.438 21.3723 132.737 21.251 133.092 21.251C133.446 21.251 133.74 21.3723 133.974 21.615C134.216 21.8483 134.338 22.133 134.338 22.469C134.338 22.8143 134.216 23.1083 133.974 23.351C133.74 23.5843 133.446 23.701 133.092 23.701Z" fill="white"/>
<path d="M129.076 13.299H130.966V23.519H129.076V13.299Z" fill="white"/>
<path d="M123.767 23.701C123.114 23.701 122.512 23.533 121.961 23.197C121.41 22.8517 120.972 22.3897 120.645 21.811C120.328 21.2323 120.169 20.5977 120.169 19.907C120.169 19.2163 120.328 18.5817 120.645 18.003C120.972 17.415 121.41 16.9483 121.961 16.603C122.512 16.2577 123.114 16.085 123.767 16.085C124.364 16.085 124.845 16.197 125.209 16.421C125.582 16.645 125.872 16.967 126.077 17.387V16.239H127.953V23.519H126.119V22.329C125.904 22.7677 125.61 23.1083 125.237 23.351C124.873 23.5843 124.383 23.701 123.767 23.701ZM122.059 19.893C122.059 20.2663 122.143 20.6163 122.311 20.943C122.488 21.2603 122.726 21.517 123.025 21.713C123.333 21.8997 123.683 21.993 124.075 21.993C124.476 21.993 124.831 21.8997 125.139 21.713C125.456 21.5263 125.699 21.2743 125.867 20.957C126.035 20.6397 126.119 20.2897 126.119 19.907C126.119 19.5243 126.035 19.1743 125.867 18.857C125.699 18.5303 125.456 18.2737 125.139 18.087C124.831 17.891 124.476 17.793 124.075 17.793C123.683 17.793 123.333 17.891 123.025 18.087C122.717 18.2737 122.479 18.5257 122.311 18.843C122.143 19.1603 122.059 19.5103 122.059 19.893Z" fill="white"/>
<path d="M116.49 23.701C115.538 23.701 114.67 23.477 113.886 23.029C113.111 22.5717 112.5 21.9557 112.052 21.181C111.604 20.4063 111.38 19.557 111.38 18.633C111.38 17.6997 111.594 16.8457 112.024 16.071C112.462 15.287 113.069 14.671 113.844 14.223C114.618 13.7657 115.5 13.537 116.49 13.537C117.283 13.537 117.964 13.663 118.534 13.915C119.112 14.1577 119.626 14.545 120.074 15.077L118.688 16.281C118.1 15.665 117.367 15.357 116.49 15.357C115.874 15.357 115.332 15.5063 114.866 15.805C114.399 16.0943 114.04 16.491 113.788 16.995C113.536 17.4897 113.41 18.0357 113.41 18.633C113.41 19.2303 113.536 19.7763 113.788 20.271C114.049 20.7657 114.413 21.1577 114.88 21.447C115.356 21.7363 115.906 21.881 116.532 21.881C117.446 21.881 118.193 21.5637 118.772 20.929L120.2 22.147C119.808 22.623 119.294 23.001 118.66 23.281C118.034 23.561 117.311 23.701 116.49 23.701Z" fill="white"/>
<path d="M100.184 23.519V13.719H101.668V17.527H101.752C101.929 17.2283 102.186 16.9623 102.522 16.729C102.867 16.4957 103.301 16.379 103.824 16.379C104.309 16.379 104.743 16.491 105.126 16.715C105.518 16.939 105.826 17.2517 106.05 17.653C106.283 18.0543 106.4 18.521 106.4 19.053V23.519H104.916V19.403C104.916 18.8803 104.78 18.4697 104.51 18.171C104.239 17.863 103.861 17.709 103.376 17.709C102.853 17.709 102.438 17.863 102.13 18.171C101.822 18.4697 101.668 18.8803 101.668 19.403V23.519H100.184Z" fill="white"/>
<path d="M97.6722 23.701C96.9442 23.6917 96.3655 23.4863 95.9362 23.085C95.5162 22.6743 95.3062 22.1143 95.3062 21.405V17.891H93.8362V16.561H95.3062V14.867L96.7902 14.671V16.561H98.9322V17.891H96.7902V21.293C96.7902 21.6663 96.8929 21.9463 97.0982 22.133C97.3129 22.3103 97.5929 22.399 97.9382 22.399C98.1062 22.399 98.2695 22.3943 98.4282 22.385C98.5962 22.3663 98.7642 22.3337 98.9322 22.287V23.561C98.6895 23.617 98.4795 23.6543 98.3022 23.673C98.1249 23.6917 97.9149 23.701 97.6722 23.701Z" fill="white"/>
<path d="M91.7792 15.273C91.5179 15.273 91.2985 15.1843 91.1212 15.007C90.9439 14.8297 90.8552 14.6103 90.8552 14.349C90.8552 14.1063 90.9439 13.8963 91.1212 13.719C91.2985 13.5417 91.5179 13.453 91.7792 13.453C92.0499 13.453 92.2692 13.5417 92.4372 13.719C92.6145 13.8963 92.7032 14.1063 92.7032 14.349C92.7032 14.6103 92.6145 14.8297 92.4372 15.007C92.2692 15.1843 92.0499 15.273 91.7792 15.273ZM91.0372 23.519V16.561H92.5212V23.519H91.0372Z" fill="white"/>
<path d="M80.9554 23.519L78.6734 16.561H80.3954L81.4874 20.621C81.5528 20.873 81.6134 21.1343 81.6694 21.405C81.7348 21.6663 81.7814 21.9137 81.8094 22.147H81.9074C81.9448 21.6523 82.0428 21.139 82.2014 20.607L83.4194 16.561H85.1414L86.3594 20.607C86.4341 20.859 86.4994 21.125 86.5554 21.405C86.6208 21.6757 86.6628 21.923 86.6814 22.147H86.7794C86.7981 21.923 86.8354 21.6757 86.8914 21.405C86.9568 21.125 87.0221 20.8637 87.0874 20.621L88.2074 16.561H89.8174L87.5494 23.519H85.8974L84.6374 19.445C84.5441 19.1557 84.4741 18.8897 84.4274 18.647C84.3808 18.395 84.3434 18.157 84.3154 17.933H84.2174C84.1894 18.1663 84.1521 18.4043 84.1054 18.647C84.0681 18.8897 84.0028 19.1557 83.9094 19.445L82.6914 23.519H80.9554Z" fill="white"/>
<path d="M71.738 23.701C71.0193 23.701 70.3893 23.5423 69.848 23.225C69.3066 22.9077 68.882 22.4783 68.574 21.937C68.2753 21.3863 68.126 20.761 68.126 20.061C68.126 19.3237 68.28 18.6797 68.588 18.129C68.896 17.5783 69.316 17.149 69.848 16.841C70.3893 16.533 71.0053 16.379 71.696 16.379C72.3773 16.379 72.97 16.533 73.474 16.841C73.978 17.1397 74.3653 17.5597 74.636 18.101C74.916 18.633 75.056 19.2537 75.056 19.963C75.056 20.0563 75.0513 20.1543 75.042 20.257C75.042 20.3597 75.0326 20.4437 75.014 20.509H69.652C69.736 21.041 69.9646 21.4843 70.338 21.839C70.7113 22.1843 71.1873 22.357 71.766 22.357C72.6246 22.357 73.2686 22.063 73.698 21.475L74.706 22.427C74.3886 22.819 73.9733 23.1317 73.46 23.365C72.956 23.589 72.382 23.701 71.738 23.701ZM71.668 17.639C71.1453 17.639 70.702 17.7837 70.338 18.073C69.9833 18.3623 69.7593 18.7823 69.666 19.333H73.544C73.4693 18.8103 73.2733 18.3997 72.956 18.101C72.648 17.793 72.2186 17.639 71.668 17.639Z" fill="white"/>
<path d="M63.0262 23.701C62.5596 23.701 62.1349 23.589 61.7522 23.365C61.3789 23.1317 61.0756 22.8143 60.8422 22.413C60.6182 22.0117 60.5062 21.545 60.5062 21.013V16.561H61.9902V20.663C61.9902 21.1857 62.1256 21.601 62.3962 21.909C62.6762 22.217 63.0356 22.371 63.4743 22.371C63.9596 22.371 64.3516 22.217 64.6502 21.909C64.9582 21.601 65.1122 21.1857 65.1122 20.663V16.561H66.5962V23.519H65.1682V22.539H65.0842C64.9069 22.8377 64.6456 23.1083 64.3002 23.351C63.9642 23.5843 63.5396 23.701 63.0262 23.701Z" fill="white"/>
<path d="M52.4415 23.519V16.561H53.8695V17.541H53.9535C54.1308 17.2423 54.3875 16.9763 54.7235 16.743C55.0688 16.5003 55.5168 16.379 56.0675 16.379C56.5528 16.379 56.9915 16.491 57.3835 16.715C57.7755 16.939 58.0835 17.2563 58.3075 17.667C58.5408 18.0683 58.6575 18.535 58.6575 19.067V23.519H57.1735V19.417C57.1735 18.8943 57.0335 18.479 56.7535 18.171C56.4735 17.863 56.0955 17.709 55.6195 17.709C55.1062 17.709 54.6955 17.863 54.3875 18.171C54.0795 18.479 53.9255 18.8943 53.9255 19.417V23.519H52.4415Z" fill="white"/>
<path d="M49.7108 15.273C49.4495 15.273 49.2302 15.1843 49.0528 15.007C48.8755 14.8297 48.7868 14.6103 48.7868 14.349C48.7868 14.1063 48.8755 13.8963 49.0528 13.719C49.2302 13.5417 49.4495 13.453 49.7108 13.453C49.9815 13.453 50.2008 13.5417 50.3688 13.719C50.5462 13.8963 50.6348 14.1063 50.6348 14.349C50.6348 14.6103 50.5462 14.8297 50.3688 15.007C50.2008 15.1843 49.9815 15.273 49.7108 15.273ZM48.9688 23.519V16.561H50.4528V23.519H48.9688Z" fill="white"/>
<path d="M46.4574 23.701C45.7294 23.6917 45.1507 23.4863 44.7214 23.085C44.3014 22.6743 44.0914 22.1143 44.0914 21.405V17.891H42.6214V16.561H44.0914V14.867L45.5754 14.671V16.561H47.7174V17.891H45.5754V21.293C45.5754 21.6663 45.678 21.9463 45.8834 22.133C46.098 22.3103 46.378 22.399 46.7234 22.399C46.8914 22.399 47.0547 22.3943 47.2134 22.385C47.3814 22.3663 47.5494 22.3337 47.7174 22.287V23.561C47.4747 23.617 47.2647 23.6543 47.0874 23.673C46.91 23.6917 46.7 23.701 46.4574 23.701Z" fill="white"/>
<path d="M35.3516 23.519V16.561H36.7796V17.541H36.8636C37.041 17.2423 37.2976 16.9763 37.6336 16.743C37.979 16.5003 38.427 16.379 38.9776 16.379C39.463 16.379 39.9016 16.491 40.2936 16.715C40.6856 16.939 40.9936 17.2563 41.2176 17.667C41.451 18.0683 41.5676 18.535 41.5676 19.067V23.519H40.0836V19.417C40.0836 18.8943 39.9436 18.479 39.6636 18.171C39.3836 17.863 39.0056 17.709 38.5296 17.709C38.0163 17.709 37.6056 17.863 37.2976 18.171C36.9896 18.479 36.8356 18.8943 36.8356 19.417V23.519H35.3516Z" fill="white"/>
<path d="M30.2298 23.701C29.5392 23.701 28.9232 23.5423 28.3818 23.225C27.8405 22.9077 27.4112 22.4737 27.0938 21.923C26.7858 21.3723 26.6318 20.747 26.6318 20.047C26.6318 19.3377 26.7858 18.7077 27.0938 18.157C27.4112 17.6063 27.8405 17.1723 28.3818 16.855C28.9232 16.5377 29.5392 16.379 30.2298 16.379C30.9205 16.379 31.5365 16.5377 32.0778 16.855C32.6285 17.1723 33.0578 17.6063 33.3658 18.157C33.6738 18.7077 33.8278 19.333 33.8278 20.033C33.8278 20.7423 33.6738 21.3723 33.3658 21.923C33.0578 22.4737 32.6285 22.9077 32.0778 23.225C31.5365 23.5423 30.9205 23.701 30.2298 23.701ZM30.2298 22.343C30.8645 22.343 31.3732 22.1283 31.7558 21.699C32.1478 21.2697 32.3438 20.719 32.3438 20.047C32.3438 19.3657 32.1478 18.8103 31.7558 18.381C31.3732 17.9517 30.8645 17.737 30.2298 17.737C29.5952 17.737 29.0818 17.9517 28.6898 18.381C28.3072 18.8103 28.1158 19.3657 28.1158 20.047C28.1158 20.719 28.3072 21.2697 28.6898 21.699C29.0818 22.1283 29.5952 22.343 30.2298 22.343Z" fill="white"/>
<path d="M22.568 23.701C21.8493 23.701 21.182 23.5703 20.566 23.309C19.95 23.0477 19.4133 22.6883 18.956 22.231C18.4987 21.7643 18.1393 21.2277 17.878 20.621C17.626 20.005 17.5 19.3423 17.5 18.633C17.5 17.9237 17.626 17.261 17.878 16.645C18.13 16.029 18.48 15.4877 18.928 15.021C19.3853 14.5543 19.922 14.1903 20.538 13.929C21.154 13.6677 21.8307 13.537 22.568 13.537C23.296 13.537 23.9633 13.663 24.57 13.915C25.186 14.167 25.718 14.559 26.166 15.091L25.06 16.099C24.7333 15.7163 24.3647 15.441 23.954 15.273C23.5433 15.0957 23.0813 15.007 22.568 15.007C21.8773 15.007 21.2707 15.1657 20.748 15.483C20.2253 15.8003 19.8193 16.2343 19.53 16.785C19.2407 17.3263 19.096 17.9423 19.096 18.633C19.096 19.3237 19.2453 19.9397 19.544 20.481C19.852 21.0223 20.2673 21.4517 20.79 21.769C21.322 22.077 21.9287 22.231 22.61 22.231C23.1327 22.231 23.5947 22.1423 23.996 21.965C24.4067 21.7783 24.7707 21.503 25.088 21.139L26.222 22.105C25.8207 22.581 25.3167 22.9683 24.71 23.267C24.1033 23.5563 23.3893 23.701 22.568 23.701Z" fill="white"/>
</g>
<defs>
<filter id="filter0_dddii_2049_5871" x="0" y="0" width="181.307" height="45" filterUnits="userSpaceOnUse" color-interpolation-filters="sRGB">
<feFlood flood-opacity="0" result="BackgroundImageFix"/>
<feColorMatrix in="SourceAlpha" type="matrix" values="0 0 0 0 0 0 0 0 0 0 0 0 0 0 0 0 0 0 127 0" result="hardAlpha"/>
<feOffset dx="1" dy="4"/>
<feGaussianBlur stdDeviation="4"/>
<feComposite in2="hardAlpha" operator="out"/>
<feColorMatrix type="matrix" values="0 0 0 0 0 0 0 0 0 0 0 0 0 0 0 0 0 0 0.12 0"/>
<feBlend mode="normal" in2="BackgroundImageFix" result="effect1_dropShadow_2049_5871"/>
<feColorMatrix in="SourceAlpha" type="matrix" values="0 0 0 0 0 0 0 0 0 0 0 0 0 0 0 0 0 0 127 0" result="hardAlpha"/>
<feOffset dy="1"/>
<feGaussianBlur stdDeviation="0.5"/>
<feComposite in2="hardAlpha" operator="out"/>
<feColorMatrix type="matrix" values="0 0 0 0 0 0 0 0 0 0 0 0 0 0 0 0 0 0 0.08 0"/>
<feBlend mode="normal" in2="effect1_dropShadow_2049_5871" result="effect2_dropShadow_2049_5871"/>
<feColorMatrix in="SourceAlpha" type="matrix" values="0 0 0 0 0 0 0 0 0 0 0 0 0 0 0 0 0 0 127 0" result="hardAlpha"/>
<feOffset dy="2"/>
<feGaussianBlur stdDeviation="1.5"/>
<feComposite in2="hardAlpha" operator="out"/>
<feColorMatrix type="matrix" values="0 0 0 0 0 0 0 0 0 0 0 0 0 0 0 0 0 0 0.06 0"/>
<feBlend mode="normal" in2="effect2_dropShadow_2049_5871" result="effect3_dropShadow_2049_5871"/>
<feBlend mode="normal" in="SourceGraphic" in2="effect3_dropShadow_2049_5871" result="shape"/>
<feColorMatrix in="SourceAlpha" type="matrix" values="0 0 0 0 0 0 0 0 0 0 0 0 0 0 0 0 0 0 127 0" result="hardAlpha"/>
<feOffset dy="-3"/>
<feGaussianBlur stdDeviation="1"/>
<feComposite in2="hardAlpha" operator="arithmetic" k2="-1" k3="1"/>
<feColorMatrix type="matrix" values="0 0 0 0 0 0 0 0 0 0 0 0 0 0 0 0 0 0 0.04 0"/>
<feBlend mode="normal" in2="shape" result="effect4_innerShadow_2049_5871"/>
<feColorMatrix in="SourceAlpha" type="matrix" values="0 0 0 0 0 0 0 0 0 0 0 0 0 0 0 0 0 0 127 0" result="hardAlpha"/>
<feOffset dy="2"/>
<feGaussianBlur stdDeviation="0.2"/>
<feComposite in2="hardAlpha" operator="arithmetic" k2="-1" k3="1"/>
<feColorMatrix type="matrix" values="0 0 0 0 1 0 0 0 0 1 0 0 0 0 1 0 0 0 0.12 0"/>
<feBlend mode="normal" in2="effect4_innerShadow_2049_5871" result="effect5_innerShadow_2049_5871"/>
</filter>
</defs>
</svg>
