<svg width="189" height="40" viewBox="0 0 189 40" fill="none" xmlns="http://www.w3.org/2000/svg">
<path d="M169 0H20C8.9543 0 0 8.9543 0 20C0 31.0457 8.9543 40 20 40H169C180.046 40 189 31.0457 189 20C189 8.9543 180.046 0 169 0Z" fill="#F2F2F2"/>
<path d="M101.289 24.9484V15.1484H102.591V19.0404H102.675C102.862 18.7231 103.123 18.4478 103.459 18.2144C103.795 17.9718 104.229 17.8504 104.761 17.8504C105.265 17.8504 105.708 17.9624 106.091 18.1864C106.483 18.4011 106.786 18.7091 107.001 19.1104C107.225 19.5118 107.337 19.9784 107.337 20.5104V24.9484H106.021V20.8184C106.021 20.2771 105.881 19.8478 105.601 19.5304C105.33 19.2038 104.948 19.0404 104.453 19.0404C103.884 19.0404 103.431 19.2038 103.095 19.5304C102.759 19.8478 102.591 20.2771 102.591 20.8184V24.9484H101.289Z" fill="black"/>
<path d="M98.7917 25.1303C98.0824 25.1116 97.5271 24.9109 97.1257 24.5282C96.7337 24.1362 96.5377 23.5903 96.5377 22.8903V19.2083H95.0117V18.0322H96.5377V16.3523L97.8537 16.1562V18.0322H100.038V19.2083H97.8537V22.8063C97.8537 23.5716 98.2504 23.9542 99.0437 23.9542C99.2024 23.9542 99.3611 23.9496 99.5197 23.9402C99.6877 23.9216 99.8604 23.8889 100.038 23.8423V24.9902C99.7857 25.0462 99.5711 25.0836 99.3937 25.1023C99.2164 25.1303 99.0157 25.1396 98.7917 25.1303Z" fill="black"/>
<path d="M93.047 16.5364C92.795 16.5364 92.5897 16.4571 92.431 16.2984C92.2817 16.1398 92.207 15.9438 92.207 15.7104C92.207 15.4958 92.2817 15.3091 92.431 15.1504C92.5897 14.9824 92.795 14.8984 93.047 14.8984C93.2804 14.8984 93.4764 14.9824 93.635 15.1504C93.7937 15.3091 93.873 15.4958 93.873 15.7104C93.873 15.9438 93.7937 16.1398 93.635 16.2984C93.4764 16.4571 93.2804 16.5364 93.047 16.5364ZM92.389 24.9504V18.0344H93.691V24.9504H92.389Z" fill="black"/>
<path d="M82.5665 24.9512L80.3125 18.0352H81.8105L82.9865 22.2072C83.0612 22.4685 83.1312 22.7392 83.1965 23.0192C83.2618 23.2992 83.3038 23.5512 83.3225 23.7752H83.4205C83.4298 23.5605 83.4625 23.3085 83.5185 23.0192C83.5745 22.7298 83.6445 22.4545 83.7285 22.1932L84.9885 18.0352H86.5285L87.7885 22.1932C87.8725 22.4545 87.9425 22.7298 87.9985 23.0192C88.0638 23.3085 88.1058 23.5605 88.1245 23.7752H88.2225C88.2318 23.5605 88.2692 23.3085 88.3345 23.0192C88.3998 22.7298 88.4652 22.4592 88.5305 22.2072L89.7205 18.0352H91.1485L88.9085 24.9512H87.4105L86.1225 20.7792C86.0198 20.4618 85.9452 20.1772 85.8985 19.9252C85.8518 19.6732 85.8145 19.4352 85.7865 19.2112H85.7025C85.6745 19.4352 85.6372 19.6732 85.5905 19.9252C85.5438 20.1678 85.4738 20.4525 85.3805 20.7792L84.1065 24.9512H82.5665Z" fill="black"/>
<path d="M73.363 25.1316C72.6443 25.1316 72.019 24.9776 71.487 24.6696C70.955 24.3522 70.5396 23.9182 70.241 23.3676C69.9423 22.8169 69.793 22.1916 69.793 21.4916C69.793 20.7822 69.9423 20.1569 70.241 19.6156C70.549 19.0649 70.969 18.6356 71.501 18.3276C72.033 18.0102 72.6396 17.8516 73.321 17.8516C74.0116 17.8516 74.6043 18.0056 75.099 18.3136C75.603 18.6122 75.9903 19.0322 76.261 19.5736C76.5316 20.1149 76.667 20.7402 76.667 21.4496C76.667 21.5336 76.6623 21.6222 76.653 21.7156C76.653 21.8089 76.6436 21.8836 76.625 21.9396H71.137C71.2116 22.5276 71.4543 23.0082 71.865 23.3816C72.2756 23.7456 72.7796 23.9276 73.377 23.9276C74.2636 23.9276 74.931 23.6242 75.379 23.0176L76.289 23.8436C75.9716 24.2542 75.561 24.5716 75.057 24.7956C74.553 25.0196 73.9883 25.1316 73.363 25.1316ZM73.293 19.0136C72.7236 19.0136 72.2476 19.1722 71.865 19.4896C71.4823 19.8069 71.2443 20.2642 71.151 20.8616H75.323C75.2483 20.3016 75.0383 19.8536 74.693 19.5176C74.357 19.1816 73.8903 19.0136 73.293 19.0136Z" fill="black"/>
<path d="M64.8716 25.1332C64.3956 25.1332 63.9662 25.0258 63.5836 24.8112C63.2102 24.5872 62.9116 24.2745 62.6876 23.8732C62.4636 23.4718 62.3516 23.0005 62.3516 22.4592V18.0352H63.6536V22.1652C63.6536 22.7065 63.7936 23.1405 64.0736 23.4672C64.3629 23.7845 64.7316 23.9432 65.1796 23.9432C65.7116 23.9432 66.1409 23.7845 66.4676 23.4672C66.7942 23.1405 66.9576 22.7065 66.9576 22.1652V18.0352H68.2736V24.9512H67.0136V23.9432H66.9296C66.7522 24.2605 66.4956 24.5405 66.1596 24.7832C65.8236 25.0165 65.3942 25.1332 64.8716 25.1332Z" fill="black"/>
<path d="M54.4219 24.9496V18.0336H55.6679V19.0416H55.7519C55.9385 18.7336 56.1999 18.4582 56.5359 18.2156C56.8719 17.9729 57.3199 17.8516 57.8799 17.8516C58.3745 17.8516 58.8179 17.9636 59.2099 18.1876C59.6019 18.4116 59.9099 18.7242 60.1339 19.1256C60.3579 19.5176 60.4699 19.9842 60.4699 20.5256V24.9496H59.1539V20.8196C59.1539 20.2782 59.0092 19.8489 58.7199 19.5316C58.4399 19.2049 58.0525 19.0416 57.5579 19.0416C56.9979 19.0416 56.5499 19.2049 56.2139 19.5316C55.8872 19.8489 55.7239 20.2782 55.7239 20.8196V24.9496H54.4219Z" fill="black"/>
<path d="M51.7697 16.5364C51.5177 16.5364 51.3124 16.4571 51.1537 16.2984C51.0044 16.1398 50.9297 15.9438 50.9297 15.7104C50.9297 15.4958 51.0044 15.3091 51.1537 15.1504C51.3124 14.9824 51.5177 14.8984 51.7697 14.8984C52.003 14.8984 52.199 14.9824 52.3577 15.1504C52.5164 15.3091 52.5957 15.4958 52.5957 15.7104C52.5957 15.9438 52.5164 16.1398 52.3577 16.2984C52.199 16.4571 52.003 16.5364 51.7697 16.5364ZM51.1117 24.9504V18.0344H52.4137V24.9504H51.1117Z" fill="black"/>
<path d="M48.6159 25.1303C47.9066 25.1116 47.3513 24.9109 46.9499 24.5282C46.5579 24.1362 46.3619 23.5903 46.3619 22.8903V19.2083H44.8359V18.0322H46.3619V16.3523L47.6779 16.1562V18.0322H49.8619V19.2083H47.6779V22.8063C47.6779 23.5716 48.0746 23.9542 48.8679 23.9542C49.0266 23.9542 49.1853 23.9496 49.3439 23.9402C49.5119 23.9216 49.6846 23.8889 49.8619 23.8423V24.9902C49.6099 25.0462 49.3953 25.0836 49.2179 25.1023C49.0406 25.1303 48.8399 25.1396 48.6159 25.1303Z" fill="black"/>
<path d="M37.7148 24.9496V18.0336H38.9608V19.0416H39.0448C39.2315 18.7336 39.4928 18.4582 39.8288 18.2156C40.1648 17.9729 40.6128 17.8516 41.1728 17.8516C41.6675 17.8516 42.1108 17.9636 42.5028 18.1876C42.8948 18.4116 43.2028 18.7242 43.4268 19.1256C43.6508 19.5176 43.7628 19.9842 43.7628 20.5256V24.9496H42.4468V20.8196C42.4468 20.2782 42.3022 19.8489 42.0128 19.5316C41.7328 19.2049 41.3455 19.0416 40.8508 19.0416C40.2908 19.0416 39.8428 19.2049 39.5068 19.5316C39.1802 19.8489 39.0168 20.2782 39.0168 20.8196V24.9496H37.7148Z" fill="black"/>
<path d="M32.6475 25.1316C31.9661 25.1316 31.3548 24.9776 30.8135 24.6696C30.2815 24.3522 29.8615 23.9229 29.5535 23.3816C29.2548 22.8309 29.1055 22.2056 29.1055 21.5056C29.1055 20.7962 29.2548 20.1709 29.5535 19.6296C29.8615 19.0789 30.2815 18.6449 30.8135 18.3276C31.3548 18.0102 31.9661 17.8516 32.6475 17.8516C33.3288 17.8516 33.9355 18.0102 34.4675 18.3276C35.0088 18.6356 35.4288 19.0649 35.7275 19.6156C36.0355 20.1569 36.1895 20.7776 36.1895 21.4776C36.1895 22.1869 36.0355 22.8169 35.7275 23.3676C35.4288 23.9182 35.0088 24.3522 34.4675 24.6696C33.9355 24.9776 33.3288 25.1316 32.6475 25.1316ZM32.6475 23.9276C33.3195 23.9276 33.8608 23.6989 34.2715 23.2416C34.6821 22.7842 34.8875 22.2009 34.8875 21.4916C34.8875 21.0249 34.7941 20.6096 34.6075 20.2456C34.4208 19.8816 34.1595 19.5922 33.8235 19.3776C33.4875 19.1629 33.0955 19.0556 32.6475 19.0556C31.9755 19.0556 31.4341 19.2842 31.0235 19.7416C30.6221 20.1989 30.4215 20.7822 30.4215 21.4916C30.4215 21.9582 30.5101 22.3782 30.6875 22.7516C30.8741 23.1156 31.1355 23.4049 31.4715 23.6196C31.8075 23.8249 32.1995 23.9276 32.6475 23.9276Z" fill="black"/>
<path d="M25.04 25.1328C24.3307 25.1328 23.668 25.0068 23.052 24.7548C22.4453 24.4934 21.9133 24.1341 21.456 23.6768C20.9987 23.2101 20.6393 22.6688 20.378 22.0528C20.126 21.4368 20 20.7741 20 20.0648C20 19.3554 20.126 18.6928 20.378 18.0768C20.63 17.4608 20.98 16.9194 21.428 16.4528C21.8853 15.9861 22.4173 15.6221 23.024 15.3607C23.64 15.0994 24.312 14.9688 25.04 14.9688C25.7773 14.9688 26.4493 15.0948 27.056 15.3468C27.6627 15.5988 28.19 15.9861 28.638 16.5088L27.644 17.3908C27.2987 16.9801 26.9067 16.6861 26.468 16.5088C26.0387 16.3314 25.5627 16.2428 25.04 16.2428C24.3307 16.2428 23.7007 16.4108 23.15 16.7468C22.6087 17.0828 22.184 17.5401 21.876 18.1188C21.568 18.6881 21.414 19.3368 21.414 20.0648C21.414 20.8021 21.5727 21.4554 21.89 22.0248C22.2167 22.5941 22.6553 23.0421 23.206 23.3688C23.766 23.6861 24.3913 23.8448 25.082 23.8448C25.6607 23.8448 26.16 23.7514 26.58 23.5648C27 23.3688 27.378 23.0794 27.714 22.6968L28.708 23.5228C28.2973 24.0268 27.784 24.4234 27.168 24.7128C26.5613 24.9928 25.852 25.1328 25.04 25.1328Z" fill="black"/>
<path d="M155.305 17.1487H157.3V18.2887C157.71 17.4087 158.505 16.9688 159.685 16.9688C160.235 16.9688 160.73 17.0987 161.17 17.3587C161.62 17.6087 161.97 17.9687 162.22 18.4387C162.49 17.9487 162.83 17.5837 163.24 17.3437C163.66 17.0937 164.2 16.9688 164.86 16.9688C165.42 16.9688 165.925 17.1038 166.375 17.3738C166.825 17.6337 167.18 18.0087 167.44 18.4988C167.7 18.9787 167.83 19.5387 167.83 20.1787V24.9488H165.805V20.6737C165.805 20.0237 165.665 19.5387 165.385 19.2187C165.105 18.8987 164.725 18.7387 164.245 18.7387C163.735 18.7387 163.34 18.8837 163.06 19.1737C162.79 19.4637 162.655 19.9637 162.655 20.6737V24.9488H160.63V20.6737C160.63 20.0237 160.48 19.5387 160.18 19.2187C159.88 18.8987 159.47 18.7387 158.95 18.7387C158.49 18.7387 158.105 18.9037 157.795 19.2337C157.485 19.5537 157.33 20.0337 157.33 20.6737V24.9488H155.305V17.1487Z" fill="black"/>
<path d="M150.253 25.1437C149.463 25.1437 148.753 24.9637 148.123 24.6037C147.493 24.2337 146.998 23.7388 146.638 23.1188C146.278 22.4888 146.098 21.8037 146.098 21.0637C146.098 20.3237 146.278 19.6387 146.638 19.0087C146.998 18.3787 147.493 17.8837 148.123 17.5237C148.753 17.1537 149.463 16.9688 150.253 16.9688C151.043 16.9688 151.753 17.1537 152.383 17.5237C153.013 17.8837 153.508 18.3787 153.868 19.0087C154.228 19.6387 154.408 20.3237 154.408 21.0637C154.408 21.8037 154.228 22.4888 153.868 23.1188C153.508 23.7388 153.013 24.2337 152.383 24.6037C151.753 24.9637 151.043 25.1437 150.253 25.1437ZM148.123 21.0637C148.123 21.4737 148.208 21.8487 148.378 22.1887C148.558 22.5287 148.808 22.7988 149.128 22.9988C149.458 23.1988 149.833 23.2987 150.253 23.2987C150.673 23.2987 151.043 23.1988 151.363 22.9988C151.693 22.7988 151.943 22.5287 152.113 22.1887C152.293 21.8487 152.383 21.4737 152.383 21.0637C152.383 20.6537 152.293 20.2787 152.113 19.9387C151.933 19.5987 151.683 19.3288 151.363 19.1288C151.043 18.9188 150.673 18.8137 150.253 18.8137C149.833 18.8137 149.463 18.9188 149.143 19.1288C148.823 19.3288 148.573 19.5987 148.393 19.9387C148.213 20.2787 148.123 20.6537 148.123 21.0637Z" fill="black"/>
<path d="M142.75 25.1431C142.02 25.1431 141.345 24.9631 140.725 24.6031C140.115 24.2331 139.63 23.7331 139.27 23.1031C138.91 22.4731 138.73 21.7881 138.73 21.0481C138.73 20.2981 138.91 19.6131 139.27 18.9931C139.63 18.3631 140.13 17.8681 140.77 17.5081C141.41 17.1381 142.125 16.9531 142.915 16.9531C143.605 16.9531 144.225 17.0831 144.775 17.3431C145.325 17.5931 145.765 17.9481 146.095 18.4081L144.535 19.6831C144.355 19.4131 144.12 19.1981 143.83 19.0381C143.54 18.8781 143.225 18.7981 142.885 18.7981C142.465 18.7981 142.095 18.9031 141.775 19.1131C141.455 19.3131 141.205 19.5831 141.025 19.9231C140.845 20.2631 140.755 20.6381 140.755 21.0481C140.755 21.4481 140.845 21.8231 141.025 22.1731C141.215 22.5131 141.475 22.7881 141.805 22.9981C142.135 23.1981 142.51 23.2981 142.93 23.2981C143.3 23.2981 143.62 23.2181 143.89 23.0581C144.16 22.8981 144.405 22.6681 144.625 22.3681L146.095 23.6431C145.315 24.6431 144.2 25.1431 142.75 25.1431Z" fill="black"/>
<path d="M137.065 25.1445C136.685 25.1445 136.365 25.0145 136.105 24.7545C135.845 24.4945 135.715 24.1845 135.715 23.8245C135.715 23.4645 135.845 23.1595 136.105 22.9095C136.365 22.6495 136.685 22.5195 137.065 22.5195C137.445 22.5195 137.76 22.6495 138.01 22.9095C138.27 23.1595 138.4 23.4645 138.4 23.8245C138.4 24.1945 138.27 24.5095 138.01 24.7695C137.76 25.0195 137.445 25.1445 137.065 25.1445Z" fill="black"/>
<path d="M132.762 14H134.787V24.95H132.762V14Z" fill="black"/>
<path d="M127.074 25.1444C126.374 25.1444 125.729 24.9644 125.139 24.6044C124.549 24.2344 124.079 23.7394 123.729 23.1194C123.389 22.4994 123.219 21.8194 123.219 21.0794C123.219 20.3394 123.389 19.6594 123.729 19.0394C124.079 18.4094 124.549 17.9094 125.139 17.5394C125.729 17.1694 126.374 16.9844 127.074 16.9844C127.714 16.9844 128.229 17.1044 128.619 17.3444C129.019 17.5844 129.329 17.9294 129.549 18.3794V17.1494H131.559V24.9494H129.594V23.6744C129.364 24.1444 129.049 24.5094 128.649 24.7694C128.259 25.0194 127.734 25.1444 127.074 25.1444ZM125.244 21.0644C125.244 21.4644 125.334 21.8394 125.514 22.1894C125.704 22.5294 125.959 22.8044 126.279 23.0144C126.609 23.2144 126.984 23.3144 127.404 23.3144C127.834 23.3144 128.214 23.2144 128.544 23.0144C128.884 22.8144 129.144 22.5444 129.324 22.2044C129.504 21.8644 129.594 21.4894 129.594 21.0794C129.594 20.6694 129.504 20.2944 129.324 19.9544C129.144 19.6044 128.884 19.3294 128.544 19.1294C128.214 18.9194 127.834 18.8144 127.404 18.8144C126.984 18.8144 126.609 18.9194 126.279 19.1294C125.949 19.3294 125.694 19.5994 125.514 19.9394C125.334 20.2794 125.244 20.6544 125.244 21.0644Z" fill="black"/>
<path d="M119.276 25.1439C118.256 25.1439 117.326 24.9039 116.486 24.4239C115.656 23.9339 115.001 23.2739 114.521 22.4439C114.041 21.6139 113.801 20.7039 113.801 19.7139C113.801 18.7139 114.031 17.7989 114.491 16.9689C114.961 16.1289 115.611 15.4689 116.441 14.9889C117.271 14.4989 118.216 14.2539 119.276 14.2539C120.126 14.2539 120.856 14.3889 121.466 14.6589C122.086 14.9189 122.636 15.3339 123.116 15.9039L121.631 17.1939C121.001 16.5339 120.216 16.2039 119.276 16.2039C118.616 16.2039 118.036 16.3639 117.536 16.6839C117.036 16.9939 116.651 17.4189 116.381 17.9589C116.111 18.4889 115.976 19.0739 115.976 19.7139C115.976 20.3539 116.111 20.9389 116.381 21.4689C116.661 21.9989 117.051 22.4189 117.551 22.7289C118.061 23.0389 118.651 23.1939 119.321 23.1939C120.301 23.1939 121.101 22.8539 121.721 22.1739L123.251 23.4789C122.831 23.9889 122.281 24.3939 121.601 24.6939C120.931 24.9939 120.156 25.1439 119.276 25.1439Z" fill="black"/>
</svg>
