<svg xmlns="http://www.w3.org/2000/svg" width="232" height="132" fill="none"><g clip-path="url(#a)"><mask id="b" width="232" height="132" x="0" y="0" maskUnits="userSpaceOnUse" style="mask-type:luminance"><path fill="#fff" d="M232 0H0v132h232z"/></mask><g mask="url(#b)"><path fill="#f7f7f7" d="M232 0H0v132h232z"/><path fill="#fbfbfb" stroke="#ebebeb" d="M20 12.5h216.5v122h-224V20a7.5 7.5 0 0 1 7.114-7.49z"/><path fill="#fff" d="M13 20a7 7 0 0 1 7-7h51v139H13z"/><path fill="#212121" d="M25.818 21.734c-1.066.83-2.57.83-3.636 0q-.145.11-.277.241a3 3 0 0 0-.242.278c.83 1.065.83 2.57 0 3.635q.111.145.242.277.133.132.277.242a2.966 2.966 0 0 1 3.636 0q.145-.111.277-.241.13-.134.242-.278a2.966 2.966 0 0 1 0-3.635 3 3 0 0 0-.242-.278 3 3 0 0 0-.277-.242"/><path stroke="#ebebeb" d="M26.609 19H21.39A2.39 2.39 0 0 0 19 21.391v5.218C19 27.929 20.07 29 21.391 29h5.218C27.929 29 29 27.93 29 26.609V21.39C29 20.071 27.93 19 26.609 19Z"/><path fill="#6b7280" d="M48 23H34a1 1 0 1 0 0 2h14a1 1 0 1 0 0-2" opacity=".3"/><path fill="#b2b2b2" d="M19 40a1 1 0 0 1 1-1h38a1 1 0 1 1 0 2H20a1 1 0 0 1-1-1M19 48a1 1 0 0 1 1-1h30a1 1 0 1 1 0 2H20a1 1 0 0 1-1-1M19 56a1 1 0 0 1 1-1h38a1 1 0 1 1 0 2H20a1 1 0 0 1-1-1M19 64a1 1 0 0 1 1-1h22a1 1 0 1 1 0 2H20a1 1 0 0 1-1-1M19 72a1 1 0 0 1 1-1h30a1 1 0 1 1 0 2H20a1 1 0 0 1-1-1" opacity=".3"/><path stroke="#e0e0e0" d="M71.5 12v134" opacity=".5"/><path fill="#fff" stroke="#ebebeb" d="M87 20.5h25a3.5 3.5 0 0 1 3.5 3.5v3a3.5 3.5 0 0 1-3.5 3.5H87a3.5 3.5 0 0 1-3.5-3.5v-3a3.5 3.5 0 0 1 3.5-3.5ZM254 36.5H89a5.5 5.5 0 0 0-5.5 5.5v103a5.5 5.5 0 0 0 5.5 5.5h165a5.5 5.5 0 0 0 5.5-5.5V42a5.5 5.5 0 0 0-5.5-5.5Z"/><path fill="#b2b2b2" d="M107 25H92a.5.5 0 0 0 0 1h15a.5.5 0 0 0 0-1" opacity=".3"/><path stroke="#e0e0e0" d="M232 56.5H83M232 75.5H83M232 94.5H83M232 113.5H83" opacity=".5"/></g><path fill="#b2b2b2" d="M91 47.5a1.5 1.5 0 0 1 1.5-1.5h61a1.5 1.5 0 0 1 0 3h-61a1.5 1.5 0 0 1-1.5-1.5M91 67.5a1.5 1.5 0 0 1 1.5-1.5h37a1.5 1.5 0 0 1 0 3h-37a1.5 1.5 0 0 1-1.5-1.5M91 85.5a1.5 1.5 0 0 1 1.5-1.5h53a1.5 1.5 0 0 1 0 3h-53a1.5 1.5 0 0 1-1.5-1.5M91 104.5a1.5 1.5 0 0 1 1.5-1.5h77a1.5 1.5 0 0 1 0 3h-77a1.5 1.5 0 0 1-1.5-1.5M91 123.5a1.5 1.5 0 0 1 1.5-1.5h45a1.5 1.5 0 0 1 0 3h-45a1.5 1.5 0 0 1-1.5-1.5" opacity=".3"/></g><defs><clipPath id="a"><path fill="#fff" d="M0 0h232v132H0z"/></clipPath></defs></svg>