<svg xmlns="http://www.w3.org/2000/svg" width="232" height="131" fill="none"><g clip-path="url(#a)"><path fill="#f7f7f7" d="M0 0h232v131H0z"/><path fill="#fbfbfb" stroke="#ebebeb" d="M20 12.5h216.5v122h-224V20a7.5 7.5 0 0 1 7.114-7.49z"/><path fill="#fff" d="M13 20a7 7 0 0 1 7-7h51v139H13z"/><path fill="#212121" d="M25.818 21.734c-1.066.83-2.57.83-3.636 0q-.145.11-.277.241a3 3 0 0 0-.242.278c.83 1.065.83 2.57 0 3.635q.111.145.242.277.133.132.277.242a2.966 2.966 0 0 1 3.636 0q.145-.111.277-.241.13-.134.242-.278a2.966 2.966 0 0 1 0-3.635 3 3 0 0 0-.242-.278 3 3 0 0 0-.277-.242"/><path stroke="#ebebeb" d="M26.609 19H21.39A2.39 2.39 0 0 0 19 21.391v5.218C19 27.929 20.07 29 21.391 29h5.218C27.929 29 29 27.93 29 26.609V21.39C29 20.071 27.93 19 26.609 19Z"/><rect width="16" height="2" x="33" y="23" fill="#6b7280" opacity=".3" rx="1"/><path fill="#b2b2b2" d="M19 40a1 1 0 0 1 1-1h38a1 1 0 1 1 0 2H20a1 1 0 0 1-1-1M19 48a1 1 0 0 1 1-1h30a1 1 0 1 1 0 2H20a1 1 0 0 1-1-1M19 56a1 1 0 0 1 1-1h38a1 1 0 1 1 0 2H20a1 1 0 0 1-1-1M19 64a1 1 0 0 1 1-1h22a1 1 0 1 1 0 2H20a1 1 0 0 1-1-1M19 72a1 1 0 0 1 1-1h30a1 1 0 1 1 0 2H20a1 1 0 0 1-1-1" opacity=".3"/><path stroke="#e0e0e0" d="M71.5 12v134" opacity=".5"/><path fill="#fff" stroke="#ebebeb" d="M87 20.5h25a3.5 3.5 0 0 1 3.5 3.5v3a3.5 3.5 0 0 1-3.5 3.5H87a3.5 3.5 0 0 1-3.5-3.5v-3a3.5 3.5 0 0 1 3.5-3.5Z"/><rect width="176" height="114" x="83.5" y="36.5" fill="#fff" stroke="#ebebeb" rx="5.5"/><path fill="#b2b2b2" d="M91 47.5a1.5 1.5 0 0 1 1.5-1.5h61a1.5 1.5 0 0 1 0 3h-61a1.5 1.5 0 0 1-1.5-1.5M91 67.5a1.5 1.5 0 0 1 1.5-1.5h37a1.5 1.5 0 0 1 0 3h-37a1.5 1.5 0 0 1-1.5-1.5M91 85.5a1.5 1.5 0 0 1 1.5-1.5h53a1.5 1.5 0 0 1 0 3h-53a1.5 1.5 0 0 1-1.5-1.5M91 104.5a1.5 1.5 0 0 1 1.5-1.5h77a1.5 1.5 0 0 1 0 3h-77a1.5 1.5 0 0 1-1.5-1.5M91 123.5a1.5 1.5 0 0 1 1.5-1.5h45a1.5 1.5 0 0 1 0 3h-45a1.5 1.5 0 0 1-1.5-1.5" opacity=".3"/><rect width="16" height="1" x="91.5" y="25" fill="#b2b2b2" opacity=".3" rx=".5"/><path stroke="#e0e0e0" d="M232 56.5H83M232 75.5H83M232 94.5H83M232 113.5H83" opacity=".5"/><path fill="#222225" d="M116 0h116v131H116z"/><path fill="#fbfbfb" fill-opacity=".08" d="M128 20a8 8 0 0 1 8-8h217v123H128z"/><path stroke="#fff" stroke-opacity=".14" d="M136 12.5h216.5v122h-224V20a7.5 7.5 0 0 1 7.114-7.49z"/><rect width="177" height="115" x="199" y="36" fill="#fff" fill-opacity=".08" rx="6"/><rect width="176" height="114" x="199.5" y="36.5" stroke="#fff" stroke-opacity=".14" rx="5.5"/><path fill="#fff" fill-opacity=".06" d="M129 20a7 7 0 0 1 7-7h51v139h-58z"/><path fill="#fff" d="M141.818 21.734c-1.066.83-2.57.83-3.636 0a3 3 0 0 0-.277.241 3 3 0 0 0-.242.278c.83 1.065.83 2.57 0 3.635q.111.145.242.277.132.132.277.242a2.966 2.966 0 0 1 3.636 0q.145-.111.277-.241.13-.134.242-.278a2.965 2.965 0 0 1 0-3.635 3 3 0 0 0-.242-.278 3 3 0 0 0-.277-.242"/><path stroke="#fff" stroke-opacity=".14" d="M142.609 19h-5.218A2.39 2.39 0 0 0 135 21.391v5.218A2.39 2.39 0 0 0 137.391 29h5.218c1.32 0 2.391-1.07 2.391-2.391V21.39A2.39 2.39 0 0 0 142.609 19Z"/><rect width="16" height="2" x="149" y="23" fill="#fff" fill-opacity=".8" opacity=".3" rx="1"/><path fill="#fff" fill-opacity=".48" d="M135 40a1 1 0 0 1 1-1h38a1 1 0 0 1 0 2h-38a1 1 0 0 1-1-1M135 48a1 1 0 0 1 1-1h30a1 1 0 0 1 0 2h-30a1 1 0 0 1-1-1M135 56a1 1 0 0 1 1-1h38a1 1 0 0 1 0 2h-38a1 1 0 0 1-1-1M135 64a1 1 0 0 1 1-1h22a1 1 0 0 1 0 2h-22a1 1 0 0 1-1-1M135 72a1 1 0 0 1 1-1h30a1 1 0 0 1 0 2h-30a1 1 0 0 1-1-1" opacity=".3"/><path stroke="#fff" stroke-opacity=".14" d="M187.5 13v134" opacity=".5"/><path fill="#fff" fill-opacity=".04" d="M199 24a4 4 0 0 1 4-4h25a4 4 0 0 1 4 4v3a4 4 0 0 1-4 4h-25a4 4 0 0 1-4-4z"/><path stroke="#fff" stroke-opacity=".14" d="M203 20.5h25a3.5 3.5 0 0 1 3.5 3.5v3a3.5 3.5 0 0 1-3.5 3.5h-25a3.5 3.5 0 0 1-3.5-3.5v-3a3.5 3.5 0 0 1 3.5-3.5Z"/><rect width="16" height="1" x="207.5" y="25" fill="#b2b2b2" opacity=".3" rx=".5"/><path stroke="#fff" stroke-opacity=".14" d="M348 56.5H199M348 75.5H199M348 94.5H199M348 113.5H199" opacity=".5"/><path fill="#fff" fill-opacity=".4" d="M208 46.5a1.5 1.5 0 0 1 1.5-1.5h61a1.5 1.5 0 0 1 0 3h-61a1.5 1.5 0 0 1-1.5-1.5M208 66.5a1.5 1.5 0 0 1 1.5-1.5h37a1.5 1.5 0 0 1 0 3h-37a1.5 1.5 0 0 1-1.5-1.5M208 84.5a1.5 1.5 0 0 1 1.5-1.5h53a1.5 1.5 0 0 1 0 3h-53a1.5 1.5 0 0 1-1.5-1.5M208 103.5a1.5 1.5 0 0 1 1.5-1.5h77a1.5 1.5 0 0 1 0 3h-77a1.5 1.5 0 0 1-1.5-1.5M208 122.5a1.5 1.5 0 0 1 1.5-1.5h45a1.5 1.5 0 0 1 0 3h-45a1.5 1.5 0 0 1-1.5-1.5" opacity=".3"/></g><defs><clipPath id="a"><path fill="#fff" d="M0 0h232v131H0z"/></clipPath></defs></svg>