<svg xmlns="http://www.w3.org/2000/svg" width="232" height="132" fill="none"><g clip-path="url(#a)"><path fill="#222225" d="M0 0h232v132H0z"/><path fill="#fbfbfb" fill-opacity=".08" d="M12 20a8 8 0 0 1 8-8h217v123H12z"/><path stroke="#fff" stroke-opacity=".14" d="M20 12.5h216.5v122h-224V20a7.5 7.5 0 0 1 7.114-7.49z"/><rect width="177" height="115" x="83" y="36" fill="#fff" fill-opacity=".08" rx="6"/><rect width="176" height="114" x="83.5" y="36.5" stroke="#fff" stroke-opacity=".14" rx="5.5"/><path fill="#fff" fill-opacity=".06" d="M13 20a7 7 0 0 1 7-7h51v139H13z"/><path fill="#fff" d="M25.818 21.734c-1.066.83-2.57.83-3.636 0q-.145.11-.277.241a3 3 0 0 0-.242.278c.83 1.065.83 2.57 0 3.635q.111.145.242.277.133.132.277.242a2.966 2.966 0 0 1 3.636 0q.145-.111.277-.241.13-.134.242-.278a2.966 2.966 0 0 1 0-3.635 3 3 0 0 0-.242-.278 3 3 0 0 0-.277-.242"/><path stroke="#fff" stroke-opacity=".14" d="M26.609 19H21.39A2.39 2.39 0 0 0 19 21.391v5.218C19 27.929 20.07 29 21.391 29h5.218C27.929 29 29 27.93 29 26.609V21.39C29 20.071 27.93 19 26.609 19Z"/><rect width="16" height="2" x="33" y="23" fill="#fff" fill-opacity=".8" opacity=".3" rx="1"/><path fill="#fff" fill-opacity=".48" d="M19 40a1 1 0 0 1 1-1h38a1 1 0 1 1 0 2H20a1 1 0 0 1-1-1M19 48a1 1 0 0 1 1-1h30a1 1 0 1 1 0 2H20a1 1 0 0 1-1-1M19 56a1 1 0 0 1 1-1h38a1 1 0 1 1 0 2H20a1 1 0 0 1-1-1M19 64a1 1 0 0 1 1-1h22a1 1 0 1 1 0 2H20a1 1 0 0 1-1-1M19 72a1 1 0 0 1 1-1h30a1 1 0 1 1 0 2H20a1 1 0 0 1-1-1" opacity=".3"/><path stroke="#fff" stroke-opacity=".14" d="M71.5 13v134" opacity=".5"/><path fill="#fff" fill-opacity=".04" d="M83 24a4 4 0 0 1 4-4h25a4 4 0 0 1 4 4v3a4 4 0 0 1-4 4H87a4 4 0 0 1-4-4z"/><path stroke="#fff" stroke-opacity=".14" d="M87 20.5h25a3.5 3.5 0 0 1 3.5 3.5v3a3.5 3.5 0 0 1-3.5 3.5H87a3.5 3.5 0 0 1-3.5-3.5v-3a3.5 3.5 0 0 1 3.5-3.5Z"/><rect width="16" height="1" x="91.5" y="25" fill="#b2b2b2" opacity=".3" rx=".5"/><path stroke="#fff" stroke-opacity=".14" d="M232 56.5H83M232 75.5H83M232 94.5H83M232 113.5H83" opacity=".5"/><path fill="#fff" fill-opacity=".4" d="M92 46.5a1.5 1.5 0 0 1 1.5-1.5h61a1.5 1.5 0 0 1 0 3h-61a1.5 1.5 0 0 1-1.5-1.5M92 66.5a1.5 1.5 0 0 1 1.5-1.5h37a1.5 1.5 0 0 1 0 3h-37a1.5 1.5 0 0 1-1.5-1.5M92 84.5a1.5 1.5 0 0 1 1.5-1.5h53a1.5 1.5 0 0 1 0 3h-53a1.5 1.5 0 0 1-1.5-1.5M92 103.5a1.5 1.5 0 0 1 1.5-1.5h77a1.5 1.5 0 0 1 0 3h-77a1.5 1.5 0 0 1-1.5-1.5M92 122.5a1.5 1.5 0 0 1 1.5-1.5h45a1.5 1.5 0 0 1 0 3h-45a1.5 1.5 0 0 1-1.5-1.5" opacity=".3"/></g><defs><clipPath id="a"><path fill="#fff" d="M0 0h232v132H0z"/></clipPath></defs></svg>