<svg width="700" height="200" viewBox="0 0 700 200" fill="none" xmlns="http://www.w3.org/2000/svg">
<g clip-path="url(#clip0_1_12)">
<path d="M144.329 54.773V183.821C144.329 185.184 145.425 186.289 146.777 186.289H156.569C157.921 186.289 159.016 185.184 159.016 183.821V54.773C159.016 53.41 157.921 52.305 156.569 52.305H146.777C145.425 52.305 144.329 53.41 144.329 54.773Z" fill="#3A384E"/>
<path d="M122.084 66.278C122.084 67.162 121.615 67.98 120.853 68.42L71.8786 96.709C70.2918 97.626 70.2257 99.91 71.7568 100.918L120.975 133.332C121.667 133.788 122.084 134.565 122.084 135.399V144.962C122.084 146.911 119.949 148.092 118.319 147.043L51.1319 103.786C50.4275 103.332 50.0012 102.548 50.0012 101.705V94.628C50.0012 93.736 50.4783 92.913 51.2492 92.476L118.437 54.373C120.069 53.448 122.084 54.637 122.084 56.525V66.278Z" fill="#3A384E"/>
<path d="M181.048 135.494C181.048 134.609 181.518 133.792 182.279 133.352L231.254 105.062C232.841 104.146 232.907 101.862 231.376 100.853L182.157 68.439C181.465 67.983 181.048 67.206 181.048 66.372V56.8091C181.048 54.8601 183.184 53.6801 184.813 54.7291L252.001 97.985C252.705 98.439 253.131 99.223 253.131 100.066V107.144C253.131 108.036 252.654 108.858 251.883 109.295L184.696 147.398C183.064 148.323 181.048 147.134 181.048 145.246V135.494Z" fill="#3A384E"/>
<path d="M144.329 54.773V183.821C144.329 185.184 145.425 186.289 146.777 186.289H156.569C157.921 186.289 159.016 185.184 159.016 183.821V54.773C159.016 53.41 157.921 52.305 156.569 52.305H146.777C145.425 52.305 144.329 53.41 144.329 54.773Z" stroke="#3A384E" stroke-width="0.282021"/>
<path d="M122.084 66.278C122.084 67.162 121.615 67.98 120.853 68.42L71.8786 96.709C70.2918 97.626 70.2257 99.91 71.7568 100.918L120.975 133.332C121.667 133.788 122.084 134.565 122.084 135.399V144.962C122.084 146.911 119.949 148.092 118.319 147.043L51.1319 103.786C50.4275 103.332 50.0012 102.548 50.0012 101.705V94.628C50.0012 93.736 50.4783 92.913 51.2492 92.476L118.437 54.373C120.069 53.448 122.084 54.637 122.084 56.525V66.278Z" stroke="#3A384E" stroke-width="0.282021"/>
<path d="M181.048 135.494C181.048 134.609 181.518 133.792 182.279 133.352L231.254 105.062C232.841 104.146 232.907 101.862 231.376 100.853L182.157 68.439C181.465 67.983 181.048 67.206 181.048 66.372V56.8091C181.048 54.8601 183.184 53.6801 184.813 54.7291L252.001 97.985C252.705 98.439 253.131 99.223 253.131 100.066V107.144C253.131 108.036 252.654 108.858 251.883 109.295L184.696 147.398C183.064 148.323 181.048 147.134 181.048 145.246V135.494Z" stroke="#3A384E" stroke-width="0.282021"/>
<path d="M390.708 108.817C391.1 106.268 391.296 103.719 391.296 101.169C391.296 86.853 386.785 74.695 377.568 64.693C368.547 54.496 356.781 49.397 342.465 49.397C327.365 49.397 315.01 54.3 305.401 64.105C295.791 73.91 291.085 86.265 291.085 100.973C291.085 115.877 295.988 128.232 305.597 138.037C315.402 147.647 328.149 152.549 343.642 152.549C362.86 152.549 377.176 145.097 386.785 130.389L372.273 122.153C366.39 131.762 356.977 136.469 344.034 136.469C325.404 136.469 311.872 126.271 308.538 108.817H390.708ZM342.465 65.4779C358.154 65.4779 371.097 75.283 374.038 93.913H308.538C311.48 76.656 324.227 65.4779 342.465 65.4779ZM419.825 78.4209C419.825 69.9879 427.669 65.2819 437.278 65.2819C447.672 65.2819 454.732 69.4 458.262 77.832L472.578 69.7919C466.302 57.0449 453.163 49.397 437.278 49.397C427.277 49.397 419.04 52.142 412.373 57.633C405.901 63.124 402.567 70.1839 402.567 78.6169C402.567 99.4039 422.57 104.503 438.063 108.621C448.849 111.171 457.478 115.485 457.478 123.133C457.478 132.35 449.241 136.469 438.063 136.469C426.1 136.469 416.883 130.585 413.746 121.172L399.038 129.605C404.725 143.528 419.04 152.549 438.063 152.549C448.849 152.549 457.478 149.804 464.341 144.509C471.205 139.214 474.735 131.958 474.735 123.133C474.931 102.15 454.536 96.463 439.24 93.129C428.454 90.187 419.825 86.0689 419.825 78.4209ZM542.486 51.946H516.403V24.491L499.342 29.59V51.946H479.927V68.419H499.342V121.564C499.342 145.882 512.677 153.922 542.486 150V134.704C525.032 135.488 516.403 136.665 516.403 121.564V68.419H542.486V51.946ZM638.502 137.645C648.503 127.644 653.602 115.485 653.602 100.973C653.602 86.461 648.503 74.302 638.502 64.301C628.5 54.3 616.145 49.397 601.83 49.397C587.514 49.397 575.159 54.3 565.157 64.301C555.156 74.302 550.253 86.461 550.253 100.973C550.253 115.485 555.156 127.644 565.157 137.645C575.159 147.647 587.514 152.549 601.83 152.549C616.145 152.549 628.5 147.647 638.502 137.645ZM601.83 135.88C592.22 135.88 583.984 132.546 577.316 125.879C570.648 119.211 567.315 110.975 567.315 100.973C567.315 90.972 570.648 82.735 577.316 76.067C583.984 69.4 592.22 66.066 601.83 66.066C611.635 66.066 619.871 69.4 626.539 76.067C633.207 82.735 636.541 90.972 636.541 100.973C636.541 110.975 633.207 119.211 626.539 125.879C619.871 132.546 611.635 135.88 601.83 135.88Z" fill="#3A384E"/>
<path d="M390.708 108.817V109.522H391.312L391.404 108.925L390.708 108.817ZM377.568 64.693L377.04 65.16L377.05 65.171L377.568 64.693ZM305.401 64.105L305.904 64.598L305.401 64.105ZM305.597 138.037L305.093 138.531L305.103 138.541L305.597 138.037ZM386.785 130.389L387.376 130.775L387.786 130.147L387.133 129.776L386.785 130.389ZM372.273 122.153L372.621 121.54L372.028 121.203L371.672 121.785L372.273 122.153ZM308.538 108.817V108.112H307.686L307.846 108.95L308.538 108.817ZM374.038 93.913V94.618H374.864L374.735 93.803L374.038 93.913ZM308.538 93.913L307.843 93.795L307.703 94.618H308.538V93.913ZM391.404 108.925C391.802 106.34 392.001 103.755 392.001 101.169H390.591C390.591 103.682 390.398 106.196 390.011 108.71L391.404 108.925ZM392.001 101.169C392.001 86.69 387.433 74.357 378.087 64.215L377.05 65.171C386.138 75.032 390.591 87.017 390.591 101.169H392.001ZM378.096 64.226C368.933 53.867 356.969 48.692 342.465 48.692V50.102C356.592 50.102 368.162 55.124 377.04 65.16L378.096 64.226ZM342.465 48.692C327.196 48.692 314.653 53.657 304.897 63.611L305.904 64.598C315.367 54.943 327.533 50.102 342.465 50.102V48.692ZM304.897 63.611C295.146 73.562 290.38 86.1 290.38 100.973H291.79C291.79 86.43 296.437 74.259 305.904 64.598L304.897 63.611ZM290.38 100.973C290.38 116.048 295.346 128.584 305.093 138.531L306.1 137.544C296.63 127.88 291.79 115.707 291.79 100.973H290.38ZM305.103 138.541C315.056 148.295 327.988 153.254 343.642 153.254V151.844C328.31 151.844 315.748 146.998 306.09 137.534L305.103 138.541ZM343.642 153.254C363.076 153.254 377.625 145.7 387.376 130.775L386.195 130.004C376.728 144.495 362.644 151.844 343.642 151.844V153.254ZM387.133 129.776L372.621 121.54L371.925 122.766L386.437 131.002L387.133 129.776ZM371.672 121.785C365.94 131.147 356.78 135.764 344.034 135.764V137.174C357.174 137.174 366.84 132.377 372.875 122.521L371.672 121.785ZM344.034 135.764C334.847 135.764 326.966 133.25 320.981 128.63C315 124.013 310.868 117.257 309.231 108.685L307.846 108.95C309.542 117.831 313.843 124.901 320.119 129.746C326.391 134.588 334.59 137.174 344.034 137.174V135.764ZM308.538 109.522H390.708V108.112H308.538V109.522ZM342.465 66.183C350.16 66.183 357.15 68.586 362.572 73.244C367.994 77.901 371.894 84.851 373.342 94.023L374.735 93.803C373.241 84.346 369.199 77.078 363.491 72.174C357.785 67.272 350.459 64.773 342.465 64.773V66.183ZM374.038 93.208H308.538V94.618H374.038V93.208ZM309.233 94.032C310.68 85.547 314.528 78.594 320.222 73.761C325.915 68.93 333.494 66.183 342.465 66.183V64.773C333.198 64.773 325.285 67.615 319.309 72.686C313.335 77.757 309.339 85.022 307.843 93.795L309.233 94.032ZM458.262 77.832L457.612 78.105L457.917 78.835L458.607 78.447L458.262 77.832ZM472.578 69.792L472.923 70.407L473.505 70.08L473.21 69.481L472.578 69.792ZM412.373 57.633L411.925 57.089L411.917 57.096L412.373 57.633ZM438.063 108.621L437.882 109.303L437.901 109.307L438.063 108.621ZM413.746 121.172L414.414 120.949L414.142 120.132L413.395 120.561L413.746 121.172ZM399.038 129.605L398.687 128.993L398.151 129.3L398.385 129.871L399.038 129.605ZM464.341 144.509L464.772 145.067L464.341 144.509ZM474.735 123.133L474.03 123.127V123.133H474.735ZM439.24 93.129L439.054 93.81L439.089 93.818L439.24 93.129ZM420.53 78.421C420.53 74.455 422.362 71.376 425.355 69.265C428.368 67.139 432.578 65.987 437.278 65.987V64.576C432.369 64.576 427.853 65.777 424.542 68.113C421.21 70.463 419.12 73.954 419.12 78.421H420.53ZM437.278 65.987C442.385 65.987 446.615 66.998 449.984 69.001C453.345 70.999 455.898 74.012 457.612 78.105L458.912 77.56C457.096 73.22 454.354 69.958 450.704 67.789C447.063 65.624 442.566 64.576 437.278 64.576V65.987ZM458.607 78.447L472.923 70.407L472.233 69.177L457.917 77.218L458.607 78.447ZM473.21 69.481C466.801 56.462 453.396 48.692 437.278 48.692V50.102C452.931 50.102 465.804 57.628 471.945 70.103L473.21 69.481ZM437.278 48.692C427.139 48.692 418.737 51.479 411.925 57.089L412.821 58.178C419.344 52.806 427.415 50.102 437.278 50.102V48.692ZM411.917 57.096C405.291 62.718 401.862 69.972 401.862 78.617H403.272C403.272 70.396 406.512 63.531 412.829 58.171L411.917 57.096ZM401.862 78.617C401.862 89.299 407.029 95.976 414.129 100.466C421.175 104.923 430.164 107.251 437.882 109.303L438.244 107.94C430.47 105.873 421.71 103.593 414.882 99.274C408.107 94.989 403.272 88.722 403.272 78.617H401.862ZM437.901 109.307C443.263 110.575 448.02 112.267 451.422 114.551C454.81 116.825 456.772 119.624 456.772 123.133H458.183C458.183 118.994 455.831 115.812 452.208 113.38C448.599 110.957 443.649 109.217 438.225 107.935L437.901 109.307ZM456.772 123.133C456.772 127.49 454.845 130.604 451.586 132.661C448.286 134.744 443.582 135.764 438.063 135.764V137.174C443.721 137.174 448.725 136.134 452.338 133.854C455.991 131.548 458.183 127.993 458.183 123.133H456.772ZM438.063 135.764C426.33 135.764 417.435 130.01 414.414 120.949L413.077 121.395C416.332 131.161 425.871 137.174 438.063 137.174V135.764ZM413.395 120.561L398.687 128.993L399.388 130.216L414.096 121.784L413.395 120.561ZM398.385 129.871C404.201 144.112 418.815 153.254 438.063 153.254V151.844C419.266 151.844 405.248 142.945 399.69 129.338L398.385 129.871ZM438.063 153.254C448.975 153.254 457.763 150.474 464.772 145.067L463.911 143.951C457.192 149.134 448.723 151.844 438.063 151.844V153.254ZM464.772 145.067C471.812 139.636 475.44 132.172 475.44 123.133H474.03C474.03 131.744 470.598 138.792 463.911 143.951L464.772 145.067ZM475.44 123.14C475.541 112.359 470.326 105.484 463.176 100.918C456.072 96.381 447.035 94.106 439.39 92.44L439.089 93.818C446.741 95.485 455.549 97.72 462.418 102.107C469.241 106.464 474.125 112.924 474.03 123.127L475.44 123.14ZM439.425 92.449C434.05 90.983 429.288 89.242 425.88 86.954C422.489 84.677 420.53 81.926 420.53 78.421H419.12C419.12 82.563 421.476 85.696 425.095 88.125C428.698 90.544 433.643 92.333 439.054 93.809L439.425 92.449ZM542.486 51.946H543.191V51.241H542.486V51.946ZM516.403 51.946H515.698V52.651H516.403V51.946ZM516.403 24.491H517.108V23.545L516.201 23.816L516.403 24.491ZM499.342 29.59L499.14 28.914L498.637 29.065V29.59H499.342ZM499.342 51.946V52.651H500.047V51.946H499.342ZM479.927 51.946V51.241H479.222V51.946H479.927ZM479.927 68.419H479.222V69.124H479.927V68.419ZM499.342 68.419H500.047V67.714H499.342V68.419ZM542.486 150L542.578 150.699L543.191 150.618V150H542.486ZM542.486 134.704H543.191V133.966L542.454 133.999L542.486 134.704ZM516.403 68.419V67.714H515.698V68.419H516.403ZM542.486 68.419V69.124H543.191V68.419H542.486ZM542.486 51.241H516.403V52.651H542.486V51.241ZM517.108 51.946V24.491H515.698V51.946H517.108ZM516.201 23.816L499.14 28.914L499.544 30.265L516.605 25.167L516.201 23.816ZM498.637 29.59V51.946H500.047V29.59H498.637ZM499.342 51.241H479.927V52.651H499.342V51.241ZM479.222 51.946V68.419H480.632V51.946H479.222ZM479.927 69.124H499.342V67.714H479.927V69.124ZM498.637 68.419V121.564H500.047V68.419H498.637ZM498.637 121.564C498.637 133.842 502.008 142.221 509.353 146.964C516.635 151.667 527.639 152.665 542.578 150.699L542.394 149.301C527.524 151.258 516.956 150.196 510.118 145.78C503.343 141.404 500.047 133.605 500.047 121.564H498.637ZM543.191 150V134.704H541.781V150H543.191ZM542.454 133.999C538.075 134.196 534.291 134.415 531.05 134.4C527.806 134.385 525.186 134.133 523.129 133.424C521.102 132.726 519.63 131.587 518.644 129.763C517.642 127.909 517.108 125.286 517.108 121.564H515.698C515.698 125.393 516.243 128.285 517.404 130.433C518.581 132.612 520.358 133.961 522.67 134.757C524.952 135.544 527.761 135.795 531.044 135.81C534.33 135.825 538.17 135.603 542.517 135.408L542.454 133.999ZM517.108 121.564V68.419H515.698V121.564H517.108ZM516.403 69.124H542.486V67.714H516.403V69.124ZM543.191 68.419V51.946H541.781V68.419H543.191ZM638.502 137.645L639 138.144L638.502 137.645ZM565.157 64.301L565.656 64.8L565.157 64.301ZM565.157 137.645L565.656 137.147L565.157 137.645ZM577.316 125.879L577.815 125.38L577.316 125.879ZM577.316 76.067L577.815 76.566L577.316 76.067ZM626.539 76.067L626.041 76.566L626.539 76.067ZM639 138.144C649.134 128.01 654.307 115.672 654.307 100.973H652.897C652.897 115.299 647.872 127.278 638.003 137.147L639 138.144ZM654.307 100.973C654.307 86.275 649.134 73.937 639 63.802L638.003 64.8C647.872 74.668 652.897 86.648 652.897 100.973H654.307ZM639 63.802C628.86 53.663 616.323 48.692 601.83 48.692V50.102C615.967 50.102 628.14 54.937 638.003 64.8L639 63.802ZM601.83 48.692C587.336 48.692 574.799 53.663 564.659 63.802L565.656 64.8C575.519 54.937 587.692 50.102 601.83 50.102V48.692ZM564.659 63.802C554.52 73.941 549.548 86.282 549.548 100.973H550.958C550.958 86.641 555.792 74.664 565.656 64.8L564.659 63.802ZM549.548 100.973C549.548 115.665 554.52 128.005 564.659 138.144L565.656 137.147C555.792 127.283 550.958 115.306 550.958 100.973H549.548ZM564.659 138.144C574.799 148.284 587.336 153.254 601.83 153.254V151.844C587.692 151.844 575.519 147.01 565.656 137.147L564.659 138.144ZM601.83 153.254C616.323 153.254 628.86 148.284 639 138.144L638.003 137.147C628.14 147.01 615.967 151.844 601.83 151.844V153.254ZM601.83 135.175C592.401 135.175 584.346 131.911 577.815 125.38L576.818 126.377C583.622 133.181 592.039 136.585 601.83 136.585V135.175ZM577.815 125.38C571.286 118.852 568.02 110.798 568.02 100.973H566.61C566.61 111.151 570.01 119.57 576.818 126.377L577.815 125.38ZM568.02 100.973C568.02 91.148 571.286 83.094 577.815 76.566L576.818 75.569C570.01 82.376 566.61 90.795 566.61 100.973H568.02ZM577.815 76.566C584.346 70.035 592.401 66.771 601.83 66.771V65.361C592.039 65.361 583.622 68.765 576.818 75.569L577.815 76.566ZM601.83 66.771C611.456 66.771 619.511 70.036 626.041 76.566L627.038 75.569C620.232 68.763 611.814 65.361 601.83 65.361V66.771ZM626.041 76.566C632.569 83.094 635.836 91.148 635.836 100.973H637.246C637.246 90.795 633.845 82.376 627.038 75.569L626.041 76.566ZM635.836 100.973C635.836 110.798 632.569 118.852 626.041 125.38L627.038 126.377C633.845 119.57 637.246 111.151 637.246 100.973H635.836ZM626.041 125.38C619.511 131.91 611.456 135.175 601.83 135.175V136.585C611.814 136.585 620.232 133.183 627.038 126.377L626.041 125.38Z" fill="#3A384E"/>
</g>
<defs>
<clipPath id="clip0_1_12">
<rect width="700" height="200" fill="white"/>
</clipPath>
</defs>
</svg>
