<svg xmlns="http://www.w3.org/2000/svg" height="32" viewBox="0 0 32 32" width="32"><path d="M30.4 16.34c0-1.08-.1-2.11-.28-3.1H16v5.75h8.08c-.33 1.91-1.39 3.53-3.01 4.61v3.76h4.85c2.84-2.6 4.48-6.45 4.48-11.02z" fill="#4285F4"/><path d="M16 31c4.05 0 7.44-1.34 9.93-3.63l-4.85-3.76c-1.34.9-3.06 1.43-5.08 1.43-3.9 0-7.21-2.64-8.39-6.19h-5v3.88C5.08 27.63 10.14 31 16 31z" fill="#34A853"/><path d="M2.61 22.73l5-3.88c-.3-.9-.47-1.86-.47-2.85s.17-1.95.47-2.85V9.27h-5C1.59 11.3 1 13.58 1 16c0 2.42.59 4.7 1.61 6.73z" fill="#FBBC05"/><path d="M16 6.97c2.2 0 4.18.76 5.74 2.24l4.3-4.3C23.44 2.49 20.05 1 16 1 10.14 1 5.07 4.37 2.61 9.27l5 3.88C8.79 9.6 12.1 6.97 16 6.97z" fill="#EA4335"/><path d="M1 16V1h30v30H1z" fill="none"/></svg>