<svg width="16" height="16" viewBox="0 0 16 16" fill="none" xmlns="http://www.w3.org/2000/svg">
<path d="M8.31877 15.36C4.26002 15.36 0.95752 12.0588 0.95752 8.00001C0.95752 3.94126 4.26002 0.640015 8.31877 0.640015C10.1575 0.640015 11.9175 1.32126 13.2763 2.55876L13.5238 2.78501L11.0963 5.21251L10.8713 5.02001C10.1588 4.41001 9.25252 4.07376 8.31877 4.07376C6.15377 4.07376 4.39127 5.83501 4.39127 8.00001C4.39127 10.165 6.15377 11.9263 8.31877 11.9263C9.88002 11.9263 11.1138 11.1288 11.695 9.77001H7.99877V6.45626L15.215 6.46626L15.2688 6.72001C15.645 8.50626 15.3438 11.1338 13.8188 13.0138C12.5563 14.57 10.7063 15.36 8.31877 15.36Z" fill="currentColor"/>
</svg>
