<svg xmlns="http://www.w3.org/2000/svg" viewBox="0 0 395.81 395.81"><defs><style>.cls-1{fill:#fff;}.cls-2{fill:#1a202c;}.cls-3{fill:#007ee5;}</style></defs><g id="Layer_2" data-name="Layer 2"><g id="Layer_1-2" data-name="Layer 1"><circle class="cls-1" cx="197.91" cy="197.91" r="197.91"/><path class="cls-2" d="M228.75,87.65c-23.7-.63-47.42-.28-71.13-.26-9.81,0-12.5,2.81-12.5,12.5q0,49.2,0,98.36v48.31q0,8.9,0,17.79l45.74,44.29h.07l37.84-.1c43.37-.12,84-27.11,100.85-67C360.51,168.27,309.19,89.79,228.75,87.65Zm63.33,122.68c-6.52,31.64-32.24,53.57-63.45,53.95-12.26.16-24.52,0-37.74,0V132c21.65,1,43-3.62,63.46,5.58C282.54,150.27,298.27,180.34,292.08,210.33Z"/><path class="cls-2" d="M71.17,197.73q0-48.76,0-97.54c0-10.42,3-13.35,13.61-13.52,6.15-.1,12.3-.16,18.45-.08,9.16.1,12.69,3.51,12.83,12.77.17,11.42.07,22.85.05,34.27q-.14,80.4-.3,160.81c0,11.29-3.17,14.5-14.63,14.72-5.85.11-11.72.17-17.57-.07-9.62-.39-12.43-3.23-12.45-12.94-.09-32.81,0-65.61,0-98.42Z"/><path class="cls-3" d="M190.89,264.31v44.4l-.07-.07q-22.87-22.15-45.74-44.33Z"/></g></g></svg>