<svg width="872" height="248" viewBox="0 0 872 248" fill="none" xmlns="http://www.w3.org/2000/svg">
<g clip-path="url(#clip0_1995_5364)">
<path d="M199.76 80.2998V49.2998C199.76 42.3198 202.333 40.3198 207.48 43.2998L291.74 91.5398C296.153 93.9531 299.153 96.3631 300.74 98.7698C302.327 101.176 303.123 104.663 303.13 109.23V145.42C303.13 149.973 302.333 153.46 300.74 155.88C299.147 158.3 296.147 160.71 291.74 163.11L207.48 211.37C202.333 214.316 199.76 212.316 199.76 205.37V174.37C199.76 169.803 202.213 166.183 207.12 163.51L263.12 132.73C264.09 132.197 264.898 131.413 265.461 130.46C266.025 129.508 266.322 128.421 266.322 127.315C266.322 126.208 266.025 125.122 265.461 124.169C264.898 123.217 264.09 122.433 263.12 121.9L207.12 91.1198C202.207 88.4665 199.753 84.8598 199.76 80.2998Z" fill="#3A384E"/>
<g opacity="0.54">
<path d="M103.38 174.39V205.39C103.38 212.37 100.807 214.37 95.66 211.39L11.4 163.13C6.98667 160.717 3.98667 158.307 2.4 155.9C0.813333 153.493 0.0133333 150.007 0 145.44V109.25C0 104.697 0.796667 101.21 2.39 98.7901C3.98333 96.3701 6.98333 93.9601 11.39 91.5601L95.66 43.3101C100.807 40.3635 103.38 42.3635 103.38 49.3101V80.3101C103.38 84.8768 100.927 88.4968 96.02 91.1701L40 121.93C39.0304 122.463 38.2218 123.247 37.6586 124.2C37.0954 125.152 36.7983 126.239 36.7983 127.345C36.7983 128.452 37.0954 129.538 37.6586 130.49C38.2218 131.443 39.0304 132.227 40 132.76L96 163.54C100.92 166.213 103.38 169.83 103.38 174.39Z" fill="#3A384E"/>
</g>
<path d="M447.68 204.76H376.68C359.747 204.76 346.673 200.26 337.46 191.26C328.247 182.26 323.64 169.297 323.64 152.37V93.2299C323.64 76.2965 328.247 63.3299 337.46 54.3299C346.673 45.3299 359.747 40.8332 376.68 40.8399H402C418.92 40.8399 431.99 45.3365 441.21 54.3299C450.43 63.3232 455.04 76.2899 455.04 93.2299V134C455.04 138.493 452.79 140.743 448.29 140.75H367.64C365.07 140.75 363.78 141.94 363.78 144.29V151.36C363.78 158.027 365.227 162.793 368.12 165.66C371.013 168.527 375.887 169.973 382.74 170H447.67C452.177 170 454.43 172.357 454.43 177.07V198.28C454.43 200.64 453.94 202.28 452.98 203.28C452.02 204.28 450.26 204.76 447.68 204.76ZM367.68 113.47H411.4C413.753 113.47 414.93 112.29 414.93 109.93V94.5099C414.93 87.6499 413.537 82.8265 410.75 80.0399C407.963 77.2532 403.14 75.8599 396.28 75.8599H382.78C375.92 75.8599 371.097 77.2532 368.31 80.0399C365.523 82.8265 364.133 87.6499 364.14 94.5099V109.94C364.11 112.3 365.28 113.47 367.64 113.47H367.68Z" fill="#3A384E"/>
<path d="M547.65 204.76H486.58C482.287 204.76 480.143 202.51 480.15 198.01V177.45C480.15 175.09 480.58 173.423 481.44 172.45C482.3 171.477 484.013 170.997 486.58 171.01H540.26C550.753 171.003 556 167.79 556 161.37V159.77C556 154.59 551.61 149.667 542.83 145L511 127.29C500.073 121.723 492.04 115.723 486.9 109.29C481.76 102.857 479.187 94.6068 479.18 84.5401C479.18 69.5468 483.143 58.5101 491.07 51.4301C498.997 44.3501 511.427 40.8168 528.36 40.8301H582C586.28 40.8301 588.423 43.0801 588.43 47.5801V68.4801C588.43 70.8301 588 72.4801 587.14 73.4801C586.28 74.4801 584.61 74.9001 582 74.9001H537.36C526.86 74.9001 521.61 77.5668 521.61 82.9001V84.5001C521.61 89.2201 526.217 94.0434 535.43 98.9701L567.9 118.25C579.04 124.25 586.86 130.41 591.36 136.73C595.86 143.05 598.11 151.353 598.11 161.64C598.117 190.393 581.297 204.767 547.65 204.76Z" fill="#3A384E"/>
<path d="M629.94 76.18H617.08C614.507 76.18 612.737 75.75 611.77 74.89C610.803 74.03 610.32 72.3167 610.32 69.75V47.58C610.32 43.0733 612.573 40.8233 617.08 40.83H629.93C632.29 40.83 633.47 39.65 633.47 37.29V6.76C633.47 2.25333 635.827 0 640.54 0H667.54C672.033 0 674.283 2.25333 674.29 6.76V37.29C674.29 39.65 675.577 40.83 678.15 40.83H703.23C707.737 40.83 709.987 43.08 709.98 47.58V69.75C709.98 72.11 709.5 73.75 708.54 74.75C707.58 75.75 705.81 76.19 703.23 76.19H678.16C675.593 76.19 674.307 77.37 674.3 79.73V150.73C674.3 157.397 675.8 162.163 678.8 165.03C681.8 167.897 686.727 169.34 693.58 169.36H706.44C710.947 169.36 713.197 171.613 713.19 176.12V198.3C713.19 200.66 712.71 202.3 711.75 203.3C710.79 204.3 709.01 204.75 706.44 204.75H686.84C669.907 204.75 656.78 200.25 647.46 191.25C638.14 182.25 633.473 169.393 633.46 152.68V79.68C633.473 77.3467 632.3 76.18 629.94 76.18Z" fill="#3A384E"/>
<path d="M818.3 204.76H789.69C772.757 204.76 759.683 200.26 750.47 191.26C741.257 182.26 736.65 169.297 736.65 152.37V93.2299C736.65 76.2965 741.257 63.3299 750.47 54.3299C759.683 45.3299 772.757 40.8332 789.69 40.8399H818.3C835.02 40.8399 848.04 45.3932 857.36 54.4999C866.68 63.6065 871.347 76.5198 871.36 93.2398V152.38C871.36 169.1 866.693 182.01 857.36 191.11C848.027 200.21 835.007 204.76 818.3 204.76ZM795.8 169.76H812.19C819.05 169.76 823.927 168.367 826.82 165.58C829.713 162.793 831.16 157.97 831.16 151.11V94.5099C831.16 87.6499 829.713 82.8265 826.82 80.0399C823.927 77.2532 819.05 75.8599 812.19 75.8599H795.8C788.94 75.8599 784.117 77.2532 781.33 80.0399C778.543 82.8265 777.153 87.6499 777.16 94.5099V151.09C777.16 157.957 778.55 162.78 781.33 165.56C784.11 168.34 788.933 169.73 795.8 169.73V169.76Z" fill="#3A384E"/>
<path d="M172.19 48.0598V241.25C172.19 245.743 169.94 247.993 165.44 248H138.12C133.613 248 131.36 245.75 131.36 241.25V48.0598C131.36 43.5531 133.613 41.2998 138.12 41.2998H165.44C169.947 41.3065 172.197 43.5598 172.19 48.0598Z" fill="#3A384E"/>
</g>
<defs>
<clipPath id="clip0_1995_5364">
<rect width="871.35" height="248" fill="white"/>
</clipPath>
</defs>
</svg>
