<svg xmlns="http://www.w3.org/2000/svg" viewBox="0 0 871.35 248"><defs><style>.cls-1{isolation:isolate;}.cls-2{mix-blend-mode:multiply;}.cls-3{fill:#0a0c19;}.cls-4{opacity:0.54;}</style></defs><title>Asset 6</title><g class="cls-1"><g id="Layer_2" data-name="Layer 2"><g id="Layer_1-2" data-name="Layer 1"><g class="cls-2"><path class="cls-3" d="M199.76,80.3v-31q0-10.47,7.72-6l84.26,48.24q6.62,3.62,9,7.23t2.39,10.46v36.19q0,6.83-2.39,10.46t-9,7.23l-84.26,48.26q-7.72,4.42-7.72-6v-31q0-6.85,7.36-10.86l56-30.78a6.18,6.18,0,0,0,0-10.83l-56-30.78Q199.75,87.14,199.76,80.3Z"/><g class="cls-4"><path class="cls-3" d="M103.38,174.39v31q0,10.47-7.72,6L11.4,163.13q-6.62-3.62-9-7.23T0,145.44V109.25q0-6.83,2.39-10.46t9-7.23L95.66,43.31q7.72-4.42,7.72,6v31q0,6.85-7.36,10.86L40,121.93a6.18,6.18,0,0,0,0,10.83l56,30.78Q103.38,167.55,103.38,174.39Z"/></g><path class="cls-3" d="M447.68,204.76h-71q-25.4,0-39.22-13.5t-13.82-38.89V93.23q0-25.4,13.82-38.9t39.22-13.49H402q25.38,0,39.21,13.49t13.83,38.9V134q0,6.74-6.75,6.75H367.64c-2.57,0-3.86,1.19-3.86,3.54v7.07q0,10,4.34,14.3t14.62,4.34h64.93q6.76,0,6.76,7.07v21.21c0,2.36-.49,4-1.45,5S450.26,204.76,447.68,204.76Zm-80-91.29h43.72q3.53,0,3.53-3.54V94.51q0-10.29-4.18-14.47t-14.47-4.18h-13.5q-10.29,0-14.47,4.18t-4.17,14.47v15.43C364.11,112.3,365.28,113.47,367.64,113.47Z"/><path class="cls-3" d="M547.65,204.76H486.58q-6.44,0-6.43-6.75V177.45q0-3.54,1.29-5t5.14-1.44h53.68Q556,171,556,161.37v-1.6Q556,152,542.83,145L511,127.29q-16.39-8.35-24.1-18t-7.72-24.75q0-22.49,11.89-33.11t37.29-10.6H582q6.42,0,6.43,6.75v20.9c0,2.35-.43,4-1.29,5S584.61,74.9,582,74.9H537.36q-15.75,0-15.75,8v1.6q0,7.08,13.82,14.47l32.47,19.28q16.71,9,23.46,18.48t6.75,24.91Q598.12,204.77,547.65,204.76Z"/><path class="cls-3" d="M629.94,76.18H617.08q-3.86,0-5.31-1.29t-1.45-5.14V47.58q0-6.76,6.76-6.75h12.85q3.54,0,3.54-3.54V6.76q0-6.76,7.07-6.76h27q6.74,0,6.75,6.76V37.29q0,3.54,3.86,3.54h25.08q6.76,0,6.75,6.75V69.75c0,2.36-.48,4-1.44,5s-2.73,1.44-5.31,1.44H678.16q-3.85,0-3.86,3.54v71q0,10,4.5,14.3t14.78,4.33h12.86q6.76,0,6.75,6.76v22.18c0,2.36-.48,4-1.44,5s-2.74,1.45-5.31,1.45H686.84q-25.4,0-39.38-13.5t-14-38.57v-73Q633.48,76.18,629.94,76.18Z"/><path class="cls-3" d="M818.3,204.76H789.69q-25.4,0-39.22-13.5t-13.82-38.89V93.23q0-25.4,13.82-38.9t39.22-13.49H818.3q25.08,0,39.06,13.66t14,38.74v59.14q0,25.08-14,38.73T818.3,204.76Zm-22.5-35h16.39q10.29,0,14.63-4.18t4.34-14.47V94.51q0-10.29-4.34-14.47t-14.63-4.18H795.8q-10.29,0-14.47,4.18t-4.17,14.47v56.58q0,10.3,4.17,14.47T795.8,169.73Z"/><path class="cls-3" d="M172.19,48.06V241.25q0,6.74-6.75,6.75H138.12q-6.76,0-6.76-6.75V48.06q0-6.76,6.76-6.76h27.32Q172.2,41.31,172.19,48.06Z"/></g></g></g></g></svg>