<?xml version="1.0" standalone="no"?>
<!DOCTYPE svg PUBLIC "-//W3C//DTD SVG 20010904//EN"
 "http://www.w3.org/TR/2001/REC-SVG-20010904/DTD/svg10.dtd">
<svg version="1.0" xmlns="http://www.w3.org/2000/svg"
 width="411.000000pt" height="411.000000pt" viewBox="0 0 411.000000 411.000000"
 preserveAspectRatio="xMidYMid meet">
<metadata>
Created by potrace 1.14, written by Peter Selinger 2001-2017
</metadata>
<g transform="translate(0.000000,411.000000) scale(0.100000,-0.100000)"
fill="#000000" stroke="none">
<path d="M1918 4095 c-2 -2 -34 -6 -73 -10 -38 -3 -79 -8 -90 -10 -11 -3 -38
-7 -60 -10 -22 -3 -67 -12 -100 -20 -33 -9 -69 -17 -80 -19 -63 -13 -268 -93
-371 -145 -305 -153 -563 -375 -754 -645 -70 -99 -75 -107 -130 -206 -97 -176
-170 -379 -211 -582 -30 -151 -38 -248 -34 -438 2 -102 7 -201 10 -220 47
-299 125 -528 264 -775 25 -44 121 -187 130 -195 4 -3 22 -25 41 -50 120 -156
299 -318 485 -440 203 -133 552 -271 748 -296 18 -2 43 -7 57 -10 14 -4 133
-9 265 -11 191 -4 261 -1 345 12 58 9 110 17 115 19 6 1 26 6 45 10 78 17 240
70 330 108 763 321 1268 1086 1254 1900 -1 91 -14 269 -19 278 -2 3 -6 27 -9
53 -12 97 -77 325 -131 452 -46 111 -137 277 -194 355 -114 159 -132 180 -246
295 -159 159 -301 264 -492 365 -167 89 -401 172 -549 196 -21 3 -42 8 -45 9
-3 2 -28 7 -55 10 -27 3 -65 8 -84 11 -37 6 -357 13 -362 9z"/>
</g>
</svg>
