<?xml version="1.0" standalone="no"?>
<!DOCTYPE svg PUBLIC "-//W3C//DTD SVG 20010904//EN"
 "http://www.w3.org/TR/2001/REC-SVG-20010904/DTD/svg10.dtd">
<svg width="67" height="22" viewBox="0 0 67 22" fill="none" xmlns="http://www.w3.org/2000/svg">
<path d="M7.31511 22C5.10144 22 3.32884 21.5838 1.9973 20.7514C0.66577 19.9024 0 18.6122 0 16.8808C0 15.9652 0.158123 15.266 0.474362 14.7832C0.790602 14.3004 1.25663 14.059 1.87247 14.059C2.32186 14.059 2.68803 14.1756 2.97098 14.4086C3.25393 14.6417 3.39541 14.9414 3.39541 15.3076C3.39541 15.6406 3.37045 15.9319 3.32052 16.1816C3.32052 16.2482 3.30387 16.3647 3.27058 16.5312C3.25394 16.6977 3.24562 16.8725 3.24562 17.0556C3.24562 17.8048 3.62011 18.3625 4.36909 18.7287C5.13473 19.095 6.19995 19.2781 7.56477 19.2781C8.97953 19.2781 10.0864 19.0284 10.8853 18.5289C11.6842 18.0129 12.0837 17.297 12.0837 16.3814C12.0837 15.8154 11.9006 15.3326 11.5344 14.933C11.1682 14.5168 10.7105 14.1756 10.1613 13.9092C9.61201 13.6262 8.83805 13.2849 7.8394 12.8854C6.5578 12.3859 5.50922 11.9115 4.69366 11.462C3.89474 11.0125 3.204 10.4048 2.62145 9.63905C2.05555 8.85661 1.7726 7.89104 1.7726 6.74234C1.7726 5.54371 2.08884 4.47825 2.72132 3.54598C3.37044 2.6137 4.29419 1.88953 5.49257 1.37345C6.70759 0.857368 8.13067 0.599328 9.7618 0.599328C10.9768 0.599328 12.092 0.782453 13.1073 1.1487C14.1226 1.49831 14.9298 2.03936 15.529 2.77186C16.1448 3.50436 16.4527 4.40334 16.4527 5.46879C16.4527 6.5176 16.2946 7.30837 15.9784 7.8411C15.6622 8.37382 15.1961 8.64019 14.5803 8.64019C14.1475 8.64019 13.7814 8.50701 13.4818 8.24064C13.1988 7.97428 13.0573 7.65797 13.0573 7.29172C13.0573 6.97541 13.0823 6.68408 13.1322 6.41771C13.1822 5.91828 13.2071 5.60197 13.2071 5.46879C13.2071 4.76959 12.8659 4.23686 12.1835 3.87061C11.5011 3.50436 10.6523 3.32123 9.63696 3.32123C8.20557 3.32123 7.10705 3.5876 6.34142 4.12032C5.59243 4.6364 5.21794 5.36891 5.21794 6.31783C5.21794 6.95044 5.40935 7.49149 5.79217 7.94098C6.19163 8.39047 6.68263 8.76504 7.26517 9.0647C7.84772 9.36436 8.66328 9.72229 9.71187 10.1385C10.9768 10.6546 11.9921 11.1207 12.7577 11.5369C13.5234 11.9531 14.1725 12.5191 14.7051 13.235C15.2544 13.9508 15.529 14.8331 15.529 15.882C15.529 17.8464 14.78 19.3613 13.282 20.4268C11.8007 21.4756 9.81173 22 7.31511 22Z" fill="black"/>
<path d="M36.1388 14.2088C36.1887 14.1922 36.2719 14.1839 36.3884 14.1839C36.6381 14.1839 36.8295 14.2671 36.9626 14.4336C37.0958 14.6 37.1624 14.8248 37.1624 15.1078C37.1624 15.6239 37.0625 16.0318 36.8628 16.3314C36.663 16.6144 36.3634 16.8225 35.964 16.9557C35.1984 17.2054 34.3828 17.3303 33.5173 17.3303C32.785 17.3303 32.0942 17.2304 31.4451 17.0306C30.9624 17.8131 30.4298 18.6205 29.8473 19.4529C29.1815 20.4018 28.6073 21.051 28.1246 21.4007C27.6585 21.7503 27.1259 21.9251 26.5267 21.9251C25.861 21.9251 25.3533 21.667 25.0038 21.1509C24.6709 20.6349 24.4629 19.7858 24.3797 18.6038L24.2548 16.7809C23.7388 18.1793 23.2728 19.2448 22.8567 19.9773C22.4573 20.7098 22.0495 21.2175 21.6334 21.5005C21.2339 21.7836 20.7595 21.9251 20.2103 21.9251C19.5279 21.9251 18.9869 21.6587 18.5875 21.126C18.2047 20.5932 17.9633 19.7525 17.8635 18.6038C17.6637 16.2731 17.5639 14.2338 17.5639 12.4858V11.6118C17.5805 11.0624 17.7303 10.6795 18.0133 10.4631C18.2962 10.2467 18.7206 10.1385 19.2865 10.1385C19.7193 10.1385 20.0355 10.2383 20.2353 10.4381C20.4516 10.6212 20.5598 10.9375 20.5598 11.387C20.5598 13.3015 20.6763 15.7904 20.9093 18.8535C22.0412 16.4729 23.0814 13.9924 24.0301 11.412C24.2132 10.9126 24.4296 10.5796 24.6792 10.4131C24.9455 10.23 25.2618 10.1385 25.628 10.1385C26.0773 10.1385 26.3853 10.23 26.5517 10.4131C26.7348 10.5963 26.8263 10.9209 26.8263 11.387C26.8263 13.3015 26.9429 15.7904 27.1759 18.8535C28.1745 17.3719 28.9235 16.1899 29.4228 15.3076C29.1732 14.8248 29.0483 14.2504 29.0483 13.5845C29.0483 13.0185 29.1732 12.4691 29.4228 11.9364C29.6725 11.4037 30.0137 10.9708 30.4464 10.6379C30.8792 10.3049 31.3702 10.1385 31.9195 10.1385C32.4021 10.1385 32.7933 10.3133 33.0929 10.6629C33.3925 10.9958 33.5423 11.4869 33.5423 12.1362C33.5423 12.8853 33.3425 13.7427 32.9431 14.7083C33.5756 14.675 34.4161 14.5501 35.4647 14.3337L36.1388 14.2088Z" fill="black"/>
<path d="M46.1062 16.2316C46.3226 16.2316 46.489 16.3315 46.6055 16.5313C46.7387 16.731 46.8053 17.0057 46.8053 17.3553C46.8053 18.0212 46.6471 18.5373 46.3309 18.9036C45.7151 19.6527 44.8413 20.3436 43.7095 20.9762C42.5943 21.6088 41.3959 21.9251 40.1143 21.9251C38.3667 21.9251 37.0102 21.4507 36.0448 20.5018C35.0795 19.5528 34.5968 18.2543 34.5968 16.6062C34.5968 15.4575 34.8381 14.392 35.3208 13.4098C35.8035 12.411 36.4692 11.6202 37.3181 11.0375C38.1836 10.4549 39.1573 10.1635 40.2392 10.1635C41.2045 10.1635 41.9785 10.4549 42.561 11.0375C43.1436 11.6035 43.4348 12.3777 43.4348 13.3599C43.4348 14.5086 43.0187 15.4991 42.1865 16.3315C41.3709 17.1472 39.9812 17.7965 38.0171 18.2793C38.4333 19.0451 39.2239 19.428 40.389 19.428C41.1379 19.428 41.9868 19.1699 42.9355 18.6539C43.9009 18.1211 44.7331 17.4303 45.4321 16.5812C45.6319 16.3482 45.8566 16.2316 46.1062 16.2316ZM39.8147 12.6107C39.1989 12.6107 38.6746 12.9687 38.2419 13.6845C37.8257 14.4004 37.6177 15.266 37.6177 16.2816V16.3315C38.5997 16.0984 39.3737 15.7488 39.9396 15.2827C40.5055 14.8166 40.7884 14.2755 40.7884 13.6595C40.7884 13.3432 40.6969 13.0935 40.5138 12.9104C40.3473 12.7106 40.1143 12.6107 39.8147 12.6107Z" fill="black"/>
<path d="M55.9074 16.2316C56.1238 16.2316 56.2902 16.3315 56.4067 16.5313C56.5399 16.731 56.6065 17.0057 56.6065 17.3553C56.6065 18.0212 56.4484 18.5373 56.1321 18.9036C55.5163 19.6527 54.6425 20.3436 53.5107 20.9762C52.3955 21.6088 51.1971 21.9251 49.9155 21.9251C48.1679 21.9251 46.8114 21.4507 45.846 20.5018C44.8807 19.5528 44.398 18.2543 44.398 16.6062C44.398 15.4575 44.6393 14.392 45.122 13.4098C45.6047 12.411 46.2704 11.6202 47.1193 11.0375C47.9848 10.4549 48.9585 10.1635 50.0404 10.1635C51.0057 10.1635 51.7797 10.4549 52.3622 11.0375C52.9448 11.6035 53.236 12.3777 53.236 13.3599C53.236 14.5086 52.8199 15.4991 51.9877 16.3315C51.1721 17.1472 49.7824 17.7965 47.8184 18.2793C48.2345 19.0451 49.0251 19.428 50.1902 19.428C50.9391 19.428 51.788 19.1699 52.7367 18.6539C53.7021 18.1211 54.5343 17.4303 55.2333 16.5812C55.4331 16.3482 55.6578 16.2316 55.9074 16.2316ZM49.6159 12.6107C49.0001 12.6107 48.4758 12.9687 48.0431 13.6845C47.6269 14.4004 47.4189 15.266 47.4189 16.2816V16.3315C48.4009 16.0984 49.1749 15.7488 49.7408 15.2827C50.3067 14.8166 50.5896 14.2755 50.5896 13.6595C50.5896 13.3432 50.4981 13.0935 50.315 12.9104C50.1485 12.7106 49.9155 12.6107 49.6159 12.6107Z" fill="black"/>
<path d="M65.7084 16.2315C65.9247 16.2315 66.0912 16.3314 66.2077 16.5312C66.3408 16.731 66.4074 17.0057 66.4074 17.3553C66.4074 18.0212 66.2493 18.5373 65.9331 18.9035C65.2174 19.7858 64.4351 20.51 63.5862 21.076C62.7374 21.6421 61.7637 21.9251 60.6652 21.9251C57.2698 21.9251 55.5721 19.5361 55.5721 14.7582C55.5721 14.0257 55.597 13.2849 55.647 12.5357H54.6733C54.174 12.5357 53.8327 12.4442 53.6497 12.2611C53.4832 12.0779 53.4 11.7866 53.4 11.3871C53.4 10.4548 53.7745 9.98865 54.5235 9.98865H55.9466C56.2295 8.15739 56.6622 6.4843 57.2448 4.96935C57.8273 3.45441 58.5264 2.24745 59.342 1.34847C60.1742 0.449489 61.0646 0 62.0133 0C62.7124 0 63.2617 0.307982 63.6611 0.923949C64.0606 1.53992 64.2603 2.31404 64.2603 3.24631C64.2603 5.82671 63.1784 8.07415 61.0147 9.98865H63.8109C64.0772 9.98865 64.2686 10.0469 64.3852 10.1634C64.5017 10.28 64.5599 10.4964 64.5599 10.8127C64.5599 11.9614 63.6195 12.5357 61.7387 12.5357H58.6928C58.6596 13.3681 58.6429 14.0174 58.6429 14.4835C58.6429 16.2149 58.8426 17.4302 59.2421 18.1294C59.6582 18.8286 60.3073 19.1782 61.1895 19.1782C61.9052 19.1782 62.5376 18.9618 63.0869 18.5289C63.6362 18.0961 64.2853 17.4468 65.0343 16.5812C65.234 16.3481 65.4587 16.2315 65.7084 16.2315ZM61.3393 2.39727C61.0896 2.39727 60.8067 2.71358 60.4904 3.3462C60.1908 3.96216 59.8995 4.82784 59.6166 5.94324C59.3503 7.04199 59.1256 8.2656 58.9425 9.61407C59.9245 8.76504 60.6569 7.81611 61.1395 6.76731C61.6389 5.70185 61.8885 4.73628 61.8885 3.8706C61.8885 2.88838 61.7054 2.39727 61.3393 2.39727Z" fill="black"/>
</svg>
