<?xml version="1.0" standalone="no"?>
<!DOCTYPE svg PUBLIC "-//W3C//DTD SVG 20010904//EN"
 "http://www.w3.org/TR/2001/REC-SVG-20010904/DTD/svg10.dtd">
<svg version="1.0" xmlns="http://www.w3.org/2000/svg"
 width="700.000000pt" height="700.000000pt" viewBox="0 0 700.000000 700.000000"
 preserveAspectRatio="xMidYMid meet">
<metadata>
Created by potrace 1.14, written by Peter Selinger 2001-2017
</metadata>
<g transform="translate(0.000000,700.000000) scale(0.100000,-0.100000)"
fill="#000000" stroke="none">
<path d="M5288 4751 c-3 -14 -2 -2406 1 -2451 1 -14 30 -16 224 -16 l224 0 -1
1241 -1 1240 -222 1 c-193 0 -222 -2 -225 -15z"/>
<path d="M2099 4706 c-2 -2 -35 -7 -72 -11 -38 -3 -114 -20 -170 -36 -519
-153 -856 -609 -860 -1164 -2 -237 33 -398 128 -587 175 -349 490 -583 880
-652 81 -15 385 -15 450 -1 257 55 387 120 533 266 45 45 82 85 82 89 0 4 -30
35 -67 67 -185 164 -254 223 -261 223 -4 -1 -32 -23 -62 -51 -59 -55 -200
-128 -285 -149 -75 -19 -241 -20 -331 -4 -260 49 -479 262 -548 534 -78 306
-4 638 184 829 132 134 286 199 486 205 199 7 389 -62 515 -187 l35 -36 30 26
c16 13 49 41 73 61 238 197 232 191 216 215 -24 36 -156 160 -209 195 -86 58
-227 121 -306 136 -14 3 -50 10 -80 16 -54 11 -352 25 -361 16z"/>
<path d="M3870 4079 c-368 -44 -652 -323 -745 -729 -15 -67 -16 -327 -1 -380
4 -14 9 -36 12 -49 12 -57 48 -151 86 -221 155 -291 433 -463 748 -463 233 -1
402 79 505 236 20 31 38 57 39 57 1 0 2 -54 1 -120 -1 -114 0 -121 20 -125 11
-3 112 -4 225 -2 l205 2 1 883 0 882 -226 0 -226 0 1 -130 c1 -71 0 -130 -1
-130 -1 0 -13 17 -25 38 -70 114 -193 201 -334 237 -69 17 -204 24 -285 14z
m305 -430 c295 -79 439 -430 299 -726 -93 -196 -324 -307 -534 -257 -19 4 -37
8 -40 9 -18 2 -81 33 -115 56 -143 97 -216 243 -216 434 -1 298 218 515 501
498 36 -2 83 -9 105 -14z"/>
</g>
</svg>
