<svg xmlns="http://www.w3.org/2000/svg" viewBox="0 0 24 24" borderRadius="4px" fill="white" class="jsx-2238566114 icon"><path d="M7.05673 11.7832H6.6259V10.6179H7.06326C7.4941 10.6179 7.7291 10.7737 7.7291 11.1667V11.1938C7.7291 11.5867 7.50715 11.7832 7.05673 11.7832Z" class="jsx-2238566114"></path><path fill-rule="evenodd" clip-rule="evenodd" d="M3 10C3 7.79086 4.79086 6 7 6H17C19.2091 6 21 7.79086 21 10V14C21 16.2091 19.2091 18 17 18H7C4.79086 18 3 16.2091 3 14V10ZM5.29422 14.4187V9.57453H7.12201C8.34271 9.57453 9.02161 10.0894 9.02161 11.1125V11.1396C9.02161 11.8306 8.6691 12.2168 8.17952 12.4133L9.29577 14.4187H7.88576L6.93923 12.6843H6.6259V14.4187H5.29422ZM10.3881 14.4187V9.57453H13.6128V10.645H11.7198V11.4783H13.2277V12.4675H11.7198V13.3482H13.7173V14.4187H10.3881ZM16.9974 14.5C18.205 14.5 19.0798 13.8496 19.1711 12.5962H17.8395C17.7742 13.1314 17.4413 13.3889 16.9713 13.3889C16.3315 13.3889 15.9725 12.8943 15.9725 12.0203V11.9661C15.9725 11.0854 16.3511 10.5976 16.9517 10.5976C17.4217 10.5976 17.6828 10.8686 17.735 11.3631H19.1124C19.0014 10.0827 18.1593 9.5 16.9452 9.5C15.5808 9.5 14.5625 10.4824 14.5625 11.9729C14.5625 13.4681 15.464 14.5 16.9974 14.5Z" class="jsx-2238566114"></path></svg>
