<svg xmlns="http://www.w3.org/2000/svg" width="208" height="120" fill="none">
  <g clip-path="url(#a)">
    <path fill="url(#b)" d="M0 0h208v120H0z"/>
    <path d="M18 27.6c0-3.36 0-5.04.65-6.32a6 6 0 0 1 2.63-2.63C22.56 18 24.24 18 27.6 18H208v102H18V27.6Z" fill="#F3F4F6"/>
    <path d="M55 75a3 3 0 0 1 3-3h131a3 3 0 0 1 3 3v14H55V75ZM55 90h137v17H55V90ZM55 108h137v17H55v-17Z" fill="#fff"/>
    <circle cx="123.74" cy="46.58" r="6" fill="#D1D5DB"/>
    <rect x="112.17" y="56.25" width="23.15" height="2" rx="1" fill="#D1D5DB"/>
    <rect x="100.17" y="60.25" width="47.15" height="2" rx="1" fill="#E5E7EB"/>
    <rect x="59.24" y="77.58" width="24" height="2" rx="1" fill="#D1D5DB"/>
    <rect x="59.24" y="95.58" width="24" height="2" rx="1" fill="#D1D5DB"/>
    <rect x="59.24" y="113.58" width="24" height="2" rx="1" fill="#D1D5DB"/>
    <rect x="59.24" y="81.88" width="58" height="2" rx="1" fill="#E5E7EB"/>
    <rect x="59.24" y="99.88" width="58" height="2" rx="1" fill="#E5E7EB"/>
    <rect x="59.24" y="117.88" width="58" height="2" rx="1" fill="#E5E7EB"/>
  </g>
  <defs>
    <radialGradient id="b" cx="0" cy="0" r="1" gradientUnits="userSpaceOnUse" gradientTransform="matrix(-339.61518 178.07518 -289.08762 -551.332 385.55 -55)">
      <stop stop-color="#A2ABBE"/>
      <stop offset="1" stop-color="#D4D4D5"/>
    </radialGradient>
    <clipPath id="a">
      <path fill="#fff" d="M0 0h208v120H0z"/>
    </clipPath>
  </defs>
  <defs>
    <radialGradient id="c" r="1"/>
    <filter id="d" x="-20%" y="-20%" width="140%" height="140%" filterUnits="objectBoundingBox" primitiveUnits="userSpaceOnUse" color-interpolation-filters="sRGB">
      <feTurbulence type="fractalNoise" baseFrequency=".8" numOctaves="2" seed="2" stitchTiles="stitch" x="0%" y="0%" width="100%" height="100%" result="turbulence"/>
      <feComponentTransfer x="0%" y="0%" width="100%" height="100%" in="colormatrix" result="componentTransfer">
        <feFuncR type="linear" slope="3"/>
        <feFuncG type="linear" slope="3"/>
        <feFuncB type="linear" slope="3"/>
      </feComponentTransfer>
      <feColorMatrix x="0%" y="0%" width="100%" height="100%" in="componentTransfer" result="colormatrix2" values="1 0 0 0 0 0 1 0 0 0 0 0 1 0 0 0 0 0 15 -7"/>
    </filter>
  </defs>
  <rect width="100%" height="100%" fill="url(#c)"/>
  <rect width="100%" height="100%" fill="transparent" filter="url(#d)" opacity=".3" style="mix-blend-mode:normal"/>
</svg>