<svg xmlns="http://www.w3.org/2000/svg" width="232" height="131" fill="none"><g clip-path="url(#a)"><mask id="b" width="232" height="131" x="0" y="0" maskUnits="userSpaceOnUse" style="mask-type:luminance"><path fill="#fff" d="M232 0H0v131h232z"/></mask><g mask="url(#b)"><path fill="#fcfcfc" d="M0 0h232v131H0z"/><mask id="c" width="116" height="203" x="0" y="0" maskUnits="userSpaceOnUse" style="mask-type:luminance"><path fill="#fff" d="M116 0H0v203h116z"/></mask><g mask="url(#c)"><mask id="d" width="264" height="171" x="16" y="16" maskUnits="userSpaceOnUse" style="mask-type:luminance"><path fill="#fff" d="M272 16H24a8 8 0 0 0-8 8v155a8 8 0 0 0 8 8h248a8 8 0 0 0 8-8V24a8 8 0 0 0-8-8"/></mask><g mask="url(#d)"><path fill="#fff" d="M272 16H24a8 8 0 0 0-8 8v155a8 8 0 0 0 8 8h248a8 8 0 0 0 8-8V24a8 8 0 0 0-8-8"/><path fill="#f7f7f7" d="M24 18.25h75a5.75 5.75 0 0 1 5.75 5.75v23A5.75 5.75 0 0 1 99 52.75H24A5.75 5.75 0 0 1 18.25 47V24l.008-.296A5.75 5.75 0 0 1 24 18.25"/><path stroke="#e8e8e8" stroke-width=".5" d="M24 18.25h75a5.75 5.75 0 0 1 5.75 5.75v23A5.75 5.75 0 0 1 99 52.75H24A5.75 5.75 0 0 1 18.25 47V24l.008-.296A5.75 5.75 0 0 1 24 18.25Z"/><path fill="#fff" d="M33 46.25h-6A2.75 2.75 0 0 0 24.25 49v6A2.75 2.75 0 0 0 27 57.75h6A2.75 2.75 0 0 0 35.75 55v-6A2.75 2.75 0 0 0 33 46.25"/><path stroke="#e8e8e8" stroke-width=".5" d="M33 46.25h-6A2.75 2.75 0 0 0 24.25 49v6A2.75 2.75 0 0 0 27 57.75h6A2.75 2.75 0 0 0 35.75 55v-6A2.75 2.75 0 0 0 33 46.25Z"/><path fill="#212121" d="M32.454 48.845a4.004 4.004 0 0 1-4.908 0q-.195.15-.374.327a4 4 0 0 0-.327.374 4.004 4.004 0 0 1 0 4.908q.15.196.327.374c.119.12.245.226.374.327a4.004 4.004 0 0 1 4.908 0q.195-.15.374-.327c.12-.119.226-.245.327-.374a4.004 4.004 0 0 1 0-4.908q-.15-.195-.327-.374a4 4 0 0 0-.374-.327"/><path fill="#fff" d="M40 45.75a6.25 6.25 0 1 1 0 12.5 6.25 6.25 0 0 1 0-12.5"/><path stroke="#d3d3d3" stroke-width=".5" d="M40 45.75a6.25 6.25 0 1 1 0 12.5 6.25 6.25 0 0 1 0-12.5Z"/><path stroke="#212121" stroke-linecap="round" stroke-linejoin="round" d="M37.008 57a3.112 3.112 0 0 1 5.983 0m-2.992-4.197a1.556 1.556 0 1 0 0-3.112 1.556 1.556 0 0 0 0 3.111"/><path fill="#838383" d="M61.5 70h-36a1.5 1.5 0 0 0 0 3h36a1.5 1.5 0 0 0 0-3"/><path fill="#b2b2b2" d="M37.5 79h-12a1.5 1.5 0 0 0 0 3h12a1.5 1.5 0 0 0 0-3M52.5 88h-27a1.5 1.5 0 0 0 0 3h27a1.5 1.5 0 0 0 0-3"/><path fill="#fff" d="M108 16h172v163H108z"/></g><path stroke="#e0e0e0" d="M272 15.5H24a8.5 8.5 0 0 0-8.5 8.5v155a8.5 8.5 0 0 0 8.5 8.5h248a8.5 8.5 0 0 0 8.5-8.5V24a8.5 8.5 0 0 0-8.5-8.5Z"/></g><path fill="#222225" d="M232 0H116v163h116z"/><mask id="e" width="224" height="131" x="132" y="16" maskUnits="userSpaceOnUse" style="mask-type:luminance"><path fill="#fff" d="M132 24a8 8 0 0 1 8-8h208a8 8 0 0 1 8 8v115a8 8 0 0 1-8 8H140a8 8 0 0 1-8-8z"/></mask><g mask="url(#e)"><path fill="#2a2a2d" d="M132 24a8 8 0 0 1 8-8h208a8 8 0 0 1 8 8v115a8 8 0 0 1-8 8H140a8 8 0 0 1-8-8z"/><path fill="#404045" d="M134 24a6 6 0 0 1 6-6h75a6 6 0 0 1 6 6v23a6 6 0 0 1-6 6h-75a6 6 0 0 1-6-6z"/><path stroke="#fff" stroke-opacity=".14" stroke-width=".5" d="M140 18.25h75a5.75 5.75 0 0 1 5.75 5.75v23a5.75 5.75 0 0 1-5.75 5.75h-75a5.75 5.75 0 0 1-5.75-5.75V24l.008-.296A5.75 5.75 0 0 1 140 18.25Z"/><path fill="#fff" d="M149 46.25h-6a2.75 2.75 0 0 0-2.75 2.75v6a2.75 2.75 0 0 0 2.75 2.75h6a2.75 2.75 0 0 0 2.75-2.75v-6a2.75 2.75 0 0 0-2.75-2.75"/><path stroke="#e8e8e8" stroke-width=".5" d="M149 46.25h-6a2.75 2.75 0 0 0-2.75 2.75v6a2.75 2.75 0 0 0 2.75 2.75h6a2.75 2.75 0 0 0 2.75-2.75v-6a2.75 2.75 0 0 0-2.75-2.75Z"/><path fill="#212121" d="M148.454 48.845a4.004 4.004 0 0 1-4.908 0q-.195.15-.374.327a4 4 0 0 0-.327.374 4 4 0 0 1 0 4.908q.15.196.327.374c.118.12.245.226.374.327a4.004 4.004 0 0 1 4.908 0q.195-.15.374-.327.177-.18.327-.374a4.004 4.004 0 0 1 0-4.908 4 4 0 0 0-.327-.374 4 4 0 0 0-.374-.327"/><path fill="#222225" d="M156 45.75a6.25 6.25 0 1 1 0 12.5 6.25 6.25 0 0 1 0-12.5"/><path stroke="#d3d3d3" stroke-width=".5" d="M156 45.75a6.25 6.25 0 1 1 0 12.5 6.25 6.25 0 0 1 0-12.5Z"/><path stroke="#fff" stroke-linecap="round" stroke-linejoin="round" d="M153.009 57a3.111 3.111 0 0 1 5.982 0M156 52.803a1.555 1.555 0 1 0 0-3.11 1.555 1.555 0 0 0 0 3.11"/><path fill="#7e7e7e" d="M177.5 70h-36a1.5 1.5 0 0 0 0 3h36a1.5 1.5 0 0 0 0-3"/><path fill="#b2b2b2" d="M153.5 79h-12a1.5 1.5 0 0 0 0 3h12a1.5 1.5 0 0 0 0-3M168.5 88h-27a1.5 1.5 0 0 0 0 3h27a1.5 1.5 0 0 0 0-3"/><path stroke="#fff" stroke-opacity=".14" d="M223 16v163"/></g><path stroke="#fff" stroke-opacity=".14" d="M348 15.5a8.5 8.5 0 0 1 8.5 8.5v115a8.5 8.5 0 0 1-8.5 8.5H140a8.5 8.5 0 0 1-8.5-8.5V24a8.5 8.5 0 0 1 8.5-8.5z"/><path stroke="#e0e0e0" d="M109.5 16v134"/></g></g><defs><clipPath id="a"><path fill="#fff" d="M0 0h232v131H0z"/></clipPath></defs></svg>