<svg xmlns="http://www.w3.org/2000/svg" width="232" height="132" fill="none"><g clip-path="url(#a)"><mask id="b" width="232" height="132" x="0" y="0" maskUnits="userSpaceOnUse" style="mask-type:luminance"><path fill="#fff" d="M232 0H0v132h232z"/></mask><g mask="url(#b)"><path fill="#f7f7f7" d="M0 0h232v132H0z"/><mask id="c" width="264" height="171" x="16" y="16" maskUnits="userSpaceOnUse" style="mask-type:luminance"><path fill="#fff" d="M272 16H24a8 8 0 0 0-8 8v155a8 8 0 0 0 8 8h248a8 8 0 0 0 8-8V24a8 8 0 0 0-8-8"/></mask><g mask="url(#c)"><path fill="#fff" d="M272 16H24a8 8 0 0 0-8 8v155a8 8 0 0 0 8 8h248a8 8 0 0 0 8-8V24a8 8 0 0 0-8-8"/><path fill="#f7f7f7" d="M24 18.25h75a5.75 5.75 0 0 1 5.75 5.75v23A5.75 5.75 0 0 1 99 52.75H24A5.75 5.75 0 0 1 18.25 47V24l.008-.296A5.75 5.75 0 0 1 24 18.25"/><path stroke="#e8e8e8" stroke-width=".5" d="M24 18.25h75a5.75 5.75 0 0 1 5.75 5.75v23A5.75 5.75 0 0 1 99 52.75H24A5.75 5.75 0 0 1 18.25 47V24l.008-.296A5.75 5.75 0 0 1 24 18.25Z"/><path fill="#fff" d="M33 46.25h-6A2.75 2.75 0 0 0 24.25 49v6A2.75 2.75 0 0 0 27 57.75h6A2.75 2.75 0 0 0 35.75 55v-6A2.75 2.75 0 0 0 33 46.25"/><path stroke="#e8e8e8" stroke-width=".5" d="M33 46.25h-6A2.75 2.75 0 0 0 24.25 49v6A2.75 2.75 0 0 0 27 57.75h6A2.75 2.75 0 0 0 35.75 55v-6A2.75 2.75 0 0 0 33 46.25Z"/><path fill="#212121" d="M32.454 48.845a4.004 4.004 0 0 1-4.908 0q-.195.15-.374.327a4 4 0 0 0-.327.374 4.004 4.004 0 0 1 0 4.908q.15.196.327.374c.119.12.245.226.374.327a4.004 4.004 0 0 1 4.908 0q.195-.15.374-.327c.12-.119.226-.245.327-.374a4.004 4.004 0 0 1 0-4.908q-.15-.195-.327-.374a4 4 0 0 0-.374-.327"/><path fill="#fff" d="M40 45.75a6.25 6.25 0 1 1 0 12.5 6.25 6.25 0 0 1 0-12.5"/><path stroke="#d3d3d3" stroke-width=".5" d="M40 45.75a6.25 6.25 0 1 1 0 12.5 6.25 6.25 0 0 1 0-12.5Z"/><path stroke="#212121" stroke-linecap="round" stroke-linejoin="round" d="M37.008 57a3.112 3.112 0 0 1 5.983 0m-2.992-4.197a1.556 1.556 0 1 0 0-3.112 1.556 1.556 0 0 0 0 3.111"/><path fill="#c9c9c9" d="M61.5 70h-36a1.5 1.5 0 0 0 0 3h36a1.5 1.5 0 0 0 0-3"/><path fill="#dedede" d="M37.5 79h-12a1.5 1.5 0 0 0 0 3h12a1.5 1.5 0 0 0 0-3M52.5 88h-27a1.5 1.5 0 0 0 0 3h27a1.5 1.5 0 0 0 0-3"/><path fill="#fff" d="M108 16h172v163H108z"/><mask id="d" width="172" height="163" x="108" y="16" maskUnits="userSpaceOnUse" style="mask-type:luminance"><path fill="#fff" d="M108 16h172v163H108z"/></mask><g mask="url(#d)"><path stroke="#e0e0e0" d="M108 179h1V16h-2v163z"/><path fill="#dedede" d="M128.5 30h-7a1.5 1.5 0 0 0 0 3h7a1.5 1.5 0 0 0 0-3M151.5 30h-7a1.5 1.5 0 0 0 0 3h7a1.5 1.5 0 0 0 0-3M174.5 30h-7a1.5 1.5 0 0 0 0 3h7a1.5 1.5 0 0 0 0-3M197.5 30h-7a1.5 1.5 0 0 0 0 3h7a1.5 1.5 0 0 0 0-3M220.5 30h-7a1.5 1.5 0 0 0 0 3h7a1.5 1.5 0 0 0 0-3"/><path fill="#f0f0f0" stroke="#e0e0e0" stroke-width=".5" d="M187 51a4 4 0 0 1 4-4h9a4 4 0 0 1 4 4v9a4 4 0 0 1-4 4h-9a4 4 0 0 1-4-4z"/><path fill="#d3d3d3" d="M196 54h-1a1.5 1.5 0 0 0 0 3h1a1.5 1.5 0 0 0 0-3"/><path fill="#f0f0f0" stroke="#e0e0e0" stroke-width=".5" d="M210 51a4 4 0 0 1 4-4h9a4 4 0 0 1 4 4v9a4 4 0 0 1-4 4h-9a4 4 0 0 1-4-4z"/><path fill="#d3d3d3" d="M219 54h-1a1.5 1.5 0 0 0 0 3h1a1.5 1.5 0 0 0 0-3"/><path fill="#f0f0f0" stroke="#e0e0e0" stroke-width=".5" d="M118 74a4 4 0 0 1 4-4h9a4 4 0 0 1 4 4v9a4 4 0 0 1-4 4h-9a4 4 0 0 1-4-4z"/><path fill="#d3d3d3" d="M127 77h-1a1.5 1.5 0 0 0 0 3h1a1.5 1.5 0 0 0 0-3"/><path fill="#e8e8e8" d="M147.5 78.5A1.5 1.5 0 0 1 149 77h1a1.5 1.5 0 0 1 0 3h-1a1.5 1.5 0 0 1-1.5-1.5"/><path fill="#f0f0f0" stroke="#e0e0e0" stroke-width=".5" d="M164 74a4 4 0 0 1 4-4h9a4 4 0 0 1 4 4v9a4 4 0 0 1-4 4h-9a4 4 0 0 1-4-4z"/><path fill="#d3d3d3" d="M173 77h-1a1.5 1.5 0 0 0 0 3h1a1.5 1.5 0 0 0 0-3"/><path fill="#e8e8e8" d="M193.5 78.5A1.5 1.5 0 0 1 195 77h1a1.5 1.5 0 0 1 0 3h-1a1.5 1.5 0 0 1-1.5-1.5"/><path fill="#f0f0f0" stroke="#e0e0e0" stroke-width=".5" d="M210 74a4 4 0 0 1 4-4h9a4 4 0 0 1 4 4v9a4 4 0 0 1-4 4h-9a4 4 0 0 1-4-4z"/><path fill="#d3d3d3" d="M219 77h-1a1.5 1.5 0 0 0 0 3h1a1.5 1.5 0 0 0 0-3"/><path fill="#f0f0f0" stroke="#e0e0e0" stroke-width=".5" d="M118 97a4 4 0 0 1 4-4h9a4 4 0 0 1 4 4v9a4 4 0 0 1-4 4h-9a4 4 0 0 1-4-4z"/><path fill="#d3d3d3" d="M127 100h-1a1.5 1.5 0 0 0 0 3h1a1.5 1.5 0 0 0 0-3"/><path fill="#f0f0f0" stroke="#e0e0e0" stroke-width=".5" d="M141 97a4 4 0 0 1 4-4h9a4 4 0 0 1 4 4v9a4 4 0 0 1-4 4h-9a4 4 0 0 1-4-4z"/><path fill="#d3d3d3" d="M150 100h-1a1.5 1.5 0 0 0 0 3h1a1.5 1.5 0 0 0 0-3M173 100h-1a1.5 1.5 0 0 0 0 3h1a1.5 1.5 0 0 0 0-3"/><path fill="#27272a" d="M200 93h-9a4 4 0 0 0-4 4v9a4 4 0 0 0 4 4h9a4 4 0 0 0 4-4v-9a4 4 0 0 0-4-4"/><path fill="#fff" d="M196 100h-1a1.5 1.5 0 0 0 0 3h1a1.5 1.5 0 0 0 0-3"/><path fill="#f0f0f0" stroke="#e0e0e0" stroke-width=".5" d="M210 97a4 4 0 0 1 4-4h9a4 4 0 0 1 4 4v9a4 4 0 0 1-4 4h-9a4 4 0 0 1-4-4z"/><path fill="#d3d3d3" d="M219 100h-1a1.5 1.5 0 0 0 0 3h1a1.5 1.5 0 0 0 0-3M127 123h-1a1.5 1.5 0 0 0 0 3h1a1.5 1.5 0 0 0 0-3"/><path fill="#f0f0f0" stroke="#e0e0e0" stroke-width=".5" d="M141 120a4 4 0 0 1 4-4h9a4 4 0 0 1 4 4v9a4 4 0 0 1-4 4h-9a4 4 0 0 1-4-4z"/><path fill="#d3d3d3" d="M150 123h-1a1.5 1.5 0 0 0 0 3h1a1.5 1.5 0 0 0 0-3"/><path fill="#f0f0f0" stroke="#e0e0e0" stroke-width=".5" d="M164 120a4 4 0 0 1 4-4h9a4 4 0 0 1 4 4v9a4 4 0 0 1-4 4h-9a4 4 0 0 1-4-4z"/><path fill="#d3d3d3" d="M173 123h-1a1.5 1.5 0 0 0 0 3h1a1.5 1.5 0 0 0 0-3"/><path fill="#f0f0f0" stroke="#e0e0e0" stroke-width=".5" d="M187 120a4 4 0 0 1 4-4h9a4 4 0 0 1 4 4v9a4 4 0 0 1-4 4h-9a4 4 0 0 1-4-4z"/><path fill="#d3d3d3" d="M196 123h-1a1.5 1.5 0 0 0 0 3h1a1.5 1.5 0 0 0 0-3"/><path fill="#f0f0f0" stroke="#e0e0e0" stroke-width=".5" d="M210 120a4 4 0 0 1 4-4h9a4 4 0 0 1 4 4v9a4 4 0 0 1-4 4h-9a4 4 0 0 1-4-4z"/><path fill="#d3d3d3" d="M219 123h-1a1.5 1.5 0 0 0 0 3h1a1.5 1.5 0 0 0 0-3"/></g></g><path stroke="#e0e0e0" d="M272 15.5H24a8.5 8.5 0 0 0-8.5 8.5v155a8.5 8.5 0 0 0 8.5 8.5h248a8.5 8.5 0 0 0 8.5-8.5V24a8.5 8.5 0 0 0-8.5-8.5Z"/></g></g><defs><clipPath id="a"><path fill="#fff" d="M0 0h232v132H0z"/></clipPath></defs></svg>