<svg xmlns="http://www.w3.org/2000/svg" width="208" height="120" fill="none">
  <g clip-path="url(#a)">
    <rect width="208" height="120" rx="6" fill="url(#b)"/>
    <path d="m18 28 1-7a6 6 0 0 1 2-2l7-1h180v92l-1 7a6 6 0 0 1-2 2l-7 1H18V28Z" fill="#F3F4F6"/>
    <path d="M55 75a3 3 0 0 1 3-3h131a3 3 0 0 1 3 3v14H55V75Zm0 15h137v17H55V90Zm0 18h137v17H55v-17Z" fill="#fff"/>
    <circle cx="123.7" cy="46.6" r="6" fill="#D1D5DB"/>
    <rect x="112.2" y="56.3" width="23.2" height="2" rx="1" fill="#D1D5DB"/>
    <rect x="100.2" y="60.3" width="47.2" height="2" rx="1" fill="#E5E7EB"/>
    <rect x="59.2" y="77.6" width="24" height="2" rx="1" fill="#D1D5DB"/>
    <rect x="59.2" y="95.6" width="24" height="2" rx="1" fill="#D1D5DB"/>
    <rect x="59.2" y="113.6" width="24" height="2" rx="1" fill="#D1D5DB"/>
    <rect x="59.2" y="81.9" width="58" height="2" rx="1" fill="#E5E7EB"/>
    <rect x="59.2" y="99.9" width="58" height="2" rx="1" fill="#E5E7EB"/>
    <rect x="59.2" y="117.9" width="58" height="2" rx="1" fill="#E5E7EB"/>
  </g>
  <defs>
    <radialGradient id="b" cx="0" cy="0" r="1" gradientUnits="userSpaceOnUse" gradientTransform="matrix(-339.61518 178.07518 -289.08762 -551.332 386 -55)">
      <stop stop-color="#A2ABBE"/>
      <stop offset="1" stop-color="#D4D4D5"/>
    </radialGradient>
    <clipPath id="a">
      <rect width="208" height="120" rx="6" fill="#fff"/>
    </clipPath>
  </defs>
  <defs>
    <radialGradient id="c" r="1"/>
    <filter id="d" x="-20%" y="-20%" width="140%" height="140%" filterUnits="objectBoundingBox" primitiveUnits="userSpaceOnUse" color-interpolation-filters="sRGB">
      <feTurbulence type="fractalNoise" baseFrequency=".8" numOctaves="2" seed="2" stitchTiles="stitch" x="0%" y="0%" width="100%" height="100%" result="turbulence"/>
      <feComponentTransfer x="0%" y="0%" width="100%" height="100%" in="colormatrix" result="componentTransfer">
        <feFuncR type="linear" slope="3"/>
        <feFuncG type="linear" slope="3"/>
        <feFuncB type="linear" slope="3"/>
      </feComponentTransfer>
      <feColorMatrix x="0%" y="0%" width="100%" height="100%" in="componentTransfer" result="colormatrix2" values="1 0 0 0 0 0 1 0 0 0 0 0 1 0 0 0 0 0 15 -7"/>
    </filter>
  </defs>
  <rect width="100%" height="100%" fill="url(#c)"/>
  <rect width="100%" height="100%" fill="transparent" filter="url(#d)" opacity=".3" style="mix-blend-mode:normal"/>
</svg>