<svg xmlns="http://www.w3.org/2000/svg" width="208" height="120" fill="none">
  <g clip-path="url(#a)">
    <g clip-path="url(#b)">
      <path d="M0 0h104v120H0V0Z" fill="url(#c)"/>
      <path d="m18 28 1-7 2-2 7-1h76v102H18V28Z" fill="#F3F4F6"/>
      <path d="M39 75c0-2 1-3 3-3h62v17H39V75Zm0 15h65v17H39V90Zm0 18h65v17H39v-17Z" fill="#fff"/>
      <circle cx="107.7" cy="46.6" r="6" fill="#D1D5DB"/>
      <rect x="96.2" y="56.3" width="23.2" height="2" rx="1" fill="#D1D5DB"/>
      <rect x="84.2" y="60.3" width="47.2" height="2" rx="1" fill="#E5E7EB"/>
      <rect x="43.2" y="77.6" width="24" height="2" rx="1" fill="#D1D5DB"/>
      <rect x="43.2" y="95.6" width="24" height="2" rx="1" fill="#D1D5DB"/>
      <rect x="43.2" y="113.6" width="24" height="2" rx="1" fill="#D1D5DB"/>
      <rect x="43.2" y="81.9" width="58" height="2" rx="1" fill="#E5E7EB"/>
      <rect x="43.2" y="99.9" width="58" height="2" rx="1" fill="#E5E7EB"/>
      <rect x="43.2" y="117.9" width="58" height="2" rx="1" fill="#E5E7EB"/>
    </g>
    <path d="M104 0h104v120H104V0Z" fill="url(#d)"/>
    <path d="m122 28 1-7 2-2 7-1h76v102h-86V28Z" fill="#101010"/>
    <path d="M143 75c0-2 1-3 3-3h62v17h-65V75Zm0 15h65v17h-65V90Zm0 18h65v17h-65v-17Z" fill="#1C1C1C"/>
    <circle cx="211.7" cy="46.6" r="6" fill="#2B2B2B"/>
    <rect x="200.2" y="56.3" width="23.2" height="2" rx="1" fill="#444"/>
    <rect x="188.2" y="60.3" width="47.2" height="2" rx="1" fill="#2B2B2B"/>
    <rect x="147.2" y="77.6" width="24" height="2" rx="1" fill="#444"/>
    <rect x="147.2" y="95.6" width="24" height="2" rx="1" fill="#444"/>
    <rect x="147.2" y="113.6" width="24" height="2" rx="1" fill="#444"/>
    <rect x="147.2" y="81.9" width="58" height="2" rx="1" fill="#2B2B2B"/>
    <rect x="147.2" y="99.9" width="58" height="2" rx="1" fill="#2B2B2B"/>
    <rect x="147.2" y="117.9" width="58" height="2" rx="1" fill="#2B2B2B"/>
  </g>
  <defs>
    <radialGradient id="c" cx="0" cy="0" r="1" gradientUnits="userSpaceOnUse" gradientTransform="matrix(-169.80904 178.07418 -351.05785 -334.76382 193 -55)">
      <stop stop-color="#A2ABBE"/>
      <stop offset="1" stop-color="#D4D4D5"/>
    </radialGradient>
    <radialGradient id="d" cx="0" cy="0" r="1" gradientUnits="userSpaceOnUse" gradientTransform="rotate(126 104 53) scale(326.659 590.989)">
      <stop stop-color="#282E39"/>
      <stop offset="1" stop-color="#D4D4D5"/>
    </radialGradient>
    <clipPath id="a">
      <rect width="208" height="120" rx="6" fill="#fff"/>
    </clipPath>
    <clipPath id="b">
      <path d="M0 0h104v120H0V0Z" fill="#fff"/>
    </clipPath>
  </defs>
  <defs>
    <radialGradient id="e" r=".1"/>
    <filter id="f" x="-20%" y="-20%" width="140%" height="140%" filterUnits="objectBoundingBox" primitiveUnits="userSpaceOnUse" color-interpolation-filters="sRGB">
      <feTurbulence type="fractalNoise" baseFrequency=".7" numOctaves="2" seed="2" stitchTiles="stitch" x="0%" y="0%" width="100%" height="100%" result="turbulence"/>
      <feColorMatrix type="saturate" values="0" x="0%" y="0%" width="100%" height="100%" in="turbulence" result="colormatrix"/>
      <feComponentTransfer x="0%" y="0%" width="100%" height="100%" in="colormatrix" result="componentTransfer">
        <feFuncR type="linear" slope="3"/>
        <feFuncG type="linear" slope="3"/>
        <feFuncB type="linear" slope="3"/>
      </feComponentTransfer>
      <feColorMatrix x="0%" y="0%" width="100%" height="100%" in="componentTransfer" result="colormatrix2" values="1 0 0 0 0 0 1 0 0 0 0 0 1 0 0 0 0 0 15 -7"/>
    </filter>
  </defs>
  <rect width="100%" height="100%" fill="url(#e)"/>
  <rect width="100%" height="100%" fill="transparent" filter="url(#f)" opacity=".1" style="mix-blend-mode:normal"/>
</svg>