<svg xmlns="http://www.w3.org/2000/svg" width="232" height="132" fill="none"><g clip-path="url(#a)"><mask id="b" width="232" height="132" x="0" y="0" maskUnits="userSpaceOnUse" style="mask-type:luminance"><path fill="#fff" d="M232 0H0v132h232z"/></mask><g mask="url(#b)"><path fill="#222225" d="M0 0h232v132H0z"/><mask id="c" width="224" height="131" x="16" y="16" maskUnits="userSpaceOnUse" style="mask-type:luminance"><path fill="#fff" d="M16 24a8 8 0 0 1 8-8h208a8 8 0 0 1 8 8v115a8 8 0 0 1-8 8H24a8 8 0 0 1-8-8z"/></mask><g mask="url(#c)"><path fill="#2a2a2d" d="M16 24a8 8 0 0 1 8-8h208a8 8 0 0 1 8 8v115a8 8 0 0 1-8 8H24a8 8 0 0 1-8-8z"/><path fill="#404045" d="M18 24a6 6 0 0 1 6-6h75a6 6 0 0 1 6 6v23a6 6 0 0 1-6 6H24a6 6 0 0 1-6-6z"/><path stroke="#fff" stroke-opacity=".14" stroke-width=".5" d="M24 18.25h75a5.75 5.75 0 0 1 5.75 5.75v23A5.75 5.75 0 0 1 99 52.75H24A5.75 5.75 0 0 1 18.25 47V24l.008-.296A5.75 5.75 0 0 1 24 18.25Z"/><path fill="#fff" d="M33 46.25h-6A2.75 2.75 0 0 0 24.25 49v6A2.75 2.75 0 0 0 27 57.75h6A2.75 2.75 0 0 0 35.75 55v-6A2.75 2.75 0 0 0 33 46.25"/><path stroke="#e8e8e8" stroke-width=".5" d="M33 46.25h-6A2.75 2.75 0 0 0 24.25 49v6A2.75 2.75 0 0 0 27 57.75h6A2.75 2.75 0 0 0 35.75 55v-6A2.75 2.75 0 0 0 33 46.25Z"/><path fill="#212121" d="M32.454 48.845a4.004 4.004 0 0 1-4.908 0q-.195.15-.374.327a4 4 0 0 0-.327.374 4.004 4.004 0 0 1 0 4.908q.15.196.327.374c.119.12.245.226.374.327a4.004 4.004 0 0 1 4.908 0q.195-.15.374-.327c.12-.119.226-.245.327-.374a4.004 4.004 0 0 1 0-4.908q-.15-.195-.327-.374a4 4 0 0 0-.374-.327"/><path fill="#222225" d="M40 45.75a6.25 6.25 0 1 1 0 12.5 6.25 6.25 0 0 1 0-12.5"/><path stroke="#d3d3d3" stroke-width=".5" d="M40 45.75a6.25 6.25 0 1 1 0 12.5 6.25 6.25 0 0 1 0-12.5Z"/><path stroke="#fff" stroke-linecap="round" stroke-linejoin="round" d="M37.008 57a3.112 3.112 0 0 1 5.983 0m-2.992-4.197a1.556 1.556 0 1 0 0-3.112 1.556 1.556 0 0 0 0 3.111"/><path fill="#7e7e7e" d="M61.5 70h-36a1.5 1.5 0 0 0 0 3h36a1.5 1.5 0 0 0 0-3"/><path fill="#b2b2b2" d="M37.5 79h-12a1.5 1.5 0 0 0 0 3h12a1.5 1.5 0 0 0 0-3M52.5 88h-27a1.5 1.5 0 0 0 0 3h27a1.5 1.5 0 0 0 0-3"/><path stroke="#fff" stroke-opacity=".14" d="M107 16v163"/><path fill="#b2b2b2" d="M129 30h-7a1.5 1.5 0 0 0 0 3h7a1.5 1.5 0 0 0 0-3M152 30h-7a1.5 1.5 0 0 0 0 3h7a1.5 1.5 0 0 0 0-3M175 30h-7a1.5 1.5 0 0 0 0 3h7a1.5 1.5 0 0 0 0-3M198 30h-7a1.5 1.5 0 0 0 0 3h7a1.5 1.5 0 0 0 0-3M221 30h-7a1.5 1.5 0 0 0 0 3h7a1.5 1.5 0 0 0 0-3"/><path fill="#404045" d="M186 51a4 4 0 0 1 4-4h9a4 4 0 0 1 4 4v9a4 4 0 0 1-4 4h-9a4 4 0 0 1-4-4z"/><path stroke="#4f4f55" d="M190 47.5h9a3.5 3.5 0 0 1 3.5 3.5v9a3.5 3.5 0 0 1-3.5 3.5h-9a3.5 3.5 0 0 1-3.5-3.5v-9a3.5 3.5 0 0 1 3.5-3.5Z"/><path fill="#d3d3d3" d="M195 54h-1a1.5 1.5 0 0 0 0 3h1a1.5 1.5 0 0 0 0-3"/><path fill="#404045" d="M209 51a4 4 0 0 1 4-4h9a4 4 0 0 1 4 4v9a4 4 0 0 1-4 4h-9a4 4 0 0 1-4-4z"/><path stroke="#4f4f55" d="M213 47.5h9a3.5 3.5 0 0 1 3.5 3.5v9a3.5 3.5 0 0 1-3.5 3.5h-9a3.5 3.5 0 0 1-3.5-3.5v-9a3.5 3.5 0 0 1 3.5-3.5Z"/><path fill="#d3d3d3" d="M218 54h-1a1.5 1.5 0 0 0 0 3h1a1.5 1.5 0 0 0 0-3"/><path fill="#2a2a2d" d="M117 74a4 4 0 0 1 4-4h9a4 4 0 0 1 4 4v9a4 4 0 0 1-4 4h-9a4 4 0 0 1-4-4z"/><path fill="#d3d3d3" d="M126 77h-1a1.5 1.5 0 0 0 0 3h1a1.5 1.5 0 0 0 0-3"/><path fill="#e8e8e8" d="M146.5 78.5A1.5 1.5 0 0 1 148 77h1a1.5 1.5 0 0 1 0 3h-1a1.5 1.5 0 0 1-1.5-1.5"/><path fill="#404045" d="M163 74a4 4 0 0 1 4-4h9a4 4 0 0 1 4 4v9a4 4 0 0 1-4 4h-9a4 4 0 0 1-4-4z"/><path stroke="#4f4f55" d="M167 70.5h9a3.5 3.5 0 0 1 3.5 3.5v9a3.5 3.5 0 0 1-3.5 3.5h-9a3.5 3.5 0 0 1-3.5-3.5v-9a3.5 3.5 0 0 1 3.5-3.5Z"/><path fill="#d3d3d3" d="M172 77h-1a1.5 1.5 0 0 0 0 3h1a1.5 1.5 0 0 0 0-3"/><path fill="#e8e8e8" d="M192.5 78.5A1.5 1.5 0 0 1 194 77h1a1.5 1.5 0 0 1 0 3h-1a1.5 1.5 0 0 1-1.5-1.5"/><path fill="#404045" d="M209 74a4 4 0 0 1 4-4h9a4 4 0 0 1 4 4v9a4 4 0 0 1-4 4h-9a4 4 0 0 1-4-4z"/><path stroke="#4f4f55" d="M213 70.5h9a3.5 3.5 0 0 1 3.5 3.5v9a3.5 3.5 0 0 1-3.5 3.5h-9a3.5 3.5 0 0 1-3.5-3.5v-9a3.5 3.5 0 0 1 3.5-3.5Z"/><path fill="#d3d3d3" d="M218 77h-1a1.5 1.5 0 0 0 0 3h1a1.5 1.5 0 0 0 0-3"/><path fill="#404045" d="M117 97a4 4 0 0 1 4-4h9a4 4 0 0 1 4 4v9a4 4 0 0 1-4 4h-9a4 4 0 0 1-4-4z"/><path stroke="#4f4f55" d="M121 93.5h9a3.5 3.5 0 0 1 3.5 3.5v9a3.5 3.5 0 0 1-3.5 3.5h-9a3.5 3.5 0 0 1-3.5-3.5v-9a3.5 3.5 0 0 1 3.5-3.5Z"/><path fill="#d3d3d3" d="M126 100h-1a1.5 1.5 0 0 0 0 3h1a1.5 1.5 0 0 0 0-3"/><path fill="#404045" d="M144 93.5h9a3.5 3.5 0 0 1 3.5 3.5v9a3.5 3.5 0 0 1-3.5 3.5h-9a3.5 3.5 0 0 1-3.5-3.5v-9a3.5 3.5 0 0 1 3.5-3.5"/><path stroke="#4f4f55" d="M144 93.5h9a3.5 3.5 0 0 1 3.5 3.5v9a3.5 3.5 0 0 1-3.5 3.5h-9a3.5 3.5 0 0 1-3.5-3.5v-9a3.5 3.5 0 0 1 3.5-3.5Z"/><path fill="#d3d3d3" d="M149 100h-1a1.5 1.5 0 0 0 0 3h1a1.5 1.5 0 0 0 0-3M172 100h-1a1.5 1.5 0 0 0 0 3h1a1.5 1.5 0 0 0 0-3"/><path fill="#fff" d="M199 93h-9a4 4 0 0 0-4 4v9a4 4 0 0 0 4 4h9a4 4 0 0 0 4-4v-9a4 4 0 0 0-4-4"/><path fill="#27272a" d="M195 100h-1a1.5 1.5 0 0 0 0 3h1a1.5 1.5 0 0 0 0-3"/><path fill="#404045" d="M209 97a4 4 0 0 1 4-4h9a4 4 0 0 1 4 4v9a4 4 0 0 1-4 4h-9a4 4 0 0 1-4-4z"/><path stroke="#4f4f55" d="M213 93.5h9a3.5 3.5 0 0 1 3.5 3.5v9a3.5 3.5 0 0 1-3.5 3.5h-9a3.5 3.5 0 0 1-3.5-3.5v-9a3.5 3.5 0 0 1 3.5-3.5Z"/><path fill="#d3d3d3" d="M218 100h-1a1.5 1.5 0 0 0 0 3h1a1.5 1.5 0 0 0 0-3M126 123h-1a1.5 1.5 0 0 0 0 3h1a1.5 1.5 0 0 0 0-3"/><path fill="#404045" d="M140 120a4 4 0 0 1 4-4h9a4 4 0 0 1 4 4v9a4 4 0 0 1-4 4h-9a4 4 0 0 1-4-4z"/><path stroke="#4f4f55" d="M144 116.5h9a3.5 3.5 0 0 1 3.5 3.5v9a3.5 3.5 0 0 1-3.5 3.5h-9a3.5 3.5 0 0 1-3.5-3.5v-9a3.5 3.5 0 0 1 3.5-3.5Z"/><path fill="#d3d3d3" d="M149 123h-1a1.5 1.5 0 0 0 0 3h1a1.5 1.5 0 0 0 0-3"/><path fill="#404045" d="M163 120a4 4 0 0 1 4-4h9a4 4 0 0 1 4 4v9a4 4 0 0 1-4 4h-9a4 4 0 0 1-4-4z"/><path stroke="#4f4f55" d="M167 116.5h9a3.5 3.5 0 0 1 3.5 3.5v9a3.5 3.5 0 0 1-3.5 3.5h-9a3.5 3.5 0 0 1-3.5-3.5v-9a3.5 3.5 0 0 1 3.5-3.5Z"/><path fill="#d3d3d3" d="M172 123h-1a1.5 1.5 0 0 0 0 3h1a1.5 1.5 0 0 0 0-3"/><path fill="#404045" d="M186 120a4 4 0 0 1 4-4h9a4 4 0 0 1 4 4v9a4 4 0 0 1-4 4h-9a4 4 0 0 1-4-4z"/><path stroke="#4f4f55" d="M190 116.5h9a3.5 3.5 0 0 1 3.5 3.5v9a3.5 3.5 0 0 1-3.5 3.5h-9a3.5 3.5 0 0 1-3.5-3.5v-9a3.5 3.5 0 0 1 3.5-3.5Z"/><path fill="#d3d3d3" d="M195 123h-1a1.5 1.5 0 0 0 0 3h1a1.5 1.5 0 0 0 0-3"/><path fill="#404045" d="M209 120a4 4 0 0 1 4-4h9a4 4 0 0 1 4 4v9a4 4 0 0 1-4 4h-9a4 4 0 0 1-4-4z"/><path stroke="#4f4f55" d="M213 116.5h9a3.5 3.5 0 0 1 3.5 3.5v9a3.5 3.5 0 0 1-3.5 3.5h-9a3.5 3.5 0 0 1-3.5-3.5v-9a3.5 3.5 0 0 1 3.5-3.5Z"/><path fill="#d3d3d3" d="M218 123h-1a1.5 1.5 0 0 0 0 3h1a1.5 1.5 0 0 0 0-3"/></g><path stroke="#fff" stroke-opacity=".14" d="M232 15.5a8.5 8.5 0 0 1 8.5 8.5v115a8.5 8.5 0 0 1-8.5 8.5H24a8.5 8.5 0 0 1-8.5-8.5V24a8.5 8.5 0 0 1 8.5-8.5z"/></g></g><defs><clipPath id="a"><path fill="#fff" d="M0 0h232v132H0z"/></clipPath></defs></svg>