<svg width="1211" height="525" viewBox="0 0 1211 525" fill="none" xmlns="http://www.w3.org/2000/svg">
<path d="M90.0776 187.767C97.3318 188.509 104.344 187.661 110.765 185.495L110.917 185.632L111.159 185.874C83.8531 216.92 64.5892 257.099 56.6382 301.564C51.0044 333.034 67.8907 363.293 95.8477 376.605C141.418 398.293 192.395 410.423 246.143 410.423C299.891 410.423 349.823 398.535 395.03 377.272C423.093 364.066 440.1 333.822 434.557 302.306C426.697 257.599 407.024 217.481 379.976 185.965C345.825 146.15 380.082 185.798 380.082 185.798C380.082 185.798 391.819 188.342 398.119 187.903C422.427 186.222 442.024 166.368 443.387 142.03C445.007 112.877 421.018 88.9028 391.865 90.5384C367.86 91.8863 348.127 111.014 346.082 134.973C345.446 142.439 346.506 149.618 348.914 156.145L348.521 156.539L348.294 156.766C318.822 135.033 283.671 122.221 245.552 122.221C207.433 122.221 172.04 135.124 142.493 157.008L142.266 156.781L141.903 156.418L141.191 155.706C143.508 149.224 144.507 142.106 143.826 134.715C141.66 110.878 121.972 91.9015 98.0739 90.5536C68.8599 88.918 44.8708 112.907 46.5065 142.091C47.8392 165.777 66.4671 185.344 90.0624 187.782L90.0776 187.767Z" fill="white" stroke="white" stroke-width="19.962"/>
<path fill-rule="evenodd" clip-rule="evenodd" d="M104.98 357.417C85.2161 348.012 73.7213 326.886 77.5681 305.335C85.6099 260.325 106.07 220.797 134.451 192.083C138.783 187.691 143.311 183.572 147.991 179.695C175.69 156.872 209.281 143.514 245.492 143.514C281.703 143.514 315.051 156.781 342.69 179.453C347.385 183.299 351.913 187.434 356.26 191.811C384.928 220.691 405.555 260.582 413.537 306.016C417.338 327.597 405.737 348.724 385.913 358.053C343.478 378.014 296.09 389.175 246.098 389.175C196.105 389.175 147.718 377.787 104.95 357.417H104.98Z" fill="#FFDF6F"/>
<path d="M95.5749 127.279L82.6111 140.243L113.446 171.078C118.822 167.988 123.35 163.566 126.561 158.265L95.5749 127.279Z" fill="black"/>
<path fill-rule="evenodd" clip-rule="evenodd" d="M395.287 102.609C375.448 102.276 358.183 119.056 357.986 138.895C357.91 146.15 359.955 152.934 363.529 158.659L394.894 127.294L407.857 140.258L376.796 171.305C382.944 174.727 390.184 176.454 397.847 175.803C415.505 174.303 429.772 159.977 431.195 142.318C432.922 120.903 416.232 102.957 395.287 102.609ZM363.529 158.659L349.233 172.94C353.927 176.817 358.44 180.967 362.772 185.329L376.796 171.305C371.374 168.276 366.8 163.914 363.529 158.659ZM422.593 304.441C414.339 257.463 392.879 215.709 362.772 185.329L356.29 191.811C351.943 187.434 347.415 183.314 342.72 179.468L349.233 172.94C320.034 148.709 284.353 134.367 245.507 134.367C206.661 134.367 170.753 148.8 141.494 173.198L148.006 179.71C143.311 183.572 138.798 187.706 134.466 192.098L127.985 185.616C98.1648 215.815 76.8714 257.19 68.5419 303.745C63.9379 329.551 77.7498 354.615 101.042 365.701C145.007 386.631 194.212 398.353 246.128 398.353C298.044 398.353 346.219 386.874 389.85 366.353C413.219 355.342 427.152 330.293 422.593 304.441ZM382.036 349.754C340.812 369.169 294.742 380.013 246.128 380.013C197.514 380.013 150.489 368.942 108.917 349.148C92.6976 341.424 83.5048 324.235 86.5943 306.97C94.3635 263.505 113.991 225.81 140.948 198.565L154.533 186.237C180.642 164.989 212.052 152.692 245.507 152.692C278.961 152.692 310.129 164.883 336.193 185.98L349.808 198.293C377.038 225.689 396.832 263.732 404.541 307.606C407.585 324.917 398.316 342.106 382.036 349.754ZM126.576 158.28C123.365 163.581 118.837 167.988 113.461 171.093L127.985 185.616C132.316 181.225 136.814 177.09 141.494 173.198L126.576 158.28ZM126.576 158.28C130.059 152.541 132.013 145.771 131.877 138.562C131.483 118.495 114.536 102.215 94.4695 102.609C73.5548 103.033 56.9411 120.949 58.6676 142.318C60.1063 160.067 74.5089 174.425 92.2584 175.818C100.012 176.424 107.297 174.606 113.461 171.093L82.6264 140.258L95.5902 127.294L126.576 158.28Z" fill="black"/>
<path fill-rule="evenodd" clip-rule="evenodd" d="M407.857 140.258L376.796 171.305C371.374 168.276 366.8 163.914 363.529 158.659L394.894 127.295L407.857 140.258Z" fill="black"/>
<path fill-rule="evenodd" clip-rule="evenodd" d="M362.772 185.329L356.29 191.811C351.943 187.434 347.415 183.315 342.72 179.468L349.232 172.94C353.927 176.817 358.44 180.967 362.772 185.329Z" fill="black"/>
<path fill-rule="evenodd" clip-rule="evenodd" d="M148.006 179.71C143.311 183.572 138.798 187.706 134.467 192.098L127.985 185.616C132.316 181.225 136.814 177.09 141.494 173.198L148.006 179.71Z" fill="black"/>
<path fill-rule="evenodd" clip-rule="evenodd" d="M126.576 158.28C123.366 163.581 118.837 167.988 113.461 171.093L82.6265 140.258L95.5903 127.295L126.576 158.28Z" fill="black"/>
<path fill-rule="evenodd" clip-rule="evenodd" d="M407.857 140.243L376.796 171.29C371.374 168.261 366.8 163.899 363.529 158.644L394.894 127.279L407.857 140.243Z" fill="black"/>
<path d="M349.232 172.925L342.705 179.453C347.4 183.299 351.928 187.434 356.275 191.811L362.757 185.329C358.425 180.952 353.912 176.817 349.232 172.94V172.925Z" fill="black"/>
<path d="M141.478 173.183C136.799 177.075 132.301 181.225 127.969 185.601L134.451 192.083C138.783 187.691 143.311 183.572 147.99 179.695L141.478 173.183Z" fill="black"/>
<path fill-rule="evenodd" clip-rule="evenodd" d="M140.873 335.064C124.971 328.582 115.536 311.665 121.048 295.4C138.041 245.241 187.624 208.924 246.143 208.924C304.662 208.924 354.245 245.226 371.253 295.4C376.766 311.665 367.33 328.597 351.429 335.064C318.943 348.3 283.399 355.585 246.158 355.585C208.918 355.585 173.373 348.3 140.888 335.064H140.873Z" fill="black"/>
<path d="M288.321 311.59C305.2 311.59 318.883 300.646 318.883 287.146C318.883 273.646 305.2 262.703 288.321 262.703C271.442 262.703 257.759 273.646 257.759 287.146C257.759 300.646 271.442 311.59 288.321 311.59Z" fill="white"/>
<path d="M200.845 311.605C217.724 311.605 231.407 300.661 231.407 287.161C231.407 273.661 217.724 262.718 200.845 262.718C183.966 262.718 170.283 273.661 170.283 287.161C170.283 300.661 183.966 311.605 200.845 311.605Z" fill="white"/>
<path d="M674.375 263.384L652.621 204.2L631.826 263.384H674.375ZM624.468 134.459H682.693L763.95 349.441L706.686 355.199L691.01 309.132H615.831L600.795 352H542.891L624.468 134.459ZM838.15 352H779.926V129.661L838.15 126.142V352ZM899.496 352H870.064V129.661L928.288 126.142V322.888L899.496 352ZM909.413 257.306L893.098 219.876C896.937 215.184 901.842 210.705 907.814 206.44C913.999 201.961 920.823 198.335 928.288 195.563C935.753 192.79 943.43 191.404 951.322 191.404C966.677 191.404 980.327 194.283 992.27 200.042C1004.21 205.8 1013.6 214.651 1020.42 226.594C1027.46 238.538 1030.98 253.787 1030.98 272.342C1030.98 290.683 1027.46 306.039 1020.42 318.409C1013.6 330.779 1004 340.057 991.631 346.242C979.474 352.427 965.185 355.519 948.762 355.519C942.364 355.519 935.966 354.559 929.568 352.64C923.383 350.72 917.198 347.734 911.013 343.682C905.041 339.417 899.069 333.872 893.098 327.047L909.413 292.816C915.598 298.575 921.676 303.053 927.648 306.252C933.62 309.238 939.378 310.731 944.923 310.731C949.829 310.731 954.201 309.238 958.04 306.252C961.879 303.267 964.971 298.895 967.317 293.136C969.663 287.378 970.836 280.553 970.836 272.662C970.836 264.77 969.663 258.159 967.317 252.827C965.185 247.282 961.985 243.123 957.72 240.351C953.668 237.578 948.549 236.192 942.364 236.192C937.246 236.192 932.02 238.111 926.688 241.95C921.357 245.789 915.598 250.908 909.413 257.306ZM1088.57 352.64L1089.85 349.121L1034.18 206.44L1087.93 191.084L1119.6 284.498L1149.35 196.842H1207.25L1139.11 370.235C1135.91 378.553 1130.69 386.231 1123.44 393.269C1116.19 400.307 1107.76 406.279 1098.16 411.184C1088.57 416.089 1078.65 419.715 1068.41 422.061L1048.9 376.953C1054.02 374.82 1059.35 372.474 1064.89 369.915C1070.65 367.356 1075.77 364.583 1080.25 361.597C1084.73 358.612 1087.5 355.626 1088.57 352.64Z" fill="white"/>
</svg>
