<svg xmlns="http://www.w3.org/2000/svg" height="128" width="128" viewBox="0 0 128 128">
<g xmlns="http://www.w3.org/2000/svg" transform="translate(-34 -36)"><path d="m81.5471 81.474-9.036-9.0375a1.52664 1.52664 0 0 0 -2.1375 0l-9.036 9.0375a1.466 1.466 0 0 0 1.068 2.526h18.0735a1.47368 1.47368 0 0 0 1.068-2.526z" fill="#c3c6cc"/><path d="m81.8478 49.014-2.8305-8.403a2.95772 2.95772 0 0 0 -.5985-1.029l-44.076 44.0745a1.35045 1.35045 0 0 0 .9435.3435h12.519a2.65918 2.65918 0 0 0 1.887-.7725l31.5555-31.5555a2.53243 2.53243 0 0 0 .6-2.658z" fill="#e1e3e6"/><path d="m77.389 38.98045-8.403-2.829a2.53243 2.53243 0 0 0 -2.658.6l-31.557 31.55545a2.67032 2.67032 0 0 0 -.771 1.887v12.519a1.35045 1.35045 0 0 0 .3435.9435l44.076-44.0744a2.97343 2.97343 0 0 0 -1.0305-.60155z" fill="#c3c6cc"/><path d="m197.914 59.3235a2.49651 2.49651 0 0 1 -.333 1.3965 2.05832 2.05832 0 0 1 -.8805.75 3.60545 3.60545 0 0 1 -1.2465.2985q-.69975.05175-1.3965.051h-1.629v-4.9575h1.7955a12.822 12.822 0 0 1 1.296.066 3.643 3.643 0 0 1 1.197.3165 2.07888 2.07888 0 0 1 .864.747 2.37055 2.37055 0 0 1 .333 1.332zm.5985 12.6765h4.4885l-2.4605-3.627q-.63225-.9315-1.2795-1.7955-.65025-.86625-1.0815-1.431a3.04487 3.04487 0 0 0 -.798-.8655 4.86152 4.86152 0 0 0 3.1755-1.5465 4.91926 4.91926 0 0 0 1.2465-3.477 4.98474 4.98474 0 0 0 -1.8615-3.993 5.10526 5.10526 0 0 0 -2.112-.9825 14.04466 14.04466 0 0 0 -3.0405-.282h-6.051v18h3.69v-7.4865a1.81264 1.81264 0 0 1 1.0305.267 3.93216 3.93216 0 0 1 .732.6315 14.9897 14.9897 0 0 1 .9135 1.248q.549.8145 1.6125 2.445zm-31.263 0h11.5695v-3.1275h-7.812v-4.791h5.85v-2.961h-5.8845v-4.1595h7.0485l.531-2.961h-11.3025zm-14.514-.0015 7.014-17.9985h-3.8895l-3.5565 9.3495a13.16531 13.16531 0 0 0 -.4485 1.2975q-.216.73125-.3825 1.38-.1665.65025-.267 1.0815l-.099.4335-.1335-.4335q-.099-.46575-.2655-1.113-.1665-.65025-.3825-1.3815-.216-.7335-.4155-1.2975l-3.291-9.3165h-4.122l6.882 17.9985zm-29.235.0015h11.568v-3.1275h-7.812v-4.791h5.8515v-2.961h-5.8845v-4.1595h7.047l.5325-2.961h-11.3025zm-10.1295 0 .699-3.0615h-7.314v-14.9385h-3.756v18z" fill="#262933"/></g>
</svg>