<?xml version="1.0" encoding="utf-8"?>
<svg version="1.1" id="layer" xmlns="http://www.w3.org/2000/svg" xmlns:xlink="http://www.w3.org/1999/xlink" x="0px" y="0px"
	 viewBox="0 0 512 512" style="enable-background:new 0 0 512 512;" xml:space="preserve">
<style type="text/css">
	.st0{fill:#AFAFAF;}
	.st1{fill:#D9D9D9;}
	.st2{fill:#434C4F;}
	.st3{fill:#424A4D;}
	.st4{fill:#444D50;}
</style>
<g id="Group_28302" transform="translate(-461.7 -498.896)">
	<path id="Path_17641" class="st0" d="M583.2,696.4c-0.6,1.4-1.6,2.8-2.8,3.8c-11.3,11.4-22.7,22.7-33.7,34.2
		c-6.5,6.9-13.5,13.5-20.1,20.3c-9,9.6-18.7,18.7-27.7,28.2c-9.8,10.1-19.9,19.8-29.6,30.1c-0.4,0.3-0.7,0.7-0.9,1.1
		c-1.3-0.1-1.5-1.1-1.7-2.1c-0.1-0.6-0.1-1.3-0.1-1.8V783c-0.1-3.6,1.4-6.9,3.9-9.5c5.7-5.9,11.5-11.5,17.1-17.4
		c7.7-8.1,15.8-15.8,23.5-23.9c6-6.3,12.2-12.4,18.2-18.6c6.8-6.9,13.5-13.6,20.2-20.6c2.5-2.7,6.2-3.7,9.7-2.8
		c6.4,1.3,13,2.7,19.4,3.9C580.5,694.5,582,695.2,583.2,696.4z"/>
	<path id="Path_17642" class="st1" d="M588.1,729.8c-4.2,4.4-8.6,8.6-12.9,12.9c-1.5,1.4-2.9,2.9-4.3,4.5c-1.2,1.3-2.5,2.5-3.9,3.6
		c-7.2,7.2-14.4,14.3-21.5,21.5c-3.3,3.3-7,6.4-10.3,9.9c-1.6,1.7-2.9,3.4-4.6,5c-8.2,7.6-15.9,15.8-23.9,23.6
		c-2.3,2.1-5.2,3.3-8.2,3.4c-9.4,0.5-18.7,0.3-27.9,0.3c-0.8,0-1.6,0.3-2.1-0.3c0.3-0.4,0.5-0.8,0.9-1.1
		c9.7-10.3,19.8-19.9,29.6-30.1c9.1-9.5,18.7-18.6,27.7-28.2c6.5-6.9,13.4-13.5,20.1-20.3c11.1-11.5,22.4-22.8,33.7-34.2
		c1.3-1,2.2-2.3,2.8-3.8c1.8,1.3,2.9,3.3,3.3,5.4c0.8,3.9,1.3,8,2.3,11.9c0.7,2.7,1,5.4,1.7,8C591.1,724.7,590.2,727.7,588.1,729.8z
		"/>
	<path id="Path_17643" class="st2" d="M956.6,773.7c-0.3-0.5-0.8-1-1.1-1.5c-0.8-1.3-0.8-1.4,0.6-1.8c0.7-0.2,1.3-0.4,1.9-0.7
		c2.9-1.2,5.3-3.4,6.4-6.4c2.9-6.7-0.1-14.5-6.8-17.4c-0.8-0.3-1.8-0.7-2.6-0.8c-2.2-0.4-4.3-0.7-6.5-0.7h-14.9c-2,0-2,0-2,2v41.8
		c0,2.7-0.3,2.4,2.5,2.4h4.5c2.9,0,2.6,0.3,2.6-2.7v-14.9c0-1.5,0.5-1.8,1.8-1.3c1.3,0.4,2.3,1.3,3,2.4c0.8,1.1,1.7,2.3,2.4,3.3
		c2.6,3.9,5.2,7.9,7.8,12c0.3,0.6,0.7,1.2,1.6,1.2h10.9C964.5,784.7,960.7,779,956.6,773.7z M951.4,763.8c-3.2,0.7-6.4,0.9-9.6,0.7
		c-0.8,0-0.8-0.7-0.8-1.2v-5.2l0,0v-5.2c0-0.7,0.2-1.1,0.9-1.1c2.9-0.3,5.9-0.1,8.7,0.5c3.3,0.7,5.4,3.8,4.8,7.1
		c-0.1,0.5-0.3,1.1-0.5,1.6C954.1,762.3,952.9,763.4,951.4,763.8z"/>
	<path id="Path_17644" class="st3" d="M888.6,790.6H862c-2.3,0-2.1,0.3-2.1-2.1v-43.2c0-0.8,0.3-1.1,1.1-1h26.5c1.8,0,1.8,0,1.4,1.8
		c-0.2,1.2-0.5,2.4-0.7,3.7c-0.5,2.7-0.5,2.3-2.6,2.3h-14.9c-0.8,0-1.3,0.3-1.3,1.2v8.3c0,1.1,0.6,1.2,1.5,1.2H884
		c0.7,0,1,0.3,1,0.9v5.6c0,0.8-0.3,1.1-1.1,1.1h-12.5c-1.6,0-1.7,0.1-1.7,1.7v8.9c0,1.7,0,1.7,1.8,1.7h16.1c2.6,0,2.3-0.3,2.3,2.3
		c0,1.5-0.1,2.8,0,4.3C890.2,790.3,889.6,790.6,888.6,790.6z"/>
	<path id="Path_17645" class="st3" d="M743.9,790.6h-26.2c-1.7,0-1.7,0-1.7-1.8v-43.5c0-0.8,0.3-1,1-0.9h27.2c0.8,0,1.2,0.3,1,1.1
		c-0.3,1.8-0.7,3.7-1,5.5c-0.2,1-0.9,1-1.7,1h-13.3c-3.6,0-3.6,0-3.6,3.6v5.4c0,1.6,0.1,1.7,1.7,1.7h11.4c2.5,0,2.3-0.1,2.3,2.3
		c0,1.4-0.1,2.8,0,4.2c0,1-0.3,1.3-1.3,1.3h-11.5c-2.3,0-2.3,0-2.3,2.3v7.7c0,2.3,0,2.3,2.4,2.3h15.9c1.8,0,1.8,0,1.8,1.9v3.9
		C746.1,790.7,746.4,790.6,743.9,790.6z"/>
	<path id="Path_17646" class="st2" d="M823.9,744.3c-1.6,3.8-2.8,7.4-4.3,11c-4.3,11.1-8.7,22.3-13,33.4c-0.2,0.4-0.3,0.8-0.5,1.2
		c-0.2,0.8-0.8,1.3-1.6,1.1c0,0,0,0-0.1,0c-2-0.1-3.9-0.1-6,0c-1.2,0.1-1.7-0.3-2.1-1.5c-1.8-5-3.8-10-5.7-14.9
		c-3.6-9.5-7.2-18.8-10.8-28.2c-0.3-0.5-0.4-1.2-0.5-1.8c0.3-0.5,0.9-0.3,1.4-0.3h7.7c0.9-0.2,1.8,0.5,1.9,1.4
		c0.8,2.6,1.8,5.1,2.7,7.6c2.4,6.9,5.1,13.6,7.1,20.6c0.3,1,0.6,2,0.8,3c0.1,0.3,0.2,0.8,0.8,0.9c0.5-1.1,0.9-2.3,1.1-3.5
		c1.8-6.5,4.7-12.9,7-19.2c1.1-3.2,2.4-6.2,3.5-9.2c0.2-1,1.2-1.6,2.1-1.4l0,0C818,744.4,820.7,744.3,823.9,744.3z"/>
	<path id="Path_17647" class="st0" d="M587.1,814.2c-0.8,0.3-1.5,0.3-2.3,0.3h-50.1c-0.9,0.1-1.8-0.1-2.7-0.3
		c-1.2-0.5-1.5-1.2-0.7-2.3c0.3-0.4,0.8-0.8,1.1-1.2c5.4-5,10.5-10.1,16-15c2.6-2.3,5-4.9,7.8-7.1c1.7-1.7,4.3-1.8,6.2-0.3
		c0.5,0.3,0.9,0.7,1.3,1c5.3,4.9,10.4,9.9,15.7,14.7c2.6,2.3,4.9,4.8,7.6,7c0.3,0.3,0.6,0.6,0.8,0.9
		C588.5,813.1,588.2,813.7,587.1,814.2z"/>
	<path id="Path_17648" class="st4" d="M677.3,783.9c-0.5,1.8-0.8,3.6-1.3,5.4c-0.1,0.8-0.8,1.3-1.5,1.3h-0.1h-24.5
		c-1.3,0-1.3-0.1-1.3-1.7v-42.5c0-2.1-0.3-2.1,2.1-2.1h6.4c0.9,0,1.3,0.3,1.2,1.2v35.6c0.1,1.4,0.1,1.5,1.6,1.5H676
		C677.2,782.5,677.4,783,677.3,783.9z"/>
</g>
</svg>
