<svg version="1.1" id="Layer_1" xmlns="http://www.w3.org/2000/svg" xmlns:xlink="http://www.w3.org/1999/xlink" x="0px" y="0px"
	 width="100%" viewBox="0 0 800 800" enable-background="new 0 0 800 800" xml:space="preserve">
<path fill="#E190B4" opacity="1.000000" stroke="none" 
	d="
M1.000000,551.000000 
	C1.000000,523.645752 1.000000,496.291534 1.347151,468.531250 
	C3.487295,469.275177 5.458455,470.221619 7.043726,471.608978 
	C15.906185,479.364929 24.720909,487.177002 33.460075,495.071625 
	C39.101658,500.167969 44.433228,505.616486 50.199337,510.562531 
	C53.504047,513.397278 57.400055,515.542664 61.220322,518.302124 
	C69.044685,535.953674 75.538498,553.916382 84.506424,570.544739 
	C127.249176,649.798584 190.971405,705.712280 275.132782,737.689575 
	C294.175659,744.924988 314.355743,749.167297 334.068085,755.141541 
	C339.087982,760.660339 343.768433,766.139893 349.076904,770.922424 
	C359.327881,780.157715 369.950836,788.979492 380.357086,798.044495 
	C381.156342,798.740845 381.463867,800.001587 382.000000,801.000000 
	C347.979095,801.000000 313.958221,801.000000 279.448730,800.637451 
	C278.027161,799.000366 277.263458,797.543335 276.126251,796.489014 
	C273.710083,794.248779 271.015961,792.309387 268.584564,790.084167 
	C261.253265,783.374451 254.091492,776.476990 246.683136,769.854614 
	C234.581238,759.036621 222.332108,748.383362 210.154541,737.649963 
	C204.692627,732.835876 199.268433,727.979004 193.799469,723.172974 
	C189.341721,719.255615 184.745514,715.490601 180.387466,711.466553 
	C175.181992,706.660034 170.312485,701.484497 165.033920,696.763428 
	C155.155563,687.928467 144.958939,679.447754 135.132736,670.556519 
	C124.503113,660.938293 114.224701,650.932800 103.642250,641.261292 
	C96.201057,634.460571 88.476280,627.971191 80.934586,621.279175 
	C71.000061,612.463867 61.132534,603.573120 51.212681,594.741272 
	C46.627239,590.658691 41.935532,586.694702 37.380714,582.578796 
	C27.827648,573.946167 18.382204,565.193848 8.780226,556.616455 
	C6.407683,554.497070 3.604964,552.859192 1.000000,551.000000 
z"/>
<path fill="#6FBBCD" opacity="1.000000" stroke="none" 
	d="
M542.000000,1.000000 
	C569.020874,1.000000 596.041809,1.000000 623.594604,1.349546 
	C626.114807,4.043824 627.912354,6.588429 630.124573,8.698220 
	C639.086060,17.244791 648.047241,25.799999 657.261902,34.069786 
	C663.411438,39.588741 670.150574,44.448196 676.340149,49.925640 
	C688.375183,60.575943 700.232910,71.427299 712.119568,82.244308 
	C722.600830,91.782364 732.988342,101.423538 743.479370,110.950768 
	C751.751343,118.462784 760.130798,125.856461 768.438599,133.329208 
	C775.776367,139.929291 782.995300,146.664536 790.439575,153.141479 
	C793.740234,156.013245 797.466797,158.395523 801.000000,161.000000 
	C801.000000,185.020889 801.000000,209.041794 800.638550,233.512604 
	C794.016479,228.892990 787.621948,223.978500 781.529114,218.714676 
	C773.929871,212.149399 766.579712,205.295853 759.121277,198.567535 
	C754.610535,194.498352 750.070862,190.460632 745.593933,186.354568 
	C740.096252,181.312332 734.705139,176.152969 729.168640,171.154297 
	C722.112061,164.783203 714.906006,158.577438 707.863037,152.191666 
	C704.077209,148.759140 700.656921,144.914932 696.795837,141.575485 
	C684.037231,130.540558 671.045959,119.773109 658.357849,108.658852 
	C650.924377,102.147507 643.979370,95.081947 636.662537,88.433037 
	C630.287415,82.639839 623.569153,77.222359 617.235291,71.386192 
	C607.631836,62.537220 598.330017,53.360428 588.708496,44.531658 
	C581.989502,38.366234 574.967590,32.529701 568.046143,26.586735 
	C564.919189,23.901817 561.473328,21.547812 558.584290,18.634954 
	C552.903809,12.907742 547.511536,6.894758 542.000000,1.000000 
z"/>
<path fill="#76B8CC" opacity="1.000000" stroke="none" 
	d="
M541.531372,1.000000 
	C547.511536,6.894758 552.903809,12.907742 558.584290,18.634954 
	C561.473328,21.547812 564.919189,23.901817 568.046143,26.586735 
	C574.967590,32.529701 581.989502,38.366234 588.708496,44.531658 
	C598.330017,53.360428 607.631836,62.537220 617.235291,71.386192 
	C623.569153,77.222359 630.287415,82.639839 636.662537,88.433037 
	C643.979370,95.081947 650.924377,102.147507 658.357849,108.658852 
	C671.045959,119.773109 684.037231,130.540558 696.795837,141.575485 
	C700.656921,144.914932 704.077209,148.759140 707.863037,152.191666 
	C714.906006,158.577438 722.112061,164.783203 729.168640,171.154297 
	C734.705139,176.152969 740.096252,181.312332 745.593933,186.354568 
	C750.070862,190.460632 754.610535,194.498352 759.121277,198.567535 
	C766.579712,205.295853 773.929871,212.149399 781.529114,218.714676 
	C787.621948,223.978500 794.016479,228.892990 800.638550,233.981262 
	C801.000000,255.687561 801.000000,277.375122 800.672607,299.433228 
	C799.238098,298.602844 798.236877,297.278687 797.006470,296.221191 
	C789.653809,289.901459 782.164124,283.739044 774.881348,277.340607 
	C765.222229,268.854431 755.664307,260.251373 746.149292,251.603378 
	C736.784790,243.092194 727.553345,234.434540 718.175110,225.938721 
	C717.454956,225.286362 716.033997,225.407623 714.658630,224.960754 
	C694.309448,189.529694 669.210144,158.405853 638.817139,131.529800 
	C618.575806,113.630745 596.307251,98.683029 572.856445,84.991241 
	C563.216980,75.422844 553.743225,66.066826 543.940796,57.068810 
	C539.594055,53.078770 534.277527,50.145061 529.931091,46.154716 
	C517.289001,34.548424 504.852051,22.715540 492.478943,10.821450 
	C489.374390,7.837069 486.811707,4.289015 484.000000,1.000006 
	C503.020905,1.000000 522.041809,1.000000 541.531372,1.000000 
z"/>
<path fill="#E88CB2" opacity="1.000000" stroke="none" 
	d="
M1.000000,551.468628 
	C3.604964,552.859192 6.407683,554.497070 8.780226,556.616455 
	C18.382204,565.193848 27.827648,573.946167 37.380714,582.578796 
	C41.935532,586.694702 46.627239,590.658691 51.212681,594.741272 
	C61.132534,603.573120 71.000061,612.463867 80.934586,621.279175 
	C88.476280,627.971191 96.201057,634.460571 103.642250,641.261292 
	C114.224701,650.932800 124.503113,660.938293 135.132736,670.556519 
	C144.958939,679.447754 155.155563,687.928467 165.033920,696.763428 
	C170.312485,701.484497 175.181992,706.660034 180.387466,711.466553 
	C184.745514,715.490601 189.341721,719.255615 193.799469,723.172974 
	C199.268433,727.979004 204.692627,732.835876 210.154541,737.649963 
	C222.332108,748.383362 234.581238,759.036621 246.683136,769.854614 
	C254.091492,776.476990 261.253265,783.374451 268.584564,790.084167 
	C271.015961,792.309387 273.710083,794.248779 276.126251,796.489014 
	C277.263458,797.543335 278.027161,799.000366 278.980042,800.637451 
	C257.645782,801.000000 236.291550,801.000000 214.397858,800.665588 
	C213.115112,799.478210 212.456802,798.528625 211.614975,797.787659 
	C205.523834,792.426392 199.321869,787.189026 193.295303,781.756775 
	C182.456543,771.986816 171.746292,762.074463 160.920807,752.289612 
	C155.875290,747.729126 150.593246,743.428650 145.585800,738.828125 
	C139.505768,733.242249 133.747238,727.301941 127.591064,721.804504 
	C116.225449,711.655090 104.581802,701.817017 93.223701,691.659424 
	C83.738800,683.177124 74.578789,674.332214 65.127609,665.811279 
	C50.206512,652.358887 35.228634,638.967651 20.137663,625.706543 
	C13.942028,620.262146 7.389935,615.223328 0.999993,610.000000 
	C1.000000,590.645752 1.000000,571.291565 1.000000,551.468628 
z"/>
<path fill="#9FA9C3" opacity="1.000000" stroke="none" 
	d="
M52.000000,1.000000 
	C86.687561,1.000000 121.375122,1.000000 156.598404,1.336950 
	C163.670654,8.149865 170.039368,14.806965 176.785324,21.056877 
	C185.624390,29.245979 194.696411,37.188190 203.789200,45.097519 
	C211.995499,52.235744 220.518829,59.015408 228.601257,66.287804 
	C233.089676,70.326385 236.962158,75.049522 240.850616,79.660355 
	C219.511627,90.244469 200.001846,103.139748 180.815002,116.867630 
	C174.519608,111.801758 168.354568,107.099365 162.576981,101.961311 
	C154.462662,94.745201 146.739548,87.090294 138.658035,79.835915 
	C130.297256,72.330826 121.604851,65.195183 113.243515,57.690689 
	C101.291504,46.963459 89.568260,35.981518 77.631241,25.237324 
	C70.427246,18.753202 62.946976,12.576403 55.723446,6.113318 
	C54.187149,4.738751 53.226082,2.721277 52.000000,1.000000 
z"/>
<path fill="#67BED0" opacity="1.000000" stroke="none" 
	d="
M801.000000,160.531342 
	C797.466797,158.395523 793.740234,156.013245 790.439575,153.141479 
	C782.995300,146.664536 775.776367,139.929291 768.438599,133.329208 
	C760.130798,125.856461 751.751343,118.462784 743.479370,110.950768 
	C732.988342,101.423538 722.600830,91.782364 712.119568,82.244308 
	C700.232910,71.427299 688.375183,60.575943 676.340149,49.925640 
	C670.150574,44.448196 663.411438,39.588741 657.261902,34.069786 
	C648.047241,25.799999 639.086060,17.244791 630.124573,8.698220 
	C627.912354,6.588429 626.114807,4.043824 624.063293,1.349546 
	C649.354248,1.000000 674.708435,1.000000 700.601990,1.334004 
	C701.607544,2.333308 701.966919,3.117557 702.555725,3.646313 
	C713.965698,13.892882 725.448792,24.058462 736.819092,34.348606 
	C745.842468,42.514732 754.708252,50.854733 763.691895,59.065109 
	C774.157715,68.630150 784.634583,78.184250 795.214355,87.622391 
	C796.847534,89.079369 799.057007,89.890297 801.000000,91.000000 
	C801.000000,114.020897 801.000000,137.041794 801.000000,160.531342 
z"/>
<path fill="#B0A2BF" opacity="1.000000" stroke="none" 
	d="
M801.000000,752.000000 
	C801.000000,768.228882 801.000000,784.457703 801.000000,801.000000 
	C794.649475,801.000000 788.293762,801.000000 781.401306,800.661194 
	C778.871765,797.691406 777.239807,794.657593 774.826355,792.496460 
	C761.670654,780.716248 748.307861,769.167664 735.044739,757.507080 
	C720.886658,745.059509 706.671448,732.674683 692.643799,720.081360 
	C677.242737,706.255005 662.052856,692.193542 646.706543,678.305725 
	C644.030396,675.883911 641.035400,673.814331 638.466675,671.355103 
	C649.960510,660.018677 661.175415,648.909180 672.699280,638.004150 
	C676.477112,641.444275 679.910034,644.719666 683.422424,647.907471 
	C691.017944,654.801270 698.598450,661.713257 706.286987,668.502441 
	C717.714111,678.592834 729.339417,688.460999 740.671814,698.655701 
	C749.501099,706.598511 757.985229,714.923889 766.672913,723.025513 
	C774.771179,730.577332 782.822510,738.186768 791.131897,745.501099 
	C794.059631,748.078186 797.690308,749.856812 801.000000,752.000000 
z"/>
<path fill="#A7A5C1" opacity="1.000000" stroke="none" 
	d="
M51.531342,1.000000 
	C53.226082,2.721277 54.187149,4.738751 55.723446,6.113318 
	C62.946976,12.576403 70.427246,18.753202 77.631241,25.237324 
	C89.568260,35.981518 101.291504,46.963459 113.243515,57.690689 
	C121.604851,65.195183 130.297256,72.330826 138.658035,79.835915 
	C146.739548,87.090294 154.462662,94.745201 162.576981,101.961311 
	C168.354568,107.099365 174.519608,111.801758 180.627045,117.148666 
	C168.844559,127.790108 156.946777,137.981445 144.831833,147.910461 
	C140.743286,144.265594 136.859268,140.897385 133.002930,137.497757 
	C122.467751,128.210266 111.947548,118.905777 101.414162,109.616249 
	C98.093338,106.687561 94.682487,103.857620 91.428680,100.856888 
	C80.873871,91.122955 70.460640,81.233932 59.826889,71.587631 
	C48.663368,61.460747 37.290546,51.564915 26.043591,41.529556 
	C19.135147,35.365337 12.336900,29.076668 5.373085,22.976400 
	C4.221768,21.967852 2.472782,21.641577 1.000000,21.000000 
	C1.000000,14.374687 1.000000,7.749374 1.000000,1.000000 
	C17.687384,1.000000 34.375034,1.000000 51.531342,1.000000 
z"/>
<path fill="#EE8AB1" opacity="1.000000" stroke="none" 
	d="
M0.999993,610.468628 
	C7.389935,615.223328 13.942028,620.262146 20.137663,625.706543 
	C35.228634,638.967651 50.206512,652.358887 65.127609,665.811279 
	C74.578789,674.332214 83.738800,683.177124 93.223701,691.659424 
	C104.581802,701.817017 116.225449,711.655090 127.591064,721.804504 
	C133.747238,727.301941 139.505768,733.242249 145.585800,738.828125 
	C150.593246,743.428650 155.875290,747.729126 160.920807,752.289612 
	C171.746292,762.074463 182.456543,771.986816 193.295303,781.756775 
	C199.321869,787.189026 205.523834,792.426392 211.614975,797.787659 
	C212.456802,798.528625 213.115112,799.478210 213.929199,800.665588 
	C197.312439,801.000000 180.624878,801.000000 163.401611,800.663208 
	C160.633423,797.919189 158.535568,795.367310 156.139069,793.136169 
	C151.771042,789.069641 147.257095,785.157471 142.745667,781.248169 
	C138.369186,777.455811 133.900421,773.770020 129.509018,769.994629 
	C126.889870,767.742920 124.258270,765.494934 121.777802,763.094849 
	C115.508545,757.028992 109.476196,750.710022 103.060509,744.805908 
	C95.877151,738.195435 88.313484,732.000305 81.029984,725.495972 
	C72.008018,717.439331 63.159782,709.188049 54.135132,701.134460 
	C42.172413,690.458862 30.200430,679.790161 18.052738,669.327087 
	C12.592810,664.624268 6.697652,660.426819 0.999992,656.000000 
	C1.000000,640.979126 1.000000,625.958191 0.999993,610.468628 
z"/>
<path fill="#A8A5C0" opacity="1.000000" stroke="none" 
	d="
M801.000000,751.531372 
	C797.690308,749.856812 794.059631,748.078186 791.131897,745.501099 
	C782.822510,738.186768 774.771179,730.577332 766.672913,723.025513 
	C757.985229,714.923889 749.501099,706.598511 740.671814,698.655701 
	C729.339417,688.460999 717.714111,678.592834 706.286987,668.502441 
	C698.598450,661.713257 691.017944,654.801270 683.422424,647.907471 
	C679.910034,644.719666 676.477112,641.444275 672.902588,637.711060 
	C683.813110,622.462891 694.829224,607.712219 706.145264,593.125244 
	C714.801331,600.565979 723.255920,607.733826 731.483887,615.152832 
	C738.705383,621.664368 745.564087,628.577820 752.777222,635.098877 
	C764.200562,645.426147 775.701965,655.671265 787.346863,665.747070 
	C791.640503,669.462158 796.434326,672.599243 801.000000,676.000000 
	C801.000000,701.020874 801.000000,726.041809 801.000000,751.531372 
z"/>
<path fill="#F388B0" opacity="1.000000" stroke="none" 
	d="
M0.999992,656.468628 
	C6.697652,660.426819 12.592810,664.624268 18.052738,669.327087 
	C30.200430,679.790161 42.172413,690.458862 54.135132,701.134460 
	C63.159782,709.188049 72.008018,717.439331 81.029984,725.495972 
	C88.313484,732.000305 95.877151,738.195435 103.060509,744.805908 
	C109.476196,750.710022 115.508545,757.028992 121.777802,763.094849 
	C124.258270,765.494934 126.889870,767.742920 129.509018,769.994629 
	C133.900421,773.770020 138.369186,777.455811 142.745667,781.248169 
	C147.257095,785.157471 151.771042,789.069641 156.139069,793.136169 
	C158.535568,795.367310 160.633423,797.919189 162.932953,800.663208 
	C145.645767,801.000000 128.291550,801.000000 110.401726,800.663452 
	C108.761086,798.901672 107.843437,797.267090 106.521751,796.083740 
	C94.548691,785.364075 82.431763,774.804321 70.505386,764.033447 
	C61.193157,755.623352 52.170330,746.893127 42.875732,738.463013 
	C32.724041,729.255554 22.479549,720.146667 12.122548,711.171326 
	C8.657115,708.168213 4.720973,705.708252 1.000000,703.000000 
	C1.000000,687.645752 1.000000,672.291565 0.999992,656.468628 
z"/>
<path fill="#C09CBB" opacity="1.000000" stroke="none" 
	d="
M686.000000,801.000000 
	C658.312439,801.000000 630.624878,801.000000 602.404785,800.649475 
	C600.862976,798.829529 600.100586,797.079895 598.803467,795.937195 
	C591.473633,789.479553 583.935974,783.257507 576.619568,776.785156 
	C565.119141,766.611450 553.636108,756.413025 542.372070,745.980591 
	C539.157898,743.003540 536.726318,739.181335 534.190979,735.514038 
	C551.918335,726.708740 569.390564,718.136108 587.022949,709.888306 
	C595.674438,718.070068 604.142761,725.952026 612.668213,733.771851 
	C616.204956,737.015991 619.846497,740.146851 623.470337,743.294739 
	C630.833618,749.690796 638.306763,755.963440 645.571350,762.469299 
	C656.051880,771.855286 666.456299,781.329407 676.744995,790.924866 
	C680.070007,794.025879 682.928284,797.627380 686.000000,801.000000 
z"/>
<path fill="#94ADC5" opacity="1.000000" stroke="none" 
	d="
M241.112244,79.464127 
	C236.962158,75.049522 233.089676,70.326385 228.601257,66.287804 
	C220.518829,59.015408 211.995499,52.235744 203.789200,45.097519 
	C194.696411,37.188190 185.624390,29.245979 176.785324,21.056877 
	C170.039368,14.806965 163.670654,8.149865 157.067062,1.336950 
	C189.687561,1.000000 222.375122,1.000000 255.550308,1.362452 
	C257.812439,4.223884 259.236298,7.095934 261.425629,9.153491 
	C268.649872,15.942883 276.161163,22.426298 283.542969,29.048702 
	C292.515625,37.098347 301.468689,45.169853 310.104950,53.446945 
	C286.050690,60.027649 263.186646,68.695183 241.112244,79.464127 
z"/>
<path fill="#A0A8C2" opacity="1.000000" stroke="none" 
	d="
M801.000000,675.531372 
	C796.434326,672.599243 791.640503,669.462158 787.346863,665.747070 
	C775.701965,655.671265 764.200562,645.426147 752.777222,635.098877 
	C745.564087,628.577820 738.705383,621.664368 731.483887,615.152832 
	C723.255920,607.733826 714.801331,600.565979 706.244324,592.787842 
	C715.020813,575.189514 723.998169,558.092224 733.264404,541.164917 
	C740.776917,547.559082 748.128845,553.641724 755.194458,560.040527 
	C765.906494,569.741638 776.307495,579.787537 787.071960,589.428650 
	C791.399414,593.304382 796.339050,596.496643 801.000000,600.000000 
	C801.000000,625.020874 801.000000,650.041809 801.000000,675.531372 
z"/>
<path fill="#ADA3BF" opacity="1.000000" stroke="none" 
	d="
M1.000000,21.468658 
	C2.472782,21.641577 4.221768,21.967852 5.373085,22.976400 
	C12.336900,29.076668 19.135147,35.365337 26.043591,41.529556 
	C37.290546,51.564915 48.663368,61.460747 59.826889,71.587631 
	C70.460640,81.233932 80.873871,91.122955 91.428680,100.856888 
	C94.682487,103.857620 98.093338,106.687561 101.414162,109.616249 
	C111.947548,118.905777 122.467751,128.210266 133.002930,137.497757 
	C136.859268,140.897385 140.743286,144.265594 144.673859,148.197464 
	C137.630753,156.880173 130.528503,165.013550 123.097778,172.982697 
	C113.563416,168.514572 107.245316,160.633133 99.769646,154.194214 
	C93.764214,149.021622 87.874939,143.711197 82.018837,138.369064 
	C76.192429,133.054031 70.509834,127.581535 64.694557,122.254089 
	C57.973953,116.097267 51.139378,110.064766 44.425961,103.900223 
	C39.328312,99.219353 34.430199,94.319237 29.286800,89.690582 
	C21.678326,82.843567 13.963334,76.113388 6.215887,69.423576 
	C4.655379,68.076103 2.747644,67.130753 1.000000,66.000000 
	C1.000000,51.312439 1.000000,36.624878 1.000000,21.468658 
z"/>
<path fill="#B6A0BE" opacity="1.000000" stroke="none" 
	d="
M638.187744,671.582031 
	C641.035400,673.814331 644.030396,675.883911 646.706543,678.305725 
	C662.052856,692.193542 677.242737,706.255005 692.643799,720.081360 
	C706.671448,732.674683 720.886658,745.059509 735.044739,757.507080 
	C748.307861,769.167664 761.670654,780.716248 774.826355,792.496460 
	C777.239807,794.657593 778.871765,797.691406 780.932251,800.661194 
	C765.645752,801.000000 750.291565,801.000000 734.449219,800.635742 
	C731.259033,797.039734 728.879395,793.454895 725.796631,790.640076 
	C714.918274,780.707397 703.800110,771.037231 692.770386,761.270325 
	C688.056396,757.095947 683.331909,752.933289 678.619202,748.757385 
	C669.084412,740.308777 659.566162,731.841431 650.018677,723.407104 
	C642.097412,716.409363 634.048340,709.552673 626.244995,702.426392 
	C622.264709,698.791321 618.700317,694.700867 615.141357,690.553955 
	C622.952515,684.055054 630.570129,677.818542 638.187744,671.582031 
z"/>
<path fill="#B2A1BF" opacity="1.000000" stroke="none" 
	d="
M1.000000,66.468658 
	C2.747644,67.130753 4.655379,68.076103 6.215887,69.423576 
	C13.963334,76.113388 21.678326,82.843567 29.286800,89.690582 
	C34.430199,94.319237 39.328312,99.219353 44.425961,103.900223 
	C51.139378,110.064766 57.973953,116.097267 64.694557,122.254089 
	C70.509834,127.581535 76.192429,133.054031 82.018837,138.369064 
	C87.874939,143.711197 93.764214,149.021622 99.769646,154.194214 
	C107.245316,160.633133 113.563416,168.514572 122.909760,173.278015 
	C115.812683,183.194443 108.575165,192.651337 100.950752,202.070801 
	C97.195244,200.008118 93.490791,198.380051 90.527832,195.875000 
	C84.339745,190.643234 78.606316,184.878036 72.570610,179.460663 
	C63.876518,171.657242 55.036613,164.016312 46.338211,156.217621 
	C36.855556,147.715775 27.568842,138.992661 17.990953,130.600830 
	C12.539778,125.824707 6.677276,121.518059 1.000001,117.000000 
	C1.000000,100.312439 1.000000,83.624878 1.000000,66.468658 
z"/>
<path fill="#CA99B9" opacity="1.000000" stroke="none" 
	d="
M533.935913,735.746704 
	C536.726318,739.181335 539.157898,743.003540 542.372070,745.980591 
	C553.636108,756.413025 565.119141,766.611450 576.619568,776.785156 
	C583.935974,783.257507 591.473633,789.479553 598.803467,795.937195 
	C600.100586,797.079895 600.862976,798.829529 601.936157,800.649475 
	C567.979126,801.000000 533.958191,801.000000 499.401672,800.663452 
	C497.759735,798.900452 496.838226,797.268738 495.517700,796.080322 
	C485.532349,787.093933 475.374756,778.296936 465.474731,769.218628 
	C461.391785,765.474487 457.809479,761.184387 454.406677,757.076904 
	C481.906128,752.595459 508.314545,745.635315 533.935913,735.746704 
z"/>
<path fill="#D594B7" opacity="1.000000" stroke="none" 
	d="
M453.999451,757.142578 
	C457.809479,761.184387 461.391785,765.474487 465.474731,769.218628 
	C475.374756,778.296936 485.532349,787.093933 495.517700,796.080322 
	C496.838226,797.268738 497.759735,798.900452 498.933014,800.663452 
	C460.312439,801.000000 421.624878,801.000000 382.468658,801.000000 
	C381.463867,800.001587 381.156342,798.740845 380.357086,798.044495 
	C369.950836,788.979492 359.327881,780.157715 349.076904,770.922424 
	C343.768433,766.139893 339.087982,760.660339 334.496338,755.162231 
	C374.456055,761.935120 414.166840,762.674194 453.999451,757.142578 
z"/>
<path fill="#B89FBD" opacity="1.000000" stroke="none" 
	d="
M1.000001,117.468658 
	C6.677276,121.518059 12.539778,125.824707 17.990953,130.600830 
	C27.568842,138.992661 36.855556,147.715775 46.338211,156.217621 
	C55.036613,164.016312 63.876518,171.657242 72.570610,179.460663 
	C78.606316,184.878036 84.339745,190.643234 90.527832,195.875000 
	C93.490791,198.380051 97.195244,200.008118 100.887489,202.429749 
	C93.918488,215.250076 86.625862,227.674026 78.973846,240.025452 
	C71.913696,234.306000 65.088089,228.799240 58.546955,222.973114 
	C51.878315,217.033401 45.594845,210.662094 38.947121,204.697784 
	C32.795040,199.178192 26.425592,193.897369 20.075575,188.602905 
	C13.766544,183.342575 7.362416,178.196304 0.999997,173.000000 
	C1.000000,154.645767 1.000000,136.291550 1.000001,117.468658 
z"/>
<path fill="#BA9FBD" opacity="1.000000" stroke="none" 
	d="
M614.947876,690.816284 
	C618.700317,694.700867 622.264709,698.791321 626.244995,702.426392 
	C634.048340,709.552673 642.097412,716.409363 650.018677,723.407104 
	C659.566162,731.841431 669.084412,740.308777 678.619202,748.757385 
	C683.331909,752.933289 688.056396,757.095947 692.770386,761.270325 
	C703.800110,771.037231 714.918274,780.707397 725.796631,790.640076 
	C728.879395,793.454895 731.259033,797.039734 733.980591,800.635742 
	C718.312439,801.000000 702.624878,801.000000 686.468628,801.000000 
	C682.928284,797.627380 680.070007,794.025879 676.744995,790.924866 
	C666.456299,781.329407 656.051880,771.855286 645.571350,762.469299 
	C638.306763,755.963440 630.833618,749.690796 623.470337,743.294739 
	C619.846497,740.146851 616.204956,737.015991 612.668213,733.771851 
	C604.142761,725.952026 595.674438,718.070068 587.252563,709.665527 
	C596.530640,703.017395 605.739258,696.916809 614.947876,690.816284 
z"/>
<path fill="#7EB6CA" opacity="1.000000" stroke="none" 
	d="
M714.938782,225.169281 
	C716.033997,225.407623 717.454956,225.286362 718.175110,225.938721 
	C727.553345,234.434540 736.784790,243.092194 746.149292,251.603378 
	C755.664307,260.251373 765.222229,268.854431 774.881348,277.340607 
	C782.164124,283.739044 789.653809,289.901459 797.006470,296.221191 
	C798.236877,297.278687 799.238098,298.602844 800.672607,299.901886 
	C801.000000,325.354218 801.000000,350.708466 800.645996,376.506042 
	C799.682434,376.719238 798.932678,376.643585 798.483826,376.236267 
	C788.088684,366.802795 777.820496,357.226868 767.307312,347.927643 
	C763.560181,344.613190 759.233948,341.953430 755.108643,338.584290 
	C751.536987,323.534790 748.528198,308.753662 744.408447,294.288940 
	C737.505432,270.052124 726.734375,247.369995 714.938782,225.169281 
z"/>
<path fill="#5FC1D1" opacity="1.000000" stroke="none" 
	d="
M801.000000,90.531342 
	C799.057007,89.890297 796.847534,89.079369 795.214355,87.622391 
	C784.634583,78.184250 774.157715,68.630150 763.691895,59.065109 
	C754.708252,50.854733 745.842468,42.514732 736.819092,34.348606 
	C725.448792,24.058462 713.965698,13.892882 702.555725,3.646313 
	C701.966919,3.117557 701.607544,2.333308 701.070679,1.334004 
	C734.256409,1.000000 767.512817,1.000000 801.000000,1.000000 
	C801.000000,30.687162 801.000000,60.374924 801.000000,90.531342 
z"/>
<path fill="#98ACC4" opacity="1.000000" stroke="none" 
	d="
M801.000000,599.531372 
	C796.339050,596.496643 791.399414,593.304382 787.071960,589.428650 
	C776.307495,579.787537 765.906494,569.741638 755.194458,560.040527 
	C748.128845,553.641724 740.776917,547.559082 733.312134,540.795044 
	C738.997742,522.492920 744.924377,504.730652 751.153931,487.133728 
	C756.091980,491.488892 760.746399,495.657593 765.357910,499.873169 
	C773.523560,507.337799 781.545715,514.965271 789.870911,522.246765 
	C793.253418,525.205261 797.271240,527.437378 801.000000,530.000000 
	C801.000000,553.020874 801.000000,576.041809 801.000000,599.531372 
z"/>
<path fill="#F986AE" opacity="1.000000" stroke="none" 
	d="
M1.000000,703.468628 
	C4.720973,705.708252 8.657115,708.168213 12.122548,711.171326 
	C22.479549,720.146667 32.724041,729.255554 42.875732,738.463013 
	C52.170330,746.893127 61.193157,755.623352 70.505386,764.033447 
	C82.431763,774.804321 94.548691,785.364075 106.521751,796.083740 
	C107.843437,797.267090 108.761086,798.901672 109.933067,800.663452 
	C92.645775,801.000000 75.291542,801.000000 57.400299,800.663574 
	C53.397865,796.566345 50.162533,792.557068 46.421562,789.094055 
	C37.193630,780.551819 27.828951,772.150391 18.330807,763.909546 
	C12.739831,759.058655 6.788985,754.622620 0.999987,750.000000 
	C1.000000,734.645752 1.000000,719.291565 1.000000,703.468628 
z"/>
<path fill="#BE9DBC" opacity="1.000000" stroke="none" 
	d="
M0.999997,173.468658 
	C7.362416,178.196304 13.766544,183.342575 20.075575,188.602905 
	C26.425592,193.897369 32.795040,199.178192 38.947121,204.697784 
	C45.594845,210.662094 51.878315,217.033401 58.546955,222.973114 
	C65.088089,228.799240 71.913696,234.306000 78.912949,240.398224 
	C73.580734,254.257416 67.950027,267.671326 61.951324,281.017700 
	C59.528549,279.605408 57.334671,278.429688 55.449707,276.878571 
	C52.142784,274.157318 48.998764,271.234955 45.833397,268.345490 
	C37.903618,261.106842 30.076801,253.753250 22.056372,246.616928 
	C17.470789,242.536835 12.572298,238.809601 7.844132,234.888000 
	C5.528124,232.967087 3.279253,230.965225 0.999999,229.000000 
	C1.000000,210.645767 1.000000,192.291550 0.999997,173.468658 
z"/>
<path fill="#D793B6" opacity="1.000000" stroke="none" 
	d="
M61.029861,517.998413 
	C57.400055,515.542664 53.504047,513.397278 50.199337,510.562531 
	C44.433228,505.616486 39.101658,500.167969 33.460075,495.071625 
	C24.720909,487.177002 15.906185,479.364929 7.043726,471.608978 
	C5.458455,470.221619 3.487295,469.275177 1.347151,468.062561 
	C1.000000,441.312439 1.000000,414.624878 1.336670,387.535736 
	C2.387151,387.543671 3.202523,387.840637 3.799716,388.379425 
	C14.652346,398.171021 25.443497,408.031158 36.350384,417.761658 
	C37.904587,419.148285 39.992943,419.936127 41.898621,421.420288 
	C42.321873,424.451996 42.693726,427.062775 43.037098,429.677307 
	C44.712341,442.433044 45.597004,455.354889 48.242451,467.905762 
	C51.793541,484.753265 56.703346,501.314362 61.029861,517.998413 
z"/>
<path fill="#87B2C8" opacity="1.000000" stroke="none" 
	d="
M755.172058,338.994812 
	C759.233948,341.953430 763.560181,344.613190 767.307312,347.927643 
	C777.820496,357.226868 788.088684,366.802795 798.483826,376.236267 
	C798.932678,376.643585 799.682434,376.719238 800.645996,376.974701 
	C801.000000,403.354218 801.000000,429.708466 800.652710,456.468811 
	C799.254761,456.395660 798.018555,456.130127 797.181824,455.404205 
	C788.375122,447.764008 779.629395,440.053467 770.879150,432.348419 
	C770.385803,431.914001 770.071472,431.262115 769.552612,430.873169 
	C766.458557,428.553833 763.328857,426.281952 760.163452,423.536499 
	C760.357605,418.110809 760.722656,413.145142 760.820251,408.174255 
	C761.276550,384.926880 758.775940,361.914307 755.172058,338.994812 
z"/>
<path fill="#7CB7CB" opacity="1.000000" stroke="none" 
	d="
M483.531342,1.000006 
	C486.811707,4.289015 489.374390,7.837069 492.478943,10.821450 
	C504.852051,22.715540 517.289001,34.548424 529.931091,46.154716 
	C534.277527,50.145061 539.594055,53.078770 543.940796,57.068810 
	C553.743225,66.066826 563.216980,75.422844 572.508301,84.882492 
	C544.549316,70.100296 515.327087,59.181999 484.819000,51.212143 
	C483.828857,49.347771 483.107147,47.573730 481.828766,46.412506 
	C466.928192,32.877678 451.913971,19.467850 437.031281,5.913545 
	C435.663605,4.667951 434.993835,2.656060 434.000000,0.999996 
	C450.354218,1.000000 466.708466,1.000000 483.531342,1.000006 
z"/>
<path fill="#90AFC6" opacity="1.000000" stroke="none" 
	d="
M760.211182,423.994171 
	C763.328857,426.281952 766.458557,428.553833 769.552612,430.873169 
	C770.071472,431.262115 770.385803,431.914001 770.879150,432.348419 
	C779.629395,440.053467 788.375122,447.764008 797.181824,455.404205 
	C798.018555,456.130127 799.254761,456.395660 800.652710,456.937469 
	C801.000000,481.020905 801.000000,505.041779 801.000000,529.531372 
	C797.271240,527.437378 793.253418,525.205261 789.870911,522.246765 
	C781.545715,514.965271 773.523560,507.337799 765.357910,499.873169 
	C760.746399,495.657593 756.091980,491.488892 751.166138,486.721985 
	C753.987305,465.427979 757.099243,444.711090 760.211182,423.994171 
z"/>
<path fill="#8CB0C7" opacity="1.000000" stroke="none" 
	d="
M310.430237,53.231903 
	C301.468689,45.169853 292.515625,37.098347 283.542969,29.048702 
	C276.161163,22.426298 268.649872,15.942883 261.425629,9.153491 
	C259.236298,7.095934 257.812439,4.223884 256.018982,1.362452 
	C277.354218,1.000000 298.708466,1.000000 320.598572,1.337572 
	C329.836365,10.166398 338.555023,18.640551 347.234131,27.155016 
	C352.854065,32.668343 358.416138,38.240612 363.586487,43.868645 
	C345.589325,47.044514 328.009766,50.138210 310.430237,53.231903 
z"/>
<path fill="#C59ABA" opacity="1.000000" stroke="none" 
	d="
M0.999999,229.468658 
	C3.279253,230.965225 5.528124,232.967087 7.844132,234.888000 
	C12.572298,238.809601 17.470789,242.536835 22.056372,246.616928 
	C30.076801,253.753250 37.903618,261.106842 45.833397,268.345490 
	C48.998764,271.234955 52.142784,274.157318 55.449707,276.878571 
	C57.334671,278.429688 59.528549,279.605408 61.874153,281.397827 
	C59.445721,290.862305 56.747417,299.885498 53.997700,308.893005 
	C52.757660,312.955109 51.415146,316.985962 49.759140,321.001709 
	C48.782993,320.753387 48.013485,320.699615 47.573040,320.291077 
	C35.954216,309.514038 24.512020,298.540436 12.687470,287.995300 
	C9.359191,285.027130 4.926254,283.297638 0.999997,281.000000 
	C1.000000,263.979095 1.000000,246.958206 0.999999,229.468658 
z"/>
<path fill="#81B5CA" opacity="1.000000" stroke="none" 
	d="
M433.531342,0.999996 
	C434.993835,2.656060 435.663605,4.667951 437.031281,5.913545 
	C451.913971,19.467850 466.928192,32.877678 481.828766,46.412506 
	C483.107147,47.573730 483.828857,49.347771 484.409363,51.137398 
	C462.256195,46.659981 440.338287,43.144753 417.980194,42.479027 
	C417.680817,41.357170 417.621826,40.362400 417.094177,39.854771 
	C410.701538,33.704849 404.349274,27.505398 397.764435,21.564995 
	C391.515350,15.927525 384.956604,10.634322 378.650299,5.058250 
	C377.483215,4.026295 376.869232,2.368794 376.000000,1.000004 
	C395.020905,1.000000 414.041779,1.000000 433.531342,0.999996 
z"/>
<path fill="#CF96B8" opacity="1.000000" stroke="none" 
	d="
M41.834091,421.001068 
	C39.992943,419.936127 37.904587,419.148285 36.350384,417.761658 
	C25.443497,408.031158 14.652346,398.171021 3.799716,388.379425 
	C3.202523,387.840637 2.387151,387.543671 1.336670,387.067078 
	C1.000000,368.645782 1.000000,350.291534 1.378617,331.472961 
	C3.368683,331.706512 5.277909,332.059967 6.545374,333.155762 
	C18.767132,343.722076 30.880922,354.413300 43.015701,365.525726 
	C42.615234,384.322113 42.224663,402.661591 41.834091,421.001068 
z"/>
<path fill="#86B2C8" opacity="1.000000" stroke="none" 
	d="
M375.531342,1.000004 
	C376.869232,2.368794 377.483215,4.026295 378.650299,5.058250 
	C384.956604,10.634322 391.515350,15.927525 397.764435,21.564995 
	C404.349274,27.505398 410.701538,33.704849 417.094177,39.854771 
	C417.621826,40.362400 417.680817,41.357170 417.562653,42.506317 
	C407.787994,42.670437 398.404114,42.178699 389.029694,42.319393 
	C380.682373,42.444664 372.345581,43.270069 364.004120,43.786476 
	C358.416138,38.240612 352.854065,32.668343 347.234131,27.155016 
	C338.555023,18.640551 329.836365,10.166398 321.067230,1.337572 
	C339.020905,1.000000 357.041779,1.000000 375.531342,1.000004 
z"/>
<path fill="#CA99B9" opacity="1.000000" stroke="none" 
	d="
M43.025581,365.068817 
	C30.880922,354.413300 18.767132,343.722076 6.545374,333.155762 
	C5.277909,332.059967 3.368683,331.706512 1.378617,331.004303 
	C1.000000,314.645782 1.000000,298.291534 0.999997,281.468658 
	C4.926254,283.297638 9.359191,285.027130 12.687470,287.995300 
	C24.512020,298.540436 35.954216,309.514038 47.573040,320.291077 
	C48.013485,320.699615 48.782993,320.753387 49.763847,321.438965 
	C48.920921,329.368835 47.728348,336.834686 46.501308,344.294891 
	C45.361843,351.222687 44.185616,358.144409 43.025581,365.068817 
z"/>
<path fill="#FD84AD" opacity="1.000000" stroke="none" 
	d="
M0.999987,750.468689 
	C6.788985,754.622620 12.739831,759.058655 18.330807,763.909546 
	C27.828951,772.150391 37.193630,780.551819 46.421562,789.094055 
	C50.162533,792.557068 53.397865,796.566345 56.931641,800.663574 
	C38.409985,801.000000 19.819967,801.000000 1.000000,801.000000 
	C1.000000,784.313171 1.000000,767.625244 0.999987,750.468689 
z"/>
<path fill="#FEFEFF" opacity="1.000000" stroke="none" 
	d="
M43.015694,365.525726 
	C44.185616,358.144409 45.361843,351.222687 46.501308,344.294891 
	C47.728348,336.834686 48.920921,329.368835 50.123825,321.468201 
	C51.415146,316.985962 52.757660,312.955109 53.997700,308.893005 
	C56.747417,299.885498 59.445721,290.862305 62.242149,281.465332 
	C67.950027,267.671326 73.580734,254.257416 79.272339,240.470764 
	C86.625862,227.674026 93.918488,215.250076 101.274376,202.467163 
	C108.575165,192.651337 115.812683,183.194443 123.238228,173.442245 
	C130.528503,165.013550 137.630753,156.880173 144.890991,148.459778 
	C156.946777,137.981445 168.844559,127.790108 180.930313,117.317726 
	C200.001846,103.139748 219.511627,90.244469 240.850616,79.660347 
	C263.186646,68.695183 286.050690,60.027649 310.104950,53.446953 
	C328.009766,50.138210 345.589325,47.044514 363.586487,43.868649 
	C372.345581,43.270069 380.682373,42.444664 389.029694,42.319393 
	C398.404114,42.178699 407.787994,42.670437 417.585297,42.859741 
	C440.338287,43.144753 462.256195,46.659981 484.419189,51.512405 
	C515.327087,59.181999 544.549316,70.100296 572.540283,85.240555 
	C596.307251,98.683029 618.575806,113.630745 638.817139,131.529800 
	C669.210144,158.405853 694.309448,189.529694 714.658630,224.960754 
	C726.734375,247.369995 737.505432,270.052124 744.408447,294.288940 
	C748.528198,308.753662 751.536987,323.534790 755.108643,338.584259 
	C758.775940,361.914307 761.276550,384.926880 760.820251,408.174255 
	C760.722656,413.145142 760.357605,418.110809 760.163452,423.536499 
	C757.099243,444.711090 753.987305,465.427979 750.863159,486.556610 
	C744.924377,504.730652 738.997742,522.492920 733.023315,540.625122 
	C723.998169,558.092224 715.020813,575.189514 705.944336,592.624146 
	C694.829224,607.712219 683.813110,622.462891 672.593750,637.506653 
	C661.175415,648.909180 649.960510,660.018677 638.466614,671.355042 
	C630.570129,677.818542 622.952515,684.055054 615.141357,690.553894 
	C605.739258,696.916809 596.530640,703.017395 587.092407,709.340698 
	C569.390564,718.136108 551.918335,726.708740 534.190979,735.514038 
	C508.314545,745.635315 481.906128,752.595459 454.406677,757.076904 
	C414.166840,762.674194 374.456055,761.935120 334.440613,754.808105 
	C314.355743,749.167297 294.175659,744.924988 275.132782,737.689575 
	C190.971405,705.712280 127.249176,649.798584 84.506424,570.544739 
	C75.538498,553.916382 69.044685,535.953674 61.220325,518.302124 
	C56.703346,501.314362 51.793541,484.753265 48.242451,467.905762 
	C45.597004,455.354889 44.712341,442.433044 43.037098,429.677307 
	C42.693726,427.062775 42.321873,424.451996 41.898621,421.420288 
	C42.224663,402.661591 42.615234,384.322113 43.015694,365.525726 
M191.334549,147.158096 
	C186.547684,151.410385 181.760803,155.662689 176.384476,160.235672 
	C169.450027,167.445740 162.515579,174.655823 155.048996,182.204788 
	C148.676102,190.100342 142.303223,197.995895 135.393326,206.299393 
	C130.210892,214.123001 125.028450,221.946594 119.354469,230.251190 
	C113.985779,240.679321 108.617096,251.107452 102.682571,261.888824 
	C96.828049,277.260956 90.973534,292.633057 84.769836,308.683960 
	C81.890030,321.457825 79.010223,334.231689 75.936523,347.795532 
	C74.750534,357.866211 73.564545,367.936859 72.210548,378.930176 
	C72.131233,389.953461 72.051910,400.976715 71.866837,412.932220 
	C72.954788,424.954834 74.042740,436.977478 75.053741,449.861969 
	C77.575233,461.948364 80.096725,474.034790 82.783791,486.913239 
	C88.170792,502.307220 93.557793,517.701233 99.045906,533.805481 
	C102.764320,541.406067 106.219170,549.149231 110.242577,556.584778 
	C144.617523,620.112610 194.263031,667.831055 259.383942,699.068176 
	C273.411896,705.797058 288.437500,710.446167 303.621918,716.454224 
	C319.415009,720.013184 335.208130,723.572144 351.716370,727.483643 
	C364.142609,728.607605 376.568878,729.731567 389.925079,730.987244 
	C400.062653,730.988708 410.208435,731.237000 420.334778,730.900696 
	C426.571777,730.693542 432.779114,729.594116 439.850800,728.975647 
	C446.876556,727.967407 454.049622,727.547852 460.898956,725.834290 
	C477.718536,721.626343 494.389038,716.822510 511.873993,712.143982 
	C531.182861,705.465759 549.707947,697.103088 567.814758,686.143921 
	C581.260132,676.779724 594.705505,667.415588 608.757935,657.794495 
	C618.170349,649.195984 627.582825,640.597473 637.584351,631.682739 
	C644.357666,623.786682 651.130981,615.890564 658.266357,607.420593 
	C666.262634,596.312744 674.258850,585.204895 682.724487,573.624451 
	C690.550049,558.103577 698.375549,542.582764 706.653748,526.526855 
	C707.910095,523.130920 709.328735,519.784973 710.393921,516.330078 
	C714.327026,503.572906 718.143188,490.779663 722.369873,477.328003 
	C724.791077,462.551727 727.212280,447.775452 729.847839,432.094666 
	C730.213440,423.729767 730.579041,415.364838 731.072083,406.070160 
	C730.755432,399.370667 730.438843,392.671204 730.034302,385.047699 
	C729.316345,375.363220 728.598389,365.678711 727.902832,355.178650 
	C727.617737,353.740021 727.361328,352.294983 727.042969,350.863770 
	C723.786804,336.225586 720.520630,321.589630 717.123596,306.198059 
	C712.968262,294.563812 709.610779,282.568390 704.532959,271.351715 
	C658.866089,170.475220 582.347412,106.388382 474.719177,79.758545 
	C470.915497,78.817413 466.913208,78.678825 462.301117,77.775803 
	C445.533478,75.841484 428.765839,73.907166 411.163208,71.822395 
	C401.110535,71.959038 391.057831,72.095680 380.113190,72.110916 
	C363.066559,74.675697 346.019897,77.240479 328.140198,79.821983 
	C304.133820,85.205376 280.826508,92.574150 258.311401,104.300217 
	C243.156860,113.176353 228.002335,122.052498 212.224289,131.171127 
	C205.465103,136.403748 198.705902,141.636368 191.334549,147.158096 
z"/>
<path fill="#A1A8C2" opacity="1.000000" stroke="none" 
	d="
M706.201111,527.061890 
	C698.375549,542.582764 690.550049,558.103577 682.108459,573.822632 
	C680.069214,573.252747 678.416077,572.736267 677.258057,571.677979 
	C664.176147,559.721985 651.272156,547.569824 638.112305,535.701050 
	C627.168762,525.831177 615.902771,516.319763 604.862000,506.556366 
	C590.237488,493.623779 575.759155,480.525055 561.071289,467.665253 
	C557.039673,464.135376 552.484314,461.203705 548.104492,457.633179 
	C546.533752,451.610931 542.853516,448.799011 536.928955,448.499146 
	C535.802429,446.507446 535.038269,444.531494 533.639648,443.245728 
	C526.224487,436.428619 518.705078,429.721375 511.102509,423.113373 
	C508.179199,420.572449 504.940582,418.394226 501.702881,415.692871 
	C501.765259,409.306854 498.911407,405.200775 494.206573,401.502106 
	C472.996490,384.828094 452.018555,367.858887 430.950348,351.004333 
	C397.007660,323.850159 363.032471,296.736359 329.184235,269.464966 
	C327.231995,267.892090 325.163696,265.101715 325.078308,262.806152 
	C324.682190,252.160721 324.585022,241.470901 325.114410,230.833481 
	C325.657074,219.929184 328.505859,209.500366 334.508789,200.082520 
	C340.136383,204.827896 345.411041,209.533234 350.754059,214.159607 
	C358.250092,220.650192 365.791595,227.088348 373.324707,233.535995 
	C376.325897,236.104752 379.356689,238.638931 382.189575,241.480865 
	C379.946320,245.525284 377.153381,249.058136 375.954041,253.067642 
	C370.381073,271.698944 387.273987,290.041412 406.203827,285.869965 
	C410.813568,284.854126 413.912811,285.827026 417.440552,288.647766 
	C438.086945,305.156219 458.901489,321.454468 479.670380,337.809601 
	C486.585876,343.255402 490.797455,343.640778 498.051361,339.854187 
	C507.922516,348.677673 517.655273,357.131470 527.223633,365.767426 
	C536.309326,373.967743 545.158081,382.430267 554.231018,390.645020 
	C562.673767,398.289062 571.309631,405.719360 579.794678,413.317261 
	C586.346008,419.183685 592.725342,425.242920 599.305786,431.075867 
	C610.908264,441.360413 622.652771,451.484833 634.246887,461.778687 
	C641.923584,468.594452 649.434937,475.596252 657.032776,482.501099 
	C664.040161,488.869385 671.043518,495.242340 678.092102,501.564880 
	C680.517395,503.740448 683.155212,505.681274 685.554688,507.883240 
	C692.475342,514.234131 699.324097,520.663391 706.201111,527.061890 
z"/>
<path fill="#99ABC4" opacity="1.000000" stroke="none" 
	d="
M706.427429,526.794373 
	C699.324097,520.663391 692.475342,514.234131 685.554688,507.883240 
	C683.155212,505.681274 680.517395,503.740448 678.092102,501.564880 
	C671.043518,495.242340 664.040161,488.869385 657.032776,482.501099 
	C649.434937,475.596252 641.923584,468.594452 634.246887,461.778687 
	C622.652771,451.484833 610.908264,441.360413 599.305786,431.075867 
	C592.725342,425.242920 586.346008,419.183685 579.794678,413.317261 
	C571.309631,405.719360 562.673767,398.289062 554.231018,390.645020 
	C545.158081,382.430267 536.309326,373.967743 527.223633,365.767426 
	C517.655273,357.131470 507.922516,348.677673 498.228699,339.570129 
	C499.359863,334.613892 501.376617,330.261505 501.530090,325.844330 
	C502.014282,311.910797 501.799957,297.952972 502.212585,284.061035 
	C508.176147,288.712036 513.954590,293.114288 519.358215,297.936615 
	C536.749451,313.457001 553.968201,329.170380 571.319031,344.736298 
	C586.230469,358.113708 601.255981,371.363892 616.186157,384.720520 
	C629.213013,396.374451 642.207825,408.064728 655.161987,419.799438 
	C673.958313,436.826416 692.648682,453.970886 711.529358,470.903320 
	C714.640198,473.693176 718.493347,475.655304 722.003357,478.000000 
	C718.143188,490.779663 714.327026,503.572906 710.393921,516.330078 
	C709.328735,519.784973 707.910095,523.130920 706.427429,526.794373 
z"/>
<path fill="#AAA4C0" opacity="1.000000" stroke="none" 
	d="
M155.581131,181.865906 
	C162.515579,174.655823 169.450027,167.445740 176.748657,160.419037 
	C180.724335,163.921661 184.365616,167.209183 187.941162,170.566711 
	C195.644943,177.800735 203.121918,185.289307 211.038742,192.280716 
	C227.796188,207.079407 244.871964,221.517746 261.622070,236.324600 
	C269.406250,243.205719 276.580414,250.774719 284.323425,257.705322 
	C289.601501,262.429688 295.386047,266.588196 301.013916,271.374939 
	C301.514740,276.568390 304.144867,279.906769 307.851105,282.864502 
	C361.909363,326.004883 415.830658,369.317596 470.034485,412.273895 
	C475.981750,416.987091 478.634796,421.683350 478.159027,429.295959 
	C477.372437,441.881744 477.608887,454.531494 477.057678,467.051880 
	C466.099854,457.306366 455.613037,447.533081 444.853973,438.069336 
	C438.477905,432.460938 431.672089,427.341125 424.958923,421.634430 
	C421.009949,407.536133 414.516571,402.459656 399.924194,401.506409 
	C396.749329,398.061462 393.722137,394.870758 390.539551,391.843445 
	C384.449738,386.050781 378.368469,380.242737 372.104858,374.640930 
	C364.748230,368.061676 357.113312,361.793457 349.760864,355.209656 
	C341.739777,348.027100 333.996735,340.533539 325.959442,333.369720 
	C318.923950,327.098846 311.511658,321.249023 304.511292,314.940857 
	C294.085327,305.545837 283.926575,295.854980 273.557343,286.396118 
	C265.233215,278.802856 256.797943,271.330322 248.351852,263.872284 
	C240.539780,256.974091 232.555283,250.268661 224.828278,243.277664 
	C220.667679,239.513351 217.212082,234.929810 212.878845,231.403488 
	C196.677658,218.219223 181.295181,204.167557 166.464890,189.467361 
	C163.368088,186.397720 159.236084,184.372452 155.581131,181.865906 
z"/>
<path fill="#BE9DBC" opacity="1.000000" stroke="none" 
	d="
M85.119019,308.005188 
	C90.973534,292.633057 96.828049,277.260956 103.318237,261.930847 
	C114.147095,270.993164 124.370262,279.979858 134.521210,289.047424 
	C139.840622,293.799103 144.943085,298.795502 150.304520,303.497833 
	C158.246368,310.463318 166.473328,317.107910 174.322845,324.173553 
	C186.842178,335.442719 199.093536,347.009003 211.567001,358.329803 
	C221.401352,367.255402 231.399063,376.001007 241.325104,384.825592 
	C249.973526,392.514282 258.656464,400.164581 267.260803,407.902313 
	C273.171844,413.218048 278.858490,418.787903 284.860687,423.996124 
	C290.064819,428.511841 295.571747,432.678680 301.003937,437.465393 
	C300.978333,458.169342 300.261780,478.482544 307.928131,497.985535 
	C307.082306,498.186127 306.242218,498.434204 305.888336,498.125305 
	C301.348206,494.162170 296.980499,489.996399 292.360352,486.131500 
	C287.750702,482.275421 282.905792,478.700592 278.114655,474.555939 
	C277.726562,468.528259 277.632996,462.917755 276.970551,457.375275 
	C276.453033,453.044952 273.509827,450.312531 269.379486,449.098511 
	C262.596954,447.104980 257.424591,450.158966 253.670715,457.929077 
	C249.546646,454.685608 245.595795,451.685303 242.001465,448.305786 
	C233.699051,440.499634 225.706497,432.360626 217.320374,424.647919 
	C211.951187,419.709808 205.945221,415.468414 200.513672,410.592743 
	C194.272476,404.990326 188.537430,398.819550 182.239914,393.285553 
	C175.149750,387.054932 167.481003,381.480682 160.419571,375.219818 
	C150.917221,366.794586 141.776047,357.962952 132.441345,349.347443 
	C121.751099,339.480927 111.121826,329.544159 100.257072,319.872711 
	C95.477234,315.617859 90.180862,311.943237 85.119019,308.005188 
z"/>
<path fill="#D196B8" opacity="1.000000" stroke="none" 
	d="
M75.130692,449.000061 
	C74.042740,436.977478 72.954788,424.954834 72.284897,412.484558 
	C78.389336,416.445374 84.290855,420.606964 89.706696,425.325958 
	C96.221199,431.002289 102.328201,437.146820 108.601059,443.099823 
	C113.526466,447.774078 118.333046,452.579773 123.384117,457.113525 
	C127.572533,460.872986 132.188477,464.158142 136.353333,467.941498 
	C144.437607,475.285278 152.185791,483.003021 160.353073,490.250427 
	C170.636963,499.376129 181.346893,508.022736 191.603119,517.178345 
	C201.726593,526.215393 211.394363,535.761658 221.474045,544.849426 
	C239.592758,561.185120 257.880554,577.333130 276.075378,593.584534 
	C282.633301,599.442017 289.109161,605.391235 295.653961,611.263550 
	C306.010345,620.555786 316.343445,629.875244 326.800293,639.053406 
	C329.375916,641.314148 332.391235,643.073914 334.999023,645.355164 
	C330.570770,649.449951 329.749084,654.192993 331.742737,659.220154 
	C333.819122,664.456055 338.163300,666.327209 343.698975,666.337952 
	C354.123718,666.358154 364.547913,666.664124 374.995026,667.222900 
	C376.155426,669.350525 376.988159,671.438904 378.480560,672.808533 
	C387.875824,681.431030 397.360504,689.958679 406.930084,698.387756 
	C414.004822,704.619385 421.434113,710.458191 428.353973,716.852356 
	C432.269135,720.469971 435.474640,724.855591 438.999786,728.895325 
	C432.779114,729.594116 426.571777,730.693542 420.334778,730.900696 
	C410.208435,731.237000 400.062653,730.988708 389.386444,730.595337 
	C386.571289,727.369690 384.623230,724.171814 381.958679,721.768066 
	C372.733215,713.445679 363.172211,705.496216 353.900391,697.223877 
	C342.401367,686.964050 331.079651,676.505798 319.648865,666.169128 
	C313.900940,660.971375 308.136047,655.789795 302.281372,650.713196 
	C293.182312,642.823364 283.821686,635.226318 274.902313,627.140747 
	C265.572327,618.683044 256.849731,609.552795 247.477188,601.145081 
	C228.138077,583.796814 208.499695,566.782654 189.070831,549.533752 
	C178.189102,539.872925 167.533371,529.957886 156.681549,520.262939 
	C139.012238,504.477356 121.258713,488.786072 103.558380,473.035126 
	C100.462578,470.280334 97.415154,467.468414 94.412849,464.611969 
	C89.513641,459.950714 84.754143,455.137848 79.737633,450.608276 
	C78.625038,449.603699 76.688072,449.512085 75.130692,449.000061 
z"/>
<path fill="#93ADC5" opacity="1.000000" stroke="none" 
	d="
M722.186646,477.664001 
	C718.493347,475.655304 714.640198,473.693176 711.529358,470.903320 
	C692.648682,453.970886 673.958313,436.826416 655.161987,419.799438 
	C642.207825,408.064728 629.213013,396.374451 616.186157,384.720520 
	C601.255981,371.363892 586.230469,358.113708 571.319031,344.736298 
	C553.968201,329.170380 536.749451,313.457001 519.358215,297.936615 
	C513.954590,293.114288 508.176147,288.712036 502.128876,283.684265 
	C501.716675,266.184540 501.744843,249.118027 502.129974,232.098999 
	C507.062927,235.669357 511.832550,238.970367 516.174805,242.760986 
	C525.375000,250.792465 534.284241,259.156250 543.435669,267.244751 
	C560.698364,282.502441 578.193176,297.500519 595.313782,312.914948 
	C608.231812,324.545624 620.565125,336.824280 633.435669,348.509491 
	C647.666504,361.429565 662.299561,373.905701 676.597412,386.753265 
	C690.776611,399.494232 704.690552,412.530518 718.873596,425.267120 
	C722.140381,428.200714 726.030334,430.440247 729.633545,432.999176 
	C727.212280,447.775452 724.791077,462.551727 722.186646,477.664001 
z"/>
<path fill="#81B5CA" opacity="1.000000" stroke="none" 
	d="
M463.003479,78.166199 
	C466.913208,78.678825 470.915497,78.817413 474.719177,79.758545 
	C582.347412,106.388382 658.866089,170.475220 704.532959,271.351715 
	C709.610779,282.568390 712.968262,294.563812 716.828735,306.528931 
	C715.552673,306.267670 714.451782,305.810181 713.609741,305.061493 
	C708.393738,300.423767 703.276123,295.675171 698.050171,291.048859 
	C687.870605,282.037292 677.587402,273.142273 667.449097,264.084839 
	C659.033997,256.566803 650.826111,248.816925 642.415955,241.293182 
	C632.178467,232.134689 621.746582,223.192780 611.545227,213.994843 
	C601.984497,205.374619 592.769287,196.367584 583.119324,187.851074 
	C572.723755,178.676559 561.794800,170.103104 551.465942,160.857086 
	C535.150452,146.252106 519.169922,131.273590 502.991669,116.514519 
	C493.678864,108.018646 484.133118,99.774536 474.936951,91.155945 
	C470.658813,87.146469 466.963165,82.515472 463.003479,78.166199 
z"/>
<path fill="#86B2C8" opacity="1.000000" stroke="none" 
	d="
M462.652283,77.971001 
	C466.963165,82.515472 470.658813,87.146469 474.936951,91.155945 
	C484.133118,99.774536 493.678864,108.018646 502.991669,116.514519 
	C519.169922,131.273590 535.150452,146.252106 551.465942,160.857086 
	C561.794800,170.103104 572.723755,178.676559 583.119324,187.851074 
	C592.769287,196.367584 601.984497,205.374619 611.545227,213.994843 
	C621.746582,223.192780 632.178467,232.134689 642.415955,241.293182 
	C650.826111,248.816925 659.033997,256.566803 667.449097,264.084839 
	C677.587402,273.142273 687.870605,282.037292 698.050171,291.048859 
	C703.276123,295.675171 708.393738,300.423767 713.609741,305.061493 
	C714.451782,305.810181 715.552673,306.267670 716.895508,306.906433 
	C720.520630,321.589630 723.786804,336.225586 727.042969,350.863770 
	C727.361328,352.294983 727.617737,353.740021 727.562988,355.514252 
	C721.981628,351.340149 716.727417,346.845184 711.501892,342.317139 
	C704.607239,336.342773 697.679688,330.404510 690.866333,324.338470 
	C681.109985,315.652283 671.474304,306.830780 661.726807,298.134613 
	C656.896362,293.825195 651.816711,289.791290 647.050842,285.413910 
	C637.105286,276.279053 627.393433,266.888458 617.392944,257.815277 
	C610.183655,251.274628 602.601257,245.147400 595.294678,238.711502 
	C581.372009,226.447815 567.537415,214.084152 553.646057,201.784805 
	C547.477173,196.322861 541.151245,191.033356 535.094849,185.450607 
	C529.410095,180.210449 524.153748,174.501205 518.410034,169.330399 
	C509.188721,161.028900 499.643555,153.088058 490.379028,144.833435 
	C480.855225,136.347794 471.551361,127.615707 462.059448,119.093681 
	C456.129578,113.769646 449.929169,108.745483 444.033173,103.385452 
	C437.444183,97.395416 430.989044,91.252586 424.615479,85.032990 
	C420.285126,80.807266 416.195465,76.334923 411.998199,71.972855 
	C428.765839,73.907166 445.533478,75.841484 462.652283,77.971001 
z"/>
<path fill="#CC97B9" opacity="1.000000" stroke="none" 
	d="
M335.204407,645.063965 
	C332.391235,643.073914 329.375916,641.314148 326.800293,639.053406 
	C316.343445,629.875244 306.010345,620.555786 295.653961,611.263550 
	C289.109161,605.391235 282.633301,599.442017 276.075378,593.584534 
	C257.880554,577.333130 239.592758,561.185120 221.474045,544.849426 
	C211.394363,535.761658 201.726593,526.215393 191.603119,517.178345 
	C181.346893,508.022736 170.636963,499.376129 160.353073,490.250427 
	C152.185791,483.003021 144.437607,475.285278 136.353333,467.941498 
	C132.188477,464.158142 127.572533,460.872986 123.384117,457.113525 
	C118.333046,452.579773 113.526466,447.774078 108.601059,443.099823 
	C102.328201,437.146820 96.221199,431.002289 89.706696,425.325958 
	C84.290855,420.606964 78.389336,416.445374 72.337769,412.018433 
	C72.051910,400.976715 72.131233,389.953461 72.644836,378.472778 
	C78.365829,381.846375 84.006134,385.280182 88.858055,389.599609 
	C96.527397,396.427246 103.496292,404.036560 111.077309,410.969879 
	C120.010208,419.139587 129.340530,426.873047 138.375244,434.933868 
	C142.426849,438.548767 146.030472,442.668152 150.106476,446.252594 
	C154.534012,450.146149 159.431168,453.506866 163.844940,457.414612 
	C172.408279,464.996185 180.718781,472.862671 189.241623,480.490906 
	C198.120010,488.437286 207.184647,496.175659 216.058578,504.126923 
	C225.069260,512.200806 233.901718,520.473389 242.897079,528.564575 
	C249.546326,534.545410 256.405548,540.293457 263.034210,546.296448 
	C268.801544,551.519348 274.267303,557.076782 280.067413,562.261475 
	C286.101196,567.655090 292.432800,572.713928 298.531372,578.036926 
	C306.534607,585.022461 314.423584,592.138733 322.391052,599.165405 
	C324.870453,601.351990 327.563660,603.306213 329.952515,605.583374 
	C335.432709,610.807190 340.650177,616.312256 346.228149,621.426208 
	C351.955658,626.677307 358.108612,631.466003 363.801941,636.751648 
	C365.370056,638.207520 365.960693,640.716309 366.534912,642.806519 
	C360.283630,642.894287 354.480408,642.655334 348.716217,643.024597 
	C344.187317,643.314758 339.706543,644.356262 335.204407,645.063965 
z"/>
<path fill="#89B1C7" opacity="1.000000" stroke="none" 
	d="
M411.580688,71.897629 
	C416.195465,76.334923 420.285126,80.807266 424.615479,85.032990 
	C430.989044,91.252586 437.444183,97.395416 444.033173,103.385452 
	C449.929169,108.745483 456.129578,113.769646 462.059448,119.093681 
	C471.551361,127.615707 480.855225,136.347794 490.379028,144.833435 
	C499.643555,153.088058 509.188721,161.028900 518.410034,169.330399 
	C524.153748,174.501205 529.410095,180.210449 535.094849,185.450607 
	C541.151245,191.033356 547.477173,196.322861 553.646057,201.784805 
	C567.537415,214.084152 581.372009,226.447815 595.294678,238.711502 
	C602.601257,245.147400 610.183655,251.274628 617.392944,257.815277 
	C627.393433,266.888458 637.105286,276.279053 647.050842,285.413910 
	C651.816711,289.791290 656.896362,293.825195 661.726807,298.134613 
	C671.474304,306.830780 681.109985,315.652283 690.866333,324.338470 
	C697.679688,330.404510 704.607239,336.342773 711.501892,342.317139 
	C716.727417,346.845184 721.981628,351.340149 727.551758,355.922058 
	C728.598389,365.678711 729.316345,375.363220 729.706787,385.497986 
	C728.477661,385.583679 727.403137,385.421478 726.701843,384.822357 
	C721.189941,380.113281 715.741821,375.329285 710.288696,370.551666 
	C702.350281,363.596680 694.365784,356.692749 686.508728,349.646881 
	C678.387634,342.364288 670.439880,334.888702 662.328430,327.595215 
	C658.131287,323.821381 653.654968,320.357941 649.462158,316.579590 
	C641.960938,309.819824 634.537292,302.972198 627.167419,296.069214 
	C624.274414,293.359497 621.781677,290.211792 618.818237,287.589539 
	C603.170776,273.743774 587.407104,260.029449 571.733093,246.213547 
	C562.654907,238.211533 553.647766,230.128479 544.649536,222.036423 
	C537.019104,215.174423 529.408203,208.289413 521.876465,201.319717 
	C519.941040,199.528763 518.528137,197.159317 516.543213,195.438538 
	C511.322876,190.912766 505.796326,186.737869 500.614410,182.170578 
	C488.438019,171.438309 476.413971,160.533295 464.278229,149.754517 
	C460.801819,146.666824 457.056000,143.880844 453.603302,140.768372 
	C442.539001,130.794479 431.595551,120.686432 420.521515,110.723488 
	C414.862213,105.631966 408.925781,100.847321 403.292633,95.728119 
	C397.044434,90.050041 390.909821,84.238472 384.923340,78.286316 
	C383.257568,76.630096 382.291992,74.269676 381.005157,72.232323 
	C391.057831,72.095680 401.110535,71.959038 411.580688,71.897629 
z"/>
<path fill="#8CB0C7" opacity="1.000000" stroke="none" 
	d="
M380.559174,72.171616 
	C382.291992,74.269676 383.257568,76.630096 384.923340,78.286316 
	C390.909821,84.238472 397.044434,90.050041 403.292633,95.728119 
	C408.925781,100.847321 414.862213,105.631966 420.521515,110.723488 
	C431.595551,120.686432 442.539001,130.794479 453.603302,140.768372 
	C457.056000,143.880844 460.801819,146.666824 464.278229,149.754517 
	C476.413971,160.533295 488.438019,171.438309 500.614410,182.170578 
	C505.796326,186.737869 511.322876,190.912766 516.543213,195.438538 
	C518.528137,197.159317 519.941040,199.528763 521.876465,201.319717 
	C529.408203,208.289413 537.019104,215.174423 544.649536,222.036423 
	C553.647766,230.128479 562.654907,238.211533 571.733093,246.213547 
	C587.407104,260.029449 603.170776,273.743774 618.818237,287.589539 
	C621.781677,290.211792 624.274414,293.359497 627.167419,296.069214 
	C634.537292,302.972198 641.960938,309.819824 649.462158,316.579590 
	C653.654968,320.357941 658.131287,323.821381 662.328430,327.595215 
	C670.439880,334.888702 678.387634,342.364288 686.508728,349.646881 
	C694.365784,356.692749 702.350281,363.596680 710.288696,370.551666 
	C715.741821,375.329285 721.189941,380.113281 726.701843,384.822357 
	C727.403137,385.421478 728.477661,385.583679 729.750732,385.960022 
	C730.438843,392.671204 730.755432,399.370667 730.644165,406.515076 
	C725.043396,402.977203 719.599121,399.296692 714.755737,394.947113 
	C705.401794,386.546753 696.554260,377.582214 687.193298,369.190033 
	C672.109985,355.667755 656.710205,342.499115 641.581848,329.026398 
	C632.294312,320.755280 623.368408,312.078400 614.094238,303.791779 
	C597.395264,288.870880 580.548767,274.115082 563.779358,259.272858 
	C555.074585,251.568481 546.347412,243.888000 537.730225,236.086472 
	C526.909668,226.290192 516.285889,216.274490 505.371155,206.585663 
	C502.118683,203.698486 498.174164,201.590958 494.358521,198.850616 
	C480.312164,166.783020 456.683258,146.220123 422.776886,138.863358 
	C411.569244,136.431580 399.615875,137.436798 387.933350,136.530640 
	C386.695831,134.656494 385.733704,132.893585 384.324768,131.628250 
	C378.703186,126.579544 372.891052,121.743591 367.244843,116.721626 
	C357.636047,108.175224 347.982727,99.672493 338.591827,90.890747 
	C335.037964,87.567375 332.159576,83.521690 328.973267,79.805252 
	C346.019897,77.240479 363.066559,74.675697 380.559174,72.171616 
z"/>
<path fill="#B89FBD" opacity="1.000000" stroke="none" 
	d="
M300.944824,436.999725 
	C295.571747,432.678680 290.064819,428.511841 284.860687,423.996124 
	C278.858490,418.787903 273.171844,413.218048 267.260803,407.902313 
	C258.656464,400.164581 249.973526,392.514282 241.325104,384.825592 
	C231.399063,376.001007 221.401352,367.255402 211.567001,358.329803 
	C199.093536,347.009003 186.842178,335.442719 174.322845,324.173553 
	C166.473328,317.107910 158.246368,310.463318 150.304520,303.497833 
	C144.943085,298.795502 139.840622,293.799103 134.521210,289.047424 
	C124.370262,279.979858 114.147095,270.993164 103.601158,261.754242 
	C108.617096,251.107452 113.985779,240.679321 119.831833,230.278320 
	C130.519379,239.017670 140.880188,247.560638 150.904358,256.481873 
	C165.887650,269.816528 180.558868,283.501404 195.503448,296.880188 
	C208.976685,308.941772 222.752655,320.665985 236.188538,332.768280 
	C252.333618,347.310883 268.179138,362.186157 284.327759,376.724792 
	C289.587891,381.460541 295.392212,385.591919 301.006592,390.465393 
	C301.025299,406.287323 300.985046,421.643524 300.944824,436.999725 
z"/>
<path fill="#C999B9" opacity="1.000000" stroke="none" 
	d="
M366.999847,642.741943 
	C365.960693,640.716309 365.370056,638.207520 363.801941,636.751648 
	C358.108612,631.466003 351.955658,626.677307 346.228149,621.426208 
	C340.650177,616.312256 335.432709,610.807190 329.952515,605.583374 
	C327.563660,603.306213 324.870453,601.351990 322.391052,599.165405 
	C314.423584,592.138733 306.534607,585.022461 298.531372,578.036926 
	C292.432800,572.713928 286.101196,567.655090 280.067413,562.261475 
	C274.267303,557.076782 268.801544,551.519348 263.034210,546.296448 
	C256.405548,540.293457 249.546326,534.545410 242.897079,528.564575 
	C233.901718,520.473389 225.069260,512.200806 216.058578,504.126923 
	C207.184647,496.175659 198.120010,488.437286 189.241623,480.490906 
	C180.718781,472.862671 172.408279,464.996185 163.844940,457.414612 
	C159.431168,453.506866 154.534012,450.146149 150.106476,446.252594 
	C146.030472,442.668152 142.426849,438.548767 138.375244,434.933868 
	C129.340530,426.873047 120.010208,419.139587 111.077309,410.969879 
	C103.496292,404.036560 96.527397,396.427246 88.858055,389.599609 
	C84.006134,385.280182 78.365829,381.846375 72.728836,378.011444 
	C73.564545,367.936859 74.750534,357.866211 76.359100,347.472626 
	C78.079597,348.158386 79.447479,349.089600 80.664040,350.188324 
	C88.301071,357.085632 95.856102,364.074280 103.529198,370.930939 
	C118.250031,384.085419 133.073181,397.125549 147.772369,410.304016 
	C156.645416,418.259155 165.299286,426.458801 174.175095,434.410767 
	C180.958694,440.488373 188.020142,446.256073 194.797058,452.340912 
	C199.221069,456.313171 203.224503,460.754456 207.655899,464.717743 
	C213.137054,469.619904 219.013611,474.082428 224.456406,479.024414 
	C234.373215,488.028748 243.971924,497.386932 253.998291,506.264343 
	C256.175446,508.192017 259.596344,508.714996 262.626160,510.174866 
	C272.857697,537.699158 289.402374,560.160461 312.468506,577.772156 
	C329.377167,590.682434 348.397003,599.148315 369.022705,604.539429 
	C370.001495,606.125122 370.810089,607.520264 371.936005,608.577209 
	C378.963806,615.174500 386.062531,621.696289 392.972656,628.546875 
	C391.067596,633.304749 389.327606,637.758972 387.381042,642.741943 
	C381.096741,642.741943 374.048309,642.741943 366.999847,642.741943 
z"/>
<path fill="#D495B7" opacity="1.000000" stroke="none" 
	d="
M75.092224,449.431030 
	C76.688072,449.512085 78.625038,449.603699 79.737633,450.608276 
	C84.754143,455.137848 89.513641,459.950714 94.412849,464.611969 
	C97.415154,467.468414 100.462578,470.280334 103.558380,473.035126 
	C121.258713,488.786072 139.012238,504.477356 156.681549,520.262939 
	C167.533371,529.957886 178.189102,539.872925 189.070831,549.533752 
	C208.499695,566.782654 228.138077,583.796814 247.477188,601.145081 
	C256.849731,609.552795 265.572327,618.683044 274.902313,627.140747 
	C283.821686,635.226318 293.182312,642.823364 302.281372,650.713196 
	C308.136047,655.789795 313.900940,660.971375 319.648865,666.169128 
	C331.079651,676.505798 342.401367,686.964050 353.900391,697.223877 
	C363.172211,705.496216 372.733215,713.445679 381.958679,721.768066 
	C384.623230,724.171814 386.571289,727.369690 388.921448,730.529541 
	C376.568878,729.731567 364.142609,728.607605 351.341461,726.932373 
	C349.947998,724.735596 349.241425,722.742432 347.859161,721.502319 
	C340.100525,714.541748 332.145325,707.800903 324.331573,700.900818 
	C321.617737,698.504456 319.209320,695.762878 316.502777,693.357544 
	C303.145233,681.486450 289.696533,669.717834 276.359558,657.823853 
	C270.320343,652.438049 264.538696,646.763733 258.511261,641.364258 
	C247.900970,631.859314 237.169357,622.490051 226.530594,613.016724 
	C217.265320,604.766418 208.071167,596.436279 198.821564,588.168335 
	C189.214706,579.581116 179.526077,571.084534 169.971588,562.439575 
	C161.147751,554.455750 152.533417,546.239868 143.685638,538.283081 
	C128.645538,524.757568 113.583458,511.253418 98.339104,497.959930 
	C93.407631,493.659546 87.875565,490.047882 82.618217,486.121185 
	C80.096725,474.034790 77.575233,461.948364 75.092224,449.431030 
z"/>
<path fill="#C59ABA" opacity="1.000000" stroke="none" 
	d="
M262.444366,509.884979 
	C259.596344,508.714996 256.175446,508.192017 253.998291,506.264343 
	C243.971924,497.386932 234.373215,488.028748 224.456406,479.024414 
	C219.013611,474.082428 213.137054,469.619904 207.655899,464.717743 
	C203.224503,460.754456 199.221069,456.313171 194.797058,452.340912 
	C188.020142,446.256073 180.958694,440.488373 174.175095,434.410767 
	C165.299286,426.458801 156.645416,418.259155 147.772369,410.304016 
	C133.073181,397.125549 118.250031,384.085419 103.529198,370.930939 
	C95.856102,364.074280 88.301071,357.085632 80.664040,350.188324 
	C79.447479,349.089600 78.079597,348.158386 76.456047,347.077637 
	C79.010223,334.231689 81.890030,321.457825 84.944427,308.344574 
	C90.180862,311.943237 95.477234,315.617859 100.257072,319.872711 
	C111.121826,329.544159 121.751099,339.480927 132.441345,349.347443 
	C141.776047,357.962952 150.917221,366.794586 160.419571,375.219818 
	C167.481003,381.480682 175.149750,387.054932 182.239914,393.285553 
	C188.537430,398.819550 194.272476,404.990326 200.513672,410.592743 
	C205.945221,415.468414 211.951187,419.709808 217.320374,424.647919 
	C225.706497,432.360626 233.699051,440.499634 242.001465,448.305786 
	C245.595795,451.685303 249.546646,454.685608 253.694824,458.395874 
	C253.403702,476.485046 257.231750,493.299011 262.444366,509.884979 
z"/>
<path fill="#AFA2BF" opacity="1.000000" stroke="none" 
	d="
M155.315063,182.035339 
	C159.236084,184.372452 163.368088,186.397720 166.464890,189.467361 
	C181.295181,204.167557 196.677658,218.219223 212.878845,231.403488 
	C217.212082,234.929810 220.667679,239.513351 224.828278,243.277664 
	C232.555283,250.268661 240.539780,256.974091 248.351852,263.872284 
	C256.797943,271.330322 265.233215,278.802856 273.557343,286.396118 
	C283.926575,295.854980 294.085327,305.545837 304.511292,314.940857 
	C311.511658,321.249023 318.923950,327.098846 325.959442,333.369720 
	C333.996735,340.533539 341.739777,348.027100 349.760864,355.209656 
	C357.113312,361.793457 364.748230,368.061676 372.104858,374.640930 
	C378.368469,380.242737 384.449738,386.050781 390.539551,391.843445 
	C393.722137,394.870758 396.749329,398.061462 399.516418,401.561035 
	C393.657349,403.867615 389.933533,400.766724 385.975281,397.574646 
	C364.616791,380.350403 343.175995,363.227753 321.698547,346.151855 
	C313.456604,339.598999 304.797852,342.136749 300.723358,351.935699 
	C298.120819,350.218811 295.686401,348.760834 293.644836,346.877045 
	C289.021545,342.611053 284.762146,337.942291 280.049805,333.782806 
	C268.487793,323.577209 256.657440,313.675201 245.114853,303.448090 
	C233.347717,293.021942 221.825256,282.320190 210.141556,271.799194 
	C194.499832,257.714050 178.842712,243.645523 163.120468,229.650436 
	C154.130615,221.648178 144.998428,213.805817 135.930328,205.891449 
	C142.303223,197.995895 148.676102,190.100342 155.315063,182.035339 
z"/>
<path fill="#D793B6" opacity="1.000000" stroke="none" 
	d="
M82.701004,486.517212 
	C87.875565,490.047882 93.407631,493.659546 98.339104,497.959930 
	C113.583458,511.253418 128.645538,524.757568 143.685638,538.283081 
	C152.533417,546.239868 161.147751,554.455750 169.971588,562.439575 
	C179.526077,571.084534 189.214706,579.581116 198.821564,588.168335 
	C208.071167,596.436279 217.265320,604.766418 226.530594,613.016724 
	C237.169357,622.490051 247.900970,631.859314 258.511261,641.364258 
	C264.538696,646.763733 270.320343,652.438049 276.359558,657.823853 
	C289.696533,669.717834 303.145233,681.486450 316.502777,693.357544 
	C319.209320,695.762878 321.617737,698.504456 324.331573,700.900818 
	C332.145325,707.800903 340.100525,714.541748 347.859161,721.502319 
	C349.241425,722.742432 349.947998,724.735596 350.983887,726.756104 
	C335.208130,723.572144 319.415009,720.013184 303.246735,715.910645 
	C300.361115,712.317688 298.149689,708.946045 295.280029,706.283936 
	C288.647339,700.130920 281.683990,694.335083 274.879303,688.366272 
	C272.384857,686.178345 270.009308,683.853760 267.493713,681.691223 
	C260.335724,675.538086 252.988754,669.596802 245.983383,663.275940 
	C235.933197,654.207764 226.214523,644.772644 216.183136,635.682983 
	C200.079819,621.091492 183.802643,606.692078 167.668930,592.133911 
	C161.304916,586.391418 155.260513,580.291443 148.833176,574.623413 
	C141.048096,567.758118 132.920044,561.282471 125.109818,554.444763 
	C117.402222,547.696838 109.937721,540.671631 102.267197,533.880310 
	C101.516479,533.215637 100.068909,533.338135 98.944786,533.095215 
	C93.557793,517.701233 88.170792,502.307220 82.701004,486.517212 
z"/>
<path fill="#C09DBC" opacity="1.000000" stroke="none" 
	d="
M567.154114,686.421631 
	C549.707947,697.103088 531.182861,705.465759 511.322906,711.888916 
	C510.246918,710.991760 509.796387,710.266724 509.186127,709.719849 
	C497.597839,699.334900 485.854462,689.117371 474.462158,678.522217 
	C470.531158,674.866333 467.464294,670.281311 464.292603,665.931396 
	C470.569580,662.187378 473.091095,657.298279 471.721954,651.898926 
	C470.254578,646.112183 465.703857,643.044678 458.472321,642.937012 
	C456.648254,642.909851 454.825287,642.809448 452.978210,642.400757 
	C452.462067,641.041443 452.211121,639.764587 451.439819,639.046692 
	C442.997375,631.188049 434.426178,623.467590 425.998688,615.593201 
	C423.174896,612.954712 420.661255,609.984253 418.413391,607.102112 
	C420.260132,606.699402 421.683929,606.259460 423.140900,606.036194 
	C438.482666,603.685303 453.132568,599.161133 467.024780,592.519165 
	C473.096191,599.404602 478.710114,606.422424 485.286011,612.378235 
	C500.910126,626.529114 517.095337,640.058350 532.845337,654.073120 
	C542.151733,662.354248 551.068726,671.073364 560.142883,679.614685 
	C562.514526,681.847046 564.818848,684.150696 567.154114,686.421631 
z"/>
<path fill="#A8A5C0" opacity="1.000000" stroke="none" 
	d="
M548.169250,457.997559 
	C552.484314,461.203705 557.039673,464.135376 561.071289,467.665253 
	C575.759155,480.525055 590.237488,493.623779 604.862000,506.556366 
	C615.902771,516.319763 627.168762,525.831177 638.112305,535.701050 
	C651.272156,547.569824 664.176147,559.721985 677.258057,571.677979 
	C678.416077,572.736267 680.069214,573.252747 681.873779,574.058960 
	C674.258850,585.204895 666.262634,596.312744 657.750549,607.634766 
	C655.490906,606.614380 653.589600,605.550354 652.032410,604.113464 
	C647.171448,599.627869 642.569641,594.856384 637.631714,590.460510 
	C628.138489,582.009583 618.414490,573.817932 608.918945,565.369507 
	C602.248779,559.434814 595.836365,553.211609 589.240662,547.191956 
	C580.328796,539.058289 571.437683,530.898193 562.373779,522.936035 
	C555.685059,517.060364 548.734314,511.482941 541.917969,505.393982 
	C546.698975,489.698792 548.744080,474.021851 548.169250,457.997559 
z"/>
<path fill="#B4A1BE" opacity="1.000000" stroke="none" 
	d="
M135.661835,206.095428 
	C144.998428,213.805817 154.130615,221.648178 163.120468,229.650436 
	C178.842712,243.645523 194.499832,257.714050 210.141556,271.799194 
	C221.825256,282.320190 233.347717,293.021942 245.114853,303.448090 
	C256.657440,313.675201 268.487793,323.577209 280.049805,333.782806 
	C284.762146,337.942291 289.021545,342.611053 293.644836,346.877045 
	C295.686401,348.760834 298.120819,350.218811 300.745789,352.403778 
	C301.059021,365.291534 301.003296,377.645599 300.947632,389.999695 
	C295.392212,385.591919 289.587891,381.460541 284.327759,376.724792 
	C268.179138,362.186157 252.333618,347.310883 236.188538,332.768280 
	C222.752655,320.665985 208.976685,308.941772 195.503448,296.880188 
	C180.558868,283.501404 165.887650,269.816528 150.904358,256.481873 
	C140.880188,247.560638 130.519379,239.017670 120.077606,230.037827 
	C125.028450,221.946594 130.210892,214.123001 135.661835,206.095428 
z"/>
<path fill="#B89FBD" opacity="1.000000" stroke="none" 
	d="
M567.484436,686.282776 
	C564.818848,684.150696 562.514526,681.847046 560.142883,679.614685 
	C551.068726,671.073364 542.151733,662.354248 532.845337,654.073120 
	C517.095337,640.058350 500.910126,626.529114 485.286011,612.378235 
	C478.710114,606.422424 473.096191,599.404602 467.335449,592.345886 
	C481.366730,584.963257 493.438141,575.736084 505.062012,565.867798 
	C519.749573,579.461365 534.151794,592.853088 548.731628,606.048584 
	C563.740112,619.632019 578.882812,633.068237 594.051514,646.472961 
	C598.605591,650.497375 603.443176,654.200928 608.150879,658.051453 
	C594.705505,667.415588 581.260132,676.779724 567.484436,686.282776 
z"/>
<path fill="#DB92B6" opacity="1.000000" stroke="none" 
	d="
M98.995346,533.450317 
	C100.068909,533.338135 101.516479,533.215637 102.267197,533.880310 
	C109.937721,540.671631 117.402222,547.696838 125.109818,554.444763 
	C132.920044,561.282471 141.048096,567.758118 148.833176,574.623413 
	C155.260513,580.291443 161.304916,586.391418 167.668930,592.133911 
	C183.802643,606.692078 200.079819,621.091492 216.183136,635.682983 
	C226.214523,644.772644 235.933197,654.207764 245.983383,663.275940 
	C252.988754,669.596802 260.335724,675.538086 267.493713,681.691223 
	C270.009308,683.853760 272.384857,686.178345 274.879303,688.366272 
	C281.683990,694.335083 288.647339,700.130920 295.280029,706.283936 
	C298.149689,708.946045 300.361115,712.317688 302.937561,715.710205 
	C288.437500,710.446167 273.411896,705.797058 259.383942,699.068176 
	C194.263031,667.831055 144.617523,620.112610 110.242577,556.584778 
	C106.219170,549.149231 102.764320,541.406067 98.995346,533.450317 
z"/>
<path fill="#8EAFC7" opacity="1.000000" stroke="none" 
	d="
M494.546722,199.126221 
	C498.174164,201.590958 502.118683,203.698486 505.371155,206.585663 
	C516.285889,216.274490 526.909668,226.290192 537.730225,236.086472 
	C546.347412,243.888000 555.074585,251.568481 563.779358,259.272858 
	C580.548767,274.115082 597.395264,288.870880 614.094238,303.791779 
	C623.368408,312.078400 632.294312,320.755280 641.581848,329.026398 
	C656.710205,342.499115 672.109985,355.667755 687.193298,369.190033 
	C696.554260,377.582214 705.401794,386.546753 714.755737,394.947113 
	C719.599121,399.296692 725.043396,402.977203 730.580444,406.979980 
	C730.579041,415.364838 730.213440,423.729767 729.740723,432.546936 
	C726.030334,430.440247 722.140381,428.200714 718.873596,425.267120 
	C704.690552,412.530518 690.776611,399.494232 676.597412,386.753265 
	C662.299561,373.905701 647.666504,361.429565 633.435669,348.509491 
	C620.565125,336.824280 608.231812,324.545624 595.313782,312.914948 
	C578.193176,297.500519 560.698364,282.502441 543.435669,267.244751 
	C534.284241,259.156250 525.375000,250.792465 516.174805,242.760986 
	C511.832550,238.970367 507.062927,235.669357 501.966614,231.739670 
	C499.146454,220.597305 496.846588,209.861755 494.546722,199.126221 
z"/>
<path fill="#96ACC5" opacity="1.000000" stroke="none" 
	d="
M328.556732,79.813614 
	C332.159576,83.521690 335.037964,87.567375 338.591827,90.890747 
	C347.982727,99.672493 357.636047,108.175224 367.244843,116.721626 
	C372.891052,121.743591 378.703186,126.579544 384.324768,131.628250 
	C385.733704,132.893585 386.695831,134.656494 387.546021,136.644714 
	C380.357666,138.877930 373.343048,140.236435 366.644714,142.521988 
	C351.601868,147.654770 339.083313,156.833160 327.647461,167.807877 
	C315.623352,156.953918 303.962555,146.178421 292.104736,135.624222 
	C282.460236,127.040024 272.510345,118.798904 262.868225,110.212151 
	C261.149017,108.681137 260.271790,106.204681 259.005768,104.164780 
	C280.826508,92.574150 304.133820,85.205376 328.556732,79.813614 
z"/>
<path fill="#B2A2BF" opacity="1.000000" stroke="none" 
	d="
M608.454407,657.922974 
	C603.443176,654.200928 598.605591,650.497375 594.051514,646.472961 
	C578.882812,633.068237 563.740112,619.632019 548.731628,606.048584 
	C534.151794,592.853088 519.749573,579.461365 505.233826,565.606140 
	C513.041931,555.013794 520.885620,544.971069 529.039185,535.088318 
	C536.353271,541.786377 543.258057,548.435181 550.383545,554.838440 
	C563.047852,566.218933 575.861694,577.432800 588.582336,588.750854 
	C596.996460,596.237183 605.346863,603.795105 613.744751,611.299866 
	C621.481873,618.214111 629.244141,625.100342 636.995300,631.998962 
	C627.582825,640.597473 618.170349,649.195984 608.454407,657.922974 
z"/>
<path fill="#9FA9C3" opacity="1.000000" stroke="none" 
	d="
M258.658569,104.232498 
	C260.271790,106.204681 261.149017,108.681137 262.868225,110.212151 
	C272.510345,118.798904 282.460236,127.040024 292.104736,135.624222 
	C303.962555,146.178421 315.623352,156.953918 327.520447,168.114029 
	C324.588043,172.517761 320.816711,176.084427 318.559174,180.436371 
	C313.298615,190.577271 308.766632,201.096085 303.542694,211.344482 
	C295.092468,204.477615 286.923645,197.859879 279.017090,190.942368 
	C270.673065,183.642059 262.614807,176.016205 254.364365,168.607544 
	C248.204590,163.076233 241.862488,157.746948 235.737640,152.178055 
	C228.035141,145.174698 220.471405,138.018753 212.847794,130.928650 
	C228.002335,122.052498 243.156860,113.176353 258.658569,104.232498 
z"/>
<path fill="#C999B9" opacity="1.000000" stroke="none" 
	d="
M464.002716,666.120667 
	C467.464294,670.281311 470.531158,674.866333 474.462158,678.522217 
	C485.854462,689.117371 497.597839,699.334900 509.186127,709.719849 
	C509.796387,710.266724 510.246918,710.991760 510.945679,711.946045 
	C494.389038,716.822510 477.718536,721.626343 460.898956,725.834290 
	C454.049622,727.547852 446.876556,727.967407 439.425293,728.935486 
	C435.474640,724.855591 432.269135,720.469971 428.353973,716.852356 
	C421.434113,710.458191 414.004822,704.619385 406.930084,698.387756 
	C397.360504,689.958679 387.875824,681.431030 378.480560,672.808533 
	C376.988159,671.438904 376.155426,669.350525 375.372437,667.071838 
	C388.198151,666.480469 400.669067,666.404297 413.140076,666.344604 
	C430.094269,666.263428 447.048492,666.194702 464.002716,666.120667 
z"/>
<path fill="#ADA3BF" opacity="1.000000" stroke="none" 
	d="
M637.289795,631.840820 
	C629.244141,625.100342 621.481873,618.214111 613.744751,611.299866 
	C605.346863,603.795105 596.996460,596.237183 588.582336,588.750854 
	C575.861694,577.432800 563.047852,566.218933 550.383545,554.838440 
	C543.258057,548.435181 536.353271,541.786377 529.140625,534.738281 
	C533.254944,524.743164 537.577576,515.257874 541.900269,505.772614 
	C548.734314,511.482941 555.685059,517.060364 562.373779,522.936035 
	C571.437683,530.898193 580.328796,539.058289 589.240662,547.191956 
	C595.836365,553.211609 602.248779,559.434814 608.918945,565.369507 
	C618.414490,573.817932 628.138489,582.009583 637.631714,590.460510 
	C642.569641,594.856384 647.171448,599.627869 652.032410,604.113464 
	C653.589600,605.550354 655.490906,606.614380 657.569519,607.921753 
	C651.130981,615.890564 644.357666,623.786682 637.289795,631.840820 
z"/>
<path fill="#A4A7C1" opacity="1.000000" stroke="none" 
	d="
M212.536041,131.049896 
	C220.471405,138.018753 228.035141,145.174698 235.737640,152.178055 
	C241.862488,157.746948 248.204590,163.076233 254.364365,168.607544 
	C262.614807,176.016205 270.673065,183.642059 279.017090,190.942368 
	C286.923645,197.859879 295.092468,204.477615 303.487000,211.765625 
	C302.866638,222.869385 301.905243,233.434708 300.608398,243.929138 
	C299.442780,243.328796 298.525360,242.898270 297.795929,242.254684 
	C290.151886,235.510391 282.547546,228.721222 274.913666,221.965408 
	C261.028503,209.677292 247.149567,197.382065 233.231369,185.131439 
	C224.660904,177.587860 215.884109,170.272675 207.464279,162.566162 
	C202.043686,157.604813 197.102661,152.119461 191.946701,146.868973 
	C198.705902,141.636368 205.465103,136.403748 212.536041,131.049896 
z"/>
<path fill="#A7A5C1" opacity="1.000000" stroke="none" 
	d="
M191.640625,147.013535 
	C197.102661,152.119461 202.043686,157.604813 207.464279,162.566162 
	C215.884109,170.272675 224.660904,177.587860 233.231369,185.131439 
	C247.149567,197.382065 261.028503,209.677292 274.913666,221.965408 
	C282.547546,228.721222 290.151886,235.510391 297.795929,242.254684 
	C298.525360,242.898270 299.442780,243.328796 300.669342,244.394562 
	C301.025208,253.620499 300.984680,262.310089 300.944153,270.999695 
	C295.386047,266.588196 289.601501,262.429688 284.323425,257.705322 
	C276.580414,250.774719 269.406250,243.205719 261.622070,236.324600 
	C244.871964,221.517746 227.796188,207.079407 211.038742,192.280716 
	C203.121918,185.289307 195.644943,177.800735 187.941162,170.566711 
	C184.365616,167.209183 180.724335,163.921661 177.043396,160.258698 
	C181.760803,155.662689 186.547684,151.410385 191.640625,147.013535 
z"/>
<path fill="#FEFEFE" opacity="1.000000" stroke="none" 
	d="
M301.013916,271.374939 
	C300.984680,262.310089 301.025208,253.620499 301.004822,244.465454 
	C301.905243,233.434708 302.866638,222.869385 303.883728,211.882935 
	C308.766632,201.096085 313.298615,190.577271 318.559174,180.436371 
	C320.816711,176.084427 324.588043,172.517761 327.798584,168.288147 
	C339.083313,156.833160 351.601868,147.654770 366.644714,142.521988 
	C373.343048,140.236435 380.357666,138.877930 387.616089,136.984604 
	C399.615875,137.436798 411.569244,136.431580 422.776886,138.863358 
	C456.683258,146.220123 480.312164,166.783020 494.358521,198.850616 
	C496.846588,209.861755 499.146454,220.597305 501.609680,231.692184 
	C501.744843,249.118027 501.716675,266.184540 501.772217,283.627808 
	C501.799957,297.952972 502.014282,311.910797 501.530090,325.844330 
	C501.376617,330.261505 499.359863,334.613892 498.018433,339.280029 
	C490.797455,343.640778 486.585876,343.255402 479.670380,337.809601 
	C458.901489,321.454468 438.086945,305.156219 417.440552,288.647766 
	C413.912811,285.827026 410.813568,284.854126 406.203827,285.869965 
	C387.273987,290.041412 370.381073,271.698944 375.954041,253.067642 
	C377.153381,249.058136 379.946320,245.525284 382.461823,241.306107 
	C388.784821,234.505341 396.293274,233.615128 404.393677,233.941299 
	C416.722534,234.437729 428.750977,246.234543 427.522095,261.274017 
	C427.215240,265.029327 427.932129,267.055878 430.686066,269.201843 
	C444.995026,280.351776 459.200165,291.634888 473.458252,302.850281 
	C474.674683,303.807098 476.014130,304.607452 477.833435,305.846100 
	C477.833435,297.604462 477.833435,290.299133 477.888641,282.528412 
	C477.906830,270.706848 477.869812,259.350616 477.888458,247.529602 
	C477.164581,237.181320 477.533020,227.043060 475.405548,217.458817 
	C466.495056,177.316696 423.116486,151.679581 382.635834,162.222504 
	C373.849213,166.237045 365.434387,170.238617 356.718872,174.363556 
	C347.093048,181.325867 339.393585,189.581024 334.186371,200.007263 
	C328.505859,209.500366 325.657074,219.929184 325.114410,230.833481 
	C324.585022,241.470901 324.682190,252.160721 325.078308,262.806152 
	C325.163696,265.101715 327.231995,267.892090 329.184235,269.464966 
	C363.032471,296.736359 397.007660,323.850159 430.950348,351.004333 
	C452.018555,367.858887 472.996490,384.828094 494.206573,401.502106 
	C498.911407,405.200775 501.765259,409.306854 501.649048,416.155212 
	C501.168671,439.644501 503.107391,462.420929 498.612549,485.219910 
	C497.265747,488.964630 496.219910,492.450684 494.992584,495.871674 
	C490.392883,508.692841 482.664490,519.584961 473.616638,530.003784 
	C461.278107,542.193542 447.149689,550.829285 430.627686,556.212646 
	C419.459808,557.823853 408.678070,560.587402 397.882568,560.642212 
	C388.595825,560.689453 379.293335,557.645996 369.682312,555.785217 
	C360.877289,551.171326 351.934021,547.426697 343.992645,542.168762 
	C327.479675,531.235657 316.083984,515.820496 308.159851,497.774109 
	C300.261780,478.482544 300.978333,458.169342 301.003906,437.465393 
	C300.985046,421.643524 301.025299,406.287323 301.006561,390.465393 
	C301.003296,377.645599 301.059021,365.291534 301.092285,352.469360 
	C304.797852,342.136749 313.456604,339.598999 321.698547,346.151855 
	C343.175995,363.227753 364.616791,380.350403 385.975281,397.574646 
	C389.933533,400.766724 393.657349,403.867615 399.593903,401.889099 
	C414.516571,402.459656 421.009949,407.536133 424.918335,422.071960 
	C425.344879,434.267090 419.892914,442.065002 409.617828,447.158875 
	C405.992767,447.772614 402.589691,449.303040 399.549042,448.769165 
	C385.796509,446.354309 377.867401,436.994232 377.801605,424.843109 
	C377.791016,422.892883 376.520660,420.347015 374.995605,419.100830 
	C360.069000,406.903870 344.970367,394.917175 329.900940,382.895477 
	C328.589020,381.848907 327.136200,380.978943 325.054443,379.550476 
	C325.054443,394.124023 325.054443,407.563110 324.996307,421.467743 
	C324.963409,436.758881 324.984833,451.584503 325.018860,466.410095 
	C325.023041,468.240936 324.786499,470.141357 325.182373,471.891724 
	C329.282166,490.018280 337.124359,505.951874 351.492401,518.394958 
	C376.693176,540.219421 416.218201,543.207947 442.318359,524.811890 
	C445.334534,522.538025 448.324127,520.637451 450.663788,518.130432 
	C456.029724,512.380615 461.078644,506.334991 466.508606,500.164795 
	C473.025421,489.880371 476.698700,478.998169 477.414246,467.154266 
	C477.608887,454.531494 477.372437,441.881744 478.159027,429.295959 
	C478.634796,421.683350 475.981750,416.987091 470.034485,412.273895 
	C415.830658,369.317596 361.909363,326.004883 307.851105,282.864502 
	C304.144867,279.906769 301.514740,276.568390 301.013916,271.374939 
M394.745880,265.755981 
	C400.593231,272.409973 409.385834,267.166992 409.989655,261.454834 
	C410.413940,257.441040 409.175720,254.246292 405.539551,252.290344 
	C401.955872,250.362625 398.398621,250.585464 395.487213,253.497482 
	C392.028473,256.956970 391.507355,260.960846 394.745880,265.755981 
z"/>
<path fill="#FEFEFE" opacity="1.000000" stroke="none" 
	d="
M541.917969,505.393982 
	C537.577576,515.257874 533.254944,524.743164 528.830811,534.578369 
	C520.885620,544.971069 513.041931,555.013794 505.026459,565.318176 
	C493.438141,575.736084 481.366730,584.963257 467.315277,591.995483 
	C453.132568,599.161133 438.482666,603.685303 423.140900,606.036194 
	C421.683929,606.259460 420.260132,606.699402 417.972412,607.035278 
	C400.886292,609.407898 384.919800,607.188782 368.999176,604.192505 
	C348.397003,599.148315 329.377167,590.682434 312.468506,577.772156 
	C289.402374,560.160461 272.857697,537.699158 262.626160,510.174866 
	C257.231750,493.299011 253.403702,476.485046 254.029968,458.466797 
	C257.424591,450.158966 262.596954,447.104980 269.379486,449.098511 
	C273.509827,450.312531 276.453033,453.044952 276.970551,457.375275 
	C277.632996,462.917755 277.726562,468.528259 278.096191,474.950867 
	C278.495422,477.402344 278.923981,479.001312 279.223236,480.624115 
	C285.426819,514.261475 302.137329,541.373901 330.017181,561.253113 
	C349.986511,575.491821 372.321472,583.252136 397.457642,583.859924 
	C415.306213,584.659485 431.970581,581.465027 448.324829,574.673279 
	C464.288055,567.754700 478.648865,559.072266 490.329590,545.914429 
	C503.146576,532.918091 512.502930,518.150574 518.130127,500.673340 
	C522.881897,487.886963 524.669434,474.935425 525.044006,461.741272 
	C525.279785,453.436218 528.929382,449.474243 536.998657,448.833374 
	C542.853516,448.799011 546.533752,451.610931 548.104492,457.633179 
	C548.744080,474.021851 546.698975,489.698792 541.917969,505.393982 
z"/>
<path fill="#9BABC4" opacity="1.000000" stroke="none" 
	d="
M477.833435,282.993774 
	C477.833435,290.299133 477.833435,297.604462 477.833435,305.846100 
	C476.014130,304.607452 474.674683,303.807098 473.458252,302.850281 
	C459.200165,291.634888 444.995026,280.351776 430.686066,269.201843 
	C427.932129,267.055878 427.215240,265.029327 427.522095,261.274017 
	C428.750977,246.234543 416.722534,234.437729 404.393677,233.941299 
	C396.293274,233.615128 388.784821,234.505341 382.646240,241.014099 
	C379.356689,238.638931 376.325897,236.104752 373.324707,233.535995 
	C365.791595,227.088348 358.250092,220.650192 350.754059,214.159607 
	C345.411041,209.533234 340.136383,204.827896 334.508789,200.082520 
	C339.393585,189.581024 347.093048,181.325867 356.795563,174.683319 
	C359.439697,177.470703 361.484528,180.305801 364.015045,182.606720 
	C371.490540,189.403854 379.241577,195.897690 386.724609,202.686813 
	C392.955444,208.339844 398.817047,214.403015 405.101501,219.993011 
	C412.538666,226.608307 420.336884,232.816391 427.820190,239.381531 
	C432.930328,243.864639 437.705597,248.727142 442.745239,253.293457 
	C449.338837,259.267700 455.958740,265.219055 462.732635,270.986053 
	C467.626678,275.152557 472.790131,279.002594 477.833435,282.993774 
z"/>
<path fill="#A8A5C0" opacity="1.000000" stroke="none" 
	d="
M536.928955,448.499146 
	C528.929382,449.474243 525.279785,453.436218 525.044006,461.741272 
	C524.669434,474.935425 522.881897,487.886963 517.797974,500.605133 
	C511.132874,495.549713 504.981567,490.240540 498.830261,484.931366 
	C503.107391,462.420929 501.168671,439.644501 501.791809,416.513062 
	C504.940582,418.394226 508.179199,420.572449 511.102509,423.113373 
	C518.705078,429.721375 526.224487,436.428619 533.639648,443.245728 
	C535.038269,444.531494 535.802429,446.507446 536.928955,448.499146 
z"/>
<path fill="#AFA2BF" opacity="1.000000" stroke="none" 
	d="
M477.057678,467.051880 
	C476.698700,478.998169 473.025421,489.880371 466.318176,499.841278 
	C462.640198,496.445465 459.597565,492.910736 456.136230,489.849457 
	C441.579376,476.975067 426.871155,464.271820 412.312164,451.399811 
	C411.173767,450.393280 410.758209,448.569153 410.006683,447.125031 
	C419.892914,442.065002 425.344879,434.267090 425.018921,422.439148 
	C431.672089,427.341125 438.477905,432.460938 444.853973,438.069336 
	C455.613037,447.533081 466.099854,457.306366 477.057678,467.051880 
z"/>
<path fill="#C49CBB" opacity="1.000000" stroke="none" 
	d="
M396.993378,583.791260 
	C372.321472,583.252136 349.986511,575.491821 330.017181,561.253113 
	C302.137329,541.373901 285.426819,514.261475 279.223236,480.624115 
	C278.923981,479.001312 278.495422,477.402344 278.145569,475.397369 
	C282.905792,478.700592 287.750702,482.275421 292.360352,486.131500 
	C296.980499,489.996399 301.348206,494.162170 305.888336,498.125305 
	C306.242218,498.434204 307.082306,498.186127 307.928131,497.985535 
	C316.083984,515.820496 327.479675,531.235657 343.992645,542.168762 
	C351.934021,547.426697 360.877289,551.171326 369.749756,556.125488 
	C375.964294,562.374817 381.839752,568.056335 387.610321,573.842468 
	C390.828094,577.068848 393.871399,580.469299 396.993378,583.791260 
z"/>
<path fill="#FEFEFF" opacity="1.000000" stroke="none" 
	d="
M464.292603,665.931396 
	C447.048492,666.194702 430.094269,666.263428 413.140076,666.344604 
	C400.669067,666.404297 388.198151,666.480469 375.349731,666.700317 
	C364.547913,666.664124 354.123718,666.358154 343.698975,666.337952 
	C338.163300,666.327209 333.819122,664.456055 331.742737,659.220154 
	C329.749084,654.192993 330.570770,649.449951 334.999023,645.355164 
	C339.706543,644.356262 344.187317,643.314758 348.716217,643.024597 
	C354.480408,642.655334 360.283630,642.894287 366.534912,642.806519 
	C374.048309,642.741943 381.096741,642.741943 387.381042,642.741943 
	C389.327606,637.758972 391.067596,633.304749 393.307404,628.360535 
	C404.312103,622.381775 414.024933,628.196899 413.048676,638.582581 
	C412.755707,641.699219 413.810791,643.056702 417.190643,642.995911 
	C429.125366,642.781128 441.064392,642.807617 453.001801,642.742676 
	C454.825287,642.809448 456.648254,642.909851 458.472321,642.937012 
	C465.703857,643.044678 470.254578,646.112183 471.721954,651.898926 
	C473.091095,657.298279 470.569580,662.187378 464.292603,665.931396 
z"/>
<path fill="#C59ABA" opacity="1.000000" stroke="none" 
	d="
M452.978210,642.400696 
	C441.064392,642.807617 429.125366,642.781128 417.190643,642.995911 
	C413.810791,643.056702 412.755707,641.699219 413.048676,638.582581 
	C414.024933,628.196899 404.312103,622.381775 393.472473,628.056763 
	C386.062531,621.696289 378.963806,615.174500 371.936005,608.577209 
	C370.810089,607.520264 370.001495,606.125122 369.022705,604.539429 
	C384.919800,607.188782 400.886292,609.407898 417.564880,607.098633 
	C420.661255,609.984253 423.174896,612.954712 425.998688,615.593201 
	C434.426178,623.467590 442.997375,631.188049 451.439819,639.046692 
	C452.211121,639.764587 452.462067,641.041443 452.978210,642.400696 
z"/>
<path fill="#BA9FBD" opacity="1.000000" stroke="none" 
	d="
M441.996613,524.909729 
	C416.218201,543.207947 376.693176,540.219421 351.492401,518.394958 
	C337.124359,505.951874 329.282166,490.018280 325.182373,471.891724 
	C324.786499,470.141357 325.023041,468.240936 325.018860,466.410095 
	C324.984833,451.584503 324.963409,436.758881 325.332031,421.538696 
	C328.369751,422.835510 331.304688,424.202454 333.610229,426.270935 
	C348.658142,439.771149 363.600464,453.389801 378.511536,467.041565 
	C384.971893,472.956299 391.158325,479.173218 397.686096,485.010315 
	C403.439209,490.154633 409.594116,494.847748 415.390930,499.945557 
	C422.710236,506.382263 429.873566,512.997742 437.042053,519.603516 
	C438.816589,521.238831 440.351532,523.134033 441.996613,524.909729 
z"/>
<path fill="#B4A1BE" opacity="1.000000" stroke="none" 
	d="
M442.318359,524.811890 
	C440.351532,523.134033 438.816589,521.238831 437.042053,519.603516 
	C429.873566,512.997742 422.710236,506.382263 415.390930,499.945557 
	C409.594116,494.847748 403.439209,490.154633 397.686096,485.010315 
	C391.158325,479.173218 384.971893,472.956299 378.511536,467.041565 
	C363.600464,453.389801 348.658142,439.771149 333.610229,426.270935 
	C331.304688,424.202454 328.369751,422.835510 325.390198,421.073120 
	C325.054443,407.563110 325.054443,394.124023 325.054443,379.550476 
	C327.136200,380.978943 328.589020,381.848907 329.900940,382.895477 
	C344.970367,394.917175 360.069000,406.903870 374.995605,419.100830 
	C376.520660,420.347015 377.791016,422.892883 377.801605,424.843109 
	C377.867401,436.994232 385.796509,446.354309 399.549042,448.769165 
	C402.589691,449.303040 405.992767,447.772614 409.617828,447.158875 
	C410.758209,448.569153 411.173767,450.393280 412.312164,451.399811 
	C426.871155,464.271820 441.579376,476.975067 456.136230,489.849457 
	C459.597565,492.910736 462.640198,496.445465 466.065857,500.085938 
	C461.078644,506.334991 456.029724,512.380615 450.663788,518.130432 
	C448.324127,520.637451 445.334534,522.538025 442.318359,524.811890 
z"/>
<path fill="#97ACC4" opacity="1.000000" stroke="none" 
	d="
M477.888641,282.528412 
	C472.790131,279.002594 467.626678,275.152557 462.732635,270.986053 
	C455.958740,265.219055 449.338837,259.267700 442.745239,253.293457 
	C437.705597,248.727142 432.930328,243.864639 427.820190,239.381531 
	C420.336884,232.816391 412.538666,226.608307 405.101501,219.993011 
	C398.817047,214.403015 392.955444,208.339844 386.724609,202.686813 
	C379.241577,195.897690 371.490540,189.403854 364.015045,182.606720 
	C361.484528,180.305801 359.439697,177.470703 357.096252,174.559952 
	C365.434387,170.238617 373.849213,166.237045 382.713806,162.546143 
	C391.122070,170.690933 398.926086,178.690704 407.088684,186.306091 
	C413.465302,192.255219 420.432220,197.568268 426.874573,203.451172 
	C435.037140,210.904877 442.822296,218.771683 450.979370,226.231644 
	C458.060272,232.707413 465.389221,238.915680 472.712463,245.119492 
	C474.178772,246.361649 476.113831,247.050461 477.832764,247.994415 
	C477.869812,259.350616 477.906830,270.706848 477.888641,282.528412 
z"/>
<path fill="#93ADC5" opacity="1.000000" stroke="none" 
	d="
M477.888458,247.529587 
	C476.113831,247.050461 474.178772,246.361649 472.712463,245.119492 
	C465.389221,238.915680 458.060272,232.707413 450.979370,226.231644 
	C442.822296,218.771683 435.037140,210.904877 426.874573,203.451172 
	C420.432220,197.568268 413.465302,192.255219 407.088684,186.306091 
	C398.926086,178.690704 391.122070,170.690933 383.085571,162.533173 
	C423.116486,151.679581 466.495056,177.316696 475.405548,217.458817 
	C477.533020,227.043060 477.164581,237.181320 477.888458,247.529587 
z"/>
<path fill="#C09DBC" opacity="1.000000" stroke="none" 
	d="
M397.457642,583.859924 
	C393.871399,580.469299 390.828094,577.068848 387.610321,573.842468 
	C381.839752,568.056335 375.964294,562.374817 370.065247,556.309326 
	C379.293335,557.645996 388.595825,560.689453 397.882568,560.642212 
	C408.678070,560.587402 419.459808,557.823853 430.702637,556.533813 
	C433.206909,558.951233 435.284882,561.044006 437.298828,563.196655 
	C440.882477,567.027222 444.427368,570.894165 447.988464,574.745911 
	C431.970581,581.465027 415.306213,584.659485 397.457642,583.859924 
z"/>
<path fill="#B1A3BF" opacity="1.000000" stroke="none" 
	d="
M498.612549,485.219910 
	C504.981567,490.240540 511.132874,495.549713 517.616272,500.927094 
	C512.502930,518.150574 503.146576,532.918091 490.157349,545.619995 
	C484.429596,540.268982 479.166931,535.049438 473.904236,529.829956 
	C482.664490,519.584961 490.392883,508.692841 494.992584,495.871674 
	C496.219910,492.450684 497.265747,488.964630 498.612549,485.219910 
z"/>
<path fill="#B89FBD" opacity="1.000000" stroke="none" 
	d="
M473.616638,530.003784 
	C479.166931,535.049438 484.429596,540.268982 489.864532,545.782959 
	C478.648865,559.072266 464.288055,567.754700 448.324829,574.673279 
	C444.427368,570.894165 440.882477,567.027222 437.298828,563.196655 
	C435.284882,561.044006 433.206909,558.951233 431.082825,556.510437 
	C447.149689,550.829285 461.278107,542.193542 473.616638,530.003784 
z"/>
<path fill="#9FA9C3" opacity="1.000000" stroke="none" 
	d="
M394.510559,265.470947 
	C391.507355,260.960846 392.028473,256.956970 395.487213,253.497482 
	C398.398621,250.585464 401.955872,250.362625 405.539551,252.290344 
	C409.175720,254.246292 410.413940,257.441040 409.989655,261.454834 
	C409.385834,267.166992 400.593231,272.409973 394.510559,265.470947 
z"/>
</svg>