<svg width="152" height="26" viewBox="0 0 152 26" fill="none" xmlns="http://www.w3.org/2000/svg">
<path d="M71.0387 25.9982C70.0052 25.9982 69.1747 25.9059 68.5471 25.7214L69.1008 22.1501C69.6176 22.2793 70.1805 22.3439 70.7896 22.3439C71.4724 22.3439 72.0446 22.1409 72.506 21.7348C72.9858 21.3472 73.3365 20.8212 73.558 20.1568L73.7518 19.5478L68.0488 5.81641H72.5614L75.3575 14.0386C75.6158 14.7399 75.8189 15.5059 75.9665 16.3364C76.1142 15.5059 76.3172 14.7399 76.5756 14.0386L79.3717 5.81641H83.8011L77.4338 21.1258C76.7694 22.6945 75.9296 23.8942 74.9145 24.7247C73.9179 25.5737 72.626 25.9982 71.0387 25.9982Z" fill="#292929"/>
<path d="M63.6239 5.81487H67.3613V20.2107H63.6239V5.81487ZM63.2363 2.40971C63.2363 1.80066 63.4486 1.28388 63.8731 0.859393C64.316 0.434902 64.8512 0.222656 65.4787 0.222656C66.1247 0.222656 66.6599 0.434902 67.0844 0.859393C67.5089 1.28388 67.7212 1.80066 67.7212 2.40971C67.7212 3.03722 67.5089 3.56322 67.0844 3.98771C66.6599 4.4122 66.1247 4.62445 65.4787 4.62445C64.8512 4.62445 64.316 4.4122 63.8731 3.98771C63.4486 3.54476 63.2363 3.01876 63.2363 2.40971Z" fill="#292929"/>
<path d="M53.1266 20.5694C51.8346 20.5694 50.6442 20.2372 49.5553 19.5727C48.4664 18.8899 47.5989 17.9763 46.953 16.832C46.3255 15.6877 46.0117 14.4327 46.0117 13.0669C46.0117 11.7012 46.3255 10.4462 46.953 9.30189C47.5989 8.13916 48.4664 7.21635 49.5553 6.53347C50.6442 5.8506 51.8346 5.50916 53.1266 5.50916C54.3078 5.50916 55.2582 5.73063 55.978 6.17358C56.6978 6.59807 57.2607 7.21635 57.6668 8.02842V0H61.4041V20.2095H57.7775V17.8563C57.353 18.7238 56.7716 19.3974 56.0334 19.8773C55.3136 20.3387 54.3447 20.5694 53.1266 20.5694ZM49.7491 13.0393C49.7491 13.7775 49.9152 14.4696 50.2474 15.1156C50.5981 15.7431 51.0687 16.2506 51.6593 16.6382C52.2683 17.0073 52.9605 17.1919 53.7356 17.1919C54.5292 17.1919 55.2306 17.0073 55.8396 16.6382C56.4671 16.2691 56.947 15.7708 57.2792 15.1433C57.6114 14.5158 57.7775 13.8236 57.7775 13.0669C57.7775 12.3102 57.6114 11.6181 57.2792 10.9906C56.947 10.3447 56.4671 9.83712 55.8396 9.468C55.2306 9.08042 54.5292 8.88663 53.7356 8.88663C52.9605 8.88663 52.2683 9.08042 51.6593 9.468C51.0502 9.83712 50.5796 10.3354 50.2474 10.9629C49.9152 11.5905 49.7491 12.2826 49.7491 13.0393Z" fill="#292929"/>
<path d="M42.9349 20.5713C42.2336 20.5713 41.643 20.3314 41.1631 19.8515C40.6833 19.3717 40.4434 18.7995 40.4434 18.1351C40.4434 17.4707 40.6833 16.9078 41.1631 16.4464C41.643 15.9665 42.2336 15.7266 42.9349 15.7266C43.6363 15.7266 44.2176 15.9665 44.679 16.4464C45.1589 16.9078 45.3988 17.4707 45.3988 18.1351C45.3988 18.818 45.1589 19.3993 44.679 19.8792C44.2176 20.3406 43.6363 20.5713 42.9349 20.5713Z" fill="#292929"/>
<path d="M34.9941 0H38.7315V20.2095H34.9941V0Z" fill="#292929"/>
<path d="M24.4967 20.5719C23.2047 20.5719 22.0143 20.2397 20.9254 19.5753C19.8365 18.8924 18.9691 17.9788 18.3231 16.8346C17.6956 15.6903 17.3818 14.4353 17.3818 13.0695C17.3818 11.7038 17.6956 10.4487 18.3231 9.30446C18.9691 8.14172 19.8365 7.21891 20.9254 6.53603C22.0143 5.85316 23.2047 5.51172 24.4967 5.51172C25.6779 5.51172 26.6284 5.73319 27.3482 6.17614C28.0864 6.61909 28.6585 7.25582 29.0646 8.08635V5.81624H32.7743V20.212H29.1476V17.8589C28.7231 18.7263 28.1418 19.4 27.4035 19.8798C26.6837 20.3412 25.7148 20.5719 24.4967 20.5719ZM21.1192 13.0418C21.1192 13.7801 21.2853 14.4722 21.6175 15.1181C21.9682 15.7456 22.4388 16.2532 23.0294 16.6408C23.6385 17.0099 24.3306 17.1945 25.1057 17.1945C25.8993 17.1945 26.6007 17.0099 27.2097 16.6408C27.8372 16.2716 28.3171 15.7733 28.6493 15.1458C28.9815 14.5183 29.1476 13.8262 29.1476 13.0695C29.1476 12.3128 28.9815 11.6207 28.6493 10.9932C28.3171 10.3472 27.8372 9.83968 27.2097 9.47056C26.6007 9.08298 25.8993 8.88919 25.1057 8.88919C24.3306 8.88919 23.6385 9.08298 23.0294 9.47056C22.4204 9.83968 21.9497 10.338 21.6175 10.9655C21.2853 11.593 21.1192 12.2851 21.1192 13.0418Z" fill="#292929"/>
<path d="M10.1047 20.5753C8.22221 20.5753 6.50579 20.1323 4.95547 19.2465C3.42361 18.3421 2.21474 17.124 1.32884 15.5921C0.442947 14.0603 0 12.3808 0 10.5536C0 8.708 0.424491 7.01926 1.27347 5.4874C2.14091 3.93709 3.34056 2.71898 4.87242 1.83309C6.40428 0.928737 8.14838 0.476562 10.1047 0.476562C11.6735 0.476562 13.0208 0.72572 14.1466 1.22404C15.2909 1.7039 16.306 2.46983 17.1919 3.52183L14.4512 5.90267C13.2884 4.68456 11.8396 4.07551 10.1047 4.07551C8.88663 4.07551 7.81617 4.37081 6.89337 4.96141C5.97056 5.53354 5.26 6.31793 4.76168 7.31456C4.26337 8.29274 4.01421 9.37242 4.01421 10.5536C4.01421 11.7348 4.26337 12.8145 4.76168 13.7927C5.27846 14.7708 5.99824 15.546 6.92105 16.1181C7.86231 16.6903 8.95123 16.9763 10.1878 16.9763C11.9965 16.9763 13.473 16.3488 14.6173 15.0938L17.4411 17.5023C16.6659 18.4436 15.6508 19.1911 14.3958 19.7448C13.1592 20.2985 11.7289 20.5753 10.1047 20.5753Z" fill="#292929"/>
<path d="M146.354 20.6554C143.926 20.6554 141.924 19.8121 140.349 18.1256L142.879 15.8182C143.935 17.0043 145.066 17.5974 146.271 17.5974C146.901 17.5974 147.392 17.4584 147.744 17.1804C148.096 16.9024 148.272 16.541 148.272 16.0962C148.272 15.6884 148.096 15.3734 147.744 15.151C147.41 14.91 146.706 14.6598 145.631 14.4004C143.87 13.9741 142.684 13.3903 142.073 12.649C141.48 11.9076 141.183 10.9902 141.183 9.8968C141.183 8.5994 141.665 7.543 142.629 6.7276C143.592 5.89356 144.908 5.47656 146.576 5.47656C147.781 5.47656 148.791 5.6619 149.607 6.0326C150.441 6.4032 151.219 7.0519 151.942 7.9786L149.217 10.0636C148.569 9.0257 147.716 8.5068 146.66 8.5068C146.122 8.5068 145.687 8.618 145.353 8.8404C145.02 9.0442 144.853 9.3593 144.853 9.7856C144.853 10.0821 144.973 10.3416 145.214 10.564C145.474 10.7678 146.002 10.9717 146.799 11.1756C148.782 11.6945 150.135 12.3339 150.858 13.0938C151.599 13.8536 151.97 14.8174 151.97 15.985C151.97 16.856 151.719 17.653 151.219 18.3758C150.737 19.08 150.07 19.636 149.217 20.0438C148.365 20.4515 147.41 20.6554 146.354 20.6554Z" fill="#575757"/>
<path d="M133.721 20.6554C132.368 20.6554 131.118 20.3218 129.968 19.6546C128.838 18.9688 127.938 18.0422 127.271 16.8746C126.604 15.707 126.271 14.4374 126.271 13.066C126.271 11.676 126.604 10.4064 127.271 9.2574C127.938 8.0898 128.866 7.1724 130.052 6.5052C131.238 5.81943 132.563 5.47656 134.027 5.47656C135.306 5.47656 136.455 5.7175 137.474 6.1994C138.494 6.6627 139.309 7.3206 139.921 8.1732L137.03 10.5362C136.696 10.0358 136.26 9.6373 135.723 9.3408C135.186 9.0442 134.602 8.896 133.972 8.896C133.193 8.896 132.508 9.0906 131.914 9.4798C131.321 9.8504 130.858 10.3508 130.524 10.981C130.191 11.6111 130.024 12.3061 130.024 13.066C130.024 13.8073 130.191 14.5023 130.524 15.151C130.877 15.7811 131.358 16.2908 131.97 16.68C132.582 17.0506 133.277 17.236 134.055 17.236C134.741 17.236 135.334 17.0877 135.834 16.7912C136.335 16.4946 136.789 16.0684 137.196 15.5124L139.921 17.8754C138.475 19.7287 136.409 20.6554 133.721 20.6554Z" fill="#575757"/>
<path d="M117.6 20.6549C116.135 20.6549 114.82 20.3213 113.652 19.6541C112.484 18.9684 111.567 18.051 110.9 16.9019C110.233 15.7343 109.899 14.4648 109.899 13.0933C109.899 11.7218 110.233 10.4523 110.9 9.2847C111.567 8.1171 112.484 7.1997 113.652 6.5325C114.82 5.84677 116.135 5.50391 117.6 5.50391C119.064 5.50391 120.38 5.84677 121.547 6.5325C122.715 7.1997 123.632 8.1171 124.299 9.2847C124.967 10.4523 125.3 11.7218 125.3 13.0933C125.3 14.4648 124.967 15.7343 124.299 16.9019C123.632 18.051 122.715 18.9684 121.547 19.6541C120.38 20.3213 119.064 20.6549 117.6 20.6549ZM113.652 13.0933C113.652 13.8532 113.809 14.5482 114.125 15.1783C114.458 15.8084 114.921 16.3088 115.515 16.6795C116.126 17.0502 116.821 17.2355 117.6 17.2355C118.378 17.2355 119.064 17.0502 119.657 16.6795C120.268 16.3088 120.732 15.8084 121.047 15.1783C121.38 14.5482 121.547 13.8532 121.547 13.0933C121.547 12.3334 121.38 11.6384 121.047 11.0083C120.713 10.3782 120.25 9.8778 119.657 9.5071C119.064 9.1179 118.378 8.9233 117.6 8.9233C116.821 8.9233 116.135 9.1179 115.542 9.5071C114.949 9.8778 114.486 10.3782 114.152 11.0083C113.819 11.6384 113.652 12.3334 113.652 13.0933Z" fill="#575757"/>
<path d="M92 0.832031H98.95C101.137 0.832031 102.972 1.24903 104.455 2.08303C105.956 2.91703 107.077 4.0661 107.819 5.53023C108.56 6.9944 108.931 8.6809 108.931 10.5898C108.931 12.4802 108.56 14.1575 107.819 15.6216C107.077 17.0858 105.956 18.2348 104.455 19.0688C102.972 19.8843 101.137 20.292 98.95 20.292H92V0.832031ZM98.478 16.7892C100.665 16.7892 102.277 16.2332 103.315 15.1212C104.371 13.9907 104.9 12.4802 104.9 10.5898C104.9 8.6994 104.371 7.189 103.315 6.0584C102.277 4.90937 100.665 4.33483 98.478 4.33483H95.892V16.7892H98.478Z" fill="#575757"/>
</svg>
