<svg width="100" height="100" viewBox="0 0 100 100" fill="none" xmlns="http://www.w3.org/2000/svg">
<g clip-path="url(#clip0_1_8)">
<path d="M91.9072 0H73.6981C69.2937 0 65.6782 3.61842 65.6782 8.02632V31.5789H39.3177C35.0448 31.5789 31.5608 35.0658 31.5608 39.4079V65.7895H7.82976C3.49113 65.7895 0.00708008 69.2763 0.00708008 73.6184V92.0395C0.00708008 96.3816 3.49113 99.8684 7.82976 100H91.9729C96.3773 100 99.9928 96.3816 99.9928 91.9737V8.02632C99.9271 3.61842 96.3115 0 91.9072 0Z" fill="url(#paint0_linear_1_8)"/>
<path d="M91.9072 0H73.6981C69.2937 0 65.6782 3.61842 65.6782 8.02632V31.5789H39.3177C35.0448 31.5789 31.5608 35.0658 31.5608 39.4079V65.7895H7.82976C3.49113 65.7895 0.00708008 69.2763 0.00708008 73.6184V92.0395C0.00708008 96.3816 3.49113 99.8684 7.82976 100H91.9729C96.3773 100 99.9928 96.3816 99.9928 91.9737V8.02632C99.9271 3.61842 96.3115 0 91.9072 0Z" fill="url(#paint1_linear_1_8)"/>
<path d="M91.9072 0H73.8296C69.4252 0 65.8097 3.61842 65.8097 8.02632V100H91.9072C96.3116 100 99.9271 96.3816 99.9271 91.9737V8.02632C99.9271 3.61842 96.3116 0 91.9072 0Z" fill="#F57C00"/>
<path d="M31.5608 39.4736V65.7894H7.8955C3.55687 65.7894 0.00708008 69.342 0.00708008 73.6841V92.1052C0.00708008 96.4473 3.55687 99.9999 7.8955 99.9999H65.7439V31.5789H39.4492C35.1106 31.5789 31.5608 35.1315 31.5608 39.4736Z" fill="#FFC107"/>
<path d="M65.744 31.579V100H91.8415C96.2459 100 99.8614 96.3816 99.8614 91.9737V65.7895L65.744 31.579Z" fill="url(#paint2_linear_1_8)"/>
<path opacity="0.2" d="M39.4492 32.2369H65.7439V31.579H39.4492C35.1106 31.579 31.5608 35.1316 31.5608 39.4737V40.1316C31.5608 35.7895 35.1106 32.2369 39.4492 32.2369Z" fill="white"/>
<path opacity="0.2" d="M7.8955 66.4473H31.5608V65.7894H7.8955C3.55687 65.7894 0.00708008 69.3421 0.00708008 73.6842V74.3421C0.00708008 70 3.55687 66.4473 7.8955 66.4473Z" fill="white"/>
<path opacity="0.2" d="M91.9072 0H73.8296C69.4252 0 65.8097 3.61842 65.8097 8.02631V8.68421C65.8097 4.27632 69.4252 0.657895 73.8296 0.657895H91.9072C96.3116 0.657895 99.9271 4.27632 99.9271 8.68421V8.02631C99.9271 3.61842 96.3116 0 91.9072 0Z" fill="white"/>
<path opacity="0.2" d="M91.9072 99.3421H7.8955C3.55687 99.3421 0.00708008 95.7895 0.00708008 91.4474V92.1053C0.00708008 96.4474 3.55687 100 7.8955 100H91.8414C96.2458 100 99.8613 96.3816 99.8613 91.9737V91.3158C99.9271 95.7237 96.3115 99.3421 91.9072 99.3421V99.3421Z" fill="#BF360C"/>
<path d="M91.9072 0H73.8296C69.4252 0 65.8097 3.61842 65.8097 8.02632V31.5789H39.5149C35.1763 31.5789 31.6265 35.1316 31.6265 39.4737V65.7895H7.8955C3.55687 65.7895 0.00708008 69.3421 0.00708008 73.6842V92.1053C0.00708008 96.4474 3.55687 100 7.8955 100H91.9072C96.3116 100 99.9271 96.3816 99.9271 91.9737V8.02632C99.9271 3.61842 96.3116 0 91.9072 0Z" fill="url(#paint3_linear_1_8)"/>
</g>
<defs>
<linearGradient id="paint0_linear_1_8" x1="0.00708008" y1="50" x2="99.9928" y2="50" gradientUnits="userSpaceOnUse">
<stop stop-color="white" stop-opacity="0.1"/>
<stop offset="1" stop-color="white" stop-opacity="0"/>
</linearGradient>
<linearGradient id="paint1_linear_1_8" x1="0.00708008" y1="50" x2="99.9928" y2="50" gradientUnits="userSpaceOnUse">
<stop stop-color="white" stop-opacity="0.1"/>
<stop offset="1" stop-color="white" stop-opacity="0"/>
</linearGradient>
<linearGradient id="paint2_linear_1_8" x1="48.8168" y1="48.8487" x2="97.5733" y2="97.5663" gradientUnits="userSpaceOnUse">
<stop stop-color="#BF360C" stop-opacity="0.2"/>
<stop offset="1" stop-color="#BF360C" stop-opacity="0.02"/>
</linearGradient>
<linearGradient id="paint3_linear_1_8" x1="33.5125" y1="33.573" x2="98.2006" y2="98.2094" gradientUnits="userSpaceOnUse">
<stop stop-color="white" stop-opacity="0.1"/>
<stop offset="1" stop-color="white" stop-opacity="0"/>
</linearGradient>
<clipPath id="clip0_1_8">
<rect width="100" height="100" fill="white"/>
</clipPath>
</defs>
</svg>
