<?xml version="1.0" encoding="utf-8"?>
<!-- Generator: Adobe Illustrator 24.0.3, SVG Export Plug-In . SVG Version: 6.00 Build 0)  -->
<svg version="1.1" id="Layer_1" xmlns="http://www.w3.org/2000/svg" xmlns:xlink="http://www.w3.org/1999/xlink" x="0px" y="0px"
	 viewBox="0 0 288 288" style="enable-background:new 0 0 288 288;" xml:space="preserve">
<style type="text/css">
	.st0{fill:#CB2233;}
	.st1{fill:#FFFFFF;}
</style>
<rect x="-0.2" y="0.5" class="st0" width="288" height="288"/>
<path class="st1" d="M172.7,132.1h-21.9l-5,9.6c-0.5,1.1-1.1,2.2-1.8,3.2h-0.2c0,0-1-1.7-1.8-3.2l-5-9.6h-21.9l17.2,26.5l-17.1,26.5
	h21.5l5.8-11.1c0.6-1,1.4-3,1.4-3h0.2c0,0,0.8,2,1.4,3l5.9,11.1h21.5l-17.1-26.5L172.7,132.1L172.7,132.1z"/>
<path class="st1" d="M75.9,171.7c-5.9,0.1-10.7-4.5-10.9-10.4c0,0,0-0.1,0-0.1c0.1-4.1,1.9-8.1,4.8-11c8.8,4,16.9,7.1,16.9,12.2
	C86.7,168.4,82.6,171.7,75.9,171.7L75.9,171.7z M76.5,117.3c5.9,0,9.5,3.3,9.5,8.3c-0.1,3.9-1.2,7.7-3.2,11.1
	c-7.9-3.4-14.5-6.4-14.5-12.4C68.3,120.4,70.8,117.3,76.5,117.3z M98.7,144.5c0.9-1.1,8.8-10.9,8.8-20.6c0-16.8-13.8-26.1-30.5-26.1
	c-21.1,0-30.3,12.9-30.3,26c0,7.7,3.4,13.1,8.2,17.3c-2.8,2.1-12.5,10.4-12.5,22c0,14.4,11.5,28,33.4,28c22.3,0,33.4-13.8,33.4-27.5
	C109.3,154.5,104.8,148.7,98.7,144.5L98.7,144.5z"/>
<path class="st1" d="M211.7,171.7c-5.9,0.1-10.7-4.5-10.8-10.4c0,0,0-0.1,0-0.1c0.1-4.1,1.8-8.1,4.8-11c8.8,4,16.9,7.1,16.9,12.2
	C222.5,168.4,218.4,171.7,211.7,171.7L211.7,171.7z M212.3,117.3c5.9,0,9.5,3.3,9.5,8.3c-0.1,3.9-1.2,7.7-3.2,11.1
	c-7.9-3.4-14.5-6.4-14.5-12.4C204.1,120.4,206.7,117.3,212.3,117.3z M234.5,144.5c0.9-1.1,8.8-10.9,8.8-20.6
	c0-16.8-13.8-26.1-30.6-26.1c-21.1,0-30.3,12.9-30.3,26c0,7.7,3.4,13.1,8.2,17.3c-2.8,2.1-12.5,10.4-12.5,22c0,14.4,11.5,28,33.4,28
	c22.3,0,33.4-13.8,33.4-27.5C245.1,154.5,240.6,148.7,234.5,144.5L234.5,144.5z"/>
</svg>
