<svg viewBox="0 0 24 24" width="24" height="24" xmlns="http://www.w3.org/2000/svg">
<g fill="currentColor" transform="matrix(0.27159594,0,0,0.27159594,5.6093989,0.60189406)">
<path d="M 5.206,83.433 A 4.86,4.86 0 0 1 0.347,78.572 V 5.431 a 4.86,4.86 0 1 1 9.719,0 v 73.141 a 4.861,4.861 0 0 1 -4.86,4.861" />
<path d="M 5.209,83.433 A 4.862,4.862 0 0 1 3.123,74.18 L 32.43,60.274 2.323,38.093 a 4.861,4.861 0 0 1 5.766,-7.826 l 36.647,26.999 a 4.864,4.864 0 0 1 -0.799,8.306 L 7.289,82.964 a 4.866,4.866 0 0 1 -2.08,0.469" />
<path d="M 5.211,54.684 A 4.86,4.86 0 0 1 2.324,45.91 L 32.43,23.73 3.123,9.821 A 4.861,4.861 0 0 1 7.289,1.037 l 36.648,17.394 a 4.86,4.86 0 0 1 0.799,8.305 l -36.647,27 a 4.844,4.844 0 0 1 -2.878,0.948" />
<path d="M 10.066,31.725 V 52.278 L 24.01,42.006 Z" />
<path d="M 10.066,5.431 A 4.861,4.861 0 0 0 5.206,0.57 4.86,4.86 0 0 0 0.347,5.431 v 61.165 h 9.72 V 5.431 Z" />
</g>
</svg>
