<?xml version="1.0" encoding="UTF-8" standalone="no"?>
<svg
   xmlns:dc="http://purl.org/dc/elements/1.1/"
   xmlns:cc="http://creativecommons.org/ns#"
   xmlns:rdf="http://www.w3.org/1999/02/22-rdf-syntax-ns#"
   xmlns:svg="http://www.w3.org/2000/svg"
   xmlns="http://www.w3.org/2000/svg"
   xmlns:sodipodi="http://sodipodi.sourceforge.net/DTD/sodipodi-0.dtd"
   xmlns:inkscape="http://www.inkscape.org/namespaces/inkscape"
   viewBox="0 0 1706.6667 1066.6667"
   height="1066.6667"
   width="1706.6667"
   xml:space="preserve"
   id="svg2"
   version="1.1"
   sodipodi:docname="BTCPay Server Icon.svg"
   inkscape:version="0.92.3 (2405546, 2018-03-11)"><sodipodi:namedview
     pagecolor="#ffffff"
     bordercolor="#666666"
     borderopacity="1"
     objecttolerance="10"
     gridtolerance="10"
     guidetolerance="10"
     inkscape:pageopacity="0"
     inkscape:pageshadow="2"
     inkscape:window-width="1920"
     inkscape:window-height="1017"
     id="namedview82"
     showgrid="false"
     inkscape:zoom="0.16640624"
     inkscape:cx="853.33337"
     inkscape:cy="533.33337"
     inkscape:window-x="-8"
     inkscape:window-y="-8"
     inkscape:window-maximized="1"
     inkscape:current-layer="g10" /><metadata
     id="metadata8"><rdf:RDF><cc:Work
         rdf:about=""><dc:format>image/svg+xml</dc:format><dc:type
           rdf:resource="http://purl.org/dc/dcmitype/StillImage" /><dc:title /></cc:Work></rdf:RDF></metadata><defs
     id="defs6"><clipPath
       id="clipPath18"
       clipPathUnits="userSpaceOnUse"><path
         id="path16"
         d="M 0,800 H 1280 V 0 H 0 Z" /></clipPath><clipPath
       id="clipPath74"
       clipPathUnits="userSpaceOnUse"><path
         id="path72"
         d="M 0,800 H 1280 V 0 H 0 Z" /></clipPath><clipPath
       id="clipPath128"
       clipPathUnits="userSpaceOnUse"><path
         id="path126"
         d="M 0,800 H 1280 V 0 H 0 Z" /></clipPath><clipPath
       id="clipPath140"
       clipPathUnits="userSpaceOnUse"><path
         id="path138"
         d="M 0,800 H 1280 V 0 H 0 Z" /></clipPath></defs><g
     transform="matrix(1.3333333,0,0,-1.3333333,955.493,249.38967)"
     id="g10"><g
       transform="matrix(0.29765316,0,0,0.29765316,413.69235,44.782893)"
       id="g134"><g
         transform="matrix(3.6585926,0,0,3.6585926,-4809.6898,-2104.6753)"
         clip-path="url(#clipPath140)"
         id="g136"><g
           transform="matrix(4.7732059,0,0,4.7732059,779.20458,11.551291)"
           id="g146"><path
             id="path148"
             style="fill:#cedc21;fill-opacity:1;fill-rule:nonzero;stroke:none"
             d="m 0,0 c -4.573,0 -8.281,3.707 -8.281,8.28 v 124.622 c 0,4.573 3.708,8.281 8.281,8.281 4.573,0 8.281,-3.708 8.281,-8.281 V 8.28 C 8.281,3.707 4.573,0 0,0"
             inkscape:connector-curvature="0" /></g><g
           transform="matrix(4.7732059,0,0,4.7732059,779.22987,11.542212)"
           id="g150"><path
             id="path152"
             style="fill:#51b13e;fill-opacity:1;fill-rule:nonzero;stroke:none"
             d="m 0,0 c -3.099,0 -6.069,1.746 -7.487,4.731 -1.96,4.132 -0.201,9.072 3.931,11.033 l 49.934,23.698 -51.295,37.79 c -3.682,2.713 -4.468,7.897 -1.754,11.58 2.711,3.681 7.898,4.467 11.577,1.754 L 67.347,44.583 c 2.345,-1.728 3.611,-4.56 3.331,-7.46 -0.279,-2.898 -2.06,-5.438 -4.693,-6.687 L 3.545,0.802 C 2.399,0.258 1.19,0 0,0"
             inkscape:connector-curvature="0" /></g><g
           transform="matrix(4.7732059,0,0,4.7732059,779.23704,245.35911)"
           id="g154"><path
             id="path156"
             style="fill:#cedc21;fill-opacity:1;fill-rule:nonzero;stroke:none"
             d="m 0,0 c -2.542,0 -5.05,1.166 -6.673,3.369 -2.713,3.683 -1.928,8.867 1.755,11.579 L 46.376,52.739 -3.557,76.438 c -4.132,1.96 -5.891,6.899 -3.931,11.031 1.962,4.132 6.902,5.893 11.031,3.93 L 65.984,61.766 c 2.632,-1.249 4.414,-3.789 4.693,-6.688 0.279,-2.9 -0.987,-5.733 -3.332,-7.46 L 4.905,1.614 C 3.426,0.525 1.705,0 0,0"
             inkscape:connector-curvature="0" /></g><g
           transform="matrix(4.7732059,0,0,4.7732059,818.73005,432.0807)"
           id="g158"><path
             id="path160"
             style="fill:#1e7a44;fill-opacity:1;fill-rule:nonzero;stroke:none"
             d="m 0,0 v -35.022 l 23.757,17.503 z"
             inkscape:connector-curvature="0" /></g><path
           id="path162"
           style="fill:#ffffff;fill-opacity:1;fill-rule:nonzero;stroke:none;stroke-width:4.77320623"
           d="m 818.73151,309.4809 h -79.05385 v 192.68958 h 79.05385 z"
           inkscape:connector-curvature="0" /><g
           transform="matrix(4.7732059,0,0,4.7732059,779.20458,685.44488)"
           id="g164"><path
             id="path166"
             style="fill:#cedc21;fill-opacity:1;fill-rule:nonzero;stroke:none"
             d="M 0,0 C -4.573,0 -8.281,-3.708 -8.281,-8.281 V -112.496 H 8.281 V -8.281 C 8.281,-3.708 4.573,0 0,0"
             inkscape:connector-curvature="0" /></g></g></g></g></svg>
