<svg width="90" height="90" viewBox="0 0 90 90" fill="none" xmlns="http://www.w3.org/2000/svg">
<rect width="90" height="90" rx="8" fill="#FCBABC"/>
<path d="M46.3736 43.578C47.8926 43.578 48.6956 44.603 48.6956 46.544V54.119C48.6956 54.378 48.9036 54.587 49.1606 54.587H51.2286C51.4856 54.587 51.6936 54.378 51.6936 54.119V45.631C51.6936 44.197 51.2656 42.975 50.4536 42.103C49.6376 41.225 48.4946 40.762 47.1456 40.762C45.5216 40.762 44.1576 41.378 42.9726 42.647L42.9296 42.694L42.8956 42.641C42.1116 41.413 40.8836 40.762 39.3496 40.762C37.8336 40.762 36.5966 41.334 35.6696 42.462L35.5826 42.569V41.491C35.5826 41.231 35.3746 41.022 35.1176 41.022H33.0496C32.7926 41.022 32.5846 41.231 32.5846 41.491V54.116C32.5846 54.375 32.7926 54.584 33.0496 54.584H35.1176C35.3746 54.584 35.5826 54.375 35.5826 54.116V46.619C35.5826 45.456 36.0536 44.747 36.4476 44.353C36.9476 43.858 37.6186 43.579 38.3196 43.575C39.8386 43.575 40.6416 44.6 40.6416 46.541V54.116C40.6416 54.375 40.8496 54.584 41.1066 54.584H43.1746C43.4316 54.584 43.6396 54.375 43.6396 54.116V46.619C43.6396 45.456 44.1106 44.747 44.5046 44.353C45.0006 43.862 45.6826 43.578 46.3736 43.578ZM74.9066 47.453C74.9066 45.575 74.3636 43.891 73.3806 42.709C72.3206 41.434 70.7836 40.762 68.9386 40.762C67.1436 40.762 65.5096 41.484 64.3356 42.797C63.1726 44.094 62.5336 45.878 62.5336 47.819C62.5336 51.972 65.2216 54.875 69.0686 54.875C71.5276 54.875 73.5546 53.662 74.5966 51.606C74.7266 51.347 74.6146 51.053 74.3446 50.95L72.6806 50.316C72.4506 50.228 72.1966 50.337 72.0946 50.562C71.5766 51.675 70.4796 52.322 69.0716 52.322C67.0446 52.322 65.6406 50.859 65.4076 48.503L65.4016 48.447H74.4446C74.7016 48.447 74.9096 48.237 74.9096 47.978V47.453H74.9066ZM65.5446 46.203L65.5596 46.141C66.0156 44.331 67.2366 43.291 68.9136 43.291C70.6866 43.291 71.8526 44.413 71.8806 46.15V46.2H65.5446V46.203ZM30.1976 53.953L23.5636 36.303C23.4956 36.122 23.3226 36 23.1296 36H20.0986C19.9056 36 19.7326 36.122 19.6646 36.303L13.0306 53.953C12.9156 54.259 13.1386 54.587 13.4646 54.587H15.6406C15.8356 54.587 16.0096 54.466 16.0776 54.281L17.2646 51.072H25.8916L27.0976 54.284C27.1666 54.466 27.3396 54.587 27.5316 54.587H29.7606C29.9136 54.588 30.0576 54.513 30.1446 54.386C30.2326 54.259 30.2516 54.097 30.1976 53.953ZM18.3066 48.259L21.5486 39.503L24.8376 48.259H18.3066ZM53.7796 41.494V43.362C53.7796 43.622 53.9876 43.831 54.2446 43.831H56.5386V54.119C56.5386 54.378 56.7466 54.588 57.0036 54.588H59.0716C59.3286 54.588 59.5366 54.378 59.5366 54.119V41.494C59.5366 41.234 59.3286 41.025 59.0716 41.025H54.2416C53.9876 41.025 53.7796 41.234 53.7796 41.494ZM56.4886 36.469V38.631C56.4886 38.891 56.6966 39.1 56.9536 39.1H59.1276C59.3846 39.1 59.5926 38.891 59.5926 38.631V36.469C59.5926 36.209 59.3846 36 59.1276 36H56.9536C56.6966 36 56.4886 36.212 56.4886 36.469Z" fill="white"/>
</svg>
