<?xml version="1.0" encoding="UTF-8"?>
<!-- This file is generated by npm run build:icons -->
<svg xmlns="http://www.w3.org/2000/svg" xmlns:xlink="http://www.w3.org/1999/xlink" width="0" height="0">
<defs>
<symbol class="lucide lucide-activity" viewBox="0 0 24 24" fill="inherit" stroke="currentColor" stroke-width="2" stroke-linecap="round" stroke-linejoin="round" id="activity">
  <path d="M22 12h-2.48a2 2 0 0 0-1.93 1.46l-2.35 8.36a.25.25 0 0 1-.48 0L9.24 2.18a.25.25 0 0 0-.48 0l-2.35 8.36A2 2 0 0 1 4.49 12H2" ></path>
</symbol>
<symbol class="lucide lucide-arrow-down" viewBox="0 0 24 24" fill="inherit" stroke="currentColor" stroke-width="2" stroke-linecap="round" stroke-linejoin="round" id="arrow-down">
  <path d="M12 5v14" ></path>
  <path d="m19 12-7 7-7-7" ></path>
</symbol>
<symbol class="lucide lucide-arrow-left" viewBox="0 0 24 24" fill="inherit" stroke="currentColor" stroke-width="2" stroke-linecap="round" stroke-linejoin="round" id="arrow-left">
  <path d="m12 19-7-7 7-7" ></path>
  <path d="M19 12H5" ></path>
</symbol>
<symbol class="lucide lucide-arrow-right" viewBox="0 0 24 24" fill="inherit" stroke="currentColor" stroke-width="2" stroke-linecap="round" stroke-linejoin="round" id="arrow-right">
  <path d="M5 12h14" ></path>
  <path d="m12 5 7 7-7 7" ></path>
</symbol>
<symbol class="lucide lucide-arrow-up-right" viewBox="0 0 24 24" fill="inherit" stroke="currentColor" stroke-width="2" stroke-linecap="round" stroke-linejoin="round" id="arrow-up-right">
  <path d="M7 7h10v10" ></path>
  <path d="M7 17 17 7" ></path>
</symbol>
<symbol class="lucide lucide-arrow-up" viewBox="0 0 24 24" fill="inherit" stroke="currentColor" stroke-width="2" stroke-linecap="round" stroke-linejoin="round" id="arrow-up">
  <path d="m5 12 7-7 7 7" ></path>
  <path d="M12 19V5" ></path>
</symbol>
<symbol class="lucide lucide-asterisk" viewBox="0 0 24 24" fill="inherit" stroke="currentColor" stroke-width="2" stroke-linecap="round" stroke-linejoin="round" id="asterisk">
  <path d="M12 6v12" ></path>
  <path d="M17.196 9 6.804 15" ></path>
  <path d="m6.804 9 10.392 6" ></path>
</symbol>
<symbol class="lucide lucide-at-sign" viewBox="0 0 24 24" fill="inherit" stroke="currentColor" stroke-width="2" stroke-linecap="round" stroke-linejoin="round" id="at-sign">
  <circle cx="12" cy="12" r="4" ></circle>
  <path d="M16 8v5a3 3 0 0 0 6 0v-1a10 10 0 1 0-4 8" ></path>
</symbol>
<symbol class="lucide lucide-atom" viewBox="0 0 24 24" fill="inherit" stroke="currentColor" stroke-width="2" stroke-linecap="round" stroke-linejoin="round" id="atom">
  <circle cx="12" cy="12" r="1" ></circle>
  <path d="M20.2 20.2c2.04-2.03.02-7.36-4.5-11.9-4.54-4.52-9.87-6.54-11.9-4.5-2.04 2.03-.02 7.36 4.5 11.9 4.54 4.52 9.87 6.54 11.9 4.5Z" ></path>
  <path d="M15.7 15.7c4.52-4.54 6.54-9.87 4.5-11.9-2.03-2.04-7.36-.02-11.9 4.5-4.52 4.54-6.54 9.87-4.5 11.9 2.03 2.04 7.36.02 11.9-4.5Z" ></path>
</symbol>
<symbol class="lucide lucide-badge-check" viewBox="0 0 24 24" fill="inherit" stroke="currentColor" stroke-width="2" stroke-linecap="round" stroke-linejoin="round" id="badge-check">
  <path d="M3.85 8.62a4 4 0 0 1 4.78-4.77 4 4 0 0 1 6.74 0 4 4 0 0 1 4.78 4.78 4 4 0 0 1 0 6.74 4 4 0 0 1-4.77 4.78 4 4 0 0 1-6.75 0 4 4 0 0 1-4.78-4.77 4 4 0 0 1 0-6.76Z" ></path>
  <path d="m9 12 2 2 4-4" ></path>
</symbol>
<symbol class="lucide lucide-ban" viewBox="0 0 24 24" fill="inherit" stroke="currentColor" stroke-width="2" stroke-linecap="round" stroke-linejoin="round" id="ban">
  <circle cx="12" cy="12" r="10" ></circle>
  <path d="m4.9 4.9 14.2 14.2" ></path>
</symbol>
<symbol class="lucide lucide-bell" viewBox="0 0 24 24" fill="inherit" stroke="currentColor" stroke-width="2" stroke-linecap="round" stroke-linejoin="round" id="bell">
  <path d="M6 8a6 6 0 0 1 12 0c0 7 3 9 3 9H3s3-2 3-9" ></path>
  <path d="M10.3 21a1.94 1.94 0 0 0 3.4 0" ></path>
</symbol>
<symbol class="lucide lucide-blocks" viewBox="0 0 24 24" fill="inherit" stroke="currentColor" stroke-width="2" stroke-linecap="round" stroke-linejoin="round" id="blocks">
  <rect width="7" height="7" x="14" y="3" rx="1" ></rect>
  <path d="M10 21V8a1 1 0 0 0-1-1H4a1 1 0 0 0-1 1v12a1 1 0 0 0 1 1h12a1 1 0 0 0 1-1v-5a1 1 0 0 0-1-1H3" ></path>
</symbol>
<symbol class="lucide lucide-bold" viewBox="0 0 24 24" fill="inherit" stroke="currentColor" stroke-width="2" stroke-linecap="round" stroke-linejoin="round" id="bold">
  <path d="M6 12h9a4 4 0 0 1 0 8H7a1 1 0 0 1-1-1V5a1 1 0 0 1 1-1h7a4 4 0 0 1 0 8" ></path>
</symbol>
<symbol class="lucide lucide-book-open-check" viewBox="0 0 24 24" fill="inherit" stroke="currentColor" stroke-width="2" stroke-linecap="round" stroke-linejoin="round" id="book-open-check">
  <path d="M8 3H2v15h7c1.7 0 3 1.3 3 3V7c0-2.2-1.8-4-4-4Z" ></path>
  <path d="m16 12 2 2 4-4" ></path>
  <path d="M22 6V3h-6c-2.2 0-4 1.8-4 4v14c0-1.7 1.3-3 3-3h7v-2.3" ></path>
</symbol>
<symbol class="lucide lucide-book-open" viewBox="0 0 24 24" fill="inherit" stroke="currentColor" stroke-width="2" stroke-linecap="round" stroke-linejoin="round" id="book-open">
  <path d="M2 3h6a4 4 0 0 1 4 4v14a3 3 0 0 0-3-3H2z" ></path>
  <path d="M22 3h-6a4 4 0 0 0-4 4v14a3 3 0 0 1 3-3h7z" ></path>
</symbol>
<symbol class="lucide lucide-book-user" viewBox="0 0 24 24" fill="inherit" stroke="currentColor" stroke-width="2" stroke-linecap="round" stroke-linejoin="round" id="book-user">
  <path d="M15 13a3 3 0 1 0-6 0" ></path>
  <path d="M4 19.5v-15A2.5 2.5 0 0 1 6.5 2H19a1 1 0 0 1 1 1v18a1 1 0 0 1-1 1H6.5a1 1 0 0 1 0-5H20" ></path>
  <circle cx="12" cy="8" r="2" ></circle>
</symbol>
<symbol class="lucide lucide-building" viewBox="0 0 24 24" fill="inherit" stroke="currentColor" stroke-width="2" stroke-linecap="round" stroke-linejoin="round" id="building">
  <rect width="16" height="20" x="4" y="2" rx="2" ry="2" ></rect>
  <path d="M9 22v-4h6v4" ></path>
  <path d="M8 6h.01" ></path>
  <path d="M16 6h.01" ></path>
  <path d="M12 6h.01" ></path>
  <path d="M12 10h.01" ></path>
  <path d="M12 14h.01" ></path>
  <path d="M16 10h.01" ></path>
  <path d="M16 14h.01" ></path>
  <path d="M8 10h.01" ></path>
  <path d="M8 14h.01" ></path>
</symbol>
<symbol class="lucide lucide-calendar-check-2" viewBox="0 0 24 24" fill="inherit" stroke="currentColor" stroke-width="2" stroke-linecap="round" stroke-linejoin="round" id="calendar-check-2">
  <path d="M8 2v4" ></path>
  <path d="M16 2v4" ></path>
  <path d="M21 14V6a2 2 0 0 0-2-2H5a2 2 0 0 0-2 2v14a2 2 0 0 0 2 2h8" ></path>
  <path d="M3 10h18" ></path>
  <path d="m16 20 2 2 4-4" ></path>
</symbol>
<symbol class="lucide lucide-calendar-days" viewBox="0 0 24 24" fill="inherit" stroke="currentColor" stroke-width="2" stroke-linecap="round" stroke-linejoin="round" id="calendar-days">
  <path d="M8 2v4" ></path>
  <path d="M16 2v4" ></path>
  <rect width="18" height="18" x="3" y="4" rx="2" ></rect>
  <path d="M3 10h18" ></path>
  <path d="M8 14h.01" ></path>
  <path d="M12 14h.01" ></path>
  <path d="M16 14h.01" ></path>
  <path d="M8 18h.01" ></path>
  <path d="M12 18h.01" ></path>
  <path d="M16 18h.01" ></path>
</symbol>
<symbol class="lucide lucide-calendar-heart" viewBox="0 0 24 24" fill="inherit" stroke="currentColor" stroke-width="2" stroke-linecap="round" stroke-linejoin="round" id="calendar-heart">
  <path d="M3 10h18V6a2 2 0 0 0-2-2H5a2 2 0 0 0-2 2v14a2 2 0 0 0 2 2h7" ></path>
  <path d="M8 2v4" ></path>
  <path d="M16 2v4" ></path>
  <path d="M21.29 14.7a2.43 2.43 0 0 0-2.65-.52c-.3.12-.57.3-.8.53l-.34.34-.35-.34a2.43 2.43 0 0 0-2.65-.53c-.3.12-.56.3-.79.53-.95.94-1 2.53.2 3.74L17.5 22l3.6-3.55c1.2-1.21 1.14-2.8.19-3.74Z" ></path>
</symbol>
<symbol class="lucide lucide-calendar-search" viewBox="0 0 24 24" fill="inherit" stroke="currentColor" stroke-width="2" stroke-linecap="round" stroke-linejoin="round" id="calendar-search">
  <path d="M16 2v4" ></path>
  <path d="M21 11.75V6a2 2 0 0 0-2-2H5a2 2 0 0 0-2 2v14a2 2 0 0 0 2 2h7.25" ></path>
  <path d="m22 22-1.875-1.875" ></path>
  <path d="M3 10h18" ></path>
  <path d="M8 2v4" ></path>
  <circle cx="18" cy="18" r="3" ></circle>
</symbol>
<symbol class="lucide lucide-calendar-x-2" viewBox="0 0 24 24" fill="inherit" stroke="currentColor" stroke-width="2" stroke-linecap="round" stroke-linejoin="round" id="calendar-x-2">
  <path d="M8 2v4" ></path>
  <path d="M16 2v4" ></path>
  <path d="M21 13V6a2 2 0 0 0-2-2H5a2 2 0 0 0-2 2v14a2 2 0 0 0 2 2h8" ></path>
  <path d="M3 10h18" ></path>
  <path d="m17 22 5-5" ></path>
  <path d="m17 17 5 5" ></path>
</symbol>
<symbol class="lucide lucide-calendar" viewBox="0 0 24 24" fill="inherit" stroke="currentColor" stroke-width="2" stroke-linecap="round" stroke-linejoin="round" id="calendar">
  <path d="M8 2v4" ></path>
  <path d="M16 2v4" ></path>
  <rect width="18" height="18" x="3" y="4" rx="2" ></rect>
  <path d="M3 10h18" ></path>
</symbol>
<symbol class="lucide lucide-chart-bar" viewBox="0 0 24 24" fill="inherit" stroke="currentColor" stroke-width="2" stroke-linecap="round" stroke-linejoin="round" id="chart-bar">
  <path d="M3 3v16a2 2 0 0 0 2 2h16" ></path>
  <path d="M7 16h8" ></path>
  <path d="M7 11h12" ></path>
  <path d="M7 6h3" ></path>
</symbol>
<symbol class="lucide lucide-chart-line" viewBox="0 0 24 24" fill="inherit" stroke="currentColor" stroke-width="2" stroke-linecap="round" stroke-linejoin="round" id="chart-line">
  <path d="M3 3v16a2 2 0 0 0 2 2h16" ></path>
  <path d="m19 9-5 5-4-4-3 3" ></path>
</symbol>
<symbol class="lucide lucide-check-check" viewBox="0 0 24 24" fill="inherit" stroke="currentColor" stroke-width="2" stroke-linecap="round" stroke-linejoin="round" id="check-check">
  <path d="M18 6 7 17l-5-5" ></path>
  <path d="m22 10-7.5 7.5L13 16" ></path>
</symbol>
<symbol class="lucide lucide-check" viewBox="0 0 24 24" fill="inherit" stroke="currentColor" stroke-width="2" stroke-linecap="round" stroke-linejoin="round" id="check">
  <path d="M20 6 9 17l-5-5" ></path>
</symbol>
<symbol class="lucide lucide-chevron-down" viewBox="0 0 24 24" fill="inherit" stroke="currentColor" stroke-width="2" stroke-linecap="round" stroke-linejoin="round" id="chevron-down">
  <path d="m6 9 6 6 6-6" ></path>
</symbol>
<symbol class="lucide lucide-chevron-left" viewBox="0 0 24 24" fill="inherit" stroke="currentColor" stroke-width="2" stroke-linecap="round" stroke-linejoin="round" id="chevron-left">
  <path d="m15 18-6-6 6-6" ></path>
</symbol>
<symbol class="lucide lucide-chevron-right" viewBox="0 0 24 24" fill="inherit" stroke="currentColor" stroke-width="2" stroke-linecap="round" stroke-linejoin="round" id="chevron-right">
  <path d="m9 18 6-6-6-6" ></path>
</symbol>
<symbol class="lucide lucide-chevron-up" viewBox="0 0 24 24" fill="inherit" stroke="currentColor" stroke-width="2" stroke-linecap="round" stroke-linejoin="round" id="chevron-up">
  <path d="m18 15-6-6-6 6" ></path>
</symbol>
<symbol class="lucide lucide-chevrons-down-up" viewBox="0 0 24 24" fill="inherit" stroke="currentColor" stroke-width="2" stroke-linecap="round" stroke-linejoin="round" id="chevrons-down-up">
  <path d="m7 20 5-5 5 5" ></path>
  <path d="m7 4 5 5 5-5" ></path>
</symbol>
<symbol class="lucide lucide-chevrons-left" viewBox="0 0 24 24" fill="inherit" stroke="currentColor" stroke-width="2" stroke-linecap="round" stroke-linejoin="round" id="chevrons-left">
  <path d="m11 17-5-5 5-5" ></path>
  <path d="m18 17-5-5 5-5" ></path>
</symbol>
<symbol class="lucide lucide-chevrons-right" viewBox="0 0 24 24" fill="inherit" stroke="currentColor" stroke-width="2" stroke-linecap="round" stroke-linejoin="round" id="chevrons-right">
  <path d="m6 17 5-5-5-5" ></path>
  <path d="m13 17 5-5-5-5" ></path>
</symbol>
<symbol class="lucide lucide-circle-alert" viewBox="0 0 24 24" fill="inherit" stroke="currentColor" stroke-width="2" stroke-linecap="round" stroke-linejoin="round" id="circle-alert">
  <circle cx="12" cy="12" r="10" ></circle>
  <line x1="12" x2="12" y1="8" y2="12" ></line>
  <line x1="12" x2="12.01" y1="16" y2="16" ></line>
</symbol>
<symbol class="lucide lucide-circle-arrow-up" viewBox="0 0 24 24" fill="inherit" stroke="currentColor" stroke-width="2" stroke-linecap="round" stroke-linejoin="round" id="circle-arrow-up">
  <circle cx="12" cy="12" r="10" ></circle>
  <path d="m16 12-4-4-4 4" ></path>
  <path d="M12 16V8" ></path>
</symbol>
<symbol class="lucide lucide-circle-check-big" viewBox="0 0 24 24" fill="inherit" stroke="currentColor" stroke-width="2" stroke-linecap="round" stroke-linejoin="round" id="circle-check-big">
  <path d="M21.801 10A10 10 0 1 1 17 3.335" ></path>
  <path d="m9 11 3 3L22 4" ></path>
</symbol>
<symbol class="lucide lucide-circle-check" viewBox="0 0 24 24" fill="inherit" stroke="currentColor" stroke-width="2" stroke-linecap="round" stroke-linejoin="round" id="circle-check">
  <circle cx="12" cy="12" r="10" ></circle>
  <path d="m9 12 2 2 4-4" ></path>
</symbol>
<symbol class="lucide lucide-circle-help" viewBox="0 0 24 24" fill="inherit" stroke="currentColor" stroke-width="2" stroke-linecap="round" stroke-linejoin="round" id="circle-help">
  <circle cx="12" cy="12" r="10" ></circle>
  <path d="M9.09 9a3 3 0 0 1 5.83 1c0 2-3 3-3 3" ></path>
  <path d="M12 17h.01" ></path>
</symbol>
<symbol class="lucide lucide-circle-x" viewBox="0 0 24 24" fill="inherit" stroke="currentColor" stroke-width="2" stroke-linecap="round" stroke-linejoin="round" id="circle-x">
  <circle cx="12" cy="12" r="10" ></circle>
  <path d="m15 9-6 6" ></path>
  <path d="m9 9 6 6" ></path>
</symbol>
<symbol class="lucide lucide-circle" viewBox="0 0 24 24" fill="inherit" stroke="currentColor" stroke-width="2" stroke-linecap="round" stroke-linejoin="round" id="circle">
  <circle cx="12" cy="12" r="10" ></circle>
</symbol>
<symbol class="lucide lucide-clipboard-check" viewBox="0 0 24 24" fill="inherit" stroke="currentColor" stroke-width="2" stroke-linecap="round" stroke-linejoin="round" id="clipboard-check">
  <rect width="8" height="4" x="8" y="2" rx="1" ry="1" ></rect>
  <path d="M16 4h2a2 2 0 0 1 2 2v14a2 2 0 0 1-2 2H6a2 2 0 0 1-2-2V6a2 2 0 0 1 2-2h2" ></path>
  <path d="m9 14 2 2 4-4" ></path>
</symbol>
<symbol class="lucide lucide-clipboard" viewBox="0 0 24 24" fill="inherit" stroke="currentColor" stroke-width="2" stroke-linecap="round" stroke-linejoin="round" id="clipboard">
  <rect width="8" height="4" x="8" y="2" rx="1" ry="1" ></rect>
  <path d="M16 4h2a2 2 0 0 1 2 2v14a2 2 0 0 1-2 2H6a2 2 0 0 1-2-2V6a2 2 0 0 1 2-2h2" ></path>
</symbol>
<symbol class="lucide lucide-clock" viewBox="0 0 24 24" fill="inherit" stroke="currentColor" stroke-width="2" stroke-linecap="round" stroke-linejoin="round" id="clock">
  <circle cx="12" cy="12" r="10" ></circle>
  <polyline points="12 6 12 12 16 14" ></polyline>
</symbol>
<symbol class="lucide lucide-code" viewBox="0 0 24 24" fill="inherit" stroke="currentColor" stroke-width="2" stroke-linecap="round" stroke-linejoin="round" id="code">
  <polyline points="16 18 22 12 16 6" ></polyline>
  <polyline points="8 6 2 12 8 18" ></polyline>
</symbol>
<symbol class="lucide lucide-columns-3" viewBox="0 0 24 24" fill="inherit" stroke="currentColor" stroke-width="2" stroke-linecap="round" stroke-linejoin="round" id="columns-3">
  <rect width="18" height="18" x="3" y="3" rx="2" ></rect>
  <path d="M9 3v18" ></path>
  <path d="M15 3v18" ></path>
</symbol>
<symbol class="lucide lucide-command" viewBox="0 0 24 24" fill="inherit" stroke="currentColor" stroke-width="2" stroke-linecap="round" stroke-linejoin="round" id="command">
  <path d="M15 6v12a3 3 0 1 0 3-3H6a3 3 0 1 0 3 3V6a3 3 0 1 0-3 3h12a3 3 0 1 0-3-3" ></path>
</symbol>
<symbol class="lucide lucide-contact" viewBox="0 0 24 24" fill="inherit" stroke="currentColor" stroke-width="2" stroke-linecap="round" stroke-linejoin="round" id="contact">
  <path d="M17 18a2 2 0 0 0-2-2H9a2 2 0 0 0-2 2" ></path>
  <rect width="18" height="18" x="3" y="4" rx="2" ></rect>
  <circle cx="12" cy="10" r="2" ></circle>
  <line x1="8" x2="8" y1="2" y2="4" ></line>
  <line x1="16" x2="16" y1="2" y2="4" ></line>
</symbol>
<symbol class="lucide lucide-copy" viewBox="0 0 24 24" fill="inherit" stroke="currentColor" stroke-width="2" stroke-linecap="round" stroke-linejoin="round" id="copy">
  <rect width="14" height="14" x="8" y="8" rx="2" ry="2" ></rect>
  <path d="M4 16c-1.1 0-2-.9-2-2V4c0-1.1.9-2 2-2h10c1.1 0 2 .9 2 2" ></path>
</symbol>
<symbol class="lucide lucide-corner-down-left" viewBox="0 0 24 24" fill="inherit" stroke="currentColor" stroke-width="2" stroke-linecap="round" stroke-linejoin="round" id="corner-down-left">
  <polyline points="9 10 4 15 9 20" ></polyline>
  <path d="M20 4v7a4 4 0 0 1-4 4H4" ></path>
</symbol>
<symbol class="lucide lucide-corner-down-right" viewBox="0 0 24 24" fill="inherit" stroke="currentColor" stroke-width="2" stroke-linecap="round" stroke-linejoin="round" id="corner-down-right">
  <polyline points="15 10 20 15 15 20" ></polyline>
  <path d="M4 4v7a4 4 0 0 0 4 4h12" ></path>
</symbol>
<symbol class="lucide lucide-credit-card" viewBox="0 0 24 24" fill="inherit" stroke="currentColor" stroke-width="2" stroke-linecap="round" stroke-linejoin="round" id="credit-card">
  <rect width="20" height="14" x="2" y="5" rx="2" ></rect>
  <line x1="2" x2="22" y1="10" y2="10" ></line>
</symbol>
<symbol class="lucide lucide-dot" viewBox="0 0 24 24" fill="inherit" stroke="currentColor" stroke-width="2" stroke-linecap="round" stroke-linejoin="round" id="dot">
  <circle cx="12.1" cy="12.1" r="1" ></circle>
</symbol>
<symbol class="lucide lucide-download" viewBox="0 0 24 24" fill="inherit" stroke="currentColor" stroke-width="2" stroke-linecap="round" stroke-linejoin="round" id="download">
  <path d="M21 15v4a2 2 0 0 1-2 2H5a2 2 0 0 1-2-2v-4" ></path>
  <polyline points="7 10 12 15 17 10" ></polyline>
  <line x1="12" x2="12" y1="15" y2="3" ></line>
</symbol>
<symbol class="lucide lucide-ellipsis-vertical" viewBox="0 0 24 24" fill="inherit" stroke="currentColor" stroke-width="2" stroke-linecap="round" stroke-linejoin="round" id="ellipsis-vertical">
  <circle cx="12" cy="12" r="1" ></circle>
  <circle cx="12" cy="5" r="1" ></circle>
  <circle cx="12" cy="19" r="1" ></circle>
</symbol>
<symbol class="lucide lucide-ellipsis" viewBox="0 0 24 24" fill="inherit" stroke="currentColor" stroke-width="2" stroke-linecap="round" stroke-linejoin="round" id="ellipsis">
  <circle cx="12" cy="12" r="1" ></circle>
  <circle cx="19" cy="12" r="1" ></circle>
  <circle cx="5" cy="12" r="1" ></circle>
</symbol>
<symbol class="lucide lucide-external-link" viewBox="0 0 24 24" fill="inherit" stroke="currentColor" stroke-width="2" stroke-linecap="round" stroke-linejoin="round" id="external-link">
  <path d="M15 3h6v6" ></path>
  <path d="M10 14 21 3" ></path>
  <path d="M18 13v6a2 2 0 0 1-2 2H5a2 2 0 0 1-2-2V8a2 2 0 0 1 2-2h6" ></path>
</symbol>
<symbol class="lucide lucide-eye-off" viewBox="0 0 24 24" fill="inherit" stroke="currentColor" stroke-width="2" stroke-linecap="round" stroke-linejoin="round" id="eye-off">
  <path d="M10.733 5.076a10.744 10.744 0 0 1 11.205 6.575 1 1 0 0 1 0 .696 10.747 10.747 0 0 1-1.444 2.49" ></path>
  <path d="M14.084 14.158a3 3 0 0 1-4.242-4.242" ></path>
  <path d="M17.479 17.499a10.75 10.75 0 0 1-15.417-5.151 1 1 0 0 1 0-.696 10.75 10.75 0 0 1 4.446-5.143" ></path>
  <path d="m2 2 20 20" ></path>
</symbol>
<symbol class="lucide lucide-eye" viewBox="0 0 24 24" fill="inherit" stroke="currentColor" stroke-width="2" stroke-linecap="round" stroke-linejoin="round" id="eye">
  <path d="M2.062 12.348a1 1 0 0 1 0-.696 10.75 10.75 0 0 1 19.876 0 1 1 0 0 1 0 .696 10.75 10.75 0 0 1-19.876 0" ></path>
  <circle cx="12" cy="12" r="3" ></circle>
</symbol>
<symbol class="lucide lucide-file-down" viewBox="0 0 24 24" fill="inherit" stroke="currentColor" stroke-width="2" stroke-linecap="round" stroke-linejoin="round" id="file-down">
  <path d="M15 2H6a2 2 0 0 0-2 2v16a2 2 0 0 0 2 2h12a2 2 0 0 0 2-2V7Z" ></path>
  <path d="M14 2v4a2 2 0 0 0 2 2h4" ></path>
  <path d="M12 18v-6" ></path>
  <path d="m9 15 3 3 3-3" ></path>
</symbol>
<symbol class="lucide lucide-file-text" viewBox="0 0 24 24" fill="inherit" stroke="currentColor" stroke-width="2" stroke-linecap="round" stroke-linejoin="round" id="file-text">
  <path d="M15 2H6a2 2 0 0 0-2 2v16a2 2 0 0 0 2 2h12a2 2 0 0 0 2-2V7Z" ></path>
  <path d="M14 2v4a2 2 0 0 0 2 2h4" ></path>
  <path d="M10 9H8" ></path>
  <path d="M16 13H8" ></path>
  <path d="M16 17H8" ></path>
</symbol>
<symbol class="lucide lucide-file" viewBox="0 0 24 24" fill="inherit" stroke="currentColor" stroke-width="2" stroke-linecap="round" stroke-linejoin="round" id="file">
  <path d="M15 2H6a2 2 0 0 0-2 2v16a2 2 0 0 0 2 2h12a2 2 0 0 0 2-2V7Z" ></path>
  <path d="M14 2v4a2 2 0 0 0 2 2h4" ></path>
</symbol>
<symbol class="lucide lucide-filter" viewBox="0 0 24 24" fill="inherit" stroke="currentColor" stroke-width="2" stroke-linecap="round" stroke-linejoin="round" id="filter">
  <polygon points="22 3 2 3 10 12.46 10 19 14 21 14 12.46 22 3" ></polygon>
</symbol>
<symbol class="lucide lucide-fingerprint" viewBox="0 0 24 24" fill="inherit" stroke="currentColor" stroke-width="2" stroke-linecap="round" stroke-linejoin="round" id="fingerprint">
  <path d="M12 10a2 2 0 0 0-2 2c0 1.02-.1 2.51-.26 4" ></path>
  <path d="M14 13.12c0 2.38 0 6.38-1 8.88" ></path>
  <path d="M17.29 21.02c.12-.6.43-2.3.5-3.02" ></path>
  <path d="M2 12a10 10 0 0 1 18-6" ></path>
  <path d="M2 16h.01" ></path>
  <path d="M21.8 16c.2-2 .131-5.354 0-6" ></path>
  <path d="M5 19.5C5.5 18 6 15 6 12a6 6 0 0 1 .34-2" ></path>
  <path d="M8.65 22c.21-.66.45-1.32.57-2" ></path>
  <path d="M9 6.8a6 6 0 0 1 9 5.2v2" ></path>
</symbol>
<symbol class="lucide lucide-flag" viewBox="0 0 24 24" fill="inherit" stroke="currentColor" stroke-width="2" stroke-linecap="round" stroke-linejoin="round" id="flag">
  <path d="M4 15s1-1 4-1 5 2 8 2 4-1 4-1V3s-1 1-4 1-5-2-8-2-4 1-4 1z" ></path>
  <line x1="4" x2="4" y1="22" y2="15" ></line>
</symbol>
<symbol class="lucide lucide-folder" viewBox="0 0 24 24" fill="inherit" stroke="currentColor" stroke-width="2" stroke-linecap="round" stroke-linejoin="round" id="folder">
  <path d="M20 20a2 2 0 0 0 2-2V8a2 2 0 0 0-2-2h-7.9a2 2 0 0 1-1.69-.9L9.6 3.9A2 2 0 0 0 7.93 3H4a2 2 0 0 0-2 2v13a2 2 0 0 0 2 2Z" ></path>
</symbol>
<symbol class="lucide lucide-gift" viewBox="0 0 24 24" fill="inherit" stroke="currentColor" stroke-width="2" stroke-linecap="round" stroke-linejoin="round" id="gift">
  <rect x="3" y="8" width="18" height="4" rx="1" ></rect>
  <path d="M12 8v13" ></path>
  <path d="M19 12v7a2 2 0 0 1-2 2H7a2 2 0 0 1-2-2v-7" ></path>
  <path d="M7.5 8a2.5 2.5 0 0 1 0-5A4.8 8 0 0 1 12 8a4.8 8 0 0 1 4.5-5 2.5 2.5 0 0 1 0 5" ></path>
</symbol>
<symbol class="lucide lucide-git-merge" viewBox="0 0 24 24" fill="inherit" stroke="currentColor" stroke-width="2" stroke-linecap="round" stroke-linejoin="round" id="git-merge">
  <circle cx="18" cy="18" r="3" ></circle>
  <circle cx="6" cy="6" r="3" ></circle>
  <path d="M6 21V9a9 9 0 0 0 9 9" ></path>
</symbol>
<symbol class="lucide lucide-github" viewBox="0 0 24 24" fill="inherit" stroke="currentColor" stroke-width="2" stroke-linecap="round" stroke-linejoin="round" id="github">
  <path d="M15 22v-4a4.8 4.8 0 0 0-1-3.5c3 0 6-2 6-5.5.08-1.25-.27-2.48-1-3.5.28-1.15.28-2.35 0-3.5 0 0-1 0-3 1.5-2.64-.5-5.36-.5-8 0C6 2 5 2 5 2c-.3 1.15-.3 2.35 0 3.5A5.403 5.403 0 0 0 4 9c0 3.5 3 5.5 6 5.5-.39.49-.68 1.05-.85 1.65-.17.6-.22 1.23-.15 1.85v4" ></path>
  <path d="M9 18c-4.51 2-5-2-7-2" ></path>
</symbol>
<symbol class="lucide lucide-globe" viewBox="0 0 24 24" fill="inherit" stroke="currentColor" stroke-width="2" stroke-linecap="round" stroke-linejoin="round" id="globe">
  <circle cx="12" cy="12" r="10" ></circle>
  <path d="M12 2a14.5 14.5 0 0 0 0 20 14.5 14.5 0 0 0 0-20" ></path>
  <path d="M2 12h20" ></path>
</symbol>
<symbol class="lucide lucide-grid-3x3" viewBox="0 0 24 24" fill="inherit" stroke="currentColor" stroke-width="2" stroke-linecap="round" stroke-linejoin="round" id="grid-3x3">
  <rect width="18" height="18" x="3" y="3" rx="2" ></rect>
  <path d="M3 9h18" ></path>
  <path d="M3 15h18" ></path>
  <path d="M9 3v18" ></path>
  <path d="M15 3v18" ></path>
</symbol>
<symbol class="lucide lucide-handshake" viewBox="0 0 24 24" fill="inherit" stroke="currentColor" stroke-width="2" stroke-linecap="round" stroke-linejoin="round" id="handshake">
  <path d="m11 17 2 2a1 1 0 1 0 3-3" ></path>
  <path d="m14 14 2.5 2.5a1 1 0 1 0 3-3l-3.88-3.88a3 3 0 0 0-4.24 0l-.88.88a1 1 0 1 1-3-3l2.81-2.81a5.79 5.79 0 0 1 7.06-.87l.47.28a2 2 0 0 0 1.42.25L21 4" ></path>
  <path d="m21 3 1 11h-2" ></path>
  <path d="M3 3 2 14l6.5 6.5a1 1 0 1 0 3-3" ></path>
  <path d="M3 4h8" ></path>
</symbol>
<symbol class="lucide lucide-info" viewBox="0 0 24 24" fill="inherit" stroke="currentColor" stroke-width="2" stroke-linecap="round" stroke-linejoin="round" id="info">
  <circle cx="12" cy="12" r="10" ></circle>
  <path d="M12 16v-4" ></path>
  <path d="M12 8h.01" ></path>
</symbol>
<symbol class="lucide lucide-italic" viewBox="0 0 24 24" fill="inherit" stroke="currentColor" stroke-width="2" stroke-linecap="round" stroke-linejoin="round" id="italic">
  <line x1="19" x2="10" y1="4" y2="4" ></line>
  <line x1="14" x2="5" y1="20" y2="20" ></line>
  <line x1="15" x2="9" y1="4" y2="20" ></line>
</symbol>
<symbol class="lucide lucide-key" viewBox="0 0 24 24" fill="inherit" stroke="currentColor" stroke-width="2" stroke-linecap="round" stroke-linejoin="round" id="key">
  <path d="m15.5 7.5 2.3 2.3a1 1 0 0 0 1.4 0l2.1-2.1a1 1 0 0 0 0-1.4L19 4" ></path>
  <path d="m21 2-9.6 9.6" ></path>
  <circle cx="7.5" cy="15.5" r="5.5" ></circle>
</symbol>
<symbol class="lucide lucide-layers" viewBox="0 0 24 24" fill="inherit" stroke="currentColor" stroke-width="2" stroke-linecap="round" stroke-linejoin="round" id="layers">
  <path d="m12.83 2.18a2 2 0 0 0-1.66 0L2.6 6.08a1 1 0 0 0 0 1.83l8.58 3.91a2 2 0 0 0 1.66 0l8.58-3.9a1 1 0 0 0 0-1.83Z" ></path>
  <path d="m22 17.65-9.17 4.16a2 2 0 0 1-1.66 0L2 17.65" ></path>
  <path d="m22 12.65-9.17 4.16a2 2 0 0 1-1.66 0L2 12.65" ></path>
</symbol>
<symbol class="lucide lucide-layout-dashboard" viewBox="0 0 24 24" fill="inherit" stroke="currentColor" stroke-width="2" stroke-linecap="round" stroke-linejoin="round" id="layout-dashboard">
  <rect width="7" height="9" x="3" y="3" rx="1" ></rect>
  <rect width="7" height="5" x="14" y="3" rx="1" ></rect>
  <rect width="7" height="9" x="14" y="12" rx="1" ></rect>
  <rect width="7" height="5" x="3" y="16" rx="1" ></rect>
</symbol>
<symbol class="lucide lucide-link-2" viewBox="0 0 24 24" fill="inherit" stroke="currentColor" stroke-width="2" stroke-linecap="round" stroke-linejoin="round" id="link-2">
  <path d="M9 17H7A5 5 0 0 1 7 7h2" ></path>
  <path d="M15 7h2a5 5 0 1 1 0 10h-2" ></path>
  <line x1="8" x2="16" y1="12" y2="12" ></line>
</symbol>
<symbol class="lucide lucide-link" viewBox="0 0 24 24" fill="inherit" stroke="currentColor" stroke-width="2" stroke-linecap="round" stroke-linejoin="round" id="link">
  <path d="M10 13a5 5 0 0 0 7.54.54l3-3a5 5 0 0 0-7.07-7.07l-1.72 1.71" ></path>
  <path d="M14 11a5 5 0 0 0-7.54-.54l-3 3a5 5 0 0 0 7.07 7.07l1.71-1.71" ></path>
</symbol>
<symbol class="lucide lucide-loader" viewBox="0 0 24 24" fill="inherit" stroke="currentColor" stroke-width="2" stroke-linecap="round" stroke-linejoin="round" id="loader">
  <path d="M12 2v4" ></path>
  <path d="m16.2 7.8 2.9-2.9" ></path>
  <path d="M18 12h4" ></path>
  <path d="m16.2 16.2 2.9 2.9" ></path>
  <path d="M12 18v4" ></path>
  <path d="m4.9 19.1 2.9-2.9" ></path>
  <path d="M2 12h4" ></path>
  <path d="m4.9 4.9 2.9 2.9" ></path>
</symbol>
<symbol class="lucide lucide-lock-open" viewBox="0 0 24 24" fill="inherit" stroke="currentColor" stroke-width="2" stroke-linecap="round" stroke-linejoin="round" id="lock-open">
  <rect width="18" height="11" x="3" y="11" rx="2" ry="2" ></rect>
  <path d="M7 11V7a5 5 0 0 1 9.9-1" ></path>
</symbol>
<symbol class="lucide lucide-lock" viewBox="0 0 24 24" fill="inherit" stroke="currentColor" stroke-width="2" stroke-linecap="round" stroke-linejoin="round" id="lock">
  <rect width="18" height="11" x="3" y="11" rx="2" ry="2" ></rect>
  <path d="M7 11V7a5 5 0 0 1 10 0v4" ></path>
</symbol>
<symbol class="lucide lucide-log-out" viewBox="0 0 24 24" fill="inherit" stroke="currentColor" stroke-width="2" stroke-linecap="round" stroke-linejoin="round" id="log-out">
  <path d="M9 21H5a2 2 0 0 1-2-2V5a2 2 0 0 1 2-2h4" ></path>
  <polyline points="16 17 21 12 16 7" ></polyline>
  <line x1="21" x2="9" y1="12" y2="12" ></line>
</symbol>
<symbol class="lucide lucide-mail-open" viewBox="0 0 24 24" fill="inherit" stroke="currentColor" stroke-width="2" stroke-linecap="round" stroke-linejoin="round" id="mail-open">
  <path d="M21.2 8.4c.5.38.8.97.8 1.6v10a2 2 0 0 1-2 2H4a2 2 0 0 1-2-2V10a2 2 0 0 1 .8-1.6l8-6a2 2 0 0 1 2.4 0l8 6Z" ></path>
  <path d="m22 10-8.97 5.7a1.94 1.94 0 0 1-2.06 0L2 10" ></path>
</symbol>
<symbol class="lucide lucide-mail" viewBox="0 0 24 24" fill="inherit" stroke="currentColor" stroke-width="2" stroke-linecap="round" stroke-linejoin="round" id="mail">
  <rect width="20" height="16" x="2" y="4" rx="2" ></rect>
  <path d="m22 7-8.97 5.7a1.94 1.94 0 0 1-2.06 0L2 7" ></path>
</symbol>
<symbol class="lucide lucide-map-pin" viewBox="0 0 24 24" fill="inherit" stroke="currentColor" stroke-width="2" stroke-linecap="round" stroke-linejoin="round" id="map-pin">
  <path d="M20 10c0 4.993-5.539 10.193-7.399 11.799a1 1 0 0 1-1.202 0C9.539 20.193 4 14.993 4 10a8 8 0 0 1 16 0" ></path>
  <circle cx="12" cy="10" r="3" ></circle>
</symbol>
<symbol class="lucide lucide-map" viewBox="0 0 24 24" fill="inherit" stroke="currentColor" stroke-width="2" stroke-linecap="round" stroke-linejoin="round" id="map">
  <path d="M14.106 5.553a2 2 0 0 0 1.788 0l3.659-1.83A1 1 0 0 1 21 4.619v12.764a1 1 0 0 1-.553.894l-4.553 2.277a2 2 0 0 1-1.788 0l-4.212-2.106a2 2 0 0 0-1.788 0l-3.659 1.83A1 1 0 0 1 3 19.381V6.618a1 1 0 0 1 .553-.894l4.553-2.277a2 2 0 0 1 1.788 0z" ></path>
  <path d="M15 5.764v15" ></path>
  <path d="M9 3.236v15" ></path>
</symbol>
<symbol class="lucide lucide-menu" viewBox="0 0 24 24" fill="inherit" stroke="currentColor" stroke-width="2" stroke-linecap="round" stroke-linejoin="round" id="menu">
  <line x1="4" x2="20" y1="12" y2="12" ></line>
  <line x1="4" x2="20" y1="6" y2="6" ></line>
  <line x1="4" x2="20" y1="18" y2="18" ></line>
</symbol>
<symbol class="lucide lucide-message-circle" viewBox="0 0 24 24" fill="inherit" stroke="currentColor" stroke-width="2" stroke-linecap="round" stroke-linejoin="round" id="message-circle">
  <path d="M7.9 20A9 9 0 1 0 4 16.1L2 22Z" ></path>
</symbol>
<symbol class="lucide lucide-messages-square" viewBox="0 0 24 24" fill="inherit" stroke="currentColor" stroke-width="2" stroke-linecap="round" stroke-linejoin="round" id="messages-square">
  <path d="M14 9a2 2 0 0 1-2 2H6l-4 4V4c0-1.1.9-2 2-2h8a2 2 0 0 1 2 2z" ></path>
  <path d="M18 9h2a2 2 0 0 1 2 2v11l-4-4h-6a2 2 0 0 1-2-2v-1" ></path>
</symbol>
<symbol class="lucide lucide-moon" viewBox="0 0 24 24" fill="inherit" stroke="currentColor" stroke-width="2" stroke-linecap="round" stroke-linejoin="round" id="moon">
  <path d="M12 3a6 6 0 0 0 9 9 9 9 0 1 1-9-9Z" ></path>
</symbol>
<symbol class="lucide lucide-paintbrush" viewBox="0 0 24 24" fill="inherit" stroke="currentColor" stroke-width="2" stroke-linecap="round" stroke-linejoin="round" id="paintbrush">
  <path d="m14.622 17.897-10.68-2.913" ></path>
  <path d="M18.376 2.622a1 1 0 1 1 3.002 3.002L17.36 9.643a.5.5 0 0 0 0 .707l.944.944a2.41 2.41 0 0 1 0 3.408l-.944.944a.5.5 0 0 1-.707 0L8.354 7.348a.5.5 0 0 1 0-.707l.944-.944a2.41 2.41 0 0 1 3.408 0l.944.944a.5.5 0 0 0 .707 0z" ></path>
  <path d="M9 8c-1.804 2.71-3.97 3.46-6.583 3.948a.507.507 0 0 0-.302.819l7.32 8.883a1 1 0 0 0 1.185.204C12.735 20.405 16 16.792 16 15" ></path>
</symbol>
<symbol class="lucide lucide-paperclip" viewBox="0 0 24 24" fill="inherit" stroke="currentColor" stroke-width="2" stroke-linecap="round" stroke-linejoin="round" id="paperclip">
  <path d="m21.44 11.05-9.19 9.19a6 6 0 0 1-8.49-8.49l8.57-8.57A4 4 0 1 1 18 8.84l-8.59 8.57a2 2 0 0 1-2.83-2.83l8.49-8.48" ></path>
</symbol>
<symbol class="lucide lucide-pencil" viewBox="0 0 24 24" fill="inherit" stroke="currentColor" stroke-width="2" stroke-linecap="round" stroke-linejoin="round" id="pencil">
  <path d="M21.174 6.812a1 1 0 0 0-3.986-3.987L3.842 16.174a2 2 0 0 0-.5.83l-1.321 4.352a.5.5 0 0 0 .623.622l4.353-1.32a2 2 0 0 0 .83-.497z" ></path>
  <path d="m15 5 4 4" ></path>
</symbol>
<symbol class="lucide lucide-phone-call" viewBox="0 0 24 24" fill="inherit" stroke="currentColor" stroke-width="2" stroke-linecap="round" stroke-linejoin="round" id="phone-call">
  <path d="M22 16.92v3a2 2 0 0 1-2.18 2 19.79 19.79 0 0 1-8.63-3.07 19.5 19.5 0 0 1-6-6 19.79 19.79 0 0 1-3.07-8.67A2 2 0 0 1 4.11 2h3a2 2 0 0 1 2 1.72 12.84 12.84 0 0 0 .7 2.81 2 2 0 0 1-.45 2.11L8.09 9.91a16 16 0 0 0 6 6l1.27-1.27a2 2 0 0 1 2.11-.45 12.84 12.84 0 0 0 2.81.7A2 2 0 0 1 22 16.92z" ></path>
  <path d="M14.05 2a9 9 0 0 1 8 7.94" ></path>
  <path d="M14.05 6A5 5 0 0 1 18 10" ></path>
</symbol>
<symbol class="lucide lucide-phone" viewBox="0 0 24 24" fill="inherit" stroke="currentColor" stroke-width="2" stroke-linecap="round" stroke-linejoin="round" id="phone">
  <path d="M22 16.92v3a2 2 0 0 1-2.18 2 19.79 19.79 0 0 1-8.63-3.07 19.5 19.5 0 0 1-6-6 19.79 19.79 0 0 1-3.07-8.67A2 2 0 0 1 4.11 2h3a2 2 0 0 1 2 1.72 12.84 12.84 0 0 0 .7 2.81 2 2 0 0 1-.45 2.11L8.09 9.91a16 16 0 0 0 6 6l1.27-1.27a2 2 0 0 1 2.11-.45 12.84 12.84 0 0 0 2.81.7A2 2 0 0 1 22 16.92z" ></path>
</symbol>
<symbol class="lucide lucide-plus" viewBox="0 0 24 24" fill="inherit" stroke="currentColor" stroke-width="2" stroke-linecap="round" stroke-linejoin="round" id="plus">
  <path d="M5 12h14" ></path>
  <path d="M12 5v14" ></path>
</symbol>
<symbol class="lucide lucide-refresh-ccw" viewBox="0 0 24 24" fill="inherit" stroke="currentColor" stroke-width="2" stroke-linecap="round" stroke-linejoin="round" id="refresh-ccw">
  <path d="M21 12a9 9 0 0 0-9-9 9.75 9.75 0 0 0-6.74 2.74L3 8" ></path>
  <path d="M3 3v5h5" ></path>
  <path d="M3 12a9 9 0 0 0 9 9 9.75 9.75 0 0 0 6.74-2.74L21 16" ></path>
  <path d="M16 16h5v5" ></path>
</symbol>
<symbol class="lucide lucide-refresh-cw" viewBox="0 0 24 24" fill="inherit" stroke="currentColor" stroke-width="2" stroke-linecap="round" stroke-linejoin="round" id="refresh-cw">
  <path d="M3 12a9 9 0 0 1 9-9 9.75 9.75 0 0 1 6.74 2.74L21 8" ></path>
  <path d="M21 3v5h-5" ></path>
  <path d="M21 12a9 9 0 0 1-9 9 9.75 9.75 0 0 1-6.74-2.74L3 16" ></path>
  <path d="M8 16H3v5" ></path>
</symbol>
<symbol class="lucide lucide-repeat" viewBox="0 0 24 24" fill="inherit" stroke="currentColor" stroke-width="2" stroke-linecap="round" stroke-linejoin="round" id="repeat">
  <path d="m17 2 4 4-4 4" ></path>
  <path d="M3 11v-1a4 4 0 0 1 4-4h14" ></path>
  <path d="m7 22-4-4 4-4" ></path>
  <path d="M21 13v1a4 4 0 0 1-4 4H3" ></path>
</symbol>
<symbol class="lucide lucide-rocket" viewBox="0 0 24 24" fill="inherit" stroke="currentColor" stroke-width="2" stroke-linecap="round" stroke-linejoin="round" id="rocket">
  <path d="M4.5 16.5c-1.5 1.26-2 5-2 5s3.74-.5 5-2c.71-.84.7-2.13-.09-2.91a2.18 2.18 0 0 0-2.91-.09z" ></path>
  <path d="m12 15-3-3a22 22 0 0 1 2-3.95A12.88 12.88 0 0 1 22 2c0 2.72-.78 7.5-6 11a22.35 22.35 0 0 1-4 2z" ></path>
  <path d="M9 12H4s.55-3.03 2-4c1.62-1.08 5 0 5 0" ></path>
  <path d="M12 15v5s3.03-.55 4-2c1.08-1.62 0-5 0-5" ></path>
</symbol>
<symbol class="lucide lucide-rotate-ccw" viewBox="0 0 24 24" fill="inherit" stroke="currentColor" stroke-width="2" stroke-linecap="round" stroke-linejoin="round" id="rotate-ccw">
  <path d="M3 12a9 9 0 1 0 9-9 9.75 9.75 0 0 0-6.74 2.74L3 8" ></path>
  <path d="M3 3v5h5" ></path>
</symbol>
<symbol class="lucide lucide-rotate-cw" viewBox="0 0 24 24" fill="inherit" stroke="currentColor" stroke-width="2" stroke-linecap="round" stroke-linejoin="round" id="rotate-cw">
  <path d="M21 12a9 9 0 1 1-9-9c2.52 0 4.93 1 6.74 2.74L21 8" ></path>
  <path d="M21 3v5h-5" ></path>
</symbol>
<symbol class="lucide lucide-search" viewBox="0 0 24 24" fill="inherit" stroke="currentColor" stroke-width="2" stroke-linecap="round" stroke-linejoin="round" id="search">
  <circle cx="11" cy="11" r="8" ></circle>
  <path d="m21 21-4.3-4.3" ></path>
</symbol>
<symbol class="lucide lucide-send" viewBox="0 0 24 24" fill="inherit" stroke="currentColor" stroke-width="2" stroke-linecap="round" stroke-linejoin="round" id="send">
  <path d="m22 2-7 20-4-9-9-4Z" ></path>
  <path d="M22 2 11 13" ></path>
</symbol>
<symbol class="lucide lucide-settings" viewBox="0 0 24 24" fill="inherit" stroke="currentColor" stroke-width="2" stroke-linecap="round" stroke-linejoin="round" id="settings">
  <path d="M12.22 2h-.44a2 2 0 0 0-2 2v.18a2 2 0 0 1-1 1.73l-.43.25a2 2 0 0 1-2 0l-.15-.08a2 2 0 0 0-2.73.73l-.22.38a2 2 0 0 0 .73 2.73l.15.1a2 2 0 0 1 1 1.72v.51a2 2 0 0 1-1 1.74l-.15.09a2 2 0 0 0-.73 2.73l.22.38a2 2 0 0 0 2.73.73l.15-.08a2 2 0 0 1 2 0l.43.25a2 2 0 0 1 1 1.73V20a2 2 0 0 0 2 2h.44a2 2 0 0 0 2-2v-.18a2 2 0 0 1 1-1.73l.43-.25a2 2 0 0 1 2 0l.15.08a2 2 0 0 0 2.73-.73l.22-.39a2 2 0 0 0-.73-2.73l-.15-.08a2 2 0 0 1-1-1.74v-.5a2 2 0 0 1 1-1.74l.15-.09a2 2 0 0 0 .73-2.73l-.22-.38a2 2 0 0 0-2.73-.73l-.15.08a2 2 0 0 1-2 0l-.43-.25a2 2 0 0 1-1-1.73V4a2 2 0 0 0-2-2z" ></path>
  <circle cx="12" cy="12" r="3" ></circle>
</symbol>
<symbol class="lucide lucide-share-2" viewBox="0 0 24 24" fill="inherit" stroke="currentColor" stroke-width="2" stroke-linecap="round" stroke-linejoin="round" id="share-2">
  <circle cx="18" cy="5" r="3" ></circle>
  <circle cx="6" cy="12" r="3" ></circle>
  <circle cx="18" cy="19" r="3" ></circle>
  <line x1="8.59" x2="15.42" y1="13.51" y2="17.49" ></line>
  <line x1="15.41" x2="8.59" y1="6.51" y2="10.49" ></line>
</symbol>
<symbol class="lucide lucide-shield-check" viewBox="0 0 24 24" fill="inherit" stroke="currentColor" stroke-width="2" stroke-linecap="round" stroke-linejoin="round" id="shield-check">
  <path d="M20 13c0 5-3.5 7.5-7.66 8.95a1 1 0 0 1-.67-.01C7.5 20.5 4 18 4 13V6a1 1 0 0 1 1-1c2 0 4.5-1.2 6.24-2.72a1.17 1.17 0 0 1 1.52 0C14.51 3.81 17 5 19 5a1 1 0 0 1 1 1z" ></path>
  <path d="m9 12 2 2 4-4" ></path>
</symbol>
<symbol class="lucide lucide-shield" viewBox="0 0 24 24" fill="inherit" stroke="currentColor" stroke-width="2" stroke-linecap="round" stroke-linejoin="round" id="shield">
  <path d="M20 13c0 5-3.5 7.5-7.66 8.95a1 1 0 0 1-.67-.01C7.5 20.5 4 18 4 13V6a1 1 0 0 1 1-1c2 0 4.5-1.2 6.24-2.72a1.17 1.17 0 0 1 1.52 0C14.51 3.81 17 5 19 5a1 1 0 0 1 1 1z" ></path>
</symbol>
<symbol class="lucide lucide-shuffle" viewBox="0 0 24 24" fill="inherit" stroke="currentColor" stroke-width="2" stroke-linecap="round" stroke-linejoin="round" id="shuffle">
  <path d="M2 18h1.4c1.3 0 2.5-.6 3.3-1.7l6.1-8.6c.7-1.1 2-1.7 3.3-1.7H22" ></path>
  <path d="m18 2 4 4-4 4" ></path>
  <path d="M2 6h1.9c1.5 0 2.9.9 3.6 2.2" ></path>
  <path d="M22 18h-5.9c-1.3 0-2.6-.7-3.3-1.8l-.5-.8" ></path>
  <path d="m18 14 4 4-4 4" ></path>
</symbol>
<symbol class="lucide lucide-sliders-vertical" viewBox="0 0 24 24" fill="inherit" stroke="currentColor" stroke-width="2" stroke-linecap="round" stroke-linejoin="round" id="sliders-vertical">
  <line x1="4" x2="4" y1="21" y2="14" ></line>
  <line x1="4" x2="4" y1="10" y2="3" ></line>
  <line x1="12" x2="12" y1="21" y2="12" ></line>
  <line x1="12" x2="12" y1="8" y2="3" ></line>
  <line x1="20" x2="20" y1="21" y2="16" ></line>
  <line x1="20" x2="20" y1="12" y2="3" ></line>
  <line x1="2" x2="6" y1="14" y2="14" ></line>
  <line x1="10" x2="14" y1="8" y2="8" ></line>
  <line x1="18" x2="22" y1="16" y2="16" ></line>
</symbol>
<symbol class="lucide lucide-smartphone" viewBox="0 0 24 24" fill="inherit" stroke="currentColor" stroke-width="2" stroke-linecap="round" stroke-linejoin="round" id="smartphone">
  <rect width="14" height="20" x="5" y="2" rx="2" ry="2" ></rect>
  <path d="M12 18h.01" ></path>
</symbol>
<symbol class="lucide lucide-sparkles" viewBox="0 0 24 24" fill="inherit" stroke="currentColor" stroke-width="2" stroke-linecap="round" stroke-linejoin="round" id="sparkles">
  <path d="M9.937 15.5A2 2 0 0 0 8.5 14.063l-6.135-1.582a.5.5 0 0 1 0-.962L8.5 9.936A2 2 0 0 0 9.937 8.5l1.582-6.135a.5.5 0 0 1 .963 0L14.063 8.5A2 2 0 0 0 15.5 9.937l6.135 1.581a.5.5 0 0 1 0 .964L15.5 14.063a2 2 0 0 0-1.437 1.437l-1.582 6.135a.5.5 0 0 1-.963 0z" ></path>
  <path d="M20 3v4" ></path>
  <path d="M22 5h-4" ></path>
  <path d="M4 17v2" ></path>
  <path d="M5 18H3" ></path>
</symbol>
<symbol class="lucide lucide-square-check" viewBox="0 0 24 24" fill="inherit" stroke="currentColor" stroke-width="2" stroke-linecap="round" stroke-linejoin="round" id="square-check">
  <rect width="18" height="18" x="3" y="3" rx="2" ></rect>
  <path d="m9 12 2 2 4-4" ></path>
</symbol>
<symbol class="lucide lucide-star" viewBox="0 0 24 24" fill="inherit" stroke="currentColor" stroke-width="2" stroke-linecap="round" stroke-linejoin="round" id="star">
  <polygon points="12 2 15.09 8.26 22 9.27 17 14.14 18.18 21.02 12 17.77 5.82 21.02 7 14.14 2 9.27 8.91 8.26 12 2" ></polygon>
</symbol>
<symbol class="lucide lucide-sun" viewBox="0 0 24 24" fill="inherit" stroke="currentColor" stroke-width="2" stroke-linecap="round" stroke-linejoin="round" id="sun">
  <circle cx="12" cy="12" r="4" ></circle>
  <path d="M12 2v2" ></path>
  <path d="M12 20v2" ></path>
  <path d="m4.93 4.93 1.41 1.41" ></path>
  <path d="m17.66 17.66 1.41 1.41" ></path>
  <path d="M2 12h2" ></path>
  <path d="M20 12h2" ></path>
  <path d="m6.34 17.66-1.41 1.41" ></path>
  <path d="m19.07 4.93-1.41 1.41" ></path>
</symbol>
<symbol class="lucide lucide-sunrise" viewBox="0 0 24 24" fill="inherit" stroke="currentColor" stroke-width="2" stroke-linecap="round" stroke-linejoin="round" id="sunrise">
  <path d="M12 2v8" ></path>
  <path d="m4.93 10.93 1.41 1.41" ></path>
  <path d="M2 18h2" ></path>
  <path d="M20 18h2" ></path>
  <path d="m19.07 10.93-1.41 1.41" ></path>
  <path d="M22 22H2" ></path>
  <path d="m8 6 4-4 4 4" ></path>
  <path d="M16 18a4 4 0 0 0-8 0" ></path>
</symbol>
<symbol class="lucide lucide-sunset" viewBox="0 0 24 24" fill="inherit" stroke="currentColor" stroke-width="2" stroke-linecap="round" stroke-linejoin="round" id="sunset">
  <path d="M12 10V2" ></path>
  <path d="m4.93 10.93 1.41 1.41" ></path>
  <path d="M2 18h2" ></path>
  <path d="M20 18h2" ></path>
  <path d="m19.07 10.93-1.41 1.41" ></path>
  <path d="M22 22H2" ></path>
  <path d="m16 6-4 4-4-4" ></path>
  <path d="M16 18a4 4 0 0 0-8 0" ></path>
</symbol>
<symbol class="lucide lucide-tags" viewBox="0 0 24 24" fill="inherit" stroke="currentColor" stroke-width="2" stroke-linecap="round" stroke-linejoin="round" id="tags">
  <path d="m15 5 6.3 6.3a2.4 2.4 0 0 1 0 3.4L17 19" ></path>
  <path d="M9.586 5.586A2 2 0 0 0 8.172 5H3a1 1 0 0 0-1 1v5.172a2 2 0 0 0 .586 1.414L8.29 18.29a2.426 2.426 0 0 0 3.42 0l3.58-3.58a2.426 2.426 0 0 0 0-3.42z" ></path>
  <circle cx="6.5" cy="9.5" r=".5" fill="currentColor" ></circle>
</symbol>
<symbol class="lucide lucide-terminal" viewBox="0 0 24 24" fill="inherit" stroke="currentColor" stroke-width="2" stroke-linecap="round" stroke-linejoin="round" id="terminal">
  <polyline points="4 17 10 11 4 5" ></polyline>
  <line x1="12" x2="20" y1="19" y2="19" ></line>
</symbol>
<symbol class="lucide lucide-trash-2" viewBox="0 0 24 24" fill="inherit" stroke="currentColor" stroke-width="2" stroke-linecap="round" stroke-linejoin="round" id="trash-2">
  <path d="M3 6h18" ></path>
  <path d="M19 6v14c0 1-1 2-2 2H7c-1 0-2-1-2-2V6" ></path>
  <path d="M8 6V4c0-1 1-2 2-2h4c1 0 2 1 2 2v2" ></path>
  <line x1="10" x2="10" y1="11" y2="17" ></line>
  <line x1="14" x2="14" y1="11" y2="17" ></line>
</symbol>
<symbol class="lucide lucide-trash" viewBox="0 0 24 24" fill="inherit" stroke="currentColor" stroke-width="2" stroke-linecap="round" stroke-linejoin="round" id="trash">
  <path d="M3 6h18" ></path>
  <path d="M19 6v14c0 1-1 2-2 2H7c-1 0-2-1-2-2V6" ></path>
  <path d="M8 6V4c0-1 1-2 2-2h4c1 0 2 1 2 2v2" ></path>
</symbol>
<symbol class="lucide lucide-trello" viewBox="0 0 24 24" fill="inherit" stroke="currentColor" stroke-width="2" stroke-linecap="round" stroke-linejoin="round" id="trello">
  <rect width="18" height="18" x="3" y="3" rx="2" ry="2" ></rect>
  <rect width="3" height="9" x="7" y="7" ></rect>
  <rect width="3" height="5" x="14" y="7" ></rect>
</symbol>
<symbol class="lucide lucide-triangle-alert" viewBox="0 0 24 24" fill="inherit" stroke="currentColor" stroke-width="2" stroke-linecap="round" stroke-linejoin="round" id="triangle-alert">
  <path d="m21.73 18-8-14a2 2 0 0 0-3.48 0l-8 14A2 2 0 0 0 4 21h16a2 2 0 0 0 1.73-3" ></path>
  <path d="M12 9v4" ></path>
  <path d="M12 17h.01" ></path>
</symbol>
<symbol class="lucide lucide-upload" viewBox="0 0 24 24" fill="inherit" stroke="currentColor" stroke-width="2" stroke-linecap="round" stroke-linejoin="round" id="upload">
  <path d="M21 15v4a2 2 0 0 1-2 2H5a2 2 0 0 1-2-2v-4" ></path>
  <polyline points="17 8 12 3 7 8" ></polyline>
  <line x1="12" x2="12" y1="3" y2="15" ></line>
</symbol>
<symbol class="lucide lucide-user-check" viewBox="0 0 24 24" fill="inherit" stroke="currentColor" stroke-width="2" stroke-linecap="round" stroke-linejoin="round" id="user-check">
  <path d="M16 21v-2a4 4 0 0 0-4-4H6a4 4 0 0 0-4 4v2" ></path>
  <circle cx="9" cy="7" r="4" ></circle>
  <polyline points="16 11 18 13 22 9" ></polyline>
</symbol>
<symbol class="lucide lucide-user-plus" viewBox="0 0 24 24" fill="inherit" stroke="currentColor" stroke-width="2" stroke-linecap="round" stroke-linejoin="round" id="user-plus">
  <path d="M16 21v-2a4 4 0 0 0-4-4H6a4 4 0 0 0-4 4v2" ></path>
  <circle cx="9" cy="7" r="4" ></circle>
  <line x1="19" x2="19" y1="8" y2="14" ></line>
  <line x1="22" x2="16" y1="11" y2="11" ></line>
</symbol>
<symbol class="lucide lucide-user-x" viewBox="0 0 24 24" fill="inherit" stroke="currentColor" stroke-width="2" stroke-linecap="round" stroke-linejoin="round" id="user-x">
  <path d="M16 21v-2a4 4 0 0 0-4-4H6a4 4 0 0 0-4 4v2" ></path>
  <circle cx="9" cy="7" r="4" ></circle>
  <line x1="17" x2="22" y1="8" y2="13" ></line>
  <line x1="22" x2="17" y1="8" y2="13" ></line>
</symbol>
<symbol class="lucide lucide-user" viewBox="0 0 24 24" fill="inherit" stroke="currentColor" stroke-width="2" stroke-linecap="round" stroke-linejoin="round" id="user">
  <path d="M19 21v-2a4 4 0 0 0-4-4H9a4 4 0 0 0-4 4v2" ></path>
  <circle cx="12" cy="7" r="4" ></circle>
</symbol>
<symbol class="lucide lucide-users" viewBox="0 0 24 24" fill="inherit" stroke="currentColor" stroke-width="2" stroke-linecap="round" stroke-linejoin="round" id="users">
  <path d="M16 21v-2a4 4 0 0 0-4-4H6a4 4 0 0 0-4 4v2" ></path>
  <circle cx="9" cy="7" r="4" ></circle>
  <path d="M22 21v-2a4 4 0 0 0-3-3.87" ></path>
  <path d="M16 3.13a4 4 0 0 1 0 7.75" ></path>
</symbol>
<symbol class="lucide lucide-venetian-mask" viewBox="0 0 24 24" fill="inherit" stroke="currentColor" stroke-width="2" stroke-linecap="round" stroke-linejoin="round" id="venetian-mask">
  <path d="M2 12a5 5 0 0 0 5 5 8 8 0 0 1 5 2 8 8 0 0 1 5-2 5 5 0 0 0 5-5V7h-5a8 8 0 0 0-5 2 8 8 0 0 0-5-2H2Z" ></path>
  <path d="M6 11c1.5 0 3 .5 3 2-2 0-3 0-3-2Z" ></path>
  <path d="M18 11c-1.5 0-3 .5-3 2 2 0 3 0 3-2Z" ></path>
</symbol>
<symbol class="lucide lucide-video" viewBox="0 0 24 24" fill="inherit" stroke="currentColor" stroke-width="2" stroke-linecap="round" stroke-linejoin="round" id="video">
  <path d="m16 13 5.223 3.482a.5.5 0 0 0 .777-.416V7.87a.5.5 0 0 0-.752-.432L16 10.5" ></path>
  <rect x="2" y="6" width="14" height="12" rx="2" ></rect>
</symbol>
<symbol class="lucide lucide-waypoints" viewBox="0 0 24 24" fill="inherit" stroke="currentColor" stroke-width="2" stroke-linecap="round" stroke-linejoin="round" id="waypoints">
  <circle cx="12" cy="4.5" r="2.5" ></circle>
  <path d="m10.2 6.3-3.9 3.9" ></path>
  <circle cx="4.5" cy="12" r="2.5" ></circle>
  <path d="M7 12h10" ></path>
  <circle cx="19.5" cy="12" r="2.5" ></circle>
  <path d="m13.8 17.7 3.9-3.9" ></path>
  <circle cx="12" cy="19.5" r="2.5" ></circle>
</symbol>
<symbol class="lucide lucide-webhook" viewBox="0 0 24 24" fill="inherit" stroke="currentColor" stroke-width="2" stroke-linecap="round" stroke-linejoin="round" id="webhook">
  <path d="M18 16.98h-5.99c-1.1 0-1.95.94-2.48 1.9A4 4 0 0 1 2 17c.01-.7.2-1.4.57-2" ></path>
  <path d="m6 17 3.13-5.78c.53-.97.1-2.18-.5-3.1a4 4 0 1 1 6.89-4.06" ></path>
  <path d="m12 6 3.13 5.73C15.66 12.7 16.9 13 18 13a4 4 0 0 1 0 8" ></path>
</symbol>
<symbol class="lucide lucide-x" viewBox="0 0 24 24" fill="inherit" stroke="currentColor" stroke-width="2" stroke-linecap="round" stroke-linejoin="round" id="x">
  <path d="M18 6 6 18" ></path>
  <path d="m6 6 12 12" ></path>
</symbol>
<symbol class="lucide lucide-zap" viewBox="0 0 24 24" fill="inherit" stroke="currentColor" stroke-width="2" stroke-linecap="round" stroke-linejoin="round" id="zap">
  <path d="M4 14a1 1 0 0 1-.78-1.63l9.9-10.2a.5.5 0 0 1 .86.46l-1.92 6.02A1 1 0 0 0 13 10h7a1 1 0 0 1 .78 1.63l-9.9 10.2a.5.5 0 0 1-.86-.46l1.92-6.02A1 1 0 0 0 11 14z" ></path>
</symbol>
</defs>
</svg>
