<svg width="1465" height="886" viewBox="0 0 1465 886" fill="none" xmlns="http://www.w3.org/2000/svg">
<path d="M801.48 789.03C957.799 789.03 1084.52 769.478 1084.52 745.36C1084.52 721.242 957.799 701.69 801.48 701.69C645.161 701.69 518.44 721.242 518.44 745.36C518.44 769.478 645.161 789.03 801.48 789.03Z" fill="#FFC1EB"/>
<path d="M632.599 657.422L631.123 660.606C630.19 662.621 631.066 665.011 633.081 665.944L709.442 701.325C711.457 702.258 713.846 701.382 714.78 699.368L716.255 696.183C717.189 694.168 716.312 691.779 714.298 690.845L637.936 655.464C635.922 654.531 633.532 655.407 632.599 657.422Z" fill="black"/>
<path d="M634.21 631.14L672.21 641.14L723.54 664.93L714.78 683.85C713.976 685.579 712.519 686.919 710.729 687.575C708.938 688.231 706.961 688.15 705.23 687.35L637.66 656.05L634.21 631.14Z" fill="white"/>
<path d="M708.24 690C706.91 690.001 705.596 689.711 704.39 689.15L635.83 657.4L631.83 628.4L673.07 639.29L726.2 664L716.59 684.74C715.842 686.319 714.659 687.653 713.18 688.584C711.701 689.516 709.988 690.007 708.24 690ZM639.5 654.69L706.07 685.54C706.691 685.832 707.364 685.998 708.05 686.029C708.736 686.059 709.421 685.953 710.065 685.717C710.71 685.48 711.301 685.119 711.805 684.652C712.309 684.186 712.715 683.624 713 683L720.93 665.89L671.53 643L636.6 633.81L639.5 654.69Z" fill="black"/>
<path d="M643 670.52L599.78 650.52C598.191 649.783 596.959 648.446 596.355 646.801C595.751 645.157 595.825 643.34 596.56 641.75C599.585 635.227 605.076 630.172 611.827 627.697C618.578 625.222 626.035 625.528 632.56 628.55C635.791 630.047 638.695 632.165 641.107 634.785C643.519 637.404 645.391 640.473 646.617 643.816C647.843 647.159 648.398 650.71 648.251 654.268C648.104 657.826 647.258 661.32 645.76 664.55L643 670.52Z" fill="black"/>
<path d="M983.17 248.89L961 250.24C950.87 250.855 940.911 247.422 933.312 240.696C925.714 233.969 921.098 224.499 920.48 214.37L919.23 193.76C918.959 189.301 919.57 184.833 921.027 180.61C922.483 176.387 924.758 172.493 927.72 169.15C930.683 165.807 934.275 163.08 938.292 161.126C942.309 159.171 946.671 158.028 951.13 157.76L968.41 156.71C980.913 155.961 993.203 160.205 1002.58 168.512C1011.95 176.819 1017.65 188.507 1018.41 201.01L1018.87 208.61C1019.48 218.685 1016.06 228.59 1009.36 236.143C1002.67 243.697 993.245 248.282 983.17 248.89Z" fill="black"/>
<path d="M604.63 748C604.154 748.007 603.69 747.844 603.324 747.539C602.957 747.235 602.711 746.81 602.63 746.34L549 438.33L467.2 746.18C467.052 746.676 466.717 747.094 466.267 747.348C465.816 747.603 465.285 747.672 464.784 747.543C464.283 747.413 463.852 747.095 463.581 746.654C463.31 746.214 463.22 745.685 463.33 745.18L549.8 419.69L606.6 745.69C606.691 746.208 606.574 746.741 606.274 747.173C605.975 747.606 605.517 747.903 605 748C604.877 748.011 604.753 748.011 604.63 748Z" fill="black"/>
<path d="M916.14 401.17H511.17C506.315 401.17 502.38 405.105 502.38 409.96V420.22C502.38 425.075 506.315 429.01 511.17 429.01H916.14C920.995 429.01 924.93 425.075 924.93 420.22V409.96C924.93 405.105 920.995 401.17 916.14 401.17Z" fill="black"/>
<path d="M838 168.62H583.5C572.885 168.62 564.28 177.225 564.28 187.84V345.13C564.28 355.745 572.885 364.35 583.5 364.35H838C848.615 364.35 857.22 355.745 857.22 345.13V187.84C857.22 177.225 848.615 168.62 838 168.62Z" fill="black"/>
<path d="M823.18 185.51H598.32C590.229 185.51 583.67 192.069 583.67 200.16V336.75C583.67 344.841 590.229 351.4 598.32 351.4H823.18C831.271 351.4 837.83 344.841 837.83 336.75V200.16C837.83 192.069 831.271 185.51 823.18 185.51Z" fill="white"/>
<path d="M822.07 217.49H755.31C754.78 217.49 754.271 217.279 753.896 216.904C753.521 216.529 753.31 216.02 753.31 215.49C753.31 214.96 753.521 214.451 753.896 214.076C754.271 213.701 754.78 213.49 755.31 213.49H822.07C822.601 213.49 823.109 213.701 823.484 214.076C823.859 214.451 824.07 214.96 824.07 215.49C824.07 216.02 823.859 216.529 823.484 216.904C823.109 217.279 822.601 217.49 822.07 217.49Z" fill="black"/>
<path d="M822.07 236H755.31C754.78 236 754.271 235.789 753.896 235.414C753.521 235.039 753.31 234.53 753.31 234C753.31 233.47 753.521 232.961 753.896 232.586C754.271 232.211 754.78 232 755.31 232H822.07C822.601 232 823.109 232.211 823.484 232.586C823.859 232.961 824.07 233.47 824.07 234C824.07 234.53 823.859 235.039 823.484 235.414C823.109 235.789 822.601 236 822.07 236Z" fill="black"/>
<path d="M801.34 254.42H755.34C754.81 254.42 754.301 254.209 753.926 253.834C753.551 253.459 753.34 252.95 753.34 252.42C753.34 251.89 753.551 251.381 753.926 251.006C754.301 250.631 754.81 250.42 755.34 250.42H801.34C801.87 250.42 802.379 250.631 802.754 251.006C803.129 251.381 803.34 251.89 803.34 252.42C803.34 252.95 803.129 253.459 802.754 253.834C802.379 254.209 801.87 254.42 801.34 254.42Z" fill="black"/>
<path d="M790.07 268.34H762.25C757.351 268.34 753.38 272.311 753.38 277.21C753.38 282.109 757.351 286.08 762.25 286.08H790.07C794.969 286.08 798.94 282.109 798.94 277.21C798.94 272.311 794.969 268.34 790.07 268.34Z" fill="#FFC1EB"/>
<path d="M817.46 285.55C822.06 285.55 825.79 281.821 825.79 277.22C825.79 272.619 822.06 268.89 817.46 268.89C812.859 268.89 809.13 272.619 809.13 277.22C809.13 281.821 812.859 285.55 817.46 285.55Z" fill="#FB6D6D"/>
<path d="M713.39 401.17H643.71L672.24 364.35H744.78L713.39 401.17Z" fill="black"/>
<path d="M1014.7 530.16C1014.53 530.16 1014.37 530.14 1014.21 530.1C1013.96 530.036 1013.72 529.922 1013.5 529.765C1013.29 529.608 1013.12 529.411 1012.98 529.185C1012.85 528.96 1012.76 528.71 1012.72 528.45C1012.68 528.19 1012.7 527.925 1012.76 527.67L1039.08 423.67C1039.21 423.155 1039.54 422.715 1040 422.445C1040.46 422.175 1041.01 422.097 1041.52 422.23C1042.03 422.363 1042.48 422.694 1042.75 423.152C1043.02 423.609 1043.09 424.155 1042.96 424.67L1016.64 528.67C1016.53 529.098 1016.28 529.477 1015.92 529.746C1015.57 530.016 1015.14 530.161 1014.7 530.16Z" fill="black"/>
<path d="M870.15 743.63C870.06 743.64 869.97 743.64 869.88 743.63C869.619 743.596 869.368 743.51 869.14 743.378C868.912 743.246 868.713 743.071 868.553 742.862C868.393 742.653 868.276 742.414 868.209 742.16C868.142 741.906 868.125 741.641 868.16 741.38L895.09 542.57C895.125 542.307 895.211 542.054 895.344 541.825C895.476 541.595 895.653 541.394 895.863 541.233C896.074 541.072 896.314 540.954 896.57 540.886C896.825 540.817 897.092 540.8 897.355 540.835C897.618 540.87 897.871 540.956 898.1 541.089C898.33 541.221 898.531 541.398 898.692 541.608C898.853 541.818 898.971 542.058 899.039 542.314C899.108 542.57 899.125 542.837 899.09 543.1L872.13 741.9C872.065 742.379 871.828 742.818 871.464 743.136C871.1 743.454 870.633 743.63 870.15 743.63Z" fill="black"/>
<path d="M1044.08 316.491L1023.79 405.848C1022.08 413.383 1026.8 420.877 1034.34 422.588L1049.61 426.055C1057.14 427.765 1064.64 423.044 1066.35 415.509L1086.63 326.152C1088.34 318.618 1083.62 311.123 1076.09 309.412L1060.82 305.946C1053.28 304.235 1045.79 308.957 1044.08 316.491Z" fill="#C7B8F8"/>
<path d="M1016.11 743.63C1015.62 743.635 1015.15 743.463 1014.79 743.146C1014.42 742.83 1014.18 742.391 1014.11 741.91L986 543.09C985.926 542.56 986.065 542.021 986.388 541.594C986.71 541.166 987.19 540.884 987.72 540.81C988.25 540.736 988.789 540.875 989.216 541.198C989.644 541.52 989.926 542 990 542.53L1018.1 741.35C1018.17 741.875 1018.04 742.408 1017.72 742.832C1017.4 743.256 1016.93 743.536 1016.4 743.61C1016.3 743.627 1016.21 743.634 1016.11 743.63Z" fill="black"/>
<path d="M1006.8 677.73H879.07C878.54 677.73 878.031 677.519 877.656 677.144C877.281 676.769 877.07 676.26 877.07 675.73C877.07 675.2 877.281 674.691 877.656 674.316C878.031 673.941 878.54 673.73 879.07 673.73H1006.8C1007.33 673.73 1007.84 673.941 1008.21 674.316C1008.59 674.691 1008.8 675.2 1008.8 675.73C1008.8 676.26 1008.59 676.769 1008.21 677.144C1007.84 677.519 1007.33 677.73 1006.8 677.73Z" fill="black"/>
<path d="M1005.03 495.89H883.97C876.337 495.89 870.15 502.077 870.15 509.71V528.99C870.15 536.623 876.337 542.81 883.97 542.81H1005.03C1012.66 542.81 1018.85 536.623 1018.85 528.99V509.71C1018.85 502.077 1012.66 495.89 1005.03 495.89Z" fill="#C7B8F8"/>
<path d="M1022.53 192.2C1038.91 192.2 1052.18 178.925 1052.18 162.55C1052.18 146.175 1038.91 132.9 1022.53 132.9C1006.15 132.9 992.88 146.175 992.88 162.55C992.88 178.925 1006.15 192.2 1022.53 192.2Z" fill="black"/>
<path d="M1076.97 175.58C1098.95 175.58 1116.77 157.761 1116.77 135.78C1116.77 113.799 1098.95 95.98 1076.97 95.98C1054.99 95.98 1037.17 113.799 1037.17 135.78C1037.17 157.761 1054.99 175.58 1076.97 175.58Z" fill="black"/>
<path d="M1003.16 218.67C1003.16 215.222 1001.79 211.916 999.352 209.478C996.914 207.04 993.608 205.67 990.16 205.67C989.551 205.676 988.943 205.723 988.34 205.81L985.85 171.69L937.32 176.9C932.336 177.431 927.724 179.787 924.373 183.515C921.022 187.242 919.169 192.078 919.17 197.09V202.58C919.213 208.942 917.444 215.186 914.07 220.58L913.98 220.71V220.76C913.612 221.316 913.366 221.943 913.26 222.601C913.153 223.259 913.188 223.933 913.362 224.576C913.536 225.22 913.845 225.819 914.269 226.333C914.693 226.848 915.222 227.266 915.82 227.56L919.2 229.22V242.08C919.2 244.636 919.753 247.163 920.822 249.485C921.891 251.807 923.45 253.87 925.392 255.532C927.335 257.194 929.614 258.416 932.074 259.113C934.533 259.81 937.114 259.966 939.64 259.57L952.1 257.63L954.6 279L994.27 274.32L991.58 251.51H991.7L990.25 231.66C993.68 231.636 996.962 230.257 999.381 227.824C1001.8 225.391 1003.16 222.101 1003.16 218.67Z" fill="white"/>
<path d="M952.85 281.22L950.34 260L939.94 261.62C937.129 262.059 934.257 261.884 931.521 261.107C928.784 260.331 926.248 258.97 924.088 257.12C921.927 255.27 920.192 252.974 919.003 250.39C917.814 247.806 917.199 244.995 917.2 242.15V230.52L914.93 229.41C914.085 228.998 913.337 228.412 912.735 227.69C912.133 226.967 911.692 226.126 911.44 225.22C911.189 224.295 911.135 223.327 911.281 222.38C911.428 221.432 911.771 220.526 912.29 219.72L912.4 219.55C915.585 214.474 917.25 208.592 917.2 202.6V197.11C917.189 191.604 919.22 186.289 922.899 182.193C926.578 178.096 931.644 175.509 937.12 174.93L987.71 169.5L990.21 203.69C993.946 203.765 997.519 205.232 1000.23 207.804C1002.94 210.375 1004.59 213.866 1004.87 217.592C1005.14 221.319 1004.01 225.013 1001.7 227.951C999.396 230.89 996.075 232.861 992.39 233.48L993.82 253.19L996.52 276.07L952.85 281.22ZM953.85 255.38L956.37 276.78L992.07 272.57L989.39 249.84H989.59L988.12 229.69H990.26C993.177 229.682 995.972 228.515 998.029 226.447C1000.09 224.378 1001.24 221.577 1001.23 218.66C1001.22 215.743 1000.06 212.948 997.987 210.891C995.918 208.833 993.117 207.682 990.2 207.69C989.685 207.695 989.17 207.735 988.66 207.81L986.54 208.11L984 173.92L937.52 178.92C933.027 179.395 928.869 181.518 925.849 184.879C922.829 188.241 921.162 192.602 921.17 197.12V202.61C921.22 209.364 919.336 215.992 915.74 221.71L915.64 221.87C915.421 222.204 915.274 222.581 915.211 222.975C915.147 223.37 915.167 223.774 915.27 224.16C915.368 224.522 915.543 224.858 915.783 225.147C916.023 225.435 916.322 225.668 916.66 225.83L921.17 228.03V242.14C921.171 244.407 921.662 246.646 922.609 248.705C923.557 250.764 924.939 252.593 926.66 254.068C928.382 255.542 930.402 256.626 932.582 257.247C934.762 257.867 937.05 258.008 939.29 257.66L953.85 255.38Z" fill="black"/>
<path d="M932 244.17C931.49 244.17 930.982 244.127 930.48 244.04C928.548 243.706 926.755 242.816 925.32 241.48C924.922 241.122 924.683 240.62 924.655 240.086C924.627 239.552 924.812 239.028 925.17 238.63C925.528 238.232 926.029 237.993 926.564 237.965C927.098 237.937 927.622 238.122 928.02 238.48C928.889 239.285 929.966 239.829 931.13 240.05C934.83 240.66 937.74 237.05 937.77 237.05C938.104 236.656 938.577 236.407 939.091 236.354C939.605 236.301 940.119 236.449 940.526 236.767C940.933 237.085 941.202 237.548 941.275 238.059C941.348 238.571 941.221 239.09 940.92 239.51C940.71 239.74 937.18 244.17 932 244.17Z" fill="black"/>
<path d="M940.19 217.06C941.93 217.06 943.34 215.65 943.34 213.91C943.34 212.17 941.93 210.76 940.19 210.76C938.45 210.76 937.04 212.17 937.04 213.91C937.04 215.65 938.45 217.06 940.19 217.06Z" fill="black"/>
<path d="M988.84 225.42C987.776 225.42 986.736 225.105 985.851 224.513C984.966 223.922 984.277 223.082 983.869 222.099C983.462 221.116 983.356 220.034 983.563 218.99C983.771 217.947 984.283 216.988 985.036 216.236C985.788 215.483 986.747 214.971 987.79 214.763C988.834 214.556 989.916 214.662 990.899 215.07C991.882 215.477 992.722 216.166 993.313 217.051C993.904 217.936 994.22 218.976 994.22 220.04C994.22 221.467 993.653 222.835 992.644 223.844C991.635 224.853 990.267 225.42 988.84 225.42ZM988.84 218.66C988.567 218.66 988.3 218.741 988.073 218.893C987.846 219.044 987.669 219.26 987.565 219.512C987.461 219.764 987.433 220.042 987.486 220.309C987.54 220.577 987.671 220.823 987.864 221.016C988.057 221.209 988.303 221.34 988.571 221.394C988.838 221.447 989.116 221.419 989.368 221.315C989.62 221.211 989.836 221.034 989.987 220.807C990.139 220.58 990.22 220.313 990.22 220.04C990.22 219.674 990.075 219.323 989.816 219.064C989.557 218.805 989.206 218.66 988.84 218.66Z" fill="black"/>
<path d="M956.64 273.6L1017.5 270.84C1026.6 270.331 1035.54 273.44 1042.36 279.49C1051.13 287.49 1057.99 302.18 1048.44 328.88L1035 353.93L959 344.73L945.87 370.27L898.17 375.72C896.99 375.85 893.34 369.57 892.83 368.78C889.033 362.994 886.561 356.442 885.59 349.59C883.09 330.07 897.59 314.39 908.82 300.12C920.74 284.9 936.58 274.51 956.64 273.6Z" fill="#FFC1EB"/>
<path d="M985.58 222.92C985.111 222.929 984.653 222.773 984.287 222.478C983.922 222.184 983.671 221.77 983.58 221.31C983.308 219.964 983.394 218.571 983.83 217.269C984.265 215.967 985.034 214.802 986.06 213.89C987.053 213.06 988.229 212.478 989.491 212.191C990.753 211.904 992.066 211.921 993.32 212.24C993.573 212.31 993.81 212.43 994.018 212.592C994.225 212.754 994.398 212.955 994.528 213.184C994.657 213.412 994.741 213.665 994.773 213.926C994.805 214.187 994.785 214.452 994.715 214.705C994.645 214.958 994.525 215.196 994.363 215.403C994.201 215.61 994 215.783 993.771 215.913C993.542 216.043 993.29 216.126 993.029 216.158C992.768 216.19 992.503 216.17 992.25 216.1C991.637 215.951 990.998 215.945 990.383 216.082C989.768 216.219 989.192 216.495 988.7 216.89C988.201 217.338 987.828 217.909 987.617 218.546C987.407 219.182 987.366 219.863 987.5 220.52C987.552 220.777 987.554 221.043 987.504 221.301C987.454 221.558 987.354 221.804 987.209 222.023C987.064 222.242 986.877 222.431 986.66 222.578C986.442 222.725 986.197 222.828 985.94 222.88C985.821 222.901 985.701 222.914 985.58 222.92Z" fill="black"/>
<path d="M937.34 176.92C937.34 176.92 936.69 217.21 988.75 205.77L985.87 171.71L937.34 176.92Z" fill="black"/>
<path d="M940.92 231.41C932.66 231.41 925.92 223.62 925.92 214.03C925.92 204.44 932.65 196.65 940.92 196.65C949.19 196.65 955.92 204.45 955.92 214.03C955.92 223.61 949.19 231.41 940.92 231.41ZM940.92 200.65C934.86 200.65 929.92 206.65 929.92 214.03C929.92 221.41 934.85 227.41 940.92 227.41C946.99 227.41 951.92 221.41 951.92 214.03C951.92 206.65 947 200.65 940.92 200.65Z" fill="black"/>
<path d="M1009.44 441.89H933V391.15H1003.63C1008.62 407.573 1010.6 424.762 1009.48 441.89H1009.44Z" fill="black"/>
<path d="M816.73 401.17H777.35C775.156 401.174 772.992 400.667 771.028 399.69C769.063 398.713 767.354 397.292 766.033 395.54C764.713 393.788 763.819 391.753 763.42 389.596C763.022 387.438 763.132 385.218 763.74 383.11C764.565 380.278 766.288 377.79 768.648 376.021C771.009 374.252 773.88 373.297 776.83 373.3H817.24C820.085 373.299 822.859 374.188 825.172 375.843C827.486 377.499 829.223 379.837 830.14 382.53C830.859 384.657 831.06 386.925 830.727 389.145C830.394 391.365 829.536 393.474 828.225 395.296C826.914 397.118 825.187 398.602 823.188 399.624C821.189 400.645 818.975 401.175 816.73 401.17Z" fill="#F3EAD6"/>
<path d="M957.82 344.73L944.88 370.27L870.35 377.69C867.563 377.968 864.756 377.43 862.27 376.14L830 359.38C830 359.38 818.73 353.07 802.44 359.87L775 372.32C773.848 372.818 772.881 373.665 772.235 374.741C771.589 375.817 771.297 377.069 771.4 378.32V378.38C771.468 378.892 771.646 379.384 771.92 379.821C772.195 380.259 772.56 380.633 772.991 380.917C773.423 381.201 773.91 381.39 774.42 381.47C774.931 381.55 775.452 381.519 775.95 381.38L805 373.23L791.39 385.54C789.386 387.335 787.989 389.707 787.39 392.33C786.47 396.6 787.58 402.39 798.64 405.03C798.64 405.03 803.73 413.58 812.39 409.03C812.44 409.03 813.67 410.12 813.77 410.19C815.122 411.233 816.568 412.147 818.09 412.92C822.856 415.289 828.072 416.615 833.39 416.81C836.69 416.97 839.79 415.53 840.22 411.95L843 412.24C851.667 413.127 860.297 414.4 868.89 416.06L934.62 428.77C952.62 431.32 965.5 427.47 972.07 424.87C991.27 417.28 1003.71 403.78 1013.69 386.63L1032.69 353.92L957.82 344.73Z" fill="white"/>
<path d="M946.37 431.63C942.355 431.621 938.345 431.331 934.37 430.76H934.27L868.5 418C860.02 416.36 851.37 415.09 842.79 414.2L841.71 414.09C840.49 417.16 837.31 418.99 833.28 418.79C827.676 418.576 822.182 417.175 817.16 414.68C815.534 413.845 813.984 412.868 812.53 411.76L812.14 411.42L812.07 411.36C805.07 414.29 799.69 410.05 797.38 406.75C784.91 403.48 784.52 396.06 785.38 391.88C786.069 388.838 787.699 386.091 790.04 384.03L797.36 377.41L776.42 383.26C775.651 383.476 774.844 383.525 774.054 383.404C773.264 383.283 772.509 382.994 771.84 382.558C771.17 382.122 770.602 381.547 770.173 380.873C769.743 380.199 769.463 379.441 769.35 378.65C769.171 376.966 769.53 375.269 770.376 373.803C771.223 372.337 772.512 371.177 774.06 370.49L801.61 358.02C818.66 350.9 830.48 357.33 830.98 357.61L863.15 374.33C865.302 375.453 867.736 375.919 870.15 375.67L943.58 368.36L956.66 342.55L1036 352.31L1015.43 387.65C1003.95 407.36 990.43 419.78 972.82 426.74C964.392 430.028 955.417 431.687 946.37 431.63ZM934.94 426.8C948.04 428.65 960.29 427.38 971.33 423.02C988.27 416.32 1000.8 404.79 1011.95 385.64L1029.47 355.54L959 346.89L946.2 372.15L870.58 379.68C867.406 379.997 864.209 379.382 861.38 377.91L829.15 361.16C828.67 360.9 818.39 355.4 803.28 361.72L775.82 374.14C775.056 374.459 774.41 375.008 773.971 375.71C773.533 376.412 773.322 377.233 773.37 378.06C773.399 378.292 773.478 378.516 773.6 378.715C773.723 378.914 773.887 379.085 774.081 379.216C774.276 379.347 774.495 379.434 774.726 379.473C774.957 379.512 775.194 379.5 775.42 379.44L812.66 369L792.77 387C791.052 388.499 789.848 390.5 789.33 392.72C788.24 397.77 791.52 401.25 799.09 403.05L799.91 403.25L800.34 403.98C800.77 404.68 804.72 410.77 811.45 407.23C812.71 406.57 813.54 407.31 814.8 408.43L815.03 408.64C816.287 409.587 817.625 410.42 819.03 411.13C823.544 413.358 828.479 414.605 833.51 414.79C834.82 414.85 837.9 414.69 838.25 411.69L838.48 409.69L843.23 410.18C851.92 411.07 860.69 412.36 869.29 414.03L934.94 426.8Z" fill="black"/>
<path d="M844.18 730.66H760.02C757.8 730.66 756 732.46 756 734.68V738.19C756 740.41 757.8 742.21 760.02 742.21H844.18C846.4 742.21 848.2 740.41 848.2 738.19V734.68C848.2 732.46 846.4 730.66 844.18 730.66Z" fill="black"/>
<path d="M746.41 710.17L785.09 703.27H841.67V724.13C841.67 726.037 840.913 727.866 839.564 729.214C838.216 730.562 836.387 731.32 834.48 731.32H760L746.41 710.17Z" fill="white"/>
<path d="M834.48 733.32H758.93L743.1 708.73L785.1 701.27H843.68V724.13C843.677 726.568 842.707 728.906 840.982 730.629C839.257 732.352 836.918 733.32 834.48 733.32ZM761.11 729.32H834.48C835.856 729.317 837.174 728.77 838.147 727.797C839.12 726.824 839.667 725.506 839.67 724.13V705.27H785.27L749.71 711.61L761.11 729.32Z" fill="black"/>
<path d="M698.43 663.82L675.18 646.82C671.595 644.206 668.561 640.912 666.249 637.125C663.938 633.339 662.395 629.134 661.709 624.751C661.022 620.368 661.206 615.892 662.25 611.58C663.293 607.268 665.176 603.204 667.79 599.62L769.09 460.7C772.923 455.441 777.755 450.99 783.309 447.599C788.863 444.208 795.03 441.945 801.459 440.938C807.888 439.931 814.453 440.201 820.777 441.732C827.102 443.263 833.063 446.025 838.32 449.86C843.578 453.693 848.03 458.525 851.421 464.079C854.812 469.633 857.075 475.8 858.082 482.229C859.088 488.658 858.819 495.223 857.288 501.547C855.757 507.872 852.995 513.833 849.16 519.09L749.48 655.83C743.769 663.659 735.183 668.898 725.61 670.397C716.036 671.895 706.259 669.529 698.43 663.82Z" fill="black"/>
<path d="M940.14 513H763.14V478.22C763.143 464.839 768.46 452.007 777.923 442.546C787.386 433.085 800.219 427.77 813.6 427.77H1009.44V443.7C1009.44 462.08 1002.14 479.706 989.143 492.703C976.146 505.699 958.52 513 940.14 513Z" fill="black"/>
<path d="M825.74 708.16H797C788.04 708.16 779.447 704.601 773.11 698.267C766.774 691.932 763.213 683.34 763.21 674.38V508.73H862.31V671.62C862.311 676.421 861.366 681.176 859.528 685.612C857.691 690.048 854.996 694.078 851.6 697.471C848.204 700.865 844.171 703.556 839.734 705.39C835.297 707.224 830.541 708.165 825.74 708.16Z" fill="black"/>
<path d="M710.31 664.52C709.944 664.519 709.586 664.417 709.274 664.227C708.962 664.036 708.708 663.764 708.54 663.439C708.372 663.114 708.296 662.75 708.321 662.385C708.346 662.02 708.47 661.669 708.68 661.37L761.54 586.37C761.846 585.936 762.312 585.642 762.836 585.552C763.359 585.462 763.896 585.584 764.33 585.89C764.764 586.196 765.058 586.662 765.148 587.186C765.238 587.709 765.116 588.246 764.81 588.68L711.95 663.68C711.764 663.941 711.518 664.154 711.232 664.3C710.947 664.446 710.631 664.522 710.31 664.52Z" fill="white"/>
<path d="M830.9 709.79C830.369 709.79 829.861 709.579 829.486 709.204C829.111 708.829 828.9 708.32 828.9 707.79V504.61C828.905 497.086 831.896 489.873 837.215 484.552C842.533 479.231 849.746 476.238 857.27 476.23H935.05C943.221 476.222 951.056 472.972 956.834 467.194C962.612 461.416 965.862 453.582 965.87 445.41V427.77C965.87 427.24 966.081 426.731 966.456 426.356C966.831 425.981 967.339 425.77 967.87 425.77C968.4 425.77 968.909 425.981 969.284 426.356C969.659 426.731 969.87 427.24 969.87 427.77V445.41C969.859 454.642 966.187 463.492 959.66 470.02C953.132 476.548 944.281 480.219 935.05 480.23H857.27C850.807 480.238 844.612 482.809 840.043 487.38C835.474 491.951 832.905 498.147 832.9 504.61V707.79C832.9 708.32 832.689 708.829 832.314 709.204C831.939 709.579 831.43 709.79 830.9 709.79Z" fill="white"/>
<path d="M798.62 407C798.189 406.998 797.77 406.856 797.426 406.597C797.082 406.338 796.831 405.974 796.71 405.56C792.07 389.67 809.1 379.85 809.28 379.75C809.509 379.619 809.761 379.534 810.022 379.5C810.283 379.466 810.549 379.484 810.803 379.553C811.058 379.621 811.296 379.739 811.505 379.9C811.714 380.061 811.889 380.261 812.02 380.49C812.151 380.718 812.236 380.971 812.27 381.232C812.304 381.493 812.286 381.759 812.217 382.013C812.149 382.268 812.031 382.506 811.87 382.715C811.709 382.924 811.509 383.099 811.28 383.23C808.673 384.838 806.331 386.842 804.34 389.17C800.34 393.99 799.03 399.12 800.59 404.44C800.739 404.949 800.679 405.497 800.424 405.962C800.169 406.427 799.739 406.771 799.23 406.92C799.031 406.975 798.826 407.002 798.62 407Z" fill="black"/>
<path d="M812.38 411C812.054 410.999 811.733 410.918 811.446 410.765C811.158 410.611 810.913 410.39 810.73 410.12C809.649 408.653 808.9 406.968 808.534 405.183C808.168 403.398 808.194 401.554 808.61 399.78C810.61 391.36 820.78 385.63 821.22 385.39C821.45 385.244 821.708 385.146 821.977 385.103C822.246 385.059 822.521 385.072 822.785 385.139C823.05 385.206 823.297 385.326 823.514 385.492C823.73 385.659 823.909 385.867 824.042 386.106C824.174 386.344 824.257 386.607 824.284 386.878C824.311 387.149 824.282 387.423 824.2 387.683C824.117 387.943 823.982 388.183 823.804 388.389C823.625 388.595 823.406 388.762 823.16 388.88C823 388.98 814.08 394.04 812.5 400.71C812.217 401.943 812.208 403.223 812.472 404.459C812.736 405.696 813.268 406.86 814.03 407.87C814.236 408.17 814.356 408.521 814.377 408.885C814.398 409.248 814.319 409.611 814.149 409.933C813.979 410.255 813.725 410.524 813.413 410.712C813.101 410.901 812.744 411 812.38 411Z" fill="black"/>
<path d="M840.21 414C839.719 414.004 839.243 413.826 838.874 413.501C838.505 413.177 838.269 412.728 838.21 412.24C837.82 409.04 831.31 405.24 828.21 403.93L825.45 402.75L835.03 393.48C835.416 393.14 835.918 392.961 836.431 392.981C836.945 393.002 837.432 393.219 837.79 393.588C838.147 393.958 838.349 394.451 838.353 394.965C838.357 395.479 838.162 395.975 837.81 396.35L832.44 401.55C835.95 403.43 841.61 407.15 842.17 411.76C842.232 412.285 842.084 412.813 841.758 413.229C841.432 413.645 840.954 413.915 840.43 413.98L840.21 414Z" fill="black"/>
<path d="M770.91 742.22H723.28C721.527 742.22 719.846 741.524 718.606 740.284C717.366 739.044 716.67 737.363 716.67 735.61C716.673 728.418 719.531 721.522 724.616 716.436C729.702 711.351 736.598 708.493 743.79 708.49C750.983 708.49 757.881 711.347 762.967 716.433C768.053 721.519 770.91 728.417 770.91 735.61V742.22Z" fill="black"/>
<path d="M953.92 213.17C953.389 213.199 952.869 213.016 952.473 212.662C952.078 212.308 951.839 211.81 951.81 211.28C951.781 210.75 951.963 210.229 952.318 209.834C952.672 209.438 953.169 209.199 953.7 209.17L985.24 205.68C985.77 205.622 986.302 205.776 986.719 206.11C987.135 206.444 987.402 206.93 987.46 207.46C987.518 207.99 987.364 208.522 987.03 208.939C986.696 209.355 986.21 209.622 985.68 209.68L954.14 213.16L953.92 213.17Z" fill="black"/>
<path d="M952.34 255.63L953.75 267.63L974.63 253.86C974.777 253.766 974.887 253.624 974.941 253.458C974.996 253.292 974.992 253.113 974.929 252.95C974.867 252.787 974.751 252.65 974.6 252.563C974.449 252.475 974.272 252.443 974.1 252.47L952.34 255.63Z" fill="black"/>
<path d="M957.82 346.73C957.545 346.732 957.273 346.678 957.02 346.57C956.54 346.352 956.166 345.953 955.979 345.461C955.792 344.968 955.807 344.422 956.02 343.94L964.22 325.06C964.322 324.815 964.471 324.594 964.66 324.407C964.848 324.221 965.072 324.074 965.318 323.975C965.563 323.876 965.826 323.827 966.091 323.83C966.356 323.833 966.618 323.889 966.861 323.995C967.104 324.1 967.324 324.253 967.507 324.444C967.691 324.635 967.835 324.86 967.931 325.107C968.026 325.354 968.072 325.618 968.065 325.883C968.058 326.148 967.999 326.408 967.89 326.65L959.68 345.53C959.522 345.891 959.262 346.197 958.931 346.411C958.6 346.624 958.214 346.735 957.82 346.73Z" fill="black"/>
<path d="M763.78 635.11C763.25 635.11 762.741 634.899 762.366 634.524C761.991 634.149 761.78 633.64 761.78 633.11V470.39C761.78 469.86 761.991 469.351 762.366 468.976C762.741 468.601 763.25 468.39 763.78 468.39C764.31 468.39 764.819 468.601 765.194 468.976C765.569 469.351 765.78 469.86 765.78 470.39V633.11C765.78 633.64 765.569 634.149 765.194 634.524C764.819 634.899 764.31 635.11 763.78 635.11Z" fill="white"/>
<path d="M553.86 172.31C567.109 172.31 577.85 161.569 577.85 148.32C577.85 135.071 567.109 124.33 553.86 124.33C540.611 124.33 529.87 135.071 529.87 148.32C529.87 161.569 540.611 172.31 553.86 172.31Z" fill="#FFBB45"/>
<path d="M555.198 217.881C567.274 194.947 563.563 169.247 546.909 160.477C530.255 151.708 506.964 163.19 494.888 186.123C482.812 209.057 486.523 234.757 503.177 243.527C519.831 252.296 543.122 240.814 555.198 217.881Z" fill="#FFBB45"/>
<path d="M549.819 302.811C554.721 268.146 535.855 236.815 507.68 232.831C479.505 228.846 452.691 253.718 447.789 288.383C442.887 323.047 461.753 354.378 489.928 358.363C518.103 362.347 544.917 337.476 549.819 302.811Z" fill="#FFBB45"/>
<path d="M371.69 249.12C383.94 249.12 393.87 239.19 393.87 226.94C393.87 214.69 383.94 204.76 371.69 204.76C359.44 204.76 349.51 214.69 349.51 226.94C349.51 239.19 359.44 249.12 371.69 249.12Z" fill="#FFBB45"/>
<path d="M395.529 317.193C412.236 313.28 421.655 292.493 416.566 270.763C411.477 249.033 393.808 234.589 377.101 238.502C360.393 242.414 350.974 263.202 356.063 284.932C361.152 306.662 378.821 321.105 395.529 317.193Z" fill="#FFBB45"/>
<path d="M416.436 415.021C440.695 410.844 456.193 383.256 451.052 353.403C445.912 323.55 422.079 302.735 397.821 306.912C373.562 311.089 358.064 338.676 363.205 368.529C368.345 398.383 392.178 419.198 416.436 415.021Z" fill="#FFBB45"/>
<path d="M445.22 513.86C444.73 513.864 444.256 513.688 443.887 513.365C443.519 513.043 443.281 512.596 443.22 512.11C431.41 418.42 398.87 337 398.54 336.23C398.432 335.985 398.375 335.72 398.372 335.452C398.368 335.184 398.419 334.918 398.52 334.67C398.621 334.422 398.772 334.197 398.962 334.008C399.152 333.819 399.378 333.671 399.626 333.571C399.875 333.471 400.141 333.422 400.409 333.427C400.677 333.432 400.941 333.491 401.186 333.6C401.43 333.709 401.651 333.866 401.834 334.062C402.016 334.258 402.158 334.488 402.25 334.74C402.58 335.55 435.31 417.39 447.25 511.61C447.284 511.871 447.265 512.137 447.196 512.391C447.126 512.646 447.007 512.884 446.846 513.092C446.684 513.3 446.483 513.474 446.254 513.604C446.024 513.734 445.772 513.818 445.51 513.85L445.22 513.86Z" fill="black"/>
<path d="M469.38 514.89C468.85 514.89 468.341 514.679 467.966 514.304C467.591 513.929 467.38 513.42 467.38 512.89C467.13 418.89 480.38 343.52 491.53 296.8C503.63 246.13 516 217.27 516.1 217C516.316 216.521 516.711 216.145 517.201 215.955C517.692 215.765 518.237 215.776 518.719 215.985C519.201 216.194 519.582 216.584 519.779 217.072C519.975 217.559 519.972 218.105 519.77 218.59C519.65 218.87 507.41 247.49 495.39 297.87C484.3 344.35 471.13 419.4 471.39 512.87C471.39 513.4 471.179 513.909 470.804 514.284C470.429 514.659 469.92 514.87 469.39 514.87L469.38 514.89Z" fill="black"/>
<path d="M480.87 512.89H430.43C415.203 512.89 402.86 525.234 402.86 540.46V731.06C402.86 746.286 415.203 758.63 430.43 758.63H480.87C496.096 758.63 508.44 746.286 508.44 731.06V540.46C508.44 525.234 496.096 512.89 480.87 512.89Z" fill="#6DC8C2"/>
<path d="M408 745.5C407.609 745.501 407.226 745.386 406.898 745.171C406.571 744.956 406.315 744.65 406.16 744.29C405.947 743.808 405.932 743.262 406.119 742.769C406.307 742.277 406.681 741.878 407.16 741.66C422.808 734.883 439.646 731.28 456.697 731.06C473.748 730.841 490.673 734.008 506.49 740.38C506.966 740.589 507.342 740.974 507.538 741.455C507.735 741.936 507.736 742.475 507.543 742.957C507.349 743.439 506.975 743.827 506.501 744.038C506.026 744.25 505.488 744.268 505 744.09C489.671 737.916 473.27 734.847 456.746 735.06C440.222 735.273 423.905 738.764 408.74 745.33C408.506 745.433 408.255 745.491 408 745.5Z" fill="black"/>
<path d="M493.8 553.66H419C418.47 553.66 417.961 553.449 417.586 553.074C417.211 552.699 417 552.19 417 551.66C417 551.13 417.211 550.621 417.586 550.246C417.961 549.871 418.47 549.66 419 549.66H493.8C494.33 549.66 494.839 549.871 495.214 550.246C495.589 550.621 495.8 551.13 495.8 551.66C495.8 552.19 495.589 552.699 495.214 553.074C494.839 553.449 494.33 553.66 493.8 553.66Z" fill="black"/>
<path d="M474.61 735.05C474.08 735.05 473.571 734.839 473.196 734.464C472.821 734.089 472.61 733.58 472.61 733.05V552.25C472.61 551.72 472.821 551.211 473.196 550.836C473.571 550.461 474.08 550.25 474.61 550.25C475.14 550.25 475.649 550.461 476.024 550.836C476.399 551.211 476.61 551.72 476.61 552.25V733.05C476.61 733.58 476.399 734.089 476.024 734.464C475.649 734.839 475.14 735.05 474.61 735.05Z" fill="black"/>
<path d="M438.14 735.05C437.61 735.05 437.101 734.839 436.726 734.464C436.351 734.089 436.14 733.58 436.14 733.05V552.25C436.14 551.72 436.351 551.211 436.726 550.836C437.101 550.461 437.61 550.25 438.14 550.25C438.67 550.25 439.179 550.461 439.554 550.836C439.929 551.211 440.14 551.72 440.14 552.25V733.05C440.14 733.58 439.929 734.089 439.554 734.464C439.179 734.839 438.67 735.05 438.14 735.05Z" fill="black"/>
<rect x="594" y="197" width="142" height="17" rx="6" fill="#6DC8C2"/>
<rect x="594" y="255" width="142" height="17" rx="6" fill="#6DC8C2"/>
<rect x="594" y="277" width="142" height="17" rx="6" fill="#6DC8C2"/>
<rect x="594" y="219" width="142" height="31" rx="6" fill="#FFC1EB"/>
<rect x="594" y="308" width="142" height="32" rx="6" fill="#FFBB45"/>
</svg>
