<svg width="1465" height="886" viewBox="0 0 1465 886" fill="none" xmlns="http://www.w3.org/2000/svg">
<path d="M1047.85 709.8L1009.07 174.609C1006.16 134.433 960.918 112.48 927.575 135.093L483.931 436.31C450.63 458.923 454.271 509.154 490.487 526.718L972.855 760.682C1009.14 778.254 1050.78 749.959 1047.85 709.8Z" fill="#1E1E1E"/>
<path d="M831.569 413C802.153 412.039 777.576 389.643 773.425 360.004L763 285.675L802.204 280.244C805.158 279.899 817.528 278.777 828.632 287.311C833.046 290.683 836.765 295.287 839.957 302.134C846.205 315.541 872.658 385.031 843.726 407.409C840.143 410.149 835.99 412.059 831.569 413V413Z" fill="#AB17AE"/>
<path d="M957 762H722.913L704 475.687C736.997 461.184 771.55 450.551 806.973 443.997C857.587 434.679 897.673 434.29 933.903 438.813C941.613 546.774 949.281 654.04 957 762Z" fill="#FFB8EB"/>
<path d="M830.261 410.833L820.921 385.274C830.116 384.902 837.469 376.935 837.469 367.132C837.469 357.083 829.768 348.947 820.258 348.947C816.182 348.957 812.253 350.464 809.22 353.18L791.636 305L719.541 328.137C716.199 329.208 713.102 330.925 710.426 333.189C707.75 335.454 705.549 338.222 703.946 341.335C702.344 344.449 701.373 347.846 701.088 351.334C700.803 354.822 701.211 358.332 702.287 361.663L721.816 422.169C724.79 431.343 731.292 438.965 739.896 443.365C748.499 447.764 758.502 448.581 767.709 445.637L778.195 440.963L786.957 459.639C787.335 460.465 787.989 461.133 788.808 461.527C804.032 468.825 821.023 467.039 831.483 457.294C838.709 450.581 842.708 444.536 843.863 440.582C844.116 439.657 844.016 438.67 843.583 437.814L830.261 410.833Z" fill="white"/>
<path d="M778 440.344L809.597 426.083C809.807 425.992 810.042 425.975 810.262 426.035C810.483 426.095 810.677 426.227 810.81 426.41C810.944 426.594 811.011 426.817 810.999 427.043C810.986 427.268 810.896 427.483 810.743 427.651L784.936 455L778 440.344Z" fill="black"/>
<path d="M818.008 375C816.821 375.002 815.66 374.622 814.673 373.909C813.685 373.196 812.914 372.181 812.459 370.994C812.004 369.806 811.884 368.499 812.114 367.237C812.345 365.976 812.916 364.817 813.754 363.907C814.593 362.997 815.662 362.377 816.826 362.126C817.991 361.874 819.197 362.002 820.294 362.494C821.391 362.986 822.329 363.819 822.988 364.888C823.648 365.957 824 367.214 824 368.5C824 370.222 823.369 371.874 822.246 373.093C821.122 374.312 819.598 374.998 818.008 375V375ZM818.008 365.585C817.474 365.584 816.951 365.754 816.506 366.074C816.061 366.395 815.714 366.851 815.508 367.386C815.303 367.921 815.249 368.509 815.353 369.077C815.457 369.645 815.714 370.167 816.092 370.576C816.47 370.986 816.951 371.264 817.476 371.377C818 371.489 818.543 371.431 819.037 371.208C819.53 370.986 819.951 370.61 820.247 370.128C820.543 369.645 820.7 369.079 820.699 368.5C820.699 367.727 820.415 366.986 819.911 366.439C819.406 365.892 818.722 365.585 818.008 365.585V365.585Z" fill="black"/>
<path d="M813.893 370C813.455 370.003 813.031 369.863 812.703 369.607C812.375 369.351 812.166 368.998 812.116 368.615C811.663 365.226 812.542 362.486 814.728 360.459C818.832 356.647 826.029 356.999 826.331 357.015C826.802 357.041 827.242 357.231 827.555 357.543C827.867 357.855 828.026 358.263 827.997 358.678C827.967 359.093 827.752 359.481 827.398 359.757C827.043 360.032 826.58 360.172 826.109 360.146C826.055 360.146 820.245 359.872 817.295 362.619C815.856 363.958 815.323 365.797 815.643 368.255C815.695 368.665 815.561 369.078 815.27 369.402C814.979 369.726 814.554 369.935 814.088 369.984L813.893 370Z" fill="black"/>
<path d="M751.908 417.999C749.778 418.026 747.672 417.525 745.764 416.539C745.405 416.301 745.149 415.928 745.047 415.498C744.946 415.067 745.009 414.613 745.221 414.229C745.434 413.845 745.781 413.562 746.19 413.439C746.598 413.315 747.037 413.361 747.414 413.567C747.793 413.781 756.278 418.566 764.961 405.793C765.081 405.597 765.239 405.428 765.423 405.298C765.608 405.167 765.816 405.076 766.035 405.032C766.254 404.987 766.479 404.99 766.698 405.038C766.916 405.087 767.122 405.182 767.304 405.316C767.486 405.451 767.64 405.622 767.757 405.82C767.874 406.019 767.95 406.24 767.983 406.47C768.015 406.7 768.002 406.934 767.945 407.159C767.888 407.384 767.787 407.594 767.649 407.777C762.017 416.066 756.146 417.999 751.908 417.999Z" fill="black"/>
<path d="M762 372C764.209 372 766 370.657 766 369C766 367.343 764.209 366 762 366C759.791 366 758 367.343 758 369C758 370.657 759.791 372 762 372Z" fill="black"/>
<path d="M719 389C720.657 389 722 387.209 722 385C722 382.791 720.657 381 719 381C717.343 381 716 382.791 716 385C716 387.209 717.343 389 719 389Z" fill="black"/>
<path d="M717.925 405C709.424 405 701.531 398.241 699.493 388.604C697.192 377.756 703.172 367.31 712.816 365.315C715.203 364.849 717.665 364.9 720.03 365.467C722.395 366.033 724.607 367.1 726.512 368.595C730.64 371.777 733.471 376.317 734.489 381.386V381.386C735.616 386.432 734.865 391.71 732.374 396.255C731.237 398.378 729.644 400.231 727.707 401.686C725.77 403.14 723.535 404.16 721.157 404.675C720.094 404.89 719.011 404.999 717.925 405V405ZM716.073 368.286C715.22 368.29 714.37 368.379 713.535 368.553C705.71 370.163 700.905 378.841 702.826 387.886C704.746 396.931 712.672 402.981 720.489 401.37C722.391 400.952 724.177 400.129 725.723 398.959C727.269 397.789 728.537 396.299 729.439 394.595C731.528 390.754 732.147 386.299 731.181 382.045V382.045C730.344 377.75 727.962 373.898 724.473 371.198C722.07 369.353 719.118 368.341 716.073 368.319V368.286Z" fill="black"/>
<path d="M734.631 382C734.241 381.997 733.865 381.857 733.57 381.603C733.275 381.35 733.08 381 733.02 380.617C732.96 380.233 733.038 379.841 733.241 379.51C733.445 379.179 733.76 378.931 734.13 378.81L748.961 374.048C749.365 373.948 749.793 374.005 750.157 374.207C750.521 374.409 750.794 374.741 750.921 375.136C751.049 375.531 751.021 375.96 750.843 376.335C750.665 376.71 750.35 377.004 749.963 377.157L735.14 381.926C734.975 381.975 734.803 382 734.631 382V382Z" fill="black"/>
<path d="M741.946 399.998C741.047 400.021 740.154 399.852 739.329 399.503C738.505 399.155 737.768 398.634 737.171 397.978C735.409 395.89 735.709 393.027 736.546 391.214C737.142 389.943 738.111 388.873 739.33 388.137L732.079 369.228C731.946 368.809 731.982 368.356 732.18 367.962C732.378 367.568 732.723 367.263 733.144 367.109C733.566 366.955 734.031 366.964 734.446 367.135C734.86 367.305 735.192 367.624 735.374 368.025L743.831 390.019L742.069 390.587C741.563 390.75 741.096 391.01 740.695 391.353C740.294 391.695 739.967 392.113 739.735 392.581C739.418 393.26 739.039 394.789 739.84 395.718C740.642 396.646 742.483 396.921 744.192 395.847C744.385 395.708 744.605 395.609 744.838 395.556C745.072 395.503 745.314 395.497 745.549 395.538C745.785 395.579 746.01 395.667 746.21 395.796C746.409 395.925 746.58 396.092 746.712 396.288C746.843 396.483 746.932 396.703 746.973 396.933C747.015 397.163 747.008 397.399 746.953 397.626C746.897 397.854 746.795 398.068 746.652 398.255C746.51 398.443 746.329 398.6 746.122 398.717C744.886 399.529 743.436 399.974 741.946 399.998V399.998Z" fill="black"/>
<path d="M754.876 333.706C776.278 329.231 790.942 312.756 787.628 296.908C784.314 281.06 764.278 271.84 742.876 276.315C721.473 280.79 706.81 297.265 710.124 313.113C713.437 328.962 733.474 338.181 754.876 333.706Z" fill="#AB17AE"/>
<path d="M820 333.796L798.832 339.282C793.07 340.773 786.95 339.922 781.818 336.915C776.686 333.907 772.961 328.99 771.463 323.245L767 306.115L809.893 295L820 333.796Z" fill="#AB17AE"/>
<path d="M701 355C717.016 355 730 342.016 730 326C730 309.984 717.016 297 701 297C684.984 297 672 309.984 672 326C672 342.016 684.984 355 701 355Z" fill="#AB17AE"/>
<path d="M780.641 366C780.26 366.001 779.89 365.865 779.596 365.616C779.301 365.367 779.101 365.021 779.029 364.636C778.957 364.252 779.019 363.854 779.202 363.51C779.386 363.167 779.681 362.901 780.035 362.757L810.676 350.155C810.878 350.059 811.097 350.007 811.319 350.001C811.541 349.994 811.763 350.035 811.969 350.119C812.176 350.204 812.363 350.331 812.52 350.492C812.678 350.653 812.801 350.846 812.883 351.058C812.966 351.27 813.005 351.497 812.999 351.725C812.994 351.953 812.942 352.177 812.849 352.385C812.756 352.592 812.623 352.777 812.457 352.93C812.292 353.082 812.098 353.199 811.888 353.272L781.246 365.874C781.054 365.953 780.848 365.996 780.641 366Z" fill="black"/>
<path d="M660.372 634L653 733.572L655.586 758H722L714.097 637.476L660.372 634Z" fill="white"/>
<path d="M724 759H653.774L651 733.2L658.56 633L715.821 636.629L724 759ZM656.829 755.632H720.369L712.631 639.795L661.724 636.562L654.402 733.15L656.829 755.632Z" fill="black"/>
<path d="M703.755 476C700.896 477.146 698.146 478.542 695.537 480.171C676.037 492.362 669.616 514.785 664.677 536.659C659.431 559.919 651.708 613.427 649 654.981C670.153 656.315 694.847 657.658 716 659L703.755 476Z" fill="#FFB8EB"/>
<path d="M684.318 558H482.682C482.236 558 481.808 557.842 481.493 557.561C481.177 557.279 481 556.898 481 556.5C481 556.102 481.177 555.721 481.493 555.439C481.808 555.158 482.236 555 482.682 555H684.318C684.764 555 685.192 555.158 685.507 555.439C685.823 555.721 686 556.102 686 556.5C686 556.898 685.823 557.279 685.507 557.561C685.192 557.842 684.764 558 684.318 558Z" fill="black"/>
<path d="M585.596 557H501.404C499.708 556.998 498.081 556.345 496.881 555.183C495.681 554.022 495.004 552.447 495 550.803V539.205C495.002 537.56 495.678 535.983 496.878 534.82C498.079 533.657 499.706 533.002 501.404 533H585.596C587.294 533.002 588.921 533.657 590.122 534.82C591.322 535.983 591.998 537.56 592 539.205V550.811C591.993 552.454 591.316 554.026 590.116 555.186C588.916 556.346 587.291 556.998 585.596 557V557ZM501.404 536.271C501.007 536.271 500.615 536.346 500.248 536.493C499.882 536.64 499.549 536.856 499.269 537.128C498.988 537.399 498.766 537.722 498.614 538.077C498.462 538.432 498.384 538.812 498.384 539.197V550.803C498.386 551.578 498.705 552.32 499.271 552.867C499.838 553.414 500.605 553.721 501.404 553.721H585.596C586.395 553.721 587.162 553.414 587.729 552.867C588.295 552.32 588.614 551.578 588.616 550.803V539.205C588.616 538.429 588.298 537.685 587.732 537.136C587.165 536.587 586.397 536.279 585.596 536.279L501.404 536.271Z" fill="black"/>
<path d="M584.318 512H500.682C498.096 512 496 514.071 496 516.625V528.375C496 530.929 498.096 533 500.682 533H584.318C586.904 533 589 530.929 589 528.375V516.625C589 514.071 586.904 512 584.318 512Z" fill="#3B82F7"/>
<path d="M606.547 557H594.453C592.742 556.998 591.102 556.327 589.892 555.136C588.683 553.944 588.002 552.329 588 550.644V481.356C588.002 479.671 588.683 478.056 589.892 476.864C591.102 475.673 592.742 475.002 594.453 475H606.547C608.258 475.002 609.898 475.673 611.108 476.864C612.317 478.056 612.998 479.671 613 481.356V550.644C612.998 552.329 612.317 553.944 611.108 555.136C609.898 556.327 608.258 556.998 606.547 557ZM594.453 478.388C593.648 478.391 592.876 478.707 592.307 479.267C591.737 479.828 591.416 480.588 591.414 481.381V550.669C591.416 551.462 591.737 552.222 592.307 552.783C592.876 553.344 593.648 553.66 594.453 553.662H606.547C607.352 553.66 608.124 553.344 608.693 552.783C609.263 552.222 609.584 551.462 609.586 550.669V481.356C609.584 480.563 609.263 479.803 608.693 479.242C608.124 478.681 607.352 478.365 606.547 478.363L594.453 478.388Z" fill="black"/>
<path d="M630.155 477H617.845C615.169 477 613 479.106 613 481.704V551.296C613 553.894 615.169 556 617.845 556H630.155C632.831 556 635 553.894 635 551.296V481.704C635 479.106 632.831 477 630.155 477Z" fill="white"/>
<path d="M807.565 487C796.259 486.892 785.216 483.575 775.719 477.436C775.36 477.181 775.113 476.798 775.03 476.365C774.948 475.932 775.036 475.484 775.276 475.115C775.516 474.746 775.889 474.484 776.318 474.385C776.747 474.285 777.198 474.355 777.576 474.581C782.867 477.99 797.171 485.764 815.258 483.011C840.195 479.226 852.549 458.965 854.773 454.941C854.875 454.736 855.018 454.554 855.193 454.405C855.368 454.257 855.571 454.145 855.79 454.077C856.01 454.009 856.24 453.986 856.468 454.009C856.697 454.032 856.918 454.101 857.119 454.212C857.32 454.323 857.496 454.473 857.638 454.654C857.779 454.835 857.883 455.042 857.942 455.264C858.001 455.486 858.015 455.717 857.983 455.944C857.951 456.172 857.873 456.39 857.754 456.586C855.394 460.848 842.283 482.354 815.77 486.378C813.055 486.794 810.312 487.002 807.565 487Z" fill="white"/>
<path d="M745.998 496.423L707.247 506.626C702.135 507.972 699.081 513.207 700.427 518.319L721.205 597.237C722.551 602.35 727.786 605.403 732.898 604.057L771.65 593.854C776.762 592.508 779.815 587.273 778.469 582.161L757.692 503.243C756.346 498.131 751.111 495.077 745.998 496.423Z" fill="#292929"/>
<path d="M745.234 510.198L744.59 510.342C742.507 510.809 741.198 512.876 741.665 514.958L745.451 531.84C745.918 533.922 747.985 535.232 750.067 534.765L750.711 534.62C752.793 534.153 754.103 532.086 753.636 530.004L749.85 513.123C749.383 511.04 747.316 509.731 745.234 510.198Z" fill="white"/>
<path d="M764.692 388C756.218 388 748.431 381.471 746.456 372.131C744.245 361.565 750.286 351.361 759.964 349.347C769.641 347.332 779.309 354.306 781.538 364.872C783.767 375.437 777.716 385.659 768.048 387.656C766.944 387.888 765.82 388.003 764.692 388V388ZM763.294 352.359C762.403 352.357 761.514 352.447 760.641 352.628C752.803 354.256 747.931 362.698 749.778 371.443C751.625 380.187 759.498 385.994 767.336 384.375C775.174 382.755 780.047 374.304 778.199 365.56C776.555 357.797 770.2 352.359 763.311 352.359H763.294Z" fill="black"/>
<path d="M922 602.157L713.478 626L711 596.902L915.931 573L922 602.157Z" fill="#AB17AE"/>
<path d="M936 666.033L716.118 691L714 659.196L929.073 634L936 666.033Z" fill="#AB17AE"/>
<path d="M785.541 565.21C785.541 565.21 757.868 567.659 743.432 542.889C742.076 540.551 740.231 538.534 738.022 536.977C734.227 534.308 728.547 532.636 722.682 539.333C722.682 539.333 713.147 526.724 706.107 533.928C706.107 533.928 701.086 540.287 707.797 551.005C707.797 551.005 697.071 555.455 707.696 574.196C709.327 577.076 710.916 579.981 712.328 582.97C718.041 595.014 738.36 629.209 786.791 634.175C789.949 634.513 792.943 635.747 795.421 637.73L910.236 728.814C920.813 737.283 933.167 743.256 946.378 746.288C965.277 750.51 999.297 748.298 1016.9 723.772C1027.24 709.167 1031.71 691.213 1029.41 673.471L1024.08 630.146L928.45 645.804L831.918 585.327C828.695 583.298 826.07 580.451 824.311 577.076C818.707 566.392 804.592 541.605 788.93 530.82C788.389 530.449 787.856 530.085 787.332 529.697C783.952 527.163 779.725 525.069 775.457 525.001C768.695 524.9 762.965 531.141 767.14 537.475C768.974 540.262 771.924 542.542 774.654 544.417C777.485 546.342 779.893 548.823 781.73 551.71C783.567 554.597 784.795 557.829 785.338 561.207C785.539 562.531 785.607 563.872 785.541 565.21V565.21Z" fill="white"/>
<path d="M755.345 582C755.088 581.998 754.835 581.938 754.605 581.823C750.132 579.643 745.939 576.927 742.121 573.734C729.183 562.878 723.525 548.91 721.053 539.105C720.942 538.672 721.007 538.213 721.234 537.828C721.461 537.444 721.831 537.165 722.264 537.053C722.696 536.942 723.156 537.007 723.54 537.234C723.925 537.461 724.204 537.832 724.315 538.264C726.661 547.59 732.033 560.86 744.282 571.144C747.88 574.16 751.833 576.727 756.051 578.788C756.395 578.954 756.671 579.232 756.835 579.576C757 579.92 757.043 580.309 756.957 580.681C756.871 581.052 756.661 581.383 756.362 581.62C756.063 581.857 755.693 581.985 755.312 581.983L755.345 582Z" fill="black"/>
<path d="M744.297 596C744.038 596.003 743.781 595.944 743.55 595.826C741.297 594.825 739.2 593.512 737.322 591.927C736.675 591.413 735.861 590.774 734.803 589.928C722.211 580.297 712.322 566.951 706.144 551.331C706.052 551.127 706.003 550.906 706 550.682C705.997 550.458 706.04 550.236 706.126 550.029C706.212 549.822 706.34 549.634 706.501 549.477C706.663 549.32 706.855 549.196 707.066 549.115C707.276 549.033 707.502 548.994 707.728 549.001C707.955 549.007 708.178 549.059 708.383 549.153C708.589 549.247 708.773 549.381 708.925 549.547C709.077 549.714 709.193 549.909 709.267 550.12C715.235 565.184 724.772 578.041 736.86 587.307C737.976 588.136 738.799 588.816 739.454 589.339C741.147 590.78 743.045 591.968 745.087 592.864C745.421 593.034 745.689 593.309 745.846 593.647C746.003 593.984 746.041 594.364 745.954 594.725C745.867 595.087 745.66 595.409 745.366 595.64C745.071 595.871 744.707 595.998 744.331 596H744.297Z" fill="black"/>
<path d="M792.886 762H651V731H792.886C794.772 731.002 796.58 731.762 797.914 733.112C799.248 734.462 799.998 736.292 800 738.201V754.807C799.998 756.716 799.247 758.545 797.913 759.894C796.58 761.242 794.772 762 792.886 762V762Z" fill="black"/>
<path d="M668 761.999H501.306C498.2 762.031 495.168 761.054 492.66 759.216C490.152 757.377 488.304 754.775 487.391 751.797L446.567 612.957C443.923 603.962 450.863 595.001 460.483 595.001H617.71C620.952 594.971 624.109 596.039 626.672 598.032C629.234 600.025 631.051 602.828 631.829 605.985L668 761.999Z" fill="black"/>
<path d="M546.5 715C559.479 715 570 704.479 570 691.5C570 678.521 559.479 668 546.5 668C533.521 668 523 678.521 523 691.5C523 704.479 533.521 715 546.5 715Z" fill="#AB17AE"/>
<path d="M542.072 675C541.64 674.999 541.22 674.877 540.881 674.653C540.542 674.43 540.302 674.117 540.2 673.766L537.055 662.998C536.995 662.792 536.984 662.578 537.023 662.369C537.061 662.159 537.149 661.958 537.281 661.777C537.412 661.595 537.586 661.437 537.79 661.312C537.995 661.187 538.227 661.096 538.473 661.046C538.72 660.996 538.976 660.987 539.226 661.019C539.477 661.051 539.718 661.125 539.934 661.235C540.151 661.345 540.34 661.489 540.49 661.661C540.64 661.832 540.748 662.026 540.808 662.232L543.944 673C544.014 673.237 544.019 673.485 543.957 673.724C543.896 673.964 543.771 674.188 543.59 674.381C543.41 674.573 543.18 674.729 542.916 674.837C542.653 674.944 542.365 675 542.072 675V675Z" fill="#6DC8C2"/>
<path d="M1043 629.177L931.092 648L890 437L919.169 437.415C937.265 437.571 954.836 443.551 969.304 454.478C976.845 460.202 983.258 467.289 988.216 475.374C991.777 481.249 994.522 487.585 996.376 494.206L1043 629.177Z" fill="#FFB8EB"/>
<path d="M955.31 662C955.009 662.007 954.712 661.931 954.449 661.779L928.831 647.278C928.451 647.042 928.174 646.664 928.059 646.223C927.944 645.782 927.999 645.313 928.214 644.913C928.429 644.514 928.786 644.215 929.211 644.08C929.636 643.944 930.096 643.983 930.493 644.187L956.111 658.688C956.447 658.878 956.712 659.179 956.862 659.542C957.013 659.904 957.041 660.308 956.942 660.689C956.843 661.069 956.623 661.405 956.316 661.643C956.009 661.88 955.634 662.006 955.25 662H955.31Z" fill="black"/>
<path d="M684.318 444H482.682C482.236 444 481.808 443.842 481.493 443.561C481.177 443.279 481 442.898 481 442.5C481 442.102 481.177 441.721 481.493 441.439C481.808 441.158 482.236 441 482.682 441H684.318C684.764 441 685.192 441.158 685.507 441.439C685.823 441.721 686 442.102 686 442.5C686 442.898 685.823 443.279 685.507 443.561C685.192 443.842 684.764 444 684.318 444Z" fill="black"/>
<path d="M623 440C639.569 440 653 426.569 653 410C653 393.431 639.569 380 623 380C606.431 380 593 393.431 593 410C593 426.569 606.431 440 623 440Z" fill="white"/>
<path d="M280 302C296.569 302 310 288.569 310 272C310 255.431 296.569 242 280 242C263.431 242 250 255.431 250 272C250 288.569 263.431 302 280 302Z" fill="#6DC8C2"/>
<path d="M273.265 283.469L281.487 283.974C285.243 284.204 288.936 282.921 291.754 280.408C294.572 277.895 296.284 274.357 296.513 270.573L296.977 262.873C297.077 261.207 296.851 259.538 296.311 257.961C295.77 256.383 294.927 254.928 293.828 253.679C292.73 252.43 291.397 251.411 289.908 250.681C288.418 249.951 286.8 249.524 285.147 249.424L278.739 249.032C274.102 248.752 269.544 250.338 266.067 253.441C262.59 256.544 260.479 260.911 260.196 265.582L260.026 268.421C259.8 272.185 261.069 275.885 263.552 278.707C266.034 281.529 269.528 283.242 273.265 283.469V283.469Z" fill="black"/>
<path d="M266 271.512C266 270.227 266.502 268.994 267.397 268.085C268.291 267.177 269.504 266.666 270.769 266.666C270.992 266.668 271.215 266.686 271.436 266.718L272.35 254L290.152 255.942C291.98 256.14 293.672 257.018 294.901 258.408C296.13 259.797 296.81 261.6 296.81 263.468V265.514C296.794 267.886 297.443 270.213 298.681 272.224L298.714 272.272V272.291C298.849 272.498 298.939 272.732 298.978 272.977C299.017 273.223 299.004 273.474 298.94 273.713C298.876 273.953 298.763 274.177 298.607 274.368C298.452 274.56 298.258 274.716 298.039 274.826L296.799 275.444V280.238C296.799 281.191 296.596 282.133 296.204 282.998C295.812 283.864 295.24 284.633 294.527 285.252C293.815 285.872 292.979 286.327 292.076 286.587C291.174 286.847 290.227 286.905 289.301 286.757L284.73 286.034L283.813 294L269.261 292.256L270.248 283.753H270.204L270.736 276.354C269.477 276.345 268.273 275.831 267.386 274.924C266.499 274.017 266.001 272.791 266 271.512V271.512Z" fill="white"/>
<path d="M284.444 295L285.381 287.212L289.266 287.807C290.315 287.968 291.388 287.904 292.41 287.619C293.432 287.334 294.38 286.835 295.187 286.156C295.994 285.477 296.642 284.634 297.086 283.686C297.53 282.737 297.76 281.706 297.759 280.662V276.394L298.607 275.986C298.923 275.835 299.202 275.62 299.427 275.355C299.652 275.09 299.817 274.781 299.911 274.449C300.004 274.109 300.025 273.754 299.97 273.406C299.915 273.059 299.787 272.726 299.593 272.43L299.552 272.368C298.363 270.505 297.741 268.346 297.759 266.147V264.133C297.763 262.112 297.005 260.161 295.631 258.658C294.257 257.155 292.364 256.205 290.319 255.993L271.423 254L270.489 266.547C269.094 266.575 267.76 267.113 266.747 268.057C265.734 269.001 265.117 270.282 265.015 271.649C264.913 273.017 265.334 274.373 266.196 275.451C267.058 276.529 268.299 277.253 269.675 277.48L269.141 284.713L268.133 293.11L284.444 295ZM284.07 285.517L283.129 293.371L269.795 291.826L270.796 283.484H270.721L271.27 276.089H270.471C269.381 276.086 268.337 275.658 267.569 274.899C266.8 274.14 266.37 273.112 266.373 272.041C266.376 270.971 266.812 269.945 267.585 269.19C268.357 268.435 269.404 268.012 270.493 268.015C270.686 268.017 270.878 268.032 271.068 268.059L271.86 268.169L272.809 255.622L290.17 257.457C291.848 257.631 293.401 258.41 294.529 259.644C295.657 260.878 296.279 262.478 296.276 264.136V266.151C296.258 268.63 296.962 271.062 298.305 273.16L298.342 273.219C298.424 273.342 298.479 273.48 298.502 273.625C298.526 273.77 298.519 273.918 298.48 274.06C298.443 274.192 298.378 274.316 298.289 274.422C298.199 274.527 298.087 274.613 297.961 274.672L296.276 275.48V280.658C296.276 281.49 296.093 282.312 295.739 283.067C295.385 283.823 294.869 284.494 294.226 285.035C293.583 285.576 292.828 285.974 292.014 286.202C291.2 286.43 290.345 286.481 289.508 286.354L284.07 285.517Z" fill="black"/>
<path d="M292.351 281C292.535 281 292.718 280.983 292.899 280.95C293.595 280.822 294.242 280.481 294.759 279.969C294.903 279.832 294.989 279.639 294.999 279.435C295.009 279.23 294.942 279.029 294.813 278.876C294.684 278.724 294.503 278.632 294.311 278.621C294.118 278.611 293.929 278.682 293.786 278.819C293.473 279.127 293.084 279.336 292.665 279.421C291.331 279.655 290.282 278.271 290.271 278.271C290.151 278.12 289.98 278.024 289.795 278.004C289.609 277.984 289.424 278.041 289.277 278.162C289.13 278.284 289.034 278.462 289.007 278.658C288.981 278.854 289.027 279.053 289.135 279.214C289.211 279.302 290.484 281 292.351 281Z" fill="black"/>
<path d="M289 271C288.448 271 288 270.552 288 270C288 269.448 288.448 269 289 269C289.552 269 290 269.448 290 270C290 270.552 289.552 271 289 271Z" fill="black"/>
<path d="M271 274C271.396 274 271.782 273.883 272.111 273.663C272.44 273.443 272.696 273.131 272.848 272.765C272.999 272.4 273.039 271.998 272.962 271.61C272.884 271.222 272.694 270.865 272.414 270.586C272.134 270.306 271.778 270.116 271.39 270.038C271.002 269.961 270.6 270.001 270.235 270.152C269.869 270.304 269.557 270.56 269.337 270.889C269.117 271.218 269 271.604 269 272C269 272.53 269.211 273.039 269.586 273.414C269.961 273.789 270.47 274 271 274V274ZM271 271.487C271.101 271.487 271.201 271.517 271.285 271.573C271.369 271.63 271.435 271.71 271.474 271.804C271.513 271.897 271.523 272.001 271.503 272.1C271.483 272.2 271.434 272.291 271.363 272.363C271.291 272.434 271.2 272.483 271.1 272.503C271.001 272.523 270.897 272.513 270.804 272.474C270.71 272.435 270.63 272.369 270.573 272.285C270.517 272.201 270.487 272.101 270.487 272C270.487 271.864 270.541 271.733 270.637 271.637C270.733 271.541 270.864 271.487 271 271.487V271.487Z" fill="black"/>
<path d="M272.241 273C272.407 273.003 272.568 272.946 272.696 272.838C272.825 272.731 272.913 272.579 272.945 272.411C273.041 271.918 273.011 271.409 272.857 270.932C272.704 270.456 272.434 270.03 272.072 269.696C271.723 269.392 271.309 269.179 270.864 269.074C270.42 268.969 269.958 268.976 269.517 269.092C269.427 269.118 269.344 269.162 269.271 269.221C269.198 269.28 269.137 269.354 269.091 269.438C269.046 269.521 269.017 269.614 269.005 269.709C268.994 269.805 269.001 269.901 269.026 269.994C269.05 270.087 269.092 270.174 269.149 270.25C269.206 270.325 269.277 270.389 269.358 270.436C269.438 270.484 269.527 270.514 269.619 270.526C269.711 270.537 269.804 270.53 269.893 270.505C270.109 270.45 270.334 270.448 270.551 270.498C270.767 270.548 270.97 270.649 271.143 270.794C271.319 270.958 271.45 271.166 271.524 271.399C271.598 271.632 271.612 271.881 271.565 272.122C271.547 272.216 271.547 272.313 271.564 272.407C271.582 272.502 271.617 272.592 271.668 272.672C271.719 272.752 271.785 272.821 271.861 272.875C271.938 272.928 272.024 272.966 272.115 272.985C272.157 272.993 272.199 272.998 272.241 273V273Z" fill="black"/>
<path d="M290 256.02C290 256.02 290.24 271.643 271 267.207L272.064 254L290 256.02Z" fill="black"/>
<path d="M289 277C292.304 277 295 274.087 295 270.5C295 266.913 292.308 264 289 264C285.692 264 283 266.917 283 270.5C283 274.083 285.692 277 289 277ZM289 265.496C291.424 265.496 293.4 267.74 293.4 270.5C293.4 273.26 291.428 275.504 289 275.504C286.572 275.504 284.6 273.26 284.6 270.5C284.6 267.74 286.568 265.496 289 265.496V265.496Z" fill="black"/>
<path d="M284.23 269.999C284.423 270.01 284.613 269.937 284.757 269.796C284.901 269.654 284.988 269.455 284.999 269.243C285.01 269.031 284.943 268.823 284.814 268.665C284.685 268.507 284.503 268.412 284.31 268.4L272.814 267.005C272.62 266.982 272.426 267.043 272.275 267.177C272.123 267.31 272.026 267.504 272.004 267.716C271.983 267.928 272.04 268.141 272.161 268.307C272.283 268.474 272.46 268.58 272.653 268.604L284.15 269.995L284.23 269.999Z" fill="black"/>
<path d="M285 285.254L284.439 290L276.139 284.554C276.08 284.516 276.037 284.46 276.015 284.395C275.993 284.329 275.995 284.258 276.02 284.194C276.045 284.129 276.091 284.075 276.151 284.04C276.211 284.006 276.281 283.993 276.35 284.004L285 285.254Z" fill="black"/>
<path d="M615.524 388C615.118 387.999 614.724 387.865 614.408 387.621C614.093 387.377 613.874 387.037 613.789 386.658C609.16 366.275 614.385 352.33 619.583 344.194C625.262 335.353 632.044 331.404 632.303 331.242C632.707 331.01 633.192 330.941 633.65 331.051C634.109 331.16 634.503 331.438 634.746 331.824C634.989 332.211 635.061 332.673 634.947 333.11C634.833 333.548 634.541 333.924 634.136 334.156C633.068 334.776 608.947 349.256 617.224 385.911C617.322 386.35 617.234 386.808 616.979 387.185C616.724 387.562 616.322 387.828 615.863 387.924C615.752 387.959 615.639 387.984 615.524 388V388Z" fill="black"/>
<path d="M654.469 334.075L647.206 332.48C647.147 332.079 647.071 331.627 646.978 331.278L653.322 327.679C654.519 326.864 655.368 325.624 655.702 324.205C656.036 322.787 655.83 321.293 655.124 320.021C654.418 318.749 653.265 317.792 651.893 317.34C650.522 316.888 649.032 316.974 647.721 317.582L641.048 321.368C640.939 321.428 640.854 321.504 640.753 321.573C640.432 321.334 640.103 321.104 639.766 320.89L641.234 314.025C641.555 312.521 641.272 310.95 640.447 309.657C639.622 308.364 638.322 307.455 636.835 307.131C635.347 306.806 633.793 307.092 632.514 307.926C631.235 308.76 630.336 310.074 630.015 311.578L628.547 318.4C627.979 318.477 627.416 318.585 626.86 318.724C626.739 318.496 626.606 318.274 626.463 318.059L621.857 311.902C620.941 310.674 619.58 309.864 618.073 309.65C616.566 309.437 615.037 309.837 613.823 310.763C612.608 311.69 611.807 313.066 611.596 314.589C611.384 316.112 611.78 317.658 612.697 318.886L617.302 325.069C617.302 325.12 617.387 325.154 617.429 325.206C617.269 325.427 617.134 325.658 616.982 325.879L609.955 324.344C608.467 324.02 606.913 324.306 605.634 325.139C604.354 325.972 603.454 327.284 603.131 328.787V328.787C602.971 329.532 602.957 330.301 603.092 331.051C603.226 331.801 603.505 332.517 603.914 333.158C604.322 333.799 604.851 334.352 605.471 334.786C606.09 335.22 606.789 335.526 607.526 335.686L614.493 337.213C614.493 337.384 614.535 337.554 614.561 337.725H614.502L607.821 341.511C606.552 342.294 605.633 343.545 605.257 344.999C604.881 346.453 605.077 347.999 605.805 349.309C606.532 350.62 607.734 351.595 609.158 352.029C610.582 352.462 612.116 352.321 613.439 351.634L620.12 347.847C620.17 347.847 620.204 347.779 620.255 347.754C620.791 348.206 621.354 348.625 621.942 349.007L620.482 355.83C620.303 356.583 620.274 357.364 620.397 358.129C620.521 358.893 620.794 359.625 621.202 360.281C621.609 360.937 622.143 361.504 622.77 361.949C623.398 362.393 624.107 362.706 624.856 362.87C625.605 363.033 626.379 363.043 627.132 362.899C627.884 362.756 628.601 362.461 629.24 362.033C629.879 361.605 630.426 361.053 630.851 360.408C631.275 359.762 631.567 359.038 631.71 358.277L633.161 351.455C633.583 351.395 634.005 351.318 634.418 351.224L638.88 357.194C639.308 357.858 639.867 358.427 640.52 358.865C641.174 359.302 641.91 359.6 642.682 359.74C643.454 359.88 644.246 359.858 645.009 359.676C645.772 359.495 646.491 359.157 647.12 358.684C647.75 358.211 648.276 357.613 648.668 356.926C649.06 356.24 649.309 355.479 649.399 354.691C649.49 353.904 649.419 353.106 649.193 352.347C648.967 351.588 648.589 350.884 648.083 350.278L644.119 344.948C644.372 344.598 644.616 344.24 644.844 343.865L652.04 345.442C652.776 345.604 653.537 345.618 654.279 345.482C655.021 345.346 655.729 345.064 656.363 344.651C656.997 344.238 657.544 343.703 657.973 343.077C658.402 342.45 658.705 341.744 658.864 340.999V340.999C659.028 340.253 659.044 339.481 658.911 338.728C658.779 337.975 658.5 337.256 658.092 336.613C657.683 335.969 657.153 335.413 656.531 334.978C655.909 334.542 655.209 334.235 654.469 334.075V334.075Z" fill="#FFC1EB"/>
<path d="M654.469 334.075L647.206 332.48C647.147 332.079 647.071 331.627 646.978 331.278L653.322 327.679C654.519 326.864 655.368 325.624 655.702 324.205C656.036 322.787 655.83 321.293 655.124 320.021C654.418 318.749 653.265 317.792 651.893 317.34C650.522 316.888 649.032 316.974 647.721 317.582L641.048 321.368C640.939 321.428 640.854 321.504 640.753 321.573C640.432 321.334 640.103 321.104 639.766 320.89L641.234 314.025C641.555 312.521 641.272 310.95 640.447 309.657C639.622 308.364 638.322 307.455 636.835 307.131C635.347 306.806 633.793 307.092 632.514 307.926C631.235 308.76 630.336 310.074 630.015 311.578L628.547 318.4C627.979 318.477 627.416 318.585 626.86 318.724C626.739 318.496 626.606 318.274 626.463 318.059L621.857 311.902C620.941 310.674 619.58 309.864 618.073 309.65C616.566 309.437 615.037 309.837 613.823 310.763C612.608 311.69 611.807 313.066 611.596 314.589C611.384 316.112 611.78 317.658 612.697 318.886L617.302 325.069C617.302 325.12 617.387 325.154 617.429 325.206C617.269 325.427 617.134 325.658 616.982 325.879L609.955 324.344C608.467 324.02 606.913 324.306 605.634 325.139C604.354 325.972 603.454 327.284 603.131 328.787V328.787C602.971 329.532 602.957 330.301 603.092 331.051C603.226 331.801 603.505 332.517 603.914 333.158C604.322 333.799 604.851 334.352 605.471 334.786C606.09 335.22 606.789 335.526 607.526 335.686L614.493 337.213C614.493 337.384 614.535 337.554 614.561 337.725H614.502L607.821 341.511C606.552 342.294 605.633 343.545 605.257 344.999C604.881 346.453 605.077 347.999 605.805 349.309C606.532 350.62 607.734 351.595 609.158 352.029C610.582 352.462 612.116 352.321 613.439 351.634L620.12 347.847C620.17 347.847 620.204 347.779 620.255 347.754C620.791 348.206 621.354 348.625 621.942 349.007L620.482 355.83C620.303 356.583 620.274 357.364 620.397 358.129C620.521 358.893 620.794 359.625 621.202 360.281C621.609 360.937 622.143 361.504 622.77 361.949C623.398 362.393 624.107 362.706 624.856 362.87C625.605 363.033 626.379 363.043 627.132 362.899C627.884 362.756 628.601 362.461 629.24 362.033C629.879 361.605 630.426 361.053 630.851 360.408C631.275 359.762 631.567 359.038 631.71 358.277L633.161 351.455C633.583 351.395 634.005 351.318 634.418 351.224L638.88 357.194C639.308 357.858 639.867 358.427 640.52 358.865C641.174 359.302 641.91 359.6 642.682 359.74C643.454 359.88 644.246 359.858 645.009 359.676C645.772 359.495 646.491 359.157 647.12 358.684C647.75 358.211 648.276 357.613 648.668 356.926C649.06 356.24 649.309 355.479 649.399 354.691C649.49 353.904 649.419 353.106 649.193 352.347C648.967 351.588 648.589 350.884 648.083 350.278L644.119 344.948C644.372 344.598 644.616 344.24 644.844 343.865L652.04 345.442C652.776 345.604 653.537 345.618 654.279 345.482C655.021 345.346 655.729 345.064 656.363 344.651C656.997 344.238 657.544 343.703 657.973 343.077C658.402 342.45 658.705 341.744 658.864 340.999V340.999C659.028 340.253 659.044 339.481 658.911 338.728C658.779 337.975 658.5 337.256 658.092 336.613C657.683 335.969 657.153 335.413 656.531 334.978C655.909 334.542 655.209 334.235 654.469 334.075V334.075Z" fill="#FFC1EB"/>
<path d="M654.469 334.075L647.206 332.48C647.147 332.079 647.071 331.627 646.978 331.278L653.322 327.679C654.519 326.864 655.368 325.624 655.702 324.205C656.036 322.787 655.83 321.293 655.124 320.021C654.418 318.749 653.265 317.792 651.893 317.34C650.522 316.888 649.032 316.974 647.721 317.582L641.048 321.368C640.939 321.428 640.854 321.504 640.753 321.573C640.432 321.334 640.103 321.104 639.766 320.89L641.234 314.025C641.555 312.521 641.272 310.95 640.447 309.657C639.622 308.364 638.322 307.455 636.835 307.131C635.347 306.806 633.793 307.092 632.514 307.926C631.235 308.76 630.336 310.074 630.015 311.578L628.547 318.4C627.979 318.477 627.416 318.585 626.86 318.724C626.739 318.496 626.606 318.274 626.463 318.059L621.857 311.902C620.941 310.674 619.58 309.864 618.073 309.65C616.566 309.437 615.037 309.837 613.823 310.763C612.608 311.69 611.807 313.066 611.596 314.589C611.384 316.112 611.78 317.658 612.697 318.886L617.302 325.069C617.302 325.12 617.387 325.154 617.429 325.206C617.269 325.427 617.134 325.658 616.982 325.879L609.955 324.344C608.467 324.02 606.913 324.306 605.634 325.139C604.354 325.972 603.454 327.284 603.131 328.787V328.787C602.971 329.532 602.957 330.301 603.092 331.051C603.226 331.801 603.505 332.517 603.914 333.158C604.322 333.799 604.851 334.352 605.471 334.786C606.09 335.22 606.789 335.526 607.526 335.686L614.493 337.213C614.493 337.384 614.535 337.554 614.561 337.725H614.502L607.821 341.511C606.552 342.294 605.633 343.545 605.257 344.999C604.881 346.453 605.077 347.999 605.805 349.309C606.532 350.62 607.734 351.595 609.158 352.029C610.582 352.462 612.116 352.321 613.439 351.634L620.12 347.847C620.17 347.847 620.204 347.779 620.255 347.754C620.791 348.206 621.354 348.625 621.942 349.007L620.482 355.83C620.303 356.583 620.274 357.364 620.397 358.129C620.521 358.893 620.794 359.625 621.202 360.281C621.609 360.937 622.143 361.504 622.77 361.949C623.398 362.393 624.107 362.706 624.856 362.87C625.605 363.033 626.379 363.043 627.132 362.899C627.884 362.756 628.601 362.461 629.24 362.033C629.879 361.605 630.426 361.053 630.851 360.408C631.275 359.762 631.567 359.038 631.71 358.277L633.161 351.455C633.583 351.395 634.005 351.318 634.418 351.224L638.88 357.194C639.308 357.858 639.867 358.427 640.52 358.865C641.174 359.302 641.91 359.6 642.682 359.74C643.454 359.88 644.246 359.858 645.009 359.676C645.772 359.495 646.491 359.157 647.12 358.684C647.75 358.211 648.276 357.613 648.668 356.926C649.06 356.24 649.309 355.479 649.399 354.691C649.49 353.904 649.419 353.106 649.193 352.347C648.967 351.588 648.589 350.884 648.083 350.278L644.119 344.948C644.372 344.598 644.616 344.24 644.844 343.865L652.04 345.442C652.776 345.604 653.537 345.618 654.279 345.482C655.021 345.346 655.729 345.064 656.363 344.651C656.997 344.238 657.544 343.703 657.973 343.077C658.402 342.45 658.705 341.744 658.864 340.999V340.999C659.028 340.253 659.044 339.481 658.911 338.728C658.779 337.975 658.5 337.256 658.092 336.613C657.683 335.969 657.153 335.413 656.531 334.978C655.909 334.542 655.209 334.235 654.469 334.075V334.075Z" fill="#FFC1EB"/>
<path d="M654.469 334.075L647.206 332.48C647.147 332.079 647.071 331.627 646.978 331.278L653.322 327.679C654.519 326.864 655.368 325.624 655.702 324.205C656.036 322.787 655.83 321.293 655.124 320.021C654.418 318.749 653.265 317.792 651.893 317.34C650.522 316.888 649.032 316.974 647.721 317.582L641.048 321.368C640.939 321.428 640.854 321.504 640.753 321.573C640.432 321.334 640.103 321.104 639.766 320.89L641.234 314.025C641.555 312.521 641.272 310.95 640.447 309.657C639.622 308.364 638.322 307.455 636.835 307.131C635.347 306.806 633.793 307.092 632.514 307.926C631.235 308.76 630.336 310.074 630.015 311.578L628.547 318.4C627.979 318.477 627.416 318.585 626.86 318.724C626.739 318.496 626.606 318.274 626.463 318.059L621.857 311.902C620.941 310.674 619.58 309.864 618.073 309.65C616.566 309.437 615.037 309.837 613.823 310.763C612.608 311.69 611.807 313.066 611.596 314.589C611.384 316.112 611.78 317.658 612.697 318.886L617.302 325.069C617.302 325.12 617.387 325.154 617.429 325.206C617.269 325.427 617.134 325.658 616.982 325.879L609.955 324.344C608.467 324.02 606.913 324.306 605.634 325.139C604.354 325.972 603.454 327.284 603.131 328.787V328.787C602.971 329.532 602.957 330.301 603.092 331.051C603.226 331.801 603.505 332.517 603.914 333.158C604.322 333.799 604.851 334.352 605.471 334.786C606.09 335.22 606.789 335.526 607.526 335.686L614.493 337.213C614.493 337.384 614.535 337.554 614.561 337.725H614.502L607.821 341.511C606.552 342.294 605.633 343.545 605.257 344.999C604.881 346.453 605.077 347.999 605.805 349.309C606.532 350.62 607.734 351.595 609.158 352.029C610.582 352.462 612.116 352.321 613.439 351.634L620.12 347.847C620.17 347.847 620.204 347.779 620.255 347.754C620.791 348.206 621.354 348.625 621.942 349.007L620.482 355.83C620.303 356.583 620.274 357.364 620.397 358.129C620.521 358.893 620.794 359.625 621.202 360.281C621.609 360.937 622.143 361.504 622.77 361.949C623.398 362.393 624.107 362.706 624.856 362.87C625.605 363.033 626.379 363.043 627.132 362.899C627.884 362.756 628.601 362.461 629.24 362.033C629.879 361.605 630.426 361.053 630.851 360.408C631.275 359.762 631.567 359.038 631.71 358.277L633.161 351.455C633.583 351.395 634.005 351.318 634.418 351.224L638.88 357.194C639.308 357.858 639.867 358.427 640.52 358.865C641.174 359.302 641.91 359.6 642.682 359.74C643.454 359.88 644.246 359.858 645.009 359.676C645.772 359.495 646.491 359.157 647.12 358.684C647.75 358.211 648.276 357.613 648.668 356.926C649.06 356.24 649.309 355.479 649.399 354.691C649.49 353.904 649.419 353.106 649.193 352.347C648.967 351.588 648.589 350.884 648.083 350.278L644.119 344.948C644.372 344.598 644.616 344.24 644.844 343.865L652.04 345.442C652.776 345.604 653.537 345.618 654.279 345.482C655.021 345.346 655.729 345.064 656.363 344.651C656.997 344.238 657.544 343.703 657.973 343.077C658.402 342.45 658.705 341.744 658.864 340.999V340.999C659.028 340.253 659.044 339.481 658.911 338.728C658.779 337.975 658.5 337.256 658.092 336.613C657.683 335.969 657.153 335.413 656.531 334.978C655.909 334.542 655.209 334.235 654.469 334.075V334.075Z" fill="#FFC1EB"/>
<path d="M654.469 334.075L647.206 332.48C647.147 332.079 647.071 331.627 646.978 331.278L653.322 327.679C654.519 326.864 655.368 325.624 655.702 324.205C656.036 322.787 655.83 321.293 655.124 320.021C654.418 318.749 653.265 317.792 651.893 317.34C650.522 316.888 649.032 316.974 647.721 317.582L641.048 321.368C640.939 321.428 640.854 321.504 640.753 321.573C640.432 321.334 640.103 321.104 639.766 320.89L641.234 314.025C641.555 312.521 641.272 310.95 640.447 309.657C639.622 308.364 638.322 307.455 636.835 307.131C635.347 306.806 633.793 307.092 632.514 307.926C631.235 308.76 630.336 310.074 630.015 311.578L628.547 318.4C627.979 318.477 627.416 318.585 626.86 318.724C626.739 318.496 626.606 318.274 626.463 318.059L621.857 311.902C620.941 310.674 619.58 309.864 618.073 309.65C616.566 309.437 615.037 309.837 613.823 310.763C612.608 311.69 611.807 313.066 611.596 314.589C611.384 316.112 611.78 317.658 612.697 318.886L617.302 325.069C617.302 325.12 617.387 325.154 617.429 325.206C617.269 325.427 617.134 325.658 616.982 325.879L609.955 324.344C608.467 324.02 606.913 324.306 605.634 325.139C604.354 325.972 603.454 327.284 603.131 328.787V328.787C602.971 329.532 602.957 330.301 603.092 331.051C603.226 331.801 603.505 332.517 603.914 333.158C604.322 333.799 604.851 334.352 605.471 334.786C606.09 335.22 606.789 335.526 607.526 335.686L614.493 337.213C614.493 337.384 614.535 337.554 614.561 337.725H614.502L607.821 341.511C606.552 342.294 605.633 343.545 605.257 344.999C604.881 346.453 605.077 347.999 605.805 349.309C606.532 350.62 607.734 351.595 609.158 352.029C610.582 352.462 612.116 352.321 613.439 351.634L620.12 347.847C620.17 347.847 620.204 347.779 620.255 347.754C620.791 348.206 621.354 348.625 621.942 349.007L620.482 355.83C620.303 356.583 620.274 357.364 620.397 358.129C620.521 358.893 620.794 359.625 621.202 360.281C621.609 360.937 622.143 361.504 622.77 361.949C623.398 362.393 624.107 362.706 624.856 362.87C625.605 363.033 626.379 363.043 627.132 362.899C627.884 362.756 628.601 362.461 629.24 362.033C629.879 361.605 630.426 361.053 630.851 360.408C631.275 359.762 631.567 359.038 631.71 358.277L633.161 351.455C633.583 351.395 634.005 351.318 634.418 351.224L638.88 357.194C639.308 357.858 639.867 358.427 640.52 358.865C641.174 359.302 641.91 359.6 642.682 359.74C643.454 359.88 644.246 359.858 645.009 359.676C645.772 359.495 646.491 359.157 647.12 358.684C647.75 358.211 648.276 357.613 648.668 356.926C649.06 356.24 649.309 355.479 649.399 354.691C649.49 353.904 649.419 353.106 649.193 352.347C648.967 351.588 648.589 350.884 648.083 350.278L644.119 344.948C644.372 344.598 644.616 344.24 644.844 343.865L652.04 345.442C652.776 345.604 653.537 345.618 654.279 345.482C655.021 345.346 655.729 345.064 656.363 344.651C656.997 344.238 657.544 343.703 657.973 343.077C658.402 342.45 658.705 341.744 658.864 340.999V340.999C659.028 340.253 659.044 339.481 658.911 338.728C658.779 337.975 658.5 337.256 658.092 336.613C657.683 335.969 657.153 335.413 656.531 334.978C655.909 334.542 655.209 334.235 654.469 334.075V334.075Z" fill="#FFC1EB"/>
<path d="M654.469 334.075L647.206 332.48C647.147 332.079 647.071 331.627 646.978 331.278L653.322 327.679C654.519 326.864 655.368 325.624 655.702 324.205C656.036 322.787 655.83 321.293 655.124 320.021C654.418 318.749 653.265 317.792 651.893 317.34C650.522 316.888 649.032 316.974 647.721 317.582L641.048 321.368C640.939 321.428 640.854 321.504 640.753 321.573C640.432 321.334 640.103 321.104 639.766 320.89L641.234 314.025C641.555 312.521 641.272 310.95 640.447 309.657C639.622 308.364 638.322 307.455 636.835 307.131C635.347 306.806 633.793 307.092 632.514 307.926C631.235 308.76 630.336 310.074 630.015 311.578L628.547 318.4C627.979 318.477 627.416 318.585 626.86 318.724C626.739 318.496 626.606 318.274 626.463 318.059L621.857 311.902C620.941 310.674 619.58 309.864 618.073 309.65C616.566 309.437 615.037 309.837 613.823 310.763C612.608 311.69 611.807 313.066 611.596 314.589C611.384 316.112 611.78 317.658 612.697 318.886L617.302 325.069C617.302 325.12 617.387 325.154 617.429 325.206C617.269 325.427 617.134 325.658 616.982 325.879L609.955 324.344C608.467 324.02 606.913 324.306 605.634 325.139C604.354 325.972 603.454 327.284 603.131 328.787V328.787C602.971 329.532 602.957 330.301 603.092 331.051C603.226 331.801 603.505 332.517 603.914 333.158C604.322 333.799 604.851 334.352 605.471 334.786C606.09 335.22 606.789 335.526 607.526 335.686L614.493 337.213C614.493 337.384 614.535 337.554 614.561 337.725H614.502L607.821 341.511C606.552 342.294 605.633 343.545 605.257 344.999C604.881 346.453 605.077 347.999 605.805 349.309C606.532 350.62 607.734 351.595 609.158 352.029C610.582 352.462 612.116 352.321 613.439 351.634L620.12 347.847C620.17 347.847 620.204 347.779 620.255 347.754C620.791 348.206 621.354 348.625 621.942 349.007L620.482 355.83C620.303 356.583 620.274 357.364 620.397 358.129C620.521 358.893 620.794 359.625 621.202 360.281C621.609 360.937 622.143 361.504 622.77 361.949C623.398 362.393 624.107 362.706 624.856 362.87C625.605 363.033 626.379 363.043 627.132 362.899C627.884 362.756 628.601 362.461 629.24 362.033C629.879 361.605 630.426 361.053 630.851 360.408C631.275 359.762 631.567 359.038 631.71 358.277L633.161 351.455C633.583 351.395 634.005 351.318 634.418 351.224L638.88 357.194C639.308 357.858 639.867 358.427 640.52 358.865C641.174 359.302 641.91 359.6 642.682 359.74C643.454 359.88 644.246 359.858 645.009 359.676C645.772 359.495 646.491 359.157 647.12 358.684C647.75 358.211 648.276 357.613 648.668 356.926C649.06 356.24 649.309 355.479 649.399 354.691C649.49 353.904 649.419 353.106 649.193 352.347C648.967 351.588 648.589 350.884 648.083 350.278L644.119 344.948C644.372 344.598 644.616 344.24 644.844 343.865L652.04 345.442C652.776 345.604 653.537 345.618 654.279 345.482C655.021 345.346 655.729 345.064 656.363 344.651C656.997 344.238 657.544 343.703 657.973 343.077C658.402 342.45 658.705 341.744 658.864 340.999V340.999C659.028 340.253 659.044 339.481 658.911 338.728C658.779 337.975 658.5 337.256 658.092 336.613C657.683 335.969 657.153 335.413 656.531 334.978C655.909 334.542 655.209 334.235 654.469 334.075V334.075Z" fill="#FFC1EB"/>
<path d="M654.469 334.075L647.206 332.48C647.147 332.079 647.071 331.627 646.978 331.278L653.322 327.679C654.519 326.864 655.368 325.624 655.702 324.205C656.036 322.787 655.83 321.293 655.124 320.021C654.418 318.749 653.265 317.792 651.893 317.34C650.522 316.888 649.032 316.974 647.721 317.582L641.048 321.368C640.939 321.428 640.854 321.504 640.753 321.573C640.432 321.334 640.103 321.104 639.766 320.89L641.234 314.025C641.555 312.521 641.272 310.95 640.447 309.657C639.622 308.364 638.322 307.455 636.835 307.131C635.347 306.806 633.793 307.092 632.514 307.926C631.235 308.76 630.336 310.074 630.015 311.578L628.547 318.4C627.979 318.477 627.416 318.585 626.86 318.724C626.739 318.496 626.606 318.274 626.463 318.059L621.857 311.902C620.941 310.674 619.58 309.864 618.073 309.65C616.566 309.437 615.037 309.837 613.823 310.763C612.608 311.69 611.807 313.066 611.596 314.589C611.384 316.112 611.78 317.658 612.697 318.886L617.302 325.069C617.302 325.12 617.387 325.154 617.429 325.206C617.269 325.427 617.134 325.658 616.982 325.879L609.955 324.344C608.467 324.02 606.913 324.306 605.634 325.139C604.354 325.972 603.454 327.284 603.131 328.787V328.787C602.971 329.532 602.957 330.301 603.092 331.051C603.226 331.801 603.505 332.517 603.914 333.158C604.322 333.799 604.851 334.352 605.471 334.786C606.09 335.22 606.789 335.526 607.526 335.686L614.493 337.213C614.493 337.384 614.535 337.554 614.561 337.725H614.502L607.821 341.511C606.552 342.294 605.633 343.545 605.257 344.999C604.881 346.453 605.077 347.999 605.805 349.309C606.532 350.62 607.734 351.595 609.158 352.029C610.582 352.462 612.116 352.321 613.439 351.634L620.12 347.847C620.17 347.847 620.204 347.779 620.255 347.754C620.791 348.206 621.354 348.625 621.942 349.007L620.482 355.83C620.303 356.583 620.274 357.364 620.397 358.129C620.521 358.893 620.794 359.625 621.202 360.281C621.609 360.937 622.143 361.504 622.77 361.949C623.398 362.393 624.107 362.706 624.856 362.87C625.605 363.033 626.379 363.043 627.132 362.899C627.884 362.756 628.601 362.461 629.24 362.033C629.879 361.605 630.426 361.053 630.851 360.408C631.275 359.762 631.567 359.038 631.71 358.277L633.161 351.455C633.583 351.395 634.005 351.318 634.418 351.224L638.88 357.194C639.308 357.858 639.867 358.427 640.52 358.865C641.174 359.302 641.91 359.6 642.682 359.74C643.454 359.88 644.246 359.858 645.009 359.676C645.772 359.495 646.491 359.157 647.12 358.684C647.75 358.211 648.276 357.613 648.668 356.926C649.06 356.24 649.309 355.479 649.399 354.691C649.49 353.904 649.419 353.106 649.193 352.347C648.967 351.588 648.589 350.884 648.083 350.278L644.119 344.948C644.372 344.598 644.616 344.24 644.844 343.865L652.04 345.442C652.776 345.604 653.537 345.618 654.279 345.482C655.021 345.346 655.729 345.064 656.363 344.651C656.997 344.238 657.544 343.703 657.973 343.077C658.402 342.45 658.705 341.744 658.864 340.999V340.999C659.028 340.253 659.044 339.481 658.911 338.728C658.779 337.975 658.5 337.256 658.092 336.613C657.683 335.969 657.153 335.413 656.531 334.978C655.909 334.542 655.209 334.235 654.469 334.075V334.075Z" fill="#6DC8C2"/>
<path d="M630.5 342C634.642 342 638 338.642 638 334.5C638 330.358 634.642 327 630.5 327C626.358 327 623 330.358 623 334.5C623 338.642 626.358 342 630.5 342Z" fill="white"/>
<path d="M617.725 394.507C621.753 393.819 624.564 390.598 624.004 387.311C623.443 384.024 619.723 381.916 615.695 382.604C611.667 383.291 608.856 386.512 609.417 389.799C609.977 393.086 613.697 395.194 617.725 394.507Z" fill="black"/>
<path d="M607.657 434C607.297 433.998 606.947 433.89 606.66 433.691C606.373 433.491 606.164 433.212 606.065 432.894C605.965 432.577 605.981 432.239 606.109 431.93C606.237 431.621 606.47 431.359 606.775 431.182C610.983 428.759 615.785 427.336 620.744 427.043C626.884 426.728 632.983 428.137 638.227 431.083C638.596 431.298 638.858 431.637 638.957 432.028C639.056 432.418 638.983 432.829 638.755 433.171C638.526 433.513 638.16 433.758 637.736 433.855C637.312 433.951 636.863 433.891 636.487 433.687C631.823 431.071 626.402 429.819 620.944 430.098C616.543 430.357 612.282 431.62 608.548 433.771C608.28 433.921 607.971 434 607.657 434V434Z" fill="black"/>
<rect x="907" y="324" width="228" height="55" rx="27.5" fill="#3B82F7"/>
<rect x="323" y="245" width="228" height="55" rx="27.5" fill="#3B3B3D"/>
<rect x="986" y="386" width="149" height="55" rx="27.5" fill="#3B82F7"/>
<rect x="940" y="448" width="195" height="55" rx="27.5" fill="#3B82F7"/>
<rect x="320" y="120" width="466" height="118" rx="27.5" fill="#3B3B3D"/>
</svg>
