<svg width="1465" height="886" viewBox="0 0 1465 886" fill="none" xmlns="http://www.w3.org/2000/svg">
<path d="M785.54 150.096L413.761 503.888C387.318 529.051 398.012 573.421 433.019 583.752L925.134 729.002C960.141 739.341 993.196 707.917 984.631 672.384L864.296 173.342C855.739 137.848 811.983 124.933 785.54 150.096Z" fill="#C7B8F8"/>
<path d="M781.964 591H620.734C596.259 639.547 584.01 693.384 585.062 747.792L814 748C813.174 719.284 809.708 690.706 803.646 662.631C798.339 638.21 791.088 614.256 781.964 591Z" fill="#6DC8C2"/>
<path d="M768 397H639V535H768V397Z" fill="black"/>
<path d="M717.237 375H686.153C676.299 375 666.849 371.04 659.882 363.991C652.914 356.942 649 347.381 649 337.412V297.677C649 287.949 652.819 278.621 659.618 271.742C666.416 264.864 675.637 261 685.252 261H717.107C729.809 261 741.991 266.105 750.972 275.192C759.954 284.279 765 296.604 765 309.454V326.677C765 339.493 759.968 351.784 751.01 360.846C742.053 369.909 729.904 375 717.237 375V375Z" fill="black"/>
<path d="M747.911 335.058C748.355 330.88 747.129 326.696 744.5 323.412C741.87 320.128 738.048 318.007 733.861 317.509L733.961 306.71C734.015 303.285 733.389 299.884 732.121 296.7C730.852 293.516 728.965 290.614 726.568 288.158C724.17 285.703 721.31 283.744 718.151 282.392C714.992 281.041 711.596 280.324 708.158 280.283L668.214 280C662.981 279.994 657.959 282.055 654.25 285.733C650.541 289.41 648.446 294.402 648.426 299.616L648.003 348.222C647.944 352.299 648.693 356.347 650.205 360.136C651.718 363.924 653.966 367.378 656.82 370.3C659.673 373.222 663.078 375.555 666.837 377.166C670.597 378.776 674.638 379.632 678.73 379.685H680.573L680.328 406.625L733.108 407L733.4 375.093H733.354L733.592 349.431C737.275 349.044 740.71 347.402 743.319 344.784C745.927 342.165 747.549 338.73 747.911 335.058V335.058Z" fill="white"/>
<path d="M850.31 470.552L787 507.794L826.318 588.933C826.318 588.933 844.064 622.557 877.344 606.795C884.06 603.555 890.047 598.991 894.946 593.378C899.845 587.765 903.553 581.22 905.846 574.137L940.055 470.552C940.055 470.552 990.313 453.525 997.765 409.705C998.053 408.317 998.076 406.886 997.834 405.489C997.454 403.399 996.499 401.457 995.077 399.877C995.587 398.721 995.998 397.523 996.306 396.297C996.997 393.514 997.658 390.801 995.399 388.501C994.46 387.485 993.164 386.87 991.781 386.785C990.399 386.699 989.036 387.149 987.978 388.041C988.5 385.189 987.717 382.674 985.958 381.57C985.234 381.145 984.398 380.95 983.561 381.011C979.589 381.249 976.7 386.684 975.878 388.202C972.513 394.335 965.407 404.707 954.882 419.25C954.882 419.25 970.024 398.758 961.966 393.116C959.561 391.437 956.688 393.79 955.105 395.462C952.178 398.528 951.049 402.767 948.875 406.294C946.008 410.717 942.177 414.436 937.666 417.172C930.56 421.68 922.693 424.072 916.209 429.568C913.258 432.045 910.626 434.877 908.373 438.001C905.738 441.696 904.809 446.058 902.535 449.792L867.342 507.25L850.31 470.552Z" fill="white"/>
<path d="M859.976 612C837.214 612 824.998 589.412 824.852 589.128L785 506.685L850.825 467.878L867.318 503.527L900.917 448.516C901.85 446.895 902.654 445.204 903.323 443.457C904.222 441.064 905.389 438.781 906.803 436.651C909.12 433.415 911.831 430.48 914.873 427.913C918.919 424.464 923.502 422.195 927.901 420.003C930.822 418.622 933.666 417.087 936.424 415.404C940.743 412.802 944.412 409.25 947.153 405.018C947.91 403.735 948.593 402.409 949.199 401.048C950.357 398.587 951.552 396.05 953.56 393.935C957.89 389.336 960.956 390.386 962.397 391.398C963.179 391.95 963.838 392.658 964.334 393.477C964.83 394.296 965.151 395.209 965.278 396.158C965.497 397.839 965.404 399.546 965.002 401.193C969.309 394.901 972.268 390.256 974.053 386.998L974.099 386.898C975.126 385.021 978.246 379.295 982.974 379.019C984.123 378.923 985.274 379.191 986.262 379.786C987.108 380.366 987.807 381.136 988.303 382.034C988.799 382.933 989.079 383.934 989.121 384.959C990.335 384.654 991.609 384.677 992.811 385.026C994.014 385.375 995.102 386.037 995.964 386.944C998.838 389.865 997.965 393.368 997.267 396.181C997.022 397.182 996.707 398.166 996.325 399.124C997.452 400.581 998.252 402.265 998.669 404.061C999.085 405.856 999.109 407.72 998.739 409.525C995.673 427.791 984.507 444.331 966.55 457.308C958.631 463.046 950.001 467.732 940.876 471.25L907.002 574.097C904.639 581.373 900.832 588.096 895.808 593.864C890.784 599.631 884.646 604.325 877.764 607.662C872.233 610.418 866.155 611.9 859.976 612V612ZM788.978 507.896L827.588 587.748C830.812 593.312 835.102 598.185 840.211 602.089C851.086 610.206 863.279 611.149 876.453 604.887C882.96 601.728 888.761 597.288 893.51 591.833C898.259 586.377 901.857 580.019 904.09 573.139L938.47 468.851L939.198 468.606C939.688 468.437 988.561 451.345 995.75 408.958C996.006 407.744 996.029 406.493 995.819 405.271C995.488 403.462 994.663 401.781 993.435 400.412L992.776 399.645L993.175 398.741C993.65 397.667 994.032 396.554 994.317 395.414C995.029 392.524 995.39 390.677 993.803 389.06C993.144 388.329 992.228 387.88 991.247 387.805C990.265 387.731 989.292 388.038 988.53 388.661L985.174 391.727L985.994 387.266C986.392 385.082 985.863 383.112 984.676 382.384C984.224 382.119 983.702 382.004 983.181 382.054C981.173 382.169 979.027 384.292 976.82 388.347L976.766 388.439C973.586 394.249 967.194 403.769 956.074 419.183L955.729 419.666L953.253 417.857L953.752 417.167C956.817 412.798 963.224 402.32 962.297 396.625C962.235 396.08 962.058 395.554 961.78 395.081C961.501 394.609 961.127 394.2 960.68 393.881C959.147 392.808 956.779 395.023 955.829 396.027C954.158 397.775 953.123 399.99 951.997 402.336C951.335 403.797 950.595 405.222 949.782 406.605C946.808 411.229 942.822 415.116 938.125 417.972C935.262 419.716 932.307 421.305 929.273 422.732C924.813 424.947 920.598 427.032 916.835 430.236C914.009 432.643 911.493 435.393 909.347 438.422C908.069 440.366 907.015 442.449 906.205 444.63C905.471 446.523 904.594 448.358 903.584 450.118L866.981 510.011L849.499 472.239L788.978 507.896Z" fill="black"/>
<path d="M731.499 340.971C731.28 340.982 731.061 340.982 730.842 340.971C729.564 340.851 728.352 340.383 727.361 339.628C726.37 338.873 725.644 337.863 725.275 336.727C724.905 335.59 724.909 334.378 725.285 333.244C725.661 332.109 726.393 331.103 727.389 330.353C728.384 329.603 729.598 329.141 730.877 329.028C732.156 328.914 733.443 329.153 734.576 329.714C735.708 330.276 736.634 331.134 737.238 332.182C737.842 333.229 738.096 334.418 737.968 335.599V335.599C737.805 337.077 737.055 338.448 735.862 339.445C734.668 340.443 733.117 340.997 731.507 341L731.499 340.971ZM731.499 331.893C730.854 331.893 730.223 332.066 729.683 332.391C729.142 332.715 728.715 333.178 728.453 333.722C728.192 334.267 728.107 334.869 728.209 335.457C728.311 336.045 728.596 336.593 729.029 337.035C729.462 337.476 730.024 337.792 730.647 337.945C731.271 338.097 731.929 338.079 732.542 337.893C733.154 337.707 733.695 337.361 734.099 336.896C734.503 336.432 734.752 335.869 734.817 335.277V335.277C734.903 334.465 734.637 333.655 734.078 333.023C733.518 332.392 732.711 331.991 731.832 331.907L731.499 331.893Z" fill="black"/>
<path d="M681.133 378.758L713.101 378.001C713.309 377.993 713.513 378.058 713.675 378.184C713.838 378.31 713.948 378.489 713.986 378.688C714.023 378.886 713.986 379.092 713.881 379.266C713.776 379.44 713.61 379.572 713.413 379.637L681 391L681.133 378.758Z" fill="black"/>
<path d="M726.663 337C726.263 337.002 725.876 336.862 725.578 336.607C725.28 336.352 725.093 336.001 725.053 335.623C724.871 333.924 725.163 332.21 725.899 330.653C726.636 329.096 727.791 327.751 729.248 326.753C730.648 325.846 732.255 325.27 733.936 325.075C735.618 324.879 737.324 325.069 738.912 325.628C739.118 325.695 739.307 325.801 739.468 325.94C739.63 326.078 739.76 326.246 739.851 326.434C739.943 326.621 739.993 326.824 739.999 327.031C740.006 327.237 739.968 327.443 739.889 327.635C739.809 327.827 739.69 328.002 739.537 328.15C739.385 328.297 739.202 328.413 739.001 328.492C738.8 328.57 738.585 328.609 738.367 328.606C738.15 328.603 737.935 328.559 737.737 328.475C736.649 328.105 735.486 327.981 734.339 328.114C733.193 328.247 732.095 328.632 731.133 329.24C730.136 329.923 729.346 330.844 728.842 331.909C728.339 332.974 728.14 334.147 728.266 335.309C728.287 335.509 728.267 335.711 728.206 335.903C728.145 336.096 728.044 336.275 727.91 336.43C727.777 336.586 727.612 336.715 727.425 336.81C727.239 336.905 727.035 336.965 726.824 336.985L726.663 337Z" fill="black"/>
<path d="M572.69 465.551L636 502.793L596.682 583.933C596.682 583.933 578.928 617.557 545.656 601.795C538.939 598.557 532.95 593.994 528.051 588.381C523.152 582.767 519.445 576.221 517.154 569.137L482.937 465.551C482.937 465.551 432.679 448.524 425.235 404.704C424.947 403.316 424.924 401.885 425.166 400.488C425.542 398.4 426.491 396.457 427.908 394.876C427.398 393.72 426.987 392.522 426.679 391.296C425.988 388.521 425.327 385.799 427.593 383.5C428.533 382.486 429.827 381.873 431.208 381.787C432.588 381.701 433.949 382.15 435.007 383.04C434.484 380.188 435.276 377.673 437.027 376.569C437.752 376.148 438.587 375.953 439.424 376.01C443.396 376.247 446.285 381.683 447.107 383.201C450.479 389.334 457.585 399.714 468.102 414.249C468.102 414.249 452.961 393.757 461.019 388.115C463.424 386.436 466.297 388.797 467.887 390.46C470.814 393.527 471.936 397.774 474.11 401.293C476.981 405.712 480.812 409.43 485.319 412.171C492.425 416.679 500.291 419.071 506.783 424.567C509.733 427.046 512.365 429.878 514.619 433C517.246 436.695 518.184 441.05 520.458 444.783L555.643 502.242L572.69 465.551Z" fill="white"/>
<path d="M563.075 608C556.892 607.906 550.81 606.423 545.278 603.662C538.397 600.324 532.261 595.631 527.238 589.863C522.215 584.095 518.408 577.372 516.047 570.097L482.118 467.25C472.991 463.735 464.36 459.049 456.443 453.308C438.493 440.339 427.365 423.79 424.253 405.471C423.89 403.675 423.918 401.821 424.336 400.037C424.754 398.253 425.552 396.579 426.675 395.131C426.301 394.17 425.986 393.187 425.732 392.188C425.035 389.367 424.199 385.872 427.035 382.944C427.899 382.038 428.987 381.377 430.189 381.028C431.392 380.679 432.665 380.655 433.879 380.959C433.922 379.934 434.202 378.933 434.699 378.035C435.195 377.137 435.893 376.367 436.738 375.785C437.727 375.192 438.877 374.924 440.026 375.019C444.755 375.302 447.874 381.02 448.901 382.898L448.955 382.998C450.771 386.317 453.684 390.908 458.006 397.208C457.601 395.557 457.507 393.844 457.73 392.157C457.854 391.207 458.174 390.293 458.67 389.474C459.166 388.654 459.827 387.947 460.612 387.397C462.053 386.386 465.119 385.374 469.449 389.934C471.449 392.05 472.652 394.595 473.81 397.047C474.413 398.41 475.096 399.736 475.856 401.018C478.585 405.249 482.241 408.803 486.548 411.411C489.307 413.09 492.152 414.625 495.07 416.01C499.5 418.203 504.083 420.479 508.099 423.921C511.142 426.489 513.855 429.424 516.177 432.658C517.588 434.789 518.753 437.072 519.649 439.465C520.325 441.212 521.132 442.906 522.064 444.531L555.671 499.534L572.164 463.885L638 502.7L598.146 585.09C598.054 585.404 585.83 608 563.075 608ZM432.231 383.803C431.109 383.824 430.041 384.287 429.258 385.09C427.664 386.708 428.024 388.562 428.744 391.444C429.023 392.585 429.403 393.698 429.879 394.771L430.277 395.675L429.626 396.442C428.391 397.806 427.566 399.49 427.242 401.302C427.029 402.505 427.049 403.739 427.303 404.935C434.508 447.413 483.367 464.468 483.865 464.636L484.586 464.882L518.96 569.17C521.19 576.052 524.788 582.412 529.537 587.869C534.286 593.325 540.089 597.767 546.597 600.925C559.802 607.195 572.027 606.237 582.917 598.059C588.009 594.157 592.28 589.289 595.487 583.733L634.068 503.926L573.59 468.269L556.108 505.996L519.504 446.095C518.488 444.337 517.612 442.502 516.883 440.607C516.069 438.427 515.016 436.344 513.74 434.398C511.563 431.391 509.022 428.664 506.176 426.281C502.413 423.077 498.205 420.993 493.744 418.777C490.726 417.349 487.786 415.761 484.938 414.018C480.239 411.162 476.25 407.275 473.273 402.651C472.458 401.27 471.721 399.845 471.066 398.381C469.962 396.036 468.92 393.828 467.234 392.073C466.283 391.069 463.908 388.854 462.375 389.927C461.929 390.246 461.555 390.656 461.277 391.128C460.998 391.601 460.821 392.126 460.758 392.671C459.83 398.366 466.184 408.767 469.288 413.19L469.801 413.903L467.326 415.711L466.981 415.229C455.837 399.776 449.445 390.287 446.288 384.492L446.234 384.393C444.019 380.338 441.881 378.223 439.865 378.1C439.345 378.054 438.823 378.169 438.37 378.43C437.182 379.196 436.654 381.128 437.06 383.32L437.872 387.773L434.523 384.707C433.901 384.127 433.082 383.804 432.231 383.803V383.803Z" fill="black"/>
<path d="M655 331C656.657 331 658 329.657 658 328C658 326.343 656.657 325 655 325C653.343 325 652 326.343 652 328C652 329.657 653.343 331 655 331Z" fill="black"/>
<path d="M688.5 330C690.433 330 692 328.657 692 327C692 325.343 690.433 324 688.5 324C686.567 324 685 325.343 685 327C685 328.657 686.567 330 688.5 330Z" fill="black"/>
<path d="M667.647 342C667.454 341.999 667.262 341.968 667.08 341.908C664.54 341.139 662 340.002 662 337.988C662.029 337.612 662.14 337.244 662.326 336.906C662.512 336.569 662.769 336.268 663.084 336.021C663.303 335.819 663.509 335.606 663.702 335.383C664.561 334.373 665.076 333.158 665.183 331.886L666.606 318.398C666.648 317.99 666.868 317.615 667.215 317.354C667.563 317.093 668.011 316.968 668.46 317.007C668.909 317.046 669.323 317.245 669.61 317.56C669.898 317.876 670.035 318.282 669.992 318.69L668.553 332.186C668.383 334.031 667.631 335.792 666.386 337.258C666.123 337.566 665.895 337.796 665.7 337.988C666.499 338.418 667.352 338.761 668.24 339.01C668.619 339.129 668.939 339.367 669.143 339.68C669.347 339.993 669.422 340.361 669.355 340.72C669.288 341.079 669.083 341.404 668.777 341.639C668.47 341.873 668.082 342.001 667.681 342H667.647Z" fill="black"/>
<path d="M672.101 355C669.843 354.935 667.641 354.253 665.719 353.023C665.549 352.918 665.401 352.778 665.284 352.612C665.167 352.446 665.083 352.257 665.038 352.057C664.993 351.857 664.988 351.649 665.022 351.447C665.057 351.244 665.13 351.051 665.239 350.879C665.347 350.706 665.487 350.558 665.652 350.444C665.817 350.329 666.002 350.25 666.197 350.212C666.392 350.173 666.593 350.176 666.787 350.219C666.98 350.263 667.164 350.347 667.326 350.466C667.377 350.504 670.413 352.481 673.398 351.802C674.214 351.587 674.98 351.203 675.647 350.671C676.315 350.14 676.871 349.472 677.281 348.71C677.49 348.368 677.822 348.126 678.203 348.037C678.584 347.948 678.984 348.02 679.315 348.237C679.645 348.453 679.878 348.797 679.964 349.192C680.05 349.587 679.98 350.001 679.771 350.344C679.016 351.763 677.904 352.945 676.554 353.764C675.204 354.584 673.665 355.011 672.101 355V355Z" fill="black"/>
<path d="M620.829 591L607.373 525.827C605.083 514.745 605.665 503.262 609.065 492.467L639.13 397H665.943L672.095 410.617C685.298 439.853 727.144 439.224 739.462 409.613L744.706 397H768.359L797.986 494.061C801.81 506.572 801.999 519.907 798.532 532.521L782.477 591H620.829Z" fill="#6DC8C2"/>
<path d="M707 302H692.224C687.656 302 683.275 300.204 680.045 297.008C676.815 293.812 675 289.478 675 284.958V274H707V302Z" fill="black"/>
<path d="M768 397.445L799.59 503L859 467.933C852.435 455.89 845.143 444.259 837.163 433.104C823.08 413.435 815.781 403.501 803.412 398.476C790.267 393.089 777.061 394.959 768 397.445Z" fill="black"/>
<path d="M747.992 319H721.469C718.911 318.999 716.379 318.499 714.016 317.53C711.653 316.56 709.507 315.139 707.699 313.349C705.891 311.558 704.457 309.432 703.48 307.093C702.502 304.754 701.999 302.247 702 299.715V291H748L747.992 319Z" fill="black"/>
<path d="M739 274H693V302H739V274Z" fill="black"/>
<path d="M727.26 545H679.732C672.644 544.992 665.848 542.167 660.836 537.146C655.824 532.124 653.006 525.316 653 518.215V486.015C653 482.567 654.366 479.26 656.798 476.82C659.229 474.38 662.528 473.006 665.971 473H741.022C744.463 473.004 747.761 474.375 750.194 476.812C752.627 479.249 753.996 482.553 754 486V518.2C753.996 525.304 751.178 532.116 746.165 537.141C741.151 542.165 734.352 544.992 727.26 545V545ZM665.971 476.077C663.345 476.081 660.829 477.128 658.973 478.988C657.117 480.849 656.074 483.37 656.072 486V518.2C656.078 524.484 658.572 530.51 663.008 534.954C667.444 539.399 673.458 541.9 679.732 541.908H727.26C733.535 541.902 739.552 539.402 743.989 534.957C748.427 530.512 750.922 524.486 750.928 518.2V486.015C750.928 483.382 749.885 480.857 748.028 478.993C746.17 477.13 743.651 476.081 741.022 476.077H665.971Z" fill="white"/>
<path d="M850.507 534C850.233 533.999 849.964 533.921 849.73 533.775C849.495 533.628 849.303 533.419 849.175 533.169C849.047 532.919 848.987 532.638 849.002 532.356C849.017 532.073 849.106 531.8 849.259 531.566L866.231 505.688C866.342 505.518 866.485 505.373 866.651 505.259C866.817 505.146 867.002 505.068 867.197 505.029C867.393 504.99 867.593 504.99 867.788 505.031C867.983 505.072 868.168 505.152 868.333 505.267C868.498 505.382 868.639 505.529 868.749 505.7C868.858 505.871 868.934 506.063 868.972 506.264C869.01 506.466 869.009 506.673 868.97 506.874C868.93 507.075 868.852 507.266 868.741 507.436L851.762 533.313C851.623 533.525 851.436 533.699 851.217 533.818C850.998 533.938 850.754 534 850.507 534Z" fill="black"/>
<path d="M978.498 432C978.196 432.001 977.901 431.909 977.652 431.737C977.402 431.565 977.21 431.32 977.101 431.036C976.992 430.751 976.971 430.44 977.04 430.143C977.109 429.846 977.266 429.577 977.489 429.371C986.686 420.896 993.014 400.275 993.073 400.071C993.131 399.881 993.225 399.704 993.35 399.551C993.474 399.397 993.628 399.271 993.801 399.177C993.975 399.084 994.165 399.026 994.36 399.007C994.556 398.988 994.753 399.008 994.941 399.066C995.129 399.124 995.304 399.219 995.455 399.345C995.607 399.472 995.732 399.627 995.825 399.802C995.917 399.977 995.974 400.169 995.993 400.367C996.012 400.565 995.992 400.764 995.935 400.954C995.666 401.831 989.308 422.565 979.499 431.607C979.225 431.859 978.868 431.999 978.498 432Z" fill="black"/>
<path d="M968.529 424C968.213 424.001 967.905 423.903 967.646 423.717C967.388 423.532 967.193 423.269 967.087 422.966C966.982 422.662 966.972 422.333 967.058 422.023C967.145 421.713 967.323 421.438 967.57 421.237C976.24 414.065 985.983 387.195 986.082 386.931C986.238 386.569 986.522 386.281 986.879 386.125C987.235 385.97 987.636 385.959 988 386.094C988.364 386.23 988.664 386.502 988.838 386.855C989.012 387.208 989.047 387.615 988.937 387.994C988.526 389.135 978.805 415.936 969.488 423.651C969.217 423.876 968.878 423.999 968.529 424Z" fill="black"/>
<path d="M572.488 530C572.243 530 572.002 529.938 571.785 529.82C571.568 529.702 571.382 529.531 571.243 529.322L554.295 503.482C554.174 503.313 554.088 503.121 554.041 502.917C553.994 502.713 553.987 502.501 554.022 502.294C554.056 502.087 554.131 501.889 554.241 501.713C554.351 501.537 554.495 501.385 554.663 501.268C554.832 501.15 555.021 501.069 555.221 501.029C555.421 500.989 555.626 500.991 555.825 501.034C556.024 501.078 556.212 501.163 556.378 501.284C556.544 501.405 556.685 501.559 556.792 501.738L573.741 527.57C573.895 527.805 573.983 528.078 573.998 528.36C574.012 528.643 573.952 528.924 573.823 529.174C573.694 529.424 573.502 529.633 573.267 529.778C573.032 529.924 572.763 530 572.488 530Z" fill="black"/>
<path d="M444.518 428C444.148 427.999 443.792 427.855 443.518 427.596C433.72 418.277 427.358 396.982 427.089 396.081C427.02 395.883 426.991 395.672 427.003 395.462C427.014 395.252 427.067 395.047 427.158 394.859C427.248 394.671 427.374 394.503 427.529 394.367C427.683 394.232 427.863 394.13 428.056 394.068C428.25 394.006 428.453 393.986 428.654 394.009C428.855 394.032 429.05 394.097 429.226 394.2C429.403 394.303 429.557 394.442 429.68 394.61C429.803 394.777 429.892 394.968 429.941 395.172C430.009 395.382 436.334 416.584 445.519 425.305C445.74 425.517 445.894 425.793 445.962 426.097C446.029 426.401 446.007 426.719 445.898 427.01C445.79 427.301 445.599 427.551 445.352 427.727C445.104 427.904 444.811 427.999 444.511 428H444.518Z" fill="black"/>
<path d="M454.483 419C454.133 418.999 453.795 418.88 453.525 418.661C444.212 411.174 434.519 385.131 434.093 384.03C434.024 383.844 433.993 383.646 434.001 383.448C434.009 383.25 434.057 383.055 434.141 382.875C434.225 382.696 434.344 382.534 434.491 382.399C434.638 382.265 434.81 382.161 434.998 382.092C435.186 382.024 435.385 381.993 435.585 382.001C435.785 382.009 435.981 382.056 436.162 382.14C436.344 382.223 436.507 382.341 436.642 382.487C436.778 382.633 436.883 382.804 436.952 382.99C437.051 383.254 446.774 409.379 455.44 416.323C455.683 416.52 455.859 416.786 455.944 417.086C456.028 417.385 456.017 417.703 455.912 417.996C455.808 418.29 455.614 418.543 455.358 418.723C455.102 418.903 454.796 418.999 454.483 419V419Z" fill="black"/>
<path d="M699.5 749C699.102 749 698.721 748.839 698.439 748.553C698.158 748.266 698 747.877 698 747.472V673.528C698 673.123 698.158 672.734 698.439 672.447C698.721 672.161 699.102 672 699.5 672C699.898 672 700.279 672.161 700.561 672.447C700.842 672.734 701 673.123 701 673.528V747.472C701 747.877 700.842 748.266 700.561 748.553C700.279 748.839 699.898 749 699.5 749Z" fill="white"/>
<path d="M699.5 628C699.102 628 698.721 627.841 698.439 627.558C698.158 627.275 698 626.89 698 626.49V591.51C698 591.11 698.158 590.725 698.439 590.442C698.721 590.159 699.102 590 699.5 590C699.898 590 700.279 590.159 700.561 590.442C700.842 590.725 701 591.11 701 591.51V626.49C701 626.89 700.842 627.275 700.561 627.558C700.279 627.841 699.898 628 699.5 628Z" fill="white"/>
<path d="M795.308 630.979C795.218 630.987 795.129 630.987 795.039 630.979C776.093 627.657 766.21 617.202 761.264 608.959C758.021 603.689 755.892 597.813 755.008 591.692C754.988 591.49 755.007 591.287 755.066 591.094C755.124 590.901 755.22 590.721 755.348 590.564C755.477 590.408 755.634 590.278 755.813 590.183C755.991 590.087 756.186 590.028 756.388 590.008C756.589 589.988 756.793 590.007 756.986 590.066C757.18 590.124 757.36 590.22 757.517 590.348C757.674 590.476 757.804 590.633 757.899 590.811C757.995 590.989 758.054 591.184 758.075 591.385V591.385C758.96 597.08 760.966 602.543 763.979 607.459C770.711 618.542 781.345 625.43 795.591 627.933C795.998 627.967 796.374 628.162 796.637 628.473C796.901 628.785 797.029 629.188 796.994 629.594C796.96 630 796.765 630.375 796.453 630.638C796.141 630.901 795.737 631.029 795.331 630.994L795.308 630.979Z" fill="white"/>
<path d="M610.289 633C607.974 632.993 605.661 632.842 603.365 632.549C602.954 632.497 602.581 632.286 602.327 631.963C602.073 631.64 601.96 631.23 602.013 630.824C602.065 630.419 602.279 630.05 602.607 629.8C602.934 629.55 603.35 629.438 603.761 629.49C615.298 630.951 624.586 628.672 631.37 622.737C643.907 611.764 643.899 591.728 643.899 591.529C643.899 591.124 644.062 590.735 644.353 590.448C644.644 590.161 645.038 590 645.449 590C645.861 590 646.255 590.161 646.546 590.448C646.837 590.735 647 591.124 647 591.529C647 592.401 647 613.125 633.44 625.032C627.392 630.331 619.624 633 610.289 633Z" fill="white"/>
<path d="M563 464.474L609.42 491L639 397.573C639 397.573 597.988 386.233 563 464.474Z" fill="black"/>
<path d="M958.77 258.134L915.688 243.869C909.234 241.732 902.271 245.231 900.134 251.685L885.869 294.767C883.732 301.221 887.232 308.184 893.685 310.321L936.768 324.586C943.221 326.723 950.184 323.223 952.321 316.77L966.586 273.687C968.723 267.234 965.224 260.271 958.77 258.134Z" fill="#6DC8C2"/>
<path d="M505.639 272.417L462.885 287.637C456.481 289.917 453.137 296.957 455.417 303.361L470.638 346.116C472.917 352.52 479.957 355.863 486.361 353.583L529.116 338.363C535.52 336.083 538.863 329.043 536.583 322.639L521.363 279.884C519.083 273.48 512.043 270.137 505.639 272.417Z" fill="#FFC1EB"/>
<path d="M594.923 130.579L554.195 150.601C548.095 153.6 545.581 160.977 548.58 167.077L568.602 207.805C571.601 213.905 578.977 216.42 585.078 213.421L625.805 193.399C631.906 190.4 634.42 183.023 631.421 176.923L611.399 136.195C608.4 130.095 601.023 127.58 594.923 130.579Z" fill="#FB6D6D"/>
<path d="M812.536 107.546L768.165 98.0151C761.519 96.5875 754.974 100.818 753.546 107.464L744.015 151.835C742.588 158.481 746.818 165.027 753.464 166.454L797.835 175.985C804.482 177.412 811.027 173.182 812.454 166.536L821.985 122.165C823.413 115.519 819.182 108.973 812.536 107.546Z" fill="#292929"/>
<path d="M779.471 593H623.529C623.123 593 622.735 592.842 622.448 592.561C622.161 592.279 622 591.898 622 591.5C622 591.102 622.161 590.721 622.448 590.439C622.735 590.158 623.123 590 623.529 590H779.471C779.877 590 780.265 590.158 780.552 590.439C780.839 590.721 781 591.102 781 591.5C781 591.898 780.839 592.279 780.552 592.561C780.265 592.842 779.877 593 779.471 593Z" fill="white"/>
</svg>
