<svg width="1465" height="886" viewBox="0 0 1465 886" fill="none" xmlns="http://www.w3.org/2000/svg">
<path d="M816.425 113.028H979.997C989.543 113.028 998.697 116.835 1005.45 123.611C1012.2 130.386 1016 139.577 1016 149.162V510.786C1016 521.186 1011.89 531.161 1004.56 538.515C997.239 545.869 987.306 550 976.95 550H878.77C877.561 534.776 878.473 519.457 881.481 504.486C895.923 433.207 954.442 393.362 972.448 382.061C952.319 378.912 932.947 372.037 915.317 361.786C806.334 297.861 815.702 125.412 816.547 113" fill="#479CFF"/>
<path d="M1016.13 403C1015.92 402.998 1015.7 402.96 1015.5 402.887C999.842 397.191 984.974 389.521 971.253 380.063C929.223 350.968 899.627 305.723 883.291 245.559C872.133 204.469 869.9 166.5 870.003 141.88C870.003 141.381 870.201 140.903 870.553 140.551C870.905 140.198 871.382 140 871.88 140C872.378 140 872.855 140.198 873.207 140.551C873.559 140.903 873.757 141.381 873.757 141.88C873.654 166.265 875.859 203.868 886.894 244.553C902.996 303.824 932.095 348.364 973.374 376.942C986.828 386.221 1001.41 393.743 1016.76 399.324C1017.18 399.475 1017.53 399.769 1017.75 400.152C1017.97 400.536 1018.05 400.985 1017.97 401.421C1017.89 401.857 1017.67 402.251 1017.33 402.535C1016.99 402.819 1016.56 402.973 1016.12 402.972L1016.13 403Z" fill="black"/>
<path d="M1016.1 403C1015.8 403 1015.5 402.929 1015.24 402.792C1014.97 402.654 1014.74 402.456 1014.56 402.212C1001.89 384.695 990.883 366.055 981.677 346.53C962.578 305.799 951.489 261.833 949.003 216.987C948.989 216.741 949.024 216.494 949.106 216.261C949.187 216.028 949.315 215.813 949.481 215.629C949.646 215.445 949.847 215.295 950.071 215.187C950.295 215.08 950.539 215.017 950.787 215.003C951.036 214.989 951.285 215.023 951.52 215.105C951.755 215.186 951.972 215.312 952.158 215.476C952.344 215.64 952.495 215.839 952.604 216.062C952.712 216.284 952.775 216.525 952.789 216.771C955.246 261.141 966.22 304.64 985.123 344.935C994.221 364.256 1005.11 382.699 1017.65 400.026C1017.94 400.431 1018.06 400.933 1017.97 401.424C1017.89 401.915 1017.62 402.354 1017.21 402.643C1016.89 402.878 1016.5 403.003 1016.1 403V403Z" fill="black"/>
<path d="M702.568 113.028H538.191C528.597 113.028 519.396 116.834 512.61 123.61C505.824 130.386 502.007 139.576 502 149.162V510.786C502 521.186 506.135 531.161 513.494 538.515C520.854 545.869 530.836 550 541.245 550H639.912C641.133 534.776 640.216 519.456 637.189 504.486C622.674 433.207 563.864 393.362 545.769 382.061C565.998 378.912 585.466 372.037 603.184 361.786C712.709 297.861 703.294 125.412 702.455 113" fill="#479CFF"/>
<path d="M502.871 403C502.432 403.002 502.007 402.847 501.67 402.563C501.333 402.28 501.106 401.885 501.029 401.449C500.952 401.013 501.03 400.564 501.249 400.18C501.469 399.796 501.815 399.503 502.228 399.352C517.479 393.77 531.962 386.248 545.325 376.967C586.334 348.386 615.227 303.841 631.22 244.564C642.199 203.874 644.39 166.268 644.269 141.88C644.269 141.382 644.465 140.903 644.815 140.551C645.164 140.198 645.638 140 646.133 140C646.627 140 647.101 140.198 647.451 140.551C647.8 140.903 647.997 141.382 647.997 141.88C648.099 166.503 645.89 204.476 634.799 245.57C618.629 305.712 589.195 350.962 547.45 380.06C533.821 389.519 519.054 397.19 503.505 402.887C503.302 402.962 503.087 403 502.871 403V403Z" fill="black"/>
<path d="M502.87 403C502.478 402.999 502.096 402.875 501.778 402.643C501.376 402.353 501.105 401.915 501.025 401.424C500.944 400.933 501.061 400.43 501.349 400.025C513.704 382.692 524.437 364.245 533.41 344.921C552.026 304.628 562.837 261.136 565.266 216.772C565.294 216.274 565.518 215.808 565.888 215.476C566.258 215.145 566.744 214.974 567.239 215.003C567.733 215.032 568.197 215.257 568.526 215.629C568.856 216.001 569.025 216.49 568.997 216.988C566.54 261.845 555.609 305.821 536.787 346.563C527.716 366.094 516.868 384.739 504.381 402.259C504.204 402.492 503.975 402.681 503.713 402.81C503.45 402.939 503.162 403.004 502.87 403Z" fill="black"/>
<path d="M982.619 552H538.38C528.466 551.99 518.961 548.047 511.953 541.038C504.944 534.028 501.005 524.524 501 514.613V148.359C501.012 138.453 504.955 128.956 511.963 121.952C518.971 114.949 528.471 111.01 538.38 111H982.619C992.529 111.01 1002.03 114.949 1009.04 121.952C1016.04 128.956 1019.99 138.453 1020 148.359V514.613C1019.99 524.524 1016.06 534.028 1009.05 541.038C1002.04 548.047 992.534 551.99 982.619 552V552ZM538.38 114.816C529.471 114.826 520.929 118.368 514.629 124.665C508.328 130.961 504.783 139.499 504.77 148.406V514.613C504.78 523.521 508.324 532.061 514.625 538.36C520.926 544.659 529.469 548.202 538.38 548.212H982.619C991.53 548.202 1000.07 544.659 1006.37 538.36C1012.68 532.061 1016.22 523.521 1016.23 514.613V148.359C1016.22 139.452 1012.67 130.914 1006.37 124.617C1000.07 118.321 991.529 114.779 982.619 114.769L538.38 114.816Z" fill="#C7B8F8"/>
<path d="M642.121 690H385.879C385.381 690 384.903 689.789 384.55 689.414C384.198 689.039 384 688.53 384 688C384 687.47 384.198 686.961 384.55 686.586C384.903 686.211 385.381 686 385.879 686H642.121C642.619 686 643.097 686.211 643.45 686.586C643.802 686.961 644 687.47 644 688C644 688.53 643.802 689.039 643.45 689.414C643.097 689.789 642.619 690 642.121 690Z" fill="black"/>
<path d="M853.879 309.979C853.377 304.069 850.577 298.597 846.087 294.751C841.598 290.904 835.781 288.995 829.9 289.437L824.208 259.304C820.476 239.127 801.423 225.848 781.754 229.649L727.143 240.216C712.335 243.087 702.65 257.727 705.496 272.92L718.186 340.619C722.702 364.661 745.347 380.483 768.766 375.951L771.295 375.463L778.339 413L850.483 399.036L842.151 354.592H842.076L838.241 333.946C843.194 332.375 847.455 329.131 850.304 324.764C853.154 320.397 854.416 315.174 853.879 309.979Z" fill="white"/>
<path d="M776.79 415L769.652 377.276L768.952 377.408C763.113 378.536 757.107 378.495 751.284 377.289C745.461 376.083 739.937 373.735 735.034 370.382C729.934 366.928 725.574 362.499 722.206 357.352C718.839 352.205 716.532 346.443 715.419 340.4L702.536 272.364C699.459 256.105 709.948 240.374 726.041 237.309L781.457 226.69C786.396 225.737 791.476 225.772 796.402 226.792C801.327 227.812 806 229.797 810.149 232.631C814.464 235.552 818.154 239.298 821.003 243.651C823.852 248.005 825.803 252.88 826.744 257.992L832.206 286.662H832.48C838.61 286.736 844.494 289.069 848.999 293.21C853.504 297.352 856.31 303.008 856.875 309.089V309.089C857.417 314.454 856.186 319.847 853.37 324.452C850.555 329.056 846.308 332.619 841.275 334.6L844.541 351.982L844.938 353.745L853.742 400.259L776.79 415ZM772.672 372.871L779.81 410.596L849.283 397.288L841.53 356.301L841.114 354.415L836.901 331.997L838.529 331.507C843.122 330.049 847.073 327.063 849.718 323.048C852.364 319.034 853.544 314.235 853.06 309.457C851.962 298.083 841.947 289.576 830.767 290.51L829.073 290.651L822.986 258.708C822.136 254.084 820.372 249.673 817.797 245.734C815.221 241.795 811.884 238.405 807.981 235.762C804.245 233.204 800.035 231.413 795.596 230.494C791.157 229.574 786.579 229.544 782.129 230.406L726.722 241.025C712.74 243.703 703.567 257.454 706.256 271.685L719.14 339.721C720.155 345.273 722.267 350.568 725.355 355.299C728.443 360.03 732.444 364.102 737.126 367.279C741.618 370.352 746.679 372.505 752.015 373.612C757.35 374.72 762.853 374.76 768.204 373.73L772.672 372.871Z" fill="black"/>
<path d="M832.494 321C831.041 320.999 829.62 320.576 828.403 319.782C827.187 318.989 826.226 317.859 825.639 316.53C825.053 315.201 824.864 313.731 825.097 312.297C825.33 310.863 825.974 309.528 826.952 308.453C827.929 307.379 829.198 306.611 830.603 306.244C832.009 305.876 833.491 305.925 834.869 306.384C836.247 306.843 837.462 307.692 838.367 308.828C839.272 309.965 839.828 311.339 839.966 312.785V312.785C840.155 314.763 839.551 316.735 838.288 318.268C837.025 319.801 835.204 320.77 833.227 320.963C832.984 320.989 832.739 321.001 832.494 321ZM832.494 309.713H832.123C831.627 309.76 831.145 309.905 830.705 310.139C830.266 310.373 829.877 310.692 829.561 311.077C829.081 311.654 828.785 312.361 828.708 313.107C828.632 313.853 828.779 314.604 829.132 315.266C829.484 315.928 830.026 316.471 830.687 316.824C831.349 317.177 832.1 317.325 832.847 317.25C833.846 317.154 834.766 316.664 835.405 315.89C836.044 315.115 836.349 314.119 836.253 313.119V313.119C836.153 312.119 835.662 311.199 834.889 310.558C834.217 310.011 833.378 309.713 832.512 309.713H832.494Z" fill="black"/>
<path d="M772 372.868L816.508 363.028C816.792 362.966 817.088 363.007 817.345 363.142C817.602 363.277 817.803 363.499 817.911 363.767C818.02 364.035 818.029 364.333 817.938 364.608C817.847 364.883 817.661 365.116 817.413 365.268L774.658 386L772 372.868Z" fill="black"/>
<path d="M733.618 341.279L751.368 335.124C751.481 335.085 751.594 335.122 751.688 335.228C751.781 335.334 751.849 335.502 751.878 335.703C751.908 335.904 751.897 336.124 751.849 336.324C751.801 336.525 751.717 336.692 751.614 336.798L734.032 351.031L733.618 341.279Z" fill="#9D8755"/>
<path d="M771.523 335.89L751.595 335.113C751.468 335.108 751.361 335.177 751.293 335.307C751.224 335.436 751.199 335.618 751.221 335.82C751.243 336.023 751.312 336.232 751.414 336.411C751.517 336.591 751.647 336.728 751.781 336.8L773.66 345.423L771.523 335.89Z" fill="#9D8755"/>
<path d="M827.466 317.998C827.05 317.998 826.646 317.867 826.312 317.624C825.977 317.381 825.731 317.04 825.608 316.649C824.894 314.343 824.807 311.892 825.357 309.542C825.906 307.193 827.073 305.026 828.74 303.258C833.729 298.026 840.595 299.03 841.382 299.164C841.635 299.206 841.876 299.297 842.093 299.432C842.309 299.566 842.497 299.741 842.645 299.947C842.792 300.153 842.897 300.386 842.953 300.631C843.009 300.877 843.015 301.131 842.971 301.38C842.927 301.628 842.833 301.865 842.696 302.077C842.558 302.29 842.379 302.474 842.169 302.618C841.959 302.762 841.722 302.864 841.472 302.918C841.222 302.972 840.963 302.977 840.711 302.933C840.488 302.933 835.265 302.043 831.609 305.879C830.405 307.154 829.563 308.717 829.167 310.413C828.771 312.108 828.835 313.876 829.353 315.54C829.428 315.78 829.454 316.033 829.429 316.284C829.405 316.534 829.33 316.777 829.21 316.999C829.09 317.222 828.927 317.418 828.729 317.578C828.531 317.738 828.304 317.858 828.059 317.931C827.866 317.984 827.666 318.007 827.466 317.998V317.998Z" fill="black"/>
<path d="M726.5 316C728.985 316 731 313.985 731 311.5C731 309.015 728.985 307 726.5 307C724.015 307 722 309.015 722 311.5C722 313.985 724.015 316 726.5 316Z" fill="black"/>
<path d="M768.5 314C770.985 314 773 311.985 773 309.5C773 307.015 770.985 305 768.5 305C766.015 305 764 307.015 764 309.5C764 311.985 766.015 314 768.5 314Z" fill="black"/>
<path d="M748.663 328.186L748.38 328.151C745.017 327.237 741.561 325.954 741.397 323.239C741.393 322.726 741.494 322.219 741.694 321.746C741.894 321.273 742.189 320.846 742.562 320.487C742.783 320.225 743.04 319.91 743.329 319.492C744.397 317.917 744.972 316.07 744.984 314.176L745.423 294.674C745.429 294.421 745.485 294.172 745.59 293.941C745.694 293.71 745.844 293.502 746.031 293.328C746.218 293.154 746.438 293.018 746.679 292.928C746.92 292.838 747.178 292.795 747.436 292.802C747.695 292.809 747.95 292.866 748.187 292.969C748.424 293.072 748.637 293.22 748.816 293.404C748.995 293.588 749.135 293.804 749.229 294.041C749.323 294.277 749.368 294.529 749.362 294.782L748.891 314.308C748.868 316.921 748.076 319.467 746.607 321.642C746.21 322.21 745.884 322.604 745.615 322.937L745.607 323.003C746.81 323.664 748.103 324.152 749.447 324.451C749.959 324.551 750.41 324.845 750.702 325.269C750.993 325.693 751.101 326.212 751.002 326.712C750.902 327.212 750.604 327.652 750.172 327.934C749.74 328.217 749.21 328.32 748.698 328.22L748.663 328.186Z" fill="black"/>
<path d="M754.536 360.42C752.396 359.981 750.347 359.181 748.478 358.056C748.068 357.791 747.78 357.376 747.678 356.903C747.576 356.429 747.668 355.936 747.934 355.531C748.2 355.126 748.618 354.843 749.095 354.744C749.573 354.646 750.072 354.739 750.482 355.003C750.553 355.018 755.009 357.848 759.43 356.898C760.643 356.596 761.779 356.05 762.768 355.294C763.756 354.538 764.577 353.588 765.179 352.504C765.306 352.303 765.472 352.128 765.668 351.991C765.864 351.854 766.085 351.756 766.32 351.704C766.554 351.651 766.796 351.645 767.033 351.685C767.27 351.726 767.497 351.812 767.701 351.939C767.905 352.066 768.082 352.231 768.221 352.426C768.361 352.62 768.46 352.84 768.514 353.072C768.568 353.304 768.575 353.544 768.536 353.779C768.496 354.013 768.41 354.237 768.282 354.439C767.421 355.927 766.26 357.224 764.872 358.249C763.483 359.275 761.897 360.007 760.209 360.401C758.341 360.796 756.409 360.802 754.536 360.42V360.42Z" fill="black"/>
<path d="M662.939 698.749L764.389 701.368L982 707C961.433 600.664 940.867 494.33 920.3 388C861.848 391.686 803.677 398.924 746.115 409.675C744.905 409.9 739.614 410.613 732.584 411.956C710.238 416.368 676.743 422.976 660.331 441.243C645.147 458.14 646.451 482.912 647.698 501.855C651.61 561.229 656.428 626.703 662.939 698.749Z" fill="#292929"/>
<path d="M1065 716.499L934.401 751L852 396.201L916.278 386.975C940.853 383.455 965.841 389.547 986.012 403.977C1006.18 418.407 1019.97 440.056 1024.5 464.391L1065 716.499Z" fill="#292929"/>
<path d="M858 415.665L774.557 429L768.101 393.511C767.812 391.934 768.151 390.305 769.044 388.981C769.937 387.656 771.311 386.744 772.865 386.444L841.657 373.109C843.161 372.816 844.719 373.118 846.01 373.952C847.301 374.787 848.229 376.09 848.602 377.595L858 415.665Z" fill="#292929"/>
<path d="M867.724 563.191L898.4 542.864C908.992 535.845 921.938 533.321 934.391 535.848C946.844 538.375 957.783 545.745 964.802 556.337L1056.1 694.111C1063.76 705.679 1066.52 719.819 1063.76 733.42C1061 747.021 1052.95 758.968 1041.38 766.634V766.634C1023.63 778.395 1001.94 782.624 981.069 778.39C960.202 774.156 941.871 761.806 930.11 744.056L854.258 629.588C847.24 618.997 844.717 606.052 847.242 593.601C849.767 581.149 857.135 570.211 867.724 563.191V563.191Z" fill="#292929"/>
<path d="M797.155 409C796.712 409.005 796.281 408.844 795.944 408.548C795.607 408.251 795.385 407.839 795.321 407.388L792.019 384.179C791.949 383.678 792.074 383.17 792.368 382.765C792.662 382.36 793.101 382.092 793.588 382.02C794.074 381.947 794.569 382.076 794.962 382.379C795.356 382.681 795.617 383.132 795.688 383.632L798.98 406.803C799.016 407.049 799.003 407.298 798.944 407.539C798.885 407.779 798.781 408.005 798.637 408.204C798.493 408.402 798.312 408.57 798.105 408.697C797.898 408.824 797.669 408.908 797.43 408.943L797.155 409Z" fill="black"/>
<path d="M823.16 404C822.718 404.005 822.29 403.844 821.954 403.548C821.618 403.251 821.398 402.839 821.334 402.388L818.019 379.179C817.984 378.931 817.997 378.679 818.057 378.436C818.116 378.194 818.222 377.966 818.367 377.765C818.512 377.565 818.694 377.396 818.902 377.268C819.11 377.14 819.341 377.056 819.581 377.02C819.82 376.984 820.065 376.997 820.3 377.059C820.534 377.12 820.755 377.229 820.949 377.379C821.144 377.528 821.307 377.716 821.431 377.931C821.555 378.146 821.637 378.384 821.672 378.632L824.986 401.841C825.016 402.087 824.998 402.336 824.934 402.575C824.87 402.813 824.761 403.037 824.614 403.232C824.466 403.427 824.283 403.59 824.074 403.713C823.865 403.835 823.635 403.913 823.397 403.943L823.16 404Z" fill="black"/>
<path d="M1033.13 661C1032.82 661 1032.51 660.922 1032.24 660.774C1031.96 660.626 1031.73 660.411 1031.56 660.15L967.731 563.416C964.667 558.319 955.889 546.076 939.817 540.997C931.874 538.534 923.443 538.112 915.296 539.77C915.051 539.826 914.798 539.832 914.551 539.788C914.305 539.744 914.069 539.651 913.859 539.514C913.648 539.377 913.467 539.2 913.326 538.992C913.185 538.783 913.087 538.549 913.037 538.302C912.988 538.055 912.988 537.801 913.037 537.554C913.087 537.307 913.186 537.073 913.327 536.865C913.468 536.657 913.65 536.48 913.86 536.343C914.071 536.207 914.306 536.114 914.553 536.07C923.319 534.283 932.392 534.74 940.935 537.401C958.238 542.857 967.656 556.006 970.908 561.396L1034.69 658.064C1034.96 658.481 1035.06 658.991 1034.96 659.481C1034.86 659.971 1034.58 660.402 1034.16 660.679C1033.86 660.885 1033.5 660.997 1033.13 661V661Z" fill="black"/>
<path d="M688.404 519.927C687.629 511.125 694.136 503.361 702.938 502.585L806.761 493.439C809.512 493.196 811.938 495.23 812.18 497.981L817.188 554.817C817.963 563.62 811.456 571.384 802.653 572.16L709.788 580.341C700.986 581.116 693.221 574.609 692.446 565.806L688.404 519.927Z" fill="url(#paint0_diamond_2_294)"/>
<path d="M904.191 707C903.882 707 903.577 706.922 903.305 706.775C903.032 706.627 902.801 706.413 902.631 706.153L866.978 651.943C865.53 649.731 863.913 647.425 861.895 644.686C847.544 625.173 845.452 612.531 845.274 611.288C839.36 582.861 855.916 570.812 856.626 570.342C857.032 570.055 857.535 569.942 858.024 570.028C858.513 570.115 858.947 570.394 859.232 570.803C859.517 571.212 859.629 571.719 859.543 572.212C859.458 572.704 859.181 573.142 858.775 573.429C858.121 573.89 843.527 584.668 848.946 610.582V610.724C848.946 610.846 850.73 623.205 864.829 642.445C866.884 645.269 868.566 647.594 870.024 649.863L905.686 704.072C905.874 704.356 905.982 704.686 905.998 705.027C906.014 705.368 905.938 705.707 905.778 706.008C905.617 706.309 905.379 706.56 905.088 706.735C904.797 706.909 904.464 707.001 904.126 707H904.191Z" fill="black"/>
<path d="M711.294 582C706.195 581.992 701.281 580.11 697.514 576.724C693.747 573.337 691.397 568.688 690.923 563.685L687.085 521.872C686.592 516.544 688.266 511.242 691.739 507.13C695.212 503.018 700.201 500.433 705.607 499.942L812.114 490L817.914 552.191C818.16 554.829 817.877 557.489 817.08 560.018C816.283 562.548 814.988 564.898 813.269 566.935C811.549 568.971 809.44 570.654 807.06 571.887C804.681 573.12 802.078 573.879 799.4 574.12L713.181 581.916C712.549 581.972 711.917 582 711.294 582ZM808.709 494.051L705.956 503.613C701.547 504.016 697.481 506.127 694.651 509.483C691.821 512.839 690.46 517.165 690.867 521.509L694.696 563.323C695.109 567.664 697.252 571.666 700.655 574.452C704.058 577.239 708.444 578.583 712.851 578.19L799.07 570.394C803.478 569.991 807.543 567.881 810.372 564.527C813.202 561.173 814.564 556.85 814.16 552.507L808.709 494.051Z" fill="white"/>
<path d="M819.924 513.99H791.211C789.199 513.974 787.192 514.184 785.227 514.616C781.263 515.55 776.242 517.69 778.337 522.744C778.82 523.854 779.524 524.857 780.406 525.693C781.288 526.529 782.33 527.182 783.472 527.612C793.061 531.349 826.965 544.971 834.497 552.446L858.792 573L915 540.3C907.691 526.178 898.919 512.845 888.826 500.517C879.199 488.773 867.448 474.198 853.545 467.331C845.928 463.594 836.932 463.454 828.692 464.715C818.707 466.251 808.828 468.398 799.112 471.143C790.617 473.572 781.924 476.198 775.515 482.626L766.01 491.184C765.54 491.574 765.212 492.105 765.073 492.697C764.935 493.288 764.994 493.908 765.242 494.463C765.49 495.018 765.913 495.479 766.448 495.775C766.983 496.072 767.601 496.189 768.209 496.108L809.117 492.268C811.201 492.072 813.295 492.524 815.108 493.56C816.922 494.597 818.364 496.166 819.235 498.051L823.832 508.01C824.13 508.656 824.259 509.365 824.207 510.073C824.155 510.781 823.923 511.465 823.534 512.061C823.145 512.657 822.61 513.146 821.979 513.483C821.348 513.82 820.641 513.995 819.924 513.99V513.99Z" fill="white"/>
<path d="M859.153 499C858.803 499.001 858.46 498.905 858.162 498.724C857.864 498.542 857.623 498.283 857.465 497.973C849.923 482.909 840.833 475.218 834.563 471.41C827.803 467.294 822.759 466.743 822.702 466.743C822.202 466.692 821.743 466.447 821.425 466.061C821.108 465.675 820.959 465.18 821.01 464.685C821.061 464.19 821.309 463.735 821.699 463.421C822.089 463.107 822.589 462.959 823.089 463.01C824.032 463.103 845.378 465.595 860.803 496.321C861.026 496.764 861.061 497.277 860.902 497.746C860.743 498.215 860.402 498.602 859.955 498.823C859.705 498.942 859.431 499.003 859.153 499V499Z" fill="black"/>
<path d="M708.955 531.997C708.463 532.024 707.981 531.846 707.615 531.503C707.249 531.159 707.028 530.678 707.003 530.165C706.977 529.653 707.147 529.15 707.477 528.769C707.807 528.387 708.268 528.158 708.761 528.131L781.939 520.011C782.432 519.957 782.924 520.109 783.309 520.433C783.693 520.758 783.938 521.228 783.99 521.741C784.041 522.254 783.896 522.767 783.584 523.168C783.273 523.568 782.821 523.823 782.329 523.877L709.15 531.997H708.955Z" fill="white"/>
<path d="M711.006 550.998C710.756 551.01 710.506 550.976 710.27 550.898C710.034 550.82 709.817 550.7 709.631 550.544C709.445 550.388 709.294 550.2 709.186 549.989C709.078 549.779 709.016 549.551 709.003 549.318C708.989 549.086 709.026 548.853 709.109 548.633C709.193 548.413 709.322 548.211 709.49 548.038C709.657 547.865 709.86 547.724 710.085 547.624C710.311 547.523 710.556 547.465 710.806 547.453L785.886 540.01C786.136 539.985 786.389 540.007 786.63 540.073C786.871 540.14 787.095 540.25 787.291 540.397C787.486 540.545 787.648 540.726 787.768 540.932C787.888 541.138 787.963 541.363 787.99 541.596C788.016 541.829 787.993 542.064 787.921 542.288C787.85 542.513 787.732 542.722 787.573 542.904C787.415 543.085 787.22 543.236 786.999 543.348C786.778 543.46 786.536 543.53 786.286 543.554L711.206 550.998H711.006Z" fill="white"/>
<path d="M413.5 284C423.717 284 432 275.941 432 266C432 256.059 423.717 248 413.5 248C403.283 248 395 256.059 395 266C395 275.941 403.283 284 413.5 284Z" fill="#6DC8C2"/>
<path d="M433.5 401C451.449 401 466 386.449 466 368.5C466 350.551 451.449 336 433.5 336C415.551 336 401 350.551 401 368.5C401 386.449 415.551 401 433.5 401Z" fill="#FFBB45"/>
<path d="M425.244 340C424.402 340.001 423.572 339.816 422.813 339.46C422.063 339.108 421.4 338.6 420.872 337.971C420.343 337.343 419.962 336.609 419.754 335.822L408.173 290.883C407.909 289.865 407.948 288.796 408.284 287.8C408.62 286.803 409.239 285.92 410.07 285.255C410.901 284.589 411.908 284.168 412.975 284.041C414.041 283.914 415.123 284.085 416.093 284.536L470.748 309.886C471.721 310.332 472.543 311.04 473.118 311.925C473.694 312.811 474 313.838 474 314.888C474 315.937 473.694 316.964 473.118 317.85C472.543 318.736 471.721 319.443 470.748 319.89L427.713 339.432C426.944 339.802 426.1 339.996 425.244 340V340ZM413.615 287.709C413.187 287.716 412.774 287.864 412.443 288.128C412.166 288.346 411.961 288.639 411.851 288.969C411.741 289.299 411.731 289.654 411.823 289.989L423.423 334.91C423.489 335.168 423.612 335.409 423.785 335.615C423.957 335.821 424.175 335.987 424.421 336.101C424.667 336.215 424.936 336.274 425.209 336.274C425.481 336.274 425.751 336.215 425.997 336.101V336.101L469.032 316.558C469.349 316.41 469.617 316.178 469.804 315.888C469.991 315.599 470.091 315.263 470.091 314.92C470.091 314.577 469.991 314.242 469.804 313.952C469.617 313.662 469.349 313.43 469.032 313.282L414.378 287.933C414.143 287.807 413.883 287.73 413.615 287.709Z" fill="black"/>
<path d="M612.12 403H382.88C382.381 403 381.903 402.789 381.551 402.414C381.198 402.039 381 401.53 381 401C381 400.47 381.198 399.961 381.551 399.586C381.903 399.211 382.381 399 382.88 399H612.12C612.619 399 613.097 399.211 613.449 399.586C613.802 399.961 614 400.47 614 401C614 401.53 613.802 402.039 613.449 402.414C613.097 402.789 612.619 403 612.12 403Z" fill="black"/>
<path d="M482 399H598C593.855 387.036 586.036 376.653 575.637 369.303C565.238 361.952 552.779 358 540 358C527.221 358 514.762 361.952 504.363 369.303C493.964 376.653 486.145 387.036 482 399V399Z" fill="#FFC1C1"/>
<path d="M557.604 382.351C551.341 382.351 545.218 380.494 540.011 377.014C534.803 373.535 530.744 368.589 528.347 362.803C525.95 357.016 525.323 350.649 526.545 344.506C527.767 338.363 530.783 332.721 535.212 328.292C539.641 323.863 545.283 320.847 551.426 319.625C557.569 318.403 563.936 319.031 569.722 321.427C575.509 323.824 580.455 327.883 583.934 333.091C587.414 338.298 589.271 344.421 589.271 350.684C589.261 359.08 585.922 367.129 579.985 373.065C574.048 379.002 566 382.341 557.604 382.351V382.351ZM557.604 323.584C552.244 323.584 547.005 325.173 542.548 328.151C538.091 331.129 534.618 335.361 532.567 340.313C530.515 345.265 529.979 350.714 531.024 355.971C532.07 361.228 534.651 366.057 538.441 369.847C542.231 373.637 547.06 376.218 552.317 377.264C557.574 378.309 563.023 377.773 567.975 375.721C572.927 373.67 577.159 370.197 580.137 365.74C583.115 361.284 584.704 356.044 584.704 350.684C584.694 343.5 581.836 336.612 576.756 331.532C571.676 326.452 564.788 323.594 557.604 323.584V323.584Z" fill="#FB6D6D"/>
<path d="M504.496 435.836C501.323 435.808 498.164 435.419 495.079 434.678C484.053 432.098 472.48 425.469 462.602 416.005C452.725 406.542 445.53 395.289 442.451 384.432C439.25 373.133 440.794 363.415 446.792 357.125C458.845 344.498 485.559 350.355 506.332 370.195C516.247 379.658 523.404 390.911 526.492 401.768C529.694 413.067 528.15 422.785 522.151 429.075C517.839 433.539 511.756 435.836 504.496 435.836ZM464.448 354.856C458.572 354.856 453.534 356.598 450.041 360.261C445.201 365.326 444.052 373.443 446.792 383.161C449.617 393.284 456.378 403.773 465.71 412.681C475.041 421.589 485.823 427.813 496.068 430.205C505.889 432.493 513.959 430.968 518.799 425.892C523.639 420.817 524.797 412.71 522.048 402.992C519.223 392.869 512.471 382.389 503.14 373.472C490.597 361.532 475.926 354.884 464.448 354.884V354.856Z" fill="#FB6D6D"/>
<path d="M486.744 621C486.312 620.998 485.894 620.851 485.558 620.585C485.222 620.318 484.987 619.947 484.892 619.532C479.805 597.678 485.933 572.295 491.974 554.865C495.881 543.553 500.703 532.569 506.395 522.019C506.512 521.795 506.674 521.596 506.871 521.435C507.068 521.273 507.296 521.153 507.541 521.08C507.786 521.007 508.044 520.984 508.298 521.011C508.553 521.038 508.799 521.116 509.022 521.239C509.246 521.362 509.442 521.528 509.599 521.728C509.756 521.927 509.871 522.156 509.936 522.399C510.002 522.643 510.017 522.898 509.981 523.148C509.945 523.398 509.858 523.638 509.726 523.854C504.14 534.227 499.407 545.026 495.572 556.145C489.702 573.086 483.728 597.716 488.605 618.694C488.716 619.18 488.628 619.689 488.36 620.11C488.092 620.532 487.665 620.831 487.173 620.944C487.033 620.981 486.889 621 486.744 621V621Z" fill="black"/>
<path d="M491.891 618.993C491.8 619.002 491.708 619.002 491.617 618.993C491.372 618.957 491.135 618.872 490.922 618.744C490.709 618.615 490.522 618.446 490.374 618.245C490.226 618.044 490.118 617.816 490.057 617.573C489.997 617.33 489.984 617.078 490.02 616.83C492.218 601.406 499.55 587.191 510.813 576.516C511.179 576.17 511.666 575.985 512.168 576.001C512.669 576.017 513.144 576.233 513.488 576.602C513.831 576.971 514.015 577.462 513.999 577.968C513.983 578.473 513.769 578.952 513.403 579.298C502.739 589.379 495.797 602.817 493.716 617.402C493.643 617.84 493.421 618.238 493.088 618.529C492.755 618.819 492.332 618.983 491.891 618.993V618.993Z" fill="black"/>
<path d="M488.072 642C487.592 642.002 487.13 641.822 486.777 641.497C486.424 641.173 486.207 640.727 486.168 640.249C484.354 618.102 480.532 596.165 474.748 574.71C469.265 554.493 462.063 534.782 453.221 515.793C453.1 515.565 453.027 515.315 453.006 515.058C452.985 514.801 453.017 514.542 453.099 514.298C453.181 514.053 453.312 513.828 453.484 513.636C453.655 513.443 453.865 513.288 454.098 513.179C454.332 513.07 454.585 513.009 454.843 513.001C455.101 512.993 455.358 513.037 455.598 513.131C455.838 513.225 456.056 513.367 456.24 513.548C456.424 513.729 456.569 513.946 456.666 514.185C465.603 533.37 472.881 553.285 478.422 573.711C484.28 595.392 488.154 617.562 489.994 639.945C490.034 640.447 489.872 640.944 489.546 641.327C489.22 641.711 488.754 641.949 488.253 641.99L488.072 642Z" fill="black"/>
<path d="M449 577C456.602 584.324 463.603 592.275 469.932 600.772C474.286 606.612 478.315 612.697 482 619" fill="white"/>
<path d="M483.107 621C482.773 620.998 482.446 620.909 482.157 620.743C481.868 620.577 481.629 620.338 481.462 620.052C472.166 604.651 460.772 590.593 447.6 578.278C447.417 578.106 447.27 577.901 447.167 577.674C447.064 577.446 447.008 577.201 447.001 576.952C446.994 576.703 447.036 576.454 447.126 576.222C447.215 575.989 447.351 575.776 447.523 575.594C447.696 575.413 447.903 575.268 448.133 575.166C448.362 575.064 448.61 575.008 448.861 575.001C449.113 574.994 449.363 575.036 449.598 575.125C449.833 575.213 450.048 575.347 450.231 575.519C463.666 588.063 475.281 602.393 484.744 618.099C484.911 618.385 484.999 618.711 485 619.042C485.001 619.373 484.914 619.698 484.749 619.986C484.583 620.274 484.345 620.513 484.057 620.681C483.769 620.849 483.442 620.939 483.107 620.943V621Z" fill="black"/>
<path d="M531.133 511.01H524.741C524.62 510.683 524.48 510.357 524.332 510.077L528.984 505.926C529.509 505.509 529.944 504.99 530.262 504.399C530.581 503.809 530.776 503.159 530.836 502.491C530.895 501.822 530.819 501.148 530.61 500.51C530.402 499.872 530.066 499.284 529.623 498.78C529.18 498.277 528.639 497.869 528.034 497.581C527.429 497.294 526.772 497.133 526.103 497.109C525.433 497.085 524.766 497.197 524.142 497.44C523.517 497.682 522.949 498.05 522.471 498.52L517.548 502.885C517.464 502.96 517.409 503.044 517.334 503.118C517.027 502.969 516.711 502.848 516.404 502.727V496.738C516.348 495.463 515.804 494.258 514.885 493.376C513.965 492.493 512.741 492 511.467 492C510.194 492 508.97 492.493 508.05 493.376C507.131 494.258 506.586 495.463 506.531 496.738V502.736C506.077 502.901 505.633 503.091 505.201 503.305C505.058 503.137 504.906 502.978 504.745 502.829L499.701 498.473C499.219 498.006 498.648 497.642 498.021 497.404C497.394 497.166 496.725 497.059 496.056 497.089C495.386 497.118 494.729 497.285 494.126 497.577C493.522 497.87 492.985 498.283 492.546 498.791C492.107 499.298 491.776 499.891 491.573 500.531C491.37 501.172 491.3 501.847 491.366 502.515C491.432 503.184 491.634 503.832 491.958 504.42C492.282 505.008 492.723 505.524 493.253 505.935L498.24 510.245C498.282 510.278 498.326 510.309 498.371 510.338C498.278 510.553 498.203 510.767 498.119 510.982H491.932C491.284 510.982 490.643 511.11 490.044 511.358C489.446 511.606 488.902 511.971 488.444 512.43C487.986 512.889 487.623 513.434 487.375 514.033C487.128 514.633 487 515.276 487 515.925V515.925C486.999 516.575 487.125 517.219 487.373 517.82C487.62 518.421 487.983 518.967 488.441 519.427C488.899 519.887 489.443 520.252 490.042 520.501C490.641 520.75 491.283 520.878 491.932 520.878H498.064C498.11 521.018 498.157 521.158 498.212 521.289H498.166L493.234 525.664C492.709 526.08 492.274 526.6 491.956 527.19C491.638 527.781 491.443 528.43 491.383 529.099C491.323 529.767 491.4 530.441 491.608 531.079C491.817 531.717 492.153 532.306 492.595 532.809C493.038 533.313 493.579 533.721 494.184 534.008C494.789 534.296 495.447 534.456 496.116 534.481C496.785 534.505 497.452 534.392 498.077 534.15C498.701 533.907 499.27 533.54 499.748 533.07L504.679 528.704L504.782 528.592C505.321 528.874 505.877 529.12 506.447 529.329V535.262C506.503 536.537 507.047 537.742 507.967 538.624C508.886 539.507 510.11 540 511.384 540C512.657 540 513.881 539.507 514.801 538.624C515.721 537.742 516.265 536.537 516.32 535.262V529.329C516.664 529.199 516.999 529.059 517.334 528.91L522.164 533.079C523.161 533.854 524.416 534.216 525.671 534.091C526.926 533.966 528.086 533.364 528.912 532.408C529.738 531.452 530.167 530.216 530.111 528.953C530.055 527.689 529.519 526.496 528.612 525.617L524.313 521.886C524.472 521.549 524.611 521.203 524.732 520.85H531.068C531.717 520.85 532.359 520.722 532.958 520.473C533.557 520.224 534.101 519.859 534.559 519.399C535.017 518.939 535.38 518.393 535.627 517.792C535.875 517.191 536.001 516.547 536 515.897V515.897C535.986 514.607 535.468 513.374 534.559 512.461C533.65 511.547 532.42 511.027 531.133 511.01V511.01Z" fill="#FFC1EB"/>
<path d="M531.133 511.01H524.741C524.62 510.683 524.48 510.357 524.332 510.077L528.984 505.926C529.509 505.509 529.944 504.99 530.262 504.399C530.581 503.809 530.776 503.159 530.836 502.491C530.895 501.822 530.819 501.148 530.61 500.51C530.402 499.872 530.066 499.284 529.623 498.78C529.18 498.277 528.639 497.869 528.034 497.581C527.429 497.294 526.772 497.133 526.103 497.109C525.433 497.085 524.766 497.197 524.142 497.44C523.517 497.682 522.949 498.05 522.471 498.52L517.548 502.885C517.464 502.96 517.409 503.044 517.334 503.118C517.027 502.969 516.711 502.848 516.404 502.727V496.738C516.348 495.463 515.804 494.258 514.885 493.376C513.965 492.493 512.741 492 511.467 492C510.194 492 508.97 492.493 508.05 493.376C507.131 494.258 506.586 495.463 506.531 496.738V502.736C506.077 502.901 505.633 503.091 505.201 503.305C505.058 503.137 504.906 502.978 504.745 502.829L499.701 498.473C499.219 498.006 498.648 497.642 498.021 497.404C497.394 497.166 496.725 497.059 496.056 497.089C495.386 497.118 494.729 497.285 494.126 497.577C493.522 497.87 492.985 498.283 492.546 498.791C492.107 499.298 491.776 499.891 491.573 500.531C491.37 501.172 491.3 501.847 491.366 502.515C491.432 503.184 491.634 503.832 491.958 504.42C492.282 505.008 492.723 505.524 493.253 505.935L498.24 510.245C498.282 510.278 498.326 510.309 498.371 510.338C498.278 510.553 498.203 510.767 498.119 510.982H491.932C491.284 510.982 490.643 511.11 490.044 511.358C489.446 511.606 488.902 511.971 488.444 512.43C487.986 512.889 487.623 513.434 487.375 514.033C487.128 514.633 487 515.276 487 515.925V515.925C486.999 516.575 487.125 517.219 487.373 517.82C487.62 518.421 487.983 518.967 488.441 519.427C488.899 519.887 489.443 520.252 490.042 520.501C490.641 520.75 491.283 520.878 491.932 520.878H498.064C498.11 521.018 498.157 521.158 498.212 521.289H498.166L493.234 525.664C492.709 526.08 492.274 526.6 491.956 527.19C491.638 527.781 491.443 528.43 491.383 529.099C491.323 529.767 491.4 530.441 491.608 531.079C491.817 531.717 492.153 532.306 492.595 532.809C493.038 533.313 493.579 533.721 494.184 534.008C494.789 534.296 495.447 534.456 496.116 534.481C496.785 534.505 497.452 534.392 498.077 534.15C498.701 533.907 499.27 533.54 499.748 533.07L504.679 528.704L504.782 528.592C505.321 528.874 505.877 529.12 506.447 529.329V535.262C506.503 536.537 507.047 537.742 507.967 538.624C508.886 539.507 510.11 540 511.384 540C512.657 540 513.881 539.507 514.801 538.624C515.721 537.742 516.265 536.537 516.32 535.262V529.329C516.664 529.199 516.999 529.059 517.334 528.91L522.164 533.079C523.161 533.854 524.416 534.216 525.671 534.091C526.926 533.966 528.086 533.364 528.912 532.408C529.738 531.452 530.167 530.216 530.111 528.953C530.055 527.689 529.519 526.496 528.612 525.617L524.313 521.886C524.472 521.549 524.611 521.203 524.732 520.85H531.068C531.717 520.85 532.359 520.722 532.958 520.473C533.557 520.224 534.101 519.859 534.559 519.399C535.017 518.939 535.38 518.393 535.627 517.792C535.875 517.191 536.001 516.547 536 515.897V515.897C535.986 514.607 535.468 513.374 534.559 512.461C533.65 511.547 532.42 511.027 531.133 511.01V511.01Z" fill="#FFC1EB"/>
<path d="M531.133 511.01H524.741C524.62 510.683 524.48 510.357 524.332 510.077L528.984 505.926C529.509 505.509 529.944 504.99 530.262 504.399C530.581 503.809 530.776 503.159 530.836 502.491C530.895 501.822 530.819 501.148 530.61 500.51C530.402 499.872 530.066 499.284 529.623 498.78C529.18 498.277 528.639 497.869 528.034 497.581C527.429 497.294 526.772 497.133 526.103 497.109C525.433 497.085 524.766 497.197 524.142 497.44C523.517 497.682 522.949 498.05 522.471 498.52L517.548 502.885C517.464 502.96 517.409 503.044 517.334 503.118C517.027 502.969 516.711 502.848 516.404 502.727V496.738C516.348 495.463 515.804 494.258 514.885 493.376C513.965 492.493 512.741 492 511.467 492C510.194 492 508.97 492.493 508.05 493.376C507.131 494.258 506.586 495.463 506.531 496.738V502.736C506.077 502.901 505.633 503.091 505.201 503.305C505.058 503.137 504.906 502.978 504.745 502.829L499.701 498.473C499.219 498.006 498.648 497.642 498.021 497.404C497.394 497.166 496.725 497.059 496.056 497.089C495.386 497.118 494.729 497.285 494.126 497.577C493.522 497.87 492.985 498.283 492.546 498.791C492.107 499.298 491.776 499.891 491.573 500.531C491.37 501.172 491.3 501.847 491.366 502.515C491.432 503.184 491.634 503.832 491.958 504.42C492.282 505.008 492.723 505.524 493.253 505.935L498.24 510.245C498.282 510.278 498.326 510.309 498.371 510.338C498.278 510.553 498.203 510.767 498.119 510.982H491.932C491.284 510.982 490.643 511.11 490.044 511.358C489.446 511.606 488.902 511.971 488.444 512.43C487.986 512.889 487.623 513.434 487.375 514.033C487.128 514.633 487 515.276 487 515.925V515.925C486.999 516.575 487.125 517.219 487.373 517.82C487.62 518.421 487.983 518.967 488.441 519.427C488.899 519.887 489.443 520.252 490.042 520.501C490.641 520.75 491.283 520.878 491.932 520.878H498.064C498.11 521.018 498.157 521.158 498.212 521.289H498.166L493.234 525.664C492.709 526.08 492.274 526.6 491.956 527.19C491.638 527.781 491.443 528.43 491.383 529.099C491.323 529.767 491.4 530.441 491.608 531.079C491.817 531.717 492.153 532.306 492.595 532.809C493.038 533.313 493.579 533.721 494.184 534.008C494.789 534.296 495.447 534.456 496.116 534.481C496.785 534.505 497.452 534.392 498.077 534.15C498.701 533.907 499.27 533.54 499.748 533.07L504.679 528.704L504.782 528.592C505.321 528.874 505.877 529.12 506.447 529.329V535.262C506.503 536.537 507.047 537.742 507.967 538.624C508.886 539.507 510.11 540 511.384 540C512.657 540 513.881 539.507 514.801 538.624C515.721 537.742 516.265 536.537 516.32 535.262V529.329C516.664 529.199 516.999 529.059 517.334 528.91L522.164 533.079C523.161 533.854 524.416 534.216 525.671 534.091C526.926 533.966 528.086 533.364 528.912 532.408C529.738 531.452 530.167 530.216 530.111 528.953C530.055 527.689 529.519 526.496 528.612 525.617L524.313 521.886C524.472 521.549 524.611 521.203 524.732 520.85H531.068C531.717 520.85 532.359 520.722 532.958 520.473C533.557 520.224 534.101 519.859 534.559 519.399C535.017 518.939 535.38 518.393 535.627 517.792C535.875 517.191 536.001 516.547 536 515.897V515.897C535.986 514.607 535.468 513.374 534.559 512.461C533.65 511.547 532.42 511.027 531.133 511.01V511.01Z" fill="#FFC1EB"/>
<path d="M531.133 511.01H524.741C524.62 510.683 524.48 510.357 524.332 510.077L528.984 505.926C529.509 505.509 529.944 504.99 530.262 504.399C530.581 503.809 530.776 503.159 530.836 502.491C530.895 501.822 530.819 501.148 530.61 500.51C530.402 499.872 530.066 499.284 529.623 498.78C529.18 498.277 528.639 497.869 528.034 497.581C527.429 497.294 526.772 497.133 526.103 497.109C525.433 497.085 524.766 497.197 524.142 497.44C523.517 497.682 522.949 498.05 522.471 498.52L517.548 502.885C517.464 502.96 517.409 503.044 517.334 503.118C517.027 502.969 516.711 502.848 516.404 502.727V496.738C516.348 495.463 515.804 494.258 514.885 493.376C513.965 492.493 512.741 492 511.467 492C510.194 492 508.97 492.493 508.05 493.376C507.131 494.258 506.586 495.463 506.531 496.738V502.736C506.077 502.901 505.633 503.091 505.201 503.305C505.058 503.137 504.906 502.978 504.745 502.829L499.701 498.473C499.219 498.006 498.648 497.642 498.021 497.404C497.394 497.166 496.725 497.059 496.056 497.089C495.386 497.118 494.729 497.285 494.126 497.577C493.522 497.87 492.985 498.283 492.546 498.791C492.107 499.298 491.776 499.891 491.573 500.531C491.37 501.172 491.3 501.847 491.366 502.515C491.432 503.184 491.634 503.832 491.958 504.42C492.282 505.008 492.723 505.524 493.253 505.935L498.24 510.245C498.282 510.278 498.326 510.309 498.371 510.338C498.278 510.553 498.203 510.767 498.119 510.982H491.932C491.284 510.982 490.643 511.11 490.044 511.358C489.446 511.606 488.902 511.971 488.444 512.43C487.986 512.889 487.623 513.434 487.375 514.033C487.128 514.633 487 515.276 487 515.925V515.925C486.999 516.575 487.125 517.219 487.373 517.82C487.62 518.421 487.983 518.967 488.441 519.427C488.899 519.887 489.443 520.252 490.042 520.501C490.641 520.75 491.283 520.878 491.932 520.878H498.064C498.11 521.018 498.157 521.158 498.212 521.289H498.166L493.234 525.664C492.709 526.08 492.274 526.6 491.956 527.19C491.638 527.781 491.443 528.43 491.383 529.099C491.323 529.767 491.4 530.441 491.608 531.079C491.817 531.717 492.153 532.306 492.595 532.809C493.038 533.313 493.579 533.721 494.184 534.008C494.789 534.296 495.447 534.456 496.116 534.481C496.785 534.505 497.452 534.392 498.077 534.15C498.701 533.907 499.27 533.54 499.748 533.07L504.679 528.704L504.782 528.592C505.321 528.874 505.877 529.12 506.447 529.329V535.262C506.503 536.537 507.047 537.742 507.967 538.624C508.886 539.507 510.11 540 511.384 540C512.657 540 513.881 539.507 514.801 538.624C515.721 537.742 516.265 536.537 516.32 535.262V529.329C516.664 529.199 516.999 529.059 517.334 528.91L522.164 533.079C523.161 533.854 524.416 534.216 525.671 534.091C526.926 533.966 528.086 533.364 528.912 532.408C529.738 531.452 530.167 530.216 530.111 528.953C530.055 527.689 529.519 526.496 528.612 525.617L524.313 521.886C524.472 521.549 524.611 521.203 524.732 520.85H531.068C531.717 520.85 532.359 520.722 532.958 520.473C533.557 520.224 534.101 519.859 534.559 519.399C535.017 518.939 535.38 518.393 535.627 517.792C535.875 517.191 536.001 516.547 536 515.897V515.897C535.986 514.607 535.468 513.374 534.559 512.461C533.65 511.547 532.42 511.027 531.133 511.01V511.01Z" fill="#FFC1EB"/>
<path d="M531.133 511.01H524.741C524.62 510.683 524.48 510.357 524.332 510.077L528.984 505.926C529.509 505.509 529.944 504.99 530.262 504.399C530.581 503.809 530.776 503.159 530.836 502.491C530.895 501.822 530.819 501.148 530.61 500.51C530.402 499.872 530.066 499.284 529.623 498.78C529.18 498.277 528.639 497.869 528.034 497.581C527.429 497.294 526.772 497.133 526.103 497.109C525.433 497.085 524.766 497.197 524.142 497.44C523.517 497.682 522.949 498.05 522.471 498.52L517.548 502.885C517.464 502.96 517.409 503.044 517.334 503.118C517.027 502.969 516.711 502.848 516.404 502.727V496.738C516.348 495.463 515.804 494.258 514.885 493.376C513.965 492.493 512.741 492 511.467 492C510.194 492 508.97 492.493 508.05 493.376C507.131 494.258 506.586 495.463 506.531 496.738V502.736C506.077 502.901 505.633 503.091 505.201 503.305C505.058 503.137 504.906 502.978 504.745 502.829L499.701 498.473C499.219 498.006 498.648 497.642 498.021 497.404C497.394 497.166 496.725 497.059 496.056 497.089C495.386 497.118 494.729 497.285 494.126 497.577C493.522 497.87 492.985 498.283 492.546 498.791C492.107 499.298 491.776 499.891 491.573 500.531C491.37 501.172 491.3 501.847 491.366 502.515C491.432 503.184 491.634 503.832 491.958 504.42C492.282 505.008 492.723 505.524 493.253 505.935L498.24 510.245C498.282 510.278 498.326 510.309 498.371 510.338C498.278 510.553 498.203 510.767 498.119 510.982H491.932C491.284 510.982 490.643 511.11 490.044 511.358C489.446 511.606 488.902 511.971 488.444 512.43C487.986 512.889 487.623 513.434 487.375 514.033C487.128 514.633 487 515.276 487 515.925V515.925C486.999 516.575 487.125 517.219 487.373 517.82C487.62 518.421 487.983 518.967 488.441 519.427C488.899 519.887 489.443 520.252 490.042 520.501C490.641 520.75 491.283 520.878 491.932 520.878H498.064C498.11 521.018 498.157 521.158 498.212 521.289H498.166L493.234 525.664C492.709 526.08 492.274 526.6 491.956 527.19C491.638 527.781 491.443 528.43 491.383 529.099C491.323 529.767 491.4 530.441 491.608 531.079C491.817 531.717 492.153 532.306 492.595 532.809C493.038 533.313 493.579 533.721 494.184 534.008C494.789 534.296 495.447 534.456 496.116 534.481C496.785 534.505 497.452 534.392 498.077 534.15C498.701 533.907 499.27 533.54 499.748 533.07L504.679 528.704L504.782 528.592C505.321 528.874 505.877 529.12 506.447 529.329V535.262C506.503 536.537 507.047 537.742 507.967 538.624C508.886 539.507 510.11 540 511.384 540C512.657 540 513.881 539.507 514.801 538.624C515.721 537.742 516.265 536.537 516.32 535.262V529.329C516.664 529.199 516.999 529.059 517.334 528.91L522.164 533.079C523.161 533.854 524.416 534.216 525.671 534.091C526.926 533.966 528.086 533.364 528.912 532.408C529.738 531.452 530.167 530.216 530.111 528.953C530.055 527.689 529.519 526.496 528.612 525.617L524.313 521.886C524.472 521.549 524.611 521.203 524.732 520.85H531.068C531.717 520.85 532.359 520.722 532.958 520.473C533.557 520.224 534.101 519.859 534.559 519.399C535.017 518.939 535.38 518.393 535.627 517.792C535.875 517.191 536.001 516.547 536 515.897V515.897C535.986 514.607 535.468 513.374 534.559 512.461C533.65 511.547 532.42 511.027 531.133 511.01V511.01Z" fill="#FFC1EB"/>
<path d="M531.133 511.01H524.741C524.62 510.683 524.48 510.357 524.332 510.077L528.984 505.926C529.509 505.509 529.944 504.99 530.262 504.399C530.581 503.809 530.776 503.159 530.836 502.491C530.895 501.822 530.819 501.148 530.61 500.51C530.402 499.872 530.066 499.284 529.623 498.78C529.18 498.277 528.639 497.869 528.034 497.581C527.429 497.294 526.772 497.133 526.103 497.109C525.433 497.085 524.766 497.197 524.142 497.44C523.517 497.682 522.949 498.05 522.471 498.52L517.548 502.885C517.464 502.96 517.409 503.044 517.334 503.118C517.027 502.969 516.711 502.848 516.404 502.727V496.738C516.348 495.463 515.804 494.258 514.885 493.376C513.965 492.493 512.741 492 511.467 492C510.194 492 508.97 492.493 508.05 493.376C507.131 494.258 506.586 495.463 506.531 496.738V502.736C506.077 502.901 505.633 503.091 505.201 503.305C505.058 503.137 504.906 502.978 504.745 502.829L499.701 498.473C499.219 498.006 498.648 497.642 498.021 497.404C497.394 497.166 496.725 497.059 496.056 497.089C495.386 497.118 494.729 497.285 494.126 497.577C493.522 497.87 492.985 498.283 492.546 498.791C492.107 499.298 491.776 499.891 491.573 500.531C491.37 501.172 491.3 501.847 491.366 502.515C491.432 503.184 491.634 503.832 491.958 504.42C492.282 505.008 492.723 505.524 493.253 505.935L498.24 510.245C498.282 510.278 498.326 510.309 498.371 510.338C498.278 510.553 498.203 510.767 498.119 510.982H491.932C491.284 510.982 490.643 511.11 490.044 511.358C489.446 511.606 488.902 511.971 488.444 512.43C487.986 512.889 487.623 513.434 487.375 514.033C487.128 514.633 487 515.276 487 515.925V515.925C486.999 516.575 487.125 517.219 487.373 517.82C487.62 518.421 487.983 518.967 488.441 519.427C488.899 519.887 489.443 520.252 490.042 520.501C490.641 520.75 491.283 520.878 491.932 520.878H498.064C498.11 521.018 498.157 521.158 498.212 521.289H498.166L493.234 525.664C492.709 526.08 492.274 526.6 491.956 527.19C491.638 527.781 491.443 528.43 491.383 529.099C491.323 529.767 491.4 530.441 491.608 531.079C491.817 531.717 492.153 532.306 492.595 532.809C493.038 533.313 493.579 533.721 494.184 534.008C494.789 534.296 495.447 534.456 496.116 534.481C496.785 534.505 497.452 534.392 498.077 534.15C498.701 533.907 499.27 533.54 499.748 533.07L504.679 528.704L504.782 528.592C505.321 528.874 505.877 529.12 506.447 529.329V535.262C506.503 536.537 507.047 537.742 507.967 538.624C508.886 539.507 510.11 540 511.384 540C512.657 540 513.881 539.507 514.801 538.624C515.721 537.742 516.265 536.537 516.32 535.262V529.329C516.664 529.199 516.999 529.059 517.334 528.91L522.164 533.079C523.161 533.854 524.416 534.216 525.671 534.091C526.926 533.966 528.086 533.364 528.912 532.408C529.738 531.452 530.167 530.216 530.111 528.953C530.055 527.689 529.519 526.496 528.612 525.617L524.313 521.886C524.472 521.549 524.611 521.203 524.732 520.85H531.068C531.717 520.85 532.359 520.722 532.958 520.473C533.557 520.224 534.101 519.859 534.559 519.399C535.017 518.939 535.38 518.393 535.627 517.792C535.875 517.191 536.001 516.547 536 515.897V515.897C535.986 514.607 535.468 513.374 534.559 512.461C533.65 511.547 532.42 511.027 531.133 511.01V511.01Z" fill="#FFC1EB"/>
<path d="M531.133 511.01H524.741C524.62 510.683 524.48 510.357 524.332 510.077L528.984 505.926C529.509 505.509 529.944 504.99 530.262 504.399C530.581 503.809 530.776 503.159 530.836 502.491C530.895 501.822 530.819 501.148 530.61 500.51C530.402 499.872 530.066 499.284 529.623 498.78C529.18 498.277 528.639 497.869 528.034 497.581C527.429 497.294 526.772 497.133 526.103 497.109C525.433 497.085 524.766 497.197 524.142 497.44C523.517 497.682 522.949 498.05 522.471 498.52L517.548 502.885C517.464 502.96 517.409 503.044 517.334 503.118C517.027 502.969 516.711 502.848 516.404 502.727V496.738C516.348 495.463 515.804 494.258 514.885 493.376C513.965 492.493 512.741 492 511.467 492C510.194 492 508.97 492.493 508.05 493.376C507.131 494.258 506.586 495.463 506.531 496.738V502.736C506.077 502.901 505.633 503.091 505.201 503.305C505.058 503.137 504.906 502.978 504.745 502.829L499.701 498.473C499.219 498.006 498.648 497.642 498.021 497.404C497.394 497.166 496.725 497.059 496.056 497.089C495.386 497.118 494.729 497.285 494.126 497.577C493.522 497.87 492.985 498.283 492.546 498.791C492.107 499.298 491.776 499.891 491.573 500.531C491.37 501.172 491.3 501.847 491.366 502.515C491.432 503.184 491.634 503.832 491.958 504.42C492.282 505.008 492.723 505.524 493.253 505.935L498.24 510.245C498.282 510.278 498.326 510.309 498.371 510.338C498.278 510.553 498.203 510.767 498.119 510.982H491.932C491.284 510.982 490.643 511.11 490.044 511.358C489.446 511.606 488.902 511.971 488.444 512.43C487.986 512.889 487.623 513.434 487.375 514.033C487.128 514.633 487 515.276 487 515.925V515.925C486.999 516.575 487.125 517.219 487.373 517.82C487.62 518.421 487.983 518.967 488.441 519.427C488.899 519.887 489.443 520.252 490.042 520.501C490.641 520.75 491.283 520.878 491.932 520.878H498.064C498.11 521.018 498.157 521.158 498.212 521.289H498.166L493.234 525.664C492.709 526.08 492.274 526.6 491.956 527.19C491.638 527.781 491.443 528.43 491.383 529.099C491.323 529.767 491.4 530.441 491.608 531.079C491.817 531.717 492.153 532.306 492.595 532.809C493.038 533.313 493.579 533.721 494.184 534.008C494.789 534.296 495.447 534.456 496.116 534.481C496.785 534.505 497.452 534.392 498.077 534.15C498.701 533.907 499.27 533.54 499.748 533.07L504.679 528.704L504.782 528.592C505.321 528.874 505.877 529.12 506.447 529.329V535.262C506.503 536.537 507.047 537.742 507.967 538.624C508.886 539.507 510.11 540 511.384 540C512.657 540 513.881 539.507 514.801 538.624C515.721 537.742 516.265 536.537 516.32 535.262V529.329C516.664 529.199 516.999 529.059 517.334 528.91L522.164 533.079C523.161 533.854 524.416 534.216 525.671 534.091C526.926 533.966 528.086 533.364 528.912 532.408C529.738 531.452 530.167 530.216 530.111 528.953C530.055 527.689 529.519 526.496 528.612 525.617L524.313 521.886C524.472 521.549 524.611 521.203 524.732 520.85H531.068C531.717 520.85 532.359 520.722 532.958 520.473C533.557 520.224 534.101 519.859 534.559 519.399C535.017 518.939 535.38 518.393 535.627 517.792C535.875 517.191 536.001 516.547 536 515.897V515.897C535.986 514.607 535.468 513.374 534.559 512.461C533.65 511.547 532.42 511.027 531.133 511.01V511.01Z" fill="#FFC1EB"/>
<path d="M464.524 565.38L458.746 568.392C458.48 568.159 458.204 567.933 457.919 567.712L460.19 561.783C460.425 561.168 460.535 560.513 460.515 559.856C460.495 559.199 460.345 558.552 460.073 557.952C459.801 557.352 459.413 556.812 458.931 556.361C458.449 555.91 457.882 555.558 457.263 555.325C456.644 555.092 455.985 554.982 455.324 555.002C454.662 555.022 454.011 555.172 453.407 555.442C452.804 555.712 452.259 556.097 451.806 556.576C451.352 557.055 450.998 557.618 450.763 558.233L448.378 564.474C448.344 564.573 448.315 564.674 448.292 564.776C447.941 564.776 447.599 564.833 447.247 564.87L444.396 559.517C443.75 558.385 442.687 557.547 441.43 557.179C440.173 556.812 438.822 556.945 437.662 557.549C436.502 558.154 435.624 559.182 435.214 560.418C434.803 561.654 434.893 563 435.463 564.172L438.314 569.535C437.977 569.898 437.66 570.279 437.364 570.677C437.159 570.585 436.946 570.512 436.727 570.46L430.179 568.949C429.535 568.8 428.867 568.779 428.214 568.887C427.561 568.994 426.936 569.229 426.375 569.576C425.813 569.924 425.326 570.378 424.941 570.913C424.556 571.448 424.28 572.052 424.131 572.693C423.981 573.333 423.96 573.997 424.068 574.645C424.176 575.294 424.412 575.915 424.762 576.473C425.112 577.031 425.569 577.515 426.107 577.897C426.645 578.28 427.254 578.553 427.899 578.702L434.446 580.213C434.5 580.217 434.554 580.217 434.608 580.213C434.608 580.449 434.655 580.685 434.684 580.912L429.096 583.829C427.914 584.448 427.027 585.507 426.63 586.774C426.233 588.041 426.358 589.413 426.977 590.589V590.589C427.283 591.172 427.703 591.69 428.211 592.111C428.719 592.533 429.306 592.851 429.939 593.047C430.571 593.242 431.236 593.312 431.895 593.251C432.555 593.191 433.196 593.002 433.781 592.695L439.321 589.805L439.654 590.108V590.164L437.259 596.386C436.843 597.615 436.921 598.956 437.479 600.128C438.036 601.3 439.029 602.212 440.249 602.673C441.469 603.134 442.821 603.107 444.021 602.598C445.221 602.09 446.177 601.139 446.686 599.946L449.072 593.695C449.072 593.648 449.072 593.601 449.072 593.554C449.707 593.552 450.342 593.511 450.972 593.431L453.823 598.737C454.469 599.869 455.533 600.708 456.789 601.075C458.046 601.442 459.397 601.309 460.557 600.705C461.717 600.101 462.595 599.072 463.006 597.836C463.416 596.6 463.327 595.254 462.756 594.082L459.905 588.767C460.152 588.493 460.399 588.21 460.628 587.917L466.966 589.381C468.252 589.636 469.587 589.383 470.689 588.677C471.791 587.971 472.573 586.867 472.869 585.598C473.166 584.329 472.953 582.995 472.277 581.879C471.601 580.763 470.514 579.952 469.247 579.618L463.602 578.315C463.602 577.947 463.545 577.569 463.497 577.192L469.199 574.208C470.381 573.59 471.268 572.53 471.665 571.263C472.063 569.996 471.938 568.624 471.319 567.448V567.448C470.693 566.279 469.626 565.405 468.352 565.017C467.078 564.629 465.701 564.76 464.524 565.38V565.38Z" fill="#FFC1EB"/>
<path d="M464.524 565.38L458.746 568.392C458.48 568.159 458.204 567.933 457.919 567.712L460.19 561.783C460.425 561.168 460.535 560.513 460.515 559.856C460.495 559.199 460.345 558.552 460.073 557.952C459.801 557.352 459.413 556.812 458.931 556.361C458.449 555.91 457.882 555.558 457.263 555.325C456.644 555.092 455.985 554.982 455.324 555.002C454.662 555.022 454.011 555.172 453.407 555.442C452.804 555.712 452.259 556.097 451.806 556.576C451.352 557.055 450.998 557.618 450.763 558.233L448.378 564.474C448.344 564.573 448.315 564.674 448.292 564.776C447.941 564.776 447.599 564.833 447.247 564.87L444.396 559.517C443.75 558.385 442.687 557.547 441.43 557.179C440.173 556.812 438.822 556.945 437.662 557.549C436.502 558.154 435.624 559.182 435.214 560.418C434.803 561.654 434.893 563 435.463 564.172L438.314 569.535C437.977 569.898 437.66 570.279 437.364 570.677C437.159 570.585 436.946 570.512 436.727 570.46L430.179 568.949C429.535 568.8 428.867 568.779 428.214 568.887C427.561 568.994 426.936 569.229 426.375 569.576C425.813 569.924 425.326 570.378 424.941 570.913C424.556 571.448 424.28 572.052 424.131 572.693C423.981 573.333 423.96 573.997 424.068 574.645C424.176 575.294 424.412 575.915 424.762 576.473C425.112 577.031 425.569 577.515 426.107 577.897C426.645 578.28 427.254 578.553 427.899 578.702L434.446 580.213C434.5 580.217 434.554 580.217 434.608 580.213C434.608 580.449 434.655 580.685 434.684 580.912L429.096 583.829C427.914 584.448 427.027 585.507 426.63 586.774C426.233 588.041 426.358 589.413 426.977 590.589V590.589C427.283 591.172 427.703 591.69 428.211 592.111C428.719 592.533 429.306 592.851 429.939 593.047C430.571 593.242 431.236 593.312 431.895 593.251C432.555 593.191 433.196 593.002 433.781 592.695L439.321 589.805L439.654 590.108V590.164L437.259 596.386C436.843 597.615 436.921 598.956 437.479 600.128C438.036 601.3 439.029 602.212 440.249 602.673C441.469 603.134 442.821 603.107 444.021 602.598C445.221 602.09 446.177 601.139 446.686 599.946L449.072 593.695C449.072 593.648 449.072 593.601 449.072 593.554C449.707 593.552 450.342 593.511 450.972 593.431L453.823 598.737C454.469 599.869 455.533 600.708 456.789 601.075C458.046 601.442 459.397 601.309 460.557 600.705C461.717 600.101 462.595 599.072 463.006 597.836C463.416 596.6 463.327 595.254 462.756 594.082L459.905 588.767C460.152 588.493 460.399 588.21 460.628 587.917L466.966 589.381C468.252 589.636 469.587 589.383 470.689 588.677C471.791 587.971 472.573 586.867 472.869 585.598C473.166 584.329 472.953 582.995 472.277 581.879C471.601 580.763 470.514 579.952 469.247 579.618L463.602 578.315C463.602 577.947 463.545 577.569 463.497 577.192L469.199 574.208C470.381 573.59 471.268 572.53 471.665 571.263C472.063 569.996 471.938 568.624 471.319 567.448V567.448C470.693 566.279 469.626 565.405 468.352 565.017C467.078 564.629 465.701 564.76 464.524 565.38V565.38Z" fill="#FFC1EB"/>
<path d="M464.524 565.38L458.746 568.392C458.48 568.159 458.204 567.933 457.919 567.712L460.19 561.783C460.425 561.168 460.535 560.513 460.515 559.856C460.495 559.199 460.345 558.552 460.073 557.952C459.801 557.352 459.413 556.812 458.931 556.361C458.449 555.91 457.882 555.558 457.263 555.325C456.644 555.092 455.985 554.982 455.324 555.002C454.662 555.022 454.011 555.172 453.407 555.442C452.804 555.712 452.259 556.097 451.806 556.576C451.352 557.055 450.998 557.618 450.763 558.233L448.378 564.474C448.344 564.573 448.315 564.674 448.292 564.776C447.941 564.776 447.599 564.833 447.247 564.87L444.396 559.517C443.75 558.385 442.687 557.547 441.43 557.179C440.173 556.812 438.822 556.945 437.662 557.549C436.502 558.154 435.624 559.182 435.214 560.418C434.803 561.654 434.893 563 435.463 564.172L438.314 569.535C437.977 569.898 437.66 570.279 437.364 570.677C437.159 570.585 436.946 570.512 436.727 570.46L430.179 568.949C429.535 568.8 428.867 568.779 428.214 568.887C427.561 568.994 426.936 569.229 426.375 569.576C425.813 569.924 425.326 570.378 424.941 570.913C424.556 571.448 424.28 572.052 424.131 572.693C423.981 573.333 423.96 573.997 424.068 574.645C424.176 575.294 424.412 575.915 424.762 576.473C425.112 577.031 425.569 577.515 426.107 577.897C426.645 578.28 427.254 578.553 427.899 578.702L434.446 580.213C434.5 580.217 434.554 580.217 434.608 580.213C434.608 580.449 434.655 580.685 434.684 580.912L429.096 583.829C427.914 584.448 427.027 585.507 426.63 586.774C426.233 588.041 426.358 589.413 426.977 590.589V590.589C427.283 591.172 427.703 591.69 428.211 592.111C428.719 592.533 429.306 592.851 429.939 593.047C430.571 593.242 431.236 593.312 431.895 593.251C432.555 593.191 433.196 593.002 433.781 592.695L439.321 589.805L439.654 590.108V590.164L437.259 596.386C436.843 597.615 436.921 598.956 437.479 600.128C438.036 601.3 439.029 602.212 440.249 602.673C441.469 603.134 442.821 603.107 444.021 602.598C445.221 602.09 446.177 601.139 446.686 599.946L449.072 593.695C449.072 593.648 449.072 593.601 449.072 593.554C449.707 593.552 450.342 593.511 450.972 593.431L453.823 598.737C454.469 599.869 455.533 600.708 456.789 601.075C458.046 601.442 459.397 601.309 460.557 600.705C461.717 600.101 462.595 599.072 463.006 597.836C463.416 596.6 463.327 595.254 462.756 594.082L459.905 588.767C460.152 588.493 460.399 588.21 460.628 587.917L466.966 589.381C468.252 589.636 469.587 589.383 470.689 588.677C471.791 587.971 472.573 586.867 472.869 585.598C473.166 584.329 472.953 582.995 472.277 581.879C471.601 580.763 470.514 579.952 469.247 579.618L463.602 578.315C463.602 577.947 463.545 577.569 463.497 577.192L469.199 574.208C470.381 573.59 471.268 572.53 471.665 571.263C472.063 569.996 471.938 568.624 471.319 567.448V567.448C470.693 566.279 469.626 565.405 468.352 565.017C467.078 564.629 465.701 564.76 464.524 565.38V565.38Z" fill="#FFC1EB"/>
<path d="M464.524 565.38L458.746 568.392C458.48 568.159 458.204 567.933 457.919 567.712L460.19 561.783C460.425 561.168 460.535 560.513 460.515 559.856C460.495 559.199 460.345 558.552 460.073 557.952C459.801 557.352 459.413 556.812 458.931 556.361C458.449 555.91 457.882 555.558 457.263 555.325C456.644 555.092 455.985 554.982 455.324 555.002C454.662 555.022 454.011 555.172 453.407 555.442C452.804 555.712 452.259 556.097 451.806 556.576C451.352 557.055 450.998 557.618 450.763 558.233L448.378 564.474C448.344 564.573 448.315 564.674 448.292 564.776C447.941 564.776 447.599 564.833 447.247 564.87L444.396 559.517C443.75 558.385 442.687 557.547 441.43 557.179C440.173 556.812 438.822 556.945 437.662 557.549C436.502 558.154 435.624 559.182 435.214 560.418C434.803 561.654 434.893 563 435.463 564.172L438.314 569.535C437.977 569.898 437.66 570.279 437.364 570.677C437.159 570.585 436.946 570.512 436.727 570.46L430.179 568.949C429.535 568.8 428.867 568.779 428.214 568.887C427.561 568.994 426.936 569.229 426.375 569.576C425.813 569.924 425.326 570.378 424.941 570.913C424.556 571.448 424.28 572.052 424.131 572.693C423.981 573.333 423.96 573.997 424.068 574.645C424.176 575.294 424.412 575.915 424.762 576.473C425.112 577.031 425.569 577.515 426.107 577.897C426.645 578.28 427.254 578.553 427.899 578.702L434.446 580.213C434.5 580.217 434.554 580.217 434.608 580.213C434.608 580.449 434.655 580.685 434.684 580.912L429.096 583.829C427.914 584.448 427.027 585.507 426.63 586.774C426.233 588.041 426.358 589.413 426.977 590.589V590.589C427.283 591.172 427.703 591.69 428.211 592.111C428.719 592.533 429.306 592.851 429.939 593.047C430.571 593.242 431.236 593.312 431.895 593.251C432.555 593.191 433.196 593.002 433.781 592.695L439.321 589.805L439.654 590.108V590.164L437.259 596.386C436.843 597.615 436.921 598.956 437.479 600.128C438.036 601.3 439.029 602.212 440.249 602.673C441.469 603.134 442.821 603.107 444.021 602.598C445.221 602.09 446.177 601.139 446.686 599.946L449.072 593.695C449.072 593.648 449.072 593.601 449.072 593.554C449.707 593.552 450.342 593.511 450.972 593.431L453.823 598.737C454.469 599.869 455.533 600.708 456.789 601.075C458.046 601.442 459.397 601.309 460.557 600.705C461.717 600.101 462.595 599.072 463.006 597.836C463.416 596.6 463.327 595.254 462.756 594.082L459.905 588.767C460.152 588.493 460.399 588.21 460.628 587.917L466.966 589.381C468.252 589.636 469.587 589.383 470.689 588.677C471.791 587.971 472.573 586.867 472.869 585.598C473.166 584.329 472.953 582.995 472.277 581.879C471.601 580.763 470.514 579.952 469.247 579.618L463.602 578.315C463.602 577.947 463.545 577.569 463.497 577.192L469.199 574.208C470.381 573.59 471.268 572.53 471.665 571.263C472.063 569.996 471.938 568.624 471.319 567.448V567.448C470.693 566.279 469.626 565.405 468.352 565.017C467.078 564.629 465.701 564.76 464.524 565.38V565.38Z" fill="#FFC1EB"/>
<path d="M464.524 565.38L458.746 568.392C458.48 568.159 458.204 567.933 457.919 567.712L460.19 561.783C460.425 561.168 460.535 560.513 460.515 559.856C460.495 559.199 460.345 558.552 460.073 557.952C459.801 557.352 459.413 556.812 458.931 556.361C458.449 555.91 457.882 555.558 457.263 555.325C456.644 555.092 455.985 554.982 455.324 555.002C454.662 555.022 454.011 555.172 453.407 555.442C452.804 555.712 452.259 556.097 451.806 556.576C451.352 557.055 450.998 557.618 450.763 558.233L448.378 564.474C448.344 564.573 448.315 564.674 448.292 564.776C447.941 564.776 447.599 564.833 447.247 564.87L444.396 559.517C443.75 558.385 442.687 557.547 441.43 557.179C440.173 556.812 438.822 556.945 437.662 557.549C436.502 558.154 435.624 559.182 435.214 560.418C434.803 561.654 434.893 563 435.463 564.172L438.314 569.535C437.977 569.898 437.66 570.279 437.364 570.677C437.159 570.585 436.946 570.512 436.727 570.46L430.179 568.949C429.535 568.8 428.867 568.779 428.214 568.887C427.561 568.994 426.936 569.229 426.375 569.576C425.813 569.924 425.326 570.378 424.941 570.913C424.556 571.448 424.28 572.052 424.131 572.693C423.981 573.333 423.96 573.997 424.068 574.645C424.176 575.294 424.412 575.915 424.762 576.473C425.112 577.031 425.569 577.515 426.107 577.897C426.645 578.28 427.254 578.553 427.899 578.702L434.446 580.213C434.5 580.217 434.554 580.217 434.608 580.213C434.608 580.449 434.655 580.685 434.684 580.912L429.096 583.829C427.914 584.448 427.027 585.507 426.63 586.774C426.233 588.041 426.358 589.413 426.977 590.589V590.589C427.283 591.172 427.703 591.69 428.211 592.111C428.719 592.533 429.306 592.851 429.939 593.047C430.571 593.242 431.236 593.312 431.895 593.251C432.555 593.191 433.196 593.002 433.781 592.695L439.321 589.805L439.654 590.108V590.164L437.259 596.386C436.843 597.615 436.921 598.956 437.479 600.128C438.036 601.3 439.029 602.212 440.249 602.673C441.469 603.134 442.821 603.107 444.021 602.598C445.221 602.09 446.177 601.139 446.686 599.946L449.072 593.695C449.072 593.648 449.072 593.601 449.072 593.554C449.707 593.552 450.342 593.511 450.972 593.431L453.823 598.737C454.469 599.869 455.533 600.708 456.789 601.075C458.046 601.442 459.397 601.309 460.557 600.705C461.717 600.101 462.595 599.072 463.006 597.836C463.416 596.6 463.327 595.254 462.756 594.082L459.905 588.767C460.152 588.493 460.399 588.21 460.628 587.917L466.966 589.381C468.252 589.636 469.587 589.383 470.689 588.677C471.791 587.971 472.573 586.867 472.869 585.598C473.166 584.329 472.953 582.995 472.277 581.879C471.601 580.763 470.514 579.952 469.247 579.618L463.602 578.315C463.602 577.947 463.545 577.569 463.497 577.192L469.199 574.208C470.381 573.59 471.268 572.53 471.665 571.263C472.063 569.996 471.938 568.624 471.319 567.448V567.448C470.693 566.279 469.626 565.405 468.352 565.017C467.078 564.629 465.701 564.76 464.524 565.38V565.38Z" fill="#FFC1EB"/>
<path d="M464.524 565.38L458.746 568.392C458.48 568.159 458.204 567.933 457.919 567.712L460.19 561.783C460.425 561.168 460.535 560.513 460.515 559.856C460.495 559.199 460.345 558.552 460.073 557.952C459.801 557.352 459.413 556.812 458.931 556.361C458.449 555.91 457.882 555.558 457.263 555.325C456.644 555.092 455.985 554.982 455.324 555.002C454.662 555.022 454.011 555.172 453.407 555.442C452.804 555.712 452.259 556.097 451.806 556.576C451.352 557.055 450.998 557.618 450.763 558.233L448.378 564.474C448.344 564.573 448.315 564.674 448.292 564.776C447.941 564.776 447.599 564.833 447.247 564.87L444.396 559.517C443.75 558.385 442.687 557.547 441.43 557.179C440.173 556.812 438.822 556.945 437.662 557.549C436.502 558.154 435.624 559.182 435.214 560.418C434.803 561.654 434.893 563 435.463 564.172L438.314 569.535C437.977 569.898 437.66 570.279 437.364 570.677C437.159 570.585 436.946 570.512 436.727 570.46L430.179 568.949C429.535 568.8 428.867 568.779 428.214 568.887C427.561 568.994 426.936 569.229 426.375 569.576C425.813 569.924 425.326 570.378 424.941 570.913C424.556 571.448 424.28 572.052 424.131 572.693C423.981 573.333 423.96 573.997 424.068 574.645C424.176 575.294 424.412 575.915 424.762 576.473C425.112 577.031 425.569 577.515 426.107 577.897C426.645 578.28 427.254 578.553 427.899 578.702L434.446 580.213C434.5 580.217 434.554 580.217 434.608 580.213C434.608 580.449 434.655 580.685 434.684 580.912L429.096 583.829C427.914 584.448 427.027 585.507 426.63 586.774C426.233 588.041 426.358 589.413 426.977 590.589V590.589C427.283 591.172 427.703 591.69 428.211 592.111C428.719 592.533 429.306 592.851 429.939 593.047C430.571 593.242 431.236 593.312 431.895 593.251C432.555 593.191 433.196 593.002 433.781 592.695L439.321 589.805L439.654 590.108V590.164L437.259 596.386C436.843 597.615 436.921 598.956 437.479 600.128C438.036 601.3 439.029 602.212 440.249 602.673C441.469 603.134 442.821 603.107 444.021 602.598C445.221 602.09 446.177 601.139 446.686 599.946L449.072 593.695C449.072 593.648 449.072 593.601 449.072 593.554C449.707 593.552 450.342 593.511 450.972 593.431L453.823 598.737C454.469 599.869 455.533 600.708 456.789 601.075C458.046 601.442 459.397 601.309 460.557 600.705C461.717 600.101 462.595 599.072 463.006 597.836C463.416 596.6 463.327 595.254 462.756 594.082L459.905 588.767C460.152 588.493 460.399 588.21 460.628 587.917L466.966 589.381C468.252 589.636 469.587 589.383 470.689 588.677C471.791 587.971 472.573 586.867 472.869 585.598C473.166 584.329 472.953 582.995 472.277 581.879C471.601 580.763 470.514 579.952 469.247 579.618L463.602 578.315C463.602 577.947 463.545 577.569 463.497 577.192L469.199 574.208C470.381 573.59 471.268 572.53 471.665 571.263C472.063 569.996 471.938 568.624 471.319 567.448V567.448C470.693 566.279 469.626 565.405 468.352 565.017C467.078 564.629 465.701 564.76 464.524 565.38V565.38Z" fill="#FFC1EB"/>
<path d="M464.524 565.38L458.746 568.392C458.48 568.159 458.204 567.933 457.919 567.712L460.19 561.783C460.425 561.168 460.535 560.513 460.515 559.856C460.495 559.199 460.345 558.552 460.073 557.952C459.801 557.352 459.413 556.812 458.931 556.361C458.449 555.91 457.882 555.558 457.263 555.325C456.644 555.092 455.985 554.982 455.324 555.002C454.662 555.022 454.011 555.172 453.407 555.442C452.804 555.712 452.259 556.097 451.806 556.576C451.352 557.055 450.998 557.618 450.763 558.233L448.378 564.474C448.344 564.573 448.315 564.674 448.292 564.776C447.941 564.776 447.599 564.833 447.247 564.87L444.396 559.517C443.75 558.385 442.687 557.547 441.43 557.179C440.173 556.812 438.822 556.945 437.662 557.549C436.502 558.154 435.624 559.182 435.214 560.418C434.803 561.654 434.893 563 435.463 564.172L438.314 569.535C437.977 569.898 437.66 570.279 437.364 570.677C437.159 570.585 436.946 570.512 436.727 570.46L430.179 568.949C429.535 568.8 428.867 568.779 428.214 568.887C427.561 568.994 426.936 569.229 426.375 569.576C425.813 569.924 425.326 570.378 424.941 570.913C424.556 571.448 424.28 572.052 424.131 572.693C423.981 573.333 423.96 573.997 424.068 574.645C424.176 575.294 424.412 575.915 424.762 576.473C425.112 577.031 425.569 577.515 426.107 577.897C426.645 578.28 427.254 578.553 427.899 578.702L434.446 580.213C434.5 580.217 434.554 580.217 434.608 580.213C434.608 580.449 434.655 580.685 434.684 580.912L429.096 583.829C427.914 584.448 427.027 585.507 426.63 586.774C426.233 588.041 426.358 589.413 426.977 590.589V590.589C427.283 591.172 427.703 591.69 428.211 592.111C428.719 592.533 429.306 592.851 429.939 593.047C430.571 593.242 431.236 593.312 431.895 593.251C432.555 593.191 433.196 593.002 433.781 592.695L439.321 589.805L439.654 590.108V590.164L437.259 596.386C436.843 597.615 436.921 598.956 437.479 600.128C438.036 601.3 439.029 602.212 440.249 602.673C441.469 603.134 442.821 603.107 444.021 602.598C445.221 602.09 446.177 601.139 446.686 599.946L449.072 593.695C449.072 593.648 449.072 593.601 449.072 593.554C449.707 593.552 450.342 593.511 450.972 593.431L453.823 598.737C454.469 599.869 455.533 600.708 456.789 601.075C458.046 601.442 459.397 601.309 460.557 600.705C461.717 600.101 462.595 599.072 463.006 597.836C463.416 596.6 463.327 595.254 462.756 594.082L459.905 588.767C460.152 588.493 460.399 588.21 460.628 587.917L466.966 589.381C468.252 589.636 469.587 589.383 470.689 588.677C471.791 587.971 472.573 586.867 472.869 585.598C473.166 584.329 472.953 582.995 472.277 581.879C471.601 580.763 470.514 579.952 469.247 579.618L463.602 578.315C463.602 577.947 463.545 577.569 463.497 577.192L469.199 574.208C470.381 573.59 471.268 572.53 471.665 571.263C472.063 569.996 471.938 568.624 471.319 567.448V567.448C470.693 566.279 469.626 565.405 468.352 565.017C467.078 564.629 465.701 564.76 464.524 565.38V565.38Z" fill="#FFC1EB"/>
<path d="M450.5 518C460.717 518 469 509.717 469 499.5C469 489.283 460.717 481 450.5 481C440.283 481 432 489.283 432 499.5C432 509.717 440.283 518 450.5 518Z" fill="#FFBB45"/>
<path d="M514 590C521.18 590 527 584.18 527 577C527 569.82 521.18 564 514 564C506.82 564 501 569.82 501 577C501 584.18 506.82 590 514 590Z" fill="#FFBB45"/>
<path d="M509.677 647.239L510.532 623.456C510.557 622.75 510.439 622.045 510.184 621.385C509.928 620.724 509.541 620.122 509.046 619.612C508.55 619.103 507.956 618.698 507.299 618.421C506.643 618.144 505.936 618.001 505.222 618H466.648C465.93 618.001 465.22 618.145 464.56 618.425C463.9 618.705 463.305 619.115 462.809 619.629C462.314 620.144 461.929 620.752 461.678 621.418C461.426 622.084 461.314 622.793 461.347 623.504L462.354 645.865C462.462 648.175 461.935 650.47 460.829 652.506C459.723 654.543 458.081 656.243 456.076 657.428C447.128 662.701 439.733 670.207 434.632 679.197C429.53 688.186 426.899 698.344 427.003 708.656C427.106 718.968 429.94 729.072 435.221 737.96C440.503 746.847 448.046 754.207 457.098 759.302C466.15 764.398 476.394 767.052 486.806 766.999C497.218 766.946 507.434 764.188 516.432 759C525.431 753.812 532.898 746.377 538.086 737.436C543.275 728.495 546.004 718.362 546 708.05C546 685.886 533.87 667.701 515.652 657.86C513.761 656.811 512.201 655.262 511.147 653.387C510.092 651.512 509.583 649.384 509.677 647.239V647.239Z" fill="white"/>
<path d="M486.989 769C486.499 769 485.999 769 485.499 769C472.279 768.683 459.52 764.078 449.147 755.882C438.774 747.685 431.351 736.341 427.995 723.56C424.64 710.779 425.535 697.254 430.545 685.025C435.555 672.797 444.41 662.528 455.772 655.767C457.48 654.76 458.882 653.309 459.829 651.568C460.776 649.827 461.232 647.862 461.148 645.882L460.139 623.482C460.094 622.516 460.246 621.552 460.585 620.646C460.924 619.74 461.444 618.913 462.112 618.214C462.78 617.514 463.583 616.957 464.473 616.577C465.362 616.197 466.32 616 467.288 616H505.588C506.549 616.003 507.5 616.199 508.385 616.576C509.269 616.954 510.069 617.504 510.736 618.196C511.404 618.887 511.926 619.706 512.271 620.603C512.616 621.499 512.778 622.456 512.746 623.416L511.888 647.239C511.818 649.04 512.247 650.825 513.127 652.398C514.007 653.971 515.305 655.27 516.877 656.154C536.362 666.774 548 686.186 548 708.087C548 724.24 541.578 739.732 530.148 751.156C518.717 762.579 503.213 768.998 487.046 769H486.989ZM467.24 619.769C466.783 619.772 466.33 619.866 465.91 620.047C465.489 620.228 465.11 620.491 464.794 620.822C464.478 621.153 464.232 621.544 464.07 621.972C463.909 622.4 463.836 622.856 463.855 623.313L464.864 645.712C464.986 648.367 464.384 651.005 463.124 653.345C461.863 655.685 459.99 657.639 457.705 658.999C447.046 665.34 438.739 674.973 434.038 686.444C429.337 697.915 428.498 710.602 431.646 722.592C434.794 734.582 441.759 745.223 451.491 752.911C461.222 760.599 473.191 764.917 485.594 765.212C493.216 765.393 500.798 764.049 507.893 761.259C514.988 758.47 521.453 754.291 526.908 748.969C532.363 743.646 536.698 737.288 539.658 730.267C542.617 723.246 544.142 715.705 544.143 708.087C544.143 687.59 533.25 669.45 515 659.461C512.814 658.243 511.008 656.444 509.781 654.264C508.554 652.083 507.955 649.606 508.049 647.107L508.898 623.284C508.915 622.829 508.839 622.376 508.677 621.951C508.514 621.526 508.267 621.137 507.951 620.809C507.635 620.481 507.257 620.22 506.838 620.042C506.419 619.863 505.968 619.77 505.512 619.769H467.24Z" fill="black"/>
<path d="M511.5 522C515.09 522 518 519.09 518 515.5C518 511.91 515.09 509 511.5 509C507.91 509 505 511.91 505 515.5C505 519.09 507.91 522 511.5 522Z" fill="white"/>
<path d="M447.5 586C451.09 586 454 583.09 454 579.5C454 575.91 451.09 573 447.5 573C443.91 573 441 575.91 441 579.5C441 583.09 443.91 586 447.5 586Z" fill="white"/>
<path d="M452 756C454.3 753.333 464.831 741.764 482.347 740.179C504.766 738.138 519.397 754.197 521 756" fill="white"/>
<path d="M520.165 757C518.605 755.257 504.371 740.043 483.012 741.927C467.341 743.331 457.389 752.93 453.835 757L451 754.522C454.847 750.123 465.64 739.714 482.681 738.187C505.421 736.143 520.259 751.423 523 754.513L520.165 757Z" fill="black"/>
<path d="M728.011 250.729C734.314 250.238 740.33 255.37 743.868 259.932C749.815 267.624 752.322 277.004 756.901 285.442C765.99 302.122 788.121 304.211 804.246 297.265L865 274.826C863.494 270.028 855.704 242.899 827.844 229.772C814.953 223.803 800.575 221.715 786.495 223.767L735.365 226.416C729.413 226.68 723.622 228.41 718.516 231.449C709.269 237.091 699.16 249.11 702.738 274.492C703.553 268.252 706.515 262.48 711.126 258.148C715.736 253.817 721.713 251.19 728.05 250.709L728.011 250.729Z" fill="#9D8755"/>
<defs>
<radialGradient id="paint0_diamond_2_294" cx="0" cy="0" r="1" gradientUnits="userSpaceOnUse" gradientTransform="translate(752.796 537.372) rotate(107.307) scale(55.647 89.2734)">
<stop stop-color="#C77A1F"/>
<stop offset="1" stop-color="#D1B520"/>
</radialGradient>
</defs>
</svg>
