<svg width="1465" height="886" viewBox="0 0 1465 886" fill="none" xmlns="http://www.w3.org/2000/svg">
<path d="M677.172 220L363 776H1173L874.977 220H677.172Z" fill="#6DC8C2"/>
<path d="M940.423 464.967C944.725 456.232 946.989 446.631 947.042 436.891C947.095 427.151 944.937 417.526 940.731 408.744C936.524 399.963 930.38 392.254 922.762 386.202C915.144 380.15 906.252 375.912 896.759 373.809C892.67 372.912 888.938 370.821 886.036 367.799V367.75C880.479 361.926 879.526 356.703 871.642 340.876C870.798 339.164 870.091 337.787 869.678 337L804 362.517L821.802 417.042C818.14 428.555 817.794 440.869 820.802 452.57C823.809 464.272 830.05 474.887 838.806 483.196C847.563 491.505 858.481 497.173 870.307 499.547C882.133 501.922 894.388 500.908 905.664 496.622C906.203 502.021 908.229 507.165 911.516 511.479C914.802 515.793 919.22 519.107 924.277 521.053C929.334 522.998 934.831 523.498 940.154 522.497C945.478 521.496 950.42 519.033 954.428 515.382C958.436 511.732 961.354 507.038 962.855 501.824C964.356 496.609 964.382 491.08 962.929 485.852C961.477 480.624 958.604 475.903 954.63 472.215C950.656 468.527 945.737 466.018 940.423 464.967Z" fill="black"/>
<path d="M747.5 499C765.449 499 780 484.449 780 466.5C780 448.551 765.449 434 747.5 434C729.551 434 715 448.551 715 466.5C715 484.449 729.551 499 747.5 499Z" fill="black"/>
<path d="M850 382.127C850.029 376.475 847.857 371.038 843.953 366.994C840.05 362.949 834.729 360.622 829.142 360.516L827.828 346.044C827.443 341.454 826.165 336.986 824.069 332.897C821.974 328.807 819.101 325.177 815.615 322.212C812.13 319.248 808.1 317.009 803.758 315.623C799.415 314.237 794.845 313.731 790.309 314.135L737.606 319.107C730.706 319.799 724.359 323.231 719.957 328.649C715.554 334.068 713.456 341.031 714.121 348.013L719.961 413.13C720.421 418.598 721.944 423.92 724.441 428.792C726.938 433.664 730.361 437.989 734.514 441.52C738.667 445.051 743.467 447.719 748.641 449.37C753.814 451.022 759.259 451.624 764.663 451.143L767.106 450.907L770.405 487L840.024 480.443L836.131 437.694H836.072L832.977 403.324C837.796 402.32 842.124 399.661 845.227 395.798C848.329 391.934 850.016 387.104 850 382.127Z" fill="white"/>
<path d="M829.5 391C827.819 391 826.175 390.501 824.778 389.567C823.38 388.634 822.29 387.306 821.647 385.753C821.004 384.2 820.835 382.491 821.163 380.842C821.491 379.193 822.301 377.678 823.49 376.49C824.678 375.301 826.193 374.491 827.842 374.163C829.491 373.835 831.2 374.004 832.753 374.647C834.306 375.29 835.633 376.38 836.567 377.778C837.501 379.175 838 380.819 838 382.5C837.997 384.754 837.101 386.914 835.508 388.508C833.914 390.101 831.754 390.997 829.5 391ZM829.5 377.985C828.611 377.985 827.742 378.248 827.003 378.742C826.263 379.236 825.687 379.938 825.347 380.76C825.007 381.581 824.918 382.485 825.091 383.357C825.265 384.229 825.693 385.03 826.321 385.659C826.95 386.287 827.751 386.715 828.623 386.889C829.495 387.062 830.399 386.973 831.22 386.633C832.042 386.293 832.744 385.717 833.238 384.977C833.732 384.238 833.995 383.369 833.995 382.48C833.987 381.292 833.511 380.155 832.669 379.317C831.827 378.479 830.688 378.007 829.5 378.005V377.985Z" fill="black"/>
<path d="M765 451.268L808.662 446.009C808.943 445.975 809.227 446.039 809.464 446.189C809.7 446.34 809.874 446.568 809.953 446.831C810.032 447.095 810.011 447.377 809.895 447.627C809.779 447.877 809.574 448.079 809.318 448.196L766.579 468L765 451.268Z" fill="black"/>
<path d="M823.242 388C822.777 388.009 822.324 387.847 821.962 387.541C821.599 387.236 821.351 386.807 821.261 386.329C820.805 383.975 820.948 381.537 821.675 379.259C822.402 376.981 823.687 374.943 825.403 373.348C827.059 371.885 829.027 370.858 831.141 370.354C833.254 369.85 835.452 369.885 837.551 370.453C838.056 370.601 838.485 370.953 838.744 371.431C839.002 371.91 839.068 372.476 838.928 373.006C838.787 373.535 838.451 373.985 837.994 374.255C837.537 374.525 836.996 374.595 836.491 374.448C835.033 374.064 833.509 374.045 832.043 374.391C830.576 374.737 829.208 375.439 828.048 376.441C826.855 377.551 825.961 378.971 825.457 380.557C824.952 382.143 824.855 383.84 825.175 385.478C825.227 385.746 825.228 386.022 825.177 386.29C825.127 386.558 825.027 386.813 824.883 387.041C824.738 387.269 824.552 387.464 824.335 387.616C824.118 387.768 823.875 387.874 823.619 387.927C823.495 387.961 823.369 387.985 823.242 388Z" fill="black"/>
<path d="M725 389C727.761 389 730 386.985 730 384.5C730 382.015 727.761 380 725 380C722.239 380 720 382.015 720 384.5C720 386.985 722.239 389 725 389Z" fill="black"/>
<path d="M769.5 383C771.985 383 774 380.761 774 378C774 375.239 771.985 373 769.5 373C767.015 373 765 375.239 765 378C765 380.761 767.015 383 769.5 383Z" fill="black"/>
<path d="M744.836 400C744.663 400 744.491 399.981 744.323 399.941C740.848 399.189 737.252 398.056 737.001 395.448C736.975 394.458 737.386 393.5 738.145 392.781C738.363 392.527 738.614 392.234 738.886 391.853C739.904 390.39 740.419 388.691 740.368 386.968L740.27 368.954C740.27 368.436 740.5 367.939 740.908 367.572C741.317 367.206 741.871 367 742.449 367C743.027 367 743.582 367.206 743.99 367.572C744.399 367.939 744.629 368.436 744.629 368.954L744.727 386.968C744.756 389.416 744 391.821 742.547 393.894C742.199 394.373 741.915 394.725 741.665 395.018C742.821 395.522 744.044 395.893 745.304 396.122C745.829 396.229 746.291 396.506 746.602 396.901C746.912 397.295 747.048 397.778 746.985 398.258C746.921 398.737 746.662 399.178 746.257 399.496C745.852 399.814 745.33 399.987 744.792 399.98L744.836 400Z" fill="black"/>
<path d="M750.014 416.999C747.272 416.962 744.572 416.359 742.102 415.232C741.623 414.999 741.262 414.596 741.097 414.111C740.933 413.626 740.978 413.099 741.225 412.645C741.471 412.192 741.897 411.85 742.41 411.694C742.922 411.539 743.48 411.582 743.958 411.815C744.019 411.815 748.696 414.061 752.915 412.775C754.067 412.379 755.121 411.766 756.014 410.972C756.907 410.178 757.62 409.22 758.109 408.158C758.219 407.918 758.379 407.702 758.58 407.523C758.781 407.343 759.018 407.205 759.278 407.116C759.537 407.026 759.813 406.988 760.089 407.003C760.364 407.018 760.634 407.087 760.881 407.204C761.127 407.321 761.346 407.484 761.524 407.684C761.702 407.884 761.834 408.116 761.914 408.367C761.993 408.617 762.018 408.88 761.987 409.139C761.955 409.399 761.868 409.649 761.731 409.876C761.01 411.402 759.965 412.772 758.662 413.899C757.358 415.027 755.824 415.889 754.153 416.432C752.814 416.826 751.417 417.017 750.014 416.999Z" fill="black"/>
<path d="M838.741 458.963L767.25 465.557L770.285 498.46L841.776 491.866L838.741 458.963Z" fill="#C7B8F8"/>
<path d="M737.011 320.729C743.314 320.238 749.33 325.37 752.868 329.932C758.815 337.624 761.322 347.004 765.901 355.442C774.99 372.122 797.121 374.211 813.246 367.265L874 344.826C872.494 340.028 864.704 312.899 836.844 299.772C823.953 293.803 809.575 291.715 795.495 293.767L744.365 296.416C738.413 296.68 732.622 298.41 727.516 301.449C718.269 307.091 708.16 319.11 711.738 344.492C712.553 338.252 715.515 332.48 720.126 328.148C724.736 323.817 730.713 321.19 737.05 320.709L737.011 320.729Z" fill="black"/>
<path d="M717 490C717 490 693.828 493.201 678.607 539.069C674.841 550.416 670.846 561.644 666.232 572.714L635 642.585L657.742 739L708.73 706.3L691.701 662.875C682.133 640.221 679.316 614.692 686.537 591.231L717 490Z" fill="white"/>
<path d="M914 676.407L703.329 701C693.88 677.652 692.065 675.508 682.626 652.179C674.903 633.113 673.9 612 679.78 592.292L709.259 493.831C709.906 491.644 711.227 489.716 713.035 488.318C714.843 486.921 717.046 486.126 719.333 486.045L905.185 479C909.717 560.071 909.518 595.336 914 676.407Z" fill="#C7B8F8"/>
<path d="M687.712 415.906C694.272 419.66 698.114 426.516 701.542 432.976C705.511 440.398 708.985 448.073 711.944 455.953C717.865 471.671 721.668 488.108 723.254 504.83C724.812 521.193 724.027 537.694 720.923 553.835C717.974 568.989 712.945 583.662 705.977 597.437C699.011 611.259 690.044 623.977 679.365 635.182C678.048 636.585 676.679 637.961 675.256 639.311C672.51 641.968 676.698 646.157 679.444 643.499C690.957 632.308 700.739 619.463 708.467 605.389C716.241 591.321 722.012 576.236 725.615 560.572C729.356 544.098 730.716 527.172 729.655 510.312C728.568 492.878 725.122 475.671 719.412 459.163C716.526 450.789 713.091 442.615 709.128 434.695C705.562 427.563 701.749 419.927 695.753 414.504C694.222 413.103 692.543 411.874 690.745 410.839C687.426 408.942 684.443 414.059 687.782 415.956L687.712 415.906Z" fill="white"/>
<path d="M836.536 759.123C835.797 736.686 840.15 714.372 849.269 693.858C858.322 673.239 871.841 654.888 888.851 640.131C897.741 632.495 907.935 624.869 919.651 622.548C924.844 621.492 930.23 621.924 935.189 623.792C937.222 624.627 939.165 625.667 940.988 626.894C942.823 628.152 944.528 629.592 946.075 631.191C952.901 638.106 957.474 647.391 960.734 656.479C965.081 668.649 967.945 681.481 970.257 694.174C975.161 721.114 976.407 748.593 973.961 775.867C973.658 779.284 973.296 782.696 972.874 786.1C972.677 787.691 974.376 789.064 975.838 789.064C976.618 789.046 977.362 788.728 977.914 788.176C978.466 787.624 978.784 786.881 978.801 786.1C982.246 757.77 981.767 729.101 977.379 700.901C975.309 687.229 972.268 673.721 968.281 660.48C965.15 650.187 960.823 640.042 954.185 631.507C947.695 623.14 938.696 617.065 927.958 616.137C914.929 615.02 902.621 621.994 892.575 629.551C873.804 643.766 858.512 662.064 847.856 683.061C837.091 704.014 831.176 727.119 830.55 750.667C830.481 753.483 830.55 756.288 830.609 759.103C830.738 762.906 836.664 762.926 836.536 759.103V759.123Z" fill="white"/>
<path d="M727.975 708.893C725.219 692.851 725.279 676.452 728.153 660.43C730.771 645.84 735.483 631.359 743.247 618.666C746.736 612.874 751.011 607.595 755.95 602.979C758.341 600.782 760.919 598.799 763.655 597.052C766.209 595.399 768.915 593.993 771.736 592.854C777.333 590.665 783.31 589.61 789.319 589.752C795.009 589.82 800.62 591.089 805.786 593.476C811.15 595.968 815.673 599.967 818.805 604.984C822.47 610.961 823.922 618.28 821.769 624.859C820.818 627.732 819.2 630.339 817.047 632.465C814.953 634.52 812.039 636.417 808.957 636.683C807.672 636.776 806.383 636.566 805.194 636.07C804.005 635.574 802.949 634.806 802.111 633.829C800.134 631.684 798.686 629.106 797.883 626.301C793.458 611.731 799.75 595.808 807.248 583.42C814.596 571.486 824.039 560.979 835.124 552.403C846.69 543.448 859.585 536.355 873.342 531.382C888.556 525.901 904.401 522.36 920.501 520.842C924.452 520.447 928.403 520.151 932.354 519.953C933.134 519.933 933.876 519.614 934.428 519.063C934.979 518.511 935.298 517.769 935.318 516.99C935.318 516.204 935.006 515.45 934.45 514.894C933.894 514.338 933.14 514.026 932.354 514.026C915.06 514.776 897.919 517.611 881.304 522.472C865.743 527.045 851.001 534.046 837.623 543.216C825.07 551.863 814.175 562.697 805.46 575.202C796.421 588.379 788.934 604.777 790.84 621.135C791.69 628.455 794.347 636.12 800.718 640.398C807.534 644.941 816.108 641.8 821.413 636.446C824.064 633.691 826.074 630.385 827.298 626.763C828.522 623.141 828.931 619.293 828.496 615.495C827.561 607.702 823.947 600.477 818.272 595.057C808.729 585.88 794.742 582.62 781.851 584.299C767.528 586.166 755.111 594.069 745.855 604.984C735.977 616.67 729.556 630.964 725.437 645.623C720.697 662.508 719.024 680.107 720.498 697.582C720.863 701.919 721.485 706.255 722.177 710.552C722.387 711.309 722.889 711.952 723.572 712.339C724.256 712.726 725.065 712.826 725.822 712.617C726.572 712.396 727.207 711.892 727.594 711.213C727.981 710.533 728.089 709.73 727.896 708.972L727.975 708.893Z" fill="white"/>
<path d="M1022.57 667.891H1022.67L1007.67 632.956L976.097 559.386C971.552 548.807 967.007 538.222 962.462 527.629C956.266 513.212 951.215 497.609 938.152 487.78C921.38 475.178 896.024 472.583 878.739 485.599C864.029 496.672 859.993 516.784 860.26 534.291C860.615 554.136 867.166 573.439 875.789 591.104C884.668 609.301 891.969 628.249 900.128 646.792L913.448 677.049L713.67 700.417C707.042 701.186 700.573 702.974 694.49 705.717C686.104 709.513 677.573 713.592 668.898 717.953C663.813 720.506 658.848 723.078 654 725.671L666.54 776H951.511C1007.54 776 1044.56 718.526 1022.57 667.891Z" fill="white"/>
<path d="M953.518 657.687C953.518 652.892 936.63 649 915.786 649C894.942 649 878.054 652.892 878.054 657.687L874 700.536C883.45 698.987 896.688 698.888 908.368 706.195C912.531 708.878 917.128 710.81 921.951 711.904C930.07 713.621 942.292 714.028 957 707.754L953.518 657.687Z" fill="white"/>
<path d="M932.313 715C928.567 715.004 924.83 714.63 921.162 713.884C916.079 712.753 911.233 710.767 906.839 708.011C895.4 701.042 882.419 701.277 873.546 702.696L871 703.107L875.337 658.415C875.556 650.183 901.577 648 915.363 648C929.149 648 955.23 650.163 955.399 658.434L959 709.137L957.687 709.675C949.681 713.119 941.049 714.93 932.313 715ZM883.374 697.969C892.364 697.811 901.219 700.134 908.937 704.673C912.934 707.196 917.347 709.014 921.978 710.047C929.259 711.555 940.787 712.142 954.802 706.602L951.42 658.513C951.42 656.927 940.578 651.906 915.363 651.906C890.148 651.906 879.306 656.927 879.306 658.513V658.698L875.446 698.468C878.076 698.139 880.723 697.972 883.374 697.969Z" fill="black"/>
<path d="M959.38 703.194C943.942 709.566 931.1 709.153 922.579 707.408C917.556 706.301 912.744 704.342 908.337 701.611C896.011 694.181 882.168 694.292 872.245 695.855L868.188 737.261C867.67 742.535 868.225 747.863 869.817 752.9C871.41 757.938 874.004 762.573 877.433 766.507C880.862 770.441 885.049 773.585 889.724 775.737C894.398 777.889 899.457 779.001 904.572 779H925.419C930.451 779 935.428 777.925 940.041 775.841C944.653 773.757 948.801 770.709 952.225 766.888C955.649 763.067 958.275 758.555 959.94 753.634C961.605 748.714 962.272 743.49 961.9 738.289L959.38 703.194Z" fill="#FFBB45"/>
<path d="M913.905 753H913.733C913.23 752.952 912.766 752.7 912.442 752.297C912.119 751.895 911.963 751.376 912.008 750.854L923.877 614.566C924.047 612.495 924.962 610.567 926.441 609.165C927.919 607.763 929.853 606.99 931.856 607H960.093C960.599 607 961.084 607.209 961.442 607.579C961.799 607.95 962 608.454 962 608.978C962 609.503 961.799 610.006 961.442 610.377C961.084 610.748 960.599 610.956 960.093 610.956H931.856C930.808 610.954 929.797 611.359 929.023 612.091C928.248 612.823 927.766 613.83 927.671 614.912L915.802 751.2C915.759 751.691 915.541 752.149 915.19 752.482C914.839 752.815 914.38 753 913.905 753Z" fill="black"/>
<path d="M915.928 669C914.785 669 913.642 669 912.508 668.937C900.271 668.453 888.25 665.408 877.15 659.983C876.913 659.867 876.7 659.704 876.524 659.502C876.347 659.3 876.21 659.063 876.12 658.806C876.031 658.548 875.991 658.275 876.002 658.001C876.013 657.727 876.076 657.458 876.186 657.21C876.296 656.961 876.452 656.738 876.645 656.553C876.837 656.368 877.063 656.224 877.308 656.13C877.554 656.036 877.815 655.994 878.076 656.006C878.337 656.017 878.593 656.083 878.83 656.199C889.439 661.389 900.93 664.303 912.628 664.768C926.595 665.294 940.483 662.358 953.165 656.199C953.402 656.081 953.659 656.015 953.921 656.002C954.183 655.99 954.445 656.031 954.691 656.125C954.937 656.219 955.164 656.363 955.357 656.549C955.55 656.735 955.706 656.96 955.816 657.209C955.926 657.459 955.988 657.729 955.998 658.003C956.009 658.278 955.967 658.552 955.876 658.81C955.785 659.068 955.646 659.304 955.467 659.505C955.288 659.707 955.074 659.869 954.835 659.983C942.638 665.897 929.365 668.973 915.928 669Z" fill="black"/>
<path d="M792.068 487C791.577 487.001 791.103 486.809 790.745 486.465C790.386 486.12 790.17 485.648 790.141 485.146L789.003 465.089C788.974 464.566 789.149 464.052 789.489 463.661C789.83 463.27 790.309 463.033 790.82 463.003C791.332 462.973 791.834 463.152 792.216 463.501C792.598 463.849 792.83 464.339 792.859 464.862L793.996 484.909C794.012 485.169 793.977 485.428 793.895 485.674C793.812 485.919 793.683 486.145 793.515 486.34C793.346 486.534 793.142 486.692 792.914 486.806C792.685 486.919 792.437 486.985 792.184 487H792.068Z" fill="black"/>
<path d="M811.296 484.953C810.607 484.954 809.944 484.771 809.442 484.441C808.941 484.111 808.638 483.66 808.597 483.18L807.004 463.998C806.984 463.75 807.034 463.502 807.151 463.268C807.267 463.033 807.449 462.817 807.685 462.632C807.922 462.447 808.208 462.296 808.527 462.188C808.847 462.08 809.194 462.017 809.548 462.003C809.903 461.989 810.258 462.024 810.593 462.105C810.928 462.187 811.237 462.314 811.502 462.479C811.767 462.644 811.983 462.844 812.138 463.067C812.292 463.291 812.382 463.533 812.402 463.781L813.995 483.001C814.017 483.248 813.968 483.497 813.853 483.732C813.737 483.966 813.556 484.183 813.32 484.369C813.085 484.554 812.799 484.706 812.479 484.814C812.16 484.922 811.812 484.986 811.458 485L811.296 484.953Z" fill="black"/>
<path d="M813.682 779H654V744H813.682C815.888 744 818.004 744.888 819.564 746.47C821.124 748.051 822 750.196 822 752.432V770.558C822.001 771.666 821.787 772.764 821.37 773.788C820.952 774.812 820.34 775.743 819.567 776.527C818.795 777.311 817.878 777.933 816.868 778.357C815.858 778.782 814.776 779 813.682 779Z" fill="black"/>
<path d="M673 778.999H486.027C482.542 779.033 479.139 777.925 476.326 775.843C473.513 773.76 471.439 770.813 470.415 767.441L424.634 610.32C421.673 600.141 429.459 590.001 440.246 590.001H616.58C620.219 589.958 623.764 591.163 626.64 593.42C629.516 595.676 631.553 598.851 632.42 602.428L673 778.999Z" fill="black"/>
<path d="M537 725C551.359 725 563 713.359 563 699C563 684.641 551.359 673 537 673C522.641 673 511 684.641 511 699C511 713.359 522.641 725 537 725Z" fill="#FFC1EB"/>
<path d="M531.314 681C530.938 680.999 530.573 680.847 530.277 680.567C529.982 680.287 529.773 679.897 529.685 679.458L527.048 666.497C526.996 666.239 526.986 665.972 527.02 665.71C527.053 665.448 527.13 665.197 527.244 664.97C527.476 664.513 527.849 664.185 528.282 664.058C528.716 663.931 529.173 664.015 529.554 664.293C529.935 664.571 530.209 665.019 530.315 665.539L532.952 678.5C533.004 678.758 533.014 679.025 532.98 679.287C532.947 679.549 532.871 679.801 532.756 680.027C532.641 680.254 532.49 680.451 532.312 680.608C532.134 680.764 531.932 680.877 531.717 680.94C531.585 680.979 531.45 680.999 531.314 681Z" fill="#6DC8C2"/>
<path d="M1175.02 777H389.981C389.455 777 388.952 776.842 388.58 776.561C388.209 776.279 388 775.898 388 775.5C388 775.102 388.209 774.721 388.58 774.439C388.952 774.158 389.455 774 389.981 774H1175.02C1175.54 774 1176.05 774.158 1176.42 774.439C1176.79 774.721 1177 775.102 1177 775.5C1177 775.898 1176.79 776.279 1176.42 776.561C1176.05 776.842 1175.54 777 1175.02 777Z" fill="black"/>
<path d="M776.05 247C769.323 247.01 762.745 245.053 757.147 241.378C751.549 237.703 747.183 232.474 744.602 226.354C742.021 220.234 741.341 213.496 742.647 206.995C743.953 200.493 747.188 194.519 751.941 189.829C756.694 185.139 762.752 181.944 769.349 180.647C775.945 179.351 782.784 180.011 789 182.545C795.215 185.079 800.528 189.373 804.266 194.883C808.005 200.393 810 206.872 810 213.5C809.987 222.372 806.407 230.878 800.045 237.156C793.682 243.435 785.055 246.974 776.05 247ZM776.05 183.935C770.125 183.935 764.334 185.666 759.407 188.91C754.481 192.153 750.642 196.762 748.374 202.156C746.107 207.549 745.514 213.484 746.67 219.209C747.825 224.934 750.678 230.194 754.868 234.321C759.057 238.449 764.395 241.26 770.206 242.399C776.017 243.538 782.04 242.953 787.514 240.719C792.987 238.486 797.666 234.702 800.957 229.849C804.249 224.995 806.006 219.288 806.006 213.451C805.985 205.629 802.822 198.134 797.209 192.603C791.595 187.072 783.988 183.956 776.05 183.935Z" fill="white"/>
<path d="M778.226 96H775.774C772.033 96 769 99.4455 769 103.696V167.304C769 171.555 772.033 175 775.774 175H778.226C781.967 175 785 171.555 785 167.304V103.696C785 99.4455 781.967 96 778.226 96Z" fill="black"/>
<path d="M775.527 153.006C754.451 153.315 733.851 159.148 715.894 169.889C697.937 180.63 683.286 195.882 673.485 214.042C673.148 214.661 672.981 215.354 673.002 216.054C673.022 216.754 673.228 217.438 673.6 218.037C673.971 218.637 674.496 219.133 675.123 219.477C675.75 219.821 676.458 220.001 677.178 220H876.832C877.551 219.999 878.257 219.818 878.883 219.473C879.509 219.129 880.032 218.633 880.403 218.033C880.774 217.434 880.979 216.751 880.998 216.052C881.018 215.353 880.852 214.66 880.516 214.042C870.478 195.454 855.366 179.921 836.843 169.152C818.319 158.384 797.102 152.797 775.527 153.006Z" fill="#FFC1EB"/>
<path d="M714.69 203C701.568 203 690.869 194.238 690.709 194.13C690.305 193.792 690.052 193.31 690.007 192.789C689.962 192.268 690.129 191.75 690.47 191.35C690.811 190.95 691.299 190.701 691.826 190.656C692.354 190.612 692.877 190.777 693.282 191.114C694.159 191.843 714.899 208.736 732.607 191.232L733.814 190.039L735.2 191.025C736.197 191.735 759.549 208.253 776.789 191.222L777.956 190.059L779.332 190.986C783.257 193.475 787.554 195.337 792.065 196.505C801.388 198.831 809.105 197.057 814.998 191.222L816.234 190L817.62 191.045C818.548 191.745 840.624 208.056 857.664 191.222C858.043 190.882 858.54 190.698 859.051 190.71C859.563 190.721 860.051 190.927 860.413 191.284C860.776 191.641 860.986 192.123 860.999 192.629C861.013 193.134 860.829 193.626 860.486 194.002C843.595 210.698 822.227 198.782 816.613 195.135C809.853 201.049 801.029 202.842 790.968 200.299C786.572 199.149 782.36 197.397 778.454 195.096C761.503 210.343 739.916 198.654 734.253 195.096C727.762 200.999 720.951 203 714.69 203Z" fill="#FB6D6D"/>
<path d="M658.935 726C658.508 725.989 658.095 725.847 657.759 725.594C657.422 725.341 657.18 724.991 657.069 724.596C656.957 724.201 656.982 723.783 657.139 723.402C657.296 723.022 657.578 722.7 657.942 722.485C664.401 718.684 671.098 715.15 677.815 711.872C686.759 707.549 695.97 703.597 705.291 700.129C705.783 699.947 706.33 699.958 706.813 700.161C707.295 700.364 707.674 700.742 707.865 701.212C708.056 701.682 708.044 702.205 707.832 702.667C707.619 703.128 707.224 703.49 706.732 703.673C697.53 707.093 688.408 710.989 679.614 715.264C672.966 718.494 666.368 722.019 659.979 725.715C659.667 725.904 659.304 726.002 658.935 726Z" fill="black"/>
<path d="M405.573 669.348L417.043 626H351.973L362.305 669.822C350.57 674.933 340.966 683.937 335.121 695.308C329.276 706.679 327.549 719.717 330.233 732.213C332.917 744.71 339.847 755.895 349.848 763.875C359.849 771.854 372.307 776.137 385.109 775.997C397.912 775.856 410.272 771.302 420.095 763.105C429.919 754.908 436.601 743.573 439.009 731.021C441.418 718.469 439.404 705.472 433.311 694.232C427.217 682.992 417.417 674.201 405.573 669.348Z" fill="white"/>
<path d="M383.996 777C371.04 776.989 358.473 772.598 348.364 764.55C338.255 756.501 331.206 745.274 328.377 732.716C325.547 720.159 327.107 707.018 332.797 695.458C338.488 683.898 347.972 674.606 359.688 669.111L349.228 625H418.833L407.244 668.624C419.164 673.918 428.894 683.114 434.81 694.676C440.726 706.238 442.469 719.465 439.748 732.15C437.027 744.834 430.007 756.207 419.86 764.37C409.713 772.533 397.054 776.991 383.996 777ZM354.188 628.902L364.255 671.365L362.752 672.009C351.519 676.875 342.324 685.449 336.728 696.278C331.131 707.108 329.477 719.526 332.045 731.428C334.612 743.331 341.245 753.985 350.817 761.586C360.39 769.187 372.314 773.267 384.569 773.134C396.824 773.001 408.656 768.664 418.06 760.857C427.463 753.051 433.86 742.255 436.165 730.3C438.471 718.345 436.544 705.965 430.711 695.26C424.878 684.555 415.498 676.181 404.16 671.56L402.569 670.906L413.736 628.902H354.188Z" fill="black"/>
<path d="M384 631C403.33 631 419 627.642 419 623.5C419 619.358 403.33 616 384 616C364.67 616 349 619.358 349 623.5C349 627.642 364.67 631 384 631Z" fill="black"/>
<path d="M374.003 629C373.594 628.999 373.195 628.876 372.86 628.649C372.524 628.422 372.269 628.1 372.128 627.729C359.956 595.606 334.799 569.5 334.548 569.277C334.367 569.092 334.226 568.874 334.132 568.635C334.038 568.397 333.993 568.143 334.001 567.888C334.008 567.633 334.068 567.382 334.175 567.149C334.283 566.916 334.437 566.706 334.629 566.531C334.82 566.355 335.046 566.219 335.292 566.128C335.538 566.037 335.8 565.994 336.064 566.001C336.327 566.008 336.587 566.065 336.827 566.17C337.068 566.274 337.285 566.423 337.466 566.608C337.727 566.88 363.435 593.51 375.888 626.389C376.06 626.867 376.033 627.391 375.812 627.85C375.591 628.309 375.194 628.666 374.705 628.845C374.482 628.935 374.244 628.988 374.003 629Z" fill="black"/>
<path d="M389.5 631C388.837 631 388.201 630.787 387.732 630.408C387.263 630.029 387 629.514 387 628.978V600.022C387 599.486 387.263 598.971 387.732 598.592C388.201 598.213 388.837 598 389.5 598C390.163 598 390.799 598.213 391.268 598.592C391.737 598.971 392 599.486 392 600.022V628.978C392 629.514 391.737 630.029 391.268 630.408C390.799 630.787 390.163 631 389.5 631Z" fill="black"/>
<path d="M347.449 549.364H338.931C338.771 548.922 338.591 548.49 338.402 548.069L344.603 542.547C345.26 541.979 345.797 541.285 346.185 540.506C346.573 539.727 346.803 538.878 346.861 538.009C346.92 537.14 346.806 536.268 346.527 535.443C346.248 534.619 345.808 533.858 345.234 533.206C344.66 532.554 343.963 532.022 343.183 531.643C342.402 531.264 341.555 531.045 340.69 530.997C339.825 530.95 338.959 531.076 338.143 531.368C337.327 531.66 336.576 532.112 335.935 532.698L329.404 538.511C329.304 538.601 329.224 538.712 329.124 538.812C328.715 538.622 328.296 538.451 327.866 538.29V530.329C327.8 528.628 327.082 527.019 325.861 525.839C324.641 524.659 323.013 524 321.32 524C319.627 524 318 524.659 316.779 525.839C315.559 527.019 314.84 528.628 314.774 530.329V538.29C314.169 538.513 313.576 538.768 312.997 539.053C312.813 538.825 312.613 538.61 312.398 538.411L305.817 532.698C304.492 531.637 302.81 531.133 301.124 531.291C299.438 531.45 297.878 532.259 296.772 533.549C295.666 534.838 295.1 536.508 295.193 538.209C295.285 539.909 296.029 541.507 297.269 542.667L303.879 548.4C303.932 548.446 303.989 548.486 304.049 548.521C303.929 548.802 303.829 549.093 303.72 549.384H295.511C293.785 549.392 292.132 550.085 290.912 551.313C289.693 552.542 289.005 554.204 289 555.94C289 557.685 289.689 559.358 290.915 560.593C292.142 561.828 293.805 562.523 295.541 562.526H303.67L303.869 563.068H303.809L297.269 568.881C296.033 570.055 295.3 571.666 295.224 573.374C295.149 575.081 295.736 576.751 296.863 578.031C297.99 579.311 299.567 580.101 301.262 580.233C302.957 580.365 304.637 579.83 305.947 578.74L312.477 572.927L312.617 572.776C313.331 573.164 314.072 573.499 314.834 573.78V581.671C314.9 583.372 315.619 584.981 316.839 586.161C318.06 587.341 319.687 588 321.38 588C323.073 588 324.701 587.341 325.921 586.161C327.141 584.981 327.86 583.372 327.926 581.671V573.86C328.375 573.69 328.825 573.509 329.264 573.298L335.675 578.85C336.996 579.986 338.711 580.548 340.443 580.412C342.175 580.276 343.783 579.455 344.913 578.127C346.042 576.8 346.601 575.076 346.466 573.334C346.331 571.593 345.514 569.976 344.194 568.841L338.501 563.901C338.701 563.449 338.881 562.988 339.051 562.526H347.449C349.186 562.526 350.853 561.832 352.081 560.597C353.31 559.362 354 557.686 354 555.94C353.997 554.195 353.306 552.522 352.078 551.289C350.849 550.056 349.185 549.364 347.449 549.364Z" fill="#C7B8F8"/>
<path d="M347.449 549.364H338.931C338.771 548.922 338.591 548.49 338.402 548.069L344.603 542.547C345.26 541.979 345.797 541.285 346.185 540.506C346.573 539.727 346.803 538.878 346.861 538.009C346.92 537.14 346.806 536.268 346.527 535.443C346.248 534.619 345.808 533.858 345.234 533.206C344.66 532.554 343.963 532.022 343.183 531.643C342.402 531.264 341.555 531.045 340.69 530.997C339.825 530.95 338.959 531.076 338.143 531.368C337.327 531.66 336.576 532.112 335.935 532.698L329.404 538.511C329.304 538.601 329.224 538.712 329.124 538.812C328.715 538.622 328.296 538.451 327.866 538.29V530.329C327.8 528.628 327.082 527.019 325.861 525.839C324.641 524.659 323.013 524 321.32 524C319.627 524 318 524.659 316.779 525.839C315.559 527.019 314.84 528.628 314.774 530.329V538.29C314.169 538.513 313.576 538.768 312.997 539.053C312.813 538.825 312.613 538.61 312.398 538.411L305.817 532.698C304.492 531.637 302.81 531.133 301.124 531.291C299.438 531.45 297.878 532.259 296.772 533.549C295.666 534.838 295.1 536.508 295.193 538.209C295.285 539.909 296.029 541.507 297.269 542.667L303.879 548.4C303.932 548.446 303.989 548.486 304.049 548.521C303.929 548.802 303.829 549.093 303.72 549.384H295.511C293.785 549.392 292.132 550.085 290.912 551.313C289.693 552.542 289.005 554.204 289 555.94C289 557.685 289.689 559.358 290.915 560.593C292.142 561.828 293.805 562.523 295.541 562.526H303.67L303.869 563.068H303.809L297.269 568.881C296.033 570.055 295.3 571.666 295.224 573.374C295.149 575.081 295.736 576.751 296.863 578.031C297.99 579.311 299.567 580.101 301.262 580.233C302.957 580.365 304.637 579.83 305.947 578.74L312.477 572.927L312.617 572.776C313.331 573.164 314.072 573.499 314.834 573.78V581.671C314.9 583.372 315.619 584.981 316.839 586.161C318.06 587.341 319.687 588 321.38 588C323.073 588 324.701 587.341 325.921 586.161C327.141 584.981 327.86 583.372 327.926 581.671V573.86C328.375 573.69 328.825 573.509 329.264 573.298L335.675 578.85C336.996 579.986 338.711 580.548 340.443 580.412C342.175 580.276 343.783 579.455 344.913 578.127C346.042 576.8 346.601 575.076 346.466 573.334C346.331 571.593 345.514 569.976 344.194 568.841L338.501 563.901C338.701 563.449 338.881 562.988 339.051 562.526H347.449C349.186 562.526 350.853 561.832 352.081 560.597C353.31 559.362 354 557.686 354 555.94C353.997 554.195 353.306 552.522 352.078 551.289C350.849 550.056 349.185 549.364 347.449 549.364Z" fill="#C7B8F8"/>
<path d="M347.449 549.364H338.931C338.771 548.922 338.591 548.49 338.402 548.069L344.603 542.547C345.26 541.979 345.797 541.285 346.185 540.506C346.573 539.727 346.803 538.878 346.861 538.009C346.92 537.14 346.806 536.268 346.527 535.443C346.248 534.619 345.808 533.858 345.234 533.206C344.66 532.554 343.963 532.022 343.183 531.643C342.402 531.264 341.555 531.045 340.69 530.997C339.825 530.95 338.959 531.076 338.143 531.368C337.327 531.66 336.576 532.112 335.935 532.698L329.404 538.511C329.304 538.601 329.224 538.712 329.124 538.812C328.715 538.622 328.296 538.451 327.866 538.29V530.329C327.8 528.628 327.082 527.019 325.861 525.839C324.641 524.659 323.013 524 321.32 524C319.627 524 318 524.659 316.779 525.839C315.559 527.019 314.84 528.628 314.774 530.329V538.29C314.169 538.513 313.576 538.768 312.997 539.053C312.813 538.825 312.613 538.61 312.398 538.411L305.817 532.698C304.492 531.637 302.81 531.133 301.124 531.291C299.438 531.45 297.878 532.259 296.772 533.549C295.666 534.838 295.1 536.508 295.193 538.209C295.285 539.909 296.029 541.507 297.269 542.667L303.879 548.4C303.932 548.446 303.989 548.486 304.049 548.521C303.929 548.802 303.829 549.093 303.72 549.384H295.511C293.785 549.392 292.132 550.085 290.912 551.313C289.693 552.542 289.005 554.204 289 555.94C289 557.685 289.689 559.358 290.915 560.593C292.142 561.828 293.805 562.523 295.541 562.526H303.67L303.869 563.068H303.809L297.269 568.881C296.033 570.055 295.3 571.666 295.224 573.374C295.149 575.081 295.736 576.751 296.863 578.031C297.99 579.311 299.567 580.101 301.262 580.233C302.957 580.365 304.637 579.83 305.947 578.74L312.477 572.927L312.617 572.776C313.331 573.164 314.072 573.499 314.834 573.78V581.671C314.9 583.372 315.619 584.981 316.839 586.161C318.06 587.341 319.687 588 321.38 588C323.073 588 324.701 587.341 325.921 586.161C327.141 584.981 327.86 583.372 327.926 581.671V573.86C328.375 573.69 328.825 573.509 329.264 573.298L335.675 578.85C336.996 579.986 338.711 580.548 340.443 580.412C342.175 580.276 343.783 579.455 344.913 578.127C346.042 576.8 346.601 575.076 346.466 573.334C346.331 571.593 345.514 569.976 344.194 568.841L338.501 563.901C338.701 563.449 338.881 562.988 339.051 562.526H347.449C349.186 562.526 350.853 561.832 352.081 560.597C353.31 559.362 354 557.686 354 555.94C353.997 554.195 353.306 552.522 352.078 551.289C350.849 550.056 349.185 549.364 347.449 549.364Z" fill="#C7B8F8"/>
<path d="M347.449 549.364H338.931C338.771 548.922 338.591 548.49 338.402 548.069L344.603 542.547C345.26 541.979 345.797 541.285 346.185 540.506C346.573 539.727 346.803 538.878 346.861 538.009C346.92 537.14 346.806 536.268 346.527 535.443C346.248 534.619 345.808 533.858 345.234 533.206C344.66 532.554 343.963 532.022 343.183 531.643C342.402 531.264 341.555 531.045 340.69 530.997C339.825 530.95 338.959 531.076 338.143 531.368C337.327 531.66 336.576 532.112 335.935 532.698L329.404 538.511C329.304 538.601 329.224 538.712 329.124 538.812C328.715 538.622 328.296 538.451 327.866 538.29V530.329C327.8 528.628 327.082 527.019 325.861 525.839C324.641 524.659 323.013 524 321.32 524C319.627 524 318 524.659 316.779 525.839C315.559 527.019 314.84 528.628 314.774 530.329V538.29C314.169 538.513 313.576 538.768 312.997 539.053C312.813 538.825 312.613 538.61 312.398 538.411L305.817 532.698C304.492 531.637 302.81 531.133 301.124 531.291C299.438 531.45 297.878 532.259 296.772 533.549C295.666 534.838 295.1 536.508 295.193 538.209C295.285 539.909 296.029 541.507 297.269 542.667L303.879 548.4C303.932 548.446 303.989 548.486 304.049 548.521C303.929 548.802 303.829 549.093 303.72 549.384H295.511C293.785 549.392 292.132 550.085 290.912 551.313C289.693 552.542 289.005 554.204 289 555.94C289 557.685 289.689 559.358 290.915 560.593C292.142 561.828 293.805 562.523 295.541 562.526H303.67L303.869 563.068H303.809L297.269 568.881C296.033 570.055 295.3 571.666 295.224 573.374C295.149 575.081 295.736 576.751 296.863 578.031C297.99 579.311 299.567 580.101 301.262 580.233C302.957 580.365 304.637 579.83 305.947 578.74L312.477 572.927L312.617 572.776C313.331 573.164 314.072 573.499 314.834 573.78V581.671C314.9 583.372 315.619 584.981 316.839 586.161C318.06 587.341 319.687 588 321.38 588C323.073 588 324.701 587.341 325.921 586.161C327.141 584.981 327.86 583.372 327.926 581.671V573.86C328.375 573.69 328.825 573.509 329.264 573.298L335.675 578.85C336.996 579.986 338.711 580.548 340.443 580.412C342.175 580.276 343.783 579.455 344.913 578.127C346.042 576.8 346.601 575.076 346.466 573.334C346.331 571.593 345.514 569.976 344.194 568.841L338.501 563.901C338.701 563.449 338.881 562.988 339.051 562.526H347.449C349.186 562.526 350.853 561.832 352.081 560.597C353.31 559.362 354 557.686 354 555.94C353.997 554.195 353.306 552.522 352.078 551.289C350.849 550.056 349.185 549.364 347.449 549.364Z" fill="#C7B8F8"/>
<path d="M347.449 549.364H338.931C338.771 548.922 338.591 548.49 338.402 548.069L344.603 542.547C345.26 541.979 345.797 541.285 346.185 540.506C346.573 539.727 346.803 538.878 346.861 538.009C346.92 537.14 346.806 536.268 346.527 535.443C346.248 534.619 345.808 533.858 345.234 533.206C344.66 532.554 343.963 532.022 343.183 531.643C342.402 531.264 341.555 531.045 340.69 530.997C339.825 530.95 338.959 531.076 338.143 531.368C337.327 531.66 336.576 532.112 335.935 532.698L329.404 538.511C329.304 538.601 329.224 538.712 329.124 538.812C328.715 538.622 328.296 538.451 327.866 538.29V530.329C327.8 528.628 327.082 527.019 325.861 525.839C324.641 524.659 323.013 524 321.32 524C319.627 524 318 524.659 316.779 525.839C315.559 527.019 314.84 528.628 314.774 530.329V538.29C314.169 538.513 313.576 538.768 312.997 539.053C312.813 538.825 312.613 538.61 312.398 538.411L305.817 532.698C304.492 531.637 302.81 531.133 301.124 531.291C299.438 531.45 297.878 532.259 296.772 533.549C295.666 534.838 295.1 536.508 295.193 538.209C295.285 539.909 296.029 541.507 297.269 542.667L303.879 548.4C303.932 548.446 303.989 548.486 304.049 548.521C303.929 548.802 303.829 549.093 303.72 549.384H295.511C293.785 549.392 292.132 550.085 290.912 551.313C289.693 552.542 289.005 554.204 289 555.94C289 557.685 289.689 559.358 290.915 560.593C292.142 561.828 293.805 562.523 295.541 562.526H303.67L303.869 563.068H303.809L297.269 568.881C296.033 570.055 295.3 571.666 295.224 573.374C295.149 575.081 295.736 576.751 296.863 578.031C297.99 579.311 299.567 580.101 301.262 580.233C302.957 580.365 304.637 579.83 305.947 578.74L312.477 572.927L312.617 572.776C313.331 573.164 314.072 573.499 314.834 573.78V581.671C314.9 583.372 315.619 584.981 316.839 586.161C318.06 587.341 319.687 588 321.38 588C323.073 588 324.701 587.341 325.921 586.161C327.141 584.981 327.86 583.372 327.926 581.671V573.86C328.375 573.69 328.825 573.509 329.264 573.298L335.675 578.85C336.996 579.986 338.711 580.548 340.443 580.412C342.175 580.276 343.783 579.455 344.913 578.127C346.042 576.8 346.601 575.076 346.466 573.334C346.331 571.593 345.514 569.976 344.194 568.841L338.501 563.901C338.701 563.449 338.881 562.988 339.051 562.526H347.449C349.186 562.526 350.853 561.832 352.081 560.597C353.31 559.362 354 557.686 354 555.94C353.997 554.195 353.306 552.522 352.078 551.289C350.849 550.056 349.185 549.364 347.449 549.364Z" fill="#C7B8F8"/>
<path d="M347.449 549.364H338.931C338.771 548.922 338.591 548.49 338.402 548.069L344.603 542.547C345.26 541.979 345.797 541.285 346.185 540.506C346.573 539.727 346.803 538.878 346.861 538.009C346.92 537.14 346.806 536.268 346.527 535.443C346.248 534.619 345.808 533.858 345.234 533.206C344.66 532.554 343.963 532.022 343.183 531.643C342.402 531.264 341.555 531.045 340.69 530.997C339.825 530.95 338.959 531.076 338.143 531.368C337.327 531.66 336.576 532.112 335.935 532.698L329.404 538.511C329.304 538.601 329.224 538.712 329.124 538.812C328.715 538.622 328.296 538.451 327.866 538.29V530.329C327.8 528.628 327.082 527.019 325.861 525.839C324.641 524.659 323.013 524 321.32 524C319.627 524 318 524.659 316.779 525.839C315.559 527.019 314.84 528.628 314.774 530.329V538.29C314.169 538.513 313.576 538.768 312.997 539.053C312.813 538.825 312.613 538.61 312.398 538.411L305.817 532.698C304.492 531.637 302.81 531.133 301.124 531.291C299.438 531.45 297.878 532.259 296.772 533.549C295.666 534.838 295.1 536.508 295.193 538.209C295.285 539.909 296.029 541.507 297.269 542.667L303.879 548.4C303.932 548.446 303.989 548.486 304.049 548.521C303.929 548.802 303.829 549.093 303.72 549.384H295.511C293.785 549.392 292.132 550.085 290.912 551.313C289.693 552.542 289.005 554.204 289 555.94C289 557.685 289.689 559.358 290.915 560.593C292.142 561.828 293.805 562.523 295.541 562.526H303.67L303.869 563.068H303.809L297.269 568.881C296.033 570.055 295.3 571.666 295.224 573.374C295.149 575.081 295.736 576.751 296.863 578.031C297.99 579.311 299.567 580.101 301.262 580.233C302.957 580.365 304.637 579.83 305.947 578.74L312.477 572.927L312.617 572.776C313.331 573.164 314.072 573.499 314.834 573.78V581.671C314.9 583.372 315.619 584.981 316.839 586.161C318.06 587.341 319.687 588 321.38 588C323.073 588 324.701 587.341 325.921 586.161C327.141 584.981 327.86 583.372 327.926 581.671V573.86C328.375 573.69 328.825 573.509 329.264 573.298L335.675 578.85C336.996 579.986 338.711 580.548 340.443 580.412C342.175 580.276 343.783 579.455 344.913 578.127C346.042 576.8 346.601 575.076 346.466 573.334C346.331 571.593 345.514 569.976 344.194 568.841L338.501 563.901C338.701 563.449 338.881 562.988 339.051 562.526H347.449C349.186 562.526 350.853 561.832 352.081 560.597C353.31 559.362 354 557.686 354 555.94C353.997 554.195 353.306 552.522 352.078 551.289C350.849 550.056 349.185 549.364 347.449 549.364Z" fill="#C7B8F8"/>
<path d="M347.449 549.364H338.931C338.771 548.922 338.591 548.49 338.402 548.069L344.603 542.547C345.26 541.979 345.797 541.285 346.185 540.506C346.573 539.727 346.803 538.878 346.861 538.009C346.92 537.14 346.806 536.268 346.527 535.443C346.248 534.619 345.808 533.858 345.234 533.206C344.66 532.554 343.963 532.022 343.183 531.643C342.402 531.264 341.555 531.045 340.69 530.997C339.825 530.95 338.959 531.076 338.143 531.368C337.327 531.66 336.576 532.112 335.935 532.698L329.404 538.511C329.304 538.601 329.224 538.712 329.124 538.812C328.715 538.622 328.296 538.451 327.866 538.29V530.329C327.8 528.628 327.082 527.019 325.861 525.839C324.641 524.659 323.013 524 321.32 524C319.627 524 318 524.659 316.779 525.839C315.559 527.019 314.84 528.628 314.774 530.329V538.29C314.169 538.513 313.576 538.768 312.997 539.053C312.813 538.825 312.613 538.61 312.398 538.411L305.817 532.698C304.492 531.637 302.81 531.133 301.124 531.291C299.438 531.45 297.878 532.259 296.772 533.549C295.666 534.838 295.1 536.508 295.193 538.209C295.285 539.909 296.029 541.507 297.269 542.667L303.879 548.4C303.932 548.446 303.989 548.486 304.049 548.521C303.929 548.802 303.829 549.093 303.72 549.384H295.511C293.785 549.392 292.132 550.085 290.912 551.313C289.693 552.542 289.005 554.204 289 555.94C289 557.685 289.689 559.358 290.915 560.593C292.142 561.828 293.805 562.523 295.541 562.526H303.67L303.869 563.068H303.809L297.269 568.881C296.033 570.055 295.3 571.666 295.224 573.374C295.149 575.081 295.736 576.751 296.863 578.031C297.99 579.311 299.567 580.101 301.262 580.233C302.957 580.365 304.637 579.83 305.947 578.74L312.477 572.927L312.617 572.776C313.331 573.164 314.072 573.499 314.834 573.78V581.671C314.9 583.372 315.619 584.981 316.839 586.161C318.06 587.341 319.687 588 321.38 588C323.073 588 324.701 587.341 325.921 586.161C327.141 584.981 327.86 583.372 327.926 581.671V573.86C328.375 573.69 328.825 573.509 329.264 573.298L335.675 578.85C336.996 579.986 338.711 580.548 340.443 580.412C342.175 580.276 343.783 579.455 344.913 578.127C346.042 576.8 346.601 575.076 346.466 573.334C346.331 571.593 345.514 569.976 344.194 568.841L338.501 563.901C338.701 563.449 338.881 562.988 339.051 562.526H347.449C349.186 562.526 350.853 561.832 352.081 560.597C353.31 559.362 354 557.686 354 555.94C353.997 554.195 353.306 552.522 352.078 551.289C350.849 550.056 349.185 549.364 347.449 549.364Z" fill="#C7B8F8"/>
<path d="M415.461 572.94H406.985C406.826 572.506 406.646 572.091 406.446 571.677L412.656 566.247C413.891 565.092 414.624 563.508 414.699 561.829C414.775 560.15 414.188 558.508 413.061 557.249C411.935 555.991 410.358 555.214 408.663 555.084C406.969 554.955 405.29 555.481 403.98 556.553L397.452 562.269C397.353 562.363 397.26 562.461 397.172 562.565C396.763 562.377 396.333 562.209 395.904 562.051V554.223C395.838 552.551 395.12 550.968 393.9 549.808C392.68 548.648 391.053 548 389.36 548C387.668 548 386.041 548.648 384.821 549.808C383.601 550.968 382.882 552.551 382.816 554.223V562.051C382.217 562.269 381.628 562.525 381.049 562.802C380.863 562.579 380.663 562.368 380.45 562.17L373.841 556.533C373.197 555.939 372.437 555.48 371.609 555.183C370.78 554.886 369.9 554.758 369.02 554.805C368.14 554.853 367.278 555.076 366.488 555.46C365.697 555.845 364.993 556.383 364.417 557.043C363.842 557.703 363.407 558.471 363.139 559.302C362.871 560.132 362.775 561.007 362.857 561.874C362.939 562.742 363.197 563.584 363.616 564.351C364.036 565.118 364.607 565.793 365.296 566.336L371.895 571.973C371.952 572.016 372.012 572.055 372.074 572.091C371.955 572.368 371.845 572.654 371.745 572.94H363.539C361.805 572.94 360.142 573.621 358.915 574.834C357.689 576.047 357 577.691 357 579.406C357 581.122 357.689 582.768 358.915 583.982C360.141 585.196 361.804 585.88 363.539 585.882H371.665C371.725 586.06 371.795 586.247 371.865 586.425C371.865 586.425 371.865 586.425 371.805 586.425L365.266 592.141C364.59 592.695 364.033 593.377 363.629 594.148C363.224 594.919 362.981 595.763 362.913 596.628C362.845 597.494 362.954 598.364 363.233 599.188C363.512 600.011 363.956 600.77 364.538 601.421C365.12 602.071 365.828 602.599 366.621 602.973C367.413 603.347 368.274 603.56 369.151 603.599C370.028 603.637 370.904 603.501 371.727 603.198C372.55 602.895 373.303 602.432 373.941 601.835L380.47 596.119L380.61 595.981C381.323 596.356 382.06 596.686 382.816 596.968V604.777C382.882 606.449 383.601 608.032 384.821 609.192C386.041 610.352 387.668 611 389.36 611C391.053 611 392.68 610.352 393.9 609.192C395.12 608.032 395.838 606.449 395.904 604.777V596.978C396.363 596.81 396.813 596.633 397.252 596.425L403.651 601.884C404.301 602.44 405.056 602.863 405.872 603.13C406.687 603.398 407.548 603.503 408.405 603.441C409.262 603.38 410.099 603.151 410.866 602.77C411.634 602.388 412.319 601.861 412.88 601.218C413.442 600.575 413.87 599.829 414.141 599.022C414.411 598.216 414.518 597.364 414.455 596.517C414.392 595.669 414.162 594.842 413.776 594.083C413.39 593.324 412.857 592.647 412.207 592.092L406.506 587.235C406.716 586.79 406.896 586.336 407.065 585.882H415.461C417.196 585.88 418.859 585.196 420.085 583.982C421.311 582.768 422 581.122 422 579.406C422 578.557 421.831 577.716 421.502 576.932C421.174 576.147 420.692 575.434 420.085 574.834C419.478 574.234 418.757 573.757 417.963 573.432C417.17 573.107 416.32 572.94 415.461 572.94Z" fill="#C7B8F8"/>
<path d="M415.461 572.94H406.985C406.826 572.506 406.646 572.091 406.446 571.677L412.656 566.247C413.891 565.092 414.624 563.508 414.699 561.829C414.775 560.15 414.188 558.508 413.061 557.249C411.935 555.991 410.358 555.214 408.663 555.084C406.969 554.955 405.29 555.481 403.98 556.553L397.452 562.269C397.353 562.363 397.26 562.461 397.172 562.565C396.763 562.377 396.333 562.209 395.904 562.051V554.223C395.838 552.551 395.12 550.968 393.9 549.808C392.68 548.648 391.053 548 389.36 548C387.668 548 386.041 548.648 384.821 549.808C383.601 550.968 382.882 552.551 382.816 554.223V562.051C382.217 562.269 381.628 562.525 381.049 562.802C380.863 562.579 380.663 562.368 380.45 562.17L373.841 556.533C373.197 555.939 372.437 555.48 371.609 555.183C370.78 554.886 369.9 554.758 369.02 554.805C368.14 554.853 367.278 555.076 366.488 555.46C365.697 555.845 364.993 556.383 364.417 557.043C363.842 557.703 363.407 558.471 363.139 559.302C362.871 560.132 362.775 561.007 362.857 561.874C362.939 562.742 363.197 563.584 363.616 564.351C364.036 565.118 364.607 565.793 365.296 566.336L371.895 571.973C371.952 572.016 372.012 572.055 372.074 572.091C371.955 572.368 371.845 572.654 371.745 572.94H363.539C361.805 572.94 360.142 573.621 358.915 574.834C357.689 576.047 357 577.691 357 579.406C357 581.122 357.689 582.768 358.915 583.982C360.141 585.196 361.804 585.88 363.539 585.882H371.665C371.725 586.06 371.795 586.247 371.865 586.425C371.865 586.425 371.865 586.425 371.805 586.425L365.266 592.141C364.59 592.695 364.033 593.377 363.629 594.148C363.224 594.919 362.981 595.763 362.913 596.628C362.845 597.494 362.954 598.364 363.233 599.188C363.512 600.011 363.956 600.77 364.538 601.421C365.12 602.071 365.828 602.599 366.621 602.973C367.413 603.347 368.274 603.56 369.151 603.599C370.028 603.637 370.904 603.501 371.727 603.198C372.55 602.895 373.303 602.432 373.941 601.835L380.47 596.119L380.61 595.981C381.323 596.356 382.06 596.686 382.816 596.968V604.777C382.882 606.449 383.601 608.032 384.821 609.192C386.041 610.352 387.668 611 389.36 611C391.053 611 392.68 610.352 393.9 609.192C395.12 608.032 395.838 606.449 395.904 604.777V596.978C396.363 596.81 396.813 596.633 397.252 596.425L403.651 601.884C404.301 602.44 405.056 602.863 405.872 603.13C406.687 603.398 407.548 603.503 408.405 603.441C409.262 603.38 410.099 603.151 410.866 602.77C411.634 602.388 412.319 601.861 412.88 601.218C413.442 600.575 413.87 599.829 414.141 599.022C414.411 598.216 414.518 597.364 414.455 596.517C414.392 595.669 414.162 594.842 413.776 594.083C413.39 593.324 412.857 592.647 412.207 592.092L406.506 587.235C406.716 586.79 406.896 586.336 407.065 585.882H415.461C417.196 585.88 418.859 585.196 420.085 583.982C421.311 582.768 422 581.122 422 579.406C422 578.557 421.831 577.716 421.502 576.932C421.174 576.147 420.692 575.434 420.085 574.834C419.478 574.234 418.757 573.757 417.963 573.432C417.17 573.107 416.32 572.94 415.461 572.94Z" fill="#C7B8F8"/>
<path d="M415.461 572.94H406.985C406.826 572.506 406.646 572.091 406.446 571.677L412.656 566.247C413.891 565.092 414.624 563.508 414.699 561.829C414.775 560.15 414.188 558.508 413.061 557.249C411.935 555.991 410.358 555.214 408.663 555.084C406.969 554.955 405.29 555.481 403.98 556.553L397.452 562.269C397.353 562.363 397.26 562.461 397.172 562.565C396.763 562.377 396.333 562.209 395.904 562.051V554.223C395.838 552.551 395.12 550.968 393.9 549.808C392.68 548.648 391.053 548 389.36 548C387.668 548 386.041 548.648 384.821 549.808C383.601 550.968 382.882 552.551 382.816 554.223V562.051C382.217 562.269 381.628 562.525 381.049 562.802C380.863 562.579 380.663 562.368 380.45 562.17L373.841 556.533C373.197 555.939 372.437 555.48 371.609 555.183C370.78 554.886 369.9 554.758 369.02 554.805C368.14 554.853 367.278 555.076 366.488 555.46C365.697 555.845 364.993 556.383 364.417 557.043C363.842 557.703 363.407 558.471 363.139 559.302C362.871 560.132 362.775 561.007 362.857 561.874C362.939 562.742 363.197 563.584 363.616 564.351C364.036 565.118 364.607 565.793 365.296 566.336L371.895 571.973C371.952 572.016 372.012 572.055 372.074 572.091C371.955 572.368 371.845 572.654 371.745 572.94H363.539C361.805 572.94 360.142 573.621 358.915 574.834C357.689 576.047 357 577.691 357 579.406C357 581.122 357.689 582.768 358.915 583.982C360.141 585.196 361.804 585.88 363.539 585.882H371.665C371.725 586.06 371.795 586.247 371.865 586.425C371.865 586.425 371.865 586.425 371.805 586.425L365.266 592.141C364.59 592.695 364.033 593.377 363.629 594.148C363.224 594.919 362.981 595.763 362.913 596.628C362.845 597.494 362.954 598.364 363.233 599.188C363.512 600.011 363.956 600.77 364.538 601.421C365.12 602.071 365.828 602.599 366.621 602.973C367.413 603.347 368.274 603.56 369.151 603.599C370.028 603.637 370.904 603.501 371.727 603.198C372.55 602.895 373.303 602.432 373.941 601.835L380.47 596.119L380.61 595.981C381.323 596.356 382.06 596.686 382.816 596.968V604.777C382.882 606.449 383.601 608.032 384.821 609.192C386.041 610.352 387.668 611 389.36 611C391.053 611 392.68 610.352 393.9 609.192C395.12 608.032 395.838 606.449 395.904 604.777V596.978C396.363 596.81 396.813 596.633 397.252 596.425L403.651 601.884C404.301 602.44 405.056 602.863 405.872 603.13C406.687 603.398 407.548 603.503 408.405 603.441C409.262 603.38 410.099 603.151 410.866 602.77C411.634 602.388 412.319 601.861 412.88 601.218C413.442 600.575 413.87 599.829 414.141 599.022C414.411 598.216 414.518 597.364 414.455 596.517C414.392 595.669 414.162 594.842 413.776 594.083C413.39 593.324 412.857 592.647 412.207 592.092L406.506 587.235C406.716 586.79 406.896 586.336 407.065 585.882H415.461C417.196 585.88 418.859 585.196 420.085 583.982C421.311 582.768 422 581.122 422 579.406C422 578.557 421.831 577.716 421.502 576.932C421.174 576.147 420.692 575.434 420.085 574.834C419.478 574.234 418.757 573.757 417.963 573.432C417.17 573.107 416.32 572.94 415.461 572.94Z" fill="#C7B8F8"/>
<path d="M415.461 572.94H406.985C406.826 572.506 406.646 572.091 406.446 571.677L412.656 566.247C413.891 565.092 414.624 563.508 414.699 561.829C414.775 560.15 414.188 558.508 413.061 557.249C411.935 555.991 410.358 555.214 408.663 555.084C406.969 554.955 405.29 555.481 403.98 556.553L397.452 562.269C397.353 562.363 397.26 562.461 397.172 562.565C396.763 562.377 396.333 562.209 395.904 562.051V554.223C395.838 552.551 395.12 550.968 393.9 549.808C392.68 548.648 391.053 548 389.36 548C387.668 548 386.041 548.648 384.821 549.808C383.601 550.968 382.882 552.551 382.816 554.223V562.051C382.217 562.269 381.628 562.525 381.049 562.802C380.863 562.579 380.663 562.368 380.45 562.17L373.841 556.533C373.197 555.939 372.437 555.48 371.609 555.183C370.78 554.886 369.9 554.758 369.02 554.805C368.14 554.853 367.278 555.076 366.488 555.46C365.697 555.845 364.993 556.383 364.417 557.043C363.842 557.703 363.407 558.471 363.139 559.302C362.871 560.132 362.775 561.007 362.857 561.874C362.939 562.742 363.197 563.584 363.616 564.351C364.036 565.118 364.607 565.793 365.296 566.336L371.895 571.973C371.952 572.016 372.012 572.055 372.074 572.091C371.955 572.368 371.845 572.654 371.745 572.94H363.539C361.805 572.94 360.142 573.621 358.915 574.834C357.689 576.047 357 577.691 357 579.406C357 581.122 357.689 582.768 358.915 583.982C360.141 585.196 361.804 585.88 363.539 585.882H371.665C371.725 586.06 371.795 586.247 371.865 586.425C371.865 586.425 371.865 586.425 371.805 586.425L365.266 592.141C364.59 592.695 364.033 593.377 363.629 594.148C363.224 594.919 362.981 595.763 362.913 596.628C362.845 597.494 362.954 598.364 363.233 599.188C363.512 600.011 363.956 600.77 364.538 601.421C365.12 602.071 365.828 602.599 366.621 602.973C367.413 603.347 368.274 603.56 369.151 603.599C370.028 603.637 370.904 603.501 371.727 603.198C372.55 602.895 373.303 602.432 373.941 601.835L380.47 596.119L380.61 595.981C381.323 596.356 382.06 596.686 382.816 596.968V604.777C382.882 606.449 383.601 608.032 384.821 609.192C386.041 610.352 387.668 611 389.36 611C391.053 611 392.68 610.352 393.9 609.192C395.12 608.032 395.838 606.449 395.904 604.777V596.978C396.363 596.81 396.813 596.633 397.252 596.425L403.651 601.884C404.301 602.44 405.056 602.863 405.872 603.13C406.687 603.398 407.548 603.503 408.405 603.441C409.262 603.38 410.099 603.151 410.866 602.77C411.634 602.388 412.319 601.861 412.88 601.218C413.442 600.575 413.87 599.829 414.141 599.022C414.411 598.216 414.518 597.364 414.455 596.517C414.392 595.669 414.162 594.842 413.776 594.083C413.39 593.324 412.857 592.647 412.207 592.092L406.506 587.235C406.716 586.79 406.896 586.336 407.065 585.882H415.461C417.196 585.88 418.859 585.196 420.085 583.982C421.311 582.768 422 581.122 422 579.406C422 578.557 421.831 577.716 421.502 576.932C421.174 576.147 420.692 575.434 420.085 574.834C419.478 574.234 418.757 573.757 417.963 573.432C417.17 573.107 416.32 572.94 415.461 572.94Z" fill="#C7B8F8"/>
<path d="M415.461 572.94H406.985C406.826 572.506 406.646 572.091 406.446 571.677L412.656 566.247C413.891 565.092 414.624 563.508 414.699 561.829C414.775 560.15 414.188 558.508 413.061 557.249C411.935 555.991 410.358 555.214 408.663 555.084C406.969 554.955 405.29 555.481 403.98 556.553L397.452 562.269C397.353 562.363 397.26 562.461 397.172 562.565C396.763 562.377 396.333 562.209 395.904 562.051V554.223C395.838 552.551 395.12 550.968 393.9 549.808C392.68 548.648 391.053 548 389.36 548C387.668 548 386.041 548.648 384.821 549.808C383.601 550.968 382.882 552.551 382.816 554.223V562.051C382.217 562.269 381.628 562.525 381.049 562.802C380.863 562.579 380.663 562.368 380.45 562.17L373.841 556.533C373.197 555.939 372.437 555.48 371.609 555.183C370.78 554.886 369.9 554.758 369.02 554.805C368.14 554.853 367.278 555.076 366.488 555.46C365.697 555.845 364.993 556.383 364.417 557.043C363.842 557.703 363.407 558.471 363.139 559.302C362.871 560.132 362.775 561.007 362.857 561.874C362.939 562.742 363.197 563.584 363.616 564.351C364.036 565.118 364.607 565.793 365.296 566.336L371.895 571.973C371.952 572.016 372.012 572.055 372.074 572.091C371.955 572.368 371.845 572.654 371.745 572.94H363.539C361.805 572.94 360.142 573.621 358.915 574.834C357.689 576.047 357 577.691 357 579.406C357 581.122 357.689 582.768 358.915 583.982C360.141 585.196 361.804 585.88 363.539 585.882H371.665C371.725 586.06 371.795 586.247 371.865 586.425C371.865 586.425 371.865 586.425 371.805 586.425L365.266 592.141C364.59 592.695 364.033 593.377 363.629 594.148C363.224 594.919 362.981 595.763 362.913 596.628C362.845 597.494 362.954 598.364 363.233 599.188C363.512 600.011 363.956 600.77 364.538 601.421C365.12 602.071 365.828 602.599 366.621 602.973C367.413 603.347 368.274 603.56 369.151 603.599C370.028 603.637 370.904 603.501 371.727 603.198C372.55 602.895 373.303 602.432 373.941 601.835L380.47 596.119L380.61 595.981C381.323 596.356 382.06 596.686 382.816 596.968V604.777C382.882 606.449 383.601 608.032 384.821 609.192C386.041 610.352 387.668 611 389.36 611C391.053 611 392.68 610.352 393.9 609.192C395.12 608.032 395.838 606.449 395.904 604.777V596.978C396.363 596.81 396.813 596.633 397.252 596.425L403.651 601.884C404.301 602.44 405.056 602.863 405.872 603.13C406.687 603.398 407.548 603.503 408.405 603.441C409.262 603.38 410.099 603.151 410.866 602.77C411.634 602.388 412.319 601.861 412.88 601.218C413.442 600.575 413.87 599.829 414.141 599.022C414.411 598.216 414.518 597.364 414.455 596.517C414.392 595.669 414.162 594.842 413.776 594.083C413.39 593.324 412.857 592.647 412.207 592.092L406.506 587.235C406.716 586.79 406.896 586.336 407.065 585.882H415.461C417.196 585.88 418.859 585.196 420.085 583.982C421.311 582.768 422 581.122 422 579.406C422 578.557 421.831 577.716 421.502 576.932C421.174 576.147 420.692 575.434 420.085 574.834C419.478 574.234 418.757 573.757 417.963 573.432C417.17 573.107 416.32 572.94 415.461 572.94Z" fill="#C7B8F8"/>
<path d="M415.461 572.94H406.985C406.826 572.506 406.646 572.091 406.446 571.677L412.656 566.247C413.891 565.092 414.624 563.508 414.699 561.829C414.775 560.15 414.188 558.508 413.061 557.249C411.935 555.991 410.358 555.214 408.663 555.084C406.969 554.955 405.29 555.481 403.98 556.553L397.452 562.269C397.353 562.363 397.26 562.461 397.172 562.565C396.763 562.377 396.333 562.209 395.904 562.051V554.223C395.838 552.551 395.12 550.968 393.9 549.808C392.68 548.648 391.053 548 389.36 548C387.668 548 386.041 548.648 384.821 549.808C383.601 550.968 382.882 552.551 382.816 554.223V562.051C382.217 562.269 381.628 562.525 381.049 562.802C380.863 562.579 380.663 562.368 380.45 562.17L373.841 556.533C373.197 555.939 372.437 555.48 371.609 555.183C370.78 554.886 369.9 554.758 369.02 554.805C368.14 554.853 367.278 555.076 366.488 555.46C365.697 555.845 364.993 556.383 364.417 557.043C363.842 557.703 363.407 558.471 363.139 559.302C362.871 560.132 362.775 561.007 362.857 561.874C362.939 562.742 363.197 563.584 363.616 564.351C364.036 565.118 364.607 565.793 365.296 566.336L371.895 571.973C371.952 572.016 372.012 572.055 372.074 572.091C371.955 572.368 371.845 572.654 371.745 572.94H363.539C361.805 572.94 360.142 573.621 358.915 574.834C357.689 576.047 357 577.691 357 579.406C357 581.122 357.689 582.768 358.915 583.982C360.141 585.196 361.804 585.88 363.539 585.882H371.665C371.725 586.06 371.795 586.247 371.865 586.425C371.865 586.425 371.865 586.425 371.805 586.425L365.266 592.141C364.59 592.695 364.033 593.377 363.629 594.148C363.224 594.919 362.981 595.763 362.913 596.628C362.845 597.494 362.954 598.364 363.233 599.188C363.512 600.011 363.956 600.77 364.538 601.421C365.12 602.071 365.828 602.599 366.621 602.973C367.413 603.347 368.274 603.56 369.151 603.599C370.028 603.637 370.904 603.501 371.727 603.198C372.55 602.895 373.303 602.432 373.941 601.835L380.47 596.119L380.61 595.981C381.323 596.356 382.06 596.686 382.816 596.968V604.777C382.882 606.449 383.601 608.032 384.821 609.192C386.041 610.352 387.668 611 389.36 611C391.053 611 392.68 610.352 393.9 609.192C395.12 608.032 395.838 606.449 395.904 604.777V596.978C396.363 596.81 396.813 596.633 397.252 596.425L403.651 601.884C404.301 602.44 405.056 602.863 405.872 603.13C406.687 603.398 407.548 603.503 408.405 603.441C409.262 603.38 410.099 603.151 410.866 602.77C411.634 602.388 412.319 601.861 412.88 601.218C413.442 600.575 413.87 599.829 414.141 599.022C414.411 598.216 414.518 597.364 414.455 596.517C414.392 595.669 414.162 594.842 413.776 594.083C413.39 593.324 412.857 592.647 412.207 592.092L406.506 587.235C406.716 586.79 406.896 586.336 407.065 585.882H415.461C417.196 585.88 418.859 585.196 420.085 583.982C421.311 582.768 422 581.122 422 579.406C422 578.557 421.831 577.716 421.502 576.932C421.174 576.147 420.692 575.434 420.085 574.834C419.478 574.234 418.757 573.757 417.963 573.432C417.17 573.107 416.32 572.94 415.461 572.94Z" fill="#C7B8F8"/>
<path d="M415.461 572.94H406.985C406.826 572.506 406.646 572.091 406.446 571.677L412.656 566.247C413.891 565.092 414.624 563.508 414.699 561.829C414.775 560.15 414.188 558.508 413.061 557.249C411.935 555.991 410.358 555.214 408.663 555.084C406.969 554.955 405.29 555.481 403.98 556.553L397.452 562.269C397.353 562.363 397.26 562.461 397.172 562.565C396.763 562.377 396.333 562.209 395.904 562.051V554.223C395.838 552.551 395.12 550.968 393.9 549.808C392.68 548.648 391.053 548 389.36 548C387.668 548 386.041 548.648 384.821 549.808C383.601 550.968 382.882 552.551 382.816 554.223V562.051C382.217 562.269 381.628 562.525 381.049 562.802C380.863 562.579 380.663 562.368 380.45 562.17L373.841 556.533C373.197 555.939 372.437 555.48 371.609 555.183C370.78 554.886 369.9 554.758 369.02 554.805C368.14 554.853 367.278 555.076 366.488 555.46C365.697 555.845 364.993 556.383 364.417 557.043C363.842 557.703 363.407 558.471 363.139 559.302C362.871 560.132 362.775 561.007 362.857 561.874C362.939 562.742 363.197 563.584 363.616 564.351C364.036 565.118 364.607 565.793 365.296 566.336L371.895 571.973C371.952 572.016 372.012 572.055 372.074 572.091C371.955 572.368 371.845 572.654 371.745 572.94H363.539C361.805 572.94 360.142 573.621 358.915 574.834C357.689 576.047 357 577.691 357 579.406C357 581.122 357.689 582.768 358.915 583.982C360.141 585.196 361.804 585.88 363.539 585.882H371.665C371.725 586.06 371.795 586.247 371.865 586.425C371.865 586.425 371.865 586.425 371.805 586.425L365.266 592.141C364.59 592.695 364.033 593.377 363.629 594.148C363.224 594.919 362.981 595.763 362.913 596.628C362.845 597.494 362.954 598.364 363.233 599.188C363.512 600.011 363.956 600.77 364.538 601.421C365.12 602.071 365.828 602.599 366.621 602.973C367.413 603.347 368.274 603.56 369.151 603.599C370.028 603.637 370.904 603.501 371.727 603.198C372.55 602.895 373.303 602.432 373.941 601.835L380.47 596.119L380.61 595.981C381.323 596.356 382.06 596.686 382.816 596.968V604.777C382.882 606.449 383.601 608.032 384.821 609.192C386.041 610.352 387.668 611 389.36 611C391.053 611 392.68 610.352 393.9 609.192C395.12 608.032 395.838 606.449 395.904 604.777V596.978C396.363 596.81 396.813 596.633 397.252 596.425L403.651 601.884C404.301 602.44 405.056 602.863 405.872 603.13C406.687 603.398 407.548 603.503 408.405 603.441C409.262 603.38 410.099 603.151 410.866 602.77C411.634 602.388 412.319 601.861 412.88 601.218C413.442 600.575 413.87 599.829 414.141 599.022C414.411 598.216 414.518 597.364 414.455 596.517C414.392 595.669 414.162 594.842 413.776 594.083C413.39 593.324 412.857 592.647 412.207 592.092L406.506 587.235C406.716 586.79 406.896 586.336 407.065 585.882H415.461C417.196 585.88 418.859 585.196 420.085 583.982C421.311 582.768 422 581.122 422 579.406C422 578.557 421.831 577.716 421.502 576.932C421.174 576.147 420.692 575.434 420.085 574.834C419.478 574.234 418.757 573.757 417.963 573.432C417.17 573.107 416.32 572.94 415.461 572.94Z" fill="#C7B8F8"/>
<path d="M321 565C325.971 565 330 561.194 330 556.5C330 551.806 325.971 548 321 548C316.029 548 312 551.806 312 556.5C312 561.194 316.029 565 321 565Z" fill="white"/>
<path d="M390 589C394.971 589 399 584.971 399 580C399 575.029 394.971 571 390 571C385.029 571 381 575.029 381 580C381 584.971 385.029 589 390 589Z" fill="white"/>
<path d="M401.5 736C398.237 736 395.047 735.003 392.333 733.135C389.62 731.267 387.505 728.612 386.256 725.506C385.007 722.399 384.68 718.981 385.317 715.683C385.954 712.386 387.525 709.357 389.833 706.979C392.14 704.602 395.08 702.983 398.281 702.327C401.482 701.671 404.799 702.007 407.814 703.294C410.829 704.581 413.406 706.76 415.219 709.555C417.032 712.351 418 715.638 418 719C417.995 723.507 416.255 727.828 413.161 731.015C410.068 734.202 405.874 735.995 401.5 736ZM401.5 706.136C399.031 706.136 396.617 706.891 394.563 708.304C392.51 709.718 390.91 711.727 389.965 714.077C389.02 716.428 388.773 719.014 389.255 721.51C389.736 724.005 390.925 726.297 392.671 728.096C394.418 729.895 396.642 731.12 399.064 731.617C401.486 732.113 403.997 731.858 406.278 730.885C408.559 729.911 410.509 728.262 411.881 726.147C413.253 724.031 413.985 721.544 413.985 719C413.977 715.591 412.659 712.324 410.32 709.913C407.98 707.502 404.809 706.144 401.5 706.136Z" fill="black"/>
<path d="M375.5 761C373.226 761 371.002 760.355 369.111 759.146C367.22 757.937 365.746 756.22 364.875 754.21C364.005 752.2 363.777 749.988 364.221 747.854C364.665 745.72 365.76 743.76 367.368 742.222C368.977 740.683 371.026 739.636 373.256 739.211C375.487 738.787 377.8 739.005 379.901 739.837C382.002 740.67 383.798 742.08 385.062 743.889C386.326 745.698 387 747.824 387 750C386.997 752.917 385.785 755.713 383.629 757.775C381.473 759.838 378.549 760.997 375.5 761ZM375.5 742.863C374.024 742.863 372.582 743.282 371.355 744.066C370.128 744.85 369.171 745.965 368.607 747.269C368.042 748.573 367.894 750.008 368.182 751.392C368.47 752.777 369.181 754.049 370.224 755.047C371.268 756.045 372.597 756.724 374.044 757C375.492 757.275 376.992 757.134 378.355 756.594C379.719 756.054 380.884 755.139 381.704 753.965C382.524 752.791 382.961 751.412 382.961 750C382.959 748.108 382.172 746.294 380.773 744.956C379.374 743.618 377.478 742.866 375.5 742.863Z" fill="black"/>
</svg>
