<svg width="1465" height="886" viewBox="0 0 1465 886" fill="none" xmlns="http://www.w3.org/2000/svg">
<path d="M857.037 123.912L393.369 327.091C352.901 344.825 346.799 399.724 382.396 425.898L790.164 725.9C825.753 752.083 876.348 729.916 881.217 686.017L937.118 182.846C941.997 138.91 897.504 106.178 857.037 123.912Z" fill="#FFC1EB"/>
<path d="M1048.71 746.336H371.051C370.559 746.336 370.087 746.141 369.74 745.793C369.392 745.445 369.196 744.973 369.196 744.481C369.196 743.989 369.392 743.517 369.74 743.169C370.087 742.821 370.559 742.626 371.051 742.626H1048.71C1049.21 742.626 1049.68 742.821 1050.03 743.169C1050.37 743.517 1050.57 743.989 1050.57 744.481C1050.57 744.973 1050.37 745.445 1050.03 745.793C1049.68 746.141 1049.21 746.336 1048.71 746.336Z" fill="black"/>
<path d="M695.242 516.009C725.971 516.009 750.883 491.098 750.883 460.368C750.883 429.638 725.971 404.727 695.242 404.727C664.512 404.727 639.601 429.638 639.601 460.368C639.601 491.098 664.512 516.009 695.242 516.009Z" fill="black"/>
<path d="M861.636 564.017C893.764 564.017 919.809 538.138 919.809 506.214C919.809 474.291 893.764 448.412 861.636 448.412C829.508 448.412 803.463 474.291 803.463 506.214C803.463 538.138 829.508 564.017 861.636 564.017Z" fill="black"/>
<path d="M803.463 486.032C835.591 486.032 861.636 460.153 861.636 428.23C861.636 396.307 835.591 370.428 803.463 370.428C771.335 370.428 745.29 396.307 745.29 428.23C745.29 460.153 771.335 486.032 803.463 486.032Z" fill="black"/>
<path d="M752.358 418.946H717.001C708.298 418.946 699.679 417.231 691.638 413.9C683.598 410.569 676.292 405.687 670.138 399.532C663.984 393.377 659.103 386.071 655.773 378.029C652.443 369.988 650.73 361.37 650.731 352.666V307.441C650.743 297.045 654.882 287.078 662.239 279.732C669.596 272.386 679.568 268.261 689.964 268.263H737.703C753.879 268.263 769.393 274.689 780.831 286.128C792.27 297.566 798.696 313.08 798.696 329.256V372.691C798.691 378.771 797.488 384.79 795.157 390.405C792.825 396.02 789.411 401.121 785.108 405.417C780.805 409.712 775.698 413.117 770.078 415.439C764.459 417.76 758.438 418.952 752.358 418.946V418.946Z" fill="black"/>
<path d="M665.358 283.752C665.358 283.752 644.378 286.85 638.868 331.222C638.217 336.642 635.877 341.72 632.181 345.738L628.805 349.392C627.953 350.312 627.469 351.512 627.443 352.765C627.418 354.018 627.853 355.237 628.666 356.191L633.238 361.57L630.929 389.952C630.929 389.952 626.291 420.198 661.898 419.261H684.548V450.638H755.734V396.704C755.734 396.704 771.956 393.921 774.905 377.95C775.65 373.957 775.482 369.848 774.412 365.93C773.342 362.012 771.399 358.388 768.728 355.328C763.413 349.308 754.046 344.198 738.621 351.395C738.631 351.395 677.36 363.694 665.358 283.752Z" fill="white"/>
<path d="M750.883 384.804C749.415 384.804 747.981 384.369 746.761 383.554C745.54 382.738 744.589 381.579 744.028 380.224C743.466 378.868 743.319 377.376 743.605 375.937C743.892 374.497 744.598 373.175 745.636 372.137C746.674 371.1 747.996 370.393 749.435 370.107C750.875 369.82 752.367 369.967 753.722 370.529C755.078 371.09 756.237 372.042 757.052 373.262C757.868 374.482 758.303 375.917 758.303 377.384C758.303 379.352 757.521 381.239 756.13 382.631C754.738 384.022 752.851 384.804 750.883 384.804ZM750.883 373.618C750.149 373.618 749.432 373.836 748.822 374.244C748.212 374.651 747.736 375.231 747.455 375.909C747.175 376.587 747.101 377.333 747.244 378.052C747.387 378.772 747.741 379.433 748.26 379.952C748.778 380.471 749.439 380.824 750.159 380.967C750.879 381.11 751.625 381.037 752.303 380.756C752.981 380.475 753.56 380 753.968 379.39C754.375 378.78 754.593 378.062 754.593 377.328C754.593 376.344 754.202 375.401 753.506 374.705C752.811 374.009 751.867 373.618 750.883 373.618Z" fill="black"/>
<path d="M745.29 379.211C744.808 379.211 744.344 379.024 743.998 378.688C743.652 378.352 743.45 377.894 743.435 377.412C743.305 373.581 744.446 370.483 746.839 368.202C751.588 363.676 759.518 364.251 759.824 364.278C760.316 364.317 760.773 364.549 761.094 364.923C761.415 365.298 761.574 365.785 761.536 366.277C761.497 366.769 761.265 367.226 760.891 367.547C760.516 367.868 760.029 368.027 759.537 367.988V367.988C759.472 367.988 752.896 367.525 749.334 370.919C747.73 372.459 746.997 374.546 747.09 377.31C747.098 377.554 747.059 377.798 746.973 378.027C746.887 378.256 746.757 378.466 746.589 378.644C746.422 378.823 746.221 378.966 745.998 379.067C745.775 379.167 745.535 379.223 745.29 379.23V379.211Z" fill="black"/>
<path d="M672.824 351.34C675.247 351.34 677.211 349.376 677.211 346.953C677.211 344.53 675.247 342.566 672.824 342.566C670.401 342.566 668.437 344.53 668.437 346.953C668.437 349.376 670.401 351.34 672.824 351.34Z" fill="black"/>
<path d="M657.418 388.338C655.632 388.345 653.862 387.992 652.215 387.299C646.882 385.045 643.302 379.1 643.311 372.515C643.313 371.962 643.436 371.417 643.671 370.918C643.907 370.418 644.248 369.976 644.673 369.622C645.097 369.269 645.593 369.012 646.127 368.871C646.661 368.73 647.219 368.707 647.763 368.805L669.884 372.756C670.45 372.86 670.984 373.092 671.447 373.433C671.91 373.774 672.29 374.215 672.558 374.724C672.826 375.233 672.975 375.796 672.994 376.371C673.012 376.946 672.901 377.517 672.667 378.043C669.828 384.35 663.549 388.338 657.418 388.338ZM647.095 372.413C647.084 372.439 647.084 372.469 647.095 372.496C647.095 377.616 649.757 382.179 653.736 383.867C659.839 386.446 666.87 382.012 669.365 376.447L669.309 376.336L647.179 372.385L647.095 372.413Z" fill="black"/>
<path d="M683.963 419.298H717.975C718.276 419.3 718.568 419.406 718.801 419.597C719.034 419.789 719.194 420.054 719.255 420.349C719.315 420.645 719.273 420.952 719.135 421.22C718.996 421.487 718.77 421.7 718.494 421.821L683.963 436.568V419.298Z" fill="black"/>
<path d="M683.963 449.915C683.956 448.223 684.493 446.574 685.496 445.211C686.498 443.848 687.912 442.844 689.528 442.346C690.766 441.972 692.036 441.717 693.322 441.586C698.18 441.136 703.047 442.342 707.133 445.008C710.544 442.365 714.735 440.926 719.051 440.916C723.366 440.906 727.564 442.325 730.988 444.953C734.443 442.633 738.479 441.329 742.637 441.187C745.247 441.115 747.847 441.511 750.317 442.356C751.856 442.893 753.189 443.896 754.131 445.226C755.074 446.556 755.579 448.146 755.576 449.776V466.007H683.963V449.915Z" fill="#C7B8F8"/>
<path d="M960.091 684.063L550.83 683.72L568.972 517.632C570.692 501.892 578.153 487.338 589.929 476.753C601.705 466.168 616.969 460.295 632.802 460.257L801.989 459.83C821.728 459.782 841.031 465.632 857.423 476.63C873.815 487.628 886.547 503.272 893.988 521.555C928.305 600.467 953.135 658.084 955.843 664.92C957.132 668.271 958.164 671.716 958.932 675.224C959.534 678.138 959.921 681.093 960.091 684.063V684.063Z" fill="#C7B8F8"/>
<path d="M836.269 683.85H626.486V541.673H784.802C786.964 541.673 789.07 542.366 790.811 543.649C792.552 544.933 793.836 546.74 794.475 548.805L836.269 683.85Z" fill="black"/>
<path d="M784.774 543.528C784.332 543.534 783.902 543.383 783.562 543.101C783.222 542.818 782.994 542.424 782.919 541.988C782.4 538.918 770.463 466.758 795.366 458.086C795.831 457.924 796.341 457.953 796.785 458.167C797.228 458.381 797.569 458.762 797.731 459.227C797.893 459.692 797.865 460.202 797.651 460.646C797.437 461.089 797.055 461.43 796.59 461.592C778.346 467.936 783.179 521.333 786.583 541.358C786.624 541.598 786.617 541.845 786.563 542.083C786.509 542.321 786.408 542.546 786.267 542.745C786.125 542.944 785.946 543.113 785.739 543.243C785.533 543.372 785.302 543.46 785.061 543.5C784.967 543.517 784.87 543.526 784.774 543.528V543.528Z" fill="black"/>
<path d="M631.123 543.528C630.705 543.529 630.299 543.388 629.97 543.129C629.642 542.869 629.411 542.507 629.315 542.1C624.471 521.909 624.341 500.874 628.934 480.625C630.6 473.416 632.871 466.36 635.724 459.533C635.922 459.093 636.284 458.747 636.734 458.569C637.183 458.392 637.684 458.397 638.13 458.583C638.575 458.769 638.931 459.122 639.121 459.566C639.311 460.01 639.32 460.511 639.146 460.961C636.376 467.597 634.17 474.454 632.552 481.459C628.083 501.156 628.214 521.617 632.932 541.256C632.987 541.493 632.994 541.739 632.954 541.98C632.914 542.22 632.827 542.45 632.698 542.657C632.569 542.864 632.4 543.043 632.201 543.184C632.003 543.326 631.778 543.427 631.541 543.482C631.404 543.515 631.264 543.531 631.123 543.528V543.528Z" fill="black"/>
<path d="M604.606 427.534C602.677 425.041 600.464 422.781 598.012 420.801L597.91 420.708C593.322 416.636 589.337 411.933 586.075 406.74C583.181 402.102 581.437 397.353 578.599 390.045C577.18 386.409 576.178 383.552 575.622 381.957C569.009 362.961 564.668 345.932 557.953 343.484C556.942 343.141 555.891 342.926 554.827 342.844C553.41 342.711 551.981 342.863 550.623 343.292C549.266 343.72 548.008 344.416 546.925 345.339C546.206 345.952 545.581 346.668 545.07 347.463C542.473 351.59 543.762 357.573 546.424 369.361C546.85 371.216 547.231 372.747 547.481 373.767L552.87 398.476C552.87 398.476 539.625 401.471 540.367 411.971C540.367 411.971 528.124 404.718 523.375 418.964C523.375 418.964 507.886 420.216 512.384 437.208C512.384 437.208 518.626 459.951 527.874 460.702C527.874 460.702 526.13 496.188 555.615 511.715L603.846 505.649L607.018 491.903C615.365 455.73 611.6 443.998 610.199 439.657C608.845 435.399 606.967 431.327 604.606 427.534V427.534Z" fill="white"/>
<path d="M561.867 491.597C561.574 491.598 561.286 491.529 561.025 491.397C560.763 491.265 560.537 491.073 560.365 490.836C554.796 483.276 551.339 474.371 550.347 465.033C548.242 443.701 560.429 427.933 565.419 422.507L561.552 412.527C561.171 411.516 560.68 410.227 560.133 408.947C557.063 401.815 555.681 395.823 556.033 391.13C556.133 389.712 556.519 388.33 557.168 387.066C557.816 385.802 558.715 384.682 559.808 383.775C560.879 382.881 562.12 382.215 563.456 381.817C564.792 381.418 566.195 381.295 567.58 381.456C575.984 382.383 581.011 391.992 581.224 392.391C581.336 392.608 581.404 392.845 581.425 393.088C581.446 393.331 581.418 393.576 581.344 393.808C581.27 394.041 581.151 394.257 580.993 394.443C580.836 394.63 580.643 394.783 580.426 394.895C580.21 395.007 579.973 395.076 579.73 395.096C579.487 395.117 579.242 395.089 579.009 395.015C578.777 394.941 578.561 394.822 578.374 394.665C578.188 394.507 578.034 394.315 577.922 394.098C577.922 394.014 573.591 385.852 567.172 385.147C566.282 385.043 565.38 385.121 564.52 385.376C563.661 385.631 562.862 386.058 562.173 386.631C561.464 387.221 560.883 387.948 560.463 388.769C560.044 389.59 559.796 390.488 559.734 391.408C559.428 395.498 560.708 400.906 563.537 407.482C564.121 408.826 564.631 410.181 565.021 411.192L569.732 423.342L568.907 424.195C564.891 428.36 551.961 443.58 554.067 464.653C554.98 473.325 558.181 481.599 563.342 488.629C563.631 489.025 563.752 489.52 563.677 490.005C563.602 490.49 563.338 490.926 562.943 491.217C562.633 491.453 562.257 491.586 561.867 491.597V491.597Z" fill="black"/>
<path d="M666.935 674.788C654.374 673.961 641.769 675.458 629.751 679.203C585.036 693.292 565.197 734.585 560.986 743.934L666.935 744.481V674.788Z" fill="white"/>
<path d="M668.789 746.345L558.12 745.77L559.288 743.173C566.207 727.851 586.854 690.779 629.194 677.432C641.427 673.617 654.259 672.092 667.046 672.933L668.789 673.045V746.345ZM563.889 742.097L665.079 742.617V676.541C653.316 675.969 641.545 677.479 630.307 681.003C591.621 693.162 571.615 725.987 563.889 742.097Z" fill="black"/>
<path d="M545.274 465.822C543.462 465.84 541.671 465.446 540.033 464.672C537.994 463.673 536.266 462.137 535.034 460.229C534.398 461.005 533.605 461.638 532.706 462.084C531.001 462.891 529.05 463.008 527.262 462.408C527.033 462.325 526.822 462.197 526.643 462.033C526.463 461.868 526.318 461.669 526.215 461.448C526.112 461.228 526.053 460.989 526.043 460.745C526.032 460.502 526.07 460.258 526.153 460.029C526.237 459.8 526.364 459.59 526.529 459.41C526.694 459.231 526.892 459.085 527.113 458.983C527.334 458.88 527.573 458.821 527.817 458.811C528.06 458.8 528.303 458.838 528.532 458.921C529.379 459.175 530.289 459.113 531.092 458.745C531.653 458.384 532.136 457.915 532.513 457.366C532.891 456.817 533.155 456.198 533.29 455.545L535.145 449.507L536.88 455.573C536.88 455.573 538.113 459.626 541.694 461.314C544.235 462.52 547.463 462.306 551.284 460.693C551.51 460.586 551.755 460.527 552.004 460.517C552.254 460.508 552.503 460.549 552.736 460.638C552.969 460.728 553.182 460.863 553.361 461.036C553.541 461.209 553.684 461.417 553.781 461.647C553.879 461.877 553.929 462.124 553.929 462.374C553.928 462.623 553.877 462.87 553.779 463.1C553.681 463.33 553.538 463.537 553.358 463.71C553.177 463.883 552.964 464.017 552.731 464.106C550.385 465.17 547.849 465.754 545.274 465.822V465.822Z" fill="black"/>
<path d="M535.062 457.956C534.668 457.955 534.286 457.828 533.969 457.595C533.652 457.361 533.418 457.033 533.3 456.658L521.595 419.502C521.447 419.032 521.492 418.523 521.72 418.086C521.948 417.65 522.34 417.322 522.81 417.174C523.28 417.026 523.789 417.072 524.225 417.299C524.662 417.527 524.99 417.919 525.138 418.389L536.796 455.545C536.87 455.778 536.896 456.022 536.875 456.265C536.854 456.508 536.785 456.745 536.672 456.961C536.559 457.177 536.405 457.369 536.217 457.526C536.03 457.682 535.814 457.8 535.581 457.873C535.413 457.925 535.238 457.953 535.062 457.956Z" fill="black"/>
<path d="M553.426 450.267C553.044 450.267 552.671 450.148 552.359 449.927C552.047 449.706 551.811 449.394 551.683 449.034L538.651 412.574C538.569 412.344 538.533 412.101 538.545 411.857C538.557 411.613 538.616 411.374 538.721 411.154C538.825 410.934 538.971 410.736 539.152 410.572C539.333 410.408 539.544 410.281 539.773 410.199C540.003 410.117 540.247 410.081 540.49 410.093C540.734 410.105 540.973 410.164 541.193 410.269C541.414 410.373 541.611 410.519 541.775 410.7C541.939 410.881 542.066 411.092 542.148 411.322L555.133 447.791C555.233 448.071 555.263 448.371 555.223 448.666C555.182 448.961 555.071 449.241 554.899 449.484C554.727 449.727 554.5 449.925 554.235 450.061C553.971 450.198 553.677 450.268 553.38 450.267H553.426Z" fill="black"/>
<path d="M880.706 763.449H679.808C676.743 763.45 673.707 762.847 670.875 761.675C668.043 760.503 665.469 758.784 663.301 756.617C661.133 754.45 659.413 751.877 658.24 749.045C657.067 746.213 656.463 743.178 656.463 740.113V701.593C656.465 687.851 661.926 674.672 671.643 664.954C681.361 655.236 694.54 649.776 708.283 649.774H925.801C934.903 649.774 943.631 653.389 950.067 659.825C956.503 666.261 960.119 674.99 960.119 684.091V684.091C960.115 694.516 958.058 704.839 954.065 714.469C950.072 724.099 944.222 732.848 936.848 740.217C929.473 747.586 920.72 753.43 911.087 757.416C901.454 761.403 891.131 763.452 880.706 763.449Z" fill="#C7B8F8"/>
<path d="M570.038 767.131C561.721 766.958 553.52 765.149 545.902 761.807C538.285 758.465 531.4 753.655 525.641 747.652C519.883 741.649 515.363 734.57 512.341 726.82C509.318 719.07 507.851 710.8 508.025 702.484L511.485 536.043C511.687 526.485 515.676 517.398 522.576 510.78C529.475 504.162 538.72 500.555 548.279 500.751L602.862 501.892C612.413 502.099 621.491 506.09 628.1 512.988C634.709 519.886 638.309 529.126 638.108 538.677L634.685 705.118C634.513 713.435 632.704 721.636 629.361 729.254C626.019 736.871 621.209 743.756 615.206 749.514C609.203 755.273 602.124 759.793 594.374 762.815C586.624 765.838 578.355 767.304 570.038 767.131Z" fill="#C7B8F8"/>
<path d="M867.09 649.764H816.727C816.235 649.764 815.763 649.569 815.415 649.221C815.067 648.873 814.872 648.401 814.872 647.909C814.872 647.417 815.067 646.946 815.415 646.598C815.763 646.25 816.235 646.054 816.727 646.054H867.09C867.582 646.054 868.054 646.25 868.402 646.598C868.75 646.946 868.945 647.417 868.945 647.909C868.945 648.401 868.75 648.873 868.402 649.221C868.054 649.569 867.582 649.764 867.09 649.764Z" fill="black"/>
<path d="M638.367 543.528C637.875 543.528 637.403 543.333 637.055 542.985C636.708 542.637 636.512 542.165 636.512 541.673C636.271 504.656 605.997 503.849 604.727 503.849C604.235 503.849 603.763 503.654 603.415 503.306C603.067 502.958 602.872 502.486 602.872 501.994C602.872 501.502 603.067 501.031 603.415 500.683C603.763 500.335 604.235 500.139 604.727 500.139C605.079 500.139 639.916 500.946 640.185 541.682C640.185 542.174 639.99 542.646 639.642 542.994C639.294 543.342 638.822 543.537 638.33 543.537L638.367 543.528Z" fill="black"/>
<path d="M746.811 462.223H689.306C688.814 462.223 688.342 462.027 687.994 461.68C687.646 461.332 687.451 460.86 687.451 460.368C687.451 459.876 687.646 459.404 687.994 459.056C688.342 458.708 688.814 458.513 689.306 458.513H746.811C747.303 458.513 747.775 458.708 748.123 459.056C748.471 459.404 748.666 459.876 748.666 460.368C748.666 460.86 748.471 461.332 748.123 461.68C747.775 462.027 747.303 462.223 746.811 462.223Z" fill="black"/>
<path d="M692.311 756.242C691.819 756.242 691.347 756.046 690.999 755.699C690.651 755.351 690.456 754.879 690.456 754.387V670.244C690.456 669.752 690.651 669.28 690.999 668.932C691.347 668.584 691.819 668.389 692.311 668.389C692.803 668.389 693.275 668.584 693.623 668.932C693.971 669.28 694.166 669.752 694.166 670.244V754.387C694.166 754.879 693.971 755.351 693.623 755.699C693.275 756.046 692.803 756.242 692.311 756.242Z" fill="black"/>
<path d="M615.875 535.644H531.741C531.249 535.644 530.777 535.449 530.43 535.101C530.082 534.753 529.886 534.281 529.886 533.789C529.886 533.297 530.082 532.825 530.43 532.477C530.777 532.13 531.249 531.934 531.741 531.934H615.875C616.367 531.934 616.839 532.13 617.187 532.477C617.535 532.825 617.73 533.297 617.73 533.789C617.73 534.281 617.535 534.753 617.187 535.101C616.839 535.449 616.367 535.644 615.875 535.644Z" fill="black"/>
<path d="M413.837 661.423C413.457 661.424 413.086 661.307 412.774 661.09C412.462 660.873 412.224 660.565 412.093 660.208C401.334 630.862 379.093 607.034 378.87 606.802C378.532 606.444 378.35 605.967 378.364 605.474C378.377 604.982 378.586 604.516 378.944 604.177C379.302 603.839 379.78 603.657 380.272 603.671C380.764 603.685 381.231 603.894 381.569 604.252C381.792 604.493 404.553 628.849 415.581 658.974C415.748 659.436 415.726 659.945 415.519 660.39C415.312 660.835 414.938 661.18 414.477 661.349C414.27 661.413 414.053 661.438 413.837 661.423V661.423Z" fill="black"/>
<path d="M424.336 664.447C423.844 664.447 423.373 664.251 423.025 663.903C422.677 663.556 422.481 663.084 422.481 662.592V637.187C422.481 636.695 422.677 636.224 423.025 635.876C423.373 635.528 423.844 635.332 424.336 635.332C424.828 635.332 425.3 635.528 425.648 635.876C425.996 636.224 426.191 636.695 426.191 637.187V662.592C426.191 663.084 425.996 663.556 425.648 663.903C425.3 664.251 424.828 664.447 424.336 664.447Z" fill="black"/>
<path d="M478.994 700.796C478.991 694.723 476.578 688.9 472.284 684.606C467.99 680.311 462.167 677.898 456.094 677.896H450.993V660.598H387.867V677.905H382.765C376.692 677.905 370.867 680.318 366.573 684.612C362.278 688.907 359.865 694.731 359.865 700.805V700.805C359.873 706.873 362.289 712.689 366.583 716.976C370.877 721.264 376.698 723.67 382.765 723.668C379.758 723.667 376.781 724.258 374.003 725.408C371.224 726.558 368.7 728.243 366.573 730.369C364.446 732.495 362.76 735.019 361.609 737.797C360.458 740.574 359.865 743.552 359.865 746.559V746.559C359.864 749.566 360.456 752.545 361.606 755.324C362.756 758.103 364.443 760.628 366.57 762.754C368.697 764.881 371.221 766.568 374 767.718C376.779 768.869 379.758 769.46 382.765 769.459H456.094C462.167 769.459 467.992 767.046 472.287 762.752C476.581 758.457 478.994 752.632 478.994 746.559V746.559C478.991 740.487 476.578 734.665 472.283 730.372C467.989 726.079 462.166 723.668 456.094 723.668C462.163 723.668 467.983 721.259 472.277 716.97C476.571 712.682 478.987 706.864 478.994 700.796V700.796Z" fill="#6DC8C2"/>
<path d="M457.059 725.653H431.19C430.698 725.653 430.227 725.457 429.879 725.109C429.531 724.762 429.335 724.29 429.335 723.798C429.335 723.306 429.531 722.834 429.879 722.486C430.227 722.138 430.698 721.943 431.19 721.943H457.059C457.551 721.943 458.022 722.138 458.37 722.486C458.718 722.834 458.914 723.306 458.914 723.798C458.914 724.29 458.718 724.762 458.37 725.109C458.022 725.457 457.551 725.653 457.059 725.653V725.653Z" fill="black"/>
<path d="M394.934 725.523H381.393C380.901 725.523 380.429 725.327 380.081 724.98C379.733 724.632 379.538 724.16 379.538 723.668C379.538 723.176 379.733 722.704 380.081 722.356C380.429 722.008 380.901 721.813 381.393 721.813H394.934C395.426 721.813 395.898 722.008 396.246 722.356C396.594 722.704 396.789 723.176 396.789 723.668C396.789 724.16 396.594 724.632 396.246 724.98C395.898 725.327 395.426 725.523 394.934 725.523Z" fill="black"/>
<path d="M419.439 665.977C437.188 665.977 451.577 662.979 451.577 659.281C451.577 655.582 437.188 652.584 419.439 652.584C401.689 652.584 387.301 655.582 387.301 659.281C387.301 662.979 401.689 665.977 419.439 665.977Z" fill="black"/>
<path d="M424.337 637.187C432.712 637.187 439.501 630.398 439.501 622.023C439.501 613.647 432.712 606.858 424.337 606.858C415.961 606.858 409.172 613.647 409.172 622.023C409.172 630.398 415.961 637.187 424.337 637.187Z" fill="#FFBB45"/>
<path d="M374.761 615.576C383.736 615.576 391.011 608.301 391.011 599.327C391.011 590.352 383.736 583.077 374.761 583.077C365.787 583.077 358.511 590.352 358.511 599.327C358.511 608.301 365.787 615.576 374.761 615.576Z" fill="#FFBB45"/>
<path d="M654.297 225.169C646.751 255.437 616.094 273.858 585.823 266.31C555.563 258.763 537.142 228.105 544.692 197.839C552.235 167.567 582.892 149.144 613.154 156.691C643.424 164.237 661.843 194.899 654.297 225.169Z" fill="#F7931A"/>
<path d="M624.405 203.452C625.529 195.934 619.805 191.892 611.978 189.196L614.517 179.012L608.318 177.467L605.846 187.383C604.217 186.977 602.543 186.593 600.88 186.214L603.369 176.233L597.174 174.688L594.633 184.868C593.284 184.561 591.96 184.257 590.674 183.938L590.681 183.906L582.132 181.771L580.483 188.393C580.483 188.393 585.083 189.447 584.985 189.512C587.496 190.139 587.95 191.8 587.874 193.117L584.982 204.719C585.155 204.763 585.379 204.827 585.626 204.926C585.42 204.875 585.199 204.818 584.971 204.763L580.917 221.016C580.61 221.779 579.832 222.923 578.077 222.489C578.138 222.579 573.571 221.364 573.571 221.364L570.493 228.46L578.56 230.471C580.061 230.847 581.532 231.241 582.98 231.612L580.414 241.912L586.606 243.457L589.147 233.266C590.838 233.725 592.48 234.149 594.087 234.548L591.555 244.691L597.754 246.236L600.32 235.955C610.891 237.955 618.84 237.149 622.185 227.588C624.881 219.89 622.051 215.449 616.489 212.553C620.54 211.619 623.591 208.955 624.405 203.452V203.452ZM610.241 223.313C608.325 231.011 595.364 226.85 591.162 225.806L594.566 212.16C598.768 213.208 612.243 215.285 610.241 223.313ZM612.158 203.34C610.41 210.343 599.622 206.785 596.123 205.913L599.209 193.536C602.709 194.408 613.979 196.036 612.158 203.34V203.34Z" fill="white"/>
<circle cx="882.5" cy="175.5" r="56.5" fill="#4F46E5"/>
<path d="M878.866 200.768C872.249 199.52 867.253 197.167 863.878 193.71C860.561 190.264 859.372 186.052 860.311 181.075L872.5 183.374C871.605 188.117 874.263 191.074 880.474 192.245C883.202 192.76 885.402 192.567 887.075 191.667C888.805 190.778 889.834 189.464 890.162 187.727C890.614 185.332 890.035 183.302 888.426 181.637C886.825 179.925 884.482 178.802 881.397 178.269L875.202 177.173L876.73 169.073L882.912 170.239C885.93 170.808 888.412 170.717 890.357 169.966C892.302 169.214 893.465 167.829 893.846 165.809C894.182 164.025 893.76 162.438 892.58 161.048C891.466 159.622 889.575 158.658 886.904 158.154C884.119 157.629 881.806 157.776 879.969 158.596C878.198 159.381 877.113 160.83 876.714 162.943L864.96 160.726C865.846 156.03 868.395 152.717 872.606 150.789C876.883 148.824 882.185 148.438 888.512 149.631C892.633 150.409 896.054 151.71 898.775 153.537C901.563 155.327 903.537 157.45 904.697 159.906C905.857 162.361 906.184 164.927 905.679 167.604C904.749 172.535 901.689 175.532 896.5 176.595C901.405 179.903 903.296 184.539 902.171 190.503C901.666 193.179 900.397 195.444 898.365 197.298C896.341 199.105 893.642 200.346 890.269 201.023C886.962 201.663 883.161 201.578 878.866 200.768Z" fill="white"/>
<path fill-rule="evenodd" clip-rule="evenodd" d="M893.471 144.593L885.027 143L882.96 153.957H885.065C887.33 153.957 889.492 154.398 891.471 155.199L893.471 144.593ZM883.168 199.214H880.869C878.672 199.214 876.572 198.8 874.644 198.044L873.205 205.669L881.65 207.262L883.168 199.214Z" fill="white"/>
<circle cx="931.459" cy="399.459" r="56.5" transform="rotate(10.0079 931.459 399.459)" fill="white"/>
<g opacity="0.6">
<path opacity="0.6" d="M933.583 390.272L912.311 395.753L929.95 410.862L951.687 402.701L933.583 390.272Z" fill="#010101"/>
</g>
<g opacity="0.45">
<path opacity="0.45" d="M912.311 395.753L929.95 410.862L937.769 366.555L912.311 395.753Z" fill="#010101"/>
</g>
<g opacity="0.8">
<path opacity="0.8" d="M937.77 366.555L929.951 410.862L951.688 402.701L937.77 366.555Z" fill="#010101"/>
</g>
<g opacity="0.45">
<path opacity="0.45" d="M911.653 399.483L926.45 430.7L929.292 414.592L911.653 399.483Z" fill="#010101"/>
</g>
<g opacity="0.8">
<path opacity="0.8" d="M929.292 414.592L926.449 430.7L951.044 406.435L929.292 414.592Z" fill="#010101"/>
</g>
<circle cx="414.479" cy="378.479" r="56.5" transform="rotate(-14.0868 414.479 378.479)" fill="#273446"/>
<g clip-path="url(#clip0_114_570)">
<path d="M427.89 341.09L412.848 367.89L412.6 356.158L427.89 341.09Z" fill="#E2761B" stroke="#E2761B" stroke-linecap="round" stroke-linejoin="round"/>
<path d="M375.896 364.342L405.789 371.237L397.344 362.981L375.896 364.342Z" fill="#E4761B" stroke="#E4761B" stroke-linecap="round" stroke-linejoin="round"/>
<path d="M437.127 383.489L435.238 395.361L449.652 393.153L447.743 378.985L437.127 383.489Z" fill="#E4761B" stroke="#E4761B" stroke-linecap="round" stroke-linejoin="round"/>
<path d="M390.951 404.383L400.216 415.261L411.471 405.99L401.363 399.483L390.951 404.383Z" fill="#E4761B" stroke="#E4761B" stroke-linecap="round" stroke-linejoin="round"/>
<path d="M399.693 381.596L398.536 388.605L411.533 383.472L404.956 369.98L399.693 381.596Z" fill="#E4761B" stroke="#E4761B" stroke-linecap="round" stroke-linejoin="round"/>
<path d="M424.886 370.329L412.535 366.4L418.436 380.385L430.904 374.13L424.886 370.329Z" fill="#E4761B" stroke="#E4761B" stroke-linecap="round" stroke-linejoin="round"/>
<path d="M411.471 405.99L417.452 398.834L408.534 396.629L411.471 405.99Z" fill="#E4761B" stroke="#E4761B" stroke-linecap="round" stroke-linejoin="round"/>
<path d="M425.895 395.058L435.239 395.361L430.197 386.941L425.895 395.058Z" fill="#E4761B" stroke="#E4761B" stroke-linecap="round" stroke-linejoin="round"/>
<path d="M435.238 395.361L425.895 395.058L428.743 399.787L429.616 401.923L435.238 395.361Z" fill="#D7C1B3" stroke="#D7C1B3" stroke-linecap="round" stroke-linejoin="round"/>
<path d="M411.471 405.99L420.11 406.174L419.123 404.089L417.452 398.834L411.471 405.99Z" fill="#D7C1B3" stroke="#D7C1B3" stroke-linecap="round" stroke-linejoin="round"/>
<path d="M413.258 390.55L406.035 391.526L409.618 387.452L413.258 390.55Z" fill="#233447" stroke="#233447" stroke-linecap="round" stroke-linejoin="round"/>
<path d="M422.516 386.41L422.634 381.631L428.082 381.667L422.516 386.41Z" fill="#233447" stroke="#233447" stroke-linecap="round" stroke-linejoin="round"/>
<path d="M411.471 405.99L408.448 396.314L401.454 399.686L411.471 405.99Z" fill="#CD6116" stroke="#CD6116" stroke-linecap="round" stroke-linejoin="round"/>
<path d="M430.042 386.657L435.238 395.361L437.218 383.692L430.042 386.657Z" fill="#CD6116" stroke="#CD6116" stroke-linecap="round" stroke-linejoin="round"/>
<path d="M430.904 374.13L418.436 380.385L422.539 386.4L422.656 381.621L428.104 381.656L430.904 374.13Z" fill="#CD6116" stroke="#CD6116" stroke-linecap="round" stroke-linejoin="round"/>
<path d="M406.035 391.526L409.641 387.442L413.258 390.55L411.533 383.472L398.536 388.605L406.035 391.526Z" fill="#CD6116" stroke="#CD6116" stroke-linecap="round" stroke-linejoin="round"/>
<path d="M398.536 388.605L408.534 396.629L406.035 391.526L398.536 388.605Z" fill="#E4751F" stroke="#E4751F" stroke-linecap="round" stroke-linejoin="round"/>
<path d="M428.105 381.656L430.197 386.941L430.905 374.13L428.105 381.656Z" fill="#E4751F" stroke="#E4751F" stroke-linecap="round" stroke-linejoin="round"/>
<path d="M411.533 383.472L413.259 390.55L418.204 397.601L413.999 387.286L411.533 383.472Z" fill="#E4751F" stroke="#E4751F" stroke-linecap="round" stroke-linejoin="round"/>
<path d="M418.436 380.385L419.647 384.732L424.474 394.797L422.539 386.4L418.436 380.385Z" fill="#E4751F" stroke="#E4751F" stroke-linecap="round" stroke-linejoin="round"/>
<path d="M422.539 386.4L424.474 394.797L425.895 395.058L430.196 386.941L428.105 381.656L422.539 386.4Z" fill="#F6851B" stroke="#F6851B" stroke-linecap="round" stroke-linejoin="round"/>
<path d="M406.035 391.526L408.534 396.629L417.451 398.834L418.204 397.601L413.258 390.55L406.035 391.526Z" fill="#F6851B" stroke="#F6851B" stroke-linecap="round" stroke-linejoin="round"/>
<path d="M429.617 401.923L428.743 399.787L427.955 399.542L419.421 403.359L419.123 404.089L420.11 406.174L411.471 405.99L414.872 406.914L421.489 408.165L430.158 404.288L433.66 398.512L435.239 395.361L429.617 401.923Z" fill="#C0AD9E" stroke="#C0AD9E" stroke-linecap="round" stroke-linejoin="round"/>
<path d="M425.895 395.058L424.474 394.797L418.204 397.601L417.452 398.834L419.123 404.089L419.421 403.359L427.954 399.542L428.743 399.787L425.895 395.058Z" fill="#161616" stroke="#161616" stroke-linecap="round" stroke-linejoin="round"/>
<path d="M436.808 358.479L434.601 348.383L427.89 341.09L413.342 366.99L424.886 370.329L438.273 368.498L439.532 364.268L438.036 363.96L439.108 361.497L437.219 361.038L438.412 358.848L436.808 358.479Z" fill="#763D16" stroke="#763D16" stroke-linecap="round" stroke-linejoin="round"/>
<path d="M376.88 374.196L382.935 382.571L382.117 384.023L384.546 384.594L383.651 386.298L386.201 387.141L385.433 388.462L389.403 390.354L399.692 381.596L404.899 370.766L375.896 364.342L376.88 374.196Z" fill="#763D16" stroke="#763D16" stroke-linecap="round" stroke-linejoin="round"/>
<path d="M438.273 368.498L424.886 370.329L430.905 374.13L430.196 386.941L437.218 383.692L447.744 378.985L438.273 368.498Z" fill="#F6851B" stroke="#F6851B" stroke-linecap="round" stroke-linejoin="round"/>
<path d="M399.693 381.596L389.403 390.354L390.951 404.383L401.454 399.686L408.534 396.629L398.535 388.605L399.693 381.596Z" fill="#F6851B" stroke="#F6851B" stroke-linecap="round" stroke-linejoin="round"/>
<path d="M418.437 380.385L413.343 366.99L412.623 356.148L397.344 362.981L404.9 370.766L411.533 383.472L413.647 387.47L418.204 397.601L424.474 394.797L419.985 384.636L418.437 380.385Z" fill="#F6851B" stroke="#F6851B" stroke-linecap="round" stroke-linejoin="round"/>
</g>
<defs>
<clipPath id="clip0_114_570">
<rect width="79" height="79" fill="white" transform="translate(362.252 360.801) rotate(-24.0946)"/>
</clipPath>
</defs>
</svg>
