<svg width="74" height="74" viewBox="0 0 74 74" fill="none" xmlns="http://www.w3.org/2000/svg">
<g clip-path="url(#clip0_2162_4)">
<path d="M47 38C53.0751 38 58 33.0751 58 27C58 20.9249 53.0751 16 47 16C40.9249 16 36 20.9249 36 27C36 33.0751 40.9249 38 47 38Z" fill="black"/>
<path d="M27 12C30.3137 12 33 9.31371 33 6C33 2.68629 30.3137 0 27 0C23.6863 0 21 2.68629 21 6C21 9.31371 23.6863 12 27 12Z" fill="black"/>
<path d="M47 10C49.2091 10 51 8.20914 51 6C51 3.79086 49.2091 2 47 2C44.7909 2 43 3.79086 43 6C43 8.20914 44.7909 10 47 10Z" fill="black"/>
<path d="M6 31C8.20914 31 10 29.2091 10 27C10 24.7909 8.20914 23 6 23C3.79086 23 2 24.7909 2 27C2 29.2091 3.79086 31 6 31Z" fill="black"/>
<path d="M27 72C29.2091 72 31 70.2091 31 68C31 65.7909 29.2091 64 27 64C24.7909 64 23 65.7909 23 68C23 70.2091 24.7909 72 27 72Z" fill="black"/>
<path d="M68 51C70.2091 51 72 49.2091 72 47C72 44.7909 70.2091 43 68 43C65.7909 43 64 44.7909 64 47C64 49.2091 65.7909 51 68 51Z" fill="black"/>
<path d="M6 9C7.65685 9 9 7.65685 9 6C9 4.34315 7.65685 3 6 3C4.34315 3 3 4.34315 3 6C3 7.65685 4.34315 9 6 9Z" fill="black"/>
<path d="M6 71C7.65685 71 9 69.6569 9 68C9 66.3431 7.65685 65 6 65C4.34315 65 3 66.3431 3 68C3 69.6569 4.34315 71 6 71Z" fill="black"/>
<path d="M68 71C69.6569 71 71 69.6569 71 68C71 66.3431 69.6569 65 68 65C66.3431 65 65 66.3431 65 68C65 69.6569 66.3431 71 68 71Z" fill="black"/>
<path d="M68 9C69.6569 9 71 7.65685 71 6C71 4.34315 69.6569 3 68 3C66.3431 3 65 4.34315 65 6C65 7.65685 66.3431 9 68 9Z" fill="black"/>
<path d="M47 74C50.3137 74 53 71.3137 53 68C53 64.6863 50.3137 62 47 62C43.6863 62 41 64.6863 41 68C41 71.3137 43.6863 74 47 74Z" fill="black"/>
<path d="M68 33C71.3137 33 74 30.3137 74 27C74 23.6863 71.3137 21 68 21C64.6863 21 62 23.6863 62 27C62 30.3137 64.6863 33 68 33Z" fill="black"/>
<path d="M6 53C9.31371 53 12 50.3137 12 47C12 43.6863 9.31371 41 6 41C2.68629 41 0 43.6863 0 47C0 50.3137 2.68629 53 6 53Z" fill="black"/>
<path d="M47 58C53.0751 58 58 53.0751 58 47C58 40.9249 53.0751 36 47 36C40.9249 36 36 40.9249 36 47C36 53.0751 40.9249 58 47 58Z" fill="black"/>
<path d="M27 38C33.0751 38 38 33.0751 38 27C38 20.9249 33.0751 16 27 16C20.9249 16 16 20.9249 16 27C16 33.0751 20.9249 38 27 38Z" fill="black"/>
<path d="M27 58C33.0751 58 38 53.0751 38 47C38 40.9249 33.0751 36 27 36C20.9249 36 16 40.9249 16 47C16 53.0751 20.9249 58 27 58Z" fill="black"/>
</g>
<defs>
<clipPath id="clip0_2162_4">
<rect width="74" height="74" fill="white"/>
</clipPath>
</defs>
</svg>
