<svg xmlns="http://www.w3.org/2000/svg" xmlns:xlink="http://www.w3.org/1999/xlink" viewBox="0 0 539.49 346.16"><defs><style>.a32466cb-e126-4025-9327-01bbf30633a7,.a7cc2f7e-3522-4ae1-8579-8e783c0a10ae,.a9470fa9-832c-43b4-ab50-e51d2949d262,.aba0a984-beae-4b5f-82f2-0e2e7919f320,.b0076c3a-8030-4353-9435-0900c8fc6df3,.b26d81ef-82f6-442c-8862-11f6059508b3,.b4a548da-ef9e-400c-8599-0f7326a552d8,.b6ca8baa-52a3-4fdd-b352-3b87546cd74a,.ba532957-e9b7-4ad2-84db-59f86a328fe8,.bdb14913-6cac-4221-8341-108d979cc826,.f487a597-3468-4967-a054-cf39e67aebb0,.f5b82492-dede-45f7-8788-f2af981d212a,.f7e2ed5b-aeb3-485d-8a07-1ca4230c9bc3,.fb1df337-b3bb-47f8-b350-be4f9b92bbd4{fill:none;}.bfbf2217-55bf-4a2a-bd70-858902b0ecdb{isolation:isolate;}.b09e122f-2fff-443f-91a4-3aeee12d1aad{fill:#f6f9fc;}.a7cc2f7e-3522-4ae1-8579-8e783c0a10ae,.aba0a984-beae-4b5f-82f2-0e2e7919f320,.b0076c3a-8030-4353-9435-0900c8fc6df3,.ba532957-e9b7-4ad2-84db-59f86a328fe8{stroke:#35b354;}.a7cc2f7e-3522-4ae1-8579-8e783c0a10ae,.b6ca8baa-52a3-4fdd-b352-3b87546cd74a,.ba532957-e9b7-4ad2-84db-59f86a328fe8,.f487a597-3468-4967-a054-cf39e67aebb0{stroke-miterlimit:10;}.a7cc2f7e-3522-4ae1-8579-8e783c0a10ae,.aba0a984-beae-4b5f-82f2-0e2e7919f320,.b4a548da-ef9e-400c-8599-0f7326a552d8,.fb1df337-b3bb-47f8-b350-be4f9b92bbd4{stroke-width:4px;}.f487a597-3468-4967-a054-cf39e67aebb0{stroke:#fe6703;}.b1a5ec7d-b3ec-4f10-b33f-d922218cb1b5{fill:#fb8206;}.b74d2aa5-d4fd-427f-8370-4f149f71b5a2{fill:#35b354;}.f5f7934c-9058-46d3-93d7-cf1e90ba61d2{fill:#c2ffcf;}.fdcb0c6a-9d3e-4d3d-9efd-a80e66a91c6e{fill:#ffc2b6;}.a9470fa9-832c-43b4-ab50-e51d2949d262{stroke:#fb8206;}.a9470fa9-832c-43b4-ab50-e51d2949d262,.aba0a984-beae-4b5f-82f2-0e2e7919f320,.b0076c3a-8030-4353-9435-0900c8fc6df3,.b26d81ef-82f6-442c-8862-11f6059508b3,.b4a548da-ef9e-400c-8599-0f7326a552d8,.bdb14913-6cac-4221-8341-108d979cc826,.f5b82492-dede-45f7-8788-f2af981d212a,.f7e2ed5b-aeb3-485d-8a07-1ca4230c9bc3,.fb1df337-b3bb-47f8-b350-be4f9b92bbd4{stroke-linecap:round;stroke-linejoin:round;}.b90e64ad-b258-4f13-96ad-608cdbbda068{fill:#ffe3d4;}.b9d561f1-3568-41e3-8405-5868ae6fd09c{fill:#46e067;}.afb71bfb-662d-4854-a882-1776f92a5d80,.b35c7670-a208-4898-93bd-1d6c705504e5,.f29cd752-691f-42a5-bcd3-e027fb9e8735{fill:#fff;}.afb71bfb-662d-4854-a882-1776f92a5d80{opacity:0.2;}.e4d7730a-3d19-4818-9489-e77599084983{fill:#3b3e7d;}.baaf18c5-37aa-45c1-9b62-7e866e8a7c46{fill:#f50;}.b6ca8baa-52a3-4fdd-b352-3b87546cd74a,.bdb14913-6cac-4221-8341-108d979cc826,.f7e2ed5b-aeb3-485d-8a07-1ca4230c9bc3,.fb1df337-b3bb-47f8-b350-be4f9b92bbd4{stroke:#c2ffcf;}.ba532957-e9b7-4ad2-84db-59f86a328fe8,.f7e2ed5b-aeb3-485d-8a07-1ca4230c9bc3{stroke-width:5px;}.b26d81ef-82f6-442c-8862-11f6059508b3,.b4a548da-ef9e-400c-8599-0f7326a552d8,.f5b82492-dede-45f7-8788-f2af981d212a{stroke:#fe7a5a;}.b26d81ef-82f6-442c-8862-11f6059508b3,.b6ca8baa-52a3-4fdd-b352-3b87546cd74a{stroke-width:2px;}.e6e65ef2-a95a-4705-8785-01d2418dbeba{clip-path:url(#bb98b5a6-d427-49c4-bc2c-31fbb90f57d3);}.ea25f441-ffa3-4f0b-8220-355ae06879de{opacity:0.48;}.bd0f7054-2460-4f94-a25a-8227d1003b48{fill:#ffffab;}.b84c6b6d-a13a-49d7-9d7e-bba17d4cda74{fill:#fe7a5a;}.f19512c6-41cf-4fcc-90a6-b2568f3d0eba{fill:#999;opacity:0.58;mix-blend-mode:multiply;}.f29cd752-691f-42a5-bcd3-e027fb9e8735{opacity:0.46;}</style><clipPath id="bb98b5a6-d427-49c4-bc2c-31fbb90f57d3" transform="translate(17.23 9.66)"><rect class="a32466cb-e126-4025-9327-01bbf30633a7" x="3.27" y="1.75" width="499.7" height="320.22" rx="25.93"></rect></clipPath></defs><g class="bfbf2217-55bf-4a2a-bd70-858902b0ecdb"><g id="ecf23fce-e48c-43a5-bcf5-3e8d87f6ae68" data-name="Layer 1"><rect class="b09e122f-2fff-443f-91a4-3aeee12d1aad" x="20.51" y="11.41" width="499.7" height="320.22" rx="25.93"></rect><polygon class="a7cc2f7e-3522-4ae1-8579-8e783c0a10ae" points="419.56 268.31 426.92 256.52 413.03 256.06 399.14 255.58 405.68 267.84 412.21 280.11 419.56 268.31"></polygon><polygon class="f487a597-3468-4967-a054-cf39e67aebb0" points="426.31 265.55 434.29 252.98 419.42 252.36 404.54 251.74 411.44 264.93 418.33 278.12 426.31 265.55"></polygon><path class="b1a5ec7d-b3ec-4f10-b33f-d922218cb1b5" d="M266.16,249.69H255.55a10.61,10.61,0,0,1-10.61-10.61,11,11,0,0,1,.37-2.65h4.93a2.5,2.5,0,0,1,.67.14,5.22,5.22,0,0,0-.67,2.51,5.31,5.31,0,0,0,5.31,5.31h10.6a5.31,5.31,0,1,0,0-10.61h-3.77a13.29,13.29,0,0,0-4.26-5.3h8a10.61,10.61,0,0,1,0,21.21Z" transform="translate(17.23 9.66)"></path><path class="b74d2aa5-d4fd-427f-8370-4f149f71b5a2" d="M243.41,244.39h-3.78a5.31,5.31,0,0,1,0-10.61h10.6a5.31,5.31,0,0,1,5.31,5.3,5.23,5.23,0,0,1-.67,2.52,2.5,2.5,0,0,0,.67.14h4.93a10.5,10.5,0,0,0-10.24-13.26h-10.6a10.61,10.61,0,1,0,0,21.21h8A13.29,13.29,0,0,1,243.41,244.39Z" transform="translate(17.23 9.66)"></path><path class="f5f7934c-9058-46d3-93d7-cf1e90ba61d2" d="M448.08,150.5l-3.57-3.57a5,5,0,0,1,0-7.15,4.64,4.64,0,0,1,1-.77l1.66,1.66a1.16,1.16,0,0,1,.18.27,2.43,2.43,0,0,0-1.07.62,2.53,2.53,0,0,0,0,3.58l3.57,3.57a2.53,2.53,0,0,0,3.58-3.57l-1.28-1.27a6.37,6.37,0,0,0,.36-3.23l2.71,2.71a5.06,5.06,0,0,1-7.16,7.15Z" transform="translate(17.23 9.66)"></path><path class="fdcb0c6a-9d3e-4d3d-9efd-a80e66a91c6e" d="M442.21,141.05l-1.28-1.27a2.53,2.53,0,0,1,3.58-3.58l3.57,3.58A2.51,2.51,0,0,1,447,144a1.2,1.2,0,0,0,.18.26l1.66,1.67a5.36,5.36,0,0,0,1-.77,5,5,0,0,0,0-7.15l-3.57-3.58a5.06,5.06,0,0,0-7.16,7.15l2.71,2.71A6.33,6.33,0,0,1,442.21,141.05Z" transform="translate(17.23 9.66)"></path><path class="a9470fa9-832c-43b4-ab50-e51d2949d262" d="M236.56,40.63c-4.62,0-3.82-8.2-9.72-8.2" transform="translate(17.23 9.66)"></path><path class="a9470fa9-832c-43b4-ab50-e51d2949d262" d="M256,40.63c-4.62,0-3.83-8.2-9.72-8.2" transform="translate(17.23 9.66)"></path><path class="a9470fa9-832c-43b4-ab50-e51d2949d262" d="M236.56,40.63c4.62,0,3.83-8.2,9.72-8.2" transform="translate(17.23 9.66)"></path><path class="a9470fa9-832c-43b4-ab50-e51d2949d262" d="M265.72,32.43" transform="translate(17.23 9.66)"></path><path class="a9470fa9-832c-43b4-ab50-e51d2949d262" d="M256,40.63c4.62,0,3.82-8.2,9.72-8.2" transform="translate(17.23 9.66)"></path><path class="a9470fa9-832c-43b4-ab50-e51d2949d262" d="M275.43,40.63c-4.62,0-3.82-8.2-9.71-8.2" transform="translate(17.23 9.66)"></path><path class="a9470fa9-832c-43b4-ab50-e51d2949d262" d="M294.87,40.63c-4.62,0-3.82-8.2-9.72-8.2" transform="translate(17.23 9.66)"></path><path class="a9470fa9-832c-43b4-ab50-e51d2949d262" d="M275.43,40.63c4.62,0,3.83-8.2,9.72-8.2" transform="translate(17.23 9.66)"></path><path class="a9470fa9-832c-43b4-ab50-e51d2949d262" d="M304.59,32.43" transform="translate(17.23 9.66)"></path><path class="a9470fa9-832c-43b4-ab50-e51d2949d262" d="M294.87,40.63c4.62,0,3.82-8.2,9.72-8.2" transform="translate(17.23 9.66)"></path><path class="b0076c3a-8030-4353-9435-0900c8fc6df3" d="M256,48.82c-4.62,0-3.83-8.19-9.72-8.19" transform="translate(17.23 9.66)"></path><path class="b0076c3a-8030-4353-9435-0900c8fc6df3" d="M275.43,48.82c-4.62,0-3.82-8.19-9.71-8.19" transform="translate(17.23 9.66)"></path><path class="b0076c3a-8030-4353-9435-0900c8fc6df3" d="M256,48.82c4.62,0,3.82-8.19,9.72-8.19" transform="translate(17.23 9.66)"></path><path class="b0076c3a-8030-4353-9435-0900c8fc6df3" d="M285.15,40.63" transform="translate(17.23 9.66)"></path><path class="b0076c3a-8030-4353-9435-0900c8fc6df3" d="M275.43,48.82c4.62,0,3.83-8.19,9.72-8.19" transform="translate(17.23 9.66)"></path><polygon class="b90e64ad-b258-4f13-96ad-608cdbbda068" points="151.35 67.89 161.19 73.58 151.35 79.26 151.35 67.89"></polygon><polygon class="b90e64ad-b258-4f13-96ad-608cdbbda068" points="165.57 67.89 175.41 73.58 165.57 79.26 165.57 67.89"></polygon><polygon class="b90e64ad-b258-4f13-96ad-608cdbbda068" points="179.79 67.89 189.63 73.58 179.79 79.26 179.79 67.89"></polygon><polygon class="f5f7934c-9058-46d3-93d7-cf1e90ba61d2" points="399.99 67.89 390.14 73.58 399.99 79.26 399.99 67.89"></polygon><polygon class="f5f7934c-9058-46d3-93d7-cf1e90ba61d2" points="385.76 67.89 375.93 73.58 385.76 79.26 385.76 67.89"></polygon><polygon class="f5f7934c-9058-46d3-93d7-cf1e90ba61d2" points="371.55 67.89 361.7 73.58 371.55 79.26 371.55 67.89"></polygon><path class="b74d2aa5-d4fd-427f-8370-4f149f71b5a2" d="M346.21,313.73a.51.51,0,0,1-.51.51.51.51,0,0,1,0-1A.51.51,0,0,1,346.21,313.73Z" transform="translate(17.23 9.66)"></path><path class="b74d2aa5-d4fd-427f-8370-4f149f71b5a2" d="M349.47,313.73a.51.51,0,1,1-.51-.51A.51.51,0,0,1,349.47,313.73Z" transform="translate(17.23 9.66)"></path><path class="b74d2aa5-d4fd-427f-8370-4f149f71b5a2" d="M352.73,313.73a.51.51,0,1,1-.51-.51A.51.51,0,0,1,352.73,313.73Z" transform="translate(17.23 9.66)"></path><path class="b74d2aa5-d4fd-427f-8370-4f149f71b5a2" d="M356,313.73a.51.51,0,1,1-.51-.51A.51.51,0,0,1,356,313.73Z" transform="translate(17.23 9.66)"></path><path class="b74d2aa5-d4fd-427f-8370-4f149f71b5a2" d="M359.24,313.73a.51.51,0,1,1-.51-.51A.51.51,0,0,1,359.24,313.73Z" transform="translate(17.23 9.66)"></path><path class="b74d2aa5-d4fd-427f-8370-4f149f71b5a2" d="M362.5,313.73a.51.51,0,1,1-.51-.51A.51.51,0,0,1,362.5,313.73Z" transform="translate(17.23 9.66)"></path><path class="b74d2aa5-d4fd-427f-8370-4f149f71b5a2" d="M365.76,313.73a.51.51,0,1,1-.51-.51A.51.51,0,0,1,365.76,313.73Z" transform="translate(17.23 9.66)"></path><path class="b74d2aa5-d4fd-427f-8370-4f149f71b5a2" d="M369,313.73a.51.51,0,1,1-.51-.51A.51.51,0,0,1,369,313.73Z" transform="translate(17.23 9.66)"></path><path class="b74d2aa5-d4fd-427f-8370-4f149f71b5a2" d="M346.21,310.65a.51.51,0,0,1-.51.51.51.51,0,0,1,0-1A.51.51,0,0,1,346.21,310.65Z" transform="translate(17.23 9.66)"></path><path class="b74d2aa5-d4fd-427f-8370-4f149f71b5a2" d="M349.47,310.65a.51.51,0,1,1-.51-.51A.51.51,0,0,1,349.47,310.65Z" transform="translate(17.23 9.66)"></path><path class="b74d2aa5-d4fd-427f-8370-4f149f71b5a2" d="M352.73,310.65a.51.51,0,1,1-.51-.51A.51.51,0,0,1,352.73,310.65Z" transform="translate(17.23 9.66)"></path><path class="b74d2aa5-d4fd-427f-8370-4f149f71b5a2" d="M356,310.65a.51.51,0,1,1-.51-.51A.51.51,0,0,1,356,310.65Z" transform="translate(17.23 9.66)"></path><path class="b74d2aa5-d4fd-427f-8370-4f149f71b5a2" d="M359.24,310.65a.51.51,0,1,1-.51-.51A.51.51,0,0,1,359.24,310.65Z" transform="translate(17.23 9.66)"></path><path class="b74d2aa5-d4fd-427f-8370-4f149f71b5a2" d="M362.5,310.65a.51.51,0,1,1-.51-.51A.51.51,0,0,1,362.5,310.65Z" transform="translate(17.23 9.66)"></path><path class="b74d2aa5-d4fd-427f-8370-4f149f71b5a2" d="M365.76,310.65a.51.51,0,1,1-.51-.51A.51.51,0,0,1,365.76,310.65Z" transform="translate(17.23 9.66)"></path><path class="b74d2aa5-d4fd-427f-8370-4f149f71b5a2" d="M369,310.65a.51.51,0,1,1-.51-.51A.51.51,0,0,1,369,310.65Z" transform="translate(17.23 9.66)"></path><path class="b74d2aa5-d4fd-427f-8370-4f149f71b5a2" d="M346.21,307.58a.51.51,0,0,1-.51.51.51.51,0,0,1,0-1A.51.51,0,0,1,346.21,307.58Z" transform="translate(17.23 9.66)"></path><path class="b74d2aa5-d4fd-427f-8370-4f149f71b5a2" d="M349.47,307.58a.51.51,0,1,1-.51-.51A.51.51,0,0,1,349.47,307.58Z" transform="translate(17.23 9.66)"></path><path class="b74d2aa5-d4fd-427f-8370-4f149f71b5a2" d="M352.73,307.58a.51.51,0,1,1-.51-.51A.51.51,0,0,1,352.73,307.58Z" transform="translate(17.23 9.66)"></path><path class="b74d2aa5-d4fd-427f-8370-4f149f71b5a2" d="M356,307.58a.51.51,0,1,1-.51-.51A.51.51,0,0,1,356,307.58Z" transform="translate(17.23 9.66)"></path><path class="b74d2aa5-d4fd-427f-8370-4f149f71b5a2" d="M359.24,307.58a.51.51,0,1,1-.51-.51A.51.51,0,0,1,359.24,307.58Z" transform="translate(17.23 9.66)"></path><path class="b74d2aa5-d4fd-427f-8370-4f149f71b5a2" d="M362.5,307.58a.51.51,0,1,1-.51-.51A.51.51,0,0,1,362.5,307.58Z" transform="translate(17.23 9.66)"></path><path class="b74d2aa5-d4fd-427f-8370-4f149f71b5a2" d="M365.76,307.58a.51.51,0,1,1-.51-.51A.51.51,0,0,1,365.76,307.58Z" transform="translate(17.23 9.66)"></path><path class="b74d2aa5-d4fd-427f-8370-4f149f71b5a2" d="M369,307.58a.51.51,0,1,1-.51-.51A.51.51,0,0,1,369,307.58Z" transform="translate(17.23 9.66)"></path><path class="b74d2aa5-d4fd-427f-8370-4f149f71b5a2" d="M346.21,304.5a.5.5,0,0,1-.51.51.51.51,0,1,1,0-1A.5.5,0,0,1,346.21,304.5Z" transform="translate(17.23 9.66)"></path><path class="b74d2aa5-d4fd-427f-8370-4f149f71b5a2" d="M349.47,304.5a.51.51,0,1,1-.51-.5A.51.51,0,0,1,349.47,304.5Z" transform="translate(17.23 9.66)"></path><path class="b74d2aa5-d4fd-427f-8370-4f149f71b5a2" d="M352.73,304.5a.51.51,0,1,1-.51-.5A.51.51,0,0,1,352.73,304.5Z" transform="translate(17.23 9.66)"></path><path class="b74d2aa5-d4fd-427f-8370-4f149f71b5a2" d="M356,304.5a.51.51,0,1,1-.51-.5A.51.51,0,0,1,356,304.5Z" transform="translate(17.23 9.66)"></path><path class="b74d2aa5-d4fd-427f-8370-4f149f71b5a2" d="M359.24,304.5a.51.51,0,1,1-.51-.5A.5.5,0,0,1,359.24,304.5Z" transform="translate(17.23 9.66)"></path><path class="b74d2aa5-d4fd-427f-8370-4f149f71b5a2" d="M362.5,304.5a.51.51,0,1,1-.51-.5A.51.51,0,0,1,362.5,304.5Z" transform="translate(17.23 9.66)"></path><path class="b74d2aa5-d4fd-427f-8370-4f149f71b5a2" d="M365.76,304.5a.51.51,0,1,1-.51-.5A.51.51,0,0,1,365.76,304.5Z" transform="translate(17.23 9.66)"></path><path class="b74d2aa5-d4fd-427f-8370-4f149f71b5a2" d="M369,304.5a.51.51,0,1,1-.51-.5A.51.51,0,0,1,369,304.5Z" transform="translate(17.23 9.66)"></path><path class="b74d2aa5-d4fd-427f-8370-4f149f71b5a2" d="M346.21,301.43a.51.51,0,0,1-.51.51.51.51,0,0,1,0-1A.51.51,0,0,1,346.21,301.43Z" transform="translate(17.23 9.66)"></path><path class="b74d2aa5-d4fd-427f-8370-4f149f71b5a2" d="M349.47,301.43a.51.51,0,1,1-.51-.51A.51.51,0,0,1,349.47,301.43Z" transform="translate(17.23 9.66)"></path><path class="b74d2aa5-d4fd-427f-8370-4f149f71b5a2" d="M352.73,301.43a.51.51,0,1,1-.51-.51A.51.51,0,0,1,352.73,301.43Z" transform="translate(17.23 9.66)"></path><path class="b74d2aa5-d4fd-427f-8370-4f149f71b5a2" d="M356,301.43a.51.51,0,1,1-.51-.51A.51.51,0,0,1,356,301.43Z" transform="translate(17.23 9.66)"></path><path class="b74d2aa5-d4fd-427f-8370-4f149f71b5a2" d="M359.24,301.43a.51.51,0,1,1-.51-.51A.51.51,0,0,1,359.24,301.43Z" transform="translate(17.23 9.66)"></path><path class="b74d2aa5-d4fd-427f-8370-4f149f71b5a2" d="M362.5,301.43a.51.51,0,1,1-.51-.51A.51.51,0,0,1,362.5,301.43Z" transform="translate(17.23 9.66)"></path><path class="b74d2aa5-d4fd-427f-8370-4f149f71b5a2" d="M365.76,301.43a.51.51,0,1,1-.51-.51A.51.51,0,0,1,365.76,301.43Z" transform="translate(17.23 9.66)"></path><path class="b74d2aa5-d4fd-427f-8370-4f149f71b5a2" d="M369,301.43a.51.51,0,1,1-.51-.51A.51.51,0,0,1,369,301.43Z" transform="translate(17.23 9.66)"></path><path class="b74d2aa5-d4fd-427f-8370-4f149f71b5a2" d="M346.21,298.35a.5.5,0,0,1-.51.51.51.51,0,1,1,0-1A.5.5,0,0,1,346.21,298.35Z" transform="translate(17.23 9.66)"></path><path class="b74d2aa5-d4fd-427f-8370-4f149f71b5a2" d="M349.47,298.35a.51.51,0,1,1-.51-.5A.51.51,0,0,1,349.47,298.35Z" transform="translate(17.23 9.66)"></path><path class="b74d2aa5-d4fd-427f-8370-4f149f71b5a2" d="M352.73,298.35a.51.51,0,1,1-.51-.5A.51.51,0,0,1,352.73,298.35Z" transform="translate(17.23 9.66)"></path><path class="b74d2aa5-d4fd-427f-8370-4f149f71b5a2" d="M356,298.35a.51.51,0,1,1-.51-.5A.51.51,0,0,1,356,298.35Z" transform="translate(17.23 9.66)"></path><path class="b74d2aa5-d4fd-427f-8370-4f149f71b5a2" d="M359.24,298.35a.51.51,0,1,1-.51-.5A.5.5,0,0,1,359.24,298.35Z" transform="translate(17.23 9.66)"></path><path class="b74d2aa5-d4fd-427f-8370-4f149f71b5a2" d="M362.5,298.35a.51.51,0,1,1-.51-.5A.51.51,0,0,1,362.5,298.35Z" transform="translate(17.23 9.66)"></path><path class="b74d2aa5-d4fd-427f-8370-4f149f71b5a2" d="M365.76,298.35a.51.51,0,1,1-.51-.5A.51.51,0,0,1,365.76,298.35Z" transform="translate(17.23 9.66)"></path><path class="b74d2aa5-d4fd-427f-8370-4f149f71b5a2" d="M369,298.35a.51.51,0,1,1-.51-.5A.51.51,0,0,1,369,298.35Z" transform="translate(17.23 9.66)"></path><path class="b74d2aa5-d4fd-427f-8370-4f149f71b5a2" d="M346.21,295.28a.51.51,0,0,1-.51.51.51.51,0,0,1,0-1A.51.51,0,0,1,346.21,295.28Z" transform="translate(17.23 9.66)"></path><path class="b74d2aa5-d4fd-427f-8370-4f149f71b5a2" d="M349.47,295.28a.51.51,0,1,1-.51-.51A.51.51,0,0,1,349.47,295.28Z" transform="translate(17.23 9.66)"></path><path class="b74d2aa5-d4fd-427f-8370-4f149f71b5a2" d="M352.73,295.28a.51.51,0,1,1-.51-.51A.51.51,0,0,1,352.73,295.28Z" transform="translate(17.23 9.66)"></path><path class="b74d2aa5-d4fd-427f-8370-4f149f71b5a2" d="M356,295.28a.51.51,0,1,1-.51-.51A.51.51,0,0,1,356,295.28Z" transform="translate(17.23 9.66)"></path><path class="b74d2aa5-d4fd-427f-8370-4f149f71b5a2" d="M359.24,295.28a.51.51,0,1,1-.51-.51A.51.51,0,0,1,359.24,295.28Z" transform="translate(17.23 9.66)"></path><path class="b74d2aa5-d4fd-427f-8370-4f149f71b5a2" d="M362.5,295.28a.51.51,0,1,1-.51-.51A.51.51,0,0,1,362.5,295.28Z" transform="translate(17.23 9.66)"></path><path class="b74d2aa5-d4fd-427f-8370-4f149f71b5a2" d="M365.76,295.28a.51.51,0,1,1-.51-.51A.51.51,0,0,1,365.76,295.28Z" transform="translate(17.23 9.66)"></path><path class="b74d2aa5-d4fd-427f-8370-4f149f71b5a2" d="M369,295.28a.51.51,0,1,1-.51-.51A.51.51,0,0,1,369,295.28Z" transform="translate(17.23 9.66)"></path><path class="b74d2aa5-d4fd-427f-8370-4f149f71b5a2" d="M346.21,292.21a.5.5,0,0,1-.51.5.51.51,0,1,1,.51-.5Z" transform="translate(17.23 9.66)"></path><path class="b74d2aa5-d4fd-427f-8370-4f149f71b5a2" d="M349.47,292.21a.51.51,0,1,1-.51-.51A.5.5,0,0,1,349.47,292.21Z" transform="translate(17.23 9.66)"></path><path class="b74d2aa5-d4fd-427f-8370-4f149f71b5a2" d="M352.73,292.21a.51.51,0,1,1-.51-.51A.5.5,0,0,1,352.73,292.21Z" transform="translate(17.23 9.66)"></path><path class="b74d2aa5-d4fd-427f-8370-4f149f71b5a2" d="M356,292.21a.51.51,0,1,1-.51-.51A.5.5,0,0,1,356,292.21Z" transform="translate(17.23 9.66)"></path><path class="b74d2aa5-d4fd-427f-8370-4f149f71b5a2" d="M359.24,292.21a.51.51,0,1,1-.51-.51A.5.5,0,0,1,359.24,292.21Z" transform="translate(17.23 9.66)"></path><path class="b74d2aa5-d4fd-427f-8370-4f149f71b5a2" d="M362.5,292.21a.51.51,0,1,1-.51-.51A.5.5,0,0,1,362.5,292.21Z" transform="translate(17.23 9.66)"></path><path class="b74d2aa5-d4fd-427f-8370-4f149f71b5a2" d="M365.76,292.21a.51.51,0,1,1-.51-.51A.5.5,0,0,1,365.76,292.21Z" transform="translate(17.23 9.66)"></path><path class="b74d2aa5-d4fd-427f-8370-4f149f71b5a2" d="M369,292.21a.51.51,0,1,1-.51-.51A.5.5,0,0,1,369,292.21Z" transform="translate(17.23 9.66)"></path><path class="b1a5ec7d-b3ec-4f10-b33f-d922218cb1b5" d="M359.24,301.43a.51.51,0,1,1-.51-.51A.51.51,0,0,1,359.24,301.43Z" transform="translate(17.23 9.66)"></path><path class="b1a5ec7d-b3ec-4f10-b33f-d922218cb1b5" d="M362.5,301.43a.51.51,0,1,1-.51-.51A.51.51,0,0,1,362.5,301.43Z" transform="translate(17.23 9.66)"></path><path class="b1a5ec7d-b3ec-4f10-b33f-d922218cb1b5" d="M365.76,301.43a.51.51,0,1,1-.51-.51A.51.51,0,0,1,365.76,301.43Z" transform="translate(17.23 9.66)"></path><path class="b1a5ec7d-b3ec-4f10-b33f-d922218cb1b5" d="M369,301.43a.51.51,0,1,1-.51-.51A.51.51,0,0,1,369,301.43Z" transform="translate(17.23 9.66)"></path><path class="b1a5ec7d-b3ec-4f10-b33f-d922218cb1b5" d="M372.27,301.43a.51.51,0,1,1-.5-.51A.5.5,0,0,1,372.27,301.43Z" transform="translate(17.23 9.66)"></path><path class="b1a5ec7d-b3ec-4f10-b33f-d922218cb1b5" d="M375.53,301.43a.51.51,0,1,1-.51-.51A.51.51,0,0,1,375.53,301.43Z" transform="translate(17.23 9.66)"></path><path class="b1a5ec7d-b3ec-4f10-b33f-d922218cb1b5" d="M378.79,301.43a.51.51,0,1,1-.51-.51A.51.51,0,0,1,378.79,301.43Z" transform="translate(17.23 9.66)"></path><path class="b1a5ec7d-b3ec-4f10-b33f-d922218cb1b5" d="M382.05,301.43a.51.51,0,1,1-.51-.51A.51.51,0,0,1,382.05,301.43Z" transform="translate(17.23 9.66)"></path><path class="b1a5ec7d-b3ec-4f10-b33f-d922218cb1b5" d="M359.24,298.35a.51.51,0,1,1-.51-.5A.5.5,0,0,1,359.24,298.35Z" transform="translate(17.23 9.66)"></path><path class="b1a5ec7d-b3ec-4f10-b33f-d922218cb1b5" d="M362.5,298.35a.51.51,0,1,1-.51-.5A.51.51,0,0,1,362.5,298.35Z" transform="translate(17.23 9.66)"></path><path class="b1a5ec7d-b3ec-4f10-b33f-d922218cb1b5" d="M365.76,298.35a.51.51,0,1,1-.51-.5A.51.51,0,0,1,365.76,298.35Z" transform="translate(17.23 9.66)"></path><path class="b1a5ec7d-b3ec-4f10-b33f-d922218cb1b5" d="M369,298.35a.51.51,0,1,1-.51-.5A.51.51,0,0,1,369,298.35Z" transform="translate(17.23 9.66)"></path><path class="b1a5ec7d-b3ec-4f10-b33f-d922218cb1b5" d="M372.27,298.35a.51.51,0,1,1-.5-.5A.5.5,0,0,1,372.27,298.35Z" transform="translate(17.23 9.66)"></path><path class="b1a5ec7d-b3ec-4f10-b33f-d922218cb1b5" d="M375.53,298.35a.51.51,0,1,1-.51-.5A.51.51,0,0,1,375.53,298.35Z" transform="translate(17.23 9.66)"></path><path class="b1a5ec7d-b3ec-4f10-b33f-d922218cb1b5" d="M378.79,298.35a.51.51,0,1,1-.51-.5A.51.51,0,0,1,378.79,298.35Z" transform="translate(17.23 9.66)"></path><path class="b1a5ec7d-b3ec-4f10-b33f-d922218cb1b5" d="M382.05,298.35a.51.51,0,1,1-.51-.5A.51.51,0,0,1,382.05,298.35Z" transform="translate(17.23 9.66)"></path><path class="b1a5ec7d-b3ec-4f10-b33f-d922218cb1b5" d="M359.24,295.28a.51.51,0,1,1-.51-.51A.51.51,0,0,1,359.24,295.28Z" transform="translate(17.23 9.66)"></path><path class="b1a5ec7d-b3ec-4f10-b33f-d922218cb1b5" d="M362.5,295.28a.51.51,0,1,1-.51-.51A.51.51,0,0,1,362.5,295.28Z" transform="translate(17.23 9.66)"></path><path class="b1a5ec7d-b3ec-4f10-b33f-d922218cb1b5" d="M365.76,295.28a.51.51,0,1,1-.51-.51A.51.51,0,0,1,365.76,295.28Z" transform="translate(17.23 9.66)"></path><path class="b1a5ec7d-b3ec-4f10-b33f-d922218cb1b5" d="M369,295.28a.51.51,0,1,1-.51-.51A.51.51,0,0,1,369,295.28Z" transform="translate(17.23 9.66)"></path><path class="b1a5ec7d-b3ec-4f10-b33f-d922218cb1b5" d="M372.27,295.28a.51.51,0,1,1-.5-.51A.5.5,0,0,1,372.27,295.28Z" transform="translate(17.23 9.66)"></path><path class="b1a5ec7d-b3ec-4f10-b33f-d922218cb1b5" d="M375.53,295.28a.51.51,0,1,1-.51-.51A.51.51,0,0,1,375.53,295.28Z" transform="translate(17.23 9.66)"></path><path class="b1a5ec7d-b3ec-4f10-b33f-d922218cb1b5" d="M378.79,295.28a.51.51,0,1,1-.51-.51A.51.51,0,0,1,378.79,295.28Z" transform="translate(17.23 9.66)"></path><path class="b1a5ec7d-b3ec-4f10-b33f-d922218cb1b5" d="M382.05,295.28a.51.51,0,1,1-.51-.51A.51.51,0,0,1,382.05,295.28Z" transform="translate(17.23 9.66)"></path><path class="b1a5ec7d-b3ec-4f10-b33f-d922218cb1b5" d="M359.24,292.21a.51.51,0,1,1-.51-.51A.5.5,0,0,1,359.24,292.21Z" transform="translate(17.23 9.66)"></path><path class="b1a5ec7d-b3ec-4f10-b33f-d922218cb1b5" d="M362.5,292.21a.51.51,0,1,1-.51-.51A.5.5,0,0,1,362.5,292.21Z" transform="translate(17.23 9.66)"></path><path class="b1a5ec7d-b3ec-4f10-b33f-d922218cb1b5" d="M365.76,292.21a.51.51,0,1,1-.51-.51A.5.5,0,0,1,365.76,292.21Z" transform="translate(17.23 9.66)"></path><path class="b1a5ec7d-b3ec-4f10-b33f-d922218cb1b5" d="M369,292.21a.51.51,0,1,1-.51-.51A.5.5,0,0,1,369,292.21Z" transform="translate(17.23 9.66)"></path><path class="b1a5ec7d-b3ec-4f10-b33f-d922218cb1b5" d="M372.27,292.21a.51.51,0,1,1-.5-.51A.5.5,0,0,1,372.27,292.21Z" transform="translate(17.23 9.66)"></path><path class="b1a5ec7d-b3ec-4f10-b33f-d922218cb1b5" d="M375.53,292.21a.51.51,0,1,1-.51-.51A.5.5,0,0,1,375.53,292.21Z" transform="translate(17.23 9.66)"></path><path class="b1a5ec7d-b3ec-4f10-b33f-d922218cb1b5" d="M378.79,292.21a.51.51,0,1,1-.51-.51A.5.5,0,0,1,378.79,292.21Z" transform="translate(17.23 9.66)"></path><path class="b1a5ec7d-b3ec-4f10-b33f-d922218cb1b5" d="M382.05,292.21a.51.51,0,1,1-.51-.51A.5.5,0,0,1,382.05,292.21Z" transform="translate(17.23 9.66)"></path><path class="b1a5ec7d-b3ec-4f10-b33f-d922218cb1b5" d="M359.24,289.13a.51.51,0,1,1-.51-.51A.51.51,0,0,1,359.24,289.13Z" transform="translate(17.23 9.66)"></path><path class="b1a5ec7d-b3ec-4f10-b33f-d922218cb1b5" d="M362.5,289.13a.51.51,0,1,1-.51-.51A.51.51,0,0,1,362.5,289.13Z" transform="translate(17.23 9.66)"></path><path class="b1a5ec7d-b3ec-4f10-b33f-d922218cb1b5" d="M365.76,289.13a.51.51,0,1,1-.51-.51A.51.51,0,0,1,365.76,289.13Z" transform="translate(17.23 9.66)"></path><path class="b1a5ec7d-b3ec-4f10-b33f-d922218cb1b5" d="M369,289.13a.51.51,0,1,1-.51-.51A.51.51,0,0,1,369,289.13Z" transform="translate(17.23 9.66)"></path><path class="b1a5ec7d-b3ec-4f10-b33f-d922218cb1b5" d="M372.27,289.13a.51.51,0,1,1-.5-.51A.5.5,0,0,1,372.27,289.13Z" transform="translate(17.23 9.66)"></path><path class="b1a5ec7d-b3ec-4f10-b33f-d922218cb1b5" d="M375.53,289.13a.51.51,0,1,1-.51-.51A.51.51,0,0,1,375.53,289.13Z" transform="translate(17.23 9.66)"></path><path class="b1a5ec7d-b3ec-4f10-b33f-d922218cb1b5" d="M378.79,289.13a.51.51,0,1,1-.51-.51A.51.51,0,0,1,378.79,289.13Z" transform="translate(17.23 9.66)"></path><path class="b1a5ec7d-b3ec-4f10-b33f-d922218cb1b5" d="M382.05,289.13a.51.51,0,1,1-.51-.51A.51.51,0,0,1,382.05,289.13Z" transform="translate(17.23 9.66)"></path><path class="b1a5ec7d-b3ec-4f10-b33f-d922218cb1b5" d="M359.24,286.06a.51.51,0,1,1-.51-.51A.51.51,0,0,1,359.24,286.06Z" transform="translate(17.23 9.66)"></path><path class="b1a5ec7d-b3ec-4f10-b33f-d922218cb1b5" d="M362.5,286.06a.51.51,0,1,1-.51-.51A.51.51,0,0,1,362.5,286.06Z" transform="translate(17.23 9.66)"></path><path class="b1a5ec7d-b3ec-4f10-b33f-d922218cb1b5" d="M365.76,286.06a.51.51,0,1,1-.51-.51A.51.51,0,0,1,365.76,286.06Z" transform="translate(17.23 9.66)"></path><path class="b1a5ec7d-b3ec-4f10-b33f-d922218cb1b5" d="M369,286.06a.51.51,0,1,1-.51-.51A.51.51,0,0,1,369,286.06Z" transform="translate(17.23 9.66)"></path><path class="b1a5ec7d-b3ec-4f10-b33f-d922218cb1b5" d="M372.27,286.06a.51.51,0,1,1-.5-.51A.5.5,0,0,1,372.27,286.06Z" transform="translate(17.23 9.66)"></path><path class="b1a5ec7d-b3ec-4f10-b33f-d922218cb1b5" d="M375.53,286.06a.51.51,0,1,1-.51-.51A.51.51,0,0,1,375.53,286.06Z" transform="translate(17.23 9.66)"></path><path class="b1a5ec7d-b3ec-4f10-b33f-d922218cb1b5" d="M378.79,286.06a.51.51,0,1,1-.51-.51A.51.51,0,0,1,378.79,286.06Z" transform="translate(17.23 9.66)"></path><path class="b1a5ec7d-b3ec-4f10-b33f-d922218cb1b5" d="M382.05,286.06a.51.51,0,1,1-.51-.51A.51.51,0,0,1,382.05,286.06Z" transform="translate(17.23 9.66)"></path><path class="b1a5ec7d-b3ec-4f10-b33f-d922218cb1b5" d="M359.24,283a.51.51,0,1,1-.51-.51A.51.51,0,0,1,359.24,283Z" transform="translate(17.23 9.66)"></path><path class="b1a5ec7d-b3ec-4f10-b33f-d922218cb1b5" d="M362.5,283a.51.51,0,1,1-.51-.51A.51.51,0,0,1,362.5,283Z" transform="translate(17.23 9.66)"></path><path class="b1a5ec7d-b3ec-4f10-b33f-d922218cb1b5" d="M365.76,283a.51.51,0,1,1-.51-.51A.51.51,0,0,1,365.76,283Z" transform="translate(17.23 9.66)"></path><path class="b1a5ec7d-b3ec-4f10-b33f-d922218cb1b5" d="M369,283a.51.51,0,1,1-.51-.51A.51.51,0,0,1,369,283Z" transform="translate(17.23 9.66)"></path><path class="b1a5ec7d-b3ec-4f10-b33f-d922218cb1b5" d="M372.27,283a.51.51,0,1,1-.5-.51A.5.5,0,0,1,372.27,283Z" transform="translate(17.23 9.66)"></path><path class="b1a5ec7d-b3ec-4f10-b33f-d922218cb1b5" d="M375.53,283a.51.51,0,1,1-.51-.51A.51.51,0,0,1,375.53,283Z" transform="translate(17.23 9.66)"></path><path class="b1a5ec7d-b3ec-4f10-b33f-d922218cb1b5" d="M378.79,283a.51.51,0,1,1-.51-.51A.51.51,0,0,1,378.79,283Z" transform="translate(17.23 9.66)"></path><path class="b1a5ec7d-b3ec-4f10-b33f-d922218cb1b5" d="M382.05,283a.51.51,0,1,1-.51-.51A.51.51,0,0,1,382.05,283Z" transform="translate(17.23 9.66)"></path><path class="b1a5ec7d-b3ec-4f10-b33f-d922218cb1b5" d="M359.24,279.91a.51.51,0,1,1-.51-.51A.51.51,0,0,1,359.24,279.91Z" transform="translate(17.23 9.66)"></path><path class="b1a5ec7d-b3ec-4f10-b33f-d922218cb1b5" d="M362.5,279.91a.51.51,0,1,1-.51-.51A.51.51,0,0,1,362.5,279.91Z" transform="translate(17.23 9.66)"></path><path class="b1a5ec7d-b3ec-4f10-b33f-d922218cb1b5" d="M365.76,279.91a.51.51,0,1,1-.51-.51A.51.51,0,0,1,365.76,279.91Z" transform="translate(17.23 9.66)"></path><path class="b1a5ec7d-b3ec-4f10-b33f-d922218cb1b5" d="M369,279.91a.51.51,0,1,1-.51-.51A.51.51,0,0,1,369,279.91Z" transform="translate(17.23 9.66)"></path><path class="b1a5ec7d-b3ec-4f10-b33f-d922218cb1b5" d="M372.27,279.91a.51.51,0,1,1-.5-.51A.5.5,0,0,1,372.27,279.91Z" transform="translate(17.23 9.66)"></path><path class="b1a5ec7d-b3ec-4f10-b33f-d922218cb1b5" d="M375.53,279.91a.51.51,0,1,1-.51-.51A.51.51,0,0,1,375.53,279.91Z" transform="translate(17.23 9.66)"></path><path class="b1a5ec7d-b3ec-4f10-b33f-d922218cb1b5" d="M378.79,279.91a.51.51,0,1,1-.51-.51A.51.51,0,0,1,378.79,279.91Z" transform="translate(17.23 9.66)"></path><path class="b1a5ec7d-b3ec-4f10-b33f-d922218cb1b5" d="M382.05,279.91a.51.51,0,1,1-.51-.51A.51.51,0,0,1,382.05,279.91Z" transform="translate(17.23 9.66)"></path><path class="b74d2aa5-d4fd-427f-8370-4f149f71b5a2" d="M430.41,20.58V40.76a1.64,1.64,0,0,1-1.64,1.65H394.49a1.65,1.65,0,0,1-1.64-1.65V20.58a1.64,1.64,0,0,1,1.64-1.64h34.28A1.63,1.63,0,0,1,430.41,20.58Z" transform="translate(17.23 9.66)"></path><rect class="b9d561f1-3568-41e3-8405-5868ae6fd09c" x="410.08" y="32.75" width="37.56" height="4.47"></rect><rect class="b9d561f1-3568-41e3-8405-5868ae6fd09c" x="436.1" y="45.94" width="8.84" height="3.1" rx="1.55"></rect><rect class="b9d561f1-3568-41e3-8405-5868ae6fd09c" x="412.26" y="40.84" width="2.87" height="1.69" rx="0.2"></rect><rect class="b9d561f1-3568-41e3-8405-5868ae6fd09c" x="417.32" y="40.84" width="2.87" height="1.69" rx="0.2"></rect><rect class="b9d561f1-3568-41e3-8405-5868ae6fd09c" x="422.38" y="40.84" width="2.87" height="1.69" rx="0.2"></rect><rect class="b9d561f1-3568-41e3-8405-5868ae6fd09c" x="427.43" y="40.84" width="2.87" height="1.69" rx="0.2"></rect><rect class="b9d561f1-3568-41e3-8405-5868ae6fd09c" x="432.49" y="40.84" width="2.87" height="1.69" rx="0.2"></rect><rect class="b9d561f1-3568-41e3-8405-5868ae6fd09c" x="437.54" y="40.84" width="2.87" height="1.69" rx="0.2"></rect><rect class="b9d561f1-3568-41e3-8405-5868ae6fd09c" x="442.6" y="40.84" width="2.87" height="1.69" rx="0.2"></rect><rect class="b9d561f1-3568-41e3-8405-5868ae6fd09c" x="410.08" y="30.38" width="37.56" height="0.86"></rect><rect class="b9d561f1-3568-41e3-8405-5868ae6fd09c" x="412.26" y="44.42" width="5.06" height="5.06" rx="2.53"></rect><rect class="b9d561f1-3568-41e3-8405-5868ae6fd09c" x="418.53" y="46.79" width="16.37" height="1.39" rx="0.7"></rect><path class="afb71bfb-662d-4854-a882-1776f92a5d80" d="M416.5,18.94,393.42,42a1.64,1.64,0,0,1-.57-1.25V33.68L407.6,18.94Z" transform="translate(17.23 9.66)"></path><polygon class="afb71bfb-662d-4854-a882-1776f92a5d80" points="445.93 28.6 422.46 52.07 418.11 52.07 441.58 28.6 445.93 28.6"></polygon><path class="b1a5ec7d-b3ec-4f10-b33f-d922218cb1b5" d="M68.94,230.57V254.3A1.94,1.94,0,0,1,67,256.23H26.71a1.93,1.93,0,0,1-1.93-1.93V230.57a1.93,1.93,0,0,1,1.93-1.93H67A1.94,1.94,0,0,1,68.94,230.57Z" transform="translate(17.23 9.66)"></path><rect class="e4d7730a-3d19-4818-9489-e77599084983" x="42.01" y="243.18" width="44.16" height="5.26"></rect><rect class="baaf18c5-37aa-45c1-9b62-7e866e8a7c46" x="72.59" y="258.69" width="10.39" height="3.64" rx="1.82"></rect><rect class="baaf18c5-37aa-45c1-9b62-7e866e8a7c46" x="44.58" y="252.69" width="3.37" height="1.98" rx="0.23"></rect><rect class="baaf18c5-37aa-45c1-9b62-7e866e8a7c46" x="50.52" y="252.69" width="3.37" height="1.98" rx="0.23"></rect><rect class="baaf18c5-37aa-45c1-9b62-7e866e8a7c46" x="56.46" y="252.69" width="3.37" height="1.98" rx="0.23"></rect><rect class="baaf18c5-37aa-45c1-9b62-7e866e8a7c46" x="62.4" y="252.69" width="3.37" height="1.98" rx="0.23"></rect><rect class="baaf18c5-37aa-45c1-9b62-7e866e8a7c46" x="68.35" y="252.69" width="3.37" height="1.98" rx="0.23"></rect><rect class="baaf18c5-37aa-45c1-9b62-7e866e8a7c46" x="74.29" y="252.69" width="3.37" height="1.98" rx="0.23"></rect><rect class="baaf18c5-37aa-45c1-9b62-7e866e8a7c46" x="80.23" y="252.69" width="3.37" height="1.98" rx="0.23"></rect><rect class="baaf18c5-37aa-45c1-9b62-7e866e8a7c46" x="42.01" y="240.39" width="44.16" height="1.01"></rect><rect class="baaf18c5-37aa-45c1-9b62-7e866e8a7c46" x="44.58" y="256.9" width="5.94" height="5.94" rx="2.97"></rect><rect class="baaf18c5-37aa-45c1-9b62-7e866e8a7c46" x="51.94" y="259.69" width="19.24" height="1.64" rx="0.82"></rect><path class="afb71bfb-662d-4854-a882-1776f92a5d80" d="M52.57,228.64,25.45,255.76a1.92,1.92,0,0,1-.67-1.46V246l17.33-17.33Z" transform="translate(17.23 9.66)"></path><polygon class="afb71bfb-662d-4854-a882-1776f92a5d80" points="84.15 238.3 56.56 265.89 51.45 265.89 79.03 238.3 84.15 238.3"></polygon><path class="f7e2ed5b-aeb3-485d-8a07-1ca4230c9bc3" d="M432.94,226a6.27,6.27,0,1,1,2-8.64A6.27,6.27,0,0,1,432.94,226Z" transform="translate(17.23 9.66)"></path><path class="b4a548da-ef9e-400c-8599-0f7326a552d8" d="M269.05,69.25a6.27,6.27,0,1,1,2-8.64A6.27,6.27,0,0,1,269.05,69.25Z" transform="translate(17.23 9.66)"></path><path class="b4a548da-ef9e-400c-8599-0f7326a552d8" d="M175.35,266.06a10.45,10.45,0,1,1-10.44-10.45A10.45,10.45,0,0,1,175.35,266.06Z" transform="translate(17.23 9.66)"></path><path class="b6ca8baa-52a3-4fdd-b352-3b87546cd74a" d="M185.8,272a10.45,10.45,0,1,1-10.45-10.44A10.45,10.45,0,0,1,185.8,272Z" transform="translate(17.23 9.66)"></path><rect class="ba532957-e9b7-4ad2-84db-59f86a328fe8" x="82.24" y="54.03" width="23.9" height="23.9"></rect><rect class="f5b82492-dede-45f7-8788-f2af981d212a" x="93.97" y="65.98" width="23.9" height="23.9"></rect><line class="fb1df337-b3bb-47f8-b350-be4f9b92bbd4" x1="355.74" y1="275.54" x2="340.49" y2="261.24"></line><line class="fb1df337-b3bb-47f8-b350-be4f9b92bbd4" x1="340.96" y1="276.02" x2="355.27" y2="260.77"></line><path class="aba0a984-beae-4b5f-82f2-0e2e7919f320" d="M413.1,100.24a15.84,15.84,0,1,1,31.68,0" transform="translate(17.23 9.66)"></path><path class="bdb14913-6cac-4221-8341-108d979cc826" d="M427.19,108.2a15.84,15.84,0,1,1,31.68,0" transform="translate(17.23 9.66)"></path><circle class="b74d2aa5-d4fd-427f-8370-4f149f71b5a2" cx="475.88" cy="319.53" r="2.42"></circle><path class="b74d2aa5-d4fd-427f-8370-4f149f71b5a2" d="M476.56,309.87a2.42,2.42,0,1,1-2.42-2.42A2.42,2.42,0,0,1,476.56,309.87Z" transform="translate(17.23 9.66)"></path><path class="b74d2aa5-d4fd-427f-8370-4f149f71b5a2" d="M492.05,309.87a2.42,2.42,0,1,1-2.42-2.42A2.42,2.42,0,0,1,492.05,309.87Z" transform="translate(17.23 9.66)"></path><path class="b74d2aa5-d4fd-427f-8370-4f149f71b5a2" d="M461.07,295.35a2.42,2.42,0,1,1-2.42-2.42A2.43,2.43,0,0,1,461.07,295.35Z" transform="translate(17.23 9.66)"></path><path class="b74d2aa5-d4fd-427f-8370-4f149f71b5a2" d="M476.56,295.35a2.42,2.42,0,1,1-2.42-2.42A2.42,2.42,0,0,1,476.56,295.35Z" transform="translate(17.23 9.66)"></path><path class="b74d2aa5-d4fd-427f-8370-4f149f71b5a2" d="M492.05,295.35a2.42,2.42,0,1,1-2.42-2.42A2.42,2.42,0,0,1,492.05,295.35Z" transform="translate(17.23 9.66)"></path><path class="b74d2aa5-d4fd-427f-8370-4f149f71b5a2" d="M476.56,279.72a2.42,2.42,0,1,1-2.42-2.42A2.42,2.42,0,0,1,476.56,279.72Z" transform="translate(17.23 9.66)"></path><path class="b74d2aa5-d4fd-427f-8370-4f149f71b5a2" d="M492.05,279.72a2.42,2.42,0,1,1-2.42-2.42A2.42,2.42,0,0,1,492.05,279.72Z" transform="translate(17.23 9.66)"></path><path class="b74d2aa5-d4fd-427f-8370-4f149f71b5a2" d="M447.33,309.87a2.42,2.42,0,1,1-2.42-2.42A2.42,2.42,0,0,1,447.33,309.87Z" transform="translate(17.23 9.66)"></path><path class="b74d2aa5-d4fd-427f-8370-4f149f71b5a2" d="M492.05,265.1a2.42,2.42,0,1,1-2.42-2.42A2.42,2.42,0,0,1,492.05,265.1Z" transform="translate(17.23 9.66)"></path><circle class="b26d81ef-82f6-442c-8862-11f6059508b3" cx="64.51" cy="26.39" r="2.42"></circle><path class="b26d81ef-82f6-442c-8862-11f6059508b3" d="M29.36,16.73a2.42,2.42,0,1,1,2.42,2.42A2.42,2.42,0,0,1,29.36,16.73Z" transform="translate(17.23 9.66)"></path><path class="b26d81ef-82f6-442c-8862-11f6059508b3" d="M13.87,16.73a2.42,2.42,0,1,1,2.42,2.42A2.42,2.42,0,0,1,13.87,16.73Z" transform="translate(17.23 9.66)"></path><path class="b26d81ef-82f6-442c-8862-11f6059508b3" d="M44.86,31.58A2.42,2.42,0,1,1,47.28,34,2.42,2.42,0,0,1,44.86,31.58Z" transform="translate(17.23 9.66)"></path><path class="b26d81ef-82f6-442c-8862-11f6059508b3" d="M29.36,31.58A2.42,2.42,0,1,1,31.78,34,2.42,2.42,0,0,1,29.36,31.58Z" transform="translate(17.23 9.66)"></path><path class="b26d81ef-82f6-442c-8862-11f6059508b3" d="M13.87,31.58A2.42,2.42,0,1,1,16.29,34,2.42,2.42,0,0,1,13.87,31.58Z" transform="translate(17.23 9.66)"></path><path class="b26d81ef-82f6-442c-8862-11f6059508b3" d="M29.36,46.2a2.42,2.42,0,1,1,2.42,2.42A2.42,2.42,0,0,1,29.36,46.2Z" transform="translate(17.23 9.66)"></path><path class="b26d81ef-82f6-442c-8862-11f6059508b3" d="M13.87,46.2a2.42,2.42,0,1,1,2.42,2.42A2.42,2.42,0,0,1,13.87,46.2Z" transform="translate(17.23 9.66)"></path><path class="b26d81ef-82f6-442c-8862-11f6059508b3" d="M58.59,16.73A2.42,2.42,0,1,1,61,19.15,2.42,2.42,0,0,1,58.59,16.73Z" transform="translate(17.23 9.66)"></path><path class="b26d81ef-82f6-442c-8862-11f6059508b3" d="M13.87,60.82a2.42,2.42,0,1,1,2.42,2.42A2.42,2.42,0,0,1,13.87,60.82Z" transform="translate(17.23 9.66)"></path><path class="fdcb0c6a-9d3e-4d3d-9efd-a80e66a91c6e" d="M55.64,144.08a15.31,15.31,0,0,0-4,1.37l-4.21-4.67-5.11,4.61,4,4.47a15.36,15.36,0,0,0-2.18,4l-7-.37-.36,6.88,6.48.33a15.46,15.46,0,0,0,1.61,5.59l-4.67,4.21,4.61,5.11,4.47-4A15.15,15.15,0,0,0,54.09,174l-.31,5.83,6.88.36.29-5.63a15.6,15.6,0,0,0,5.81-2.1l4,4.47,5.11-4.61-4.2-4.67a15.2,15.2,0,0,0,1.77-3.79l6.64.35.36-6.87L74,157a15.6,15.6,0,0,0-2.1-5.81l4.47-4-4.61-5.11-4.67,4.2a15.5,15.5,0,0,0-4.59-2l.34-6.44L56,137.44ZM63.39,155a6.31,6.31,0,1,1-8.91-.46A6.32,6.32,0,0,1,63.39,155Z" transform="translate(17.23 9.66)"></path><path class="f5f7934c-9058-46d3-93d7-cf1e90ba61d2" d="M48.24,114.24a8.06,8.06,0,0,0-2.16.76l-2.3-2.55L41,115l2.2,2.44a8.26,8.26,0,0,0-1.2,2.17l-3.84-.2L38,123.12l3.54.19a8.48,8.48,0,0,0,.88,3l-2.55,2.3,2.52,2.8,2.44-2.2a8.33,8.33,0,0,0,2.6,1.33l-.17,3.19L51,134l.16-3.07a8.49,8.49,0,0,0,3.17-1.15l2.2,2.44,2.8-2.52L57,127.12a8.49,8.49,0,0,0,1-2.07l3.63.19.19-3.75-3.52-.19a8.47,8.47,0,0,0-1.14-3.17l2.44-2.2-2.52-2.79-2.55,2.29a8.76,8.76,0,0,0-2.51-1.1l.18-3.52-3.75-.19Zm4.23,6a3.45,3.45,0,1,1-4.86-.25A3.45,3.45,0,0,1,52.47,120.22Z" transform="translate(17.23 9.66)"></path><g class="e6e65ef2-a95a-4705-8785-01d2418dbeba"><polygon class="b74d2aa5-d4fd-427f-8370-4f149f71b5a2" points="539.49 58.89 480.33 54.38 454.72 0 534.72 0 539.49 58.89"></polygon><polygon class="b74d2aa5-d4fd-427f-8370-4f149f71b5a2" points="0 287.26 59.16 291.77 84.77 346.15 4.78 346.15 0 287.26"></polygon></g><circle class="b74d2aa5-d4fd-427f-8370-4f149f71b5a2" cx="471.36" cy="190.84" r="12.36" transform="translate(-1.39 64.42) rotate(-6.52)"></circle><circle class="b9d561f1-3568-41e3-8405-5868ae6fd09c" cx="471.99" cy="191.47" r="12.36" transform="translate(-13.36 118.41) rotate(-12.73)"></circle><circle class="b74d2aa5-d4fd-427f-8370-4f149f71b5a2" cx="471.99" cy="191.47" r="11.13" transform="translate(-14.24 123.96) rotate(-13.37)"></circle><path class="b9d561f1-3568-41e3-8405-5868ae6fd09c" d="M467.47,192.48a7.53,7.53,0,0,0,2.25,2.26c1.07.65,1.86.52,2.2-.19s0-1.37-1-2.6c-1.4-1.67-2-3.36-1.27-4.95.89-1.87,3-2.4,5.46-.91a7.9,7.9,0,0,1,2.36,2.15L476,189.92a6.09,6.09,0,0,0-1.91-1.83c-1-.62-1.72-.43-2,.14s.09,1.36,1.17,2.7c1.47,1.83,1.84,3.36,1.11,4.9-.88,1.83-3,2.59-5.78.87a8.35,8.35,0,0,1-2.59-2.47Z" transform="translate(17.23 9.66)"></path><rect class="b9d561f1-3568-41e3-8405-5868ae6fd09c" x="464.16" y="191.07" width="15.66" height="0.79" transform="translate(79.56 503.8) rotate(-58.54)"></rect><path class="b9d561f1-3568-41e3-8405-5868ae6fd09c" d="M477.67,182.9a.36.36,0,0,1-.51.12.37.37,0,1,1,.38-.63A.38.38,0,0,1,477.67,182.9Z" transform="translate(17.23 9.66)"></path><path class="b9d561f1-3568-41e3-8405-5868ae6fd09c" d="M467,200.42a.36.36,0,0,1-.51.12.37.37,0,1,1,.38-.63A.38.38,0,0,1,467,200.42Z" transform="translate(17.23 9.66)"></path><path class="b9d561f1-3568-41e3-8405-5868ae6fd09c" d="M475.25,181.72a.36.36,0,0,1-.46.25.38.38,0,0,1-.25-.46.39.39,0,0,1,.46-.25A.37.37,0,0,1,475.25,181.72Z" transform="translate(17.23 9.66)"></path><path class="b9d561f1-3568-41e3-8405-5868ae6fd09c" d="M469.43,201.42a.36.36,0,0,1-.46.25.37.37,0,0,1-.25-.46.38.38,0,0,1,.46-.25A.37.37,0,0,1,469.43,201.42Z" transform="translate(17.23 9.66)"></path><path class="b9d561f1-3568-41e3-8405-5868ae6fd09c" d="M472.62,181.21a.36.36,0,0,1-.38.36.36.36,0,0,1-.36-.38.38.38,0,0,1,.38-.36A.38.38,0,0,1,472.62,181.21Z" transform="translate(17.23 9.66)"></path><path class="b9d561f1-3568-41e3-8405-5868ae6fd09c" d="M472.1,201.74a.37.37,0,0,1-.38.36.36.36,0,0,1-.36-.38.37.37,0,0,1,.38-.36A.38.38,0,0,1,472.1,201.74Z" transform="translate(17.23 9.66)"></path><path class="b9d561f1-3568-41e3-8405-5868ae6fd09c" d="M470,181.4a.37.37,0,0,1-.73.17.37.37,0,0,1,.73-.17Z" transform="translate(17.23 9.66)"></path><path class="b9d561f1-3568-41e3-8405-5868ae6fd09c" d="M474.75,201.37a.36.36,0,0,1-.27.44.37.37,0,0,1-.45-.27.38.38,0,0,1,.28-.45A.36.36,0,0,1,474.75,201.37Z" transform="translate(17.23 9.66)"></path><path class="b9d561f1-3568-41e3-8405-5868ae6fd09c" d="M467.41,182.27a.37.37,0,1,1-.5-.15A.37.37,0,0,1,467.41,182.27Z" transform="translate(17.23 9.66)"></path><path class="b9d561f1-3568-41e3-8405-5868ae6fd09c" d="M477.22,200.31a.37.37,0,1,1-.5-.15A.38.38,0,0,1,477.22,200.31Z" transform="translate(17.23 9.66)"></path><path class="b9d561f1-3568-41e3-8405-5868ae6fd09c" d="M465.18,183.77a.37.37,0,1,1-.52,0A.37.37,0,0,1,465.18,183.77Z" transform="translate(17.23 9.66)"></path><path class="b9d561f1-3568-41e3-8405-5868ae6fd09c" d="M479.33,198.66a.37.37,0,0,1,0,.52.37.37,0,1,1-.51-.54A.37.37,0,0,1,479.33,198.66Z" transform="translate(17.23 9.66)"></path><path class="b9d561f1-3568-41e3-8405-5868ae6fd09c" d="M463.42,185.79a.38.38,0,0,1,.13.51.36.36,0,0,1-.51.12.37.37,0,1,1,.38-.63Z" transform="translate(17.23 9.66)"></path><path class="b9d561f1-3568-41e3-8405-5868ae6fd09c" d="M480.94,196.51a.36.36,0,0,1,.12.51.35.35,0,0,1-.5.12.37.37,0,1,1,.38-.63Z" transform="translate(17.23 9.66)"></path><path class="b9d561f1-3568-41e3-8405-5868ae6fd09c" d="M462.25,188.2a.39.39,0,0,1,.25.46.37.37,0,0,1-.46.25.37.37,0,0,1-.26-.46A.38.38,0,0,1,462.25,188.2Z" transform="translate(17.23 9.66)"></path><path class="b9d561f1-3568-41e3-8405-5868ae6fd09c" d="M481.94,194a.37.37,0,0,1,.25.46.36.36,0,0,1-.46.25.37.37,0,0,1-.25-.46A.38.38,0,0,1,481.94,194Z" transform="translate(17.23 9.66)"></path><path class="b9d561f1-3568-41e3-8405-5868ae6fd09c" d="M461.73,190.84a.36.36,0,0,1,.36.38.37.37,0,0,1-.38.36.38.38,0,0,1-.36-.38A.37.37,0,0,1,461.73,190.84Z" transform="translate(17.23 9.66)"></path><path class="b9d561f1-3568-41e3-8405-5868ae6fd09c" d="M482.26,191.36a.37.37,0,0,1,.37.38.38.38,0,0,1-.38.36.37.37,0,0,1-.37-.38A.38.38,0,0,1,482.26,191.36Z" transform="translate(17.23 9.66)"></path><path class="b9d561f1-3568-41e3-8405-5868ae6fd09c" d="M461.92,193.51a.37.37,0,1,1,.17.72.37.37,0,0,1-.45-.27A.38.38,0,0,1,461.92,193.51Z" transform="translate(17.23 9.66)"></path><path class="b9d561f1-3568-41e3-8405-5868ae6fd09c" d="M481.89,188.7a.37.37,0,0,1,.44.28.35.35,0,0,1-.27.44.37.37,0,0,1-.45-.27A.38.38,0,0,1,481.89,188.7Z" transform="translate(17.23 9.66)"></path><path class="b9d561f1-3568-41e3-8405-5868ae6fd09c" d="M462.79,196.05a.37.37,0,1,1-.15.5A.37.37,0,0,1,462.79,196.05Z" transform="translate(17.23 9.66)"></path><path class="b9d561f1-3568-41e3-8405-5868ae6fd09c" d="M480.83,186.24a.37.37,0,0,1,.51.14.39.39,0,0,1-.15.51.38.38,0,0,1-.51-.15A.37.37,0,0,1,480.83,186.24Z" transform="translate(17.23 9.66)"></path><path class="b9d561f1-3568-41e3-8405-5868ae6fd09c" d="M464.29,198.27a.37.37,0,1,1,0,.53A.37.37,0,0,1,464.29,198.27Z" transform="translate(17.23 9.66)"></path><path class="b9d561f1-3568-41e3-8405-5868ae6fd09c" d="M479.18,184.13a.36.36,0,0,1,.52,0,.37.37,0,0,1,0,.52.38.38,0,0,1-.53,0A.37.37,0,0,1,479.18,184.13Z" transform="translate(17.23 9.66)"></path><circle class="b74d2aa5-d4fd-427f-8370-4f149f71b5a2" cx="147.67" cy="28.16" r="12.36" transform="translate(14.99 26.61) rotate(-6.52)"></circle><circle class="b9d561f1-3568-41e3-8405-5868ae6fd09c" cx="148.3" cy="28.79" r="12.36" transform="translate(14.54 43.06) rotate(-12.73)"></circle><circle class="b74d2aa5-d4fd-427f-8370-4f149f71b5a2" cx="148.3" cy="28.79" r="11.13" transform="translate(14.6 44.72) rotate(-13.37)"></circle><path class="b9d561f1-3568-41e3-8405-5868ae6fd09c" d="M143.79,29.8A7.53,7.53,0,0,0,146,32.06c1.07.65,1.86.52,2.2-.19s0-1.37-1-2.6c-1.41-1.67-2-3.36-1.28-4.95.89-1.87,3-2.4,5.47-.91a7.9,7.9,0,0,1,2.36,2.15l-1.48,1.68a6,6,0,0,0-1.9-1.83c-1-.62-1.73-.43-2,.14s.1,1.36,1.17,2.7c1.48,1.83,1.85,3.36,1.11,4.9-.87,1.83-2.95,2.59-5.78.87a8.3,8.3,0,0,1-2.58-2.47Z" transform="translate(17.23 9.66)"></path><rect class="b9d561f1-3568-41e3-8405-5868ae6fd09c" x="140.47" y="28.39" width="15.66" height="0.79" transform="translate(63.58 149.93) rotate(-58.54)"></rect><path class="b9d561f1-3568-41e3-8405-5868ae6fd09c" d="M154,20.22a.36.36,0,0,1-.51.12.37.37,0,0,1,.39-.63A.37.37,0,0,1,154,20.22Z" transform="translate(17.23 9.66)"></path><path class="b9d561f1-3568-41e3-8405-5868ae6fd09c" d="M143.26,37.74a.36.36,0,0,1-.51.12.37.37,0,1,1,.39-.63A.37.37,0,0,1,143.26,37.74Z" transform="translate(17.23 9.66)"></path><path class="b9d561f1-3568-41e3-8405-5868ae6fd09c" d="M151.57,19a.36.36,0,0,1-.46.25.36.36,0,0,1-.25-.46.38.38,0,0,1,.46-.25A.37.37,0,0,1,151.57,19Z" transform="translate(17.23 9.66)"></path><path class="b9d561f1-3568-41e3-8405-5868ae6fd09c" d="M145.75,38.74a.37.37,0,1,1-.71-.21.37.37,0,0,1,.71.21Z" transform="translate(17.23 9.66)"></path><path class="b9d561f1-3568-41e3-8405-5868ae6fd09c" d="M148.94,18.53a.37.37,0,0,1-.38.36.36.36,0,0,1-.36-.38.37.37,0,0,1,.38-.36A.38.38,0,0,1,148.94,18.53Z" transform="translate(17.23 9.66)"></path><path class="b9d561f1-3568-41e3-8405-5868ae6fd09c" d="M148.41,39.06a.37.37,0,0,1-.38.37.38.38,0,0,1,0-.75A.37.37,0,0,1,148.41,39.06Z" transform="translate(17.23 9.66)"></path><path class="b9d561f1-3568-41e3-8405-5868ae6fd09c" d="M146.26,18.72a.35.35,0,0,1-.27.44.37.37,0,1,1-.18-.72A.38.38,0,0,1,146.26,18.72Z" transform="translate(17.23 9.66)"></path><path class="b9d561f1-3568-41e3-8405-5868ae6fd09c" d="M151.07,38.69a.37.37,0,1,1-.45-.28A.38.38,0,0,1,151.07,38.69Z" transform="translate(17.23 9.66)"></path><path class="b9d561f1-3568-41e3-8405-5868ae6fd09c" d="M143.72,19.59a.36.36,0,0,1-.14.5.37.37,0,1,1-.36-.65A.36.36,0,0,1,143.72,19.59Z" transform="translate(17.23 9.66)"></path><path class="b9d561f1-3568-41e3-8405-5868ae6fd09c" d="M153.54,37.63a.39.39,0,0,1-.15.51.38.38,0,0,1-.36-.66A.39.39,0,0,1,153.54,37.63Z" transform="translate(17.23 9.66)"></path><path class="b9d561f1-3568-41e3-8405-5868ae6fd09c" d="M141.5,21.09a.37.37,0,1,1-.52,0A.37.37,0,0,1,141.5,21.09Z" transform="translate(17.23 9.66)"></path><path class="b9d561f1-3568-41e3-8405-5868ae6fd09c" d="M155.65,36a.37.37,0,0,1-.54.51.39.39,0,0,1,0-.53A.38.38,0,0,1,155.65,36Z" transform="translate(17.23 9.66)"></path><path class="b9d561f1-3568-41e3-8405-5868ae6fd09c" d="M139.74,23.11a.37.37,0,0,1,.12.51.36.36,0,0,1-.51.12.37.37,0,0,1,.39-.63Z" transform="translate(17.23 9.66)"></path><path class="b9d561f1-3568-41e3-8405-5868ae6fd09c" d="M157.26,33.83a.37.37,0,0,1,.12.51.36.36,0,0,1-.51.12.37.37,0,1,1,.39-.63Z" transform="translate(17.23 9.66)"></path><path class="b9d561f1-3568-41e3-8405-5868ae6fd09c" d="M138.56,25.52a.37.37,0,0,1,.25.46.36.36,0,0,1-.46.25.36.36,0,0,1-.25-.46A.37.37,0,0,1,138.56,25.52Z" transform="translate(17.23 9.66)"></path><path class="b9d561f1-3568-41e3-8405-5868ae6fd09c" d="M158.26,31.34a.37.37,0,1,1-.21.71.36.36,0,0,1-.25-.46A.37.37,0,0,1,158.26,31.34Z" transform="translate(17.23 9.66)"></path><path class="b9d561f1-3568-41e3-8405-5868ae6fd09c" d="M138.05,28.16a.37.37,0,0,1,.36.38.38.38,0,0,1-.38.36.37.37,0,0,1-.36-.38A.36.36,0,0,1,138.05,28.16Z" transform="translate(17.23 9.66)"></path><path class="b9d561f1-3568-41e3-8405-5868ae6fd09c" d="M158.58,28.68a.36.36,0,0,1,.36.38.36.36,0,0,1-.38.36.37.37,0,0,1-.36-.38A.38.38,0,0,1,158.58,28.68Z" transform="translate(17.23 9.66)"></path><path class="b9d561f1-3568-41e3-8405-5868ae6fd09c" d="M138.23,30.83a.38.38,0,0,1,.45.28.36.36,0,0,1-.27.44.37.37,0,1,1-.18-.72Z" transform="translate(17.23 9.66)"></path><path class="b9d561f1-3568-41e3-8405-5868ae6fd09c" d="M158.2,26a.38.38,0,0,1,.45.28.35.35,0,0,1-.27.44.37.37,0,1,1-.18-.72Z" transform="translate(17.23 9.66)"></path><path class="b9d561f1-3568-41e3-8405-5868ae6fd09c" d="M139.11,33.37a.37.37,0,1,1-.15.5A.37.37,0,0,1,139.11,33.37Z" transform="translate(17.23 9.66)"></path><path class="b9d561f1-3568-41e3-8405-5868ae6fd09c" d="M157.15,23.56a.36.36,0,0,1,.5.14.38.38,0,0,1-.15.51.37.37,0,0,1-.35-.65Z" transform="translate(17.23 9.66)"></path><path class="b9d561f1-3568-41e3-8405-5868ae6fd09c" d="M140.6,35.59a.37.37,0,1,1,0,.53A.39.39,0,0,1,140.6,35.59Z" transform="translate(17.23 9.66)"></path><path class="b9d561f1-3568-41e3-8405-5868ae6fd09c" d="M155.49,21.45a.37.37,0,0,1,.53,0,.37.37,0,1,1-.53,0Z" transform="translate(17.23 9.66)"></path><circle class="b74d2aa5-d4fd-427f-8370-4f149f71b5a2" cx="103.85" cy="278.55" r="12.36" transform="translate(-13.73 23.26) rotate(-6.52)"></circle><circle class="b9d561f1-3568-41e3-8405-5868ae6fd09c" cx="104.49" cy="279.18" r="12.36" transform="translate(-41.74 39.56) rotate(-12.73)"></circle><circle class="b74d2aa5-d4fd-427f-8370-4f149f71b5a2" cx="104.49" cy="279.18" r="11.13" transform="translate(-44.48 41.38) rotate(-13.37)"></circle><path class="b9d561f1-3568-41e3-8405-5868ae6fd09c" d="M100,280.19a7.31,7.31,0,0,0,2.25,2.26c1.07.66,1.86.53,2.2-.18s0-1.37-1-2.6c-1.41-1.68-2-3.36-1.28-4.95.89-1.87,3-2.4,5.47-.92A7.78,7.78,0,0,1,110,276l-1.48,1.68a6.15,6.15,0,0,0-1.9-1.84c-1-.61-1.73-.43-2,.14s.1,1.36,1.17,2.71c1.48,1.83,1.85,3.35,1.11,4.89-.87,1.84-2.95,2.6-5.77.87A8.34,8.34,0,0,1,98.52,282Z" transform="translate(17.23 9.66)"></path><rect class="b9d561f1-3568-41e3-8405-5868ae6fd09c" x="96.65" y="278.79" width="15.66" height="0.79" transform="translate(-170.96 232.26) rotate(-58.54)"></rect><path class="b9d561f1-3568-41e3-8405-5868ae6fd09c" d="M110.16,270.62a.37.37,0,1,1-.12-.51A.37.37,0,0,1,110.16,270.62Z" transform="translate(17.23 9.66)"></path><path class="b9d561f1-3568-41e3-8405-5868ae6fd09c" d="M99.44,288.14a.37.37,0,1,1-.12-.51A.37.37,0,0,1,99.44,288.14Z" transform="translate(17.23 9.66)"></path><path class="b9d561f1-3568-41e3-8405-5868ae6fd09c" d="M107.75,269.44a.37.37,0,1,1-.25-.46A.36.36,0,0,1,107.75,269.44Z" transform="translate(17.23 9.66)"></path><path class="b9d561f1-3568-41e3-8405-5868ae6fd09c" d="M101.93,289.14a.37.37,0,1,1-.71-.21.37.37,0,0,1,.71.21Z" transform="translate(17.23 9.66)"></path><path class="b9d561f1-3568-41e3-8405-5868ae6fd09c" d="M105.12,268.93a.38.38,0,0,1-.38.36.37.37,0,0,1-.36-.38.36.36,0,0,1,.38-.36A.37.37,0,0,1,105.12,268.93Z" transform="translate(17.23 9.66)"></path><path class="b9d561f1-3568-41e3-8405-5868ae6fd09c" d="M104.59,289.46a.36.36,0,0,1-.38.36.37.37,0,0,1-.36-.38.38.38,0,0,1,.38-.36A.36.36,0,0,1,104.59,289.46Z" transform="translate(17.23 9.66)"></path><path class="b9d561f1-3568-41e3-8405-5868ae6fd09c" d="M102.44,269.11a.37.37,0,0,1-.72.18.38.38,0,0,1,.27-.45A.37.37,0,0,1,102.44,269.11Z" transform="translate(17.23 9.66)"></path><path class="b9d561f1-3568-41e3-8405-5868ae6fd09c" d="M107.25,289.08a.37.37,0,0,1-.27.45.38.38,0,0,1-.45-.27.37.37,0,1,1,.72-.18Z" transform="translate(17.23 9.66)"></path><path class="b9d561f1-3568-41e3-8405-5868ae6fd09c" d="M99.91,270a.37.37,0,1,1-.51-.15A.38.38,0,0,1,99.91,270Z" transform="translate(17.23 9.66)"></path><path class="b9d561f1-3568-41e3-8405-5868ae6fd09c" d="M109.72,288a.37.37,0,1,1-.51-.15A.38.38,0,0,1,109.72,288Z" transform="translate(17.23 9.66)"></path><path class="b9d561f1-3568-41e3-8405-5868ae6fd09c" d="M97.68,271.48a.37.37,0,1,1-.54.51.37.37,0,0,1,0-.52A.37.37,0,0,1,97.68,271.48Z" transform="translate(17.23 9.66)"></path><path class="b9d561f1-3568-41e3-8405-5868ae6fd09c" d="M111.83,286.37a.39.39,0,0,1,0,.53.37.37,0,1,1,0-.53Z" transform="translate(17.23 9.66)"></path><path class="b9d561f1-3568-41e3-8405-5868ae6fd09c" d="M95.92,273.51a.37.37,0,1,1-.51.12A.37.37,0,0,1,95.92,273.51Z" transform="translate(17.23 9.66)"></path><path class="b9d561f1-3568-41e3-8405-5868ae6fd09c" d="M113.44,284.23a.37.37,0,1,1-.51.12A.37.37,0,0,1,113.44,284.23Z" transform="translate(17.23 9.66)"></path><path class="b9d561f1-3568-41e3-8405-5868ae6fd09c" d="M94.74,275.92a.37.37,0,1,1-.21.71.37.37,0,0,1,.21-.71Z" transform="translate(17.23 9.66)"></path><path class="b9d561f1-3568-41e3-8405-5868ae6fd09c" d="M114.44,281.74a.37.37,0,1,1-.46.25A.36.36,0,0,1,114.44,281.74Z" transform="translate(17.23 9.66)"></path><path class="b9d561f1-3568-41e3-8405-5868ae6fd09c" d="M94.23,278.55a.38.38,0,0,1,.36.38.37.37,0,0,1-.38.36.36.36,0,0,1-.36-.38A.37.37,0,0,1,94.23,278.55Z" transform="translate(17.23 9.66)"></path><path class="b9d561f1-3568-41e3-8405-5868ae6fd09c" d="M114.76,279.08a.36.36,0,0,1,.36.38.37.37,0,0,1-.38.36.38.38,0,0,1-.36-.38A.37.37,0,0,1,114.76,279.08Z" transform="translate(17.23 9.66)"></path><path class="b9d561f1-3568-41e3-8405-5868ae6fd09c" d="M94.41,281.23a.37.37,0,1,1,.18.72.37.37,0,0,1-.18-.72Z" transform="translate(17.23 9.66)"></path><path class="b9d561f1-3568-41e3-8405-5868ae6fd09c" d="M114.38,276.42a.37.37,0,1,1-.27.45A.37.37,0,0,1,114.38,276.42Z" transform="translate(17.23 9.66)"></path><path class="b9d561f1-3568-41e3-8405-5868ae6fd09c" d="M95.29,283.76a.37.37,0,1,1-.15.51A.38.38,0,0,1,95.29,283.76Z" transform="translate(17.23 9.66)"></path><path class="b9d561f1-3568-41e3-8405-5868ae6fd09c" d="M113.33,274a.37.37,0,1,1-.15.5A.37.37,0,0,1,113.33,274Z" transform="translate(17.23 9.66)"></path><path class="b9d561f1-3568-41e3-8405-5868ae6fd09c" d="M96.79,286a.37.37,0,0,1,.52,0,.39.39,0,0,1,0,.53.38.38,0,0,1-.53,0A.37.37,0,0,1,96.79,286Z" transform="translate(17.23 9.66)"></path><path class="b9d561f1-3568-41e3-8405-5868ae6fd09c" d="M111.67,271.84a.37.37,0,1,1,0,.53A.39.39,0,0,1,111.67,271.84Z" transform="translate(17.23 9.66)"></path><path class="b74d2aa5-d4fd-427f-8370-4f149f71b5a2" d="M231.65,278a2.08,2.08,0,0,0-2.08,2.08v.26h26v-.26a2.08,2.08,0,0,0-2.08-2.08Z" transform="translate(17.23 9.66)"></path><path class="b74d2aa5-d4fd-427f-8370-4f149f71b5a2" d="M230.18,310.9a2.08,2.08,0,0,0,1.47.61h21.79a2.08,2.08,0,0,0,2.08-2.08v-28h-26v28A2.08,2.08,0,0,0,230.18,310.9Zm2-16v-2.15h5.35v2.15a.51.51,0,0,1-.15.35.49.49,0,0,1-.36.15h-4.34a.47.47,0,0,1-.35-.15A.51.51,0,0,1,232.14,294.89Zm5.65,14.05a.47.47,0,0,1-.15.35.51.51,0,0,1-.35.15H233a.51.51,0,0,1-.35-.15.47.47,0,0,1-.15-.35V304.6a.48.48,0,0,1,.15-.36.51.51,0,0,1,.35-.15h4.34a.51.51,0,0,1,.35.15.48.48,0,0,1,.15.36Zm0-6.86a.49.49,0,0,1-.15.36.5.5,0,0,1-.35.14H233a.5.5,0,0,1-.35-.14.49.49,0,0,1-.15-.36v-4.34a.47.47,0,0,1,.15-.35.51.51,0,0,1,.35-.15h4.34a.51.51,0,0,1,.35.15.47.47,0,0,1,.15.35Zm1.23-7.19v-2.15h5.34v2.15a.5.5,0,0,1-.14.35.49.49,0,0,1-.36.15h-4.34a.47.47,0,0,1-.35-.15A.51.51,0,0,1,239,294.89Zm.27,2.85a.5.5,0,0,1,.14-.35.55.55,0,0,1,.36-.15h4.34a.51.51,0,0,1,.35.15.47.47,0,0,1,.15.35v4.34a.49.49,0,0,1-.15.36.5.5,0,0,1-.35.14h-4.34a.54.54,0,0,1-.36-.14.52.52,0,0,1-.14-.36Zm5.36,11.2a.47.47,0,0,1-.15.35.51.51,0,0,1-.35.15h-4.34a.51.51,0,0,1-.35-.15.47.47,0,0,1-.15-.35V304.6a.48.48,0,0,1,.15-.36.51.51,0,0,1,.35-.15h4.34a.51.51,0,0,1,.35.15.48.48,0,0,1,.15.36Zm8,0a.47.47,0,0,1-.15.35.48.48,0,0,1-.36.15h-5.38a.49.49,0,0,1-.36-.15.51.51,0,0,1-.15-.35V297.32a.51.51,0,0,1,.15-.35.49.49,0,0,1,.36-.15h5.38a.48.48,0,0,1,.36.15.47.47,0,0,1,.15.35Zm-6.18-14.05v-2.15h5.35v2.15a.51.51,0,0,1-.15.35.49.49,0,0,1-.36.15H247a.47.47,0,0,1-.35-.15A.51.51,0,0,1,246.47,294.89Zm-15-12.19h22.19v8.44H231.45Z" transform="translate(17.23 9.66)"></path><path class="b9d561f1-3568-41e3-8405-5868ae6fd09c" d="M246.76,296.82a.49.49,0,0,0-.36.15.51.51,0,0,0-.15.35v11.62a.51.51,0,0,0,.15.35.49.49,0,0,0,.36.15h5.38a.48.48,0,0,0,.36-.15.47.47,0,0,0,.15-.35V297.32a.47.47,0,0,0-.15-.35.48.48,0,0,0-.36-.15Zm4.1,7h-3v-.49h3Zm0-1.34h-3V302h3Z" transform="translate(17.23 9.66)"></path><path class="b9d561f1-3568-41e3-8405-5868ae6fd09c" d="M239.79,297.24a.55.55,0,0,0-.36.15.5.5,0,0,0-.14.35v4.34a.52.52,0,0,0,.14.36.54.54,0,0,0,.36.14h4.34a.5.5,0,0,0,.35-.14.49.49,0,0,0,.15-.36v-4.34a.47.47,0,0,0-.15-.35.51.51,0,0,0-.35-.15Z" transform="translate(17.23 9.66)"></path><path class="b9d561f1-3568-41e3-8405-5868ae6fd09c" d="M239.81,304.09a.51.51,0,0,0-.35.15.48.48,0,0,0-.15.36v4.34a.47.47,0,0,0,.15.35.51.51,0,0,0,.35.15h4.34a.51.51,0,0,0,.35-.15.47.47,0,0,0,.15-.35V304.6a.48.48,0,0,0-.15-.36.51.51,0,0,0-.35-.15Z" transform="translate(17.23 9.66)"></path><path class="b9d561f1-3568-41e3-8405-5868ae6fd09c" d="M233,297.24a.51.51,0,0,0-.35.15.47.47,0,0,0-.15.35v4.34a.49.49,0,0,0,.15.36.5.5,0,0,0,.35.14h4.34a.5.5,0,0,0,.35-.14.49.49,0,0,0,.15-.36v-4.34a.47.47,0,0,0-.15-.35.51.51,0,0,0-.35-.15Z" transform="translate(17.23 9.66)"></path><path class="b9d561f1-3568-41e3-8405-5868ae6fd09c" d="M239.17,295.24a.47.47,0,0,0,.35.15h4.34a.49.49,0,0,0,.36-.15.5.5,0,0,0,.14-.35v-2.15H239v2.15A.51.51,0,0,0,239.17,295.24Z" transform="translate(17.23 9.66)"></path><path class="b9d561f1-3568-41e3-8405-5868ae6fd09c" d="M246.62,295.24a.47.47,0,0,0,.35.15h4.34a.49.49,0,0,0,.36-.15.51.51,0,0,0,.15-.35v-2.15h-5.35v2.15A.51.51,0,0,0,246.62,295.24Z" transform="translate(17.23 9.66)"></path><path class="b9d561f1-3568-41e3-8405-5868ae6fd09c" d="M232.29,295.24a.47.47,0,0,0,.35.15H237a.49.49,0,0,0,.36-.15.51.51,0,0,0,.15-.35v-2.15h-5.35v2.15A.51.51,0,0,0,232.29,295.24Z" transform="translate(17.23 9.66)"></path><path class="b9d561f1-3568-41e3-8405-5868ae6fd09c" d="M233,304.09a.51.51,0,0,0-.35.15.48.48,0,0,0-.15.36v4.34a.47.47,0,0,0,.15.35.51.51,0,0,0,.35.15h4.34a.51.51,0,0,0,.35-.15.47.47,0,0,0,.15-.35V304.6a.48.48,0,0,0-.15-.36.51.51,0,0,0-.35-.15Z" transform="translate(17.23 9.66)"></path><path class="b35c7670-a208-4898-93bd-1d6c705504e5" d="M253.64,291.14V282.7H231.45v8.44Zm-4.24-2.2.08-.06.11.05.19.09.29.09a1.4,1.4,0,0,0,.37,0,1,1,0,0,0,.3,0A1,1,0,0,0,251,289a.52.52,0,0,0,.14-.19.59.59,0,0,0,0-.23.55.55,0,0,0-.06-.26.62.62,0,0,0-.16-.2,1,1,0,0,0-.28-.12,1.48,1.48,0,0,0-.39-.05h-.43l-.05,0,0-.1a.71.71,0,0,1,0-.16.66.66,0,0,1,0-.15l0-.09.05,0h.42a1.15,1.15,0,0,0,.33,0,.9.9,0,0,0,.24-.12.75.75,0,0,0,.15-.2.6.6,0,0,0,.05-.24.65.65,0,0,0,0-.2.48.48,0,0,0-.1-.17.52.52,0,0,0-.18-.1.62.62,0,0,0-.25,0,.78.78,0,0,0-.31,0,1.69,1.69,0,0,0-.27.1l-.19.11a.24.24,0,0,1-.12.05h0l0,0,0-.09V286l0-.06,0,0,.13-.09.25-.12a2.31,2.31,0,0,1,.34-.1,2.86,2.86,0,0,1,.43,0,2.13,2.13,0,0,1,.53.07,1.24,1.24,0,0,1,.38.2.78.78,0,0,1,.24.33,1,1,0,0,1,.08.43,1.29,1.29,0,0,1,0,.35.87.87,0,0,1-.14.29.8.8,0,0,1-.23.22,1.13,1.13,0,0,1-.32.13h0a1.25,1.25,0,0,1,.39.11,1.27,1.27,0,0,1,.29.21,1,1,0,0,1,.18.29.93.93,0,0,1,.06.34,1.2,1.2,0,0,1-.12.55,1,1,0,0,1-.32.4,1.56,1.56,0,0,1-.5.25,2.63,2.63,0,0,1-1,.05l-.32-.08-.24-.09-.12-.07,0-.06,0-.07v-.11s0-.1,0-.16A.51.51,0,0,1,249.4,288.94Zm-3.3.28a.32.32,0,0,1,0-.14l.07-.11.1-.12.71-.76a3.48,3.48,0,0,0,.34-.41,2.21,2.21,0,0,0,.21-.33,1.37,1.37,0,0,0,.1-.28,1.06,1.06,0,0,0,0-.24.64.64,0,0,0,0-.2.34.34,0,0,0-.1-.16.31.31,0,0,0-.16-.11.56.56,0,0,0-.23,0,1.06,1.06,0,0,0-.33,0,2.26,2.26,0,0,0-.26.11l-.18.11-.12.05-.05,0,0-.07s0-.06,0-.11,0-.11,0-.19V286l0-.06,0-.06a.76.76,0,0,1,.15-.1,1.27,1.27,0,0,1,.26-.11l.34-.1a2.58,2.58,0,0,1,.4,0,1.89,1.89,0,0,1,.56.08,1.06,1.06,0,0,1,.39.23.88.88,0,0,1,.24.34,1.22,1.22,0,0,1,.08.43,1.72,1.72,0,0,1,0,.39,1.38,1.38,0,0,1-.16.42,3,3,0,0,1-.34.5,7.36,7.36,0,0,1-.58.63l-.48.49h1.62l.06,0,.05.06,0,.1a.81.81,0,0,1,0,.16v.15l0,.11,0,.06-.06,0h-2.36l-.12,0-.08-.05-.05-.1a1.62,1.62,0,0,1,0-.36ZM243,286.41l0-.08,0-.06.06,0,.88-.57,0,0h.52l.11,0,0,0v3.44h.67l.05,0,0,.05,0,.1a.81.81,0,0,1,0,.16.66.66,0,0,1,0,.15l0,.1,0,.05-.05,0h-2.27l0,0,0-.05,0-.1a.66.66,0,0,1,0-.15.81.81,0,0,1,0-.16l0-.1,0-.05.05,0h.77v-2.67l-.66.36-.12,0-.07,0,0-.1a.92.92,0,0,1,0-.19Z" transform="translate(17.23 9.66)"></path><path class="b74d2aa5-d4fd-427f-8370-4f149f71b5a2" d="M243.11,289.1l-.05,0,0,.05,0,.1a.81.81,0,0,0,0,.16.66.66,0,0,0,0,.15l0,.1,0,.05,0,0h2.27l.05,0,0-.05,0-.1a.66.66,0,0,0,0-.15.81.81,0,0,0,0-.16l0-.1,0-.05-.05,0h-.67v-3.44l0,0-.11,0H244l0,0-.88.57-.06,0,0,.06,0,.08v.12a.92.92,0,0,0,0,.19l0,.1.07,0,.12,0,.66-.36v2.67Z" transform="translate(17.23 9.66)"></path><path class="b74d2aa5-d4fd-427f-8370-4f149f71b5a2" d="M247.56,287.35a2.21,2.21,0,0,1-.21.33,3.48,3.48,0,0,1-.34.41l-.71.76-.1.12-.07.11a.32.32,0,0,0,0,.14,1.62,1.62,0,0,0,0,.36l.05.1.08.05.12,0h2.36l.06,0,0-.06,0-.11v-.15a.81.81,0,0,0,0-.16l0-.1-.05-.06-.06,0h-1.62l.48-.49a7.36,7.36,0,0,0,.58-.63,3,3,0,0,0,.34-.5,1.38,1.38,0,0,0,.16-.42,1.72,1.72,0,0,0,0-.39,1.22,1.22,0,0,0-.08-.43.88.88,0,0,0-.24-.34,1.06,1.06,0,0,0-.39-.23,1.89,1.89,0,0,0-.56-.08,2.58,2.58,0,0,0-.4,0l-.34.1a1.27,1.27,0,0,0-.26.11.76.76,0,0,0-.15.1l0,.06,0,.06v.21c0,.08,0,.14,0,.19s0,.08,0,.11l0,.07.05,0,.12-.05.18-.11a2.26,2.26,0,0,1,.26-.11,1.06,1.06,0,0,1,.33,0,.56.56,0,0,1,.23,0,.31.31,0,0,1,.16.11.34.34,0,0,1,.1.16.64.64,0,0,1,0,.2,1.06,1.06,0,0,1,0,.24A1.37,1.37,0,0,1,247.56,287.35Z" transform="translate(17.23 9.66)"></path><path class="b74d2aa5-d4fd-427f-8370-4f149f71b5a2" d="M251,289a1,1,0,0,1-.23.11,1,1,0,0,1-.3,0,1.4,1.4,0,0,1-.37,0l-.29-.09-.19-.09-.11-.05-.08.06a.51.51,0,0,0,0,.21c0,.06,0,.12,0,.16v.11l0,.07,0,.06.12.07.24.09.32.08a2.63,2.63,0,0,0,1-.05,1.56,1.56,0,0,0,.5-.25,1,1,0,0,0,.32-.4,1.2,1.2,0,0,0,.12-.55.93.93,0,0,0-.06-.34,1,1,0,0,0-.18-.29,1.27,1.27,0,0,0-.29-.21,1.25,1.25,0,0,0-.39-.11h0a1.13,1.13,0,0,0,.32-.13.8.8,0,0,0,.23-.22.87.87,0,0,0,.14-.29,1.29,1.29,0,0,0,0-.35,1,1,0,0,0-.08-.43.78.78,0,0,0-.24-.33,1.24,1.24,0,0,0-.38-.2,2.13,2.13,0,0,0-.53-.07,2.86,2.86,0,0,0-.43,0,2.31,2.31,0,0,0-.34.1l-.25.12-.13.09,0,0,0,.06v.38l0,.09,0,0h0a.24.24,0,0,0,.12-.05l.19-.11a1.69,1.69,0,0,1,.27-.1.78.78,0,0,1,.31,0,.62.62,0,0,1,.25,0,.52.52,0,0,1,.18.1.48.48,0,0,1,.1.17.65.65,0,0,1,0,.2.6.6,0,0,1-.05.24.75.75,0,0,1-.15.2.9.9,0,0,1-.24.12,1.15,1.15,0,0,1-.33,0h-.42l-.05,0,0,.09a.66.66,0,0,0,0,.15.71.71,0,0,0,0,.16l0,.1.05,0h.43a1.48,1.48,0,0,1,.39.05,1,1,0,0,1,.28.12.62.62,0,0,1,.16.2.55.55,0,0,1,.06.26.59.59,0,0,1,0,.23A.52.52,0,0,1,251,289Z" transform="translate(17.23 9.66)"></path><rect class="b35c7670-a208-4898-93bd-1d6c705504e5" x="265.12" y="311.69" width="2.97" height="0.5"></rect><rect class="b35c7670-a208-4898-93bd-1d6c705504e5" x="265.12" y="313.03" width="2.97" height="0.5"></rect><rect class="b9d561f1-3568-41e3-8405-5868ae6fd09c" x="246.81" y="289.99" width="25.95" height="1.11"></rect><rect class="b1a5ec7d-b3ec-4f10-b33f-d922218cb1b5" x="214.72" y="70.57" width="21.63" height="15.84" rx="0.31"></rect><g class="ea25f441-ffa3-4f0b-8220-355ae06879de"><path class="bd0f7054-2460-4f94-a25a-8227d1003b48" d="M198.66,61.92h-.85a.11.11,0,0,0-.1.1.11.11,0,0,0,.1.11h.85a.1.1,0,0,0,.1-.11A.1.1,0,0,0,198.66,61.92Zm1.68,0h-.84a.1.1,0,0,0-.1.1v0a.11.11,0,0,0,.1.08h.84a.11.11,0,0,0,.11-.11A.11.11,0,0,0,200.34,61.92Zm1.69,0h-.84a.11.11,0,0,0-.11.1.11.11,0,0,0,.11.11H202a.11.11,0,0,0,.11-.11A.11.11,0,0,0,202,61.92Zm1.69,0h-.84a.11.11,0,0,0-.11.1.1.1,0,0,0,0,.08.09.09,0,0,0,.07,0h.85a.12.12,0,0,0,.1-.11A.11.11,0,0,0,203.72,61.92Zm1.69,0h-.85a.11.11,0,0,0-.07,0h0a.11.11,0,0,0,0,.07.1.1,0,0,0,.08.1h.87a.11.11,0,0,0,.1-.08h0v0A.1.1,0,0,0,205.41,61.92Zm1.69,0h-.85a.1.1,0,0,0-.1.1.1.1,0,0,0,.1.11h.89a.11.11,0,0,0,.06-.1A.11.11,0,0,0,207.1,61.92Zm1.68,0h-.84a.11.11,0,0,0-.11.1.11.11,0,0,0,.11.11h.84a.11.11,0,0,0,.11-.11A.11.11,0,0,0,208.78,61.92Zm1.69,0h-.86a.11.11,0,0,0-.09.1.19.19,0,0,0,0,.08.11.11,0,0,0,.08,0h.88a.1.1,0,0,0,0-.2Zm1.69,0h-.84a.11.11,0,0,0-.11.09h0a.11.11,0,0,0,.11.11h.84a.1.1,0,0,0,.1-.11A.1.1,0,0,0,212.16,61.92Zm1.69,0H213a.1.1,0,0,0-.1.1.1.1,0,0,0,.1.11h.85A.11.11,0,0,0,214,62,.11.11,0,0,0,213.85,61.92Zm1.72,0h-.88a.1.1,0,0,0-.1.1.1.1,0,0,0,.1.11h.84a.11.11,0,0,0,.11-.11A.1.1,0,0,0,215.57,61.93Zm1.65,0h-.84a.11.11,0,0,0-.11.1.11.11,0,0,0,.11.11h.84a.11.11,0,0,0,.11-.11A.11.11,0,0,0,217.22,61.92Zm.71.27a.11.11,0,0,0-.11.1v.85a.11.11,0,0,0,.11.1.11.11,0,0,0,.1-.1v-.85A.1.1,0,0,0,217.93,62.19Zm0,1.69a.1.1,0,0,0-.11.1v.84a.11.11,0,0,0,.11.11.11.11,0,0,0,.1-.11V64A.1.1,0,0,0,217.93,63.88Zm0,1.68a.11.11,0,0,0-.11.11v.84a.11.11,0,0,0,.11.11.11.11,0,0,0,.1-.11v-.84A.11.11,0,0,0,217.93,65.56Zm0,1.69a.11.11,0,0,0-.11.11v.84a.1.1,0,0,0,.11.1.1.1,0,0,0,.1-.1v-.84A.11.11,0,0,0,217.93,67.25Zm0,1.69a.11.11,0,0,0-.11.1v.85a.11.11,0,0,0,.11.1.11.11,0,0,0,.1-.1V69A.11.11,0,0,0,217.93,68.94Zm0,1.69a.1.1,0,0,0-.11.1v.85a.11.11,0,0,0,.11.1.11.11,0,0,0,.1-.1v-.85A.1.1,0,0,0,217.93,70.63Zm0,1.68a.11.11,0,0,0-.11.11v.84a.11.11,0,0,0,.11.11.11.11,0,0,0,.1-.11v-.84A.11.11,0,0,0,217.93,72.31Zm0,1.69a.11.11,0,0,0-.11.11V75a.1.1,0,0,0,.11.1.1.1,0,0,0,.1-.1v-.84A.11.11,0,0,0,217.93,74Zm-20.45,1.59v.09a.06.06,0,0,0,0,0A.09.09,0,0,0,197.48,75.59Zm1.6-.06h-.85a.11.11,0,0,0-.1.11.11.11,0,0,0,.1.1h.85a.11.11,0,0,0,.1-.1A.11.11,0,0,0,199.08,75.53Zm1.68,0h-.89a.12.12,0,0,0-.05.1.1.1,0,0,0,.1.1h.84a.11.11,0,0,0,.11-.1A.11.11,0,0,0,200.76,75.53Zm1.79.08a.1.1,0,0,0-.1-.08h-.87a.11.11,0,0,0-.08.1h0s0,0,0,0h0a.1.1,0,0,0,.1.08h.84a.11.11,0,0,0,.11-.1A0,0,0,0,0,202.55,75.61Zm1.59-.08h-.84a.11.11,0,0,0-.11.11.11.11,0,0,0,.11.1h.84a.1.1,0,0,0,.1-.1A.1.1,0,0,0,204.14,75.53Zm1.69,0H205a.11.11,0,0,0-.1.11.11.11,0,0,0,.1.1h.85a.11.11,0,0,0,.1-.1A.11.11,0,0,0,205.83,75.53Zm1.69,0h-.85a.1.1,0,0,0-.1.11.1.1,0,0,0,.1.1h.85a.11.11,0,0,0,.1-.1A.11.11,0,0,0,207.52,75.53Zm1.68,0h-.84a.11.11,0,0,0-.11.11.11.11,0,0,0,.11.1h.84a.11.11,0,0,0,.11-.1A.11.11,0,0,0,209.2,75.53Zm1.69,0h-.84a.11.11,0,0,0-.11.11.11.11,0,0,0,.11.1h.84a.11.11,0,0,0,.11-.1A.11.11,0,0,0,210.89,75.53Zm1.69,0h-.85a.11.11,0,0,0-.1.11.11.11,0,0,0,.1.1h.85a.1.1,0,0,0,.1-.1A.1.1,0,0,0,212.58,75.53Zm1.69,0h-.85a.1.1,0,0,0-.1.11.1.1,0,0,0,.1.1h.85a.11.11,0,0,0,.1-.1A.11.11,0,0,0,214.27,75.53Zm1.68,0h-.84a.1.1,0,0,0-.1.11.1.1,0,0,0,.1.1H216a.11.11,0,0,0,.11-.1A.11.11,0,0,0,216,75.53Zm1.68,0h-.83a.11.11,0,0,0-.11.11.11.11,0,0,0,.11.1h.85a.12.12,0,0,0,.1-.11A.11.11,0,0,0,217.63,75.53Z" transform="translate(17.23 9.66)"></path></g><path class="b84c6b6d-a13a-49d7-9d7e-bba17d4cda74" d="M220.14,67.63V70a1.26,1.26,0,0,1-.66,1.11,1.47,1.47,0,0,1-.37.13l-.23,0h-6a1.26,1.26,0,0,1-1.22-1,.43.43,0,0,1,0,0h0a1,1,0,0,1,0-.24v-2.4a1.26,1.26,0,0,1,1.26-1.26h6l.23,0A1.26,1.26,0,0,1,220.14,67.63Z" transform="translate(17.23 9.66)"></path><path class="f19512c6-41cf-4fcc-90a6-b2568f3d0eba" d="M219.49,71.12v0a1.47,1.47,0,0,1-.37.13v.27a1.24,1.24,0,0,1-.71.22h-6a1.25,1.25,0,0,1-1.25-1.26V68.1a1.25,1.25,0,0,1,.64-1.1,1.26,1.26,0,0,0-.16.61V70a1,1,0,0,0,0,.25h0a.43.43,0,0,0,0,0,1.25,1.25,0,0,0,1.22,1h6a.85.85,0,0,0,.23,0A1.14,1.14,0,0,0,219.49,71.12Z" transform="translate(17.23 9.66)"></path><path class="b1a5ec7d-b3ec-4f10-b33f-d922218cb1b5" d="M215.9,68.83a1.73,1.73,0,1,1-1.72-1.73A1.73,1.73,0,0,1,215.9,68.83Z" transform="translate(17.23 9.66)"></path><path class="f19512c6-41cf-4fcc-90a6-b2568f3d0eba" d="M215.25,70.18a1.73,1.73,0,1,1-2.42-2.44,1.73,1.73,0,0,0,2.42,2.44Z" transform="translate(17.23 9.66)"></path><path class="f29cd752-691f-42a5-bcd3-e027fb9e8735" d="M215.9,68.75l-1.81,1.81a1.72,1.72,0,0,1-1.47-1l2.31-2.3A1.71,1.71,0,0,1,215.9,68.75Z" transform="translate(17.23 9.66)"></path><path class="f5f7934c-9058-46d3-93d7-cf1e90ba61d2" d="M301.55,73.81l5.76-4.44,2.88-2.21,1.6-1.24c.44-.34,1-1,1.58-1s1.15.6,1.61.94l1.48,1.06,3,2.14,6.06,4.39c.44.31.85-.41.42-.73L319.34,68l-3.28-2.37-1.64-1.19a2,2,0,0,0-1-.52,2,2,0,0,0-1.05.55l-1.6,1.23-3,2.35q-3.29,2.52-6.56,5c-.42.32,0,1,.42.72Z" transform="translate(17.23 9.66)"></path><path class="f5f7934c-9058-46d3-93d7-cf1e90ba61d2" d="M303.29,73.69a143,143,0,0,1,20.7.06c.54,0,.54-.8,0-.84a143,143,0,0,0-20.7-.06c-.53,0-.53.87,0,.84Z" transform="translate(17.23 9.66)"></path><path class="f5f7934c-9058-46d3-93d7-cf1e90ba61d2" d="M305.07,73.67c-.28,3.09-.52,6.17-.73,9.27l-.15,2.21a6.15,6.15,0,0,0-.07,1.76c.28.89,1.48.81,2.23.73a.19.19,0,0,0,.19-.19l.57-14c0-.25-.37-.25-.38,0l-.28,7c-.05,1.13-.1,2.26-.14,3.39l-.07,1.8c0,.42.12,1.38-.26,1.64a2.34,2.34,0,0,1-1.09-.11c-.37-.24-.34-.68-.38-1a12.23,12.23,0,0,1,.12-1.81c.07-1.15.15-2.29.23-3.43.18-2.42.37-4.83.59-7.25,0-.24-.35-.24-.38,0Z" transform="translate(17.23 9.66)"></path><path class="f5f7934c-9058-46d3-93d7-cf1e90ba61d2" d="M309.59,73.58c-.15,3.16-.19,6.33-.12,9.49,0,.74,0,1.49.06,2.23a5.86,5.86,0,0,0,.1,1.88c.34.69,1.36.38,2,.35a.18.18,0,0,0,.19-.19q.31-7.22-.07-14.43c0-.24-.4-.24-.38,0,.12,2.41.2,4.81.21,7.22q0,1.8,0,3.6c0,.72.26,3.2-.41,3.44a2,2,0,0,1-.65,0c-.46-.09-.44-.25-.52-.69a13.85,13.85,0,0,1-.07-1.82c0-1.21-.07-2.42-.07-3.64q0-3.73.15-7.47c0-.25-.37-.25-.38,0Z" transform="translate(17.23 9.66)"></path><path class="f5f7934c-9058-46d3-93d7-cf1e90ba61d2" d="M314.87,73.13q-.09,7,.23,14a.2.2,0,0,0,.19.19c.63,0,1.73.3,2.08-.39a5.4,5.4,0,0,0,.14-1.85c.05-.8.09-1.6.13-2.4.15-3.19.2-6.39.19-9.59,0-.24-.39-.24-.38,0q0,3.6-.1,7.2c0,1.19-.09,2.39-.15,3.59,0,.6-.07,1.2-.1,1.79a1.89,1.89,0,0,1-.19.94c-.24.4-.37.39-.89.33s-.57-.38-.6-1l-.06-1.8c0-1.19-.07-2.39-.1-3.59q-.06-3.69,0-7.38a.19.19,0,0,0-.38,0Z" transform="translate(17.23 9.66)"></path><path class="f5f7934c-9058-46d3-93d7-cf1e90ba61d2" d="M319.27,72.71A132,132,0,0,0,320,87.59a.19.19,0,0,0,.24.18c.69-.13,1.46.51,1.81-.36a7.91,7.91,0,0,0,.19-2.18c0-.85.07-1.69.08-2.53a55,55,0,0,0-.8-9.92c0-.24-.41-.14-.37.1a54.55,54.55,0,0,1,.79,8.65c0,1.36,0,2.73-.11,4.08,0,.33,0,.65-.07,1-.05.53,0,.89-.64.9-.36,0-.6-.15-1-.07l.24.18a132,132,0,0,1-.69-14.88.19.19,0,0,0-.38,0Z" transform="translate(17.23 9.66)"></path><path class="f5f7934c-9058-46d3-93d7-cf1e90ba61d2" d="M303.34,88a97.84,97.84,0,0,1,20.17-.32c.53,0,.53-.79,0-.83a97.14,97.14,0,0,0-20.17.32c-.53.06-.53.9,0,.83Z" transform="translate(17.23 9.66)"></path><path class="f5f7934c-9058-46d3-93d7-cf1e90ba61d2" d="M301.31,89.2,314.09,89c4.24-.08,8.55-.37,12.79-.1.54,0,.54-.8,0-.83-4.24-.28-8.55,0-12.79.09l-12.78.23a.42.42,0,0,0,0,.83Z" transform="translate(17.23 9.66)"></path><path class="f5f7934c-9058-46d3-93d7-cf1e90ba61d2" d="M310.94,70.22a.55.55,0,0,1,.18.22.68.68,0,0,1,.07.28.67.67,0,0,1-.1.34.58.58,0,0,1-.28.23.94.94,0,0,1-.43.09h-.92V68.91h.89a1.14,1.14,0,0,1,.43.08.65.65,0,0,1,.26.23.57.57,0,0,1,.09.32.56.56,0,0,1-.12.36.69.69,0,0,1-.31.21A.44.44,0,0,1,310.94,70.22ZM309.78,70h.54a.51.51,0,0,0,.35-.11.35.35,0,0,0,.13-.3.35.35,0,0,0-.13-.29.52.52,0,0,0-.35-.11h-.54Zm1,1a.37.37,0,0,0,.13-.31.42.42,0,0,0-.14-.33.56.56,0,0,0-.38-.12h-.56v.88h.57A.56.56,0,0,0,310.73,71Z" transform="translate(17.23 9.66)"></path><path class="f5f7934c-9058-46d3-93d7-cf1e90ba61d2" d="M311.63,69.88a.86.86,0,0,1,.33-.35,1,1,0,0,1,.48-.13.93.93,0,0,1,.44.11.83.83,0,0,1,.28.28v-.35h.33v1.94h-.33V71a.83.83,0,0,1-.73.39.9.9,0,0,1-.8-.48,1.15,1.15,0,0,1-.12-.53A1.08,1.08,0,0,1,311.63,69.88Zm1.44.14a.64.64,0,0,0-.24-.25.65.65,0,0,0-.66,0,.64.64,0,0,0-.24.25.76.76,0,0,0-.09.38.8.8,0,0,0,.09.39.64.64,0,0,0,.24.25.65.65,0,0,0,.66,0,.64.64,0,0,0,.24-.25.79.79,0,0,0,.09-.38A.8.8,0,0,0,313.07,70Z" transform="translate(17.23 9.66)"></path><path class="f5f7934c-9058-46d3-93d7-cf1e90ba61d2" d="M315.55,69.62a.8.8,0,0,1,.22.61v1.15h-.31v-1.1a.6.6,0,0,0-.15-.44.58.58,0,0,0-.8,0,.67.67,0,0,0-.16.47v1.07H314V69.44h.32v.27a.75.75,0,0,1,.27-.23.86.86,0,0,1,.36-.08A.74.74,0,0,1,315.55,69.62Z" transform="translate(17.23 9.66)"></path><path class="f5f7934c-9058-46d3-93d7-cf1e90ba61d2" d="M317.39,71.38l-.76-.86v.86h-.33V68.75h.33V70.3l.75-.86h.45l-.92,1,.92,1Z" transform="translate(17.23 9.66)"></path><path class="b74d2aa5-d4fd-427f-8370-4f149f71b5a2" d="M221.44,119.2q0,6.19,0,12.41v53.28c0,.8.12.7-.67.7-12.17,0-24.33,0-36.5,0a9.54,9.54,0,0,1-9.15-6.25,9.64,9.64,0,0,1-.54-3.2c0-9.31,0-18.63,0-27.94a9.32,9.32,0,0,1,9.35-9.4c3.24,0,6.48,0,9.72,0,.46,0,.57.11.57.57q0,15.81,0,31.62a2.64,2.64,0,0,0,2.39,2.83c.41,0,.83,0,1.25,0,1.21,0,2.42,0,3.64,0,.46,0,.6-.11.59-.59q-.09-12.57-.15-25.14,0-9.87-.07-19.73c0-3.07,0-6.13-.07-9.19Z" transform="translate(17.23 9.66)"></path><path class="b74d2aa5-d4fd-427f-8370-4f149f71b5a2" d="M276.41,167.91q0,13.67,0,27.32a9.49,9.49,0,0,1-1.35,5.15,9.19,9.19,0,0,1-7.51,4.53c-.29,0-.59,0-.88,0H230.74c-.67,0-.67,0-.67-.69,0-4.09,0-8.17,0-12.26,0-.55.17-.63.66-.63,8.48,0,16.95,0,25.42,0,.54,0,.67-.13.66-.66,0-1.54,0-3.08,0-4.62,0-.42-.13-.51-.52-.51q-8.69,0-17.37,0a9.35,9.35,0,0,1-9.17-6.55,10,10,0,0,1-.45-3.07q0-18.3,0-36.61c0-.48.15-.56.58-.56q9.25,0,18.51,0c.47,0,.56.13.56.57q0,15.72,0,31.42a2.7,2.7,0,0,0,3,3.05c1.44,0,2.88,0,4.32,0,.43,0,.53-.12.53-.55q0-16.87,0-33.76c0-.73,0-.73.75-.73,6.1,0,12.2,0,18.3,0,.48,0,.6.12.6.6Q276.39,153.65,276.41,167.91Z" transform="translate(17.23 9.66)"></path><path class="b74d2aa5-d4fd-427f-8370-4f149f71b5a2" d="M339,162.18q0-11.4,0-22.8c0-.45.09-.58.56-.58h36.7a9.67,9.67,0,0,1,9.67,7.87,3,3,0,0,1,.06.67q0,18.83,0,37.65c0,.46-.09.61-.58.6q-9.18,0-18.35,0c-.46,0-.57-.12-.57-.57q0-15.69,0-31.37a4,4,0,0,0-.16-1.33,2.58,2.58,0,0,0-2.4-1.76c-1.64,0-3.29,0-4.93,0-.3,0-.38.09-.38.38,0,1.35,0,2.7,0,4.05q0,15,0,30c0,.47-.12.59-.59.59H339.5c-.47,0-.56-.13-.56-.57Q339,173.6,339,162.18Z" transform="translate(17.23 9.66)"></path><path class="b74d2aa5-d4fd-427f-8370-4f149f71b5a2" d="M303.44,138.81h18.09a9.34,9.34,0,0,1,9,6.24,9.83,9.83,0,0,1,.55,3.31q0,5.08,0,10.18a9.37,9.37,0,0,1-8,9.44,10.7,10.7,0,0,1-1.5.11c-3.19,0-6.38,0-9.56,0-.44,0-.54-.12-.54-.55q0-7,0-14a2.67,2.67,0,0,0-3-3c-1.49,0-3,0-4.47,0-.36,0-.46.1-.46.46q0,10,0,20a2.64,2.64,0,0,0,2.83,2.82q11.65,0,23.29,0c.48,0,.6.13.59.6q0,5.31,0,10.64c0,.44-.11.54-.54.54H293.65a9.34,9.34,0,0,1-9.46-7.45A9.9,9.9,0,0,1,284,176q0-18.3,0-36.61c0-.48.15-.56.59-.56Z" transform="translate(17.23 9.66)"></path><path class="b74d2aa5-d4fd-427f-8370-4f149f71b5a2" d="M147.35,185.59H129.41a9.34,9.34,0,0,1-9.08-6.46,9.25,9.25,0,0,1-.47-2.85c0-3.54,0-7.07,0-10.6a9.36,9.36,0,0,1,9.35-9.36c3.28,0,6.55,0,9.83,0,.42,0,.47.16.46.51,0,4.71,0,9.42,0,14.13a2.63,2.63,0,0,0,2.9,2.89h4.47c.34,0,.48-.05.48-.44,0-6.7,0-13.4,0-20.1a2.6,2.6,0,0,0-2.8-2.73c-7.76,0-15.52,0-23.29,0-.45,0-.61-.08-.6-.58q0-5.33,0-10.65c0-.42.08-.55.53-.55H157.1a9.31,9.31,0,0,1,9.49,7.85,9.43,9.43,0,0,1,.14,1.76q0,18.32,0,36.61c0,.47-.12.57-.57.57Z" transform="translate(17.23 9.66)"></path></g></g></svg>