<svg id="Layer_1" data-name="Layer 1" xmlns="http://www.w3.org/2000/svg" viewBox="0 0 674.71869 348.99316">
  <title>Artboard 1</title>
  <g>
    <path d="M195.39557,139.59741H140.59711v17.44947l35.7157.00018a4.00008,4.00008,0,0,1,4,4v30.89923h-7.633a4,4,0,0,1-4-4V165.772H153.59705a14,14,0,0,0-14,14v15.624a14,14,0,0,0,14,14h55.79852V153.59741A14,14,0,0,0,195.39557,139.59741Z" style="fill: #0abf53"/>
    <path d="M261.74341,191.94629h-7.633a4,4,0,0,1-4-4V139.59717H235.02856a14,14,0,0,0-14,14V195.396a14,14,0,0,0,14,14h55.79853V110.51465H261.74432Z" style="fill: #0abf53"/>
    <path d="M343.17535,191.94629h-7.633a4,4,0,0,1-4-4V139.59717H302.46008V195.396a14,14,0,0,0,14,14H343.1759v8.72485H303.46014V238.4751h54.79853a14,14,0,0,0,14-14V139.59717H343.17535Z" style="fill: #0abf53"/>
    <path d="M439.69025,139.59741H383.89172V195.396a14,14,0,0,0,14,14h54.7984V191.94629H416.97449a4,4,0,0,1-4-4V157.04736h7.633a4,4,0,0,1,4,4v22.17408h15.08277a14,14,0,0,0,14-14v-15.624A14,14,0,0,0,439.69025,139.59741Z" style="fill: #0abf53"/>
    <path d="M521.12164,139.59741H465.32318V209.396h29.08276V157.04688h7.633a4.01178,4.01178,0,0,1,4,4V209.396h29.0827V153.59741A14,14,0,0,0,521.12164,139.59741Z" style="fill: #0abf53"/>
  </g>
</svg>
