<svg width="267" height="268" viewBox="0 0 267 268" fill="none" xmlns="http://www.w3.org/2000/svg">
<path d="M208.2 266.5H58.4C26.6 266.5 0.899994 240.7 0.899994 209V59.3C0.899994 27.5 26.7 1.8 58.4 1.8H208.1C239.9 1.8 265.6 27.6 265.6 59.3V209C265.7 240.8 239.9 266.5 208.2 266.5Z" fill="#FCFCFC"/>
<path d="M198 111V119.8C175.7 154 161.9 189.5 156.5 226.3H146.6C152.3 189.2 166.3 153.7 188.8 119.8H130.7V111H198Z" fill="#5A5A5A"/>
<path d="M91.8 111C90.9 114.9 89.3 119.8 85.6 122.8C82 125.8 75 127.3 68.2 127.7V133.9H91.7V226.2H101.4V111H91.8Z" fill="#5A5A5A"/>
<path d="M206.5 267.4H60.2C27 267.4 0.100006 240.4 0.100006 207.3V61C0.100006 27.8 27.1 0.900002 60.2 0.900002H206.5C239.7 0.900002 266.6 27.9 266.6 61V207.3C266.7 240.4 239.7 267.4 206.5 267.4ZM60.2 2.6C28 2.6 1.8 28.8 1.8 61V207.3C1.8 239.5 28 265.7 60.2 265.7H206.5C238.7 265.7 264.9 239.5 264.9 207.3V61C264.9 28.8 238.7 2.6 206.5 2.6H60.2Z" fill="#D8D8D8"/>
<path d="M265.8 80.8V60.7C265.8 28 239.3 1.4 206.5 1.4H60.2C27.5 1.4 0.899994 27.9 0.899994 60.7V80.8H265.8Z" fill="#E9574E"/>
<path d="M266.7 81.7H0.100006V60.7C0.100006 27.5 27.1 0.599998 60.2 0.599998H206.5C239.7 0.599998 266.6 27.6 266.6 60.7V81.7H266.7ZM1.89999 79.9H264.9V60.7C264.9 28.5 238.7 2.3 206.5 2.3H60.2C28 2.3 1.8 28.5 1.8 60.7V79.9H1.89999Z" fill="#E9574E"/>
<path d="M83.4 52.1C83.4 52.8 83.5 53.7 83.6 54.5C83.7 55.3 83.9 56.1 84.4 56.8C84.8 57.4 85.4 57.9 86.3 58.5C87.2 59.1 88.4 59.4 89.9 59.4C91.1 59.4 92.3 59.2 93.3 58.7C94.3 58.2 95.2 57.4 95.8 56.4C96 56 96.2 55.5 96.4 55C96.5 54.5 96.6 53.9 96.7 53.4C96.8 52.9 96.8 52.4 96.8 51.9C96.8 51.4 96.8 51 96.8 50.7V21.1H102.7V52.4C102.7 54.4 102.3 56.1 101.6 57.6C100.9 59.1 99.9 60.4 98.7 61.4C97.5 62.4 96.1 63.2 94.5 63.7C92.9 64.2 91.2 64.5 89.4 64.5C88.8 64.5 88.1 64.4 87.3 64.3C86.4 64.2 85.5 64 84.6 63.7C83.7 63.4 82.7 62.9 81.8 62.3C80.9 61.7 80 60.9 79.3 59.9C78.8 59.2 78.4 58.5 78.1 57.8C77.8 57 77.6 56.3 77.5 55.6C77.4 54.9 77.3 54.3 77.2 53.6C77.2 53 77.1 52.5 77.1 52L83.4 52.1Z" fill="white"/>
<path d="M120.3 21.1V47.6C120.3 48.7 120.4 49.7 120.5 50.6C120.6 51.4 120.8 52.1 120.9 52.7C121.1 53.3 121.3 53.8 121.5 54.2C121.7 54.6 121.9 55 122.2 55.3C122.9 56.2 123.6 56.9 124.5 57.5C125.4 58.1 126.2 58.5 127 58.8C127.9 59.1 128.7 59.3 129.6 59.4C130.4 59.5 131.2 59.5 132 59.5C134.9 59.5 137.1 59 138.7 58C140.3 57 141.4 55.9 142.1 54.5C142.8 53.2 143.3 51.8 143.4 50.5C143.5 49.2 143.6 48.1 143.6 47.3V21.1H149.3V47.5C149.3 48.1 149.3 48.8 149.2 49.7C149.2 50.5 149 51.5 148.8 52.5C148.6 53.5 148.2 54.6 147.8 55.7C147.3 56.8 146.7 57.9 145.8 59C144.7 60.3 143.6 61.4 142.3 62.1C141 62.9 139.8 63.5 138.5 63.9C137.2 64.3 136 64.6 134.9 64.7C133.8 64.8 132.8 64.9 132.1 64.9C131.1 64.9 129.9 64.8 128.6 64.6C127.3 64.4 125.9 64.1 124.5 63.6C123.1 63.1 121.8 62.4 120.4 61.5C119.1 60.6 117.9 59.5 116.9 58C116.6 57.5 116.3 57 116 56.4C115.7 55.8 115.4 55.1 115.2 54.3C115 53.5 114.8 52.5 114.6 51.3C114.5 50.2 114.4 48.8 114.4 47.2V21.1H120.3Z" fill="white"/>
<path d="M160.4 21.1H166.3V58.6H186.2V63.9H160.4V21.1V21.1Z" fill="white"/>
</svg>
