<svg width="26" height="18" viewBox="0 0 26 18" fill="none" xmlns="http://www.w3.org/2000/svg">
    <path
        d="M14.8607 0H4.04353C3.16693 0 2.32622 0.347292 1.70636 0.965476C1.08651 1.58366 0.738281 2.4221 0.738281 3.29634V14.0844C0.738281 14.9586 1.08651 15.7971 1.70636 16.4152C2.32622 17.0334 3.16693 17.3807 4.04353 17.3807H14.8607C15.7373 17.3807 16.578 17.0334 17.1979 16.4152C17.8177 15.7971 18.166 14.9586 18.166 14.0844V3.29634C18.166 2.4221 17.8177 1.58366 17.1979 0.965476C16.578 0.347292 15.7373 0 14.8607 0V0Z"
        fill="#246BFD" />
    <path
        d="M24.1641 3.10754C24.0122 3.14004 23.8679 3.20106 23.7389 3.28734L21.1623 4.85161C20.7585 5.09889 20.4269 5.44766 20.2008 5.86299C19.9686 6.28713 19.8472 6.76272 19.8477 7.24595V10.1407C19.8475 10.6251 19.9694 11.1017 20.2023 11.5267C20.4295 11.9431 20.7627 12.2925 21.1683 12.5396L23.7645 14.1038C23.9325 14.2074 24.1202 14.2753 24.3158 14.3031C24.5103 14.3302 24.7084 14.3164 24.8973 14.2627C25.0881 14.2077 25.2659 14.1149 25.4201 13.99C25.5764 13.862 25.706 13.7047 25.8017 13.527C25.9321 13.2836 26.0003 13.0118 26 12.7359V4.62985C25.9995 4.39497 25.9483 4.16296 25.8498 3.94961C25.7523 3.73989 25.6097 3.55418 25.4321 3.40571C25.258 3.26046 25.0522 3.15784 24.8311 3.10604C24.6118 3.05359 24.3832 3.0541 24.1641 3.10754Z"
        fill="#246BFD" />
    <path
        d="M7.07325 14.3165C6.26596 14.3165 5.64849 14.0822 5.22081 13.6138C4.79313 13.1453 4.57928 12.484 4.57928 11.63V6.0112C4.57928 5.15515 4.79313 4.49338 5.22081 4.0259C5.64849 3.55842 6.26596 3.32418 7.07325 3.32318C7.87452 3.32318 8.4915 3.55742 8.92419 4.0259C9.35687 4.49438 9.57071 5.15615 9.5657 6.0112V11.63C9.5657 12.484 9.35186 13.1453 8.92419 13.6138C8.49651 14.0822 7.87953 14.3165 7.07325 14.3165ZM7.07325 12.7897C7.63914 12.7897 7.92259 12.4401 7.9236 11.7408V5.90332C7.9236 5.20409 7.64015 4.85448 7.07325 4.85448C6.50635 4.85448 6.2224 5.20409 6.2214 5.90332V11.7363C6.2214 12.4396 6.50534 12.7907 7.07325 12.7897Z"
        fill="white" />
    <path
        d="M12.6791 6.0112H10.9619V4.82002C11.3388 4.83087 11.7155 4.78952 12.0811 4.69716C12.3452 4.63341 12.5856 4.49564 12.7737 4.3001C12.9727 4.05484 13.1254 3.77563 13.2244 3.47601H14.3287V14.1637H12.6791V6.0112Z"
        fill="white" />
</svg>