<svg width="600" height="600" viewBox="0 0 600 600" fill="none" xmlns="http://www.w3.org/2000/svg">
<rect width="600" height="600" rx="33" fill="#34D28B"/>
<path fill-rule="evenodd" clip-rule="evenodd" d="M456.472 259.345C456.472 289.043 453.307 314.868 447.002 336.768C440.672 358.668 431.86 376.872 420.542 391.354C409.223 405.836 395.474 416.596 379.319 423.66C363.164 430.724 345.237 434.243 325.562 434.243C311.169 434.353 296.828 432.479 282.947 428.673C269.78 424.951 257.778 417.71 247.016 406.95L245.345 407.507L246.459 452.624V514.451H159V93.3588L219.72 89.4598L236.432 118.981C248.478 108.113 262.462 99.6101 277.655 93.9158C293.679 87.8979 310.674 84.877 327.79 85.0038C348.579 85.0038 366.962 88.0673 382.94 94.1943C398.892 100.321 412.363 110.145 423.327 123.715C434.291 137.261 442.546 155.186 448.116 177.466C453.687 199.746 456.472 227.039 456.472 259.345ZM366.785 258.788C366.785 239.47 365.57 223.52 363.164 210.886C360.759 198.252 357.036 188.327 352.023 181.086C347.328 174.09 340.485 168.812 332.526 166.047C323.447 163.094 313.939 161.682 304.394 161.87C292.751 161.651 281.216 164.129 270.691 169.111C260.841 173.921 252.764 180.631 246.459 189.163V333.983C251.65 342.161 258.892 349.022 268.185 354.592C277.477 360.162 288.973 362.947 302.723 362.947C311.625 363.069 320.482 361.656 328.905 358.769C336.704 355.984 343.388 350.794 348.959 343.173C354.53 335.578 358.885 324.97 362.05 311.424C365.215 297.879 366.785 280.334 366.785 258.788Z" fill="white"/>
</svg>
