<svg width="110" height="110" viewBox="0 0 110 110" fill="none" xmlns="http://www.w3.org/2000/svg">
<path d="M32.96 46.251V44.315C32.96 43.7976 32.7544 43.3013 32.3886 42.9354C32.0227 42.5696 31.5264 42.364 31.009 42.364H27.275V40.57C27.269 38.47 27.743 37.218 28.169 36.761L28.189 36.736C28.4797 36.4496 28.8448 36.2504 29.243 36.161C30.6211 35.9392 32.0152 35.8312 33.411 35.838H34.128C34.3843 35.8381 34.6381 35.7878 34.8749 35.6898C35.1117 35.5918 35.3269 35.4481 35.5082 35.2669C35.6895 35.0857 35.8333 34.8706 35.9314 34.6338C36.0295 34.3971 36.08 34.1433 36.08 33.887V32.139C36.081 31.6859 35.9239 31.2467 35.6359 30.8969C35.3479 30.5472 34.9469 30.3089 34.502 30.223C34.266 30.177 34.002 30.131 33.709 30.086C33.341 30.029 31.408 30 31.028 30H31.001C27.86 30 25.184 30.734 23.392 32.656C21.638 34.588 21.009 37.315 21 40.63V77.159C21 77.6764 21.2056 78.1727 21.5714 78.5386C21.9373 78.9045 22.4336 79.11 22.951 79.11H25.324C25.5803 79.1103 25.8341 79.06 26.0709 78.962C26.3078 78.8641 26.5229 78.7204 26.7042 78.5392C26.8854 78.3579 27.0291 78.1428 27.127 77.9059C27.225 77.6691 27.2753 77.4153 27.275 77.159V48.2H31.007C31.2633 48.2005 31.5172 48.1505 31.7541 48.0528C31.991 47.9551 32.2063 47.8116 32.3877 47.6306C32.5691 47.4495 32.7131 47.2345 32.8113 46.9978C32.9095 46.761 32.96 46.5073 32.96 46.251Z" fill="#272827"/>
<path d="M67.553 78.3811C67.7269 78.5698 67.9377 78.721 68.1723 78.8252C68.4069 78.9294 68.6603 78.9845 68.917 78.987H71.33C71.7347 78.9871 72.1294 78.8613 72.4593 78.6269C72.7892 78.3925 73.0379 78.0612 73.171 77.6791L87.971 35.218C88.0738 34.924 88.1048 34.6096 88.0612 34.3012C88.0176 33.9927 87.9008 33.6992 87.7206 33.4452C87.5404 33.1911 87.3019 32.9839 87.0252 32.8409C86.7485 32.6978 86.4415 32.6232 86.13 32.623H83.758C83.3528 32.6225 82.9576 32.7482 82.6272 32.9829C82.2969 33.2175 82.0479 33.5493 81.915 33.932L67.115 76.3931C67.0393 76.5945 67.0004 76.8079 67 77.023C67.0055 77.5293 67.2028 78.0146 67.552 78.3811" fill="#7476EB"/>
<path d="M32.3342 68.4811V68.5041C32.2897 70.6156 32.8666 72.6936 33.9932 74.4801C35.1218 76.1935 36.735 77.532 38.6272 78.3251C40.7351 79.1846 42.9974 79.6009 45.2732 79.5481C47.0241 79.5276 48.7581 79.2034 50.3982 78.5901C52.2428 77.9114 53.9493 76.9045 55.4352 75.6181C55.7282 75.3681 56.0042 75.1011 56.2732 74.8271C56.447 75.9655 56.8331 77.0611 57.4112 78.0571C57.5849 78.3421 57.8292 78.5773 58.1206 78.7401C58.412 78.9029 58.7405 78.9876 59.0742 78.9861V78.9861L60.2162 78.9731C60.7298 78.9673 61.2204 78.7592 61.5816 78.3939C61.9427 78.0286 62.1452 77.5357 62.1452 77.0221V56.1221C62.2019 53.5589 61.7191 51.0126 60.7282 48.6481C59.7774 46.4585 58.1553 44.6277 56.0962 43.4201C53.7772 42.1508 51.1593 41.5291 48.5172 41.6201C45.9129 41.5546 43.3276 42.0798 40.9552 43.1561C38.8284 44.1597 37.0389 45.7595 35.8042 47.7611L35.7952 47.7751C35.6299 48.0418 35.5423 48.3493 35.5422 48.6631C35.5445 49.0318 35.6612 49.3907 35.8761 49.6904C36.0911 49.99 36.3937 50.2156 36.7422 50.3361V50.3361L38.6572 51.0171C38.9487 51.1207 39.2558 51.1735 39.5652 51.1731C39.9724 51.1723 40.3744 51.0808 40.7419 50.9055C41.1095 50.7301 41.4334 50.4751 41.6902 50.1591C41.8711 49.9376 42.0641 49.7263 42.2682 49.5261C43.5212 48.3101 45.3802 47.5931 48.2682 47.5821C49.5131 47.5526 50.7533 47.7459 51.9302 48.1531C52.7733 48.4567 53.5193 48.9813 54.0902 49.6721C55.1742 51.0021 55.8562 53.0581 55.9202 56.0041C53.1322 56.0481 50.6592 56.1641 48.5202 56.3641C45.8344 56.6037 43.1856 57.155 40.6272 58.0071V58.0071H40.6182L40.5952 58.0141C38.2551 58.6523 36.1501 59.9552 34.5352 61.7651C33.0315 63.658 32.2515 66.0249 32.3352 68.4411L32.3342 68.4811ZM54.5142 68.1561C53.5778 69.7893 52.2547 71.1676 50.6612 72.1701C49.1084 73.1575 47.3013 73.6708 45.4612 73.6471C43.6022 73.7789 41.7561 73.2525 40.2462 72.1601C39.7222 71.7354 39.3045 71.1944 39.0262 70.5801C38.7376 69.8737 38.5958 69.116 38.6092 68.3531C38.5952 67.4561 38.8199 66.5716 39.2602 65.7901C39.8482 64.9244 40.6826 64.2552 41.6552 63.8691C43.5883 63.0572 45.6276 62.5262 47.7112 62.2921C50.4393 61.9329 53.1867 61.7398 55.9382 61.7141V62.9211C55.9446 64.7621 55.4529 66.5707 54.5152 68.1551" fill="#272827"/>
</svg>
