<svg width="36" height="36" viewBox="0 0 36 36" fill="none" xmlns="http://www.w3.org/2000/svg">
<path d="M3.85714 2.71429C1.7269 2.71429 0 4.44119 0 6.57143V7.85714L1.28571 9.14286V31L27 18.1429L28.2857 19.4286H36V6.57143C36 4.44119 34.2731 2.71429 32.1429 2.71429H3.85714Z" fill="url(#paint0_linear_2219_274)"/>
<path d="M25.2551 7.85715H0V28.5816C0 30.6273 1.65837 32.2857 3.70408 32.2857H16.7143L23.4656 22.1587C24.1185 20.5573 25.691 19.4286 27.5271 19.4286H28.2857L28.2857 10.8878C28.2857 9.214 26.9289 7.85715 25.2551 7.85715Z" fill="url(#paint1_radial_2219_274)"/>
<path d="M16.7143 32.2857V30.903C16.7143 30.1359 16.9886 29.3941 17.4877 28.8116L23.9846 21.2293C24.1191 21.0452 24.2676 20.8719 24.4286 20.7111L23.9846 21.2293C23.4553 21.9538 23.1429 22.8469 23.1429 23.8128V32.2857L16.7143 32.2857Z" fill="#B8D7FF"/>
<path d="M26.4857 27.6385H27.7979C27.8511 27.8648 27.9842 28.0647 28.1744 28.2043C28.3608 28.3438 28.5928 28.4155 28.8286 28.4042C29.4219 28.4042 29.8137 28.0798 29.8137 27.6046C29.8137 27.1293 29.4067 26.8652 28.6004 26.8652H28.0793V25.794H28.5319C29.3116 25.794 29.6311 25.5073 29.6311 25.0811C29.6311 24.6549 29.285 24.3607 28.8058 24.3607C28.5928 24.3494 28.3798 24.4173 28.22 24.5568C28.0565 24.6964 27.9576 24.8925 27.9386 25.1038H26.6721C26.7177 24.3569 27.311 23.2857 28.7982 23.2857C29.9924 23.2857 30.8178 23.9609 30.8178 24.9114C30.8178 25.2169 30.7227 25.5149 30.5401 25.7601C30.3576 26.0053 30.1027 26.1901 29.8099 26.2806V26.2995C30.1522 26.3598 30.4603 26.5409 30.6771 26.8087C30.8939 27.0765 31.008 27.4122 30.9966 27.7592C30.9966 28.7889 30.0457 29.4679 28.8172 29.4679C27.5126 29.4754 26.5808 28.7399 26.4857 27.6385Z" fill="#8F69FF"/>
<path d="M33.29 23.3881H34.2446V29.3817H33.0124V24.7837L31.8257 25.5833V24.3725L33.29 23.3881Z" fill="#8F69FF"/>
<defs>
<linearGradient id="paint0_linear_2219_274" x1="30.2432" y1="22.0464" x2="9.24517" y2="-8.46066" gradientUnits="userSpaceOnUse">
<stop stop-color="#BFE8FF"/>
<stop offset="0.3075" stop-color="#BFABFF"/>
<stop offset="1" stop-color="#7341FF"/>
</linearGradient>
<radialGradient id="paint1_radial_2219_274" cx="0" cy="0" r="1" gradientUnits="userSpaceOnUse" gradientTransform="translate(27.204 -12.5227) scale(57.7522 51.6096)">
<stop offset="0.502942" stop-color="#6D4AFF"/>
<stop offset="0.9944" stop-color="#06B8FF"/>
</radialGradient>
</defs>
</svg>
