<?xml version="1.0" encoding="UTF-8"?>
<svg version="1.1" xmlns="http://www.w3.org/2000/svg" width="1024" height="1024">
<path d="M0 0 C5.16780822 0.00459647 10.33560393 -0.00249427 15.5034095 -0.00795984 C25.58428165 -0.01678025 35.66512376 -0.01496494 45.745997 -0.00913456 C53.95106189 -0.00458855 62.15611845 -0.00401776 70.36118424 -0.00618219 C72.12344349 -0.00664189 72.12344349 -0.00664189 73.92130395 -0.00711088 C76.30915626 -0.00775043 78.69700856 -0.00839886 81.08486087 -0.00905606 C103.39404009 -0.01473788 125.70320279 -0.0082355 148.0123793 0.00254467 C167.08694788 0.01147704 186.16149211 0.00992653 205.23606026 0.00070715 C227.47248561 -0.01003568 249.70889654 -0.01418754 271.94532412 -0.00806832 C274.32392422 -0.00743133 276.70252432 -0.00680259 279.08112442 -0.00618219 C280.83586566 -0.00571937 280.83586566 -0.00571937 282.62605621 -0.00524719 C290.80521882 -0.00353215 298.98437215 -0.00640943 307.16353333 -0.0111413 C317.1542292 -0.01679503 327.14489372 -0.01514058 337.13558608 -0.00457981 C342.21699614 0.0006174 347.29835424 0.00283758 352.37976372 -0.00387812 C402.19367693 -0.06400935 453.98766578 0.41308289 499.01901925 24.32394934 C500.62025008 25.17251771 502.23285805 25.9995315 503.84665596 26.82394934 C510.63813082 30.36900288 516.71755044 34.60000526 522.78806221 39.26144934 C523.59888253 39.87762121 524.40970284 40.49379309 525.24509346 41.12863684 C536.32105853 49.75321707 546.26195243 59.08277207 554.78806221 70.26144934 C555.52540596 71.19473059 556.26274971 72.12801184 557.02243721 73.08957434 C590.07504662 115.71604302 596.97419077 168.47300644 596.92177498 220.93498755 C596.92364859 222.74476709 596.92595145 224.55454623 596.92864031 226.36432475 C596.93469706 231.2843658 596.93463202 236.20438971 596.93344593 241.12443364 C596.93324035 246.45192271 596.93877561 251.7794065 596.9435035 257.10689306 C596.95177735 267.52561871 596.95455687 277.9443387 596.95511588 288.36306737 C596.95559268 296.84208091 596.95765557 305.32109261 596.9608165 313.80010557 C596.96961484 337.89536812 596.97423727 361.99062623 596.97348603 386.08589039 C596.97342609 388.03061311 596.97342609 388.03061311 596.97336495 390.01462317 C596.97330363 391.96174987 596.97330363 391.96174987 596.97324107 393.94821247 C596.97283503 414.963095 596.9823962 435.97795958 596.99650332 456.99283693 C597.01090922 478.62537548 597.01777116 500.25790529 597.01690954 521.89044875 C597.01657898 534.013389 597.0192637 546.13631045 597.03008759 558.25924635 C597.03924833 568.58479093 597.04132259 578.91030817 597.03457817 589.23585508 C597.03134059 594.49110848 597.03115457 599.74630959 597.03993142 605.00155783 C597.14743213 673.85227203 590.87688674 739.477334 540.47556221 791.01144934 C529.05077195 802.32366276 515.83091056 811.5179175 501.78806221 819.26144934 C501.2036335 819.59451086 500.61920479 819.92757238 500.01706612 820.27072668 C463.10318847 841.15366711 418.72778975 844.4364724 377.19008553 844.39516211 C375.37633155 844.39703525 373.56257797 844.39933793 371.74882501 844.40202743 C366.81319244 844.40808991 361.87757694 844.40801845 356.9419415 844.40683305 C351.59945725 844.40662762 346.25697828 844.41216135 340.91449654 844.41689062 C330.4645532 844.42516769 320.0146155 844.42794414 309.56466915 844.428503 C301.06083286 844.42897965 292.55699841 844.43104183 284.05316269 844.43420362 C259.89158881 844.44300292 235.73001935 844.44762425 211.56844386 844.44687315 C210.26814692 844.44683319 208.96784998 844.44679324 207.62815011 844.44675207 C206.32624721 844.44671119 205.02434431 844.44667031 203.68298981 844.44662819 C182.60593616 844.44622214 161.52890041 844.4557832 140.45185193 844.46989044 C118.75945921 844.48429379 97.06707521 844.49115842 75.3746776 844.49029666 C63.21654281 844.48996601 51.05842678 844.49265482 38.90029633 844.50347471 C28.54468874 844.51263208 18.18910841 844.51471243 7.8334985 844.50796529 C2.56217388 844.50472602 -2.7090986 844.50454805 -7.98041809 844.51331854 C-73.23961246 844.61485349 -138.72460111 839.88427097 -188.21193779 792.26144934 C-188.7128997 791.78626867 -189.21386161 791.31108801 -189.73000419 790.82150793 C-235.22676192 747.51012434 -245.45960942 688.78772737 -247.11472929 628.55403018 C-247.45405385 614.76353899 -247.35227474 600.96104786 -247.34266245 587.16749537 C-247.34036496 582.27240008 -247.34390921 577.37730809 -247.34664237 572.4822135 C-247.35105315 562.93314975 -247.35014472 553.38409393 -247.34722973 543.83502989 C-247.34495722 536.06419056 -247.34467113 528.29335343 -247.34575355 520.52251387 C-247.34590678 519.4100818 -247.34606002 518.29764973 -247.34621789 517.1515076 C-247.34653767 514.8905603 -247.34686188 512.629613 -247.34719048 510.3686657 C-247.35003149 489.24470036 -247.34677991 468.12073937 -247.34139012 446.99677474 C-247.33692272 428.92947985 -247.33770017 410.86219138 -247.34230888 392.7948966 C-247.34767803 371.73706871 -247.34975758 350.67924463 -247.34669662 329.62141615 C-247.34637812 327.36980045 -247.34606374 325.11818475 -247.34575355 322.86656904 C-247.34559928 321.75916327 -247.345445 320.65175749 -247.34528605 319.51079397 C-247.34442795 311.76208913 -247.34586842 304.01338675 -247.3482331 296.26468229 C-247.35105737 286.80340231 -247.35023799 277.34213061 -247.34495236 267.88085156 C-247.34235055 263.06729907 -247.34124944 258.2537603 -247.34460151 253.44020796 C-247.39136991 179.9810908 -244.14611738 108.76679822 -189.83693779 53.57394934 C-138.81276945 2.99229547 -67.59236235 -0.08927248 0 0 Z " fill="#FEFEFE" transform="translate(337.2119377851486,99.73855066299438)"/>
<path d="M0 0 C0.72727596 -0.00265183 1.45455192 -0.00530365 2.20386654 -0.00803584 C4.64792066 -0.01571292 7.0919244 -0.0162874 9.53598976 -0.01688576 C11.30327979 -0.02090144 13.07056889 -0.02533984 14.83785689 -0.03016531 C19.70027701 -0.04212507 24.56268722 -0.04777789 29.42511916 -0.05234647 C34.66736422 -0.0583049 39.90959743 -0.06991422 45.15183449 -0.08063698 C57.81585522 -0.10515655 70.47987986 -0.11978805 83.14391702 -0.13269705 C86.72149505 -0.13640948 90.29907269 -0.14038268 93.87665033 -0.14444971 C116.09768951 -0.16968815 138.31872931 -0.19173911 160.53977966 -0.20417786 C165.68659785 -0.20710751 170.83341601 -0.21006918 175.98023415 -0.21308327 C177.25943633 -0.21382932 178.53863852 -0.21457537 179.85660441 -0.21534403 C200.57141237 -0.22799326 221.28613441 -0.26121072 242.00090222 -0.3028851 C263.27361696 -0.3453307 284.54628774 -0.36887598 305.81904471 -0.37409842 C317.76069506 -0.37750968 329.70221118 -0.38923132 341.64381981 -0.42220116 C351.81567082 -0.45023892 361.98736008 -0.46118461 372.15924673 -0.4500057 C377.34595154 -0.44482854 382.5323178 -0.44764468 387.71897316 -0.47247124 C392.47533528 -0.4950473 397.23111728 -0.49415921 401.98749013 -0.47526737 C403.70025565 -0.47247903 405.41306122 -0.47800036 407.12576263 -0.4930803 C424.349036 -0.63534887 439.27045293 3.34334416 452.39869118 15.26201439 C466.06627536 30.01380597 468.32490979 46.42899086 468.16529274 65.62676048 C468.16416208 67.5499831 468.16480238 69.47320744 468.16706276 71.39642906 C468.16820229 76.57534141 468.1448171 81.7538771 468.11676693 86.93270254 C468.0916255 92.36053803 468.08940128 97.7883838 468.0846653 103.21626854 C468.07227278 113.47589057 468.03950188 123.73534048 467.99926734 133.99488699 C467.95443329 145.68299395 467.93253341 157.37110946 467.9124856 169.05928111 C467.87076571 193.08528733 467.80048657 217.11114118 467.71119118 241.13701439 C466.39163429 241.13479378 465.07207741 241.13257317 463.71253395 241.13028526 C451.1254832 241.10979437 438.53843594 241.09491958 425.95137215 241.08520222 C419.48409759 241.08003813 413.01683675 241.07306209 406.54957008 241.06157494 C390.94646746 241.03487716 375.34398368 241.03912987 359.74103737 241.12135124 C357.8038284 241.13136587 355.86661282 241.14021327 353.92939186 241.14755058 C349.28889039 241.16585462 344.65013977 241.20532223 340.01043129 241.29488373 C338.1669428 241.3264998 336.3231194 241.33645421 334.47937965 241.34500694 C315.68428282 241.83779427 300.63181526 251.02468966 287.71119118 264.13701439 C281.94294184 270.26816683 276.4691603 276.58676828 271.17994118 283.13310814 C266.68828787 288.59842681 262.00665885 293.90086143 257.36207008 299.23613548 C250.4609912 307.1822757 243.6448415 315.20155313 236.85523415 323.24297142 C232.99012581 327.81712148 229.09302271 332.3633134 225.19165993 336.90654564 C221.3944895 341.3316719 217.62086623 345.77607133 213.86451149 350.23589134 C211.46522689 353.08039956 209.04785353 355.90677705 206.60181618 358.71123314 C194.48653673 372.61705892 184.85539183 385.66106582 184.39478493 404.84404564 C184.37400383 405.56944038 184.35322273 406.29483513 184.3318119 407.04221153 C184.26676903 409.34455551 184.20764345 411.64700721 184.14869118 413.94951439 C184.10546283 415.51658253 184.0618472 417.08364003 184.0178318 418.65068626 C183.9111345 422.47935375 183.80974149 426.30812889 183.71119118 430.13701439 C159.03244138 430.23059389 134.35371831 430.30106028 109.67482662 430.34426308 C98.21512662 430.36485904 86.75553707 430.39292288 75.29590797 430.4387722 C65.30381655 430.47873082 55.31180516 430.50446874 45.31963605 430.51336837 C40.0323576 430.51856783 34.74530803 430.53072648 29.45810318 430.55993462 C24.47340646 430.58724642 19.48903118 430.59542771 14.50426674 430.58944511 C12.68268202 430.59053833 10.86108566 430.59839772 9.03956604 430.61383629 C-9.61334865 430.76407036 -24.06595458 426.66127551 -37.96459007 413.61357689 C-47.17080708 403.80392717 -52.40372613 390.74506127 -52.42023659 377.28944778 C-52.42407773 376.11237192 -52.42791888 374.93529606 -52.43187642 373.72255123 C-52.43100994 372.43336918 -52.43014346 371.14418712 -52.42925072 369.81593895 C-52.43183538 368.42940473 -52.43484882 367.04287126 -52.43825412 365.65633881 C-52.44631565 361.84653818 -52.44811322 358.03675641 -52.44885159 354.22694826 C-52.45070363 350.11771611 -52.45825178 346.00849371 -52.4649868 341.8992672 C-52.47856503 332.91357542 -52.48459416 323.92788811 -52.48899746 314.94218779 C-52.49176096 309.3299961 -52.49599854 303.71780614 -52.50050163 298.10561562 C-52.51269404 282.56316486 -52.52299315 267.02071548 -52.52637672 251.47826004 C-52.52659629 250.48361784 -52.52681586 249.48897563 -52.52704208 248.46419276 C-52.52726035 247.46718584 -52.52747863 246.47017892 -52.52770352 245.44295967 C-52.52814699 243.42268364 -52.52859355 241.40240761 -52.5290432 239.38213158 C-52.52926463 238.38000732 -52.52948606 237.37788307 -52.5297142 236.34539141 C-52.53366104 220.11243855 -52.55111171 203.87953061 -52.57440272 187.64659511 C-52.59812931 170.97530896 -52.61057919 154.30404535 -52.61174464 137.63274205 C-52.61266071 128.27455138 -52.61839578 118.91641923 -52.63656425 109.55824471 C-52.65198294 101.5883896 -52.6570753 93.6186111 -52.64882615 85.64874391 C-52.6449258 81.58460392 -52.64581907 77.52061811 -52.6598835 73.45649719 C-52.67265947 69.73051307 -52.67139275 66.0047984 -52.65929279 62.27881445 C-52.65642333 60.3038448 -52.66824355 58.32887034 -52.68071485 56.35393798 C-52.59084563 40.08814868 -47.34020703 26.4171611 -35.99584007 14.61357689 C-25.82033647 5.30438601 -13.76259505 0.02474579 0 0 Z " fill="#6353FF" transform="translate(304.28880882263184,296.8629856109619)"/>
<path d="M0 0 C0.72727596 -0.00265183 1.45455192 -0.00530365 2.20386654 -0.00803584 C4.64792066 -0.01571292 7.0919244 -0.0162874 9.53598976 -0.01688576 C11.30327979 -0.02090144 13.07056889 -0.02533984 14.83785689 -0.03016531 C19.70027701 -0.04212507 24.56268722 -0.04777789 29.42511916 -0.05234647 C34.66736422 -0.0583049 39.90959743 -0.06991422 45.15183449 -0.08063698 C57.81585522 -0.10515655 70.47987986 -0.11978805 83.14391702 -0.13269705 C86.72149505 -0.13640948 90.29907269 -0.14038268 93.87665033 -0.14444971 C116.09768951 -0.16968815 138.31872931 -0.19173911 160.53977966 -0.20417786 C165.68659785 -0.20710751 170.83341601 -0.21006918 175.98023415 -0.21308327 C177.25943633 -0.21382932 178.53863852 -0.21457537 179.85660441 -0.21534403 C200.57141237 -0.22799326 221.28613441 -0.26121072 242.00090222 -0.3028851 C263.27361696 -0.3453307 284.54628774 -0.36887598 305.81904471 -0.37409842 C317.76069506 -0.37750968 329.70221118 -0.38923132 341.64381981 -0.42220116 C351.81567082 -0.45023892 361.98736008 -0.46118461 372.15924673 -0.4500057 C377.34595154 -0.44482854 382.5323178 -0.44764468 387.71897316 -0.47247124 C392.47533528 -0.4950473 397.23111728 -0.49415921 401.98749013 -0.47526737 C403.70025565 -0.47247903 405.41306122 -0.47800036 407.12576263 -0.4930803 C424.349036 -0.63534887 439.27045293 3.34334416 452.39869118 15.26201439 C466.06627536 30.01380597 468.32490979 46.42899086 468.16529274 65.62676048 C468.16416208 67.5499831 468.16480238 69.47320744 468.16706276 71.39642906 C468.16820229 76.57534141 468.1448171 81.7538771 468.11676693 86.93270254 C468.0916255 92.36053803 468.08940128 97.7883838 468.0846653 103.21626854 C468.07227278 113.47589057 468.03950188 123.73534048 467.99926734 133.99488699 C467.94603691 147.8719079 467.92457405 161.74897646 467.90125847 175.62607384 C467.86373757 197.46318275 467.78402192 219.29992857 467.71119118 241.13701439 C431.08119118 240.80701439 394.45119118 240.47701439 356.71119118 240.13701439 C356.69701149 229.95342064 356.6828318 219.76982689 356.66822243 209.27763939 C356.64815897 202.8153746 356.6268389 196.35315416 356.59986305 189.89092064 C356.55730483 179.64008456 356.51978892 169.38941245 356.51563454 159.13847923 C356.51258472 151.67145073 356.49195829 144.20470738 356.45066661 136.73778892 C356.42942662 132.78800763 356.41668919 128.8386308 356.42503738 124.88879204 C356.43263524 121.1621108 356.4165259 117.43624514 356.38313103 113.70971298 C356.37110706 111.70818056 356.38341153 109.70654689 356.39675331 107.70502281 C356.24326081 95.45853572 352.3912134 84.95266196 343.71119118 76.13701439 C332.57241032 66.39058114 320.432816 64.53607474 306.10761452 64.61803246 C304.55869997 64.61214634 303.00979125 64.60451366 301.46089292 64.59530139 C297.23511409 64.57515648 293.00967318 64.57956463 288.78386855 64.58820891 C284.21549171 64.59317316 279.64719766 64.57504482 275.0788517 64.55978966 C267.17399859 64.53652134 259.2692371 64.52772717 251.36435127 64.52889824 C239.93538126 64.53057025 228.50653308 64.51020453 217.07759562 64.48454294 C198.53277794 64.44349868 179.98798224 64.42015835 161.44312477 64.40801048 C143.43366314 64.39617528 125.42424306 64.37592004 107.41480446 64.34453392 C106.2924918 64.34258841 105.17017914 64.34064289 104.01385701 64.33863842 C95.23600765 64.32335661 86.45815918 64.30758807 77.68031096 64.29166579 C34.69061115 64.21381062 -8.29902851 64.1783905 -51.28880882 64.13701439 C-51.28880882 169.40701439 -51.28880882 274.67701439 -51.28880882 383.13701439 C-51.61880882 383.13701439 -51.94880882 383.13701439 -52.28880882 383.13701439 C-52.35749636 340.3924582 -52.4103485 297.64790838 -52.44200481 254.90330793 C-52.44575687 249.85531481 -52.44963984 244.8073218 -52.45360374 239.75932884 C-52.45478414 238.2519012 -52.45478414 238.2519012 -52.45598838 236.71402047 C-52.46903732 220.44842095 -52.49268836 204.18285328 -52.52026721 187.91727265 C-52.54833564 171.22354833 -52.56498813 154.52984067 -52.57107431 137.83609372 C-52.57518776 127.53766721 -52.58817332 117.23933074 -52.61255822 106.94093195 C-52.62843314 99.87604796 -52.6332052 92.81121043 -52.62931295 85.7463099 C-52.62739415 81.67207433 -52.63030669 77.59799597 -52.64642525 73.52378845 C-52.66109509 69.78835941 -52.66171563 66.05319231 -52.65150551 62.31775085 C-52.64965098 60.33756735 -52.66252603 58.35738663 -52.67605275 56.37724847 C-52.59474872 40.10042539 -47.34841923 26.42570573 -35.99584007 14.61357689 C-25.82033647 5.30438601 -13.76259505 0.02474579 0 0 Z " fill="#AC9EFF" transform="translate(304.28880882263184,296.8629856109619)"/>
<path d="M0 0 C-1.34578125 0.51046875 -1.34578125 0.51046875 -2.71875 1.03125 C-22.85426375 8.79499744 -40.6395213 18.82259131 -57 33 C-57.84046875 33.71800781 -58.6809375 34.43601563 -59.546875 35.17578125 C-97.26655683 68.15121738 -114.24688564 115.75978402 -117.78297776 164.68244094 C-118.6878181 178.51448542 -119.14829625 192.3057652 -119.13371277 206.16581726 C-119.13558768 207.89610096 -119.13789105 209.62638424 -119.14057809 211.35666686 C-119.14661879 216.0478371 -119.14657177 220.73898932 -119.14538372 225.43016255 C-119.14517772 230.51501871 -119.15071735 235.59986937 -119.15544128 240.6847229 C-119.16370646 250.62458424 -119.16649427 260.56443964 -119.16705366 270.50430413 C-119.16753092 278.59660311 -119.16959606 286.68890014 -119.17275429 294.7811985 C-119.18155059 317.7929691 -119.18617542 340.80473507 -119.18542381 363.81650736 C-119.18538386 365.05405456 -119.1853439 366.29160176 -119.18530273 367.56665039 C-119.18526185 368.80573293 -119.18522097 370.04481548 -119.18517885 371.32144598 C-119.18477296 391.3732203 -119.19433084 411.42497579 -119.2084411 431.47674467 C-119.22286043 452.1330352 -119.2297082 472.78931658 -119.22884732 493.44561225 C-119.2285172 505.01532622 -119.23118224 516.58502045 -119.24202538 528.15472984 C-119.251204 538.01056216 -119.25324612 547.86636582 -119.24651595 557.72220059 C-119.24328705 562.73493244 -119.24305955 567.74760954 -119.2518692 572.76033592 C-119.35745351 637.0400642 -116.61162817 702.67839345 -70 752 C-68.80734478 753.39143109 -67.61959687 754.78708794 -66.4375 756.1875 C-62.92644794 760.19441818 -59.12718174 763.63762155 -55 767 C-53.57880859 768.16015625 -53.57880859 768.16015625 -52.12890625 769.34375 C-44.19369382 775.69390282 -35.86782363 781.05041115 -27 786 C-26.11465576 786.50611816 -26.11465576 786.50611816 -25.21142578 787.02246094 C15.78741186 810.2080105 64.20197818 810.48208712 109.9377315 810.37751496 C115.3378586 810.36853182 120.73796496 810.37715629 126.13809204 810.38337708 C136.67069263 810.39278517 147.20322389 810.38633669 157.73581927 810.37411413 C170.03543688 810.36038118 182.33503865 810.36214178 194.63466199 810.36424746 C216.59548537 810.36742548 238.55627613 810.35583672 260.51708984 810.33618164 C281.76644889 810.31716867 303.01576977 810.31009925 324.26513672 810.31567383 C347.48338718 810.32174703 370.70162093 810.32152747 393.91987002 810.310188 C396.40057603 810.30898087 398.88128205 810.30777488 401.36198807 810.30657005 C403.1921842 810.30566475 403.1921842 810.30566475 405.059354 810.30474115 C413.60853464 810.30088121 422.15770902 810.30124806 430.70689011 810.3031559 C441.13764143 810.30528939 451.56835955 810.29996671 461.99910156 810.28554235 C467.30862747 810.27835551 472.61810529 810.27417187 477.92763519 810.27878571 C532.95591646 810.32069133 587.68217511 806.87409382 633 772 C633.91910156 771.30519531 634.83820312 770.61039063 635.78515625 769.89453125 C652.69429909 756.62122766 666.36341125 740.65478352 677 722 C677.36480469 721.36610352 677.72960937 720.73220703 678.10546875 720.07910156 C698.22509116 684.76676087 703.16325403 644.57490793 703.14044189 604.51722717 C703.14303106 602.67932668 703.14604573 600.84142675 703.1494453 599.00352758 C703.15745432 593.9870996 703.15930144 588.97068598 703.16004276 583.95425236 C703.16190411 578.52985642 703.16945694 573.10546774 703.17617798 567.68107605 C703.18971992 555.83309506 703.19577997 543.98511746 703.20018864 532.13713002 C703.20295892 524.7251772 703.20719776 517.31322567 703.21169281 509.90127373 C703.22388167 489.34101602 703.2341807 468.78075933 703.2375679 448.22049809 C703.23789725 446.2491985 703.23789725 446.2491985 703.23823325 444.23807469 C703.23845153 442.92089063 703.23866981 441.60370657 703.2388947 440.24660784 C703.23933815 437.57789806 703.23978435 434.90918829 703.24023438 432.24047852 C703.24034377 431.57880293 703.24045316 430.91712734 703.24056586 430.23540098 C703.24430294 408.15192272 703.26155662 386.06848158 703.2855939 363.98501677 C703.30938492 341.94805069 703.32177332 319.91110168 703.32293582 297.87412256 C703.32384841 285.52189328 703.32949471 273.16970847 703.34775543 260.81749153 C703.36326164 250.2920752 703.36821564 239.76671708 703.36001733 229.24129147 C703.35614726 223.88453 703.35685871 218.52788537 703.37107468 213.17113876 C703.52568221 151.25184341 697.6689252 89.46254001 652 43 C651.12988281 42.13117188 650.25976562 41.26234375 649.36328125 40.3671875 C648.05489663 39.05664026 646.75708863 37.73419646 645.5078125 36.3671875 C630.49789246 20.17004214 608.3393329 8.87456663 588 1 C595.14439576 -1.38146525 605.47586587 5.59625339 612.0625 8.875 C614.72064461 10.22719071 617.36387502 11.60542272 620 13 C621.02996094 13.54398438 622.05992187 14.08796875 623.12109375 14.6484375 C641.94527158 25.12050386 659.01626309 39.83758915 672 57 C672.73476563 57.93070313 673.46953125 58.86140625 674.2265625 59.8203125 C707.29433522 102.43342167 714.1861223 155.21781097 714.13371277 207.67353821 C714.13558637 209.48331775 714.13788924 211.29309689 714.14057809 213.10287541 C714.14663485 218.02291647 714.14656981 222.94294038 714.14538372 227.8629843 C714.14517814 233.19047337 714.1507134 238.51795717 714.15544128 243.84544373 C714.16371513 254.26416938 714.16649466 264.68288937 714.16705366 275.10161803 C714.16753046 283.58063158 714.16959335 292.05964327 714.17275429 300.53865623 C714.18155263 324.63391878 714.18617505 348.72917689 714.18542381 372.82444105 C714.18536388 374.76916378 714.18536388 374.76916378 714.18530273 376.75317383 C714.18524141 378.70030053 714.18524141 378.70030053 714.18517885 380.68676313 C714.18477281 401.70164566 714.19433398 422.71651025 714.2084411 443.73138759 C714.222847 465.36392614 714.22970895 486.99645595 714.22884732 508.62899941 C714.22851677 520.75193967 714.23120148 532.87486111 714.24202538 544.99779701 C714.25118612 555.32334159 714.25326037 565.64885883 714.24651595 575.97440574 C714.24327838 581.22965914 714.24309236 586.48486025 714.2518692 591.74010849 C714.35936992 660.59082269 708.08882452 726.21588466 657.6875 777.75 C646.26270974 789.06221342 633.04284834 798.25646816 619 806 C618.41557129 806.33306152 617.83114258 806.66612305 617.22900391 807.00927734 C580.31512626 827.89221777 535.93972753 831.17502307 494.40202332 831.13371277 C492.58826933 831.13558591 490.77451575 831.13788859 488.9607628 831.14057809 C484.02513022 831.14664058 479.08951472 831.14656911 474.15387928 831.14538372 C468.81139503 831.14517829 463.46891607 831.15071202 458.12643433 831.15544128 C447.67649098 831.16371835 437.22655329 831.16649481 426.77660694 831.16705366 C418.27277064 831.16753032 409.76893619 831.16959249 401.26510048 831.17275429 C377.1035266 831.18155358 352.94195714 831.18617491 328.78038164 831.18542381 C327.4800847 831.18538386 326.17978777 831.1853439 324.84008789 831.18530273 C323.53818499 831.18526185 322.2362821 831.18522097 320.8949276 831.18517885 C299.81787395 831.18477281 278.74083819 831.19433387 257.66378971 831.2084411 C235.971397 831.22284446 214.27901299 831.22970908 192.58661538 831.22884732 C180.4284806 831.22851667 168.27036457 831.23120548 156.11223412 831.24202538 C145.75662653 831.25118275 135.40104619 831.25326309 125.04543629 831.24651595 C119.77411167 831.24327669 114.50283918 831.24309871 109.2315197 831.2518692 C43.97232533 831.35340415 -21.51266333 826.62282163 -71 779 C-71.50096191 778.52481934 -72.00192383 778.04963867 -72.51806641 777.56005859 C-118.01482413 734.248675 -128.24767163 675.52627804 -129.9027915 615.29258084 C-130.24211606 601.50208965 -130.14033696 587.69959852 -130.13072467 573.90604603 C-130.12842718 569.01095074 -130.13197143 564.11585876 -130.13470459 559.22076416 C-130.13911536 549.67170041 -130.13820693 540.12264459 -130.13529195 530.57358056 C-130.13301943 522.80274123 -130.13273334 515.0319041 -130.13381577 507.26106453 C-130.133969 506.14863246 -130.13412223 505.0362004 -130.13428011 503.89005827 C-130.13459988 501.62911097 -130.1349241 499.36816367 -130.1352527 497.10721637 C-130.13809371 475.98325102 -130.13484213 454.85929003 -130.12945233 433.7353254 C-130.12498494 415.66803051 -130.12576239 397.60074204 -130.13037109 379.53344727 C-130.13574024 358.47561938 -130.13781979 337.41779529 -130.13475883 316.35996681 C-130.13444033 314.10835111 -130.13412596 311.85673541 -130.13381577 309.60511971 C-130.13366149 308.49771393 -130.13350721 307.39030815 -130.13334826 306.24934463 C-130.13249016 298.5006398 -130.13393064 290.75193741 -130.13629532 283.00323296 C-130.13911959 273.54195297 -130.1383002 264.08068127 -130.13301457 254.61940222 C-130.13041276 249.80584973 -130.12931165 244.99231097 -130.13266373 240.17875862 C-130.17943213 166.71964146 -126.9341796 95.50534889 -72.625 40.3125 C-59.46876329 27.27036265 -19.66768918 -6.72016715 0 0 Z " fill="#000000" transform="translate(220,113)"/>
<path d="M0 0 C0 4.87886354 -2.88360575 8.64714769 -5.17578125 12.87109375 C-9.77124017 22.4754658 -10.44453023 32.45169219 -10.43237305 42.93847656 C-10.44141431 44.28999208 -10.45174722 45.64149947 -10.46325684 46.99299622 C-10.49057599 50.62235752 -10.50007673 54.25156222 -10.50611091 57.88101292 C-10.51556072 61.68870176 -10.54176884 65.49627657 -10.56611633 69.30389404 C-10.60960475 76.49645448 -10.63825968 83.68899257 -10.66143972 90.88164401 C-10.69367372 100.61357288 -10.74911745 110.34536865 -10.80318546 120.07719612 C-10.88762559 135.38475756 -10.94131092 150.69226798 -11 166 C-41.36 166 -71.72 166 -103 166 C-103 133.1520013 -102.67759895 118.86122746 -82.70800781 96.89355469 C-80.00084416 93.89230236 -77.3748172 90.82322523 -74.75 87.75 C-74.00568726 86.8825415 -74.00568726 86.8825415 -73.24633789 85.99755859 C-70.21556705 82.45653831 -67.24726277 78.87140571 -64.3125 75.25 C-60.75732096 70.86848205 -57.03230463 66.68289319 -53.234375 62.51171875 C-50.99865467 59.99848768 -48.86622318 57.42688521 -46.75 54.8125 C-42.58915231 49.67305572 -38.28265511 44.67673848 -33.94067383 39.69091797 C-30.40839966 35.63216699 -26.90569327 31.55112928 -23.4375 27.4375 C-18.14058879 21.15536525 -12.79661182 14.91439398 -7.44287109 8.68066406 C-4.96007325 5.78868769 -2.48011168 2.89427999 0 0 Z " fill="#B7D7FF" transform="translate(591,561)"/>
<path d="M0 0 C5.10420682 4.65522567 7.2860005 8.99248357 8.0625 15.8515625 C7.43696187 22.00268743 5.1842872 26.73524202 1.25 31.4765625 C-1.23538536 33.47699462 -3.28414881 34.58729498 -6.3125 35.5390625 C-6.3125 36.1990625 -6.3125 36.8590625 -6.3125 37.5390625 C-5.2915625 37.631875 -5.2915625 37.631875 -4.25 37.7265625 C1.15678038 39.22205495 4.62154032 42.22711212 8.125 46.5390625 C11.06751687 52.36040539 10.68959513 59.73736411 9.0625 65.91015625 C6.27308779 72.29840833 1.22330184 76.73116382 -4.90234375 79.86328125 C-15.2657547 83.91482051 -27.3973212 84.44666711 -37.875 80.5390625 C-46.48507939 76.32260387 -51.45408864 70.70202816 -54.71875 61.73828125 C-55.3125 59.5390625 -55.3125 59.5390625 -55.3125 56.5390625 C-52.22988544 56.3644228 -49.14854167 56.25812183 -46.0625 56.1640625 C-45.18980469 56.11378906 -44.31710937 56.06351563 -43.41796875 56.01171875 C-40.91932524 55.95449791 -38.7497036 55.97689298 -36.3125 56.5390625 C-33.953125 59.375 -33.953125 59.375 -32.3125 62.5390625 C-29.87894205 64.97776539 -28.70221425 65.48829513 -25.25390625 65.9375 C-24.13886719 65.92976562 -23.02382813 65.92203125 -21.875 65.9140625 C-20.20630859 65.92566406 -20.20630859 65.92566406 -18.50390625 65.9375 C-15.01192589 65.50153672 -13.13147741 64.60259453 -10.3125 62.5390625 C-7.99143009 59.33377549 -7.75844249 56.41746507 -8.3125 52.5390625 C-12.1735601 47.68515837 -15.7651928 45.83610822 -21.86328125 45.125 C-23.10464844 45.05539062 -24.34601562 44.98578125 -25.625 44.9140625 C-27.831875 44.7903125 -30.03875 44.6665625 -32.3125 44.5390625 C-32.3125 39.5890625 -32.3125 34.6390625 -32.3125 29.5390625 C-25.125 28.7265625 -25.125 28.7265625 -22.88989258 28.49291992 C-18.69340826 27.97438067 -15.70478948 27.075294 -12.3125 24.5390625 C-10.74079004 21.39564257 -11.08074217 17.98134799 -11.3125 14.5390625 C-11.98190637 11.44037123 -11.98190637 11.44037123 -14.3125 10.3515625 C-19.41742107 8.96897971 -24.19094022 8.7550078 -29.1875 10.6015625 C-32.06165575 12.95372753 -32.06165575 12.95372753 -34.3125 19.5390625 C-40.2525 19.5390625 -46.1925 19.5390625 -52.3125 19.5390625 C-51.22142694 10.81047803 -49.52939666 5.36172508 -42.97265625 -0.58203125 C-29.99119465 -10.2031145 -12.72856678 -10.4189478 0 0 Z " fill="#754BFF" transform="translate(688.3125,602.4609375)"/>
<path d="M0 0 C0 28.71 0 57.42 0 87 C-5.94 87 -11.88 87 -18 87 C-18 65.22 -18 43.44 -18 21 C-22.95 24.3 -27.9 27.6 -33 31 C-33.66 31 -34.32 31 -35 31 C-36.67414177 16.11873985 -36.67414177 16.11873985 -32.8671875 11.30078125 C-30.0077372 9.2736779 -27.09551695 7.63880309 -24 6 C-22.57804466 4.83978512 -21.16096494 3.67355592 -19.75 2.5 C-15 0 -15 0 0 0 Z " fill="#754BFF" transform="translate(745,597)"/>
</svg>
