<svg version="1.0" xmlns="http://www.w3.org/2000/svg" width="400" height="400" viewBox="0 0 300 300"><path d="M20.3 1.8C10.3 5.3 3.2 13.3 1 23.4.2 27 0 65 .2 153l.3 124.5 2.8 5.7c3.2 6.4 8 11.1 14.6 14.2l4.6 2.1h255l5.7-2.8c6.4-3.2 11.1-8 14.2-14.6l2.1-4.6v-255l-2.1-4.6c-3.1-6.6-7.8-11.4-14.2-14.6L277.5.5l-126-.2C32.6.1 25.2.2 20.3 1.8zm110.8 100.8c10.1 5.1 19.5 20.3 28.4 46.4 7.8 22.5 15.6 35 22 35 6.1 0 16.3-14.1 23.9-32.9 1.4-3.5 3.4-7 4.3-7.7 2.8-2.1 7.9-1.7 10.8.9 3.8 3.2 3.5 7.4-1.3 18.5-11.2 25.9-23.3 38.2-37.7 38.2-15.9 0-27.4-14.1-39.1-48-7.8-22.8-16.3-36.3-22.7-36.3-3.4 0-7.9 3.4-12.3 9.1-3.6 4.7-14.4 25.6-14.4 27.9 0 1.9-5.1 5.3-8 5.3-3.4 0-7.6-3.2-8.4-6.4-.7-2.8 2.3-11.4 7.4-21.6 8.6-17 19.7-28.3 30.5-31.1 4.4-1.1 11.3 0 16.6 2.7z"/></svg>