<?xml version="1.0" encoding="utf-8"?><svg version="1.1" id="Layer_1" xmlns="http://www.w3.org/2000/svg" xmlns:xlink="http://www.w3.org/1999/xlink" x="0px" y="0px" viewBox="0 0 122.88 73.7" style="enable-background:new 0 0 122.88 73.7" xml:space="preserve"><style type="text/css">.st0{fill-rule:evenodd;clip-rule:evenodd;}</style><g><path class="st0" d="M8.34,0h106.2c4.59,0,8.34,3.77,8.34,8.34v57.02c0,4.56-3.77,8.34-8.34,8.34H8.34C3.77,73.7,0,69.95,0,65.36 V8.34C0,3.75,3.75,0,8.34,0L8.34,0z M18.5,21.47h5.98c3.86,0,6.48,0.18,7.84,0.53c1.36,0.35,2.4,0.93,3.11,1.74 c0.71,0.81,1.16,1.72,1.33,2.71c0.18,0.99,0.26,2.95,0.26,5.86v10.78c0,2.76-0.13,4.6-0.4,5.53c-0.26,0.93-0.71,1.66-1.36,2.18 c-0.64,0.53-1.44,0.89-2.39,1.11c-0.95,0.21-2.38,0.31-4.3,0.31H18.5V21.47L18.5,21.47z M26.49,26.73v20.23 c1.16,0,1.87-0.23,2.13-0.69c0.27-0.46,0.4-1.71,0.4-3.78V30.55c0-1.39-0.04-2.29-0.12-2.68c-0.1-0.39-0.29-0.67-0.61-0.86 C27.96,26.82,27.37,26.73,26.49,26.73L26.49,26.73z M40.68,21.47h13.34v6.16h-5.34v5.83h5v5.86h-5v6.77h5.87v6.15H40.68V21.47 L40.68,21.47z M82.22,21.47v30.76h-6.99V31.47l-2.79,20.76h-4.96l-2.95-20.29v20.29h-6.99V21.47h10.36 c0.31,1.85,0.62,4.03,0.97,6.54l1.1,7.83l1.83-14.37H82.22L82.22,21.47z M104.38,39.48c0,3.09-0.07,5.28-0.21,6.56 c-0.15,1.29-0.6,2.46-1.36,3.53c-0.77,1.06-1.8,1.88-3.11,2.45c-1.31,0.57-2.83,0.86-4.56,0.86c-1.65,0-3.13-0.27-4.44-0.81 c-1.32-0.54-2.37-1.34-3.17-2.42c-0.8-1.08-1.28-2.25-1.43-3.51c-0.15-1.27-0.23-3.48-0.23-6.66v-5.26c0-3.09,0.07-5.28,0.23-6.58 c0.14-1.28,0.59-2.46,1.36-3.52c0.77-1.06,1.8-1.88,3.11-2.45c1.3-0.57,2.82-0.86,4.56-0.86c1.65,0,3.12,0.27,4.43,0.81 c1.31,0.54,2.37,1.35,3.17,2.42c0.79,1.08,1.27,2.25,1.42,3.52c0.15,1.26,0.23,3.48,0.23,6.66V39.48L104.38,39.48z M96.39,29.38 c0-1.44-0.08-2.35-0.24-2.75c-0.15-0.4-0.48-0.6-0.98-0.6c-0.42,0-0.74,0.16-0.96,0.49c-0.23,0.32-0.34,1.27-0.34,2.86v14.35 c0,1.8,0.07,2.9,0.22,3.31c0.15,0.42,0.49,0.62,1.02,0.62c0.55,0,0.89-0.23,1.05-0.72c0.15-0.48,0.23-1.63,0.23-3.45V29.38 L96.39,29.38z"/></g></svg>