<?xml version="1.0" standalone="no"?>
<svg version="1.0" xmlns="http://www.w3.org/2000/svg"
 width="300.000000pt" height="300.000000pt" viewBox="0 0 300.000000 300.000000"
 preserveAspectRatio="xMidYMid meet">
<g transform="translate(0.000000,300.000000) scale(0.100000,-0.100000)"
fill="#000000" stroke="none">
<path d="M203 2982 c-100 -35 -171 -115 -193 -216 -8 -36 -10 -416 -8 -1296
l3 -1245 28 -57 c32 -64 80 -111 146 -142 l46 -21 1275 0 1275 0 57 28 c64 32
111 80 142 146 l21 46 0 1275 0 1275 -21 46 c-31 66 -78 114 -142 146 l-57 28
-1260 2 c-1189 2 -1263 1 -1312 -15z m1108 -1008 c101 -51 195 -203 284 -464
78 -225 156 -350 220 -350 61 0 163 141 239 329 14 35 34 70 43 77 28 21 79
17 108 -9 38 -32 35 -74 -13 -185 -112 -259 -233 -382 -377 -382 -159 0 -274
141 -391 480 -78 228 -163 363 -227 363 -34 0 -79 -34 -123 -91 -36 -47 -144
-256 -144 -279 0 -19 -51 -53 -80 -53 -34 0 -76 32 -84 64 -7 28 23 114 74
216 86 170 197 283 305 311 44 11 113 0 166 -27z"/>
</g>
</svg>
