<svg xmlns="http://www.w3.org/2000/svg" viewBox="0 0 460.96 129.32"><defs><style>.cls-1{fill:#1a202c;}</style></defs><g id="Layer_2" data-name="Layer 2"><g id="Layer_1-2" data-name="Layer 1"><path class="cls-1" d="M397.74.63C384.11.27,370.47.47,356.84.48c-5.64,0-7.19,1.62-7.19,7.19q0,28.29,0,56.56V92q0,5.11,0,10.23l26.3,25.47h0l21.76-.06a63.94,63.94,0,0,0,58-38.55C473.51,47,444,1.86,397.74.63Zm36.42,70.55c-3.75,18.19-18.54,30.8-36.49,31-7.05.09-14.1,0-21.7,0V26.15c12.45.59,24.72-2.08,36.49,3.21A37.57,37.57,0,0,1,434.16,71.18Z"/><path class="cls-1" d="M66.77.14c19,.38,36,8.74,49.06,25.06a25.48,25.48,0,0,1,2.85,4.1c2.1,4.06,5.43,8,2.9,13-2.66,5.2-7.84,3.88-12.38,4.36C103,47.31,98.82,45,94.8,40.08A38.4,38.4,0,0,0,52,27.91c-15.2,5.22-25.32,19-26.14,35.56-.77,15.75,8.32,30.25,23.22,37C64.89,107.64,84.4,102.84,95.54,89A19.32,19.32,0,0,1,117,83.37c4.61,1.82,6.41,5.72,4.42,10.5-7.1,17.06-20.46,27.29-37.57,32.55A64.06,64.06,0,0,1,10,98.79C-5.89,72.7-2.66,41,18.5,19.19,31.07,6.24,46.78.28,66.77.14Z"/><path class="cls-1" d="M207.05,40.87c1.71-7.87,2.79-8.76,10.46-8.8,3.67,0,7.33,0,11,.12,3.43.1,5.14,1.88,5.14,5.36q0,42,0,83.93c0,4-2.17,5.84-5.8,6-4.82.22-9.66.19-14.48.11s-5.79-3.62-6.63-7.75c-12.11,8.44-25.32,11.06-39.5,7.81-10.11-2.31-18.24-8-24.49-16.18C128,92.14,129.05,64,144.61,46.4,156.68,32.76,184.34,23.82,207.05,40.87ZM183.36,55.33c-14.6-.07-25.76,10.8-26,25.27-.18,13.47,11.31,24.61,25.48,24.71A24.61,24.61,0,0,0,208.2,80.6,24.91,24.91,0,0,0,183.36,55.33Z"/><path class="cls-1" d="M273.16,63.72q0,27.73,0,55.47c0,6.56-1.76,8.31-8.25,8.37-3.16,0-6.33,0-9.49-.08-5.71-.14-7.29-1.73-7.31-7.6q-.15-42.22-.2-84.46c0-9.16-.05-18.33,0-27.49,0-6.26,1.5-7.74,7.6-7.87,3.33-.08,6.66-.07,10,0,6.12.09,7.69,1.65,7.7,7.71q0,28,0,56Z"/><path class="cls-1" d="M307.13,63.93q0-28,0-56.09c0-6,1.71-7.67,7.83-7.77C318.5,0,322,0,325.57,0c5.26.06,7.29,2,7.38,7.34.1,6.57,0,13.14,0,19.71q-.08,46.23-.16,92.47c0,6.5-1.83,8.34-8.42,8.47-3.36.06-6.74.1-10.1,0-5.54-.23-7.15-1.86-7.16-7.44-.05-18.87,0-37.73,0-56.6Z"/><path class="cls-1" d="M349.64,64.23q0-28.28,0-56.56c0-5.57,1.55-7.18,7.19-7.19,13.63,0,27.28-.21,40.9.15C444,1.86,473.51,47,455.72,89.1a63.93,63.93,0,0,1-58,38.55c-13.47,0-26.94.09-40.4.11-6.76,0-7.68-.89-7.69-7.47,0-9.43,0-18.86,0-28.28Zm26.33,38c7.61,0,14.65.07,21.7,0,17.95-.22,32.75-12.83,36.49-31a37.58,37.58,0,0,0-21.69-41.82c-11.78-5.29-24.05-2.62-36.5-3.21Z"/><path class="cls-1" d="M307.13,63.93q0-28,0-56.09c0-6,1.71-7.67,7.83-7.77C318.5,0,322,0,325.57,0c5.27.06,7.3,2,7.38,7.34.1,6.57,0,13.14,0,19.71q-.09,46.23-.17,92.47c0,6.5-1.83,8.34-8.42,8.47-3.36.06-6.74.1-10.1,0-5.54-.23-7.15-1.86-7.16-7.44-.05-18.87,0-37.73,0-56.6Z"/></g></g></svg>