<svg xmlns="http://www.w3.org/2000/svg" viewBox="0 0 88.74 49.93"><defs><style>.cls-1{fill:#1d2d35;}.cls-2{fill:none;stroke:#1d2d35;stroke-linecap:round;stroke-linejoin:round;stroke-width:3.41px;}</style></defs><title>basecamp-logo-stacked</title><g id="Layer_2" data-name="Layer 2"><g id="Layer_1-2" data-name="Layer 1"><path class="cls-1" d="M1.44,33.19H6.71c2.93,0,4.45,1.2,4.45,3.48v.08A2.76,2.76,0,0,1,9,39.62a2.94,2.94,0,0,1,2.68,3.15v.07c0,2.46-1.61,3.75-4.7,3.75H1.44ZM6.23,38.7c1.46,0,2-.53,2-1.73V36.9c0-1.13-.64-1.63-2.06-1.63H4.41V38.7Zm.26,5.79c1.5,0,2.17-.67,2.17-1.89v-.07c0-1.24-.67-1.88-2.32-1.88H4.41v3.84Z" transform="translate(-1.44)"/><path class="cls-1" d="M12.45,43.88c0-2.29,2.1-3.16,5.1-3.16h1.11v-.39c0-1.16-.36-1.8-1.6-1.8a1.48,1.48,0,0,0-1.67,1.39H12.82c.17-2.33,2-3.36,4.41-3.36s4.11,1,4.11,3.64v6.39H18.69V45.41a3.32,3.32,0,0,1-3,1.39C14,46.8,12.45,45.94,12.45,43.88Zm6.21-.72v-.82H17.61c-1.58,0-2.5.34-2.5,1.39,0,.71.43,1.18,1.43,1.18C17.74,44.91,18.66,44.25,18.66,43.16Z" transform="translate(-1.44)"/><path class="cls-1" d="M22.48,43.52H25c.11.88.55,1.39,1.73,1.39s1.53-.4,1.53-1.07-.58-1-2-1.16c-2.61-.4-3.62-1.15-3.62-3.06s1.87-3.06,3.88-3.06c2.18,0,3.81.79,4.05,3H28.11c-.15-.81-.6-1.18-1.54-1.18s-1.39.41-1.39,1,.47.86,1.89,1.07c2.46.36,3.81,1,3.81,3.07s-1.54,3.23-4.12,3.23S22.57,45.64,22.48,43.52Z" transform="translate(-1.44)"/><path class="cls-1" d="M31.57,41.81v-.15a4.88,4.88,0,0,1,5-5.1c2.53,0,4.78,1.48,4.78,5v.75H34.33c.08,1.63,1,2.57,2.44,2.57,1.25,0,1.87-.55,2-1.37h2.57c-.32,2.12-2,3.3-4.69,3.3A4.76,4.76,0,0,1,31.57,41.81Zm7.19-1.18c-.1-1.48-.85-2.19-2.14-2.19a2.24,2.24,0,0,0-2.25,2.19Z" transform="translate(-1.44)"/><path class="cls-1" d="M42.11,41.81v-.15a4.87,4.87,0,0,1,5.06-5.1c2.27,0,4.37,1,4.62,3.81H49.22a1.8,1.8,0,0,0-2-1.67c-1.41,0-2.34,1-2.34,2.92v.16c0,2,.88,3,2.4,3a2,2,0,0,0,2.1-1.9h2.45c-.15,2.33-1.83,3.94-4.68,3.94A4.71,4.71,0,0,1,42.11,41.81Z" transform="translate(-1.44)"/><path class="cls-1" d="M52.48,43.88c0-2.29,2.1-3.16,5.1-3.16h1.11v-.39c0-1.16-.36-1.8-1.6-1.8a1.48,1.48,0,0,0-1.67,1.39H52.85c.17-2.33,2-3.36,4.41-3.36s4.11,1,4.11,3.64v6.39H58.72V45.41a3.32,3.32,0,0,1-3,1.39C54,46.8,52.48,45.94,52.48,43.88Zm6.21-.72v-.82h-1c-1.58,0-2.5.34-2.5,1.39,0,.71.43,1.18,1.43,1.18C57.77,44.91,58.69,44.25,58.69,43.16Z" transform="translate(-1.44)"/><path class="cls-1" d="M63.22,36.79h2.72v1.5a3.34,3.34,0,0,1,3-1.73,2.71,2.71,0,0,1,2.74,1.71A3.9,3.9,0,0,1,75,36.56c1.82,0,3.23,1.15,3.23,3.75v6.28h-2.7v-6c0-1.25-.57-1.82-1.54-1.82a1.83,1.83,0,0,0-1.9,2v5.79h-2.7v-6c0-1.25-.58-1.82-1.53-1.82a1.83,1.83,0,0,0-1.9,2v5.79H63.22Z" transform="translate(-1.44)"/><path class="cls-1" d="M80.06,36.79h2.72v1.53a3.65,3.65,0,0,1,3.13-1.76c2.4,0,4.28,1.78,4.28,5v.15c0,3.24-1.84,5.06-4.28,5.06a3.42,3.42,0,0,1-3.13-1.71v4.84H80.06Zm7.37,5v-.15c0-2-1-3-2.34-3s-2.4,1-2.4,3v.15c0,2,.93,2.92,2.41,2.92S87.43,43.67,87.43,41.76Z" transform="translate(-1.44)"/><path class="cls-2" d="M26.2,17.73c2.61-7.4,7.62-16,17.7-16S59,15,59.61,24c-2.65,4.6-9,6.33-15.71,6.33A18.87,18.87,0,0,1,29.45,24s3.17-8.53,6.11-8.55c2.17,0,4,4,5.73,4s5.33-7.68,5.33-7.68" transform="translate(-1.44)"/></g></g></svg>