<svg width="260" height="260" viewBox="0 0 260 260" fill="none" xmlns="http://www.w3.org/2000/svg">
<path d="M27.5294 208.455V151.12C27.5294 125.78 48.0717 105.238 73.4118 105.238V80.4762C32.8676 80.4762 0 113.344 0 153.888V206.471C0 236.034 23.9659 260 53.5294 260C83.0929 260 107.059 236.034 107.059 206.471V29.4048H165.928C179.61 29.4048 193.6 31.2132 204.653 39.2773C217.494 48.6451 232.471 65.4468 232.471 92.8571C232.471 116.53 221.299 132.291 209.981 142.183C196.281 154.157 177.308 156.31 159.112 156.31H150.802C143.537 156.31 137.647 162.199 137.647 169.464C137.647 176.729 143.537 182.619 150.802 182.619H169.99C182.048 182.619 194.229 181.718 205.249 176.825C226.51 167.383 260 144.127 260 91.3095C260 33.5691 219.977 11.1584 199.659 3.50174C192.138 0.667148 184.071 0 176.033 0H100.119C87.9029 0 78 9.90295 78 22.1189V208.455C78 222.392 66.7018 233.69 52.7647 233.69C38.8276 233.69 27.5294 222.392 27.5294 208.455Z" fill="#8548FF"/>
<path d="M111.647 105.238V80.4762H148.207C155.045 80.4762 160.588 86.0193 160.588 92.8571C160.588 99.695 155.045 105.238 148.207 105.238H111.647Z" fill="#8548FF"/>
</svg>
