<?xml version="1.0" encoding="UTF-8"?><svg id="a" xmlns="http://www.w3.org/2000/svg" viewBox="0 0 135 134"><defs><style>.b{fill:#e24a8d;}</style></defs><path class="b" d="M109.3,1.03H26.7C12.11,1.03,.24,12.9,.24,27.5V92.5c0,14.59,11.87,26.47,26.47,26.47h10.85c3.91,8.92,12.86,15.2,23.13,15.2s19.27-6.28,23.2-15.2h25.42c14.59,0,26.47-11.87,26.47-26.47V27.5c0-14.59-11.87-26.47-26.47-26.47Zm16.7,91.48c0,9.23-7.48,16.7-16.7,16.7h-33.07c-.15,8.41-7.06,15.2-15.54,15.2s-15.32-6.8-15.47-15.2H26.7c-9.23,0-16.7-7.48-16.7-16.7V27.5c0-9.23,7.48-16.7,16.7-16.7H109.3c9.23,0,16.7,7.48,16.7,16.7V92.5Zm-65.32,25.23c4.89,0,8.87-3.95,8.87-8.8V58.93l19.95,28.82c.04,.06,.08,.11,.12,.16,2.01,2.68,5.05,4.21,8.34,4.21h.92c5.74,0,10.41-4.64,10.41-10.33v-28.5c0-4.89-3.98-8.88-8.87-8.88s-8.8,3.98-8.8,8.88v7.02l-19.8-28.59c-.06-.08-.11-.16-.18-.24-2.19-2.82-5.19-4.37-8.44-4.37h-1c-5.7,0-10.33,4.67-10.33,10.41V108.93c0,4.85,3.95,8.8,8.8,8.8m-25.18-25.61c4.89,0,8.87-3.95,8.87-8.8v-29.65c0-4.89-3.98-8.88-8.87-8.88s-8.8,3.98-8.8,8.88v29.65c0,4.85,3.95,8.8,8.8,8.8"/></svg>