<svg width="20" height="20" viewBox="0 0 20 20" fill="none" xmlns="http://www.w3.org/2000/svg">
<path d="M17.369 14.288C17.1012 14.9106 16.7709 15.5043 16.383 16.06C15.865 16.7987 15.4417 17.31 15.113 17.594C14.6063 18.0593 14.0627 18.299 13.482 18.313C13.064 18.313 12.5613 18.193 11.974 17.953C11.3867 17.713 10.8457 17.5933 10.351 17.594C9.833 17.594 9.277 17.7137 8.683 17.953C8.08767 18.193 7.607 18.3193 7.241 18.332C6.683 18.356 6.12667 18.11 5.572 17.594C5.218 17.2853 4.77533 16.7557 4.244 16.005C3.674 15.205 3.206 14.275 2.84 13.215C2.44667 12.0723 2.25 10.9643 2.25 9.891C2.25 8.66233 2.51567 7.60367 3.047 6.715C3.44974 6.01794 4.02478 5.43601 4.717 5.025C5.39991 4.61726 6.17868 4.39781 6.974 4.389C7.41667 4.38967 7.99867 4.525 8.72 4.795C9.44067 5.06633 9.90233 5.20233 10.105 5.203C10.2577 5.203 10.7697 5.043 11.641 4.723C12.4637 4.427 13.1593 4.30367 13.728 4.353C15.272 4.47633 16.4293 5.08533 17.2 6.18C15.82 7.01667 15.1373 8.18633 15.152 9.689C15.1653 10.8597 15.5887 11.8317 16.422 12.605C16.8 12.963 17.2233 13.2407 17.692 13.438C17.5907 13.7327 17.483 14.016 17.369 14.288ZM13.83 0.367C13.83 1.28433 13.496 2.13933 12.828 2.932C12.022 3.874 11.048 4.419 9.991 4.332C9.97696 4.21686 9.96962 4.10099 9.969 3.985C9.969 3.105 10.352 2.163 11.033 1.393C11.373 1.003 11.805 0.678667 12.329 0.42C12.8517 0.164667 13.3457 0.0246667 13.811 0C13.8243 0.122667 13.831 0.245 13.831 0.367" fill="black"/>
</svg>
