<svg width="19" height="20" viewBox="0 0 19 20" fill="none" xmlns="http://www.w3.org/2000/svg">
<g clip-path="url(#clip0_4304_52)">
<path d="M9.4983 0.00172279C9.4983 0.00172279 15.0985 -0.253449 18.0673 5.44724H9.02194C9.02194 5.44724 7.31533 5.39207 5.85708 7.48862C5.43841 8.36862 4.98851 9.27552 5.49337 11.0624C4.76526 9.81414 1.62891 4.2831 1.62891 4.2831C1.62891 4.2831 3.84105 0.22724 9.4983 0.00172279Z" fill="#EF3F36"/>
<path d="M17.7768 14.4715C17.7768 14.4715 15.1928 19.5115 8.83594 19.2618C9.62172 17.8859 13.36 11.3294 13.36 11.3294C13.36 11.3294 14.2632 9.86042 13.1971 7.53283C12.6556 6.72456 12.1033 5.87835 10.3234 5.42801C11.7552 5.41421 18.0516 5.42801 18.0516 5.42801C18.0516 5.42801 20.4103 9.39697 17.7761 14.4715" fill="#FCD900"/>
<path d="M1.26092 14.5132C1.26092 14.5132 -1.75805 9.72838 1.63481 4.27734C2.41788 5.65321 6.15613 12.2098 6.15613 12.2098C6.15613 12.2098 6.96228 13.7367 9.48317 13.9642C10.444 13.8932 11.4442 13.8318 12.722 12.4987C12.0176 13.7608 8.85753 19.2753 8.85753 19.2753C8.85753 19.2753 4.28124 19.3601 1.26024 14.5132" fill="#61BC5B"/>
<path d="M8.83594 19.3092L10.1089 13.9326C10.1089 13.9326 11.5068 13.8216 12.6794 12.5195C11.9513 13.8161 8.83594 19.3092 8.83594 19.3092Z" fill="#5AB055"/>
<path d="M5.23828 9.7182C5.23828 7.34785 7.13625 5.42578 9.47664 5.42578C11.817 5.42578 13.715 7.34785 13.715 9.7182C13.715 12.0885 11.817 14.0106 9.47664 14.0106C7.13557 14.0079 5.23828 12.0885 5.23828 9.7182Z" fill="white"/>
<path d="M5.94922 9.71901C5.94922 7.74591 7.52758 6.14453 9.47779 6.14453C11.4253 6.14453 13.0064 7.74315 13.0064 9.71832C13.0064 11.6907 11.4287 13.2921 9.47779 13.2921C7.53029 13.2921 5.94922 11.6907 5.94922 9.71832" fill="url(#paint0_linear_4304_52)"/>
<path d="M18.0518 5.43337L12.8132 6.98923C12.8132 6.98923 12.0234 5.81474 10.3242 5.43337C11.7981 5.42509 18.0518 5.43337 18.0518 5.43337Z" fill="#EACA05"/>
<path d="M5.39091 10.8686C4.65533 9.57757 1.62891 4.28516 1.62891 4.28516L5.50898 8.17205C5.50898 8.17205 5.11066 9.00171 5.25994 10.1893L5.39091 10.8686Z" fill="#DF3A32"/>
</g>
<defs>
<linearGradient id="paint0_linear_4304_52" x1="9.47779" y1="6.19488" x2="9.47779" y2="13.0769" gradientUnits="userSpaceOnUse">
<stop stop-color="#86BBE5"/>
<stop offset="1" stop-color="#1072BA"/>
</linearGradient>
<clipPath id="clip0_4304_52">
<rect width="19" height="20" fill="white"/>
</clipPath>
</defs>
</svg>
