<svg width="20" height="20" viewBox="0 0 20 20" fill="none" xmlns="http://www.w3.org/2000/svg">
<g clip-path="url(#clip0_4304_62)">
<path d="M18.0497 14.8866C17.783 15.0261 17.5086 15.1489 17.2266 15.2547C16.3297 15.5907 15.3793 15.7615 14.4216 15.7591C10.7253 15.7591 7.50531 13.2166 7.50531 9.95344C7.50976 9.51581 7.63105 9.08732 7.85664 8.71229C8.08222 8.33726 8.40392 8.02931 8.78844 7.82031C5.44469 7.96094 4.58594 11.4447 4.58594 13.4859C4.58594 19.2572 9.90469 19.8422 11.0509 19.8422C11.6697 19.8422 12.6009 19.6628 13.1603 19.4859L13.2622 19.4522C15.4148 18.7082 17.2499 17.2533 18.4653 15.3272C18.5025 15.2685 18.5192 15.1991 18.5126 15.13C18.5059 15.0608 18.4765 14.9958 18.4288 14.9453C18.3811 14.8948 18.318 14.8615 18.2493 14.8509C18.1807 14.8403 18.1104 14.8528 18.0497 14.8866Z" fill="url(#paint0_linear_4304_62)"/>
<path opacity="0.35" d="M18.0497 14.8866C17.783 15.0261 17.5086 15.1489 17.2266 15.2547C16.3297 15.5907 15.3793 15.7615 14.4216 15.7591C10.7253 15.7591 7.50531 13.2166 7.50531 9.95344C7.50976 9.51581 7.63105 9.08732 7.85664 8.71229C8.08222 8.33726 8.40392 8.02931 8.78844 7.82031C5.44469 7.96094 4.58594 11.4447 4.58594 13.4859C4.58594 19.2572 9.90469 19.8422 11.0509 19.8422C11.6697 19.8422 12.6009 19.6628 13.1603 19.4859L13.2622 19.4522C15.4148 18.7082 17.2499 17.2533 18.4653 15.3272C18.5025 15.2685 18.5192 15.1991 18.5126 15.13C18.5059 15.0608 18.4765 14.9958 18.4288 14.9453C18.3811 14.8948 18.318 14.8615 18.2493 14.8509C18.1807 14.8403 18.1104 14.8528 18.0497 14.8866Z" fill="url(#paint1_radial_4304_62)"/>
<path d="M8.25943 18.8611C7.56269 18.4285 6.9589 17.8617 6.48318 17.1936C4.42943 14.3811 5.04568 10.4361 7.85881 8.38297C8.15297 8.16839 8.46339 7.98047 8.79006 7.81922C9.03381 7.70422 9.45006 7.49672 10.0038 7.50672C10.7944 7.51297 11.5376 7.88797 12.0107 8.52234C12.3263 8.94422 12.5001 9.45359 12.5076 9.98047C12.5076 9.96359 14.4182 3.76172 6.25756 3.76172C2.8288 3.76172 0.00817977 7.01609 0.00817977 9.87172C-0.00464545 11.3822 0.318572 12.8766 0.95443 14.2467C3.10693 18.8398 8.3588 21.093 13.1707 19.4892C12.3566 19.746 11.4966 19.8231 10.6499 19.7152C9.80314 19.6073 8.98991 19.317 8.2663 18.8642L8.25943 18.8611Z" fill="url(#paint2_linear_4304_62)"/>
<path opacity="0.41" d="M8.25943 18.8611C7.56269 18.4285 6.9589 17.8617 6.48318 17.1936C4.42943 14.3811 5.04568 10.4361 7.85881 8.38297C8.15297 8.16839 8.46339 7.98047 8.79006 7.81922C9.03381 7.70422 9.45006 7.49672 10.0038 7.50672C10.7944 7.51297 11.5376 7.88797 12.0107 8.52234C12.3263 8.94422 12.5001 9.45359 12.5076 9.98047C12.5076 9.96359 14.4182 3.76172 6.25756 3.76172C2.8288 3.76172 0.00817977 7.01609 0.00817977 9.87172C-0.00464545 11.3822 0.318572 12.8766 0.95443 14.2467C3.10693 18.8398 8.3588 21.093 13.1707 19.4892C12.3566 19.746 11.4966 19.8231 10.6499 19.7152C9.80314 19.6073 8.98991 19.317 8.2663 18.8642L8.25943 18.8611Z" fill="url(#paint3_radial_4304_62)"/>
<path d="M11.9 11.6288C11.8363 11.7113 11.6419 11.8244 11.6419 12.0713C11.6419 12.275 11.775 12.4713 12.0106 12.6356C13.1344 13.4169 15.2525 13.3138 15.2575 13.3138C16.09 13.3116 16.9067 13.0863 17.6225 12.6613C18.3445 12.2398 18.9437 11.6368 19.3606 10.9122C19.7775 10.1876 19.9978 9.36661 19.9994 8.53063C20.02 6.78 19.3744 5.61563 19.1138 5.10063C17.4581 1.86188 13.885 0 10 0C4.53062 0 0.076875 4.39125 0 9.85875C0.0375 7.00438 2.875 4.69875 6.25 4.69875C6.52313 4.69875 8.0825 4.72562 9.53125 5.48562C10.8075 6.15625 11.4763 6.965 11.9413 7.76688C12.4238 8.60063 12.51 9.65438 12.51 10.0731C12.51 10.4925 12.2956 11.1144 11.9 11.6288Z" fill="url(#paint4_radial_4304_62)"/>
<path d="M11.9 11.6288C11.8363 11.7113 11.6419 11.8244 11.6419 12.0713C11.6419 12.275 11.775 12.4713 12.0106 12.6356C13.1344 13.4169 15.2525 13.3138 15.2575 13.3138C16.09 13.3116 16.9067 13.0863 17.6225 12.6613C18.3445 12.2398 18.9437 11.6368 19.3606 10.9122C19.7775 10.1876 19.9978 9.36661 19.9994 8.53063C20.02 6.78 19.3744 5.61563 19.1138 5.10063C17.4581 1.86188 13.885 0 10 0C4.53062 0 0.076875 4.39125 0 9.85875C0.0375 7.00438 2.875 4.69875 6.25 4.69875C6.52313 4.69875 8.0825 4.72562 9.53125 5.48562C10.8075 6.15625 11.4763 6.965 11.9413 7.76688C12.4238 8.60063 12.51 9.65438 12.51 10.0731C12.51 10.4925 12.2956 11.1144 11.9 11.6288Z" fill="url(#paint5_radial_4304_62)"/>
</g>
<defs>
<linearGradient id="paint0_linear_4304_62" x1="4.58594" y1="13.8309" x2="18.5141" y2="13.8309" gradientUnits="userSpaceOnUse">
<stop stop-color="#0C59A4"/>
<stop offset="1" stop-color="#114A8B"/>
</linearGradient>
<radialGradient id="paint1_radial_4304_62" cx="0" cy="0" r="1" gradientUnits="userSpaceOnUse" gradientTransform="translate(12.2809 13.9422) scale(7.45094 7.07838)">
<stop offset="0.72" stop-opacity="0"/>
<stop offset="0.95" stop-opacity="0.53"/>
<stop offset="1"/>
</radialGradient>
<linearGradient id="paint2_linear_4304_62" x1="11.9369" y1="7.79297" x2="3.23443" y2="17.2717" gradientUnits="userSpaceOnUse">
<stop stop-color="#1B9DE2"/>
<stop offset="0.16" stop-color="#1595DF"/>
<stop offset="0.67" stop-color="#0680D7"/>
<stop offset="1" stop-color="#0078D4"/>
</linearGradient>
<radialGradient id="paint3_radial_4304_62" cx="0" cy="0" r="1" gradientUnits="userSpaceOnUse" gradientTransform="translate(5.53568 15.5523) rotate(-81.38) scale(11.19 9.06393)">
<stop offset="0.76" stop-opacity="0"/>
<stop offset="0.95" stop-opacity="0.5"/>
<stop offset="1"/>
</radialGradient>
<radialGradient id="paint4_radial_4304_62" cx="0" cy="0" r="1" gradientUnits="userSpaceOnUse" gradientTransform="translate(2.01625 3.70937) rotate(92.29) scale(15.8138 33.6833)">
<stop stop-color="#35C1F1"/>
<stop offset="0.11" stop-color="#34C1ED"/>
<stop offset="0.23" stop-color="#2FC2DF"/>
<stop offset="0.31" stop-color="#2BC3D2"/>
<stop offset="0.67" stop-color="#36C752"/>
</radialGradient>
<radialGradient id="paint5_radial_4304_62" cx="0" cy="0" r="1" gradientUnits="userSpaceOnUse" gradientTransform="translate(18.7251 6.08575) rotate(73.74) scale(7.60419 6.1594)">
<stop stop-color="#66EB6E"/>
<stop offset="1" stop-color="#66EB6E" stop-opacity="0"/>
</radialGradient>
<clipPath id="clip0_4304_62">
<rect width="20" height="20" fill="white"/>
</clipPath>
</defs>
</svg>
