<svg width="20" height="20" viewBox="0 0 20 20" fill="none" xmlns="http://www.w3.org/2000/svg">
<path d="M18.1181 6.70366C17.7381 5.78491 16.9663 4.79365 16.3606 4.48053C16.8538 5.44928 17.1388 6.42116 17.2481 7.14553C17.2481 7.14553 17.2488 7.15053 17.25 7.16053C16.2594 4.68553 14.5794 3.68741 13.2075 1.51428C13.1375 1.40491 13.0681 1.29553 13.0006 1.17803C12.966 1.11834 12.9339 1.05725 12.9044 0.994905C12.8448 0.880331 12.799 0.759059 12.7681 0.633655C12.7644 0.629397 12.7593 0.626532 12.7538 0.62553C12.7484 0.624823 12.7429 0.624823 12.7375 0.62553L12.7331 0.62803C12.731 0.628864 12.729 0.629905 12.7269 0.631155L12.7306 0.62678C10.5294 1.91866 9.78313 4.30803 9.71438 5.50428C8.83453 5.56439 7.99338 5.88899 7.30125 6.43553C7.22895 6.37398 7.1532 6.31659 7.07438 6.26365C6.87399 5.56336 6.86557 4.82207 7.05 4.11741C6.15 4.52866 5.45 5.17741 4.94125 5.75116H4.93688C4.58938 5.30991 4.61375 3.85553 4.63375 3.55178C4.62938 3.53303 4.375 3.6849 4.34188 3.70803C4.03479 3.9272 3.74938 4.1722 3.48563 4.44303C3.18564 4.74687 2.91214 5.07577 2.66813 5.42615C2.10495 6.22701 1.70544 7.13117 1.4925 8.08678L1.48063 8.1449C1.46438 8.22178 1.405 8.60865 1.39438 8.69303V8.71178C1.31688 9.1122 1.26875 9.51636 1.25 9.92428V9.96865C1.24938 14.818 5.17188 18.7493 10.0106 18.7493C14.3444 18.7493 17.9419 15.5962 18.6469 11.4543C18.661 11.3418 18.6744 11.2289 18.6869 11.1155C18.8613 9.60928 18.6675 8.02678 18.1181 6.70303M8.02063 13.5768C8.06125 13.5955 8.1 13.6174 8.14188 13.6368L8.14813 13.6405L8.02063 13.5768ZM17.2513 7.16428V7.15616V7.16553V7.16428Z" fill="url(#paint0_linear_4304_71)"/>
<path d="M18.1175 6.70359C17.7375 5.78484 16.9663 4.79359 16.3606 4.48047C16.8531 5.44922 17.1381 6.42109 17.2475 7.14547V7.16422C18.0744 9.40984 17.6237 11.6942 16.975 13.0898C15.9706 15.2492 13.54 17.463 9.735 17.3548C5.6275 17.238 2.00625 14.1798 1.33 10.1767C1.20688 9.54547 1.33 9.22484 1.39187 8.71234C1.31688 9.10672 1.2875 9.22109 1.25 9.92359V9.96859C1.25 14.818 5.1725 18.7492 10.0113 18.7492C14.345 18.7492 17.9425 15.5961 18.6475 11.4542C18.6617 11.3417 18.675 11.2288 18.6875 11.1155C18.8606 9.60922 18.6669 8.02672 18.1181 6.70297" fill="url(#paint1_radial_4304_71)"/>
<path d="M18.1175 6.70359C17.7375 5.78484 16.9663 4.79359 16.3606 4.48047C16.8531 5.44922 17.1381 6.42109 17.2475 7.14547V7.16422C18.0744 9.40984 17.6237 11.6942 16.975 13.0898C15.9706 15.2492 13.54 17.463 9.735 17.3548C5.6275 17.238 2.00625 14.1798 1.33 10.1767C1.20688 9.54547 1.33 9.22484 1.39187 8.71234C1.31688 9.10672 1.2875 9.22109 1.25 9.92359V9.96859C1.25 14.818 5.1725 18.7492 10.0113 18.7492C14.345 18.7492 17.9425 15.5961 18.6475 11.4542C18.6617 11.3417 18.675 11.2288 18.6875 11.1155C18.8606 9.60922 18.6669 8.02672 18.1181 6.70297" fill="url(#paint2_radial_4304_71)"/>
<path d="M13.8617 7.73703L13.9161 7.77766C13.6964 7.38642 13.4225 7.02828 13.1023 6.71391C10.3792 3.98453 12.3886 0.795156 12.7273 0.633281L12.7311 0.628906C10.5298 1.92078 9.78359 4.31016 9.71484 5.50641C9.81672 5.49953 9.91859 5.49078 10.0223 5.49078C11.6648 5.49078 13.0955 6.39578 13.8617 7.73703Z" fill="url(#paint3_radial_4304_71)"/>
<path d="M10.0275 8.28203C10.0131 8.50078 9.24313 9.25391 8.97375 9.25391C6.4825 9.25391 6.07812 10.7639 6.07812 10.7639C6.1875 12.0364 7.07188 13.0839 8.14188 13.6383C8.19104 13.6629 8.23958 13.6864 8.2875 13.7089C8.37333 13.7456 8.45917 13.7808 8.545 13.8145C8.91186 13.9443 9.29617 14.018 9.685 14.0333C14.0519 14.2389 14.8981 8.80078 11.7469 7.22141C12.5531 7.08078 13.3906 7.40641 13.8594 7.73578C13.0931 6.39453 11.6619 5.48828 10.0194 5.48828C9.91562 5.48828 9.81375 5.49703 9.71188 5.50391C8.83254 5.56474 7.99209 5.88977 7.30063 6.43641C7.43438 6.55016 7.58563 6.70141 7.90313 7.01453C8.49875 7.60391 10.0231 8.21016 10.0269 8.28141" fill="url(#paint4_radial_4304_71)"/>
<path d="M10.0275 8.28203C10.0131 8.50078 9.24313 9.25391 8.97375 9.25391C6.4825 9.25391 6.07812 10.7639 6.07812 10.7639C6.1875 12.0364 7.07188 13.0839 8.14188 13.6383C8.19104 13.6629 8.23958 13.6864 8.2875 13.7089C8.37333 13.7456 8.45917 13.7808 8.545 13.8145C8.91186 13.9443 9.29617 14.018 9.685 14.0333C14.0519 14.2389 14.8981 8.80078 11.7469 7.22141C12.5531 7.08078 13.3906 7.40641 13.8594 7.73578C13.0931 6.39453 11.6619 5.48828 10.0194 5.48828C9.91562 5.48828 9.81375 5.49703 9.71188 5.50391C8.83254 5.56474 7.99209 5.88977 7.30063 6.43641C7.43438 6.55016 7.58563 6.70141 7.90313 7.01453C8.49875 7.60391 10.0231 8.21016 10.0269 8.28141" fill="url(#paint5_radial_4304_71)"/>
<path d="M6.89266 6.14281L7.07516 6.26344C6.87456 5.5632 6.86593 4.82191 7.05016 4.11719C6.15016 4.52844 5.45016 5.17719 4.94141 5.75094C4.98266 5.74969 6.25391 5.72656 6.89266 6.14344" fill="url(#paint6_radial_4304_71)"/>
<path d="M1.33167 10.1788C2.00792 14.1825 5.62917 17.24 9.73979 17.3575C13.5448 17.4657 15.9735 15.2519 16.9792 13.0925C17.6279 11.6969 18.0792 9.41254 17.2517 7.16629V7.14941L17.2535 7.16441C17.5642 9.19816 16.5323 11.1688 14.9185 12.5013L14.9142 12.5125C11.7698 15.0782 8.76104 14.0607 8.15167 13.645L8.02417 13.5813C6.19104 12.7044 5.43354 11.0294 5.59604 9.59379C4.04854 9.59379 3.52042 8.28504 3.52042 8.28504C3.52042 8.28504 4.91042 7.29191 6.74167 8.15566C8.43792 8.95566 10.031 8.28566 10.031 8.28504C10.0279 8.21379 8.50354 7.60566 7.90854 7.01879C7.59104 6.70504 7.43979 6.55379 7.30667 6.44066C7.23437 6.37911 7.15862 6.32172 7.07979 6.26879C7.02729 6.23191 6.97042 6.19566 6.89729 6.14816C6.25854 5.73191 4.98729 5.75441 4.94542 5.75629H4.94167C4.59417 5.31504 4.61854 3.86066 4.63792 3.55629C4.63417 3.53754 4.37917 3.68941 4.34667 3.71254C4.04042 3.93129 3.75292 4.17754 3.49042 4.44754C3.19 4.75254 2.91708 5.08024 2.67167 5.43066C2.10872 6.23156 1.70942 7.13572 1.49667 8.09129C1.48917 8.10816 1.17792 9.47191 1.33167 10.1788Z" fill="url(#paint7_radial_4304_71)"/>
<path d="M13.1016 6.71178C13.4216 7.02616 13.6953 7.38428 13.9153 7.77553C13.9612 7.81011 14.0049 7.84678 14.0466 7.88553C16.0328 9.71803 14.9941 12.3124 14.9153 12.4987C16.5285 11.1662 17.5603 9.19616 17.2497 7.16178C16.2591 4.68553 14.5797 3.68678 13.2072 1.51428C13.1385 1.40491 13.0685 1.29553 13.001 1.17803C12.9664 1.11834 12.9343 1.05725 12.9047 0.994905C12.8451 0.880331 12.7994 0.759059 12.7685 0.633655C12.7647 0.629397 12.7597 0.626532 12.7541 0.62553C12.7487 0.624823 12.7432 0.624823 12.7378 0.62553L12.7335 0.62803C12.7314 0.628864 12.7293 0.629905 12.7272 0.631155C12.3878 0.793655 10.3785 3.98241 13.1022 6.71178" fill="url(#paint8_radial_4304_71)"/>
<path d="M14.0477 7.88548C14.0056 7.84684 13.9618 7.81013 13.9164 7.77548L13.862 7.73486C13.3939 7.40611 12.5564 7.08048 11.7495 7.22111C14.9008 8.80048 14.0545 14.2386 9.68766 14.0336C9.29876 14.0179 8.91445 13.9438 8.54766 13.8136C8.46107 13.7808 8.37541 13.7456 8.29078 13.708C8.24129 13.6862 8.19251 13.6629 8.14453 13.638L8.15078 13.6411C8.75953 14.058 11.7683 15.0761 14.9133 12.5086L14.9177 12.4974C14.9958 12.3142 16.0345 9.72048 14.0477 7.88548Z" fill="url(#paint9_radial_4304_71)"/>
<path d="M6.07688 10.765C6.07688 10.765 6.48125 9.25503 8.97313 9.25503C9.24188 9.25503 10.0125 8.50128 10.0263 8.28315C10.0406 8.0644 8.43313 8.95378 6.73688 8.15378C4.90563 7.29003 3.51562 8.28315 3.51562 8.28315C3.51562 8.28315 4.04375 9.5919 5.59062 9.5919C5.42875 11.0275 6.18625 12.7013 8.01938 13.5794C8.06063 13.5982 8.09875 13.62 8.14063 13.6394C7.07063 13.0863 6.1875 12.0375 6.07688 10.765Z" fill="url(#paint10_radial_4304_71)"/>
<path d="M18.1187 6.70366C17.7387 5.78491 16.9669 4.79365 16.3612 4.48053C16.8544 5.44928 17.1394 6.42116 17.2487 7.14553C17.2487 7.14553 17.2494 7.15053 17.2506 7.16053C16.26 4.68553 14.58 3.68741 13.2081 1.51428C13.1381 1.40491 13.0688 1.29553 13.0013 1.17803C12.9667 1.11834 12.9345 1.05725 12.905 0.994905C12.8454 0.880331 12.7996 0.759059 12.7688 0.633655C12.765 0.629397 12.7599 0.626532 12.7544 0.62553C12.749 0.624823 12.7435 0.624823 12.7381 0.62553L12.7338 0.62803C12.7317 0.628864 12.7296 0.629905 12.7275 0.631155L12.7313 0.62678C10.53 1.91866 9.78375 4.30803 9.715 5.50428C9.81687 5.4974 9.91875 5.48865 10.0225 5.48865C11.665 5.48865 13.0956 6.39365 13.8619 7.7349C13.3938 7.40615 12.5556 7.08053 11.7494 7.22116C14.9006 8.80053 14.0544 14.2387 9.6875 14.033C9.29867 14.0178 8.91436 13.944 8.5475 13.8143C8.4607 13.7813 8.37483 13.7458 8.29 13.708C8.24071 13.6861 8.19214 13.6625 8.14438 13.6374L8.15063 13.6412L8.02312 13.578C8.06375 13.5968 8.1025 13.6187 8.14438 13.638C7.07188 13.0837 6.18875 12.0349 6.07813 10.763C6.07813 10.763 6.4825 9.2524 8.97438 9.2524C9.24313 9.2524 10.0138 8.49865 10.0275 8.28053C10.0244 8.20928 8.5 7.60115 7.905 7.01365C7.5875 6.70053 7.43625 6.54928 7.30313 6.43553C7.23083 6.37398 7.15508 6.31659 7.07625 6.26365C6.87566 5.56342 6.86702 4.82213 7.05125 4.11741C6.15125 4.52866 5.45125 5.17741 4.9425 5.75116H4.93875C4.59125 5.30991 4.61562 3.85553 4.63562 3.55178C4.63125 3.53303 4.37687 3.6849 4.34375 3.70803C4.0375 3.92678 3.75 4.17303 3.4875 4.44303C3.18774 4.74742 2.91388 5.07627 2.66875 5.42615C2.1058 6.22706 1.7065 7.13122 1.49375 8.08678L1.48188 8.1449C1.46563 8.22178 1.39125 8.61365 1.38063 8.69803C1.38063 8.70428 1.38063 8.69178 1.38063 8.69803C1.31229 9.10428 1.26875 9.51282 1.25 9.92365V9.96865C1.25 14.818 5.1725 18.7493 10.0112 18.7493C14.345 18.7493 17.9425 15.5962 18.6475 11.4543C18.6617 11.3418 18.675 11.2289 18.6875 11.1155C18.8619 9.60928 18.6681 8.02678 18.1187 6.70303" fill="url(#paint11_linear_4304_71)"/>
<defs>
<linearGradient id="paint0_linear_4304_71" x1="16.9587" y1="3.4324" x2="2.38313" y2="17.4643" gradientUnits="userSpaceOnUse">
<stop offset="0.05" stop-color="#FFF44F"/>
<stop offset="0.11" stop-color="#FFE847"/>
<stop offset="0.22" stop-color="#FFC830"/>
<stop offset="0.37" stop-color="#FF980E"/>
<stop offset="0.4" stop-color="#FF8B16"/>
<stop offset="0.46" stop-color="#FF672A"/>
<stop offset="0.53" stop-color="#FF3647"/>
<stop offset="0.7" stop-color="#E31587"/>
</linearGradient>
<radialGradient id="paint1_radial_4304_71" cx="0" cy="0" r="1" gradientUnits="userSpaceOnUse" gradientTransform="translate(16.2863 2.63609) scale(18.2654 18.3055)">
<stop offset="0.13" stop-color="#FFBD4F"/>
<stop offset="0.19" stop-color="#FFAC31"/>
<stop offset="0.25" stop-color="#FF9D17"/>
<stop offset="0.28" stop-color="#FF980E"/>
<stop offset="0.4" stop-color="#FF563B"/>
<stop offset="0.47" stop-color="#FF3750"/>
<stop offset="0.71" stop-color="#F5156C"/>
<stop offset="0.78" stop-color="#EB0878"/>
<stop offset="0.86" stop-color="#E50080"/>
</radialGradient>
<radialGradient id="paint2_radial_4304_71" cx="0" cy="0" r="1" gradientUnits="userSpaceOnUse" gradientTransform="translate(9.61125 10.1192) scale(18.2654 18.3055)">
<stop offset="0.3" stop-color="#960E18"/>
<stop offset="0.35" stop-color="#B11927" stop-opacity="0.74"/>
<stop offset="0.43" stop-color="#DB293D" stop-opacity="0.34"/>
<stop offset="0.5" stop-color="#F5334B" stop-opacity="0.09"/>
<stop offset="0.53" stop-color="#FF3750" stop-opacity="0"/>
</radialGradient>
<radialGradient id="paint3_radial_4304_71" cx="0" cy="0" r="1" gradientUnits="userSpaceOnUse" gradientTransform="translate(11.8155 -1.51609) scale(13.2325 13.2615)">
<stop offset="0.13" stop-color="#FFF44F"/>
<stop offset="0.25" stop-color="#FFDC3E"/>
<stop offset="0.51" stop-color="#FF9D12"/>
<stop offset="0.53" stop-color="#FF980E"/>
</radialGradient>
<radialGradient id="paint4_radial_4304_71" cx="0" cy="0" r="1" gradientUnits="userSpaceOnUse" gradientTransform="translate(7.5925 14.9027) scale(8.69688 8.71594)">
<stop offset="0.35" stop-color="#3A8EE6"/>
<stop offset="0.47" stop-color="#5C79F0"/>
<stop offset="0.67" stop-color="#9059FF"/>
<stop offset="1" stop-color="#C139E6"/>
</radialGradient>
<radialGradient id="paint5_radial_4304_71" cx="0" cy="0" r="1" gradientUnits="userSpaceOnUse" gradientTransform="translate(9.87438 7.94578) rotate(-13.9265) scale(4.60823 5.42408)">
<stop offset="0.21" stop-color="#9059FF" stop-opacity="0"/>
<stop offset="0.28" stop-color="#8C4FF3" stop-opacity="0.06"/>
<stop offset="0.75" stop-color="#7716A8" stop-opacity="0.45"/>
<stop offset="0.97" stop-color="#6E008B" stop-opacity="0.6"/>
</radialGradient>
<radialGradient id="paint6_radial_4304_71" cx="0" cy="0" r="1" gradientUnits="userSpaceOnUse" gradientTransform="translate(9.38016 1.88656) scale(6.25675 6.2705)">
<stop stop-color="#FFE226"/>
<stop offset="0.12" stop-color="#FFDB27"/>
<stop offset="0.3" stop-color="#FFC82A"/>
<stop offset="0.5" stop-color="#FFA930"/>
<stop offset="0.73" stop-color="#FF7E37"/>
<stop offset="0.79" stop-color="#FF7139"/>
</radialGradient>
<radialGradient id="paint7_radial_4304_71" cx="0" cy="0" r="1" gradientUnits="userSpaceOnUse" gradientTransform="translate(14.3004 -2.08809) scale(26.6943 26.7529)">
<stop offset="0.11" stop-color="#FFF44F"/>
<stop offset="0.46" stop-color="#FF980E"/>
<stop offset="0.62" stop-color="#FF5634"/>
<stop offset="0.72" stop-color="#FF3647"/>
<stop offset="0.9" stop-color="#E31587"/>
</radialGradient>
<radialGradient id="paint8_radial_4304_71" cx="0" cy="0" r="1" gradientUnits="userSpaceOnUse" gradientTransform="translate(11.7192 0.833033) rotate(84.245) scale(19.4998 12.7839)">
<stop stop-color="#FFF44F"/>
<stop offset="0.06" stop-color="#FFE847"/>
<stop offset="0.17" stop-color="#FFC830"/>
<stop offset="0.3" stop-color="#FF980E"/>
<stop offset="0.36" stop-color="#FF8B16"/>
<stop offset="0.45" stop-color="#FF672A"/>
<stop offset="0.57" stop-color="#FF3647"/>
<stop offset="0.74" stop-color="#E31587"/>
</radialGradient>
<radialGradient id="paint9_radial_4304_71" cx="0" cy="0" r="1" gradientUnits="userSpaceOnUse" gradientTransform="translate(9.23641 4.21111) scale(16.6653 16.7019)">
<stop offset="0.14" stop-color="#FFF44F"/>
<stop offset="0.48" stop-color="#FF980E"/>
<stop offset="0.59" stop-color="#FF5634"/>
<stop offset="0.66" stop-color="#FF3647"/>
<stop offset="0.9" stop-color="#E31587"/>
</radialGradient>
<radialGradient id="paint10_radial_4304_71" cx="0" cy="0" r="1" gradientUnits="userSpaceOnUse" gradientTransform="translate(13.6325 5.1894) scale(18.2403 18.2802)">
<stop offset="0.09" stop-color="#FFF44F"/>
<stop offset="0.23" stop-color="#FFE141"/>
<stop offset="0.51" stop-color="#FFAF1E"/>
<stop offset="0.63" stop-color="#FF980E"/>
</radialGradient>
<linearGradient id="paint11_linear_4304_71" x1="16.7844" y1="3.35678" x2="4.38125" y2="15.733" gradientUnits="userSpaceOnUse">
<stop offset="0.17" stop-color="#FFF44F" stop-opacity="0.8"/>
<stop offset="0.27" stop-color="#FFF44F" stop-opacity="0.63"/>
<stop offset="0.49" stop-color="#FFF44F" stop-opacity="0.22"/>
<stop offset="0.6" stop-color="#FFF44F" stop-opacity="0"/>
</linearGradient>
</defs>
</svg>
