<svg width="20" height="20" viewBox="0 0 20 20" fill="none" xmlns="http://www.w3.org/2000/svg">
<g clip-path="url(#clip0_4304_85)">
<path d="M10.0003 19.5739C15.3693 19.5739 19.7223 15.2209 19.7223 9.85091C19.7223 4.48191 15.3693 0.128906 10.0003 0.128906C4.63034 0.128906 0.277344 4.48191 0.277344 9.85091C0.277344 15.2209 4.63034 19.5739 10.0003 19.5739Z" fill="url(#paint0_linear_4304_85)"/>
<path d="M10.0013 18.8464C11.1824 18.8464 12.3518 18.6138 13.443 18.1618C14.5341 17.7098 15.5256 17.0474 16.3607 16.2122C17.1958 15.3771 17.8583 14.3857 18.3102 13.2945C18.7622 12.2034 18.9948 11.0339 18.9948 9.85287C18.9948 8.67183 18.7622 7.50235 18.3102 6.41121C17.8583 5.32007 17.1958 4.32863 16.3607 3.49351C15.5256 2.65839 14.5341 1.99593 13.443 1.54396C12.3518 1.092 11.1824 0.859375 10.0013 0.859375C7.61609 0.859375 5.32856 1.8069 3.64195 3.49351C1.95534 5.18012 1.00781 7.46765 1.00781 9.85287C1.00781 12.2381 1.95534 14.5256 3.64195 16.2122C5.32856 17.8988 7.61609 18.8464 10.0013 18.8464Z" fill="url(#paint1_radial_4304_85)"/>
<path d="M10.0163 3.04609C9.95634 3.04609 9.90234 3.00009 9.90234 2.94009V1.35209C9.90234 1.29209 9.95634 1.24609 10.0163 1.24609C10.0763 1.24609 10.1303 1.29109 10.1303 1.35209V2.94009C10.1233 3.00009 10.0773 3.04609 10.0163 3.04609Z" fill="#F3F3F3"/>
<path d="M10.0155 3.05328C9.94753 3.05328 9.89453 3.00028 9.89453 2.94028V1.35228C9.89453 1.29228 9.94753 1.23828 10.0155 1.23828C10.0835 1.23828 10.1375 1.29128 10.1375 1.35228V2.94028C10.1375 3.00028 10.0765 3.05328 10.0155 3.05328ZM10.0155 1.25328C9.96253 1.25328 9.90953 1.29928 9.90953 1.35328V2.93928C9.90953 2.99228 9.95453 3.03728 10.0155 3.03728C10.0685 3.03728 10.1215 2.99228 10.1215 2.93928V1.35228C10.1145 1.29928 10.0685 1.25328 10.0155 1.25328Z" fill="white"/>
<path d="M10.774 2.19414C10.714 2.18614 10.668 2.14114 10.668 2.08014L10.721 1.37414C10.7222 1.35948 10.7264 1.34523 10.7332 1.33221C10.7401 1.3192 10.7495 1.30769 10.7608 1.29836C10.7722 1.28904 10.7853 1.28209 10.7995 1.27793C10.8136 1.27377 10.8284 1.27248 10.843 1.27414C10.903 1.28214 10.949 1.32814 10.949 1.38914L10.896 2.09514C10.8947 2.10979 10.8906 2.12405 10.8837 2.13706C10.8769 2.15008 10.8675 2.16159 10.8561 2.17091C10.8447 2.18023 10.8316 2.18718 10.8175 2.19134C10.8034 2.1955 10.7886 2.1958 10.774 2.19414Z" fill="#F3F3F3"/>
<path d="M10.7742 2.20415C10.7435 2.20191 10.7147 2.18823 10.6936 2.16583C10.6725 2.14343 10.6606 2.11393 10.6602 2.08315L10.7132 1.37615C10.7212 1.31615 10.7742 1.26315 10.8432 1.27015C10.9112 1.27815 10.9562 1.33115 10.9562 1.39215L10.9032 2.09815C10.8962 2.16615 10.8432 2.21215 10.7742 2.20415ZM10.8422 1.28515C10.7892 1.28515 10.7362 1.32315 10.7362 1.37715L10.6832 2.08315C10.6832 2.13615 10.7212 2.18215 10.7822 2.18915C10.8352 2.18915 10.8882 2.15115 10.8882 2.09915L10.9412 1.39215C10.9412 1.33915 10.8962 1.29315 10.8422 1.28515Z" fill="white"/>
<path d="M11.3421 3.18343C11.3133 3.17717 11.288 3.16031 11.2712 3.13622C11.2543 3.11213 11.2471 3.08257 11.2511 3.05343L11.5621 1.49643C11.5771 1.43643 11.6311 1.39843 11.6921 1.41343C11.7521 1.42843 11.7901 1.48143 11.7821 1.54343L11.4721 3.09943C11.4641 3.15243 11.4021 3.19043 11.3421 3.18343Z" fill="#F3F3F3"/>
<path d="M11.3459 3.18961C11.3154 3.18353 11.2882 3.16616 11.2698 3.14096C11.2515 3.11576 11.2433 3.08457 11.2469 3.05361L11.5579 1.49661C11.5613 1.48104 11.5678 1.46631 11.577 1.45328C11.5862 1.44025 11.5979 1.42917 11.6113 1.4207C11.6248 1.41223 11.6399 1.40653 11.6556 1.40394C11.6713 1.40135 11.6874 1.40192 11.7029 1.40561C11.7335 1.41191 11.7606 1.42952 11.7788 1.45491C11.7969 1.48031 11.8048 1.51163 11.8009 1.54261L11.4909 3.09961C11.4749 3.15961 11.4139 3.19861 11.3459 3.18961ZM11.7029 1.42061C11.6769 1.41654 11.6502 1.42197 11.6278 1.43592C11.6054 1.44988 11.5888 1.47141 11.5809 1.49661L11.2699 3.05361C11.2662 3.08061 11.2726 3.10805 11.2879 3.13059C11.3033 3.15313 11.3264 3.16917 11.3529 3.17561C11.379 3.17968 11.4057 3.17424 11.4281 3.16029C11.4505 3.14634 11.4671 3.1248 11.4749 3.09961L11.7859 1.54261C11.7939 1.48161 11.7559 1.43561 11.7029 1.42061Z" fill="white"/>
<path d="M12.255 2.50096C12.2406 2.49755 12.2269 2.49133 12.2149 2.48265C12.2028 2.47396 12.1926 2.463 12.1848 2.45037C12.177 2.43774 12.1718 2.42369 12.1694 2.40904C12.167 2.39439 12.1676 2.37941 12.171 2.36496L12.361 1.68096C12.376 1.62096 12.437 1.59096 12.498 1.60496C12.558 1.62096 12.596 1.68096 12.581 1.74196L12.391 2.42596C12.376 2.48596 12.315 2.51496 12.255 2.50096Z" fill="#F3F3F3"/>
<path d="M12.2541 2.50897C12.1931 2.49297 12.1471 2.42497 12.1701 2.36397L12.3601 1.68097C12.3751 1.62097 12.4431 1.58197 12.5041 1.59697C12.5651 1.61197 12.6101 1.68097 12.5881 1.74197L12.3981 2.42497C12.3831 2.48497 12.3221 2.52397 12.2541 2.50897ZM12.5041 1.61997C12.4511 1.60497 12.3901 1.63497 12.3751 1.68797L12.1851 2.37197C12.1701 2.42497 12.2001 2.47797 12.2611 2.49297C12.3141 2.50897 12.3751 2.47797 12.3911 2.42497L12.5811 1.74197C12.5851 1.71577 12.5795 1.689 12.5654 1.66658C12.5512 1.64417 12.5295 1.62762 12.5041 1.61997Z" fill="white"/>
<path d="M12.6278 3.56987C12.5678 3.54687 12.5438 3.47887 12.5678 3.42587L13.1748 1.95987C13.1978 1.90687 13.2658 1.87587 13.3188 1.90687C13.3798 1.92887 13.4028 1.99687 13.3798 2.05087L12.7718 3.51687C12.7498 3.56987 12.6818 3.59987 12.6278 3.56987Z" fill="#F3F3F3"/>
<path d="M12.6268 3.57838C12.5978 3.56695 12.5744 3.54471 12.5615 3.51634C12.5486 3.48798 12.5473 3.45572 12.5578 3.42638L13.1658 1.96038C13.1888 1.89938 13.2568 1.87638 13.3258 1.89938C13.3546 1.91099 13.3777 1.93332 13.3904 1.96167C13.4031 1.99001 13.4043 2.02217 13.3938 2.05138L12.7858 3.51738C12.7558 3.57738 12.6868 3.60838 12.6258 3.57738M13.3168 1.91338C13.3043 1.90774 13.2909 1.90465 13.2772 1.90427C13.2635 1.90389 13.2499 1.90623 13.2372 1.91116C13.2244 1.9161 13.2128 1.92352 13.2029 1.933C13.1931 1.94248 13.1852 1.95383 13.1798 1.96638L12.5728 3.43238C12.5498 3.48538 12.5798 3.53938 12.6328 3.56238C12.6858 3.58438 12.7468 3.56238 12.7698 3.50838L13.3778 2.04238C13.3846 2.01714 13.3822 1.99029 13.371 1.96665C13.3598 1.94301 13.3406 1.92412 13.3168 1.91338Z" fill="white"/>
<path d="M13.6556 3.08414C13.6026 3.05414 13.5796 2.99414 13.6026 2.94014L13.9216 2.31014C13.9284 2.29691 13.9377 2.28519 13.9491 2.27566C13.9604 2.26614 13.9736 2.25901 13.9878 2.25472C14.002 2.25042 14.017 2.24904 14.0317 2.25066C14.0464 2.25228 14.0607 2.25686 14.0736 2.26414C14.1266 2.29414 14.1486 2.35514 14.1266 2.40814L13.8066 3.03814C13.7999 3.05123 13.7906 3.06284 13.7793 3.07227C13.768 3.08171 13.755 3.08878 13.7409 3.09307C13.7268 3.09736 13.712 3.09878 13.6974 3.09724C13.6827 3.09571 13.6685 3.09125 13.6556 3.08414Z" fill="#F3F3F3"/>
<path d="M13.6536 3.09469C13.6392 3.08809 13.6263 3.07863 13.6157 3.06688C13.6052 3.05512 13.5971 3.04133 13.592 3.02635C13.587 3.01136 13.585 2.9955 13.5863 2.97974C13.5876 2.96398 13.5921 2.94865 13.5996 2.93469L13.9196 2.30469C13.9263 2.29053 13.9358 2.27788 13.9475 2.26749C13.9592 2.2571 13.9729 2.24919 13.9878 2.24423C14.0026 2.23928 14.0183 2.23739 14.0339 2.23867C14.0495 2.23995 14.0647 2.24438 14.0786 2.25169C14.1386 2.28169 14.1616 2.35069 14.1316 2.41169L13.8126 3.04169C13.8059 3.05598 13.7964 3.06875 13.7846 3.07923C13.7728 3.08971 13.759 3.09768 13.744 3.10264C13.729 3.1076 13.7132 3.10945 13.6975 3.10809C13.6817 3.10672 13.6665 3.10216 13.6526 3.09469M14.0696 2.26669C14.0166 2.24369 13.9556 2.25869 13.9336 2.31169L13.6136 2.94169C13.5916 2.98769 13.6136 3.04869 13.6596 3.07969C13.7126 3.10169 13.7736 3.08669 13.7966 3.03369L14.1156 2.40369C14.1386 2.35769 14.1156 2.29669 14.0696 2.26669Z" fill="white"/>
<path d="M13.8051 4.21C13.7521 4.171 13.7371 4.103 13.7751 4.058L14.6561 2.743C14.6861 2.69 14.7551 2.683 14.8081 2.713C14.8611 2.751 14.8761 2.819 14.8381 2.865L13.9581 4.179C13.9508 4.19184 13.9407 4.20296 13.9287 4.21159C13.9167 4.22022 13.903 4.22616 13.8885 4.22901C13.8739 4.23186 13.859 4.23154 13.8446 4.22809C13.8302 4.22464 13.8167 4.21912 13.8051 4.21Z" fill="#F3F3F3"/>
<path d="M13.8068 4.21653C13.7815 4.19788 13.7638 4.17068 13.757 4.13998C13.7502 4.10927 13.7547 4.07714 13.7698 4.04953L14.6498 2.73553C14.6588 2.72246 14.6703 2.7113 14.6837 2.70271C14.697 2.69411 14.7119 2.68825 14.7276 2.68546C14.7432 2.68267 14.7592 2.68301 14.7747 2.68645C14.7902 2.6899 14.8048 2.69638 14.8178 2.70553C14.8433 2.72404 14.8612 2.75117 14.8682 2.78189C14.8752 2.81261 14.8708 2.84482 14.8558 2.87253L13.9748 4.18653C13.9658 4.19961 13.9543 4.21076 13.941 4.21936C13.9276 4.22795 13.9127 4.23381 13.8971 4.2366C13.8815 4.23939 13.8654 4.23906 13.8499 4.23561C13.8344 4.23217 13.8198 4.22568 13.8068 4.21653ZM14.8098 2.72053C14.7638 2.69053 14.6958 2.69753 14.6658 2.74353L13.7848 4.05753C13.7712 4.07965 13.7667 4.10623 13.7723 4.13161C13.7779 4.157 13.7931 4.17921 13.8148 4.19353C13.8608 4.22353 13.9288 4.21653 13.9588 4.17053L14.8398 2.86453C14.8535 2.84106 14.858 2.81337 14.8524 2.78678C14.8469 2.7602 14.8317 2.7366 14.8098 2.72053Z" fill="white"/>
<path d="M14.9147 3.92831C14.8697 3.89031 14.8547 3.82231 14.8927 3.77631L15.3327 3.22231C15.3512 3.20061 15.3774 3.18692 15.4057 3.18413C15.4341 3.18133 15.4624 3.18964 15.4847 3.20731C15.5307 3.24531 15.5447 3.31331 15.5077 3.35931L15.0677 3.91331C15.0492 3.93529 15.0229 3.94917 14.9943 3.95197C14.9657 3.95478 14.9371 3.94628 14.9147 3.92831Z" fill="#F3F3F3"/>
<path d="M14.9056 3.93459C14.8526 3.89659 14.8456 3.82059 14.8826 3.76759L15.3226 3.21359C15.3616 3.15959 15.4366 3.15259 15.4906 3.19759C15.5436 3.23559 15.5506 3.31159 15.5126 3.36459L15.0726 3.91959C15.0346 3.97259 14.9586 3.97959 14.9056 3.93459ZM15.4756 3.21259C15.4296 3.17559 15.3686 3.18259 15.3306 3.22859L14.8906 3.78259C14.876 3.80515 14.8703 3.83224 14.8743 3.85876C14.8784 3.88528 14.892 3.9094 14.9126 3.92659C14.9586 3.96459 15.0196 3.95659 15.0576 3.91159L15.4976 3.35759C15.5276 3.31159 15.5206 3.24359 15.4746 3.21359" fill="white"/>
<path d="M14.8392 5.06701C14.7932 5.02201 14.7932 4.95301 14.8392 4.91501L15.9632 3.80001C15.9837 3.78045 16.0109 3.76953 16.0392 3.76953C16.0675 3.76953 16.0947 3.78045 16.1152 3.80001C16.1532 3.83801 16.1602 3.91401 16.1152 3.95201L14.9982 5.06801C14.9879 5.0789 14.9755 5.08758 14.9617 5.09352C14.948 5.09945 14.9332 5.10251 14.9182 5.10251C14.9032 5.10251 14.8884 5.09945 14.8746 5.09352C14.8609 5.08758 14.8485 5.0789 14.8382 5.06801" fill="#F3F3F3"/>
<path d="M14.8307 5.07463C14.809 5.05224 14.7969 5.0223 14.7969 4.99113C14.7969 4.95996 14.809 4.93001 14.8307 4.90763L15.9547 3.79163C15.9771 3.76994 16.007 3.75781 16.0382 3.75781C16.0694 3.75781 16.0993 3.76994 16.1217 3.79163C16.1434 3.81401 16.1555 3.84396 16.1555 3.87513C16.1555 3.9063 16.1434 3.93624 16.1217 3.95863L14.9977 5.07463C14.9753 5.09632 14.9454 5.10844 14.9142 5.10844C14.883 5.10844 14.8531 5.09632 14.8307 5.07463ZM16.1147 3.79863C16.0952 3.78028 16.0695 3.77005 16.0427 3.77005C16.0159 3.77005 15.9902 3.78028 15.9707 3.79863L14.8457 4.91563C14.8273 4.93511 14.8171 4.96086 14.8171 4.98763C14.8171 5.01439 14.8273 5.04015 14.8457 5.05963C14.8652 5.07827 14.8912 5.08868 14.9182 5.08868C14.9452 5.08868 14.9712 5.07827 14.9907 5.05963L16.1147 3.94363C16.1527 3.90563 16.1527 3.84363 16.1147 3.79863Z" fill="white"/>
<path d="M15.9769 5.00631C15.9389 4.96031 15.9389 4.89231 15.9839 4.85431L16.5239 4.39832C16.5464 4.38076 16.5748 4.37262 16.6031 4.3756C16.6315 4.37859 16.6576 4.39247 16.6759 4.41431C16.7139 4.45931 16.7139 4.52731 16.6679 4.56531L16.1279 5.02131C16.1056 5.03868 16.0775 5.04681 16.0494 5.04402C16.0213 5.04123 15.9953 5.02773 15.9769 5.00631Z" fill="#F3F3F3"/>
<path d="M15.9683 5.01641C15.9223 4.96341 15.9303 4.88641 15.9763 4.84941L16.5153 4.39341C16.5603 4.34741 16.6363 4.35541 16.6823 4.40841C16.7283 4.46141 16.7203 4.53841 16.6743 4.57541L16.1353 5.03141C16.0903 5.07641 16.0143 5.06941 15.9683 5.01641ZM16.6673 4.41641C16.6293 4.37041 16.5683 4.37041 16.5233 4.40141L15.9833 4.85641C15.9636 4.87502 15.952 4.90049 15.9507 4.9275C15.9494 4.95451 15.9585 4.98099 15.9763 5.00141C16.0143 5.04641 16.0743 5.04641 16.1203 5.01641L16.6603 4.56041C16.7053 4.52241 16.7053 4.46141 16.6673 4.41641Z" fill="white"/>
<path d="M15.6737 6.09939C15.6648 6.08777 15.6584 6.07437 15.6551 6.06009C15.6517 6.04581 15.6515 6.03098 15.6543 6.01659C15.6571 6.0022 15.663 5.98858 15.6715 5.97665C15.6801 5.96471 15.6911 5.95474 15.7037 5.94739L17.0257 5.06639C17.0787 5.03639 17.1477 5.05139 17.1777 5.09639C17.1867 5.10801 17.1931 5.12141 17.1964 5.13569C17.1998 5.14997 17.2 5.1648 17.1972 5.17919C17.1944 5.19358 17.1885 5.2072 17.1799 5.21913C17.1714 5.23107 17.1604 5.24104 17.1477 5.24839L15.8257 6.12939C15.7807 6.15939 15.7117 6.14439 15.6737 6.09939Z" fill="#F3F3F3"/>
<path d="M15.666 6.0988C15.6478 6.07267 15.6408 6.0404 15.6464 6.00909C15.652 5.97777 15.6699 5.94997 15.696 5.9318L17.018 5.0518C17.0312 5.04272 17.0462 5.03646 17.0619 5.0334C17.0777 5.03034 17.0939 5.03055 17.1095 5.03402C17.1252 5.03749 17.14 5.04414 17.153 5.05357C17.1659 5.06299 17.1768 5.07498 17.185 5.0888C17.2032 5.11493 17.2102 5.14719 17.2046 5.17851C17.199 5.20983 17.1811 5.23763 17.155 5.2558L15.833 6.1368C15.8197 6.14584 15.8047 6.15204 15.7889 6.15503C15.7731 6.15801 15.7569 6.15771 15.7412 6.15415C15.7256 6.15058 15.7108 6.14383 15.6979 6.13431C15.6849 6.12478 15.6741 6.1127 15.666 6.0988ZM17.17 5.1038C17.1557 5.08183 17.1333 5.06637 17.1076 5.06076C17.082 5.05515 17.0552 5.05983 17.033 5.0738L15.711 5.9548C15.666 5.9848 15.651 6.0458 15.688 6.0988C15.718 6.1448 15.779 6.1598 15.825 6.1288L17.147 5.2488C17.168 5.2317 17.182 5.20746 17.1862 5.1807C17.1905 5.15394 17.1847 5.12656 17.17 5.1038Z" fill="white"/>
<path d="M16.8054 6.2606C16.7978 6.24821 16.7927 6.23444 16.7904 6.22006C16.7881 6.20569 16.7887 6.19101 16.7922 6.17688C16.7956 6.16274 16.8018 6.14942 16.8105 6.13771C16.8191 6.12599 16.8299 6.11609 16.8424 6.1086L17.4584 5.7596C17.5114 5.7296 17.5794 5.7516 17.6104 5.8056C17.6178 5.81801 17.6228 5.83176 17.6249 5.84606C17.627 5.86037 17.6263 5.87496 17.6227 5.88898C17.6192 5.90301 17.6129 5.9162 17.6043 5.9278C17.5957 5.9394 17.5848 5.94919 17.5724 5.9566L16.9564 6.3066C16.9034 6.3366 16.8364 6.3146 16.8054 6.2606Z" fill="#F3F3F3"/>
<path d="M16.7965 6.2686C16.7665 6.2086 16.7815 6.1386 16.8345 6.1086L17.4495 5.7596C17.5025 5.7296 17.5795 5.7516 17.6095 5.8056C17.6395 5.8656 17.6245 5.9346 17.5715 5.9656L16.9555 6.3146C16.9025 6.3446 16.8275 6.3216 16.7965 6.2686ZM17.6005 5.8126C17.5705 5.7596 17.5095 5.7446 17.4635 5.7746L16.8485 6.1246C16.8272 6.13921 16.8118 6.16083 16.8048 6.1857C16.7979 6.21056 16.7999 6.23708 16.8105 6.2606C16.8405 6.3136 16.9015 6.3296 16.9475 6.2986L17.5625 5.9486C17.6075 5.9266 17.6225 5.8656 17.6005 5.8126Z" fill="white"/>
<path d="M16.2978 7.27142C16.2748 7.21142 16.2978 7.14942 16.3578 7.12742L17.8238 6.51942C17.8778 6.49642 17.9458 6.52742 17.9688 6.57942C17.9918 6.64142 17.9688 6.70142 17.9078 6.72442L16.4418 7.33242C16.4284 7.33795 16.414 7.34076 16.3994 7.34068C16.3849 7.3406 16.3705 7.33764 16.3571 7.33197C16.3437 7.3263 16.3316 7.31802 16.3214 7.30763C16.3112 7.29724 16.3032 7.28493 16.2978 7.27142Z" fill="#F3F3F3"/>
<path d="M16.29 7.2779C16.267 7.2179 16.29 7.1489 16.35 7.1189L17.817 6.5109C17.8464 6.50042 17.8786 6.50176 17.907 6.51464C17.9354 6.52751 17.9576 6.55092 17.969 6.5799C17.991 6.6399 17.969 6.7089 17.908 6.7399L16.442 7.3469C16.4128 7.35743 16.3807 7.35623 16.3523 7.34355C16.324 7.33087 16.3016 7.3067 16.29 7.2779ZM17.953 6.5889C17.9423 6.56506 17.9234 6.54582 17.8998 6.53464C17.8761 6.52346 17.8493 6.52107 17.824 6.5279L16.358 7.1349C16.3455 7.14032 16.3341 7.14819 16.3246 7.15804C16.3152 7.16789 16.3077 7.17954 16.3028 7.19229C16.2979 7.20504 16.2955 7.21865 16.2959 7.23232C16.2963 7.24598 16.2994 7.25944 16.305 7.2719C16.316 7.29577 16.3351 7.31494 16.3589 7.32594C16.3828 7.33695 16.4098 7.33906 16.435 7.3319L17.9 6.7249C17.9126 6.71947 17.9239 6.71161 17.9334 6.70175C17.9429 6.6919 17.9503 6.68026 17.9552 6.66751C17.9602 6.65475 17.9625 6.64115 17.9621 6.62748C17.9618 6.61381 17.9587 6.60136 17.953 6.5889Z" fill="white"/>
<path d="M17.367 7.64819C17.344 7.58819 17.375 7.52619 17.435 7.50419L18.104 7.28419C18.157 7.26119 18.225 7.29919 18.24 7.35219C18.263 7.41219 18.233 7.47319 18.172 7.49619L17.504 7.71619C17.451 7.73919 17.39 7.70919 17.367 7.64819Z" fill="#F3F3F3"/>
<path d="M17.3586 7.65514C17.3532 7.64026 17.3508 7.62443 17.3518 7.60862C17.3527 7.59281 17.3568 7.57735 17.3639 7.5632C17.3711 7.54906 17.381 7.53652 17.3932 7.52636C17.4053 7.5162 17.4194 7.50864 17.4346 7.50414L18.1026 7.28414C18.1636 7.26114 18.2326 7.29914 18.2546 7.35914C18.2602 7.37407 18.2626 7.39 18.2618 7.40593C18.261 7.42185 18.2569 7.43743 18.2497 7.4517C18.2426 7.46596 18.2326 7.4786 18.2204 7.48883C18.2081 7.49906 18.1939 7.50665 18.1786 7.51114L17.5106 7.73114C17.4804 7.73882 17.4484 7.73536 17.4205 7.72141C17.3926 7.70746 17.3706 7.68394 17.3586 7.65514ZM18.2396 7.36714C18.2246 7.31414 18.1636 7.28314 18.1096 7.29914L17.4426 7.51914C17.3886 7.53414 17.3666 7.59514 17.3816 7.64814C17.3966 7.70114 17.4576 7.73114 17.5106 7.71614L18.1786 7.49614C18.2034 7.48627 18.2235 7.46734 18.2348 7.44319C18.2461 7.41905 18.2478 7.3925 18.2396 7.36714Z" fill="white"/>
<path d="M16.683 8.55309C16.668 8.49309 16.706 8.43209 16.766 8.42409L18.324 8.12009C18.384 8.10509 18.438 8.15009 18.453 8.21109C18.468 8.27209 18.43 8.33309 18.369 8.34109L16.812 8.64409C16.752 8.65209 16.691 8.61409 16.682 8.55409" fill="#F3F3F3"/>
<path d="M16.6671 8.55245C16.6636 8.53702 16.6631 8.52103 16.6658 8.50542C16.6684 8.48982 16.6742 8.47489 16.6826 8.4615C16.6911 8.44812 16.7021 8.43654 16.7151 8.42743C16.728 8.41833 16.7426 8.41188 16.7581 8.40845L18.3151 8.10445C18.3761 8.08945 18.4371 8.13445 18.4521 8.20345C18.4556 8.21888 18.4561 8.23487 18.4534 8.25047C18.4508 8.26608 18.445 8.28101 18.4366 8.2944C18.4281 8.30778 18.4171 8.31936 18.4041 8.32847C18.3912 8.33757 18.3766 8.34402 18.3611 8.34745L16.8041 8.65145C16.7431 8.66645 16.6821 8.62145 16.6671 8.55245ZM18.4371 8.21145C18.4351 8.19844 18.4306 8.18595 18.4239 8.17468C18.4171 8.16342 18.4081 8.1536 18.3975 8.1458C18.3869 8.13799 18.3749 8.13236 18.3621 8.12921C18.3494 8.12606 18.3361 8.12546 18.3231 8.12745L16.7661 8.43145C16.7131 8.43845 16.6751 8.49945 16.6901 8.55245C16.6971 8.60645 16.7501 8.64445 16.8041 8.63645L18.3611 8.33245C18.4141 8.31745 18.4511 8.26445 18.4371 8.21145Z" fill="white"/>
<path d="M17.6571 9.1391C17.6501 9.0791 17.6871 9.0251 17.7481 9.0181L18.4481 8.9341C18.4625 8.93272 18.477 8.93418 18.4908 8.93841C18.5046 8.94264 18.5175 8.94955 18.5286 8.95874C18.5397 8.96794 18.549 8.97923 18.5557 8.99199C18.5625 9.00475 18.5667 9.01872 18.5681 9.0331C18.5761 9.0931 18.5381 9.1471 18.4781 9.1541L17.7781 9.2381C17.7251 9.2461 17.6641 9.2001 17.6571 9.1391Z" fill="#F3F3F3"/>
<path d="M17.6492 9.13837C17.6422 9.07037 17.6872 9.00937 17.7482 9.00137L18.4472 8.91837C18.4782 8.91583 18.509 8.92547 18.5331 8.94525C18.5572 8.96504 18.5726 8.99341 18.5762 9.02437C18.5832 9.09337 18.5382 9.15437 18.4772 9.16137L17.7782 9.24437C17.7471 9.24691 17.7163 9.23726 17.6922 9.21748C17.6681 9.1977 17.6527 9.16933 17.6492 9.13837ZM18.5692 9.03237C18.5612 8.97937 18.5072 8.93337 18.4542 8.94137L17.7562 9.02437C17.7431 9.02632 17.7307 9.03082 17.7194 9.03761C17.7081 9.0444 17.6983 9.05335 17.6905 9.06394C17.6827 9.07453 17.6771 9.08655 17.6739 9.09933C17.6708 9.1121 17.6702 9.12536 17.6722 9.13837C17.6802 9.19137 17.7322 9.23737 17.7862 9.22937L18.4852 9.14637C18.5112 9.14219 18.5346 9.12785 18.5502 9.10649C18.5657 9.08513 18.5722 9.05848 18.5682 9.03237" fill="white"/>
<path d="M16.8047 9.87572C16.8047 9.81572 16.8497 9.76172 16.9107 9.76172H18.4977C18.5587 9.76172 18.6047 9.81472 18.6047 9.87572C18.6047 9.93672 18.5587 9.98972 18.4977 9.98972H16.9107C16.8507 9.98972 16.8047 9.93672 16.8047 9.87572Z" fill="#F3F3F3"/>
<path d="M16.7969 9.87491C16.7969 9.80691 16.8499 9.75391 16.9109 9.75391H18.4979C18.5589 9.75391 18.6119 9.80691 18.6119 9.87491C18.6119 9.94391 18.5589 9.99691 18.4979 9.99691H16.9109C16.8499 9.99691 16.7969 9.94391 16.7969 9.87491ZM18.5969 9.88291C18.5969 9.82991 18.5509 9.77591 18.4979 9.77591H16.9109C16.8579 9.77591 16.8119 9.82191 16.8119 9.88291C16.8119 9.93591 16.8579 9.98891 16.9109 9.98891H18.4979C18.5509 9.98091 18.5969 9.93591 18.5969 9.88291Z" fill="white"/>
<path d="M17.6494 10.6412C17.6564 10.5812 17.7024 10.5352 17.7624 10.5352L18.4694 10.5882C18.4839 10.5896 18.498 10.594 18.5107 10.601C18.5235 10.6079 18.5348 10.6173 18.5439 10.6287C18.553 10.64 18.5598 10.6531 18.5638 10.6671C18.5679 10.681 18.5691 10.6957 18.5674 10.7102C18.5604 10.7702 18.5144 10.8162 18.4534 10.8162L17.7474 10.7632C17.6944 10.7552 17.6494 10.7032 17.6494 10.6412Z" fill="#F3F3F3"/>
<path d="M17.6406 10.6413C17.6429 10.6106 17.6565 10.5819 17.6789 10.5608C17.7014 10.5397 17.7309 10.5278 17.7616 10.5273L18.4686 10.5813C18.5286 10.5883 18.5826 10.6413 18.5746 10.7103C18.5724 10.7412 18.5585 10.7701 18.5359 10.7912C18.5133 10.8123 18.4836 10.8242 18.4526 10.8243L17.7466 10.7713C17.6866 10.7633 17.6406 10.7023 17.6406 10.6413ZM18.5666 10.7103C18.5681 10.6973 18.567 10.6842 18.5632 10.6716C18.5595 10.6591 18.5532 10.6474 18.5447 10.6374C18.5363 10.6274 18.5259 10.6192 18.5142 10.6133C18.5025 10.6075 18.4897 10.6041 18.4766 10.6033L17.7696 10.5503C17.7166 10.5503 17.6696 10.5883 17.6626 10.6493C17.6612 10.6624 17.6625 10.6755 17.6664 10.688C17.6703 10.7005 17.6767 10.7121 17.6853 10.722C17.6938 10.7319 17.7042 10.74 17.716 10.7457C17.7277 10.7515 17.7406 10.7547 17.7536 10.7553L18.4606 10.8083C18.5136 10.8083 18.5596 10.7633 18.5666 10.7103Z" fill="white"/>
<path d="M16.6688 11.1975C16.6751 11.1688 16.6919 11.1435 16.716 11.1266C16.7401 11.1098 16.7697 11.1026 16.7988 11.1065L18.3548 11.4175C18.4148 11.4325 18.4538 11.4855 18.4388 11.5475C18.4323 11.5761 18.4154 11.6011 18.3913 11.6178C18.3673 11.6345 18.3378 11.6415 18.3088 11.6375L16.7518 11.3265C16.6988 11.3185 16.6618 11.2585 16.6688 11.1975Z" fill="#F3F3F3"/>
<path d="M16.6602 11.1986C16.6661 11.1676 16.6835 11.1401 16.7089 11.1215C16.7344 11.1029 16.7659 11.0947 16.7972 11.0986L18.3542 11.4106C18.4142 11.4256 18.4602 11.4866 18.4452 11.5556C18.4389 11.5862 18.4213 11.6133 18.3959 11.6314C18.3705 11.6496 18.3392 11.6575 18.3082 11.6536L16.7512 11.3426C16.6912 11.3276 16.6532 11.2666 16.6612 11.1986M18.4312 11.5556C18.4353 11.5295 18.4298 11.5029 18.4159 11.4805C18.4019 11.4581 18.3804 11.4414 18.3552 11.4336L16.7982 11.1226C16.7712 11.1188 16.7438 11.1253 16.7212 11.1406C16.6987 11.1559 16.6826 11.1791 16.6762 11.2056C16.6721 11.2317 16.6776 11.2583 16.6915 11.2807C16.7055 11.3031 16.727 11.3197 16.7522 11.3276L18.3102 11.6386C18.3702 11.6466 18.4162 11.6086 18.4312 11.5556Z" fill="white"/>
<path d="M17.3518 12.1061C17.3567 12.0842 17.3681 12.0644 17.3845 12.0492C17.401 12.034 17.4217 12.0242 17.4438 12.0211C17.4585 12.0185 17.4735 12.0192 17.4878 12.0231L18.1718 12.2131C18.2318 12.2281 18.2618 12.2881 18.2478 12.3491C18.2445 12.3636 18.2383 12.3773 18.2295 12.3893C18.2207 12.4014 18.2096 12.4115 18.1968 12.4191C18.1842 12.4272 18.1701 12.4326 18.1553 12.435C18.1405 12.4374 18.1254 12.4367 18.1108 12.4331L17.4278 12.2431C17.3668 12.2281 17.3358 12.1671 17.3518 12.1061Z" fill="#F3F3F3"/>
<path d="M17.3434 12.1096C17.3584 12.0486 17.4274 12.0026 17.4874 12.0256L18.1714 12.2156C18.2314 12.2306 18.2704 12.2996 18.2554 12.3596C18.2394 12.4206 18.1714 12.4666 18.1104 12.4436L17.4274 12.2536C17.3664 12.2386 17.3274 12.1776 17.3434 12.1096ZM18.2324 12.3596C18.2474 12.3066 18.2174 12.2456 18.1634 12.2306L17.4804 12.0406C17.4274 12.0256 17.3734 12.0566 17.3584 12.1166C17.3434 12.1696 17.3734 12.2306 17.4274 12.2466L18.1104 12.4366C18.1366 12.4406 18.1634 12.435 18.1858 12.4209C18.2082 12.4067 18.2248 12.3849 18.2324 12.3596Z" fill="white"/>
<path d="M16.2816 12.4747C16.2871 12.4612 16.2952 12.449 16.3054 12.4387C16.3156 12.4285 16.3278 12.4203 16.3412 12.4147C16.3545 12.4091 16.3689 12.4063 16.3834 12.4063C16.3979 12.4062 16.4122 12.4091 16.4256 12.4147L17.8916 13.0217C17.9456 13.0447 17.9756 13.1117 17.9526 13.1657C17.9472 13.1791 17.9391 13.1913 17.9289 13.2016C17.9186 13.2119 17.9065 13.22 17.8931 13.2256C17.8797 13.2312 17.8654 13.234 17.8509 13.2341C17.8364 13.2341 17.822 13.2312 17.8086 13.2257L16.3426 12.6187C16.2826 12.5957 16.2576 12.5277 16.2816 12.4747Z" fill="#F3F3F3"/>
<path d="M16.2738 12.4657C16.2854 12.4369 16.3078 12.4138 16.3361 12.4011C16.3645 12.3884 16.3966 12.3872 16.4258 12.3977L17.8918 13.0057C17.9518 13.0277 17.9758 13.0957 17.9518 13.1657C17.9402 13.1943 17.918 13.2173 17.8899 13.23C17.8618 13.2426 17.8299 13.244 17.8008 13.2337L16.3348 12.6257C16.2748 12.5957 16.2498 12.5267 16.2738 12.4657ZM17.9388 13.1577C17.9445 13.1453 17.9476 13.1318 17.9479 13.1182C17.9483 13.1045 17.946 13.0909 17.941 13.0781C17.9361 13.0654 17.9287 13.0537 17.9192 13.0439C17.9097 13.034 17.8984 13.0262 17.8858 13.0207L16.4198 12.4127C16.3668 12.3897 16.3128 12.4207 16.2898 12.4727C16.2841 12.4853 16.2809 12.4989 16.2805 12.5127C16.2801 12.5266 16.2825 12.5403 16.2875 12.5532C16.2926 12.5661 16.3002 12.5778 16.3098 12.5877C16.3195 12.5976 16.3311 12.6054 16.3438 12.6107L17.8088 13.2177C17.8628 13.2327 17.9228 13.2107 17.9388 13.1577Z" fill="white"/>
<path d="M16.775 13.4994C16.805 13.4464 16.866 13.4234 16.92 13.4464L17.55 13.7664C17.603 13.7884 17.626 13.8564 17.596 13.9174C17.566 13.9704 17.504 13.9934 17.451 13.9704L16.821 13.6514C16.768 13.6214 16.745 13.5534 16.775 13.4994Z" fill="#F3F3F3"/>
<path d="M16.767 13.4926C16.7737 13.4783 16.7832 13.4655 16.795 13.4551C16.8068 13.4446 16.8206 13.4366 16.8356 13.4317C16.8506 13.4267 16.8664 13.4249 16.8821 13.4262C16.8979 13.4276 16.9131 13.4321 16.927 13.4396L17.557 13.7586C17.618 13.7886 17.641 13.8576 17.61 13.9186C17.6033 13.9329 17.5938 13.9457 17.582 13.9562C17.5702 13.9666 17.5564 13.9746 17.5414 13.9796C17.5265 13.9845 17.5106 13.9864 17.4949 13.985C17.4792 13.9836 17.4639 13.9791 17.45 13.9716L16.82 13.6516C16.76 13.6296 16.737 13.5536 16.767 13.4926ZM17.587 13.9106C17.61 13.8576 17.595 13.7966 17.542 13.7736L16.912 13.4546C16.866 13.4316 16.805 13.4546 16.775 13.5006C16.752 13.5536 16.767 13.6146 16.82 13.6366L17.45 13.9566C17.504 13.9786 17.564 13.9636 17.587 13.9106Z" fill="white"/>
<path d="M15.6579 13.641C15.6959 13.588 15.7569 13.573 15.8099 13.611L17.1309 14.491C17.1839 14.522 17.1919 14.591 17.1609 14.644C17.1239 14.697 17.0629 14.712 17.0099 14.674L15.6879 13.793C15.6349 13.755 15.6199 13.687 15.6579 13.641Z" fill="#F3F3F3"/>
<path d="M15.652 13.6357C15.6706 13.6102 15.6977 13.5923 15.7284 13.5853C15.7591 13.5783 15.7913 13.5827 15.819 13.5977L17.141 14.4787C17.1672 14.4968 17.185 14.5246 17.1906 14.5559C17.1962 14.5873 17.1892 14.6195 17.171 14.6457C17.1525 14.6712 17.1254 14.6891 17.0947 14.696C17.064 14.703 17.0318 14.6986 17.004 14.6837L15.682 13.8037C15.622 13.7647 15.614 13.6887 15.652 13.6357ZM17.149 14.6387C17.179 14.5927 17.171 14.5247 17.126 14.4937L15.804 13.6137C15.7818 13.5997 15.755 13.595 15.7294 13.6006C15.7038 13.6062 15.6814 13.6217 15.667 13.6437C15.637 13.6887 15.645 13.7577 15.69 13.7877L17.012 14.6687C17.057 14.6987 17.118 14.6837 17.149 14.6387Z" fill="white"/>
<path d="M15.9388 14.7438C15.9758 14.6978 16.0448 14.6828 16.0898 14.7208L16.6448 15.1538C16.6665 15.1723 16.6802 15.1984 16.683 15.2268C16.6858 15.2551 16.6774 15.2835 16.6598 15.3058C16.6218 15.3508 16.5538 15.3658 16.5078 15.3288L15.9528 14.8958C15.9311 14.8773 15.9174 14.8512 15.9146 14.8228C15.9118 14.7945 15.9211 14.7661 15.9388 14.7438Z" fill="#F3F3F3"/>
<path d="M15.9338 14.7376C15.9718 14.6846 16.0478 14.6776 16.1008 14.7146L16.6558 15.1476C16.7088 15.1856 16.7158 15.2616 16.6778 15.3146C16.6398 15.3676 16.5638 15.3756 16.5108 15.3376L15.9568 14.9046C15.9038 14.8666 15.8958 14.7906 15.9338 14.7376ZM16.6638 15.3076C16.7008 15.2616 16.6938 15.2016 16.6478 15.1636L16.0928 14.7306C16.0702 14.7161 16.0431 14.7103 16.0166 14.7143C15.9901 14.7184 15.966 14.732 15.9488 14.7526C15.9108 14.7986 15.9188 14.8596 15.9638 14.8976L16.5188 15.3306C16.5638 15.3606 16.6248 15.3526 16.6628 15.3076" fill="white"/>
<path d="M14.8099 14.6673C14.8549 14.6213 14.9239 14.6213 14.9619 14.6673L16.0859 15.7833C16.096 15.7933 16.1039 15.8051 16.1094 15.8181C16.1148 15.8312 16.1176 15.8452 16.1176 15.8593C16.1176 15.8734 16.1148 15.8874 16.1094 15.9005C16.1039 15.9135 16.096 15.9254 16.0859 15.9353C16.0399 15.9813 15.9719 15.9813 15.9339 15.9353L14.8099 14.8183C14.7915 14.7973 14.7813 14.7703 14.7812 14.7423C14.7812 14.7143 14.7915 14.6883 14.8099 14.6673Z" fill="#F3F3F3"/>
<path d="M14.8051 14.6593C14.8276 14.6373 14.8577 14.625 14.8891 14.625C14.9205 14.625 14.9507 14.6373 14.9731 14.6593L16.0971 15.7763C16.1191 15.7987 16.1314 15.8289 16.1314 15.8603C16.1314 15.8917 16.1191 15.9219 16.0971 15.9443C16.0747 15.966 16.0448 15.9781 16.0136 15.9781C15.9825 15.9781 15.9525 15.966 15.9301 15.9443L14.8051 14.8273C14.7928 14.8172 14.7828 14.8044 14.776 14.79C14.7692 14.7756 14.7656 14.7598 14.7656 14.7438C14.7656 14.7278 14.7692 14.7121 14.776 14.6976C14.7828 14.6832 14.7928 14.6704 14.8051 14.6603M16.0821 15.9303C16.1008 15.9108 16.1112 15.8848 16.1112 15.8578C16.1112 15.8308 16.1008 15.8048 16.0821 15.7853L14.9571 14.6683C14.9375 14.6502 14.9118 14.6401 14.8851 14.6401C14.8584 14.6401 14.8327 14.6502 14.8131 14.6683C14.7947 14.6879 14.7845 14.7139 14.7845 14.7408C14.7845 14.7677 14.7947 14.7937 14.8131 14.8133L15.9371 15.9293C15.9751 15.9753 16.0371 15.9763 16.0821 15.9303Z" fill="white"/>
<path d="M14.8752 15.8019C14.9212 15.7629 14.9892 15.7629 15.0272 15.8089L15.4912 16.3399C15.5087 16.3623 15.5169 16.3907 15.5139 16.4191C15.5109 16.4475 15.497 16.4735 15.4752 16.4919C15.4302 16.5299 15.3612 16.5299 15.3242 16.4849L14.8602 15.9529C14.8222 15.9149 14.8302 15.8469 14.8752 15.8009" fill="#F3F3F3"/>
<path d="M14.8661 15.8C14.8894 15.7792 14.9198 15.7683 14.951 15.7696C14.9822 15.7709 15.0116 15.7843 15.0331 15.807L15.4971 16.339C15.5421 16.385 15.5351 16.461 15.4811 16.506C15.4578 16.5268 15.4273 16.5377 15.3962 16.5364C15.365 16.535 15.3355 16.5216 15.3141 16.499L14.8511 15.967C14.8131 15.914 14.8131 15.837 14.8661 15.8ZM15.4741 16.491C15.5191 16.453 15.5191 16.392 15.4891 16.347L15.0261 15.815C15.0075 15.7955 14.9821 15.7837 14.9552 15.7823C14.9282 15.7808 14.9017 15.7896 14.8811 15.807C14.8361 15.845 14.8361 15.907 14.8661 15.952L15.3301 16.483C15.3671 16.529 15.4281 16.529 15.4741 16.491Z" fill="white"/>
<path d="M13.7846 15.5097C13.7962 15.5007 13.8096 15.4944 13.8239 15.491C13.8382 15.4877 13.853 15.4874 13.8674 15.4902C13.8818 15.4931 13.8954 15.499 13.9073 15.5075C13.9193 15.516 13.9292 15.527 13.9366 15.5397L14.8166 16.8547C14.8476 16.9077 14.8326 16.9757 14.7866 17.0067C14.775 17.0156 14.7616 17.022 14.7473 17.0254C14.733 17.0287 14.7182 17.029 14.7038 17.0261C14.6894 17.0233 14.6758 17.0174 14.6638 17.0089C14.6519 17.0004 14.6419 16.9894 14.6346 16.9767L13.7546 15.6617C13.7236 15.6087 13.7386 15.5407 13.7846 15.5097Z" fill="#F3F3F3"/>
<path d="M13.7806 15.5058C13.8068 15.4877 13.839 15.4806 13.8704 15.4863C13.9017 15.4919 13.9295 15.5097 13.9476 15.5358L14.8286 16.8498C14.8377 16.8631 14.8439 16.8781 14.8469 16.8939C14.8499 16.9097 14.8496 16.9259 14.846 16.9416C14.8424 16.9573 14.8357 16.972 14.8262 16.985C14.8166 16.9979 14.8045 17.0088 14.7906 17.0168C14.7645 17.035 14.7322 17.042 14.7009 17.0364C14.6696 17.0308 14.6418 17.013 14.6236 16.9868L13.7436 15.6728C13.7344 15.6597 13.728 15.6447 13.7249 15.6289C13.7217 15.6132 13.7219 15.5969 13.7254 15.5812C13.7289 15.5655 13.7356 15.5507 13.7451 15.5377C13.7546 15.5247 13.7667 15.5139 13.7806 15.5058ZM14.7836 17.0018C14.8056 16.9875 14.8211 16.9651 14.8267 16.9395C14.8323 16.9139 14.8276 16.8871 14.8136 16.8648L13.9336 15.5518C13.9026 15.5058 13.8416 15.4978 13.7886 15.5288C13.7667 15.5432 13.7512 15.5656 13.7456 15.5912C13.74 15.6168 13.7447 15.6436 13.7586 15.6658L14.6386 16.9788C14.6686 17.0168 14.7386 17.0318 14.7836 17.0018Z" fill="white"/>
<path d="M13.6222 16.6333C13.6346 16.6257 13.6485 16.6206 13.6629 16.6184C13.6773 16.6162 13.692 16.6169 13.7061 16.6205C13.7203 16.624 13.7336 16.6303 13.7453 16.639C13.7569 16.6478 13.7668 16.6587 13.7742 16.6713L14.1242 17.2873C14.1542 17.3403 14.1312 17.4083 14.0782 17.4393C14.0657 17.4469 14.0519 17.4519 14.0375 17.4541C14.0231 17.4563 14.0084 17.4556 13.9942 17.4521C13.9801 17.4485 13.9668 17.4422 13.9551 17.4335C13.9434 17.4248 13.9336 17.4138 13.9262 17.4013L13.5762 16.7853C13.5542 16.7323 13.5692 16.6633 13.6222 16.6333Z" fill="#F3F3F3"/>
<path d="M13.6232 16.6286C13.6842 16.5986 13.7532 16.6136 13.7832 16.6666L14.1332 17.2816C14.1632 17.3346 14.1472 17.4116 14.0872 17.4416C14.0262 17.4716 13.9572 17.4566 13.9272 17.4036L13.5772 16.7876C13.5472 16.7346 13.5632 16.6676 13.6232 16.6286ZM14.0792 17.4326C14.1252 17.4026 14.1472 17.3416 14.1172 17.2956L13.7672 16.6806C13.7526 16.6593 13.731 16.6438 13.7061 16.6368C13.6813 16.6299 13.6548 16.6319 13.6312 16.6426C13.5852 16.6726 13.5622 16.7336 13.5932 16.7796L13.9432 17.3945C13.9652 17.4405 14.0332 17.4636 14.0792 17.4326Z" fill="white"/>
<path d="M12.6147 16.1339C12.6757 16.1109 12.7367 16.1339 12.7597 16.1869L13.3747 17.6529C13.3977 17.7059 13.3667 17.7749 13.3147 17.7969C13.2607 17.8199 13.1927 17.7969 13.1697 17.7439L12.5547 16.2779C12.5317 16.2249 12.5617 16.1569 12.6147 16.1339Z" fill="#F3F3F3"/>
<path d="M12.6148 16.1259C12.6748 16.1029 12.7448 16.1259 12.7748 16.1869L13.3898 17.6529C13.4003 17.6823 13.3989 17.7145 13.386 17.7429C13.3732 17.7713 13.3498 17.7935 13.3208 17.8049C13.2608 17.8279 13.1918 17.8049 13.1608 17.7449L12.5468 16.2779C12.5238 16.2249 12.5538 16.1569 12.6148 16.1259ZM13.3058 17.7899C13.3588 17.7669 13.3818 17.7059 13.3588 17.6599L12.7438 16.1949C12.7208 16.1419 12.6608 16.1189 12.6068 16.1419C12.5538 16.1639 12.5308 16.2249 12.5538 16.2709L13.1688 17.7359C13.1988 17.7899 13.2528 17.8119 13.3058 17.7899Z" fill="white"/>
<path d="M12.2388 17.2103C12.3008 17.1883 12.3608 17.2183 12.3838 17.2793L12.6038 17.9473C12.6268 18.0003 12.5888 18.0693 12.5358 18.0843C12.4758 18.1073 12.4148 18.0763 12.3918 18.0153L12.1718 17.3473C12.1488 17.2943 12.1788 17.2333 12.2398 17.2103" fill="#F3F3F3"/>
<path d="M12.2323 17.2063C12.2616 17.1958 12.2937 17.197 12.3221 17.2097C12.3504 17.2224 12.3727 17.2455 12.3843 17.2743L12.6043 17.9433C12.6273 18.0033 12.5893 18.0723 12.5283 18.0943C12.4991 18.1049 12.467 18.1037 12.4386 18.091C12.4103 18.0783 12.388 18.0551 12.3763 18.0263L12.1563 17.3583C12.1487 17.3281 12.1521 17.2961 12.1661 17.2682C12.18 17.2403 12.2035 17.2183 12.2323 17.2063ZM12.5283 18.0793C12.5823 18.0643 12.6123 18.0033 12.5973 17.9503L12.3773 17.2823C12.3613 17.2293 12.3013 17.2063 12.2473 17.2223C12.1943 17.2363 12.1643 17.2973 12.1793 17.3503L12.3993 18.0193C12.4035 18.0321 12.4101 18.0439 12.4189 18.054C12.4276 18.0641 12.4383 18.0724 12.4503 18.0783C12.4626 18.0837 12.4758 18.0866 12.4892 18.0868C12.5026 18.0869 12.5159 18.0844 12.5283 18.0793Z" fill="white"/>
<path d="M11.3426 16.5228C11.4026 16.5078 11.4646 16.5458 11.4726 16.6068L11.7906 18.1638C11.8056 18.2238 11.7606 18.2778 11.7006 18.2938C11.6386 18.3078 11.5786 18.2698 11.5706 18.2098L11.2506 16.6518C11.2477 16.6228 11.2554 16.5937 11.2723 16.57C11.2892 16.5462 11.3142 16.5295 11.3426 16.5228Z" fill="#F3F3F3"/>
<path d="M11.3453 16.5146C11.4133 16.4996 11.4743 16.5446 11.4893 16.6066L11.8083 18.1636C11.8233 18.2236 11.7783 18.2926 11.7173 18.3006C11.7017 18.3043 11.6855 18.3048 11.6698 18.3022C11.654 18.2995 11.6389 18.2937 11.6254 18.2852C11.6119 18.2766 11.6002 18.2654 11.5911 18.2523C11.582 18.2391 11.5756 18.2243 11.5723 18.2086L11.2533 16.6516C11.2383 16.5916 11.2763 16.5306 11.3443 16.5146M11.7003 18.2846C11.7543 18.2776 11.7923 18.2246 11.7843 18.1636L11.4653 16.6066C11.4583 16.5526 11.3973 16.5146 11.3443 16.5306C11.2903 16.5376 11.2523 16.5906 11.2603 16.6516L11.5793 18.2086C11.5871 18.2336 11.6036 18.255 11.6257 18.2689C11.6479 18.2829 11.6743 18.2884 11.7003 18.2846Z" fill="white"/>
<path d="M10.7676 17.5089C10.8276 17.5009 10.8806 17.5389 10.8966 17.5989L10.9866 18.2989C10.9881 18.3133 10.9868 18.3278 10.9827 18.3417C10.9786 18.3555 10.9718 18.3685 10.9627 18.3797C10.9536 18.3909 10.9423 18.4003 10.9296 18.4072C10.9169 18.4141 10.903 18.4184 10.8886 18.4199C10.8594 18.4238 10.8299 18.4166 10.8058 18.3998C10.7817 18.3829 10.7649 18.3576 10.7586 18.3289L10.6686 17.6299C10.6671 17.6155 10.6684 17.6009 10.6725 17.5871C10.6766 17.5732 10.6834 17.5603 10.6925 17.549C10.7016 17.5378 10.7128 17.5285 10.7255 17.5216C10.7382 17.5147 10.7532 17.5104 10.7676 17.5089Z" fill="#F3F3F3"/>
<path d="M10.7666 17.5007C10.8356 17.4937 10.8966 17.5397 10.9036 17.6007L10.9946 18.2987C10.9975 18.3299 10.9879 18.361 10.9681 18.3853C10.9483 18.4096 10.9198 18.4252 10.8886 18.4287C10.8196 18.4357 10.7586 18.3907 10.7516 18.3287L10.6606 17.6307C10.6578 17.5995 10.6673 17.5684 10.6872 17.5441C10.707 17.5198 10.7355 17.5042 10.7666 17.5007ZM10.8806 18.4127C10.9336 18.4057 10.9806 18.3527 10.9726 18.2987L10.8806 17.6007C10.8787 17.5877 10.8742 17.5752 10.8674 17.5639C10.8606 17.5527 10.8517 17.5429 10.8411 17.5351C10.8305 17.5272 10.8185 17.5216 10.8057 17.5185C10.7929 17.5153 10.7796 17.5147 10.7666 17.5167C10.7136 17.5247 10.6686 17.5767 10.6766 17.6307L10.7666 18.3297C10.7746 18.3827 10.8276 18.4197 10.8806 18.4127Z" fill="white"/>
<path d="M9.98509 16.6562C10.0451 16.6562 10.0991 16.7022 10.0991 16.7622V18.3502C10.0991 18.4102 10.0461 18.4562 9.98509 18.4562C9.92509 18.4562 9.87109 18.4112 9.87109 18.3502V16.7622C9.87909 16.7022 9.92409 16.6562 9.98509 16.6562Z" fill="#F3F3F3"/>
<path d="M9.98528 16.6484C10.0533 16.6484 10.1063 16.7014 10.1063 16.7624V18.3504C10.1063 18.4104 10.0533 18.4644 9.98528 18.4644C9.91628 18.4644 9.86328 18.4114 9.86328 18.3504V16.7624C9.86328 16.7024 9.92428 16.6484 9.98528 16.6484ZM9.98528 18.4484C10.0383 18.4484 10.0913 18.4034 10.0913 18.3504V16.7624C10.0913 16.7094 10.0463 16.6644 9.98528 16.6644C9.93228 16.6644 9.87828 16.7094 9.87828 16.7624V18.3504C9.88628 18.4034 9.93228 18.4484 9.98528 18.4484Z" fill="white"/>
<path d="M9.22478 17.5084C9.28578 17.5164 9.33178 17.5624 9.33178 17.6224L9.27878 18.3294C9.27729 18.3439 9.27294 18.3579 9.26598 18.3707C9.25902 18.3835 9.2496 18.3948 9.23825 18.4039C9.2269 18.413 9.21386 18.4198 9.19987 18.4238C9.18589 18.4279 9.17124 18.4291 9.15678 18.4274C9.09678 18.4204 9.05078 18.3744 9.05078 18.3144L9.10378 17.6074C9.10516 17.5929 9.10938 17.5789 9.11623 17.5661C9.12307 17.5532 9.13238 17.5419 9.14363 17.5327C9.15488 17.5235 9.16785 17.5166 9.18178 17.5124C9.19571 17.5083 9.21032 17.5069 9.22478 17.5084Z" fill="#F3F3F3"/>
<path d="M9.22497 17.5C9.29397 17.508 9.33897 17.562 9.33897 17.622L9.28597 18.329C9.27797 18.389 9.22597 18.443 9.15597 18.435C9.12545 18.4325 9.09696 18.4187 9.07606 18.3964C9.05517 18.374 9.04337 18.3446 9.04297 18.314L9.09597 17.607C9.10397 17.539 9.15597 17.493 9.22597 17.501M9.15797 18.421C9.21097 18.421 9.26397 18.383 9.26397 18.33L9.31697 17.623C9.31697 17.57 9.27897 17.525 9.21897 17.517C9.16597 17.517 9.11197 17.555 9.11197 17.608L9.05897 18.315C9.05897 18.368 9.10497 18.413 9.15797 18.421Z" fill="white"/>
<path d="M8.6559 16.5204C8.7169 16.5354 8.7559 16.5894 8.7469 16.6504L8.4369 18.2064C8.4209 18.2674 8.3669 18.3064 8.3069 18.2904C8.27817 18.2841 8.25286 18.2672 8.23599 18.2431C8.21913 18.2191 8.21196 18.1895 8.2159 18.1604L8.5269 16.6044C8.5349 16.5514 8.5959 16.5134 8.6569 16.5204" fill="#F3F3F3"/>
<path d="M8.65606 16.513C8.68663 16.5191 8.7138 16.5364 8.73214 16.5617C8.75049 16.5869 8.75867 16.618 8.75506 16.649L8.44306 18.206C8.43963 18.2215 8.43318 18.2361 8.42407 18.2491C8.41497 18.262 8.40339 18.273 8.39 18.2815C8.37662 18.2899 8.36169 18.2957 8.34608 18.2983C8.33047 18.301 8.31449 18.3005 8.29906 18.297C8.26848 18.2909 8.24131 18.2736 8.22297 18.2484C8.20462 18.2232 8.19644 18.192 8.20006 18.161L8.51206 16.604C8.52706 16.543 8.58806 16.504 8.65606 16.513ZM8.29906 18.283C8.32526 18.287 8.35203 18.2814 8.37444 18.2673C8.39686 18.2532 8.41341 18.2314 8.42106 18.206L8.73106 16.649C8.73454 16.6222 8.72799 16.595 8.71268 16.5726C8.69736 16.5503 8.67436 16.5344 8.64806 16.528C8.62214 16.5242 8.59572 16.5298 8.57354 16.5437C8.55135 16.5576 8.53487 16.579 8.52706 16.604L8.21506 18.161C8.20806 18.221 8.24506 18.268 8.29906 18.283Z" fill="white"/>
<path d="M7.74433 17.2026C7.80433 17.2186 7.84333 17.2786 7.82733 17.3396L7.63733 18.0236C7.62233 18.0836 7.56233 18.1136 7.50133 18.0996C7.48677 18.0962 7.47304 18.09 7.46092 18.0812C7.4488 18.0725 7.43854 18.0614 7.43073 18.0487C7.42292 18.0359 7.41771 18.0217 7.41541 18.007C7.41311 17.9922 7.41376 17.9771 7.41733 17.9626L7.60733 17.2786C7.62233 17.2186 7.68333 17.1886 7.74433 17.2026Z" fill="#F3F3F3"/>
<path d="M7.74584 17.1995C7.80684 17.2145 7.85284 17.2825 7.82984 17.3435L7.63984 18.0265C7.6314 18.0565 7.61167 18.082 7.58481 18.0976C7.55795 18.1133 7.52605 18.1179 7.49584 18.1105C7.43584 18.0955 7.38984 18.0265 7.41184 17.9665L7.60184 17.2825C7.61684 17.2225 7.67784 17.1845 7.74584 17.1995ZM7.49584 18.0865C7.54884 18.1015 7.60984 18.0715 7.62484 18.0185L7.81484 17.3345C7.82984 17.2815 7.79984 17.2285 7.73884 17.2135C7.68584 17.1975 7.62484 17.2285 7.60884 17.2815L7.41884 17.9655C7.41508 17.9916 7.42078 18.0181 7.43491 18.0403C7.44904 18.0625 7.47066 18.0789 7.49584 18.0865Z" fill="white"/>
<path d="M7.37297 16.133C7.43297 16.156 7.45597 16.224 7.43297 16.277L6.82597 17.743C6.80297 17.796 6.73497 17.827 6.68197 17.796C6.62897 17.766 6.59797 17.706 6.62097 17.652L7.22897 16.186C7.25097 16.133 7.31897 16.103 7.37297 16.133Z" fill="#F3F3F3"/>
<path d="M7.37146 16.1245C7.40044 16.1359 7.42384 16.1582 7.43672 16.1865C7.4496 16.2149 7.45094 16.2471 7.44046 16.2765L6.83246 17.7425C6.80946 17.8025 6.74146 17.8265 6.67246 17.8025C6.6439 17.7909 6.6209 17.7687 6.60824 17.7406C6.59558 17.7125 6.59423 17.6806 6.60446 17.6515L7.21246 16.1855C7.24246 16.1255 7.31146 16.0945 7.37246 16.1255M6.68246 17.7895C6.73446 17.8115 6.79546 17.7895 6.81846 17.7365L7.42646 16.2705C7.44846 16.2175 7.41846 16.1635 7.36546 16.1405C7.35294 16.1349 7.33943 16.1318 7.32572 16.1315C7.312 16.1312 7.29836 16.1336 7.2856 16.1387C7.27284 16.1437 7.26121 16.1512 7.2514 16.1608C7.24159 16.1704 7.23379 16.1818 7.22846 16.1945L6.62046 17.6585C6.61364 17.6837 6.61603 17.7106 6.62721 17.7342C6.63838 17.7579 6.65762 17.7767 6.68146 17.7875" fill="white"/>
<path d="M6.34708 16.6217C6.40008 16.6527 6.42308 16.7137 6.40008 16.7667L6.08108 17.3967C6.07436 17.4099 6.06503 17.4216 6.05365 17.4311C6.04228 17.4407 6.02909 17.4478 6.01489 17.4521C6.00069 17.4564 5.98577 17.4578 5.97102 17.4561C5.95628 17.4545 5.94201 17.4499 5.92908 17.4427C5.87608 17.4127 5.85308 17.3517 5.87608 17.2987L6.19608 16.6687C6.20281 16.6557 6.21206 16.6442 6.22328 16.6349C6.2345 16.6255 6.24748 16.6185 6.26144 16.6142C6.2754 16.6099 6.29008 16.6085 6.30461 16.6099C6.31914 16.6114 6.33324 16.6157 6.34608 16.6227" fill="#F3F3F3"/>
<path d="M6.3473 16.6115C6.4083 16.6415 6.4313 16.7105 6.4013 16.7715L6.0813 17.4015C6.07461 17.4156 6.06511 17.4283 6.0534 17.4387C6.04168 17.4491 6.02798 17.457 6.01312 17.4619C5.99826 17.4669 5.98256 17.4688 5.96695 17.4675C5.95134 17.4662 5.93615 17.4618 5.9223 17.4545C5.90801 17.4478 5.89524 17.4383 5.88476 17.4265C5.87428 17.4147 5.86631 17.4009 5.86135 17.3859C5.85639 17.3709 5.85454 17.3551 5.8559 17.3394C5.85727 17.3237 5.86183 17.3084 5.8693 17.2945L6.1883 16.6645C6.19499 16.6502 6.20452 16.6374 6.21631 16.6269C6.22811 16.6165 6.24191 16.6085 6.25689 16.6035C6.27187 16.5986 6.2877 16.5967 6.30342 16.5981C6.31913 16.5995 6.33341 16.604 6.3473 16.6115ZM5.9313 17.4395C5.9843 17.4615 6.0453 17.4465 6.0673 17.3935L6.3873 16.7635C6.4093 16.7175 6.3873 16.6565 6.3413 16.6265C6.2883 16.6035 6.2273 16.6185 6.2043 16.6725L5.8853 17.3025C5.8623 17.3485 5.8853 17.4085 5.9313 17.4395Z" fill="white"/>
<path d="M6.19481 15.4975C6.24781 15.5355 6.26281 15.6045 6.22481 15.6495L5.34381 16.9635C5.31381 17.0175 5.24481 17.0245 5.19181 16.9935C5.13881 16.9565 5.12381 16.8885 5.16181 16.8425L6.04181 15.5285C6.04914 15.5157 6.05916 15.5045 6.07117 15.4959C6.08319 15.4873 6.09692 15.4813 6.11144 15.4785C6.12596 15.4756 6.14092 15.476 6.15531 15.4794C6.16969 15.4829 6.18317 15.4884 6.19481 15.4975Z" fill="#F3F3F3"/>
<path d="M6.19353 15.4907C6.21886 15.5093 6.23657 15.5365 6.24337 15.5672C6.25017 15.598 6.24561 15.6301 6.23053 15.6577L5.35053 16.9717C5.34153 16.9848 5.33003 16.9959 5.31668 17.0045C5.30334 17.0131 5.28842 17.019 5.2728 17.0218C5.25717 17.0246 5.24115 17.0242 5.22565 17.0208C5.21016 17.0173 5.1955 17.0108 5.18253 17.0017C5.15704 16.9832 5.13914 16.956 5.13215 16.9253C5.12516 16.8946 5.12956 16.8624 5.14453 16.8347L6.02553 15.5207C6.03454 15.5076 6.04604 15.4965 6.05939 15.4879C6.07273 15.4793 6.08765 15.4734 6.10327 15.4706C6.1189 15.4678 6.13492 15.4682 6.15041 15.4716C6.16591 15.4751 6.18056 15.4815 6.19353 15.4907ZM5.19053 16.9867C5.23553 17.0167 5.30453 17.0097 5.33453 16.9637L6.21553 15.6497C6.22919 15.6276 6.2337 15.601 6.2281 15.5756C6.2225 15.5502 6.20723 15.528 6.18553 15.5137C6.13953 15.4837 6.07153 15.4907 6.04153 15.5357L5.16053 16.8427C5.14688 16.8662 5.14239 16.8939 5.14793 16.9204C5.15346 16.947 5.16864 16.9706 5.19053 16.9867Z" fill="white"/>
<path d="M5.0868 15.7781C5.1318 15.8161 5.1468 15.8851 5.1088 15.9301L4.6688 16.4851C4.65034 16.5068 4.62418 16.5205 4.59583 16.5233C4.56748 16.5261 4.53915 16.5178 4.5168 16.5001C4.4708 16.4621 4.4568 16.3941 4.4938 16.3481L4.9338 15.7931C4.9523 15.7711 4.97866 15.7572 5.00725 15.7544C5.03584 15.7516 5.06439 15.7601 5.0868 15.7781Z" fill="#F3F3F3"/>
<path d="M5.09193 15.768C5.14493 15.806 5.15293 15.882 5.11493 15.935L4.67493 16.49C4.63693 16.543 4.56093 16.55 4.50693 16.505C4.45393 16.467 4.44693 16.391 4.48493 16.337L4.92493 15.783C4.96293 15.73 5.03893 15.723 5.09193 15.768ZM4.52193 16.49C4.56793 16.527 4.62893 16.52 4.66693 16.474L5.10693 15.92C5.12145 15.8974 5.12723 15.8703 5.12318 15.8438C5.11913 15.8173 5.10553 15.7932 5.08493 15.776C5.03893 15.738 4.97793 15.746 4.93993 15.791L4.49993 16.345C4.46993 16.391 4.47693 16.459 4.52293 16.49" fill="white"/>
<path d="M5.16304 14.6361C5.20804 14.6811 5.20804 14.7501 5.16304 14.7881L4.03904 15.9041C4.02909 15.9141 4.01725 15.9221 4.00421 15.9275C3.99116 15.9329 3.97717 15.9357 3.96304 15.9357C3.94891 15.9357 3.93492 15.9329 3.92187 15.9275C3.90883 15.9221 3.89699 15.9141 3.88704 15.9041C3.84904 15.8671 3.84104 15.7901 3.88704 15.7531L5.00304 14.6361C5.01332 14.6252 5.02572 14.6165 5.03948 14.6106C5.05324 14.6046 5.06806 14.6016 5.08304 14.6016C5.09802 14.6016 5.11284 14.6046 5.1266 14.6106C5.14036 14.6165 5.15276 14.6252 5.16304 14.6361Z" fill="#F3F3F3"/>
<path d="M5.16957 14.6305C5.19155 14.6529 5.20387 14.6831 5.20387 14.7145C5.20387 14.7459 5.19155 14.776 5.16957 14.7985L4.04457 15.9145C4.02218 15.9362 3.99223 15.9483 3.96107 15.9483C3.9299 15.9483 3.89995 15.9362 3.87757 15.9145C3.85588 15.8921 3.84375 15.8621 3.84375 15.831C3.84375 15.7998 3.85588 15.7699 3.87757 15.7475L5.00157 14.6315C5.02395 14.6098 5.0539 14.5977 5.08507 14.5977C5.11623 14.5977 5.14618 14.6098 5.16857 14.6315M3.88457 15.9085C3.90416 15.9266 3.92987 15.9367 3.95657 15.9367C3.98326 15.9367 4.00897 15.9266 4.02857 15.9085L5.15257 14.7915C5.1707 14.7719 5.18077 14.7462 5.18077 14.7195C5.18077 14.6928 5.1707 14.6671 5.15257 14.6475C5.13297 14.6293 5.10726 14.6193 5.08057 14.6193C5.05387 14.6193 5.02816 14.6293 5.00857 14.6475L3.88457 15.7635C3.84657 15.8015 3.84657 15.8625 3.88457 15.9075" fill="white"/>
<path d="M4.0227 14.6984C4.0607 14.7434 4.0607 14.8124 4.0157 14.8504L3.4757 15.3064C3.45323 15.324 3.42482 15.3321 3.39647 15.3291C3.36811 15.3261 3.34202 15.3122 3.3237 15.2904C3.2867 15.2454 3.2867 15.1764 3.3317 15.1384L3.8717 14.6834C3.89398 14.666 3.92209 14.6579 3.9502 14.6607C3.97831 14.6635 4.00427 14.677 4.0227 14.6984Z" fill="#F3F3F3"/>
<path d="M4.03001 14.6892C4.07501 14.7422 4.06801 14.8192 4.02201 14.8562L3.48201 15.3122C3.43701 15.3582 3.36201 15.3502 3.31601 15.2972C3.27001 15.2442 3.27801 15.1672 3.32301 15.1302L3.86301 14.6742C3.90801 14.6292 3.98401 14.6362 4.03001 14.6892ZM3.33001 15.2892C3.36901 15.3352 3.43001 15.3352 3.47501 15.3052L4.01501 14.8492C4.03434 14.8307 4.04583 14.8054 4.04713 14.7786C4.04843 14.7519 4.03945 14.7256 4.02201 14.7052C3.98401 14.6592 3.92301 14.6592 3.87801 14.6892L3.33801 15.1452C3.29301 15.1832 3.29301 15.2442 3.33101 15.2892" fill="white"/>
<path d="M4.32618 13.6042C4.33514 13.6158 4.3415 13.6292 4.34486 13.6435C4.34821 13.6578 4.34848 13.6726 4.34564 13.687C4.3428 13.7014 4.33692 13.715 4.32839 13.7269C4.31986 13.7389 4.30888 13.7489 4.29618 13.7562L2.97418 14.6372C2.92118 14.6672 2.85218 14.6522 2.82218 14.6072C2.81323 14.5956 2.80687 14.5822 2.80351 14.5679C2.80016 14.5536 2.79989 14.5388 2.80273 14.5244C2.80557 14.51 2.81145 14.4964 2.81998 14.4845C2.82851 14.4725 2.83949 14.4625 2.85218 14.4552L4.17418 13.5742C4.22018 13.5442 4.28818 13.5592 4.32618 13.6042Z" fill="#F3F3F3"/>
<path d="M4.33344 13.6051C4.3516 13.6313 4.35864 13.6635 4.35301 13.6949C4.34739 13.7262 4.32956 13.754 4.30344 13.7721L2.98144 14.6521C2.96821 14.6612 2.95326 14.6675 2.93752 14.6705C2.92177 14.6736 2.90556 14.6734 2.8899 14.6699C2.87424 14.6664 2.85946 14.6598 2.84648 14.6504C2.83349 14.6409 2.82259 14.629 2.81444 14.6151C2.79628 14.589 2.78923 14.5567 2.79486 14.5254C2.80049 14.4941 2.81832 14.4663 2.84444 14.4481L4.16644 13.5671C4.17972 13.5581 4.19473 13.5519 4.21052 13.5489C4.22631 13.5459 4.24254 13.5462 4.25821 13.5498C4.27388 13.5534 4.28864 13.5601 4.30158 13.5696C4.31453 13.5792 4.32537 13.5912 4.33344 13.6051ZM2.82944 14.6001C2.85944 14.6451 2.92044 14.6601 2.96644 14.6301L4.28744 13.7491C4.33344 13.7191 4.34844 13.6581 4.31044 13.6051C4.29612 13.5834 4.27391 13.5682 4.24852 13.5626C4.22313 13.557 4.19656 13.5615 4.17444 13.5751L2.85244 14.4551C2.83142 14.4722 2.81745 14.4965 2.81321 14.5232C2.80896 14.55 2.81474 14.5774 2.82944 14.6001Z" fill="white"/>
<path d="M3.19635 13.4462C3.20394 13.4587 3.20898 13.4725 3.21118 13.4869C3.21338 13.5013 3.21269 13.516 3.20915 13.5302C3.20562 13.5443 3.19931 13.5576 3.19058 13.5693C3.18186 13.581 3.17091 13.5908 3.15835 13.5982L2.54235 13.9472C2.48935 13.9772 2.42135 13.9552 2.39135 13.9012C2.38372 13.8888 2.37862 13.8751 2.37635 13.8607C2.37408 13.8463 2.37468 13.8316 2.37812 13.8175C2.38156 13.8034 2.38777 13.79 2.3964 13.7783C2.40502 13.7666 2.41588 13.7567 2.42835 13.7492L3.04435 13.4002C3.09735 13.3702 3.16535 13.3922 3.19635 13.4462Z" fill="#F3F3F3"/>
<path d="M3.20327 13.4374C3.23327 13.4974 3.21827 13.5674 3.16527 13.5974L2.55027 13.9464C2.49727 13.9764 2.42027 13.9544 2.39027 13.9004C2.36027 13.8404 2.37527 13.7714 2.42827 13.7404L3.04427 13.3924C3.09727 13.3624 3.17327 13.3844 3.20427 13.4374M2.39927 13.8934C2.42927 13.9464 2.49027 13.9614 2.53627 13.9314L3.15127 13.5814C3.17256 13.5668 3.18803 13.5452 3.19497 13.5203C3.20192 13.4955 3.1999 13.469 3.18927 13.4454C3.15927 13.3924 3.09827 13.3764 3.05227 13.4074L2.43727 13.7574C2.39227 13.7794 2.37727 13.8404 2.39927 13.8934Z" fill="white"/>
<path d="M3.70321 12.4366C3.72621 12.4966 3.70321 12.5576 3.64321 12.5806L2.17621 13.1886C2.12321 13.2116 2.05521 13.1806 2.03221 13.1276C2.00921 13.0676 2.03221 13.0066 2.09221 12.9836L3.55921 12.3756C3.5726 12.37 3.58695 12.3672 3.60145 12.3672C3.61595 12.3672 3.6303 12.3701 3.64368 12.3756C3.65707 12.3812 3.66921 12.3894 3.67943 12.3997C3.68965 12.41 3.69773 12.4222 3.70321 12.4356" fill="#F3F3F3"/>
<path d="M3.71021 12.4267C3.73321 12.4877 3.71021 12.5567 3.65021 12.5867L2.18421 13.1937C2.155 13.2042 2.12284 13.203 2.09449 13.1903C2.06615 13.1777 2.04382 13.1545 2.03221 13.1257C2.00921 13.0657 2.03221 12.9957 2.09221 12.9657L3.55921 12.3587C3.58842 12.3481 3.62058 12.3493 3.64892 12.362C3.67727 12.3747 3.69859 12.3979 3.71021 12.4267ZM2.04821 13.1177C2.05898 13.1417 2.07802 13.1611 2.10188 13.1723C2.12574 13.1835 2.15283 13.1858 2.17821 13.1787L3.64321 12.5717C3.69621 12.5487 3.71921 12.4877 3.69621 12.4347C3.6853 12.411 3.66634 12.392 3.64271 12.381C3.61909 12.37 3.59233 12.3678 3.56721 12.3747L2.10121 12.9817C2.04821 13.0047 2.02621 13.0647 2.04821 13.1177Z" fill="white"/>
<path d="M2.63073 12.0562C2.65373 12.1162 2.62273 12.1782 2.56273 12.2002L1.89373 12.4202C1.84073 12.4432 1.77273 12.4062 1.75773 12.3522C1.73473 12.2922 1.76473 12.2312 1.82573 12.2082L2.49373 11.9882C2.54673 11.9652 2.60773 11.9952 2.63073 12.0562Z" fill="#F3F3F3"/>
<path d="M2.64132 12.0478C2.64691 12.0628 2.64936 12.0787 2.64852 12.0946C2.64768 12.1106 2.64357 12.1261 2.63644 12.1404C2.62931 12.1547 2.61931 12.1673 2.60707 12.1775C2.59484 12.1878 2.58062 12.1954 2.56532 12.1998L1.89732 12.4198C1.83632 12.4428 1.76732 12.4048 1.74532 12.3438C1.73988 12.329 1.73756 12.3131 1.73848 12.2973C1.7394 12.2815 1.74354 12.2661 1.75067 12.2519C1.75779 12.2378 1.76773 12.2252 1.77988 12.2151C1.79203 12.2049 1.80613 12.1973 1.82132 12.1928L2.48932 11.9728C2.51943 11.9651 2.55133 11.9684 2.57922 11.9822C2.60711 11.9959 2.62914 12.0192 2.64132 12.0478ZM1.76132 12.3368C1.77532 12.3898 1.83632 12.4208 1.88932 12.4048L2.55832 12.1848C2.61132 12.1698 2.63432 12.1088 2.61832 12.0548C2.60332 12.0028 2.54232 11.9718 2.48932 11.9878L1.82132 12.2078C1.79695 12.2179 1.77725 12.2367 1.76614 12.2606C1.75502 12.2845 1.7533 12.3117 1.76132 12.3368Z" fill="white"/>
<path d="M3.31624 11.1507C3.33124 11.2107 3.29324 11.2727 3.23324 11.2807L1.67524 11.5837C1.61524 11.5987 1.56124 11.5537 1.54624 11.4927C1.53124 11.4327 1.56924 11.3707 1.63024 11.3627L3.18724 11.0597C3.24724 11.0517 3.30824 11.0897 3.31624 11.1507Z" fill="#F3F3F3"/>
<path d="M3.33001 11.1517C3.33371 11.1671 3.33432 11.1831 3.33179 11.1988C3.32926 11.2145 3.32365 11.2295 3.31528 11.243C3.30691 11.2564 3.29595 11.2681 3.28303 11.2774C3.27011 11.2866 3.25548 11.2931 3.24001 11.2967L1.68301 11.6007C1.62201 11.6157 1.56101 11.5707 1.54601 11.5017C1.54247 11.4862 1.54201 11.4703 1.54468 11.4546C1.54734 11.439 1.55307 11.4241 1.56153 11.4107C1.56999 11.3973 1.58101 11.3858 1.59397 11.3767C1.60692 11.3675 1.62155 11.3611 1.63701 11.3577L3.19401 11.0537C3.25401 11.0387 3.31601 11.0837 3.33101 11.1527M1.56201 11.4957C1.57001 11.5487 1.62201 11.5857 1.67601 11.5787L3.23301 11.2747C3.28601 11.2677 3.32401 11.2067 3.30901 11.1537C3.30706 11.1407 3.30255 11.1282 3.29576 11.1169C3.28897 11.1056 3.28003 11.0958 3.26944 11.088C3.25885 11.0802 3.24682 11.0746 3.23405 11.0714C3.22128 11.0683 3.20801 11.0677 3.19501 11.0697L1.63801 11.3737C1.58501 11.3887 1.54701 11.4427 1.56201 11.4957Z" fill="white"/>
<path d="M2.34205 10.5646C2.35005 10.6246 2.31205 10.6786 2.25105 10.6866L1.55205 10.7696C1.5376 10.7711 1.52298 10.7697 1.50905 10.7656C1.49512 10.7614 1.48216 10.7545 1.47091 10.7453C1.45965 10.7361 1.45034 10.7247 1.4435 10.7119C1.43666 10.6991 1.43243 10.685 1.43105 10.6706C1.42879 10.6567 1.42934 10.6425 1.43267 10.6288C1.436 10.6152 1.44204 10.6023 1.45044 10.591C1.45883 10.5797 1.46941 10.5702 1.48154 10.5631C1.49367 10.556 1.50711 10.5514 1.52105 10.5496L2.22105 10.4656C2.27405 10.4586 2.33405 10.5036 2.34205 10.5656" fill="#F3F3F3"/>
<path d="M2.35269 10.5673C2.36069 10.6353 2.31469 10.6973 2.25469 10.7043L1.55469 10.7873C1.5238 10.7895 1.49322 10.7798 1.46937 10.76C1.44551 10.7402 1.43022 10.712 1.42669 10.6813C1.41869 10.6133 1.46469 10.5523 1.52469 10.5443L2.22469 10.4613C2.25558 10.459 2.28615 10.4688 2.31001 10.4885C2.33386 10.5083 2.34916 10.5365 2.35269 10.5673ZM1.43369 10.6733C1.44169 10.7273 1.49469 10.7733 1.54769 10.7653L2.24669 10.6813C2.2597 10.6793 2.27219 10.6748 2.28346 10.668C2.29472 10.6612 2.30454 10.6523 2.31234 10.6417C2.32014 10.6311 2.32578 10.6191 2.32893 10.6063C2.33208 10.5935 2.33267 10.5803 2.33069 10.5673C2.32269 10.5143 2.26969 10.4683 2.21669 10.4763L1.51669 10.5603C1.4906 10.5644 1.46722 10.5788 1.45167 10.6001C1.43612 10.6215 1.42966 10.6481 1.43369 10.6743" fill="white"/>
<path d="M3.19453 9.82884C3.19453 9.88884 3.14853 9.94284 3.08753 9.94284H1.50053C1.44053 9.94284 1.39453 9.88884 1.39453 9.82884C1.39453 9.76884 1.43953 9.71484 1.50053 9.71484H3.08753C3.14853 9.71484 3.19453 9.76784 3.19453 9.82884Z" fill="#F3F3F3"/>
<path d="M3.20172 9.82903C3.20172 9.89703 3.14872 9.95003 3.08772 9.95003H1.50072C1.43972 9.95003 1.38672 9.89703 1.38672 9.82903C1.38672 9.76003 1.43972 9.70703 1.50072 9.70703H3.08772C3.14772 9.70703 3.20172 9.76003 3.20172 9.82903ZM1.40172 9.82103C1.40172 9.87403 1.44672 9.92703 1.50072 9.92703H3.08772C3.14072 9.92703 3.18672 9.88203 3.18672 9.82103C3.18672 9.76803 3.14072 9.71503 3.08772 9.71503H1.50072C1.44672 9.72203 1.40172 9.76803 1.40172 9.82103Z" fill="white"/>
<path d="M2.3504 9.06172C2.3424 9.12172 2.2964 9.16772 2.2364 9.16772L1.5294 9.11472C1.51483 9.11335 1.50068 9.10909 1.48778 9.10219C1.47488 9.09528 1.46349 9.08588 1.45427 9.07451C1.44505 9.06315 1.43819 9.05007 1.43409 9.03602C1.42999 9.02198 1.42874 9.00726 1.4304 8.99272C1.4384 8.93272 1.4844 8.88672 1.5444 8.88672L2.2514 8.93972C2.3044 8.94772 2.3504 9.00072 2.3504 9.06172Z" fill="#E2E2E2"/>
<path d="M2.36057 9.06091C2.35831 9.09177 2.34449 9.12065 2.32188 9.14178C2.29927 9.16291 2.26952 9.17474 2.23857 9.17491L1.53257 9.12191C1.47257 9.11491 1.41857 9.06191 1.42657 8.99291C1.42882 8.96221 1.4425 8.93347 1.4649 8.91237C1.4873 8.89126 1.5168 8.87932 1.54757 8.87891L2.25357 8.93191C2.31457 8.93991 2.36057 8.99991 2.36057 9.06091ZM1.43357 8.99391C1.43205 9.00699 1.43324 9.02026 1.43706 9.03287C1.44088 9.04547 1.44726 9.05716 1.4558 9.0672C1.46433 9.07724 1.47485 9.08541 1.48668 9.09121C1.49851 9.09701 1.51141 9.10031 1.52457 9.10091L2.23157 9.15391C2.28457 9.15391 2.32957 9.11591 2.33757 9.05391C2.3388 9.04097 2.3374 9.02793 2.33344 9.01555C2.32949 9.00318 2.32306 8.99174 2.31455 8.98192C2.30604 8.97211 2.29563 8.96412 2.28395 8.95844C2.27226 8.95277 2.25955 8.94952 2.24657 8.94891L1.53957 8.89491C1.48657 8.89491 1.44157 8.94091 1.43357 8.99491" fill="white"/>
<path d="M3.33119 8.50768C3.32494 8.53602 3.30839 8.56103 3.28473 8.57785C3.26108 8.59466 3.23202 8.60209 3.20319 8.59868L1.64619 8.27968C1.58519 8.26468 1.54619 8.21168 1.56219 8.14968C1.56868 8.12114 1.58562 8.09606 1.60969 8.0794C1.63376 8.06274 1.66319 8.0557 1.69219 8.05968L3.24819 8.37068C3.30119 8.38568 3.33919 8.44668 3.33219 8.50768" fill="#F3F3F3"/>
<path d="M3.33882 8.50762C3.33274 8.53839 3.31522 8.56571 3.2898 8.58408C3.26438 8.60245 3.23294 8.6105 3.20182 8.60662L1.64482 8.29462C1.62936 8.29119 1.61473 8.28474 1.60178 8.27564C1.58882 8.26653 1.5778 8.25495 1.56934 8.24157C1.56088 8.22818 1.55515 8.21325 1.55249 8.19764C1.54983 8.18203 1.55028 8.16605 1.55382 8.15062C1.5599 8.12004 1.57726 8.09288 1.60247 8.07453C1.62767 8.05618 1.65886 8.048 1.68982 8.05162L3.24782 8.36362C3.30782 8.37862 3.34682 8.43962 3.33882 8.50762ZM1.56782 8.15062C1.56401 8.17653 1.56957 8.20296 1.5835 8.22514C1.59743 8.24732 1.61882 8.2638 1.64382 8.27162L3.20082 8.58362C3.22781 8.58706 3.25511 8.58037 3.27746 8.56486C3.2998 8.54935 3.31561 8.5261 3.32182 8.49962C3.32563 8.4737 3.32008 8.44728 3.30614 8.4251C3.29221 8.40292 3.27082 8.38643 3.24582 8.37862L1.68982 8.06662C1.62982 8.05962 1.58382 8.09662 1.56882 8.15062" fill="white"/>
<path d="M2.64584 7.59595C2.63873 7.62494 2.62044 7.64994 2.59496 7.66549C2.56947 7.68104 2.53887 7.68588 2.50984 7.67895L1.82584 7.48895C1.76584 7.47395 1.73484 7.41295 1.74984 7.35195C1.75335 7.33748 1.75969 7.32386 1.76849 7.31185C1.77728 7.29984 1.78836 7.28969 1.80109 7.28198C1.81382 7.27427 1.82795 7.26914 1.84267 7.26691C1.85738 7.26467 1.87239 7.26536 1.88684 7.26895L2.56984 7.45895C2.63084 7.47395 2.66084 7.53595 2.64584 7.59595Z" fill="#F3F3F3"/>
<path d="M2.65669 7.59784C2.64169 7.65784 2.57369 7.70384 2.51269 7.68184L1.82869 7.49184C1.79894 7.48319 1.77369 7.46338 1.75822 7.43654C1.74275 7.4097 1.73826 7.37792 1.74569 7.34784C1.76069 7.28684 1.82869 7.24084 1.88969 7.26384L2.57369 7.45384C2.63369 7.46884 2.67169 7.52984 2.65669 7.59784ZM1.76769 7.34784C1.75269 7.40084 1.78369 7.46084 1.83669 7.47584L2.51969 7.66584C2.57369 7.68184 2.62669 7.65084 2.64169 7.58984C2.65669 7.53684 2.62669 7.47584 2.57369 7.46084L1.88969 7.27084C1.86362 7.26677 1.83695 7.27221 1.81456 7.28616C1.79216 7.30011 1.77553 7.32265 1.76769 7.34784Z" fill="white"/>
<path d="M3.71789 7.23292C3.71241 7.24646 3.70429 7.25878 3.694 7.26915C3.68372 7.27952 3.67147 7.28774 3.65797 7.29332C3.64447 7.29891 3.62999 7.30175 3.61539 7.30168C3.60078 7.30161 3.58633 7.29863 3.57289 7.29292L2.10689 6.68592C2.05389 6.66292 2.02389 6.59492 2.04689 6.54192C2.05227 6.52841 2.06029 6.5161 2.07046 6.50571C2.08063 6.49531 2.09277 6.48704 2.10616 6.48137C2.11955 6.4757 2.13393 6.47274 2.14848 6.47266C2.16302 6.47258 2.17744 6.47539 2.19089 6.48092L3.65689 7.08892C3.71689 7.11092 3.74089 7.17892 3.71689 7.23292" fill="#F3F3F3"/>
<path d="M3.72583 7.23996C3.71422 7.26876 3.69189 7.29193 3.66355 7.30461C3.6352 7.3173 3.60304 7.31849 3.57383 7.30796L2.10783 6.69996C2.04783 6.67796 2.02483 6.60996 2.04783 6.53996C2.05945 6.51116 2.08177 6.48799 2.11012 6.47531C2.13846 6.46262 2.17062 6.46143 2.19983 6.47196L3.66583 7.07996C3.72583 7.10996 3.74883 7.17896 3.72583 7.23996ZM2.06283 6.54796C2.0572 6.56042 2.0541 6.57387 2.05372 6.58754C2.05334 6.60121 2.05569 6.61482 2.06062 6.62757C2.06555 6.64032 2.07298 6.65196 2.08245 6.66182C2.09193 6.67167 2.10328 6.67954 2.11583 6.68496L3.58183 7.29296C3.63483 7.31596 3.68783 7.28496 3.71183 7.23196C3.71744 7.21944 3.72049 7.20593 3.7208 7.19221C3.72111 7.1785 3.71868 7.16486 3.71365 7.1521C3.70862 7.13934 3.70109 7.12771 3.69151 7.1179C3.68192 7.10809 3.67047 7.10029 3.65783 7.09496L2.19183 6.48796C2.13883 6.47196 2.07883 6.49496 2.06283 6.54796Z" fill="white"/>
<path d="M3.22494 6.20646C3.19494 6.25946 3.13294 6.28246 3.07994 6.25946L2.44994 5.93946C2.39694 5.91746 2.37394 5.84946 2.40394 5.78846C2.43394 5.73546 2.49494 5.71246 2.54894 5.73546L3.17894 6.05446C3.23194 6.08446 3.25494 6.15346 3.22494 6.20646Z" fill="#F3F3F3"/>
<path d="M3.23141 6.21549C3.22472 6.22978 3.21519 6.24255 3.2034 6.25303C3.1916 6.26351 3.17779 6.27148 3.16282 6.27644C3.14784 6.2814 3.13201 6.28325 3.11629 6.28189C3.10058 6.28052 3.0853 6.27596 3.07141 6.26849L2.44141 5.94849C2.42725 5.94179 2.41459 5.9323 2.4042 5.92058C2.39381 5.90886 2.38591 5.89516 2.38095 5.88031C2.376 5.86545 2.37411 5.84974 2.37539 5.83414C2.37667 5.81853 2.3811 5.80334 2.38841 5.78949C2.39509 5.7752 2.40463 5.76242 2.41642 5.75194C2.42821 5.74147 2.44202 5.7335 2.457 5.72854C2.47197 5.72358 2.4878 5.72173 2.50352 5.72309C2.51924 5.72446 2.53451 5.72902 2.54841 5.73649L3.17841 6.05649C3.23941 6.07849 3.26241 6.15449 3.23141 6.21549ZM2.41141 5.79749C2.38841 5.85049 2.40441 5.91149 2.45741 5.93449L3.08741 6.25349C3.13341 6.27549 3.19441 6.25349 3.22441 6.20749C3.24741 6.15449 3.23141 6.09349 3.17841 6.07049L2.54041 5.75149C2.52899 5.74564 2.51649 5.74219 2.50369 5.74135C2.49089 5.74051 2.47805 5.74229 2.46596 5.7466C2.45388 5.75091 2.4428 5.75765 2.43342 5.7664C2.42404 5.77515 2.41655 5.78573 2.41141 5.79749Z" fill="white"/>
<path d="M4.34181 6.06103C4.30381 6.11403 4.24281 6.12903 4.18981 6.09103L2.87581 5.21903C2.82281 5.18903 2.81581 5.11903 2.84581 5.06703C2.85316 5.05433 2.86313 5.04335 2.87507 5.03482C2.887 5.0263 2.90062 5.02041 2.91501 5.01757C2.9294 5.01473 2.94423 5.015 2.95851 5.01836C2.97279 5.02171 2.98619 5.02808 2.99781 5.03703L4.31881 5.91703C4.36481 5.94703 4.37981 6.01703 4.34181 6.06203" fill="#F3F3F3"/>
<path d="M4.34935 6.07144C4.33084 6.09693 4.30371 6.11484 4.27299 6.12183C4.24227 6.12882 4.21006 6.12442 4.18235 6.10944L2.86835 5.22944C2.85527 5.22044 2.84412 5.20893 2.83552 5.19559C2.82693 5.18225 2.82107 5.16733 2.81827 5.1517C2.81548 5.13608 2.81582 5.12006 2.81927 5.10456C2.82271 5.08907 2.8292 5.07441 2.83835 5.06144C2.85685 5.03595 2.88399 5.01804 2.9147 5.01105C2.94542 5.00406 2.97763 5.00847 3.00535 5.02344L4.31935 5.90444C4.37935 5.94244 4.38735 6.01844 4.34935 6.07144ZM2.85335 5.06944C2.82335 5.11444 2.83035 5.18344 2.87535 5.21344L4.19735 6.09444C4.24335 6.12444 4.30335 6.10944 4.33435 6.06444C4.36435 6.01844 4.35735 5.95044 4.31135 5.91944L2.98935 5.03944C2.96722 5.02578 2.94065 5.02127 2.91527 5.02687C2.88988 5.03247 2.86767 5.04774 2.85335 5.06944Z" fill="white"/>
<path d="M4.06112 4.96105C4.02312 5.00705 3.95512 5.02205 3.90912 4.98405L3.35512 4.55205C3.33342 4.53359 3.31974 4.50743 3.31694 4.47908C3.31414 4.45073 3.32245 4.4224 3.34012 4.40005C3.37812 4.35405 3.44612 4.33905 3.49212 4.37705L4.04612 4.81005C4.06782 4.82851 4.0815 4.85467 4.0843 4.88302C4.0871 4.91137 4.07879 4.9387 4.06112 4.96105Z" fill="#F3F3F3"/>
<path d="M4.06877 4.96694C4.03077 5.01994 3.95477 5.02794 3.90177 4.98994L3.34677 4.55694C3.29377 4.51894 3.28677 4.44294 3.32477 4.38994C3.36277 4.33694 3.43877 4.32994 3.49177 4.36694L4.04577 4.79994C4.09877 4.83794 4.10577 4.91394 4.06877 4.96694ZM3.33877 4.39694C3.30177 4.44294 3.30877 4.50394 3.35477 4.54194L3.90877 4.97494C3.95477 5.00494 4.01577 4.99794 4.05377 4.95194C4.09177 4.90694 4.08377 4.84594 4.03877 4.80794L3.48377 4.37494C3.4611 4.36053 3.43394 4.35491 3.40741 4.35915C3.38089 4.36339 3.35683 4.37718 3.33977 4.39794" fill="white"/>
<path d="M5.19338 5.03688C5.14738 5.08288 5.07938 5.08288 5.04138 5.03688L3.90938 3.92087C3.88982 3.90041 3.87891 3.87319 3.87891 3.84487C3.87891 3.81656 3.88982 3.78934 3.90938 3.76887C3.95538 3.72287 4.02338 3.72287 4.06138 3.76887L5.18538 4.88488C5.20605 4.90429 5.21843 4.93095 5.21992 4.95927C5.22141 4.98759 5.2119 5.01539 5.19338 5.03688Z" fill="#F3F3F3"/>
<path d="M5.19349 5.04387C5.1711 5.06555 5.14116 5.07768 5.10999 5.07768C5.07882 5.07768 5.04888 5.06555 5.02649 5.04387L3.90149 3.92887C3.8795 3.90643 3.86719 3.87628 3.86719 3.84487C3.86719 3.81345 3.8795 3.7833 3.90149 3.76087C3.92392 3.73888 3.95408 3.72656 3.98549 3.72656C4.0169 3.72656 4.04706 3.73888 4.06949 3.76087L5.19349 4.87787C5.206 4.88789 5.2161 4.9006 5.22304 4.91505C5.22998 4.92951 5.23358 4.94533 5.23358 4.96137C5.23358 4.9774 5.22998 4.99323 5.22304 5.00768C5.2161 5.02213 5.206 5.03384 5.19349 5.04387ZM3.91749 3.77587C3.89914 3.79535 3.88892 3.8211 3.88892 3.84787C3.88892 3.87463 3.89914 3.90038 3.91749 3.91987L5.04149 5.03587C5.06097 5.05422 5.08673 5.06444 5.11349 5.06444C5.14025 5.06444 5.16601 5.05422 5.18549 5.03587C5.20384 5.01638 5.21406 4.99063 5.21406 4.96387C5.21406 4.9371 5.20384 4.91135 5.18549 4.89187L4.06149 3.76887C4.02349 3.73087 3.96249 3.73087 3.91749 3.77687" fill="white"/>
<path d="M5.12309 3.90707C5.07709 3.94507 5.00909 3.94507 4.97109 3.89907L4.50809 3.36707C4.49042 3.34472 4.48211 3.31639 4.48491 3.28804C4.4877 3.25969 4.50139 3.23353 4.52309 3.21507C4.56809 3.17707 4.63709 3.17707 4.67509 3.22307L5.13809 3.75507C5.17609 3.79307 5.16809 3.86107 5.12309 3.90707Z" fill="#F3F3F3"/>
<path d="M5.12987 3.90398C5.10659 3.92475 5.07613 3.93564 5.04496 3.93433C5.01378 3.93303 4.98434 3.91963 4.96287 3.89698L4.49887 3.36498C4.45287 3.31998 4.46087 3.24398 4.51387 3.19798C4.53728 3.17733 4.56782 3.16661 4.599 3.16811C4.63018 3.1696 4.65955 3.18318 4.68087 3.20598L5.14387 3.73698C5.18187 3.78998 5.18287 3.86698 5.12987 3.90398ZM4.52087 3.21398C4.47587 3.25098 4.47587 3.31198 4.50587 3.35798L4.96987 3.88898C4.98832 3.90845 5.01351 3.92012 5.04028 3.92161C5.06706 3.9231 5.09339 3.91428 5.11387 3.89698C5.15887 3.85898 5.15887 3.79798 5.12887 3.75298L4.66587 3.22098C4.62787 3.17498 4.56587 3.17598 4.52087 3.21398Z" fill="white"/>
<path d="M6.21676 4.19318C6.20514 4.20213 6.19175 4.2085 6.17747 4.21186C6.16319 4.21521 6.14835 4.21548 6.13396 4.21264C6.11957 4.2098 6.10596 4.20392 6.09402 4.19539C6.08209 4.18686 6.07211 4.17588 6.06476 4.16318L5.17576 2.84918C5.14576 2.79618 5.16076 2.72718 5.20576 2.69718C5.21738 2.68823 5.23078 2.68187 5.24506 2.67851C5.25934 2.67516 5.27417 2.67489 5.28856 2.67773C5.30295 2.68057 5.31657 2.68645 5.32851 2.69498C5.34044 2.70351 5.35042 2.71449 5.35776 2.72718L6.23876 4.04118C6.24751 4.05253 6.25389 4.06551 6.25752 4.07937C6.26115 4.09322 6.26197 4.10766 6.25992 4.12184C6.25787 4.13601 6.25299 4.14963 6.24558 4.16189C6.23816 4.17414 6.22837 4.18478 6.21676 4.19318Z" fill="#F3F3F3"/>
<path d="M6.21599 4.20144C6.18986 4.2196 6.15759 4.22664 6.12628 4.22101C6.09496 4.21539 6.06716 4.19756 6.04899 4.17144L5.16899 2.85644C5.15991 2.84321 5.15364 2.82826 5.15058 2.81252C5.14753 2.79677 5.14774 2.78056 5.15121 2.7649C5.15468 2.74924 5.16133 2.73446 5.17075 2.72148C5.18018 2.70849 5.19217 2.69759 5.20599 2.68944C5.23211 2.67128 5.26438 2.66423 5.2957 2.66986C5.32702 2.67549 5.35482 2.69332 5.37299 2.71944L6.25399 4.03444C6.29199 4.09444 6.27699 4.16344 6.21599 4.20144ZM5.21399 2.70544C5.19229 2.71976 5.17702 2.74197 5.17142 2.76736C5.16582 2.79274 5.17033 2.81932 5.18399 2.84144L6.06399 4.15544C6.09399 4.20144 6.15499 4.20844 6.20799 4.17844C6.22996 4.1641 6.24542 4.14171 6.25103 4.11608C6.25664 4.09045 6.25196 4.06364 6.23799 4.04144L5.35799 2.73544C5.34192 2.71354 5.31832 2.69837 5.29174 2.69283C5.26515 2.68729 5.23746 2.69178 5.21399 2.70544Z" fill="white"/>
<path d="M6.37857 3.07064C6.36612 3.07823 6.35229 3.08327 6.33788 3.08547C6.32346 3.08767 6.30876 3.08698 6.29462 3.08344C6.28047 3.07991 6.26717 3.07359 6.25549 3.06487C6.24381 3.05615 6.23398 3.04519 6.22657 3.03264L5.87657 2.41764C5.84657 2.36464 5.86957 2.29564 5.92357 2.26564C5.93597 2.25821 5.94972 2.25329 5.96403 2.25118C5.97834 2.24907 5.99292 2.2498 6.00695 2.25333C6.02097 2.25686 6.03416 2.26312 6.04577 2.27175C6.05737 2.28038 6.06716 2.29122 6.07457 2.30364L6.42457 2.91864C6.44757 2.97164 6.43157 3.04064 6.37857 3.07064Z" fill="#F3F3F3"/>
<path d="M6.37631 3.079C6.31531 3.109 6.24631 3.094 6.21631 3.041L5.86631 2.425C5.83631 2.372 5.85231 2.296 5.91231 2.265C5.97331 2.235 6.04231 2.251 6.07231 2.304L6.42231 2.919C6.45231 2.972 6.43631 3.041 6.37631 3.079ZM5.92031 2.273C5.87431 2.303 5.85231 2.365 5.88231 2.41L6.23231 3.025C6.26231 3.071 6.32231 3.086 6.36831 3.063C6.41431 3.033 6.43631 2.973 6.40631 2.927L6.05631 2.311C6.03431 2.266 5.96631 2.243 5.92031 2.273Z" fill="white"/>
<path d="M7.38792 3.57033C7.32792 3.59333 7.26692 3.57033 7.24392 3.51733L6.62892 2.05133C6.60592 1.99833 6.63592 1.92933 6.68892 1.90733C6.74992 1.88433 6.81092 1.90733 6.83392 1.96033L7.44892 3.42633C7.47192 3.47933 7.43992 3.54733 7.38792 3.57033Z" fill="#F3F3F3"/>
<path d="M7.38759 3.5784C7.32759 3.6004 7.25759 3.5784 7.22759 3.5174L6.61259 2.0514C6.60205 2.02219 6.60325 1.99003 6.61593 1.96168C6.62861 1.93334 6.65179 1.91101 6.68059 1.8994C6.74159 1.8764 6.81059 1.8994 6.84059 1.9594L7.45559 3.4264C7.47859 3.4794 7.44859 3.5474 7.38759 3.5784ZM6.69659 1.9144C6.64359 1.9374 6.62059 1.9984 6.64359 2.0444L7.25859 3.5094C7.28059 3.5624 7.34159 3.5854 7.39459 3.5624C7.44859 3.5404 7.47059 3.4794 7.44859 3.4334L6.83258 1.9674C6.80258 1.9144 6.74959 1.8914 6.69659 1.9144Z" fill="white"/>
<path d="M7.75757 2.49172C7.69757 2.51372 7.63557 2.48372 7.61357 2.42272L7.39357 1.75472C7.37057 1.70172 7.40857 1.63272 7.46157 1.61772C7.51457 1.60272 7.58257 1.62572 7.60557 1.68672L7.82557 2.35472C7.84857 2.40772 7.81857 2.46872 7.75757 2.49172Z" fill="#F3F3F3"/>
<path d="M7.76551 2.50146C7.7363 2.51199 7.70414 2.5108 7.6758 2.49811C7.64745 2.48543 7.62513 2.46226 7.61351 2.43346L7.39351 1.76446C7.37051 1.70446 7.40851 1.63546 7.46851 1.61246C7.49785 1.60198 7.53011 1.60332 7.55847 1.6162C7.58684 1.62908 7.60909 1.65248 7.62051 1.68146L7.84051 2.34946C7.84826 2.37958 7.84495 2.41148 7.83119 2.43936C7.81743 2.46725 7.79413 2.48928 7.76551 2.50146ZM7.46851 1.62846C7.41551 1.64346 7.38551 1.70346 7.40051 1.75746L7.62051 2.42546C7.63551 2.47846 7.69651 2.50146 7.75051 2.48546C7.80351 2.47146 7.83351 2.41046 7.81851 2.35746L7.59851 1.68846C7.59456 1.67554 7.58792 1.66359 7.57903 1.65341C7.57015 1.64323 7.55921 1.63503 7.54694 1.62937C7.53467 1.62371 7.52134 1.6207 7.50782 1.62054C7.49431 1.62038 7.48091 1.62308 7.46851 1.62846Z" fill="white"/>
<path d="M8.65403 3.18406C8.59403 3.19906 8.53303 3.16106 8.52503 3.10006L8.20603 1.54306C8.19103 1.48306 8.23603 1.42906 8.29703 1.41306C8.35803 1.39906 8.41903 1.43706 8.42703 1.49806L8.74503 3.05506C8.74807 3.08379 8.74065 3.11266 8.72411 3.13636C8.70758 3.16006 8.68305 3.177 8.65503 3.18406" fill="#F3F3F3"/>
<path d="M8.6544 3.18925C8.63897 3.19295 8.62295 3.19356 8.60728 3.19103C8.59161 3.1885 8.5766 3.18289 8.56311 3.17452C8.54963 3.16615 8.53794 3.15519 8.52872 3.14227C8.5195 3.12934 8.51293 3.11472 8.5094 3.09925L8.1904 1.54225C8.1754 1.48125 8.2204 1.41225 8.2824 1.40525C8.3504 1.39025 8.4114 1.43525 8.4264 1.49625L8.7454 3.05325C8.7604 3.11425 8.7224 3.17425 8.6544 3.18925ZM8.2974 1.42125C8.2444 1.42925 8.2064 1.48125 8.2134 1.54325L8.5334 3.10025C8.5404 3.15325 8.6014 3.19025 8.6534 3.17625C8.7074 3.16825 8.7454 3.11525 8.7374 3.05425L8.4184 1.49625C8.41059 1.47125 8.3941 1.44986 8.37192 1.43593C8.34974 1.422 8.32332 1.41644 8.2974 1.42025" fill="white"/>
<path d="M9.23233 2.19722C9.20319 2.20116 9.17364 2.19399 9.14955 2.17712C9.12546 2.16026 9.1086 2.13495 9.10233 2.10622L9.01233 1.40722C9.01081 1.39283 9.01213 1.37829 9.01624 1.36442C9.02034 1.35056 9.02714 1.33763 9.03624 1.32639C9.04534 1.31515 9.05657 1.30582 9.06928 1.29893C9.082 1.29203 9.09595 1.28771 9.11033 1.28622C9.17133 1.27822 9.22433 1.31622 9.24033 1.37622L9.33033 2.07622C9.33186 2.0906 9.33053 2.10514 9.32643 2.11901C9.32232 2.13288 9.31553 2.1458 9.30642 2.15704C9.29732 2.16828 9.28609 2.17761 9.27338 2.18451C9.26066 2.1914 9.24672 2.19572 9.23233 2.19722Z" fill="#F3F3F3"/>
<path d="M9.23239 2.20214C9.16339 2.20914 9.10239 2.16414 9.09539 2.10214L9.00439 1.40414C9.00158 1.37292 9.0111 1.34184 9.0309 1.31755C9.05071 1.29325 9.07924 1.27767 9.11039 1.27414C9.17839 1.26714 9.24039 1.31314 9.24739 1.37414L9.33739 2.07214C9.34022 2.10321 9.33084 2.13416 9.31124 2.15842C9.29164 2.18269 9.26336 2.19837 9.23239 2.20214ZM9.11839 1.29014C9.06439 1.29814 9.01839 1.35014 9.02639 1.40414L9.11839 2.10314C9.12539 2.15614 9.17839 2.19314 9.23239 2.18614C9.28539 2.17914 9.33039 2.12614 9.32239 2.07214L9.23239 1.37414C9.23044 1.36113 9.22594 1.34864 9.21915 1.33737C9.21236 1.32611 9.20341 1.31629 9.19282 1.30849C9.18223 1.30069 9.1702 1.29505 9.15743 1.2919C9.14466 1.28875 9.13139 1.28815 9.11839 1.29014Z" fill="white"/>
<path d="M10.0555 18.8376C11.2365 18.8376 12.4059 18.605 13.497 18.153C14.5881 17.7011 15.5794 17.0387 16.4145 16.2036C17.2496 15.3685 17.912 14.3771 18.3639 13.286C18.8159 12.195 19.0485 11.0255 19.0485 9.84456C19.0485 8.66358 18.8159 7.49417 18.3639 6.40309C17.912 5.31201 17.2496 4.32063 16.4145 3.48555C15.5794 2.65047 14.5881 1.98805 13.497 1.53611C12.4059 1.08417 11.2365 0.851562 10.0555 0.851563C7.67041 0.851563 5.383 1.79904 3.69649 3.48555C2.00997 5.17207 1.0625 7.45947 1.0625 9.84456C1.0625 12.2297 2.00997 14.5171 3.69649 16.2036C5.383 17.8901 7.67041 18.8376 10.0555 18.8376Z" fill="url(#paint2_linear_4304_85)" fill-opacity="0.2"/>
<path d="M16.2804 4.14062L9.02638 8.79063H9.01938V8.79763L9.01137 8.80463L4.48438 16.2716L11.1384 10.9166L11.1464 10.9086V10.9016L16.2804 4.14062Z" fill="black" fill-opacity="0.05"/>
<path d="M16.1466 3.70703L8.97656 8.80303L11.1026 10.915L16.1466 3.70703Z" fill="#CD151E"/>
<path d="M8.98047 8.78903L10.0515 9.84403L16.1435 3.70703L8.98047 8.78903Z" fill="#FA5153"/>
<path d="M8.9805 8.78906L11.1075 10.8991L3.9375 15.9961L8.9805 8.78906Z" fill="#ACACAC"/>
<path d="M3.9375 15.9971L10.0525 9.84506L8.9815 8.78906L3.9375 15.9971Z" fill="#EEEEEE"/>
</g>
<defs>
<linearGradient id="paint0_linear_4304_85" x1="10.0003" y1="19.5739" x2="10.0003" y2="0.128906" gradientUnits="userSpaceOnUse">
<stop offset="0.25" stop-color="#DBDBDA"/>
<stop offset="1" stop-color="white"/>
</linearGradient>
<radialGradient id="paint1_radial_4304_85" cx="0" cy="0" r="1" gradientUnits="userSpaceOnUse" gradientTransform="translate(11.2643 7.87738) scale(10.9773 10.9773)">
<stop stop-color="#2ABCE1"/>
<stop offset="0.114" stop-color="#2ABBE1"/>
<stop offset="1" stop-color="#3375F8"/>
</radialGradient>
<linearGradient id="paint2_linear_4304_85" x1="9.8845" y1="7.27256" x2="5.6865" y2="14.8036" gradientUnits="userSpaceOnUse">
<stop stop-opacity="0"/>
<stop offset="1"/>
</linearGradient>
<clipPath id="clip0_4304_85">
<rect width="20" height="20" fill="white"/>
</clipPath>
</defs>
</svg>
