<svg width="50" height="42" viewBox="0 0 50 42" fill="none" xmlns="http://www.w3.org/2000/svg">
<path fill-rule="evenodd" clip-rule="evenodd" d="M4.03003 0.936035L5.84407 7.96479L15.8927 11.2861L18.9496 6.75366L24.91 9.31871L30.8705 6.75366L33.9221 11.2967L43.9707 7.97537L45.7847 0.936035L49.8148 10.8154L39.9036 18.1721L46.8954 23.2599L39.9036 24.6561L36.4924 24.0479V28.0356L32.0234 33.5306L31.1666 37.5448L24.91 41.1306L18.6534 37.5448L17.7967 33.5306L13.2801 28.0356V24.0479L9.89526 24.6561L2.92468 23.2599L9.91641 18.1721L0 10.8154L4.03003 0.936035ZM22.2128 16.0672H19.2299V17.7648H20.0285C20.1783 17.7662 20.3263 17.7972 20.4641 17.8559C20.6019 17.9147 20.7267 18.0001 20.8314 18.1072C20.936 18.2144 21.0185 18.3411 21.0741 18.4802C21.1296 18.6193 21.1571 18.768 21.155 18.9178V24.4075C21.155 24.7096 21.0354 24.9994 20.8223 25.2134C20.6092 25.4275 20.32 25.5485 20.0179 25.5499H19.2299V27.2634H22.2128V29.2256H23.7994V27.2634H24.91V29.2256H26.4967V27.2634H27.8876C28.7182 27.2552 29.5125 26.9216 30.0998 26.3342C30.6872 25.7468 31.0209 24.9526 31.0291 24.1219C31.0247 23.4936 30.8339 22.8808 30.4808 22.3611C30.1277 21.8414 29.6283 21.4381 29.0458 21.2025C29.4028 20.9379 29.6929 20.5935 29.8931 20.1968C30.0933 19.8001 30.198 19.3621 30.1988 18.9178C30.1974 18.1622 29.8966 17.4379 29.3623 16.9036C28.828 16.3693 28.1038 16.0686 27.3481 16.0672H26.4967V14.1579H24.91V16.046H23.7994V14.1579H22.2128V16.046V16.0672ZM23.7994 17.786V20.753H26.0947C26.4879 20.7516 26.8646 20.5944 27.1422 20.3158C27.4197 20.0373 27.5756 19.6601 27.5756 19.2669C27.5742 18.8745 27.4177 18.4987 27.1403 18.2213C26.8629 17.9439 26.487 17.7874 26.0947 17.786H23.7994ZM23.7994 22.3819V25.4706H26.3697C26.7789 25.4692 27.1709 25.306 27.4602 25.0167C27.7495 24.7274 27.9126 24.3354 27.914 23.9262C27.9113 23.5175 27.7477 23.1263 27.4587 22.8373C27.1696 22.5483 26.7784 22.3847 26.3697 22.3819H23.7994Z" fill="#fff"/>
</svg>
