<?xml version="1.0" standalone="no"?>
<!DOCTYPE svg PUBLIC "-//W3C//DTD SVG 20010904//EN"
 "http://www.w3.org/TR/2001/REC-SVG-20010904/DTD/svg10.dtd">
<svg version="1.0" xmlns="http://www.w3.org/2000/svg"
 width="300.000000pt" height="300.000000pt" viewBox="0 0 300.000000 300.000000"
 preserveAspectRatio="xMidYMid meet">

<g transform="translate(0.000000,300.000000) scale(0.100000,-0.100000)"
fill="#2A5BE0" stroke="none">
<path d="M0 1480 l0 -1390 1480 0 1480 0 0 1373 c0 1318 -1 1375 -18 1390 -17
16 -134 17 -1480 17 l-1462 0 0 -1390z m1725 1116 c713 -175 1099 -923 825
-1603 -52 -130 -131 -251 -234 -360 -117 -123 -195 -181 -341 -254 -707 -350
-1543 74 -1691 857 -25 134 -15 375 21 504 95 344 316 613 629 765 119 58 248
99 361 114 115 16 316 5 430 -23z"/>
<path d="M1112 1808 c-39 -19 -43 -64 -40 -391 l3 -309 28 -24 28 -24 325 0
325 0 24 25 25 24 0 331 0 331 -25 24 -24 25 -323 -1 c-211 0 -331 -4 -346
-11z"/>
</g>
</svg>
