<svg width="254" height="240" viewBox="0 0 254 240" fill="none" xmlns="http://www.w3.org/2000/svg">
<path d="M14.266 47.7389C-0.506518 63.4802 -5.61302 85.5234 7.67466 102.453C16.9566 114.278 31.7083 119.283 45.5291 116.697C101.72 62.1957 155.717 44.496 196.987 41.0199C203.368 40.4824 209.439 40.2854 215.159 40.3437C226.469 28.3702 239.202 17.6844 253.142 8.57573L253.244 8.32026C253.244 8.32026 193.032 -5.70712 134.419 2.66537C83.2399 9.976 32.7511 28.0436 14.266 47.7389Z" fill="url(#paint0_linear_777_38125)"/>
<path d="M100.398 182.057C99.6098 183.476 98.9017 184.96 98.2816 186.505C90.2655 206.478 99.957 229.168 119.929 237.185C126.539 239.838 133.443 240.552 140.018 239.595C146.597 238.673 153.028 236.054 158.631 231.656C159.799 230.739 160.9 229.77 161.933 228.753C161.005 224.306 160.212 219.801 159.561 215.241C155.498 186.801 157.306 158.876 164.066 132.693C155.119 135.625 146.145 140.323 137.371 146.439C124.112 155.682 111.494 168.049 100.398 182.057Z" fill="url(#paint1_linear_777_38125)"/>
<path d="M55.0493 116.603C44.9262 130.351 44.7412 149.673 55.7963 163.758C65.5321 176.161 81.2843 181.061 95.6683 177.569C107.018 163.317 119.957 150.662 133.657 141.111C144.069 133.853 155.025 128.321 166.12 125.299C174.534 97.0249 188.771 70.9751 207.627 48.7561C208.162 48.1248 208.702 47.4965 209.245 46.8715C205.478 46.9526 201.57 47.1516 197.532 47.4917C158.988 50.7382 108.356 66.8644 55.0493 116.603Z" fill="url(#paint2_linear_777_38125)"/>
<defs>
<linearGradient id="paint0_linear_777_38125" x1="237.312" y1="28.4175" x2="-48.0846" y2="151.467" gradientUnits="userSpaceOnUse">
<stop stop-color="#FFB6BE"/>
<stop offset="0.113339" stop-color="#FA6753"/>
<stop offset="0.432815" stop-color="#F50058"/>
<stop offset="0.61187" stop-color="#F50081"/>
<stop offset="0.77952" stop-color="#C71FD6"/>
</linearGradient>
<linearGradient id="paint1_linear_777_38125" x1="237.312" y1="28.4175" x2="-48.0846" y2="151.467" gradientUnits="userSpaceOnUse">
<stop stop-color="#FFB6BE"/>
<stop offset="0.113339" stop-color="#FA6753"/>
<stop offset="0.432815" stop-color="#F50058"/>
<stop offset="0.61187" stop-color="#F50081"/>
<stop offset="0.77952" stop-color="#C71FD6"/>
</linearGradient>
<linearGradient id="paint2_linear_777_38125" x1="237.312" y1="28.4175" x2="-48.0846" y2="151.467" gradientUnits="userSpaceOnUse">
<stop stop-color="#FFB6BE"/>
<stop offset="0.113339" stop-color="#FA6753"/>
<stop offset="0.432815" stop-color="#F50058"/>
<stop offset="0.61187" stop-color="#F50081"/>
<stop offset="0.77952" stop-color="#C71FD6"/>
</linearGradient>
</defs>
</svg>
