<svg width="112" height="112" viewBox="0 0 112 112" fill="none" xmlns="http://www.w3.org/2000/svg">
<g clip-path="url(#clip0_4670_356386)">
<rect width="112" height="112" rx="8.96" fill="url(#paint0_linear_4670_356386)"/>
<path d="M13.2268 35.84V32.8554L21.1448 25.0934C21.902 24.3287 22.5331 23.6494 23.038 23.0554C23.5428 22.4615 23.9214 21.8861 24.1739 21.3293C24.4263 20.7725 24.5525 20.1785 24.5525 19.5475C24.5525 18.8273 24.3892 18.2111 24.0625 17.6988C23.7358 17.1791 23.2867 16.7782 22.715 16.4961C22.1433 16.214 21.4937 16.0729 20.7661 16.0729C20.0163 16.0729 19.3592 16.2288 18.795 16.5407C18.2308 16.8451 17.7927 17.2794 17.4809 17.8436C17.1765 18.4079 17.0243 19.0798 17.0243 19.8593H13.0932C13.0932 18.4116 13.4236 17.1532 14.0843 16.0841C14.7451 15.015 15.6545 14.1872 16.8127 13.6007C17.9783 13.0141 19.3147 12.7209 20.8218 12.7209C22.3512 12.7209 23.695 13.0067 24.8532 13.5784C26.0114 14.1501 26.9097 14.9333 27.5482 15.9282C28.1941 16.923 28.517 18.0589 28.517 19.3359C28.517 20.1897 28.3537 21.0286 28.027 21.8527C27.7004 22.6768 27.125 23.59 26.3009 24.5923C25.4842 25.5945 24.3372 26.8084 22.8598 28.2338L18.9286 32.2318V32.3877H28.8623V35.84H13.2268Z" fill="#FEA740"/>
<path d="M40.7265 13.0327V35.84H36.5949V17.0529H36.4613L31.127 20.4607V16.6743L36.7954 13.0327H40.7265Z" fill="#FEA740"/>
<path d="M50.4192 23.5788C49.4317 23.5788 48.5334 23.3413 47.7242 22.8661C46.9149 22.3835 46.269 21.7376 45.7864 20.9284C45.3039 20.1117 45.0626 19.2097 45.0626 18.2222C45.0626 17.2422 45.3039 16.3476 45.7864 15.5384C46.269 14.7217 46.9149 14.0758 47.7242 13.6007C48.5334 13.1181 49.4317 12.8768 50.4192 12.8768C51.4066 12.8768 52.3049 13.1181 53.1142 13.6007C53.9234 14.0758 54.5693 14.7217 55.0519 15.5384C55.5345 16.3476 55.7757 17.2422 55.7757 18.2222C55.7757 19.2097 55.5345 20.1117 55.0519 20.9284C54.5693 21.7376 53.9234 22.3835 53.1142 22.8661C52.3049 23.3413 51.4066 23.5788 50.4192 23.5788ZM50.4192 20.7279C50.8795 20.7279 51.2989 20.6166 51.6776 20.3938C52.0562 20.1711 52.3569 19.8704 52.5796 19.4918C52.8098 19.1132 52.9248 18.69 52.9248 18.2222C52.9248 17.7619 52.8098 17.3425 52.5796 16.9638C52.3569 16.5852 52.0562 16.2845 51.6776 16.0618C51.2989 15.8391 50.8795 15.7277 50.4192 15.7277C49.9588 15.7277 49.5394 15.8391 49.1607 16.0618C48.7821 16.2845 48.4777 16.5852 48.2476 16.9638C48.0248 17.3425 47.9135 17.7619 47.9135 18.2222C47.9135 18.6826 48.0248 19.1057 48.2476 19.4918C48.4703 19.8704 48.771 20.1711 49.1496 20.3938C49.5357 20.6166 49.9588 20.7279 50.4192 20.7279Z" fill="#FEA740"/>
<ellipse opacity="0.3" cx="104.427" cy="71.5335" rx="62.9874" ry="56.9735" fill="#FECF40"/>
<ellipse cx="111.52" cy="75.04" rx="54.4" ry="44.8" fill="#FECF40"/>
<g filter="url(#filter0_d_4670_356386)">
<path d="M-0.897857 82.8196C5.08881 66.081 21.2424 54.0886 40.2303 54.0886C59.2181 54.0886 75.3717 66.081 81.3584 82.8196H85.3791C102.097 82.8196 115.649 96.372 115.649 113.09C115.649 129.808 102.097 143.36 85.3791 143.36H-3.89228C-20.61 143.36 -34.1625 129.808 -34.1625 113.09C-34.1625 96.372 -20.61 82.8196 -3.89226 82.8196H-0.897857Z" fill="url(#paint1_linear_4670_356386)"/>
</g>
<path d="M12.3327 86.6472H15.7309L19.32 95.4036H19.4727L23.0618 86.6472H26.46V99.68H23.7873V91.1972H23.6791L20.3064 99.6163H18.4864L15.1136 91.1654H15.0055V99.68H12.3327V86.6472Z" fill="#8EA3B8"/>
<path d="M40.7066 93.1636C40.7066 94.5848 40.4372 95.7939 39.8984 96.7909C39.3639 97.7878 38.6342 98.5494 37.7093 99.0754C36.7887 99.5972 35.7536 99.8581 34.6039 99.8581C33.4457 99.8581 32.4063 99.5951 31.4857 99.0691C30.5651 98.543 29.8375 97.7815 29.303 96.7845C28.7684 95.7875 28.5011 94.5806 28.5011 93.1636C28.5011 91.7424 28.7684 90.5333 29.303 89.5363C29.8375 88.5394 30.5651 87.78 31.4857 87.2581C32.4063 86.7321 33.4457 86.4691 34.6039 86.4691C35.7536 86.4691 36.7887 86.7321 37.7093 87.2581C38.6342 87.78 39.3639 88.5394 39.8984 89.5363C40.4372 90.5333 40.7066 91.7424 40.7066 93.1636ZM37.913 93.1636C37.913 92.243 37.7751 91.4666 37.4993 90.8345C37.2278 90.2024 36.8439 89.723 36.3475 89.3963C35.8511 89.0697 35.2699 88.9063 34.6039 88.9063C33.9378 88.9063 33.3566 89.0697 32.8602 89.3963C32.3639 89.723 31.9778 90.2024 31.702 90.8345C31.4305 91.4666 31.2948 92.243 31.2948 93.1636C31.2948 94.0842 31.4305 94.8606 31.702 95.4927C31.9778 96.1248 32.3639 96.6042 32.8602 96.9309C33.3566 97.2575 33.9378 97.4209 34.6039 97.4209C35.2699 97.4209 35.8511 97.2575 36.3475 96.9309C36.8439 96.6042 37.2278 96.1248 37.4993 95.4927C37.7751 94.8606 37.913 94.0842 37.913 93.1636Z" fill="#8EA3B8"/>
<path d="M53.6486 86.6472V99.68H51.2686L45.5986 91.4772H45.5032V99.68H42.7477V86.6472H45.1659L50.7914 94.8436H50.9059V86.6472H53.6486Z" fill="#8EA3B8"/>
</g>
<rect x="0.56" y="0.56" width="110.88" height="110.88" rx="8.4" stroke="#FFC582" stroke-opacity="0.15" stroke-width="1.12"/>
<defs>
<filter id="filter0_d_4670_356386" x="-38.6425" y="54.0886" width="158.772" height="98.2314" filterUnits="userSpaceOnUse" color-interpolation-filters="sRGB">
<feFlood flood-opacity="0" result="BackgroundImageFix"/>
<feColorMatrix in="SourceAlpha" type="matrix" values="0 0 0 0 0 0 0 0 0 0 0 0 0 0 0 0 0 0 127 0" result="hardAlpha"/>
<feOffset dy="4.48"/>
<feGaussianBlur stdDeviation="2.24"/>
<feComposite in2="hardAlpha" operator="out"/>
<feColorMatrix type="matrix" values="0 0 0 0 0 0 0 0 0 0 0 0 0 0 0 0 0 0 0.02 0"/>
<feBlend mode="normal" in2="BackgroundImageFix" result="effect1_dropShadow_4670_356386"/>
<feBlend mode="normal" in="SourceGraphic" in2="effect1_dropShadow_4670_356386" result="shape"/>
</filter>
<linearGradient id="paint0_linear_4670_356386" x1="56" y1="0" x2="56" y2="112" gradientUnits="userSpaceOnUse">
<stop stop-color="#FFF9E8"/>
<stop offset="0.181388" stop-color="#FFF2C9"/>
</linearGradient>
<linearGradient id="paint1_linear_4670_356386" x1="40.7434" y1="54.0886" x2="40.7434" y2="143.36" gradientUnits="userSpaceOnUse">
<stop stop-color="white"/>
<stop offset="0.96875" stop-color="#D7ECFF"/>
</linearGradient>
<clipPath id="clip0_4670_356386">
<rect width="112" height="112" rx="8.96" fill="white"/>
</clipPath>
</defs>
</svg>
