<svg id="Layer_1" data-name="Layer 1" xmlns="http://www.w3.org/2000/svg" viewBox="0 0 566.93 106.87"><defs><style>.cls-1,.cls-2{fill:#fff;}.cls-1,.cls-3{fillRule:evenodd;}.cls-3{fill:#2492eb;}</style></defs><path class="cls-1" d="M178.41,87.12a28.08,28.08,0,0,1-14-3.59,25.91,25.91,0,0,1-9.94-10,29.62,29.62,0,0,1,0-28.25,25.88,25.88,0,0,1,10-10,28,28,0,0,1,14-3.61A26.53,26.53,0,0,1,195,37q7,5.33,9.86,15.41H193.68a15.82,15.82,0,0,0-6.17-7.16,16.32,16.32,0,0,0-8.68-2.46,17.22,17.22,0,0,0-8.07,2,15.63,15.63,0,0,0-6.14,5.81,17.85,17.85,0,0,0-.19,17.26,16.41,16.41,0,0,0,5.79,6,14.94,14.94,0,0,0,8,2.23c7.23,0,12.37-3.29,15.37-9.89h11.35a31.36,31.36,0,0,1-5.77,11.52,24.73,24.73,0,0,1-9.16,7,28.61,28.61,0,0,1-11.59,2.34ZM250.48,81a24.7,24.7,0,0,1-16.77,6.15,28,28,0,0,1-14-3.59,26.15,26.15,0,0,1-9.84-10A29.21,29.21,0,0,1,206.22,59a27.1,27.1,0,0,1,27.2-27.29,25.66,25.66,0,0,1,17.49,6.25V32.72h11.5V86.07H250.48V81ZM234.34,42.66a16.53,16.53,0,0,0-8.42,2.2,16.21,16.21,0,0,0-6,6,16.38,16.38,0,0,0-2.22,8.37,16.59,16.59,0,0,0,4.71,12.16,16.38,16.38,0,0,0,12.11,4.75,16,16,0,0,0,8.27-2.19,16.31,16.31,0,0,0,5.94-6,17.58,17.58,0,0,0,0-17,16.15,16.15,0,0,0-6-6,16.33,16.33,0,0,0-8.4-2.22Zm38.57-28.87h9.67V86h-9.67V13.79Zm27.77,50.36a15.34,15.34,0,0,0,3,6.27,14.48,14.48,0,0,0,5.36,4.14,16.65,16.65,0,0,0,7,1.47,16.84,16.84,0,0,0,8.1-1.75,14.78,14.78,0,0,0,5.55-5.89h11.87q-4.08,9.74-10.36,14.24a25.3,25.3,0,0,1-15.16,4.49,27.13,27.13,0,0,1-13.8-3.59,25.74,25.74,0,0,1-9.74-10A28.65,28.65,0,0,1,289,59.4a28.65,28.65,0,0,1,3.51-14.09,25.62,25.62,0,0,1,9.79-10,28.15,28.15,0,0,1,27.74.09,25.36,25.36,0,0,1,9.57,10.24,30.18,30.18,0,0,1,3.26,14c0,1-.1,2.47-.29,4.51ZM316.1,42.53a15.83,15.83,0,0,0-9.56,2.92,14.91,14.91,0,0,0-5.58,8h30.18a15.2,15.2,0,0,0-5.59-8,15.63,15.63,0,0,0-9.45-2.92Zm69.63,13.73q0-7-3-10.46c-2-2.35-4.89-3.51-8.68-3.51a11.46,11.46,0,0,0-6.48,2,14.08,14.08,0,0,0-4.76,5.36A15.6,15.6,0,0,0,361,57.08V86H349.79V32.72h10.46v4.76a20.2,20.2,0,0,1,14.87-5.82,20.87,20.87,0,0,1,11,3,21.54,21.54,0,0,1,7.89,8.21,23.45,23.45,0,0,1,2.88,11.55V86h-11.2V56.26Zm61.81,24.91a25.73,25.73,0,0,1-7.91,4.44,28,28,0,0,1-9.35,1.51,26.4,26.4,0,0,1-13.75-3.69,26.94,26.94,0,0,1-9.78-10.07,28.29,28.29,0,0,1-3.57-14.06,30.39,30.39,0,0,1,3.46-14.67,26.14,26.14,0,0,1,9.79-10.14,27.27,27.27,0,0,1,14.14-3.69,28.53,28.53,0,0,1,9,1.4,25.51,25.51,0,0,1,7.78,4.08V13.84h11.3V86h-11.1V81.17ZM431.24,42a16.34,16.34,0,0,0-8.41,2.22,16.05,16.05,0,0,0-6,6,16.75,16.75,0,0,0-2.18,8.49,17.11,17.11,0,0,0,4.71,12.4,16.07,16.07,0,0,0,12.06,4.8,15.71,15.71,0,0,0,8.31-2.26,16.37,16.37,0,0,0,5.94-6.14,17.92,17.92,0,0,0,0-17.17A16.44,16.44,0,0,0,431.24,42Zm55.44,45.13a23.84,23.84,0,0,1-10.84-2.39,18.14,18.14,0,0,1-7.46-7,22.68,22.68,0,0,1-3-10.94h11a10,10,0,0,0,3.08,7.12A11,11,0,0,0,487,76.41a15.51,15.51,0,0,0,5.33-.82,7.27,7.27,0,0,0,3.31-2.18,4.68,4.68,0,0,0,1.1-3,4.06,4.06,0,0,0-1.24-3.19,8.52,8.52,0,0,0-1.72-1.16,13.45,13.45,0,0,0-2.17-.81c-1.82-.44-3.87-.86-6.15-1.29-1.76-.25-3.46-.58-5.1-1s-3.47-1-5-1.59A11.16,11.16,0,0,1,473,60.35l-1-.71a9.64,9.64,0,0,0-1.2-1,8.44,8.44,0,0,1-1.77-1.82,17.51,17.51,0,0,1-1.49-2.61,14.27,14.27,0,0,1-1.25-6.43A14.21,14.21,0,0,1,469,39.29a16.77,16.77,0,0,1,7.2-5.65,25.49,25.49,0,0,1,10.29-2A22.09,22.09,0,0,1,496.82,34a17.22,17.22,0,0,1,7.12,6.73,21.13,21.13,0,0,1,2.74,10.4H496c-.14-3-1.05-5.22-2.69-6.73s-4-2.26-7-2.26-5.24.51-6.76,1.54a4.49,4.49,0,0,0-2.28,3.84,3.12,3.12,0,0,0,1,2.64,8.49,8.49,0,0,0,1.84,1.18,10,10,0,0,0,2,.66c.81.21,1.69.43,2.69.62l3.12.53a65.57,65.57,0,0,1,10,2.21,14,14,0,0,1,6.74,4.46,14.62,14.62,0,0,1,3,8.37l.1,1.82A15.47,15.47,0,0,1,505,79.1a17.09,17.09,0,0,1-7.46,6,27.44,27.44,0,0,1-10.9,2.06Zm76.61-13.55a26.23,26.23,0,0,1-10.19,10,30.43,30.43,0,0,1-14.77,3.59,27.65,27.65,0,0,1-14-3.64,27.26,27.26,0,0,1-10.08-9.92,26.66,26.66,0,0,1-3.73-13.83,28.7,28.7,0,0,1,3.61-14.56,25.87,25.87,0,0,1,10.24-10,29.05,29.05,0,0,1,14.32-3.56,29.59,29.59,0,0,1,14.32,3.61,26.71,26.71,0,0,1,10.24,9.9,28.3,28.3,0,0,1,3.64,14.23,28.21,28.21,0,0,1-3.64,14.17ZM538.73,42.29a17.06,17.06,0,0,0-8.63,2.26,16.7,16.7,0,0,0-6.28,6.15,16.46,16.46,0,0,0-2.3,8.5,16.65,16.65,0,0,0,5.18,12.16A17,17,0,0,0,539,76.71a16.16,16.16,0,0,0,8.53-2.37A17.52,17.52,0,0,0,553.72,68,17,17,0,0,0,556,59.4a16.38,16.38,0,0,0-2.33-8.58,17.24,17.24,0,0,0-6.3-6.22A16.89,16.89,0,0,0,538.73,42.29Z" transform="translate(0)"/><rect class="cls-2" x="19.35" width="10.11" height="18.5" rx="5.05"/><rect class="cls-2" x="68.31" width="10.11" height="18.5" rx="5.05"/><path class="cls-1" d="M11,9.1h3v4.35A10.43,10.43,0,0,0,24.4,23.84h0A10.42,10.42,0,0,0,34.79,13.45V9.1H63v4.35A10.42,10.42,0,0,0,73.36,23.84h0A10.42,10.42,0,0,0,83.75,13.45V9.1h3a11,11,0,0,1,11,11V95.91a11,11,0,0,1-11,11H48.54L0,58.33V20.07a11,11,0,0,1,11-11ZM68.21,33.64H29.31a5,5,0,0,0-5,5v38.9a5,5,0,0,0,5,5H61.1L73.24,94.74V38.67A5,5,0,0,0,68.21,33.64Z" transform="translate(0)"/><polygon class="cls-3" points="48.54 58.33 0 58.33 48.54 106.87 48.54 58.33"/></svg>