<svg width="104" height="20" viewBox="0 0 104 20" fill="none" xmlns="http://www.w3.org/2000/svg">
  <path d="M0 1C0 0.447715 0.447715 0 1 0H19C19.5523 0 20 0.447715 20 1V19C20 19.5523 19.5523 20 19 20H10.4142C10.149 20 9.89464 19.8946 9.70711 19.7071L5.21739 15.2174L0.292893 10.2929C0.105357 10.1054 0 9.851 0 9.58579V1Z" fill="black"/>
  <path d="M32.0349 15.426C34.2609 15.426 35.8783 14.226 36.1914 12.313L33.5827 11.7391C33.4262 12.7826 32.887 13.3565 32.0175 13.3565C30.9218 13.3565 30.2957 12.4173 30.2957 10.7826C30.2957 9.26951 30.9392 8.36516 32.0001 8.36516C32.8522 8.36516 33.4088 8.90429 33.5653 9.93038L36.1914 9.39125C35.8609 7.42603 34.3479 6.31299 32.0696 6.31299C29.2175 6.31299 27.4609 8.03473 27.4609 10.8695C27.4609 13.6347 29.287 15.426 32.0349 15.426Z" fill="black"/>
  <path d="M40.0978 15.426C41.4543 15.426 42.5673 14.8173 43.0021 13.8434C43.0195 14.3304 43.0543 14.7999 43.1412 15.2173H45.8543C45.6978 14.6782 45.6108 13.826 45.6108 12.7999V9.91299C45.6108 7.40864 44.3586 6.31299 41.5586 6.31299C39.0891 6.31299 37.5238 7.46082 37.3847 9.39125H40.1499C40.2021 8.55647 40.6891 8.10429 41.5412 8.10429C42.4108 8.10429 42.8282 8.53908 42.8282 9.53038V9.82603L40.7238 10.1217C39.4021 10.2956 38.5673 10.5739 37.9934 10.9739C37.4021 11.3912 37.1065 12.0347 37.1065 12.8521C37.1065 14.3999 38.3065 15.426 40.0978 15.426ZM41.1412 13.6521C40.4108 13.6521 39.9238 13.2521 39.9238 12.6434C39.9238 11.9999 40.3934 11.6347 41.4195 11.4434L42.9151 11.1999V11.8956C42.9151 12.9391 42.2021 13.6521 41.1412 13.6521Z" fill="black"/>
  <path d="M50.6759 2.60864H47.8759V15.2173H50.6759V2.60864Z" fill="black"/>
  <path d="M61.1052 10.6608C61.1052 7.8956 59.5748 6.31299 56.8444 6.31299C54.1313 6.31299 52.427 8.10429 52.427 10.9565C52.427 13.7739 54.1661 15.426 57.0357 15.426C58.8444 15.426 60.3226 14.5739 61.0183 13.1478L58.9661 12.2086C58.5661 13.0086 57.9226 13.426 57.0704 13.426C55.9052 13.426 55.0878 12.6782 55.0704 11.4956H61.1052V10.6608ZM58.4096 9.93038H55.0704C55.1052 8.6956 55.7139 7.96516 56.7922 7.96516C57.8357 7.96516 58.4096 8.62603 58.4096 9.86082V9.93038Z" fill="black"/>
  <path d="M62.8535 15.2173H65.6535V10.5217C65.6535 9.18256 66.1926 8.43473 67.1665 8.43473C68.0535 8.43473 68.4709 9.00864 68.4709 10.2086V15.2173H71.2535V9.82603C71.2535 7.4956 70.2969 6.2956 68.4187 6.2956C67.0969 6.2956 66.1404 6.92169 65.5317 8.19125V6.52169H62.8535V15.2173Z" fill="black"/>
  <path d="M76.3209 15.426C77.5904 15.426 78.6339 14.7652 79.0687 13.7217V15.2173H81.7122V2.60864H78.9295V7.6869C78.4948 6.78256 77.6252 6.31299 76.4774 6.31299C74.3035 6.31299 72.8426 8.13908 72.8426 10.9043C72.8426 13.6173 74.2339 15.426 76.3209 15.426ZM77.4165 13.4956C76.3556 13.4956 75.7122 12.4869 75.7122 10.8521C75.7122 9.18256 76.3209 8.24342 77.3817 8.24342C78.373 8.24342 78.9643 9.06082 78.9643 10.5391V11.2869C78.9643 12.6434 78.373 13.4956 77.4165 13.4956Z" fill="black"/>
  <path d="M87.5423 15.426C89.9771 15.426 91.3858 14.3304 91.3858 12.5565C91.3858 11.0608 90.6554 10.1391 88.7945 9.87821L87.2467 9.63473C86.4815 9.53038 86.2206 9.30429 86.2206 8.8869C86.2206 8.39995 86.6032 8.17386 87.438 8.17386C88.5162 8.17386 89.3858 8.60864 90.0293 9.33908L91.4728 8.03473C90.7597 6.95647 89.2815 6.31299 87.5249 6.31299C85.1249 6.31299 83.6988 7.37386 83.6988 9.06082C83.6988 10.5391 84.5858 11.4608 86.4641 11.7391L87.7162 11.913C88.6728 12.0521 88.951 12.2434 88.951 12.7652C88.951 13.2521 88.4988 13.5304 87.5945 13.5304C86.3945 13.5304 85.4554 13.0608 84.8467 12.1217L83.2293 13.3391C84.0641 14.713 85.6293 15.426 87.5423 15.426Z" fill="black"/>
  <path d="M96.9109 15.426C99.4848 15.426 101.433 13.8434 101.433 10.8521C101.433 7.86082 99.4848 6.31299 96.9109 6.31299C94.3544 6.31299 92.4066 7.86082 92.4066 10.8521C92.4066 13.8434 94.3544 15.426 96.9109 15.426ZM96.9109 13.4956C95.8327 13.4956 95.1892 12.626 95.1892 10.8521C95.1892 9.06082 95.8327 8.24342 96.9109 8.24342C98.0066 8.24342 98.6501 9.06082 98.6501 10.8521C98.6501 12.626 98.0066 13.4956 96.9109 13.4956Z" fill="black"/>
</svg>
