<svg xmlns="http://www.w3.org/2000/svg" viewBox="0 0 280.16 93.87"><defs><style>.cls-1{fill:#f3c93c;}.cls-2{fill:#fff;}</style></defs><g id="Layer_2" data-name="Layer 2"><g id="Layer_1-2" data-name="Layer 1"><path class="cls-1" d="M21,44.39a7.6,7.6,0,0,1-2.25-.57,6.65,6.65,0,0,1-3.34-3.15,5.22,5.22,0,0,1-.24-.54c-.68-1.64-1.45-3.23-2.12-4.86l-1-2.34c-.66-1.62-1.32-3.23-2-4.85Q5.29,16.42.49,4.77A7.38,7.38,0,0,1,0,3.22,2.64,2.64,0,0,1,.66,1,4.46,4.46,0,0,1,3.89,0H20a12.93,12.93,0,0,1,3.17.23A6.71,6.71,0,0,1,28,4.35q1.72,4.16,3.43,8.31c.42,1,.85,2.08,1.28,3.11.78,1.89,1.64,3.75,2.42,5.63.85,2.06,1.68,4.12,2.53,6.18q2.49,6.08,5,12.14a7.47,7.47,0,0,1,.45,1.54A2.65,2.65,0,0,1,41.91,44c-1.08.66-2.58.53-3.8.53H24.29A28.08,28.08,0,0,1,21,44.39Z"/><path class="cls-2" d="M183.64,2.57H162.3a1.12,1.12,0,0,0-1,.61,2.56,2.56,0,0,0-.21.95c0,.91,0,1.82,0,2.73V8.18a3.34,3.34,0,0,1-.06.74,1.65,1.65,0,0,1-1.6,1.36,1.79,1.79,0,0,1-1.07-.38,4,4,0,0,1-.42-.4l-.08-.1a29.3,29.3,0,0,0-6.19-4.83A33.72,33.72,0,0,0,135.9.06Q134.8,0,133.71,0a41.34,41.34,0,0,0-11.88,1.76,43.25,43.25,0,0,0-20.63,13.5A47.72,47.72,0,0,0,89.83,43.32a48.89,48.89,0,0,0,12,35.67,43,43,0,0,0,14.68,10.89,41.79,41.79,0,0,0,17.07,3.82,39.14,39.14,0,0,0,8.64-1,30.06,30.06,0,0,0,15.69-9l.07-.08a3.66,3.66,0,0,1,.4-.39,1.71,1.71,0,0,1,1-.36A1.62,1.62,0,0,1,161,84.14a3.65,3.65,0,0,1,.07.88v1.65c0,1.07,0,2.15,0,3.22a1.31,1.31,0,0,0,1.45,1.41h21.23A1.23,1.23,0,0,0,185,90.24a4,4,0,0,0,.07-.9c0-14.15,0-84.89,0-84.89,0-.17,0-.33,0-.5A1.35,1.35,0,0,0,183.64,2.57ZM136.08,70.85a24,24,0,1,1,24-24A24,24,0,0,1,136.08,70.85Z"/><path class="cls-2" d="M279.59,71.84c-.15-.16-.32-.32-.49-.47l-8.55-7.83c-1.34-1.22-2.68-2.45-4-3.66a2.77,2.77,0,0,0-4.11.38c-.31.4-.6.81-.9,1.22a23.76,23.76,0,0,1-5.29,5.42,21.84,21.84,0,0,1-13,4.29c-.76,0-1.53,0-2.3-.11A21.56,21.56,0,0,1,226.55,64a24.61,24.61,0,0,1-6.27-21.45A23.51,23.51,0,0,1,231,26a21.3,21.3,0,0,1,11.76-3.59,23.09,23.09,0,0,1,4.76.51,22.51,22.51,0,0,1,11.54,6.52c.88.91,1.67,1.89,2.44,2.85l.41.51A2.9,2.9,0,0,0,264.21,34a2.83,2.83,0,0,0,1.94-.8l12.56-11.72a2.78,2.78,0,0,0,.22-4.06l-.59-.67c-.18-.2-.36-.39-.53-.59A47.82,47.82,0,0,0,263.5,4.94,44.66,44.66,0,0,0,247.55.24,45.36,45.36,0,0,0,242.91,0a45.77,45.77,0,0,0-20.57,4.94A47.27,47.27,0,0,0,200.9,27.33,46.4,46.4,0,0,0,196.67,46a45.68,45.68,0,0,0,.68,8.74,46.35,46.35,0,0,0,13.91,26c8.86,8.43,19.47,12.65,32.42,12.91l1.2-.09c1.15-.09,2.57-.19,4-.35A44,44,0,0,0,261.06,90a47.41,47.41,0,0,0,18.67-14.6,1.75,1.75,0,0,0,.43-1.09V73.14A1.88,1.88,0,0,0,279.59,71.84Z"/><path class="cls-2" d="M85.06,0H69.31a13.17,13.17,0,0,0-3.26.23,6.71,6.71,0,0,0-4.86,4.12Q57.1,14.27,53,24.17l-4,9.77C44.43,45,41,53.42,37.54,61.87,34.2,70.05,30.84,78.26,26.42,89q-.21.52-.42,1.23a2.82,2.82,0,0,0,.3,2.29,3,3,0,0,0,2.32,1.31,8.86,8.86,0,0,0,1.15.06H46.41c3.25,0,6.19-1.32,7.5-4.44l1.61-3.9.86-2.11C62.74,68,67.92,55.35,73.14,42.6,78,30.85,82.82,19,88.68,4.77a7.74,7.74,0,0,0,.45-1.55,2.63,2.63,0,0,0-1-2.56A4.85,4.85,0,0,0,85.06,0Z"/></g></g></svg>
