<svg width="427" height="98" viewBox="0 0 427 98" fill="none" xmlns="http://www.w3.org/2000/svg">
<path d="M35.088 64.75C40.664 64.75 44.948 65.974 47.94 68.422C51 70.87 52.53 74.372 52.53 78.928C52.53 84.368 50.014 88.618 44.982 91.678C39.95 94.738 33.32 96.268 25.092 96.268C16.592 96.268 10.268 95.146 6.12 92.902C2.04 90.658 0 87.598 0 83.722C0 81.41 0.782 79.404 2.346 77.704C3.91 76.004 6.222 74.78 9.282 74.032C6.97 73.08 5.134 71.754 3.774 70.054C2.414 68.286 1.734 66.212 1.734 63.832C1.734 61.384 2.448 59.276 3.876 57.508C5.304 55.74 7.276 54.414 9.792 53.53C7.208 52.034 5.236 50.13 3.876 47.818C2.516 45.438 1.836 42.718 1.836 39.658C1.836 34.286 3.91 30.07 8.058 27.01C12.274 23.882 17.986 22.318 25.194 22.318C28.866 22.318 32.3 22.76 35.496 23.644C36.38 19.632 38.08 16.504 40.596 14.26C43.18 11.948 46.648 10.928 51 11.2L52.836 21.196C52.36 21.128 51.646 21.094 50.694 21.094C48.178 21.094 46.07 21.536 44.37 22.42C42.738 23.304 41.582 24.494 40.902 25.99C43.418 27.486 45.322 29.39 46.614 31.702C47.974 34.014 48.654 36.666 48.654 39.658C48.654 44.962 46.546 49.178 42.33 52.306C38.182 55.366 32.47 56.896 25.194 56.896C21.862 56.896 18.802 56.59 16.014 55.978C13.362 56.658 12.036 58.188 12.036 60.568C12.036 61.928 12.546 62.982 13.566 63.73C14.586 64.41 16.014 64.75 17.85 64.75H35.088ZM25.194 31.09C22.474 31.09 20.23 31.872 18.462 33.436C16.762 35 15.912 37.04 15.912 39.556C15.912 42.14 16.762 44.214 18.462 45.778C20.23 47.342 22.474 48.124 25.194 48.124C27.982 48.124 30.226 47.342 31.926 45.778C33.694 44.214 34.578 42.14 34.578 39.556C34.578 37.04 33.694 35 31.926 33.436C30.226 31.872 27.982 31.09 25.194 31.09ZM26.214 86.68C30.974 86.68 34.646 86.068 37.23 84.844C39.814 83.688 41.106 82.192 41.106 80.356C41.106 78.928 40.494 77.84 39.27 77.092C38.114 76.412 36.176 76.072 33.456 76.072H19.584C13.94 76.072 11.118 77.602 11.118 80.662C11.118 82.566 12.376 84.028 14.892 85.048C17.408 86.136 21.182 86.68 26.214 86.68Z" fill="black"/>
<path d="M106.75 48.634C106.75 50.538 106.614 52.374 106.342 54.142H70.2342C71.6622 61.35 75.9122 64.954 82.9842 64.954C85.9082 64.954 88.3222 64.41 90.2262 63.322C92.1302 62.234 93.4562 60.67 94.2042 58.63L105.628 62.812C103.996 66.892 101.242 70.02 97.3662 72.196C93.5582 74.304 88.7642 75.358 82.9842 75.358C74.5522 75.358 68.0242 73.046 63.4002 68.422C58.7762 63.73 56.4642 57.202 56.4642 48.838C56.4642 40.474 58.7082 33.98 63.1962 29.356C67.6842 24.664 74.0082 22.318 82.1682 22.318C90.0562 22.318 96.1082 24.596 100.324 29.152C104.608 33.708 106.75 40.202 106.75 48.634ZM82.0662 32.62C78.6662 32.62 75.9462 33.606 73.9062 35.578C71.9342 37.55 70.6762 40.474 70.1322 44.35H93.8982C93.3542 40.542 92.0622 37.652 90.0222 35.68C87.9822 33.64 85.3302 32.62 82.0662 32.62Z" fill="black"/>
<path d="M146.839 22.318C152.347 22.318 156.767 23.916 160.099 27.112C163.499 30.308 165.199 34.898 165.199 40.882V74.338H151.225V44.962C151.225 37.21 148.199 33.334 142.147 33.334C138.883 33.334 136.095 34.49 133.783 36.802C131.539 39.114 130.417 42.65 130.417 47.41V74.338H116.443V23.338H128.989L129.397 32.416C131.097 29.084 133.443 26.568 136.435 24.868C139.427 23.168 142.895 22.318 146.839 22.318Z" fill="black"/>
<path d="M226.924 1V74.338H214.48L213.868 64.852C212.372 68.048 210.128 70.598 207.136 72.502C204.212 74.406 200.846 75.358 197.038 75.358C190.238 75.358 184.9 73.046 181.024 68.422C177.148 63.73 175.21 57.236 175.21 48.94C175.21 40.576 177.148 34.048 181.024 29.356C184.9 24.664 190.238 22.318 197.038 22.318C200.71 22.318 203.906 23.168 206.626 24.868C209.346 26.5 211.454 28.778 212.95 31.702V1H226.924ZM201.118 64.648C204.79 64.648 207.68 63.322 209.788 60.67C211.896 58.018 212.95 54.244 212.95 49.348V48.328C212.95 43.5 211.896 39.76 209.788 37.108C207.68 34.388 204.79 33.028 201.118 33.028C197.378 33.028 194.454 34.388 192.346 37.108C190.238 39.828 189.184 43.738 189.184 48.838C189.184 53.938 190.238 57.848 192.346 60.568C194.454 63.288 197.378 64.648 201.118 64.648Z" fill="black"/>
<path d="M286.278 65.872C287.706 65.872 288.862 65.736 289.746 65.464L288.726 73.93C286.822 74.882 284.612 75.358 282.096 75.358C275.568 75.358 271.658 72.808 270.366 67.708C268.87 70.224 266.558 72.128 263.43 73.42C260.302 74.712 256.596 75.358 252.312 75.358C247.348 75.358 243.472 74.236 240.684 71.992C237.896 69.748 236.502 66.518 236.502 62.302C236.502 54.006 243.132 48.634 256.392 46.186L268.632 43.84V41.392C268.632 38.672 267.85 36.53 266.286 34.966C264.79 33.334 262.682 32.518 259.962 32.518C256.834 32.518 254.284 33.198 252.312 34.558C250.34 35.918 248.98 38.128 248.232 41.188L237.114 36.496C238.202 32.076 240.65 28.608 244.458 26.092C248.266 23.576 253.23 22.318 259.35 22.318C266.626 22.318 272.304 23.916 276.384 27.112C280.464 30.24 282.504 34.898 282.504 41.086V61.996C282.504 63.356 282.81 64.342 283.422 64.954C284.034 65.566 284.986 65.872 286.278 65.872ZM256.698 65.872C259.69 65.872 262.41 65.158 264.858 63.73C267.374 62.234 268.632 60.228 268.632 57.712V52.408L257.718 54.856C255.406 55.4 253.672 56.148 252.516 57.1C251.428 57.984 250.884 59.242 250.884 60.874C250.884 62.506 251.394 63.764 252.414 64.648C253.434 65.464 254.862 65.872 256.698 65.872Z" fill="black"/>
</svg>
