<svg width="567" height="106" viewBox="0 0 567 106" fill="none" xmlns="http://www.w3.org/2000/svg">
<path d="M186.088 69.1822C191.664 69.1822 195.948 70.3962 198.94 72.8243C202 75.2524 203.53 78.7259 203.53 83.2448C203.53 88.6405 201.014 92.8559 195.982 95.891C190.95 98.9261 184.32 100.444 176.092 100.444C167.592 100.444 161.268 99.3307 157.12 97.105C153.04 94.8793 151 91.8442 151 87.9997C151 85.7066 151.782 83.7169 153.346 82.0307C154.91 80.3446 157.222 79.1305 160.282 78.3886C157.97 77.4444 156.134 76.1292 154.774 74.443C153.414 72.6894 152.734 70.6323 152.734 68.2717C152.734 65.8436 153.448 63.7527 154.876 61.9991C156.304 60.2455 158.276 58.9303 160.792 58.0535C158.208 56.5697 156.236 54.6812 154.876 52.388C153.516 50.0274 152.836 47.3295 152.836 44.2945C152.836 38.9662 154.91 34.7845 159.058 31.7494C163.274 28.6469 168.986 27.0956 176.194 27.0956C179.866 27.0956 183.3 27.534 186.496 28.4108C187.38 24.4315 189.08 21.3289 191.596 19.1032C194.18 16.81 197.648 15.7983 202 16.0681L203.836 25.9827C203.36 25.9153 202.646 25.8816 201.694 25.8816C199.178 25.8816 197.07 26.32 195.37 27.1968C193.738 28.0736 192.582 29.2539 191.902 30.7377C194.418 32.2215 196.322 34.11 197.614 36.4032C198.974 38.6964 199.654 41.3268 199.654 44.2945C199.654 49.5553 197.546 53.737 193.33 56.8395C189.182 59.8746 183.47 61.3921 176.194 61.3921C172.862 61.3921 169.802 61.0886 167.014 60.4816C164.362 61.1561 163.036 62.6736 163.036 65.0342C163.036 66.3832 163.546 67.4286 164.566 68.1705C165.586 68.845 167.014 69.1822 168.85 69.1822H186.088ZM176.194 35.7962C173.474 35.7962 171.23 36.5718 169.462 38.1231C167.762 39.6744 166.912 41.6978 166.912 44.1933C166.912 46.7562 167.762 48.8134 169.462 50.3646C171.23 51.9159 173.474 52.6915 176.194 52.6915C178.982 52.6915 181.226 51.9159 182.926 50.3646C184.694 48.8134 185.578 46.7562 185.578 44.1933C185.578 41.6978 184.694 39.6744 182.926 38.1231C181.226 36.5718 178.982 35.7962 176.194 35.7962ZM177.214 90.9337C181.974 90.9337 185.646 90.3266 188.23 89.1126C190.814 87.966 192.106 86.4822 192.106 84.6611C192.106 83.2448 191.494 82.1656 190.27 81.4237C189.114 80.7492 187.176 80.412 184.456 80.412H170.584C164.94 80.412 162.118 81.9296 162.118 84.9646C162.118 86.8531 163.376 88.3032 165.892 89.3149C168.408 90.3941 172.182 90.9337 177.214 90.9337Z" fill="white"/>
<path d="M257.75 53.1974C257.75 55.0859 257.614 56.9069 257.342 58.6605H221.234C222.662 65.8099 226.912 69.3845 233.984 69.3845C236.908 69.3845 239.322 68.845 241.226 67.7658C243.13 66.6867 244.456 65.1354 245.204 63.112L256.628 67.26C254.996 71.3067 252.242 74.4093 248.366 76.5676C244.558 78.6584 239.764 79.7038 233.984 79.7038C225.552 79.7038 219.024 77.4106 214.4 72.8243C209.776 68.1705 207.464 61.6956 207.464 53.3997C207.464 45.1038 209.708 38.6627 214.196 34.0763C218.684 29.4225 225.008 27.0956 233.168 27.0956C241.056 27.0956 247.108 29.3551 251.324 33.874C255.608 38.3929 257.75 44.834 257.75 53.1974ZM233.066 37.3137C229.666 37.3137 226.946 38.2917 224.906 40.2477C222.934 42.2036 221.676 45.1038 221.132 48.9483H244.898C244.354 45.1713 243.062 42.3048 241.022 40.3488C238.982 38.3254 236.33 37.3137 233.066 37.3137Z" fill="white"/>
<path d="M297.839 27.0956C303.347 27.0956 307.767 28.6806 311.099 31.8506C314.499 35.0206 316.199 39.5732 316.199 45.5085V78.6921H302.225V49.5553C302.225 41.8664 299.199 38.0219 293.147 38.0219C289.883 38.0219 287.095 39.1685 284.783 41.4617C282.539 43.7549 281.417 47.2621 281.417 51.9833V78.6921H267.443V28.1073H279.989L280.397 37.1114C282.097 33.8065 284.443 31.311 287.435 29.6249C290.427 27.9387 293.895 27.0956 297.839 27.0956Z" fill="white"/>
<path d="M377.924 5.95116V78.6921H365.48L364.868 69.2834C363.372 72.4533 361.128 74.9826 358.136 76.8711C355.212 78.7596 351.846 79.7038 348.038 79.7038C341.238 79.7038 335.9 77.4106 332.024 72.8243C328.148 68.1705 326.21 61.7294 326.21 53.5009C326.21 45.205 328.148 38.7301 332.024 34.0763C335.9 29.4225 341.238 27.0956 348.038 27.0956C351.71 27.0956 354.906 27.9387 357.626 29.6249C360.346 31.2436 362.454 33.503 363.95 36.4032V5.95116H377.924ZM352.118 69.081C355.79 69.081 358.68 67.7658 360.788 65.1354C362.896 62.505 363.95 58.7617 363.95 53.9056V52.8939C363.95 48.1052 362.896 44.3956 360.788 41.7652C358.68 39.0674 355.79 37.7184 352.118 37.7184C348.378 37.7184 345.454 39.0674 343.346 41.7652C341.238 44.4631 340.184 48.3412 340.184 53.3997C340.184 58.4582 341.238 62.3364 343.346 65.0342C345.454 67.7321 348.378 69.081 352.118 69.081Z" fill="white"/>
<path d="M437.278 70.295C438.706 70.295 439.862 70.1602 440.746 69.8904L439.726 78.2875C437.822 79.2317 435.612 79.7038 433.096 79.7038C426.568 79.7038 422.658 77.1746 421.366 72.1161C419.87 74.6116 417.558 76.5001 414.43 77.7816C411.302 79.0631 407.596 79.7038 403.312 79.7038C398.348 79.7038 394.472 78.591 391.684 76.3652C388.896 74.1395 387.502 70.9358 387.502 66.7541C387.502 58.5256 394.132 53.1974 407.392 50.7693L419.632 48.4424V46.0143C419.632 43.3165 418.85 41.1919 417.286 39.6406C415.79 38.0219 413.682 37.2126 410.962 37.2126C407.834 37.2126 405.284 37.887 403.312 39.236C401.34 40.5849 399.98 42.7769 399.232 45.812L388.114 41.1582C389.202 36.7742 391.65 33.3344 395.458 30.8389C399.266 28.3434 404.23 27.0956 410.35 27.0956C417.626 27.0956 423.304 28.6806 427.384 31.8506C431.464 34.9531 433.504 39.5732 433.504 45.7108V66.4506C433.504 67.7995 433.81 68.7775 434.422 69.3845C435.034 69.9915 435.986 70.295 437.278 70.295ZM407.698 70.295C410.69 70.295 413.41 69.5869 415.858 68.1705C418.374 66.6867 419.632 64.697 419.632 62.2015V56.9407L408.718 59.3687C406.406 59.9083 404.672 60.6502 403.516 61.5945C402.428 62.4713 401.884 63.719 401.884 65.3377C401.884 66.9565 402.394 68.2042 403.414 69.081C404.434 69.8904 405.862 70.295 407.698 70.295Z" fill="white"/>
<path fill-rule="evenodd" clip-rule="evenodd" d="M100.668 0.248528C103.632 1.02751 106.227 3.53835 106.967 6.34385C107.365 7.85011 107.358 16.5422 106.959 17.8929C106.211 20.4211 104.159 22.6385 101.633 23.6471L100.645 24.0415L28.5677 24.2151L27.7456 24.5901C26.584 25.1201 25.4256 26.2385 24.9397 27.2993L24.5243 28.2063V76.9689L25.0176 77.9605C25.2929 78.5137 25.8607 79.2561 26.302 79.6394C27.8263 80.964 25.8206 80.8734 53.619 80.8734C81.5645 80.8734 79.4245 80.9759 81.0186 79.561C81.5277 79.1093 82.0449 78.4299 82.2942 77.885L82.7136 76.9689L82.8894 42.0889L83.2922 41.3443C83.8381 40.3352 84.8477 39.3724 85.8916 38.8652L86.757 38.4447H95.0196C103.243 38.4447 103.286 38.4466 104.079 38.8364C105.352 39.4627 106.119 40.1952 106.698 41.3382L107.238 42.4046V71.673C107.238 104.372 107.34 101.81 105.971 103.344C105.58 103.784 104.854 104.354 104.359 104.612L103.458 105.081L55.6407 105.127C21.9838 105.159 7.55166 105.117 6.90595 104.985C4.71691 104.539 2.13513 102.636 1.09932 100.705C-0.0925918 98.4822 0.000227483 102.555 0.00251287 52.5994C0.00427085 14.9268 0.0447056 7.2339 0.244764 6.49187C1.01652 3.63119 3.6034 1.05424 6.50495 0.25599C7.72781 -0.0804895 99.3892 -0.0876042 100.668 0.248528ZM61.525 40.7152C63.521 41.3004 65.006 42.7223 65.5845 44.6024C65.9205 45.6942 65.937 46.1471 65.8883 52.9506L65.837 60.1444L65.2639 61.293C64.5971 62.6298 63.6435 63.5477 62.2542 64.1909L61.2662 64.6481H45.9717L44.9838 64.1909C43.5941 63.5476 42.6409 62.6299 41.9741 61.2925L41.401 60.1436V45.039L41.8563 44.0845C42.6724 42.374 43.9515 41.2362 45.6293 40.7281C46.9478 40.3286 60.1699 40.318 61.525 40.7152Z" fill="#4455F0"/>
</svg>
