<svg width="153" height="48" viewBox="0 0 153 48" fill="none" xmlns="http://www.w3.org/2000/svg">
<g clip-path="url(#clip0_28:963)">
<path d="M66.6575 15.0884V21.9609C66.6575 23.6332 66.7745 24.806 68.6776 24.806C69.3141 24.7927 69.9441 24.6753 70.5427 24.4583L70.8588 29.3108C69.4184 29.7183 67.9299 29.9309 66.4331 29.943C61.4605 29.943 60.411 26.9146 60.411 22.5236V15.0884H57.6923V10.3877H60.411V5.18115H66.6575V10.3877H70.8936V15.0884H66.6575Z" fill="#292C34"/>
<path d="M86.883 16.0591H86.6112C85.9068 15.7291 85.1348 15.5689 84.3572 15.5913C81.2908 15.5913 80.5132 18.4648 80.5132 20.9906V29.4975H74.2982V10.35H80.5132L80.4752 13.0686H80.5511C81.6386 10.9696 83.2318 9.99906 85.293 9.99906C85.9591 9.96935 86.6234 10.0893 87.2371 10.35L86.883 16.0591Z" fill="#292C34"/>
<path d="M100.928 29.4974L100.811 27.4774C99.9958 28.293 98.4437 29.9242 95.3362 29.9242C91.9568 29.9242 88.3815 28.1002 88.3815 23.8262C88.3815 19.5522 92.3046 18.1171 95.842 17.9622L100.657 17.7662V17.3394C100.657 15.3194 99.2181 14.273 96.7334 14.273C94.666 14.3378 92.6486 14.9251 90.8694 15.9801L89.2382 11.94C91.7882 10.6834 94.5894 10.0199 97.4321 9.99902C103.413 9.99902 106.871 12.4837 106.871 18.6987V29.4974H100.928ZM97.6281 21.2783C95.7313 21.3573 94.5964 22.1729 94.5964 23.6081C94.5964 25.0433 95.8009 25.979 97.5111 25.979C98.1452 25.9754 98.7684 25.8136 99.3243 25.5083C99.8801 25.2031 100.351 24.764 100.694 24.2308V21.0854L97.6281 21.2783Z" fill="#292C34"/>
<path d="M119.39 29.9242C114.145 29.9242 109.293 26.352 109.293 19.9822C109.293 13.6123 114.224 9.99902 119.469 9.99902C124.362 9.99902 126.575 12.019 126.575 12.019L125.216 16.7198C123.815 15.6038 122.075 15.0004 120.284 15.0096C117.642 15.0096 115.543 16.8336 115.543 19.8652C115.543 22.8968 117.439 24.7967 120.357 24.7967C122.145 24.7685 123.866 24.1077 125.213 22.9316L126.689 27.6323C126.499 27.7935 124.479 29.9242 119.39 29.9242Z" fill="#292C34"/>
<path d="M141.695 29.4973L136.998 22.0399L135.288 23.7091V29.4973H129.073V5.18115H135.288V16.6785L141.114 10.3561H148.261L141.269 17.5415L148.856 29.5036L141.695 29.4973Z" fill="#292C34"/>
<path d="M67.4036 47.7848L66.1201 44.5477H60.7998L59.5353 47.788H57.6986L62.7566 35.3359H64.2866L69.3604 47.788L67.4036 47.7848ZM63.4615 37.5077L61.2866 43.0873H65.6396L63.4615 37.5077Z" fill="#337F87"/>
<path d="M80.5922 46.9757C79.8208 47.5858 78.8314 47.785 77.4626 47.785H73.432V35.3804H76.7797C77.9494 35.3804 78.9547 35.4689 79.7292 35.9747C80.1604 36.2349 80.5124 36.608 80.747 37.0537C80.9815 37.4995 81.0898 38.0009 81.06 38.5037C81.0698 39.0983 80.8917 39.6808 80.5512 40.1684C80.2106 40.6559 79.725 41.0236 79.1633 41.2191V41.2571C80.8356 41.5985 81.9167 42.6417 81.9167 44.2792C81.9298 44.8022 81.8161 45.3205 81.5855 45.7901C81.3548 46.2596 81.0141 46.6664 80.5922 46.9757ZM76.7797 36.7523H75.177V40.6944H76.6343C77.4973 40.6944 78.0727 40.6217 78.4868 40.315C78.7556 40.138 78.9735 39.8937 79.1188 39.6065C79.2641 39.3192 79.3317 38.999 79.315 38.6775C79.315 37.0938 78.1106 36.7523 76.7797 36.7523ZM79.2265 42.4773C78.6133 42.0632 77.8388 42.0253 77.0484 42.0253H75.177V46.3625H77.0484C77.8388 46.3625 78.6133 46.3435 79.2265 45.9325C79.5189 45.7481 79.7564 45.4887 79.9144 45.1812C80.0723 44.8737 80.1448 44.5294 80.1243 44.1844C80.1444 43.845 80.0714 43.5066 79.9132 43.2058C79.755 42.9049 79.5175 42.653 79.2265 42.4773Z" fill="#337F87"/>
<path d="M86.5859 47.785V35.3804H88.3309V47.7977L86.5859 47.785Z" fill="#337F87"/>
<path d="M93.7461 47.785V35.3804H95.4911V46.3214H99.8662V47.7977L93.7461 47.785Z" fill="#337F87"/>
<path d="M104.093 47.785V35.3804H105.838V47.7977L104.093 47.785Z" fill="#337F87"/>
<path d="M115.268 36.8251V47.785H113.538V36.8251H110.03V35.3804H118.773V36.8377L115.268 36.8251Z" fill="#337F87"/>
<path d="M122.949 47.785V35.3804H124.698V47.7977L122.949 47.785Z" fill="#337F87"/>
<path d="M130.113 47.785V35.3804H137.384V36.8377H131.874V40.5332H137.093V42.0189H131.874V46.3182H137.542V47.7945L130.113 47.785Z" fill="#337F87"/>
<path d="M145.606 48C143.428 48 142.185 46.5964 141.594 45.9136L142.619 44.7439C143.251 45.588 144.417 46.5237 145.78 46.5237C147.142 46.5237 148.211 45.7524 148.211 44.4373C148.211 43.1222 146.823 42.6386 146.194 42.3857C145.565 42.1328 144.683 41.7914 144.215 41.5574C142.95 40.9631 142.163 39.9768 142.163 38.5163C142.163 36.3035 144.18 35.2065 146.159 35.2065C146.831 35.2118 147.495 35.3567 148.109 35.6321C148.722 35.9075 149.271 36.3072 149.722 36.8061L148.805 37.9947C148.465 37.5959 148.047 37.2717 147.576 37.0427C147.104 36.8136 146.591 36.6846 146.067 36.6639C144.844 36.6639 143.908 37.2392 143.908 38.3899C143.908 39.5406 144.756 39.9705 145.511 40.2866L147.797 41.235C149.061 41.8293 149.956 42.8535 149.956 44.3298C149.943 46.7418 147.784 48 145.606 48Z" fill="#337F87"/>
<path d="M32.295 19.0875C33.4321 17.1671 34.0407 14.98 34.0589 12.7484C34.0772 10.5167 33.5045 8.31996 32.399 6.38126C31.2935 4.44257 29.6946 2.83098 27.7647 1.7102C25.8348 0.589425 23.6427 -0.000622981 21.4109 4.93583e-07C19.1795 -6.49871e-05 16.9877 0.590384 15.0583 1.71139C13.1288 2.8324 11.5304 4.44404 10.4252 6.38264C9.32013 8.32125 8.7477 10.5178 8.7661 12.7492C8.7845 14.9806 9.39308 17.1674 10.53 19.0875C7.32321 20.9801 4.66497 23.6756 2.81735 26.9086C0.969738 30.1415 -0.00347356 33.8001 -0.00634766 37.5237V45.961C-0.00634766 46.1981 0.0403363 46.4328 0.131049 46.6518C0.221762 46.8708 0.354728 47.0698 0.522343 47.2374C0.689958 47.405 0.888933 47.538 1.10793 47.6287C1.32693 47.7194 1.56167 47.7661 1.79872 47.7661C2.03588 47.7665 2.27078 47.7201 2.48996 47.6295C2.70915 47.539 2.9083 47.406 3.076 47.2383C3.2437 47.0706 3.37665 46.8715 3.46722 46.6523C3.55778 46.4331 3.60418 46.1982 3.60376 45.961V37.5237C3.60622 34.3374 4.46299 31.21 6.08481 28.4673C7.70664 25.7246 10.0342 23.4669 12.825 21.9294C13.3573 22.4209 13.9305 22.8662 14.5384 23.2603C11.8555 24.5557 9.59177 26.5808 8.00671 29.1035C6.42164 31.6262 5.57935 34.5444 5.57636 37.5237V45.961C5.57636 46.4397 5.76654 46.8989 6.10505 47.2374C6.44357 47.5759 6.9027 47.7661 7.38143 47.7661C7.61859 47.7665 7.85351 47.7201 8.07269 47.6295C8.29188 47.539 8.49103 47.406 8.65873 47.2383C8.82643 47.0706 8.95936 46.8715 9.04993 46.6523C9.14049 46.4331 9.18691 46.1982 9.18649 45.961V37.7418C9.18649 31.0653 14.4436 25.4478 21.1169 25.2898C22.7461 25.2523 24.3664 25.5406 25.8826 26.1378C27.3989 26.735 28.7806 27.629 29.9467 28.7674C31.1128 29.9058 32.0397 31.2656 32.6731 32.7671C33.3065 34.2686 33.6337 35.8814 33.6354 37.5111V45.9484C33.6354 46.1854 33.6821 46.4201 33.7728 46.6391C33.8635 46.8581 33.9965 47.0571 34.1641 47.2247C34.3317 47.3924 34.5307 47.5253 34.7497 47.616C34.9687 47.7067 35.2034 47.7534 35.4404 47.7534C35.6776 47.7538 35.9125 47.7074 36.1317 47.6169C36.3509 47.5263 36.55 47.3934 36.7177 47.2257C36.8854 47.058 37.0184 46.8588 37.1089 46.6396C37.1995 46.4204 37.2459 46.1855 37.2455 45.9484V37.6312C37.2455 28.9694 30.1612 21.607 21.4963 21.6892C19.4809 21.7117 17.5155 21.0614 15.9113 19.8411C14.3072 18.6208 13.1559 16.9002 12.6398 14.9519C12.1237 13.0035 12.2723 10.9387 13.062 9.08427C13.8517 7.22986 15.2374 5.69187 16.9998 4.71378C18.7621 3.73569 20.8003 3.37341 22.7918 3.6843C24.7832 3.99519 26.614 4.96148 27.9944 6.43018C29.3747 7.89887 30.2257 9.78605 30.4126 11.7929C30.5996 13.7998 30.1117 15.8117 29.0263 17.51C28.3941 17.2676 27.7439 17.0569 27.0758 16.8778C27.7549 15.9669 28.2043 14.9057 28.3859 13.7841C28.5676 12.6626 28.476 11.5138 28.1191 10.4352C27.7621 9.35653 27.1504 8.37988 26.3356 7.58804C25.5208 6.79621 24.5271 6.21254 23.4387 5.88654C22.3504 5.56054 21.1994 5.50183 20.0835 5.71537C18.9676 5.92892 17.9196 6.40843 17.0285 7.11323C16.1374 7.81804 15.4294 8.72736 14.9645 9.76407C14.4997 10.8008 14.2917 11.9343 14.3582 13.0685C14.5701 16.8082 17.7566 19.7071 21.5026 19.7229C26.2057 19.7554 30.7054 21.6453 34.0213 24.9807C37.3372 28.3161 39.2006 32.8268 39.2055 37.53V45.9673C39.2055 46.4461 39.3956 46.9052 39.7341 47.2437C40.0727 47.5822 40.5318 47.7724 41.0105 47.7724C41.2478 47.7728 41.4829 47.7264 41.7022 47.6359C41.9216 47.5454 42.121 47.4125 42.2889 47.2448C42.4569 47.0772 42.5901 46.878 42.681 46.6588C42.7719 46.4396 42.8187 46.2046 42.8187 45.9673V37.5237C42.8172 33.8013 41.8459 30.1435 40.0005 26.9107C38.1552 23.6779 35.4995 20.9816 32.295 19.0875ZM21.4173 16.0969C20.7331 16.0969 20.0644 15.894 19.4956 15.5139C18.9268 15.1337 18.4835 14.5934 18.2218 13.9613C17.9602 13.3292 17.8919 12.6337 18.0256 11.9627C18.1593 11.2918 18.489 10.6755 18.9729 10.192C19.4569 9.70847 20.0734 9.37934 20.7445 9.24626C21.4156 9.11317 22.111 9.18211 22.7429 9.44436C23.3748 9.7066 23.9147 10.1504 24.2943 10.7195C24.674 11.2886 24.8763 11.9576 24.8756 12.6417C24.8748 13.5584 24.5101 14.4372 23.8616 15.0851C23.2131 15.733 22.3339 16.0969 21.4173 16.0969Z" fill="#60C9A1"/>
</g>
<defs>
<clipPath id="clip0_28:963">
<rect width="152.727" height="48" fill="white"/>
</clipPath>
</defs>
</svg>
