<?xml version="1.0" standalone="no"?>
<!DOCTYPE svg PUBLIC "-//W3C//DTD SVG 20010904//EN"
 "http://www.w3.org/TR/2001/REC-SVG-20010904/DTD/svg10.dtd">
<svg version="1.0" xmlns="http://www.w3.org/2000/svg"
 width="1024.000000pt" height="1024.000000pt" viewBox="0 0 1024.000000 1024.000000"
 preserveAspectRatio="xMidYMid meet">
<metadata>
Created by potrace 1.14, written by Peter Selinger 2001-2017
</metadata>
<g transform="translate(0.000000,1024.000000) scale(0.100000,-0.100000)"
fill="#000000" stroke="none">
<path d="M0 5120 l0 -5120 5120 0 5120 0 0 5120 0 5120 -5120 0 -5120 0 0
-5120z m7789 3015 c94 -23 173 -69 241 -142 67 -71 103 -134 125 -220 22 -83
21 -554 0 -638 -42 -161 -150 -280 -318 -348 l-52 -22 -2050 -5 -2050 -5 -51
-27 c-62 -33 -117 -88 -146 -148 l-23 -45 0 -1405 c0 -1361 1 -1407 19 -1455
25 -65 94 -137 159 -166 l52 -24 1425 0 1425 0 52 24 c29 13 72 45 98 72 86
92 79 -2 85 1129 l5 1005 23 46 c30 61 86 116 147 145 l50 24 470 0 470 0 51
-24 c61 -28 115 -82 146 -145 l23 -46 0 -1705 0 -1705 -23 -42 c-35 -66 -79
-110 -140 -140 l-57 -28 -2735 0 -2735 0 -65 24 c-172 63 -294 200 -329 369
-16 75 -16 5189 0 5264 37 178 185 334 358 380 62 16 242 17 2676 17 2294 1
2618 -1 2674 -14z m-2178 -2346 c109 -52 176 -137 199 -254 8 -41 10 -183 8
-450 -3 -381 -4 -391 -26 -448 -28 -69 -98 -144 -164 -176 -78 -37 -154 -43
-555 -39 -344 3 -382 5 -423 22 -74 31 -124 71 -162 128 -63 93 -63 91 -63
553 0 416 0 420 23 478 26 63 97 143 153 173 76 40 118 43 544 41 l410 -2 56
-26z"/>
</g>
</svg>
