<?xml version="1.0" standalone="no"?>
<!DOCTYPE svg PUBLIC "-//W3C//DTD SVG 20010904//EN"
 "http://www.w3.org/TR/2001/REC-SVG-20010904/DTD/svg10.dtd">
<svg version="1.0" xmlns="http://www.w3.org/2000/svg"
 width="363.000000pt" height="363.000000pt" viewBox="0 0 363.000000 363.000000"
 preserveAspectRatio="xMidYMid meet">
<metadata>
Created by potrace 1.14, written by Peter Selinger 2001-2017
</metadata>
<g transform="translate(0.000000,363.000000) scale(0.100000,-0.100000)"
fill="#000000" stroke="none">
<path d="M1738 2645 c-2 -2 -27 -6 -57 -9 -65 -8 -188 -48 -256 -84 -209 -110
-337 -273 -407 -517 -30 -107 -32 -313 -4 -425 64 -253 214 -439 439 -545 384
-181 845 -49 1053 303 45 76 93 185 97 221 l2 25 -160 1 c-88 0 -165 -1 -172
-3 -6 -2 -14 -14 -17 -26 -8 -32 -85 -129 -132 -167 -82 -66 -190 -100 -319
-101 -133 0 -247 52 -344 158 -206 225 -155 617 99 766 154 89 325 96 486 18
87 -42 170 -119 209 -196 l21 -39 167 0 c92 0 167 0 167 1 0 0 -11 33 -24 72
-25 73 -75 174 -88 180 -5 2 -8 8 -8 14 0 14 -67 95 -120 146 -96 92 -272 179
-400 197 -45 7 -227 14 -232 10z"/>
</g>
</svg>
