<?xml version="1.0" standalone="no"?>
<!DOCTYPE svg PUBLIC "-//W3C//DTD SVG 20010904//EN"
 "http://www.w3.org/TR/2001/REC-SVG-20010904/DTD/svg10.dtd">
<svg version="1.0" xmlns="http://www.w3.org/2000/svg"
 width="704.000000pt" height="704.000000pt" viewBox="0 0 704.000000 704.000000"
 preserveAspectRatio="xMidYMid meet">
<metadata>
Created by potrace 1.14, written by Peter Selinger 2001-2017
</metadata>
<g transform="translate(0.000000,704.000000) scale(0.100000,-0.100000)"
fill="#000000" stroke="none">
<path d="M3339 7036 c-2 -2 -29 -6 -59 -10 -203 -23 -396 -80 -590 -175 -96
-47 -283 -159 -300 -180 -3 -3 -25 -22 -50 -41 -95 -72 -205 -183 -290 -290
-59 -74 -160 -224 -160 -238 0 -5 -8 -20 -18 -33 -20 -25 -120 -246 -126 -276
-1 -10 -6 -25 -9 -33 -9 -23 -46 -161 -52 -195 -2 -16 -7 -41 -10 -55 -42
-195 -35 -527 15 -725 6 -22 13 -51 16 -65 19 -92 87 -269 151 -392 30 -59 43
-93 35 -96 -23 -7 -294 -192 -312 -213 -3 -3 -15 -12 -27 -20 -76 -52 -394
-359 -458 -443 -16 -22 -35 -44 -40 -50 -50 -52 -224 -308 -289 -426 -75 -135
-204 -413 -210 -455 -1 -5 -4 -14 -8 -20 -18 -30 -103 -324 -113 -392 -2 -12
-5 -25 -8 -30 -3 -4 -8 -30 -11 -57 -4 -27 -9 -53 -12 -57 -2 -4 -6 -25 -8
-46 -2 -21 -7 -58 -10 -83 -21 -154 -25 -300 -25 -963 l-1 -738 27 -52 c102
-203 380 -201 477 3 21 44 21 55 23 685 1 598 7 885 17 945 5 27 14 93 22 155
14 111 119 480 146 512 6 7 8 13 5 13 -5 0 37 97 86 200 59 122 209 361 264
420 13 14 23 28 23 31 0 3 8 15 18 26 97 112 132 150 184 203 34 34 88 85 121
113 33 29 65 57 71 62 6 6 29 23 51 39 22 17 42 33 45 36 3 4 55 39 115 78 61
39 115 75 121 79 20 15 54 33 61 33 5 0 24 -14 43 -32 55 -49 191 -148 203
-148 17 0 -3 -16 -53 -43 -25 -13 -63 -34 -85 -47 -49 -27 -208 -130 -215
-139 -3 -3 -21 -17 -40 -31 -39 -27 -67 -50 -149 -125 -148 -134 -274 -282
-380 -445 -33 -52 -64 -99 -69 -105 -11 -14 -132 -260 -132 -269 0 -4 -8 -26
-19 -49 -10 -23 -33 -89 -51 -147 -18 -58 -35 -112 -38 -120 -7 -22 -9 -31
-16 -70 -4 -19 -13 -66 -21 -105 -15 -73 -20 -114 -31 -230 -9 -98 -9 -1399 0
-1460 13 -83 78 -168 148 -195 18 -6 40 -15 48 -19 28 -14 126 -3 172 18 58
28 101 70 130 129 l23 47 2 695 c1 382 4 713 6 735 9 71 20 150 22 160 1 6 5
28 9 50 9 44 34 142 43 165 3 8 8 21 10 27 1 7 5 19 6 25 2 7 8 22 12 33 5 11
17 43 27 70 47 121 138 284 226 404 106 144 200 239 391 393 31 25 217 138
227 138 6 0 17 7 24 15 7 9 15 14 17 11 3 -2 30 8 61 24 57 28 217 85 263 94
13 2 47 10 74 16 169 40 461 51 625 23 138 -23 142 -24 215 -44 39 -11 75 -22
80 -23 11 -3 26 -9 110 -41 82 -31 179 -77 186 -88 3 -5 9 -8 13 -7 4 1 22 -8
42 -19 19 -11 37 -20 41 -20 3 0 9 -3 12 -8 3 -4 38 -30 76 -56 174 -119 345
-293 467 -477 92 -139 194 -351 213 -443 2 -9 7 -22 10 -27 3 -5 8 -19 11 -30
2 -11 6 -29 9 -41 2 -11 7 -29 10 -39 13 -42 35 -175 42 -260 3 -36 6 -373 7
-750 1 -377 6 -698 11 -715 21 -74 94 -150 168 -174 110 -37 240 6 299 97 53
81 51 56 50 780 0 698 -4 818 -27 953 -3 19 -8 48 -11 64 -18 107 -96 377
-116 403 -6 6 -8 12 -5 12 6 0 -20 62 -81 190 -36 78 -146 265 -169 288 -7 7
-13 17 -13 22 0 5 -6 15 -13 22 -7 7 -24 29 -37 48 -13 19 -29 40 -35 47 -5 6
-26 31 -45 55 -38 47 -234 245 -293 295 -59 50 -215 163 -226 163 -5 0 -11 4
-13 9 -9 24 -309 176 -449 227 -74 27 -240 74 -314 89 -144 29 -193 34 -380
40 -257 9 -324 17 -445 51 -187 53 -355 140 -495 255 -66 53 -189 187 -239
258 -100 142 -179 316 -211 466 -27 124 -32 184 -30 315 2 80 5 156 7 170 15
91 21 118 29 145 58 196 124 334 220 461 233 309 564 497 939 531 119 11 316
4 363 -12 6 -2 23 -7 37 -9 182 -35 370 -121 535 -245 119 -90 244 -228 322
-356 53 -88 84 -145 78 -145 -3 0 1 -10 9 -22 21 -33 69 -182 83 -257 2 -14 6
-27 8 -31 8 -13 19 -158 19 -245 0 -99 -10 -196 -25 -265 -6 -25 -12 -52 -14
-60 -22 -94 -99 -281 -148 -356 l-21 -31 -70 24 c-77 27 -94 32 -101 33 -3 0
-23 7 -45 15 -22 8 -40 11 -40 8 0 -4 -5 -2 -11 4 -10 10 2 48 20 63 21 18
111 206 111 233 0 7 3 17 7 21 4 3 8 12 9 19 1 7 10 48 19 92 26 121 24 315
-5 430 -6 22 -13 48 -15 58 -19 80 -116 278 -155 317 -3 3 -17 21 -32 41 -28
38 -91 102 -148 153 -56 49 -204 137 -245 146 -5 1 -14 5 -20 10 -23 17 -151
54 -250 70 -50 9 -271 5 -331 -4 -57 -9 -218 -65 -279 -96 -266 -138 -460
-377 -536 -660 -39 -147 -44 -324 -14 -470 3 -14 7 -34 9 -45 8 -36 37 -119
59 -165 11 -25 20 -48 19 -52 -1 -5 2 -8 8 -8 5 0 10 -5 10 -11 0 -6 23 -46
51 -88 56 -83 162 -193 249 -258 71 -53 211 -125 286 -148 32 -9 70 -21 84
-26 53 -18 133 -26 320 -33 63 -3 135 -7 160 -10 25 -3 63 -8 85 -10 386 -44
809 -204 1145 -435 59 -40 153 -111 219 -165 35 -29 270 -264 300 -300 178
-217 313 -437 414 -676 44 -104 111 -301 121 -354 3 -15 9 -42 15 -59 14 -46
33 -153 47 -262 3 -22 9 -69 14 -105 4 -36 9 -389 9 -785 1 -428 6 -735 11
-756 12 -45 56 -110 93 -139 62 -49 161 -67 242 -45 82 23 164 116 180 205 8
46 9 116 1 128 -3 6 -2 13 3 16 5 4 6 18 2 34 -5 15 -5 36 -1 47 4 11 4 32 -1
47 -4 15 -4 30 1 33 5 3 5 18 1 33 -5 15 -5 36 -1 47 4 11 4 32 -1 47 -4 15
-4 30 1 33 5 3 5 18 1 33 -5 15 -5 36 -1 47 4 11 4 32 -1 47 -4 15 -4 30 1 33
5 3 5 18 0 34 -4 16 -6 32 -3 35 3 3 5 47 4 98 -1 51 -2 100 -2 108 3 70 2
110 -4 119 -3 6 -1 11 5 11 6 0 8 5 5 10 -4 6 -6 32 -6 58 1 26 1 73 2 104 0
32 -2 62 -5 67 -4 5 -2 12 4 16 6 4 8 10 5 15 -3 5 -8 67 -10 137 -3 70 -7
138 -9 150 -3 12 -8 53 -11 90 -4 37 -9 77 -12 88 -2 11 -6 36 -9 55 -2 19
-16 85 -30 145 -14 61 -27 117 -28 125 -3 20 -65 219 -75 245 -5 11 -15 38
-24 60 -71 189 -183 413 -282 566 -25 38 -45 74 -45 78 0 5 -3 11 -8 13 -4 2
-25 28 -46 58 -217 306 -509 587 -828 797 -71 46 -128 85 -128 87 0 1 19 38
43 82 50 95 117 255 132 320 2 11 13 51 24 89 10 39 21 88 25 110 3 22 8 51
11 65 26 123 23 438 -5 577 -5 27 -12 62 -14 78 -44 259 -213 603 -406 826
-73 83 -203 208 -266 254 -15 11 -32 25 -38 30 -19 18 -149 101 -217 138 -84
46 -213 102 -309 134 -87 28 -201 56 -280 69 -19 3 -46 8 -60 10 -29 7 -395
15 -401 10z m231 -1350 c99 -9 234 -78 301 -153 96 -110 138 -223 134 -363 -6
-200 -116 -361 -307 -451 -21 -10 -38 -16 -38 -13 0 3 -9 0 -19 -5 -16 -9 -94
-22 -136 -23 -25 -1 -105 11 -145 22 -175 47 -326 213 -355 390 -14 85 -14
113 0 189 41 215 223 388 428 408 34 3 64 7 65 9 2 1 9 1 15 -2 7 -2 32 -5 57
-8z"/>
</g>
</svg>
