<svg width="1300" height="453" viewBox="0 0 1300 453" fill="none" xmlns="http://www.w3.org/2000/svg">
<path d="M613.673 451.45H497.673C495.973 451.45 494.373 450.65 493.373 449.35L420.773 359.35L405.373 376.55V445.75C405.373 448.85 402.873 451.25 399.873 451.25H305.873C302.773 451.25 300.373 448.75 300.373 445.75V100.65C300.373 99.3501 300.873 98.0501 301.773 96.9501L369.373 19.6501C370.373 18.4501 371.973 17.7501 373.473 17.7501L399.873 17.55C401.373 17.55 402.773 18.1501 403.773 19.1501C404.773 20.1501 405.373 21.65 405.373 23.05V243.85L491.473 147.15C492.573 145.95 494.073 145.25 495.573 145.25H609.573C611.773 145.25 613.773 146.55 614.673 148.55C615.573 150.55 615.173 152.85 613.773 154.55L493.773 290.05L617.973 442.45C619.373 444.15 619.573 446.45 618.673 448.35C617.773 450.25 615.773 451.45 613.673 451.45Z" fill="black"/>
<path d="M728.673 451.45H634.673C631.573 451.45 629.173 448.95 629.173 445.95V150.95C629.173 147.85 631.673 145.45 634.673 145.45H728.673C731.773 145.45 734.173 147.95 734.173 150.95V445.95C734.273 449.05 731.773 451.45 728.673 451.45Z" fill="black"/>
<path d="M864.373 451.45H770.373C767.273 451.45 764.873 448.95 764.873 445.95V100.75C764.873 99.45 765.373 98.15 766.273 97.05L834.173 19.65C835.273 18.45 836.773 17.75 838.373 17.75H864.573C867.673 17.75 870.073 20.25 870.073 23.25V445.85C869.873 449.05 867.373 451.45 864.373 451.45Z" fill="black"/>
<path d="M907.973 451.45C906.473 451.45 905.073 450.85 904.073 449.85C902.973 448.85 902.373 447.35 902.373 445.95V23.35C902.373 20.25 904.873 17.85 907.873 17.85H1001.87C1004.97 17.85 1007.37 20.35 1007.37 23.35V370.05C1007.37 371.45 1006.87 372.75 1005.97 373.75L939.273 449.25C938.273 450.45 936.773 451.15 935.173 451.15L907.973 451.45C908.073 451.45 908.073 451.45 907.973 451.45Z" fill="black"/>
<path d="M143.573 452.75C89.5732 452.75 33.9732 434.45 1.87318 406.15C-0.426824 404.15 -0.626824 400.65 1.37318 398.35L53.8732 338.05C54.8732 336.95 56.2732 336.25 57.6732 336.15C59.1732 336.05 60.5732 336.55 61.6732 337.55C84.7732 358.05 117.973 370.75 148.373 370.75C178.073 370.75 182.473 360.45 182.473 354.35C182.473 343.65 164.873 338.75 136.473 334.15L133.173 333.55C108.573 329.35 77.8732 324.15 53.8732 310.55C25.3732 294.45 10.9732 268.85 10.9732 234.55C10.9732 206.45 23.2732 180.75 45.4732 162.25C69.3732 142.35 103.073 131.85 142.873 131.85C198.573 131.85 242.573 155.35 269.573 175.15C270.873 176.05 271.673 177.45 271.773 179.05C271.973 180.55 271.473 182.15 270.373 183.35L223.273 236.85C222.273 237.95 220.873 238.65 219.373 238.75C217.873 238.75 216.373 238.25 215.273 237.15C197.273 219.75 175.173 212.05 143.373 212.05C127.573 212.05 111.673 216.55 111.673 226.65C111.673 234.85 121.973 239.35 154.073 245.05L154.973 245.25C180.273 249.55 211.873 254.95 237.373 269.35C267.773 286.55 283.273 313.45 283.273 349.45C283.273 379.05 269.973 405.45 245.773 423.75C220.873 442.75 185.573 452.75 143.573 452.75Z" fill="black"/>
<path d="M1160.27 452.75C1106.27 452.75 1050.67 434.45 1018.57 406.15C1016.27 404.15 1016.07 400.65 1018.07 398.35L1070.57 338.05C1071.57 336.95 1072.97 336.25 1074.37 336.15C1075.87 336.05 1077.27 336.55 1078.37 337.55C1101.47 358.05 1134.67 370.75 1165.07 370.75C1194.77 370.75 1199.17 360.45 1199.17 354.35C1199.17 343.65 1181.57 338.75 1153.17 334.15L1149.87 333.55C1125.27 329.35 1094.57 324.15 1070.57 310.55C1042.07 294.45 1027.67 268.85 1027.67 234.55C1027.67 206.45 1039.97 180.75 1062.17 162.25C1086.07 142.35 1119.77 131.85 1159.57 131.85C1215.27 131.85 1259.27 155.35 1286.27 175.15C1287.57 176.05 1288.37 177.45 1288.47 179.05C1288.67 180.55 1288.17 182.15 1287.07 183.35L1239.97 236.85C1238.97 237.95 1237.57 238.65 1236.07 238.75C1234.57 238.85 1233.07 238.25 1231.97 237.15C1213.97 219.75 1191.87 212.05 1160.07 212.05C1144.27 212.05 1128.37 216.55 1128.37 226.65C1128.37 234.85 1138.67 239.35 1170.77 245.05L1171.67 245.25C1196.97 249.55 1228.57 254.95 1254.07 269.35C1284.47 286.55 1299.97 313.45 1299.97 349.45C1299.97 379.05 1286.67 405.45 1262.47 423.75C1237.67 442.75 1202.27 452.75 1160.27 452.75Z" fill="black"/>
<path d="M528.373 105.85L617.073 5.25C623.273 -1.75 633.373 -1.75 639.573 5.25L728.273 105.85C734.973 113.45 729.373 125.15 718.873 125.15H537.673C527.273 125.15 521.573 113.45 528.373 105.85Z" fill="#16BAC5"/>
</svg>
