<svg width="1301" height="453" viewBox="0 0 1301 453" fill="none" xmlns="http://www.w3.org/2000/svg">
<path d="M613.9 451.7H497.9C496.2 451.7 494.6 450.9 493.6 449.6L421 359.6L405.6 376.8V446C405.6 449.1 403.1 451.5 400.1 451.5H306.1C303 451.5 300.6 449 300.6 446V100.9C300.6 99.6 301.1 98.3 302 97.2L369.6 19.9C370.6 18.7 372.2 18 373.7 18L400.1 17.8C401.6 17.8 403 18.4 404 19.4C405 20.4 405.6 21.9 405.6 23.3V244.1L491.7 147.4C492.8 146.2 494.3 145.5 495.8 145.5H609.8C612 145.5 614 146.8 614.9 148.8C615.8 150.8 615.4 153.1 614 154.8L494 290.3L618.2 442.7C619.6 444.4 619.8 446.7 618.9 448.6C618 450.5 616 451.7 613.9 451.7Z" fill="white"/>
<path d="M728.9 451.7H634.9C631.8 451.7 629.4 449.2 629.4 446.2V151.2C629.4 148.1 631.9 145.7 634.9 145.7H728.9C732 145.7 734.4 148.2 734.4 151.2V446.2C734.5 449.3 732 451.7 728.9 451.7Z" fill="white"/>
<path d="M864.6 451.7H770.6C767.5 451.7 765.1 449.2 765.1 446.2V101C765.1 99.7 765.6 98.4 766.5 97.3L834.4 19.9C835.5 18.7 837 18 838.6 18H864.8C867.9 18 870.3 20.5 870.3 23.5V446.1C870.1 449.3 867.6 451.7 864.6 451.7Z" fill="white"/>
<path d="M908.2 451.7C906.7 451.7 905.3 451.1 904.3 450.1C903.2 449.1 902.6 447.6 902.6 446.2V23.6C902.6 20.5 905.1 18.1 908.1 18.1H1002.1C1005.2 18.1 1007.6 20.6 1007.6 23.6V370.3C1007.6 371.7 1007.1 373 1006.2 374L939.5 449.5C938.5 450.7 937 451.4 935.4 451.4L908.2 451.7C908.3 451.7 908.3 451.7 908.2 451.7Z" fill="white"/>
<path d="M143.8 453C89.8 453 34.2 434.7 2.09998 406.4C-0.200017 404.4 -0.400017 400.9 1.59998 398.6L54.1 338.3C55.1 337.2 56.5 336.5 57.9 336.4C59.4 336.3 60.8 336.8 61.9 337.8C85 358.3 118.2 371 148.6 371C178.3 371 182.7 360.7 182.7 354.6C182.7 343.9 165.1 339 136.7 334.4L133.4 333.8C108.8 329.6 78.1 324.4 54.1 310.8C25.6 294.7 11.2 269.1 11.2 234.8C11.2 206.7 23.5 181 45.7 162.5C69.6 142.6 103.3 132.1 143.1 132.1C198.8 132.1 242.8 155.6 269.8 175.4C271.1 176.3 271.9 177.7 272 179.3C272.2 180.8 271.7 182.4 270.6 183.6L223.5 237.1C222.5 238.2 221.1 238.9 219.6 239C218.1 239 216.6 238.5 215.5 237.4C197.5 220 175.4 212.3 143.6 212.3C127.8 212.3 111.9 216.8 111.9 226.9C111.9 235.1 122.2 239.6 154.3 245.3L155.2 245.5C180.5 249.8 212.1 255.2 237.6 269.6C268 286.8 283.5 313.7 283.5 349.7C283.5 379.3 270.2 405.7 246 424C221.1 443 185.8 453 143.8 453Z" fill="white"/>
<path d="M1160.5 453C1106.5 453 1050.9 434.7 1018.8 406.4C1016.5 404.4 1016.3 400.9 1018.3 398.6L1070.8 338.3C1071.8 337.2 1073.2 336.5 1074.6 336.4C1076.1 336.3 1077.5 336.8 1078.6 337.8C1101.7 358.3 1134.9 371 1165.3 371C1195 371 1199.4 360.7 1199.4 354.6C1199.4 343.9 1181.8 339 1153.4 334.4L1150.1 333.8C1125.5 329.6 1094.8 324.4 1070.8 310.8C1042.3 294.7 1027.9 269.1 1027.9 234.8C1027.9 206.7 1040.2 181 1062.4 162.5C1086.3 142.6 1120 132.1 1159.8 132.1C1215.5 132.1 1259.5 155.6 1286.5 175.4C1287.8 176.3 1288.6 177.7 1288.7 179.3C1288.9 180.8 1288.4 182.4 1287.3 183.6L1240.2 237.1C1239.2 238.2 1237.8 238.9 1236.3 239C1234.8 239.1 1233.3 238.5 1232.2 237.4C1214.2 220 1192.1 212.3 1160.3 212.3C1144.5 212.3 1128.6 216.8 1128.6 226.9C1128.6 235.1 1138.9 239.6 1171 245.3L1171.9 245.5C1197.2 249.8 1228.8 255.2 1254.3 269.6C1284.7 286.8 1300.2 313.7 1300.2 349.7C1300.2 379.3 1286.9 405.7 1262.7 424C1237.9 443 1202.5 453 1160.5 453Z" fill="white"/>
<path d="M528.6 106.1L617.3 5.5C623.5 -1.5 633.6 -1.5 639.8 5.5L728.5 106.1C735.2 113.7 729.6 125.4 719.1 125.4H537.9C527.5 125.4 521.8 113.7 528.6 106.1Z" fill="#16BAC5"/>
</svg>
