<?xml version="1.0" encoding="utf-8"?>
<!-- Generator: Adobe Illustrator 25.1.0, SVG Export Plug-In . SVG Version: 6.00 Build 0)  -->
<svg version="1.1" id="Final_v1" xmlns="http://www.w3.org/2000/svg" xmlns:xlink="http://www.w3.org/1999/xlink" x="0px" y="0px"
	 viewBox="0 0 1000 1000" style="enable-background:new 0 0 1000 1000;" xml:space="preserve">
<style type="text/css">
	.st0{fill:#F3C93C;}
	.st1{fill:#141414;}
</style>
<g>
	<path class="st0" d="M164.13,492.84c-2.14-0.25-4.25-0.72-6.33-1.62c-4.12-1.77-7.4-4.86-9.42-8.87
		c-0.25-0.5-43.01-104.16-43.27-105.61c-0.39-2.23,0.23-4.58,1.75-6.28c2.08-2.32,6.13-2.8,9.11-2.8c2.27,0,51.34-0.08,54.22,0.65
		c6.71,1.71,11.2,5.51,13.72,11.62c3.23,7.8,36.59,88.31,41.29,99.71c0.59,1.44,1.02,2.91,1.28,4.36c0.51,2.92-0.75,6-3.3,7.57
		C220.14,493.45,167.2,493.19,164.13,492.84z"/>
	<path class="st1" d="M626.81,378.8c-0.14-2.39-1.59-3.8-3.99-3.89l-59.4-0.01c-0.26,0-0.51,0-0.76,0.03
		c-1.97,0.21-2.61,1.07-2.92,1.7c-0.33,0.69-0.54,1.67-0.57,2.69c-0.08,2.57-0.06,5.14-0.05,7.71l0.01,3.7
		c0,0.58,0.01,1.3-0.16,2.07c-0.48,2.25-2.34,3.83-4.52,3.83c-1.08,0-2.12-0.37-3.02-1.07c-0.43-0.33-0.81-0.72-1.18-1.13
		l-0.25-0.27c-5.03-5.19-10.9-9.78-17.45-13.64c-12.99-7.65-27.49-11.8-44.33-12.7c-2.07-0.11-4.13-0.17-6.18-0.17
		c-11.22,0-22.49,1.67-33.51,4.96c-22.69,6.78-42.26,19.59-58.16,38.07c-18.89,21.94-29.67,48.56-32.06,79.11
		c-0.9,11.51-0.23,23.3,1.97,35.05c4.71,25.06,15.39,47.11,31.74,65.53c11.92,13.44,25.85,23.77,41.39,30.71
		c15.99,7.14,32.19,10.76,48.14,10.76c8.08,0,16.28-0.93,24.37-2.76c17.33-3.92,32.21-12.47,44.24-25.42l0.2-0.22
		c0.35-0.4,0.72-0.78,1.13-1.1c0.87-0.67,1.9-1.03,2.95-1.03c2.14,0,3.94,1.43,4.48,3.57c0.21,0.83,0.2,1.59,0.19,2.47l-0.01,4.66
		c-0.01,3.03-0.02,6.05,0.04,9.07c0.05,2.57,1.42,3.9,4.09,3.97l59.12,0.01c0.25,0,0.5-0.01,0.74-0.02
		c1.95-0.15,3.09-1.12,3.51-2.97c0.16-0.71,0.19-1.53,0.19-2.55c0.01-39.89,0.01-239.36,0.01-239.36
		C626.83,379.73,626.83,379.26,626.81,378.8z M488.72,567.44c-37.38,0-67.68-30.3-67.68-67.68c0-37.38,30.3-67.68,67.68-67.68
		c37.38,0,67.68,30.3,67.68,67.68C556.39,537.14,526.09,567.44,488.72,567.44z"/>
	<path class="st1" d="M792.13,631.86c-36.53-0.72-66.44-12.63-91.43-36.41c-10.96-10.43-19.95-22.4-26.71-35.58
		c-5.98-11.65-10.19-24.38-12.51-37.81c-1.43-8.3-2.08-16.6-1.91-24.66c0.39-18.75,4.4-36.48,11.93-52.69
		c12.82-27.61,33.16-48.85,60.46-63.13c11.36-5.94,23.73-9.97,37.82-12.29c6.6-1.09,13.38-1.64,20.17-1.64
		c4.3,0,8.7,0.22,13.08,0.66c15.65,1.56,30.78,6.03,44.98,13.27c15.34,7.83,28.92,18.46,40.35,31.57c0.49,0.56,0.99,1.12,1.49,1.68
		c0.56,0.63,1.12,1.25,1.67,1.89c3.14,3.66,2.89,8.15-0.63,11.44c-11.8,11.03-23.6,22.05-35.41,33.06
		c-1.58,1.47-3.47,2.25-5.46,2.25c-2.44,0-4.72-1.16-6.42-3.27l-1.16-1.44c-2.16-2.69-4.39-5.48-6.87-8.03
		c-9.38-9.62-20.33-15.8-32.55-18.38c-4.52-0.96-9.03-1.44-13.42-1.44c-11.68,0-22.83,3.41-33.15,10.12
		c-16.87,10.98-27.07,26.68-30.32,46.66c-3.75,23.12,2.19,43.47,17.68,60.48c10.64,11.68,24.24,18.38,40.43,19.9
		c2.18,0.2,4.36,0.31,6.48,0.31c13.34,0,25.72-4.07,36.78-12.09c5.5-3.99,10.37-8.99,14.91-15.27c0.83-1.16,1.67-2.32,2.54-3.45
		c1.55-2,3.83-3.14,6.26-3.14c1.93,0,3.82,0.74,5.31,2.08c3.79,3.42,35.46,32.39,35.46,32.39c0.48,0.44,0.95,0.87,1.39,1.34
		c1.09,1.2,1.6,2.37,1.6,3.67c0,1.05,0,2.09-0.02,3.14c-0.02,1.08-0.39,2.06-1.19,3.06c-14.6,18.59-32.31,32.44-52.65,41.18
		c-11.21,4.82-22.81,7.96-34.47,9.33c-3.92,0.46-7.92,0.75-11.14,0.99C794.28,631.7,793.14,631.78,792.13,631.86z"/>
	<path class="st1" d="M185.71,632.17c-2.59-0.33-5.02-1.26-6.54-3.68c-1.18-1.89-1.49-4.24-0.85-6.46c0.39-1.34,0.78-2.48,1.19-3.47
		c12.44-30.22,90.33-220.02,98.03-238.63c2.53-6.1,7.02-9.91,13.73-11.62c3.03-0.77,6.05-0.65,9.18-0.65c6.27,0,42.49,0,44.41,0
		c3.06,0,6.11-0.07,8.69,1.85c2.22,1.65,3.26,4.52,2.79,7.22c-0.25,1.44-0.68,2.91-1.28,4.36
		c-16.52,40.13-93.51,227.73-93.51,227.73c-1.5,3.67-3,7.33-4.53,10.99c-3.68,8.8-11.97,12.53-21.13,12.53c-6.39,0-33.23,0-40.26,0
		C193.4,632.35,186.78,632.31,185.71,632.17z"/>
</g>
</svg>
