<svg width="2484" height="2484" viewBox="0 0 2484 2484" fill="none" xmlns="http://www.w3.org/2000/svg">
<rect width="2484" height="2484" rx="200" fill="#DDDDDD"/>
<path d="M1126.24 514.004H687.083C663.823 514.004 645 532.827 645 556.088V656.4C645 679.661 663.823 698.484 687.083 698.484H1109.75C1451.81 698.484 1699.98 941.881 1699.98 1241.1C1699.98 1365.7 1657.75 1480.59 1586.85 1572.29C1599.97 1525.62 1607.02 1476.42 1607.02 1425.58C1607.02 1126.36 1418.26 882.963 1025.89 882.963H687.083C663.823 882.963 645 901.786 645 925.047V1025.36C645 1048.62 663.823 1067.44 687.083 1067.44H1019.19C1270.01 1068.59 1412.48 1228.09 1412.48 1425.58C1412.48 1623.06 1270.01 1783.75 1019.19 1783.75H850.096V1294.04C850.096 1270.79 831.274 1251.96 808.014 1251.96H687.083C663.823 1251.96 645 1270.79 645 1294.04V1926.15C645 1949.4 663.823 1968.23 687.083 1968.23H1064.45H1064.53H1126.28C1579.28 1968.23 1894.59 1642.04 1894.59 1241.13C1894.59 840.229 1607.05 512.703 1126.24 514.004Z" fill="#2B2D28"/>
</svg>
