<svg xmlns="http://www.w3.org/2000/svg" width="512" height="512" viewBox="0 0 512 512">
  <g id="Make-App-Icon-Circle" transform="translate(3757 -1767)">
    <circle id="Ellipse_10" data-name="Ellipse 10" cx="256" cy="256" r="256" transform="translate(-3757 1767)" fill="#6d00cc"/>
    <path id="Path_141560" data-name="Path 141560" d="M244.78,14.544a7.187,7.187,0,0,0-7.186,7.192V213.927a7.19,7.19,0,0,0,7.186,7.192h52.063a7.187,7.187,0,0,0,7.186-7.192V21.736a7.183,7.183,0,0,0-7.186-7.192ZM92.066,17.083,5.77,188.795a7.191,7.191,0,0,0,3.192,9.654l46.514,23.379a7.184,7.184,0,0,0,9.654-3.2l86.3-171.711a7.184,7.184,0,0,0-3.2-9.654L101.719,13.886a7.2,7.2,0,0,0-9.654,3.2m72.592.614L127.731,204.876a7.189,7.189,0,0,0,5.632,8.442l51.028,10.306a7.2,7.2,0,0,0,8.481-5.665L229.8,30.786a7.19,7.19,0,0,0-5.637-8.442L173.133,12.038a7.391,7.391,0,0,0-1.427-.144,7.194,7.194,0,0,0-7.048,5.8" transform="translate(-3676.356 1905.425)" fill="#fff"/>
  </g>
</svg>
