<svg width="490" height="489" viewBox="0 0 490 489" fill="none" xmlns="http://www.w3.org/2000/svg">
<circle cx="36.675" cy="36.675" r="36.675" transform="matrix(-1 0 0 1 131.308 101.468)" fill="black"/>
<path d="M88.52 132.641L156.98 201.101" stroke="black" stroke-width="18.3375"/>
<circle cx="394.145" cy="138.143" r="36.675" fill="black"/>
<path d="M400.869 132.641L332.409 201.101" stroke="black" stroke-width="18.3375"/>
<path fill-rule="evenodd" clip-rule="evenodd" d="M105.043 356.993C85.276 347.583 73.7721 326.451 77.6256 304.901C94.165 212.406 163.093 143.033 245.611 143.033C328.33 143.033 397.391 212.743 413.716 305.573C417.513 327.163 405.915 348.285 386.081 357.618C343.64 377.591 296.235 388.755 246.222 388.755C195.69 388.755 147.82 377.358 105.043 356.993Z" fill="#FFDF6F"/>
<path d="M413.716 305.573L422.746 303.985L413.716 305.573ZM386.081 357.618L382.177 349.322L386.081 357.618ZM86.6512 306.515C102.633 217.14 168.694 152.201 245.611 152.201V133.864C157.491 133.864 85.6973 207.672 68.6 303.287L86.6512 306.515ZM245.611 152.201C322.713 152.201 388.911 217.457 404.686 307.161L422.746 303.985C405.872 208.028 333.946 133.864 245.611 133.864V152.201ZM382.177 349.322C340.932 368.732 294.857 379.586 246.222 379.586V397.924C297.613 397.924 346.348 386.449 389.985 365.914L382.177 349.322ZM246.222 379.586C197.082 379.586 150.556 368.505 108.984 348.714L101.102 365.272C145.084 386.21 194.298 397.924 246.222 397.924V379.586ZM404.686 307.161C407.73 324.47 398.462 341.659 382.177 349.322L389.985 365.914C413.369 354.91 427.296 329.855 422.746 303.985L404.686 307.161ZM68.6 303.287C63.9824 329.11 77.7983 354.178 101.102 365.272L108.984 348.714C92.7538 340.988 83.5618 323.792 86.6512 306.515L68.6 303.287Z" fill="black"/>
<path fill-rule="evenodd" clip-rule="evenodd" d="M140.311 333.998C124.4 327.518 114.962 310.589 120.475 294.317C137.477 244.138 187.075 207.825 245.611 207.825C304.148 207.825 353.745 244.138 370.748 294.317C376.261 310.589 366.823 327.518 350.912 333.998C318.414 347.233 282.864 354.525 245.611 354.525C208.358 354.525 172.808 347.233 140.311 333.998Z" fill="black"/>
<ellipse cx="287.788" cy="286.065" rx="30.5625" ry="24.45" fill="white"/>
<ellipse cx="200.295" cy="286.08" rx="30.5625" ry="24.45" fill="white"/>
</svg>
