<svg width="1211" height="525" viewBox="0 0 1211 525" fill="none" xmlns="http://www.w3.org/2000/svg">
<circle cx="36.675" cy="36.675" r="36.675" transform="matrix(-1 0 0 1 131.308 101.468)" fill="black"/>
<path d="M88.52 132.641L156.98 201.101" stroke="black" stroke-width="18.3375"/>
<circle cx="394.145" cy="138.143" r="36.675" fill="black"/>
<path d="M400.869 132.641L332.409 201.101" stroke="black" stroke-width="18.3375"/>
<path fill-rule="evenodd" clip-rule="evenodd" d="M105.043 356.993C85.276 347.583 73.7721 326.451 77.6256 304.901C94.165 212.406 163.093 143.033 245.611 143.033C328.33 143.033 397.391 212.743 413.716 305.573C417.513 327.163 405.915 348.285 386.081 357.618C343.64 377.591 296.235 388.755 246.222 388.755C195.69 388.755 147.82 377.358 105.043 356.993Z" fill="#FFDF6F"/>
<path d="M413.716 305.573L422.746 303.985L413.716 305.573ZM386.081 357.618L382.177 349.322L386.081 357.618ZM86.6512 306.515C102.633 217.14 168.694 152.201 245.611 152.201V133.864C157.491 133.864 85.6973 207.672 68.6 303.287L86.6512 306.515ZM245.611 152.201C322.713 152.201 388.911 217.457 404.686 307.161L422.746 303.985C405.872 208.028 333.946 133.864 245.611 133.864V152.201ZM382.177 349.322C340.932 368.732 294.857 379.586 246.222 379.586V397.924C297.613 397.924 346.348 386.449 389.985 365.914L382.177 349.322ZM246.222 379.586C197.082 379.586 150.556 368.505 108.984 348.714L101.102 365.272C145.084 386.21 194.298 397.924 246.222 397.924V379.586ZM404.686 307.161C407.73 324.47 398.462 341.659 382.177 349.322L389.985 365.914C413.369 354.91 427.296 329.855 422.746 303.985L404.686 307.161ZM68.6 303.287C63.9824 329.11 77.7983 354.178 101.102 365.272L108.984 348.714C92.7538 340.988 83.5618 323.792 86.6512 306.515L68.6 303.287Z" fill="black"/>
<path fill-rule="evenodd" clip-rule="evenodd" d="M140.311 333.998C124.4 327.518 114.962 310.589 120.475 294.317C137.477 244.138 187.075 207.825 245.611 207.825C304.148 207.825 353.745 244.138 370.748 294.317C376.261 310.589 366.823 327.518 350.912 333.998C318.414 347.233 282.864 354.525 245.611 354.525C208.358 354.525 172.808 347.233 140.311 333.998Z" fill="black"/>
<ellipse cx="287.788" cy="286.065" rx="30.5625" ry="24.45" fill="white"/>
<ellipse cx="200.295" cy="286.08" rx="30.5625" ry="24.45" fill="white"/>
<path d="M674.32 263.36L652.56 204.16L631.76 263.36H674.32ZM624.4 134.4H682.64L763.92 349.44L706.64 355.2L690.96 309.12H615.76L600.72 352H542.8L624.4 134.4ZM838.14 352H779.9V129.6L838.14 126.08V352ZM899.503 352H870.063V129.6L928.303 126.08V322.88L899.503 352ZM909.423 257.28L893.103 219.84C896.943 215.147 901.849 210.667 907.823 206.4C914.009 201.92 920.836 198.293 928.303 195.52C935.769 192.747 943.449 191.36 951.343 191.36C966.703 191.36 980.356 194.24 992.303 200C1004.25 205.76 1013.64 214.613 1020.46 226.56C1027.5 238.507 1031.02 253.76 1031.02 272.32C1031.02 290.667 1027.5 306.027 1020.46 318.4C1013.64 330.773 1004.04 340.053 991.663 346.24C979.503 352.427 965.209 355.52 948.783 355.52C942.383 355.52 935.983 354.56 929.583 352.64C923.396 350.72 917.209 347.733 911.023 343.68C905.049 339.413 899.076 333.867 893.103 327.04L909.423 292.8C915.609 298.56 921.689 303.04 927.663 306.24C933.636 309.227 939.396 310.72 944.943 310.72C949.849 310.72 954.223 309.227 958.063 306.24C961.903 303.253 964.996 298.88 967.343 293.12C969.689 287.36 970.863 280.533 970.863 272.64C970.863 264.747 969.689 258.133 967.343 252.8C965.209 247.253 962.009 243.093 957.743 240.32C953.689 237.547 948.569 236.16 942.383 236.16C937.263 236.16 932.036 238.08 926.703 241.92C921.369 245.76 915.609 250.88 909.423 257.28ZM1088.62 352.64L1089.9 349.12L1034.22 206.4L1087.98 191.04L1119.66 284.48L1149.42 196.8H1207.34L1139.19 370.24C1135.98 378.56 1130.76 386.24 1123.5 393.28C1116.25 400.32 1107.83 406.293 1098.22 411.2C1088.62 416.107 1078.7 419.733 1068.46 422.08L1048.94 376.96C1054.06 374.827 1059.4 372.48 1064.94 369.92C1070.7 367.36 1075.82 364.587 1080.3 361.6C1084.78 358.613 1087.56 355.627 1088.62 352.64Z" fill="black"/>
</svg>
