<svg width="74" height="74" viewBox="0 0 74 74" fill="none" xmlns="http://www.w3.org/2000/svg">
<rect width="74" height="74" rx="37" fill="#1F1F1F"/>
<path d="M62.3234 44.7429L59.3154 45.2196V35.2324L61.8574 35.3905C62.7159 35.3905 64.1539 36.5955 64.1539 37.454L64.4202 42.2467C64.4202 43.1052 63.1818 44.7429 62.3234 44.7429Z" fill="white"/>
<path d="M60.5939 45.4375H59.3172C59.196 45.4375 59.0977 45.3392 59.0977 45.218V35.2308C59.0977 35.1095 59.196 35.0112 59.3172 35.0112H60.5939C62.8365 35.0112 64.6611 36.8357 64.6611 39.0785V41.3703C64.6611 43.613 62.8365 45.4375 60.5939 45.4375ZM59.5367 44.9985H60.5939C62.5944 44.9985 64.222 43.3709 64.222 41.3704V39.0785C64.222 37.078 62.5944 35.4504 60.5939 35.4504H59.5367V44.9985Z" fill="#1F1F1F"/>
<path d="M10.36 44.4003L14.8 45.8803V35.5203L11.5454 35.3121C11.2296 35.3121 9.27579 37.0596 9.03754 38.4848C8.87987 39.428 8.98138 41.6848 8.98138 41.6848C8.98138 42.5754 10.36 44.4003 10.36 44.4003Z" fill="white"/>
<path d="M14.2237 45.4376H12.9472C10.7044 45.4376 8.87988 43.6131 8.87988 41.3704V39.0786C8.87988 36.8359 10.7044 35.0113 12.9472 35.0113H14.2237C14.3449 35.0113 14.4433 35.1096 14.4433 35.2309V45.2181C14.4432 45.3394 14.3449 45.4376 14.2237 45.4376ZM12.9472 35.4505C10.9466 35.4505 9.31902 37.078 9.31902 39.0786V41.3704C9.31902 43.371 10.9466 44.9985 12.9472 44.9985H14.0041V35.4505H12.9472Z" fill="#1F1F1F"/>
<path d="M12.6079 39.8125C12.6079 29.0808 23.4251 17.9797 36.7688 17.9797C50.1126 17.9797 60.9298 29.0807 60.9298 39.8125C60.9298 50.5442 50.1126 56.8426 36.7688 56.8426C23.4251 56.8426 12.6079 50.5441 12.6079 39.8125Z" fill="white"/>
<path d="M36.7687 57.0621C30.0508 57.0621 23.9401 55.4541 19.5624 52.5345C14.869 49.4042 12.3882 45.0049 12.3882 39.8124C12.3882 34.4914 14.9927 28.9875 19.5339 24.7117C24.2948 20.2289 30.4157 17.76 36.7687 17.76C43.1216 17.76 49.2424 20.2289 54.0036 24.7117C58.5447 28.9874 61.1492 34.4914 61.1492 39.8124C61.1492 45.0049 58.6684 49.4042 53.9749 52.5345C49.5972 55.4541 43.4866 57.0621 36.7687 57.0621ZM36.7687 18.1992C23.0661 18.1992 12.8274 29.6099 12.8274 39.8124C12.8274 44.8513 15.2406 49.1242 19.8062 52.1692C24.1125 55.0413 30.1365 56.623 36.7687 56.623C43.4009 56.623 49.4249 55.0413 53.7313 52.1692C58.2969 49.1242 60.7101 44.8513 60.7101 39.8124C60.71 29.6099 50.4713 18.1992 36.7687 18.1992Z" fill="#1F1F1F"/>
<path d="M49.3528 32H24.6471C22.0806 32 20 34.2502 20 37.026V40.305C20 42.4221 21.1259 44.6657 23.0675 45.0318C29.9139 46.3227 44.0861 46.3227 50.9325 45.0318C52.8741 44.6657 54 42.4221 54 40.305V37.026C53.9999 34.2502 51.9194 32 49.3528 32Z" fill="#1F1F1F"/>
<path d="M30.3124 38.58C30.3124 39.4526 29.6559 40.16 28.8461 40.16C28.0364 40.16 27.3799 39.4526 27.3799 38.58C27.3799 37.7074 28.0364 37 28.8461 37C29.656 37 30.3124 37.7074 30.3124 38.58Z" fill="white"/>
<path d="M44.4452 40.16C45.255 40.16 45.9115 39.4526 45.9115 38.58C45.9115 37.7074 45.255 37 44.4452 37C43.6355 37 42.979 37.7074 42.979 38.58C42.979 39.4526 43.6355 40.16 44.4452 40.16Z" fill="white"/>
</svg>
