<svg id="Layer_1" data-name="Layer 1" xmlns="http://www.w3.org/2000/svg" viewBox="0 0 122.87 122.89"><defs><style>.cls-1{fill:#8ab4f8;}.cls-2{fill:#4285f4;}.cls-3{fill:#246fdb;}</style></defs><title>google-tag-manager</title><polygon class="cls-1" points="72.13 118.22 50.8 96.86 96.63 50.56 118.35 72.28 72.13 118.22 72.13 118.22"/><path class="cls-2" d="M72.29,26.23,50.56,4.5,4.5,50.56a15.35,15.35,0,0,0,0,21.71h0l46.06,46.06,21.31-21.4L37.07,61.45,72.29,26.23Z"/><path class="cls-1" d="M118.35,50.56,72.29,4.5A15.36,15.36,0,0,0,50.56,26.22L96.65,72.28a15.36,15.36,0,0,0,21.72-21.72Z"/><path class="cls-3" d="M76.48,107.66a15.23,15.23,0,1,0-15.22,15.23,15.22,15.22,0,0,0,15.22-15.23Z"/></svg>