<svg width="258" height="48" viewBox="0 0 258 48" fill="none" xmlns="http://www.w3.org/2000/svg">
<g clip-path="url(#clip0_10957_36589)">
<path d="M19.0399 4.75781L24.7421 34.6407H21.1103L19.2719 25.4446H7.54834L3.13329 34.6407H0.696289L14.9492 4.75781H19.0424H19.0399ZM8.41888 23.5615H18.9027L16.0068 7.4241L8.42137 23.5615H8.41888Z" fill="black"/>
<path d="M40.2961 13.0976L45.9709 13.14L45.7987 14.8286L42.8953 14.9159C43.7035 15.956 44.1076 17.2978 44.1076 18.944C44.1076 21.8323 43.3118 24.072 41.7254 25.6583C40.1365 27.2471 37.9988 28.0403 35.3124 28.0403C34.387 28.0403 33.5065 27.9256 32.6683 27.6936C31.5134 28.2997 30.9348 29.0804 30.9348 30.0331C30.9348 31.3326 32.1321 31.9836 34.5316 31.9836C40.366 31.9836 43.2844 33.949 43.2844 37.8749C43.2844 40.3865 42.4189 42.3719 40.6853 43.831C38.9517 45.2901 36.4822 46.0184 33.277 46.0184C30.5332 46.0184 28.4254 45.4771 26.9512 44.3947C25.4771 43.3122 24.7412 41.7433 24.7412 39.6931C24.7412 37.9597 25.1802 36.5579 26.0632 35.4904C26.9437 34.4229 28.0338 33.6572 29.3334 33.1933C28.8993 32.6171 28.6823 31.8938 28.6823 31.0283C28.6823 29.3822 29.4905 28.0378 31.1094 27.0002C30.2139 26.4814 29.5279 25.7581 29.0515 24.8353C28.5751 23.9124 28.3356 22.8274 28.3356 21.5853C28.3356 18.525 29.1937 16.2702 30.9123 14.8261C32.6309 13.382 34.8035 12.6611 37.4326 12.6611C38.5002 12.6611 39.453 12.8058 40.2912 13.0951L40.2961 13.0976ZM30.8923 34.2832C29.7948 34.6599 28.8919 35.2734 28.1834 36.1239C27.475 36.977 27.1233 38.0943 27.1233 39.4811C27.1233 41.04 27.6871 42.1948 28.812 42.948C29.9395 43.6988 31.5134 44.0754 33.5339 44.0754C35.7589 44.0754 37.4625 43.614 38.6449 42.6886C39.8297 41.7633 40.4209 40.4364 40.4209 38.7029C40.4209 37.2887 39.8871 36.2686 38.817 35.6476C37.7469 35.0265 36.158 34.7172 34.0502 34.7172C32.7781 34.7172 31.7255 34.5726 30.8874 34.2832H30.8923ZM37.0884 14.5293C35.3847 14.5293 34.0053 15.0855 32.9502 16.1979C31.8951 17.3103 31.3688 19.166 31.3688 21.7649C31.3688 23.2365 31.723 24.3639 32.4314 25.1445C33.1398 25.9252 34.1425 26.3143 35.4421 26.3143C37.2331 26.3143 38.6199 25.6783 39.6027 24.4087C40.5855 23.1392 41.0744 21.2611 41.0744 18.7769C41.0744 15.946 39.7449 14.5318 37.0884 14.5318V14.5293Z" fill="black"/>
<path d="M59.518 32.7905C58.9244 33.3841 58.0887 33.9329 57.0062 34.4367C55.9236 34.9405 54.6016 35.1949 53.0426 35.1949C50.5008 35.1949 48.4505 34.4442 46.8915 32.9427C45.3325 31.4412 44.5518 29.2762 44.5518 26.4453C44.5518 23.6144 45.0057 21.3272 45.9162 19.2321C46.8266 17.1395 48.0963 15.5208 49.7301 14.3809C51.3614 13.2411 53.2472 12.6699 55.3848 12.6699C57.4053 12.6699 59.0017 13.2186 60.1715 14.3161C61.3414 15.4135 61.9251 16.7704 61.9251 18.3891C61.9251 21.0753 60.7477 22.8437 58.3931 23.6967C56.0384 24.5497 53.1723 24.9737 49.7924 24.9737H47.8418C47.8119 25.3778 47.7994 25.9989 47.7994 26.8369C47.7994 29.0043 48.3258 30.6206 49.3809 31.6881C50.436 32.7581 51.8428 33.2919 53.6063 33.2919C54.7612 33.2919 55.7565 33.1048 56.5971 32.7282C57.4352 32.354 58.0912 31.9425 58.5677 31.4935C59.0441 31.0471 59.2835 30.7927 59.2835 30.7353L60.411 31.7754C60.411 31.8627 60.1142 32.2019 59.523 32.793L59.518 32.7905ZM50.3986 16.8477C49.1863 18.3941 48.3906 20.5515 48.0164 23.3251H49.8797C52.5363 23.3251 54.7388 22.9934 56.4873 22.3299C58.2359 21.6664 59.1089 20.2946 59.1089 18.2145C59.1089 17.147 58.7473 16.264 58.0264 15.5707C57.303 14.8773 56.2928 14.5306 54.9932 14.5306C53.1449 14.5306 51.6133 15.3038 50.4011 16.8477H50.3986Z" fill="black"/>
<path d="M67.5474 13.0951L67.7196 15.088C69.3359 13.4717 71.5459 12.6611 74.3471 12.6611C76.1954 12.6611 77.6172 13.1101 78.615 14.003C79.6102 14.8984 80.1091 16.2403 80.1091 18.0311C80.1091 18.5225 80.0667 19.0562 79.9794 19.6349L77.8991 34.7546H74.7362L76.8165 20.024C76.8739 19.7072 76.9039 19.2732 76.9039 18.7245C76.9039 16.2129 75.5893 14.9558 72.9602 14.9558C71.516 14.9558 70.3611 15.2102 69.4931 15.714C68.6275 16.2203 67.9765 16.6892 67.5425 17.1207L65.073 34.7521H61.9102L64.9433 13.0901H67.5425L67.5474 13.0951Z" fill="black"/>
<path d="M94.8529 34.7578V32.2461C94.3915 32.9121 93.6681 33.568 92.6853 34.2165C91.7025 34.865 90.373 35.1917 88.6993 35.1917C86.417 35.1917 84.611 34.4111 83.284 32.8522C81.9545 31.2933 81.291 29.1409 81.291 26.3973C81.291 23.8257 81.7101 21.5012 82.5482 19.4235C83.3863 17.3434 84.6135 15.6972 86.2299 14.485C87.8462 13.2729 89.7544 12.6643 91.9495 12.6643C93.1343 12.6643 94.1146 12.8164 94.8954 13.1182C95.6761 13.4225 96.2448 13.7542 96.6065 14.1134C96.9682 14.475 97.1478 14.6846 97.1478 14.7419H97.1902L98.9238 2.35081L102.129 2.17871L97.5369 34.7578H94.8505H94.8529ZM93.0769 32.0291C93.9724 31.3357 94.621 30.6873 95.0276 30.0787L96.8909 16.6924C96.5716 16.2883 96.0902 15.8618 95.4391 15.4154C94.7881 14.9689 93.8427 14.7444 92.6005 14.7444C89.8866 14.7444 87.8637 15.8219 86.5342 17.9719C85.2047 20.1244 84.5412 23.0476 84.5412 26.7439C84.5412 28.8515 84.9802 30.4328 85.8632 31.4879C86.7437 32.5429 88.0084 33.0692 89.6547 33.0692C91.0415 33.0692 92.1815 32.7225 93.0769 32.0291Z" fill="black"/>
<path d="M114.805 34.7546L114.633 32.243C114.199 32.9089 113.486 33.5649 112.488 34.2134C111.493 34.8619 110.141 35.1886 108.437 35.1886C106.185 35.1886 104.394 34.4229 103.064 32.8915C101.735 31.36 101.071 29.225 101.071 26.4789C101.071 23.9074 101.505 21.5754 102.371 19.4827C103.236 17.3901 104.494 15.729 106.14 14.5018C107.786 13.2747 109.749 12.6611 112.032 12.6611C113.621 12.6611 114.805 12.9355 115.584 13.4842C116.364 14.0329 116.868 14.5243 117.1 14.9583L117.836 13.0951H120.348L117.315 34.7571H114.803L114.805 34.7546ZM112.835 32.0684C113.715 31.4049 114.359 30.7689 114.763 30.1628L116.669 17.0359C116.611 16.8638 116.437 16.6019 116.15 16.2553C115.86 15.9086 115.406 15.5694 114.785 15.2376C114.164 14.9059 113.379 14.7388 112.423 14.7388C109.794 14.7388 107.794 15.8163 106.422 17.9663C105.05 20.1187 104.364 23.0295 104.364 26.6959C104.364 28.8035 104.81 30.3923 105.706 31.4623C106.601 32.5323 107.856 33.0661 109.475 33.0661C110.832 33.0661 111.952 32.7343 112.832 32.0709L112.835 32.0684Z" fill="black"/>
<path d="M230.244 12.7152H226.019L234.734 35.4822H234.891L241.489 18.2872L248.101 35.4846H248.321L257.036 12.7152H255.46L249.174 29.1295L242.611 12.2588H242.479L236.243 28.3363L230.244 12.7152Z" fill="black"/>
<path d="M200.383 2.44092V34.8154H196.282V2.44092H200.383Z" fill="black"/>
<path d="M203.843 24.2163C203.843 17.3698 208.407 12.6782 215.339 12.6782C221.807 12.6782 226.245 16.9059 226.245 23.71C226.245 30.5141 221.68 35.4177 214.833 35.4177C207.986 35.4177 203.843 31.1477 203.843 24.2163ZM215.806 34.8266C219.44 34.8266 221.807 31.8685 221.807 25.0619C221.807 17.7489 218.891 13.2693 214.494 13.2693C210.859 13.2693 208.28 16.1002 208.28 22.9493C208.28 30.2597 211.323 34.8266 215.806 34.8266Z" fill="black"/>
<path d="M154.843 34.6903H150.762V15.6821L150.757 15.2182V14.9912L154.808 12.6317H154.85V33.6352L154.843 34.6878V34.6903ZM152.785 5.62305C154.302 5.62305 155.399 6.67559 155.399 8.10975C155.399 9.54391 154.304 10.6389 152.785 10.6389C151.266 10.6389 150.171 9.54391 150.171 8.10975C150.171 6.67559 151.224 5.62305 152.785 5.62305Z" fill="black"/>
<path d="M159.188 15.0305L163.243 12.7134H163.286V16.7914C166.658 14.3047 169.397 12.7283 171.632 12.7283C175.004 12.7283 177.154 15.003 177.154 18.7543V33.7169L177.159 34.56V34.7695H173.021V33.7169L173.024 19.4302C173.024 16.4796 171.422 15.0903 169.06 15.0903C167.08 15.0903 165.478 15.8236 163.286 17.3426V34.7745H159.197V15.7663L159.188 15.0355V15.0305Z" fill="black"/>
<path d="M149.787 4.75781H146.464L137.861 17.4881L129.929 5.79539L129.261 4.75781H124.018L124.704 5.79539L134.778 20.3764V33.6954L134.781 34.5384V34.7654H139.203V34.5259V33.6954V20.3714L149.787 4.75781Z" fill="black"/>
<path d="M187.07 34.6913H182.927V33.6337V14.8675H179.59V13.2188H182.94C183.124 5.64649 187.098 1.97754 190.75 1.97754C192.441 1.97754 193.371 2.82307 193.371 4.09011C193.371 4.93564 192.907 5.52677 192.695 5.82357C191.598 5.27485 190.518 4.81093 188.699 4.81093C186.646 4.81093 185.609 6.73894 185.492 8.40256C185.364 10.1984 185.721 11.7797 186.397 13.2163H192.568V14.865H187.073V34.6888L187.07 34.6913Z" fill="black"/>
<path d="M125.255 30.1812C126.771 30.1812 127.869 31.2337 127.869 32.6679C127.869 34.102 126.774 35.197 125.255 35.197C123.736 35.197 122.641 34.102 122.641 32.6679C122.641 31.2337 123.693 30.1812 125.255 30.1812Z" fill="black"/>
</g>
<defs>
<clipPath id="clip0_10957_36589">
<rect width="257.381" height="47" fill="white" transform="translate(0 0.5)"/>
</clipPath>
</defs>
</svg>
