<svg width="16" height="16" viewBox="0 0 16 16" fill="none" xmlns="http://www.w3.org/2000/svg">
<path fill-rule="evenodd" clip-rule="evenodd" d="M1.4817 1.48568C1.74987 1.21751 2.18465 1.21751 2.45282 1.48568L14.5085 13.5414C14.7767 13.8095 14.7767 14.2443 14.5085 14.5125C14.2403 14.7807 13.8056 14.7807 13.5374 14.5125L1.4817 2.4568C1.21353 2.18863 1.21353 1.75384 1.4817 1.48568Z" fill="white"/>
<path fill-rule="evenodd" clip-rule="evenodd" d="M14.5153 1.48609C14.7835 1.75426 14.7835 2.18905 14.5153 2.45721L2.45961 14.5129C2.19144 14.7811 1.75666 14.7811 1.48849 14.5129C1.22032 14.2447 1.22032 13.81 1.48849 13.5418L13.5442 1.48609C13.8123 1.21793 14.2471 1.21793 14.5153 1.48609Z" fill="white"/>
</svg>
