<svg width="60" height="60" viewBox="0 0 60 60" fill="none" xmlns="http://www.w3.org/2000/svg">
<rect width="60" height="60" rx="12" fill="#F4F6F8"/>
<path d="M16.5 37.58L30.1905 43.4474L43.881 37.58V24.8674L30.1905 19L16.5 24.8674V37.58Z" fill="white" stroke="#012432" stroke-width="1.7" stroke-linecap="round" stroke-linejoin="round"/>
<path d="M43.2931 37.4161V24.666L30.543 30.3328V43.0828L43.2931 37.4161Z" fill="white"/>
<path d="M16.5 37.58L30.1905 43.4474L43.881 37.58V24.8674L30.1905 19L16.5 24.8674V37.58Z" fill="white" stroke="#012432" stroke-width="1.7" stroke-linecap="round" stroke-linejoin="round"/>
<path d="M16.5 24.8682L30.1905 30.7356L43.8811 24.8682" fill="white"/>
<path d="M16.5 24.8682L30.1905 30.7356L43.8811 24.8682" stroke="#012432" stroke-width="1.7" stroke-linecap="round" stroke-linejoin="round"/>
<path d="M23.3438 27.8L37.0344 21.9326L23.3438 27.8Z" fill="white"/>
<path d="M23.3438 27.8L37.0344 21.9326" stroke="#012432" stroke-width="1.7" stroke-linecap="round" stroke-linejoin="round"/>
<path d="M30.1914 43.4467V31.7119V43.4467Z" fill="white"/>
<path d="M30.1914 43.4467V31.7119" stroke="#012432" stroke-width="1.7" stroke-linecap="round" stroke-linejoin="round"/>
</svg>
