<svg width="448" height="439" viewBox="0 0 448 439" fill="none" xmlns="http://www.w3.org/2000/svg">
<path d="M47.6965 72.544C46.2708 74.0087 43.9265 74.0405 42.463 72.6155C40.9975 71.1905 40.9657 68.8474 42.3914 67.3847L66.4853 42.731C66.547 42.6694 66.6086 42.6098 66.6723 42.5522C66.724 42.4925 66.7776 42.4329 66.8333 42.3753L70.1978 38.9331C71.6235 37.4684 73.9679 37.4366 75.4314 38.8616C76.8948 40.2865 76.9286 42.6277 75.5029 44.0924L72.1385 47.5346C72.0788 47.5982 72.0152 47.6558 71.9516 47.7134C71.8999 47.7731 71.8462 47.8327 71.7905 47.8903L47.6965 72.544ZM235.614 437.38C234.191 438.845 231.846 438.877 230.381 437.452C228.915 436.027 228.883 433.684 230.309 432.221L268.308 393.34C269.734 391.875 272.078 391.843 273.542 393.268C275.007 394.693 275.039 397.036 273.614 398.499L235.614 437.38ZM343.724 326.758C342.3 328.223 339.956 328.254 338.49 326.829C337.025 325.404 336.991 323.061 338.419 321.599L379.522 279.541C380.948 278.077 383.292 278.045 384.756 279.47C386.221 280.895 386.253 283.236 384.827 284.701L343.724 326.758ZM228.669 423.059C227.243 424.524 224.901 424.556 223.435 423.131C221.97 421.706 221.938 419.365 223.364 417.9L282.89 356.992C284.315 355.527 286.658 355.494 288.123 356.919C289.589 358.344 289.62 360.687 288.195 362.149L228.669 423.057V423.059ZM313.971 335.775C312.545 337.239 310.201 337.271 308.737 335.846C307.272 334.421 307.24 332.08 308.666 330.615L389.568 247.834C390.993 246.37 393.338 246.338 394.801 247.763C396.267 249.188 396.298 251.531 394.873 252.994L313.971 335.775ZM216.915 413.659C215.489 415.123 213.145 415.155 211.681 413.732C210.216 412.307 210.184 409.964 211.61 408.501L390.8 225.148C392.226 223.683 394.571 223.652 396.034 225.077C397.5 226.502 397.531 228.843 396.106 230.307L216.915 413.661V413.659ZM204.211 405.23C202.785 406.695 200.441 406.727 198.977 405.302C197.512 403.877 197.48 401.534 198.906 400.071L441.146 152.205C442.572 150.74 444.916 150.708 446.379 152.131C447.845 153.556 447.877 155.899 446.453 157.362L204.211 405.23ZM231.952 355.416C230.526 356.881 228.184 356.915 226.718 355.49C225.253 354.065 225.221 351.723 226.647 350.259L438.841 133.138C440.265 131.673 442.609 131.641 444.075 133.066C445.54 134.491 445.572 136.832 444.146 138.297L231.954 355.418L231.952 355.416ZM227.392 338.654C225.966 340.119 223.624 340.151 222.159 338.726C220.693 337.301 220.661 334.958 222.087 333.495L429.454 121.313C430.879 119.848 433.224 119.816 434.687 121.239C436.153 122.664 436.185 125.007 434.759 126.47L227.392 338.652V338.654ZM214.684 330.23C213.258 331.695 210.916 331.726 209.45 330.301C207.985 328.876 207.953 326.533 209.377 325.071L413.558 116.147C414.982 114.683 417.326 114.651 418.792 116.076C420.257 117.501 420.289 119.844 418.863 121.307L214.682 330.23H214.684ZM207.524 316.129C206.098 317.594 203.754 317.626 202.29 316.203C200.825 314.778 200.793 312.435 202.218 310.972L402.807 105.726C404.23 104.261 406.575 104.229 408.04 105.654C409.506 107.079 409.538 109.42 408.112 110.885L207.526 316.131L207.524 316.129ZM188.729 313.933C187.303 315.398 184.961 315.43 183.495 314.005C182.03 312.58 181.998 310.239 183.424 308.774L390.494 96.8916C391.92 95.4268 394.264 95.3951 395.728 96.818C397.193 98.243 397.225 100.584 395.799 102.049L188.729 313.933ZM186.985 294.29C185.559 295.754 183.217 295.786 181.751 294.361C180.286 292.936 180.254 290.593 181.68 289.13L372.984 93.3818C374.41 91.9171 376.754 91.8853 378.218 93.3103C379.683 94.7352 379.715 97.0784 378.289 98.5411L186.985 294.288V294.29ZM191.153 268.597C189.727 270.061 187.385 270.095 185.919 268.668C184.454 267.245 184.422 264.902 185.848 263.437L355.04 90.3153C356.466 88.8506 358.81 88.8188 360.274 90.2437C361.739 91.6687 361.771 94.0098 360.345 95.4745L191.153 268.597ZM181.734 256.807C180.308 258.272 177.965 258.304 176.5 256.879C175.034 255.456 175.003 253.113 176.426 251.648L335.788 88.5842L335.86 88.5107L335.925 88.4431L337.301 87.0361C338.727 85.5714 341.069 85.5396 342.535 86.9645C344 88.3895 344.032 90.7306 342.607 92.1953L341.231 93.6044L341.159 93.6779L341.093 93.7455L181.732 256.809L181.734 256.807ZM167.588 249.854C166.162 251.318 163.82 251.35 162.354 249.927C160.889 248.502 160.857 246.159 162.283 244.696L328.805 74.3048C330.228 72.8401 332.573 72.8083 334.038 74.2333C335.504 75.6582 335.538 77.9994 334.11 79.4641L167.588 249.854ZM158.815 237.404C157.389 238.869 155.047 238.901 153.581 237.476C152.116 236.053 152.084 233.71 153.508 232.245L312.374 69.6881C313.8 68.2234 316.144 68.1916 317.608 69.6165C319.073 71.0415 319.105 73.3846 317.679 74.8474L158.813 237.404H158.815ZM155.011 219.868C153.585 221.332 151.243 221.364 149.777 219.941C148.312 218.516 148.28 216.173 149.706 214.71L286.377 74.8633C286.522 74.7162 286.676 74.583 286.835 74.4638C286.946 74.3048 287.073 74.1518 287.212 74.0067L295.065 65.9736C296.489 64.5089 298.833 64.4771 300.298 65.9021C301.764 67.327 301.796 69.6682 300.37 71.1329L292.518 79.166C292.374 79.313 292.221 79.4462 292.06 79.5654C291.949 79.7244 291.822 79.8775 291.683 80.0225L155.011 219.868ZM138.827 215.003C137.401 216.467 135.057 216.499 133.593 215.074C132.128 213.649 132.096 211.306 133.522 209.843L279.957 60.0075C281.382 58.5428 283.727 58.511 285.19 59.9359C286.656 61.3609 286.688 63.704 285.262 65.1667L138.827 215.003ZM124.027 208.716C122.601 210.181 120.259 210.213 118.793 208.788C117.328 207.363 117.296 205.022 118.72 203.557L273.218 45.4697C274.644 44.005 276.988 43.9732 278.451 45.3981C279.917 46.8231 279.949 49.1642 278.523 50.6289L124.025 208.716H124.027ZM109.267 202.393C107.841 203.857 105.497 203.889 104.033 202.464C102.568 201.039 102.536 198.698 103.962 197.233L263.838 33.6427C265.262 32.178 267.606 32.1462 269.072 33.5711C270.537 34.9961 270.569 37.3372 269.144 38.8019L109.267 202.393ZM102.987 187.39C101.561 188.854 99.2171 188.886 97.7536 187.461C96.2881 186.038 96.2563 183.695 97.682 182.23L259.669 16.4795C261.094 15.0148 263.439 14.983 264.902 16.408C266.368 17.8329 266.399 20.1761 264.976 21.6388L102.985 187.392L102.987 187.39ZM81.8759 187.563C80.4502 189.027 78.1058 189.059 76.6423 187.634C75.1768 186.209 75.145 183.868 76.5707 182.403L221.481 34.1276C222.906 32.6629 225.251 32.6311 226.714 34.056C228.18 35.481 228.211 37.8242 226.786 39.2869L81.8759 187.563ZM53.0952 195.586C51.6695 197.05 49.3251 197.082 47.8616 195.657C46.3961 194.232 46.3643 191.891 47.79 190.426L197.132 37.6135C197.697 37.0332 198.407 36.6774 199.15 36.5482C199.262 35.8089 199.596 35.0955 200.158 34.5171L203.694 30.9001C205.12 29.4354 207.462 29.4036 208.927 30.8285C210.393 32.2535 210.425 34.5946 208.999 36.0593L205.466 39.6764C204.899 40.2567 204.189 40.6125 203.447 40.7416C203.338 41.481 203.002 42.1944 202.441 42.7708L53.0952 195.586ZM45.2985 182.135C43.8728 183.6 41.5284 183.631 40.0649 182.207C38.5994 180.782 38.5676 178.44 39.9933 176.976L169.083 44.8874C170.509 43.4226 172.851 43.3908 174.317 44.8158C175.782 46.2408 175.814 48.5819 174.388 50.0466L45.2985 182.135ZM25.6825 180.78C24.2568 182.244 21.9144 182.276 20.4489 180.851C18.9834 179.426 18.9516 177.085 20.3773 175.62L159.37 33.3982C160.795 31.9335 163.138 31.9017 164.603 33.3267C166.069 34.7516 166.1 37.0928 164.675 38.5575L25.6825 180.78ZM14.5532 170.741C13.1275 172.206 10.7851 172.238 9.31959 170.813C7.85411 169.388 7.82229 167.045 9.24801 165.582L160.489 10.8254C161.915 9.36066 164.259 9.32886 165.723 10.7538C167.188 12.1788 167.22 14.5199 165.794 15.9846L14.5532 170.741ZM6.85392 157.191C5.42821 158.656 3.08383 158.688 1.62034 157.263C0.154855 155.838 0.12304 153.497 1.54875 152.032L42.0235 110.617C42.5604 110.066 43.2285 109.716 43.9304 109.573C44.0557 108.874 44.3858 108.202 44.9187 107.653L109.299 41.7791L115.329 35.6082L139.628 10.7459C141.054 9.28116 143.396 9.24936 144.862 10.6743C146.327 12.0993 146.359 14.4424 144.935 15.9052L120.637 40.7675L114.606 46.9384L50.2258 112.813C49.689 113.365 49.0209 113.713 48.3189 113.856C48.1937 114.556 47.8636 115.227 47.3307 115.776L6.85392 157.191ZM153.136 7.51039C151.71 8.9751 149.368 9.0069 147.902 7.58194C146.437 6.15697 146.405 3.81582 147.831 2.35111L148.544 1.61975C149.97 0.155036 152.315 0.123238 153.778 1.5482C155.243 2.97118 155.275 5.31432 153.85 6.77903L153.136 7.51039ZM54.0377 87.4832C52.612 88.9479 50.2676 88.9797 48.8041 87.5568C47.3386 86.1318 47.3068 83.7887 48.7325 82.3259L80.83 49.4822C82.2557 48.0175 84.5981 47.9857 86.0636 49.4107C87.529 50.8356 87.5609 53.1788 86.1351 54.6415L54.0377 87.4832ZM112.778 27.3784C111.353 28.8431 109.01 28.8749 107.545 27.4499C106.079 26.025 106.047 23.6838 107.473 22.2191L112.699 16.871C114.124 15.4063 116.467 15.3745 117.932 16.7995C119.398 18.2244 119.43 20.5656 118.004 22.0303L112.778 27.3764V27.3784Z" fill="#114559"/>
</svg>
