<svg width="46" height="47" viewBox="0 0 46 47" fill="none" xmlns="http://www.w3.org/2000/svg">
<rect y="0.195312" width="46" height="46" rx="9.2" fill="#F4F6F8"/>
<path d="M27.4069 20.219C26.6249 20.219 25.8605 19.9871 25.2103 19.5527C24.5601 19.1183 24.0533 18.5008 23.7541 17.7783C23.4548 17.0559 23.3765 16.2609 23.5291 15.4939C23.6817 14.727 24.0582 14.0225 24.6112 13.4696C25.1641 12.9166 25.8686 12.5401 26.6355 12.3875C27.4025 12.2349 28.1975 12.3132 28.9199 12.6125C29.6424 12.9117 30.2599 13.4185 30.6943 14.0687C31.1287 14.7189 31.3606 15.4833 31.3606 16.2653C31.3606 17.3139 30.9441 18.3195 30.2026 19.061C29.4611 19.8025 28.4555 20.219 27.4069 20.219ZM27.4069 13.4694C26.8483 13.4694 26.3023 13.635 25.8379 13.9454C25.3735 14.2557 25.0115 14.6967 24.7977 15.2128C24.584 15.7288 24.5281 16.2966 24.637 16.8445C24.746 17.3923 25.015 17.8955 25.4099 18.2905C25.8049 18.6854 26.3081 18.9544 26.8559 19.0634C27.4037 19.1723 27.9716 19.1164 28.4876 18.9027C29.0037 18.6889 29.4447 18.3269 29.755 17.8625C30.0654 17.3981 30.231 16.8521 30.231 16.2935C30.231 15.5445 29.9334 14.8262 29.4038 14.2966C28.8742 13.7669 28.1559 13.4694 27.4069 13.4694Z" fill="#114559"/>
<path d="M28.8131 31.3914H25.989C24.4819 31.387 23.0381 30.7851 21.9741 29.7179C20.91 28.6507 20.3125 27.2051 20.3125 25.698C20.314 24.554 20.7691 23.4573 21.5781 22.6484C22.387 21.8394 23.4837 21.3843 24.6277 21.3828H30.1856C31.3296 21.3843 32.4263 21.8394 33.2353 22.6484C34.0442 23.4573 34.4993 24.554 34.5008 25.698C34.5008 27.2071 33.9018 28.6543 32.8353 29.7219C31.7688 30.7894 30.3221 31.3899 28.8131 31.3914ZM24.6277 22.5125C23.7833 22.5139 22.9739 22.8501 22.3768 23.4471C21.7797 24.0442 21.4436 24.8536 21.4421 25.698C21.4421 26.9075 21.9222 28.0674 22.7768 28.9231C23.6315 29.7788 24.7908 30.2603 26.0003 30.2618H28.8244C30.0338 30.2603 31.1931 29.7788 32.0478 28.9231C32.9024 28.0674 33.3825 26.9075 33.3825 25.698C33.381 24.8536 33.0449 24.0442 32.4478 23.4471C31.8507 22.8501 31.0413 22.5139 30.1969 22.5125H24.6277Z" fill="#114559"/>
<path d="M18.5944 22.9085C17.8124 22.9085 17.048 22.6766 16.3978 22.2422C15.7476 21.8077 15.2408 21.1902 14.9416 20.4678C14.6423 19.7453 14.564 18.9503 14.7166 18.1834C14.8692 17.4164 15.2457 16.7119 15.7987 16.159C16.3516 15.6061 17.0561 15.2295 17.823 15.0769C18.59 14.9244 19.385 15.0027 20.1074 15.3019C20.8299 15.6012 21.4474 16.108 21.8818 16.7581C22.3162 17.4083 22.5481 18.1727 22.5481 18.9547C22.5481 20.0033 22.1316 21.009 21.3901 21.7505C20.6486 22.4919 19.643 22.9085 18.5944 22.9085ZM18.5944 16.1589C18.0358 16.1589 17.4898 16.3245 17.0254 16.6348C16.561 16.9451 16.199 17.3862 15.9852 17.9022C15.7715 18.4183 15.7156 18.9861 15.8245 19.5339C15.9335 20.0817 16.2025 20.585 16.5974 20.9799C16.9924 21.3749 17.4956 21.6438 18.0434 21.7528C18.5912 21.8618 19.1591 21.8059 19.6751 21.5921C20.1912 21.3784 20.6322 21.0164 20.9425 20.552C21.2529 20.0875 21.4185 19.5415 21.4185 18.983C21.4185 18.234 21.1209 17.5156 20.5913 16.986C20.0617 16.4564 19.3434 16.1589 18.5944 16.1589Z" fill="#114559"/>
<rect x="17.625" y="25.5488" width="6.04851" height="6.04851" fill="#F4F6F8"/>
<path d="M20.0006 34.753H20.0012C21.6884 34.7513 23.3058 34.0799 24.4982 32.8863C25.6906 31.6928 26.3604 30.0746 26.3604 28.3875L26.3604 28.3866C26.3586 27.0647 25.8327 25.7974 24.898 24.8626C23.9632 23.9278 22.6959 23.4019 21.374 23.4002H21.3731L15.8152 23.4002L15.8144 23.4002C14.4924 23.4019 13.2251 23.9278 12.2903 24.8626C11.3556 25.7974 10.8297 27.0647 10.8279 28.3866V28.3875C10.8279 30.0724 11.496 31.6887 12.6856 32.8819L13.1616 32.4074L12.6856 32.8819C13.8753 34.0751 15.4895 34.7479 17.1745 34.753H17.1765H20.0006ZM14.0395 26.6118C14.5108 26.1406 15.1495 25.8753 15.8159 25.874H21.3838C22.0501 25.8753 22.6889 26.1406 23.1601 26.6118C23.6313 27.083 23.8966 27.7218 23.8979 28.3882C23.8977 29.4192 23.4884 30.4081 22.7598 31.1376C22.0311 31.8672 21.0428 32.2777 20.0117 32.2792C20.0115 32.2792 20.0113 32.2792 20.011 32.2792H17.1886C17.1883 32.2792 17.1881 32.2792 17.1879 32.2792C16.1568 32.2777 15.1685 31.8672 14.4398 31.1376C13.7112 30.4081 13.3019 29.4192 13.3017 28.3881C13.303 27.7217 13.5683 27.083 14.0395 26.6118Z" fill="#114559" stroke="#F4F6F8" stroke-width="1.34411"/>
</svg>
