<svg width="46" height="47" viewBox="0 0 46 47" fill="none" xmlns="http://www.w3.org/2000/svg">
<rect y="0.195312" width="46" height="46" rx="9.2" fill="#F4F6F8"/>
<path d="M13.2266 29.3281L23.1395 34.0763L33.0524 29.3281V19.0402L23.1395 14.292L13.2266 19.0402V29.3281Z" fill="white" stroke="#114559" stroke-width="1.23095" stroke-linecap="round" stroke-linejoin="round"/>
<path d="M32.6266 29.1961V18.8779L23.3945 23.4638V33.7819L32.6266 29.1961Z" fill="white"/>
<path d="M13.2266 29.3281L23.1395 34.0763L33.0524 29.3281V19.0402L23.1395 14.292L13.2266 19.0402V29.3281Z" fill="white" stroke="#114559" stroke-width="1.23095" stroke-linecap="round" stroke-linejoin="round"/>
<path d="M13.2266 19.0449L23.1395 23.7932L33.0525 19.0449" fill="white"/>
<path d="M13.2266 19.0449L23.1395 23.7932L33.0525 19.0449" stroke="#114559" stroke-width="1.23095" stroke-linecap="round" stroke-linejoin="round"/>
<path d="M18.1797 21.4172L28.0927 16.6689L18.1797 21.4172Z" fill="white"/>
<path d="M18.1797 21.4172L28.0927 16.6689" stroke="#114559" stroke-width="1.23095" stroke-linecap="round" stroke-linejoin="round"/>
<path d="M23.1445 34.0776V24.5811V34.0776Z" fill="white"/>
<path d="M23.1445 34.0776V24.5811" stroke="#114559" stroke-width="1.23095" stroke-linecap="round" stroke-linejoin="round"/>
</svg>
