<svg width="60" height="60" viewBox="0 0 60 60" fill="none" xmlns="http://www.w3.org/2000/svg">
<g clip-path="url(#clip0_7730_2608)">
<path d="M39.5612 35.72C37.4602 39.3544 33.9754 41.44 30 41.44C26.0246 41.44 22.5398 39.3544 20.4388 35.72C20.3336 35.5189 20.3102 35.2849 20.3734 35.0669C20.4366 34.8489 20.5817 34.6638 20.7782 34.5502C20.9747 34.4366 21.2075 34.4034 21.4279 34.4574C21.6484 34.5114 21.8394 34.6484 21.9612 34.84C23.7674 37.9618 26.623 39.68 30 39.68C33.377 39.68 36.2326 37.9618 38.0388 34.84C38.0938 34.7348 38.1695 34.6419 38.2614 34.5667C38.3533 34.4916 38.4594 34.4358 38.5734 34.4027C38.6874 34.3697 38.8069 34.36 38.9247 34.3743C39.0425 34.3886 39.1562 34.4266 39.2589 34.486C39.3617 34.5454 39.4514 34.625 39.5226 34.7199C39.5938 34.8149 39.6451 34.9233 39.6733 35.0385C39.7015 35.1538 39.7062 35.2736 39.6869 35.3907C39.6676 35.5078 39.6249 35.6198 39.5612 35.72ZM52 30C52 34.3512 50.7097 38.6047 48.2923 42.2225C45.8749 45.8404 42.439 48.6602 38.419 50.3253C34.3991 51.9905 29.9756 52.4261 25.708 51.5773C21.4404 50.7284 17.5204 48.6331 14.4437 45.5563C11.3669 42.4796 9.27161 38.5596 8.42273 34.292C7.57386 30.0244 8.00953 25.6009 9.67466 21.581C11.3398 17.561 14.1596 14.1251 17.7775 11.7077C21.3953 9.29028 25.6488 8 30 8C35.8328 8.00641 41.4249 10.3263 45.5493 14.4507C49.6737 18.5751 51.9936 24.1672 52 30ZM50.24 30C50.24 25.9969 49.0529 22.0837 46.8289 18.7553C44.6049 15.4268 41.4439 12.8326 37.7455 11.3007C34.0471 9.76876 29.9776 9.36794 26.0514 10.1489C22.1252 10.9299 18.5188 12.8575 15.6882 15.6882C12.8576 18.5188 10.9299 22.1252 10.1489 26.0514C9.36795 29.9775 9.76877 34.0471 11.3007 37.7455C12.8326 41.4439 15.4268 44.6049 18.7553 46.8289C22.0837 49.0529 25.9969 50.24 30 50.24C35.3662 50.2342 40.5109 48.0999 44.3054 44.3054C48.0999 40.5109 50.2342 35.3662 50.24 30ZM22.08 27.36C22.4281 27.36 22.7684 27.2568 23.0578 27.0634C23.3472 26.87 23.5728 26.5951 23.706 26.2735C23.8392 25.9519 23.8741 25.598 23.8062 25.2566C23.7383 24.9152 23.5707 24.6016 23.3245 24.3555C23.0784 24.1093 22.7648 23.9417 22.4234 23.8738C22.082 23.8059 21.7281 23.8408 21.4065 23.974C21.0849 24.1072 20.81 24.3328 20.6166 24.6222C20.4232 24.9116 20.32 25.2519 20.32 25.6C20.32 26.0668 20.5054 26.5144 20.8355 26.8445C21.1656 27.1746 21.6132 27.36 22.08 27.36ZM37.92 23.84C37.5719 23.84 37.2316 23.9432 36.9422 24.1366C36.6528 24.33 36.4272 24.6049 36.294 24.9265C36.1608 25.2481 36.1259 25.6019 36.1938 25.9434C36.2617 26.2848 36.4294 26.5984 36.6755 26.8445C36.9216 27.0906 37.2352 27.2583 37.5766 27.3262C37.918 27.3941 38.2719 27.3592 38.5935 27.226C38.9151 27.0928 39.19 26.8672 39.3834 26.5778C39.5768 26.2884 39.68 25.9481 39.68 25.6C39.68 25.1332 39.4946 24.6856 39.1645 24.3555C38.8344 24.0254 38.3868 23.84 37.92 23.84Z" fill="#06C6A3"/>
</g>
<defs>
<clipPath id="clip0_7730_2608">
<rect width="44" height="44" fill="white" transform="translate(8 8)"/>
</clipPath>
</defs>
</svg>
