<svg width="136" height="49" viewBox="0 0 136 49" fill="none" xmlns="http://www.w3.org/2000/svg">
<rect x="0.5" y="1.38574" width="135" height="47" rx="3.5" stroke="#A4C929"/>
<g clip-path="url(#clip0_2969_7704)">
<path fill-rule="evenodd" clip-rule="evenodd" d="M24.8166 13.9139C24.7118 19.7582 23.5464 23.3175 20.6981 27.7504C17.3572 32.9494 15.5479 36.8721 16.9093 43.1698C17.5625 42.0453 18.362 41.0633 19.431 40.0669C20.5042 41.7035 22.1093 42.8053 23.9311 43.8854C19.7223 33.0691 27.0448 29.3777 28.596 19.8419C28.8625 17.8005 28.8936 15.6961 28.5608 13.4854C27.3082 13.6784 26.0816 13.8085 24.8166 13.9139Z" fill="#959DB1"/>
<path fill-rule="evenodd" clip-rule="evenodd" d="M29.9794 25.8359L26.8538 26.7987C24.6273 35.83 26.8732 41.6824 29.8434 43.8859C29.9362 41.7642 29.9815 40.9713 30.5686 38.924C32.6387 39.6634 34.5371 39.6498 36.4031 39.4967C33.0078 37.1253 30.6981 34.6113 29.9794 25.8359Z" fill="#959DB1"/>
<path fill-rule="evenodd" clip-rule="evenodd" d="M25.0016 6.83594L27.1815 10.2313L30.6104 7.80938L31.4786 11.734L35.5427 10.615L34.9965 14.5951L39.2034 14.9097L37.3079 18.4679L41.1516 20.1816L38.1348 22.8848L41.1516 25.7903L37.3768 27.314L39.2034 31.0609L35.128 31.2213L35.5427 35.3569L31.6578 34.1367L30.6104 38.1625L27.3832 35.7048L25.0016 39.1359L22.8229 35.7406L19.3927 38.1625L18.5233 34.2379L14.4604 35.3569L15.0066 31.378L10.7997 31.0609L12.6952 27.504L8.85156 25.7903L11.8683 23.0871L8.85156 20.1816L12.625 18.6579L10.7997 14.9097L14.8751 14.7505L14.4604 10.615L18.3466 11.8352L19.3927 7.80938L22.62 10.2658L25.0016 6.83594Z" fill="#598392"/>
<path fill-rule="evenodd" clip-rule="evenodd" d="M13.6016 22.9853C13.6016 29.2807 18.7054 34.3859 25.0009 34.3859C31.2977 34.3859 36.4016 29.2807 36.4016 22.9853C36.4016 16.6887 31.2977 11.5859 25.0009 11.5859C18.7054 11.5859 13.6016 16.6887 13.6016 22.9853Z" fill="#78C348"/>
<g filter="url(#filter0_d_2969_7704)">
<path d="M11.7031 16.0677C16.1427 19.3285 20.2489 21.0854 24.7545 29.6354C31.1781 19.1854 36.7605 12.8041 44.0031 8.73535C35.8233 11.5628 31.7282 14.4354 25.1431 22.2046C19.5021 18.636 18.1533 18.2952 11.7031 16.0677Z" fill="#114559"/>
</g>
<path d="M11.7031 16.0677C16.1427 19.3285 20.2489 21.0854 24.7545 29.6354C31.1781 19.1854 36.7605 12.8041 44.0031 8.73535C35.8233 11.5628 31.7282 14.4354 25.1431 22.2046C19.5021 18.636 18.1533 18.2952 11.7031 16.0677Z" fill="white"/>
</g>
<path d="M52.377 14.3281H53.0605C53.7305 14.3281 54.2249 14.2165 54.5439 13.9932C54.863 13.7699 55.0225 13.4189 55.0225 12.9404C55.0225 12.4665 54.8584 12.1292 54.5303 11.9287C54.2067 11.7282 53.7031 11.6279 53.0195 11.6279H52.377V14.3281ZM52.377 16.0508V19.8857H50.2578V9.8916H53.1699C54.528 9.8916 55.5329 10.14 56.1846 10.6367C56.8363 11.1289 57.1621 11.8786 57.1621 12.8857C57.1621 13.4736 57.0003 13.9977 56.6768 14.458C56.3532 14.9137 55.8952 15.2715 55.3027 15.5312C56.8066 17.778 57.7865 19.2295 58.2422 19.8857H55.8906L53.5049 16.0508H52.377ZM65.6182 19.8857L64.8936 17.5068H61.25L60.5254 19.8857H58.2422L61.7695 9.85059H64.3604L67.9014 19.8857H65.6182ZM64.3877 15.7295C63.7178 13.5739 63.3395 12.3548 63.2529 12.0723C63.1709 11.7897 63.1117 11.5664 63.0752 11.4023C62.9248 11.9857 62.4941 13.4281 61.7832 15.7295H64.3877ZM77.3281 19.8857H75.2158V14.1025L75.2363 13.1523L75.2705 12.1133C74.9196 12.4642 74.6758 12.6943 74.5391 12.8037L73.3906 13.7266L72.3721 12.4551L75.5918 9.8916H77.3281V19.8857ZM87.0352 14.8887C87.0352 16.6341 86.748 17.9261 86.1738 18.7646C85.6042 19.6032 84.7246 20.0225 83.5352 20.0225C82.3822 20.0225 81.5117 19.5895 80.9238 18.7236C80.3405 17.8577 80.0488 16.5794 80.0488 14.8887C80.0488 13.125 80.3337 11.8262 80.9033 10.9922C81.473 10.1536 82.3503 9.73438 83.5352 9.73438C84.6882 9.73438 85.5586 10.1719 86.1465 11.0469C86.7389 11.9219 87.0352 13.2025 87.0352 14.8887ZM82.1475 14.8887C82.1475 16.1146 82.2523 16.9941 82.4619 17.5273C82.6761 18.056 83.0339 18.3203 83.5352 18.3203C84.0273 18.3203 84.3828 18.0514 84.6016 17.5137C84.8203 16.9759 84.9297 16.1009 84.9297 14.8887C84.9297 13.6628 84.818 12.7832 84.5947 12.25C84.376 11.7122 84.0228 11.4434 83.5352 11.4434C83.0384 11.4434 82.6829 11.7122 82.4688 12.25C82.2546 12.7832 82.1475 13.6628 82.1475 14.8887ZM95.0332 14.8887C95.0332 16.6341 94.7461 17.9261 94.1719 18.7646C93.6022 19.6032 92.7227 20.0225 91.5332 20.0225C90.3802 20.0225 89.5098 19.5895 88.9219 18.7236C88.3385 17.8577 88.0469 16.5794 88.0469 14.8887C88.0469 13.125 88.3317 11.8262 88.9014 10.9922C89.471 10.1536 90.3483 9.73438 91.5332 9.73438C92.6862 9.73438 93.5566 10.1719 94.1445 11.0469C94.737 11.9219 95.0332 13.2025 95.0332 14.8887ZM90.1455 14.8887C90.1455 16.1146 90.2503 16.9941 90.46 17.5273C90.6742 18.056 91.0319 18.3203 91.5332 18.3203C92.0254 18.3203 92.3809 18.0514 92.5996 17.5137C92.8184 16.9759 92.9277 16.1009 92.9277 14.8887C92.9277 13.6628 92.8161 12.7832 92.5928 12.25C92.374 11.7122 92.0208 11.4434 91.5332 11.4434C91.0365 11.4434 90.681 11.7122 90.4668 12.25C90.2526 12.7832 90.1455 13.6628 90.1455 14.8887ZM103.031 14.8887C103.031 16.6341 102.744 17.9261 102.17 18.7646C101.6 19.6032 100.721 20.0225 99.5312 20.0225C98.3783 20.0225 97.5078 19.5895 96.9199 18.7236C96.3366 17.8577 96.0449 16.5794 96.0449 14.8887C96.0449 13.125 96.3298 11.8262 96.8994 10.9922C97.4691 10.1536 98.3464 9.73438 99.5312 9.73438C100.684 9.73438 101.555 10.1719 102.143 11.0469C102.735 11.9219 103.031 13.2025 103.031 14.8887ZM98.1436 14.8887C98.1436 16.1146 98.2484 16.9941 98.458 17.5273C98.6722 18.056 99.0299 18.3203 99.5312 18.3203C100.023 18.3203 100.379 18.0514 100.598 17.5137C100.816 16.9759 100.926 16.1009 100.926 14.8887C100.926 13.6628 100.814 12.7832 100.591 12.25C100.372 11.7122 100.019 11.4434 99.5312 11.4434C99.0345 11.4434 98.679 11.7122 98.4648 12.25C98.2507 12.7832 98.1436 13.6628 98.1436 14.8887Z" fill="#598392"/>
<g clip-path="url(#clip1_2969_7704)">
<path d="M53.4977 30.9375L53.0469 33.3603C53.4551 33.3516 53.7702 33.2503 53.9923 33.0575C54.2142 32.8646 54.3638 32.5617 54.4408 32.1488C54.5158 31.7447 54.4839 31.4418 54.3451 31.2403C54.2065 31.0377 53.963 30.9375 53.6152 30.9375H53.4977ZM49 38.9932L50.8918 28.8272H54.3384C55.5044 28.8272 56.3705 29.1083 56.9374 29.6698C57.504 30.2315 57.6975 30.9952 57.5178 31.9609C57.4074 32.5547 57.1624 33.0618 56.7827 33.4823C56.4033 33.9018 55.8891 34.2373 55.24 34.4878L56.5252 38.9932H53.3505L52.7307 35.0587L51.9983 38.9932H49Z" fill="#598392"/>
<path d="M60.0251 34.5294H61.6343C61.7093 34.1257 61.6985 33.8229 61.6012 33.6213C61.5041 33.4187 61.3208 33.3179 61.0517 33.3179C60.8406 33.3179 60.652 33.4165 60.4856 33.6137C60.3192 33.8109 60.1654 34.1159 60.0251 34.5294ZM63.546 36.4995C63.2824 37.3352 62.8182 37.9932 62.1531 38.4736C61.488 38.9541 60.705 39.1943 59.8035 39.1943C58.7453 39.1943 57.9899 38.8707 57.5369 38.223C57.0844 37.5748 56.9694 36.6531 57.1925 35.4548C57.4161 34.2532 57.8789 33.3207 58.5804 32.6566C59.282 31.9926 60.1522 31.6609 61.1908 31.6609C62.3225 31.6609 63.1127 31.9556 63.5618 32.5449C64.0102 33.1343 64.1241 34.0233 63.9029 35.2119C63.8771 35.3502 63.8561 35.4569 63.8403 35.5284C63.8245 35.6008 63.806 35.6662 63.7851 35.7266H59.802L59.7839 35.8241C59.6862 36.3492 59.6789 36.7251 59.7615 36.9523C59.844 37.1799 60.0274 37.2933 60.3114 37.2933C60.5221 37.2933 60.7044 37.2284 60.8584 37.0988C61.0126 36.9686 61.1442 36.7686 61.2531 36.4995H63.546Z" fill="#598392"/>
<path d="M68.2462 38.881C68.0305 38.9879 67.804 39.0663 67.5667 39.1174C67.3292 39.1687 67.0662 39.1943 66.777 39.1943C65.807 39.1943 65.1054 38.8593 64.6716 38.1881C64.2378 37.5177 64.1298 36.5977 64.3473 35.4276C64.5608 34.281 65.0189 33.3664 65.7216 32.6844C66.4243 32.0025 67.253 31.6609 68.2085 31.6609C68.473 31.6609 68.7151 31.6843 68.934 31.7301C69.1533 31.7769 69.354 31.8489 69.5369 31.9458L69.1301 34.1322C69.0473 34.0767 68.9593 34.0358 68.8659 34.0103C68.7728 33.9851 68.6699 33.9721 68.5572 33.9721C68.2731 33.9721 68.0222 34.1028 67.8049 34.3621C67.5876 34.622 67.437 34.9777 67.3533 35.4276C67.2686 35.8824 67.2829 36.2244 67.3973 36.4549C67.5111 36.6842 67.7227 36.7991 68.0312 36.7991C68.1191 36.7991 68.2161 36.7861 68.3211 36.761C68.4261 36.7349 68.5394 36.699 68.6609 36.6531L68.2462 38.881Z" fill="#598392"/>
<path d="M69.0859 38.9932L71.1502 27.9012H73.8764L71.8125 38.9932H69.0859Z" fill="#598392"/>
<path d="M76.2349 35.4276C76.1409 35.9342 76.1254 36.3144 76.188 36.5692C76.2507 36.8248 76.3922 36.9523 76.613 36.9523C76.8334 36.9523 77.0255 36.8215 77.1894 36.5584C77.3535 36.2969 77.4811 35.9195 77.5728 35.4276C77.6659 34.9265 77.6794 34.544 77.613 34.2815C77.547 34.02 77.4034 33.8882 77.1831 33.8882C76.9674 33.8882 76.7791 34.019 76.6181 34.2793C76.4568 34.5386 76.3296 34.921 76.2349 35.4276ZM76.968 38.9927L77.1144 38.2056C76.7808 38.5488 76.4565 38.7999 76.1404 38.9579C75.8245 39.1153 75.4976 39.1943 75.1592 39.1943C74.4099 39.1943 73.8847 38.8637 73.5843 38.2024C73.2833 37.5411 73.2437 36.6162 73.4648 35.4276C73.6877 34.2303 74.0698 33.3027 74.6104 32.6457C75.1518 31.9893 75.8021 31.6609 76.5612 31.6609C76.9044 31.6609 77.2034 31.7388 77.4586 31.894C77.7139 32.0493 77.9448 32.2966 78.1511 32.6354L78.2948 31.8625H81.0212L79.6946 38.9927H76.968Z" fill="#598392"/>
<path d="M80.6953 38.9932L82.0223 31.8629H84.6384L84.4412 32.9213C84.7721 32.5128 85.1284 32.211 85.5101 32.016C85.8917 31.821 86.3129 31.7241 86.7733 31.7241C87.2045 31.7241 87.5424 31.8221 87.7875 32.0203C88.0325 32.2175 88.1811 32.5182 88.2335 32.9213C88.5201 32.5128 88.8457 32.211 89.2103 32.016C89.5747 31.821 89.9898 31.7241 90.4553 31.7241C91.0285 31.7241 91.4356 31.8864 91.6765 32.211C91.917 32.5368 91.9796 33.0095 91.8638 33.6316L90.8659 38.9932H88.1397L88.9118 34.8431C88.9533 34.6208 88.9427 34.4558 88.8791 34.3495C88.8155 34.2422 88.6979 34.1883 88.5266 34.1883C88.3697 34.1883 88.2358 34.2504 88.1247 34.3734C88.0138 34.4966 87.9379 34.6671 87.8974 34.8849L87.133 38.9932H84.4212L85.1935 34.8431C85.2349 34.6208 85.224 34.4558 85.1604 34.3495C85.0972 34.2422 84.9796 34.1883 84.8083 34.1883C84.6465 34.1883 84.5088 34.2504 84.3952 34.3734C84.2817 34.4966 84.2049 34.6671 84.1642 34.8849L83.3998 38.9932H80.6953Z" fill="#598392"/>
<path d="M95.0563 34.5294H96.6655C96.7409 34.1257 96.7299 33.8229 96.6327 33.6213C96.5357 33.4187 96.3519 33.3179 96.0829 33.3179C95.8722 33.3179 95.6833 33.4165 95.5169 33.6137C95.3505 33.8109 95.1966 34.1159 95.0563 34.5294ZM98.577 36.4995C98.3136 37.3352 97.8497 37.9932 97.1844 38.4736C96.5196 38.9541 95.7362 39.1943 94.8348 39.1943C93.7766 39.1943 93.0209 38.8707 92.5684 38.223C92.1156 37.5748 92.0006 36.6531 92.2237 35.4548C92.4474 34.2532 92.9098 33.3207 93.6118 32.6566C94.3133 31.9926 95.1834 31.6609 96.222 31.6609C97.3541 31.6609 98.144 31.9556 98.593 32.5449C99.0417 33.1343 99.1556 34.0233 98.9344 35.2119C98.9084 35.3502 98.8873 35.4569 98.8718 35.5284C98.8557 35.6008 98.8376 35.6662 98.8163 35.7266H94.8334L94.8151 35.8241C94.7174 36.3492 94.71 36.7251 94.7927 36.9523C94.8752 37.1799 95.0587 37.2933 95.343 37.2933C95.5536 37.2933 95.7359 37.2284 95.8896 37.0988C96.0439 36.9686 96.1753 36.7686 96.2841 36.4995H98.577Z" fill="#598392"/>
<path d="M102.439 35.4422H103.629L103.728 31.675L102.439 35.4422ZM98.332 38.9932L102.575 28.8272H105.949L106.401 38.9932H103.483L103.534 37.4958H101.763L101.257 38.9932H98.332Z" fill="#114559"/>
<path d="M110.511 33.8469C110.314 34.9015 110.254 35.6227 110.328 36.0127C110.403 36.4028 110.624 36.5978 110.991 36.5978C111.353 36.5978 111.643 36.406 111.858 36.0231C112.074 35.6402 112.282 34.9146 112.48 33.8469C112.679 32.7793 112.742 32.0538 112.669 31.6681C112.596 31.2824 112.378 31.0896 112.016 31.0896C111.648 31.0896 111.355 31.2852 111.136 31.6746C110.916 32.0646 110.707 32.7891 110.511 33.8469ZM111.738 40.6357L110.856 39.1808C110.821 39.1808 110.768 39.1829 110.696 39.1873C110.624 39.1917 110.571 39.1944 110.537 39.1944C109.248 39.1944 108.337 38.7352 107.802 37.8158C107.268 36.8973 107.157 35.5965 107.47 33.9167C107.783 32.2368 108.376 30.9344 109.252 30.011C110.127 29.0872 111.201 28.6253 112.475 28.6253C113.743 28.6253 114.641 29.0856 115.168 30.0072C115.695 30.9284 115.801 32.2318 115.487 33.9167C115.307 34.8874 115.033 35.7295 114.664 36.4441C114.297 37.1588 113.826 37.7623 113.254 38.2548L114.336 39.5495L111.738 40.6357Z" fill="#114559"/>
<path d="M116.037 35.3579L117.252 28.8267H120.243L118.977 35.6297C118.922 35.9265 118.937 36.146 119.024 36.2872C119.11 36.4288 119.271 36.4995 119.506 36.4995C119.746 36.4995 119.935 36.4288 120.075 36.2872C120.214 36.146 120.311 35.9265 120.366 35.6297L121.632 28.8267H124.638L123.423 35.3579C123.175 36.6859 122.697 37.6566 121.987 38.2721C121.278 38.8871 120.283 39.1943 119.005 39.1943C117.731 39.1943 116.856 38.8871 116.38 38.2721C115.904 37.6566 115.79 36.6859 116.037 35.3579Z" fill="#114559"/>
<path d="M123.98 38.9932L125.872 28.8272H128.87L126.979 38.9932H123.98Z" fill="#114559"/>
</g>
<defs>
<filter id="filter0_d_2969_7704" x="9.80313" y="8.73535" width="34.2008" height="22.8004" filterUnits="userSpaceOnUse" color-interpolation-filters="sRGB">
<feFlood flood-opacity="0" result="BackgroundImageFix"/>
<feColorMatrix in="SourceAlpha" type="matrix" values="0 0 0 0 0 0 0 0 0 0 0 0 0 0 0 0 0 0 127 0" result="hardAlpha"/>
<feOffset dx="-0.95" dy="0.95"/>
<feGaussianBlur stdDeviation="0.475"/>
<feColorMatrix type="matrix" values="0 0 0 0 0 0 0 0 0 0 0 0 0 0 0 0 0 0 0.3 0"/>
<feBlend mode="normal" in2="BackgroundImageFix" result="effect1_dropShadow_2969_7704"/>
<feBlend mode="normal" in="SourceGraphic" in2="effect1_dropShadow_2969_7704" result="shape"/>
</filter>
<clipPath id="clip0_2969_7704">
<rect width="38" height="38" fill="white" transform="translate(6 5.88574)"/>
</clipPath>
<clipPath id="clip1_2969_7704">
<rect width="79.9207" height="12.75" fill="white" transform="translate(49 27.8857)"/>
</clipPath>
</defs>
</svg>
