<svg width="108" height="32" viewBox="0 0 108 32" fill="none" xmlns="http://www.w3.org/2000/svg">
<g id="download-on-the-app-store-apple-logo-svgrepo-com 1" clip-path="url(#clip0_5151_285)">
<g id="Group">
<path id="Vector" d="M107.317 28.1765C107.317 28.5777 107.238 28.975 107.084 29.3456C106.93 29.7163 106.705 30.053 106.421 30.3366C106.137 30.6201 105.8 30.845 105.429 30.9982C105.058 31.1515 104.661 31.2301 104.259 31.2297H4.20968C3.39877 31.2306 2.62073 30.9094 2.04666 30.3368C1.47259 29.7642 1.14949 28.9872 1.14844 28.1765V3.82775C1.14949 3.01669 1.47246 2.2392 2.04641 1.66599C2.62037 1.09279 3.3984 0.770718 4.20968 0.770508H104.259C104.66 0.770508 105.058 0.849591 105.429 1.00324C105.8 1.15689 106.137 1.3821 106.421 1.666C106.705 1.9499 106.93 2.28694 107.083 2.65785C107.237 3.02877 107.316 3.4263 107.316 3.82775L107.317 28.1765Z" fill="white"/>
<path id="Vector_2" d="M104.258 31.9396H4.20843C3.20949 31.9394 2.25142 31.543 1.54447 30.8374C0.837508 30.1318 0.439401 29.1747 0.4375 28.176L0.4375 3.82809C0.438978 2.82891 0.836822 1.87112 1.54376 1.16482C2.25069 0.458521 3.20899 0.0613902 4.20843 0.0605469L104.257 0.0605469C105.257 0.061811 106.215 0.459077 106.922 1.16529C107.628 1.8715 108.026 2.82904 108.028 3.82809V28.176C108.03 30.2519 106.335 31.9396 104.258 31.9396Z" fill="#A6A6A6"/>
<path id="Vector_3" d="M107.317 28.1765C107.317 28.5777 107.238 28.975 107.084 29.3456C106.93 29.7163 106.705 30.053 106.421 30.3366C106.137 30.6201 105.8 30.845 105.429 30.9982C105.058 31.1515 104.661 31.2301 104.259 31.2297H4.20968C3.39877 31.2306 2.62073 30.9094 2.04666 30.3368C1.47259 29.7642 1.14949 28.9872 1.14844 28.1765V3.82775C1.14949 3.01669 1.47246 2.2392 2.04641 1.66599C2.62037 1.09279 3.3984 0.770718 4.20968 0.770508H104.259C104.66 0.770508 105.058 0.849591 105.429 1.00324C105.8 1.15689 106.137 1.3821 106.421 1.666C106.705 1.9499 106.93 2.28694 107.083 2.65785C107.237 3.02877 107.316 3.4263 107.316 3.82775L107.317 28.1765Z" fill="black"/>
<path id="Vector_4" d="M24.4606 15.8321C24.4375 13.2628 26.565 12.0128 26.6623 11.9546C25.4574 10.1984 23.5899 9.95841 22.9336 9.93928C21.3651 9.77426 19.8436 10.8776 19.0446 10.8776C18.2297 10.8776 16.9993 9.95522 15.6732 9.98233C13.9668 10.0086 12.3704 10.9964 11.4948 12.5302C9.68788 15.6576 11.0355 20.2534 12.7667 22.7813C13.6326 24.0201 14.6446 25.4017 15.969 25.353C17.2648 25.3004 17.7489 24.5279 19.3126 24.5279C20.8619 24.5279 21.3165 25.353 22.6673 25.322C24.0579 25.3004 24.9335 24.0783 25.7692 22.8291C26.7699 21.4109 27.1718 20.0126 27.1878 19.9409C27.1559 19.9297 24.4877 18.9109 24.4606 15.8321ZM21.9089 8.27633C22.6059 7.405 23.0827 6.21957 22.9503 5.0166C21.9416 5.06124 20.6801 5.71415 19.9537 6.56635C19.311 7.31731 18.7368 8.54817 18.8852 9.7057C20.0183 9.7902 21.1817 9.13411 21.9089 8.27633Z" fill="white"/>
<path id="Vector_5" d="M104.258 0.0605469H50.668L71.6581 31.9396H104.258C105.257 31.9387 106.215 31.5418 106.922 30.8359C107.629 30.1299 108.027 29.1725 108.029 28.1736V3.82809C108.027 2.82898 107.629 1.87131 106.922 1.16505C106.215 0.458799 105.257 0.0616007 104.258 0.0605469Z" fill="url(#paint0_linear_5151_285)"/>
<g id="Group_2">
<path id="Vector_6" d="M43.2284 25.1753H41.4175L40.4255 22.0591H36.9775L36.0326 25.1753H34.2695L37.6864 14.5662H39.7964L43.2284 25.1753ZM40.1265 20.7517L39.2294 17.9814C39.1345 17.6984 38.9559 17.0319 38.6943 15.9828H38.6624C38.5572 16.4341 38.3889 17.1005 38.1585 17.9814L37.2765 20.7517H40.1265ZM51.9983 21.2563C51.9983 22.5573 51.645 23.5857 50.9377 24.3406C50.3046 25.0127 49.5175 25.3483 48.579 25.3483C47.5655 25.3483 46.8366 24.9872 46.3941 24.2633V28.2772H44.694V20.0398C44.694 19.2226 44.6725 18.3848 44.631 17.5254H46.1262L46.2211 18.7379H46.2529C46.8199 17.8244 47.6803 17.3676 48.8349 17.3676C49.7376 17.3676 50.4912 17.7239 51.094 18.4374C51.696 19.1525 51.9983 20.0916 51.9983 21.2563ZM50.2663 21.3185C50.2663 20.5739 50.0988 19.96 49.7623 19.4761C49.3947 18.9731 48.9011 18.7212 48.2823 18.7212C47.8629 18.7212 47.4818 18.8615 47.1413 19.1381C46.8 19.4172 46.5767 19.7815 46.4722 20.2327C46.4256 20.4014 46.3991 20.5751 46.3933 20.7501V22.0264C46.3933 22.582 46.5639 23.0516 46.9052 23.4358C47.2465 23.8185 47.6899 24.0106 48.2353 24.0106C48.8756 24.0106 49.374 23.7627 49.7304 23.2708C50.0877 22.7773 50.2663 22.1268 50.2663 21.3185ZM60.7992 21.2563C60.7992 22.5573 60.446 23.5857 59.7387 24.3406C59.1047 25.0127 58.3185 25.3483 57.3792 25.3483C56.3657 25.3483 55.6368 24.9872 55.1943 24.2633V28.2772H53.4942V20.0398C53.4942 19.2226 53.4727 18.3848 53.4312 17.5254H54.9263L55.0212 18.7379H55.0531C55.6193 17.8244 56.4797 17.3676 57.6351 17.3676C58.537 17.3676 59.2905 17.7239 59.895 18.4374C60.4962 19.1525 60.7992 20.0916 60.7992 21.2563ZM59.0665 21.3185C59.0665 20.5739 58.8982 19.96 58.5617 19.4761C58.1941 18.9731 57.7021 18.7212 57.0833 18.7212C56.6639 18.7212 56.2827 18.8615 55.9406 19.1381C55.5993 19.4172 55.3769 19.7815 55.2724 20.2327C55.2206 20.4431 55.1927 20.6145 55.1927 20.7501V22.0264C55.1927 22.582 55.3641 23.0516 55.7038 23.4358C56.0451 23.8177 56.4885 24.0106 57.0355 24.0106C57.6766 24.0106 58.175 23.7627 58.5306 23.2708C58.8879 22.7773 59.0665 22.1268 59.0665 21.3185ZM70.6392 22.1994C70.6392 23.1026 70.3235 23.8368 69.6959 24.4036C69.0053 25.0222 68.0413 25.3323 66.8053 25.3323C65.6634 25.3323 64.748 25.1123 64.0574 24.6715L64.4506 23.2549C65.1961 23.6965 66.0151 23.9165 66.9066 23.9165C67.5477 23.9165 68.0461 23.7714 68.4017 23.4836C68.7581 23.1951 68.9384 22.8092 68.9384 22.3277C68.9384 21.8964 68.7892 21.5353 68.4966 21.2411C68.2023 20.9478 67.7159 20.6743 67.0326 20.4232C65.1746 19.7305 64.2448 18.7172 64.2448 17.3843C64.2448 16.5138 64.5734 15.8011 65.2288 15.2438C65.8843 14.6874 66.7535 14.4092 67.8347 14.4092C68.8004 14.4092 69.605 14.5774 70.2437 14.913L69.8171 16.2985C69.2159 15.9733 68.5373 15.8106 67.7781 15.8106C67.1785 15.8106 66.708 15.9581 66.3715 16.2515C66.0884 16.5138 65.9449 16.8334 65.9449 17.2129C65.9449 17.6314 66.1084 17.979 66.4337 18.2517C66.716 18.5028 67.2311 18.7762 67.9759 19.0696C68.8897 19.4379 69.5611 19.8668 69.9909 20.3594C70.4239 20.8521 70.6392 21.4667 70.6392 22.1994ZM76.2745 18.8009H74.4006V22.5151C74.4006 23.4597 74.7307 23.9309 75.3926 23.9309C75.6964 23.9309 75.9483 23.9054 76.1477 23.852L76.1948 25.1426C75.8598 25.2678 75.4189 25.3307 74.8727 25.3307C74.2012 25.3307 73.6765 25.1259 73.2978 24.7161C72.9206 24.3064 72.7308 23.62 72.7308 22.6538V18.7977H71.6144V17.5222H72.7308V16.1216L74.4006 15.6177V17.5222H76.2745V18.8009ZM84.7126 21.2874C84.7126 22.4632 84.3761 23.4286 83.7047 24.1836C83.0022 24.9609 82.0676 25.3483 80.9026 25.3483C79.7783 25.3483 78.8844 24.976 78.2178 24.2322C77.5511 23.4868 77.2178 22.5477 77.2178 21.4149C77.2178 20.2295 77.5623 19.2585 78.2489 18.5036C78.937 17.7478 79.8636 17.37 81.0286 17.37C82.1514 17.37 83.0532 17.743 83.7358 18.4876C84.3881 19.2099 84.7126 20.1426 84.7126 21.2874ZM82.9504 21.3264C82.9504 20.6257 82.7989 20.0246 82.4951 19.5216C82.1386 18.9141 81.6283 18.6104 80.9672 18.6104C80.2862 18.6104 79.7639 18.9141 79.4083 19.5216C79.1037 20.0246 78.9522 20.6361 78.9522 21.3583C78.9522 22.0599 79.1037 22.6625 79.4083 23.164C79.7759 23.7714 80.2886 24.0752 80.9529 24.0752C81.6028 24.0752 82.1123 23.7651 82.4807 23.1488C82.7933 22.6338 82.9504 22.0288 82.9504 21.3264ZM90.2411 19.0202C90.0642 18.9882 89.8849 18.9725 89.7052 18.9731C89.1071 18.9731 88.6446 19.1979 88.3193 19.6507C88.037 20.0493 87.8951 20.5532 87.8951 21.1614V25.1753H86.195V19.9345C86.1965 19.1315 86.1801 18.3285 86.1456 17.5262H87.6264L87.6886 18.9899H87.7356C87.9158 18.4868 88.1981 18.0811 88.5856 17.7773C88.9404 17.5119 89.3714 17.3682 89.8144 17.3676C89.9715 17.3676 90.1135 17.3787 90.2395 17.3987L90.2411 19.0202ZM97.8443 20.9884C97.8486 21.2468 97.8278 21.505 97.7821 21.7593H92.6819C92.7011 22.5151 92.9483 23.0938 93.4219 23.4924C93.8517 23.848 94.4075 24.0265 95.0901 24.0265C95.8452 24.0265 96.5342 23.907 97.1538 23.6654L97.4201 24.8445C96.6961 25.1601 95.8412 25.3172 94.8548 25.3172C93.6683 25.3172 92.7369 24.968 92.0591 24.2713C91.3829 23.5737 91.044 22.6362 91.044 21.462C91.044 20.3092 91.359 19.3486 91.9898 18.5825C92.65 17.7646 93.5423 17.3556 94.6651 17.3556C95.7679 17.3556 96.6028 17.7646 97.1697 18.5825C97.6187 19.2306 97.8443 20.0342 97.8443 20.9884ZM96.2232 20.5476C96.2352 20.043 96.1235 19.6085 95.8931 19.241C95.5988 18.7674 95.1459 18.5315 94.5391 18.5315C93.9833 18.5315 93.5304 18.7619 93.1859 19.2242C92.9028 19.5917 92.7345 20.0334 92.6827 20.546L96.2232 20.5476Z" fill="white"/>
</g>
<g id="Group_3">
<path id="Vector_7" d="M36.488 10.8161C36.0152 10.8161 35.6061 10.793 35.2656 10.7539V5.62476C35.7418 5.55122 36.2231 5.51497 36.7049 5.51634C38.6546 5.51634 39.5525 6.47537 39.5525 8.03867C39.5525 9.84192 38.4919 10.8161 36.488 10.8161ZM36.7735 6.17403C36.5104 6.17403 36.2863 6.18997 36.1005 6.22824V10.1273C36.201 10.1433 36.394 10.1504 36.6651 10.1504C37.9425 10.1504 38.6697 9.4234 38.6697 8.06179C38.6697 6.84766 38.0119 6.17403 36.7735 6.17403ZM42.3506 10.8552C41.2517 10.8552 40.5397 10.0348 40.5397 8.92116C40.5397 7.76045 41.2669 6.93296 42.4128 6.93296C43.4957 6.93296 44.2237 7.71421 44.2237 8.85978C44.2237 10.0348 43.4733 10.8552 42.3506 10.8552ZM42.3825 7.54361C41.7788 7.54361 41.3921 8.10802 41.3921 8.89725C41.3921 9.67132 41.7868 10.2357 42.3745 10.2357C42.9622 10.2357 43.3569 9.63226 43.3569 8.8813C43.3569 8.116 42.9702 7.54361 42.3825 7.54361ZM50.4897 7.01029L49.3135 10.7699H48.5472L48.06 9.1372C47.9389 8.73784 47.838 8.33262 47.7578 7.92307H47.7418C47.6804 8.33283 47.564 8.74339 47.4404 9.1372L46.9221 10.7699H46.1478L45.041 7.01029H45.8998L46.3256 8.7976C46.4261 9.2233 46.5106 9.62508 46.5808 10.0045H46.5968C46.6582 9.68806 46.7586 9.29265 46.9062 8.80557L47.4404 7.01108H48.1214L48.6325 8.7673C48.7561 9.19301 48.8566 9.61074 48.9348 10.0053H48.9571C49.0113 9.61871 49.0966 9.20815 49.2123 8.7673L49.6692 7.01108L50.4897 7.01029ZM54.8196 10.7699H53.9839V8.61105C53.9839 7.94619 53.7288 7.61297 53.2256 7.61297C52.7304 7.61297 52.3899 8.03867 52.3899 8.53373V10.7699H51.5542V8.0849C51.5542 7.75247 51.5463 7.39613 51.5231 7.00949H52.2583L52.2974 7.58985H52.3205C52.5454 7.18806 53.0015 6.93296 53.5127 6.93296C54.3021 6.93296 54.8204 7.53643 54.8204 8.51858L54.8196 10.7699ZM57.1241 10.7699H56.2876V5.28516H57.1241V10.7699ZM60.171 10.8552C59.073 10.8552 58.3601 10.0348 58.3601 8.92116C58.3601 7.76045 59.0873 6.93296 60.2324 6.93296C61.3161 6.93296 62.0433 7.71421 62.0433 8.85978C62.0441 10.0348 61.293 10.8552 60.171 10.8552ZM60.2021 7.54361C59.5985 7.54361 59.2117 8.10802 59.2117 8.89725C59.2117 9.67132 59.6072 10.2357 60.1933 10.2357C60.7818 10.2357 61.1757 9.63226 61.1757 8.8813C61.1765 8.116 60.7906 7.54361 60.2021 7.54361ZM65.3382 10.7699L65.2776 10.337H65.2553C65.0001 10.6854 64.6277 10.8552 64.1556 10.8552C63.4818 10.8552 63.0034 10.3832 63.0034 9.74865C63.0034 8.82072 63.808 8.3408 65.201 8.3408V8.27145C65.201 7.77639 64.9387 7.52846 64.4204 7.52846C64.0496 7.52846 63.7242 7.62173 63.438 7.80748L63.2681 7.25821C63.6158 7.04138 64.0496 6.93296 64.5591 6.93296C65.5415 6.93296 66.0375 7.45113 66.0375 8.48829V9.87301C66.0375 10.2525 66.0543 10.5466 66.0917 10.7707L65.3382 10.7699ZM65.2234 8.89725C64.2952 8.89725 63.8295 9.12206 63.8295 9.65538C63.8295 10.05 64.0695 10.2429 64.4028 10.2429C64.8279 10.2429 65.2234 9.91845 65.2234 9.4776V8.89725ZM70.0955 10.7699L70.0564 10.1664H70.0333C69.7933 10.6224 69.3898 10.8552 68.826 10.8552C67.9194 10.8552 67.248 10.058 67.248 8.93631C67.248 7.76045 67.9441 6.93216 68.8946 6.93216C69.3978 6.93216 69.7542 7.10196 69.9552 7.44316H69.9719V5.28516H70.8084V9.75662C70.8084 10.1201 70.8172 10.4605 70.8395 10.7699H70.0955ZM69.9719 8.55764C69.9719 8.03149 69.6235 7.58267 69.0916 7.58267C68.472 7.58267 68.0932 8.13194 68.0932 8.90522C68.0932 9.66335 68.4864 10.1823 69.0748 10.1823C69.6003 10.1823 69.9719 9.72553 69.9719 9.18424V8.55764ZM76.1119 10.8552C75.0139 10.8552 74.3018 10.0348 74.3018 8.92116C74.3018 7.76045 75.0291 6.93296 76.1741 6.93296C77.2578 6.93296 77.9851 7.71421 77.9851 8.85978C77.9859 10.0348 77.2355 10.8552 76.1119 10.8552ZM76.143 7.54361C75.5402 7.54361 75.1535 8.10802 75.1535 8.89725C75.1535 9.67132 75.5482 10.2357 76.1351 10.2357C76.7236 10.2357 77.1175 9.63226 77.1175 8.8813C77.1191 8.116 76.7323 7.54361 76.143 7.54361ZM82.4792 10.7699H81.6428V8.61105C81.6428 7.94619 81.3876 7.61297 80.8844 7.61297C80.3892 7.61297 80.0495 8.03867 80.0495 8.53373V10.7699H79.2131V8.0849C79.2131 7.75247 79.2051 7.39613 79.182 7.00949H79.9172L79.9562 7.58985H79.9794C80.2034 7.18806 80.6604 6.93216 81.1707 6.93216C81.9601 6.93216 82.4792 7.53564 82.4792 8.51778V10.7699ZM88.1017 7.63688H87.1823V9.46246C87.1823 9.92722 87.3434 10.1592 87.6687 10.1592C87.8163 10.1592 87.9399 10.1433 88.0395 10.1201L88.0627 10.7547C87.9008 10.8169 87.6839 10.848 87.4144 10.848C86.7557 10.848 86.3618 10.4845 86.3618 9.53261V7.63688H85.8132V7.01029H86.3618V6.32151L87.1823 6.07358V7.00949H88.1017V7.63688ZM92.5257 10.7699H91.6909V8.627C91.6909 7.95416 91.4365 7.61376 90.9325 7.61376C90.4995 7.61376 90.0961 7.90793 90.0961 8.50343V10.7699H89.2612V5.28516H90.0961V7.54361H90.1128C90.3759 7.13385 90.7571 6.93216 91.2435 6.93216C92.0393 6.93216 92.5257 7.55078 92.5257 8.53373V10.7699ZM97.0582 9.09096H94.5504C94.5663 9.80286 95.0376 10.2046 95.7353 10.2046C96.1061 10.2046 96.4474 10.1425 96.7488 10.0269L96.8788 10.6072C96.5231 10.7619 96.1045 10.8392 95.6173 10.8392C94.4411 10.8392 93.745 10.0962 93.745 8.94428C93.745 7.79154 94.4579 6.92499 95.5232 6.92499C96.4841 6.92499 97.0869 7.63688 97.0869 8.7123C97.0923 8.83921 97.0827 8.96632 97.0582 9.09096ZM96.2919 8.49546C96.2919 7.9151 95.9992 7.50534 95.465 7.50534C94.9849 7.50534 94.6054 7.92307 94.5512 8.49546H96.2919Z" fill="white"/>
</g>
</g>
</g>
<defs>
<linearGradient id="paint0_linear_5151_285" x1="79.3474" y1="32.0242" x2="79.3474" y2="-82.9469" gradientUnits="userSpaceOnUse">
<stop stop-color="#1A1A1A" stop-opacity="0.1"/>
<stop offset="0.123" stop-color="#212121" stop-opacity="0.151"/>
<stop offset="0.308" stop-color="#353535" stop-opacity="0.227"/>
<stop offset="0.532" stop-color="#575757" stop-opacity="0.318"/>
<stop offset="0.783" stop-color="#858585" stop-opacity="0.421"/>
<stop offset="1" stop-color="#B3B3B3" stop-opacity="0.51"/>
</linearGradient>
<clipPath id="clip0_5151_285">
<rect width="107.563" height="32" fill="white" transform="translate(0.4375)"/>
</clipPath>
</defs>
</svg>
