<svg width="20" height="19" viewBox="0 0 20 19" fill="none" xmlns="http://www.w3.org/2000/svg">
<path d="M16.1212 8.45488L18.6097 7.66944C18.803 7.60841 19 7.75278 19 7.95553V11.7411C19 11.9439 18.803 12.0882 18.6097 12.0272L16.1223 11.2421" stroke="#F4F6F8" stroke-width="0.89" stroke-linecap="round"/>
<path fill-rule="evenodd" clip-rule="evenodd" d="M16.1211 6.97773C16.1211 6.81205 15.9868 6.67773 15.8211 6.67773H8.93631C8.77062 6.67773 8.63631 6.81205 8.63631 6.97773V12.711C8.63631 12.8767 8.77062 13.011 8.93631 13.011H15.8211C15.9868 13.011 16.1211 12.8767 16.1211 12.711V6.97773Z" stroke="#F4F6F8" stroke-width="0.89" stroke-linecap="round"/>
<path d="M18.2518 13.8832C18.4428 14.0141 18.4923 14.2759 18.3515 14.4597C17.3964 15.7069 16.093 16.648 14.6016 17.1609C12.9778 17.7193 11.2174 17.7404 9.58069 17.2211C7.94396 16.7018 6.51774 15.6697 5.51288 14.2773C4.50802 12.8849 3.97783 11.2061 4.00071 9.48913C4.02359 7.77215 4.5983 6.10809 5.63991 4.74295C6.68151 3.37781 8.13471 2.38404 9.7847 1.90854C11.4347 1.43305 13.1939 1.50106 14.8022 2.10254C16.2794 2.65495 17.5573 3.63043 18.4788 4.90265C18.6147 5.09017 18.5582 5.3505 18.3638 5.47633C18.1695 5.60215 17.9109 5.54573 17.7739 5.35905C16.951 4.23753 15.8171 3.37729 14.5085 2.88792C13.0687 2.34949 11.4939 2.2886 10.0169 2.71426C8.53985 3.13992 7.23896 4.02953 6.30653 5.25158C5.3741 6.47364 4.85962 7.96328 4.83914 9.5003C4.81866 11.0373 5.29328 12.5401 6.19282 13.7866C7.09236 15.0331 8.36908 15.957 9.83426 16.4219C11.2994 16.8867 12.8753 16.8678 14.3289 16.3679C15.6501 15.9136 16.8065 15.0839 17.659 13.9847C17.8009 13.8017 18.0609 13.7522 18.2518 13.8832Z" fill="#F4F6F8"/>
</svg>
