<svg width="20" height="19" viewBox="0 0 20 19" fill="none" xmlns="http://www.w3.org/2000/svg">
<path d="M16.1212 7.98808L18.6097 7.20264C18.803 7.14162 19 7.28598 19 7.48873V11.2743C19 11.4771 18.803 11.6214 18.6097 11.5604L16.1223 10.7753" stroke="#598392" stroke-width="0.89" stroke-linecap="round"/>
<path fill-rule="evenodd" clip-rule="evenodd" d="M16.1211 6.50996C16.1211 6.34428 15.9868 6.20996 15.8211 6.20996H8.93631C8.77062 6.20996 8.63631 6.34428 8.63631 6.50996V12.2432C8.63631 12.4089 8.77062 12.5432 8.93631 12.5432H15.8211C15.9868 12.5432 16.1211 12.4089 16.1211 12.2432V6.50996Z" stroke="#598392" stroke-width="0.89" stroke-linecap="round"/>
<path d="M18.2518 13.4144C18.4428 13.5454 18.4923 13.8071 18.3515 13.9909C17.3964 15.2382 16.093 16.1792 14.6016 16.6921C12.9778 17.2505 11.2174 17.2717 9.58069 16.7524C7.94396 16.2331 6.51774 15.2009 5.51288 13.8085C4.50802 12.4161 3.97783 10.7374 4.00071 9.02038C4.02359 7.3034 4.5983 5.63934 5.63991 4.2742C6.68151 2.90906 8.13471 1.91529 9.7847 1.43979C11.4347 0.964297 13.1939 1.03231 14.8022 1.63379C16.2794 2.1862 17.5573 3.16168 18.4788 4.4339C18.6147 4.62142 18.5582 4.88175 18.3638 5.00758C18.1695 5.1334 17.9109 5.07698 17.7739 4.8903C16.951 3.76878 15.8171 2.90854 14.5085 2.41917C13.0687 1.88074 11.4939 1.81985 10.0169 2.24551C8.53985 2.67117 7.23896 3.56078 6.30653 4.78283C5.3741 6.00489 4.85962 7.49453 4.83914 9.03155C4.81866 10.5686 5.29328 12.0714 6.19282 13.3178C7.09236 14.5643 8.36908 15.4883 9.83426 15.9531C11.2994 16.418 12.8753 16.3991 14.3289 15.8992C15.6501 15.4449 16.8065 14.6151 17.659 13.5159C17.8009 13.333 18.0609 13.2835 18.2518 13.4144Z" fill="#598392"/>
</svg>
