<svg width="16" height="16" viewBox="0 0 16 16" fill="none" xmlns="http://www.w3.org/2000/svg">
<path d="M10.1468 6.28578C10.6988 6.28578 11.1468 6.73378 11.1468 7.28578V11.1424C11.1468 11.976 10.8156 12.7756 10.2261 13.3651C9.63662 13.9546 8.83708 14.2858 8.00339 14.2858C7.1697 14.2858 6.37016 13.9546 5.78065 13.3651C5.19114 12.7756 4.85996 11.976 4.85996 11.1424V7.28578C4.85996 6.73378 5.30739 6.28578 5.85996 6.28578H10.1468ZM2.14453 6.28578L4.64853 6.28464C4.44262 6.53277 4.31865 6.8386 4.29367 7.16007L4.28796 7.28578V11.1424C4.28796 11.7898 4.45425 12.3989 4.7451 12.9292C4.35364 13.1002 3.92574 13.1709 3.50008 13.1351C3.07441 13.0992 2.66439 12.9579 2.30705 12.7238C1.9497 12.4898 1.65629 12.1704 1.45333 11.7945C1.25036 11.4186 1.14424 10.9981 1.14453 10.5709V7.28578C1.14453 7.15441 1.17042 7.02433 1.22071 6.90297C1.271 6.78161 1.34471 6.67134 1.43763 6.57848C1.53055 6.48561 1.64085 6.41196 1.76224 6.36174C1.88364 6.31152 2.01316 6.28571 2.14453 6.28578ZM11.3588 6.28464L13.8588 6.28578C14.4108 6.28578 14.8588 6.73378 14.8588 7.28578V10.5715C14.859 10.9984 14.7529 11.4187 14.55 11.7944C14.3471 12.1701 14.0539 12.4893 13.6968 12.7233C13.3397 12.9573 12.9299 13.0987 12.5045 13.1348C12.0791 13.1708 11.6514 13.1004 11.26 12.9298L11.292 12.8715C11.5371 12.4069 11.6862 11.8835 11.7137 11.3286L11.7182 11.1424V7.28578C11.7182 6.90521 11.5834 6.55664 11.3588 6.28464ZM8.00168 1.71436C8.26432 1.71436 8.52439 1.76609 8.76704 1.8666C9.00969 1.96711 9.23017 2.11442 9.41589 2.30014C9.60161 2.48586 9.74892 2.70634 9.84943 2.94899C9.94994 3.19164 10.0017 3.45171 10.0017 3.71436C10.0017 3.977 9.94994 4.23707 9.84943 4.47972C9.74892 4.72237 9.60161 4.94285 9.41589 5.12857C9.23017 5.31429 9.00969 5.46161 8.76704 5.56211C8.52439 5.66262 8.26432 5.71436 8.00168 5.71436C7.47124 5.71436 6.96253 5.50364 6.58746 5.12857C6.21239 4.7535 6.00167 4.24479 6.00167 3.71436C6.00167 3.18392 6.21239 2.67521 6.58746 2.30014C6.96253 1.92507 7.47124 1.71436 8.00168 1.71436ZM12.5748 2.28578C12.7999 2.28578 13.0229 2.33013 13.2308 2.41628C13.4388 2.50243 13.6278 2.6287 13.787 2.78789C13.9462 2.94707 14.0725 3.13605 14.1586 3.34404C14.2448 3.55203 14.2891 3.77495 14.2891 4.00007C14.2891 4.22519 14.2448 4.44811 14.1586 4.6561C14.0725 4.86409 13.9462 5.05307 13.787 5.21225C13.6278 5.37144 13.4388 5.49771 13.2308 5.58386C13.0229 5.67001 12.7999 5.71436 12.5748 5.71436C12.1202 5.71436 11.6841 5.53374 11.3626 5.21225C11.0411 4.89076 10.8605 4.45473 10.8605 4.00007C10.8605 3.54541 11.0411 3.10938 11.3626 2.78789C11.6841 2.4664 12.1202 2.28578 12.5748 2.28578ZM3.42853 2.28578C3.65366 2.28578 3.87657 2.33013 4.08456 2.41628C4.29255 2.50243 4.48153 2.6287 4.64072 2.78789C4.7999 2.94707 4.92617 3.13605 5.01233 3.34404C5.09848 3.55203 5.14282 3.77495 5.14282 4.00007C5.14282 4.22519 5.09848 4.44811 5.01233 4.6561C4.92617 4.86409 4.7999 5.05307 4.64072 5.21225C4.48153 5.37144 4.29255 5.49771 4.08456 5.58386C3.87657 5.67001 3.65366 5.71436 3.42853 5.71436C2.97388 5.71436 2.53784 5.53374 2.21635 5.21225C1.89486 4.89076 1.71425 4.45473 1.71425 4.00007C1.71425 3.54541 1.89486 3.10938 2.21635 2.78789C2.53784 2.4664 2.97388 2.28578 3.42853 2.28578Z" fill="#598392"/>
</svg>
