<svg width="16" height="17" viewBox="0 0 16 17" fill="none" xmlns="http://www.w3.org/2000/svg">
<g clip-path="url(#clip0_6984_100675)">
<path d="M8.32041 7.78781V9.97448H13.5471C13.3871 11.2011 12.9784 12.0991 12.3557 12.7298C11.5911 13.4945 10.4004 14.3298 8.32041 14.3298C5.10241 14.3298 2.58708 11.7345 2.58708 8.51648C2.58708 5.29848 5.10241 2.70315 8.32041 2.70315C10.0537 2.70315 11.3251 3.38781 12.2584 4.26781L13.7964 2.72981C12.4984 1.46781 10.7557 0.507812 8.32041 0.507812C3.91174 0.507812 0.205078 4.09915 0.205078 8.50781C0.205078 12.9165 3.91174 16.5078 8.32041 16.5078C10.7024 16.5078 12.4984 15.7258 13.9024 14.2678C15.3424 12.8278 15.7957 10.7925 15.7957 9.15648C15.7957 8.64981 15.7604 8.17848 15.6804 7.78781H8.32041Z" fill="#384252"/>
</g>
<defs>
<clipPath id="clip0_6984_100675">
<rect width="16" height="16" fill="white" transform="translate(0 0.507812)"/>
</clipPath>
</defs>
</svg>
