<svg width="109" height="32" viewBox="0 0 109 32" fill="none" xmlns="http://www.w3.org/2000/svg">
<g id="google-play 1" clip-path="url(#clip0_5151_255)">
<g id="Layer 1">
<g id="Clip path group">
<mask id="mask0_5151_255" style="mask-type:luminance" maskUnits="userSpaceOnUse" x="0" y="0" width="109" height="32">
<g id="clippath">
<path id="Vector" d="M108.436 0H0.4375V32H108.436V0Z" fill="white"/>
</g>
</mask>
<g mask="url(#mask0_5151_255)">
<g id="Group">
<g id="Clip path group_2">
<mask id="mask1_5151_255" style="mask-type:luminance" maskUnits="userSpaceOnUse" x="0" y="0" width="109" height="32">
<g id="clippath-1">
<path id="Vector_2" d="M108.436 0H0.4375V32H108.436V0Z" fill="white"/>
</g>
</mask>
<g mask="url(#mask1_5151_255)">
<g id="Group_2">
<path id="Vector_3" d="M104.435 32H4.43813C2.23803 32 0.4375 30.1995 0.4375 27.9994V4.00063C0.4375 1.80053 2.23803 0 4.43813 0H104.437C106.637 0 108.438 1.80053 108.438 4.00063V28.001C108.438 30.2011 106.637 32.0017 104.437 32.0017" fill="black"/>
<path id="Vector_4" d="M104.435 0.640301C106.288 0.640301 107.796 2.14827 107.796 4.00063V28.001C107.796 29.8534 106.288 31.3614 104.435 31.3614H4.43813C2.58577 31.3614 1.0778 29.8534 1.0778 28.001V4.00063C1.0778 2.1466 2.5841 0.640301 4.43813 0.640301H104.437H104.435ZM104.435 0H4.43813C2.23803 0 0.4375 1.80053 0.4375 4.00063V28.001C0.4375 30.2011 2.23803 32.0017 4.43813 32.0017H104.437C106.637 32.0017 108.438 30.2011 108.438 28.001V4.00063C108.436 1.80053 106.636 0 104.435 0Z" fill="#A6A5A5"/>
<path id="Vector_5" d="M54.9445 17.4C53.0637 17.4 51.529 18.831 51.529 20.8037C51.529 22.7765 53.062 24.2059 54.9445 24.2059C56.8269 24.2059 58.36 22.7614 58.36 20.8037C58.36 18.8461 56.8269 17.4 54.9445 17.4ZM54.9445 22.8651C53.913 22.8651 53.0236 22.0141 53.0236 20.8037C53.0236 19.5934 53.913 18.7407 54.9445 18.7407C55.976 18.7407 56.8637 19.5783 56.8637 20.8037C56.8637 22.0292 55.9743 22.8651 54.9445 22.8651ZM47.4932 17.4C45.6125 17.4 44.0777 18.831 44.0777 20.8037C44.0777 22.7765 45.6108 24.2059 47.4932 24.2059C49.3757 24.2059 50.9087 22.7614 50.9087 20.8037C50.9087 18.8461 49.374 17.4 47.4932 17.4ZM47.4932 22.8651C46.4634 22.8651 45.574 22.0141 45.574 20.8037C45.574 19.5934 46.4634 18.7407 47.4932 18.7407C48.5231 18.7407 49.4141 19.5783 49.4141 20.8037C49.4141 22.0292 48.5247 22.8651 47.4932 22.8651ZM38.631 18.4448V19.8876H42.085C41.9813 20.7001 41.7121 21.2919 41.2992 21.7048C40.796 22.2081 40.0102 22.7614 38.631 22.7614C36.5045 22.7614 34.841 21.0478 34.841 18.9213C34.841 16.7948 36.5028 15.0812 38.631 15.0812C39.7779 15.0812 40.6154 15.5309 41.234 16.111L42.2521 15.0929C41.3878 14.2687 40.241 13.6367 38.631 13.6367C35.7187 13.6367 33.2695 16.009 33.2695 18.9213C33.2695 21.8336 35.7187 24.2059 38.631 24.2059C40.2025 24.2059 41.3878 23.6893 42.3173 22.723C43.2703 21.77 43.5678 20.4293 43.5678 19.3459C43.5678 19.0116 43.5428 18.7023 43.4909 18.4448H38.6327H38.631ZM74.8774 19.5666C74.5932 18.8059 73.7305 17.4016 71.9651 17.4016C70.1997 17.4016 68.7569 18.7809 68.7569 20.8054C68.7569 22.7129 70.1997 24.2075 72.1323 24.2075C73.6921 24.2075 74.5932 23.2546 74.9677 22.6996L73.8074 21.9255C73.4196 22.4923 72.893 22.8667 72.1323 22.8667C71.3716 22.8667 70.83 22.519 70.4822 21.8369L75.0312 19.9545L74.8774 19.5683V19.5666ZM70.2381 20.7001C70.1997 19.3844 71.2563 18.7157 72.0169 18.7157C72.6104 18.7157 73.1136 19.0116 73.2808 19.4379L70.2398 20.7018L70.2381 20.7001ZM66.5384 24.0002H68.033V13.9995H66.5384V24.0002ZM64.0892 18.1606H64.0374C63.7031 17.7611 63.0577 17.4 62.2469 17.4C60.545 17.4 58.9869 18.8945 58.9869 20.8154C58.9869 22.7363 60.5467 24.2042 62.2469 24.2042C63.0594 24.2042 63.7031 23.8431 64.0374 23.4301H64.0892V23.92C64.0892 25.2223 63.3938 25.9178 62.272 25.9178C61.3575 25.9178 60.7891 25.2608 60.5584 24.7074L59.2561 25.2491C59.6289 26.1518 60.6219 27.2602 62.272 27.2602C64.024 27.2602 65.5069 26.2287 65.5069 23.716V17.6073H64.0892V18.1623V18.1606ZM62.3756 22.8651C61.3441 22.8651 60.4815 22.0024 60.4815 20.8171C60.4815 19.6318 61.3441 18.7424 62.3756 18.7424C63.4071 18.7424 64.1929 19.6184 64.1929 20.8171C64.1929 22.0158 63.3938 22.8651 62.3756 22.8651ZM81.8806 13.9995H78.3046V24.0002H79.7958V20.2119H81.8806C83.5357 20.2119 85.1607 19.0132 85.1607 17.1057C85.1607 15.1982 83.534 13.9995 81.8806 13.9995ZM81.919 18.8193H79.7958V15.3904H81.919C83.0358 15.3904 83.6694 16.3149 83.6694 17.104C83.6694 17.8931 83.0358 18.8176 81.919 18.8176M91.144 17.3832C90.0641 17.3832 88.944 17.8597 88.4809 18.9129L89.8066 19.4663C90.0891 18.9129 90.6174 18.7324 91.1708 18.7324C91.9432 18.7324 92.7272 19.1955 92.7406 20.018V20.1216C92.4698 19.9678 91.8913 19.7355 91.1842 19.7355C89.7564 19.7355 88.302 20.5195 88.302 21.9874C88.302 23.3265 89.4739 24.1875 90.7846 24.1875C91.7894 24.1875 92.3411 23.7378 92.6888 23.2095H92.7406V23.9818H94.1817V20.1467C94.1817 18.3713 92.8576 17.3816 91.1457 17.3816M90.9652 22.8634C90.4753 22.8634 89.7932 22.6193 89.7932 22.0141C89.7932 21.2418 90.6425 20.9475 91.3764 20.9475C92.0318 20.9475 92.3411 21.0896 92.7406 21.2819C92.6253 22.2081 91.8278 22.8651 90.9652 22.8651M99.4295 17.6006L97.7176 21.9372H97.6657L95.8903 17.6006H94.282L96.9452 23.6609L95.4272 27.0312H96.9837L101.088 17.6006H99.4278H99.4295ZM85.9849 24.0002H87.4778V13.9995H85.9849V24.0002Z" fill="white"/>
<path id="Vector_6" d="M17.01 15.5398L8.49219 24.5792C8.49219 24.5792 8.49219 24.5825 8.49219 24.5842C8.75299 25.5656 9.64908 26.2878 10.714 26.2878C11.1403 26.2878 11.5382 26.1724 11.8809 25.9718L11.9077 25.9551L21.4955 20.4231L17.0084 15.5381L17.01 15.5398Z" fill="#EA4435"/>
<path id="Vector_7" d="M25.6268 13.9998L25.6185 13.9947L21.4791 11.5957L16.8164 15.7451L21.4958 20.4228L25.6118 18.0472C26.334 17.656 26.8238 16.8953 26.8238 16.0193C26.8238 15.1433 26.3407 14.391 25.6251 13.9998" fill="#F9BC15"/>
<path id="Vector_8" d="M8.49264 7.4209C8.44081 7.60981 8.41406 7.80876 8.41406 8.01272V23.9868C8.41406 24.1924 8.44081 24.3897 8.49264 24.5786L17.3014 15.7699L8.49097 7.4209H8.49264Z" fill="#547DBF"/>
<path id="Vector_9" d="M17.0719 16.0012L21.4804 11.5943L11.9043 6.04224C11.5566 5.83326 11.1504 5.71289 10.7157 5.71289C9.65242 5.71289 8.75466 6.43678 8.49219 7.4198C8.49219 7.4198 8.49219 7.4198 8.49219 7.42147L17.0736 16.0012H17.0719Z" fill="#33A851"/>
</g>
</g>
</g>
<g id="Group_3">
<path id="Vector_10" d="M33.8633 5.52413H35.4565C35.9714 5.52413 36.4211 5.62778 36.804 5.83676C37.1868 6.04574 37.4811 6.3383 37.6884 6.7178C37.8957 7.09563 37.9977 7.52863 37.9977 8.01512C37.9977 8.50162 37.894 8.93461 37.6884 9.31244C37.4811 9.69027 37.1868 9.98451 36.804 10.1935C36.4211 10.4025 35.9731 10.5061 35.4565 10.5061H33.8633V5.52246V5.52413ZM35.4364 9.78389C36.0032 9.78389 36.4429 9.62674 36.7555 9.31411C37.0681 9.00148 37.2253 8.56849 37.2253 8.01679C37.2253 7.4651 37.0681 7.0321 36.7555 6.71947C36.4429 6.40685 36.0032 6.2497 35.4364 6.2497H34.629V9.78556H35.4364V9.78389Z" fill="white"/>
<path id="Vector_11" d="M38.9922 5.52344H39.7579V10.5071H38.9922V5.52344Z" fill="white"/>
<path id="Vector_12" d="M41.3607 10.2567C41.0313 10.016 40.8023 9.6766 40.6719 9.24026L41.3958 8.94769C41.4693 9.22521 41.6031 9.45425 41.792 9.62979C41.9826 9.80533 42.2116 9.89393 42.4808 9.89393C42.7315 9.89393 42.9439 9.82873 43.1177 9.69833C43.2916 9.56793 43.3785 9.38905 43.3785 9.16168C43.3785 8.95271 43.3016 8.78051 43.1495 8.64342C42.9957 8.50634 42.7315 8.37259 42.3554 8.24386L42.0428 8.13185C41.7034 8.01148 41.4225 7.84263 41.1968 7.62697C40.9711 7.41131 40.8591 7.12543 40.8591 6.76766C40.8591 6.52191 40.926 6.29454 41.0581 6.08557C41.1901 5.87659 41.3757 5.71275 41.6148 5.59071C41.8538 5.46867 42.1247 5.41016 42.4256 5.41016C42.8569 5.41016 43.203 5.51548 43.4621 5.72613C43.7212 5.93677 43.8985 6.17584 43.9904 6.43999L43.3016 6.73255C43.2548 6.56537 43.1578 6.4216 43.0091 6.30123C42.8603 6.18086 42.668 6.12067 42.4306 6.12067C42.1932 6.12067 42.011 6.18086 41.8522 6.30123C41.695 6.4216 41.6148 6.5754 41.6148 6.76097C41.6148 6.93317 41.685 7.07527 41.8271 7.18896C41.9692 7.30264 42.1882 7.41131 42.4841 7.51329L42.8051 7.6253C43.2314 7.77409 43.5607 7.96634 43.7931 8.20374C44.0255 8.44114 44.1409 8.75544 44.1409 9.14998C44.1409 9.47431 44.0589 9.74682 43.8934 9.96749C43.7279 10.1882 43.5173 10.352 43.2598 10.459C43.0024 10.566 42.7382 10.6195 42.4691 10.6195C42.0561 10.6195 41.685 10.4991 41.3556 10.2584L41.3607 10.2567Z" fill="white"/>
<path id="Vector_13" d="M45.1445 5.52413H46.8565C47.154 5.52413 47.4265 5.58933 47.674 5.71806C47.9214 5.84846 48.1187 6.02902 48.2658 6.2614C48.4112 6.49378 48.4848 6.75625 48.4848 7.04715C48.4848 7.33804 48.4112 7.60219 48.2658 7.83289C48.1187 8.06527 47.9231 8.24583 47.674 8.37623C47.4249 8.50663 47.1524 8.57183 46.8565 8.57183H45.9102V10.5061H45.1445V5.52246V5.52413ZM46.8765 7.84794C47.1323 7.84794 47.3363 7.76769 47.4917 7.6072C47.6472 7.44671 47.7241 7.26114 47.7241 7.04715C47.7241 6.83316 47.6472 6.64759 47.4917 6.48709C47.3363 6.3266 47.1306 6.24635 46.8765 6.24635H45.9085V7.84794H46.8765Z" fill="white"/>
<path id="Vector_14" d="M50.4 10.2704C50.0055 10.038 49.6962 9.72369 49.4705 9.32747C49.2448 8.93126 49.1328 8.49324 49.1328 8.01511C49.1328 7.53697 49.2448 7.10063 49.4705 6.70274C49.6962 6.30652 50.0055 5.99223 50.4 5.75984C50.7946 5.52746 51.2326 5.41211 51.7158 5.41211C52.1989 5.41211 52.6352 5.52746 53.0281 5.75984C53.4193 5.99223 53.7286 6.30652 53.9543 6.70274C54.18 7.09896 54.292 7.53697 54.292 8.01511C54.292 8.49324 54.18 8.92959 53.9543 9.32747C53.7286 9.72369 53.421 10.038 53.0281 10.2704C52.6352 10.5028 52.1989 10.6181 51.7158 10.6181C51.2326 10.6181 50.7946 10.5028 50.4 10.2704ZM52.6302 9.65515C52.9061 9.49466 53.1251 9.27231 53.2839 8.98643C53.4444 8.70055 53.5246 8.37789 53.5246 8.01511C53.5246 7.65233 53.4444 7.32967 53.2839 7.04379C53.1234 6.75791 52.9061 6.53556 52.6302 6.37507C52.3544 6.21458 52.0484 6.13433 51.7158 6.13433C51.3831 6.13433 51.0771 6.21458 50.8013 6.37507C50.5254 6.53556 50.3064 6.75791 50.1476 7.04379C49.9871 7.32967 49.9069 7.65233 49.9069 8.01511C49.9069 8.37789 49.9871 8.70055 50.1476 8.98643C50.3081 9.27231 50.5254 9.49466 50.8013 9.65515C51.0771 9.81564 51.3831 9.89589 51.7158 9.89589C52.0484 9.89589 52.3544 9.81564 52.6302 9.65515Z" fill="white"/>
<path id="Vector_15" d="M55.2773 5.52344H56.1818L58.4371 9.18469H58.4788L58.4371 8.2234V5.52344H59.1961V10.5071H58.4019L56.0363 6.65859H55.9945L56.0363 7.61988V10.5088H55.2773V5.52511V5.52344Z" fill="white"/>
<path id="Vector_16" d="M60.4648 5.52387H61.2305V10.5075H60.4648V5.52387ZM60.8611 4.21484H61.7103L61.1536 5.12598H60.5334L60.8611 4.21484Z" fill="white"/>
<path id="Vector_17" d="M61.9688 5.52344H62.8047L63.9331 8.83695L64.107 9.40035H64.1488L64.336 8.83695L65.513 5.52344H66.3489L64.5316 10.5071H63.7375L61.9704 5.52344H61.9688Z" fill="white"/>
<path id="Vector_18" d="M67.0898 5.52344H70.1108V6.24733H67.8555V7.65332H69.8884V8.37721H67.8555V9.78319H70.1108V10.5071H67.0898V5.52344Z" fill="white"/>
<path id="Vector_19" d="M71.1836 5.52344H71.9493V9.78319H74.0925V10.5071H71.1836V5.52344Z" fill="white"/>
<path id="Vector_20" d="M76.4922 5.52344H77.3966L79.6519 9.18469H79.6937L79.6519 8.2234V5.52344H80.4109V10.5071H79.6168L77.2512 6.65859H77.2094L77.2512 7.61988V10.5088H76.4922V5.52511V5.52344Z" fill="white"/>
<path id="Vector_21" d="M82.6735 10.2704C82.2789 10.038 81.9696 9.72369 81.744 9.32747C81.5183 8.93126 81.4062 8.49324 81.4062 8.01511C81.4062 7.53697 81.5183 7.10063 81.744 6.70274C81.9696 6.30652 82.2789 5.99223 82.6735 5.75984C83.068 5.52746 83.506 5.41211 83.9892 5.41211C84.4723 5.41211 84.9087 5.52746 85.3016 5.75984C85.6928 5.99223 86.002 6.30652 86.2277 6.70274C86.4534 7.09896 86.5654 7.53697 86.5654 8.01511C86.5654 8.49324 86.4534 8.92959 86.2277 9.32747C86.002 9.72369 85.6944 10.038 85.3016 10.2704C84.9087 10.5028 84.4723 10.6181 83.9892 10.6181C83.506 10.6181 83.068 10.5028 82.6735 10.2704ZM84.9037 9.65515C85.1795 9.49466 85.3985 9.27231 85.5573 8.98643C85.7178 8.70055 85.7981 8.37789 85.7981 8.01511C85.7981 7.65233 85.7178 7.32967 85.5573 7.04379C85.3968 6.75791 85.1795 6.53556 84.9037 6.37507C84.6278 6.21458 84.3219 6.13433 83.9892 6.13433C83.6565 6.13433 83.3506 6.21458 83.0747 6.37507C82.7989 6.53556 82.5799 6.75791 82.421 7.04379C82.2605 7.32967 82.1803 7.65233 82.1803 8.01511C82.1803 8.37789 82.2605 8.70055 82.421 8.98643C82.5815 9.27231 82.7989 9.49466 83.0747 9.65515C83.3506 9.81564 83.6565 9.89589 83.9892 9.89589C84.3219 9.89589 84.6278 9.81564 84.9037 9.65515Z" fill="white"/>
</g>
</g>
</g>
</g>
</g>
</g>
<defs>
<clipPath id="clip0_5151_255">
<rect width="107.999" height="32" fill="white" transform="translate(0.4375)"/>
</clipPath>
</defs>
</svg>
