<svg width="20" height="20" viewBox="0 0 20 20" fill="none" xmlns="http://www.w3.org/2000/svg">
<path d="M10 20C15.5228 20 20 15.5228 20 10C20 4.47715 15.5228 0 10 0C4.47715 0 0 4.47715 0 10C0 15.5228 4.47715 20 10 20Z" fill="#114559"/>
<path d="M8.69388 11.9276C8.69388 11.4972 8.75918 11.1326 8.8898 10.8338C9.03129 10.523 9.20544 10.254 9.41224 10.0269C9.61905 9.7998 9.84218 9.5966 10.0816 9.41724C10.3211 9.23793 10.5442 9.05862 10.751 8.87931C10.9578 8.68805 11.1265 8.47885 11.2571 8.25172C11.3986 8.0246 11.4694 7.75563 11.4694 7.44483C11.4694 7.08621 11.3388 6.7754 11.0776 6.51241C10.8163 6.23747 10.4571 6.1 10 6.1C9.60816 6.1 9.28707 6.1777 9.03673 6.3331C8.78639 6.47655 8.58503 6.63793 8.43265 6.81724C8.2585 7.03241 8.12789 7.27149 8.04082 7.53448L6 6.54828C6.18503 5.98644 6.45714 5.47839 6.81633 5.02414C6.96871 4.83287 7.1483 4.64759 7.3551 4.46828C7.5619 4.28897 7.79592 4.12759 8.05714 3.98414C8.32925 3.84069 8.62857 3.72713 8.9551 3.64345C9.29252 3.54782 9.66803 3.5 10.0816 3.5C10.6694 3.5 11.2027 3.60161 11.6816 3.80483C12.1714 3.99609 12.585 4.25908 12.9224 4.59379C13.2707 4.91655 13.5374 5.29908 13.7224 5.74138C13.9075 6.17172 14 6.62 14 7.08621C14 7.63609 13.9238 8.10828 13.7714 8.50276C13.6299 8.88529 13.4503 9.22 13.2327 9.5069C13.015 9.7938 12.781 10.0508 12.5306 10.2779C12.2803 10.5051 12.0463 10.7382 11.8286 10.9772C11.6109 11.2044 11.4258 11.4614 11.2735 11.7483C11.132 12.0232 11.0612 12.352 11.0612 12.7345H8.85714C8.82449 12.6508 8.79728 12.5611 8.77551 12.4655C8.72109 12.2862 8.69388 12.1069 8.69388 11.9276ZM8.53061 15.1552C8.53061 14.7966 8.65578 14.4857 8.90612 14.2228C9.15646 13.9478 9.46667 13.8103 9.83673 13.8103C10.2068 13.8103 10.517 13.9478 10.7673 14.2228C11.0177 14.4857 11.1429 14.7966 11.1429 15.1552C11.1429 15.5138 11.0177 15.8306 10.7673 16.1055C10.517 16.3685 10.2068 16.5 9.83673 16.5C9.46667 16.5 9.15646 16.3685 8.90612 16.1055C8.65578 15.8306 8.53061 15.5138 8.53061 15.1552Z" fill="white"/>
</svg>
