<svg width="60" height="60" viewBox="0 0 60 60" fill="none" xmlns="http://www.w3.org/2000/svg">
<rect width="60" height="60" rx="12" fill="#F4F6F8"/>
<path d="M40.7992 28.2C40.7992 27.7226 40.6096 27.2648 40.272 26.9272C39.9345 26.5897 39.4767 26.4 38.9992 26.4H33.5992V21C33.5992 20.5226 33.4096 20.0648 33.072 19.7272C32.7345 19.3897 32.2767 19.2 31.7992 19.2H28.1992C27.7218 19.2 27.264 19.3897 26.9264 19.7272C26.5889 20.0648 26.3992 20.5226 26.3992 21V26.4H20.9992C20.5218 26.4 20.064 26.5897 19.7264 26.9272C19.3889 27.2648 19.1992 27.7226 19.1992 28.2V31.8C19.1992 32.2775 19.3889 32.7353 19.7264 33.0728C20.064 33.4104 20.5218 33.6 20.9992 33.6H26.3992V39C26.3992 39.4775 26.5889 39.9353 26.9264 40.2728C27.264 40.6104 27.7218 40.8 28.1992 40.8H31.7992C32.2767 40.8 32.7345 40.6104 33.072 40.2728C33.4096 39.9353 33.5992 39.4775 33.5992 39V33.6H38.9992C39.4767 33.6 39.9345 33.4104 40.272 33.0728C40.6096 32.7353 40.7992 32.2775 40.7992 31.8V28.2Z" fill="white" stroke="#012432" stroke-width="1.7" stroke-linecap="round" stroke-linejoin="round"/>
</svg>
