<svg width="16" height="16" viewBox="0 0 16 16" fill="none" xmlns="http://www.w3.org/2000/svg">
<mask id="mask0_8195_19682" style="mask-type:luminance" maskUnits="userSpaceOnUse" x="2" y="0" width="12" height="16">
<path d="M8 14.6668C8 14.6668 13 10.6668 13 6.3335C13 3.57216 10.7613 1.3335 8 1.3335C5.23867 1.3335 3 3.57216 3 6.3335C3 10.6668 8 14.6668 8 14.6668Z" fill="white" stroke="white" stroke-width="2" stroke-linejoin="round"/>
<path d="M8 8.3335C8.26264 8.3335 8.52272 8.28176 8.76537 8.18126C9.00802 8.08075 9.2285 7.93343 9.41421 7.74771C9.59993 7.56199 9.74725 7.34151 9.84776 7.09886C9.94827 6.85621 10 6.59614 10 6.3335C10 6.07085 9.94827 5.81078 9.84776 5.56813C9.74725 5.32548 9.59993 5.105 9.41421 4.91928C9.2285 4.73357 9.00802 4.58625 8.76537 4.48574C8.52272 4.38523 8.26264 4.3335 8 4.3335C7.46957 4.3335 6.96086 4.54421 6.58579 4.91928C6.21071 5.29436 6 5.80306 6 6.3335C6 6.86393 6.21071 7.37264 6.58579 7.74771C6.96086 8.12278 7.46957 8.3335 8 8.3335Z" fill="black" stroke="black" stroke-width="2" stroke-linejoin="round"/>
</mask>
<g mask="url(#mask0_8195_19682)">
<path d="M0 0H16V16H0V0Z" fill="#598392"/>
</g>
</svg>
