<svg width="16" height="17" viewBox="0 0 16 17" fill="none" xmlns="http://www.w3.org/2000/svg">
<g clip-path="url(#clip0_6984_100687)">
<path d="M15.5406 2.98637C15.5406 2.43117 15.0894 1.97997 14.5342 1.97997H9.78698C9.76618 1.97997 9.74538 1.98157 9.72458 1.98317V0.667969L0.458984 1.90477V15.0792L9.72458 16.348V14.9944C9.74538 14.996 9.76618 14.9976 9.78698 14.9976H14.5342C15.0894 14.9976 15.5406 14.5464 15.5406 13.9912V2.98637ZM9.72458 10.6856H10.4382V9.87597H9.72458V9.52557H10.4382V8.71597H9.72458V7.24397H14.171V10.9272C14.171 10.988 14.1214 11.0392 14.059 11.0392H9.72458V10.6856ZM1.88618 10.8232L1.07658 10.7848V6.86797L1.88618 6.83277V10.8232ZM4.61738 10.2248C4.89898 10.2344 5.21418 10.18 5.40298 10.1096L5.54858 10.8776C5.37258 10.9592 4.97898 11.036 4.47818 11.0104C3.11178 10.9416 2.43818 10.0392 2.43818 8.88877C2.43818 7.50957 3.36298 6.70157 4.56938 6.64717C5.05418 6.62637 5.42858 6.71117 5.59818 6.79437L5.40298 7.57677C5.20938 7.49837 4.94218 7.42957 4.61098 7.43917C3.88618 7.45837 3.33898 7.92077 3.33898 8.83757C3.34058 9.66317 3.80458 10.1992 4.61738 10.2248ZM7.28778 11.1512C6.76938 11.1256 6.26858 10.9704 6.02218 10.8232L6.22378 10.012C6.49258 10.1576 6.91018 10.308 7.35018 10.3224C7.83178 10.3384 8.09098 10.1512 8.09098 9.85357C8.09098 9.56877 7.86698 9.40397 7.31018 9.20397C6.55978 8.94157 6.08138 8.53677 6.08138 7.89997C6.08138 7.15437 6.71018 6.55437 7.79018 6.50637C8.32298 6.48237 8.72299 6.57357 9.01418 6.68557L8.76778 7.53837C8.57418 7.45357 8.23178 7.33357 7.77098 7.34637C7.31818 7.35917 7.10058 7.56397 7.10058 7.79597C7.10058 8.08077 7.35818 8.20397 7.95818 8.41997C8.80458 8.71597 9.21258 9.14477 9.21258 9.80237C9.20938 10.5832 8.57898 11.2152 7.28778 11.1512ZM14.9646 13.9912C14.9646 14.2296 14.771 14.4232 14.5326 14.4232H9.78698C9.76618 14.4232 9.74538 14.42 9.72458 14.4168V11.4872H14.059C14.3662 11.4872 14.6174 11.2376 14.6174 10.9288V6.88237C14.6174 6.57517 14.3678 6.32397 14.059 6.32397H13.3054V5.80717H12.9278V6.32397H12.211V5.80717H11.8478V6.32397H11.155V5.80717H10.7918V6.32397H10.0478V5.80717H9.72458V2.55917C9.74554 2.56237 9.76618 2.55277 9.78698 2.55277H14.5342C14.7726 2.55277 14.9662 2.74637 14.9662 2.98477L14.9646 13.9912Z" fill="#384252"/>
</g>
<defs>
<clipPath id="clip0_6984_100687">
<rect width="16" height="16" fill="white" transform="translate(0 0.507812)"/>
</clipPath>
</defs>
</svg>
