<svg width="844" height="496" viewBox="0 0 844 496" fill="none" xmlns="http://www.w3.org/2000/svg">
<path fill-rule="evenodd" clip-rule="evenodd" d="M571.246 491.467C706.921 491.467 816.907 381.481 816.907 245.807C816.907 110.132 706.921 0.146484 571.246 0.146484C513.93 0.146484 461.198 19.7755 419.407 52.6778C378.389 21.9452 327.444 3.74072 272.246 3.74072C136.572 3.74072 26.5859 113.727 26.5859 249.401C26.5859 385.076 136.572 495.061 272.246 495.061C329.563 495.061 382.294 475.432 424.086 442.53C465.103 473.263 516.049 491.467 571.246 491.467ZM325.586 245.807C325.586 326.284 364.284 397.723 424.086 442.53C481.22 397.549 517.907 327.759 517.907 249.401C517.907 168.924 479.209 97.4854 419.407 52.6778C362.273 97.6592 325.586 167.449 325.586 245.807Z" fill="url(#paint0_linear_4947_81965)"/>
<path d="M325.586 245.807C325.586 326.284 364.284 397.723 424.086 442.53C481.22 397.549 517.907 327.759 517.907 249.401C517.907 168.924 479.209 97.4854 419.407 52.6778C362.273 97.6592 325.586 167.449 325.586 245.807Z" fill="url(#paint1_linear_4947_81965)"/>
<g clip-path="url(#clip0_4947_81965)">
<path d="M447.03 263.105L441.569 248.896L436.126 263.08L429.109 244.75H432.329L437.292 257.671L442.43 244.424L447.835 258.319L453.028 244.75H454.091L447.066 263.105H447.03Z" fill="white"/>
<path d="M407.954 236.381H404.82V262.566H407.954V236.381Z" fill="white"/>
<path d="M419.839 263.051C414.46 263.051 410.984 259.508 410.984 254.025C410.984 248.46 414.709 244.723 420.252 244.723C425.589 244.723 429.038 248.212 429.038 253.611C429.038 259.258 425.34 263.051 419.839 263.051ZM419.563 244.996C416.229 244.996 414.393 247.836 414.393 252.992C414.393 258.938 416.841 262.779 420.63 262.779C422.91 262.779 425.627 261.379 425.627 254.714C425.627 251.791 425.056 249.337 423.975 247.617C422.899 245.903 421.372 244.996 419.563 244.996Z" fill="white"/>
<path d="M367.715 262.462V247.07L367.712 246.691V246.568L370.839 244.746V261.707L370.833 262.462H367.715ZM369.26 242.853C368.086 242.853 367.234 242.029 367.234 240.895C367.234 239.764 368.067 238.973 369.26 238.973C370.434 238.973 371.286 239.781 371.286 240.895C371.285 242.029 370.433 242.853 369.26 242.853Z" fill="white"/>
<path d="M385.859 262.525L385.862 261.771V250.122C385.862 247.806 384.646 246.478 382.528 246.478C380.789 246.478 379.415 247.188 377.761 248.332L377.716 248.363V262.523H374.593V261.769V247.133L374.586 246.596L377.716 244.808V248.179L377.883 248.056C381.013 245.748 383.028 244.764 384.624 244.764C387.336 244.764 389.02 246.606 389.02 249.572V261.77L389.024 262.525H385.859Z" fill="white"/>
<path d="M354.684 262.518L354.681 261.751V250.861L346.451 238.946L346 238.264H350.024L350.537 239.062L357.092 248.726L364.161 238.264H366.616L358.08 250.858V262.518H354.684Z" fill="white"/>
<path d="M393.935 262.461L393.933 261.704V246.3H391.211V245.165H393.938L393.94 245.063C394.009 242.243 394.735 239.88 396.041 238.227C397.162 236.812 398.678 236 400.204 236C401.476 236 402.236 236.605 402.236 237.618C402.236 238.211 401.935 238.65 401.756 238.898C400.899 238.474 399.994 238.102 398.531 238.102C396.811 238.102 395.915 239.67 395.811 241.129C395.712 242.523 395.957 243.824 396.56 245.106L396.588 245.166H401.581V246.301H397.101V261.704L397.102 262.461H393.935Z" fill="white"/>
<path d="M459.547 262.613L463.167 236.827L465.781 236.684L462.159 262.613H459.547Z" fill="white"/>
<path d="M470.839 242.992C469.755 242.992 468.969 242.23 468.969 241.18C468.969 240.147 469.755 239.398 470.839 239.398C471.455 239.398 472.004 239.648 472.344 240.084C472.619 240.384 472.761 240.761 472.761 241.181C472.761 241.62 472.601 242.027 472.308 242.328C471.959 242.751 471.425 242.992 470.839 242.992Z" fill="white"/>
<path d="M453.964 263.105C452.88 263.105 452.094 262.343 452.094 261.293C452.094 260.26 452.88 259.512 453.964 259.512C454.58 259.512 455.129 259.762 455.469 260.198C455.744 260.497 455.886 260.874 455.886 261.295C455.886 261.733 455.726 262.141 455.433 262.441C455.083 262.864 454.548 263.105 453.964 263.105Z" fill="white"/>
<path d="M466.625 262.613L469.043 245.34H471.621L469.203 262.613H466.625Z" fill="white"/>
<path d="M470.637 271.54C470.085 271.54 469.624 271.482 469.265 271.366C468.902 271.248 468.639 271.134 468.462 271.016C468.224 270.856 468.171 270.794 468.152 270.756L468.141 270.732L468.906 269.237L468.957 269.287C468.981 269.309 469.058 269.368 469.175 269.454C469.296 269.541 469.476 269.625 469.71 269.704C469.945 269.782 470.222 269.821 470.535 269.821C471.416 269.821 472.12 269.38 472.687 268.472C473.253 267.566 473.69 266.048 473.985 263.959L476.346 247.125H474.56L474.801 245.382L476.601 245.371L476.938 242.944C477.258 240.724 477.846 239.069 478.683 238.025C479.526 236.975 480.78 236.443 482.415 236.443C482.967 236.443 483.48 236.519 483.942 236.67C484.402 236.819 484.775 236.976 485.051 237.138C485.329 237.301 485.499 237.402 485.569 237.448L485.604 237.472L485.008 238.923L484.953 238.868C484.91 238.826 484.777 238.74 484.568 238.618C484.353 238.495 484.068 238.376 483.719 238.262C483.37 238.149 483 238.092 482.62 238.092C482.039 238.092 481.554 238.239 481.176 238.528C481.106 238.582 481.032 238.649 480.953 238.735C480.688 239.054 480.457 239.489 480.259 240.031C479.983 240.79 479.749 241.861 479.567 243.212L479.264 245.337H484.158L483.903 247.125H479.009L476.649 263.952C476.251 266.764 475.443 268.802 474.248 270.01C473.298 271.027 472.083 271.54 470.637 271.54Z" fill="white"/>
<path d="M489.753 262.861C487.75 262.861 486.111 262.261 484.88 261.077C483.648 259.894 483.023 258.164 483.023 255.939C483.023 253.817 483.385 251.91 484.098 250.271C484.812 248.629 485.826 247.341 487.109 246.444C488.396 245.546 489.844 245.09 491.412 245.09C491.468 245.09 491.524 245.09 491.579 245.091C492.901 245.118 493.952 245.515 494.795 246.304C495.781 247.229 495.915 248.512 495.915 249.645C495.915 251.774 494.966 253.197 493.096 253.872C491.255 254.538 489.839 254.875 487.211 254.875H485.768L485.762 254.988C485.748 255.294 485.74 255.715 485.74 256.243C485.74 257.903 486.147 259.158 486.952 259.971C487.755 260.785 488.845 261.197 490.193 261.197C491.082 261.197 491.455 261.049 492.089 260.765C492.732 260.477 493.243 260.158 493.606 259.817C493.871 259.569 493.978 259.464 494.036 259.406C494.102 259.341 494.162 259.268 494.214 259.192L495.195 260.062V260.1C495.195 260.154 495.195 260.237 494.475 260.956C494.006 261.424 493.336 261.863 492.484 262.26C491.628 262.659 490.97 262.861 489.753 262.861ZM491.217 246.739C489.818 246.739 488.685 247.315 487.754 248.498C486.854 249.643 486.245 251.251 485.941 253.278L485.921 253.415H487.278C489.288 253.415 490.16 253.167 491.543 252.642C492.982 252.096 493.773 250.969 493.773 249.471C493.773 248.7 493.7 247.838 493.157 247.296C492.743 246.88 492.252 246.739 491.217 246.739Z" fill="white"/>
</g>
<path d="M385.577 222.234C384.029 222.234 382.703 221.994 381.599 221.514C380.507 221.022 379.667 220.326 379.079 219.426C378.503 218.526 378.215 217.446 378.215 216.186C378.215 214.914 378.503 213.828 379.079 212.928C379.667 212.028 380.507 211.338 381.599 210.858C382.703 210.366 384.029 210.12 385.577 210.12C387.137 210.12 388.463 210.366 389.555 210.858C390.647 211.338 391.481 212.028 392.057 212.928C392.645 213.828 392.939 214.914 392.939 216.186C392.939 217.446 392.645 218.526 392.057 219.426C391.481 220.326 390.647 221.022 389.555 221.514C388.463 221.994 387.137 222.234 385.577 222.234ZM385.577 220.164C386.537 220.164 387.377 220.02 388.097 219.732C388.829 219.444 389.399 219.006 389.807 218.418C390.227 217.83 390.437 217.086 390.437 216.186C390.437 215.286 390.227 214.542 389.807 213.954C389.399 213.366 388.829 212.928 388.097 212.64C387.377 212.34 386.537 212.19 385.577 212.19C384.629 212.19 383.783 212.34 383.039 212.64C382.295 212.928 381.713 213.366 381.293 213.954C380.873 214.542 380.663 215.286 380.663 216.186C380.663 217.086 380.873 217.83 381.293 218.418C381.713 219.006 382.295 219.444 383.039 219.732C383.783 220.02 384.629 220.164 385.577 220.164ZM406.745 217.446V210.354H409.139V217.608C409.139 218.22 409.025 218.802 408.797 219.354C408.581 219.906 408.251 220.398 407.807 220.83C407.375 221.25 406.835 221.58 406.187 221.82C405.551 222.06 404.807 222.18 403.955 222.18C403.295 222.18 402.653 222.096 402.029 221.928C401.417 221.76 400.865 221.508 400.373 221.172C399.881 220.824 399.485 220.392 399.185 219.876C398.885 219.348 398.723 218.73 398.699 218.022H400.967C401.099 218.706 401.435 219.228 401.975 219.588C402.527 219.936 403.187 220.11 403.955 220.11C404.615 220.11 405.149 219.996 405.557 219.768C405.965 219.528 406.265 219.21 406.457 218.814C406.649 218.406 406.745 217.95 406.745 217.446ZM414.299 217.14V220.002H423.281V222H411.905V210.354H423.263V212.352H414.299V215.25H421.643V217.14H414.299ZM426.081 210.354H428.475V222H426.081V210.354ZM430.548 210.354H442.824V212.352H430.548V210.354ZM435.498 212.1H437.892V222H435.498V212.1ZM450.598 222.234C449.05 222.234 447.724 221.994 446.62 221.514C445.528 221.022 444.688 220.326 444.1 219.426C443.524 218.526 443.236 217.446 443.236 216.186C443.236 214.914 443.524 213.828 444.1 212.928C444.688 212.028 445.528 211.338 446.62 210.858C447.724 210.366 449.05 210.12 450.598 210.12C452.158 210.12 453.484 210.366 454.576 210.858C455.668 211.338 456.502 212.028 457.078 212.928C457.666 213.828 457.96 214.914 457.96 216.186C457.96 217.446 457.666 218.526 457.078 219.426C456.502 220.326 455.668 221.022 454.576 221.514C453.484 221.994 452.158 222.234 450.598 222.234ZM450.598 220.164C451.558 220.164 452.398 220.02 453.118 219.732C453.85 219.444 454.42 219.006 454.828 218.418C455.248 217.83 455.458 217.086 455.458 216.186C455.458 215.286 455.248 214.542 454.828 213.954C454.42 213.366 453.85 212.928 453.118 212.64C452.398 212.34 451.558 212.19 450.598 212.19C449.65 212.19 448.804 212.34 448.06 212.64C447.316 212.928 446.734 213.366 446.314 213.954C445.894 214.542 445.684 215.286 445.684 216.186C445.684 217.086 445.894 217.83 446.314 218.418C446.734 219.006 447.316 219.444 448.06 219.732C448.804 220.02 449.65 220.164 450.598 220.164Z" fill="white"/>
<path d="M81.1774 254.076H83.6074C83.6554 254.484 83.8414 254.856 84.1654 255.192C84.5014 255.516 84.9394 255.774 85.4794 255.966C86.0194 256.146 86.6254 256.236 87.2974 256.236C87.9094 256.236 88.4134 256.17 88.8094 256.038C89.2054 255.906 89.4994 255.72 89.6914 255.48C89.8834 255.24 89.9794 254.952 89.9794 254.616C89.9794 254.292 89.8594 254.046 89.6194 253.878C89.3794 253.698 89.0014 253.554 88.4854 253.446C87.9694 253.326 87.2914 253.206 86.4514 253.086C85.7914 252.99 85.1674 252.858 84.5794 252.69C83.9914 252.51 83.4694 252.282 83.0134 252.006C82.5694 251.73 82.2154 251.394 81.9514 250.998C81.6994 250.59 81.5734 250.11 81.5734 249.558C81.5734 248.874 81.7654 248.274 82.1494 247.758C82.5454 247.242 83.1274 246.84 83.8954 246.552C84.6634 246.264 85.6054 246.12 86.7214 246.12C88.4014 246.12 89.6914 246.48 90.5914 247.2C91.5034 247.908 91.9474 248.886 91.9234 250.134H89.5834C89.5354 249.426 89.2354 248.916 88.6834 248.604C88.1434 248.292 87.4594 248.136 86.6314 248.136C85.8634 248.136 85.2274 248.25 84.7234 248.478C84.2314 248.706 83.9854 249.096 83.9854 249.648C83.9854 249.864 84.0454 250.056 84.1654 250.224C84.2854 250.38 84.4894 250.518 84.7774 250.638C85.0654 250.758 85.4554 250.872 85.9474 250.98C86.4394 251.088 87.0514 251.196 87.7834 251.304C88.4674 251.4 89.0854 251.532 89.6374 251.7C90.2014 251.856 90.6814 252.066 91.0774 252.33C91.4854 252.582 91.7974 252.906 92.0134 253.302C92.2294 253.698 92.3374 254.184 92.3374 254.76C92.3374 255.468 92.1514 256.086 91.7794 256.614C91.4194 257.13 90.8554 257.532 90.0874 257.82C89.3314 258.108 88.3474 258.252 87.1354 258.252C86.2714 258.252 85.5094 258.162 84.8494 257.982C84.1894 257.79 83.6194 257.538 83.1394 257.226C82.6594 256.914 82.2694 256.572 81.9694 256.2C81.6694 255.828 81.4534 255.456 81.3214 255.084C81.2014 254.712 81.1534 254.376 81.1774 254.076ZM96.1093 255.462V253.464H103.813V255.462H96.1093ZM93.2113 258L98.6833 246.354H101.275L106.801 258H104.191L99.4033 247.506H100.555L95.8033 258H93.2113ZM119.186 252.852V246.354H121.58V253.104C121.58 253.872 121.466 254.544 121.238 255.12C121.022 255.696 120.71 256.182 120.302 256.578C119.894 256.974 119.414 257.298 118.862 257.55C118.322 257.79 117.728 257.964 117.08 258.072C116.444 258.18 115.772 258.234 115.064 258.234C114.332 258.234 113.636 258.18 112.976 258.072C112.316 257.964 111.71 257.79 111.158 257.55C110.618 257.298 110.15 256.974 109.754 256.578C109.358 256.182 109.046 255.696 108.818 255.12C108.602 254.544 108.494 253.872 108.494 253.104V246.354H110.888V252.852C110.888 253.764 111.068 254.46 111.428 254.94C111.788 255.408 112.28 255.732 112.904 255.912C113.54 256.08 114.26 256.164 115.064 256.164C115.844 256.164 116.54 256.08 117.152 255.912C117.776 255.732 118.268 255.408 118.628 254.94C119 254.46 119.186 253.764 119.186 252.852ZM113.804 244.95L116.252 242.106H119.348L116.036 244.95H113.804ZM131.01 246.354C132.318 246.354 133.41 246.51 134.286 246.822C135.162 247.134 135.858 247.56 136.374 248.1C136.902 248.628 137.274 249.24 137.49 249.936C137.718 250.632 137.832 251.364 137.832 252.132C137.832 252.9 137.706 253.638 137.454 254.346C137.214 255.054 136.824 255.684 136.284 256.236C135.756 256.776 135.054 257.208 134.178 257.532C133.314 257.844 132.258 258 131.01 258H124.35V246.354H131.01ZM126.744 255.948H130.956C131.82 255.948 132.534 255.846 133.098 255.642C133.674 255.426 134.13 255.138 134.466 254.778C134.802 254.418 135.042 254.01 135.186 253.554C135.33 253.098 135.402 252.624 135.402 252.132C135.402 251.64 135.33 251.172 135.186 250.728C135.042 250.284 134.802 249.888 134.466 249.54C134.13 249.192 133.674 248.916 133.098 248.712C132.534 248.508 131.82 248.406 130.956 248.406H126.744V255.948ZM142.564 253.14V256.002H151.546V258H140.17V246.354H151.528V248.352H142.564V251.25H149.908V253.14H142.564ZM167.4 256.812H166.266L172.962 246.354H175.356V258H172.962V249.54L173.538 249.702L168.192 258H165.51L160.164 249.738L160.74 249.576V258H158.346V246.354H160.74L167.4 256.812ZM180.515 253.14V256.002H189.497V258H178.121V246.354H189.479V248.352H180.515V251.25H187.859V253.14H180.515ZM203.763 255.624L203.007 255.93V246.354H205.401V258H203.007L193.593 248.802L194.349 248.496V258H191.955V246.354H194.349L203.763 255.624ZM207.154 246.354H219.43V248.352H207.154V246.354ZM212.104 248.1H214.498V258H212.104V248.1ZM222.25 255.462V253.464H229.954V255.462H222.25ZM219.352 258L224.824 246.354H227.416L232.942 258H230.332L225.544 247.506H226.696L221.944 258H219.352ZM237.029 246.354V256.002H244.769V258H234.635V246.354H237.029Z" fill="#012432"/>
<path d="M605.511 251.462V249.464H613.215V251.462H605.511ZM602.613 254L608.085 242.354H610.677L616.203 254H613.593L608.805 243.506H609.957L605.205 254H602.613ZM630.906 249.806C630.798 250.742 630.468 251.54 629.916 252.2C629.364 252.86 628.614 253.364 627.666 253.712C626.718 254.06 625.59 254.234 624.282 254.234C623.19 254.234 622.188 254.108 621.276 253.856C620.376 253.604 619.596 253.226 618.936 252.722C618.288 252.218 617.784 251.594 617.424 250.85C617.064 250.094 616.884 249.212 616.884 248.204C616.884 247.196 617.064 246.314 617.424 245.558C617.784 244.802 618.288 244.172 618.936 243.668C619.596 243.152 620.376 242.768 621.276 242.516C622.188 242.252 623.19 242.12 624.282 242.12C625.59 242.12 626.718 242.3 627.666 242.66C628.626 243.02 629.382 243.536 629.934 244.208C630.486 244.868 630.81 245.672 630.906 246.62H628.53C628.374 246.116 628.11 245.684 627.738 245.324C627.378 244.952 626.91 244.67 626.334 244.478C625.758 244.286 625.074 244.19 624.282 244.19C623.298 244.19 622.434 244.346 621.69 244.658C620.946 244.958 620.37 245.408 619.962 246.008C619.554 246.596 619.35 247.328 619.35 248.204C619.35 249.068 619.554 249.794 619.962 250.382C620.37 250.97 620.946 251.42 621.69 251.732C622.434 252.032 623.298 252.182 624.282 252.182C625.074 252.182 625.752 252.086 626.316 251.894C626.892 251.702 627.36 251.426 627.72 251.066C628.092 250.706 628.362 250.286 628.53 249.806H630.906ZM635.635 249.14V252.002H644.617V254H633.241V242.354H644.599V244.352H635.635V247.25H642.979V249.14H635.635ZM646.301 250.076H648.731C648.779 250.484 648.965 250.856 649.289 251.192C649.625 251.516 650.063 251.774 650.603 251.966C651.143 252.146 651.749 252.236 652.421 252.236C653.033 252.236 653.537 252.17 653.933 252.038C654.329 251.906 654.623 251.72 654.815 251.48C655.007 251.24 655.103 250.952 655.103 250.616C655.103 250.292 654.983 250.046 654.743 249.878C654.503 249.698 654.125 249.554 653.609 249.446C653.093 249.326 652.415 249.206 651.575 249.086C650.915 248.99 650.291 248.858 649.703 248.69C649.115 248.51 648.593 248.282 648.137 248.006C647.693 247.73 647.339 247.394 647.075 246.998C646.823 246.59 646.697 246.11 646.697 245.558C646.697 244.874 646.889 244.274 647.273 243.758C647.669 243.242 648.251 242.84 649.019 242.552C649.787 242.264 650.729 242.12 651.845 242.12C653.525 242.12 654.815 242.48 655.715 243.2C656.627 243.908 657.071 244.886 657.047 246.134H654.707C654.659 245.426 654.359 244.916 653.807 244.604C653.267 244.292 652.583 244.136 651.755 244.136C650.987 244.136 650.351 244.25 649.847 244.478C649.355 244.706 649.109 245.096 649.109 245.648C649.109 245.864 649.169 246.056 649.289 246.224C649.409 246.38 649.613 246.518 649.901 246.638C650.189 246.758 650.579 246.872 651.071 246.98C651.563 247.088 652.175 247.196 652.907 247.304C653.591 247.4 654.209 247.532 654.761 247.7C655.325 247.856 655.805 248.066 656.201 248.33C656.609 248.582 656.921 248.906 657.137 249.302C657.353 249.698 657.461 250.184 657.461 250.76C657.461 251.468 657.275 252.086 656.903 252.614C656.543 253.13 655.979 253.532 655.211 253.82C654.455 254.108 653.471 254.252 652.259 254.252C651.395 254.252 650.633 254.162 649.973 253.982C649.313 253.79 648.743 253.538 648.263 253.226C647.783 252.914 647.393 252.572 647.093 252.2C646.793 251.828 646.577 251.456 646.445 251.084C646.325 250.712 646.277 250.376 646.301 250.076ZM658.8 250.076H661.23C661.278 250.484 661.464 250.856 661.788 251.192C662.124 251.516 662.562 251.774 663.102 251.966C663.642 252.146 664.248 252.236 664.92 252.236C665.532 252.236 666.036 252.17 666.432 252.038C666.828 251.906 667.122 251.72 667.314 251.48C667.506 251.24 667.602 250.952 667.602 250.616C667.602 250.292 667.482 250.046 667.242 249.878C667.002 249.698 666.624 249.554 666.108 249.446C665.592 249.326 664.914 249.206 664.074 249.086C663.414 248.99 662.79 248.858 662.202 248.69C661.614 248.51 661.092 248.282 660.636 248.006C660.192 247.73 659.838 247.394 659.574 246.998C659.322 246.59 659.196 246.11 659.196 245.558C659.196 244.874 659.388 244.274 659.772 243.758C660.168 243.242 660.75 242.84 661.518 242.552C662.286 242.264 663.228 242.12 664.344 242.12C666.024 242.12 667.314 242.48 668.214 243.2C669.126 243.908 669.57 244.886 669.546 246.134H667.206C667.158 245.426 666.858 244.916 666.306 244.604C665.766 244.292 665.082 244.136 664.254 244.136C663.486 244.136 662.85 244.25 662.346 244.478C661.854 244.706 661.608 245.096 661.608 245.648C661.608 245.864 661.668 246.056 661.788 246.224C661.908 246.38 662.112 246.518 662.4 246.638C662.688 246.758 663.078 246.872 663.57 246.98C664.062 247.088 664.674 247.196 665.406 247.304C666.09 247.4 666.708 247.532 667.26 247.7C667.824 247.856 668.304 248.066 668.7 248.33C669.108 248.582 669.42 248.906 669.636 249.302C669.852 249.698 669.96 250.184 669.96 250.76C669.96 251.468 669.774 252.086 669.402 252.614C669.042 253.13 668.478 253.532 667.71 253.82C666.954 254.108 665.97 254.252 664.758 254.252C663.894 254.252 663.132 254.162 662.472 253.982C661.812 253.79 661.242 253.538 660.762 253.226C660.282 252.914 659.892 252.572 659.592 252.2C659.292 251.828 659.076 251.456 658.944 251.084C658.824 250.712 658.776 250.376 658.8 250.076ZM672.414 242.354H674.808V254H672.414V242.354ZM677.907 254V242.354H684.621C686.181 242.354 687.363 242.618 688.167 243.146C688.983 243.662 689.391 244.436 689.391 245.468C689.391 246.128 689.229 246.65 688.905 247.034C688.581 247.406 688.119 247.682 687.519 247.862C686.931 248.042 686.235 248.156 685.431 248.204L685.503 248.078C686.091 248.09 686.643 248.132 687.159 248.204C687.687 248.276 688.149 248.408 688.545 248.6C688.941 248.792 689.253 249.062 689.481 249.41C689.709 249.746 689.823 250.19 689.823 250.742C689.823 251.462 689.631 252.062 689.247 252.542C688.863 253.01 688.329 253.364 687.645 253.604C686.961 253.844 686.169 253.976 685.269 254H677.907ZM680.301 252.02H685.017C685.773 252.02 686.355 251.9 686.763 251.66C687.171 251.408 687.375 251.012 687.375 250.472C687.375 250.076 687.255 249.788 687.015 249.608C686.775 249.428 686.457 249.32 686.061 249.284C685.665 249.236 685.239 249.212 684.783 249.212H680.301V252.02ZM680.301 247.286H684.531C685.287 247.286 685.869 247.178 686.277 246.962C686.685 246.734 686.889 246.35 686.889 245.81C686.889 245.27 686.685 244.892 686.277 244.676C685.869 244.448 685.329 244.334 684.657 244.334H680.301V247.286ZM692.294 242.354H694.688V254H692.294V242.354ZM700.182 242.354V252.002H707.922V254H697.788V242.354H700.182ZM710.488 242.354H712.882V254H710.488V242.354ZM722.642 242.354C723.95 242.354 725.042 242.51 725.918 242.822C726.794 243.134 727.49 243.56 728.006 244.1C728.534 244.628 728.906 245.24 729.122 245.936C729.35 246.632 729.464 247.364 729.464 248.132C729.464 248.9 729.338 249.638 729.086 250.346C728.846 251.054 728.456 251.684 727.916 252.236C727.388 252.776 726.686 253.208 725.81 253.532C724.946 253.844 723.89 254 722.642 254H715.982V242.354H722.642ZM718.376 251.948H722.588C723.452 251.948 724.166 251.846 724.73 251.642C725.306 251.426 725.762 251.138 726.098 250.778C726.434 250.418 726.674 250.01 726.818 249.554C726.962 249.098 727.034 248.624 727.034 248.132C727.034 247.64 726.962 247.172 726.818 246.728C726.674 246.284 726.434 245.888 726.098 245.54C725.762 245.192 725.306 244.916 724.73 244.712C724.166 244.508 723.452 244.406 722.588 244.406H718.376V251.948ZM733.04 251.462V249.464H740.744V251.462H733.04ZM730.142 254L735.614 242.354H738.206L743.732 254H741.122L736.334 243.506H737.486L732.734 254H730.142ZM752.085 242.354C753.393 242.354 754.485 242.51 755.361 242.822C756.237 243.134 756.933 243.56 757.449 244.1C757.977 244.628 758.349 245.24 758.565 245.936C758.793 246.632 758.907 247.364 758.907 248.132C758.907 248.9 758.781 249.638 758.529 250.346C758.289 251.054 757.899 251.684 757.359 252.236C756.831 252.776 756.129 253.208 755.253 253.532C754.389 253.844 753.333 254 752.085 254H745.425V242.354H752.085ZM747.819 251.948H752.031C752.895 251.948 753.609 251.846 754.173 251.642C754.749 251.426 755.205 251.138 755.541 250.778C755.877 250.418 756.117 250.01 756.261 249.554C756.405 249.098 756.477 248.624 756.477 248.132C756.477 247.64 756.405 247.172 756.261 246.728C756.117 246.284 755.877 245.888 755.541 245.54C755.205 245.192 754.749 244.916 754.173 244.712C753.609 244.508 752.895 244.406 752.031 244.406H747.819V251.948ZM763.639 249.14V252.002H772.621V254H761.245V242.354H772.603V244.352H763.639V247.25H770.983V249.14H763.639Z" fill="#012432"/>
<defs>
<linearGradient id="paint0_linear_4947_81965" x1="421.746" y1="0.146484" x2="421.746" y2="495.061" gradientUnits="userSpaceOnUse">
<stop stop-color="#06C6A3"/>
<stop offset="1" stop-color="#E0F6EF"/>
</linearGradient>
<linearGradient id="paint1_linear_4947_81965" x1="421.746" y1="0.146484" x2="421.746" y2="495.061" gradientUnits="userSpaceOnUse">
<stop stop-color="#114559"/>
<stop offset="1" stop-color="#E0F6EF"/>
</linearGradient>
<clipPath id="clip0_4947_81965">
<rect width="150" height="35.5408" fill="white" transform="translate(346 236)"/>
</clipPath>
</defs>
</svg>
