<svg width="16" height="16" viewBox="0 0 16 16" fill="none" xmlns="http://www.w3.org/2000/svg">
<g id="mdi:information-variant">
<rect x="0.5" y="0.5" width="15" height="15" rx="7.5" stroke="#598392"/>
<path id="Vector" d="M8.99927 2.66699C8.73405 2.66699 8.4797 2.77235 8.29216 2.95989C8.10463 3.14742 7.99927 3.40178 7.99927 3.66699C7.99927 3.93221 8.10463 4.18656 8.29216 4.3741C8.4797 4.56164 8.73405 4.66699 8.99927 4.66699C9.26449 4.66699 9.51884 4.56164 9.70638 4.3741C9.89391 4.18656 9.99927 3.93221 9.99927 3.66699C9.99927 3.40178 9.89391 3.14742 9.70638 2.95989C9.51884 2.77235 9.26449 2.66699 8.99927 2.66699ZM8.75927 5.84699C7.96594 5.91366 5.79927 7.64033 5.79927 7.64033C5.66594 7.74033 5.70594 7.73366 5.8126 7.92033C5.91927 8.10033 5.90594 8.11366 6.0326 8.02699C6.16594 7.94033 6.38594 7.80032 6.7526 7.57366C8.16594 6.66699 6.97927 8.76033 6.3726 12.287C6.1326 14.0337 7.70594 13.1337 8.1126 12.867C8.5126 12.607 9.58594 11.867 9.6926 11.7937C9.83927 11.6937 9.7326 11.6137 9.61927 11.447C9.53927 11.3337 9.45927 11.4137 9.45927 11.4137C9.02594 11.7003 8.2326 12.3003 8.12594 11.9203C7.99927 11.5403 8.8126 8.93366 9.25927 7.14033C9.3326 6.71366 9.5326 5.78033 8.75927 5.84699Z" fill="#598392"/>
</g>
</svg>
