<svg width="50" height="50" viewBox="0 0 50 50" fill="none" xmlns="http://www.w3.org/2000/svg">
<path opacity="0.3" fill-rule="evenodd" clip-rule="evenodd" d="M49 25C49 38.2543 38.2563 49 25 49C11.7437 49 1 38.2543 1 25C1 11.7437 11.7437 1 25 1C38.2563 1 49 11.7437 49 25Z" fill="#114559" stroke="white" stroke-linecap="round" stroke-linejoin="round"/>
<path fill-rule="evenodd" clip-rule="evenodd" d="M31.4108 35H18.5892C16.6077 35 15 33.3923 15 31.4092V18.5877C15 16.6077 16.6077 15 18.5892 15H31.4108C33.3923 15 35 16.6077 35 18.5877V31.4092C35 33.3923 33.3923 35 31.4108 35ZM30.2415 24.7674C30.2415 21.7439 27.7891 19.2934 24.7674 19.2934C21.7439 19.2934 19.2934 21.7439 19.2934 24.7674C19.2934 27.7891 21.7439 30.2415 24.7674 30.2415C27.7891 30.2415 30.2415 27.7891 30.2415 24.7674ZM32.8175 18.7567C32.8175 17.6303 31.9039 16.7174 30.7782 16.7174C29.6518 16.7174 28.7388 17.6303 28.7388 18.7567C28.7388 19.8824 29.6518 20.7961 30.7782 20.7961C31.9039 20.7961 32.8175 19.8824 32.8175 18.7567Z" fill="#114559" stroke="#114559" stroke-linejoin="round"/>
</svg>
