<svg width="144" height="57" viewBox="0 0 144 57" fill="none" xmlns="http://www.w3.org/2000/svg">
<rect x="1.09506" y="1.09506" width="141.81" height="54.7529" rx="2.19011" fill="#E6EBF0"/>
<rect x="1.09506" y="1.09506" width="141.81" height="54.7529" rx="2.19011" stroke="#114559" stroke-width="2.19011" stroke-linejoin="round"/>
<path d="M32.8516 8.76074L36.54 11.1195L40.8688 10.4649L43.2789 14.1199L47.4998 15.2825L48.2148 19.6018L51.5979 22.3807L50.4943 26.6175L52.4546 30.5321L49.7233 33.9537L49.9219 38.3273L46.0349 40.3421L44.4375 44.4183L40.0671 44.678L36.9498 47.7521L32.8516 46.2117L28.7535 47.7521L25.6362 44.678L21.2658 44.4183L19.6683 40.3421L15.7814 38.3273L15.98 33.9537L13.2486 30.5321L15.2089 26.6175L14.1054 22.3807L17.4884 19.6018L18.2035 15.2825L22.4244 14.1199L24.8344 10.4649L29.1633 11.1195L32.8516 8.76074Z" fill="#114559"/>
<path d="M31.6062 32.6543L38.1309 26.1L36.6184 24.5874L31.6062 29.6292L29.0853 27.1083L27.5728 28.6209L31.6062 32.6543ZM32.8519 39.8612C30.1827 39.2087 27.9732 37.6977 26.2233 35.3283C24.4735 32.9586 23.5986 30.3274 23.5986 27.4346V20.6429L32.8519 17.084L42.1051 20.6429V27.4346C42.1051 30.3274 41.2302 32.9586 39.4804 35.3283C37.7306 37.6977 35.521 39.2087 32.8519 39.8612ZM32.8519 37.6368C34.9081 36.9992 36.6085 35.7239 37.953 33.811C39.2975 31.8981 39.9697 29.7726 39.9697 27.4346V22.0962L32.8519 19.3676L25.734 22.0962V27.4346C25.734 29.7726 26.4062 31.8981 27.7507 33.811C29.0952 35.7239 30.7956 36.9992 32.8519 37.6368Z" fill="white"/>
<path d="M63.4983 17.6748L65.1311 12.6616H66.1736L67.8063 17.6748H66.8711L66.1046 15.0072C66.0228 14.7415 65.9436 14.4681 65.8669 14.187C65.7954 13.906 65.7239 13.6275 65.6523 13.3515H65.6217C65.5552 13.6326 65.4837 13.9137 65.407 14.1947C65.3355 14.4707 65.2588 14.7415 65.1771 15.0072L64.4029 17.6748H63.4983ZM64.4642 16.318V15.6205H66.8251V16.318H64.4642ZM69.6661 17.7668C69.1959 17.7668 68.8203 17.593 68.5392 17.2455C68.2582 16.898 68.1176 16.4151 68.1176 15.7968C68.1176 15.388 68.1917 15.0354 68.3399 14.739C68.4932 14.4426 68.69 14.2152 68.9302 14.0567C69.1755 13.8983 69.4361 13.8191 69.712 13.8191C69.9267 13.8191 70.1081 13.8549 70.2563 13.9264C70.4096 13.998 70.5578 14.1002 70.7009 14.233L70.6702 13.6275V12.263H71.5517V17.6748H70.8235L70.7622 17.2685H70.7315C70.5936 17.4065 70.4326 17.5241 70.2486 17.6211C70.0647 17.7182 69.8705 17.7668 69.6661 17.7668ZM69.8807 17.0386C70.0289 17.0386 70.1669 17.0054 70.2946 16.9389C70.4224 16.8674 70.5476 16.7601 70.6702 16.617V14.8616C70.5425 14.7441 70.4147 14.6623 70.2869 14.6163C70.1592 14.5703 70.0314 14.5473 69.9037 14.5473C69.7401 14.5473 69.592 14.5959 69.4591 14.693C69.3313 14.7901 69.2266 14.9306 69.1448 15.1146C69.0681 15.2985 69.0298 15.5234 69.0298 15.7891C69.0298 16.1928 69.1039 16.502 69.2521 16.7166C69.4003 16.9313 69.6098 17.0386 69.8807 17.0386ZM74.2918 17.7668C73.9391 17.7668 73.6198 17.6901 73.3336 17.5368C73.0525 17.3784 72.8302 17.1536 72.6667 16.8623C72.5032 16.5659 72.4214 16.2082 72.4214 15.7891C72.4214 15.3803 72.5057 15.0302 72.6744 14.739C72.843 14.4426 73.0602 14.2152 73.3259 14.0567C73.5917 13.8983 73.8727 13.8191 74.1691 13.8191C74.5115 13.8191 74.7977 13.8958 75.0276 14.0491C75.2576 14.2024 75.4288 14.4145 75.5412 14.6853C75.6588 14.951 75.7175 15.2576 75.7175 15.6051C75.7175 15.6869 75.7124 15.7661 75.7022 15.8428C75.6971 15.9194 75.6869 15.9935 75.6715 16.0651H73.0806V15.3905H74.9357C74.9357 15.1197 74.8743 14.9076 74.7517 14.7543C74.629 14.5959 74.44 14.5167 74.1844 14.5167C74.0414 14.5167 73.9008 14.555 73.7628 14.6316C73.63 14.7083 73.5176 14.8386 73.4256 15.0226C73.3387 15.2065 73.2953 15.4621 73.2953 15.7891C73.2953 16.0855 73.3464 16.3283 73.4486 16.5173C73.5508 16.7013 73.6862 16.8393 73.8548 16.9313C74.0235 17.0181 74.2049 17.0616 74.3991 17.0616C74.5626 17.0616 74.7159 17.0386 74.859 16.9926C75.0072 16.9466 75.1452 16.8827 75.2729 16.8009L75.5795 17.3682C75.4058 17.4908 75.2065 17.5879 74.9816 17.6595C74.7619 17.731 74.5319 17.7668 74.2918 17.7668ZM78.8821 19.1619V17.9278L78.9127 17.2992C78.7799 17.427 78.6214 17.5368 78.4375 17.6288C78.2586 17.7208 78.0721 17.7668 77.8779 17.7668C77.4078 17.7668 77.0322 17.593 76.7511 17.2455C76.47 16.898 76.3295 16.4151 76.3295 15.7968C76.3295 15.388 76.4036 15.0354 76.5518 14.739C76.7051 14.4426 76.9018 14.2152 77.142 14.0567C77.3873 13.8983 77.6479 13.8191 77.9239 13.8191C78.1385 13.8191 78.3251 13.8574 78.4835 13.9341C78.647 14.0056 78.808 14.1181 78.9664 14.2714H78.9894L79.066 13.9111H79.7636V19.1619H78.8821ZM78.0925 17.0386C78.2407 17.0386 78.3787 17.0054 78.5065 16.9389C78.6342 16.8674 78.7594 16.7601 78.8821 16.617V14.8616C78.7543 14.7441 78.6266 14.6623 78.4988 14.6163C78.371 14.5703 78.2433 14.5473 78.1155 14.5473C77.952 14.5473 77.8038 14.5959 77.6709 14.693C77.5432 14.7901 77.4384 14.9306 77.3567 15.1146C77.28 15.2985 77.2417 15.5234 77.2417 15.7891C77.2417 16.1928 77.3158 16.502 77.464 16.7166C77.6122 16.9313 77.8217 17.0386 78.0925 17.0386ZM82.0054 17.7668C81.6017 17.7668 81.3078 17.6365 81.1238 17.3759C80.9399 17.1152 80.8479 16.7473 80.8479 16.272V13.9111H81.7294V16.1571C81.7294 16.4688 81.7754 16.6885 81.8674 16.8163C81.9594 16.944 82.1076 17.0079 82.312 17.0079C82.4755 17.0079 82.6186 16.967 82.7412 16.8853C82.869 16.8035 83.0044 16.6706 83.1475 16.4867V13.9111H84.029V17.6748H83.3085L83.2395 17.1229H83.2165C83.053 17.3171 82.8741 17.4729 82.6799 17.5905C82.4857 17.708 82.2609 17.7668 82.0054 17.7668ZM86.0578 17.7668C85.838 17.7668 85.6438 17.7208 85.4752 17.6288C85.3066 17.5368 85.1737 17.4091 85.0766 17.2455C84.9846 17.0769 84.9386 16.8827 84.9386 16.663C84.9386 16.2388 85.1149 15.9194 85.4675 15.7048C85.8253 15.4851 86.3899 15.3343 87.1616 15.2525C87.1565 15.1248 87.1309 15.0072 87.0849 14.8999C87.0441 14.7926 86.9725 14.7083 86.8703 14.647C86.7732 14.5805 86.6404 14.5473 86.4717 14.5473C86.2877 14.5473 86.1063 14.5805 85.9275 14.647C85.7537 14.7134 85.5825 14.7977 85.4139 14.8999L85.0919 14.302C85.2299 14.2152 85.3807 14.1359 85.5442 14.0644C85.7077 13.9877 85.8815 13.929 86.0654 13.8881C86.2494 13.8421 86.4411 13.8191 86.6404 13.8191C86.9521 13.8191 87.2101 13.883 87.4146 14.0107C87.6241 14.1334 87.7799 14.3174 87.8821 14.5627C87.9895 14.8028 88.0431 15.0992 88.0431 15.4518V17.6748H87.3149L87.2536 17.2609H87.2229C87.0492 17.404 86.8678 17.5241 86.6787 17.6211C86.4896 17.7182 86.2826 17.7668 86.0578 17.7668ZM86.3337 17.0462C86.487 17.0462 86.6276 17.0156 86.7553 16.9543C86.8882 16.8878 87.0236 16.7907 87.1616 16.663V15.8658C86.8192 15.9067 86.5484 15.9603 86.3491 16.0267C86.1498 16.0932 86.0067 16.1749 85.9198 16.272C85.838 16.364 85.7972 16.4739 85.7972 16.6016C85.7972 16.7601 85.8483 16.875 85.9505 16.9466C86.0527 17.013 86.1804 17.0462 86.3337 17.0462ZM90.4165 17.7668C89.9464 17.7668 89.5708 17.593 89.2897 17.2455C89.0086 16.898 88.8681 16.4151 88.8681 15.7968C88.8681 15.388 88.9422 15.0354 89.0904 14.739C89.2437 14.4426 89.4405 14.2152 89.6806 14.0567C89.9259 13.8983 90.1866 13.8191 90.4625 13.8191C90.6771 13.8191 90.8586 13.8549 91.0068 13.9264C91.1601 13.998 91.3083 14.1002 91.4513 14.233L91.4207 13.6275V12.263H92.3022V17.6748H91.574L91.5127 17.2685H91.482C91.344 17.4065 91.1831 17.5241 90.9991 17.6211C90.8151 17.7182 90.6209 17.7668 90.4165 17.7668ZM90.6311 17.0386C90.7793 17.0386 90.9173 17.0054 91.0451 16.9389C91.1728 16.8674 91.298 16.7601 91.4207 16.617V14.8616C91.2929 14.7441 91.1652 14.6623 91.0374 14.6163C90.9097 14.5703 90.7819 14.5473 90.6541 14.5473C90.4906 14.5473 90.3424 14.5959 90.2096 14.693C90.0818 14.7901 89.977 14.9306 89.8953 15.1146C89.8186 15.2985 89.7803 15.5234 89.7803 15.7891C89.7803 16.1928 89.8544 16.502 90.0026 16.7166C90.1508 16.9313 90.3603 17.0386 90.6311 17.0386ZM94.9656 17.7668C94.6538 17.7668 94.3626 17.6901 94.0917 17.5368C93.8209 17.3784 93.6011 17.1536 93.4325 16.8623C93.2639 16.5659 93.1795 16.2107 93.1795 15.7968C93.1795 15.3777 93.2639 15.0226 93.4325 14.7313C93.6011 14.4349 93.8209 14.21 94.0917 14.0567C94.3626 13.8983 94.6538 13.8191 94.9656 13.8191C95.2824 13.8191 95.5762 13.8983 95.8471 14.0567C96.1179 14.21 96.3377 14.4349 96.5063 14.7313C96.675 15.0226 96.7593 15.3777 96.7593 15.7968C96.7593 16.2107 96.675 16.5659 96.5063 16.8623C96.3377 17.1536 96.1179 17.3784 95.8471 17.5368C95.5762 17.6901 95.2824 17.7668 94.9656 17.7668ZM94.9656 17.0462C95.1495 17.0462 95.308 16.9951 95.4408 16.8929C95.5737 16.7907 95.6759 16.6451 95.7474 16.456C95.819 16.2669 95.8548 16.0472 95.8548 15.7968C95.8548 15.5464 95.819 15.3266 95.7474 15.1376C95.6759 14.9485 95.5737 14.8028 95.4408 14.7006C95.308 14.5933 95.1495 14.5397 94.9656 14.5397C94.7816 14.5397 94.6232 14.5933 94.4903 14.7006C94.3626 14.8028 94.2629 14.9485 94.1914 15.1376C94.1198 15.3266 94.084 15.5464 94.084 15.7968C94.084 16.0472 94.1198 16.2669 94.1914 16.456C94.2629 16.6451 94.3626 16.7907 94.4903 16.8929C94.6232 16.9951 94.7816 17.0462 94.9656 17.0462ZM100.079 17.7668C99.8588 17.7668 99.6646 17.7208 99.496 17.6288C99.3274 17.5368 99.1945 17.4091 99.0974 17.2455C99.0054 17.0769 98.9594 16.8827 98.9594 16.663C98.9594 16.2388 99.1357 15.9194 99.4883 15.7048C99.8461 15.4851 100.411 15.3343 101.182 15.2525C101.177 15.1248 101.152 15.0072 101.106 14.8999C101.065 14.7926 100.993 14.7083 100.891 14.647C100.794 14.5805 100.661 14.5473 100.492 14.5473C100.309 14.5473 100.127 14.5805 99.9483 14.647C99.7745 14.7134 99.6033 14.7977 99.4347 14.8999L99.1127 14.302C99.2507 14.2152 99.4015 14.1359 99.565 14.0644C99.7285 13.9877 99.9023 13.929 100.086 13.8881C100.27 13.8421 100.462 13.8191 100.661 13.8191C100.973 13.8191 101.231 13.883 101.435 14.0107C101.645 14.1334 101.801 14.3174 101.903 14.5627C102.01 14.8028 102.064 15.0992 102.064 15.4518V17.6748H101.336L101.274 17.2609H101.244C101.07 17.404 100.889 17.5241 100.699 17.6211C100.51 17.7182 100.303 17.7668 100.079 17.7668ZM100.355 17.0462C100.508 17.0462 100.648 17.0156 100.776 16.9543C100.909 16.8878 101.044 16.7907 101.182 16.663V15.8658C100.84 15.9067 100.569 15.9603 100.37 16.0267C100.171 16.0932 100.027 16.1749 99.9406 16.272C99.8588 16.364 99.8179 16.4739 99.8179 16.6016C99.8179 16.7601 99.869 16.875 99.9713 16.9466C100.073 17.013 100.201 17.0462 100.355 17.0462ZM100.63 13.3055L99.3887 12.0637L99.4423 11.9718H100.385L101.32 13.3055H100.63Z" fill="#114559"/>
<path d="M63.7435 44.2676V25.1969H67.1261V41.4099H75.0577V44.2676H63.7435ZM85.4592 44.6175C83.7484 44.6175 82.2127 44.2384 80.8519 43.4803C79.4911 42.7221 78.4219 41.614 77.6443 40.156C76.8666 38.6786 76.4778 36.8901 76.4778 34.7905C76.4778 33.2353 76.7014 31.8454 77.1485 30.6206C77.6151 29.3959 78.2566 28.3559 79.0731 27.5005C79.909 26.6257 80.8713 25.9647 81.9599 25.5176C83.0486 25.0705 84.2247 24.8469 85.4883 24.8469C86.8491 24.8469 88.0058 25.0899 88.9584 25.5759C89.9109 26.0619 90.6788 26.6257 91.262 27.2672L89.4541 29.3376C88.9875 28.871 88.4529 28.5017 87.8503 28.2295C87.2477 27.9379 86.4992 27.7921 85.605 27.7921C84.4774 27.7921 83.486 28.074 82.6306 28.6378C81.7753 29.1821 81.1143 29.9694 80.6477 30.9997C80.1812 32.03 79.9479 33.2645 79.9479 34.7031C79.9479 36.1416 80.1715 37.3858 80.6186 38.4356C81.0657 39.4853 81.7169 40.2921 82.5723 40.8558C83.4471 41.4002 84.5163 41.6723 85.7799 41.6723C86.3242 41.6723 86.8394 41.6043 87.3254 41.4682C87.8114 41.3127 88.2099 41.0988 88.521 40.8267V36.7151H84.9051V33.9449H91.5536V42.343C90.9121 42.9845 90.0567 43.5289 88.9875 43.976C87.9378 44.4037 86.7616 44.6175 85.4592 44.6175ZM95.7798 44.2676V25.1969H101.787C103.206 25.1969 104.47 25.3815 105.578 25.7509C106.686 26.1203 107.56 26.7326 108.202 27.588C108.844 28.4434 109.164 29.6098 109.164 31.0872C109.164 32.4869 108.844 33.6436 108.202 34.5573C107.58 35.4709 106.715 36.1513 105.607 36.5985C104.518 37.0456 103.284 37.2691 101.903 37.2691H99.1624V44.2676H95.7798ZM99.1624 34.5573H101.641C103.06 34.5573 104.11 34.2657 104.79 33.6825C105.49 33.0993 105.84 32.2342 105.84 31.0872C105.84 29.8819 105.471 29.0557 104.732 28.6086C104.013 28.142 102.943 27.9088 101.524 27.9088H99.1624V34.5573ZM112.752 44.2676V25.1969H117.855C119.799 25.1969 121.461 25.5468 122.841 26.2466C124.222 26.9465 125.281 27.9962 126.02 29.3959C126.758 30.7956 127.128 32.5452 127.128 34.6447C127.128 36.7443 126.758 38.5133 126.02 39.9519C125.3 41.371 124.26 42.4499 122.9 43.1887C121.539 43.9079 119.916 44.2676 118.03 44.2676H112.752ZM116.134 41.5265H117.622C118.905 41.5265 119.993 41.2835 120.888 40.7975C121.801 40.2921 122.491 39.5339 122.958 38.523C123.424 37.5122 123.658 36.2194 123.658 34.6447C123.658 33.0895 123.424 31.8162 122.958 30.8248C122.491 29.8333 121.801 29.1043 120.888 28.6378C119.993 28.1712 118.905 27.9379 117.622 27.9379H116.134V41.5265Z" fill="#114559"/>
</svg>
