<svg width="129" height="40" viewBox="0 0 129 40" fill="none" xmlns="http://www.w3.org/2000/svg">
<rect width="129" height="40" rx="4" fill="#0A66C2"/>
<g clip-path="url(#clip0_8195_19727)">
<path d="M36.4491 28.4495H32.8931V22.8804C32.8931 21.5525 32.8694 19.8429 31.0436 19.8429C29.1915 19.8429 28.9081 21.2899 28.9081 22.7838V28.4491H25.3521V16.997H28.7658V18.562H28.8137C29.1553 17.9779 29.649 17.4973 30.2421 17.1715C30.8353 16.8458 31.5057 16.687 32.1819 16.7121C35.7861 16.7121 36.4506 19.0828 36.4506 22.167L36.4491 28.4495ZM21.3396 15.4316C20.1999 15.4318 19.2758 14.508 19.2756 13.3683C19.2754 12.2286 20.1992 11.3045 21.3389 11.3043C22.4786 11.304 23.4027 12.2278 23.4029 13.3675C23.403 13.9148 23.1857 14.4398 22.7987 14.8269C22.4118 15.214 21.8869 15.4315 21.3396 15.4316ZM23.1177 28.4496H19.5579V16.997H23.1176L23.1177 28.4496ZM38.2219 8.00175H17.771C16.8045 7.99087 16.0118 8.76515 16 9.73172V30.2679C16.0114 31.235 16.804 32.01 17.7709 31.9999H38.2219C39.1909 32.0119 39.9866 31.2368 40 30.2679V9.73012C39.9862 8.76168 39.1905 7.9875 38.2219 8.00015" fill="white"/>
</g>
<path d="M49.2323 24V14.844H54.7483V16.216H50.8563V18.554H54.1463V19.926H50.8563V22.628H54.8883V24H49.2323ZM58.2915 24.168C57.8902 24.168 57.5355 24.084 57.2275 23.916C56.9195 23.748 56.6768 23.5147 56.4995 23.216C56.3315 22.908 56.2475 22.5533 56.2475 22.152C56.2475 21.3773 56.5695 20.794 57.2135 20.402C57.8668 20.0007 58.8982 19.7253 60.3075 19.576C60.2982 19.3427 60.2515 19.128 60.1675 18.932C60.0928 18.736 59.9622 18.582 59.7755 18.47C59.5982 18.3487 59.3555 18.288 59.0475 18.288C58.7115 18.288 58.3802 18.3487 58.0535 18.47C57.7362 18.5913 57.4235 18.7453 57.1155 18.932L56.5275 17.84C56.7795 17.6813 57.0548 17.5367 57.3535 17.406C57.6522 17.266 57.9695 17.1587 58.3055 17.084C58.6415 17 58.9915 16.958 59.3555 16.958C59.9248 16.958 60.3962 17.0747 60.7695 17.308C61.1522 17.532 61.4368 17.868 61.6235 18.316C61.8195 18.7547 61.9175 19.296 61.9175 19.94V24H60.5875L60.4755 23.244H60.4195C60.1022 23.5053 59.7708 23.7247 59.4255 23.902C59.0802 24.0793 58.7022 24.168 58.2915 24.168ZM58.7955 22.852C59.0755 22.852 59.3322 22.796 59.5655 22.684C59.8082 22.5627 60.0555 22.3853 60.3075 22.152V20.696C59.6822 20.7707 59.1875 20.8687 58.8235 20.99C58.4595 21.1113 58.1982 21.2607 58.0395 21.438C57.8902 21.606 57.8155 21.8067 57.8155 22.04C57.8155 22.3293 57.9088 22.5393 58.0955 22.67C58.2822 22.7913 58.5155 22.852 58.7955 22.852ZM65.7623 24.168C65.2863 24.168 64.8149 24.0793 64.3483 23.902C63.8909 23.7247 63.4943 23.4773 63.1583 23.16L63.8723 22.236C64.1803 22.488 64.4929 22.67 64.8103 22.782C65.1276 22.894 65.4636 22.95 65.8183 22.95C66.1916 22.95 66.4669 22.8707 66.6443 22.712C66.8216 22.5533 66.9103 22.3573 66.9103 22.124C66.9103 21.9373 66.8403 21.7787 66.7003 21.648C66.5696 21.5173 66.3969 21.4053 66.1823 21.312C65.9676 21.2187 65.7296 21.1253 65.4683 21.032C65.1323 20.9107 64.8196 20.766 64.5303 20.598C64.2409 20.4207 64.0029 20.206 63.8163 19.954C63.6389 19.6927 63.5503 19.38 63.5503 19.016C63.5503 18.4093 63.7743 17.9147 64.2223 17.532C64.6703 17.1493 65.2769 16.958 66.0423 16.958C66.5089 16.958 66.9383 17.0373 67.3303 17.196C67.7223 17.3453 68.0583 17.5413 68.3383 17.784L67.6243 18.694C67.3816 18.5167 67.1343 18.386 66.8823 18.302C66.6303 18.218 66.3643 18.176 66.0843 18.176C65.7389 18.176 65.4823 18.2507 65.3143 18.4C65.1463 18.5493 65.0623 18.7267 65.0623 18.932C65.0623 19.1 65.1136 19.2447 65.2163 19.366C65.3283 19.478 65.4869 19.5807 65.6923 19.674C65.8976 19.758 66.1449 19.8467 66.4343 19.94C66.7889 20.0613 67.1203 20.2107 67.4283 20.388C67.7363 20.556 67.9789 20.7753 68.1563 21.046C68.3429 21.3073 68.4363 21.6387 68.4363 22.04C68.4363 22.432 68.3336 22.7913 68.1283 23.118C67.9229 23.4353 67.6196 23.692 67.2183 23.888C66.8263 24.0747 66.3409 24.168 65.7623 24.168ZM70.3356 26.828C70.1489 26.828 69.9809 26.814 69.8316 26.786C69.6916 26.758 69.5609 26.716 69.4396 26.66L69.7476 25.456C69.8409 25.484 69.9249 25.5027 69.9996 25.512C70.0742 25.5213 70.1489 25.526 70.2236 25.526C70.5876 25.526 70.8769 25.414 71.0916 25.19C71.3156 24.966 71.4836 24.686 71.5956 24.35L71.7216 23.916L69.0196 17.126H70.6576L71.8476 20.5C71.9502 20.7987 72.0482 21.116 72.1416 21.452C72.2442 21.7787 72.3469 22.1053 72.4496 22.432H72.5056C72.5896 22.1147 72.6736 21.7927 72.7576 21.466C72.8509 21.13 72.9396 20.808 73.0236 20.5L74.0596 17.126H75.6136L73.1216 24.308C72.9349 24.8213 72.7202 25.2647 72.4776 25.638C72.2349 26.0207 71.9409 26.3147 71.5956 26.52C71.2502 26.7253 70.8302 26.828 70.3356 26.828ZM78.5579 24L81.5399 14.844H83.4439L86.4259 24H84.7179L83.3179 19.128C83.1686 18.6427 83.0239 18.1433 82.8839 17.63C82.7533 17.1167 82.6226 16.608 82.4919 16.104H82.4359C82.3146 16.6173 82.1839 17.1307 82.0439 17.644C81.9133 18.148 81.7733 18.6427 81.6239 19.128L80.2099 24H78.5579ZM80.3219 21.522V20.248H84.6339V21.522H80.3219ZM87.4146 26.716V17.126H88.7446L88.8566 17.854H88.9126C89.2019 17.602 89.5239 17.392 89.8786 17.224C90.2332 17.0467 90.6019 16.958 90.9846 16.958C91.5539 16.958 92.0392 17.1027 92.4406 17.392C92.8419 17.6813 93.1499 18.0873 93.3646 18.61C93.5792 19.1327 93.6866 19.7487 93.6866 20.458C93.6866 21.242 93.5466 21.9093 93.2666 22.46C92.9866 23.0107 92.6226 23.4353 92.1746 23.734C91.7359 24.0233 91.2599 24.168 90.7466 24.168C90.4479 24.168 90.1492 24.1027 89.8506 23.972C89.5519 23.8413 89.2626 23.6547 88.9826 23.412L89.0246 24.56V26.716H87.4146ZM90.4106 22.838C90.7186 22.838 90.9939 22.7493 91.2366 22.572C91.4792 22.3947 91.6706 22.1333 91.8106 21.788C91.9506 21.4333 92.0206 20.9947 92.0206 20.472C92.0206 20.0147 91.9692 19.6227 91.8666 19.296C91.7639 18.9693 91.6006 18.722 91.3766 18.554C91.1619 18.3767 90.8819 18.288 90.5366 18.288C90.2846 18.288 90.0372 18.3533 89.7946 18.484C89.5519 18.6053 89.2952 18.7967 89.0246 19.058V22.264C89.2766 22.4693 89.5192 22.6187 89.7526 22.712C89.9952 22.796 90.2146 22.838 90.4106 22.838ZM95.3169 26.716V17.126H96.6469L96.7589 17.854H96.8149C97.1043 17.602 97.4263 17.392 97.7809 17.224C98.1356 17.0467 98.5043 16.958 98.8869 16.958C99.4563 16.958 99.9416 17.1027 100.343 17.392C100.744 17.6813 101.052 18.0873 101.267 18.61C101.482 19.1327 101.589 19.7487 101.589 20.458C101.589 21.242 101.449 21.9093 101.169 22.46C100.889 23.0107 100.525 23.4353 100.077 23.734C99.6383 24.0233 99.1623 24.168 98.6489 24.168C98.3503 24.168 98.0516 24.1027 97.7529 23.972C97.4543 23.8413 97.1649 23.6547 96.8849 23.412L96.9269 24.56V26.716H95.3169ZM98.3129 22.838C98.6209 22.838 98.8963 22.7493 99.1389 22.572C99.3816 22.3947 99.5729 22.1333 99.7129 21.788C99.8529 21.4333 99.9229 20.9947 99.9229 20.472C99.9229 20.0147 99.8716 19.6227 99.7689 19.296C99.6663 18.9693 99.5029 18.722 99.2789 18.554C99.0643 18.3767 98.7843 18.288 98.4389 18.288C98.1869 18.288 97.9396 18.3533 97.6969 18.484C97.4543 18.6053 97.1976 18.7967 96.9269 19.058V22.264C97.1789 22.4693 97.4216 22.6187 97.6549 22.712C97.8976 22.796 98.1169 22.838 98.3129 22.838ZM104.787 24.14C104.405 24.14 104.097 24.0653 103.863 23.916C103.639 23.7573 103.476 23.5333 103.373 23.244C103.271 22.9547 103.219 22.6093 103.219 22.208V14.116H104.829V22.292C104.829 22.4973 104.867 22.6373 104.941 22.712C105.016 22.7867 105.1 22.824 105.193 22.824C105.231 22.824 105.263 22.824 105.291 22.824C105.329 22.8147 105.375 22.8053 105.431 22.796L105.641 24C105.548 24.0373 105.427 24.07 105.277 24.098C105.137 24.126 104.974 24.14 104.787 24.14ZM107.482 26.828C107.295 26.828 107.127 26.814 106.978 26.786C106.838 26.758 106.707 26.716 106.586 26.66L106.894 25.456C106.987 25.484 107.071 25.5027 107.146 25.512C107.221 25.5213 107.295 25.526 107.37 25.526C107.734 25.526 108.023 25.414 108.238 25.19C108.462 24.966 108.63 24.686 108.742 24.35L108.868 23.916L106.166 17.126H107.804L108.994 20.5C109.097 20.7987 109.195 21.116 109.288 21.452C109.391 21.7787 109.493 22.1053 109.596 22.432H109.652C109.736 22.1147 109.82 21.7927 109.904 21.466C109.997 21.13 110.086 20.808 110.17 20.5L111.206 17.126H112.76L110.268 24.308C110.081 24.8213 109.867 25.2647 109.624 25.638C109.381 26.0207 109.087 26.3147 108.742 26.52C108.397 26.7253 107.977 26.828 107.482 26.828Z" fill="#F4F6F8"/>
<defs>
<clipPath id="clip0_8195_19727">
<rect width="24" height="24" fill="white" transform="translate(16 8)"/>
</clipPath>
</defs>
</svg>
