<?xml version="1.0" encoding="UTF-8"?>
<svg id="Layer_1" data-name="Layer 1" xmlns="http://www.w3.org/2000/svg" viewBox="0 0 50 50">
  <defs>
    <style>
      .cls-1 {
        fill-rule: evenodd;
        isolation: isolate;
        opacity: .3;
        stroke: #fff;
        stroke-linecap: round;
        stroke-linejoin: round;
      }

      .cls-1, .cls-2 {
        fill: #114559;
      }

      .cls-2 {
        stroke-width: 0px;
      }
    </style>
  </defs>
  <path class="cls-1" d="M49,25c0,13.25-10.74,24-24,24S1,38.25,1,25,11.74,1,25,1s24,10.74,24,24Z"/>
  <g>
    <path class="cls-2" d="M23.27,35.55c0-.96.01-1.93.02-2.89,0-3.63.02-7.26.02-10.89,0-.56-.02-1.12-.03-1.68,0-.04,0-.08,0-.12h5.17v2.17s.02,0,.02,0c.02-.03.04-.06.06-.09.34-.51.75-.97,1.23-1.35.64-.51,1.37-.85,2.17-1,1.11-.21,2.22-.16,3.29.21,1.43.48,2.46,1.43,3.11,2.78.29.6.47,1.23.59,1.89.09.49.14.98.15,1.47,0,.04.01.08.02.12v9.39h-5.18s0-.02,0-.03c0-1.05,0-2.1,0-3.15,0-1.77,0-3.54,0-5.31,0-.41-.04-.81-.12-1.21-.08-.38-.2-.74-.39-1.07-.31-.52-.76-.85-1.34-1-.35-.09-.7-.1-1.06-.07-.54.05-1.02.23-1.43.59-.3.26-.54.56-.74.9-.17.29-.29.6-.33.93-.04.27-.05.53-.05.8,0,2.81,0,5.61,0,8.42,0,.07,0,.13,0,.2h-5.18Z"/>
    <path class="cls-2" d="M15.22,35.55s0-.07,0-.11c0-5.11,0-10.23,0-15.34v-.13h5.17s0,.04.01.06c0,.03,0,.07,0,.1,0,5.09,0,10.17,0,15.26,0,.05,0,.11,0,.16h-5.18Z"/>
    <path class="cls-2" d="M18.12,12.45c.09.01.18.03.28.04.63.09,1.18.34,1.63.8.39.4.61.88.69,1.43.06.42.05.85-.07,1.26-.23.74-.72,1.26-1.42,1.59-.34.16-.71.24-1.09.27-.4.03-.8,0-1.19-.08-1.02-.24-1.77-1.05-1.96-1.97-.12-.58-.1-1.16.14-1.71.31-.71.86-1.18,1.58-1.44.25-.09.52-.14.79-.16.03,0,.06-.01.1-.02.17,0,.35,0,.52,0Z"/>
  </g>
</svg>