<svg width="1920" height="644" viewBox="0 0 1920 644" fill="none" xmlns="http://www.w3.org/2000/svg">
<g clip-path="url(#clip0_3154_6941)">
<g opacity="0.7">
<g opacity="0.1" clip-path="url(#clip1_3154_6941)">
<rect width="1920" height="641" transform="translate(0 0.126953)" fill="url(#paint0_linear_3154_6941)"/>
<path d="M960.395 10.8197L960.737 -190.444" stroke="#5A5B5D" stroke-width="0.908912" stroke-linecap="round" stroke-linejoin="round"/>
<path d="M960.242 118.775L960.379 20.0635" stroke="#5A5B5D" stroke-width="0.908912" stroke-linecap="round" stroke-linejoin="round"/>
<path d="M960.102 228.461L960.222 128.018" stroke="#5A5B5D" stroke-width="0.908912" stroke-linecap="round" stroke-linejoin="round"/>
<path d="M959.945 335.472L960.083 237.704" stroke="#5A5B5D" stroke-width="0.908912" stroke-linecap="round" stroke-linejoin="round"/>
<path d="M959.812 442.518L959.933 344.698" stroke="#5A5B5D" stroke-width="0.908912" stroke-linecap="round" stroke-linejoin="round"/>
<path d="M959.621 641.673L959.793 451.762" stroke="#5A5B5D" stroke-width="0.908912" stroke-linecap="round" stroke-linejoin="round"/>
<path d="M960.087 641.793L720.82 61.9414" stroke="#5A5B5D" stroke-width="0.908912" stroke-miterlimit="10"/>
<path d="M959.627 641.673L365.336 45.8037" stroke="#5A5B5D" stroke-width="0.908912" stroke-miterlimit="10"/>
<path d="M960.083 641.793L380.883 400.966" stroke="#5A5B5D" stroke-width="0.908912" stroke-miterlimit="10"/>
<path d="M958.254 641.673L9.98438 640.559" stroke="#5A5B5D" stroke-width="0.908912" stroke-miterlimit="10"/>
<path d="M960.086 641.793L1539.78 402.595" stroke="#5A5B5D" stroke-width="0.908912" stroke-miterlimit="10"/>
<path d="M959.625 641.673L1556.76 46.1299" stroke="#5A5B5D" stroke-width="0.908912" stroke-miterlimit="10"/>
<path d="M960.086 641.793L1201.2 61.9414" stroke="#5A5B5D" stroke-width="0.908912" stroke-miterlimit="10"/>
<path d="M959.933 1376.31C1365.3 1376.31 1693.91 1047.7 1693.91 642.343C1693.91 236.981 1365.3 -91.6299 959.933 -91.6299C554.572 -91.6299 225.961 236.981 225.961 642.343C225.961 1047.7 554.572 1376.31 959.933 1376.31Z" stroke="#AC95C7" stroke-width="2.72674" stroke-miterlimit="10"/>
<path d="M159.507 380.3L56.543 346.842" stroke="#5A5B5D" stroke-width="0.908912" stroke-miterlimit="10"/>
<path d="M279.669 145.733L191.625 81.7656" stroke="#5A5B5D" stroke-width="0.908912" stroke-miterlimit="10"/>
<path d="M1641.02 146.711L1728.55 83.1211" stroke="#5A5B5D" stroke-width="0.908912" stroke-miterlimit="10"/>
<path d="M1760.7 380.97L1863.65 347.512" stroke="#5A5B5D" stroke-width="0.908912" stroke-miterlimit="10"/>
<path d="M960.003 1591.52C1484.68 1591.52 1910.02 1166.18 1910.02 641.502C1910.02 116.821 1484.68 -308.518 960.003 -308.518C435.322 -308.518 9.98437 116.821 9.98437 641.502C9.98437 1166.18 435.322 1591.52 960.003 1591.52Z" stroke="#7E57A4" stroke-width="2.70959" stroke-miterlimit="10"/>
<path d="M954.137 340.926C790.704 344.047 659.203 477.503 659.203 641.673C659.203 805.843 793.876 942.489 960.019 942.489C1126.16 942.489 1260.83 807.815 1260.83 641.673C1260.83 475.531 1129.92 344.664 967.033 340.943" stroke="#603B7E" stroke-width="2.72674" stroke-linecap="round" stroke-linejoin="round"/>
<path d="M118.145 641.707C118.145 176.756 495.052 -200.151 960.003 -200.151C1424.95 -200.151 1801.86 176.756 1801.86 641.707C1801.86 642.033 1801.86 642.359 1801.86 642.668" stroke="#7E57A4" stroke-width="2.70959" stroke-miterlimit="10"/>
<path d="M1153.93 641.673C1153.93 536.908 1070.86 451.556 967 447.869" stroke="black" stroke-width="3.42986" stroke-miterlimit="10"/>
<path d="M954.137 447.835C849.75 450.939 766.078 536.531 766.078 641.673" stroke="black" stroke-width="3.42986" stroke-miterlimit="10"/>
<path d="M1368.58 641.674C1368.58 418.356 1189.43 236.882 967 233.144" stroke="#74489D" stroke-width="2.72674" stroke-miterlimit="10"/>
<path d="M954.139 233.125C731.181 236.263 551.422 417.977 551.422 641.672" stroke="#74489D" stroke-width="2.72674" stroke-miterlimit="10"/>
<path d="M954.136 123.422C670.606 126.56 441.715 357.39 441.715 641.673C441.715 925.957 673.762 1159.96 960.001 1159.96C1246.24 1159.96 1478.29 927.912 1478.29 641.673C1478.29 355.435 1250.01 127.195 967.015 123.439" stroke="#7E57A4" stroke-width="2.72674" stroke-linecap="round" stroke-linejoin="round"/>
<path d="M1586.72 641.674C1586.72 297.882 1309.9 18.743 967 14.9873" stroke="#9375B4" stroke-width="2.72674" stroke-linejoin="round"/>
<path d="M954.137 14.9688C610.705 18.1242 333.281 297.503 333.281 641.672" stroke="#9375B4" stroke-width="2.72674" stroke-linejoin="round"/>
<mask id="mask0_3154_6941" style="mask-type:luminance" maskUnits="userSpaceOnUse" x="951" y="4" width="20" height="21">
<path d="M960.739 24.127C966.109 24.127 970.463 19.7736 970.463 14.4033C970.463 9.03311 966.109 4.67969 960.739 4.67969C955.369 4.67969 951.016 9.03311 951.016 14.4033C951.016 19.7736 955.369 24.127 960.739 24.127Z" fill="white"/>
</mask>
<g mask="url(#mask0_3154_6941)">
<path d="M961.374 24.7954C967.095 24.7954 971.732 20.1579 971.732 14.4373C971.732 8.7166 967.095 4.0791 961.374 4.0791C955.653 4.0791 951.016 8.7166 951.016 14.4373C951.016 20.1579 955.653 24.7954 961.374 24.7954Z" fill="#374F5A" stroke="#374F5A" stroke-width="1.38909" stroke-miterlimit="10"/>
</g>
<path d="M960.739 24.127C966.109 24.127 970.463 19.7736 970.463 14.4033C970.463 9.03311 966.109 4.67969 960.739 4.67969C955.369 4.67969 951.016 9.03311 951.016 14.4033C951.016 19.7736 955.369 24.127 960.739 24.127Z" stroke="#374F5A" stroke-width="0.291538" stroke-miterlimit="10"/>
<path d="M960.739 24.127C966.109 24.127 970.463 19.7736 970.463 14.4033C970.463 9.03311 966.109 4.67969 960.739 4.67969C955.369 4.67969 951.016 9.03311 951.016 14.4033C951.016 19.7736 955.369 24.127 960.739 24.127Z" stroke="#374F5A" stroke-width="0.291538" stroke-miterlimit="10"/>
<path d="M9.98146 648.482C15.3517 648.482 19.7051 644.129 19.7051 638.759C19.7051 633.389 15.3517 629.035 9.98146 629.035C4.61124 629.035 0.257812 633.389 0.257812 638.759C0.257812 644.129 4.61124 648.482 9.98146 648.482Z" fill="#FFF2DB"/>
<mask id="mask1_3154_6941" style="mask-type:luminance" maskUnits="userSpaceOnUse" x="0" y="629" width="20" height="20">
<path d="M9.98146 648.482C15.3517 648.482 19.7051 644.129 19.7051 638.759C19.7051 633.389 15.3517 629.035 9.98146 629.035C4.61124 629.035 0.257812 633.389 0.257812 638.759C0.257812 644.129 4.61124 648.482 9.98146 648.482Z" fill="white"/>
</mask>
<g mask="url(#mask1_3154_6941)">
<path d="M10.616 649.152C16.3366 649.152 20.9742 644.514 20.9742 638.794C20.9742 633.073 16.3366 628.436 10.616 628.436C4.89532 628.436 0.257812 633.073 0.257812 638.794C0.257812 644.514 4.89532 649.152 10.616 649.152Z" fill="#FFF2DB" stroke="black" stroke-width="0.514479" stroke-miterlimit="10"/>
</g>
<path d="M9.98146 648.482C15.3517 648.482 19.7051 644.129 19.7051 638.759C19.7051 633.389 15.3517 629.035 9.98146 629.035C4.61124 629.035 0.257812 633.389 0.257812 638.759C0.257812 644.129 4.61124 648.482 9.98146 648.482Z" stroke="black" stroke-width="0.514479" stroke-miterlimit="10"/>
<path d="M9.98146 648.482C15.3517 648.482 19.7051 644.129 19.7051 638.759C19.7051 633.389 15.3517 629.035 9.98146 629.035C4.61124 629.035 0.257812 633.389 0.257812 638.759C0.257812 644.129 4.61124 648.482 9.98146 648.482Z" fill="#FFF2DB" stroke="black" stroke-width="0.514479" stroke-miterlimit="10"/>
<path d="M959.842 131.894C964.834 131.894 968.88 127.847 968.88 122.856C968.88 117.865 964.834 113.818 959.842 113.818C954.851 113.818 950.805 117.865 950.805 122.856C950.805 127.847 954.851 131.894 959.842 131.894Z" stroke="black" stroke-width="0.291538" stroke-miterlimit="10"/>
<path d="M959.842 131.859C964.834 131.859 968.88 127.812 968.88 122.821C968.88 117.83 964.834 113.783 959.842 113.783C954.851 113.783 950.805 117.83 950.805 122.821C950.805 127.812 954.851 131.859 959.842 131.859Z" fill="#374F5A"/>
<mask id="mask2_3154_6941" style="mask-type:luminance" maskUnits="userSpaceOnUse" x="950" y="113" width="19" height="19">
<path d="M959.85 131.928C964.842 131.928 968.888 127.882 968.888 122.89C968.888 117.899 964.842 113.853 959.85 113.853C954.859 113.853 950.812 117.899 950.812 122.89C950.812 127.882 954.859 131.928 959.85 131.928Z" fill="white"/>
</mask>
<g mask="url(#mask2_3154_6941)">
<path d="M959.9 148.066C968.699 148.066 975.832 142.484 975.832 135.598C975.832 128.713 968.699 123.131 959.9 123.131C951.102 123.131 943.969 128.713 943.969 135.598C943.969 142.484 951.102 148.066 959.9 148.066Z" fill="black"/>
</g>
<path d="M959.842 131.859C964.834 131.859 968.88 127.812 968.88 122.821C968.88 117.83 964.834 113.783 959.842 113.783C954.851 113.783 950.805 117.83 950.805 122.821C950.805 127.812 954.851 131.859 959.842 131.859Z" stroke="#374F5A" stroke-width="0.291538" stroke-miterlimit="10"/>
<path d="M959.849 242.592C965.219 242.592 969.572 238.238 969.572 232.868C969.572 227.498 965.219 223.145 959.849 223.145C954.478 223.145 950.125 227.498 950.125 232.868C950.125 238.238 954.478 242.592 959.849 242.592Z" fill="#374F5A"/>
<mask id="mask3_3154_6941" style="mask-type:luminance" maskUnits="userSpaceOnUse" x="950" y="223" width="20" height="20">
<path d="M959.849 242.678C965.219 242.678 969.572 238.324 969.572 232.954C969.572 227.584 965.219 223.23 959.849 223.23C954.478 223.23 950.125 227.584 950.125 232.954C950.125 238.324 954.478 242.678 959.849 242.678Z" fill="white"/>
</mask>
<g mask="url(#mask3_3154_6941)">
<path d="M960.091 259.416C968.662 259.416 975.611 252.682 975.611 244.376C975.611 236.07 968.662 229.336 960.091 229.336C951.519 229.336 944.57 236.07 944.57 244.376C944.57 252.682 951.519 259.416 960.091 259.416Z" fill="black"/>
</g>
<path d="M959.849 242.678C965.219 242.678 969.572 238.324 969.572 232.954C969.572 227.584 965.219 223.23 959.849 223.23C954.478 223.23 950.125 227.584 950.125 232.954C950.125 238.324 954.478 242.678 959.849 242.678Z" stroke="#374F5A" stroke-width="0.514479" stroke-miterlimit="10"/>
<path d="M959.849 457.523C965.219 457.523 969.572 453.17 969.572 447.8C969.572 442.43 965.219 438.076 959.849 438.076C954.478 438.076 950.125 442.43 950.125 447.8C950.125 453.17 954.478 457.523 959.849 457.523Z" fill="#374F5A"/>
<mask id="mask4_3154_6941" style="mask-type:luminance" maskUnits="userSpaceOnUse" x="950" y="438" width="20" height="20">
<path d="M959.849 457.593C965.219 457.593 969.572 453.239 969.572 447.869C969.572 442.499 965.219 438.146 959.849 438.146C954.478 438.146 950.125 442.499 950.125 447.869C950.125 453.239 954.478 457.593 959.849 457.593Z" fill="white"/>
</mask>
<g mask="url(#mask4_3154_6941)">
<path d="M959.847 464.384C966.126 464.384 971.217 460.307 971.217 455.278C971.217 450.249 966.126 446.172 959.847 446.172C953.567 446.172 948.477 450.249 948.477 455.278C948.477 460.307 953.567 464.384 959.847 464.384Z" fill="black"/>
</g>
<path d="M959.849 457.593C965.219 457.593 969.572 453.239 969.572 447.869C969.572 442.499 965.219 438.146 959.849 438.146C954.478 438.146 950.125 442.499 950.125 447.869C950.125 453.239 954.478 457.593 959.849 457.593Z" stroke="#374F5A" stroke-width="0.514479" stroke-miterlimit="10"/>
<path d="M959.849 349.929C965.219 349.929 969.572 345.575 969.572 340.205C969.572 334.835 965.219 330.481 959.849 330.481C954.478 330.481 950.125 334.835 950.125 340.205C950.125 345.575 954.478 349.929 959.849 349.929Z" fill="black" stroke="#374F5A" stroke-width="0.514479" stroke-miterlimit="10"/>
<path d="M365.333 55.5274C370.703 55.5274 375.057 51.1739 375.057 45.8037C375.057 40.4335 370.703 36.0801 365.333 36.0801C359.963 36.0801 355.609 40.4335 355.609 45.8037C355.609 51.1739 359.963 55.5274 365.333 55.5274Z" fill="#45A2BC"/>
<mask id="mask5_3154_6941" style="mask-type:luminance" maskUnits="userSpaceOnUse" x="355" y="36" width="21" height="20">
<path d="M365.333 55.5274C370.703 55.5274 375.057 51.1739 375.057 45.8037C375.057 40.4335 370.703 36.0801 365.333 36.0801C359.963 36.0801 355.609 40.4335 355.609 45.8037C355.609 51.1739 359.963 55.5274 365.333 55.5274Z" fill="white"/>
</mask>
<g mask="url(#mask5_3154_6941)">
<path d="M365.33 31.6381L353 31.623L352.97 56.5581L365.3 56.5731L365.33 31.6381Z" fill="#0B5C67"/>
</g>
<path d="M365.333 55.5274C370.703 55.5274 375.057 51.1739 375.057 45.8037C375.057 40.4335 370.703 36.0801 365.333 36.0801C359.963 36.0801 355.609 40.4335 355.609 45.8037C355.609 51.1739 359.963 55.5274 365.333 55.5274Z" stroke="#0B5C67" stroke-width="0.514479" stroke-miterlimit="10"/>
<path d="M54.6058 358.522C59.9476 358.522 64.278 354.192 64.278 348.85C64.278 343.508 59.9476 339.178 54.6058 339.178C49.264 339.178 44.9336 343.508 44.9336 348.85C44.9336 354.192 49.264 358.522 54.6058 358.522Z" fill="black"/>
<mask id="mask6_3154_6941" style="mask-type:luminance" maskUnits="userSpaceOnUse" x="44" y="339" width="21" height="20">
<path d="M54.6058 358.522C59.9476 358.522 64.278 354.192 64.278 348.85C64.278 343.508 59.9476 339.178 54.6058 339.178C49.264 339.178 44.9336 343.508 44.9336 348.85C44.9336 354.192 49.264 358.522 54.6058 358.522Z" fill="white"/>
</mask>
<g mask="url(#mask6_3154_6941)">
<path d="M45.3474 361.576C52.3846 361.576 58.0893 355.871 58.0893 348.834C58.0893 341.797 52.3846 336.092 45.3474 336.092C38.3102 336.092 32.6055 341.797 32.6055 348.834C32.6055 355.871 38.3102 361.576 45.3474 361.576Z" fill="#FFF2DB"/>
</g>
<path d="M54.5205 358.572C59.8907 358.572 64.2442 354.219 64.2442 348.849C64.2442 343.478 59.8907 339.125 54.5205 339.125C49.1503 339.125 44.7969 343.478 44.7969 348.849C44.7969 354.219 49.1503 358.572 54.5205 358.572Z" stroke="black" stroke-width="0.514479" stroke-miterlimit="10"/>
<path d="M192.524 91.4381C197.866 91.4381 202.196 87.1078 202.196 81.7659C202.196 76.4241 197.866 72.0938 192.524 72.0938C187.182 72.0938 182.852 76.4241 182.852 81.7659C182.852 87.1078 187.182 91.4381 192.524 91.4381Z" fill="black"/>
<mask id="mask7_3154_6941" style="mask-type:luminance" maskUnits="userSpaceOnUse" x="182" y="72" width="21" height="20">
<path d="M192.52 91.4381C197.862 91.4381 202.192 87.1078 202.192 81.7659C202.192 76.4241 197.862 72.0938 192.52 72.0938C187.178 72.0938 182.848 76.4241 182.848 81.7659C182.848 87.1078 187.178 91.4381 192.52 91.4381Z" fill="white"/>
</mask>
<g mask="url(#mask7_3154_6941)">
<path d="M181.406 95.9835C188.443 95.9835 194.148 89.6107 194.148 81.7495C194.148 73.8884 188.443 67.5156 181.406 67.5156C174.369 67.5156 168.664 73.8884 168.664 81.7495C168.664 89.6107 174.369 95.9835 181.406 95.9835Z" fill="#FFF2DB"/>
</g>
<path d="M192.435 91.4903C197.805 91.4903 202.158 87.1368 202.158 81.7666C202.158 76.3964 197.805 72.043 192.435 72.043C187.064 72.043 182.711 76.3964 182.711 81.7666C182.711 87.1368 187.064 91.4903 192.435 91.4903Z" stroke="black" stroke-width="0.514479" stroke-miterlimit="10"/>
<path d="M1727.52 93.5993C1732.86 93.5993 1737.19 89.2689 1737.19 83.9271C1737.19 78.5853 1732.86 74.2549 1727.52 74.2549C1722.18 74.2549 1717.85 78.5853 1717.85 83.9271C1717.85 89.2689 1722.18 93.5993 1727.52 93.5993Z" fill="black"/>
<mask id="mask8_3154_6941" style="mask-type:luminance" maskUnits="userSpaceOnUse" x="1717" y="74" width="21" height="20">
<path d="M1727.52 93.6003C1732.86 93.6003 1737.19 89.2699 1737.19 83.9281C1737.19 78.5862 1732.86 74.2559 1727.52 74.2559C1722.18 74.2559 1717.85 78.5862 1717.85 83.9281C1717.85 89.2699 1722.18 93.6003 1727.52 93.6003Z" fill="white"/>
</mask>
<g mask="url(#mask8_3154_6941)">
<path d="M1747.24 104.541C1759.55 104.541 1769.53 95.3124 1769.53 83.9279C1769.53 72.5434 1759.55 63.3145 1747.24 63.3145C1734.93 63.3145 1724.95 72.5434 1724.95 83.9279C1724.95 95.3124 1734.93 104.541 1747.24 104.541Z" fill="#FFF2DB"/>
</g>
<path d="M1727.54 93.5821C1732.91 93.5821 1737.26 89.2286 1737.26 83.8584C1737.26 78.4882 1732.91 74.1348 1727.54 74.1348C1722.17 74.1348 1717.81 78.4882 1717.81 83.8584C1717.81 89.2286 1722.17 93.5821 1727.54 93.5821Z" stroke="black" stroke-width="0.514479" stroke-miterlimit="10"/>
<path d="M1864.49 356.962C1869.83 356.962 1874.16 352.631 1874.16 347.289C1874.16 341.948 1869.83 337.617 1864.49 337.617C1859.15 337.617 1854.82 341.948 1854.82 347.289C1854.82 352.631 1859.15 356.962 1864.49 356.962Z" fill="black"/>
<mask id="mask9_3154_6941" style="mask-type:luminance" maskUnits="userSpaceOnUse" x="1854" y="337" width="21" height="20">
<path d="M1864.49 356.96C1869.83 356.96 1874.16 352.629 1874.16 347.287C1874.16 341.946 1869.83 337.615 1864.49 337.615C1859.15 337.615 1854.82 341.946 1854.82 347.287C1854.82 352.629 1859.15 356.96 1864.49 356.96Z" fill="white"/>
</mask>
<g mask="url(#mask9_3154_6941)">
<path d="M1884.21 366.375C1898.06 366.375 1909.29 357.83 1909.29 347.288C1909.29 336.747 1898.06 328.201 1884.21 328.201C1870.37 328.201 1859.14 336.747 1859.14 347.288C1859.14 357.83 1870.37 366.375 1884.21 366.375Z" fill="#FFF2DB"/>
</g>
<path d="M1864.51 356.961C1869.88 356.961 1874.23 352.608 1874.23 347.237C1874.23 341.867 1869.88 337.514 1864.51 337.514C1859.14 337.514 1854.79 341.867 1854.79 347.237C1854.79 352.608 1859.14 356.961 1864.51 356.961Z" stroke="black" stroke-width="0.514479" stroke-miterlimit="10"/>
<path d="M118.142 650.281C123.512 650.281 127.865 645.928 127.865 640.558C127.865 635.187 123.512 630.834 118.142 630.834C112.771 630.834 108.418 635.187 108.418 640.558C108.418 645.928 112.771 650.281 118.142 650.281Z" fill="#45A2BC"/>
<path d="M118.142 650.281C123.512 650.281 127.865 645.928 127.865 640.558C127.865 635.187 123.512 630.834 118.142 630.834C112.771 630.834 108.418 635.187 108.418 640.558C108.418 645.928 112.771 650.281 118.142 650.281Z" fill="#45A2BC" stroke="#0B5C67" stroke-width="0.514479" stroke-miterlimit="10"/>
<path d="M1801.96 650.281C1807.33 650.281 1811.69 645.928 1811.69 640.558C1811.69 635.187 1807.33 630.834 1801.96 630.834C1796.59 630.834 1792.24 635.187 1792.24 640.558C1792.24 645.928 1796.59 650.281 1801.96 650.281Z" fill="#45A2BC"/>
<path d="M1801.96 650.281C1807.33 650.281 1811.69 645.928 1811.69 640.558C1811.69 635.187 1807.33 630.834 1801.96 630.834C1796.59 630.834 1792.24 635.187 1792.24 640.558C1792.24 645.928 1796.59 650.281 1801.96 650.281Z" fill="#45A2BC" stroke="#0B5C67" stroke-width="0.514479" stroke-miterlimit="10"/>
<path d="M1910.02 652.512C1915.39 652.512 1919.74 648.158 1919.74 642.788C1919.74 637.418 1915.39 633.064 1910.02 633.064C1904.65 633.064 1900.3 637.418 1900.3 642.788C1900.3 648.158 1904.65 652.512 1910.02 652.512Z" fill="#FFF2DB" stroke="black" stroke-width="0.514479" stroke-miterlimit="10"/>
<path d="M1910.02 652.512C1915.39 652.512 1919.74 648.158 1919.74 642.788C1919.74 637.418 1915.39 633.064 1910.02 633.064C1904.65 633.064 1900.3 637.418 1900.3 642.788C1900.3 648.158 1904.65 652.512 1910.02 652.512Z" fill="#FFF2DB" stroke="black" stroke-width="0.514479" stroke-miterlimit="10"/>
<path d="M1555.99 56.8994C1561.36 56.8994 1565.71 52.546 1565.71 47.1758C1565.71 41.8056 1561.36 37.4521 1555.99 37.4521C1550.62 37.4521 1546.27 41.8056 1546.27 47.1758C1546.27 52.546 1550.62 56.8994 1555.99 56.8994Z" fill="#45A2BC"/>
<mask id="mask10_3154_6941" style="mask-type:luminance" maskUnits="userSpaceOnUse" x="1546" y="37" width="20" height="20">
<path d="M1555.99 56.8985C1561.36 56.8985 1565.71 52.545 1565.71 47.1748C1565.71 41.8046 1561.36 37.4512 1555.99 37.4512C1550.62 37.4512 1546.27 41.8046 1546.27 47.1748C1546.27 52.545 1550.62 56.8985 1555.99 56.8985Z" fill="white"/>
</mask>
<g mask="url(#mask10_3154_6941)">
<path d="M1555.49 57.8545L1567.8 58.4697L1569.04 33.5657L1556.73 32.9505L1555.49 57.8545Z" fill="#0B5C67"/>
</g>
<mask id="mask11_3154_6941" style="mask-type:luminance" maskUnits="userSpaceOnUse" x="1546" y="37" width="20" height="20">
<path d="M1555.99 56.8985C1561.36 56.8985 1565.71 52.545 1565.71 47.1748C1565.71 41.8046 1561.36 37.4512 1555.99 37.4512C1550.62 37.4512 1546.27 41.8046 1546.27 47.1748C1546.27 52.545 1550.62 56.8985 1555.99 56.8985Z" fill="white"/>
</mask>
<g mask="url(#mask11_3154_6941)">
<path d="M1556.62 57.5679C1562.34 57.5679 1566.98 52.9304 1566.98 47.2097C1566.98 41.4891 1562.34 36.8516 1556.62 36.8516C1550.9 36.8516 1546.27 41.4891 1546.27 47.2097C1546.27 52.9304 1550.9 57.5679 1556.62 57.5679Z" stroke="#0B5C67" stroke-width="0.514479" stroke-miterlimit="10"/>
</g>
<path d="M1555.99 56.8994C1561.36 56.8994 1565.71 52.546 1565.71 47.1758C1565.71 41.8056 1561.36 37.4521 1555.99 37.4521C1550.62 37.4521 1546.27 41.8056 1546.27 47.1758C1546.27 52.546 1550.62 56.8994 1555.99 56.8994Z" stroke="#0B5C67" stroke-width="0.514479" stroke-miterlimit="10"/>
<path d="M1555.99 56.8994C1561.36 56.8994 1565.71 52.546 1565.71 47.1758C1565.71 41.8056 1561.36 37.4521 1555.99 37.4521C1550.62 37.4521 1546.27 41.8056 1546.27 47.1758C1546.27 52.546 1550.62 56.8994 1555.99 56.8994Z" stroke="#0B5C67" stroke-width="0.514479" stroke-miterlimit="10"/>
<path d="M959.621 540.938L959.793 471.638" stroke="#5A5B5D" stroke-width="0.908912" stroke-linecap="round" stroke-linejoin="round"/>
<path d="M959.621 540.938L959.793 471.638" stroke="#5A5B5D" stroke-width="0.908912" stroke-linecap="round" stroke-linejoin="round"/>
<path d="M960.089 725.892C1006.91 725.892 1044.86 687.94 1044.86 641.123C1044.86 594.307 1006.91 556.354 960.089 556.354C913.273 556.354 875.32 594.307 875.32 641.123C875.32 687.94 913.273 725.892 960.089 725.892Z" fill="#FFF7ED" stroke="#38225E" stroke-width="1.71493" stroke-miterlimit="10"/>
</g>
</g>
</g>
<defs>
<linearGradient id="paint0_linear_3154_6941" x1="960" y1="0" x2="960" y2="641" gradientUnits="userSpaceOnUse">
<stop offset="0.296875" stop-color="white" stop-opacity="0"/>
<stop offset="0.893096" stop-color="white"/>
</linearGradient>
<clipPath id="clip0_3154_6941">
<path d="M0 0.126953H1920V643.127H200C89.5431 643.127 0 553.584 0 443.127V0.126953Z" fill="white"/>
</clipPath>
<clipPath id="clip1_3154_6941">
<rect width="1920" height="641" fill="white" transform="translate(0 0.126953)"/>
</clipPath>
</defs>
</svg>
