<svg width="411" height="275" viewBox="0 0 411 275" fill="none" xmlns="http://www.w3.org/2000/svg">
<rect width="410.667" height="273" transform="translate(0.332031)" fill="#F4F6F8"/>
<path d="M42.8639 35.2545C42.8169 35.2545 42.7787 35.2408 42.7493 35.2134C42.7218 35.184 42.7081 35.1477 42.7081 35.1046V33.3442H43.0226V35.1046C43.0226 35.1477 43.0069 35.184 42.9756 35.2134C42.9462 35.2408 42.909 35.2545 42.8639 35.2545ZM42.1968 33.4794C42.1556 33.4794 42.1203 33.4667 42.091 33.4412C42.0616 33.4138 42.0469 33.3785 42.0469 33.3354C42.0469 33.2942 42.0616 33.2609 42.091 33.2355C42.1203 33.21 42.1556 33.1973 42.1968 33.1973H43.534C43.5751 33.1973 43.6094 33.211 43.6368 33.2384C43.6662 33.2639 43.6809 33.2972 43.6809 33.3383C43.6809 33.3814 43.6662 33.4157 43.6368 33.4412C43.6094 33.4667 43.5751 33.4794 43.534 33.4794H42.1968Z" fill="#40444D"/>
<path d="M44.1633 33.1973H45.1802C45.2213 33.1973 45.2556 33.211 45.283 33.2384C45.3124 33.2658 45.3271 33.3001 45.3271 33.3413C45.3271 33.3824 45.3124 33.4157 45.283 33.4412C45.2556 33.4667 45.2213 33.4794 45.1802 33.4794H44.2926L44.322 33.4294V34.0878L44.2955 34.0584H45.0479C45.089 34.0584 45.1233 34.0721 45.1508 34.0995C45.1802 34.1269 45.1948 34.1622 45.1948 34.2053C45.1948 34.2465 45.1802 34.2798 45.1508 34.3052C45.1233 34.3307 45.089 34.3434 45.0479 34.3434H44.3014L44.322 34.317V34.9959L44.3014 34.9724H45.1802C45.2213 34.9724 45.2556 34.9871 45.283 35.0164C45.3124 35.0439 45.3271 35.0762 45.3271 35.1134C45.3271 35.1546 45.3124 35.1889 45.283 35.2163C45.2556 35.2418 45.2213 35.2545 45.1802 35.2545H44.1633C44.1222 35.2545 44.0869 35.2408 44.0575 35.2134C44.0281 35.184 44.0134 35.1477 44.0134 35.1046V33.3471C44.0134 33.304 44.0281 33.2688 44.0575 33.2413C44.0869 33.212 44.1222 33.1973 44.1633 33.1973Z" fill="#40444D"/>
<path d="M45.8687 35.2545C45.8217 35.2545 45.7805 35.2408 45.7453 35.2134C45.71 35.184 45.6924 35.1477 45.6924 35.1046V33.3471C45.6924 33.304 45.7071 33.2688 45.7365 33.2413C45.7658 33.212 45.8011 33.1973 45.8423 33.1973H46.671C46.7768 33.1973 46.8738 33.2237 46.962 33.2766C47.0501 33.3276 47.1207 33.3991 47.1736 33.4912C47.2284 33.5813 47.2559 33.6851 47.2559 33.8027C47.2559 33.881 47.2402 33.9565 47.2088 34.029C47.1775 34.0995 47.1354 34.1622 47.0825 34.2171C47.0296 34.2719 46.9698 34.3131 46.9032 34.3405L46.8709 34.2847C46.9316 34.3062 46.9845 34.3376 47.0296 34.3787C47.0746 34.4179 47.1099 34.4649 47.1354 34.5198C47.1628 34.5727 47.1775 34.6334 47.1795 34.702C47.1853 34.7627 47.1902 34.8137 47.1941 34.8548C47.2 34.894 47.2079 34.9263 47.2177 34.9518C47.2275 34.9773 47.2451 34.9969 47.2706 35.0106C47.3058 35.0302 47.3274 35.0595 47.3352 35.0987C47.345 35.1379 47.3372 35.1732 47.3117 35.2045C47.2941 35.228 47.2715 35.2437 47.2441 35.2516C47.2186 35.2574 47.1922 35.2584 47.1648 35.2545C47.1373 35.2486 47.1138 35.2408 47.0942 35.231C47.0629 35.2114 47.0306 35.184 46.9972 35.1487C46.9659 35.1115 46.9404 35.0605 46.9208 34.9959C46.9012 34.9312 46.8914 34.846 46.8914 34.7402C46.8914 34.6912 46.8836 34.6491 46.8679 34.6138C46.8523 34.5785 46.8307 34.5501 46.8033 34.5286C46.7758 34.5051 46.7435 34.4884 46.7063 34.4786C46.6691 34.4669 46.6279 34.461 46.5829 34.461H45.9598L46.001 34.4022V35.1046C46.001 35.1477 45.9892 35.184 45.9657 35.2134C45.9422 35.2408 45.9099 35.2545 45.8687 35.2545ZM45.9628 34.2053H46.6651C46.7102 34.2033 46.7533 34.1857 46.7945 34.1524C46.8376 34.1171 46.8719 34.0701 46.8973 34.0113C46.9248 33.9526 46.9385 33.8859 46.9385 33.8115C46.9385 33.7175 46.9101 33.6391 46.8532 33.5764C46.7984 33.5117 46.7327 33.4794 46.6563 33.4794H45.9686L46.001 33.403V34.267L45.9628 34.2053Z" fill="#40444D"/>
<path d="M98.3022 35.283C98.1611 35.283 98.0357 35.2634 97.926 35.2242C97.8163 35.185 97.7115 35.1204 97.6115 35.0303C97.59 35.0146 97.5733 34.996 97.5616 34.9744C97.5518 34.9509 97.5469 34.9274 97.5469 34.9039C97.5469 34.8667 97.5606 34.8333 97.588 34.804C97.6154 34.7746 97.6497 34.7599 97.6909 34.7599C97.7222 34.7599 97.7516 34.7707 97.779 34.7922C97.8535 34.8608 97.9309 34.9127 98.0112 34.948C98.0935 34.9832 98.1895 35.0009 98.2992 35.0009C98.3776 35.0009 98.4491 34.9881 98.5138 34.9627C98.5804 34.9372 98.6333 34.9029 98.6725 34.8598C98.7117 34.8167 98.7313 34.7667 98.7313 34.7099C98.7313 34.6394 98.7107 34.5816 98.6695 34.5365C98.6303 34.4895 98.5726 34.4513 98.4961 34.4219C98.4217 34.3906 98.3316 34.3641 98.2258 34.3426C98.1278 34.3249 98.0396 34.3004 97.9613 34.2691C97.8848 34.2377 97.8192 34.1985 97.7644 34.1515C97.7095 34.1025 97.6674 34.0447 97.638 33.9781C97.6086 33.9115 97.5939 33.8341 97.5939 33.746C97.5939 33.6264 97.6252 33.5236 97.6879 33.4374C97.7506 33.3512 97.8359 33.2845 97.9436 33.2375C98.0514 33.1905 98.1729 33.167 98.308 33.167C98.4315 33.167 98.5471 33.1866 98.6548 33.2258C98.7626 33.263 98.8498 33.3139 98.9164 33.3786C98.9634 33.4197 98.9869 33.4638 98.9869 33.5108C98.9869 33.5461 98.9722 33.5794 98.9429 33.6108C98.9154 33.6402 98.8831 33.6548 98.8459 33.6548C98.8184 33.6548 98.7949 33.647 98.7753 33.6313C98.744 33.598 98.7019 33.5686 98.649 33.5432C98.5961 33.5157 98.5392 33.4932 98.4785 33.4756C98.4197 33.4579 98.3629 33.4491 98.308 33.4491C98.2199 33.4491 98.1445 33.4619 98.0818 33.4873C98.0191 33.5108 97.9711 33.5442 97.9377 33.5873C97.9044 33.6284 97.8878 33.6774 97.8878 33.7342C97.8878 33.8008 97.9064 33.8557 97.9436 33.8988C97.9828 33.9419 98.0367 33.9771 98.1053 34.0046C98.1738 34.03 98.2522 34.0536 98.3404 34.0751C98.4481 34.0986 98.5441 34.1251 98.6284 34.1545C98.7146 34.1839 98.7871 34.2221 98.8459 34.2691C98.9046 34.3141 98.9497 34.371 98.9811 34.4395C99.0124 34.5081 99.0281 34.5933 99.0281 34.6952C99.0281 34.8128 98.9948 34.9156 98.9282 35.0038C98.8615 35.092 98.7734 35.1605 98.6637 35.2095C98.5559 35.2585 98.4354 35.283 98.3022 35.283Z" fill="#40444D"/>
<path d="M99.5393 33.1964H100.556C100.597 33.1964 100.632 33.2101 100.659 33.2375C100.688 33.265 100.703 33.2992 100.703 33.3404C100.703 33.3815 100.688 33.4148 100.659 33.4403C100.632 33.4658 100.597 33.4785 100.556 33.4785H99.6686L99.698 33.4286V34.0869L99.6716 34.0575H100.424C100.465 34.0575 100.499 34.0712 100.527 34.0986C100.556 34.1261 100.571 34.1613 100.571 34.2044C100.571 34.2456 100.556 34.2789 100.527 34.3043C100.499 34.3298 100.465 34.3426 100.424 34.3426H99.6775L99.698 34.3161V34.995L99.6775 34.9715H100.556C100.597 34.9715 100.632 34.9862 100.659 35.0156C100.688 35.043 100.703 35.0753 100.703 35.1125C100.703 35.1537 100.688 35.188 100.659 35.2154C100.632 35.2409 100.597 35.2536 100.556 35.2536H99.5393C99.4982 35.2536 99.4629 35.2399 99.4335 35.2125C99.4041 35.1831 99.3894 35.1468 99.3894 35.1037V33.3463C99.3894 33.3032 99.4041 33.2679 99.4335 33.2405C99.4629 33.2111 99.4982 33.1964 99.5393 33.1964Z" fill="#40444D"/>
<path d="M101.245 35.2536C101.198 35.2536 101.157 35.2399 101.121 35.2125C101.086 35.1831 101.068 35.1468 101.068 35.1037V33.3463C101.068 33.3032 101.083 33.2679 101.112 33.2405C101.142 33.2111 101.177 33.1964 101.218 33.1964H102.047C102.153 33.1964 102.25 33.2228 102.338 33.2757C102.426 33.3267 102.497 33.3982 102.55 33.4903C102.604 33.5804 102.632 33.6842 102.632 33.8018C102.632 33.8802 102.616 33.9556 102.585 34.0281C102.554 34.0986 102.511 34.1613 102.459 34.2162C102.406 34.271 102.346 34.3122 102.279 34.3396L102.247 34.2838C102.308 34.3053 102.361 34.3367 102.406 34.3778C102.451 34.417 102.486 34.464 102.511 34.5189C102.539 34.5718 102.554 34.6325 102.555 34.7011C102.561 34.7618 102.566 34.8128 102.57 34.8539C102.576 34.8931 102.584 34.9254 102.594 34.9509C102.603 34.9764 102.621 34.996 102.647 35.0097C102.682 35.0293 102.703 35.0587 102.711 35.0978C102.721 35.137 102.713 35.1723 102.688 35.2036C102.67 35.2272 102.648 35.2428 102.62 35.2507C102.595 35.2565 102.568 35.2575 102.541 35.2536C102.513 35.2477 102.49 35.2399 102.47 35.2301C102.439 35.2105 102.407 35.1831 102.373 35.1478C102.342 35.1106 102.316 35.0596 102.297 34.995C102.277 34.9303 102.267 34.8451 102.267 34.7393C102.267 34.6903 102.26 34.6482 102.244 34.6129C102.228 34.5777 102.207 34.5493 102.179 34.5277C102.152 34.5042 102.12 34.4875 102.082 34.4777C102.045 34.466 102.004 34.4601 101.959 34.4601H101.336L101.377 34.4013V35.1037C101.377 35.1468 101.365 35.1831 101.342 35.2125C101.318 35.2399 101.286 35.2536 101.245 35.2536ZM101.339 34.2044H102.041C102.086 34.2025 102.129 34.1848 102.17 34.1515C102.214 34.1163 102.248 34.0692 102.273 34.0105C102.301 33.9517 102.315 33.8851 102.315 33.8106C102.315 33.7166 102.286 33.6382 102.229 33.5755C102.174 33.5108 102.109 33.4785 102.032 33.4785H101.345L101.377 33.4021V34.2661L101.339 34.2044Z" fill="#40444D"/>
<path d="M152.43 35.3623C152.465 35.3623 152.497 35.3761 152.524 35.4035C152.554 35.4329 152.568 35.4662 152.568 35.5034C152.568 35.5446 152.549 35.5837 152.51 35.621C152.472 35.6582 152.423 35.6915 152.363 35.7209C152.304 35.7503 152.241 35.7728 152.175 35.7885C152.11 35.8061 152.05 35.8149 151.995 35.8149C151.876 35.8149 151.779 35.8032 151.704 35.7797C151.63 35.7562 151.567 35.7297 151.516 35.7003C151.465 35.6709 151.415 35.6445 151.366 35.621C151.319 35.5975 151.262 35.5857 151.196 35.5857C151.159 35.5857 151.128 35.5916 151.105 35.6033C151.081 35.6151 151.057 35.6269 151.031 35.6386C151.006 35.6523 150.974 35.6592 150.934 35.6592C150.893 35.6592 150.859 35.6435 150.831 35.6122C150.804 35.5808 150.79 35.5465 150.79 35.5093C150.79 35.4466 150.819 35.4045 150.876 35.3829L151.449 35.1713L151.716 35.2183L151.178 35.4123L151.305 35.333C151.377 35.333 151.441 35.3437 151.496 35.3653C151.552 35.3868 151.606 35.4113 151.657 35.4388C151.71 35.4681 151.764 35.4936 151.819 35.5152C151.874 35.5367 151.937 35.5475 152.01 35.5475C152.071 35.5475 152.122 35.5377 152.163 35.5181C152.204 35.4985 152.238 35.4789 152.266 35.4593C152.299 35.4358 152.327 35.4133 152.351 35.3917C152.376 35.3721 152.403 35.3623 152.43 35.3623ZM152.377 34.225C152.377 34.3739 152.353 34.513 152.304 34.6423C152.255 34.7697 152.185 34.8813 152.095 34.9774C152.007 35.0734 151.902 35.1488 151.781 35.2036C151.659 35.2565 151.526 35.283 151.381 35.283C151.238 35.283 151.106 35.2565 150.984 35.2036C150.863 35.1488 150.757 35.0734 150.667 34.9774C150.579 34.8813 150.51 34.7697 150.461 34.6423C150.414 34.513 150.391 34.3739 150.391 34.225C150.391 34.0761 150.414 33.938 150.461 33.8106C150.51 33.6813 150.579 33.5686 150.667 33.4726C150.757 33.3766 150.863 33.3022 150.984 33.2493C151.106 33.1944 151.238 33.167 151.381 33.167C151.526 33.167 151.659 33.1944 151.781 33.2493C151.902 33.3022 152.007 33.3766 152.095 33.4726C152.185 33.5686 152.255 33.6813 152.304 33.8106C152.353 33.938 152.377 34.0761 152.377 34.225ZM152.06 34.225C152.06 34.08 152.031 33.9497 151.972 33.8341C151.915 33.7185 151.836 33.6274 151.734 33.5608C151.632 33.4942 151.514 33.4609 151.381 33.4609C151.25 33.4609 151.133 33.4942 151.031 33.5608C150.929 33.6274 150.85 33.7185 150.793 33.8341C150.736 33.9478 150.708 34.0781 150.708 34.225C150.708 34.37 150.736 34.5003 150.793 34.6159C150.85 34.7315 150.929 34.8226 151.031 34.8892C151.133 34.9558 151.25 34.9891 151.381 34.9891C151.514 34.9891 151.632 34.9558 151.734 34.8892C151.836 34.8226 151.915 34.7315 151.972 34.6159C152.031 34.5003 152.06 34.37 152.06 34.225Z" fill="#40444D"/>
<path d="M154.202 33.1934C154.245 33.1934 154.279 33.2081 154.304 33.2375C154.33 33.265 154.343 33.3002 154.343 33.3433V34.4572C154.343 34.6139 154.308 34.754 154.24 34.8774C154.171 35.0009 154.077 35.0978 153.958 35.1684C153.838 35.237 153.7 35.2712 153.543 35.2712C153.388 35.2712 153.25 35.237 153.129 35.1684C153.009 35.0978 152.914 35.0009 152.844 34.8774C152.775 34.754 152.741 34.6139 152.741 34.4572V33.3433C152.741 33.3002 152.756 33.265 152.785 33.2375C152.814 33.2081 152.853 33.1934 152.9 33.1934C152.937 33.1934 152.97 33.2081 153 33.2375C153.031 33.265 153.047 33.3002 153.047 33.3433V34.4572C153.047 34.561 153.069 34.6521 153.114 34.7305C153.161 34.8069 153.223 34.8676 153.299 34.9127C153.376 34.9558 153.457 34.9774 153.543 34.9774C153.637 34.9774 153.723 34.9558 153.802 34.9127C153.88 34.8676 153.943 34.8069 153.99 34.7305C154.039 34.6521 154.063 34.561 154.063 34.4572V33.3433C154.063 33.3002 154.075 33.265 154.099 33.2375C154.124 33.2081 154.158 33.1934 154.202 33.1934Z" fill="#40444D"/>
<path d="M154.972 33.1964H155.988C156.03 33.1964 156.064 33.2101 156.091 33.2375C156.121 33.265 156.135 33.2992 156.135 33.3404C156.135 33.3815 156.121 33.4148 156.091 33.4403C156.064 33.4658 156.03 33.4785 155.988 33.4785H155.101L155.13 33.4286V34.0869L155.104 34.0575H155.856C155.897 34.0575 155.932 34.0712 155.959 34.0986C155.988 34.1261 156.003 34.1613 156.003 34.2044C156.003 34.2456 155.988 34.2789 155.959 34.3043C155.932 34.3298 155.897 34.3426 155.856 34.3426H155.11L155.13 34.3161V34.995L155.11 34.9715H155.988C156.03 34.9715 156.064 34.9862 156.091 35.0156C156.121 35.043 156.135 35.0753 156.135 35.1125C156.135 35.1537 156.121 35.188 156.091 35.2154C156.064 35.2409 156.03 35.2536 155.988 35.2536H154.972C154.93 35.2536 154.895 35.2399 154.866 35.2125C154.836 35.1831 154.822 35.1468 154.822 35.1037V33.3463C154.822 33.3032 154.836 33.2679 154.866 33.2405C154.895 33.2111 154.93 33.1964 154.972 33.1964Z" fill="#40444D"/>
<path d="M156.677 35.2536C156.63 35.2536 156.589 35.2399 156.554 35.2125C156.518 35.1831 156.501 35.1468 156.501 35.1037V33.3463C156.501 33.3032 156.515 33.2679 156.545 33.2405C156.574 33.2111 156.609 33.1964 156.651 33.1964H157.479C157.585 33.1964 157.682 33.2228 157.77 33.2757C157.858 33.3267 157.929 33.3982 157.982 33.4903C158.037 33.5804 158.064 33.6842 158.064 33.8018C158.064 33.8802 158.048 33.9556 158.017 34.0281C157.986 34.0986 157.944 34.1613 157.891 34.2162C157.838 34.271 157.778 34.3122 157.711 34.3396L157.679 34.2838C157.74 34.3053 157.793 34.3367 157.838 34.3778C157.883 34.417 157.918 34.464 157.944 34.5189C157.971 34.5718 157.986 34.6325 157.988 34.7011C157.994 34.7618 157.998 34.8128 158.002 34.8539C158.008 34.8931 158.016 34.9254 158.026 34.9509C158.036 34.9764 158.053 34.996 158.079 35.0097C158.114 35.0293 158.136 35.0587 158.143 35.0978C158.153 35.137 158.145 35.1723 158.12 35.2036C158.102 35.2272 158.08 35.2428 158.052 35.2507C158.027 35.2565 158 35.2575 157.973 35.2536C157.946 35.2477 157.922 35.2399 157.902 35.2301C157.871 35.2105 157.839 35.1831 157.806 35.1478C157.774 35.1106 157.749 35.0596 157.729 34.995C157.71 34.9303 157.7 34.8451 157.7 34.7393C157.7 34.6903 157.692 34.6482 157.676 34.6129C157.661 34.5777 157.639 34.5493 157.612 34.5277C157.584 34.5042 157.552 34.4875 157.515 34.4777C157.477 34.466 157.436 34.4601 157.391 34.4601H156.768L156.809 34.4013V35.1037C156.809 35.1468 156.797 35.1831 156.774 35.2125C156.75 35.2399 156.718 35.2536 156.677 35.2536ZM156.771 34.2044H157.473C157.518 34.2025 157.562 34.1848 157.603 34.1515C157.646 34.1163 157.68 34.0692 157.706 34.0105C157.733 33.9517 157.747 33.8851 157.747 33.8106C157.747 33.7166 157.718 33.6382 157.662 33.5755C157.607 33.5108 157.541 33.4785 157.465 33.4785H156.777L156.809 33.4021V34.2661L156.771 34.2044Z" fill="#40444D"/>
<path d="M158.651 33.1964H159.668C159.709 33.1964 159.743 33.2101 159.771 33.2375C159.8 33.265 159.815 33.2992 159.815 33.3404C159.815 33.3815 159.8 33.4148 159.771 33.4403C159.743 33.4658 159.709 33.4785 159.668 33.4785H158.78L158.81 33.4286V34.0869L158.783 34.0575H159.536C159.577 34.0575 159.611 34.0712 159.638 34.0986C159.668 34.1261 159.682 34.1613 159.682 34.2044C159.682 34.2456 159.668 34.2789 159.638 34.3043C159.611 34.3298 159.577 34.3426 159.536 34.3426H158.789L158.81 34.3161V34.995L158.789 34.9715H159.668C159.709 34.9715 159.743 34.9862 159.771 35.0156C159.8 35.043 159.815 35.0753 159.815 35.1125C159.815 35.1537 159.8 35.188 159.771 35.2154C159.743 35.2409 159.709 35.2536 159.668 35.2536H158.651C158.61 35.2536 158.575 35.2399 158.545 35.2125C158.516 35.1831 158.501 35.1468 158.501 35.1037V33.3463C158.501 33.3032 158.516 33.2679 158.545 33.2405C158.575 33.2111 158.61 33.1964 158.651 33.1964Z" fill="#40444D"/>
<path d="M160.356 35.2536C160.309 35.2536 160.268 35.2399 160.233 35.2125C160.198 35.1831 160.18 35.1468 160.18 35.1037V33.3463C160.18 33.3032 160.195 33.2679 160.224 33.2405C160.253 33.2111 160.289 33.1964 160.33 33.1964H161.159C161.264 33.1964 161.361 33.2228 161.45 33.2757C161.538 33.3267 161.608 33.3982 161.661 33.4903C161.716 33.5804 161.743 33.6842 161.743 33.8018C161.743 33.8802 161.728 33.9556 161.696 34.0281C161.665 34.0986 161.623 34.1613 161.57 34.2162C161.517 34.271 161.457 34.3122 161.391 34.3396L161.359 34.2838C161.419 34.3053 161.472 34.3367 161.517 34.3778C161.562 34.417 161.598 34.464 161.623 34.5189C161.65 34.5718 161.665 34.6325 161.667 34.7011C161.673 34.7618 161.678 34.8128 161.682 34.8539C161.688 34.8931 161.695 34.9254 161.705 34.9509C161.715 34.9764 161.733 34.996 161.758 35.0097C161.793 35.0293 161.815 35.0587 161.823 35.0978C161.833 35.137 161.825 35.1723 161.799 35.2036C161.782 35.2272 161.759 35.2428 161.732 35.2507C161.706 35.2565 161.68 35.2575 161.652 35.2536C161.625 35.2477 161.601 35.2399 161.582 35.2301C161.551 35.2105 161.518 35.1831 161.485 35.1478C161.454 35.1106 161.428 35.0596 161.408 34.995C161.389 34.9303 161.379 34.8451 161.379 34.7393C161.379 34.6903 161.371 34.6482 161.356 34.6129C161.34 34.5777 161.318 34.5493 161.291 34.5277C161.263 34.5042 161.231 34.4875 161.194 34.4777C161.157 34.466 161.116 34.4601 161.07 34.4601H160.447L160.489 34.4013V35.1037C160.489 35.1468 160.477 35.1831 160.453 35.2125C160.43 35.2399 160.397 35.2536 160.356 35.2536ZM160.45 34.2044H161.153C161.198 34.2025 161.241 34.1848 161.282 34.1515C161.325 34.1163 161.359 34.0692 161.385 34.0105C161.412 33.9517 161.426 33.8851 161.426 33.8106C161.426 33.7166 161.398 33.6382 161.341 33.5755C161.286 33.5108 161.22 33.4785 161.144 33.4785H160.456L160.489 33.4021V34.2661L160.45 34.2044Z" fill="#40444D"/>
<path d="M205.906 28.7097L205.95 -20.1377" stroke="#959DB1" stroke-width="1.02088" stroke-linecap="round" stroke-linejoin="round"/>
<path d="M206.021 28.741L144.484 -120.395" stroke="#959DB1" stroke-width="1.02088" stroke-miterlimit="10"/>
<path d="M205.903 28.7125L53.0586 -124.538" stroke="#959DB1" stroke-width="1.02088" stroke-miterlimit="10"/>
<path d="M206.026 28.7388L57.0625 -33.1992" stroke="#959DB1" stroke-width="1.02088" stroke-miterlimit="10"/>
<path d="M205.548 28.7096L-38.3359 28.4229" stroke="#959DB1" stroke-width="1.02088" stroke-miterlimit="10"/>
<path d="M205.551 28.708L-5.80469 150.401" stroke="#959DB1" stroke-width="1.02088" stroke-miterlimit="10"/>
<path d="M205.551 28.708L83.3594 239.773" stroke="#959DB1" stroke-width="1.02088" stroke-miterlimit="10"/>
<path d="M205.553 28.708L205.262 272.592" stroke="#959DB1" stroke-width="1.02088" stroke-miterlimit="10"/>
<path d="M205.551 28.708L327.244 240.059" stroke="#959DB1" stroke-width="1.02088" stroke-miterlimit="10"/>
<path d="M205.551 28.708L416.616 150.899" stroke="#959DB1" stroke-width="1.02088" stroke-miterlimit="10"/>
<path d="M206.004 28.708L450.338 28.9947" stroke="#959DB1" stroke-width="1.02088" stroke-miterlimit="10"/>
<path d="M206.02 28.7368L355.111 -32.7822" stroke="#959DB1" stroke-width="1.02088" stroke-miterlimit="10"/>
<path d="M205.906 28.7049L359.483 -124.462" stroke="#959DB1" stroke-width="1.02088" stroke-miterlimit="10"/>
<path d="M206.027 28.741L268.04 -120.395" stroke="#959DB1" stroke-width="1.02088" stroke-miterlimit="10"/>
<path d="M205.984 217.651C310.238 217.651 394.753 133.136 394.753 28.8815C394.753 -75.3729 310.238 -159.888 205.984 -159.888C101.73 -159.888 17.2148 -75.3729 17.2148 28.8815C17.2148 133.136 101.73 217.651 205.984 217.651Z" stroke="#114559" stroke-width="2.5" stroke-miterlimit="10"/>
<path d="M205.998 272.998C340.94 272.998 450.332 163.606 450.332 28.6639C450.332 -106.278 340.94 -215.67 205.998 -215.67C71.056 -215.67 -38.3359 -106.278 -38.3359 28.6639C-38.3359 163.606 71.056 272.998 205.998 272.998Z" stroke="#114559" stroke-width="2.5" stroke-miterlimit="10"/>
<path d="M204.494 -48.6455C162.461 -47.8428 128.641 -13.5195 128.641 28.7031C128.641 70.9258 163.277 106.069 206.007 106.069C248.737 106.069 283.373 71.433 283.373 28.7031C283.373 -14.0267 249.703 -47.684 207.811 -48.6411" stroke="#114559" stroke-width="2.5" stroke-linecap="round" stroke-linejoin="round"/>
<path d="M-10.5156 28.7125C-10.5156 -90.8676 86.4205 -187.804 206.001 -187.804C325.581 -187.804 422.517 -90.8676 422.517 28.7125C422.517 28.7963 422.517 28.8801 422.517 28.9595" stroke="#114559" stroke-width="2.5" stroke-miterlimit="10"/>
<path d="M255.876 28.7065C255.876 1.76213 234.511 -20.1894 207.801 -21.1377" stroke="#114559" stroke-width="2.5" stroke-miterlimit="10"/>
<path d="M204.492 -21.1436C177.644 -20.3452 156.125 1.66805 156.125 28.7094" stroke="#114559" stroke-width="2.5" stroke-miterlimit="10"/>
<path d="M311.084 28.7089C311.084 -28.7259 265.006 -75.3988 207.801 -76.3604" stroke="#114559" stroke-width="2.5" stroke-miterlimit="10"/>
<path d="M204.492 -76.3672C147.15 -75.56 100.918 -28.8254 100.918 28.7065" stroke="#114559" stroke-width="2.5" stroke-miterlimit="10"/>
<path d="M204.496 -104.58C131.575 -103.773 72.707 -44.4063 72.707 28.7082C72.707 101.823 132.387 162.005 206.004 162.005C279.621 162.005 339.301 102.325 339.301 28.7082C339.301 -44.9091 280.592 -103.61 207.808 -104.576" stroke="#114559" stroke-width="2.5" stroke-linecap="round" stroke-linejoin="round"/>
<path d="M367.187 28.7116C367.187 -59.7076 295.991 -131.499 207.801 -132.465" stroke="#114559" stroke-width="2.5" stroke-linejoin="round"/>
<path d="M204.594 -132.511C116.266 -131.699 44.9141 -59.8603 44.9141 28.6389" stroke="#114559" stroke-width="2.5" stroke-linejoin="round"/>
<path d="M202.77 28.6963L250.289 28.7536" stroke="#959DB1" stroke-width="0.954487" stroke-miterlimit="10"/>
<path d="M205.906 2.79635L205.95 -15.0225" stroke="#959DB1" stroke-width="0.954487" stroke-linecap="round" stroke-linejoin="round"/>
<path d="M205.906 2.79635L205.95 -15.0225" stroke="#959DB1" stroke-width="1.02088" stroke-linecap="round" stroke-linejoin="round"/>
<path d="M53.415 -0.961052C53.4223 -1.00155 53.4419 -1.03287 53.4737 -1.05502C53.5059 -1.0791 53.5423 -1.0875 53.5827 -1.08023C53.6232 -1.07296 53.6544 -1.05244 53.6762 -1.01866C53.6983 -0.986817 53.7058 -0.950645 53.6985 -0.910149L53.524 0.0617761C53.5164 0.104201 53.4965 0.137453 53.4643 0.161532C53.4305 0.183335 53.3924 0.190428 53.35 0.18281L51.6202 -0.127806C51.5778 -0.135424 51.5456 -0.156121 51.5238 -0.189895C51.5001 -0.224016 51.4924 -0.264217 51.5007 -0.310499C51.5076 -0.349067 51.5282 -0.380218 51.5623 -0.40395C51.5948 -0.429957 51.6323 -0.439151 51.6747 -0.431533L53.3177 -0.1365L53.2577 -0.0845845L53.415 -0.961052Z" fill="#40444D"/>
<path d="M53.2321 1.6849C53.2237 1.73118 53.2035 1.76636 53.1713 1.79044C53.1375 1.81224 53.0994 1.81933 53.057 1.81172L51.3272 1.5011C51.2848 1.49348 51.2527 1.47279 51.2309 1.43901C51.2071 1.40489 51.1989 1.36758 51.2062 1.32709L51.3817 0.349375C51.3894 0.30695 51.4091 0.274663 51.4409 0.252512C51.4731 0.228434 51.5095 0.220031 51.55 0.227303C51.5866 0.233882 51.6158 0.254059 51.6376 0.287833C51.6598 0.319679 51.6671 0.356815 51.6594 0.39924L51.5078 1.24389L51.4825 1.21845L52.1275 1.33428L52.0897 1.3454L52.2175 0.633813C52.2251 0.591388 52.2448 0.5591 52.2767 0.53695C52.3089 0.512872 52.3452 0.504469 52.3857 0.511741C52.4224 0.51832 52.4516 0.538497 52.4734 0.572271C52.4955 0.604117 52.5028 0.641252 52.4952 0.683678L52.3664 1.40105L52.3474 1.37375L53.111 1.51088C53.1535 1.5185 53.1865 1.53937 53.2103 1.57349C53.2321 1.60726 53.2393 1.6444 53.2321 1.6849Z" fill="#40444D"/>
<path d="M361.575 7.73547C361.429 7.76574 361.288 7.77003 361.151 7.74836C361.017 7.72629 360.893 7.68088 360.781 7.61215C360.669 7.54534 360.574 7.45804 360.495 7.35025C360.419 7.24207 360.366 7.11699 360.337 6.97504C360.307 6.83499 360.306 6.70013 360.334 6.57044C360.363 6.44035 360.415 6.32142 360.491 6.21366C360.567 6.10782 360.662 6.01798 360.777 5.94414C360.894 5.87181 361.025 5.82051 361.171 5.79025C361.317 5.75998 361.457 5.75493 361.591 5.77508C361.728 5.79676 361.852 5.841 361.964 5.90781C362.076 5.97654 362.171 6.065 362.247 6.17319C362.326 6.28097 362.379 6.40489 362.408 6.54493C362.438 6.68689 362.438 6.82291 362.409 6.953C362.382 7.08269 362.33 7.20046 362.254 7.3063C362.179 7.41406 362.082 7.50506 361.966 7.5793C361.851 7.65315 361.721 7.7052 361.575 7.73547ZM361.51 7.4247C361.652 7.39522 361.774 7.33997 361.875 7.25892C361.977 7.17979 362.05 7.08358 362.094 6.97028C362.139 6.85699 362.148 6.73511 362.121 6.60467C362.094 6.47614 362.038 6.36876 361.952 6.28255C361.866 6.19633 361.76 6.13716 361.636 6.10502C361.513 6.07249 361.38 6.07116 361.236 6.10102C361.094 6.13049 360.972 6.18479 360.87 6.26392C360.769 6.34305 360.696 6.43926 360.651 6.55256C360.606 6.66585 360.598 6.78677 360.624 6.9153C360.651 7.04575 360.708 7.15408 360.794 7.24029C360.88 7.32651 360.985 7.38568 361.11 7.41782C361.235 7.45187 361.368 7.45417 361.51 7.4247Z" fill="#40444D"/>
<path d="M359.822 4.35155C359.813 4.30551 359.818 4.26244 359.838 4.22233C359.859 4.18183 359.891 4.1572 359.933 4.14843L361.654 3.79121C361.696 3.78245 361.734 3.78967 361.767 3.81287C361.801 3.83567 361.823 3.86721 361.831 3.9075L362 4.71897C362.021 4.82256 362.015 4.92289 361.981 5.01997C361.949 5.11665 361.894 5.20025 361.814 5.27076C361.737 5.3428 361.641 5.39076 361.526 5.41465C361.449 5.43058 361.372 5.43057 361.295 5.41461C361.219 5.39826 361.149 5.36975 361.085 5.32911C361.02 5.28846 360.968 5.23832 360.928 5.17867L360.976 5.13567C360.967 5.19952 360.947 5.25768 360.916 5.31017C360.887 5.36226 360.848 5.40634 360.799 5.44243C360.753 5.48004 360.696 5.50678 360.63 5.52263C360.571 5.54073 360.523 5.55589 360.483 5.56808C360.446 5.58181 360.416 5.59605 360.393 5.61082C360.37 5.62559 360.354 5.64684 360.346 5.67456C360.334 5.71307 360.31 5.74015 360.273 5.75579C360.237 5.77335 360.2 5.77284 360.165 5.75427C360.138 5.74179 360.118 5.72291 360.105 5.69765C360.094 5.6739 360.088 5.64821 360.086 5.62055C360.086 5.5925 360.089 5.56789 360.094 5.54671C360.107 5.51204 360.128 5.47481 360.155 5.43503C360.185 5.39677 360.23 5.36147 360.289 5.32915C360.349 5.29682 360.43 5.26991 360.534 5.2484C360.582 5.23844 360.621 5.22221 360.653 5.19969C360.684 5.17718 360.708 5.1503 360.723 5.11906C360.741 5.08743 360.75 5.05239 360.752 5.01395C360.756 4.97511 360.754 4.93363 360.744 4.88951L360.618 4.27947L360.684 4.30781L359.996 4.45058C359.954 4.45934 359.916 4.4552 359.882 4.43815C359.851 4.4207 359.831 4.39184 359.822 4.35155ZM360.869 4.23037L361.012 4.91811C361.023 4.96183 361.049 5.00045 361.09 5.03397C361.133 5.069 361.186 5.09302 361.249 5.10601C361.312 5.12092 361.38 5.12081 361.453 5.10567C361.545 5.08656 361.616 5.04281 361.666 4.97443C361.718 4.90758 361.736 4.83674 361.72 4.76193L361.581 4.08858L361.662 4.1047L360.816 4.28033L360.869 4.23037Z" fill="#40444D"/>
<path d="M361.594 2.76329C361.63 2.93978 361.615 3.08207 361.547 3.19015C361.48 3.30015 361.364 3.37228 361.199 3.40653C361.112 3.42445 361.029 3.41968 360.95 3.39221C360.872 3.36626 360.805 3.31718 360.748 3.24497C360.691 3.17468 360.65 3.08027 360.623 2.96173L360.731 2.94538C360.744 3.00868 360.75 3.07858 360.747 3.15506C360.746 3.23346 360.73 3.30965 360.702 3.38364C360.673 3.45763 360.627 3.52329 360.563 3.58062C360.5 3.63756 360.416 3.67718 360.308 3.69949C360.191 3.72378 360.089 3.72491 360.003 3.70287C359.918 3.68043 359.847 3.64214 359.79 3.58799C359.732 3.53384 359.686 3.4704 359.651 3.39764C359.618 3.32641 359.594 3.25435 359.579 3.18145L359.426 2.4448C359.418 2.40451 359.424 2.36719 359.445 2.33284C359.468 2.29809 359.5 2.27634 359.543 2.26758L361.263 1.91035C361.306 1.90159 361.343 1.90881 361.376 1.93201C361.411 1.95481 361.432 1.98635 361.441 2.02664L361.594 2.76329ZM361.303 2.78155L361.186 2.21467L361.239 2.23964L360.62 2.36808L360.645 2.32985L360.763 2.89961C360.78 2.96827 360.815 3.02392 360.87 3.06656C360.927 3.11071 361 3.12363 361.088 3.10531C361.178 3.08659 361.241 3.04868 361.275 2.99156C361.311 2.93404 361.32 2.86404 361.303 2.78155ZM360.484 2.97254L360.366 2.39991L360.39 2.41587L359.711 2.55685L359.732 2.52845L359.855 3.12122C359.876 3.22098 359.918 3.29617 359.983 3.34681C360.049 3.39705 360.136 3.41101 360.244 3.38871C360.334 3.36999 360.397 3.33783 360.434 3.29222C360.47 3.24661 360.491 3.19536 360.495 3.13846C360.499 3.08156 360.496 3.02625 360.484 2.97254Z" fill="#40444D"/>
<path d="M360.953 -0.335719C360.958 -0.312699 360.957 -0.287524 360.951 -0.260196C360.944 -0.232868 360.932 -0.210299 360.914 -0.19249L359.952 0.769589L359.932 0.644659L361.194 1.15996C361.245 1.18149 361.275 1.21624 361.285 1.2642C361.293 1.30256 361.286 1.33912 361.263 1.37387C361.242 1.41014 361.211 1.43266 361.169 1.44142L359.445 1.79924C359.403 1.808 359.365 1.80194 359.33 1.78106C359.298 1.75978 359.277 1.72708 359.268 1.68295C359.258 1.63691 359.264 1.59672 359.285 1.56237C359.308 1.52953 359.341 1.50874 359.383 1.49998L360.842 1.19711L360.841 1.29337L359.745 0.860432C359.725 0.850588 359.707 0.836509 359.689 0.818194C359.673 0.799482 359.663 0.778416 359.661 0.754997C359.654 0.734294 359.654 0.711237 359.661 0.685828C359.67 0.661938 359.682 0.641487 359.697 0.624474L360.519 -0.182699L360.649 -0.137532L359.109 0.182061C359.067 0.190822 359.029 0.184761 358.995 0.163877C358.963 0.144514 358.942 0.113731 358.933 0.0715266C358.925 0.0312409 358.931 -0.00511816 358.953 -0.0375507C358.976 -0.0684632 359.009 -0.0883001 359.051 -0.0970615L360.775 -0.454886C360.815 -0.463249 360.853 -0.45603 360.888 -0.433228C360.923 -0.408508 360.945 -0.376005 360.953 -0.335719Z" fill="#40444D"/>
<path d="M42.3773 204.541C42.4057 204.57 42.4196 204.604 42.4187 204.643C42.4193 204.683 42.4047 204.718 42.375 204.746C42.3453 204.775 42.3104 204.788 42.2702 204.786C42.2315 204.785 42.1978 204.77 42.1694 204.74L41.486 204.027C41.4561 203.996 41.4409 203.96 41.4404 203.92C41.4426 203.88 41.4593 203.845 41.4904 203.815L42.759 202.599C42.7901 202.569 42.8257 202.555 42.8659 202.557C42.9074 202.558 42.9445 202.576 42.977 202.61C43.0041 202.638 43.0173 202.673 43.0164 202.714C43.0183 202.756 43.0037 202.792 42.9726 202.822L41.7676 203.977L41.761 203.898L42.3773 204.541Z" fill="#40444D"/>
<path d="M41.7976 201.929L40.1944 202.55C40.1637 202.563 40.1338 202.568 40.1048 202.563C40.0758 202.558 40.0511 202.545 40.0308 202.524C40.001 202.493 39.9871 202.461 39.9891 202.43C39.9926 202.396 40.0071 202.366 40.0326 202.339C40.0425 202.33 40.0558 202.321 40.0726 202.313L41.8918 201.603C41.9253 201.59 41.9573 201.586 41.9876 201.592C42.0193 201.6 42.0453 201.616 42.0656 201.64C42.086 201.661 42.0986 201.687 42.1035 201.717C42.1084 201.748 42.1036 201.778 42.0891 201.809L41.3162 203.572C41.3075 203.591 41.296 203.607 41.2819 203.621C41.2508 203.651 41.2151 203.664 41.175 203.662C41.1376 203.66 41.1067 203.646 41.0823 203.621C41.062 203.6 41.0494 203.574 41.0445 203.543C41.0423 203.512 41.0478 203.483 41.0609 203.454L41.7384 201.88L41.7976 201.929ZM40.577 202.346L40.8722 202.247L41.4478 202.847L41.2787 203.078L40.577 202.346Z" fill="#40444D"/>
<path d="M41.142 200.691C41.1692 200.719 41.181 200.751 41.1774 200.787C41.1767 200.823 41.1621 200.855 41.1339 200.882L39.8568 202.106C39.8257 202.136 39.7893 202.151 39.7478 202.15C39.709 202.149 39.6747 202.133 39.6449 202.102C39.6313 202.088 39.6192 202.069 39.6086 202.047C39.5994 202.026 39.5956 202.007 39.5974 201.989L39.8921 200.033L39.9665 200.055L38.874 201.103C38.8471 201.128 38.8149 201.141 38.7775 201.142C38.7415 201.141 38.7099 201.127 38.6828 201.098C38.6543 201.069 38.6405 201.036 38.6412 201C38.6448 200.964 38.66 200.933 38.6868 200.907L39.966 199.681C39.9986 199.65 40.0349 199.635 40.075 199.637C40.1152 199.64 40.1495 199.656 40.1779 199.685C40.1929 199.701 40.2049 199.721 40.2141 199.744C40.2261 199.768 40.2298 199.79 40.2252 199.811L39.9334 201.723L39.8732 201.72L40.9488 200.689C40.9771 200.662 41.0092 200.649 41.0452 200.649C41.0826 200.649 41.1149 200.663 41.142 200.691Z" fill="#40444D"/>
<path d="M39.08 200.03C38.9725 200.133 38.8552 200.211 38.7279 200.265C38.6021 200.318 38.4733 200.345 38.3417 200.347C38.2114 200.349 38.0844 200.326 37.9607 200.276C37.8384 200.225 37.7271 200.147 37.6268 200.043C37.5278 199.939 37.4554 199.826 37.4095 199.701C37.365 199.576 37.3463 199.447 37.3532 199.316C37.3615 199.186 37.3946 199.059 37.4526 198.935C37.5134 198.812 37.5976 198.699 37.7051 198.595C37.8125 198.492 37.9285 198.414 38.053 198.36C38.1802 198.305 38.309 198.277 38.4393 198.274C38.571 198.273 38.698 198.298 38.8202 198.349C38.9439 198.398 39.0552 198.475 39.1542 198.578C39.2545 198.683 39.3269 198.798 39.3714 198.924C39.4173 199.048 39.4361 199.175 39.4278 199.305C39.4209 199.437 39.3877 199.565 39.3283 199.69C39.2702 199.813 39.1875 199.926 39.08 200.03ZM38.8603 199.8C38.965 199.7 39.0387 199.589 39.0815 199.466C39.1256 199.345 39.1364 199.225 39.114 199.105C39.0916 198.986 39.0343 198.878 38.9421 198.782C38.8512 198.687 38.7465 198.626 38.6279 198.598C38.5093 198.571 38.3886 198.577 38.2658 198.616C38.1445 198.653 38.0308 198.723 37.9247 198.825C37.8201 198.925 37.7457 199.036 37.7016 199.157C37.6574 199.278 37.6466 199.398 37.669 199.518C37.6914 199.637 37.7481 199.744 37.8389 199.839C37.9311 199.935 38.0365 199.997 38.1551 200.025C38.2737 200.052 38.3944 200.046 38.5172 200.007C38.6413 199.97 38.7557 199.901 38.8603 199.8Z" fill="#40444D"/>
<path d="M36.8212 198.941C36.7887 198.97 36.751 198.983 36.7081 198.98C36.668 198.978 36.6337 198.962 36.6052 198.933C36.574 198.9 36.5581 198.864 36.5576 198.823C36.5598 198.783 36.5765 198.748 36.6076 198.718L37.8762 197.502C37.9073 197.472 37.9429 197.459 37.9831 197.461C38.0246 197.462 38.0617 197.479 38.0942 197.513C38.1213 197.541 38.1344 197.576 38.1336 197.618C38.1355 197.659 38.1209 197.695 38.0897 197.725L36.8212 198.941Z" fill="#40444D"/>
<path d="M35.7258 198.058C35.6282 197.957 35.5555 197.853 35.5079 197.746C35.4602 197.64 35.4344 197.52 35.4303 197.385C35.4267 197.359 35.4286 197.334 35.436 197.31C35.4462 197.287 35.4598 197.267 35.4767 197.251C35.5036 197.225 35.5371 197.212 35.5773 197.211C35.6175 197.211 35.6519 197.225 35.6803 197.255C35.702 197.278 35.7146 197.306 35.718 197.341C35.7201 197.442 35.7361 197.534 35.7663 197.617C35.7978 197.7 35.8515 197.782 35.9274 197.861C35.9817 197.918 36.0403 197.96 36.1035 197.989C36.168 198.02 36.2293 198.034 36.2876 198.033C36.3458 198.031 36.3954 198.011 36.4364 197.972C36.4873 197.923 36.5148 197.868 36.5189 197.807C36.5257 197.746 36.5133 197.678 36.4816 197.603C36.4527 197.527 36.4094 197.444 36.3518 197.352C36.2967 197.27 36.2533 197.189 36.2217 197.111C36.1915 197.034 36.1743 196.959 36.1703 196.887C36.1677 196.814 36.1803 196.743 36.208 196.676C36.2358 196.609 36.2815 196.544 36.3451 196.483C36.4314 196.401 36.5273 196.352 36.6329 196.338C36.7385 196.323 36.8456 196.339 36.9541 196.384C37.0627 196.429 37.1637 196.501 37.2573 196.598C37.3427 196.687 37.4085 196.784 37.4548 196.889C37.5025 196.993 37.5261 197.091 37.5255 197.184C37.5284 197.246 37.5128 197.294 37.4789 197.326C37.4534 197.351 37.4192 197.363 37.3763 197.364C37.3361 197.364 37.3031 197.351 37.2773 197.324C37.2583 197.304 37.2477 197.282 37.2455 197.257C37.2478 197.211 37.2399 197.16 37.2217 197.105C37.2048 197.048 37.1818 196.991 37.1525 196.935C37.1245 196.88 37.0916 196.833 37.0536 196.794C36.9926 196.73 36.9312 196.684 36.8694 196.657C36.8091 196.628 36.7518 196.616 36.6976 196.622C36.6449 196.626 36.598 196.648 36.557 196.687C36.5089 196.734 36.4822 196.785 36.4768 196.842C36.4728 196.9 36.4847 196.963 36.5123 197.032C36.5414 197.099 36.5787 197.172 36.6241 197.25C36.6817 197.344 36.7291 197.432 36.7662 197.513C36.8046 197.595 36.8272 197.674 36.834 197.749C36.8421 197.823 36.8323 197.895 36.8045 197.965C36.7767 198.035 36.726 198.105 36.6525 198.176C36.5676 198.257 36.4703 198.304 36.3606 198.317C36.2508 198.33 36.1403 198.314 36.029 198.269C35.9191 198.225 35.818 198.155 35.7258 198.058Z" fill="#40444D"/>
<path d="M34.5344 196.815C34.4368 196.713 34.3641 196.609 34.3165 196.503C34.2688 196.397 34.243 196.276 34.2389 196.142C34.2353 196.115 34.2372 196.091 34.2446 196.067C34.2548 196.044 34.2684 196.024 34.2853 196.008C34.3122 195.982 34.3457 195.969 34.3859 195.968C34.4261 195.968 34.4605 195.982 34.4889 196.012C34.5106 196.035 34.5232 196.063 34.5266 196.098C34.5287 196.199 34.5447 196.291 34.5749 196.373C34.6064 196.457 34.6601 196.539 34.736 196.618C34.7903 196.674 34.8489 196.717 34.9121 196.746C34.9766 196.777 35.0379 196.791 35.0961 196.79C35.1544 196.788 35.204 196.768 35.245 196.728C35.2959 196.68 35.3234 196.625 35.3275 196.564C35.3343 196.503 35.3219 196.435 35.2902 196.359C35.2613 196.284 35.218 196.201 35.1604 196.109C35.1053 196.026 35.0619 195.946 35.0303 195.868C35.0001 195.791 34.9829 195.716 34.9789 195.644C34.9763 195.571 34.9889 195.5 35.0166 195.433C35.0444 195.365 35.0901 195.301 35.1537 195.24C35.24 195.158 35.3359 195.109 35.4415 195.095C35.5471 195.08 35.6542 195.096 35.7627 195.141C35.8713 195.186 35.9723 195.258 36.0659 195.355C36.1513 195.444 36.2171 195.541 36.2634 195.646C36.3111 195.75 36.3347 195.848 36.3341 195.941C36.337 196.003 36.3214 196.051 36.2875 196.083C36.262 196.108 36.2278 196.12 36.1849 196.12C36.1447 196.121 36.1117 196.108 36.0859 196.081C36.0669 196.061 36.0563 196.039 36.0541 196.014C36.0564 195.968 36.0485 195.917 36.0303 195.862C36.0134 195.804 35.9904 195.748 35.9611 195.692C35.9331 195.637 35.9002 195.59 35.8622 195.55C35.8012 195.487 35.7398 195.441 35.678 195.413C35.6176 195.384 35.5604 195.373 35.5062 195.379C35.4535 195.383 35.4066 195.405 35.3656 195.444C35.3175 195.49 35.2908 195.542 35.2854 195.599C35.2814 195.657 35.2933 195.72 35.3209 195.788C35.35 195.856 35.3873 195.928 35.4327 196.007C35.4903 196.101 35.5377 196.189 35.5748 196.27C35.6132 196.352 35.6358 196.431 35.6425 196.506C35.6507 196.58 35.6409 196.652 35.6131 196.722C35.5853 196.792 35.5346 196.862 35.4611 196.932C35.3762 197.014 35.2789 197.061 35.1692 197.074C35.0594 197.087 34.9489 197.071 34.8376 197.025C34.7277 196.981 34.6266 196.911 34.5344 196.815Z" fill="#40444D"/>
<path d="M33.8993 195.895C33.8668 195.924 33.8291 195.937 33.7862 195.935C33.7461 195.932 33.7118 195.916 33.6833 195.887C33.6521 195.854 33.6363 195.818 33.6357 195.778C33.6379 195.737 33.6546 195.702 33.6857 195.673L34.9543 194.456C34.9854 194.426 35.021 194.413 35.0612 194.415C35.1027 194.416 35.1398 194.433 35.1723 194.467C35.1995 194.495 35.2126 194.53 35.2117 194.572C35.2136 194.613 35.199 194.649 35.1679 194.679L33.8993 195.895Z" fill="#40444D"/>
<path d="M32.5369 194.694C32.5044 194.66 32.4878 194.623 32.4873 194.583C32.4895 194.543 32.5062 194.508 32.5373 194.478L33.8059 193.262C33.837 193.232 33.8726 193.218 33.9128 193.221C33.9543 193.221 33.9893 193.237 34.0178 193.266L34.7053 193.983C34.7351 194.015 34.7496 194.049 34.7488 194.088C34.7493 194.128 34.7347 194.163 34.705 194.191C34.6782 194.217 34.6447 194.229 34.6045 194.227C34.5658 194.226 34.5314 194.21 34.5016 194.179L33.9077 193.559L33.9432 193.554L33.4701 194.007L33.4833 193.97L33.9837 194.492C34.0135 194.523 34.028 194.558 34.0272 194.597C34.0278 194.637 34.0132 194.671 33.9835 194.7C33.9566 194.726 33.9231 194.737 33.883 194.735C33.8442 194.734 33.8099 194.718 33.78 194.687L33.2756 194.161L33.3089 194.162L32.7488 194.699C32.7177 194.729 32.6814 194.743 32.6398 194.742C32.5997 194.74 32.5654 194.724 32.5369 194.694Z" fill="#40444D"/>
<path d="M32.9237 193.607C32.8163 193.71 32.6989 193.788 32.5717 193.842C32.4458 193.895 32.3171 193.922 32.1854 193.924C32.0551 193.927 31.9281 193.903 31.8044 193.853C31.6822 193.802 31.5709 193.724 31.4705 193.62C31.3716 193.517 31.2991 193.403 31.2532 193.278C31.2088 193.153 31.19 193.024 31.1969 192.893C31.2052 192.763 31.2384 192.636 31.2964 192.512C31.3572 192.389 31.4413 192.276 31.5488 192.173C31.6563 192.07 31.7723 191.991 31.8967 191.937C32.024 191.883 32.1528 191.854 32.2831 191.851C32.4147 191.85 32.5417 191.875 32.664 191.926C32.7876 191.976 32.899 192.052 32.9979 192.155C33.0983 192.26 33.1707 192.375 33.2152 192.501C33.261 192.625 33.2798 192.752 33.2716 192.882C33.2646 193.014 33.2315 193.142 33.172 193.267C33.114 193.39 33.0312 193.504 32.9237 193.607ZM32.7041 193.378C32.8087 193.277 32.8824 193.166 32.9252 193.043C32.9693 192.922 32.9802 192.802 32.9577 192.682C32.9353 192.563 32.878 192.455 32.7858 192.359C32.695 192.264 32.5902 192.203 32.4716 192.175C32.353 192.148 32.2324 192.154 32.1096 192.193C31.9882 192.23 31.8745 192.3 31.7685 192.402C31.6638 192.502 31.5894 192.613 31.5453 192.734C31.5012 192.855 31.4903 192.975 31.5128 193.095C31.5352 193.214 31.5918 193.322 31.6827 193.416C31.7749 193.513 31.8803 193.574 31.9989 193.602C32.1175 193.629 32.2382 193.623 32.3609 193.584C32.485 193.547 32.5994 193.478 32.7041 193.378Z" fill="#40444D"/>
<path d="M29.641 191.672C29.6084 191.638 29.5899 191.599 29.5853 191.555C29.5821 191.509 29.596 191.471 29.6271 191.441L30.8957 190.225C30.9268 190.195 30.9625 190.181 31.0026 190.183C31.0441 190.184 31.0792 190.2 31.1076 190.229L31.6812 190.828C31.7544 190.904 31.8025 190.992 31.8253 191.092C31.8495 191.191 31.8467 191.292 31.8169 191.394C31.7898 191.496 31.7338 191.587 31.649 191.669C31.5924 191.723 31.5271 191.764 31.4531 191.791C31.3805 191.818 31.3061 191.83 31.2298 191.83C31.1536 191.83 31.0826 191.815 31.0167 191.786L31.0346 191.724C31.0611 191.783 31.0751 191.843 31.0766 191.904C31.0795 191.964 31.0699 192.022 31.048 192.078C31.0288 192.134 30.9951 192.187 30.9469 192.236C30.9072 192.282 30.8738 192.321 30.8468 192.352C30.8226 192.384 30.8047 192.412 30.7931 192.436C30.7815 192.461 30.7795 192.487 30.7872 192.515C30.7975 192.554 30.7912 192.59 30.7683 192.623C30.7468 192.657 30.716 192.676 30.6757 192.679C30.6465 192.683 30.6196 192.677 30.595 192.663C30.5731 192.649 30.5541 192.63 30.5379 192.608C30.5232 192.584 30.5126 192.561 30.5061 192.54C30.4986 192.504 30.496 192.462 30.4984 192.414C30.5036 192.365 30.5227 192.311 30.5558 192.253C30.5889 192.194 30.6437 192.128 30.72 192.054C30.7554 192.021 30.7804 191.986 30.795 191.95C30.8096 191.914 30.8152 191.879 30.8118 191.844C30.8097 191.808 30.7994 191.773 30.7807 191.74C30.7634 191.705 30.7392 191.671 30.708 191.638L30.2768 191.189L30.3477 191.178L29.8407 191.664C29.8096 191.694 29.7753 191.71 29.7378 191.714C29.7017 191.716 29.6695 191.702 29.641 191.672ZM30.4634 191.014L30.9495 191.521C30.9821 191.552 31.0247 191.571 31.0772 191.578C31.1325 191.584 31.1901 191.577 31.2502 191.554C31.3116 191.533 31.3692 191.497 31.4229 191.446C31.4908 191.381 31.5277 191.306 31.5337 191.221C31.5424 191.137 31.5203 191.067 31.4674 191.012L30.9914 190.516L31.069 190.486L30.4453 191.084L30.4634 191.014Z" fill="#40444D"/>
<path d="M30.3548 189.443C30.4267 189.518 30.4726 189.607 30.4926 189.71C30.514 189.811 30.5084 189.915 30.4757 190.019C30.443 190.124 30.3836 190.217 30.2973 190.3C30.211 190.383 30.1142 190.439 30.0069 190.469C29.901 190.497 29.7963 190.5 29.6929 190.477C29.5908 190.452 29.5039 190.403 29.432 190.328L29.0395 189.918L29.0897 189.903L28.6018 190.371C28.5707 190.4 28.535 190.416 28.4948 190.416C28.4574 190.417 28.4237 190.401 28.3939 190.37C28.3654 190.341 28.3516 190.306 28.3524 190.268C28.356 190.229 28.3734 190.195 28.4045 190.165L29.6731 188.948C29.7042 188.919 29.7398 188.905 29.7799 188.907C29.8215 188.908 29.8565 188.923 29.885 188.953L30.3548 189.443ZM29.6357 190.132C29.6709 190.169 29.7148 190.191 29.7673 190.198C29.8212 190.206 29.8768 190.2 29.934 190.18C29.9926 190.162 30.0452 190.131 30.0919 190.086C30.1385 190.041 30.1715 189.991 30.1907 189.934C30.2112 189.879 30.2179 189.825 30.2107 189.772C30.2063 189.72 30.1864 189.675 30.1512 189.638L29.7546 189.225L29.8067 189.215L29.2318 189.766L29.2411 189.721L29.6357 190.132Z" fill="#40444D"/>
<path d="M148.882 261.991C148.922 262.001 148.951 262.023 148.971 262.057C148.992 262.091 148.997 262.128 148.987 262.168C148.976 262.207 148.953 262.237 148.918 262.256C148.884 262.275 148.847 262.28 148.808 262.269L147.853 262.015C147.812 262.004 147.78 261.981 147.759 261.947C147.74 261.912 147.736 261.873 147.747 261.831L148.2 260.133C148.211 260.091 148.234 260.061 148.27 260.042C148.305 260.021 148.346 260.017 148.392 260.029C148.429 260.039 148.459 260.062 148.48 260.098C148.503 260.133 148.509 260.171 148.498 260.213L148.068 261.826L148.021 261.761L148.882 261.991Z" fill="#40444D"/>
<path d="M147.027 260.063L145.98 261.426C145.96 261.453 145.937 261.472 145.91 261.483C145.883 261.494 145.855 261.496 145.826 261.488C145.785 261.477 145.757 261.458 145.742 261.429C145.727 261.399 145.724 261.366 145.732 261.329C145.735 261.316 145.742 261.302 145.752 261.286L146.938 259.735C146.96 259.706 146.986 259.686 147.015 259.676C147.046 259.666 147.076 259.666 147.106 259.676C147.135 259.684 147.159 259.699 147.179 259.723C147.199 259.746 147.211 259.775 147.214 259.808L147.469 261.716C147.471 261.737 147.47 261.757 147.465 261.776C147.454 261.818 147.431 261.848 147.395 261.867C147.362 261.884 147.329 261.889 147.295 261.879C147.266 261.872 147.242 261.856 147.222 261.833C147.204 261.808 147.193 261.78 147.19 261.748L146.951 260.051L147.027 260.063ZM146.201 261.053L146.401 260.814L147.205 261.028L147.181 261.314L146.201 261.053Z" fill="#40444D"/>
<path d="M145.467 261.223C145.454 261.264 145.429 261.295 145.391 261.315C145.356 261.334 145.318 261.339 145.278 261.328C145.235 261.316 145.202 261.294 145.181 261.259C145.162 261.224 145.158 261.185 145.169 261.144L145.622 259.446C145.633 259.404 145.656 259.374 145.691 259.355C145.727 259.334 145.768 259.33 145.814 259.342C145.851 259.352 145.881 259.375 145.902 259.411C145.925 259.445 145.931 259.483 145.92 259.525L145.467 261.223Z" fill="#40444D"/>
<path d="M143.367 260.817C143.322 260.805 143.286 260.782 143.259 260.746C143.232 260.708 143.224 260.669 143.235 260.627L143.688 258.929C143.699 258.887 143.722 258.857 143.758 258.838C143.794 258.817 143.832 258.812 143.871 258.823L144.672 259.036C144.774 259.063 144.861 259.114 144.933 259.188C145.005 259.26 145.055 259.347 145.082 259.45C145.112 259.551 145.112 259.658 145.081 259.772C145.061 259.847 145.027 259.916 144.978 259.978C144.929 260.038 144.872 260.088 144.807 260.127C144.742 260.167 144.674 260.191 144.602 260.201L144.585 260.138C144.639 260.175 144.682 260.219 144.715 260.27C144.748 260.32 144.77 260.374 144.78 260.434C144.793 260.492 144.792 260.554 144.776 260.621C144.766 260.681 144.758 260.732 144.751 260.772C144.747 260.812 144.746 260.845 144.749 260.872C144.752 260.899 144.764 260.923 144.785 260.943C144.814 260.971 144.827 261.005 144.824 261.045C144.824 261.085 144.807 261.117 144.775 261.141C144.751 261.159 144.726 261.168 144.697 261.169C144.671 261.168 144.645 261.162 144.62 261.151C144.595 261.138 144.574 261.125 144.558 261.11C144.532 261.083 144.508 261.048 144.485 261.006C144.464 260.962 144.453 260.906 144.451 260.838C144.448 260.771 144.461 260.686 144.488 260.584C144.501 260.536 144.504 260.494 144.498 260.456C144.492 260.418 144.478 260.385 144.457 260.357C144.437 260.327 144.41 260.302 144.376 260.283C144.343 260.262 144.305 260.246 144.262 260.235L143.66 260.074L143.715 260.028L143.534 260.707C143.523 260.748 143.502 260.78 143.472 260.803C143.442 260.823 143.407 260.828 143.367 260.817ZM143.728 259.828L144.407 260.009C144.451 260.018 144.497 260.012 144.546 259.991C144.596 259.968 144.642 259.931 144.681 259.881C144.723 259.831 144.753 259.77 144.773 259.699C144.797 259.608 144.789 259.525 144.751 259.449C144.714 259.373 144.659 259.325 144.585 259.305L143.921 259.128L143.972 259.062L143.749 259.897L143.728 259.828Z" fill="#40444D"/>
<path d="M142.25 258.391L143.233 258.653C143.273 258.664 143.302 258.686 143.322 258.719C143.343 258.753 143.348 258.79 143.338 258.83C143.327 258.87 143.304 258.898 143.269 258.915C143.236 258.933 143.2 258.936 143.16 258.926L142.303 258.697L142.344 258.656L142.174 259.292L142.156 259.257L142.883 259.451C142.923 259.462 142.953 259.484 142.972 259.517C142.994 259.551 142.999 259.589 142.988 259.631C142.977 259.671 142.954 259.699 142.919 259.716C142.886 259.734 142.85 259.737 142.81 259.726L142.089 259.534L142.115 259.514L141.941 260.17L141.927 260.142L142.776 260.368C142.816 260.379 142.845 260.402 142.864 260.437C142.885 260.471 142.891 260.506 142.882 260.542C142.871 260.582 142.848 260.611 142.812 260.63C142.779 260.648 142.743 260.651 142.703 260.641L141.721 260.379C141.681 260.368 141.65 260.346 141.629 260.312C141.608 260.276 141.603 260.237 141.614 260.196L142.067 258.497C142.078 258.456 142.101 258.425 142.137 258.406C142.173 258.386 142.211 258.381 142.25 258.391Z" fill="#40444D"/>
<path d="M140.467 260.043C140.421 260.031 140.388 260.008 140.367 259.974C140.348 259.938 140.344 259.9 140.355 259.858L140.808 258.157L141.112 258.238L140.659 259.939C140.648 259.981 140.623 260.012 140.585 260.032C140.55 260.051 140.51 260.055 140.467 260.043ZM140.279 258.156C140.239 258.145 140.209 258.124 140.187 258.092C140.165 258.058 140.16 258.02 140.171 257.978C140.182 257.938 140.205 257.91 140.24 257.893C140.275 257.876 140.312 257.873 140.352 257.883L141.644 258.228C141.684 258.238 141.713 258.26 141.733 258.294C141.755 258.326 141.76 258.362 141.75 258.402C141.739 258.443 141.716 258.473 141.681 258.49C141.648 258.507 141.611 258.511 141.571 258.5L140.279 258.156Z" fill="#40444D"/>
<path d="M139.277 257.993L138.23 259.356C138.21 259.384 138.187 259.403 138.16 259.414C138.133 259.425 138.105 259.427 138.076 259.419C138.035 259.408 138.007 259.388 137.992 259.36C137.977 259.33 137.974 259.296 137.982 259.26C137.985 259.247 137.992 259.232 138.002 259.217L139.188 257.665C139.21 257.637 139.236 257.617 139.265 257.607C139.296 257.597 139.326 257.597 139.356 257.607C139.385 257.614 139.409 257.63 139.429 257.653C139.449 257.677 139.461 257.705 139.464 257.739L139.719 259.647C139.721 259.668 139.72 259.688 139.715 259.707C139.704 259.748 139.681 259.779 139.645 259.797C139.612 259.815 139.579 259.819 139.545 259.81C139.516 259.803 139.492 259.787 139.472 259.763C139.454 259.738 139.443 259.71 139.44 259.679L139.201 257.982L139.277 257.993ZM138.451 258.983L138.651 258.745L139.455 258.959L139.431 259.245L138.451 258.983Z" fill="#40444D"/>
<path d="M136.48 256.851C136.502 256.857 136.525 256.869 136.546 256.887C136.568 256.905 136.582 256.926 136.59 256.95L137.019 258.241L136.898 258.203L137.925 257.306C137.967 257.27 138.011 257.259 138.059 257.272C138.097 257.282 138.126 257.305 138.147 257.341C138.17 257.375 138.176 257.413 138.165 257.455L137.712 259.156C137.701 259.198 137.678 259.229 137.644 259.251C137.61 259.27 137.572 259.274 137.528 259.262C137.483 259.25 137.449 259.227 137.428 259.193C137.409 259.158 137.405 259.119 137.416 259.077L137.8 257.638L137.886 257.682L137.007 258.467C136.989 258.48 136.968 258.491 136.944 258.498C136.92 258.504 136.897 258.503 136.875 258.495C136.854 258.491 136.833 258.481 136.813 258.464C136.796 258.445 136.783 258.425 136.774 258.404L136.422 257.307L136.52 257.211L136.116 258.731C136.105 258.772 136.082 258.804 136.048 258.825C136.016 258.845 135.98 258.85 135.938 258.839C135.898 258.828 135.869 258.806 135.849 258.772C135.832 258.737 135.829 258.699 135.84 258.657L136.293 256.956C136.304 256.917 136.327 256.886 136.363 256.865C136.401 256.845 136.44 256.84 136.48 256.851Z" fill="#40444D"/>
<path d="M273.437 258.147C273.475 258.291 273.487 258.432 273.472 258.569C273.457 258.705 273.419 258.831 273.356 258.947C273.295 259.062 273.213 259.162 273.11 259.246C273.006 259.328 272.884 259.387 272.743 259.424C272.605 259.461 272.471 259.469 272.34 259.449C272.208 259.427 272.087 259.381 271.975 259.311C271.865 259.241 271.77 259.15 271.691 259.039C271.612 258.926 271.554 258.798 271.516 258.654C271.478 258.51 271.465 258.37 271.478 258.235C271.493 258.098 271.53 257.971 271.591 257.856C271.654 257.74 271.737 257.641 271.841 257.559C271.945 257.475 272.065 257.415 272.204 257.378C272.344 257.341 272.48 257.334 272.611 257.356C272.742 257.376 272.863 257.421 272.972 257.492C273.084 257.562 273.18 257.653 273.26 257.765C273.34 257.876 273.399 258.003 273.437 258.147ZM273.13 258.228C273.093 258.088 273.031 257.969 272.945 257.873C272.861 257.775 272.761 257.708 272.645 257.669C272.53 257.631 272.408 257.628 272.279 257.662C272.152 257.696 272.048 257.758 271.966 257.848C271.885 257.939 271.831 258.047 271.806 258.173C271.78 258.298 271.785 258.431 271.823 258.573C271.86 258.713 271.921 258.832 272.005 258.929C272.089 259.026 272.189 259.094 272.305 259.133C272.42 259.171 272.542 259.174 272.668 259.14C272.797 259.106 272.902 259.044 272.984 258.954C273.066 258.863 273.119 258.755 273.144 258.629C273.172 258.502 273.167 258.368 273.13 258.228Z" fill="#40444D"/>
<path d="M271 257.847C271.047 257.857 271.079 257.883 271.097 257.925C271.116 257.966 271.116 258.009 271.097 258.052C271.084 258.086 271.06 258.11 271.027 258.122C270.996 258.135 270.962 258.137 270.925 258.128C270.863 258.114 270.799 258.107 270.734 258.106C270.669 258.104 270.602 258.113 270.534 258.131C270.426 258.159 270.333 258.203 270.256 258.262C270.179 258.319 270.119 258.388 270.074 258.471C270.028 258.552 270 258.642 269.989 258.74C269.981 258.837 269.991 258.94 270.019 259.048C270.051 259.167 270.097 259.269 270.157 259.352C270.217 259.433 270.287 259.498 270.366 259.546C270.447 259.591 270.534 259.619 270.628 259.629C270.723 259.636 270.821 259.627 270.922 259.6C270.986 259.583 271.046 259.559 271.103 259.528C271.162 259.496 271.214 259.458 271.261 259.413C271.291 259.387 271.323 259.373 271.356 259.37C271.391 259.365 271.423 259.374 271.451 259.397C271.494 259.428 271.516 259.466 271.518 259.51C271.521 259.551 271.505 259.588 271.471 259.619C271.43 259.658 271.384 259.695 271.332 259.729C271.281 259.763 271.227 259.793 271.171 259.82C271.115 259.847 271.057 259.868 270.996 259.884C270.86 259.92 270.725 259.931 270.592 259.918C270.459 259.905 270.333 259.867 270.216 259.805C270.098 259.742 269.995 259.655 269.906 259.543C269.82 259.43 269.755 259.292 269.712 259.129C269.674 258.983 269.663 258.842 269.68 258.706C269.698 258.567 269.741 258.442 269.808 258.328C269.877 258.213 269.966 258.114 270.077 258.033C270.186 257.949 270.314 257.888 270.46 257.85C270.551 257.826 270.642 257.814 270.733 257.814C270.826 257.814 270.915 257.825 271 257.847Z" fill="#40444D"/>
<path d="M269.582 260.071C269.591 260.113 269.584 260.153 269.561 260.189C269.54 260.223 269.509 260.245 269.469 260.256C269.426 260.267 269.386 260.264 269.351 260.245C269.317 260.223 269.294 260.192 269.283 260.15L268.835 258.451C268.824 258.409 268.829 258.371 268.851 258.337C268.872 258.301 268.905 258.277 268.95 258.265C268.988 258.255 269.025 258.261 269.061 258.282C269.098 258.3 269.122 258.33 269.133 258.372L269.582 260.071Z" fill="#40444D"/>
<path d="M268.278 260.599C268.141 260.635 268.015 260.649 267.899 260.639C267.783 260.629 267.665 260.593 267.546 260.531C267.521 260.522 267.5 260.508 267.483 260.49C267.468 260.47 267.457 260.448 267.451 260.426C267.441 260.39 267.446 260.354 267.465 260.318C267.484 260.283 267.514 260.26 267.553 260.25C267.584 260.242 267.615 260.245 267.647 260.258C267.736 260.306 267.824 260.336 267.911 260.35C268 260.363 268.097 260.355 268.203 260.327C268.279 260.307 268.345 260.277 268.401 260.236C268.459 260.194 268.501 260.148 268.528 260.096C268.555 260.044 268.561 259.991 268.547 259.936C268.529 259.868 268.494 259.817 268.443 259.784C268.393 259.749 268.327 259.726 268.246 259.717C268.166 259.706 268.072 259.703 267.964 259.71C267.865 259.718 267.773 259.716 267.69 259.706C267.608 259.695 267.534 259.674 267.469 259.643C267.404 259.609 267.348 259.564 267.303 259.507C267.257 259.45 267.223 259.379 267.201 259.294C267.17 259.178 267.175 259.071 267.213 258.972C267.252 258.872 267.317 258.786 267.409 258.713C267.502 258.64 267.613 258.586 267.744 258.552C267.863 258.52 267.98 258.51 268.094 258.52C268.208 258.529 268.305 258.556 268.386 258.601C268.442 258.629 268.476 258.666 268.488 258.711C268.497 258.745 268.491 258.781 268.471 258.819C268.452 258.855 268.424 258.877 268.388 258.887C268.362 258.894 268.337 258.892 268.314 258.882C268.275 258.858 268.227 258.84 268.169 258.829C268.111 258.816 268.051 258.808 267.987 258.807C267.926 258.805 267.869 258.811 267.816 258.825C267.731 258.847 267.661 258.879 267.607 258.919C267.552 258.958 267.514 259.003 267.493 259.053C267.471 259.101 267.468 259.153 267.482 259.208C267.499 259.272 267.531 259.32 267.578 259.352C267.627 259.384 267.688 259.405 267.761 259.414C267.834 259.421 267.916 259.423 268.007 259.422C268.117 259.417 268.216 259.418 268.305 259.425C268.396 259.432 268.476 259.45 268.545 259.48C268.613 259.509 268.671 259.552 268.719 259.611C268.767 259.669 268.804 259.747 268.83 259.846C268.86 259.96 268.854 260.068 268.812 260.17C268.77 260.272 268.702 260.361 268.609 260.436C268.517 260.511 268.407 260.566 268.278 260.599Z" fill="#40444D"/>
<path d="M267.163 260.709C267.172 260.751 267.166 260.791 267.143 260.827C267.121 260.861 267.091 260.883 267.051 260.894C267.007 260.905 266.968 260.901 266.932 260.882C266.898 260.861 266.876 260.829 266.865 260.788L266.417 259.088C266.406 259.047 266.411 259.009 266.432 258.975C266.453 258.939 266.486 258.915 266.532 258.903C266.57 258.893 266.607 258.899 266.643 258.919C266.68 258.938 266.704 258.968 266.715 259.01L267.163 260.709ZM266.507 258.785C266.477 258.793 266.45 258.792 266.427 258.782C266.405 258.769 266.391 258.751 266.385 258.726C266.382 258.715 266.382 258.703 266.384 258.69C266.389 258.676 266.395 258.662 266.404 258.648L266.596 258.375C266.609 258.356 266.625 258.338 266.643 258.323C266.661 258.307 266.681 258.295 266.701 258.29C266.732 258.282 266.764 258.286 266.799 258.301C266.832 258.314 266.854 258.34 266.864 258.378C266.871 258.402 266.87 258.429 266.861 258.458C266.852 258.484 266.835 258.509 266.811 258.532L266.565 258.751C266.557 258.762 266.548 258.769 266.537 258.774C266.526 258.779 266.516 258.783 266.507 258.785Z" fill="#40444D"/>
<path d="M265.453 261.316C265.407 261.328 265.367 261.324 265.331 261.305C265.297 261.284 265.275 261.252 265.264 261.21L264.816 259.511C264.805 259.469 264.81 259.432 264.831 259.398C264.852 259.362 264.882 259.338 264.922 259.328L265.883 259.075C265.924 259.064 265.962 259.068 265.996 259.087C266.031 259.106 266.054 259.136 266.064 259.176C266.074 259.212 266.068 259.247 266.047 259.281C266.027 259.314 265.996 259.336 265.955 259.347L265.125 259.566L265.137 259.533L265.304 260.166L265.278 260.137L265.978 259.952C266.019 259.941 266.057 259.946 266.09 259.965C266.126 259.984 266.149 260.014 266.159 260.053C266.169 260.089 266.163 260.124 266.141 260.158C266.122 260.192 266.091 260.214 266.049 260.225L265.345 260.411L265.361 260.382L265.559 261.133C265.57 261.174 265.565 261.213 265.544 261.249C265.523 261.283 265.492 261.305 265.453 261.316Z" fill="#40444D"/>
<path d="M379.176 194.861C379.205 194.832 379.239 194.818 379.278 194.818C379.318 194.816 379.353 194.83 379.382 194.859C379.411 194.888 379.424 194.923 379.423 194.963C379.423 195.002 379.408 195.036 379.379 195.065L378.68 195.763C378.65 195.793 378.614 195.809 378.574 195.81C378.534 195.809 378.499 195.793 378.468 195.762L377.227 194.518C377.197 194.488 377.182 194.452 377.183 194.412C377.183 194.371 377.2 194.333 377.233 194.3C377.261 194.272 377.296 194.259 377.337 194.259C377.379 194.256 377.415 194.27 377.445 194.3L378.624 195.482L378.546 195.49L379.176 194.861Z" fill="#40444D"/>
<path d="M376.574 195.499L377.227 197.09C377.241 197.12 377.246 197.15 377.242 197.179C377.237 197.208 377.225 197.233 377.204 197.254C377.174 197.284 377.142 197.299 377.111 197.297C377.077 197.294 377.047 197.281 377.019 197.256C377.01 197.246 377.001 197.233 376.992 197.216L376.246 195.411C376.232 195.378 376.228 195.346 376.234 195.316C376.241 195.284 376.256 195.258 376.28 195.237C376.3 195.216 376.326 195.203 376.356 195.198C376.387 195.192 376.417 195.196 376.448 195.21L378.226 195.948C378.245 195.956 378.262 195.967 378.276 195.981C378.306 196.012 378.321 196.047 378.319 196.087C378.318 196.124 378.305 196.156 378.28 196.181C378.259 196.201 378.233 196.214 378.203 196.22C378.172 196.223 378.143 196.218 378.113 196.205L376.526 195.559L376.574 195.499ZM377.016 196.711L376.91 196.418L377.499 195.831L377.733 195.995L377.016 196.711Z" fill="#40444D"/>
<path d="M376.531 197.908C376.498 197.942 376.461 197.959 376.421 197.96C376.381 197.959 376.346 197.943 376.315 197.912L375.072 196.666L375.294 196.444L376.538 197.69C376.568 197.721 376.583 197.758 376.581 197.8C376.58 197.841 376.563 197.877 376.531 197.908ZM374.805 197.123C374.776 197.152 374.742 197.168 374.704 197.171C374.663 197.172 374.628 197.158 374.598 197.127C374.569 197.098 374.555 197.064 374.558 197.025C374.561 196.986 374.577 196.952 374.606 196.923L375.553 195.979C375.582 195.95 375.616 195.935 375.655 195.935C375.693 195.933 375.727 195.946 375.756 195.975C375.787 196.005 375.801 196.04 375.798 196.079C375.796 196.116 375.781 196.15 375.752 196.179L374.805 197.123Z" fill="#40444D"/>
<path d="M374.17 197.358C374.198 197.331 374.23 197.318 374.266 197.321C374.302 197.321 374.334 197.335 374.362 197.363L375.611 198.615C375.642 198.646 375.657 198.682 375.657 198.723C375.657 198.762 375.641 198.797 375.611 198.827C375.597 198.841 375.579 198.853 375.557 198.864C375.536 198.874 375.517 198.878 375.499 198.877L373.537 198.621L373.558 198.546L374.627 199.618C374.653 199.644 374.667 199.676 374.669 199.713C374.669 199.749 374.655 199.781 374.627 199.809C374.598 199.838 374.565 199.853 374.529 199.853C374.493 199.85 374.462 199.835 374.436 199.809L373.184 198.554C373.152 198.522 373.137 198.486 373.138 198.446C373.14 198.406 373.155 198.371 373.184 198.342C373.199 198.327 373.219 198.315 373.242 198.305C373.266 198.293 373.288 198.288 373.309 198.293L375.227 198.546L375.225 198.606L374.172 197.552C374.145 197.524 374.131 197.492 374.131 197.456C374.129 197.419 374.143 197.386 374.17 197.358Z" fill="#40444D"/>
<path d="M371.993 199.528L372.713 198.81C372.742 198.781 372.776 198.766 372.815 198.766C372.855 198.765 372.889 198.779 372.918 198.808C372.947 198.837 372.961 198.871 372.958 198.91C372.956 198.947 372.941 198.98 372.912 199.009L372.284 199.636L372.269 199.58L372.734 200.046L372.695 200.044L373.227 199.513C373.256 199.484 373.29 199.469 373.329 199.469C373.369 199.468 373.405 199.482 373.435 199.513C373.464 199.542 373.477 199.576 373.474 199.615C373.473 199.652 373.458 199.685 373.429 199.714L372.9 200.242L372.896 200.208L373.376 200.689L373.344 200.687L373.966 200.066C373.996 200.037 374.03 200.023 374.07 200.025C374.111 200.023 374.144 200.036 374.17 200.062C374.199 200.091 374.213 200.126 374.212 200.166C374.21 200.204 374.195 200.237 374.166 200.266L373.446 200.984C373.417 201.013 373.382 201.028 373.342 201.03C373.3 201.03 373.264 201.014 373.234 200.984L371.993 199.74C371.962 199.709 371.948 199.674 371.949 199.634C371.949 199.592 371.964 199.557 371.993 199.528Z" fill="#40444D"/>
<path d="M370.284 201.231C370.301 201.214 370.322 201.201 370.348 201.192C370.375 201.182 370.4 201.18 370.425 201.185L371.757 201.463L371.663 201.548L371.403 200.21C371.393 200.156 371.406 200.111 371.441 200.077C371.468 200.049 371.503 200.035 371.545 200.035C371.586 200.033 371.622 200.046 371.653 200.077L372.896 201.323C372.926 201.354 372.942 201.389 372.944 201.429C372.944 201.468 372.928 201.503 372.896 201.535C372.863 201.568 372.826 201.586 372.786 201.587C372.745 201.585 372.71 201.57 372.68 201.539L371.627 200.484L371.708 200.432L371.946 201.586C371.949 201.608 371.947 201.632 371.942 201.657C371.935 201.68 371.922 201.7 371.904 201.715C371.89 201.731 371.871 201.744 371.846 201.752C371.821 201.758 371.798 201.759 371.775 201.756L370.649 201.51L370.616 201.377L371.727 202.49C371.757 202.52 371.773 202.556 371.775 202.596C371.776 202.633 371.761 202.667 371.731 202.698C371.702 202.727 371.668 202.741 371.629 202.741C371.59 202.738 371.556 202.722 371.525 202.691L370.282 201.445C370.253 201.416 370.238 201.38 370.238 201.339C370.24 201.296 370.255 201.26 370.284 201.231Z" fill="#40444D"/>
<path d="M206.032 49.2086C218.073 49.2086 227.834 39.4477 227.834 27.407C227.834 15.3664 218.073 5.60547 206.032 5.60547C193.991 5.60547 184.23 15.3664 184.23 27.407C184.23 39.4477 193.991 49.2086 206.032 49.2086Z" fill="#598392" stroke="#114559" stroke-width="1.80092" stroke-miterlimit="10"/>
<path d="M206.795 25.4971L199.772 15.2083L199.171 14.2822H194.527L195.144 15.2083L204.063 28.0372V39.7527L204.066 40.4941V40.6814L207.98 40.6681V40.4834V39.7527V27.443L216.975 15.2083L217.497 14.4669L217.627 14.2822H215.003L206.795 25.4971Z" fill="#F4F6F8"/>
</svg>
