<svg width="522" height="431" viewBox="0 0 522 431" fill="none" xmlns="http://www.w3.org/2000/svg">
<g clip-path="url(#clip0_6469_61300)">
<path d="M113.456 376.055C113.553 376.055 113.64 376.093 113.715 376.168C113.796 376.249 113.837 376.341 113.837 376.443C113.837 376.556 113.783 376.664 113.675 376.767C113.572 376.869 113.438 376.961 113.27 377.042C113.109 377.123 112.936 377.185 112.753 377.228C112.575 377.276 112.41 377.3 112.26 377.3C111.931 377.3 111.664 377.268 111.459 377.203C111.254 377.139 111.081 377.066 110.941 376.985C110.801 376.904 110.664 376.831 110.529 376.767C110.399 376.702 110.243 376.67 110.06 376.67C109.957 376.67 109.874 376.686 109.809 376.718C109.744 376.751 109.677 376.783 109.607 376.815C109.537 376.853 109.448 376.872 109.34 376.872C109.227 376.872 109.132 376.829 109.057 376.742C108.981 376.656 108.944 376.562 108.944 376.459C108.944 376.287 109.022 376.171 109.178 376.112L110.755 375.529L111.491 375.659L110.011 376.192L110.359 375.974C110.558 375.974 110.734 376.004 110.885 376.063C111.041 376.122 111.189 376.19 111.329 376.265C111.475 376.346 111.623 376.416 111.774 376.476C111.925 376.535 112.1 376.565 112.3 376.565C112.467 376.565 112.607 376.538 112.72 376.484C112.834 376.43 112.928 376.376 113.004 376.322C113.095 376.257 113.173 376.195 113.238 376.136C113.308 376.082 113.381 376.055 113.456 376.055ZM113.311 372.925C113.311 373.335 113.243 373.718 113.109 374.074C112.974 374.424 112.782 374.731 112.534 374.996C112.292 375.26 112.003 375.467 111.669 375.618C111.335 375.764 110.968 375.837 110.569 375.837C110.176 375.837 109.812 375.764 109.477 375.618C109.143 375.467 108.852 375.26 108.604 374.996C108.361 374.731 108.173 374.424 108.038 374.074C107.908 373.718 107.844 373.335 107.844 372.925C107.844 372.515 107.908 372.135 108.038 371.785C108.173 371.429 108.361 371.119 108.604 370.855C108.852 370.591 109.143 370.386 109.477 370.24C109.812 370.089 110.176 370.014 110.569 370.014C110.968 370.014 111.335 370.089 111.669 370.24C112.003 370.386 112.292 370.591 112.534 370.855C112.782 371.119 112.974 371.429 113.109 371.785C113.243 372.135 113.311 372.515 113.311 372.925ZM112.437 372.925C112.437 372.526 112.357 372.168 112.195 371.85C112.038 371.531 111.82 371.281 111.54 371.097C111.259 370.914 110.936 370.822 110.569 370.822C110.208 370.822 109.887 370.914 109.607 371.097C109.326 371.281 109.108 371.531 108.952 371.85C108.795 372.162 108.717 372.521 108.717 372.925C108.717 373.324 108.795 373.683 108.952 374.001C109.108 374.319 109.326 374.57 109.607 374.753C109.887 374.936 110.208 375.028 110.569 375.028C110.936 375.028 111.259 374.936 111.54 374.753C111.82 374.57 112.038 374.319 112.195 374.001C112.357 373.683 112.437 373.324 112.437 372.925Z" fill="#40444D"/>
<path d="M118.331 370.086C118.45 370.086 118.544 370.127 118.614 370.208C118.684 370.283 118.719 370.38 118.719 370.499V373.564C118.719 373.995 118.625 374.381 118.436 374.721C118.247 375.06 117.989 375.327 117.66 375.521C117.331 375.71 116.951 375.804 116.519 375.804C116.093 375.804 115.713 375.71 115.379 375.521C115.05 375.327 114.789 375.06 114.595 374.721C114.406 374.381 114.311 373.995 114.311 373.564V370.499C114.311 370.38 114.352 370.283 114.433 370.208C114.514 370.127 114.619 370.086 114.748 370.086C114.851 370.086 114.942 370.127 115.023 370.208C115.109 370.283 115.153 370.38 115.153 370.499V373.564C115.153 373.85 115.215 374.101 115.339 374.316C115.468 374.526 115.638 374.694 115.848 374.818C116.058 374.936 116.282 374.996 116.519 374.996C116.778 374.996 117.015 374.936 117.231 374.818C117.447 374.694 117.619 374.526 117.749 374.316C117.883 374.101 117.951 373.85 117.951 373.564V370.499C117.951 370.38 117.983 370.283 118.048 370.208C118.118 370.127 118.212 370.086 118.331 370.086Z" fill="#40444D"/>
<path d="M120.45 370.095H123.248C123.361 370.095 123.456 370.132 123.531 370.208C123.612 370.283 123.653 370.378 123.653 370.491C123.653 370.604 123.612 370.696 123.531 370.766C123.456 370.836 123.361 370.871 123.248 370.871H120.806L120.887 370.733V372.545L120.814 372.464H122.884C122.997 372.464 123.092 372.502 123.167 372.577C123.248 372.653 123.289 372.75 123.289 372.869C123.289 372.982 123.248 373.073 123.167 373.144C123.092 373.214 122.997 373.249 122.884 373.249H120.83L120.887 373.176V375.044L120.83 374.979H123.248C123.361 374.979 123.456 375.02 123.531 375.101C123.612 375.176 123.653 375.265 123.653 375.368C123.653 375.481 123.612 375.575 123.531 375.651C123.456 375.721 123.361 375.756 123.248 375.756H120.45C120.337 375.756 120.24 375.718 120.159 375.643C120.078 375.562 120.037 375.462 120.037 375.343V370.507C120.037 370.388 120.078 370.291 120.159 370.216C120.24 370.135 120.337 370.095 120.45 370.095Z" fill="#40444D"/>
<path d="M125.143 375.756C125.014 375.756 124.9 375.718 124.803 375.643C124.706 375.562 124.658 375.462 124.658 375.343V370.507C124.658 370.388 124.698 370.291 124.779 370.216C124.86 370.135 124.957 370.095 125.07 370.095H127.351C127.642 370.095 127.909 370.167 128.151 370.313C128.394 370.453 128.588 370.65 128.734 370.903C128.885 371.151 128.96 371.437 128.96 371.761C128.96 371.976 128.917 372.184 128.831 372.383C128.745 372.577 128.629 372.75 128.483 372.901C128.338 373.052 128.173 373.165 127.99 373.241L127.901 373.087C128.068 373.146 128.213 373.232 128.338 373.346C128.462 373.454 128.559 373.583 128.629 373.734C128.704 373.879 128.745 374.047 128.75 374.235C128.766 374.402 128.78 374.543 128.79 374.656C128.807 374.764 128.828 374.853 128.855 374.923C128.882 374.993 128.931 375.047 129.001 375.085C129.098 375.138 129.157 375.219 129.179 375.327C129.206 375.435 129.184 375.532 129.114 375.618C129.065 375.683 129.003 375.726 128.928 375.748C128.858 375.764 128.785 375.767 128.71 375.756C128.634 375.74 128.569 375.718 128.515 375.691C128.429 375.637 128.34 375.562 128.249 375.465C128.162 375.362 128.092 375.222 128.038 375.044C127.984 374.866 127.957 374.632 127.957 374.34C127.957 374.206 127.936 374.09 127.893 373.993C127.85 373.896 127.79 373.817 127.715 373.758C127.639 373.693 127.55 373.648 127.448 373.621C127.345 373.588 127.232 373.572 127.108 373.572H125.394L125.507 373.41V375.343C125.507 375.462 125.475 375.562 125.41 375.643C125.345 375.718 125.256 375.756 125.143 375.756ZM125.402 372.869H127.335C127.459 372.863 127.577 372.815 127.691 372.723C127.809 372.626 127.903 372.497 127.974 372.335C128.049 372.173 128.087 371.99 128.087 371.785C128.087 371.526 128.009 371.31 127.852 371.138C127.701 370.96 127.521 370.871 127.31 370.871H125.418L125.507 370.661V373.038L125.402 372.869Z" fill="#40444D"/>
<path d="M130.575 370.095H133.373C133.486 370.095 133.581 370.132 133.656 370.208C133.737 370.283 133.778 370.378 133.778 370.491C133.778 370.604 133.737 370.696 133.656 370.766C133.581 370.836 133.486 370.871 133.373 370.871H130.931L131.012 370.733V372.545L130.939 372.464H133.009C133.123 372.464 133.217 372.502 133.292 372.577C133.373 372.653 133.414 372.75 133.414 372.869C133.414 372.982 133.373 373.073 133.292 373.144C133.217 373.214 133.123 373.249 133.009 373.249H130.955L131.012 373.176V375.044L130.955 374.979H133.373C133.486 374.979 133.581 375.02 133.656 375.101C133.737 375.176 133.778 375.265 133.778 375.368C133.778 375.481 133.737 375.575 133.656 375.651C133.581 375.721 133.486 375.756 133.373 375.756H130.575C130.462 375.756 130.365 375.718 130.284 375.643C130.203 375.562 130.163 375.462 130.163 375.343V370.507C130.163 370.388 130.203 370.291 130.284 370.216C130.365 370.135 130.462 370.095 130.575 370.095Z" fill="#40444D"/>
<path d="M135.268 375.756C135.139 375.756 135.025 375.718 134.928 375.643C134.831 375.562 134.783 375.462 134.783 375.343V370.507C134.783 370.388 134.823 370.291 134.904 370.216C134.985 370.135 135.082 370.095 135.195 370.095H137.476C137.767 370.095 138.034 370.167 138.277 370.313C138.519 370.453 138.713 370.65 138.859 370.903C139.01 371.151 139.085 371.437 139.085 371.761C139.085 371.976 139.042 372.184 138.956 372.383C138.87 372.577 138.754 372.75 138.608 372.901C138.463 373.052 138.298 373.165 138.115 373.241L138.026 373.087C138.193 373.146 138.339 373.232 138.463 373.346C138.587 373.454 138.684 373.583 138.754 373.734C138.829 373.879 138.87 374.047 138.875 374.235C138.891 374.402 138.905 374.543 138.916 374.656C138.932 374.764 138.953 374.853 138.98 374.923C139.007 374.993 139.056 375.047 139.126 375.085C139.223 375.138 139.282 375.219 139.304 375.327C139.331 375.435 139.309 375.532 139.239 375.618C139.19 375.683 139.128 375.726 139.053 375.748C138.983 375.764 138.91 375.767 138.835 375.756C138.759 375.74 138.694 375.718 138.641 375.691C138.554 375.637 138.465 375.562 138.374 375.465C138.287 375.362 138.217 375.222 138.163 375.044C138.109 374.866 138.083 374.632 138.083 374.34C138.083 374.206 138.061 374.09 138.018 373.993C137.975 373.896 137.915 373.817 137.84 373.758C137.764 373.693 137.675 373.648 137.573 373.621C137.471 373.588 137.357 373.572 137.233 373.572H135.519L135.632 373.41V375.343C135.632 375.462 135.6 375.562 135.535 375.643C135.47 375.718 135.381 375.756 135.268 375.756ZM135.527 372.869H137.46C137.584 372.863 137.702 372.815 137.816 372.723C137.934 372.626 138.029 372.497 138.099 372.335C138.174 372.173 138.212 371.99 138.212 371.785C138.212 371.526 138.134 371.31 137.977 371.138C137.826 370.96 137.646 370.871 137.436 370.871H135.543L135.632 370.661V373.038L135.527 372.869Z" fill="#40444D"/>
<path d="M260.945 65.3029L261.03 -5.79785" stroke="#959DB1" stroke-width="1.02088" stroke-linecap="round" stroke-linejoin="round"/>
<path d="M260.836 141.016L260.933 71.833" stroke="#959DB1" stroke-width="1.02088" stroke-linecap="round" stroke-linejoin="round"/>
<path d="M260.75 216.795L260.835 147.563" stroke="#959DB1" stroke-width="1.02088" stroke-linecap="round" stroke-linejoin="round"/>
<path d="M260.609 357.753L260.731 223.331" stroke="#959DB1" stroke-width="1.02088" stroke-linecap="round" stroke-linejoin="round"/>
<path d="M260.927 357.832L91.5859 -52.5693" stroke="#959DB1" stroke-width="1.02088" stroke-miterlimit="10"/>
<path d="M260.601 357.757L-160.008 -63.9688" stroke="#959DB1" stroke-width="1.02088" stroke-miterlimit="10"/>
<path d="M260.936 357.836L-148.992 187.391" stroke="#959DB1" stroke-width="1.02088" stroke-miterlimit="10"/>
<path d="M259.629 357.75L-411.508 356.961" stroke="#959DB1" stroke-width="1.02088" stroke-miterlimit="10"/>
<path d="M259.631 357.751L-321.992 692.633" stroke="#959DB1" stroke-width="1.02088" stroke-miterlimit="10"/>
<path d="M259.637 357.751L-76.6172 938.573" stroke="#959DB1" stroke-width="1.02088" stroke-miterlimit="10"/>
<path d="M259.645 357.751L258.844 1028.89" stroke="#959DB1" stroke-width="1.02088" stroke-miterlimit="10"/>
<path d="M259.633 357.751L594.515 939.362" stroke="#959DB1" stroke-width="1.02088" stroke-miterlimit="10"/>
<path d="M259.633 357.751L840.455 694.005" stroke="#959DB1" stroke-width="1.02088" stroke-miterlimit="10"/>
<path d="M260.875 357.751L933.25 358.54" stroke="#959DB1" stroke-width="1.02088" stroke-miterlimit="10"/>
<path d="M260.93 357.83L671.21 188.538" stroke="#959DB1" stroke-width="1.02088" stroke-miterlimit="10"/>
<path d="M260.609 357.745L683.233 -63.75" stroke="#959DB1" stroke-width="1.02088" stroke-miterlimit="10"/>
<path d="M260.938 357.832L431.589 -52.5693" stroke="#959DB1" stroke-width="1.02088" stroke-miterlimit="10"/>
<path d="M260.835 877.688C547.729 877.688 780.303 645.115 780.303 358.221C780.303 71.3266 547.729 -161.247 260.835 -161.247C-26.0592 -161.247 -258.633 71.3266 -258.633 358.221C-258.633 645.115 -26.0592 877.688 260.835 877.688Z" stroke="#114559" stroke-width="2.5" stroke-miterlimit="10"/>
<path d="M260.867 1030C632.209 1030 933.241 728.969 933.241 357.626C933.241 -13.7157 632.209 -314.748 260.867 -314.748C-110.476 -314.748 -411.508 -13.7157 -411.508 357.626C-411.508 728.969 -110.476 1030 260.867 1030Z" stroke="#114559" stroke-width="2.5" stroke-miterlimit="10"/>
<path d="M256.723 144.884C141.054 147.093 47.9844 241.546 47.9844 357.737C47.9844 473.928 143.299 570.639 260.886 570.639C378.473 570.639 473.788 475.324 473.788 357.737C473.788 240.15 381.131 147.53 265.85 144.896" stroke="#114559" stroke-width="2.5" stroke-linecap="round" stroke-linejoin="round"/>
<path d="M-334.953 357.762C-334.953 28.6929 -68.1978 -238.062 260.871 -238.062C589.94 -238.062 856.695 28.6929 856.695 357.762C856.695 357.992 856.695 358.223 856.695 358.441" stroke="#114559" stroke-width="2.5" stroke-miterlimit="10"/>
<path d="M398.118 357.742C398.118 283.594 339.324 223.187 265.82 220.577" stroke="#114559" stroke-width="2.5" stroke-miterlimit="10"/>
<path d="M256.724 220.559C182.843 222.755 123.625 283.333 123.625 357.747" stroke="#114559" stroke-width="2.5" stroke-miterlimit="10"/>
<path d="M550.041 357.748C550.041 199.695 423.242 71.2573 265.82 68.6113" stroke="#114559" stroke-width="2.5" stroke-miterlimit="10"/>
<path d="M256.717 68.5977C98.9193 70.8188 -28.3047 199.426 -28.3047 357.746" stroke="#114559" stroke-width="2.5" stroke-miterlimit="10"/>
<path d="M256.727 -9.04688C56.0601 -6.82573 -105.938 156.543 -105.938 357.745C-105.938 558.946 58.2934 724.561 260.878 724.561C463.463 724.561 627.694 560.33 627.694 357.745C627.694 155.16 466.134 -6.37664 265.843 -9.03473" stroke="#114559" stroke-width="2.5" stroke-linecap="round" stroke-linejoin="round"/>
<path d="M704.429 357.751C704.429 114.433 508.507 -83.1271 265.82 -85.7852" stroke="#114559" stroke-width="2.5" stroke-linejoin="round"/>
<path d="M257.005 -85.9043C13.9364 -83.6715 -182.414 114.02 -182.414 357.558" stroke="#114559" stroke-width="2.5" stroke-linejoin="round"/>
<path d="M260.773 75.3058C264.573 75.3058 267.654 72.2246 267.654 68.4239C267.654 64.6231 264.573 61.542 260.773 61.542C256.972 61.542 253.891 64.6231 253.891 68.4239C253.891 72.2246 256.972 75.3058 260.773 75.3058Z" fill="#012432"/>
<mask id="mask0_6469_61300" style="mask-type:luminance" maskUnits="userSpaceOnUse" x="253" y="61" width="15" height="15">
<path d="M260.773 75.3527C264.573 75.3527 267.654 72.2715 267.654 68.4708C267.654 64.67 264.573 61.5889 260.773 61.5889C256.972 61.5889 253.891 64.67 253.891 68.4708C253.891 72.2715 256.972 75.3527 260.773 75.3527Z" fill="white"/>
</mask>
<g mask="url(#mask0_6469_61300)">
<path d="M260.945 87.2021C267.012 87.2021 271.93 82.4364 271.93 76.5576C271.93 70.6788 267.012 65.9131 260.945 65.9131C254.879 65.9131 249.961 70.6788 249.961 76.5576C249.961 82.4364 254.879 87.2021 260.945 87.2021Z" fill="#06C6A3"/>
</g>
<path d="M260.773 75.3507C264.573 75.3507 267.654 72.2696 267.654 68.4688C267.654 64.6681 264.573 61.5869 260.773 61.5869C256.972 61.5869 253.891 64.6681 253.891 68.4688C253.891 72.2696 256.972 75.3507 260.773 75.3507Z" stroke="#012432" stroke-width="0.540276" stroke-miterlimit="10"/>
<path d="M260.773 227.406C264.573 227.406 267.654 224.325 267.654 220.524C267.654 216.724 264.573 213.643 260.773 213.643C256.972 213.643 253.891 216.724 253.891 220.524C253.891 224.325 256.972 227.406 260.773 227.406Z" fill="#012432"/>
<mask id="mask1_6469_61300" style="mask-type:luminance" maskUnits="userSpaceOnUse" x="253" y="213" width="15" height="15">
<path d="M260.773 227.459C264.573 227.459 267.654 224.378 267.654 220.577C267.654 216.776 264.573 213.695 260.773 213.695C256.972 213.695 253.891 216.776 253.891 220.577C253.891 224.378 256.972 227.459 260.773 227.459Z" fill="white"/>
</mask>
<g mask="url(#mask1_6469_61300)">
<path d="M260.758 232.253C265.202 232.253 268.805 229.368 268.805 225.808C268.805 222.249 265.202 219.363 260.758 219.363C256.314 219.363 252.711 222.249 252.711 225.808C252.711 229.368 256.314 232.253 260.758 232.253Z" fill="#06C6A3"/>
</g>
<path d="M260.773 227.462C264.573 227.462 267.654 224.381 267.654 220.58C267.654 216.779 264.573 213.698 260.773 213.698C256.972 213.698 253.891 216.779 253.891 220.58C253.891 224.381 256.972 227.462 260.773 227.462Z" stroke="#012432" stroke-width="0.540276" stroke-miterlimit="10"/>
<path d="M260.773 151.271C264.573 151.271 267.654 148.189 267.654 144.389C267.654 140.588 264.573 137.507 260.773 137.507C256.972 137.507 253.891 140.588 253.891 144.389C253.891 148.189 256.972 151.271 260.773 151.271Z" fill="#06C6A3" stroke="#012432" stroke-width="0.540276" stroke-miterlimit="10"/>
<path d="M251.977 357.717L382.745 357.875" stroke="#959DB1" stroke-width="0.954487" stroke-miterlimit="10"/>
<path d="M260.609 286.44L260.731 237.405" stroke="#959DB1" stroke-width="0.954487" stroke-linecap="round" stroke-linejoin="round"/>
<path d="M260.609 286.44L260.731 237.405" stroke="#959DB1" stroke-width="1.02088" stroke-linecap="round" stroke-linejoin="round"/>
<path d="M504.041 220.031C503.821 220.187 503.59 220.297 503.347 220.361C503.107 220.422 502.869 220.437 502.632 220.405C502.398 220.375 502.176 220.3 501.967 220.178C501.762 220.054 501.582 219.885 501.43 219.671C501.28 219.459 501.18 219.236 501.13 219.001C501.083 218.764 501.084 218.528 501.131 218.294C501.18 218.063 501.273 217.844 501.41 217.638C501.551 217.432 501.732 217.251 501.952 217.095C502.172 216.938 502.401 216.828 502.639 216.763C502.881 216.7 503.12 216.683 503.354 216.712C503.591 216.744 503.812 216.822 504.018 216.946C504.227 217.068 504.407 217.235 504.557 217.446C504.709 217.66 504.809 217.886 504.856 218.123C504.905 218.358 504.905 218.592 504.856 218.823C504.809 219.057 504.716 219.278 504.576 219.486C504.439 219.693 504.261 219.874 504.041 220.031ZM503.707 219.562C503.921 219.409 504.083 219.229 504.192 219.02C504.303 218.815 504.354 218.602 504.346 218.381C504.337 218.161 504.263 217.952 504.123 217.755C503.985 217.561 503.813 217.424 503.607 217.343C503.402 217.263 503.184 217.241 502.953 217.279C502.725 217.314 502.503 217.409 502.286 217.564C502.072 217.716 501.909 217.895 501.798 218.101C501.687 218.306 501.636 218.519 501.644 218.74C501.653 218.96 501.726 219.168 501.864 219.362C502.004 219.559 502.177 219.697 502.383 219.778C502.588 219.858 502.806 219.88 503.037 219.842C503.269 219.808 503.493 219.714 503.707 219.562Z" fill="#40444D"/>
<path d="M502.287 214.35C502.437 214.561 502.529 214.777 502.564 214.996C502.601 215.214 502.586 215.427 502.521 215.635C502.46 215.844 502.357 216.042 502.21 216.229C502.067 216.413 501.893 216.579 501.687 216.725C501.406 216.925 501.115 217.058 500.813 217.125C500.515 217.189 500.229 217.174 499.957 217.08C499.685 216.985 499.448 216.796 499.246 216.512L498.492 215.453C498.449 215.392 498.432 215.325 498.442 215.253C498.455 215.179 498.493 215.119 498.556 215.074L501.154 213.226C501.217 213.181 501.285 213.165 501.356 213.18C501.431 213.192 501.489 213.229 501.533 213.29L502.287 214.35ZM499.632 216.172C499.779 216.378 499.948 216.508 500.14 216.564C500.332 216.619 500.531 216.617 500.737 216.557C500.948 216.499 501.154 216.398 501.354 216.256C501.501 216.151 501.628 216.035 501.733 215.907C501.844 215.781 501.924 215.645 501.974 215.501C502.029 215.357 502.046 215.21 502.026 215.059C502.01 214.908 501.948 214.756 501.839 214.603L501.255 213.782L501.322 213.793L499.033 215.422L499.058 215.365L499.632 216.172Z" fill="#40444D"/>
<path d="M499.602 211.77L496.561 212.461C496.503 212.477 496.448 212.476 496.397 212.46C496.346 212.444 496.306 212.414 496.275 212.371C496.229 212.307 496.213 212.247 496.225 212.19C496.24 212.132 496.274 212.081 496.327 212.039C496.347 212.025 496.373 212.013 496.405 212.003L499.857 211.209C499.921 211.194 499.979 211.196 500.032 211.215C500.087 211.237 500.129 211.273 500.159 211.321C500.19 211.364 500.206 211.414 500.207 211.47C500.207 211.527 500.191 211.58 500.157 211.63L498.305 214.59C498.284 214.622 498.259 214.648 498.23 214.669C498.166 214.714 498.099 214.729 498.027 214.715C497.961 214.701 497.909 214.668 497.872 214.616C497.841 214.573 497.825 214.523 497.825 214.467C497.829 214.411 497.847 214.359 497.878 214.311L499.508 211.666L499.602 211.77ZM497.302 212.196L497.858 212.095L498.732 213.324L498.368 213.694L497.302 212.196Z" fill="#40444D"/>
<path d="M498.324 208.774C498.513 209.04 498.591 209.288 498.558 209.516C498.526 209.748 498.386 209.953 498.137 210.13C498.007 210.222 497.865 210.275 497.713 210.288C497.565 210.301 497.418 210.268 497.271 210.19C497.125 210.115 496.987 209.988 496.857 209.811L497.024 209.705C497.092 209.801 497.152 209.913 497.204 210.041C497.258 210.173 497.289 210.31 497.295 210.454C497.301 210.598 497.272 210.741 497.207 210.883C497.146 211.023 497.034 211.15 496.872 211.266C496.695 211.391 496.527 211.467 496.367 211.494C496.21 211.518 496.064 211.507 495.929 211.458C495.795 211.41 495.672 211.338 495.56 211.243C495.454 211.149 495.362 211.047 495.283 210.937L494.492 209.825C494.449 209.764 494.432 209.698 494.442 209.625C494.455 209.551 494.493 209.491 494.556 209.446L497.154 207.598C497.217 207.553 497.285 207.537 497.356 207.552C497.431 207.564 497.489 207.601 497.533 207.662L498.324 208.774ZM497.855 209.016L497.246 208.16L497.353 208.163L496.419 208.827L496.433 208.745L497.044 209.605C497.121 209.708 497.221 209.774 497.343 209.805C497.47 209.836 497.601 209.805 497.734 209.71C497.87 209.613 497.945 209.505 497.961 209.385C497.979 209.263 497.943 209.14 497.855 209.016ZM496.634 209.93L496.019 209.066L496.071 209.074L495.046 209.804L495.061 209.741L495.697 210.636C495.804 210.786 495.93 210.88 496.074 210.917C496.221 210.952 496.376 210.912 496.538 210.797C496.674 210.7 496.756 210.6 496.783 210.498C496.811 210.395 496.807 210.295 496.773 210.198C496.738 210.1 496.692 210.011 496.634 209.93Z" fill="#40444D"/>
<path d="M495.604 206.141L492.564 206.832C492.505 206.847 492.45 206.847 492.4 206.831C492.349 206.815 492.308 206.785 492.277 206.741C492.232 206.678 492.215 206.618 492.227 206.561C492.242 206.502 492.276 206.452 492.329 206.41C492.349 206.396 492.376 206.384 492.408 206.374L495.859 205.58C495.923 205.565 495.981 205.567 496.034 205.586C496.089 205.608 496.132 205.643 496.162 205.692C496.193 205.735 496.208 205.785 496.209 205.841C496.21 205.897 496.193 205.951 496.159 206.001L494.307 208.96C494.286 208.993 494.262 209.019 494.233 209.04C494.169 209.085 494.101 209.1 494.03 209.086C493.964 209.072 493.912 209.039 493.875 208.987C493.844 208.943 493.828 208.894 493.827 208.837C493.831 208.782 493.849 208.73 493.88 208.682L495.511 206.037L495.604 206.141ZM493.304 206.567L493.86 206.466L494.735 207.695L494.37 208.065L493.304 206.567ZM496.328 205.586C496.296 205.54 496.28 205.494 496.283 205.448C496.29 205.404 496.313 205.368 496.351 205.341C496.368 205.329 496.388 205.321 496.412 205.317C496.438 205.317 496.465 205.319 496.495 205.324L497.081 205.476C497.123 205.486 497.162 205.501 497.199 205.523C497.239 205.542 497.271 205.568 497.293 205.6C497.326 205.646 497.341 205.703 497.337 205.771C497.336 205.837 497.306 205.891 497.249 205.932C497.211 205.959 497.165 205.974 497.111 205.978C497.06 205.979 497.007 205.967 496.953 205.94L496.423 205.663C496.401 205.657 496.382 205.646 496.367 205.631C496.352 205.615 496.339 205.601 496.328 205.586Z" fill="#40444D"/>
<path d="M491.167 205.241C491.019 205.033 490.916 204.827 490.858 204.624C490.801 204.42 490.786 204.197 490.814 203.955C490.815 203.907 490.825 203.862 490.844 203.822C490.869 203.783 490.898 203.751 490.933 203.727C490.988 203.687 491.052 203.673 491.124 203.682C491.196 203.692 491.254 203.727 491.297 203.788C491.33 203.834 491.345 203.889 491.342 203.952C491.319 204.134 491.324 204.303 491.356 204.459C491.391 204.618 491.466 204.778 491.581 204.94C491.663 205.056 491.757 205.148 491.863 205.217C491.971 205.289 492.077 205.331 492.182 205.344C492.287 205.356 492.381 205.333 492.465 205.273C492.569 205.199 492.633 205.108 492.656 204.999C492.685 204.892 492.68 204.766 492.644 204.623C492.612 204.48 492.556 204.319 492.477 204.14C492.4 203.976 492.343 203.82 492.307 203.671C492.273 203.526 492.262 203.387 492.274 203.257C492.288 203.124 492.33 203.001 492.397 202.888C492.465 202.774 492.564 202.671 492.694 202.579C492.87 202.453 493.055 202.391 493.249 202.393C493.442 202.395 493.63 202.451 493.813 202.561C493.996 202.671 494.158 202.825 494.3 203.025C494.43 203.208 494.523 203.399 494.578 203.6C494.636 203.798 494.653 203.98 494.627 204.147C494.616 204.259 494.575 204.341 494.506 204.39C494.454 204.427 494.389 204.44 494.312 204.43C494.24 204.42 494.184 204.388 494.145 204.333C494.116 204.292 494.103 204.249 494.105 204.204C494.122 204.123 494.121 204.03 494.103 203.925C494.088 203.818 494.061 203.71 494.023 203.602C493.988 203.496 493.941 203.403 493.883 203.322C493.791 203.192 493.693 203.094 493.589 203.028C493.488 202.96 493.389 202.924 493.29 202.92C493.194 202.914 493.104 202.941 493.02 203.001C492.922 203.071 492.86 203.156 492.836 203.256C492.813 203.359 492.818 203.476 492.849 203.606C492.884 203.734 492.931 203.875 492.992 204.028C493.071 204.212 493.133 204.381 493.178 204.537C493.225 204.695 493.245 204.842 493.237 204.979C493.232 205.113 493.196 205.239 493.127 205.358C493.059 205.476 492.949 205.589 492.799 205.696C492.625 205.82 492.438 205.879 492.238 205.873C492.037 205.867 491.843 205.809 491.656 205.698C491.47 205.59 491.307 205.438 491.167 205.241Z" fill="#40444D"/>
<path d="M425.674 135.47L423.108 137.242C423.059 137.279 423.009 137.299 422.955 137.302C422.902 137.306 422.853 137.294 422.808 137.265C422.743 137.223 422.705 137.173 422.695 137.116C422.687 137.056 422.7 136.997 422.734 136.938C422.747 136.917 422.767 136.896 422.793 136.875L425.702 134.855C425.756 134.817 425.811 134.798 425.867 134.796C425.926 134.796 425.978 134.813 426.024 134.847C426.069 134.875 426.102 134.916 426.124 134.968C426.145 135.02 426.15 135.075 426.137 135.135L425.518 138.57C425.51 138.608 425.497 138.642 425.478 138.672C425.436 138.737 425.379 138.777 425.307 138.79C425.24 138.802 425.18 138.79 425.126 138.756C425.081 138.727 425.048 138.687 425.026 138.635C425.01 138.582 425.007 138.527 425.018 138.471L425.549 135.409L425.674 135.47ZM423.697 136.721L424.175 136.42L425.444 137.236L425.243 137.716L423.697 136.721Z" fill="#40444D"/>
<path d="M421.384 136.319C421.312 136.273 421.268 136.215 421.25 136.144C421.237 136.072 421.251 136.004 421.294 135.938L423.021 133.253L423.5 133.561L421.773 136.247C421.731 136.312 421.671 136.352 421.595 136.366C421.523 136.379 421.453 136.364 421.384 136.319ZM422.108 132.957C422.045 132.917 422.004 132.863 421.984 132.795C421.966 132.725 421.978 132.656 422.021 132.591C422.061 132.528 422.116 132.491 422.186 132.481C422.256 132.471 422.322 132.487 422.385 132.527L424.425 133.839C424.487 133.879 424.526 133.934 424.541 134.003C424.561 134.07 424.551 134.135 424.51 134.198C424.468 134.264 424.412 134.302 424.342 134.312C424.275 134.324 424.21 134.31 424.148 134.269L422.108 132.957Z" fill="#40444D"/>
<path d="M421.626 132.028C421.686 132.066 421.721 132.12 421.731 132.19C421.746 132.259 421.737 132.319 421.704 132.37C421.673 132.417 421.627 132.453 421.565 132.477L419.814 133.131L419.786 132.612L421.377 132.02C421.474 131.981 421.557 131.984 421.626 132.028ZM419.585 130.709C419.656 130.755 419.697 130.825 419.708 130.921L419.982 134.938C419.99 134.998 419.978 135.053 419.945 135.104C419.899 135.176 419.838 135.215 419.762 135.221C419.686 135.227 419.623 135.214 419.572 135.181C419.501 135.135 419.461 135.065 419.454 134.972L419.172 130.956C419.166 130.893 419.178 130.838 419.209 130.79C419.251 130.724 419.31 130.686 419.385 130.675C419.461 130.661 419.528 130.672 419.585 130.709ZM417.515 133.858C417.458 133.821 417.423 133.771 417.409 133.707C417.397 133.64 417.407 133.581 417.44 133.531C417.473 133.48 417.523 133.441 417.592 133.413L419.37 132.738L419.383 133.259L417.765 133.873C417.673 133.911 417.589 133.906 417.515 133.858Z" fill="#40444D"/>
<path d="M417.182 129.184L418.733 130.182C418.796 130.222 418.834 130.277 418.849 130.346C418.867 130.416 418.856 130.483 418.816 130.546C418.775 130.608 418.72 130.645 418.65 130.655C418.584 130.667 418.519 130.653 418.456 130.612L417.102 129.741L417.196 129.694L416.55 130.698L416.539 130.627L417.686 131.366C417.749 131.406 417.788 131.46 417.803 131.529C417.821 131.6 417.808 131.668 417.766 131.734C417.726 131.797 417.671 131.833 417.601 131.843C417.534 131.855 417.469 131.841 417.407 131.8L416.268 131.068L416.325 131.048L415.659 132.083L415.651 132.027L416.991 132.889C417.054 132.93 417.092 132.986 417.105 133.058C417.123 133.128 417.113 133.192 417.077 133.249C417.037 133.312 416.981 133.349 416.909 133.362C416.842 133.374 416.777 133.36 416.714 133.32L415.163 132.322C415.101 132.282 415.06 132.226 415.042 132.156C415.026 132.082 415.039 132.012 415.082 131.946L416.806 129.266C416.848 129.2 416.905 129.161 416.977 129.148C417.051 129.132 417.119 129.144 417.182 129.184Z" fill="#40444D"/>
<path d="M413.248 131.152C413.033 131.014 412.861 130.861 412.732 130.694C412.603 130.526 412.506 130.325 412.442 130.089C412.425 130.044 412.418 129.999 412.421 129.955C412.429 129.909 412.445 129.869 412.468 129.833C412.504 129.776 412.558 129.739 412.629 129.721C412.699 129.703 412.766 129.714 412.829 129.755C412.877 129.785 412.911 129.831 412.931 129.89C412.978 130.068 413.045 130.223 413.133 130.356C413.224 130.49 413.353 130.611 413.52 130.719C413.64 130.796 413.761 130.847 413.885 130.871C414.012 130.898 414.126 130.897 414.228 130.87C414.33 130.843 414.409 130.786 414.465 130.699C414.534 130.591 414.559 130.483 414.541 130.374C414.527 130.264 414.476 130.149 414.389 130.029C414.306 129.908 414.194 129.779 414.054 129.643C413.922 129.52 413.811 129.396 413.723 129.271C413.637 129.148 413.575 129.024 413.538 128.899C413.502 128.77 413.494 128.641 413.515 128.51C413.536 128.38 413.589 128.247 413.676 128.113C413.793 127.931 413.942 127.804 414.122 127.734C414.302 127.664 414.497 127.646 414.708 127.68C414.918 127.714 415.127 127.798 415.333 127.93C415.521 128.052 415.678 128.195 415.804 128.36C415.932 128.523 416.015 128.686 416.053 128.85C416.085 128.959 416.077 129.049 416.031 129.121C415.996 129.175 415.941 129.211 415.866 129.23C415.795 129.248 415.731 129.239 415.675 129.202C415.633 129.175 415.605 129.14 415.59 129.097C415.575 129.016 415.54 128.929 415.484 128.839C415.43 128.745 415.366 128.655 415.29 128.568C415.218 128.484 415.14 128.415 415.056 128.361C414.922 128.274 414.794 128.22 414.673 128.197C414.555 128.171 414.449 128.175 414.356 128.208C414.265 128.238 414.191 128.297 414.135 128.383C414.07 128.485 414.045 128.587 414.059 128.689C414.077 128.793 414.124 128.9 414.202 129.009C414.281 129.115 414.378 129.228 414.491 129.347C414.633 129.489 414.753 129.623 414.853 129.751C414.955 129.88 415.028 130.01 415.072 130.139C415.117 130.266 415.13 130.396 415.111 130.532C415.091 130.667 415.032 130.812 414.932 130.968C414.816 131.147 414.665 131.271 414.477 131.341C414.289 131.41 414.087 131.428 413.871 131.395C413.659 131.364 413.451 131.283 413.248 131.152Z" fill="#40444D"/>
<path d="M326.756 90.2771L325.076 92.904C325.045 92.9563 325.006 92.9945 324.959 93.0186C324.911 93.0427 324.861 93.0501 324.809 93.0409C324.732 93.0274 324.678 92.9962 324.647 92.9474C324.616 92.8952 324.605 92.8355 324.613 92.7684C324.617 92.7439 324.628 92.7168 324.644 92.6871L326.544 89.6986C326.579 89.6434 326.622 89.6041 326.673 89.5806C326.728 89.5577 326.783 89.553 326.838 89.5663C326.891 89.5756 326.937 89.5999 326.977 89.6394C327.017 89.6789 327.042 89.7285 327.053 89.7882L327.812 93.196C327.82 93.2334 327.821 93.2697 327.815 93.3047C327.801 93.3817 327.764 93.44 327.703 93.4798C327.646 93.5167 327.586 93.5296 327.523 93.5185C327.47 93.5092 327.424 93.4849 327.384 93.4454C327.348 93.403 327.324 93.3537 327.313 93.2975L326.617 90.2689L326.756 90.2771ZM325.417 92.1955L325.742 91.7332L327.228 91.9946L327.229 92.5142L325.417 92.1955Z" fill="#40444D"/>
<path d="M323.125 92.7244C323.041 92.7096 322.977 92.6731 322.933 92.6148C322.894 92.5537 322.881 92.4847 322.894 92.4077L323.447 89.2633L324.009 89.3621L323.456 92.5065C323.442 92.5835 323.403 92.6433 323.338 92.686C323.277 92.7257 323.206 92.7385 323.125 92.7244ZM322.492 89.344C322.418 89.3311 322.359 89.2973 322.315 89.2425C322.271 89.1843 322.256 89.1167 322.269 89.0397C322.282 88.9662 322.319 88.9113 322.379 88.8751C322.44 88.8388 322.507 88.8271 322.58 88.8401L324.969 89.2604C325.042 89.2733 325.099 89.3086 325.14 89.3662C325.184 89.4209 325.2 89.485 325.187 89.5585C325.173 89.6355 325.136 89.6921 325.076 89.7284C325.019 89.7653 324.954 89.7773 324.88 89.7643L322.492 89.344Z" fill="#40444D"/>
<path d="M321.483 88.6461C321.552 88.6584 321.604 88.6928 321.638 88.7491C321.675 88.8026 321.688 88.8644 321.675 88.9344L321.119 92.0945C321.106 92.1715 321.068 92.2316 321.006 92.2749C320.949 92.3153 320.881 92.3287 320.804 92.3151C320.769 92.309 320.732 92.2952 320.693 92.2738C320.657 92.253 320.63 92.2286 320.614 92.2004L318.948 89.0228L319.081 88.9758L318.605 91.6792C318.594 91.7457 318.561 91.7995 318.507 91.8405C318.453 91.8779 318.391 91.8905 318.321 91.8782C318.248 91.8653 318.192 91.8321 318.155 91.7786C318.122 91.7222 318.111 91.6607 318.122 91.5943L318.679 88.4289C318.694 88.3484 318.731 88.2882 318.792 88.2485C318.853 88.2087 318.921 88.1953 318.994 88.2082C319.033 88.215 319.071 88.2308 319.11 88.2557C319.153 88.2777 319.183 88.3063 319.198 88.3415L320.821 91.4521L320.729 91.5118L321.198 88.8503C321.21 88.7803 321.243 88.7266 321.296 88.6891C321.35 88.6481 321.413 88.6338 321.483 88.6461Z" fill="#40444D"/>
<path d="M317.28 91.4189C317.263 91.4953 317.222 91.5548 317.156 91.5974C317.095 91.6372 317.028 91.6506 316.954 91.6377C316.874 91.6235 316.812 91.5873 316.768 91.5291C316.728 91.468 316.715 91.3989 316.729 91.3219L317.281 88.1828C317.295 88.1058 317.332 88.0474 317.393 88.0076C317.455 87.9644 317.528 87.9501 317.612 87.9649C317.682 87.9772 317.738 88.0143 317.781 88.076C317.829 88.1348 317.846 88.2028 317.832 88.2798L317.28 91.4189Z" fill="#40444D"/>
<path d="M316.218 87.715C316.295 87.7285 316.352 87.7655 316.388 87.826C316.425 87.883 316.437 87.95 316.423 88.027L316.073 90.0165C316.024 90.2965 315.919 90.536 315.757 90.7349C315.596 90.9338 315.398 91.0775 315.162 91.1659C314.927 91.2508 314.669 91.2686 314.389 91.2194C314.113 91.1707 313.877 91.0661 313.682 90.9054C313.49 90.7419 313.351 90.5388 313.264 90.2961C313.18 90.0541 313.163 89.7931 313.212 89.5131L313.562 87.5236C313.576 87.4466 313.613 87.3882 313.674 87.3485C313.736 87.3052 313.809 87.291 313.893 87.3057C313.959 87.3174 314.014 87.3542 314.057 87.4159C314.105 87.4747 314.122 87.5427 314.108 87.6196L313.758 89.6092C313.725 89.7947 313.737 89.9645 313.793 90.1186C313.853 90.2699 313.944 90.3978 314.066 90.5023C314.189 90.6033 314.328 90.6673 314.482 90.6944C314.65 90.724 314.811 90.7126 314.964 90.6602C315.118 90.6044 315.249 90.5156 315.357 90.3939C315.469 90.2693 315.542 90.1143 315.574 89.9288L315.925 87.9393C315.938 87.8623 315.97 87.803 316.021 87.7614C316.075 87.7169 316.141 87.7014 316.218 87.715Z" fill="#40444D"/>
<path d="M312.375 91.0321C312.438 91.0432 312.49 91.0775 312.53 91.1352C312.573 91.1969 312.589 91.261 312.577 91.3275C312.564 91.401 312.517 91.4648 312.435 91.519C312.357 91.5738 312.259 91.6179 312.142 91.6513C312.027 91.6853 311.908 91.7059 311.784 91.7129C311.663 91.7241 311.554 91.7211 311.456 91.7038C311.242 91.6662 311.073 91.6148 310.947 91.5494C310.822 91.484 310.718 91.417 310.636 91.3485C310.554 91.28 310.473 91.2171 310.393 91.1597C310.317 91.1029 310.219 91.064 310.1 91.0431C310.033 91.0314 309.977 91.0324 309.932 91.046C309.886 91.0596 309.839 91.0729 309.789 91.0859C309.74 91.1024 309.68 91.1044 309.61 91.0921C309.536 91.0792 309.48 91.0404 309.441 90.9758C309.402 90.9112 309.388 90.8456 309.4 90.7791C309.419 90.6672 309.483 90.6008 309.592 90.5802L310.682 90.3824L311.145 90.5504L310.123 90.7278L310.374 90.6258C310.503 90.6486 310.613 90.6879 310.705 90.7436C310.799 90.8 310.888 90.8606 310.97 90.9257C311.056 90.9948 311.144 91.0572 311.235 91.1129C311.326 91.1687 311.437 91.2079 311.566 91.2307C311.675 91.2498 311.769 91.2483 311.848 91.2263C311.928 91.2042 311.995 91.18 312.05 91.1536C312.117 91.1221 312.175 91.0908 312.224 91.0597C312.276 91.0327 312.326 91.0235 312.375 91.0321ZM312.638 88.984C312.591 89.2499 312.504 89.4907 312.376 89.7063C312.248 89.9184 312.089 90.096 311.898 90.2391C311.71 90.3829 311.499 90.4847 311.265 90.5445C311.031 90.6008 310.785 90.6062 310.526 90.5606C310.27 90.5156 310.042 90.4268 309.842 90.2942C309.642 90.158 309.477 89.99 309.346 89.7902C309.219 89.591 309.132 89.37 309.084 89.1271C309.041 88.8814 309.043 88.6255 309.089 88.3595C309.136 88.0935 309.222 87.8542 309.346 87.6415C309.474 87.4259 309.632 87.2463 309.819 87.1025C310.01 86.9593 310.223 86.8596 310.456 86.8033C310.691 86.7435 310.935 86.7361 311.191 86.781C311.45 86.8266 311.679 86.9175 311.879 87.0536C312.079 87.1863 312.243 87.3522 312.37 87.5514C312.501 87.7512 312.59 87.9743 312.637 88.2207C312.684 88.4636 312.685 88.718 312.638 88.984ZM312.071 88.8842C312.117 88.6252 312.105 88.3833 312.036 88.1583C311.971 87.934 311.858 87.7463 311.697 87.5953C311.536 87.4443 311.337 87.3478 311.099 87.306C310.864 87.2647 310.645 87.2876 310.442 87.3745C310.24 87.4615 310.069 87.5993 309.931 87.7879C309.794 87.973 309.702 88.1968 309.656 88.4593C309.611 88.7183 309.62 88.9599 309.686 89.1842C309.751 89.4086 309.864 89.5962 310.025 89.7473C310.186 89.8983 310.384 89.9944 310.618 90.0357C310.856 90.0775 311.077 90.055 311.28 89.968C311.482 89.8811 311.653 89.7433 311.791 89.5547C311.932 89.3667 312.025 89.1432 312.071 88.8842Z" fill="#40444D"/>
<path d="M217.2 86.6386L216.523 89.6822C216.512 89.7419 216.488 89.7912 216.452 89.8302C216.415 89.8691 216.371 89.8933 216.318 89.9026C216.241 89.9163 216.18 89.9055 216.134 89.8704C216.087 89.8317 216.056 89.7795 216.041 89.7136C216.037 89.6892 216.037 89.6602 216.042 89.6269L216.802 86.1679C216.816 86.104 216.843 86.0523 216.883 86.0128C216.926 85.9726 216.976 85.9493 217.033 85.9428C217.086 85.9335 217.137 85.9405 217.188 85.9639C217.239 85.9873 217.28 86.0252 217.311 86.0774L219.193 89.0184C219.213 89.0509 219.226 89.0846 219.232 89.1196C219.246 89.1966 219.231 89.2642 219.187 89.3225C219.146 89.3767 219.094 89.4094 219.031 89.4206C218.979 89.4299 218.927 89.4229 218.876 89.3995C218.828 89.3719 218.789 89.3338 218.758 89.285L217.066 86.6786L217.2 86.6386ZM216.6 88.8997L216.747 88.354L218.232 88.0901L218.411 88.5781L216.6 88.8997Z" fill="#40444D"/>
<path d="M214.627 90.1829C214.543 90.1978 214.471 90.1854 214.409 90.1458C214.351 90.102 214.315 90.0416 214.301 89.9647L213.743 86.8212L214.305 86.7214L214.863 89.8649C214.877 89.9419 214.86 90.0116 214.814 90.074C214.77 90.1323 214.708 90.1686 214.627 90.1829ZM212.873 87.2248C212.799 87.2379 212.732 87.2263 212.672 87.1901C212.611 87.1505 212.573 87.0922 212.559 87.0152C212.546 86.9417 212.562 86.8776 212.606 86.8228C212.651 86.768 212.71 86.7341 212.783 86.721L215.171 86.2968C215.245 86.2837 215.31 86.2974 215.368 86.3376C215.428 86.3738 215.465 86.4286 215.478 86.5021C215.492 86.579 215.477 86.6449 215.432 86.6997C215.391 86.7539 215.334 86.7875 215.261 86.8006L212.873 87.2248Z" fill="#40444D"/>
<path d="M210.249 90.9604C210.165 90.9753 210.087 90.9638 210.015 90.926C209.943 90.8848 209.9 90.8256 209.886 90.7487L209.329 87.6104C209.315 87.5334 209.33 87.4658 209.374 87.4075C209.417 87.3457 209.475 87.3083 209.549 87.2952L211.029 87.0323C211.218 86.9987 211.399 87.0152 211.574 87.0817C211.747 87.1447 211.896 87.25 212.019 87.3977C212.146 87.5412 212.228 87.7179 212.265 87.9278C212.29 88.0678 212.286 88.2075 212.253 88.3468C212.219 88.4827 212.164 88.6081 212.087 88.7228C212.01 88.8375 211.916 88.93 211.806 89.0001L211.731 88.9106C211.846 88.9298 211.95 88.969 212.044 89.0282C212.137 89.0839 212.215 89.1567 212.278 89.2466C212.343 89.3323 212.389 89.4361 212.414 89.5579C212.444 89.6645 212.469 89.7539 212.489 89.8262C212.512 89.8943 212.536 89.9495 212.562 89.9919C212.587 90.0343 212.625 90.0637 212.675 90.0801C212.744 90.1039 212.792 90.1495 212.818 90.217C212.848 90.2839 212.845 90.3493 212.81 90.4134C212.786 90.4609 212.75 90.4961 212.704 90.5188C212.66 90.5374 212.613 90.5475 212.563 90.5492C212.512 90.5474 212.468 90.5409 212.43 90.5296C212.367 90.5046 212.301 90.4658 212.23 90.4134C212.163 90.3569 212.101 90.274 212.045 90.1648C211.99 90.0555 211.945 89.9065 211.912 89.7175C211.896 89.6301 211.869 89.5573 211.83 89.4993C211.791 89.4413 211.743 89.3974 211.687 89.3676C211.631 89.3344 211.568 89.3149 211.498 89.3092C211.428 89.3 211.353 89.3026 211.272 89.3169L210.16 89.5145L210.215 89.3965L210.437 90.6508C210.451 90.7277 210.442 90.7962 210.409 90.8561C210.376 90.9126 210.322 90.9473 210.249 90.9604ZM210.084 89.057L211.338 88.8342C211.418 88.8164 211.489 88.7712 211.552 88.6987C211.618 88.6221 211.664 88.5272 211.691 88.4142C211.721 88.3005 211.725 88.1772 211.701 88.0443C211.671 87.8763 211.596 87.7454 211.474 87.6515C211.356 87.5534 211.229 87.5165 211.092 87.5408L209.864 87.7589L209.898 87.6122L210.172 89.1551L210.084 89.057Z" fill="#40444D"/>
<path d="M207.348 88.3896L206.671 91.4332C206.66 91.4929 206.636 91.5422 206.6 91.5812C206.564 91.6201 206.519 91.6443 206.467 91.6536C206.39 91.6672 206.328 91.6565 206.282 91.6214C206.236 91.5827 206.205 91.5305 206.189 91.4646C206.185 91.4401 206.185 91.4112 206.19 91.3779L206.951 87.9188C206.965 87.855 206.992 87.8033 207.032 87.7637C207.075 87.7236 207.125 87.7002 207.182 87.6938C207.234 87.6845 207.286 87.6915 207.337 87.7149C207.388 87.7383 207.429 87.7762 207.46 87.8284L209.341 90.7694C209.361 90.8019 209.375 90.8356 209.381 90.8706C209.394 90.9476 209.379 91.0152 209.336 91.0735C209.295 91.1277 209.243 91.1604 209.18 91.1716C209.127 91.1809 209.076 91.1738 209.024 91.1504C208.976 91.1229 208.937 91.0848 208.907 91.036L207.215 88.4295L207.348 88.3896ZM206.749 90.6507L206.895 90.1049L208.38 89.8411L208.559 90.329L206.749 90.6507Z" fill="#40444D"/>
<path d="M204.858 88.1216C204.935 88.1079 205.001 88.1233 205.056 88.1677C205.11 88.2086 205.144 88.2675 205.158 88.3445L205.511 90.3334C205.561 90.6133 205.544 90.8744 205.461 91.1165C205.377 91.3587 205.24 91.5617 205.049 91.7256C204.857 91.8859 204.622 91.991 204.342 92.0407C204.065 92.0898 203.808 92.0724 203.569 91.9885C203.333 91.9004 203.133 91.7574 202.968 91.5594C202.806 91.3607 202.701 91.1214 202.651 90.8416L202.298 88.8526C202.284 88.7756 202.299 88.708 202.343 88.6497C202.386 88.5879 202.449 88.5495 202.533 88.5346C202.6 88.5228 202.664 88.5385 202.726 88.5816C202.79 88.6207 202.83 88.6787 202.843 88.7556L203.197 90.7446C203.23 90.93 203.299 91.0856 203.404 91.2112C203.512 91.3327 203.642 91.4216 203.793 91.4778C203.943 91.5306 204.095 91.5433 204.249 91.5159C204.417 91.4861 204.564 91.4202 204.69 91.3184C204.816 91.2131 204.908 91.0847 204.968 90.9334C205.031 90.7779 205.045 90.6074 205.012 90.422L204.659 88.4331C204.645 88.3561 204.655 88.2894 204.689 88.2329C204.725 88.1724 204.781 88.1353 204.858 88.1216Z" fill="#40444D"/>
<path d="M202.385 92.5573C202.448 92.5461 202.509 92.5607 202.566 92.601C202.628 92.6441 202.665 92.6989 202.677 92.7654C202.69 92.8389 202.667 92.9151 202.609 92.994C202.554 93.0722 202.478 93.1473 202.378 93.219C202.283 93.2901 202.178 93.3503 202.064 93.3994C201.954 93.4514 201.85 93.4861 201.752 93.5035C201.539 93.5414 201.362 93.5512 201.222 93.5328C201.081 93.5144 200.961 93.4871 200.86 93.4508C200.76 93.4145 200.663 93.3831 200.568 93.3566C200.476 93.3296 200.371 93.3266 200.252 93.3477C200.186 93.3596 200.133 93.3797 200.095 93.4081C200.057 93.4366 200.017 93.4653 199.975 93.4944C199.934 93.527 199.878 93.5495 199.808 93.5619C199.735 93.575 199.669 93.5579 199.61 93.5106C199.551 93.4633 199.515 93.4064 199.504 93.34C199.484 93.228 199.521 93.1438 199.616 93.0873L200.572 92.5276L201.064 92.5267L200.166 93.0437L200.366 92.8619C200.496 92.8389 200.613 92.838 200.717 92.8591C200.826 92.8795 200.93 92.9061 201.029 92.939C201.133 92.9747 201.237 93.0031 201.342 93.0241C201.447 93.0452 201.564 93.0443 201.694 93.0213C201.802 93.002 201.89 92.9683 201.957 92.9203C202.024 92.8723 202.079 92.8264 202.122 92.7827C202.174 92.7302 202.218 92.6809 202.253 92.635C202.292 92.5919 202.336 92.566 202.385 92.5573ZM201.93 90.5432C201.977 90.8091 201.978 91.0652 201.931 91.3117C201.884 91.5546 201.795 91.7761 201.665 91.9761C201.538 92.1755 201.375 92.3435 201.175 92.48C200.975 92.613 200.746 92.7025 200.487 92.7485C200.231 92.7938 199.987 92.7886 199.753 92.7326C199.519 92.6732 199.306 92.5721 199.114 92.4292C198.927 92.2858 198.769 92.1081 198.641 91.8962C198.516 91.6803 198.43 91.4393 198.383 91.1734C198.335 90.9075 198.333 90.6534 198.377 90.4111C198.423 90.1646 198.51 89.9417 198.637 89.7423C198.768 89.5423 198.933 89.3758 199.133 89.2428C199.333 89.1063 199.56 89.0154 199.815 88.97C200.074 88.924 200.321 88.9307 200.555 88.9901C200.789 89.0461 201 89.1457 201.188 89.2892C201.379 89.432 201.539 89.6112 201.667 89.8265C201.795 90.0384 201.883 90.2773 201.93 90.5432ZM201.363 90.6439C201.317 90.385 201.224 90.1616 201.082 89.9739C200.944 89.7855 200.773 89.648 200.57 89.5613C200.367 89.4747 200.147 89.4525 199.909 89.4948C199.674 89.5364 199.477 89.6329 199.316 89.7841C199.155 89.9354 199.042 90.1233 198.977 90.3477C198.912 90.5687 198.903 90.8103 198.949 91.0727C198.995 91.3316 199.087 91.5553 199.225 91.7437C199.364 91.9321 199.534 92.0696 199.737 92.1562C199.94 92.2428 200.159 92.2653 200.393 92.2237C200.631 92.1814 200.831 92.0846 200.992 91.9334C201.152 91.7821 201.265 91.5942 201.33 91.3698C201.398 91.1447 201.409 90.9028 201.363 90.6439Z" fill="#40444D"/>
<path d="M109.535 126.302L110.203 129.347C110.218 129.406 110.218 129.461 110.201 129.511C110.185 129.562 110.154 129.603 110.111 129.633C110.047 129.678 109.986 129.694 109.93 129.682C109.871 129.666 109.821 129.632 109.78 129.579C109.766 129.558 109.754 129.532 109.744 129.5L108.976 126.042C108.962 125.978 108.965 125.92 108.984 125.867C109.007 125.813 109.042 125.771 109.091 125.741C109.135 125.71 109.184 125.695 109.241 125.695C109.297 125.694 109.35 125.711 109.4 125.746L112.345 127.62C112.377 127.641 112.403 127.666 112.424 127.695C112.469 127.759 112.483 127.827 112.468 127.898C112.454 127.965 112.421 128.016 112.368 128.053C112.325 128.084 112.275 128.099 112.219 128.099C112.163 128.095 112.112 128.077 112.064 128.045L109.431 126.394L109.535 126.302ZM109.944 128.605L109.847 128.048L111.083 127.183L111.451 127.55L109.944 128.605Z" fill="#40444D"/>
<path d="M107.563 127.096C107.649 127.083 107.72 127.107 107.776 127.168C107.834 127.227 107.861 127.299 107.856 127.385C107.855 127.451 107.83 127.505 107.781 127.548C107.736 127.588 107.679 127.613 107.612 127.621C107.497 127.637 107.383 127.664 107.272 127.703C107.16 127.742 107.052 127.798 106.947 127.871C106.781 127.988 106.651 128.12 106.556 128.269C106.461 128.413 106.402 128.57 106.377 128.739C106.35 128.905 106.359 129.075 106.402 129.249C106.448 129.42 106.529 129.589 106.646 129.755C106.774 129.938 106.916 130.082 107.071 130.186C107.224 130.287 107.383 130.353 107.549 130.385C107.715 130.412 107.881 130.404 108.046 130.362C108.213 130.315 108.373 130.237 108.528 130.129C108.627 130.06 108.715 129.981 108.791 129.892C108.871 129.802 108.937 129.704 108.989 129.598C109.023 129.535 109.068 129.491 109.123 129.465C109.18 129.434 109.239 129.429 109.302 129.45C109.394 129.477 109.455 129.527 109.486 129.602C109.517 129.671 109.513 129.743 109.474 129.818C109.43 129.909 109.374 130 109.307 130.091C109.241 130.181 109.168 130.266 109.09 130.347C109.012 130.428 108.926 130.5 108.833 130.566C108.624 130.712 108.401 130.816 108.166 130.877C107.931 130.937 107.694 130.951 107.454 130.919C107.215 130.887 106.985 130.803 106.764 130.667C106.546 130.529 106.349 130.335 106.174 130.085C106.017 129.861 105.91 129.627 105.854 129.385C105.798 129.138 105.792 128.897 105.836 128.663C105.881 128.423 105.971 128.199 106.107 127.991C106.242 127.78 106.421 127.596 106.645 127.439C106.785 127.341 106.932 127.264 107.088 127.207C107.246 127.148 107.404 127.111 107.563 127.096ZM108.958 131.376C108.932 131.394 108.893 131.411 108.842 131.425C108.794 131.436 108.744 131.439 108.692 131.432C108.641 131.429 108.604 131.409 108.58 131.374C108.553 131.336 108.543 131.287 108.548 131.227L108.578 130.517L108.84 130.333L109.033 131.148C109.056 131.249 109.031 131.325 108.958 131.376Z" fill="#40444D"/>
<path d="M104.698 133.396C104.629 133.445 104.553 133.467 104.472 133.463C104.389 133.456 104.325 133.42 104.281 133.356L102.453 130.745C102.408 130.681 102.393 130.613 102.408 130.542C102.421 130.468 102.458 130.409 102.52 130.367L103.751 129.505C103.908 129.395 104.08 129.333 104.266 129.32C104.45 129.304 104.629 129.337 104.803 129.419C104.979 129.496 105.127 129.621 105.25 129.796C105.331 129.912 105.386 130.041 105.415 130.181C105.442 130.319 105.444 130.455 105.423 130.592C105.401 130.729 105.355 130.852 105.285 130.962L105.179 130.912C105.291 130.881 105.403 130.873 105.512 130.887C105.62 130.899 105.721 130.932 105.816 130.987C105.912 131.037 105.997 131.112 106.071 131.212C106.143 131.296 106.203 131.366 106.252 131.423C106.302 131.476 106.347 131.515 106.388 131.543C106.429 131.571 106.475 131.582 106.528 131.575C106.6 131.568 106.663 131.589 106.715 131.639C106.771 131.687 106.796 131.748 106.79 131.821C106.789 131.874 106.772 131.921 106.739 131.961C106.707 131.996 106.669 132.025 106.624 132.048C106.577 132.068 106.534 132.08 106.495 132.086C106.428 132.09 106.351 132.083 106.265 132.065C106.18 132.042 106.089 131.993 105.993 131.917C105.896 131.842 105.793 131.725 105.683 131.568C105.632 131.495 105.577 131.441 105.517 131.405C105.457 131.369 105.395 131.349 105.332 131.345C105.267 131.339 105.201 131.348 105.136 131.372C105.068 131.393 105.001 131.427 104.934 131.474L104.009 132.122L104.009 131.992L104.739 133.036C104.784 133.1 104.804 133.166 104.8 133.234C104.793 133.299 104.76 133.353 104.698 133.396ZM103.747 131.739L104.791 131.009C104.856 130.959 104.901 130.888 104.928 130.795C104.955 130.698 104.957 130.593 104.934 130.479C104.913 130.363 104.865 130.25 104.787 130.139C104.689 129.999 104.566 129.913 104.416 129.878C104.267 129.839 104.136 129.86 104.023 129.939L103.001 130.654L102.969 130.507L103.868 131.791L103.747 131.739Z" fill="#40444D"/>
<path d="M100.027 132.112L101.538 131.054C101.599 131.011 101.665 130.996 101.734 131.008C101.806 131.019 101.864 131.054 101.906 131.115C101.949 131.176 101.962 131.241 101.945 131.31C101.931 131.376 101.893 131.431 101.832 131.473L100.513 132.396L100.505 132.292L101.189 133.27L101.119 133.254L102.237 132.471C102.298 132.428 102.364 132.413 102.433 132.425C102.505 132.435 102.564 132.473 102.608 132.537C102.651 132.598 102.664 132.663 102.647 132.731C102.633 132.797 102.595 132.852 102.534 132.895L101.425 133.671L101.428 133.61L102.134 134.619L102.079 134.606L103.384 133.692C103.445 133.649 103.512 133.635 103.583 133.65C103.655 133.66 103.711 133.693 103.749 133.748C103.792 133.81 103.806 133.876 103.791 133.947C103.777 134.013 103.739 134.068 103.678 134.111L102.167 135.168C102.106 135.211 102.039 135.227 101.967 135.217C101.893 135.204 101.833 135.166 101.788 135.102L99.9606 132.49C99.9157 132.426 99.9009 132.359 99.916 132.287C99.9291 132.213 99.9663 132.154 100.027 132.112Z" fill="#40444D"/>
<path d="M100.236 136.52C100.166 136.569 100.095 136.589 100.023 136.579C99.9518 136.563 99.8938 136.524 99.8489 136.46L98.0181 133.844L98.4854 133.517L100.316 136.133C100.361 136.197 100.375 136.267 100.359 136.343C100.344 136.414 100.303 136.474 100.236 136.52ZM97.3989 134.577C97.3378 134.62 97.2722 134.637 97.202 134.63C97.1298 134.62 97.0713 134.583 97.0265 134.519C96.9837 134.458 96.9709 134.393 96.988 134.324C97.0052 134.256 97.0444 134.2 97.1055 134.158L99.0923 132.767C99.1535 132.724 99.2187 132.709 99.288 132.721C99.3581 132.728 99.4146 132.763 99.4574 132.824C99.5022 132.888 99.516 132.954 99.4989 133.022C99.4846 133.089 99.4469 133.143 99.3858 133.186L97.3989 134.577Z" fill="#40444D"/>
<path d="M31.8239 198.6L33.5712 201.183C33.607 201.232 33.6266 201.283 33.6299 201.336C33.6332 201.389 33.6202 201.438 33.591 201.483C33.548 201.548 33.498 201.586 33.4409 201.595C33.3809 201.602 33.3216 201.589 33.2633 201.555C33.2425 201.541 33.2216 201.521 33.2008 201.494L31.2086 198.566C31.1718 198.512 31.1527 198.457 31.1513 198.401C31.1519 198.342 31.1693 198.29 31.2035 198.244C31.2327 198.199 31.2734 198.167 31.3255 198.146C31.3776 198.124 31.4332 198.121 31.4925 198.134L34.9222 198.786C34.9597 198.794 34.9933 198.807 35.023 198.827C35.0884 198.87 35.1272 198.927 35.1395 198.999C35.1508 199.066 35.1389 199.126 35.1038 199.18C35.0745 199.224 35.0339 199.257 34.9818 199.278C34.9287 199.294 34.874 199.297 34.8177 199.285L31.7611 198.725L31.8239 198.6ZM33.0556 200.589L32.7596 200.108L33.5877 198.847L34.0651 199.052L33.0556 200.589Z" fill="#40444D"/>
<path d="M29.2929 201.186C29.4353 200.969 29.6027 200.805 29.7951 200.693C29.9846 200.579 30.1881 200.515 30.4058 200.501C30.6225 200.482 30.8445 200.506 31.0716 200.575C31.2958 200.641 31.5133 200.744 31.7242 200.882C32.0123 201.072 32.2419 201.295 32.4132 201.552C32.5815 201.807 32.6711 202.078 32.6819 202.366C32.6928 202.654 32.6026 202.943 32.4114 203.234L31.6974 204.321C31.6565 204.383 31.6006 204.423 31.5297 204.441C31.4559 204.456 31.3863 204.442 31.321 204.399L28.6569 202.649C28.5916 202.606 28.5527 202.549 28.5404 202.477C28.5251 202.403 28.538 202.335 28.5789 202.273L29.2929 201.186ZM31.9545 202.998C32.093 202.787 32.1532 202.582 32.1351 202.383C32.1169 202.184 32.0428 201.999 31.9125 201.829C31.7812 201.653 31.6131 201.498 31.4081 201.363C31.2567 201.264 31.1024 201.188 30.9453 201.136C30.7873 201.079 30.6319 201.053 30.4791 201.059C30.3254 201.06 30.1818 201.098 30.0482 201.172C29.9137 201.241 29.7947 201.354 29.6913 201.511L29.1383 202.353L29.1245 202.287L31.4723 203.829L31.4102 203.826L31.9545 202.998Z" fill="#40444D"/>
<path d="M27.8253 203.429C27.8643 203.369 27.9163 203.335 27.9813 203.327C28.0453 203.314 28.107 203.327 28.1664 203.366L30.8483 205.127C30.9136 205.17 30.9539 205.229 30.9692 205.302C30.9835 205.371 30.9692 205.438 30.9263 205.504C30.9068 205.533 30.8794 205.562 30.8441 205.59C30.8107 205.615 30.7778 205.629 30.7453 205.634L27.1681 205.905L27.1775 205.764L29.4718 207.271C29.5283 207.309 29.5646 207.36 29.5808 207.426C29.5941 207.49 29.5812 207.552 29.5422 207.611C29.5012 207.673 29.4487 207.711 29.3848 207.724C29.3198 207.733 29.2591 207.718 29.2026 207.681L26.5163 205.917C26.448 205.872 26.4076 205.814 26.3953 205.742C26.383 205.67 26.3973 205.603 26.4383 205.54C26.4598 205.508 26.4896 205.478 26.5279 205.453C26.5651 205.422 26.603 205.406 26.6414 205.406L30.1403 205.147L30.1588 205.255L27.9001 203.771C27.8407 203.732 27.8044 203.681 27.7911 203.617C27.7749 203.551 27.7863 203.488 27.8253 203.429Z" fill="#40444D"/>
<path d="M25.6653 206.706C25.7082 206.64 25.7646 206.603 25.8345 206.594C25.9014 206.582 25.9676 206.598 26.0329 206.641L27.7214 207.75C27.959 207.906 28.1372 208.098 28.256 208.325C28.3748 208.551 28.4282 208.791 28.4161 209.042C28.4011 209.291 28.3155 209.535 28.1595 209.773C28.0054 210.007 27.8159 210.182 27.591 210.298C27.365 210.409 27.1234 210.457 26.8661 210.441C26.6107 210.422 26.3642 210.334 26.1266 210.178L24.4381 209.069C24.3728 209.026 24.334 208.969 24.3217 208.897C24.3064 208.823 24.3221 208.751 24.369 208.679C24.406 208.623 24.4615 208.587 24.5353 208.572C24.6081 208.552 24.6771 208.563 24.7425 208.606L26.4309 209.715C26.5883 209.818 26.7489 209.875 26.9125 209.885C27.0752 209.889 27.2287 209.856 27.3731 209.785C27.5145 209.712 27.6281 209.611 27.714 209.48C27.8076 209.337 27.8608 209.185 27.8735 209.023C27.8832 208.86 27.8535 208.704 27.7845 208.557C27.7145 208.405 27.6008 208.277 27.4434 208.173L25.7549 207.064C25.6896 207.021 25.6478 206.969 25.6297 206.906C25.6105 206.838 25.6223 206.771 25.6653 206.706Z" fill="#40444D"/>
<path d="M26.2933 212.654C26.145 212.879 25.9664 213.064 25.7574 213.207C25.5455 213.349 25.318 213.446 25.075 213.499C24.8309 213.547 24.585 213.549 24.3373 213.505C24.0897 213.462 23.853 213.366 23.6272 213.217C23.4015 213.069 23.2194 212.89 23.081 212.68C22.9426 212.47 22.8484 212.245 22.7985 212.004C22.7475 211.757 22.7463 211.51 22.7949 211.261C22.8405 211.011 22.9374 210.773 23.0856 210.547C23.1812 210.401 23.2902 210.271 23.4126 210.156C23.535 210.041 23.6635 209.949 23.7981 209.88C23.8442 209.855 23.891 209.845 23.9383 209.851C23.9827 209.854 24.0212 209.867 24.0539 209.888C24.1162 209.929 24.1575 209.986 24.1777 210.059C24.1969 210.127 24.187 210.19 24.148 210.25C24.1344 210.271 24.1168 210.291 24.0952 210.311C24.0756 210.328 24.0555 210.342 24.0349 210.354C23.9387 210.41 23.849 210.479 23.7658 210.56C23.6796 210.639 23.6014 210.733 23.5311 210.84C23.3907 211.053 23.3159 211.281 23.3067 211.521C23.2945 211.76 23.3429 211.987 23.4518 212.203C23.5626 212.416 23.7265 212.594 23.9433 212.736C24.1571 212.877 24.3853 212.957 24.6279 212.976C24.8695 212.99 25.0988 212.945 25.3159 212.841C25.53 212.735 25.7073 212.575 25.8477 212.361C25.916 212.257 25.9763 212.139 26.0286 212.008C26.078 211.875 26.1082 211.754 26.1193 211.647L26.2162 211.761L25.3697 211.205L25.4789 211.175L25.0956 211.759C25.0527 211.824 24.9958 211.865 24.925 211.883C24.8561 211.897 24.7889 211.882 24.7236 211.84C24.6583 211.797 24.6185 211.741 24.6042 211.672C24.5919 211.6 24.6072 211.531 24.6501 211.466L25.1563 210.695C25.1973 210.633 25.2537 210.596 25.3256 210.583C25.3964 210.566 25.4645 210.579 25.5298 210.622L26.5188 211.271C26.5664 211.303 26.5987 211.341 26.6157 211.386C26.6328 211.431 26.642 211.476 26.6432 211.519C26.6386 211.707 26.6079 211.9 26.5511 212.096C26.4962 212.29 26.4103 212.476 26.2933 212.654Z" fill="#40444D"/>
<path d="M20.6492 214.342L21.6617 212.801C21.7027 212.738 21.7576 212.7 21.8265 212.686C21.8973 212.668 21.9639 212.68 22.0263 212.721C22.0887 212.762 22.1245 212.818 22.1339 212.888C22.1452 212.955 22.1303 213.019 22.0894 213.082L21.2057 214.427L21.1592 214.333L22.1571 214.988L22.0862 214.999L22.8353 213.859C22.8763 213.796 22.9312 213.758 23.0001 213.744C23.071 213.726 23.1391 213.739 23.2044 213.782C23.2668 213.823 23.3026 213.879 23.312 213.948C23.3233 214.015 23.3084 214.08 23.2675 214.142L22.5242 215.274L22.5046 215.216L23.5337 215.892L23.4776 215.9L24.3525 214.568C24.3935 214.506 24.4499 214.468 24.5218 214.456C24.5926 214.439 24.6562 214.449 24.7127 214.486C24.775 214.527 24.8124 214.583 24.8247 214.655C24.836 214.722 24.8212 214.787 24.7802 214.849L23.7677 216.39C23.7268 216.453 23.6709 216.493 23.6 216.51C23.5262 216.525 23.4566 216.511 23.3913 216.468L20.7272 214.719C20.6619 214.676 20.623 214.618 20.6107 214.546C20.5954 214.473 20.6083 214.405 20.6492 214.342Z" fill="#40444D"/>
<path d="M22.5846 218.295C22.4442 218.509 22.2896 218.679 22.121 218.807C21.9523 218.934 21.75 219.028 21.5139 219.09C21.4686 219.107 21.4238 219.114 21.3795 219.11C21.3341 219.102 21.2936 219.086 21.2579 219.062C21.2015 219.025 21.1646 218.971 21.1474 218.901C21.1302 218.83 21.142 218.763 21.183 218.701C21.2142 218.653 21.2598 218.619 21.3198 218.599C21.4979 218.555 21.6536 218.489 21.7871 218.402C21.9225 218.313 22.0448 218.185 22.154 218.018C22.2321 217.9 22.284 217.779 22.3097 217.655C22.3374 217.529 22.3381 217.415 22.3118 217.312C22.2855 217.21 22.2293 217.13 22.1431 217.074C22.0362 217.004 21.9281 216.977 21.8188 216.995C21.7085 217.007 21.5931 217.057 21.4724 217.144C21.3508 217.225 21.221 217.335 21.083 217.474C20.9587 217.605 20.8338 217.715 20.7082 217.802C20.5846 217.887 20.4599 217.947 20.334 217.984C20.2051 218.018 20.0755 218.024 19.9453 218.003C19.8151 217.981 19.6831 217.926 19.5495 217.838C19.3683 217.719 19.2436 217.569 19.1753 217.388C19.1071 217.208 19.0909 217.012 19.127 216.802C19.163 216.592 19.2483 216.384 19.3829 216.179C19.5058 215.992 19.6506 215.836 19.8173 215.712C19.981 215.586 20.145 215.504 20.3094 215.468C20.4186 215.437 20.5088 215.446 20.5801 215.492C20.6335 215.528 20.6694 215.583 20.6876 215.659C20.7049 215.73 20.695 215.793 20.6579 215.85C20.6306 215.891 20.5953 215.919 20.552 215.933C20.4703 215.948 20.3838 215.982 20.2926 216.037C20.1983 216.09 20.1076 216.154 20.0204 216.228C19.9351 216.3 19.8652 216.377 19.8106 216.46C19.7228 216.594 19.667 216.721 19.6432 216.841C19.6164 216.96 19.6191 217.066 19.6512 217.159C19.6805 217.25 19.7381 217.324 19.8243 217.381C19.9252 217.447 20.0269 217.474 20.1293 217.46C20.2337 217.444 20.3408 217.397 20.4507 217.321C20.5575 217.242 20.6712 217.147 20.7917 217.034C20.9346 216.894 21.0703 216.775 21.1987 216.677C21.3291 216.575 21.4592 216.503 21.589 216.461C21.7158 216.417 21.8468 216.405 21.982 216.426C22.1172 216.447 22.262 216.508 22.4164 216.609C22.5946 216.726 22.7174 216.879 22.7847 217.068C22.852 217.257 22.8682 217.459 22.8332 217.674C22.8001 217.886 22.7173 218.093 22.5846 218.295Z" fill="#40444D"/>
<path d="M260.972 414.145C294.106 414.145 320.967 387.285 320.967 354.15C320.967 321.016 294.106 294.155 260.972 294.155C227.837 294.155 200.977 321.016 200.977 354.15C200.977 387.285 227.837 414.145 260.972 414.145Z" fill="#598392" stroke="#114559" stroke-width="1.80092" stroke-miterlimit="10"/>
<path d="M263.071 348.896L243.746 320.583L242.092 318.034H229.312L231.01 320.583L255.554 355.886V388.125L255.562 390.166V390.681L266.333 390.645V390.136V388.125V354.251L291.085 320.583L292.523 318.542L292.879 318.034H285.659L263.071 348.896Z" fill="#F4F6F8"/>
<g filter="url(#filter0_d_6469_61300)">
<path d="M0 40H131C143.15 40 153 49.8497 153 62C153 74.1503 143.15 84 131 84H0V40Z" fill="#598392"/>
<path d="M25.386 68V56.264H28.338L30.21 61.484C30.33 61.832 30.438 62.186 30.534 62.546C30.642 62.894 30.75 63.26 30.858 63.644H30.93C31.038 63.26 31.14 62.894 31.236 62.546C31.332 62.186 31.44 61.832 31.56 61.484L33.396 56.264H36.348V68H33.918V63.698C33.918 63.314 33.936 62.864 33.972 62.348C34.02 61.82 34.068 61.298 34.116 60.782C34.176 60.254 34.23 59.798 34.278 59.414H34.206L33.252 62.51L31.596 66.992H30.048L28.41 62.51L27.492 59.414H27.42C27.468 59.798 27.516 60.254 27.564 60.782C27.624 61.298 27.672 61.82 27.708 62.348C27.744 62.864 27.762 63.314 27.762 63.698V68H25.386ZM41.1309 68.216C40.5909 68.216 40.1169 68.096 39.7089 67.856C39.3129 67.616 39.0069 67.292 38.7909 66.884C38.5749 66.476 38.4669 66.02 38.4669 65.516C38.4669 64.556 38.8629 63.818 39.6549 63.302C40.4469 62.774 41.7249 62.42 43.4889 62.24C43.4769 61.976 43.4169 61.754 43.3089 61.574C43.2129 61.382 43.0629 61.238 42.8589 61.142C42.6549 61.034 42.3969 60.98 42.0849 60.98C41.7129 60.98 41.3349 61.046 40.9509 61.178C40.5669 61.31 40.1529 61.502 39.7089 61.754L38.7729 60.026C39.1569 59.786 39.5529 59.582 39.9609 59.414C40.3689 59.234 40.7889 59.096 41.2209 59C41.6649 58.904 42.1209 58.856 42.5889 58.856C43.3569 58.856 43.9989 59.006 44.5149 59.306C45.0429 59.594 45.4449 60.038 45.7209 60.638C45.9969 61.226 46.1349 61.982 46.1349 62.906V68H43.9749L43.7949 67.082H43.7229C43.3389 67.418 42.9369 67.694 42.5169 67.91C42.0969 68.114 41.6349 68.216 41.1309 68.216ZM42.0129 66.146C42.3129 66.146 42.5769 66.08 42.8049 65.948C43.0329 65.816 43.2609 65.636 43.4889 65.408V63.896C42.8649 63.98 42.3669 64.088 41.9949 64.22C41.6349 64.352 41.3769 64.514 41.2209 64.706C41.0769 64.886 41.0049 65.09 41.0049 65.318C41.0049 65.594 41.0949 65.804 41.2749 65.948C41.4669 66.08 41.7129 66.146 42.0129 66.146ZM48.3731 71.312V59.072H50.5331L50.7131 59.954H50.7851C51.1331 59.63 51.5291 59.366 51.9731 59.162C52.4171 58.958 52.8671 58.856 53.3231 58.856C54.0431 58.856 54.6611 59.042 55.1771 59.414C55.7051 59.786 56.1071 60.314 56.3831 60.998C56.6711 61.682 56.8151 62.48 56.8151 63.392C56.8151 64.412 56.6351 65.282 56.2751 66.002C55.9151 66.722 55.4471 67.274 54.8711 67.658C54.3071 68.03 53.7011 68.216 53.0531 68.216C52.6811 68.216 52.3091 68.138 51.9371 67.982C51.5771 67.814 51.2411 67.58 50.9291 67.28L51.0191 68.702V71.312H48.3731ZM52.4411 66.056C52.7411 66.056 53.0171 65.966 53.2691 65.786C53.5331 65.606 53.7371 65.324 53.8811 64.94C54.0251 64.544 54.0971 64.04 54.0971 63.428C54.0971 62.888 54.0371 62.444 53.9171 62.096C53.8091 61.736 53.6411 61.466 53.4131 61.286C53.1851 61.106 52.8971 61.016 52.5491 61.016C52.2851 61.016 52.0271 61.082 51.7751 61.214C51.5351 61.334 51.2831 61.538 51.0191 61.826V65.48C51.2591 65.684 51.4991 65.834 51.7391 65.93C51.9911 66.014 52.2251 66.056 52.4411 66.056ZM60.7481 68.216C60.2081 68.216 59.7341 68.096 59.3261 67.856C58.9301 67.616 58.6241 67.292 58.4081 66.884C58.1921 66.476 58.0841 66.02 58.0841 65.516C58.0841 64.556 58.4801 63.818 59.2721 63.302C60.0641 62.774 61.3421 62.42 63.1061 62.24C63.0941 61.976 63.0341 61.754 62.9261 61.574C62.8301 61.382 62.6801 61.238 62.4761 61.142C62.2721 61.034 62.0141 60.98 61.7021 60.98C61.3301 60.98 60.9521 61.046 60.5681 61.178C60.1841 61.31 59.7701 61.502 59.3261 61.754L58.3901 60.026C58.7741 59.786 59.1701 59.582 59.5781 59.414C59.9861 59.234 60.4061 59.096 60.8381 59C61.2821 58.904 61.7381 58.856 62.2061 58.856C62.9741 58.856 63.6161 59.006 64.1321 59.306C64.6601 59.594 65.0621 60.038 65.3381 60.638C65.6141 61.226 65.7521 61.982 65.7521 62.906V68H63.5921L63.4121 67.082H63.3401C62.9561 67.418 62.5541 67.694 62.1341 67.91C61.7141 68.114 61.2521 68.216 60.7481 68.216ZM61.6301 66.146C61.9301 66.146 62.1941 66.08 62.4221 65.948C62.6501 65.816 62.8781 65.636 63.1061 65.408V63.896C62.4821 63.98 61.9841 64.088 61.6121 64.22C61.2521 64.352 60.9941 64.514 60.8381 64.706C60.6941 64.886 60.6221 65.09 60.6221 65.318C60.6221 65.594 60.7121 65.804 60.8921 65.948C61.0841 66.08 61.3301 66.146 61.6301 66.146ZM74.7798 68.216C73.6758 68.216 72.7878 67.802 72.1158 66.974C71.4558 66.134 71.1258 64.988 71.1258 63.536C71.1258 62.564 71.2998 61.73 71.6478 61.034C72.0078 60.338 72.4698 59.804 73.0338 59.432C73.6098 59.048 74.2098 58.856 74.8338 58.856C75.3258 58.856 75.7398 58.94 76.0758 59.108C76.4118 59.276 76.7298 59.504 77.0298 59.792L76.9218 58.424V55.382H79.5678V68H77.4078L77.2278 67.118H77.1558C76.8438 67.43 76.4778 67.694 76.0578 67.91C75.6378 68.114 75.2118 68.216 74.7798 68.216ZM75.4638 66.056C75.7518 66.056 76.0158 65.996 76.2558 65.876C76.4958 65.756 76.7178 65.546 76.9218 65.246V61.592C76.6938 61.376 76.4538 61.226 76.2018 61.142C75.9498 61.058 75.6978 61.016 75.4458 61.016C75.1578 61.016 74.8938 61.106 74.6538 61.286C74.4138 61.466 74.2158 61.742 74.0598 62.114C73.9158 62.474 73.8438 62.936 73.8438 63.5C73.8438 64.376 73.9878 65.024 74.2758 65.444C74.5638 65.852 74.9598 66.056 75.4638 66.056ZM84.1622 68.216C83.6222 68.216 83.1482 68.096 82.7402 67.856C82.3442 67.616 82.0382 67.292 81.8222 66.884C81.6062 66.476 81.4982 66.02 81.4982 65.516C81.4982 64.556 81.8942 63.818 82.6862 63.302C83.4782 62.774 84.7562 62.42 86.5202 62.24C86.5082 61.976 86.4482 61.754 86.3402 61.574C86.2442 61.382 86.0942 61.238 85.8902 61.142C85.6862 61.034 85.4282 60.98 85.1162 60.98C84.7442 60.98 84.3662 61.046 83.9822 61.178C83.5982 61.31 83.1842 61.502 82.7402 61.754L81.8042 60.026C82.1882 59.786 82.5842 59.582 82.9922 59.414C83.4002 59.234 83.8202 59.096 84.2522 59C84.6962 58.904 85.1522 58.856 85.6202 58.856C86.3882 58.856 87.0302 59.006 87.5462 59.306C88.0742 59.594 88.4762 60.038 88.7522 60.638C89.0282 61.226 89.1662 61.982 89.1662 62.906V68H87.0062L86.8262 67.082H86.7542C86.3702 67.418 85.9682 67.694 85.5482 67.91C85.1282 68.114 84.6662 68.216 84.1622 68.216ZM85.0442 66.146C85.3442 66.146 85.6082 66.08 85.8362 65.948C86.0642 65.816 86.2922 65.636 86.5202 65.408V63.896C85.8962 63.98 85.3982 64.088 85.0262 64.22C84.6662 64.352 84.4082 64.514 84.2522 64.706C84.1082 64.886 84.0362 65.09 84.0362 65.318C84.0362 65.594 84.1262 65.804 84.3062 65.948C84.4982 66.08 84.7442 66.146 85.0442 66.146ZM97.1859 68L93.7119 56.264H96.5199L97.8519 61.736C97.9599 62.156 98.0619 62.576 98.1579 62.996C98.2659 63.416 98.3679 63.83 98.4639 64.238C98.5719 64.646 98.6859 65.066 98.8059 65.498H98.8779C98.9859 65.066 99.0879 64.646 99.1839 64.238C99.2799 63.83 99.3819 63.416 99.4899 62.996C99.5979 62.576 99.7059 62.156 99.8139 61.736L101.272 56.264H103.972L100.372 68H97.1859ZM105.01 68V59.072H107.656V68H105.01ZM106.324 57.758C105.88 57.758 105.52 57.632 105.244 57.38C104.968 57.128 104.83 56.792 104.83 56.372C104.83 55.952 104.968 55.616 105.244 55.364C105.52 55.112 105.88 54.986 106.324 54.986C106.768 54.986 107.128 55.112 107.404 55.364C107.68 55.616 107.818 55.952 107.818 56.372C107.818 56.792 107.68 57.128 107.404 57.38C107.128 57.632 106.768 57.758 106.324 57.758ZM113.17 68.216C112.066 68.216 111.178 67.802 110.506 66.974C109.846 66.134 109.516 64.988 109.516 63.536C109.516 62.564 109.69 61.73 110.038 61.034C110.398 60.338 110.86 59.804 111.424 59.432C112 59.048 112.6 58.856 113.224 58.856C113.716 58.856 114.13 58.94 114.466 59.108C114.802 59.276 115.12 59.504 115.42 59.792L115.312 58.424V55.382H117.958V68H115.798L115.618 67.118H115.546C115.234 67.43 114.868 67.694 114.448 67.91C114.028 68.114 113.602 68.216 113.17 68.216ZM113.854 66.056C114.142 66.056 114.406 65.996 114.646 65.876C114.886 65.756 115.108 65.546 115.312 65.246V61.592C115.084 61.376 114.844 61.226 114.592 61.142C114.34 61.058 114.088 61.016 113.836 61.016C113.548 61.016 113.284 61.106 113.044 61.286C112.804 61.466 112.606 61.742 112.45 62.114C112.306 62.474 112.234 62.936 112.234 63.5C112.234 64.376 112.378 65.024 112.666 65.444C112.954 65.852 113.35 66.056 113.854 66.056ZM122.553 68.216C122.013 68.216 121.539 68.096 121.131 67.856C120.735 67.616 120.429 67.292 120.213 66.884C119.997 66.476 119.889 66.02 119.889 65.516C119.889 64.556 120.285 63.818 121.077 63.302C121.869 62.774 123.147 62.42 124.911 62.24C124.899 61.976 124.839 61.754 124.731 61.574C124.635 61.382 124.485 61.238 124.281 61.142C124.077 61.034 123.819 60.98 123.507 60.98C123.135 60.98 122.757 61.046 122.373 61.178C121.989 61.31 121.575 61.502 121.131 61.754L120.195 60.026C120.579 59.786 120.975 59.582 121.383 59.414C121.791 59.234 122.211 59.096 122.643 59C123.087 58.904 123.543 58.856 124.011 58.856C124.779 58.856 125.421 59.006 125.937 59.306C126.465 59.594 126.867 60.038 127.143 60.638C127.419 61.226 127.557 61.982 127.557 62.906V68H125.397L125.217 67.082H125.145C124.761 67.418 124.359 67.694 123.939 67.91C123.519 68.114 123.057 68.216 122.553 68.216ZM123.435 66.146C123.735 66.146 123.999 66.08 124.227 65.948C124.455 65.816 124.683 65.636 124.911 65.408V63.896C124.287 63.98 123.789 64.088 123.417 64.22C123.057 64.352 122.799 64.514 122.643 64.706C122.499 64.886 122.427 65.09 122.427 65.318C122.427 65.594 122.517 65.804 122.697 65.948C122.889 66.08 123.135 66.146 123.435 66.146Z" fill="white"/>
</g>
</g>
<defs>
<filter id="filter0_d_6469_61300" x="-6" y="34" width="173" height="64" filterUnits="userSpaceOnUse" color-interpolation-filters="sRGB">
<feFlood flood-opacity="0" result="BackgroundImageFix"/>
<feColorMatrix in="SourceAlpha" type="matrix" values="0 0 0 0 0 0 0 0 0 0 0 0 0 0 0 0 0 0 127 0" result="hardAlpha"/>
<feOffset dx="4" dy="4"/>
<feGaussianBlur stdDeviation="5"/>
<feComposite in2="hardAlpha" operator="out"/>
<feColorMatrix type="matrix" values="0 0 0 0 0 0 0 0 0 0 0 0 0 0 0 0 0 0 0.25 0"/>
<feBlend mode="normal" in2="BackgroundImageFix" result="effect1_dropShadow_6469_61300"/>
<feBlend mode="normal" in="SourceGraphic" in2="effect1_dropShadow_6469_61300" result="shape"/>
</filter>
<clipPath id="clip0_6469_61300">
<rect width="522" height="431" fill="white"/>
</clipPath>
</defs>
</svg>
