<svg width="16" height="17" viewBox="0 0 16 17" fill="none" xmlns="http://www.w3.org/2000/svg">
<g clip-path="url(#clip0_6984_100683)">
<path d="M14.3538 3.37848V13.6205C14.3538 13.9791 14.2489 14.2976 14.0392 14.5758C13.8294 14.8545 13.5509 15.0434 13.2038 15.1425L8.61182 16.4585C8.55137 16.4749 8.48693 16.4871 8.41848 16.4951C8.34915 16.5036 8.28404 16.5078 8.22315 16.5078C8.04715 16.5078 7.88715 16.4845 7.74315 16.4378C7.60048 16.3907 7.45471 16.3258 7.30582 16.2431L4.30248 14.5471C4.19226 14.4863 4.10537 14.4049 4.04182 14.3031C3.97826 14.2009 3.94648 14.0865 3.94648 13.9598C3.94648 13.7669 4.01404 13.6029 4.14915 13.4678C4.28426 13.3323 4.44848 13.2645 4.64182 13.2645H8.52915V3.81715L5.60915 4.85915C5.37226 4.94226 5.18204 5.08848 5.03848 5.29781C4.89537 5.50759 4.82382 5.73648 4.82382 5.98448V11.3698C4.82382 11.5903 4.76871 11.7929 4.65848 11.9778C4.54737 12.1627 4.3956 12.3074 4.20315 12.4118L2.82182 13.1651C2.69471 13.2309 2.56782 13.2638 2.44115 13.2638C2.22026 13.2638 2.03271 13.1867 1.87848 13.0325C1.72382 12.8783 1.64648 12.6907 1.64648 12.4698V4.88315C1.64648 4.60759 1.71982 4.34315 1.86648 4.08981C2.01226 3.83604 2.20648 3.64026 2.44915 3.50248L7.38048 0.697812C7.49071 0.637368 7.60937 0.590701 7.73648 0.557813C7.86315 0.524479 7.98982 0.507812 8.11648 0.507812C8.21026 0.507812 8.29471 0.514701 8.36982 0.528479C8.4436 0.542257 8.52448 0.562924 8.61248 0.590479L13.2045 1.85648C13.3752 1.90537 13.5307 1.97848 13.6712 2.07581C13.812 2.17226 13.9336 2.28781 14.0358 2.42248C14.138 2.55803 14.2165 2.70692 14.2712 2.86915C14.3267 3.03226 14.3538 3.20203 14.3538 3.37848ZM13.2952 13.6205V3.37848C13.2952 3.25715 13.2596 3.15092 13.1885 3.05981C13.116 2.96915 13.022 2.90692 12.9065 2.87315L10.6478 2.25315C10.4714 2.20381 10.2949 2.1527 10.1185 2.09981C9.94204 2.04781 9.7656 1.99981 9.58915 1.95581V15.0758L12.9065 14.1245C13.022 14.0916 13.1158 14.0294 13.1878 13.9378C13.2594 13.8471 13.2952 13.7411 13.2952 13.6198V13.6205Z" fill="#384252"/>
</g>
<defs>
<clipPath id="clip0_6984_100683">
<rect width="16" height="16" fill="white" transform="translate(0 0.507812)"/>
</clipPath>
</defs>
</svg>
