<svg width="16" height="17" viewBox="0 0 16 17" fill="none" xmlns="http://www.w3.org/2000/svg">
<g clip-path="url(#clip0_6984_100679)">
<path d="M5.25333 8.53448C5.25333 8.73448 5.22889 8.92781 5.18 9.11448C5.13556 9.2967 5.06222 9.46115 4.96 9.60781C4.86222 9.75448 4.73333 9.87004 4.57333 9.95448C4.40889 10.0434 4.21556 10.0878 3.99333 10.0878C3.77111 10.0878 3.58222 10.0434 3.42667 9.95448C3.27111 9.86115 3.14444 9.73892 3.04667 9.58781C2.94889 9.44115 2.87556 9.27448 2.82667 9.08781C2.78222 8.90115 2.76 8.71003 2.76 8.51448C2.76 8.31892 2.78222 8.12559 2.82667 7.93448C2.87111 7.74337 2.94667 7.57448 3.05333 7.42781C3.15111 7.2767 3.28222 7.1567 3.44667 7.06781C3.60667 6.97892 3.8 6.93448 4.02667 6.93448C4.25333 6.93448 4.44444 6.97892 4.6 7.06781C4.75556 7.16115 4.88222 7.28337 4.98 7.43448C5.07778 7.58559 5.14667 7.7567 5.18667 7.94781C5.23111 8.13892 5.25333 8.33448 5.25333 8.53448ZM16 8.50781V14.7611C16 14.9656 15.9267 15.1434 15.78 15.2945C15.6333 15.4367 15.4556 15.5078 15.2467 15.5078H4.75333C4.54889 15.5078 4.37111 15.4345 4.22 15.2878C4.07778 15.1411 4.00667 14.9634 4.00667 14.7545V12.5078H0.666667C0.484444 12.5078 0.328889 12.4411 0.2 12.3078C0.0666667 12.1789 0 12.0234 0 11.8411V5.17448C0 4.99226 0.0666667 4.8367 0.2 4.70781C0.324444 4.57448 0.48 4.50781 0.666667 4.50781H5V2.20781C5 2.01226 5.06667 1.84559 5.2 1.70781C5.33333 1.57448 5.5 1.50781 5.7 1.50781H14.3C14.4956 1.50781 14.6622 1.57448 14.8 1.70781C14.9333 1.84115 15 2.00781 15 2.20781V7.74115L15.8267 8.22115H15.8333C15.8778 8.25226 15.9178 8.29226 15.9533 8.34115C15.9844 8.39448 16 8.45004 16 8.50781ZM12 3.00781V5.00781H14V3.00781H12ZM12 6.00781V8.00781H14V6.00781H12ZM12 9.00781V10.2278L14.0333 9.00781H12ZM8.5 3.00781V5.00781H11V3.00781H8.5ZM8.5 6.00781V8.00781H11V6.00781H8.5ZM8.5 9.00781V10.3611L10.1067 11.3611L11 10.8278V9.00781H8.5ZM6 3.00781V4.50781H7.33333L7.42 4.51448L7.5 4.54115V3.00781H6ZM3.98667 11.1611C4.38667 11.1611 4.74222 11.0945 5.05333 10.9611C5.36444 10.8189 5.62889 10.6278 5.84667 10.3878C6.06 10.1434 6.22222 9.85892 6.33333 9.53448C6.44444 9.20559 6.5 8.84781 6.5 8.46115C6.5 8.09226 6.44444 7.74781 6.33333 7.42781C6.22667 7.11226 6.06889 6.8367 5.86 6.60115C5.65111 6.36559 5.39556 6.18115 5.09333 6.04781C4.79111 5.91448 4.44667 5.84781 4.06 5.84781C3.65111 5.84781 3.28667 5.91448 2.96667 6.04781C2.65111 6.18115 2.38444 6.37003 2.16667 6.61448C1.94444 6.85448 1.77778 7.14337 1.66667 7.48115C1.55556 7.81003 1.5 8.17226 1.5 8.56781C1.5 8.94559 1.55778 9.29226 1.67333 9.60781C1.78889 9.92781 1.95333 10.2011 2.16667 10.4278C2.38 10.6589 2.64 10.8389 2.94667 10.9678C3.25333 11.1011 3.6 11.1678 3.98667 11.1678V11.1611ZM5 14.5078H13.26L8 11.2278V11.8411C8 12.0234 7.93333 12.1789 7.8 12.3078C7.67111 12.4411 7.51556 12.5078 7.33333 12.5078H5V14.5078ZM15 14.4211V9.59448L11.0667 11.9545L15 14.4211Z" fill="#384252"/>
</g>
<defs>
<clipPath id="clip0_6984_100679">
<rect width="16" height="16" fill="white" transform="translate(0 0.507812)"/>
</clipPath>
</defs>
</svg>
