<svg width="60" height="60" viewBox="0 0 60 60" fill="none" xmlns="http://www.w3.org/2000/svg">
<rect width="60" height="60" rx="12" fill="#F4F6F8"/>
<path d="M36.5549 25.5711C35.3914 25.5711 34.254 25.2261 33.2865 24.5796C32.319 23.9332 31.565 23.0144 31.1197 21.9394C30.6744 20.8644 30.5579 19.6815 30.7849 18.5403C31.0119 17.3991 31.5722 16.3509 32.395 15.5281C33.2177 14.7053 34.266 14.145 35.4072 13.918C36.5484 13.691 37.7313 13.8075 38.8063 14.2528C39.8813 14.6981 40.8001 15.4521 41.4465 16.4196C42.093 17.3871 42.438 18.5245 42.438 19.6881C42.438 21.2483 41.8182 22.7447 40.7149 23.848C39.6116 24.9513 38.1152 25.5711 36.5549 25.5711ZM36.5549 15.5279C35.7238 15.5279 34.9114 15.7743 34.2203 16.2361C33.5293 16.6978 32.9907 17.3541 32.6726 18.122C32.3546 18.8898 32.2714 19.7347 32.4335 20.5499C32.5956 21.365 32.9959 22.1138 33.5835 22.7015C34.1712 23.2892 34.92 23.6894 35.7351 23.8515C36.5503 24.0137 37.3952 23.9305 38.163 23.6124C38.9309 23.2943 39.5872 22.7557 40.0489 22.0647C40.5107 21.3736 40.7571 20.5612 40.7571 19.7301C40.7571 18.6156 40.3144 17.5467 39.5263 16.7587C38.7383 15.9706 37.6694 15.5279 36.5549 15.5279Z" fill="#012432"/>
<path d="M38.6486 42.195H34.4464C32.204 42.1883 30.0556 41.2928 28.4724 39.7048C26.8891 38.1168 26 35.9658 26 33.7234C26.0022 32.0211 26.6794 30.3892 27.8831 29.1855C29.0868 27.9819 30.7187 27.3047 32.4209 27.3024H40.6909C42.3931 27.3047 44.025 27.9819 45.2287 29.1855C46.4324 30.3892 47.1096 32.0211 47.1118 33.7234C47.1118 35.9687 46.2204 38.1222 44.6335 39.7107C43.0466 41.2992 40.8939 42.1928 38.6486 42.195ZM32.4209 28.9833C31.1645 28.9855 29.9601 29.4856 29.0717 30.3741C28.1832 31.2625 27.6831 32.4669 27.6809 33.7234C27.6809 35.5229 28.3952 37.2489 29.6669 38.5222C30.9386 39.7954 32.6636 40.5119 34.4632 40.5141H38.6654C40.465 40.5119 42.1901 39.7954 43.4617 38.5222C44.7334 37.2489 45.4477 35.5229 45.4477 33.7234C45.4455 32.4669 44.9454 31.2625 44.0569 30.3741C43.1685 29.4856 41.9641 28.9855 40.7077 28.9833H32.4209Z" fill="#012432"/>
<path d="M23.4417 29.5711C22.2781 29.5711 21.1407 29.2261 20.1732 28.5796C19.2057 27.9332 18.4517 27.0144 18.0064 25.9394C17.5611 24.8644 17.4446 23.6815 17.6716 22.5403C17.8986 21.3991 18.4589 20.3509 19.2817 19.5281C20.1045 18.7053 21.1527 18.145 22.2939 17.918C23.4351 17.691 24.618 17.8075 25.693 18.2528C26.768 18.6981 27.6868 19.4521 28.3332 20.4196C28.9797 21.3871 29.3247 22.5245 29.3247 23.6881C29.3247 25.2483 28.7049 26.7447 27.6016 27.848C26.4983 28.9513 25.0019 29.5711 23.4417 29.5711ZM23.4417 19.5279C22.6105 19.5279 21.7981 19.7743 21.107 20.2361C20.416 20.6978 19.8774 21.3541 19.5593 22.122C19.2413 22.8898 19.1581 23.7347 19.3202 24.5499C19.4824 25.365 19.8826 26.1138 20.4703 26.7015C21.058 27.2892 21.8067 27.6894 22.6219 27.8515C23.437 28.0137 24.2819 27.9305 25.0498 27.6124C25.8176 27.2943 26.4739 26.7557 26.9357 26.0647C27.3974 25.3736 27.6438 24.5612 27.6438 23.7301C27.6438 22.6156 27.2011 21.5467 26.4131 20.7587C25.625 19.9706 24.5562 19.5279 23.4417 19.5279Z" fill="#012432"/>
<rect x="22" y="33.5001" width="9" height="9" fill="#F4F6F8"/>
<path d="M25.5353 47.195L25.5363 47.195C28.0467 47.1925 30.4534 46.1935 32.2277 44.4175C34.0019 42.6415 34.9985 40.2338 34.9985 37.7234V37.7221C34.9959 35.755 34.2134 33.8693 32.8225 32.4784C31.4316 31.0875 29.5459 30.305 27.5789 30.3024H27.5776L19.3077 30.3024L19.3064 30.3024C17.3393 30.305 15.4536 31.0875 14.0627 32.4784C12.6718 33.8693 11.8893 35.755 11.8867 37.7221V37.7234C11.8867 40.2305 12.8807 42.6354 14.6509 44.4109C16.4211 46.1863 18.823 47.1875 21.3301 47.195H21.3331L25.5353 47.195ZM16.6655 35.0812C17.3667 34.38 18.3171 33.9853 19.3087 33.9833H27.5934C28.585 33.9853 29.5354 34.38 30.2366 35.0812C30.9377 35.7823 31.3324 36.7326 31.3344 37.7241C31.3343 39.2584 30.7252 40.7299 29.6409 41.8155C28.5567 42.9011 27.0859 43.512 25.5516 43.5141C25.5514 43.5141 25.5511 43.5141 25.5509 43.5141H21.3512C21.3509 43.5141 21.3507 43.5141 21.3504 43.5141C19.8161 43.512 18.3454 42.9011 17.2611 41.8155C16.1769 40.73 15.5678 39.2585 15.5676 37.7243C15.5696 36.7328 15.9643 35.7824 16.6655 35.0812Z" fill="#012432" stroke="#F4F6F8" stroke-width="2"/>
</svg>
