<svg width="45" height="44" viewBox="0 0 45 44" fill="none" xmlns="http://www.w3.org/2000/svg">
<g id="ph:medal-light">
<path id="Vector" d="M37.5312 16.5001C37.5331 14.0022 36.9018 11.5446 35.6965 9.35672C34.4912 7.16888 32.7511 5.32219 30.6387 3.98908C28.5263 2.65598 26.1105 1.87994 23.6169 1.73345C21.1233 1.58696 18.6332 2.07479 16.3793 3.15138C14.1253 4.22798 12.1809 5.85822 10.7277 7.88987C9.27448 9.92153 8.35984 12.2883 8.06917 14.7692C7.7785 17.2502 8.1213 19.7643 9.06554 22.0768C10.0098 24.3894 11.5247 26.4249 13.4688 27.9933V41.2501C13.4689 41.4258 13.514 41.5986 13.5998 41.752C13.6855 41.9054 13.809 42.0344 13.9586 42.1266C14.121 42.228 14.3086 42.2816 14.5 42.2813C14.6599 42.2814 14.8176 42.2443 14.9606 42.173L22.75 38.2783L30.5411 42.173C30.6983 42.2511 30.8728 42.2878 31.0481 42.2796C31.2235 42.2714 31.3938 42.2186 31.543 42.1262C31.6922 42.0338 31.8154 41.9048 31.9008 41.7515C31.9863 41.5982 32.0312 41.4256 32.0312 41.2501V27.9933C33.7483 26.6101 35.1336 24.8597 36.0854 22.8708C37.0372 20.8819 37.5312 18.705 37.5312 16.5001ZM10.0313 16.5001C10.0313 13.9845 10.7772 11.5255 12.1747 9.43389C13.5723 7.34231 15.5587 5.71211 17.8827 4.74946C20.2068 3.78681 22.7641 3.53493 25.2313 4.02569C27.6985 4.51644 29.9648 5.72779 31.7435 7.50654C33.5223 9.28529 34.7336 11.5515 35.2244 14.0187C35.7151 16.4859 35.4632 19.0433 34.5006 21.3673C33.5379 23.6914 31.9077 25.6778 29.8162 27.0753C27.7246 28.4729 25.2655 29.2188 22.75 29.2188C19.378 29.2147 16.1453 27.8734 13.761 25.489C11.3767 23.1047 10.0353 19.872 10.0313 16.5001ZM29.9688 39.5811L23.2089 36.2021C23.0659 36.1307 22.9082 36.0935 22.7483 36.0935C22.5884 36.0935 22.4307 36.1307 22.2877 36.2021L15.5313 39.5811V29.3907C17.7356 30.6291 20.2216 31.2796 22.75 31.2796C25.2784 31.2796 27.7644 30.6291 29.9688 29.3907V39.5811ZM22.75 25.7813C24.5857 25.7813 26.3801 25.237 27.9064 24.2171C29.4327 23.1973 30.6223 21.7478 31.3248 20.0518C32.0272 18.3559 32.211 16.4898 31.8529 14.6894C31.4948 12.889 30.6108 11.2352 29.3128 9.93722C28.0148 8.63921 26.3611 7.75526 24.5607 7.39714C22.7603 7.03902 20.8941 7.22282 19.1982 7.92529C17.5023 8.62777 16.0528 9.81737 15.0329 11.3437C14.0131 12.87 13.4688 14.6644 13.4688 16.5001C13.4715 18.9608 14.4502 21.3199 16.1902 23.0599C17.9302 24.7999 20.2893 25.7786 22.75 25.7813ZM22.75 9.2813C24.1777 9.2813 25.5734 9.70467 26.7605 10.4979C27.9476 11.2911 28.8729 12.4185 29.4193 13.7376C29.9656 15.0566 30.1086 16.5081 29.83 17.9084C29.5515 19.3087 28.864 20.5949 27.8544 21.6045C26.8449 22.614 25.5586 23.3016 24.1583 23.5801C22.758 23.8586 21.3066 23.7157 19.9875 23.1693C18.6685 22.6229 17.541 21.6977 16.7478 20.5106C15.9546 19.3235 15.5313 17.9278 15.5313 16.5001C15.5313 14.5855 16.2918 12.7494 17.6456 11.3956C18.9994 10.0418 20.8355 9.2813 22.75 9.2813Z" fill="#06C6A3"/>
</g>
</svg>
