<svg width="44" height="44" viewBox="0 0 44 44" fill="none" xmlns="http://www.w3.org/2000/svg">
<g id="ph:timer">
<path id="Vector" d="M22 6.875C18.7366 6.875 15.5465 7.84271 12.8331 9.65575C10.1197 11.4688 8.00484 14.0457 6.756 17.0607C5.50715 20.0757 5.18039 23.3933 5.81705 26.594C6.45371 29.7947 8.02518 32.7347 10.3327 35.0423C12.6403 37.3498 15.5803 38.9213 18.781 39.558C21.9817 40.1946 25.2993 39.8679 28.3143 38.619C31.3293 37.3702 33.9062 35.2553 35.7193 32.5419C37.5323 29.8285 38.5 26.6384 38.5 23.375C38.495 19.0005 36.755 14.8065 33.6617 11.7133C30.5685 8.62 26.3745 6.88 22 6.875ZM22 37.125C19.2805 37.125 16.6221 36.3186 14.3609 34.8077C12.0997 33.2968 10.3374 31.1494 9.29666 28.6369C8.25596 26.1244 7.98366 23.3597 8.51421 20.6925C9.04476 18.0253 10.3543 15.5753 12.2773 13.6523C14.2003 11.7293 16.6503 10.4197 19.3175 9.8892C21.9848 9.35866 24.7494 9.63095 27.2619 10.6717C29.7744 11.7124 31.9218 13.4747 33.4327 15.7359C34.9436 17.9971 35.75 20.6555 35.75 23.375C35.7459 27.0205 34.2959 30.5155 31.7182 33.0932C29.1405 35.6709 25.6455 37.1209 22 37.125ZM29.8478 15.5272C29.9757 15.6549 30.0771 15.8065 30.1463 15.9735C30.2155 16.1404 30.2511 16.3193 30.2511 16.5C30.2511 16.6807 30.2155 16.8596 30.1463 17.0265C30.0771 17.1935 29.9757 17.3451 29.8478 17.4728L22.9728 24.3478C22.8451 24.4756 22.6934 24.5769 22.5265 24.646C22.3596 24.7152 22.1807 24.7508 22 24.7508C21.8193 24.7508 21.6404 24.7152 21.4735 24.646C21.3066 24.5769 21.1549 24.4756 21.0272 24.3478C20.8994 24.2201 20.7981 24.0684 20.729 23.9015C20.6598 23.7346 20.6242 23.5557 20.6242 23.375C20.6242 23.1943 20.6598 23.0154 20.729 22.8485C20.7981 22.6816 20.8994 22.5299 21.0272 22.4022L27.9022 15.5272C28.0299 15.3993 28.1815 15.2979 28.3485 15.2287C28.5154 15.1595 28.6943 15.1239 28.875 15.1239C29.0557 15.1239 29.2346 15.1595 29.4016 15.2287C29.5685 15.2979 29.7201 15.3993 29.8478 15.5272ZM16.5 2.75C16.5 2.38533 16.6449 2.03559 16.9027 1.77773C17.1606 1.51987 17.5103 1.375 17.875 1.375H26.125C26.4897 1.375 26.8394 1.51987 27.0973 1.77773C27.3551 2.03559 27.5 2.38533 27.5 2.75C27.5 3.11467 27.3551 3.46441 27.0973 3.72227C26.8394 3.98013 26.4897 4.125 26.125 4.125H17.875C17.5103 4.125 17.1606 3.98013 16.9027 3.72227C16.6449 3.46441 16.5 3.11467 16.5 2.75Z" fill="#06C6A3"/>
</g>
</svg>
