<svg width="32" height="32" viewBox="0 0 32 32" fill="none" xmlns="http://www.w3.org/2000/svg">
<g id="ph:x-circle-fill">
<path id="Vector" d="M16 4C13.6266 4 11.3066 4.70379 9.33316 6.02236C7.35977 7.34094 5.8217 9.21508 4.91345 11.4078C4.0052 13.6005 3.76756 16.0133 4.23058 18.3411C4.6936 20.6689 5.83649 22.807 7.51472 24.4853C9.19295 26.1635 11.3311 27.3064 13.6589 27.7694C15.9867 28.2324 18.3995 27.9948 20.5922 27.0865C22.7849 26.1783 24.6591 24.6402 25.9776 22.6668C27.2962 20.6934 28 18.3734 28 16C27.9966 12.8184 26.7313 9.76814 24.4816 7.51843C22.2319 5.26872 19.1816 4.00336 16 4ZM20.3454 19.0392C20.4312 19.125 20.4992 19.2268 20.5456 19.3389C20.592 19.4509 20.6159 19.571 20.6159 19.6923C20.6159 19.8136 20.592 19.9337 20.5456 20.0457C20.4992 20.1578 20.4312 20.2596 20.3454 20.3454C20.2596 20.4311 20.1578 20.4992 20.0458 20.5456C19.9337 20.592 19.8136 20.6159 19.6923 20.6159C19.571 20.6159 19.4509 20.592 19.3389 20.5456C19.2268 20.4992 19.125 20.4311 19.0392 20.3454L16 17.305L12.9608 20.3454C12.875 20.4311 12.7732 20.4992 12.6611 20.5456C12.5491 20.592 12.429 20.6159 12.3077 20.6159C12.1864 20.6159 12.0663 20.592 11.9543 20.5456C11.8422 20.4992 11.7404 20.4311 11.6546 20.3454C11.5689 20.2596 11.5008 20.1578 11.4544 20.0457C11.408 19.9337 11.3841 19.8136 11.3841 19.6923C11.3841 19.571 11.408 19.4509 11.4544 19.3389C11.5008 19.2268 11.5689 19.125 11.6546 19.0392L14.695 16L11.6546 12.9608C11.4814 12.7876 11.3841 12.5526 11.3841 12.3077C11.3841 12.0627 11.4814 11.8278 11.6546 11.6546C11.8278 11.4814 12.0627 11.3841 12.3077 11.3841C12.5526 11.3841 12.7876 11.4814 12.9608 11.6546L16 14.695L19.0392 11.6546C19.125 11.5689 19.2268 11.5008 19.3389 11.4544C19.4509 11.408 19.571 11.3841 19.6923 11.3841C19.8136 11.3841 19.9337 11.408 20.0458 11.4544C20.1578 11.5008 20.2596 11.5689 20.3454 11.6546C20.4312 11.7404 20.4992 11.8422 20.5456 11.9542C20.592 12.0663 20.6159 12.1864 20.6159 12.3077C20.6159 12.429 20.592 12.5491 20.5456 12.6611C20.4992 12.7732 20.4312 12.875 20.3454 12.9608L17.305 16L20.3454 19.0392Z" fill="#CD0000"/>
</g>
</svg>
