<svg width="570" height="324" viewBox="0 0 570 324" fill="none" xmlns="http://www.w3.org/2000/svg">
<path d="M307.119 315.272V319.26H315.669V321.02H305.155V307.744H315.648V309.503H307.119V313.553H314.094V315.272H307.119ZM317.254 317.706H319.054C319.122 318.251 319.368 318.701 319.791 319.056C320.213 319.397 320.807 319.567 321.57 319.567C322.061 319.567 322.443 319.513 322.716 319.404C322.988 319.281 323.179 319.117 323.288 318.913C323.411 318.708 323.473 318.483 323.473 318.238C323.473 317.924 323.391 317.685 323.227 317.522C323.063 317.344 322.832 317.201 322.532 317.092C322.232 316.969 321.877 316.854 321.468 316.744C321.018 316.622 320.568 316.479 320.118 316.315C319.668 316.151 319.252 315.954 318.87 315.722C318.502 315.49 318.202 315.204 317.97 314.863C317.752 314.508 317.643 314.079 317.643 313.574C317.643 313.151 317.732 312.756 317.909 312.388C318.1 312.019 318.366 311.706 318.707 311.447C319.061 311.174 319.47 310.969 319.934 310.833C320.398 310.683 320.909 310.608 321.468 310.608C322.245 310.608 322.9 310.751 323.432 311.038C323.963 311.31 324.366 311.699 324.638 312.203C324.925 312.708 325.075 313.288 325.089 313.942H323.37C323.275 313.369 323.077 312.953 322.777 312.694C322.477 312.422 322.027 312.285 321.427 312.285C320.841 312.285 320.391 312.401 320.077 312.633C319.763 312.865 319.607 313.178 319.607 313.574C319.607 313.874 319.716 314.119 319.934 314.31C320.152 314.488 320.445 314.644 320.813 314.781C321.182 314.917 321.598 315.06 322.061 315.21C322.498 315.36 322.913 315.517 323.309 315.681C323.718 315.831 324.079 316.015 324.393 316.233C324.72 316.438 324.973 316.71 325.15 317.051C325.341 317.379 325.436 317.788 325.436 318.279C325.436 318.879 325.286 319.404 324.986 319.854C324.686 320.29 324.25 320.631 323.677 320.876C323.118 321.122 322.436 321.245 321.632 321.245C320.895 321.245 320.268 321.156 319.75 320.979C319.245 320.801 318.816 320.57 318.461 320.283C318.12 319.997 317.854 319.697 317.663 319.383C317.486 319.056 317.363 318.742 317.295 318.442C317.241 318.142 317.227 317.897 317.254 317.706ZM326.289 310.813H332.896V312.51H326.289V310.813ZM328.621 308.113H330.564V321.02H328.621V308.113ZM334.269 310.813H336.232V321.02H334.269V310.813ZM339.689 312.551C338.98 312.551 338.373 312.715 337.869 313.042C337.378 313.369 336.982 313.772 336.682 314.249C336.396 314.726 336.205 315.183 336.11 315.619L336.089 314.454C336.103 314.317 336.137 314.106 336.191 313.819C336.26 313.519 336.376 313.185 336.539 312.817C336.703 312.449 336.921 312.101 337.194 311.774C337.466 311.433 337.807 311.153 338.217 310.935C338.626 310.717 339.117 310.608 339.689 310.608V312.551ZM348.848 317.706H350.709C350.6 318.374 350.341 318.974 349.932 319.506C349.523 320.038 348.984 320.46 348.316 320.774C347.648 321.088 346.864 321.245 345.964 321.245C344.9 321.245 343.952 321.02 343.121 320.57C342.289 320.12 341.634 319.499 341.157 318.708C340.68 317.917 340.441 316.997 340.441 315.947C340.441 314.883 340.673 313.956 341.136 313.165C341.6 312.36 342.241 311.733 343.059 311.283C343.877 310.833 344.812 310.608 345.862 310.608C346.966 310.608 347.893 310.826 348.643 311.263C349.393 311.699 349.946 312.347 350.3 313.206C350.668 314.051 350.818 315.108 350.75 316.376H342.384C342.452 316.99 342.637 317.535 342.937 318.013C343.25 318.49 343.659 318.865 344.164 319.138C344.682 319.41 345.275 319.547 345.943 319.547C346.693 319.547 347.321 319.376 347.825 319.035C348.33 318.694 348.671 318.251 348.848 317.706ZM345.882 312.285C344.996 312.285 344.259 312.524 343.673 313.001C343.087 313.465 342.698 314.085 342.507 314.863H348.787C348.732 314.031 348.432 313.397 347.887 312.96C347.341 312.51 346.673 312.285 345.882 312.285ZM351.881 317.706H353.681C353.749 318.251 353.995 318.701 354.418 319.056C354.84 319.397 355.434 319.567 356.197 319.567C356.688 319.567 357.07 319.513 357.343 319.404C357.615 319.281 357.806 319.117 357.915 318.913C358.038 318.708 358.1 318.483 358.1 318.238C358.1 317.924 358.018 317.685 357.854 317.522C357.69 317.344 357.459 317.201 357.159 317.092C356.859 316.969 356.504 316.854 356.095 316.744C355.645 316.622 355.195 316.479 354.745 316.315C354.295 316.151 353.879 315.954 353.497 315.722C353.129 315.49 352.829 315.204 352.597 314.863C352.379 314.508 352.27 314.079 352.27 313.574C352.27 313.151 352.359 312.756 352.536 312.388C352.727 312.019 352.993 311.706 353.334 311.447C353.688 311.174 354.097 310.969 354.561 310.833C355.025 310.683 355.536 310.608 356.095 310.608C356.872 310.608 357.527 310.751 358.059 311.038C358.59 311.31 358.993 311.699 359.265 312.203C359.552 312.708 359.702 313.288 359.716 313.942H357.997C357.902 313.369 357.704 312.953 357.404 312.694C357.104 312.422 356.654 312.285 356.054 312.285C355.468 312.285 355.018 312.401 354.704 312.633C354.39 312.865 354.234 313.178 354.234 313.574C354.234 313.874 354.343 314.119 354.561 314.31C354.779 314.488 355.072 314.644 355.44 314.781C355.809 314.917 356.225 315.06 356.688 315.21C357.125 315.36 357.54 315.517 357.936 315.681C358.345 315.831 358.706 316.015 359.02 316.233C359.347 316.438 359.6 316.71 359.777 317.051C359.968 317.379 360.063 317.788 360.063 318.279C360.063 318.879 359.913 319.404 359.613 319.854C359.313 320.29 358.877 320.631 358.304 320.876C357.745 321.122 357.063 321.245 356.259 321.245C355.522 321.245 354.895 321.156 354.377 320.979C353.872 320.801 353.443 320.57 353.088 320.283C352.747 319.997 352.481 319.697 352.29 319.383C352.113 319.056 351.99 318.742 351.922 318.442C351.868 318.142 351.854 317.897 351.881 317.706ZM361.182 317.706H362.982C363.05 318.251 363.296 318.701 363.719 319.056C364.141 319.397 364.735 319.567 365.498 319.567C365.989 319.567 366.371 319.513 366.644 319.404C366.916 319.281 367.107 319.117 367.216 318.913C367.339 318.708 367.401 318.483 367.401 318.238C367.401 317.924 367.319 317.685 367.155 317.522C366.991 317.344 366.76 317.201 366.46 317.092C366.16 316.969 365.805 316.854 365.396 316.744C364.946 316.622 364.496 316.479 364.046 316.315C363.596 316.151 363.18 315.954 362.798 315.722C362.43 315.49 362.13 315.204 361.898 314.863C361.68 314.508 361.571 314.079 361.571 313.574C361.571 313.151 361.66 312.756 361.837 312.388C362.028 312.019 362.294 311.706 362.635 311.447C362.989 311.174 363.398 310.969 363.862 310.833C364.325 310.683 364.837 310.608 365.396 310.608C366.173 310.608 366.828 310.751 367.36 311.038C367.891 311.31 368.294 311.699 368.566 312.203C368.853 312.708 369.003 313.288 369.016 313.942H367.298C367.203 313.369 367.005 312.953 366.705 312.694C366.405 312.422 365.955 312.285 365.355 312.285C364.769 312.285 364.319 312.401 364.005 312.633C363.691 312.865 363.535 313.178 363.535 313.574C363.535 313.874 363.644 314.119 363.862 314.31C364.08 314.488 364.373 314.644 364.741 314.781C365.11 314.917 365.525 315.06 365.989 315.21C366.426 315.36 366.841 315.517 367.237 315.681C367.646 315.831 368.007 316.015 368.321 316.233C368.648 316.438 368.901 316.71 369.078 317.051C369.269 317.379 369.364 317.788 369.364 318.279C369.364 318.879 369.214 319.404 368.914 319.854C368.614 320.29 368.178 320.631 367.605 320.876C367.046 321.122 366.364 321.245 365.56 321.245C364.823 321.245 364.196 321.156 363.678 320.979C363.173 320.801 362.744 320.57 362.389 320.283C362.048 319.997 361.782 319.697 361.591 319.383C361.414 319.056 361.291 318.742 361.223 318.442C361.169 318.142 361.155 317.897 361.182 317.706ZM378.808 317.706H380.67C380.561 318.374 380.302 318.974 379.892 319.506C379.483 320.038 378.945 320.46 378.277 320.774C377.608 321.088 376.824 321.245 375.924 321.245C374.861 321.245 373.913 321.02 373.081 320.57C372.249 320.12 371.595 319.499 371.117 318.708C370.64 317.917 370.401 316.997 370.401 315.947C370.401 314.883 370.633 313.956 371.097 313.165C371.56 312.36 372.201 311.733 373.02 311.283C373.838 310.833 374.772 310.608 375.822 310.608C376.926 310.608 377.854 310.826 378.604 311.263C379.354 311.699 379.906 312.347 380.261 313.206C380.629 314.051 380.779 315.108 380.711 316.376H372.345C372.413 316.99 372.597 317.535 372.897 318.013C373.211 318.49 373.62 318.865 374.124 319.138C374.642 319.41 375.236 319.547 375.904 319.547C376.654 319.547 377.281 319.376 377.786 319.035C378.29 318.694 378.631 318.251 378.808 317.706ZM375.842 312.285C374.956 312.285 374.22 312.524 373.633 313.001C373.047 313.465 372.658 314.085 372.467 314.863H378.747C378.692 314.031 378.392 313.397 377.847 312.96C377.301 312.51 376.633 312.285 375.842 312.285Z" fill="#598392"/>
<path d="M453.073 321.02V307.744H459.046C460.546 307.744 461.705 308.051 462.523 308.665C463.341 309.278 463.75 310.158 463.75 311.303C463.75 312.013 463.594 312.585 463.28 313.022C462.98 313.458 462.55 313.785 461.991 314.004C461.432 314.208 460.778 314.344 460.028 314.413L460.069 314.269C460.628 314.297 461.153 314.358 461.644 314.454C462.148 314.549 462.584 314.706 462.953 314.924C463.334 315.142 463.635 315.442 463.853 315.824C464.085 316.206 464.2 316.704 464.2 317.317C464.2 318.122 464.01 318.797 463.628 319.342C463.246 319.874 462.714 320.276 462.032 320.549C461.364 320.822 460.587 320.979 459.7 321.02H453.073ZM455.037 319.26H459.332C460.232 319.26 460.934 319.097 461.439 318.769C461.944 318.442 462.196 317.924 462.196 317.215C462.196 316.669 462.039 316.26 461.725 315.988C461.412 315.715 461.003 315.538 460.498 315.456C460.007 315.374 459.496 315.333 458.964 315.333H455.037V319.26ZM455.037 313.594H458.882C459.782 313.594 460.484 313.417 460.989 313.063C461.494 312.694 461.746 312.163 461.746 311.467C461.746 310.758 461.494 310.253 460.989 309.953C460.484 309.653 459.844 309.503 459.066 309.503H455.037V313.594ZM475.516 321.02H473.573V310.813H475.516V321.02ZM473.675 316.213L473.696 316.826C473.682 317.004 473.634 317.269 473.553 317.624C473.484 317.965 473.362 318.34 473.184 318.749C473.021 319.158 472.789 319.554 472.489 319.935C472.202 320.317 471.834 320.631 471.384 320.876C470.934 321.122 470.389 321.245 469.748 321.245C469.312 321.245 468.862 321.183 468.398 321.06C467.948 320.938 467.532 320.733 467.15 320.447C466.768 320.16 466.461 319.772 466.23 319.281C465.998 318.776 465.882 318.149 465.882 317.399V310.813H467.846V316.99C467.846 317.617 467.941 318.108 468.132 318.463C468.337 318.817 468.623 319.069 468.991 319.22C469.359 319.37 469.775 319.445 470.239 319.445C470.948 319.445 471.541 319.274 472.018 318.933C472.509 318.579 472.891 318.156 473.164 317.665C473.437 317.16 473.607 316.676 473.675 316.213ZM477.6 310.813H479.564V321.02H477.6V310.813ZM483.02 312.551C482.311 312.551 481.705 312.715 481.2 313.042C480.709 313.369 480.314 313.772 480.014 314.249C479.727 314.726 479.536 315.183 479.441 315.619L479.42 314.454C479.434 314.317 479.468 314.106 479.523 313.819C479.591 313.519 479.707 313.185 479.87 312.817C480.034 312.449 480.252 312.101 480.525 311.774C480.798 311.433 481.139 311.153 481.548 310.935C481.957 310.717 482.448 310.608 483.02 310.608V312.551ZM484.304 310.813H486.268V321.02H484.304V310.813ZM490.154 310.608C490.727 310.608 491.245 310.69 491.709 310.853C492.172 311.017 492.568 311.263 492.895 311.59C493.222 311.903 493.475 312.299 493.652 312.776C493.843 313.24 493.938 313.772 493.938 314.372V321.02H491.995V314.801C491.995 313.997 491.797 313.397 491.402 313.001C491.02 312.592 490.434 312.388 489.643 312.388C489.029 312.388 488.47 312.531 487.966 312.817C487.461 313.103 487.045 313.485 486.718 313.963C486.404 314.426 486.213 314.951 486.145 315.538L486.125 314.413C486.193 313.867 486.336 313.363 486.554 312.899C486.786 312.435 487.072 312.033 487.413 311.692C487.768 311.338 488.177 311.072 488.641 310.894C489.104 310.703 489.609 310.608 490.154 310.608ZM500.952 321.245C499.956 321.245 499.043 321.033 498.211 320.61C497.379 320.188 496.718 319.581 496.227 318.79C495.736 317.999 495.49 317.051 495.49 315.947C495.49 314.829 495.736 313.874 496.227 313.083C496.718 312.278 497.379 311.665 498.211 311.242C499.043 310.819 499.956 310.608 500.952 310.608C501.947 310.608 502.854 310.819 503.672 311.242C504.49 311.665 505.145 312.278 505.636 313.083C506.127 313.874 506.372 314.829 506.372 315.947C506.372 317.051 506.127 317.999 505.636 318.79C505.145 319.581 504.49 320.188 503.672 320.61C502.854 321.033 501.947 321.245 500.952 321.245ZM500.952 319.547C501.565 319.547 502.131 319.41 502.649 319.138C503.181 318.851 503.604 318.442 503.918 317.91C504.245 317.365 504.409 316.71 504.409 315.947C504.409 315.169 504.245 314.508 503.918 313.963C503.604 313.417 503.181 313.001 502.649 312.715C502.131 312.428 501.565 312.285 500.952 312.285C500.338 312.285 499.765 312.428 499.233 312.715C498.702 312.988 498.272 313.397 497.945 313.942C497.618 314.488 497.454 315.156 497.454 315.947C497.454 316.71 497.611 317.365 497.924 317.91C498.252 318.442 498.681 318.851 499.213 319.138C499.745 319.41 500.324 319.547 500.952 319.547ZM517.574 321.02H515.631V310.813H517.574V321.02ZM515.733 316.213L515.754 316.826C515.74 317.004 515.692 317.269 515.61 317.624C515.542 317.965 515.419 318.34 515.242 318.749C515.079 319.158 514.847 319.554 514.547 319.935C514.26 320.317 513.892 320.631 513.442 320.876C512.992 321.122 512.447 321.245 511.806 321.245C511.369 321.245 510.919 321.183 510.456 321.06C510.006 320.938 509.59 320.733 509.208 320.447C508.826 320.16 508.519 319.772 508.288 319.281C508.056 318.776 507.94 318.149 507.94 317.399V310.813H509.903V316.99C509.903 317.617 509.999 318.108 510.19 318.463C510.394 318.817 510.681 319.069 511.049 319.22C511.417 319.37 511.833 319.445 512.297 319.445C513.006 319.445 513.599 319.274 514.076 318.933C514.567 318.579 514.949 318.156 515.222 317.665C515.494 317.16 515.665 316.676 515.733 316.213ZM518.942 310.813H525.549V312.51H518.942V310.813ZM521.274 308.113H523.217V321.02H521.274V308.113Z" fill="#598392"/>
<rect x="21.0703" y="285.78" width="495.945" height="1.11198" fill="#114559"/>
<rect x="63.3242" y="323.588" width="323.587" height="1.112" transform="rotate(-90 63.3242 323.588)" fill="#114559"/>
<path d="M291.39 38.3516L287.17 27.5264H288.921L292.557 37.1006H292.057L295.693 27.5264H297.411L293.224 38.3516H291.39ZM303.818 38.535C302.695 38.535 301.694 38.3071 300.816 37.8512C299.948 37.3953 299.264 36.7503 298.764 35.9163C298.275 35.0823 298.03 34.0927 298.03 32.9473C298.03 31.7909 298.275 30.7956 298.764 29.9616C299.264 29.1277 299.948 28.4827 300.816 28.0268C301.694 27.5709 302.695 27.3429 303.818 27.3429C304.952 27.3429 305.953 27.5709 306.82 28.0268C307.688 28.4827 308.371 29.1277 308.872 29.9616C309.372 30.7956 309.622 31.7909 309.622 32.9473C309.622 34.0927 309.372 35.0823 308.872 35.9163C308.371 36.7503 307.688 37.3953 306.82 37.8512C305.953 38.3071 304.952 38.535 303.818 38.535ZM303.818 37.0839C304.619 37.0839 305.33 36.9282 305.953 36.6169C306.576 36.3055 307.07 35.844 307.437 35.2324C307.804 34.6209 307.988 33.8591 307.988 32.9473C307.988 32.0355 307.804 31.2738 307.437 30.6622C307.07 30.0506 306.576 29.5891 305.953 29.2778C305.33 28.9553 304.619 28.7941 303.818 28.7941C303.04 28.7941 302.333 28.9553 301.7 29.2778C301.066 29.5891 300.565 30.0506 300.198 30.6622C299.831 31.2738 299.648 32.0355 299.648 32.9473C299.648 33.8591 299.831 34.6209 300.198 35.2324C300.565 35.844 301.066 36.3055 301.7 36.6169C302.333 36.9282 303.04 37.0839 303.818 37.0839ZM322.114 34.6487C322.013 35.4604 321.735 36.1554 321.28 36.7336C320.835 37.3119 320.251 37.7567 319.528 38.068C318.805 38.3794 317.982 38.535 317.06 38.535C316.226 38.535 315.458 38.4072 314.758 38.1514C314.068 37.8956 313.468 37.5287 312.956 37.0505C312.445 36.5724 312.044 35.9886 311.755 35.2992C311.466 34.5986 311.322 33.8147 311.322 32.9473C311.322 32.0689 311.466 31.2849 311.755 30.5955C312.044 29.906 312.445 29.3222 312.956 28.8441C313.468 28.3548 314.068 27.9823 314.758 27.7266C315.458 27.4708 316.226 27.3429 317.06 27.3429C317.994 27.3429 318.822 27.5042 319.545 27.8266C320.268 28.138 320.851 28.5883 321.296 29.1777C321.752 29.7559 322.03 30.4509 322.13 31.2627H320.596C320.451 30.74 320.212 30.2952 319.878 29.9283C319.545 29.5613 319.139 29.2833 318.661 29.0943C318.183 28.8941 317.649 28.7941 317.06 28.7941C316.303 28.7941 315.614 28.9553 314.991 29.2778C314.369 29.6002 313.868 30.0673 313.49 30.6789C313.123 31.2905 312.94 32.0466 312.94 32.9473C312.94 33.8369 313.123 34.5931 313.49 35.2158C313.868 35.8274 314.369 36.2944 314.991 36.6169C315.614 36.9282 316.303 37.0839 317.06 37.0839C317.649 37.0839 318.177 36.9894 318.644 36.8003C319.122 36.6113 319.528 36.3333 319.862 35.9664C320.195 35.5994 320.44 35.1602 320.596 34.6487H322.114ZM325.9 33.6645V36.9171H332.872V38.3516H324.299V27.5264H332.855V28.9609H325.9V32.2634H331.588V33.6645H325.9ZM329.369 23.4065L331.754 26.0753H329.936L328.168 23.7734L329.052 23.7901L327.284 26.0753H325.449L327.851 23.4065H329.369ZM289.605 52.2134H296.994V53.6645H289.605V52.2134ZM296.81 47.5264H298.428V58.3516H296.81V47.5264ZM288.154 47.5264H289.755V58.3516H288.154V47.5264ZM306.392 58.535C305.268 58.535 304.268 58.3071 303.389 57.8512C302.522 57.3953 301.838 56.7503 301.338 55.9163C300.848 55.0823 300.604 54.0927 300.604 52.9473C300.604 51.7909 300.848 50.7956 301.338 49.9616C301.838 49.1277 302.522 48.4827 303.389 48.0268C304.268 47.5709 305.268 47.3429 306.392 47.3429C307.526 47.3429 308.527 47.5709 309.394 48.0268C310.261 48.4827 310.945 49.1277 311.445 49.9616C311.946 50.7956 312.196 51.7909 312.196 52.9473C312.196 54.0927 311.946 55.0823 311.445 55.9163C310.945 56.7503 310.261 57.3953 309.394 57.8512C308.527 58.3071 307.526 58.535 306.392 58.535ZM306.392 57.0839C307.192 57.0839 307.904 56.9282 308.527 56.6169C309.149 56.3055 309.644 55.844 310.011 55.2324C310.378 54.6209 310.561 53.8591 310.561 52.9473C310.561 52.0355 310.378 51.2738 310.011 50.6622C309.644 50.0506 309.149 49.5891 308.527 49.2778C307.904 48.9553 307.192 48.7941 306.392 48.7941C305.613 48.7941 304.907 48.9553 304.273 49.2778C303.639 49.5891 303.139 50.0506 302.772 50.6622C302.405 51.2738 302.222 52.0355 302.222 52.9473C302.222 53.8591 302.405 54.6209 302.772 55.2324C303.139 55.844 303.639 56.3055 304.273 56.6169C304.907 56.9282 305.613 57.0839 306.392 57.0839ZM319.508 54.5319V47.5264H321.109V54.5653C321.109 55.1212 321.02 55.6383 320.842 56.1165C320.675 56.5946 320.425 57.0172 320.091 57.3841C319.758 57.74 319.341 58.018 318.84 58.2181C318.351 58.4183 317.784 58.5184 317.139 58.5184C316.605 58.5184 316.099 58.4461 315.621 58.3015C315.154 58.1458 314.737 57.9234 314.37 57.6343C314.003 57.3341 313.709 56.9671 313.486 56.5335C313.275 56.0998 313.158 55.605 313.136 55.049H314.62C314.732 55.7162 315.015 56.2221 315.471 56.5668C315.927 56.9004 316.483 57.0672 317.139 57.0672C317.695 57.0672 318.145 56.956 318.49 56.7336C318.835 56.5112 319.091 56.211 319.257 55.8329C319.424 55.4548 319.508 55.0212 319.508 54.5319ZM325.346 53.6645V56.9171H332.318V58.3516H323.745V47.5264H332.301V48.9609H325.346V52.2634H331.034V53.6645H325.346Z" fill="#012432"/>
<path d="M409.598 166.881V165.447H415.403V166.881H409.598ZM407.247 169.566L411.667 158.741H413.368L417.822 169.566H416.087L412.217 159.792H412.818L408.965 169.566H407.247ZM426.376 168.666H425.692L431.013 158.741H432.614V169.566H431.013V161.26L431.363 161.343L426.877 169.566H425.192L420.705 161.36L421.055 161.277V169.566H419.454V158.741H421.055L426.376 168.666ZM436.605 166.881V165.447H442.41V166.881H436.605ZM434.253 169.566L438.674 158.741H440.375L444.828 169.566H443.094L439.224 159.792H439.825L435.972 169.566H434.253ZM455.618 167.798L455.151 167.965V158.741H456.769V169.566H455.151L447.595 160.543L448.062 160.376V169.566H446.461V158.741H448.062L455.618 167.798ZM460.862 163.428H468.251V164.879H460.862V163.428ZM468.067 158.741H469.685V169.566H468.067V158.741ZM459.411 158.741H461.012V169.566H459.411V158.741ZM473.679 166.881V165.447H479.483V166.881H473.679ZM471.327 169.566L475.747 158.741H477.448L481.902 169.566H480.167L476.297 159.792H476.898L473.045 169.566H471.327ZM477.815 157.29C477.515 157.29 477.248 157.24 477.015 157.14C476.792 157.029 476.587 156.901 476.398 156.756C476.208 156.612 476.019 156.489 475.83 156.389C475.641 156.289 475.425 156.239 475.18 156.239C474.957 156.239 474.785 156.295 474.663 156.406C474.54 156.517 474.452 156.656 474.396 156.823C474.34 156.979 474.296 157.134 474.263 157.29H473.028C473.073 156.879 473.173 156.501 473.328 156.156C473.495 155.811 473.718 155.539 473.996 155.339C474.274 155.127 474.607 155.022 474.996 155.022C475.308 155.022 475.58 155.072 475.814 155.172C476.058 155.272 476.275 155.394 476.464 155.539C476.664 155.683 476.853 155.811 477.031 155.922C477.22 156.022 477.421 156.072 477.632 156.072C477.854 156.072 478.027 156.017 478.149 155.906C478.271 155.783 478.36 155.639 478.416 155.472C478.471 155.305 478.516 155.15 478.549 155.005H479.8C479.745 155.416 479.633 155.794 479.467 156.139C479.311 156.484 479.094 156.762 478.816 156.973C478.538 157.184 478.204 157.29 477.815 157.29ZM483.418 171.968L483.084 171.535C483.251 171.246 483.406 170.951 483.551 170.651C483.696 170.35 483.773 170.05 483.785 169.75L482.934 169.566V167.848H484.969V169.083C484.969 169.794 484.813 170.373 484.502 170.817C484.202 171.273 483.84 171.657 483.418 171.968ZM489.935 166.014H491.47C491.503 166.447 491.647 166.842 491.903 167.198C492.17 167.543 492.526 167.815 492.971 168.015C493.427 168.215 493.955 168.315 494.555 168.315C495.078 168.315 495.512 168.243 495.856 168.099C496.201 167.954 496.457 167.759 496.624 167.515C496.801 167.259 496.89 166.959 496.89 166.614C496.89 166.269 496.796 165.997 496.607 165.797C496.418 165.586 496.134 165.413 495.756 165.28C495.378 165.135 494.911 164.996 494.355 164.863C493.866 164.74 493.382 164.596 492.904 164.429C492.437 164.251 492.003 164.034 491.603 163.779C491.214 163.523 490.897 163.217 490.652 162.861C490.419 162.494 490.302 162.055 490.302 161.543C490.302 160.999 490.452 160.504 490.752 160.059C491.053 159.603 491.492 159.242 492.07 158.975C492.659 158.697 493.371 158.558 494.205 158.558C495.495 158.558 496.468 158.88 497.124 159.525C497.791 160.17 498.114 161.032 498.091 162.111H496.59C496.557 161.354 496.318 160.815 495.873 160.493C495.428 160.159 494.85 159.992 494.138 159.992C493.527 159.992 493.004 160.12 492.57 160.376C492.137 160.62 491.92 161.01 491.92 161.543C491.92 161.777 491.97 161.983 492.07 162.161C492.17 162.327 492.337 162.483 492.57 162.628C492.804 162.772 493.115 162.911 493.504 163.045C493.905 163.178 494.4 163.323 494.989 163.478C495.434 163.578 495.862 163.706 496.273 163.862C496.696 164.018 497.074 164.212 497.408 164.446C497.741 164.679 498.002 164.979 498.191 165.346C498.392 165.713 498.492 166.164 498.492 166.697C498.492 167.265 498.353 167.782 498.075 168.249C497.797 168.705 497.363 169.072 496.774 169.35C496.195 169.616 495.445 169.75 494.522 169.75C493.788 169.75 493.149 169.655 492.604 169.466C492.07 169.277 491.62 169.033 491.253 168.732C490.897 168.432 490.613 168.11 490.402 167.765C490.202 167.42 490.063 167.092 489.985 166.781C489.918 166.47 489.902 166.214 489.935 166.014ZM502.076 164.879V168.132H509.048V169.566H500.475V158.741H509.031V160.176H502.076V163.478H507.764V164.879H502.076ZM417.405 187.798L416.938 187.965V178.741H418.555V189.566H416.938L409.382 180.543L409.849 180.376V189.566H408.247V178.741H409.849L417.405 187.798ZM422.548 186.881V185.447H428.353V186.881H422.548ZM420.196 189.566L424.616 178.741H426.318L430.771 189.566H429.036L425.167 179.792H425.767L421.914 189.566H420.196ZM426.685 177.29C426.384 177.29 426.118 177.24 425.884 177.14C425.662 177.029 425.456 176.901 425.267 176.756C425.078 176.612 424.889 176.489 424.7 176.389C424.511 176.289 424.294 176.239 424.049 176.239C423.827 176.239 423.654 176.295 423.532 176.406C423.41 176.517 423.321 176.656 423.265 176.823C423.21 176.979 423.165 177.134 423.132 177.29H421.898C421.942 176.879 422.042 176.501 422.198 176.156C422.365 175.811 422.587 175.539 422.865 175.339C423.143 175.127 423.477 175.022 423.866 175.022C424.177 175.022 424.45 175.072 424.683 175.172C424.928 175.272 425.145 175.394 425.334 175.539C425.534 175.683 425.723 175.811 425.901 175.922C426.09 176.022 426.29 176.072 426.501 176.072C426.724 176.072 426.896 176.017 427.018 175.906C427.141 175.783 427.23 175.639 427.285 175.472C427.341 175.305 427.385 175.15 427.419 175.005H428.67C428.614 175.416 428.503 175.794 428.336 176.139C428.18 176.484 427.963 176.762 427.685 176.973C427.407 177.184 427.074 177.29 426.685 177.29ZM437.334 189.75C436.211 189.75 435.21 189.522 434.331 189.066C433.464 188.61 432.78 187.965 432.28 187.131C431.79 186.297 431.546 185.308 431.546 184.162C431.546 183.006 431.79 182.01 432.28 181.176C432.78 180.342 433.464 179.698 434.331 179.242C435.21 178.786 436.211 178.558 437.334 178.558C438.468 178.558 439.469 178.786 440.336 179.242C441.203 179.698 441.887 180.342 442.388 181.176C442.888 182.01 443.138 183.006 443.138 184.162C443.138 185.308 442.888 186.297 442.388 187.131C441.887 187.965 441.203 188.61 440.336 189.066C439.469 189.522 438.468 189.75 437.334 189.75ZM437.334 188.299C438.134 188.299 438.846 188.143 439.469 187.832C440.091 187.52 440.586 187.059 440.953 186.447C441.32 185.836 441.504 185.074 441.504 184.162C441.504 183.25 441.32 182.489 440.953 181.877C440.586 181.265 440.091 180.804 439.469 180.493C438.846 180.17 438.134 180.009 437.334 180.009C436.555 180.009 435.849 180.17 435.215 180.493C434.581 180.804 434.081 181.265 433.714 181.877C433.347 182.489 433.164 183.25 433.164 184.162C433.164 185.074 433.347 185.836 433.714 186.447C434.081 187.059 434.581 187.52 435.215 187.832C435.849 188.143 436.555 188.299 437.334 188.299ZM457.526 178.741V180.176H450.571V183.545H456.259V184.946H450.571V189.566H448.969V178.741H457.526ZM459.63 178.741H461.231V189.566H459.63V178.741ZM463.899 178.741H473.59V180.176L465.434 188.632L465.217 188.132H473.59V189.566H463.899V188.132L472.072 179.675L472.289 180.176H463.899V178.741ZM477.529 184.879V188.132H484.501V189.566H475.927V178.741H484.484V180.176H477.529V183.478H483.217V184.879H477.529ZM486.825 189.566V178.741H492.396C493.174 178.741 493.841 178.858 494.397 179.092C494.964 179.314 495.398 179.659 495.698 180.126C495.999 180.582 496.149 181.165 496.149 181.877C496.149 182.366 496.065 182.783 495.899 183.128C495.743 183.462 495.526 183.74 495.248 183.962C494.97 184.184 494.642 184.357 494.264 184.479C493.886 184.601 493.48 184.679 493.046 184.713L492.93 184.613C493.586 184.635 494.136 184.707 494.581 184.829C495.026 184.952 495.365 185.174 495.598 185.497C495.843 185.808 495.965 186.275 495.965 186.898V189.566H494.347V186.948C494.347 186.514 494.275 186.175 494.13 185.93C493.986 185.686 493.736 185.513 493.38 185.413C493.024 185.313 492.524 185.263 491.879 185.263H488.426V189.566H486.825ZM488.426 183.862H492.396C493.107 183.862 493.641 183.684 493.997 183.328C494.364 182.972 494.547 182.505 494.547 181.927C494.547 181.371 494.364 180.943 493.997 180.643C493.641 180.342 493.107 180.192 492.396 180.192H488.426V183.862ZM511.31 187.798L510.843 187.965V178.741H512.461V189.566H510.843L503.287 180.543L503.754 180.376V189.566H502.153V178.741H503.754L511.31 187.798ZM516.453 186.881V185.447H522.258V186.881H516.453ZM514.101 189.566L518.521 178.741H520.223L524.676 189.566H522.942L519.072 179.792H519.672L515.819 189.566H514.101ZM530.646 178.741C531.769 178.741 532.708 178.886 533.464 179.175C534.232 179.453 534.843 179.842 535.299 180.342C535.766 180.843 536.1 181.416 536.3 182.061C536.5 182.705 536.6 183.389 536.6 184.112C536.6 184.824 536.489 185.508 536.267 186.164C536.055 186.82 535.711 187.404 535.233 187.915C534.765 188.427 534.154 188.832 533.398 189.133C532.642 189.422 531.724 189.566 530.646 189.566H526.309V178.741H530.646ZM527.91 188.115H530.629C531.485 188.115 532.191 188.004 532.747 187.782C533.303 187.548 533.742 187.242 534.065 186.864C534.399 186.475 534.632 186.041 534.765 185.563C534.91 185.085 534.982 184.601 534.982 184.112C534.982 183.612 534.91 183.128 534.765 182.661C534.632 182.194 534.399 181.777 534.065 181.41C533.742 181.032 533.303 180.737 532.747 180.526C532.191 180.304 531.485 180.192 530.629 180.192H527.91V188.115ZM539.73 186.881V185.447H545.534V186.881H539.73ZM537.378 189.566L541.798 178.741H543.5L547.953 189.566H546.218L542.349 179.792H542.949L539.096 189.566H537.378Z" fill="#012432"/>
<mask id="mask0_8583_23459" style="mask-type:alpha" maskUnits="userSpaceOnUse" x="67" y="68" width="423" height="218">
<path d="M188.435 166.58C152.508 250.279 91.9755 282.044 67.7734 285.78H489.215C461.203 285.78 399.555 256.044 361.904 166.581C306.773 35.5837 244.711 35.4747 188.435 166.58Z" fill="#F4F6F8"/>
</mask>
<g mask="url(#mask0_8583_23459)">
<rect x="64.0703" y="84.001" width="140" height="202" fill="#72FF66"/>
<rect x="204.07" y="56.001" width="73" height="230" fill="#FFDD66"/>
<rect x="277.07" y="57.001" width="71" height="229" fill="#FF9D66"/>
<rect x="348.07" y="58.001" width="148" height="229" fill="#FF6666"/>
</g>
<rect x="204.176" y="23.3525" width="0.874361" height="263.54" fill="#114559" fill-opacity="0.25"/>
<rect x="276.07" y="23.3525" width="0.874361" height="263.54" fill="#114559" fill-opacity="0.25"/>
<rect x="348.07" y="23.3525" width="0.874361" height="263.54" fill="#114559" fill-opacity="0.25"/>
</svg>
