<svg width="29" height="28" viewBox="0 0 29 28" fill="none" xmlns="http://www.w3.org/2000/svg">
<g id="Group">
<path id="Vector" d="M25.5692 20.8188C25.0845 20.4582 24.3994 20.5589 24.0388 21.0435C23.8405 21.31 23.6283 21.5715 23.4081 21.8206C23.008 22.2731 23.0505 22.9644 23.5031 23.3645C23.7112 23.5485 23.9696 23.6388 24.2271 23.6388C24.5296 23.6388 24.8308 23.514 25.047 23.2694C25.3078 22.9745 25.5591 22.6648 25.7939 22.3491C26.1544 21.8645 26.0539 21.1793 25.5692 20.8188Z" fill="#06C6A3"/>
<path id="Vector_2" d="M27.3984 15.6893C26.8086 15.5609 26.2255 15.9352 26.0971 16.5254C26.0264 16.8501 25.9409 17.1753 25.843 17.4923C25.6647 18.0695 25.988 18.6819 26.5651 18.8602C26.6727 18.8934 26.7814 18.9092 26.8883 18.9092C27.3554 18.9092 27.7878 18.6077 27.933 18.138C28.0492 17.7619 28.1506 17.3758 28.2345 16.9907C28.363 16.4005 27.9887 15.8178 27.3984 15.6893Z" fill="#06C6A3"/>
<path id="Vector_3" d="M20.3041 24.3216C20.0137 24.4837 19.713 24.6351 19.4105 24.7718C18.8599 25.0204 18.6152 25.6682 18.8638 26.2188C19.0465 26.6232 19.4445 26.8626 19.8612 26.8626C20.0117 26.8626 20.1647 26.8314 20.3108 26.7654C20.6697 26.6033 21.0261 26.4237 21.3705 26.2315C21.8979 25.937 22.0868 25.2707 21.7922 24.7433C21.4978 24.216 20.8315 24.0271 20.3041 24.3216Z" fill="#06C6A3"/>
<path id="Vector_4" d="M13.4063 5.25V13.547L9.39553 17.5576C8.96842 17.9848 8.96842 18.6773 9.39553 19.1044C9.60914 19.318 9.88897 19.4248 10.169 19.4248C10.4489 19.4248 10.7288 19.318 10.9424 19.1044L15.2734 14.7734C15.4785 14.5683 15.5938 14.2901 15.5938 14V5.25C15.5938 4.64592 15.1041 4.15625 14.5 4.15625C13.8959 4.15625 13.4063 4.64592 13.4063 5.25Z" fill="#06C6A3"/>
<path id="Vector_5" d="M27.4062 2.35156C26.8022 2.35156 26.3125 2.84123 26.3125 3.44531V6.48244C23.7667 2.48981 19.3208 0 14.5 0C10.7605 0 7.24477 1.45627 4.60047 4.10047C1.95627 6.74477 0.5 10.2605 0.5 14C0.5 17.7395 1.95627 21.2552 4.60047 23.8995C7.24477 26.5437 10.7605 28 14.5 28C14.5092 28 14.5182 27.9989 14.5273 27.9986C14.5365 27.9989 14.5454 28 14.5547 28C14.9489 28 15.3469 27.9834 15.738 27.9507C16.3399 27.9002 16.787 27.3714 16.7367 26.7695C16.6862 26.1675 16.1581 25.7202 15.5554 25.7708C15.2249 25.7984 14.8882 25.8125 14.5547 25.8125C14.5454 25.8125 14.5365 25.8136 14.5273 25.8139C14.5182 25.8136 14.5092 25.8125 14.5 25.8125C7.98656 25.8125 2.6875 20.5134 2.6875 14C2.6875 7.48656 7.98656 2.1875 14.5 2.1875C18.6977 2.1875 22.5586 4.42493 24.6684 7.98438H21.6609C21.0569 7.98438 20.5672 8.47405 20.5672 9.07812C20.5672 9.6822 21.0569 10.1719 21.6609 10.1719H25C25.6661 10.1719 26.2893 9.98468 26.8198 9.66038C26.854 9.64091 26.8868 9.61997 26.9181 9.59738C27.8699 8.97116 28.5 7.89398 28.5 6.67188V3.44531C28.5 2.84123 28.0103 2.35156 27.4062 2.35156Z" fill="#06C6A3"/>
</g>
</svg>
