<svg width="123" height="20" viewBox="0 0 123 20" fill="none" xmlns="http://www.w3.org/2000/svg">
<path d="M9.82368 1.18891L12.5214 6.67306L18.5518 7.5527C18.6283 7.56408 18.7002 7.5966 18.7592 7.6466C18.8183 7.6966 18.8622 7.76209 18.886 7.83571C18.9099 7.90932 18.9127 7.98813 18.8942 8.06325C18.8756 8.13838 18.8365 8.20684 18.7812 8.26093L14.4183 12.5288L15.4484 18.5564C15.4617 18.6326 15.4534 18.7109 15.4243 18.7826C15.3953 18.8543 15.3468 18.9165 15.2843 18.962C15.2218 19.0075 15.1478 19.0346 15.0706 19.0402C14.9935 19.0458 14.9163 19.0297 14.8479 18.9937L9.45374 16.1485L4.05961 18.9945C3.99121 19.0307 3.91405 19.0469 3.83688 19.0414C3.75972 19.0359 3.68565 19.0088 3.62309 18.9633C3.56054 18.9178 3.51201 18.8557 3.48301 18.7839C3.45401 18.7122 3.44572 18.6338 3.45907 18.5576L4.48915 12.5288L0.125087 8.26093C0.0697532 8.20684 0.0306183 8.13838 0.01209 8.06325C-0.00643837 7.98813 -0.00362419 7.90932 0.0202156 7.83571C0.0440554 7.76209 0.0879739 7.6966 0.147025 7.6466C0.206076 7.5966 0.277915 7.56408 0.35445 7.5527L6.38488 6.67306L9.0838 1.18891C9.11746 1.11941 9.17001 1.0608 9.23544 1.01979C9.30087 0.978782 9.37652 0.957031 9.45374 0.957031C9.53096 0.957031 9.60662 0.978782 9.67204 1.01979C9.73747 1.0608 9.79002 1.11941 9.82368 1.18891Z" fill="#06C6A3"/>
<path d="M35.7299 1.18891L38.4276 6.67306L44.458 7.5527C44.5346 7.56408 44.6064 7.5966 44.6655 7.6466C44.7245 7.6966 44.7684 7.76209 44.7923 7.83571C44.8161 7.90932 44.8189 7.98813 44.8004 8.06325C44.7819 8.13838 44.7427 8.20684 44.6874 8.26093L40.3246 12.5288L41.3547 18.5564C41.3679 18.6326 41.3596 18.7109 41.3306 18.7826C41.3016 18.8543 41.2531 18.9165 41.1906 18.962C41.128 19.0075 41.054 19.0346 40.9769 19.0402C40.8997 19.0458 40.8226 19.0297 40.7541 18.9937L35.36 16.1485L29.9659 18.9945C29.8975 19.0307 29.8203 19.0469 29.7431 19.0414C29.666 19.0359 29.5919 19.0088 29.5293 18.9633C29.4668 18.9178 29.4183 18.8557 29.3893 18.7839C29.3603 18.7122 29.352 18.6338 29.3653 18.5576L30.3954 12.5288L26.0313 8.26093C25.976 8.20684 25.9369 8.13838 25.9183 8.06325C25.8998 7.98813 25.9026 7.90932 25.9265 7.83571C25.9503 7.76209 25.9942 7.6966 26.0533 7.6466C26.1123 7.5966 26.1842 7.56408 26.2607 7.5527L32.2911 6.67306L34.9901 1.18891C35.0237 1.11941 35.0763 1.0608 35.1417 1.01979C35.2071 0.978782 35.2828 0.957031 35.36 0.957031C35.4372 0.957031 35.5129 0.978782 35.5783 1.01979C35.6437 1.0608 35.6963 1.11941 35.7299 1.18891Z" fill="#06C6A3"/>
<path d="M61.6362 1.18891L64.3339 6.67306L70.3643 7.5527C70.4408 7.56408 70.5127 7.5966 70.5717 7.6466C70.6308 7.6966 70.6747 7.76209 70.6985 7.83571C70.7224 7.90932 70.7252 7.98813 70.7067 8.06325C70.6881 8.13838 70.649 8.20684 70.5937 8.26093L66.2308 12.5288L67.2609 18.5564C67.2742 18.6326 67.2659 18.7109 67.2368 18.7826C67.2078 18.8543 67.1593 18.9165 67.0968 18.962C67.0343 19.0075 66.9603 19.0346 66.8831 19.0402C66.806 19.0458 66.7288 19.0297 66.6604 18.9937L61.2662 16.1485L55.8721 18.9945C55.8037 19.0307 55.7265 19.0469 55.6494 19.0414C55.5722 19.0359 55.4981 19.0088 55.4356 18.9633C55.373 18.9178 55.3245 18.8557 55.2955 18.7839C55.2665 18.7122 55.2582 18.6338 55.2716 18.5576L56.3016 12.5288L51.9376 8.26093C51.8823 8.20684 51.8431 8.13838 51.8246 8.06325C51.8061 7.98813 51.8089 7.90932 51.8327 7.83571C51.8566 7.76209 51.9005 7.6966 51.9595 7.6466C52.0186 7.5966 52.0904 7.56408 52.167 7.5527L58.1974 6.67306L60.8963 1.18891C60.93 1.11941 60.9825 1.0608 61.0479 1.01979C61.1134 0.978782 61.189 0.957031 61.2662 0.957031C61.3435 0.957031 61.4191 0.978782 61.4845 1.01979C61.55 1.0608 61.6025 1.11941 61.6362 1.18891Z" fill="#06C6A3"/>
<path d="M87.5424 1.18891L90.2401 6.67306L96.2705 7.5527C96.3471 7.56408 96.4189 7.5966 96.478 7.6466C96.537 7.6966 96.5809 7.76209 96.6048 7.83571C96.6286 7.90932 96.6314 7.98813 96.6129 8.06325C96.5944 8.13838 96.5552 8.20684 96.4999 8.26093L92.1371 12.5288L93.1672 18.5564C93.1804 18.6326 93.1721 18.7109 93.1431 18.7826C93.1141 18.8543 93.0656 18.9165 93.0031 18.962C92.9405 19.0075 92.8665 19.0346 92.7894 19.0402C92.7122 19.0458 92.6351 19.0297 92.5666 18.9937L87.1725 16.1485L81.7784 18.9945C81.71 19.0307 81.6328 19.0469 81.5556 19.0414C81.4785 19.0359 81.4044 19.0088 81.3418 18.9633C81.2793 18.9178 81.2308 18.8557 81.2018 18.7839C81.1728 18.7122 81.1645 18.6338 81.1778 18.5576L82.2079 12.5288L77.8438 8.26093C77.7885 8.20684 77.7494 8.13838 77.7308 8.06325C77.7123 7.98813 77.7151 7.90932 77.739 7.83571C77.7628 7.76209 77.8067 7.6966 77.8658 7.6466C77.9248 7.5966 77.9967 7.56408 78.0732 7.5527L84.1036 6.67306L86.8026 1.18891C86.8362 1.11941 86.8888 1.0608 86.9542 1.01979C87.0196 0.978782 87.0953 0.957031 87.1725 0.957031C87.2497 0.957031 87.3254 0.978782 87.3908 1.01979C87.4562 1.0608 87.5088 1.11941 87.5424 1.18891Z" fill="#06C6A3"/>
<path d="M113.449 1.18891L116.146 6.67306L122.177 7.5527C122.253 7.56408 122.325 7.5966 122.384 7.6466C122.443 7.6966 122.487 7.76209 122.511 7.83571C122.535 7.90932 122.538 7.98813 122.519 8.06325C122.501 8.13838 122.461 8.20684 122.406 8.26093L118.043 12.5288L119.073 18.5564C119.087 18.6326 119.078 18.7109 119.049 18.7826C119.02 18.8543 118.972 18.9165 118.909 18.962C118.847 19.0075 118.773 19.0346 118.696 19.0402C118.618 19.0458 118.541 19.0297 118.473 18.9937L113.079 16.1485L107.685 18.9945C107.616 19.0307 107.539 19.0469 107.462 19.0414C107.385 19.0359 107.311 19.0088 107.248 18.9633C107.186 18.9178 107.137 18.8557 107.108 18.7839C107.079 18.7122 107.071 18.6338 107.084 18.5576L108.114 12.5288L103.75 8.26093C103.695 8.20684 103.656 8.13838 103.637 8.06325C103.619 7.98813 103.621 7.90932 103.645 7.83571C103.669 7.76209 103.713 7.6966 103.772 7.6466C103.831 7.5966 103.903 7.56408 103.979 7.5527L110.01 6.67306L112.709 1.18891C112.742 1.11941 112.795 1.0608 112.86 1.01979C112.926 0.978782 113.002 0.957031 113.079 0.957031C113.156 0.957031 113.232 0.978782 113.297 1.01979C113.362 1.0608 113.415 1.11941 113.449 1.18891Z" fill="#06C6A3"/>
</svg>
