<svg width="16" height="16" viewBox="0 0 16 16" fill="none" xmlns="http://www.w3.org/2000/svg">
<path d="M10.6667 1.3335H2.66667C2.48986 1.3335 2.32029 1.40373 2.19526 1.52876C2.07024 1.65378 2 1.82335 2 2.00016V14.0002C2 14.177 2.07024 14.3465 2.19526 14.4716C2.32029 14.5966 2.48986 14.6668 2.66667 14.6668H8.17C7.58153 13.8225 7.28869 12.8073 7.33705 11.7792C7.38541 10.7512 7.77226 9.76797 8.43739 8.98259C9.10252 8.19721 10.0086 7.65374 11.0147 7.43675C12.0207 7.21976 13.0703 7.34143 14 7.78283V4.66683L10.6667 1.3335ZM9.19067 10.2182C9.21667 9.7335 9.59067 9.33883 10.0733 9.2875L10.6533 9.22616C10.7225 9.21889 10.7876 9.18996 10.8393 9.1435L11.2733 8.7535C11.4482 8.59648 11.6733 8.50688 11.9082 8.50077C12.1431 8.49466 12.3726 8.57244 12.5553 8.72016L13.01 9.08683C13.0633 9.13016 13.13 9.1555 13.1993 9.1595L13.782 9.19083C14.2667 9.21683 14.6613 9.59083 14.7127 10.0735L14.774 10.6535C14.7812 10.7227 14.8102 10.7878 14.8567 10.8395L15.2467 11.2735C15.5713 11.6348 15.5853 12.1782 15.28 12.5555L14.9133 13.0102C14.8698 13.0641 14.8444 13.1303 14.8407 13.1995L14.8093 13.7822C14.7969 14.0169 14.7012 14.2395 14.5394 14.4101C14.3776 14.5806 14.1604 14.688 13.9267 14.7128L13.3467 14.7742C13.2775 14.7814 13.2124 14.8104 13.1607 14.8568L12.7267 15.2468C12.5518 15.4038 12.3267 15.4934 12.0918 15.4996C11.8569 15.5057 11.6274 15.4279 11.4447 15.2802L10.99 14.9135C10.9361 14.87 10.8698 14.8446 10.8007 14.8408L10.218 14.8095C9.98327 14.797 9.76066 14.7013 9.5901 14.5396C9.41955 14.3778 9.3122 14.1606 9.28733 13.9268L9.226 13.3468C9.21873 13.2777 9.1898 13.2126 9.14333 13.1608L8.75333 12.7268C8.59631 12.552 8.50672 12.3269 8.50061 12.092C8.4945 11.857 8.57228 11.6276 8.72 11.4448L9.08667 10.9902C9.13016 10.9362 9.15558 10.87 9.15933 10.8008L9.19067 10.2182ZM14.02 11.3535L13.3133 10.6468L11.6667 12.2935L10.6867 11.3135L9.98 12.0202L11.3133 13.3535L11.6667 13.7068L12.02 13.3535L14.02 11.3535Z" fill="#598392"/>
</svg>
