<svg width="22" height="20" viewBox="0 0 22 20" fill="none" xmlns="http://www.w3.org/2000/svg">
<path d="M19.8688 8.48678C19.5714 8.31388 19.3042 8.09367 19.0777 7.83479C19.1006 7.47437 19.1864 7.12075 19.3313 6.78995C19.5978 6.03815 19.8991 5.18653 19.4156 4.52446C18.9321 3.86239 18.0191 3.88346 17.2178 3.90177C16.8638 3.9382 16.5061 3.91404 16.1602 3.83034C15.9759 3.53045 15.8442 3.20123 15.771 2.85693C15.5439 2.08315 15.2847 1.20863 14.489 0.946739C13.7216 0.699494 13.011 1.24343 12.3828 1.72144C12.1118 1.96897 11.7977 2.16481 11.4561 2.29926C11.111 2.1659 10.7934 1.97002 10.5193 1.72144C9.89299 1.24618 9.18513 0.696747 8.4141 0.947655C7.62017 1.20589 7.36102 2.08315 7.13209 2.85693C7.05895 3.20011 6.92863 3.52855 6.74657 3.82851C6.39998 3.91199 6.04185 3.93675 5.68708 3.90177C4.88308 3.87979 3.97743 3.85598 3.48935 4.52446C3.00127 5.19294 3.30621 6.03815 3.5736 6.78904C3.72052 7.11935 3.80764 7.47311 3.83091 7.83387C3.6048 8.09309 3.33787 8.31363 3.04065 8.48678C2.37034 8.94464 1.60938 9.46569 1.60938 10.3118C1.60938 11.1579 2.37034 11.6772 3.04065 12.1368C3.3378 12.3097 3.60473 12.5299 3.83091 12.7888C3.81009 13.1495 3.72544 13.5035 3.58092 13.8346C3.31536 14.5855 3.01501 15.4371 3.49759 16.0992C3.98018 16.7612 4.8904 16.7402 5.69532 16.7219C6.04967 16.6854 6.40765 16.7096 6.75389 16.7933C6.93739 17.0935 7.06867 17.4226 7.14216 17.7667C7.36926 18.5405 7.62841 19.415 8.42417 19.6769C8.55175 19.7178 8.68487 19.7388 8.81884 19.7392C9.46279 19.6468 10.0613 19.3539 10.5294 18.9022C10.8005 18.6547 11.1145 18.4588 11.4561 18.3244C11.8013 18.4577 12.1188 18.6536 12.3929 18.9022C13.0202 19.3811 13.7308 19.9278 14.4991 19.676C15.293 19.4177 15.5521 18.5405 15.7811 17.7676C15.8545 17.4238 15.9857 17.0949 16.1693 16.7951C16.5146 16.7111 16.8716 16.6863 17.2252 16.7219C18.0292 16.7411 18.9348 16.7676 19.4229 16.0992C19.911 15.4307 19.606 14.5855 19.3386 13.8337C19.1927 13.5037 19.1056 13.1507 19.0813 12.7907C19.3076 12.5312 19.5748 12.3107 19.8725 12.1378C20.5428 11.6799 21.3038 11.1579 21.3038 10.3118C21.3038 9.46569 20.5401 8.94556 19.8688 8.48678Z" fill="#49ADF4"/>
<path d="M10.5402 12.8297C10.45 12.8299 10.3606 12.8122 10.2773 12.7776C10.194 12.743 10.1184 12.6923 10.0548 12.6283L8.22339 10.7968C8.10208 10.6666 8.03603 10.4944 8.03917 10.3165C8.04231 10.1386 8.11439 9.96883 8.24022 9.843C8.36605 9.71716 8.53581 9.64509 8.71374 9.64195C8.89166 9.63881 9.06386 9.70485 9.19405 9.82617L10.6043 11.2364L13.791 8.84635C13.9367 8.73706 14.1199 8.69013 14.3002 8.71589C14.4805 8.74165 14.6432 8.83799 14.7525 8.9837C14.8618 9.12942 14.9087 9.31259 14.8829 9.4929C14.8572 9.67322 14.7608 9.83592 14.6151 9.94521L10.9522 12.6924C10.8333 12.7815 10.6888 12.8297 10.5402 12.8297Z" fill="white"/>
</svg>
