<svg width="32" height="32" viewBox="0 0 32 32" fill="none" xmlns="http://www.w3.org/2000/svg">
<g id="ic:baseline-whatsapp">
<path id="Vector" d="M25.3991 6.54658C24.1767 5.31182 22.7207 4.33281 21.1159 3.66665C19.5112 3.0005 17.7899 2.66053 16.0524 2.66658C8.77242 2.66658 2.83909 8.59992 2.83909 15.8799C2.83909 18.2132 3.45242 20.4799 4.59909 22.4799L2.73242 29.3332L9.73242 27.4932C11.6658 28.5466 13.8391 29.1066 16.0524 29.1066C23.3324 29.1066 29.2658 23.1732 29.2658 15.8932C29.2658 12.3599 27.8924 9.03992 25.3991 6.54658ZM16.0524 26.8666C14.0791 26.8666 12.1458 26.3332 10.4524 25.3332L10.0524 25.0932L5.89242 26.1866L6.99909 22.1332L6.73242 21.7199C5.63608 19.9692 5.05394 17.9456 5.05242 15.8799C5.05242 9.82658 9.98575 4.89325 16.0391 4.89325C18.9724 4.89325 21.7324 6.03992 23.7991 8.11992C24.8224 9.13853 25.6334 10.3501 26.1849 11.6845C26.7365 13.0188 27.0178 14.4494 27.0124 15.8932C27.0391 21.9466 22.1058 26.8666 16.0524 26.8666ZM22.0791 18.6532C21.7458 18.4932 20.1191 17.6932 19.8258 17.5732C19.5191 17.4666 19.3058 17.4132 19.0791 17.7332C18.8524 18.0666 18.2258 18.8132 18.0391 19.0266C17.8524 19.2532 17.6524 19.2799 17.3191 19.1066C16.9858 18.9466 15.9191 18.5866 14.6658 17.4666C13.6791 16.5866 13.0258 15.5066 12.8258 15.1732C12.6391 14.8399 12.7991 14.6666 12.9724 14.4932C13.1191 14.3466 13.3058 14.1066 13.4658 13.9199C13.6258 13.7332 13.6924 13.5866 13.7991 13.3732C13.9058 13.1466 13.8524 12.9599 13.7724 12.7999C13.6924 12.6399 13.0258 11.0132 12.7591 10.3466C12.4924 9.70658 12.2124 9.78658 12.0124 9.77325H11.3724C11.1458 9.77325 10.7991 9.85325 10.4924 10.1866C10.1991 10.5199 9.34576 11.3199 9.34576 12.9466C9.34576 14.5732 10.5324 16.1466 10.6924 16.3599C10.8524 16.5866 13.0258 19.9199 16.3324 21.3466C17.1191 21.6932 17.7324 21.8932 18.2124 22.0399C18.9991 22.2932 19.7191 22.2532 20.2924 22.1732C20.9324 22.0799 22.2524 21.3732 22.5191 20.5999C22.7991 19.8266 22.7991 19.1732 22.7058 19.0266C22.6124 18.8799 22.4124 18.8132 22.0791 18.6532Z" fill="white"/>
</g>
</svg>
