<svg width="20" height="21" viewBox="0 0 20 21" fill="none" xmlns="http://www.w3.org/2000/svg">
<g id="whatsapp_2111774 1" clip-path="url(#clip0_4730_8359)">
<path id="Vector" d="M14.5893 12.4228L14.5818 12.4853C12.7493 11.572 12.5576 11.4503 12.3209 11.8053C12.1568 12.0511 11.6784 12.6086 11.5343 12.7736C11.3884 12.9361 11.2434 12.9486 10.9959 12.8361C10.7459 12.7111 9.94345 12.4486 8.99345 11.5986C8.25345 10.9361 7.75678 10.1236 7.61012 9.87364C7.36595 9.45197 7.87678 9.39197 8.34178 8.51197C8.42512 8.33697 8.38261 8.19947 8.32095 8.0753C8.25845 7.9503 7.76095 6.7253 7.55261 6.23697C7.35261 5.7503 7.14678 5.81197 6.99261 5.81197C6.51261 5.7703 6.16178 5.77697 5.85261 6.09864C4.50761 7.57697 4.84678 9.10197 5.99761 10.7236C8.25928 13.6836 9.46428 14.2286 11.6676 14.9853C12.2626 15.1745 12.8051 15.1478 13.2343 15.0861C13.7126 15.0103 14.7068 14.4853 14.9143 13.8978C15.1268 13.3103 15.1268 12.8228 15.0643 12.7103C15.0026 12.5978 14.8393 12.5353 14.5893 12.4228Z" fill="#06C6A3"/>
<path id="Vector_2" d="M17.1 3.37355C10.6925 -2.82062 0.0883333 1.67188 0.0841667 10.4102C0.0841667 12.1569 0.541667 13.8602 1.41333 15.3644L0 20.4994L5.27917 19.1227C11.8667 22.6811 19.9967 17.9561 20 10.4152C20 7.76855 18.9667 5.27772 17.0875 3.40605L17.1 3.37355ZM18.335 10.3877C18.33 16.7486 11.3475 20.7211 5.825 17.4744L5.525 17.2961L2.4 18.1086L3.2375 15.0711L3.03833 14.7586C-0.398333 9.28772 3.55 2.13772 10.06 2.13772C12.2717 2.13772 14.3475 3.00022 15.9108 4.56272C17.4733 6.11188 18.335 8.18772 18.335 10.3877Z" fill="#06C6A3"/>
</g>
<defs>
<clipPath id="clip0_4730_8359">
<rect width="20" height="20" fill="white" transform="translate(0 0.5)"/>
</clipPath>
</defs>
</svg>
