<svg width="199" height="48" viewBox="0 0 199 48" fill="none" xmlns="http://www.w3.org/2000/svg">
<g id="Yinflow_Life-FundoEscuro" clip-path="url(#clip0_5150_38971)">
<g id="Group">
<path id="Vector" d="M133.921 36.3454L126.698 17.5548L119.501 36.3125L110.222 12.0715H114.48L121.043 29.1591L127.837 11.6406L134.984 30.0161L141.853 12.0715H143.258L133.968 36.3454H133.921Z" fill="white"/>
<path id="Vector_2" d="M82.2474 1.00488H78.1035V35.6329H82.2474V1.00488Z" fill="white"/>
<path id="Vector_3" d="M97.9622 36.2731C90.8495 36.2731 86.2529 31.5872 86.2529 24.3366C86.2529 16.978 91.1785 12.0352 98.509 12.0352C105.567 12.0352 110.127 16.649 110.127 23.7899C110.127 31.2566 105.238 36.2731 97.9622 36.2731ZM97.5972 12.3971C93.1886 12.3971 90.7602 16.1524 90.7602 22.9705C90.7602 30.8336 93.9985 35.9127 99.0087 35.9127C102.023 35.9127 105.617 34.0625 105.617 25.2484C105.617 21.3819 104.862 18.1373 103.431 15.8625C102.009 13.5956 99.9895 12.3971 97.5972 12.3971Z" fill="white"/>
<path id="Vector_4" d="M29.0306 35.4949V15.1408L29.0259 14.6395V14.4765L33.1619 12.067V34.497L33.1541 35.4949H29.0306ZM31.0735 9.56345C29.521 9.56345 28.3945 8.47462 28.3945 6.97532C28.3945 5.47915 29.4959 4.43262 31.0735 4.43262C32.6261 4.43262 33.7525 5.50108 33.7525 6.97532C33.751 8.47462 32.6245 9.56345 31.0735 9.56345Z" fill="white"/>
<path id="Vector_5" d="M53.0275 35.5763L53.0307 34.5799V19.1749C53.0307 16.1121 51.4233 14.3558 48.6221 14.3558C46.3222 14.3558 44.5049 15.2943 42.3178 16.8077L42.2583 16.8484V35.5748H38.1285V34.5768V15.2222L38.1191 14.5125L42.2583 12.1468V16.6056L42.4792 16.4426C46.6183 13.3908 49.2832 12.0889 51.3935 12.0889C54.9796 12.0889 57.2074 14.525 57.2074 18.448V34.5784L57.2121 35.5763H53.0275Z" fill="white"/>
<path id="Vector_6" d="M11.802 35.5685L11.7989 34.5549V20.1525L0.915259 4.39654L0.318359 3.49414H5.64033L6.31869 4.55007L14.9871 17.3294L24.3354 3.49414H27.5815L16.2937 20.1494V35.5685H11.802Z" fill="white"/>
<path id="Vector_7" d="M63.7053 35.4931L63.7037 34.492V14.1206H60.1035V12.6197H63.71L63.7131 12.485C63.804 8.75633 64.7644 5.63083 66.4908 3.44533C67.9729 1.57317 69.9782 0.5 71.9961 0.5C73.6787 0.5 74.6829 1.30057 74.6829 2.64007C74.6829 3.4234 74.285 4.00463 74.0484 4.33207C72.9157 3.7712 71.7188 3.27927 69.7839 3.27927C67.5092 3.27927 66.3248 5.35353 66.1869 7.2821C66.0553 9.12607 66.3796 10.8463 67.177 12.5414L67.2146 12.6213H73.8166V14.1222H67.893V34.492L67.8946 35.4931H63.7053Z" fill="white"/>
<path id="Vector_8" d="M150.48 35.6939L155.268 1.59386L158.724 1.4043L153.935 35.6939H150.48Z" fill="white"/>
<path id="Vector_9" d="M165.409 9.74486C163.976 9.74486 162.936 8.7375 162.936 7.34943C162.936 5.9833 163.976 4.99316 165.409 4.99316C166.224 4.99316 166.949 5.32373 167.399 5.90026C167.762 6.29663 167.95 6.79483 167.95 7.351C167.95 7.93066 167.739 8.4696 167.352 8.86753C166.89 9.42683 166.183 9.74486 165.409 9.74486Z" fill="white"/>
<path id="Vector_10" d="M143.097 36.3455C141.663 36.3455 140.623 35.3381 140.623 33.95C140.623 32.5839 141.663 31.5938 143.097 31.5938C143.911 31.5938 144.637 31.9243 145.086 32.5008C145.45 32.8972 145.638 33.3954 145.638 33.9516C145.638 34.5313 145.426 35.0702 145.039 35.4681C144.576 36.0274 143.869 36.3455 143.097 36.3455Z" fill="white"/>
<path id="Vector_11" d="M159.838 35.6936L163.035 12.8516H166.445L163.247 35.6936H159.838Z" fill="white"/>
<path id="Vector_12" d="M165.145 47.5004C164.415 47.5004 163.805 47.4236 163.331 47.2701C162.851 47.115 162.503 46.963 162.268 46.8079C161.953 46.5964 161.884 46.5134 161.859 46.4633L161.844 46.4319L162.856 44.4548L162.923 44.5206C162.955 44.5504 163.056 44.6287 163.211 44.7415C163.371 44.8574 163.609 44.9687 163.92 45.0721C164.23 45.1755 164.596 45.2272 165.01 45.2272C166.176 45.2272 167.106 44.6444 167.857 43.4427C168.604 42.2458 169.182 40.2373 169.572 37.4753L172.694 15.213H170.334L170.652 12.9084L173.031 12.8943L173.478 9.68419C173.901 6.74826 174.678 4.55962 175.786 3.17939C176.899 1.79132 178.559 1.08789 180.721 1.08789C181.451 1.08789 182.129 1.18816 182.74 1.38712C183.348 1.58452 183.841 1.79289 184.206 2.00596C184.575 2.22216 184.799 2.35532 184.891 2.41642L184.938 2.44776L184.15 4.36692L184.076 4.29486C184.02 4.23846 183.844 4.12566 183.567 3.96429C183.284 3.80136 182.906 3.64312 182.445 3.49272C181.983 3.34389 181.494 3.26869 180.992 3.26869C180.224 3.26869 179.582 3.46296 179.082 3.84522C178.989 3.91572 178.892 4.00502 178.787 4.11782C178.436 4.54082 178.131 5.11579 177.869 5.83176C177.504 6.83599 177.196 8.25226 176.954 10.0383L176.553 12.8489H183.025L182.688 15.213H176.216L173.096 37.4659C172.569 41.1852 171.501 43.8798 169.92 45.4778C168.663 46.822 167.058 47.5004 165.145 47.5004Z" fill="white"/>
<path id="Vector_13" d="M190.417 36.0231C187.77 36.0231 185.601 35.2288 183.974 33.6637C182.344 32.0986 181.519 29.8112 181.519 26.869C181.519 24.0631 181.996 21.5408 182.94 19.3725C183.884 17.2011 185.225 15.4982 186.922 14.3122C188.623 13.1247 190.538 12.5215 192.612 12.5215C192.686 12.5215 192.759 12.5215 192.833 12.5231C194.581 12.5591 195.971 13.0839 197.085 14.1273C198.39 15.3509 198.567 17.0476 198.567 18.5453C198.567 21.3606 197.312 23.2422 194.838 24.1352C192.404 25.0157 190.532 25.4622 187.057 25.4622H185.149L185.141 25.611C185.122 26.0152 185.111 26.5729 185.111 27.2701C185.111 29.4666 185.65 31.1257 186.714 32.2004C187.776 33.2767 189.217 33.8219 191 33.8219C192.175 33.8219 192.669 33.6261 193.507 33.2501C194.357 32.8694 195.033 32.4479 195.514 31.9967C195.863 31.6693 196.006 31.5299 196.082 31.4531C196.168 31.3669 196.248 31.2714 196.317 31.1711L197.614 32.321V32.3712C197.614 32.4432 197.614 32.5529 196.662 33.5039C196.042 34.1227 195.156 34.7024 194.03 35.2272C192.897 35.7552 192.028 36.0231 190.417 36.0231ZM192.354 14.7023C190.503 14.7023 189.006 15.4637 187.774 17.0288C186.584 18.5422 185.778 20.6697 185.377 23.3503L185.351 23.5305H187.144C189.803 23.5305 190.956 23.203 192.784 22.509C194.688 21.7868 195.734 20.2969 195.734 18.315C195.734 17.2951 195.637 16.1562 194.92 15.4386C194.371 14.8887 193.723 14.7023 192.354 14.7023Z" fill="white"/>
</g>
</g>
<defs>
<clipPath id="clip0_5150_38971">
<rect width="198.364" height="47" fill="white" transform="translate(0.318359 0.5)"/>
</clipPath>
</defs>
</svg>
