<svg width="199" height="47" viewBox="0 0 199 47" fill="none" xmlns="http://www.w3.org/2000/svg">
<g id="Yinflow_Life-FundoClaro" clip-path="url(#clip0_5151_12153)">
<g id="Group">
<path id="Vector" d="M114.715 11.5044H110.188L119.529 35.9068H119.695L126.769 17.4766L133.853 35.9115H134.09L143.43 11.5044H141.74L135.003 29.0997L127.97 11.0156H127.829L121.146 28.2474L114.715 11.5044Z" fill="black"/>
<path id="Vector_2" d="M82.7119 0.501953V35.2021H78.3174V0.501953H82.7119Z" fill="black"/>
<path id="Vector_3" d="M86.4209 23.836C86.4209 16.4978 91.3136 11.4688 98.7427 11.4688C105.674 11.4688 110.43 15.9996 110.43 23.2924C110.43 30.8124 105.537 35.8414 98.1991 35.8414C91.1789 35.8398 86.4209 31.2652 86.4209 23.836ZM99.2409 35.2069C103.137 35.2069 105.674 32.0359 105.674 24.7431C105.674 16.9066 102.548 12.1048 97.8372 12.1048C93.9409 12.1048 91.1773 15.1395 91.1773 22.4793C91.1789 30.3142 94.4391 35.2069 99.2409 35.2069Z" fill="black"/>
<path id="Vector_4" d="M33.9075 35.0645H29.5349V34.8389V33.9349V14.6916L29.5302 14.1949V13.9521L33.8714 11.4219H33.9169V33.9334L33.9075 35.0645ZM31.7016 3.9082C33.3278 3.9082 34.5028 5.03777 34.5028 6.5731C34.5028 8.10844 33.3278 9.28344 31.7016 9.28344C30.03 9.28344 28.9004 8.10844 28.9004 6.5731C28.902 5.03777 30.03 3.9082 31.7016 3.9082Z" fill="black"/>
<path id="Vector_5" d="M38.5664 13.9886L42.9123 11.5039H42.9578V15.8749C46.5721 13.21 49.508 11.5196 51.9019 11.5196C55.5162 11.5196 57.8192 13.9589 57.8192 17.9789V34.0153L57.8239 34.9193V35.1449H53.3902V34.9193L53.3933 34.0153V18.7027C53.3933 15.5412 51.6763 14.0497 49.1477 14.0497C47.0248 14.0497 45.3078 14.8362 42.9593 16.4624V34.0153V34.9193V35.1449H38.5789V34.9193V34.0153V14.772L38.5664 13.9886Z" fill="black"/>
<path id="Vector_6" d="M28.4899 2.97656H24.9304L15.709 16.6222L7.20826 4.0889L6.49229 2.97656H0.871094L1.60743 4.0889L12.4033 19.718V33.9919L12.4065 34.8958V35.1387H17.1456V34.8833V33.9919V19.7133L28.4899 2.97656Z" fill="black"/>
<path id="Vector_7" d="M68.4475 35.062H64.0076L64.006 33.9293V13.8164H60.4277V13.5893V12.0492H64.017C64.2112 3.93233 68.4726 0 72.3861 0C74.1987 0 75.1951 0.905533 75.1951 2.2654C75.1951 3.17093 74.6969 3.80543 74.4698 4.12347C73.2916 3.5344 72.1354 3.03933 70.1865 3.03933C67.9853 3.03933 66.8761 5.10733 66.7477 6.8902C66.6098 8.81563 66.9936 10.5092 67.719 12.0508H74.3335V13.818H68.4444V33.9309L68.4475 35.062Z" fill="black"/>
<g id="Group 503">
<path id="Vector_8" d="M165.252 9.46603C166.094 9.46603 166.816 9.1151 167.284 8.54953C167.682 8.13906 167.917 7.57976 167.917 6.94683C167.917 6.34366 167.702 5.8157 167.339 5.4209C166.878 4.83026 166.137 4.4668 165.252 4.4668C163.748 4.4668 162.656 5.5102 162.656 6.94683C162.656 8.4054 163.748 9.46603 165.252 9.46603Z" fill="#06C6A3"/>
<path id="Vector_9" d="M143.07 35.9113C143.911 35.9113 144.633 35.5604 145.102 34.9948C145.499 34.5844 145.734 34.0251 145.734 33.3921C145.734 32.789 145.52 32.261 145.156 31.8662C144.696 31.2756 143.955 30.9121 143.07 30.9121C141.566 30.9121 140.474 31.9555 140.474 33.3921C140.472 34.8507 141.564 35.9113 143.07 35.9113Z" fill="#06C6A3"/>
<path id="Vector_10" d="M158.765 0.890625L155.048 1.09429L150.253 35.2633H153.964L158.765 0.890625Z" fill="#06C6A3"/>
<path id="Vector_11" d="M166.44 12.2793H162.774L159.556 35.2623H163.222L166.44 12.2793Z" fill="#06C6A3"/>
<path id="Vector_12" d="M182.923 12.2799H176.489L176.866 9.64166C177.107 7.86662 177.408 6.48169 177.769 5.48842C178.025 4.78342 178.32 4.23352 178.652 3.83089C178.741 3.73532 178.834 3.64759 178.928 3.57552C179.401 3.21362 180.012 3.03189 180.744 3.03189C181.229 3.03189 181.702 3.10396 182.147 3.24809C182.597 3.39379 182.964 3.54732 183.236 3.70399C183.612 3.92176 183.697 3.99382 183.714 4.01106L183.933 4.22726L184.837 2.02609L184.696 1.93209C184.602 1.86942 184.377 1.73469 184.009 1.51849C183.636 1.30229 183.137 1.09079 182.523 0.891824C181.903 0.689724 181.212 0.587891 180.474 0.587891C178.281 0.587891 176.595 1.30542 175.461 2.71856C174.344 4.11132 173.562 6.30779 173.137 9.25156L172.711 12.3254L170.346 12.3379L169.992 14.9025H172.338L169.257 36.8782C168.871 39.6042 168.304 41.5829 167.571 42.7563C166.852 43.9062 165.964 44.4655 164.858 44.4655C164.461 44.4655 164.11 44.4154 163.817 44.3183C163.523 44.2196 163.299 44.1146 163.151 44.0081C162.929 43.8451 162.887 43.8075 162.88 43.8013L162.68 43.6054L161.557 45.7988L161.604 45.8928C161.646 45.9758 161.738 46.0745 162.056 46.2876C162.299 46.4489 162.656 46.6056 163.145 46.7638C163.631 46.9205 164.253 46.9988 164.992 46.9988C166.946 46.9988 168.561 46.3111 169.836 44.9496C171.436 43.3328 172.501 40.6523 173.032 36.9064L176.119 14.9025H182.552L182.923 12.2799Z" fill="#06C6A3"/>
<path id="Vector_13" d="M196.961 13.5122C195.705 12.3356 194.196 11.8985 192.606 11.8656C190.349 11.8186 188.329 12.4766 186.603 13.6814C184.881 14.883 183.523 16.6079 182.565 18.8075C181.614 20.9946 181.132 23.5373 181.132 26.3651C181.132 29.3528 181.975 31.6761 183.635 33.2726C185.293 34.8674 187.497 35.6758 190.187 35.6758C191.832 35.6758 192.713 35.4032 193.866 34.8674C195.009 34.3348 195.909 33.7457 196.542 33.1128C197.54 32.1164 197.54 32.002 197.54 31.8688V31.7482L196.054 30.4322L195.967 30.5638C195.901 30.6625 195.824 30.7565 195.739 30.8395C195.664 30.9147 195.523 31.0526 195.175 31.38C194.707 31.8203 194.046 32.2323 193.212 32.6052C192.385 32.9749 191.92 33.1629 190.77 33.1629C189.031 33.1629 187.627 32.6334 186.595 31.5884C185.562 30.5434 185.038 28.9219 185.038 26.7693C185.038 26.0737 185.047 25.5191 185.067 25.1181H186.827C190.338 25.1181 192.21 24.6684 194.662 23.7817C197.204 22.8636 198.494 20.9335 198.494 18.0446C198.492 16.304 198.223 14.695 196.961 13.5122ZM192.498 21.8625C190.731 22.5331 189.617 22.873 186.913 22.873H185.301C185.697 20.2191 186.491 18.1166 187.665 16.6252C188.86 15.1055 190.306 14.3582 192.12 14.3582C193.385 14.3582 194.041 14.5117 194.579 15.0491C195.252 15.7228 195.346 16.7928 195.346 17.8143C195.348 19.8556 194.204 21.2139 192.498 21.8625Z" fill="#06C6A3"/>
</g>
</g>
</g>
<defs>
<clipPath id="clip0_5151_12153">
<rect width="197.588" height="47" fill="white" transform="translate(0.871094)"/>
</clipPath>
</defs>
</svg>
