<?xml version="1.0" encoding="UTF-8"?>
<svg id="Layer_1" data-name="Layer 1" xmlns="http://www.w3.org/2000/svg" viewBox="0 0 512 512">
  <defs>
    <style>
      .cls-1 {
        fill: #114559;
        fill-rule: evenodd;
      }

      .cls-1, .cls-2, .cls-3, .cls-4 {
        stroke-width: 0px;
      }

      .cls-2 {
        fill: #dd7676;
      }

      .cls-3 {
        fill: #f4f6f8;
      }

      .cls-4 {
        fill: #fff;
      }
    </style>
  </defs>
  <circle class="cls-3" cx="256" cy="256" r="240"/>
  <g>
    <g id="Layer_1-2" data-name="Layer 1">
      <g>
        <path class="cls-1" d="M351.8,244.71c-23.43,23.43-61.42,23.43-84.86,0-23.43-23.43-23.43-61.42,0-84.86,23.43-23.43,61.42-23.43,84.86,0,23.43,23.43,23.43,61.42,0,84.86h0ZM309.37,276.87c19.09,0,38.18-7.28,52.74-21.85,14.56-14.56,21.85-33.65,21.85-52.74s-7.28-38.18-21.85-52.74c-14.56-14.56-33.65-21.85-52.74-21.85s-38.18,7.28-52.74,21.85c-14.56,14.56-21.85,33.65-21.85,52.74,0,15.23,4.64,30.46,13.91,43.39.08.1.16.21.23.31,2.29,3.16,4.86,6.19,7.72,9.04,3.27,3.27,6.77,6.17,10.44,8.71.1.06.2.13.3.21,12.63,8.62,27.31,12.93,42,12.93Z"/>
        <path class="cls-1" d="M240.38,286.62l19.46-19.46c-2.84-2.18-5.58-4.57-8.18-7.17-2.17-2.17-4.2-4.44-6.07-6.78l-19.07,19.07c3,1.26,5.75,3.1,8.1,5.45,2.55,2.55,4.5,5.59,5.77,8.88Z"/>
        <path class="cls-1" d="M235.04,295.82c0-4.76-1.8-9.51-5.4-13.11-3.6-3.6-8.36-5.4-13.11-5.4s-9.51,1.8-13.11,5.4l-8.35,8.35c17.43,5.38,23.97,18.11,26.39,26.05l8.18-8.18c3.6-3.6,5.4-8.36,5.4-13.11Z"/>
        <path class="cls-1" d="M132.61,375.65h0ZM169.05,369.52c-7.94-2.43-20.68-8.96-26.05-26.39l-10.39,10.39c-3.05,3.05-4.57,7.06-4.57,11.07s1.52,8.02,4.57,11.07l4.09,4.09c3.05,3.05,7.06,4.57,11.07,4.57s8.02-1.52,11.07-4.57l10.22-10.22Z"/>
        <path class="cls-1" d="M174.85,363.72l40.06-40.06.75-.75c-.85-5.11-5.2-21.5-26.33-26.12l-40.6,40.6c4.62,21.13,21.01,25.48,26.12,26.33Z"/>
      </g>
    </g>
    <g>
      <circle class="cls-2" cx="308.63" cy="202.27" r="48.67"/>
      <path class="cls-4" d="M288.41,226.83c-1.11,0-2.22-.42-3.06-1.27-1.69-1.69-1.69-4.43,0-6.13l40.45-40.45c1.69-1.69,4.44-1.69,6.13,0,1.69,1.69,1.69,4.43,0,6.13l-40.45,40.45c-.85.85-1.95,1.27-3.06,1.27Z"/>
      <path class="cls-4" d="M328.86,226.83c-1.11,0-2.22-.42-3.06-1.27l-40.45-40.45c-1.69-1.69-1.69-4.43,0-6.13,1.69-1.69,4.44-1.69,6.13,0l40.45,40.45c1.69,1.69,1.69,4.43,0,6.13-.85.85-1.95,1.27-3.06,1.27Z"/>
    </g>
  </g>
</svg>