<svg id="Camada_1" data-name="Camada 1" xmlns="http://www.w3.org/2000/svg" viewBox="0 0 1525.98 342.72">
  <defs>
    <style>
      .cls-1 {
        fill: #000;
      }

      .cls-1, .cls-2 {
        stroke-width: 0px;
      }

      .cls-2 {
        fill: #06c6a3;
      }
    </style>
  </defs>
  <g>
    <polygon class="cls-1" points="827.71 83.64 794.8 83.64 862.71 261.06 863.92 261.06 915.34 127.06 966.86 261.09 968.57 261.09 1036.48 83.64 1024.19 83.64 975.22 211.56 924.09 80.09 923.06 80.09 874.47 205.38 827.71 83.64"/>
    <path class="cls-1" d="M595.04,3.64v252.29h-31.95V3.64h31.95Z"/>
    <path class="cls-1" d="M622,173.29c0-53.36,35.57-89.92,89.59-89.92,50.39,0,84.97,32.94,84.97,85.96s-35.57,91.23-88.93,91.23-85.63-33.27-85.63-87.28ZM715.21,255.96c28.33,0,46.77-23.06,46.77-76.08,0-56.98-22.73-91.89-56.98-91.89-28.33,0-48.42,22.07-48.42,75.42,0,56.98,23.71,92.55,58.63,92.55Z"/>
    <path class="cls-1" d="M240.19,254.95h-31.8v-8.21s0-139.91,0-139.91l-.04-3.61v-1.76l31.57-18.39h.33v163.67l-.06,8.21ZM224.16,28.42c11.82,0,20.36,8.21,20.36,19.38s-8.54,19.71-20.36,19.71-20.36-8.54-20.36-19.71,8.21-19.38,20.36-19.38Z"/>
    <path class="cls-1" d="M274.06,101.7l31.6-18.06h.33v31.78c26.27-19.38,47.62-31.66,65.03-31.66,26.27,0,43.02,17.73,43.02,46.96v116.59l.03,6.57v1.64h-32.24v-1.64l.02-6.57v-111.34c0-22.99-12.48-33.83-30.87-33.83-15.44,0-27.92,5.72-44.99,17.54v134.19s0,1.64,0,1.64h-31.85v-8.21s0-139.91,0-139.91l-.07-5.7Z"/>
    <polygon class="cls-1" points="200.8 21.64 174.93 21.64 107.88 120.85 46.08 29.73 40.87 21.64 0 21.64 5.35 29.73 83.85 143.36 83.85 247.15 83.87 253.71 83.87 255.48 118.33 255.48 118.33 253.62 118.33 247.15 118.33 143.33 200.8 21.64"/>
    <path class="cls-1" d="M491.32,254.93h-32.28v-8.23s-.01-146.24-.01-146.24h-26.02v-12.85h26.09c1.43-59.01,32.41-87.61,60.86-87.61,13.17,0,20.42,6.59,20.42,16.47,0,6.59-3.62,11.2-5.27,13.5-8.56-4.28-16.98-7.88-31.14-7.88-16,0-24.07,15.03-25,28-1,14,1.79,26.32,7.06,37.52h48.09v12.85h-42.82v146.24l.02,8.23Z"/>
  </g>
  <path class="cls-2" d="M1033.86,261.09c6.12,0,11.37-2.55,14.78-6.66,2.89-2.99,4.6-7.05,4.6-11.66s-1.56-8.22-4.2-11.1c-3.35-4.29-8.74-6.94-15.18-6.94-10.94,0-18.88,7.58-18.88,18.04s7.94,18.32,18.88,18.32Z"/>
  <g>
    <path class="cls-2" d="M1217.72,255.46h-131.63l32.82-234.41h27.41l-29.08,213.6h104.58l-4.1,20.81Z"/>
    <path class="cls-2" d="M1419.17,12.43c-.68-.45-2.32-1.44-5.03-3.02-2.7-1.57-6.34-3.11-10.81-4.57-4.51-1.46-9.53-2.21-14.91-2.21-15.95,0-28.21,5.21-36.45,15.47-8.15,10.16-13.86,26.23-16.97,47.77l-3.2,23.03-17.3.06-2.55,17.86h17.25l-22.73,162.09c-2.84,20.11-7.04,34.71-12.46,43.4-5.31,8.49-12.17,12.8-20.39,12.8-2.97,0-5.6-.37-7.81-1.11-2.21-.74-3.91-1.53-5.04-2.35-1.59-1.16-1.96-1.48-2.05-1.57l-.97-.95-7.82,15.26.23.45c.22.44.77,1.11,3.16,2.7,1.75,1.16,4.32,2.29,7.88,3.44,3.52,1.13,8.03,1.71,13.41,1.71,31.62,0,51.15-24.74,58.05-73.52l22.77-162.37h47.77l2.61-18.26h-47.77l2.82-19.77c1.75-12.91,3.96-23.11,6.58-30.31,2.58-7.08,5.7-12.07,9.29-14.81,3.57-2.73,8.16-4.11,13.66-4.11,3.63,0,7.16.54,10.47,1.61,3.34,1.08,6.07,2.23,8.1,3.4,2.64,1.53,3.4,2.12,3.61,2.33l1.06,1.05,6.19-15.08-.68-.45Z"/>
    <path class="cls-2" d="M1432.09,181.48c25.88,0,48.15-3.31,66.2-9.85,18.38-6.65,27.7-20.64,27.7-41.58,0-12.61-4.63-23.35-13.75-31.92-9.11-8.54-21.67-12.88-37.35-12.88-16.5,0-31.26,4.47-43.87,13.29-12.59,8.81-22.53,21.45-29.54,37.58-6.99,16.09-10.53,34.81-10.53,55.64,0,21.86,6.13,38.85,18.22,50.49,12.08,11.63,28.16,17.53,47.81,17.53,12.03,0,22.39-1.98,30.78-5.9,8.36-3.9,14.82-8.31,19.53-12.81,5.69-5.43,6.86-7.54,7.29-8.31.04-.08.14-.33.14-.33l-10.21-9.08s-2.27,2.92-5.91,6.33c-3.55,3.33-8.53,6.46-14.82,9.27-6.25,2.8-13.82,4.22-22.48,4.22-13.16,0-23.8-4.03-31.64-11.98-7.84-7.94-11.82-20.21-11.82-36.46,0-5.77.09-10.22.27-13.27h13.99ZM1471.9,101.52c9.64,0,17.22,2.58,22.53,7.68,5.3,5.09,7.99,11.66,7.99,19.52,0,15.61-6.35,25.61-19.43,30.58-13.2,5.02-30.1,7.57-50.24,7.57h-13.12c2.9-20.41,8.91-36.55,17.89-47.98,9.05-11.52,20.62-17.37,34.38-17.37Z"/>
    <g>
      <polygon class="cls-2" points="1264.77 88.57 1241.26 256.46 1267.17 256.46 1290.67 88.57 1264.77 88.57"/>
      <path class="cls-2" d="M1282.82,68.31c6.13,0,11.39-2.55,14.8-6.68,2.9-2.99,4.61-7.07,4.61-11.68s-1.56-8.23-4.21-11.12c-3.36-4.3-8.75-6.95-15.2-6.95-10.96,0-18.91,7.6-18.91,18.07s7.95,18.35,18.91,18.35Z"/>
    </g>
  </g>
</svg>