<svg width="202" height="49" viewBox="0 0 202 49" fill="none" xmlns="http://www.w3.org/2000/svg">
<g clip-path="url(#clip0_4709_53176)">
<path d="M116.265 12.2492H111.643L121.182 37.1708H121.352L128.576 18.3484L135.811 37.1756H136.053L145.592 12.2492H143.865L136.985 30.2188L129.803 11.75H129.659L122.833 29.3484L116.265 12.2492Z" fill="black"/>
<path d="M83.5822 1.01172V36.4501H79.0942V1.01172H83.5822Z" fill="black"/>
<path d="M87.3696 24.8413C87.3696 17.3469 92.3664 12.2109 99.9536 12.2109C107.032 12.2109 111.89 16.8381 111.89 24.2861C111.89 31.9661 106.893 37.1021 99.3984 37.1021C92.2288 37.1005 87.3696 32.4285 87.3696 24.8413ZM100.462 36.4541C104.442 36.4541 107.032 33.2157 107.032 25.7677C107.032 17.7645 103.84 12.8605 99.0288 12.8605C95.0496 12.8605 92.2272 15.9597 92.2272 23.4557C92.2288 31.4573 95.5584 36.4541 100.462 36.4541Z" fill="black"/>
<path d="M33.7391 36.3114H29.2735V36.081V35.1578V15.505L29.2687 14.9978V14.7498L33.7023 12.1658H33.7487V35.1562L33.7391 36.3114ZM31.4863 4.49219C33.1471 4.49219 34.3471 5.64579 34.3471 7.21379C34.3471 8.78179 33.1471 9.98179 31.4863 9.98179C29.7791 9.98179 28.6255 8.78179 28.6255 7.21379C28.6271 5.64579 29.7791 4.49219 31.4863 4.49219Z" fill="black"/>
<path d="M38.4976 14.7876L42.936 12.25H42.9824V16.714C46.6736 13.9924 49.672 12.266 52.1168 12.266C55.808 12.266 58.16 14.7572 58.16 18.8628V35.2404L58.1648 36.1636V36.394H53.6368V36.1636L53.64 35.2404V19.602C53.64 16.3732 51.8864 14.85 49.304 14.85C47.136 14.85 45.3824 15.6532 42.984 17.314V35.2404V36.1636V36.394H38.5104V36.1636V35.2404V15.5876L38.4976 14.7876Z" fill="black"/>
<path d="M28.2064 3.53906H24.5712L15.1536 17.4751L6.472 4.67506L5.7408 3.53906H0L0.752 4.67506L11.7776 20.6367V35.2143L11.7808 36.1375V36.3855H16.6208V36.1247V35.2143V20.6319L28.2064 3.53906Z" fill="black"/>
<path d="M69.0146 36.308H64.4802L64.4786 35.1512V14.6104H60.8242V14.3784V12.8056H64.4898C64.6882 4.516 69.0402 0.5 73.037 0.5C74.8882 0.5 75.9058 1.4248 75.9058 2.8136C75.9058 3.7384 75.397 4.3864 75.165 4.7112C73.9618 4.1096 72.781 3.604 70.7906 3.604C68.5426 3.604 67.4098 5.716 67.2786 7.5368C67.1378 9.5032 67.5298 11.2328 68.2706 12.8072H75.0258V14.612H69.0114V35.1528L69.0146 36.308Z" fill="black"/>
<path d="M167.878 10.1681C168.737 10.1681 169.475 9.8097 169.953 9.2321C170.36 8.8129 170.6 8.2417 170.6 7.5953C170.6 6.9793 170.381 6.4401 170.009 6.0369C169.539 5.4337 168.782 5.0625 167.878 5.0625C166.342 5.0625 165.227 6.1281 165.227 7.5953C165.227 9.0849 166.342 10.1681 167.878 10.1681Z" fill="#06C6A3"/>
<path d="M145.224 37.1759C146.083 37.1759 146.821 36.8175 147.299 36.2399C147.706 35.8207 147.946 35.2495 147.946 34.6031C147.946 33.9871 147.726 33.4479 147.355 33.0447C146.885 32.4415 146.128 32.0703 145.224 32.0703C143.688 32.0703 142.573 33.1359 142.573 34.6031C142.571 36.0927 143.686 37.1759 145.224 37.1759Z" fill="#06C6A3"/>
<path d="M161.252 1.41016L157.457 1.61816L152.56 36.5142H156.35L161.252 1.41016Z" fill="#06C6A3"/>
<path d="M169.091 13.043H165.347L162.061 36.515H165.805L169.091 13.043Z" fill="#06C6A3"/>
<path d="M185.925 13.0424H179.354L179.739 10.348C179.986 8.53516 180.293 7.12076 180.661 6.10636C180.923 5.38636 181.224 4.82476 181.563 4.41356C181.654 4.31596 181.749 4.22636 181.845 4.15276C182.328 3.78316 182.952 3.59756 183.699 3.59756C184.195 3.59756 184.678 3.67116 185.133 3.81836C185.592 3.96716 185.966 4.12396 186.245 4.28396C186.629 4.50636 186.715 4.57996 186.733 4.59756L186.957 4.81836L187.88 2.57036L187.736 2.47436C187.64 2.41036 187.41 2.27276 187.034 2.05196C186.653 1.83116 186.144 1.61516 185.517 1.41196C184.883 1.20556 184.178 1.10156 183.424 1.10156C181.184 1.10156 179.462 1.83436 178.304 3.27756C177.163 4.69996 176.365 6.94316 175.931 9.94956L175.496 13.0888L173.08 13.1016L172.718 15.7208H175.115L171.968 38.164C171.574 40.948 170.995 42.9688 170.246 44.1672C169.512 45.3416 168.605 45.9128 167.475 45.9128C167.07 45.9128 166.712 45.8616 166.413 45.7624C166.112 45.6616 165.883 45.5544 165.733 45.4456C165.506 45.2792 165.462 45.2408 165.456 45.2344L165.251 45.0344L164.104 47.2744L164.152 47.3704C164.195 47.4552 164.29 47.556 164.614 47.7736C164.862 47.9384 165.227 48.0984 165.726 48.26C166.222 48.42 166.858 48.5 167.613 48.5C169.608 48.5 171.258 47.7976 172.56 46.4072C174.194 44.756 175.282 42.0184 175.824 38.1928L178.976 15.7208H185.546L185.925 13.0424Z" fill="#06C6A3"/>
<path d="M200.262 14.3012C198.979 13.0996 197.438 12.6532 195.814 12.6196C193.509 12.5716 191.446 13.2436 189.683 14.474C187.925 15.7012 186.537 17.4628 185.56 19.7092C184.589 21.9428 184.096 24.5396 184.096 27.4276C184.096 30.4788 184.956 32.8516 186.652 34.482C188.345 36.1108 190.597 36.9364 193.344 36.9364C195.024 36.9364 195.923 36.658 197.101 36.1108C198.269 35.5668 199.187 34.9652 199.833 34.3188C200.853 33.3012 200.852 33.1844 200.852 33.0484V32.9252L199.336 31.5812L199.246 31.7156C199.179 31.8164 199.101 31.9124 199.014 31.9972C198.937 32.074 198.793 32.2148 198.438 32.5492C197.96 32.9988 197.285 33.4196 196.433 33.8004C195.589 34.178 195.113 34.37 193.939 34.37C192.163 34.37 190.729 33.8292 189.675 32.762C188.621 31.6948 188.085 30.0388 188.085 27.8404C188.085 27.13 188.094 26.5636 188.115 26.154H189.912C193.497 26.154 195.409 25.6948 197.913 24.7892C200.51 23.8516 201.827 21.8804 201.827 18.93C201.825 17.1524 201.55 15.5092 200.262 14.3012ZM195.704 22.8292C193.899 23.514 192.761 23.8612 190 23.8612H188.353C188.758 21.1508 189.569 19.0036 190.768 17.4804C191.989 15.9284 193.465 15.1652 195.318 15.1652C196.609 15.1652 197.28 15.322 197.829 15.8708C198.517 16.5588 198.612 17.6516 198.612 18.6948C198.614 20.7796 197.446 22.1668 195.704 22.8292Z" fill="#06C6A3"/>
</g>
<defs>
<clipPath id="clip0_4709_53176">
<rect width="201.792" height="48" fill="white" transform="translate(0 0.5)"/>
</clipPath>
</defs>
</svg>
