<?xml version="1.0" encoding="UTF-8"?>
<svg id="Layer_2" data-name="Layer 2" xmlns="http://www.w3.org/2000/svg" viewBox="0 0 900 900">
  <defs>
    <style>
      .cls-1 {
        fill: #132327;
      }

      .cls-1, .cls-2 {
        stroke-width: 0px;
      }

      .cls-2 {
        fill: #adebe1;
      }
    </style>
  </defs>
  <g id="Layer_1-2" data-name="Layer 1">
    <g>
      <path class="cls-1" d="M201.88,7.18c165.41-9.58,330.83-9.58,496.24,0,98.79,6.37,188.32,95.91,194.7,194.7,9.58,165.41,9.58,330.83,0,496.24-6.38,98.79-95.9,188.33-194.7,194.7-165.41,9.58-330.83,9.58-496.24,0-98.79-6.37-188.32-95.91-194.7-194.7-9.58-165.41-9.58-330.83,0-496.24C13.56,103.09,103.09,13.55,201.88,7.18Z"/>
      <g>
        <path class="cls-2" d="M100.47,708.64c-7.5-9.48-11.3-24.45-11.3-44.81,0-14.04,2.02-30.77,5.95-50.08l12.26-56.63h50.33l-11.07,50.78c-5.83,28.32-8.81,47.5-8.81,57.56,0,11.11,3.09,16.73,9.4,16.73,8.57,0,17.73-10.18,27.37-30.42,9.64-20.36,19.04-51.83,28.32-94.54h50.33l-16.66,74.29c-1.9,8.31-3.57,15.91-4.88,23.05-1.31,7.14-2.02,12.52-2.02,16.26,0,3.98.71,6.79,2.26,8.66,1.43,1.87,3.81,2.81,6.9,2.81,6.31,0,12.97-4.91,19.99-14.74,7.02-9.83,14.04-24.1,20.94-43.06,6.9-18.84,13.21-41.3,18.92-67.28h50.33c-5.47,28.67-14.16,55.69-26.06,81.08-11.9,25.39-26.06,45.87-42.36,61.43-16.3,15.56-33.08,23.4-50.45,23.4-9.28,0-16.42-2.93-21.54-8.78-5.12-5.85-7.73-14.27-7.73-25.27,0-4.1.48-9.24,1.55-15.44v-1.29c0-2.46-1.31-3.75-3.81-3.75-2.74,0-4.88,1.64-6.66,4.92-7.73,16.96-16.9,29.37-27.49,37.44-10.59,8.07-21.77,12.05-33.55,12.05-12.85,0-22.96-4.8-30.58-14.27l.12-.12Z"/>
        <path class="cls-2" d="M356.91,595.09c9.53-13.81,21.24-24.82,35.12-33.01,13.88-8.19,28.48-12.17,44.05-12.17,9.41,0,16.89,1.99,22.45,5.85,5.67,3.98,10.5,9.13,14.48,15.45,1.09,1.4,2.05,2.46,2.9,3.05.85.58,2.05.58,3.5,0,1.93-1.05,2.9-2.34,2.9-3.98,0-.58-.24-1.52-.6-2.81-.6-1.29-1.33-2.69-2.29-4.33-.84-1.64-1.33-3.28-1.33-4.92,0-1.29,0-2.34.36-3.4h51.05l-18.83,86.62c-3.38,15.1-5.91,27.04-7.36,35.7-1.45,8.78-2.29,16.27-2.29,22.48s.97,12.64,2.9,18.61h-51.65c-1.09-4.1-1.57-7.61-1.57-10.54,0-5.38.96-10.42,2.9-14.98,1.93-4.68,4.58-9.6,7.96-14.98,1.69-2.46,2.9-4.33,3.5-5.62.6-1.29.97-2.22.97-3.05,0-1.29-.6-2.22-1.93-2.81-.24-.23-.73-.35-1.57-.35s-1.81.23-2.66.82c-.96.47-1.57,1.17-1.81,1.99-20.64,36.29-45.13,54.43-73.37,54.43-14.72,0-26.67-5.39-36.08-16.16-9.41-10.77-14-25.05-14-43.08,0-8.43.85-16.39,2.54-23.88,3.62-16.27,10.26-31.37,19.79-45.18v.23ZM431.61,672.11c7.84-5.97,14.84-14.52,21.12-25.52,6.16-11,10.86-23.64,14-37.93-4.22-6.2-8.57-10.54-12.79-12.99-4.22-2.46-9.78-3.75-16.65-3.75-12.31,0-22.81,4.45-31.38,13.46-8.57,9.01-14.6,21.19-17.98,36.64-1.09,5.62-1.57,10.06-1.57,13.58,0,8.31,1.93,14.51,5.91,18.85,3.98,4.33,9.05,6.55,15.45,6.55,8.09,0,16.05-3.04,23.89-9.01v.12Z"/>
        <path class="cls-2" d="M600.43,557.24l-16.25,75.72c-3.53,17.14-5.3,28.18-5.3,32.87,0,4.11.83,7.16,2.36,9.04,1.53,1.88,4.12,2.82,7.65,2.82,5.77,0,13.55-6.11,23.32-18.2,9.78-12.09,18.96-26.65,27.68-43.79,8.72-17.02,14.6-32.52,17.78-46.37l2.48-12.09h49.82l-25.56,119.28c-5.77,27.94-12.48,49.08-19.91,63.52-7.42,14.44-18.14,24.77-32.04,31.23-13.9,6.46-33.8,9.63-59.48,9.63h-65.13l8.36-39.8h42.64c19.67,0,34.04-1.29,42.87-3.76,8.83-2.47,15.31-7.16,19.32-14.09s7.89-18.67,11.43-35.22c.83-4.58,2.24-8.81,4.24-12.68,2-3.87,3.89-7.4,5.65-10.45,1.77-3.05,2.95-5.05,3.53-6.11.83-1.64,1.3-2.82,1.3-3.4,0-1.29-.71-2.23-2.24-2.82-.47-.24-.94-.35-1.53-.35-1.41,0-2.95,1.05-4.36,3.05-9.54,17.61-21.44,32.52-35.81,44.85-14.37,12.33-29.45,18.43-45.11,18.43-11.66,0-19.91-2.47-24.97-7.28-4.95-4.81-7.42-12.56-7.42-23.13,0-9.98,2.24-24.65,6.6-44.14l18.38-86.88h49.82l-.12.12Z"/>
        <path class="cls-2" d="M781.22,493.37c7.98.73,13.76,2.42,17.23,4.97,3.59,2.55,5.32,6.79,5.32,12.49,0,4.73-.92,10.91-2.77,18.55l-28.45,128.29c-1.85,9.22-2.78,14.79-2.78,16.73,0,3.4,1.04,5.58,3.24,6.43,2.2.85,6.48,1.33,12.95,1.33h10.99l-8.21,40.99h-35.5c-13.07,0-22.32-1.82-27.87-5.46-5.55-3.64-8.21-10.31-8.21-20.25,0-5.94.93-13.22,2.78-21.83l27.87-125.01c1.39-6.43,2.2-10.31,2.2-11.88,0-2.55-.92-4.12-2.89-4.61-1.97-.48-6.13-.85-12.72-.85l8.21-41.11c17.69,0,30.53.36,38.51,1.09l.12.12Z"/>
      </g>
    </g>
  </g>
</svg>