<?xml version="1.0" encoding="UTF-8"?>
<svg id="b" data-name="Layer 2" xmlns="http://www.w3.org/2000/svg" width="39.629" height="44" viewBox="0 0 39.629 44">
  <defs>
    <style>
      .d {
        fill: #039649;
      }
    </style>
  </defs>
  <g id="c" data-name="Layer 1">
    <path class="d" d="m19.21,44c-.66,0-1.32-.22-1.87-.55-.77-.55-1.32-1.54-1.32-2.53v-9.02L.4,4.73C-.15,3.63-.15,2.42.51,1.54c.55-.99,1.65-1.54,2.75-1.54h28.6c1.099,0,2.089.55,2.639,1.54.66.991.66,2.31.11,3.301l-1.87,3.3h3.74c1.1,0,2.089.55,2.639,1.54.66.99.66,2.31.11,3.3l-10.89,18.81v6.82c0,1.43-.88,2.53-2.2,2.97l-5.94,2.31c-.22.11-.66.11-.99.11M3.26,3.08q-.11.11-.11.221l15.51,27.059c.44.77.44,1.21.44,1.65v8.799s.11.11.22,0l5.94-2.31h.22v-6.6c0-.44,0-1.21.441-1.76l10.78-18.7c0-.11,0-.22-.11-.22l-19.69-.11,5.28,9.13,3.74-6.49c.44-.77,1.32-.99,2.09-.55.77.44.99,1.32.549,2.09l-4.399,7.59c-.991,1.54-3.19,1.43-4.071.11l-6.38-11.33c-.44-.66-.44-1.54,0-2.31.441-.77,1.211-1.32,2.09-1.32h13.42l2.75-4.73s0-.11-.11-.221H3.26Z"/>
  </g>
</svg>
