<svg width="48" height="46" viewBox="0 0 48 46" fill="none" xmlns="http://www.w3.org/2000/svg">
<rect width="48" height="46" rx="5" fill="white"/>
<path fill-rule="evenodd" clip-rule="evenodd" d="M33.3288 26.6828C33.3771 30.0556 30.6779 32.8154 27.3526 32.8154L23.6665 32.811C22.4788 32.8102 21.5168 31.8357 21.5168 30.6348C21.5168 29.433 22.4806 28.4585 23.6691 28.4585H27.3113C28.2147 28.4585 28.9821 27.7967 29.0183 26.8378C29.0544 25.879 28.2931 25.0874 27.3526 25.0874H20.0673C16.7877 25.0874 14.0507 22.4539 14.0007 19.1378C13.9499 15.7623 16.6508 13 19.9769 13H30.1009C31.2911 13 32.2557 13.9754 32.2557 15.1789C32.2557 16.3824 31.2911 17.3578 30.1009 17.3578H20.0174C19.1139 17.3578 18.3466 18.0196 18.3104 18.9784C18.2742 19.9372 19.0356 20.7288 19.9761 20.7288H27.257C30.5392 20.7288 33.2814 23.364 33.3288 26.6828ZM19.3689 30.6435C19.3689 31.843 18.4072 32.8154 17.2209 32.8154C16.0346 32.8154 15.073 31.843 15.073 30.6435C15.073 29.444 16.0346 28.4716 17.2209 28.4716C18.4072 28.4716 19.3689 29.444 19.3689 30.6435Z" fill="#1E1C51"/>
</svg>
