<svg version="1.1" id="Layer_1" xmlns="http://www.w3.org/2000/svg" xmlns:xlink="http://www.w3.org/1999/xlink" x="0px" y="0px"
	 width="100%" viewBox="0 0 280 280" enable-background="new 0 0 280 280" xml:space="preserve">
<path fill="#FEFFFE" opacity="1.000000" stroke="none" 
	d="
M82.000000,131.000000 
	C54.666672,131.000000 27.833340,131.000000 1.000007,131.000000 
	C1.000005,87.666672 1.000005,44.333351 1.000002,1.000019 
	C44.333317,1.000013 87.666634,1.000013 130.999969,1.000006 
	C130.999969,44.333313 130.999969,87.666626 130.999985,130.999969 
	C114.833336,131.000000 98.666664,131.000000 82.000000,131.000000 
M80.304039,116.010239 
	C81.410194,115.651123 82.529060,115.326782 83.620636,114.927773 
	C107.551094,106.180450 121.177818,82.579025 117.127426,56.908875 
	C113.419884,33.411705 92.410789,14.722506 68.158806,14.158681 
	C46.413498,13.653133 29.695196,23.124407 19.832899,42.555874 
	C9.977944,61.972874 11.889704,81.228149 25.482962,98.245949 
	C39.341545,115.595917 57.835495,121.202248 80.304039,116.010239 
z"/>
<path fill="#0FBD8C" opacity="1.000000" stroke="none" 
	d="
M79.899239,116.080132 
	C57.835495,121.202248 39.341545,115.595917 25.482962,98.245949 
	C11.889704,81.228149 9.977944,61.972874 19.832899,42.555874 
	C29.695196,23.124407 46.413498,13.653133 68.158806,14.158681 
	C92.410789,14.722506 113.419884,33.411705 117.127426,56.908875 
	C121.177818,82.579025 107.551094,106.180450 83.620636,114.927773 
	C82.529060,115.326782 81.410194,115.651123 79.899239,116.080132 
M43.729244,64.489655 
	C46.841015,57.891266 52.078800,54.581753 59.291111,53.652920 
	C60.987541,53.434448 62.414623,51.124477 63.965614,49.776691 
	C62.679882,48.535084 61.527779,46.408714 60.087376,46.191158 
	C48.028214,44.369770 32.459301,59.841293 34.443027,71.673950 
	C34.694389,73.173294 36.734539,75.255005 38.127083,75.406960 
	C39.280926,75.532875 41.190510,73.434402 41.884884,71.918221 
	C42.821003,69.874176 42.912605,67.443382 43.729244,64.489655 
M96.764290,67.081497 
	C96.980499,65.939430 97.199989,64.797974 97.412292,63.655182 
	C97.992294,60.533211 98.231712,57.114529 94.267616,56.507717 
	C90.380280,55.912651 90.205879,59.175003 89.827744,62.159767 
	C88.729370,70.829620 82.419197,77.045799 73.851418,78.098534 
	C70.943481,78.455841 67.704674,78.549591 68.135201,82.583992 
	C68.564499,86.606949 71.995789,86.258438 74.735855,85.855865 
	C85.582077,84.262299 92.819016,78.145561 96.764290,67.081497 
M81.382927,45.240509 
	C76.601952,38.655025 70.037613,35.033459 62.037800,34.487099 
	C60.311825,34.369217 58.436016,36.445103 56.629227,37.510487 
	C57.791828,39.005177 58.814938,41.652596 60.139027,41.812832 
	C71.078262,43.136627 77.270584,48.781479 78.606148,59.909660 
	C78.784645,61.396915 81.202614,62.615395 82.583519,63.958340 
	C83.750786,62.275341 86.121117,60.373646 85.862297,58.949883 
	C85.049171,54.476883 83.247169,50.183643 81.382927,45.240509 
M46.038300,74.418922 
	C47.999355,87.277306 56.611160,96.120010 69.111374,97.411713 
	C71.123680,97.619652 74.711761,95.969414 75.234482,94.399849 
	C76.306099,91.182144 73.537582,90.213196 70.485092,89.880821 
	C60.931999,88.840637 55.170300,82.956490 53.791134,73.104729 
	C53.420174,70.454811 52.853310,67.891830 49.541534,68.107025 
	C46.257019,68.320442 45.789738,70.842979 46.038300,74.418922 
z"/>
<path fill="#F5FCFA" opacity="1.000000" stroke="none" 
	d="
M43.547939,64.834106 
	C42.912605,67.443382 42.821003,69.874176 41.884884,71.918221 
	C41.190510,73.434402 39.280926,75.532875 38.127083,75.406960 
	C36.734539,75.255005 34.694389,73.173294 34.443027,71.673950 
	C32.459301,59.841293 48.028214,44.369770 60.087376,46.191158 
	C61.527779,46.408714 62.679882,48.535084 63.965618,49.776691 
	C62.414623,51.124477 60.987541,53.434448 59.291111,53.652920 
	C52.078800,54.581753 46.841015,57.891266 43.547939,64.834106 
z"/>
<path fill="#F5FCF9" opacity="1.000000" stroke="none" 
	d="
M96.639969,67.456390 
	C92.819016,78.145561 85.582077,84.262299 74.735855,85.855865 
	C71.995789,86.258438 68.564499,86.606949 68.135201,82.583992 
	C67.704674,78.549591 70.943481,78.455841 73.851418,78.098534 
	C82.419197,77.045799 88.729370,70.829620 89.827744,62.159767 
	C90.205879,59.175003 90.380280,55.912651 94.267616,56.507717 
	C98.231712,57.114529 97.992294,60.533211 97.412292,63.655182 
	C97.199989,64.797974 96.980499,65.939430 96.639969,67.456390 
z"/>
<path fill="#F5FCFA" opacity="1.000000" stroke="none" 
	d="
M81.605507,45.530655 
	C83.247169,50.183643 85.049171,54.476883 85.862297,58.949883 
	C86.121117,60.373646 83.750786,62.275341 82.583511,63.958336 
	C81.202614,62.615395 78.784645,61.396915 78.606148,59.909660 
	C77.270584,48.781479 71.078262,43.136627 60.139027,41.812832 
	C58.814938,41.652596 57.791828,39.005177 56.629227,37.510487 
	C58.436016,36.445103 60.311825,34.369217 62.037800,34.487099 
	C70.037613,35.033459 76.601952,38.655025 81.605507,45.530655 
z"/>
<path fill="#F4FCF9" opacity="1.000000" stroke="none" 
	d="
M46.024525,73.998505 
	C45.789738,70.842979 46.257019,68.320442 49.541534,68.107025 
	C52.853310,67.891830 53.420174,70.454811 53.791134,73.104729 
	C55.170300,82.956490 60.931999,88.840637 70.485092,89.880821 
	C73.537582,90.213196 76.306099,91.182144 75.234482,94.399849 
	C74.711761,95.969414 71.123680,97.619652 69.111374,97.411713 
	C56.611160,96.120010 47.999355,87.277306 46.024525,73.998505 
z"/>
</svg>