<svg width="128" height="128" viewBox="0 0 128 128" fill="none" xmlns="http://www.w3.org/2000/svg">
<g clip-path="url(#clip0_21_40)">
<mask id="mask0_21_40" style="mask-type:luminance" maskUnits="userSpaceOnUse" x="0" y="0" width="128" height="128">
<path d="M128 0H0V128H128V0Z" fill="white"/>
</mask>
<g mask="url(#mask0_21_40)">
<path d="M64 128C99.3462 128 128 99.3462 128 64C128 28.6538 99.3462 0 64 0C28.6538 0 0 28.6538 0 64C0 99.3462 28.6538 128 64 128Z" fill="#04BF8A"/>
<mask id="mask1_21_40" style="mask-type:luminance" maskUnits="userSpaceOnUse" x="24" y="36" width="40" height="41">
<path d="M32.7098 74.7567C29.6118 75.9782 26.0313 74.4474 25.5845 71.1474C25.1746 68.1193 25.3113 65.0003 26.0041 61.917C27.1524 56.8058 29.7837 51.9925 33.6064 48.0107C37.429 44.029 42.2936 41.0342 47.6611 39.3585C50.9976 38.3168 54.4474 37.81 57.8598 37.846C61.184 37.881 63.1527 41.262 62.1561 44.4335C61.2865 47.201 58.4329 48.7692 55.5371 48.941C53.9258 49.0366 52.313 49.3308 50.7417 49.8214C47.4988 50.8339 44.5596 52.6433 42.25 55.049C39.9404 57.4548 38.3506 60.3629 37.6568 63.451C37.4179 64.5142 37.2884 65.5845 37.2674 66.6475C37.2013 69.977 35.8077 73.5352 32.7098 74.7567Z" fill="white" stroke="white" stroke-width="2"/>
</mask>
<g mask="url(#mask1_21_40)">
<path d="M32.7098 74.7567C29.6118 75.9782 26.0313 74.4474 25.5845 71.1474C25.1746 68.1193 25.3113 65.0003 26.0041 61.917C27.1524 56.8058 29.7837 51.9925 33.6064 48.0107C37.429 44.029 42.2936 41.0342 47.6611 39.3585C50.9976 38.3168 54.4474 37.81 57.8598 37.846C61.184 37.881 63.1527 41.262 62.1561 44.4335C61.2865 47.201 58.4329 48.7692 55.5371 48.941C53.9258 49.0366 52.313 49.3308 50.7417 49.8214C47.4988 50.8339 44.5596 52.6433 42.25 55.049C39.9404 57.4548 38.3506 60.3629 37.6568 63.451C37.4179 64.5142 37.2884 65.5845 37.2674 66.6475C37.2013 69.977 35.8077 73.5352 32.7098 74.7567Z" fill="white" stroke="white" stroke-width="2"/>
</g>
<mask id="mask2_21_40" style="mask-type:luminance" maskUnits="userSpaceOnUse" x="51" y="23" width="40" height="40">
<path d="M52.9037 31.2934C51.7372 28.1743 53.3311 24.6214 56.6384 24.2331C59.6733 23.8767 62.7895 24.0687 65.86 24.8158C70.9501 26.0544 75.7161 28.7704 79.6296 32.6629C83.5431 36.5553 86.4514 41.4722 88.0319 46.8684C89.0145 50.2228 89.4601 53.6811 89.3638 57.0923C89.27 60.4154 85.8547 62.324 82.7013 61.2714C79.9497 60.3529 78.4322 57.4721 78.3116 54.5737C78.2445 52.961 77.9789 51.3432 77.5162 49.7635C76.5612 46.5032 74.8041 43.5325 72.4396 41.1807C70.075 38.8289 67.1955 37.1879 64.1201 36.4395C63.0613 36.1819 61.9935 36.0335 60.931 35.9937C57.6032 35.8688 54.0702 34.4125 52.9037 31.2934Z" fill="white" stroke="white" stroke-width="2"/>
</mask>
<g mask="url(#mask2_21_40)">
<path d="M52.9037 31.2934C51.7372 28.1743 53.3311 24.6214 56.6384 24.2331C59.6733 23.8767 62.7895 24.0687 65.86 24.8158C70.9501 26.0544 75.7161 28.7704 79.6296 32.6629C83.5431 36.5553 86.4514 41.4722 88.0319 46.8684C89.0145 50.2228 89.4601 53.6811 89.3638 57.0923C89.27 60.4154 85.8547 62.324 82.7013 61.2714C79.9497 60.3529 78.4322 57.4721 78.3116 54.5737C78.2445 52.961 77.9789 51.3432 77.5162 49.7635C76.5612 46.5032 74.8041 43.5325 72.4396 41.1807C70.075 38.8289 67.1955 37.1879 64.1201 36.4395C63.0613 36.1819 61.9935 36.0335 60.931 35.9937C57.6032 35.8688 54.0702 34.4125 52.9037 31.2934Z" fill="white" stroke="white" stroke-width="2"/>
</g>
<mask id="mask3_21_40" style="mask-type:luminance" maskUnits="userSpaceOnUse" x="65" y="50" width="41" height="39">
<path d="M97.747 52.0457C100.912 51.0099 104.395 52.7501 104.646 56.0708C104.876 59.1178 104.554 62.2233 103.68 65.2601C102.231 70.2944 99.3194 74.9433 95.2676 78.6916C91.2158 82.4399 86.1823 85.1412 80.725 86.4961C77.3326 87.3383 73.8589 87.6398 70.4546 87.4017C67.1383 87.1698 65.3733 83.6782 66.5561 80.5713C67.5881 77.8602 70.5296 76.4638 73.4305 76.4638C75.0446 76.4638 76.672 76.2656 78.2696 75.869C81.5668 75.0504 84.608 73.4183 87.0561 71.1536C89.5041 68.8889 91.2634 66.0801 92.139 63.0385C92.4404 61.9913 92.633 60.9306 92.717 59.8706C92.9802 56.551 94.5821 53.0816 97.747 52.0457Z" fill="white" stroke="white" stroke-width="2"/>
</mask>
<g mask="url(#mask3_21_40)">
<path d="M97.747 52.0457C100.912 51.0099 104.395 52.7501 104.646 56.0708C104.876 59.1178 104.554 62.2233 103.68 65.2601C102.231 70.2944 99.3194 74.9433 95.2676 78.6916C91.2158 82.4399 86.1823 85.1412 80.725 86.4961C77.3326 87.3383 73.8589 87.6398 70.4546 87.4017C67.1383 87.1698 65.3733 83.6782 66.5561 80.5713C67.5881 77.8602 70.5296 76.4638 73.4305 76.4638C75.0446 76.4638 76.672 76.2656 78.2696 75.869C81.5668 75.0504 84.608 73.4183 87.0561 71.1536C89.5041 68.8889 91.2634 66.0801 92.139 63.0385C92.4404 61.9913 92.633 60.9306 92.717 59.8706C92.9802 56.551 94.5821 53.0816 97.747 52.0457Z" fill="white" stroke="white" stroke-width="2"/>
</g>
<mask id="mask4_21_40" style="mask-type:luminance" maskUnits="userSpaceOnUse" x="37" y="64" width="41" height="40">
<path d="M75.8949 95.1969C77.1269 98.2907 75.6082 101.876 72.3098 102.334C69.2831 102.755 66.1636 102.628 63.078 101.946C57.9629 100.815 53.1407 98.2 49.1461 94.3909C45.1514 90.5817 42.1402 85.7273 40.4463 80.3655C39.3933 77.0326 38.8748 73.5845 38.8993 70.172C38.9231 66.8477 42.2973 64.8675 45.4722 65.8534C48.2426 66.7137 49.8204 69.5619 50.0021 72.4571C50.1032 74.0681 50.4028 75.6799 50.8987 77.2495C51.9222 80.489 53.7415 83.422 56.155 85.7234C58.5686 88.0249 61.4821 89.6048 64.5726 90.2882C65.6366 90.5235 66.7072 90.6493 67.7704 90.6668C71.1 90.7215 74.6629 92.1031 75.8949 95.1969Z" fill="white" stroke="white" stroke-width="2"/>
</mask>
<g mask="url(#mask4_21_40)">
<path d="M75.8949 95.1969C77.1269 98.2907 75.6082 101.876 72.3098 102.334C69.2831 102.755 66.1636 102.628 63.078 101.946C57.9629 100.815 53.1407 98.2 49.1461 94.3909C45.1514 90.5817 42.1402 85.7273 40.4463 80.3655C39.3933 77.0326 38.8748 73.5845 38.8993 70.172C38.9231 66.8477 42.2973 64.8675 45.4722 65.8534C48.2426 66.7137 49.8204 69.5619 50.0021 72.4571C50.1032 74.0681 50.4028 75.6799 50.8987 77.2495C51.9222 80.489 53.7415 83.422 56.155 85.7234C58.5686 88.0249 61.4821 89.6048 64.5726 90.2882C65.6366 90.5235 66.7072 90.6493 67.7704 90.6668C71.1 90.7215 74.6629 92.1031 75.8949 95.1969Z" fill="white" stroke="white" stroke-width="2"/>
</g>
</g>
</g>
<defs>
<clipPath id="clip0_21_40">
<rect width="128" height="128" fill="white"/>
</clipPath>
</defs>
</svg>
