<svg width="128" height="128" viewBox="0 0 128 128" fill="none" xmlns="http://www.w3.org/2000/svg">
<g clip-path="url(#clip0_117_4)">
<rect width="128" height="128" fill="white"/>
<circle cx="64" cy="64" r="64" fill="#04BF8A"/>
<mask id="path-2-inside-1_117_4" fill="white">
<path d="M32.7099 74.7566C29.6119 75.9781 26.0314 74.4473 25.5846 71.1473C25.1747 68.1192 25.3114 65.0002 26.0042 61.9169C27.1525 56.8057 29.7838 51.9924 33.6065 48.0106C37.4291 44.0289 42.2937 41.0341 47.6612 39.3584C50.9977 38.3167 54.4475 37.8099 57.8599 37.8459C61.1841 37.8809 63.1528 41.2619 62.1562 44.4334V44.4334C61.2866 47.2009 58.433 48.7691 55.5372 48.9409C53.9259 49.0365 52.3131 49.3307 50.7418 49.8213C47.4989 50.8338 44.5597 52.6432 42.2501 55.0489C39.9405 57.4547 38.3507 60.3628 37.6569 63.4509C37.418 64.5141 37.2885 65.5844 37.2675 66.6474C37.2014 69.9769 35.8078 73.5351 32.7099 74.7566V74.7566Z"/>
</mask>
<path d="M32.7099 74.7566C29.6119 75.9781 26.0314 74.4473 25.5846 71.1473C25.1747 68.1192 25.3114 65.0002 26.0042 61.9169C27.1525 56.8057 29.7838 51.9924 33.6065 48.0106C37.4291 44.0289 42.2937 41.0341 47.6612 39.3584C50.9977 38.3167 54.4475 37.8099 57.8599 37.8459C61.1841 37.8809 63.1528 41.2619 62.1562 44.4334V44.4334C61.2866 47.2009 58.433 48.7691 55.5372 48.9409C53.9259 49.0365 52.3131 49.3307 50.7418 49.8213C47.4989 50.8338 44.5597 52.6432 42.2501 55.0489C39.9405 57.4547 38.3507 60.3628 37.6569 63.4509C37.418 64.5141 37.2885 65.5844 37.2675 66.6474C37.2014 69.9769 35.8078 73.5351 32.7099 74.7566V74.7566Z" fill="white" stroke="white" stroke-width="2" mask="url(#path-2-inside-1_117_4)"/>
<mask id="path-3-inside-2_117_4" fill="white">
<path d="M52.9036 31.2935C51.7371 28.1744 53.331 24.6215 56.6383 24.2332C59.6732 23.8768 62.7894 24.0688 65.8599 24.8159C70.95 26.0545 75.716 28.7705 79.6295 32.663C83.543 36.5554 86.4513 41.4723 88.0318 46.8685C89.0144 50.2229 89.46 53.6812 89.3637 57.0924C89.2699 60.4155 85.8546 62.3241 82.7012 61.2715V61.2715C79.9496 60.353 78.4321 57.4722 78.3115 54.5738C78.2444 52.9611 77.9788 51.3433 77.5161 49.7636C76.5611 46.5033 74.804 43.5326 72.4395 41.1808C70.0749 38.829 67.1954 37.188 64.12 36.4396C63.0612 36.182 61.9934 36.0336 60.9309 35.9938C57.6031 35.8689 54.0701 34.4126 52.9036 31.2935V31.2935Z"/>
</mask>
<path d="M52.9036 31.2935C51.7371 28.1744 53.331 24.6215 56.6383 24.2332C59.6732 23.8768 62.7894 24.0688 65.8599 24.8159C70.95 26.0545 75.716 28.7705 79.6295 32.663C83.543 36.5554 86.4513 41.4723 88.0318 46.8685C89.0144 50.2229 89.46 53.6812 89.3637 57.0924C89.2699 60.4155 85.8546 62.3241 82.7012 61.2715V61.2715C79.9496 60.353 78.4321 57.4722 78.3115 54.5738C78.2444 52.9611 77.9788 51.3433 77.5161 49.7636C76.5611 46.5033 74.804 43.5326 72.4395 41.1808C70.0749 38.829 67.1954 37.188 64.12 36.4396C63.0612 36.182 61.9934 36.0336 60.9309 35.9938C57.6031 35.8689 54.0701 34.4126 52.9036 31.2935V31.2935Z" fill="white" stroke="white" stroke-width="2" mask="url(#path-3-inside-2_117_4)"/>
<mask id="path-4-inside-3_117_4" fill="white">
<path d="M97.7468 52.0457C100.912 51.0099 104.395 52.7501 104.646 56.0708C104.876 59.1178 104.554 62.2233 103.68 65.2601C102.231 70.2944 99.3192 74.9433 95.2674 78.6916C91.2156 82.4399 86.1821 85.1412 80.7248 86.4961C77.3324 87.3383 73.8587 87.6398 70.4544 87.4017C67.1381 87.1698 65.3731 83.6782 66.5559 80.5713V80.5713C67.5879 77.8602 70.5294 76.4638 73.4303 76.4638C75.0444 76.4638 76.6718 76.2656 78.2694 75.869C81.5666 75.0504 84.6078 73.4183 87.0559 71.1536C89.5039 68.8889 91.2632 66.0801 92.1388 63.0385C92.4402 61.9913 92.6328 60.9306 92.7168 59.8706C92.98 56.551 94.5819 53.0816 97.7468 52.0457V52.0457Z"/>
</mask>
<path d="M97.7468 52.0457C100.912 51.0099 104.395 52.7501 104.646 56.0708C104.876 59.1178 104.554 62.2233 103.68 65.2601C102.231 70.2944 99.3192 74.9433 95.2674 78.6916C91.2156 82.4399 86.1821 85.1412 80.7248 86.4961C77.3324 87.3383 73.8587 87.6398 70.4544 87.4017C67.1381 87.1698 65.3731 83.6782 66.5559 80.5713V80.5713C67.5879 77.8602 70.5294 76.4638 73.4303 76.4638C75.0444 76.4638 76.6718 76.2656 78.2694 75.869C81.5666 75.0504 84.6078 73.4183 87.0559 71.1536C89.5039 68.8889 91.2632 66.0801 92.1388 63.0385C92.4402 61.9913 92.6328 60.9306 92.7168 59.8706C92.98 56.551 94.5819 53.0816 97.7468 52.0457V52.0457Z" fill="white" stroke="white" stroke-width="2" mask="url(#path-4-inside-3_117_4)"/>
<mask id="path-5-inside-4_117_4" fill="white">
<path d="M75.895 95.1969C77.127 98.2907 75.6083 101.876 72.3099 102.334C69.2832 102.755 66.1637 102.628 63.0781 101.946C57.963 100.815 53.1408 98.2 49.1462 94.3909C45.1515 90.5817 42.1403 85.7273 40.4464 80.3655C39.3934 77.0326 38.8749 73.5845 38.8994 70.172C38.9232 66.8477 42.2974 64.8675 45.4723 65.8534V65.8534C48.2427 66.7137 49.8205 69.5619 50.0022 72.4571C50.1033 74.0681 50.4029 75.6799 50.8988 77.2495C51.9223 80.489 53.7416 83.422 56.1551 85.7234C58.5687 88.0249 61.4822 89.6048 64.5727 90.2882C65.6367 90.5235 66.7073 90.6493 67.7705 90.6668C71.1001 90.7215 74.663 92.1031 75.895 95.1969V95.1969Z"/>
</mask>
<path d="M75.895 95.1969C77.127 98.2907 75.6083 101.876 72.3099 102.334C69.2832 102.755 66.1637 102.628 63.0781 101.946C57.963 100.815 53.1408 98.2 49.1462 94.3909C45.1515 90.5817 42.1403 85.7273 40.4464 80.3655C39.3934 77.0326 38.8749 73.5845 38.8994 70.172C38.9232 66.8477 42.2974 64.8675 45.4723 65.8534V65.8534C48.2427 66.7137 49.8205 69.5619 50.0022 72.4571C50.1033 74.0681 50.4029 75.6799 50.8988 77.2495C51.9223 80.489 53.7416 83.422 56.1551 85.7234C58.5687 88.0249 61.4822 89.6048 64.5727 90.2882C65.6367 90.5235 66.7073 90.6493 67.7705 90.6668C71.1001 90.7215 74.663 92.1031 75.895 95.1969V95.1969Z" fill="white" stroke="white" stroke-width="2" mask="url(#path-5-inside-4_117_4)"/>
</g>
<defs>
<clipPath id="clip0_117_4">
<rect width="128" height="128" fill="white"/>
</clipPath>
</defs>
</svg>
