<?xml version="1.0" encoding="UTF-8"?>
<!DOCTYPE svg PUBLIC "-//W3C//DTD SVG 1.1//EN" "http://www.w3.org/Graphics/SVG/1.1/DTD/svg11.dtd">
<!-- Creator: CorelDRAW -->
<svg xmlns="http://www.w3.org/2000/svg" xml:space="preserve" width="61.7054mm" height="61.7054mm" version="1.1" style="shape-rendering:geometricPrecision; text-rendering:geometricPrecision; image-rendering:optimizeQuality; fill-rule:evenodd; clip-rule:evenodd"
viewBox="0 0 1441.71 1441.71"
 xmlns:xlink="http://www.w3.org/1999/xlink"
 xmlns:xodm="http://www.corel.com/coreldraw/odm/2003">
 <defs>
  <style type="text/css">
   <![CDATA[
    .fil0 {fill:#24C942}
    .fil1 {fill:white}
   ]]>
  </style>
 </defs>
 <g id="Capa_x0020_1">
  <metadata id="CorelCorpID_0Corel-Layer"/>
  <rect class="fil0" x="-0" y="-0" width="1441.71" height="1441.71" rx="720.86" ry="720.86"/>
  <path class="fil1" d="M1030.99 191.69l90.99 0 0 124.63 124.63 0 0 90.99 -124.63 0 0 124.63 -90.99 0 0 -124.63 -124.63 0 0 -90.99 124.63 0 0 -124.63zm-287.53 77.15c44.3,0 87.05,6.67 127.3,19.02l0 -91.56c-41.62,-10.75 -85.28,-16.48 -130.27,-16.48 -286.79,0 -519.27,232.48 -519.27,519.27 0,90.8 23.31,176.15 64.26,250.41l-73.46 280.73 282.26 -73.86c73.26,39.54 157.1,61.99 246.2,61.99 286.79,0 519.27,-232.48 519.27,-519.27 0,-42.61 -5.17,-84 -14.85,-123.63l-87.05 0c12.22,40.05 18.82,82.55 18.82,126.6 0,239.26 -193.96,433.22 -433.22,433.22 -91.16,0 -175.72,-28.17 -245.5,-76.26l-103.61 27.11 -51.76 13.54 30.6 -116.94 -0 -0 10.34 -39.52c-46.28,-68.93 -73.29,-151.89 -73.29,-241.16 0,-239.26 193.95,-433.22 433.22,-433.22zm-139.34 204.34c-8.77,-21.1 -15.47,-21.81 -28.99,-22.46 -4.65,-0.22 -9.68,-0.44 -15.18,-0.44 -17.43,0 -35.49,5.14 -46.37,16.27 -13.25,13.56 -46.37,45.3 -46.37,110.49 0,65.19 47.47,128.17 54.09,137.02 6.62,8.83 92.6,144.56 226.33,199.98 104.4,43.24 135.38,39.39 159.21,34.18 34.64,-7.57 78.16,-33.09 89.2,-64.01 11.04,-30.95 11.04,-57.47 7.73,-62.97 -3.31,-5.53 -12.13,-8.83 -25.4,-15.48 -13.25,-6.62 -78.39,-38.67 -90.54,-43.08 -12.13,-4.42 -23.38,-3.07 -32.72,9.85 -12.9,17.85 -25.29,36.18 -35.56,47.06 -8.06,8.53 -21.03,9.71 -32.18,4.97 -14.67,-6.25 -55.94,-20.62 -106.56,-65.75 -39.37,-35.1 -65.97,-78.48 -73.7,-91.74 -7.72,-13.25 -0.68,-21.16 5.29,-28.37 6.79,-8.23 13.05,-14.14 19.67,-21.86 6.64,-7.75 10.33,-11.87 14.75,-20.71 4.42,-8.84 1.43,-17.95 -1.87,-24.58 -3.32,-6.64 -29.84,-71.81 -40.84,-98.35z"/>
 </g>
</svg>
