<svg width="123" height="123" viewBox="0 0 123 123" fill="none" xmlns="http://www.w3.org/2000/svg">
<g clip-path="url(#clip0_1_2)">
<path d="M72.13 118.22L50.8 96.86L96.63 50.56L118.35 72.28L72.13 118.22Z" fill="#8AB4F8"/>
<path d="M72.29 26.23L50.56 4.5L4.5 50.56C3.07435 51.9854 1.94344 53.6777 1.17187 55.5402C0.400302 57.4027 0.00317764 59.399 0.00317764 61.415C0.00317764 63.431 0.400302 65.4273 1.17187 67.2898C1.94344 69.1523 3.07435 70.8446 4.5 72.27L50.56 118.33L71.87 96.93L37.07 61.45L72.29 26.23Z" fill="#4285F4"/>
<path d="M118.35 50.56L72.29 4.5C69.4097 1.61842 65.5028 -0.000957846 61.4285 -0.0018955C57.3543 -0.00283315 53.4466 1.61475 50.565 4.495C47.6834 7.37525 46.064 11.2822 46.0631 15.3565C46.0622 19.4307 47.6798 23.3384 50.56 26.22L96.65 72.28C99.5445 75.0911 103.429 76.6503 107.464 76.6208C111.498 76.5914 115.359 74.9755 118.212 72.1224C121.065 69.2693 122.681 65.4082 122.711 61.3735C122.74 57.3388 121.181 53.4545 118.37 50.56H118.35Z" fill="#8AB4F8"/>
<path d="M76.48 107.66C76.48 104.647 75.5865 101.702 73.9126 99.1976C72.2386 96.6928 69.8595 94.7408 67.076 93.5884C64.2925 92.4359 61.2297 92.1349 58.2751 92.7234C55.3205 93.3118 52.6068 94.7633 50.4772 96.8943C48.3477 99.0253 46.8979 101.74 46.3114 104.695C45.7249 107.65 46.0279 110.712 47.1822 113.495C48.3364 116.278 50.2901 118.656 52.7959 120.328C55.3018 122 58.2474 122.892 61.26 122.89C63.2596 122.89 65.2395 122.496 67.0868 121.73C68.934 120.965 70.6123 119.843 72.0257 118.429C73.4391 117.014 74.56 115.335 75.3243 113.488C76.0886 111.64 76.4813 109.66 76.48 107.66Z" fill="#246FDB"/>
</g>
<defs>
<clipPath id="clip0_1_2">
<rect width="122.87" height="122.89" fill="white"/>
</clipPath>
</defs>
</svg>
