<svg width="32" height="32" viewBox="0 0 32 32" fill="none" xmlns="http://www.w3.org/2000/svg">
  <rect width="32" height="32" rx="6" fill="#1E3A8A"/>
  <path d="M8 10C8 9.44772 8.44772 9 9 9H13C13.5523 9 14 9.44772 14 10V22C14 22.5523 13.5523 23 13 23H9C8.44772 23 8 22.5523 8 22V10Z" fill="#60A5FA"/>
  <path d="M16 14C16 13.4477 16.4477 13 17 13H21C21.5523 13 22 13.4477 22 14V22C22 22.5523 21.5523 23 21 23H17C16.4477 23 16 22.5523 16 22V14Z" fill="#93C5FD"/>
  <path d="M24 17C24 16.4477 24.4477 16 25 16H27C27.5523 16 28 16.4477 28 17V22C28 22.5523 27.5523 23 27 23H25C24.4477 23 24 22.5523 24 22V17Z" fill="#DBEAFE"/>
</svg>
