<?xml version="1.0" standalone="no"?>
<!DOCTYPE svg PUBLIC "-//W3C//DTD SVG 20010904//EN" "http://www.w3.org/TR/2001/REC-SVG-20010904/DTD/svg10.dtd">
<!-- Created using Krita: http://krita.org -->
<svg xmlns="http://www.w3.org/2000/svg"
    xmlns:xlink="http://www.w3.org/1999/xlink"
    xmlns:krita="http://krita.org/namespaces/svg/krita"
    xmlns:sodipodi="http://sodipodi.sourceforge.net/DTD/sodipodi-0.dtd"
    width="15.12pt"
    height="15.12pt"
    viewBox="0 0 15.12 15.12">
<defs/>
<path id="shape0" transform="matrix(0.72 0 0 0.72 0.11249208 0.54)" fill="#e97500" d="M20 0L20 20L0 20L0 0ZM0.019466 10.6112C0.0159107 10.5771 0.009422 13.7067 0 20C6.30933 19.9907 9.44356 19.9842 9.40267 19.9805C8.67787 19.9221 8.22213 19.8555 7.66933 19.7192C6.01769 19.3232 4.4941 18.5132 3.24221 17.3654C1.99031 16.2175 1.05136 14.7698 0.513866 13.1587C0.2888 12.4835 0.122133 11.6973 0.0584 11.028C0.0416 10.8531 0.022133 10.6643 0.019466 10.6115ZM19.9808 10.596C19.9222 11.3416 19.8528 11.7805 19.7083 12.3805C18.8363 15.9805 15.9806 18.836 12.3806 19.7085C11.7806 19.8525 11.3416 19.9221 10.5974 19.9805C10.5564 19.9841 13.6906 19.9906 20 20C19.9908 13.6907 19.9843 10.5564 19.9806 10.5973ZM9.39147 16.4973C8.82773 15.9333 7.96933 15.9053 7.36933 16.4307C6.83333 16.9 6.72213 17.7251 7.1112 18.3333C7.2944 18.6195 7.636 18.864 7.97227 18.9555C8.32507 19.0501 8.78613 18.9888 9.08613 18.8083C9.93336 18.2973 10.0808 17.1861 9.39173 16.4973ZM20 0C13.6999 0.00924467 10.5749 0.0157337 10.6251 0.019467C12.2342 0.126888 13.7947 0.61534 15.1779 1.44453C15.5779 1.68613 15.9859 1.98587 15.9779 2.03067C15.9723 2.0528 15.6723 2.63067 15.3139 3.31947C14.9528 4.0056 14.3859 5.0888 14.0555 5.72213C13.7222 6.35547 13.0862 7.57493 12.639 8.43067C12.1918 9.2861 11.475 10.6555 11.0472 11.4723C10.2195 13.0555 10.0195 13.3917 9.71386 13.7139C9.24453 14.2083 8.63067 14.4472 8.26107 14.2805C8.0584 14.1888 7.8528 13.8779 7.7304 13.4832C7.60267 13.0693 7.74987 11.7419 8.0416 10.6805C8.20827 10.0779 8.2528 9.8192 8.3056 9.15547C8.364 8.4 8.2056 7.6584 7.80267 6.8168C7.31653 5.79733 6.364 5.20267 4.9888 5.05547C4.49733 5.00267 3.90827 5.0888 3.41387 5.2888C2.80267 5.53893 1.6752 6.31947 1.16107 6.85013L1.0304 6.98613L1.92533 8.07467C2.22856 8.44435 2.53319 8.81288 2.8392 9.18027C2.85013 9.19147 2.96427 9.11893 3.09467 9.02187C3.5336 8.69413 4.05867 8.4192 4.41707 8.3304C4.7584 8.24693 5.23627 8.3024 5.57813 8.46373C5.77547 8.5552 6.10293 8.87467 6.20293 9.07173C6.37813 9.4163 6.40293 9.5525 6.40027 10.1109C6.39274 10.4726 6.37228 10.8339 6.33893 11.1941C6.25307 12.0331 6.2448 12.272 6.27813 12.7637C6.33093 13.5637 6.4088 13.908 6.64187 14.3611C6.88373 14.8357 7.2864 15.1552 7.76133 15.2499C7.94747 15.2859 8.4696 15.2803 8.7224 15.2387C9.38907 15.1304 10.0891 14.7443 10.5475 14.2304C10.8115 13.9331 10.9224 13.7941 12.8504 11.2915C17.5472 5.19173 18.2027 4.3472 18.2219 4.33867C18.2443 4.3304 18.4275 4.608 18.6638 5.008C19.3384 6.1608 19.8166 7.63867 19.9414 8.972C19.9582 9.14693 19.9776 9.3357 19.9803 9.3885C19.9838 9.42263 19.9904 6.29313 20 0ZM0 0C0.009244 6.2944 0.0157327 9.424 0.019466 9.3888C0.021866 9.3448 0.035466 9.2064 0.049866 9.06027L0.0584 8.97227C0.266666 6.74453 1.31947 4.536 2.93333 2.92773C4.664 1.20827 6.87493 0.2056 9.36107 0.019467C9.40729 0.015911 6.28693 0.009422 0 0Z"/>
</svg>
