<?xml version="1.0" encoding="UTF-8"?>
<svg id="Layer_44" data-name="Layer 44" xmlns="http://www.w3.org/2000/svg" viewBox="0 0 520 520">
  <defs>
    <style>
      .cls-1, .cls-2 {
        fill: #231f20;
      }

      .cls-2 {
        opacity: .3;
      }
    </style>
  </defs>
  <path class="cls-1" d="M54.48,331.22s2.12,8.87,6.27,13.01c2.22,2.21,218.11,94.63,218.11,94.63l-4.67-3.81-135.37-61.25-84.33-42.58Z"/>
  <path class="cls-1" d="M466.63,341.09c.28,1.69,.48,11.12-2.13,13.27-7.2,5.93-116.27,76.3-132.21,84.5l4.02-4.03,59.7-39.57,70.62-54.17Z"/>
  <path class="cls-1" d="M93.59,290.52l17.06-10.77c2.07-1.31,4.08-2.72,6.16-4.01l22.09-13.6c3.26-2.02,6.48-4.15,9.64-6.26,2.03-1.36,4.08-2.69,6.15-4.01l1.56-.97,1.61-.89,1.62-.87c.55-.28,1.16-.46,1.73-.7,1.47-.53,1.38-.29,.63,.92-.71,1.27-2.13,3.45-4.39,5.13-2.04,1.44-4.07,2.9-6.14,4.3-2.1,1.35-4.21,2.69-6.31,4.04-4.23,2.67-8.51,5.27-12.86,7.81-5.2,3.04-10.34,6.62-15.54,9.92l-17.14,10.89c-3.5,2.25-7.01,4.51-10.51,6.76-5.28,3.45-10.61,6.88-15.74,10.45-3.99,2.78-7.74,5.74-11.54,8.65-.84,.63-1.66,1.26-2.5,1.9-1.57,1.17-2.63,1.87-3.45,2.26-.4,.2-.74,.33-1.04,.4-.31,.07-.6,.08-.87,.09-.12,0-.25,.03-.34,.05-.05,.01-.1,.03-.09,.1,.01,.05,.05,.11,.08,.15,.05,.07,.09,.14,.06,.2-.01,.03-.04,.06-.08,.09-.05,.03-.09,.05-.26,.04-.1,.04-.45-.27-.46-.51-.03-.17-.02-.22-.01-.32,.01-.07,.02-.14,.03-.22,.05-.26,.12-.46,.21-.67,.16-.45,.44-.88,.8-1.36,.36-.47,.79-1,1.32-1.53,1.6-1.53,3.25-3,4.95-4.44,1.74-1.39,3.52-2.74,5.33-4.07,3.63-2.67,7.38-5.26,11.16-7.82,5.61-3.8,11.33-7.49,17.01-11.2l.06,.08Z"/>
  <path class="cls-1" d="M149.8,375.13l37.92,17.99c4.63,2.14,9.27,4.28,13.9,6.42l48.78,23.1c7.21,3.42,14.51,6.76,21.71,10.06,4.62,2.12,9.28,4.2,13.89,6.39,4.61,2.18,9.21,4.38,13.63,6.95,1.36,.84,1.89,1.32,1.76,1.47-.13,.15-.93,0-2.28-.28-1.36-.28-3.22-.78-5.46-1.44-2.22-.69-4.75-1.65-7.42-2.84-9.49-4.2-18.93-8.54-28.39-12.88-9.45-4.35-18.9-8.76-28.31-13.37-11.27-5.49-23.2-10.75-34.82-16.15-12.76-5.97-25.54-11.95-38.3-17.93-7.85-3.7-15.7-7.4-23.54-11.09-11.87-5.63-23.8-11.29-35.58-16.87-9.17-4.33-18.25-8.38-27.31-12.73-1.99-.96-3.96-1.87-5.95-2.89-3.7-1.87-6.07-3.26-7.64-4.44-.79-.58-1.38-1.1-1.82-1.6-.44-.52-.74-1-.95-1.49-.1-.22-.22-.47-.3-.71-.09-.22-.08-.55,.06-.48,.07,.03,.12,.18,.11,.16,0-.02-.07-.11-.09-.13-.06-.05-.03,.02,.15-.04,.06-.01,.08-.04,.16-.07,.05-.02,.2-.1,.17-.09,.02-.01,.05,0,.08,0,.07,.01,.15,.04,.26,.08,.23,.09,.51,.19,.83,.3,1.36,.48,3.45,1.46,6.16,2.73,7.99,3.89,16.35,7.72,24.78,11.68,8.44,3.96,17,7.98,25.57,12.01,12.73,6.01,25.52,12.05,38.28,18.07l-.03,.1Z"/>
  <path class="cls-1" d="M438.44,366.96c-9.91,7.49-19.95,14.79-30.03,22.02-3.68,2.64-7.3,5.36-11,7.95-13.1,9.11-26.34,18-39.65,26.77-5.89,3.91-11.82,7.85-17.67,11.74-3.77,2.48-7.53,4.99-11.34,7.42-1.91,1.2-3.81,2.44-5.77,3.55l-2.96,1.65c-1,.54-2.06,.95-3.08,1.45-2.58,1.17-2.37,.78-.69-1.02,1.64-1.87,4.67-5.25,9.07-7.99,15.34-10.1,30.67-20.2,46.14-30.39,9.27-6.08,18.55-12.95,27.77-19.53,10.15-7.24,20.24-14.56,30.22-22.04,6.13-4.61,12.24-9.26,18.22-14.04,4.5-3.64,9.07-7.29,13.2-11.23,.51-.49,1.01-.99,1.46-1.5,.13-.14,.21-.23,.27-.3l.19-.24c.11-.17,.25-.33,.29-.54,.03-.42-.2-.8-.44-1.12-.1-.14-.35-.43-.57-.64-.23-.23-.47-.46-.72-.68-2.05-1.78-4.53-3.26-6.98-4.68-7.73-4.36-15.87-7.72-23.99-11.26-1.79-.78-3.56-1.49-5.37-2.3-3.34-1.48-5.51-2.58-6.94-3.53-.72-.47-1.26-.9-1.67-1.32-.4-.45-.67-.89-.91-1.31-.21-.38-.53-.79-.62-1.05-.36-.77,2.76-.46,7.67,1.56,7.33,2.96,14.9,6.05,22.45,9.56,3.78,1.76,7.56,3.61,11.31,5.72,1.88,1.05,3.71,2.22,5.55,3.54,.91,.67,1.82,1.38,2.73,2.25,.23,.22,.45,.44,.68,.69,.11,.12,.23,.24,.34,.38,.11,.14,.23,.25,.39,.49,.65,.82,1.15,1.76,1.35,2.74,.05,.36,.1,.73,.1,1.1-.06,.36-.14,.72-.23,1.07-.18,.7-.65,1.34-1.13,1.94-.12,.15-.24,.32-.35,.45l-.25,.28-.45,.49c-.29,.3-.59,.62-.89,.9-1.18,1.16-2.36,2.24-3.56,3.3-2.39,2.1-4.81,4.12-7.25,6.11-4.89,3.97-9.84,7.83-14.81,11.65l-.08-.07Z"/>
  <g>
    <path class="cls-1" d="M315.69,385.5c-2.02,.82-4.26,1.28-6.5,1.22-.56-.04-1.12-.05-1.67-.13l-1.63-.33c-.24-.04-.59-.16-.92-.28-.33-.1-.65-.26-.96-.44-.32-.16-.61-.36-.89-.59-.29-.21-.54-.45-.77-.7-.94-1-1.5-2.11-1.91-3.16-.4-1.05-.65-2.07-.84-3.05-.39-1.97-.58-3.85-.83-5.66-.36-2.63-.91-5.17-1.9-7.15-.87-1.74-2.19-2.88-4.1-3.23-.92-.26-1.81-.18-2.7-.01-.43,.16-.88,.25-1.3,.51-.21,.12-.43,.2-.64,.35l-.62,.44c-1.65,1.23-3.04,3.08-4.3,5-1.25,1.94-2.4,4.01-3.52,6.11-1.99,3.73-3.77,7.66-6.11,11.34-1.5,2.33-3.23,4.76-5.9,6.35-.31,.22-.69,.35-1.04,.52-.36,.16-.7,.33-1.09,.41-.38,.1-.76,.2-1.14,.29l-1.18,.08c-1.57,.04-3.06-.46-4.33-1.11-1.6-.88-1.11-1.12,.4-1.17,.19,0,.39-.01,.61-.02,.22-.02,.46-.07,.7-.1,.48-.07,1-.12,1.52-.32,1.05-.22,2.04-.66,3.06-1.24,.47-.22,.89-.6,1.33-.92,.21-.19,.41-.4,.62-.6,.21-.19,.42-.39,.62-.62l.61-.66,.57-.73c.39-.47,.74-1.02,1.11-1.54,1.43-2.13,2.67-4.53,3.92-6.96,1.24-2.44,2.47-4.94,3.85-7.43,1.39-2.48,2.91-4.98,4.98-7.25,1.22-1.35,2.67-2.68,4.54-3.6,1.85-.94,4.14-1.23,6.16-.81,1.02,.15,2.02,.53,2.97,1.02,.93,.54,1.8,1.21,2.49,2.01,1.39,1.61,2.16,3.48,2.66,5.25,1.09,3.92,1.2,7.75,1.97,11.17,.38,1.68,.99,3.24,1.94,3.97,.47,.38,.99,.56,1.88,.71,.4,.09,.81,.18,1.22,.17,.41,0,.82,.08,1.23,.04,4.07-.13,7.92-2.66,10.92-5.86,2.33-2.41,4.31-5.23,6.07-8.17,1.76-2.94,3.28-6.04,4.58-9.21,2.02-4.93,3.33-10.02,4.42-15.13,.23-1.13,.42-2.24,.62-3.37,.79-4.2,1.16-5.45,2.23-6.33,.25-.2,.49-.47,.73-.59,.77-.44,1.48,1.47,1.37,4.85-.1,2.49-.48,4.95-.93,7.43-.45,2.48-1.1,4.93-1.85,7.37-1.52,4.88-3.48,9.7-5.95,14.33-1.85,3.43-3.95,6.79-6.56,9.86-1.3,1.54-2.75,3-4.34,4.34-1.63,1.31-3.43,2.5-5.44,3.39l-.05-.09Z"/>
    <path class="cls-1" d="M342.69,330.61c-.31-.71-.69-1.41-1.09-2.1-.14-.24-.08-.17-.11-.24l-.05-.13c-.03-.1-.12-.18-.22-.18-.16,0-.24,.15-.39,.23-1.5,1.2-3.08,2.89-4.7,4.39-.72,.69-1.43,1.4-2.19,2.07-.49,.43-.97,.88-1.53,1.25-.56,.36-1.21,.62-1.89,.74-.43,.08-.58-.46-.55-1.13,.04-.66,.14-1.53,.55-1.99,.83-.72,1.65-1.51,2.49-2.34,.89-.78,1.81-1.6,2.8-2.4,.6-.48,1.13-1.05,1.68-1.65,.27-.3,.56-.6,.86-.9l.23-.23,.29-.26c.26-.2,.5-.42,.77-.58,.59-.38,1.22-.62,1.86-.61,.66,0,1.28,.32,1.68,.84l.61,.81c.1,.13,.21,.27,.29,.39l.17,.29c.23,.38,.46,.76,.68,1.16,.53,.97,1.01,1.97,1.42,3.01,.63,1.57,1,3.24,1.23,4.92,.18,1.29,.41,2.6,.37,3.94,0,.3,0,.58-.05,.87-.18,1.08-.64,1.32-1.44,1.33-.18,0-.36,.02-.53,0-.29-.03-.52-.18-.72-.41-.2-.23-.39-.55-.41-.9-.21-1.06-.17-2.02-.27-2.99-.09-.97-.2-1.93-.41-2.89-.31-1.42-.78-2.86-1.5-4.25l.07-.04Z"/>
  </g>
  <g>
    <path class="cls-2" d="M238.87,120.73s12.14,1.41,11.88,3.86c-10.94,104.94,2.4,188.28,2.4,188.28l-12.67-5.74-1.61-186.39Z"/>
    <path class="cls-2" d="M174.64,232l1.04,48.6,7.31,3.27s-5.75-30.21-1.26-47.29l-7.09-4.59Z"/>
    <path class="cls-2" d="M309.26,233.08s-2.09-4.04-2.45,4.32,0,96.55,0,96.55l7.28,.1s-6.81-78.5,2.71-98.16l-7.54-2.81Z"/>
    <path class="cls-1" d="M174.05,270.52s-11.63,5.37-8.38,7.51c7.34,4.81,18.51,7.28,18.51,7.28l-10.05-4.35-.08-10.44Z"/>
    <path class="cls-1" d="M240.71,295.27c-.56-.41-15.75,5.6-13.12,8.07,2.64,2.47,14.68,6.8,14.68,6.8l-1.8-3.01,.23-11.86Z"/>
    <path class="cls-1" d="M306.82,333.95c-.82-.75-11.81-2.83-5.58-6.54,5.77-3.44,5.58-3.72,5.58-3.72v10.26Z"/>
    <polygon class="cls-1" points="220.62 251.21 221.1 299.63 240.71 286.22 239.25 240.46 220.62 251.21"/>
    <path class="cls-1" d="M288.99,140.62l4.04,186.79,13.91-9.55s-2.31-83.88-.5-86.02c1.81-2.13,32.75-19.07,32.75-19.07,0,0-2.52-92.76-4.44-96.9-1.93-4.14-45.75,24.74-45.75,24.74Z"/>
    <path class="cls-1" d="M356.56,251.74l.67,103.19,46.25-26.6s.12-98.48-2.51-102.57l-44.4,25.98Z"/>
    <path class="cls-1" d="M308.55,131.58l-13.21,7.7-3.31,1.91-2.18,1.26-.37,.22-.19,.11-.09,.05-.1-.04-.81-.3-1.38-.51-7.16-2.7c-3.48-1.33-6.99-2.59-10.44-3.98-6.09-2.46-12.14-5.02-18.14-7.66-3.02-1.33-5.97-2.62-9.01-4.02l-2.71-1.54-1.34-.76c-.2-.14-.5-.23-.61-.4-.1-.24-.04-.51,.03-.71,.25-.83,1.11-1.66,2.13-2.41,.25-.19,.51-.37,.76-.55l.66-.45,1.05-.68c5-3.11,10.11-5.95,15.18-8.71,3.26-1.77,6.53-3.55,9.84-5.24,3.33-1.65,6.72-3.2,10.21-4.51,2.26-.65,1.99-.48,.47,.86-1.53,1.33-4.36,3.67-8.04,5.82-6.62,3.6-13.23,7.23-19.75,10.98-1.63,.93-3.25,1.87-4.84,2.83-.79,.48-1.58,.97-2.34,1.47l-.14,.09s-.01,0-.02,0l-.03,.02-.07,.03s-.1,.05-.16,.09c-.04,.03-.15,.09-.11,.14l.4,.21,.88,.45c1.71,.79,3.43,1.57,5.15,2.36,8.27,3.8,17.12,7.2,25.81,10.53l14.06,5.3c.12,.04,.24,.13,.34,.02l.4-.22,1.66-.96,3.32-1.93,6.63-3.89c5.45-3.2,10.91-6.39,16.35-9.59,2.23-1.29,4.47-2.57,6.72-3.83l3.38-1.87,2.52-1.35,.84-.44,.21-.11c.06-.03,.19-.08,.09-.15-.12-.1-.25-.18-.38-.26-.54-.31-1.1-.59-1.67-.86l-2.78-1.3-3-1.33c-6.74-2.94-13.52-5.46-20.34-7.98-1.5-.55-2.97-1.1-4.48-1.66-5.59-2.11-7.29-2.94-8.23-4.2-.21-.28-.52-.59-.62-.84-.35-.81,2.19-.63,6.44,.63,3.15,.94,6.31,1.96,9.49,3.06,3.16,1.14,6.32,2.35,9.49,3.62,3.17,1.27,6.34,2.59,9.51,3.98,1.58,.69,3.17,1.4,4.75,2.14l1.37,.65c.67,.32,1.52,.74,2.25,1.12,.73,.4,1.51,.79,2.02,1.24,.52,.45,.81,.9,.94,1.32,.08,.27,.1,.46,.1,.79-.11,.27-.3,.5-.44,.76l-.94,1.5-5.04,2.71-3,1.67-5.99,3.4c-3.99,2.29-7.96,4.63-11.93,6.99l-.06-.07Z"/>
    <path class="cls-1" d="M376.12,242.7l-13.21,7.7-3.31,1.91-2.18,1.26-.37,.22-.19,.11-.09,.05-.1-.04-.81-.3-1.38-.51-7.16-2.7c-3.48-1.33-6.99-2.59-10.44-3.98-4.97-2-9.9-4.08-14.8-6.2l-7.34-3.22-8.17-3.66-.8-.67-.4-.33c-.13-.12-.29-.2-.33-.37-.08-.4,.07-.7,.21-1.01,.15-.3,.38-.61,.65-.91,.57-.6,1.35-1.17,2.11-1.69l.9-.6,.78-.5c5-3.11,10.11-5.95,15.18-8.71,3.26-1.77,6.53-3.55,9.84-5.24,3.33-1.65,6.72-3.2,10.21-4.51,2.26-.65,1.99-.48,.47,.86-1.53,1.33-4.36,3.67-8.04,5.82-5.41,2.95-10.82,5.89-16.16,8.94-2.67,1.53-5.36,3.01-7.97,4.59l-1.94,1.19-.94,.61-.06,.04h-.01s-.03,.02-.03,.02l-.06,.03c-.08,.04-.17,.09-.26,.16-.07,.05-.02,.09,.01,.11l.11,.08,.87,.43,.23,.11,.43,.2,.95,.43c1.26,.58,2.53,1.16,3.79,1.74,8.27,3.8,17.12,7.2,25.81,10.53l14.06,5.3c.12,.04,.24,.13,.34,.02l.4-.22,1.66-.96,3.32-1.93,6.63-3.89c5.45-3.2,10.91-6.39,16.35-9.59,2.23-1.29,4.47-2.57,6.72-3.83l3.38-1.87,2.52-1.35,.84-.44,.21-.11c.06-.03,.19-.08,.09-.15-.12-.1-.25-.18-.38-.26-.54-.31-1.1-.59-1.67-.86l-2.78-1.3-3-1.33c-6.74-2.94-13.52-5.46-20.34-7.98-1.5-.55-2.97-1.1-4.48-1.66-5.59-2.11-7.29-2.94-8.23-4.2-.21-.28-.52-.59-.62-.84-.35-.81,2.19-.63,6.44,.63,3.15,.94,6.31,1.96,9.49,3.06,3.16,1.14,6.32,2.35,9.49,3.62,3.17,1.27,6.34,2.59,9.51,3.98,1.58,.69,3.17,1.4,4.75,2.14l1.37,.65c.67,.32,1.52,.74,2.25,1.12,.73,.4,1.51,.79,2.02,1.24,.52,.45,.81,.9,.94,1.32,.08,.27,.1,.46,.1,.79-.11,.27-.3,.5-.44,.76l-.94,1.5-5.04,2.71-3,1.67-5.99,3.4c-3.99,2.29-7.96,4.63-11.93,6.99l-.06-.07Z"/>
    <path class="cls-1" d="M290.55,256.83c-.1-9.24-.22-18.49-.4-27.74-.1-3.37-.19-6.75-.29-10.12l-.52-35.69c-.09-5.28-.23-10.59-.38-15.82-.08-3.37-.22-6.74-.26-10.11-.01-3.37,.07-6.75,.32-10.11,.15-2.1,.71-1.82,1.39-.05,.34,.88,.73,2.14,1.1,3.66,.34,1.52,.6,3.3,.7,5.23,.5,13.71,.69,27.43,.65,41.28-.03,8.28,.41,16.9,.62,25.37,.19,9.32,.38,18.64,.56,27.96,.08,5.74,.17,11.48,.25,17.21,.08,8.69,.15,17.42,.23,26.05,.05,6.71,.29,13.28,.35,19.92,.02,1.46,.08,2.89,.05,4.37-.04,2.73-.11,4.53-.35,5.79-.26,1.26-.64,1.97-1.1,2.55-.2,.26-.39,.61-.55,.76-.28,.25-.51-.18-.84-1.18-.35-1-.61-2.56-.64-4.55-.39-11.83-.46-24.28-.62-36.8-.09-9.3-.17-18.64-.35-27.97h.09Z"/>
    <path class="cls-1" d="M240.82,210.43l.29,33.74c.08,4.1,.15,8.21,.23,12.3l.27,43.39,.02,4.82v1.67c.17,.09,.36,.16,.54,.24l.97,.43c2.94,1.31,5.87,2.62,8.78,3.93,3.71,1.72,7.42,3.45,11.13,5.18,1.86,.85,3.7,1.72,5.54,2.61l2.76,1.32c.92,.45,1.8,.99,2.7,1.46,2.23,1.26,1.85,1.31-.36,.98-2.23-.24-6.26-.99-10.63-2.83-3.86-1.66-7.67-3.39-11.47-5.09-4.01-1.83-8.03-3.66-12.04-5.49l-.7-.32-.35-.16-.17-.08c0-.06,0-.13,0-.19v-1.54s-.02-2.12-.02-2.12v-3.13s.01-6.28,.01-6.28c.02-4.19,.03-8.39,.05-12.6,.08-10.07-.3-20.55-.46-30.85-.15-11.33-.3-22.66-.45-33.99-.08-6.97-.15-13.95-.23-20.92-.1-10.56-.19-21.17-.29-31.66-.08-4.08-.15-8.11-.23-12.14-.09-4.02-.2-8.04-.18-12.08,0-1.78-.04-3.52,.02-5.31,.04-1.67,.11-3.05,.21-4.2,.08-1.15,.22-2.09,.37-2.86,.27-1.54,.64-2.4,1.08-3.08,.2-.31,.38-.72,.54-.9,.51-.58,.98,2.15,1.1,6.96,.46,14.34,.52,29.5,.7,44.73,.11,11.32,.23,22.68,.34,34.03l-.09,.02Z"/>
    <path class="cls-1" d="M335.81,174.76c-.01-5.07-.09-10.14-.16-15.22l-.19-5.55c-.11-6.53-.21-13.06-.44-19.58-.1-2.89-.3-5.8-.53-8.66-.14-1.84-.35-3.68-.43-5.53-.05-.92-.09-1.85-.11-2.77-.01-.92-.1-1.84,.18-2.78,.29-.6,.42-.86,.49-.85,.08,0,.14,.28,.55,.74,.85,.91,1.66,2.66,1.93,4.78,.26,1.88,.4,3.76,.52,5.65,.13,1.89,.24,3.77,.33,5.66,.19,3.78,.29,7.57,.3,11.38,.01,4.56,.41,9.28,.59,13.94,.19,5.12,.3,10.24,.38,15.37,.04,3.15,.07,6.31,.11,9.46,.03,4.78,.06,9.58,.09,14.32,0,1.84,.09,3.67,.15,5.49,.03,1.82,.08,3.64,.04,5.47-.02,.8,.01,1.59-.05,2.41-.21,3.01-.48,3.96-1.25,4.55-.17,.14-.34,.32-.5,.39-.52,.25-.99-1-1.14-3.18-.11-1.62-.22-3.26-.37-4.92-.14-1.66-.16-3.33-.25-5.01-.13-3.37-.09-6.79-.15-10.22-.02-2.55-.04-5.1-.07-7.66-.02-2.56-.05-5.12-.1-7.67h.09Z"/>
    <path class="cls-1" d="M355.74,314.85c.06-5.25,.11-10.5,.11-15.75,0-1.92-.11-3.83-.1-5.75l.05-20.27c-.02-3-.12-6.01-.23-8.99-.06-1.91-.2-3.82-.22-5.74,0-1.92,.06-3.83,.3-5.75,.15-1.19,.7-1.04,1.39-.05,.35,.5,.74,1.21,1.11,2.06,.35,.86,.61,1.86,.71,2.96,.49,7.79,.51,15.59,.26,23.47-.16,4.71,.13,9.61,.17,14.43,.05,5.3,.05,10.6,.04,15.9-.01,3.26-.02,6.53-.04,9.79-.05,4.94-.09,9.91-.14,14.81-.01,3.82,.15,7.56,.13,11.36,0,.84,.02,1.66-.01,2.5-.04,1.56-.2,2.6-.45,3.3-.29,.7-.69,1.08-1.15,1.37-.21,.13-.4,.31-.56,.39-.28,.12-.51-.15-.81-.74-.32-.59-.55-1.48-.54-2.6-.19-6.67-.22-13.72-.2-20.82,.03-5.28,.06-10.58,.08-15.87h.09Z"/>
    <path class="cls-1" d="M307.69,271.52c-.08,5.19-.14,10.39-.16,15.59,0,1.9,.09,3.79,.08,5.69-.03,6.68-.1,13.37-.09,20.06,0,2.97,.11,5.95,.23,8.89,.05,1.89,.09,3.79,.14,5.68,.02,.95,0,1.9-.06,2.84l-.09,1.42c-.04,.47-.18,.95-.26,1.42-.28,1.18-.47,1.03-1.04,.04-.66-.98-1.57-2.8-1.75-4.97l-.35-5.78c-.08-1.93-.08-3.86-.1-5.8-.02-3.87,.02-7.75,.15-11.64,.15-4.66-.11-9.51-.15-14.27-.04-5.24-.04-10.49-.01-15.73,.02-3.23,.04-6.46,.07-9.68,.06-4.89,.13-9.8,.19-14.66,.04-3.77-.15-7.48-.08-11.23,.02-.83,0-1.63,.05-2.47,.02-.77,.11-1.41,.22-1.94,.1-.53,.21-.96,.34-1.31,.23-.7,.57-1.08,.99-1.38,.19-.13,.36-.32,.52-.39,.47-.25,1.08,1.06,1.24,3.29,.23,3.32,.28,6.71,.26,10.16-.03,3.45-.06,6.95-.09,10.46-.05,5.22-.11,10.46-.16,15.7h-.09Z"/>
    <path class="cls-1" d="M399.79,328.15l1.44-.83c.17-.1,.1-.06,.14-.08l.04-.02s.07-.02,.06-.05v-.09s.01-.02,.01-.02v-.21s0-.41,0-.41v-1.66s.04-6.63,.04-6.63v-13.28c-.02-3.23-.05-6.46-.09-9.68l.08-34.15c.02-5.05-.09-10.13-.13-15.14-.01-3.22-.03-6.45-.04-9.67,.07-3.23,.25-6.45,.47-9.68,.18-2.03,.37-1.72,.67-.03,.29,1.7,.93,4.81,1.29,8.52,.72,13.13,.76,26.27,.65,39.53-.13,7.93,.13,16.18,.19,24.29,.06,8.92,.08,17.84,.07,26.76v2.4s0,.79,0,.79v.2c-.02,.05-.11,.07-.15,.11l-.34,.2-1.31,.77-3.55,2.07-7.06,4.22c-7.11,4.31-14.38,8.48-21.6,12.49-2.8,1.57-5.57,3.13-8.34,4.69l-4.47,2.49-.41,.22c-.07,.02-.14,.12-.2,.07l-.2-.08-.82-.32-1.32-.52-2.22-.88c-1.3-.52-2.57-1.02-3.87-1.55-2.41-.96-3.92-1.79-4.97-2.39-.52-.31-.92-.59-1.24-.86-.31-.29-.54-.57-.73-.84-.18-.25-.43-.51-.52-.7-.32-.56,1.93-.46,5.6,.73,2.74,.85,5.39,1.98,8.09,3l1.86,.71c.08,.02,.18,.06,.24,.06l.05-.04,.02-.02h.01s.11-.07,.11-.07c1.28-.71,2.56-1.42,3.85-2.13,5.15-2.85,10.37-5.74,15.54-8.72,7.68-4.42,15.29-9.09,23.02-13.64l.05,.06Z"/>
    <path class="cls-1" d="M200.87,246.46c-5.27-2.18-10.42-4.55-15.55-6.94-1.87-.87-3.77-1.67-5.63-2.56l-2.96-1.42c-.69-.33-1.47-.65-1.9-1.06-.18-.2-.42-.42-.54-.61-.12-.18-.27-.38-.28-.73,0-.6,.22-1.08,.58-1.61,.37-.52,.91-1.03,1.49-1.51,1.38-1.09,1.95-1.42,2.76-1.97,3.11-2.01,6.28-3.8,9.47-5.58,2.82-1.58,5.65-3.18,8.47-4.7,1.81-.99,3.61-1.99,5.45-2.92,1.86-.89,3.77-1.69,5.78-2.27,1.33-.2,1.18-.09,.45,.87-.75,.95-2.15,2.58-4.13,3.85-3.62,2.05-7.24,4.1-10.87,6.15-3.65,2-7.32,4.01-10.91,6.1-1.07,.63-2.13,1.3-3.14,2.01l-.35,.25-.25,.19c-.15,.14-.34,.27-.4,.47,0,.12,.15,.12,.23,.18l.29,.13,.82,.38c1.18,.53,2.36,1.06,3.54,1.59,5.16,2.35,10.3,4.76,15.51,6.96,3.2,1.36,6.43,2.65,9.7,3.86,2.48,.92,4.97,1.85,7.45,2.77,1.24,.46,2.49,.92,3.73,1.37l.63,.23c.09,.02,.18,.1,.26,.06l.24-.14,1.45-.86c3.52-2.08,6.84-4.32,10.26-6.47,.76-.46,1.49-.94,2.26-1.39,2.88-1.66,3.94-1.95,5.01-1.55,.24,.09,.53,.16,.72,.28,.62,.41-.25,1.59-2.22,3.05-1.46,1.07-2.96,2.15-4.48,3.2-1.55,1.01-3.13,2.01-4.73,3-1.6,.99-3.23,1.96-4.87,2.93l-1.23,.72-1.22,.71-.62,.35c-.1,.05-.2,.15-.31,.15l-.34-.12-3.6-1.3c-5.32-1.93-10.69-3.88-16.04-6.01l.03-.09Z"/>
    <path class="cls-1" d="M177,279.99c5.44,2.51,10.9,4.97,16.38,7.39l6.04,2.55,10.59,4.61,5.31,2.24c.89,.36,1.77,.73,2.66,1.07,.44,.17,.89,.34,1.32,.48l.38,.13c.11,.04,.23,.04,.31-.04l.06-.04c.09-.04,.54-.34,.88-.55l1.06-.69,2.12-1.39c1.41-.92,2.79-1.89,4.21-2.79,1.83-1.19,3.66-2.4,5.51-3.56,1.89-1.12,3.85-2.12,5.82-3.09,1.25-.58,1.18-.31,.37,.57-.82,.86-2.27,2.51-4.2,4.14-2.33,1.73-4.69,3.41-7.05,5.11-2.53,1.68-5.07,3.36-7.62,5.05l-.49,.18-.12,.04-.06,.02h-.03s-.02,.02-.02,.02h0s-.04-.2-.02-.11h0s-.26,.05-.26,.05l-.52,.05c-.18,0-.35-.08-.53-.12l-.52-.13-.31-.1-.58-.2c-.76-.27-1.49-.56-2.23-.85-1.46-.59-2.91-1.19-4.34-1.83-4.92-2.21-10.15-4.2-15.21-6.36-5.56-2.38-11.09-4.82-16.62-7.29l-5.54-2.5-.46-.21c-.14-.08-.37-.09-.3-.32v-1.05s0-1.72,0-1.72v-2.79c0-5.63,.07-11.29-.05-16.87-.04-2.17-.14-4.32-.22-6.48-.08-2.17-.08-4.32-.09-6.47,0-.95-.04-1.87-.02-2.83,0-.88,.05-1.62,.14-2.23,.08-.61,.16-1.11,.27-1.51,.19-.81,.5-1.27,.89-1.64,.17-.17,.33-.39,.47-.49,.42-.33,1.08,1.13,1.31,3.73,.31,3.84,.21,7.84,.32,11.74,.12,3.95,.22,8.04,.26,12.1,.03,3.02,.05,6.05,.04,9.08l-.02,4.54v.57s0,.28,0,.28v.02s-.01,.05-.01,.05l.15,.08,.09,.05,.52,.23-.03,.08Z"/>
    <path class="cls-1" d="M219.9,280.87c.05-2.45,.07-4.92,.05-7.38,0-.9-.1-1.8-.1-2.69,0-3.18,0-6.36,.01-9.53,0-1.41-.12-2.83-.15-4.23,0-1.8-.37-3.61,.44-5.42,.23-.56,.32-.48,.7-.01,.2,.24,.49,.57,.84,.97,.3,.4,.48,.87,.58,1.38,.49,3.62,.47,7.27,.28,10.98-.12,2.22,.13,4.51,.18,6.77,.06,2.49,.08,4.98,.09,7.48l-.02,4.61c0,2.33-.09,4.67-.11,6.99,0,.9,.02,1.8,.05,2.69l.05,1.35c0,.45-.03,.9-.05,1.35-.02,.4-.01,.79-.05,1.19-.15,1.49-.64,1.9-1.28,2.12-.15,.05-.3,.12-.43,.14-.23,.03-.41-.11-.6-.4-.17-.29-.38-.73-.44-1.26-.11-1.56-.3-3.16-.27-4.77,.02-1.62,.04-3.26,.06-4.9,.02-2.45,.09-4.92,.06-7.4h.07Z"/>
    <path class="cls-1" d="M230.57,219.45l-3.64-1.74c-.45-.21-.92-.33-1.36-.55-1.55-.79-3.11-1.59-4.66-2.38-.7-.33-1.39-.67-2.1-.98-.9-.4-1.82-.77-2.61-1.41-.25-.2-.04-.52,.36-.78,.4-.25,1.02-.48,1.56-.32,.95,.27,1.89,.55,2.83,.87,.92,.35,1.8,.8,2.69,1.28,1.05,.59,2.27,.88,3.41,1.32l3.75,1.55,2.31,.97c1.17,.48,2.34,.98,3.52,1.43,.92,.35,1.88,.52,2.81,.85,.2,.07,.42,.11,.62,.2,.72,.36,.84,.74,.71,1.39-.03,.15-.05,.31-.09,.45-.14,.47-.62,.73-1.25,.75-1.8-.09-3.51-.55-5.17-1.21-1.23-.51-2.45-1.09-3.69-1.62l.02-.07Z"/>
    <path class="cls-1" d="M321.14,338.82c.72,.4,1.44,.8,2.15,1.2,.26,.14,.55,.21,.81,.38,.9,.57,1.81,1.14,2.73,1.66,.41,.23,.84,.41,1.27,.58,.55,.22,1.13,.38,1.61,.78,.31,.24-.59,1.36-1.26,1.19-1.17-.35-2.32-.78-3.38-1.44-.64-.4-1.39-.57-2.08-.87-.74-.37-1.49-.74-2.24-1.11l-1.38-.68c-.7-.34-1.4-.67-2.1-.97-.54-.24-1.15-.32-1.69-.55-.12-.05-.24-.09-.36-.15-.42-.24-.5-.44-.43-.86,.02-.1,.02-.19,.05-.28,.08-.3,.37-.47,.77-.5,.59-.04,1.19-.07,1.72,.05,.54,.12,1.11,.18,1.6,.43,.75,.33,1.48,.71,2.22,1.07l-.02,.05Z"/>
  </g>
  <g>
    <path class="cls-1" d="M369.56,72.31c-.19-.19,.01-.43,.44-.71,.14-.09,.6-.2,.68-.15,.16,.09,.31,.19,.43,.29,.07,.06,.59,1.23,.78,1.62,.19,.38,.3,.77,.4,1.17,.2,.81,.43,1.62,.64,2.43,.05,.18,.07,.37,.07,.56,.01,.65,.16,1.28,.35,1.89,.03,.1,.05,.21,.14,.29,.16,.14,.57,1.82,.57,2.05,0,.57,.05,1.14,.07,1.7,0,.08,.05,.16-.01,.25-.15,.21-.08,.37-.05,.54,.04,.24,.06,.48,.06,.72,0,.12-.08,.26-.14,.4-.05,.12-.35,.14-.39,.11-.12-.08-.23,.04-.35,.08-.04,.01-.09,.03-.12,.03-.07,0-.91-1.2-.94-1.35,0-.04-.66-1.94-.75-2.15-.05-.11-.03-.24-.04-.36,0-.06-.56-1.57-.57-1.63-.06-.33-.22-.63-.13-.99,.02-.07,0-.13-.03-.2-.17-.55-.25-1.12-.34-1.68-.05-.29-.15-.56-.22-.85-.01-.05,0-.11,0-.16,0-.07,0-.14-.01-.2-.19-.66-.27-1.36-.52-2.01-.06-.15-.03-.94-.11-1.11-.04-.1,.19-.5,.11-.57Z"/>
    <path class="cls-1" d="M377.99,76.36c.17-.18,.4,.02,.66,.46,.08,.14,.19,.6,.15,.68-.08,.15-.16,.3-.26,.42-.06,.07-1.11,.56-1.46,.74-.34,.18-.7,.28-1.07,.37-.74,.18-1.47,.39-2.21,.58-.16,.04-.33,.06-.51,.06-.6,0-1.16,.13-1.72,.31-.09,.03-.19,.04-.26,.13-.12,.15-1.65,.53-1.86,.52-.53-.02-1.04,.02-1.56,.04-.07,0-.14,.05-.23-.02-.2-.16-.34-.09-.5-.06-.22,.03-.44,.05-.66,.04-.11,0-.24-.09-.37-.15-.11-.06-.13-.36-.11-.39,.07-.11-.04-.23-.08-.35-.01-.04-.03-.09-.03-.12,0-.07,1.08-.88,1.21-.91,.03,0,1.76-.61,1.95-.7,.1-.05,.22-.03,.33-.03,.05,0,1.42-.53,1.48-.54,.3-.05,.57-.2,.91-.11,.07,.02,.12,0,.18-.02,.5-.16,1.02-.22,1.53-.31,.26-.04,.51-.13,.77-.2,.05-.01,.1,0,.15,0,.06,0,.13,0,.18,0,.6-.18,1.24-.24,1.82-.47,.14-.05,.86-.01,1.01-.08,.09-.04,.46,.2,.53,.12Z"/>
    <path class="cls-1" d="M377.03,80.86c.23-.02,.24,.28,.11,.77-.04,.16-.29,.56-.37,.59-.16,.06-.31,.11-.45,.13-.08,.01-1.1-.34-1.46-.45-.34-.1-.65-.27-.95-.45-.61-.36-1.22-.71-1.83-1.07-.13-.08-.26-.18-.37-.3-.38-.4-.84-.69-1.32-.93-.08-.04-.15-.1-.26-.08-.18,.03-1.43-.73-1.56-.87-.33-.36-.69-.68-1.03-1.02-.05-.05-.12-.06-.13-.17-.02-.24-.16-.29-.28-.38-.16-.12-.32-.25-.46-.41-.07-.08-.09-.23-.13-.35-.03-.12,.16-.34,.2-.36,.13-.03,.13-.19,.19-.3,.02-.04,.04-.09,.06-.11,.05-.06,1.3,.1,1.41,.16,.03,.02,1.56,.74,1.75,.81,.1,.03,.16,.13,.23,.2,.03,.04,1.28,.58,1.33,.61,.23,.16,.51,.24,.66,.53,.03,.06,.08,.08,.13,.1,.43,.22,.81,.52,1.2,.81,.2,.14,.43,.25,.64,.37,.04,.02,.06,.07,.09,.1,.04,.04,.08,.09,.12,.12,.51,.28,.96,.66,1.51,.88,.13,.05,.56,.56,.71,.62,.08,.03,.16,.45,.25,.44Z"/>
    <path class="cls-1" d="M369.66,83.77c.02,.23-.28,.24-.77,.11-.16-.04-.56-.29-.59-.37-.06-.16-.11-.31-.13-.45-.01-.08,.34-1.1,.45-1.46,.1-.34,.27-.65,.45-.95,.36-.61,.71-1.22,1.07-1.83,.08-.13,.18-.26,.3-.37,.4-.38,.69-.84,.93-1.32,.04-.08,.1-.15,.08-.26-.03-.18,.73-1.43,.87-1.56,.36-.33,.68-.69,1.02-1.03,.05-.05,.06-.12,.17-.13,.24-.02,.29-.16,.38-.28,.12-.16,.25-.32,.41-.46,.08-.07,.23-.09,.35-.13,.12-.03,.34,.16,.36,.2,.03,.13,.19,.13,.3,.19,.04,.02,.09,.04,.11,.06,.06,.05-.1,1.3-.16,1.41-.02,.03-.74,1.56-.81,1.75-.03,.1-.12,.16-.2,.23-.04,.03-.58,1.28-.61,1.33-.16,.23-.24,.51-.53,.66-.06,.03-.08,.08-.1,.13-.22,.43-.52,.81-.81,1.2-.14,.2-.25,.42-.37,.64-.02,.04-.07,.06-.1,.09-.04,.04-.09,.08-.12,.12-.28,.51-.66,.96-.88,1.51-.05,.13-.56,.56-.62,.71-.03,.08-.45,.16-.44,.25Z"/>
  </g>
  <g>
    <path class="cls-1" d="M140.01,193.85c-.23-.13-.11-.42,.23-.81,.11-.12,.52-.35,.61-.33,.18,.04,.35,.09,.49,.16,.09,.04,.9,1.01,1.2,1.34,.28,.31,.5,.66,.71,1.02,.42,.72,.86,1.44,1.28,2.16,.09,.16,.17,.33,.22,.51,.19,.63,.5,1.18,.86,1.72,.06,.09,.1,.19,.22,.24,.19,.09,1.05,1.59,1.11,1.81,.16,.55,.36,1.08,.54,1.62,.03,.08,.09,.14,.05,.24-.09,.24,.03,.38,.1,.53,.1,.22,.19,.44,.26,.68,.03,.12,0,.28-.03,.42-.02,.13-.3,.23-.35,.21-.13-.05-.21,.1-.31,.17-.03,.02-.08,.05-.11,.07-.07,.03-1.2-.9-1.28-1.03-.02-.03-1.17-1.68-1.32-1.86-.08-.09-.1-.22-.13-.34-.02-.06-.98-1.35-1-1.41-.15-.3-.38-.55-.4-.92,0-.07-.05-.13-.08-.18-.32-.48-.55-1-.8-1.52-.13-.26-.3-.5-.45-.75-.03-.05-.03-.1-.05-.16-.02-.06-.03-.13-.07-.19-.37-.58-.63-1.23-1.06-1.78-.1-.13-.29-.89-.41-1.03-.07-.08,.04-.53-.05-.58Z"/>
    <path class="cls-1" d="M149.23,195.4c.11-.22,.39-.09,.76,.25,.12,.11,.35,.52,.33,.61-.03,.17-.07,.34-.13,.47-.04,.08-.91,.84-1.2,1.12-.28,.27-.6,.47-.92,.65-.66,.38-1.31,.79-1.96,1.17-.15,.09-.3,.15-.47,.2-.58,.16-1.08,.45-1.57,.77-.08,.05-.17,.09-.22,.2-.07,.18-1.44,.97-1.64,1.02-.51,.13-.99,.31-1.49,.47-.07,.02-.12,.08-.22,.04-.23-.09-.35,.01-.49,.08-.2,.09-.4,.17-.62,.22-.11,.03-.26-.02-.39-.04-.12-.02-.23-.3-.21-.35,.04-.13-.1-.21-.17-.31-.02-.03-.05-.08-.07-.11-.03-.07,.79-1.14,.91-1.21,.03-.02,1.52-1.08,1.68-1.22,.08-.07,.2-.09,.31-.12,.05-.01,1.22-.9,1.28-.93,.27-.13,.49-.35,.84-.35,.07,0,.12-.04,.17-.07,.43-.29,.91-.49,1.38-.72,.24-.11,.46-.27,.69-.41,.04-.02,.1-.02,.14-.04,.06-.02,.12-.03,.18-.06,.53-.34,1.12-.57,1.62-.96,.11-.09,.82-.25,.95-.36,.07-.06,.5,.06,.54-.03Z"/>
    <path class="cls-1" d="M149.55,199.99c.22-.08,.31,.2,.32,.71,0,.16-.12,.62-.19,.67-.14,.1-.27,.19-.4,.25-.08,.03-1.15-.02-1.52-.03-.36,0-.7-.08-1.03-.17-.68-.18-1.37-.34-2.05-.52-.15-.04-.3-.1-.44-.18-.48-.28-1-.43-1.53-.53-.09-.02-.17-.05-.28,0-.17,.08-1.58-.3-1.75-.41-.42-.26-.85-.46-1.27-.69-.06-.03-.14-.02-.17-.12-.09-.23-.23-.23-.37-.29-.19-.07-.38-.15-.55-.27-.09-.06-.15-.19-.23-.3-.06-.1,.06-.37,.1-.4,.11-.07,.08-.22,.1-.34,0-.04,.02-.09,.03-.13,.03-.07,1.28-.27,1.4-.23,.03,0,1.71,.28,1.9,.29,.1,0,.19,.08,.28,.13,.04,.02,1.39,.2,1.45,.22,.27,.09,.56,.09,.78,.33,.04,.05,.1,.05,.16,.06,.47,.09,.92,.28,1.38,.44,.23,.08,.48,.12,.71,.18,.04,.01,.08,.05,.12,.07,.05,.03,.1,.07,.15,.08,.57,.12,1.11,.37,1.69,.43,.14,.01,.7,.39,.86,.4,.09,0,.28,.39,.37,.35Z"/>
    <path class="cls-1" d="M143.28,204.83c.08,.22-.2,.31-.71,.32-.16,0-.62-.12-.67-.19-.1-.14-.19-.27-.25-.4-.03-.08,.02-1.15,.03-1.52,0-.36,.08-.7,.17-1.03,.18-.68,.34-1.37,.52-2.05,.04-.15,.1-.3,.18-.44,.28-.48,.43-1,.53-1.53,.02-.09,.05-.17,0-.28-.08-.17,.3-1.58,.41-1.75,.26-.42,.46-.85,.69-1.27,.03-.06,.02-.14,.12-.17,.23-.09,.23-.23,.29-.37,.07-.19,.15-.38,.27-.55,.06-.09,.19-.15,.3-.23,.1-.06,.37,.06,.4,.1,.07,.11,.22,.08,.34,.1,.04,0,.09,.02,.12,.03,.07,.03,.27,1.28,.23,1.4,0,.03-.28,1.71-.29,1.9,0,.1-.08,.19-.13,.28-.02,.04-.2,1.39-.22,1.45-.09,.27-.09,.56-.33,.78-.05,.04-.05,.1-.06,.16-.09,.47-.28,.92-.44,1.38-.08,.23-.12,.48-.18,.71-.01,.04-.05,.08-.07,.12-.03,.05-.07,.1-.08,.15-.12,.57-.37,1.11-.43,1.69-.01,.14-.39,.7-.4,.86,0,.09-.39,.28-.35,.37Z"/>
  </g>
  <g>
    <path class="cls-1" d="M432.71,140.82c-.14-.15,0-.34,.33-.56,.1-.07,.45-.15,.51-.11,.12,.07,.23,.15,.32,.23,.05,.05,.45,.98,.6,1.29,.14,.3,.23,.62,.31,.93,.16,.65,.34,1.29,.5,1.93,.04,.14,.06,.29,.06,.44,.01,.52,.13,1.01,.28,1.5,.03,.08,.04,.17,.11,.23,.12,.11,.45,1.44,.45,1.63,0,.45,.05,.9,.07,1.35,0,.06,.04,.12,0,.2-.11,.17-.05,.29-.03,.43,.03,.19,.05,.38,.05,.57,0,.1-.06,.21-.1,.31-.04,.1-.26,.11-.3,.08-.09-.07-.17,.03-.26,.06-.03,.01-.07,.02-.09,.03-.06,0-.69-.96-.72-1.08,0-.03-.51-1.54-.59-1.71-.04-.09-.03-.19-.03-.29,0-.05-.44-1.25-.45-1.3-.05-.26-.17-.5-.11-.79,.01-.06,0-.11-.02-.16-.13-.43-.2-.89-.28-1.33-.04-.23-.12-.45-.17-.67-.01-.04,0-.09,0-.13,0-.05,0-.11-.01-.16-.15-.53-.21-1.08-.41-1.59-.05-.12-.04-.74-.09-.88-.03-.08,.14-.39,.08-.45Z"/>
    <path class="cls-1" d="M439.38,144.07c.14-.14,.31,.01,.52,.34,.07,.1,.15,.45,.11,.51-.07,.12-.13,.23-.21,.32-.05,.05-.88,.43-1.16,.57-.27,.14-.56,.22-.85,.29-.59,.15-1.17,.31-1.76,.46-.13,.03-.26,.05-.4,.05-.47,0-.92,.11-1.36,.25-.07,.02-.15,.03-.21,.1-.1,.12-1.31,.42-1.48,.41-.42,0-.82,.03-1.23,.04-.06,0-.11,.04-.18-.01-.15-.11-.27-.06-.39-.04-.17,.03-.34,.05-.52,.04-.09,0-.19-.06-.29-.11-.09-.04-.1-.27-.08-.3,.06-.09-.03-.17-.06-.26,0-.03-.02-.07-.03-.09,0-.06,.86-.67,.97-.7,.03,0,1.4-.48,1.55-.55,.08-.04,.17-.02,.26-.02,.04,0,1.13-.41,1.18-.42,.24-.04,.46-.16,.72-.09,.05,.01,.1,0,.14-.02,.39-.12,.81-.18,1.21-.25,.21-.04,.41-.11,.61-.16,.04,0,.08,0,.12,0,.05,0,.1,0,.15,0,.48-.14,.98-.19,1.45-.38,.11-.04,.68-.02,.8-.07,.07-.03,.36,.14,.42,.09Z"/>
    <path class="cls-1" d="M438.59,147.65c.18,0,.19,.22,.1,.59-.03,.12-.22,.42-.28,.44-.12,.04-.24,.08-.35,.09-.07,0-.87-.28-1.15-.37-.27-.08-.51-.22-.75-.36-.48-.29-.97-.56-1.45-.85-.11-.06-.21-.14-.3-.23-.31-.31-.67-.54-1.05-.74-.06-.03-.12-.08-.21-.07-.14,.02-1.14-.58-1.24-.7-.26-.28-.55-.53-.83-.8-.04-.04-.1-.05-.11-.13-.02-.19-.13-.22-.22-.29-.13-.1-.25-.2-.37-.32-.06-.06-.08-.17-.11-.27-.03-.09,.12-.26,.15-.27,.1-.02,.1-.14,.14-.22,.01-.03,.03-.06,.05-.08,.04-.04,1.02,.1,1.11,.15,.02,.01,1.24,.6,1.38,.65,.08,.03,.13,.1,.19,.16,.03,.03,1.02,.47,1.05,.49,.18,.13,.4,.19,.53,.42,.02,.04,.07,.06,.11,.08,.34,.17,.64,.41,.96,.64,.16,.11,.34,.2,.51,.3,.03,.02,.05,.05,.08,.08,.03,.03,.06,.07,.1,.09,.41,.22,.77,.52,1.2,.7,.1,.04,.45,.44,.57,.48,.07,.02,.13,.35,.21,.34Z"/>
    <path class="cls-1" d="M432.73,149.91c0,.18-.22,.19-.59,.1-.12-.03-.42-.22-.44-.28-.04-.12-.08-.24-.09-.35,0-.07,.28-.87,.37-1.15,.08-.27,.22-.51,.36-.75,.29-.48,.56-.97,.85-1.45,.06-.11,.14-.21,.23-.3,.31-.31,.54-.67,.74-1.05,.03-.06,.08-.12,.07-.21-.02-.14,.58-1.14,.7-1.24,.28-.26,.53-.55,.8-.83,.04-.04,.05-.1,.13-.11,.19-.02,.22-.13,.29-.22,.1-.13,.2-.25,.32-.37,.06-.06,.17-.08,.27-.11,.09-.03,.26,.12,.27,.15,.02,.1,.14,.1,.22,.14,.03,.01,.06,.03,.08,.05,.04,.04-.1,1.02-.15,1.11-.01,.02-.6,1.24-.65,1.38-.03,.08-.1,.13-.16,.19-.03,.03-.47,1.02-.49,1.05-.13,.18-.19,.4-.42,.53-.04,.02-.06,.07-.08,.11-.18,.34-.41,.64-.64,.96-.11,.16-.2,.34-.3,.51-.02,.03-.05,.05-.08,.08-.03,.03-.07,.06-.09,.1-.22,.41-.52,.77-.7,1.2-.04,.1-.44,.45-.48,.57-.02,.07-.35,.13-.34,.21Z"/>
  </g>
  <g>
    <path class="cls-1" d="M382.83,168.51c-.14-.15,0-.34,.33-.56,.1-.07,.45-.15,.51-.11,.12,.07,.23,.15,.32,.23,.05,.05,.45,.98,.6,1.29,.14,.3,.23,.62,.31,.93,.16,.65,.34,1.29,.5,1.93,.04,.14,.06,.29,.06,.44,.01,.52,.13,1.01,.28,1.5,.02,.08,.04,.17,.11,.23,.12,.11,.45,1.44,.45,1.63,0,.45,.05,.9,.07,1.35,0,.06,.04,.12,0,.2-.11,.17-.05,.29-.03,.43,.03,.19,.05,.38,.05,.57,0,.1-.06,.21-.1,.31-.04,.1-.27,.11-.3,.08-.09-.07-.17,.03-.26,.06-.03,.01-.07,.02-.09,.03-.06,0-.69-.96-.72-1.08,0-.03-.51-1.54-.59-1.71-.04-.09-.03-.19-.03-.29,0-.05-.44-1.25-.45-1.3-.05-.26-.17-.5-.11-.79,.01-.06,0-.11-.02-.16-.13-.43-.2-.89-.28-1.33-.04-.23-.12-.45-.17-.67-.01-.04,0-.09,0-.13,0-.05,0-.11-.01-.16-.15-.53-.21-1.08-.41-1.59-.05-.12-.04-.74-.09-.88-.03-.08,.14-.39,.08-.45Z"/>
    <path class="cls-1" d="M389.5,171.76c.14-.14,.31,.01,.52,.34,.07,.1,.15,.45,.11,.51-.07,.12-.13,.23-.21,.32-.05,.05-.88,.43-1.16,.57-.27,.14-.56,.22-.85,.29-.59,.15-1.17,.31-1.76,.46-.13,.03-.26,.05-.4,.05-.47,0-.92,.11-1.36,.25-.07,.02-.15,.03-.21,.1-.1,.12-1.31,.42-1.48,.41-.42,0-.82,.03-1.23,.04-.06,0-.11,.04-.18-.01-.15-.11-.27-.06-.39-.04-.17,.03-.34,.05-.52,.04-.09,0-.19-.06-.29-.11-.09-.04-.1-.27-.08-.3,.06-.09-.03-.17-.06-.26-.01-.03-.02-.07-.03-.09,0-.06,.86-.67,.97-.7,.03,0,1.4-.48,1.55-.55,.08-.04,.17-.02,.26-.02,.04,0,1.13-.41,1.18-.42,.24-.04,.46-.16,.72-.09,.05,.01,.1,0,.14-.02,.39-.12,.81-.18,1.21-.25,.21-.04,.41-.11,.61-.16,.04,0,.08,0,.12,0,.05,0,.1,0,.15,0,.48-.14,.98-.19,1.45-.38,.11-.04,.68-.02,.8-.07,.07-.03,.36,.14,.42,.09Z"/>
    <path class="cls-1" d="M388.71,175.34c.18,0,.19,.22,.1,.59-.03,.12-.22,.42-.28,.44-.12,.04-.24,.08-.35,.09-.07,0-.87-.28-1.15-.37-.27-.08-.51-.22-.75-.36-.48-.29-.97-.56-1.45-.85-.11-.06-.21-.14-.3-.23-.31-.31-.67-.54-1.05-.74-.06-.03-.12-.08-.21-.07-.14,.02-1.14-.58-1.24-.7-.26-.28-.55-.53-.83-.8-.04-.04-.1-.05-.11-.13-.02-.19-.13-.22-.22-.29-.13-.1-.25-.2-.37-.32-.06-.06-.08-.17-.11-.27-.03-.09,.12-.26,.15-.27,.1-.02,.1-.14,.14-.22,.01-.03,.03-.06,.05-.08,.04-.04,1.02,.1,1.11,.15,.02,.01,1.24,.6,1.38,.65,.08,.03,.13,.1,.19,.16,.03,.03,1.02,.47,1.05,.49,.18,.13,.4,.19,.53,.42,.02,.04,.07,.06,.11,.08,.34,.17,.64,.41,.96,.64,.16,.11,.34,.2,.51,.3,.03,.02,.05,.05,.08,.08,.03,.03,.06,.07,.1,.09,.41,.22,.77,.52,1.2,.7,.1,.04,.45,.44,.57,.48,.07,.02,.13,.35,.21,.34Z"/>
    <path class="cls-1" d="M382.85,177.6c0,.18-.22,.19-.59,.1-.12-.03-.42-.22-.44-.28-.04-.12-.08-.24-.09-.35,0-.07,.28-.87,.37-1.15,.08-.27,.22-.51,.36-.75,.29-.48,.56-.97,.85-1.45,.06-.11,.14-.21,.23-.3,.31-.31,.54-.67,.74-1.05,.03-.06,.08-.12,.07-.21-.02-.14,.58-1.14,.7-1.24,.28-.26,.53-.55,.8-.83,.04-.04,.05-.1,.13-.11,.19-.02,.22-.13,.29-.22,.1-.13,.2-.25,.32-.37,.06-.06,.17-.08,.27-.11,.09-.03,.26,.12,.27,.15,.02,.1,.14,.1,.22,.14,.03,.01,.06,.03,.08,.05,.04,.04-.1,1.02-.15,1.11-.01,.02-.6,1.24-.65,1.38-.03,.08-.1,.13-.16,.19-.03,.03-.47,1.02-.49,1.05-.13,.18-.19,.4-.42,.53-.04,.02-.06,.07-.08,.11-.17,.34-.41,.64-.64,.96-.11,.16-.2,.34-.3,.51-.02,.03-.05,.05-.08,.08-.03,.03-.07,.06-.09,.1-.22,.41-.52,.77-.7,1.2-.04,.1-.44,.45-.48,.57-.02,.07-.35,.13-.34,.21Z"/>
  </g>
  <g>
    <path class="cls-1" d="M213.54,161.96c-.15-.14-.01-.34,.3-.58,.1-.07,.44-.17,.5-.14,.12,.07,.24,.14,.33,.22,.06,.05,.51,.95,.67,1.25,.16,.29,.27,.6,.36,.92,.2,.64,.41,1.27,.6,1.9,.04,.14,.07,.29,.08,.44,.04,.52,.18,1,.36,1.48,.03,.08,.05,.16,.12,.23,.12,.1,.52,1.42,.54,1.6,.03,.45,.09,.9,.14,1.34,0,.06,.05,.12,0,.2-.1,.17-.04,.29-.01,.43,.04,.19,.07,.38,.08,.57,0,.1-.05,.21-.09,.32-.03,.1-.26,.12-.29,.1-.09-.06-.17,.04-.26,.07-.03,.01-.07,.03-.09,.03-.06,0-.74-.92-.78-1.04,0-.03-.6-1.51-.68-1.68-.04-.09-.04-.19-.05-.28,0-.05-.5-1.22-.52-1.27-.06-.26-.2-.49-.15-.78,0-.06-.01-.11-.03-.16-.16-.43-.24-.87-.35-1.32-.05-.23-.14-.44-.21-.66-.01-.04,0-.09,0-.13,0-.05,0-.11-.02-.16-.18-.52-.27-1.07-.5-1.57-.05-.12-.07-.74-.14-.87-.04-.07,.11-.4,.05-.46Z"/>
    <path class="cls-1" d="M220.38,164.86c.13-.15,.31,0,.54,.31,.07,.1,.17,.44,.14,.5-.06,.12-.12,.24-.19,.33-.04,.06-.86,.48-1.13,.63-.26,.15-.55,.25-.83,.34-.58,.18-1.15,.37-1.73,.55-.13,.04-.26,.06-.4,.07-.47,.03-.92,.16-1.35,.32-.07,.03-.15,.04-.21,.11-.09,.12-1.29,.48-1.46,.49-.42,.02-.82,.07-1.23,.11-.06,0-.11,.04-.18,0-.16-.11-.27-.05-.39-.02-.17,.04-.34,.06-.52,.07-.09,0-.19-.05-.29-.09-.09-.04-.12-.26-.1-.29,.05-.09-.04-.17-.07-.26-.01-.03-.03-.07-.03-.09,0-.06,.83-.72,.93-.75,.03,0,1.37-.55,1.52-.63,.08-.04,.17-.03,.26-.04,.04,0,1.11-.47,1.16-.48,.23-.06,.45-.18,.71-.13,.05,.01,.1-.01,.14-.03,.39-.15,.8-.22,1.2-.31,.21-.05,.4-.13,.6-.19,.04-.01,.08,0,.12,0,.05,0,.1,0,.15-.02,.47-.17,.97-.24,1.43-.45,.11-.05,.68-.06,.8-.12,.07-.03,.37,.12,.42,.07Z"/>
    <path class="cls-1" d="M219.78,168.48c.18-.02,.21,.21,.13,.58-.02,.12-.19,.43-.26,.45-.12,.05-.24,.09-.35,.11-.07,.01-.88-.24-1.17-.31-.27-.07-.52-.19-.77-.32-.5-.26-1-.51-1.5-.77-.11-.06-.21-.13-.31-.22-.32-.3-.7-.5-1.09-.68-.07-.03-.12-.07-.21-.06-.14,.03-1.16-.52-1.28-.63-.28-.27-.58-.5-.87-.75-.04-.04-.1-.04-.11-.12-.03-.18-.14-.22-.24-.28-.13-.09-.26-.19-.38-.3-.06-.06-.09-.17-.12-.27-.03-.09,.1-.26,.14-.27,.1-.03,.09-.15,.13-.23,.01-.03,.03-.07,.04-.09,.03-.05,1.03,.04,1.11,.09,.02,.01,1.27,.53,1.42,.57,.08,.02,.13,.09,.19,.15,.03,.03,1.04,.41,1.08,.43,.19,.12,.41,.17,.55,.39,.03,.04,.07,.06,.11,.08,.35,.16,.66,.38,.99,.59,.17,.11,.35,.18,.52,.27,.03,.02,.05,.05,.08,.08,.03,.03,.06,.07,.1,.09,.42,.2,.79,.48,1.23,.64,.1,.04,.47,.42,.59,.45,.07,.02,.15,.34,.23,.33Z"/>
    <path class="cls-1" d="M214.04,171.04c.02,.18-.21,.21-.58,.13-.12-.02-.43-.19-.45-.26-.05-.12-.09-.24-.11-.35-.01-.07,.24-.88,.31-1.17,.07-.27,.19-.52,.32-.77,.26-.5,.51-1,.77-1.5,.06-.11,.13-.21,.22-.31,.3-.32,.5-.7,.68-1.09,.03-.07,.07-.12,.06-.21-.03-.14,.52-1.16,.63-1.28,.27-.28,.5-.58,.75-.87,.04-.04,.04-.1,.12-.11,.18-.03,.22-.14,.28-.24,.09-.13,.19-.26,.3-.38,.06-.06,.17-.09,.27-.12,.09-.03,.26,.1,.27,.14,.03,.1,.15,.09,.23,.13,.03,.01,.07,.03,.09,.04,.05,.03-.04,1.03-.09,1.11-.01,.02-.53,1.27-.57,1.42-.02,.08-.09,.13-.15,.19-.03,.03-.41,1.04-.43,1.08-.12,.19-.17,.41-.39,.55-.04,.03-.06,.07-.08,.11-.16,.35-.38,.66-.59,.99-.11,.17-.18,.35-.27,.52-.02,.03-.05,.05-.08,.08-.03,.03-.07,.06-.09,.1-.2,.42-.48,.79-.64,1.23-.04,.1-.42,.47-.45,.59-.02,.07-.34,.15-.33,.23Z"/>
  </g>
  <g>
    <path class="cls-1" d="M449.25,276.68c-.15-.14-.01-.34,.3-.58,.1-.07,.44-.17,.5-.14,.12,.07,.24,.14,.33,.22,.06,.05,.51,.95,.67,1.25,.16,.29,.27,.6,.36,.92,.2,.64,.41,1.27,.6,1.9,.04,.14,.07,.29,.08,.44,.04,.52,.18,1,.36,1.48,.03,.08,.05,.17,.12,.23,.12,.1,.52,1.42,.54,1.6,.03,.45,.09,.9,.14,1.34,0,.06,.05,.12,0,.2-.1,.17-.04,.29-.01,.43,.04,.19,.07,.38,.08,.57,0,.1-.05,.21-.09,.32-.03,.1-.26,.12-.29,.1-.09-.06-.17,.04-.26,.07-.03,.01-.07,.03-.09,.03-.06,0-.74-.92-.78-1.04,0-.03-.6-1.51-.68-1.68-.04-.09-.04-.19-.05-.28,0-.05-.5-1.22-.52-1.27-.06-.26-.2-.49-.15-.78,0-.06-.01-.11-.03-.16-.16-.43-.24-.87-.35-1.32-.05-.23-.14-.44-.21-.66-.01-.04,0-.09,0-.13,0-.05,0-.11-.02-.16-.18-.52-.27-1.07-.5-1.57-.05-.12-.07-.74-.14-.87-.04-.07,.11-.4,.05-.46Z"/>
    <path class="cls-1" d="M456.08,279.58c.13-.15,.31,0,.54,.31,.07,.1,.17,.44,.14,.5-.06,.12-.12,.24-.19,.33-.04,.06-.86,.48-1.13,.63-.26,.15-.55,.25-.83,.34-.58,.18-1.15,.37-1.73,.55-.13,.04-.26,.06-.4,.07-.47,.03-.92,.16-1.35,.32-.07,.03-.15,.04-.21,.11-.09,.12-1.29,.48-1.46,.49-.42,.02-.82,.07-1.23,.11-.06,0-.11,.04-.18,0-.16-.11-.27-.05-.39-.02-.17,.04-.34,.06-.52,.07-.09,0-.19-.05-.29-.09-.09-.04-.12-.26-.1-.29,.05-.09-.04-.17-.07-.26-.01-.03-.03-.07-.03-.09,0-.06,.83-.72,.93-.75,.03,0,1.37-.55,1.52-.63,.08-.04,.17-.03,.26-.04,.04,0,1.11-.47,1.16-.48,.23-.06,.45-.18,.71-.13,.05,.01,.1-.01,.14-.03,.39-.15,.8-.22,1.2-.31,.21-.05,.4-.13,.6-.19,.04-.01,.08,0,.12,0,.05,0,.1,0,.15-.02,.47-.17,.97-.24,1.43-.45,.11-.05,.68-.05,.8-.12,.07-.03,.37,.12,.42,.07Z"/>
    <path class="cls-1" d="M455.48,283.19c.18-.02,.21,.21,.13,.58-.02,.12-.19,.43-.26,.45-.12,.05-.24,.09-.35,.11-.07,.01-.88-.24-1.17-.31-.27-.07-.52-.19-.77-.32-.5-.26-1-.51-1.5-.77-.11-.06-.21-.13-.31-.22-.32-.3-.7-.5-1.09-.68-.07-.03-.12-.07-.21-.06-.14,.03-1.16-.52-1.28-.63-.28-.27-.58-.5-.87-.75-.04-.04-.1-.04-.11-.12-.03-.18-.14-.22-.24-.28-.13-.09-.26-.19-.38-.3-.06-.06-.09-.17-.12-.27-.03-.09,.1-.26,.14-.27,.1-.03,.09-.15,.13-.23,.01-.03,.03-.07,.04-.09,.03-.05,1.03,.04,1.11,.09,.02,.01,1.27,.53,1.42,.57,.08,.02,.13,.09,.19,.15,.03,.03,1.04,.41,1.08,.43,.19,.12,.41,.17,.55,.39,.03,.04,.07,.06,.11,.08,.35,.16,.66,.38,.99,.59,.17,.11,.35,.18,.52,.27,.03,.02,.05,.05,.08,.08,.03,.03,.06,.07,.1,.09,.42,.2,.79,.48,1.23,.64,.1,.04,.47,.42,.59,.45,.07,.02,.15,.34,.23,.33Z"/>
    <path class="cls-1" d="M449.75,285.76c.02,.18-.21,.21-.58,.13-.12-.02-.43-.19-.45-.26-.05-.12-.09-.24-.11-.35-.01-.07,.24-.88,.31-1.17,.07-.28,.19-.52,.32-.77,.26-.5,.51-1,.77-1.5,.06-.11,.13-.21,.22-.31,.3-.32,.5-.7,.68-1.09,.03-.06,.07-.12,.06-.21-.03-.14,.52-1.16,.63-1.28,.27-.28,.5-.58,.75-.87,.04-.04,.04-.1,.12-.11,.18-.03,.22-.14,.28-.24,.09-.13,.19-.26,.3-.38,.06-.06,.17-.09,.27-.12,.09-.03,.26,.1,.27,.14,.03,.1,.15,.09,.23,.13,.03,.01,.07,.03,.09,.04,.05,.03-.04,1.03-.09,1.11-.01,.02-.53,1.27-.57,1.42-.02,.08-.09,.13-.15,.19-.03,.03-.41,1.04-.43,1.08-.12,.19-.17,.41-.39,.55-.04,.03-.06,.07-.08,.11-.16,.35-.38,.66-.59,.99-.11,.17-.18,.35-.27,.52-.02,.03-.05,.05-.08,.08-.03,.03-.07,.06-.09,.1-.2,.42-.48,.79-.64,1.23-.04,.1-.42,.47-.45,.59-.02,.07-.34,.15-.33,.23Z"/>
  </g>
  <g>
    <path class="cls-1" d="M244.29,70.79c-.15-.14-.01-.34,.3-.58,.1-.07,.44-.17,.5-.14,.12,.07,.24,.14,.33,.22,.06,.05,.51,.95,.67,1.25,.16,.29,.27,.6,.36,.92,.2,.64,.41,1.27,.6,1.9,.04,.14,.07,.29,.08,.44,.04,.52,.18,1,.36,1.48,.03,.08,.05,.16,.12,.23,.12,.1,.52,1.42,.54,1.6,.03,.45,.09,.9,.14,1.34,0,.06,.05,.12,0,.2-.1,.17-.04,.29-.01,.43,.04,.19,.07,.38,.08,.57,0,.1-.05,.21-.09,.32-.03,.1-.26,.12-.29,.1-.09-.06-.17,.04-.26,.07-.03,.01-.07,.03-.09,.03-.06,0-.74-.92-.78-1.04,0-.03-.6-1.51-.68-1.68-.04-.09-.04-.19-.05-.28,0-.05-.5-1.22-.52-1.27-.06-.26-.2-.49-.15-.78,0-.06-.01-.11-.03-.16-.16-.43-.24-.87-.35-1.32-.05-.23-.14-.44-.21-.66-.01-.04,0-.09,0-.13,0-.05,0-.11-.02-.16-.18-.52-.27-1.07-.5-1.57-.05-.12-.07-.74-.14-.87-.04-.07,.11-.4,.05-.46Z"/>
    <path class="cls-1" d="M251.13,73.69c.13-.15,.31,0,.54,.31,.07,.1,.17,.44,.14,.5-.06,.12-.12,.24-.19,.33-.04,.06-.86,.48-1.13,.63-.26,.15-.55,.25-.83,.34-.58,.18-1.15,.37-1.73,.55-.13,.04-.26,.06-.4,.07-.47,.03-.92,.16-1.35,.32-.07,.03-.15,.04-.21,.11-.09,.12-1.29,.48-1.46,.49-.42,.02-.82,.07-1.23,.11-.06,0-.11,.04-.18,0-.16-.11-.27-.05-.39-.02-.17,.04-.34,.06-.52,.07-.09,0-.19-.05-.29-.09-.09-.04-.12-.26-.1-.29,.05-.09-.04-.17-.07-.26-.01-.03-.03-.07-.03-.09,0-.06,.83-.72,.93-.75,.03,0,1.37-.55,1.52-.63,.08-.04,.17-.03,.26-.04,.04,0,1.11-.47,1.16-.48,.23-.06,.45-.18,.71-.13,.05,.01,.1-.01,.14-.03,.39-.15,.8-.22,1.2-.31,.21-.05,.4-.13,.6-.19,.04-.01,.08,0,.12,0,.05,0,.1,0,.15-.02,.47-.17,.97-.24,1.43-.45,.11-.05,.68-.06,.8-.12,.07-.03,.37,.12,.42,.07Z"/>
    <path class="cls-1" d="M250.52,77.3c.18-.02,.21,.21,.13,.58-.02,.12-.19,.43-.26,.45-.12,.05-.24,.09-.35,.11-.07,.01-.88-.24-1.17-.31-.27-.07-.52-.19-.77-.32-.5-.26-1-.51-1.5-.77-.11-.06-.21-.13-.31-.22-.32-.3-.7-.5-1.09-.68-.07-.03-.12-.07-.21-.06-.14,.03-1.16-.52-1.28-.63-.28-.27-.58-.5-.87-.75-.04-.04-.1-.04-.11-.12-.03-.18-.14-.22-.24-.28-.13-.09-.26-.19-.38-.3-.06-.06-.09-.17-.12-.27-.03-.09,.1-.26,.14-.27,.1-.03,.09-.15,.13-.23,.01-.03,.03-.07,.04-.09,.03-.05,1.03,.04,1.11,.09,.02,.01,1.27,.53,1.42,.57,.08,.02,.13,.09,.19,.15,.03,.03,1.04,.41,1.08,.43,.19,.12,.41,.17,.55,.39,.03,.04,.07,.06,.11,.08,.35,.16,.66,.38,.99,.59,.17,.11,.35,.18,.52,.27,.03,.02,.05,.05,.08,.08,.03,.03,.06,.07,.1,.09,.42,.2,.79,.48,1.23,.64,.1,.04,.47,.42,.59,.45,.07,.02,.15,.34,.23,.33Z"/>
    <path class="cls-1" d="M244.79,79.87c.02,.18-.21,.21-.58,.13-.12-.02-.43-.19-.45-.26-.05-.12-.09-.24-.11-.35-.01-.07,.24-.88,.31-1.17,.07-.28,.19-.52,.32-.77,.26-.5,.51-1,.77-1.5,.06-.11,.13-.21,.22-.31,.3-.32,.5-.7,.68-1.09,.03-.07,.07-.12,.06-.21-.03-.14,.52-1.16,.63-1.28,.27-.28,.5-.58,.75-.87,.04-.04,.04-.1,.12-.11,.18-.03,.22-.14,.28-.24,.09-.13,.19-.26,.3-.38,.06-.06,.17-.09,.27-.12,.09-.03,.26,.1,.27,.14,.03,.1,.15,.09,.23,.13,.03,.01,.07,.03,.09,.04,.05,.03-.04,1.03-.09,1.11-.01,.02-.53,1.27-.57,1.42-.02,.08-.09,.13-.15,.19-.03,.03-.41,1.04-.43,1.08-.12,.19-.17,.41-.39,.55-.04,.03-.06,.07-.08,.11-.16,.35-.38,.66-.59,.99-.11,.17-.18,.35-.27,.52-.02,.03-.05,.05-.08,.08-.03,.03-.07,.06-.09,.1-.2,.42-.48,.79-.64,1.23-.04,.1-.42,.47-.45,.59-.02,.07-.34,.15-.33,.23Z"/>
  </g>
  <g>
    <path class="cls-1" d="M333.54,274.86c-.26-.49-.57-.92-.87-1.37-.15-.23-.33-.41-.49-.63l-.38-.47-.18-.22-.14-.15c-.05-.08-.12-.06-.17-.03-.05,.03-.1,.07-.16,.12,.02-.09-.67,.91-1.19,1.55-1.98,2.44-3.98,4.94-6.09,7.36-.95,1.06-1.87,2.16-2.85,3.21-.31,.34-.63,.68-.96,1.01-.34,.32-.7,.62-1.09,.9-.76,.56-1.62,1.05-2.59,1.31-.63,.14-.61-.25-.37-.81,.25-.56,.57-1.43,1.15-2.17,.27-.32,.53-.66,.78-1,.25-.34,.56-.64,.83-.98,.56-.66,1.11-1.34,1.66-2.03,1.08-1.4,2.27-2.75,3.49-4.11,1.47-1.63,2.62-3.6,3.99-5.44l.65-.84c.32-.4,.64-.8,.99-1.14,.35-.35,.72-.6,1.1-.75,.18-.07,.42-.15,.63-.09l.6,.3,.59,.3,.29,.15,.26,.23,1.04,.91c.3,.29,.47,.52,.71,.79,.23,.25,.44,.52,.63,.79,1,1.32,1.74,2.75,2.41,4.2,1,2.2,1.64,4.53,2.16,6.85,.38,1.8,.9,3.58,1.03,5.46,.05,.41,.09,.82,.06,1.23-.04,.77-.19,1.27-.41,1.61-.22,.33-.54,.5-1,.59-.21,.04-.41,.11-.6,.12-.61,.04-1.21-.63-1.38-1.62-.4-1.5-.55-2.95-.81-4.43-.26-1.48-.5-2.98-.91-4.45-.57-2.18-1.33-4.35-2.49-6.23l.07-.05Z"/>
    <path class="cls-1" d="M276.36,318.48c-.92-1.28-1.93-2.43-3.01-3.24-.54-.41-1.09-.74-1.66-.96-.28-.13-.57-.19-.86-.28-.32-.06-.68-.12-1.01-.17-1.35-.13-2.66,.01-3.9,.51-1.24,.5-2.45,1.3-3.53,2.36-2.19,2.1-3.96,4.93-5.49,7.88-1.53,2.97-2.83,6.12-4.04,9.32-1.76,4.68-3.19,9.53-4.77,14.34-1.39,4.25-2.79,8.52-4.38,12.76-1.61,4.23-3.34,8.47-5.86,12.47-1.28,1.97-2.76,3.93-4.84,5.47-1.03,.76-2.23,1.39-3.54,1.75-.68,.21-1.25,.24-1.87,.35-.61,.09-1.26,.1-1.88,.13-1.29-.03-2.62-.24-3.89-.77-1.26-.56-2.35-1.42-3.21-2.4-.87-.98-1.49-2.08-2-3.17-.52-1.09-.92-2.2-1.27-3.29-1.26-3.86-2.03-7.78-3.79-11.01-.42-.81-.96-1.51-1.52-2.16-.6-.59-1.24-1.14-1.98-1.5-.36-.2-.76-.33-1.14-.47-.41-.08-.81-.24-1.22-.26-.82-.14-1.66-.06-2.48,.08-2.15,.4-4.18,1.69-5.98,3.2-1.79,1.56-3.41,3.39-4.86,5.34-1.45,1.96-2.72,4.07-3.85,6.23-1.14,2.16-2.06,4.44-2.66,6.72-.46,1.4-.5,2.03-.7,2.02-.17-.01-.52-.72-.76-2.16-.25-1.43-.1-3.49,.46-5.86,.54-2.38,1.59-5.04,3.24-7.65,1.47-2.3,3.12-4.52,5.15-6.49,2.03-1.95,4.39-3.75,7.37-4.8,1.48-.51,3.13-.8,4.81-.69,1.69,.12,3.27,.61,4.77,1.44,1.48,.83,2.72,2.02,3.65,3.29,.94,1.27,1.59,2.61,2.15,3.92,1.1,2.63,1.74,5.21,2.46,7.64,.71,2.4,1.46,4.76,2.62,6.42,1.15,1.67,2.59,2.41,4.67,2.46,.53-.04,1.05-.02,1.61-.13,.27-.04,.57-.07,.81-.12,.22-.07,.46-.08,.68-.19,.9-.3,1.78-.85,2.61-1.57,2-1.74,3.62-4.33,4.99-7.03,1.37-2.72,2.53-5.63,3.6-8.6,2.13-5.94,3.92-12.1,5.9-18.18,2.21-6.67,4.46-13.41,7.85-19.81,1.73-3.17,3.75-6.32,6.72-8.84,1.49-1.23,3.26-2.26,5.23-2.79,1.98-.5,4.05-.51,5.98-.05,2.56,.57,4.6,2.2,6.16,3.9,1.56,1.74,2.78,3.64,3.9,5.53,2.22,3.8,4.01,7.72,6.33,11.19,1.74,2.6,3.79,5.03,6.41,6.19,2.64,1.18,5.76,1,8.59-.04,2.85-1.04,5.44-2.88,7.69-5.03,2.27-2.16,4.22-4.67,5.91-7.34,5.21-8.38,7.9-17.93,9.68-27.53,.4-2.12,.66-4.22,.99-6.38,.13-1,.26-1.92,.37-2.76,.12-.84,.27-1.6,.36-2.29,.21-1.39,.39-2.52,.63-3.44,.47-1.84,.9-2.9,1.45-3.74,.25-.38,.49-.9,.69-1.12,.35-.37,.59,.28,.84,1.8,.13,.76,.23,1.73,.32,2.9,.07,1.17,.01,2.52-.04,4.04-.24,4.51-.86,9.07-1.7,13.65-.86,4.58-2.03,9.17-3.64,13.69-1.61,4.51-3.65,8.96-6.26,13.16-2.65,4.17-5.88,8.15-10.14,11.23-1.56,1.15-3.31,2.13-5.2,2.88-1.88,.75-3.94,1.25-6.09,1.31-2.15,.07-4.38-.36-6.39-1.32-2.03-.96-3.68-2.37-5.01-3.84-2.67-2.98-4.38-6.25-6.12-9.34-1.71-3.09-3.3-6.18-5.19-8.75l.07-.07Z"/>
  </g>
</svg>