<svg width="960" height="960" viewBox="0 0 960 960" fill="none" xmlns="http://www.w3.org/2000/svg">
<g clip-path="url(#clip0_164_2723)">
<path d="M513.8 163.051C516.451 167.64 518.195 172.695 518.94 177.942C499.421 188.324 481.319 201.277 465.745 214.085C460.041 214.298 454.337 214.514 448.634 214.733C439.421 215.083 430.157 215.212 420.953 215.783C415.805 216.107 408.316 216.04 408.163 208.697C408.094 205.068 410.383 201.823 412.901 199.211C417.714 194.088 423.925 190.489 430.764 188.862C437.645 187.272 444.875 188.423 450.923 192.072C448.892 189.428 447.733 186.219 447.604 182.888C447.476 179.557 448.385 176.269 450.206 173.476C452.027 170.684 454.67 168.527 457.77 167.301C460.871 166.076 464.275 165.843 467.513 166.636C475.582 168.609 480.773 176.285 484.713 183.593C483.636 177.429 482.587 171.058 483.987 164.946C485.387 158.834 489.887 153.009 496.077 152.019C503.385 150.85 510.08 156.648 513.8 163.051Z" fill="#171717"/>
<path d="M503.573 212.65L465.748 214.085C481.322 201.277 499.424 188.324 518.943 177.942C519.597 182.376 519.519 186.887 518.712 191.296C520.232 187.821 521.777 184.296 524.194 181.383C526.611 178.47 530.059 176.183 533.842 176.038C539.273 175.833 544.088 180.17 545.967 185.268C547.846 190.366 547.334 196.018 546.283 201.346C545.643 204.565 544.618 208.041 541.883 209.868C539.817 211.243 537.205 211.379 534.72 211.473L503.573 212.65Z" fill="#171717"/>
<path d="M857.617 546.408C875.198 534.035 896.544 524.644 918.496 526.189C917.455 530.022 890.566 588.681 867.078 612.23L866.856 612.409C858.394 601.822 843.273 596.553 830.456 601.028C832.797 596.999 834.495 592.628 835.486 588.075C844.323 577.375 851.623 562.34 857.486 546.364L857.617 546.408Z" fill="white"/>
<path d="M815.31 396.516C816.181 399.931 819.699 464.016 815.549 497.294L815.566 497.311C808.119 504.116 801.348 511.625 795.347 519.733C789.693 527.371 784.776 535.527 780.661 544.093H780.506C780.54 509.572 780.48 475.034 780.327 440.479H780.557C788.908 423.536 800.752 408.553 815.31 396.516V396.516Z" fill="#171717"/>
<path d="M632.494 712.121C686.064 712.121 683.994 717.884 683.994 726.832C683.994 735.78 673.457 742.193 586.912 743.032C505.371 743.826 489.831 735.783 489.831 726.832C489.831 717.881 489.865 710.626 543.486 710.626L544.032 710.687C543.442 715.844 543.144 723.751 552.707 723.887C601.9 724.621 630.454 730.325 632.494 712.121Z" fill="white"/>
<path d="M679.43 285.68C683.521 289.948 682.666 297.958 677.62 301.04C673.906 303.32 669.193 302.817 664.855 302.407C652.71 301.404 640.509 301.276 628.345 302.023C622.645 302.305 616.955 302.646 611.268 302.988C607.298 303.227 603.062 304.926 599.134 304.288C595.865 303.742 592.722 300.881 593.115 297.593C593.301 296.623 593.687 295.702 594.246 294.888C594.806 294.074 595.528 293.384 596.367 292.863C598.749 291.28 601.586 290.529 604.439 290.727C607.291 290.924 609.998 292.06 612.138 293.956C610.471 292.451 609.153 290.599 608.278 288.53C607.403 286.46 606.992 284.225 607.074 281.98C607.156 279.735 607.728 277.535 608.752 275.535C609.775 273.535 611.224 271.784 612.997 270.404C614.77 269.024 616.823 268.05 619.013 267.549C621.203 267.048 623.476 267.033 625.673 267.505C627.869 267.977 629.935 268.925 631.726 270.281C633.517 271.638 634.989 273.37 636.038 275.356C635.482 269.541 637.25 263.377 641.416 259.278C645.582 255.179 652.252 253.549 657.58 255.948C662.745 258.288 665.88 263.906 666.52 269.541C667.16 275.176 665.648 280.841 663.66 286.149C667.587 281.735 675.349 281.41 679.43 285.68Z" fill="white"/>
<path d="M677.458 537.408L717.63 517.692L718.066 517.479C722.364 526.046 723.819 535.761 722.219 545.211C720.62 554.662 716.049 563.357 709.171 570.033C702.293 576.709 693.467 581.018 683.973 582.336C674.479 583.653 664.812 581.91 656.376 577.359L677.414 537.382L677.458 537.408Z" fill="#171717"/>
<path d="M677.415 537.382L656.377 577.359C646.151 571.821 638.461 562.547 634.911 551.473C631.361 540.399 632.227 528.382 637.327 517.931L677.415 537.382Z" fill="white"/>
<path d="M632.494 712.121C630.454 730.321 601.901 724.621 552.711 723.887C543.149 723.75 543.447 715.844 544.037 710.687C544.173 709.5 544.319 708.458 544.369 707.687C544.569 704.272 544.769 699.098 544.95 693.078C545.3 680.869 545.573 665.217 545.744 653.888H545.838C574.658 655.959 603.572 656.409 632.443 655.236H632.631C632.648 666.388 632.657 681.176 632.657 692.702C632.657 701.233 632.648 707.961 632.623 710.095C632.621 710.772 632.578 711.449 632.494 712.121V712.121Z" fill="white"/>
<path d="M632.622 639.006C632.622 639.612 632.631 646.238 632.631 655.237H632.443C603.572 656.41 574.658 655.96 545.837 653.889H545.743C545.871 645.632 545.943 639.681 545.943 639.023C574.834 639.1 603.727 639.095 632.622 639.006Z" fill="#171717"/>
<path d="M582.613 403.535C582.945 409.212 582.613 414.908 582.613 420.585C581.87 480.277 583.364 539.252 580.376 598.935C580.22 600.455 579.708 601.918 578.882 603.204C575.901 606.047 572.162 608.89 567.688 608.89C534.841 609.598 502.745 610.307 469.898 608.89C463.93 608.173 457.961 605.33 454.956 600.206L454.981 600.006C455.591 600.074 456.204 600.108 456.817 600.106H552.711C561.831 600.106 569.225 593.062 569.225 584.388V382.1C569.227 379.84 568.714 377.609 567.725 375.576L568.204 375.346C573.651 376.546 579.628 379.385 580.371 384.355C581.87 390.744 582.246 397.105 582.613 403.535Z" fill="#171717"/>
<path d="M632.622 639.006C603.737 639.1 574.846 639.106 545.949 639.023C503.087 638.904 460.281 638.594 417.532 638.093C403.683 638.093 392.276 627.608 392.225 616.193C392.233 599.424 392.208 584.798 392.165 571.384C392.122 557.697 392.054 545.265 391.985 533.107C391.806 502.249 391.585 473.107 391.559 429.434C392.109 427.818 392.304 426.103 392.131 424.405C391.986 419.453 391.835 414.501 391.678 409.548C391.601 407.106 391.584 404.459 393.027 402.487C394.521 400.43 397.168 399.669 399.507 398.679L399.607 398.935V608.885C399.607 620.728 413.115 630.317 427.938 630.317H745.85C760.672 630.317 772.686 620.728 772.686 608.885V364.865C772.686 353.022 760.673 343.425 745.85 343.425H424.192C415.628 342.767 405.032 348.044 401.523 356.138C397.211 366.069 400.293 377.425 399.644 387.838L399.584 388.444C397.943 388.285 396.287 388.462 394.717 388.965C394.043 389.165 393.369 389.392 392.711 389.657L392.531 389.204C392.573 374.645 392.446 371.965 392.266 357.551C392.138 346.657 404.954 337.888 413.166 337.888L413.388 337.854C525.027 334.575 639.188 335.523 750.816 336.573C766.203 336.718 772.009 343.13 773.631 344.437C777.713 347.716 780.155 352.309 780.155 356.894C780.155 384.704 780.212 412.565 780.326 440.477C780.428 475.006 780.487 509.544 780.505 544.091C780.505 547.045 780.502 549.994 780.497 552.937C780.463 575.016 780.349 597.064 780.156 619.083C779.336 629.568 767.928 638.09 755.71 638.09C714.761 638.57 673.732 638.875 632.622 639.006Z" fill="white"/>
<path d="M392.165 571.382H392.1C388.531 563.399 379.463 558.446 370.754 559.206C362.045 559.966 354.172 566.071 350.754 574.114C350.228 575.358 349.796 576.639 349.464 577.948L348.994 577.879C346.442 575.804 343.818 573.814 341.122 571.911L341.241 571.749C327.041 541.72 330.312 496.133 341.856 473.011C343.393 477.211 349.865 482.181 354.408 486.152C369.546 499.378 381.773 515.669 391.66 533.105H391.993C392.054 545.263 392.121 557.7 392.165 571.382Z" fill="#171717"/>
<path d="M348.986 577.88L349.456 577.949C347.735 585.212 348.846 592.857 352.564 599.329C344.786 594.41 334.394 595.349 326.146 599.429C321.391 601.808 317.166 605.122 313.723 609.172L313.202 608.71C304.302 591.548 300.318 571.748 302.726 552.519C316.414 557.04 329.352 563.575 341.114 571.91C343.8 573.807 346.433 575.8 348.986 577.88Z" fill="white"/>
<path d="M266.633 543.956C268.085 593.489 269.539 643.021 270.996 692.55L271.073 692.738C271.056 693.114 271.03 693.481 270.979 693.831C270.645 696.395 269.421 698.761 267.521 700.516C261.066 706.724 247.233 707.688 237.996 705.349C236.629 705.033 235.329 704.478 234.154 703.71C233.597 703.368 233.115 702.916 232.737 702.382C232.36 701.847 232.095 701.242 231.959 700.602V700.218C232.061 698.203 232.147 696.185 232.216 694.164C233.693 652.334 228.655 609.064 225.308 567.3L225.239 567.309C219.476 606.518 224.675 653.888 221.483 694.249C221.278 696.836 221.039 699.406 220.757 701.933C220.407 702.189 220.048 702.433 219.689 702.675C214.292 706.391 208.032 708.66 201.507 709.267C194.982 709.874 188.411 708.798 182.42 706.141C181.712 705.834 181.012 705.5 180.32 705.141V704.655C182.881 652.434 180.747 597.933 183.309 545.713C184.054 545.763 184.801 545.774 185.546 545.747L264.825 543.903C265.414 543.886 266.02 543.869 266.618 543.817L266.633 543.956Z" fill="#171717"/>
<path d="M270.066 469.775C271.142 491.249 272.218 512.723 273.294 534.197C273.43 537.032 273.413 540.268 271.321 542.172C269.979 543.228 268.324 543.807 266.616 543.819C266.016 543.871 265.416 543.888 264.823 543.905L185.544 545.749C184.799 545.776 184.052 545.764 183.307 545.715C182.009 545.685 180.757 545.226 179.747 544.409C177.484 542.368 178.175 538.739 179.013 535.809C184.784 515.752 180.746 489.109 183.478 468.424L183.128 468.074C177.075 474.05 174.641 482.718 172.828 491.042C168.746 509.77 166.595 528.868 166.407 548.035C166.364 551.886 166.321 556.018 164.101 559.161C162.163 561.91 159.081 563.251 155.717 563.934C153.474 564.359 151.2 564.607 148.917 564.676C144.817 564.876 140.234 564.83 136.517 563.404C134.353 562.635 132.491 561.192 131.206 559.288C129.114 556.088 129.174 551.988 129.406 548.162C130.789 525.202 135.699 502.542 142.811 480.662C146.772 468.47 151.69 456.072 160.981 447.226C173.413 435.375 191.505 431.874 208.616 430.426L208.744 430.264C209.337 430.776 210.021 431.173 210.759 431.434C212.255 431.875 213.811 432.08 215.37 432.04L236.331 432.604C238.41 432.78 240.503 432.586 242.513 432.032C242.64 431.989 242.769 431.938 242.889 431.887L242.897 431.912C266.706 437.882 291.722 436.965 315.029 429.266C330.748 424.032 345.281 415.835 359.847 407.966C363.518 405.985 367.805 403.978 371.682 405.507C373.757 406.454 375.464 408.056 376.54 410.067C377.259 411.301 377.906 412.575 378.478 413.883C381.244 419.954 384.008 426.028 386.768 432.104C387.025 432.668 387.28 433.223 387.537 433.787C388.246 435.323 388.954 437.066 388.373 438.662C387.773 440.284 386.051 441.146 384.473 441.855C366.432 449.975 348.33 458.13 329.349 463.705C310.368 469.28 290.363 472.235 270.742 469.741L270.066 469.775Z" fill="white"/>
<path d="M248.344 375.145C245.933 375.578 243.448 375.293 241.198 374.325C239.545 373.682 238.211 372.416 237.483 370.799C237.118 372.006 236.374 373.063 235.361 373.813C234.348 374.563 233.12 374.967 231.859 374.964C230.599 374.961 229.373 374.551 228.363 373.796C227.354 373.041 226.615 371.98 226.256 370.772L225.598 370.927C225.909 371.933 225.962 373.001 225.752 374.033C225.543 375.065 225.078 376.028 224.4 376.833C223.722 377.639 222.853 378.261 221.872 378.643C220.891 379.025 219.829 379.155 218.785 379.021C218.119 378.571 217.335 378.328 216.531 378.321C217.23 378.698 217.996 378.936 218.785 379.021C219.541 379.537 220.165 380.223 220.608 381.023C221.051 381.824 221.301 382.717 221.338 383.631C221.263 386.135 220.227 388.514 218.443 390.274L218.468 390.291C222.362 390.931 224.556 395.935 222.917 399.538C222.414 400.565 221.7 401.474 220.821 402.206C219.942 402.937 218.918 403.474 217.817 403.782C216.233 404.291 214.543 404.374 212.917 404.021C211.896 403.848 210.931 403.438 210.097 402.824C209.263 402.21 208.585 401.409 208.117 400.486C207.323 398.586 208.185 395.969 210.174 395.406C208.802 395.791 207.363 395.872 205.956 395.645C204.55 395.418 203.209 394.888 202.028 394.091C200.865 393.268 199.954 392.137 199.397 390.825C198.841 389.513 198.661 388.072 198.878 386.663C199.153 385.263 199.894 383.998 200.979 383.072C202.064 382.147 203.43 381.615 204.855 381.563C203.389 381.101 202.032 380.349 200.863 379.351C199.695 378.354 198.739 377.131 198.053 375.756C197.368 374.38 196.966 372.881 196.873 371.347C196.779 369.814 196.996 368.277 197.509 366.828C198.023 365.38 198.823 364.05 199.861 362.918C200.9 361.786 202.156 360.874 203.555 360.238C204.954 359.602 206.467 359.254 208.003 359.215C209.539 359.176 211.067 359.447 212.496 360.012C211.772 358.087 211.737 355.971 212.396 354.023C213.056 352.075 214.37 350.416 216.114 349.327C217.859 348.239 219.927 347.788 221.967 348.051C224.006 348.315 225.891 349.277 227.302 350.773C228.318 345.608 234.534 342.193 239.435 344.097C243.798 345.787 246.078 351.303 244.601 355.658L244.772 355.726C244.672 356.059 244.567 356.401 244.465 356.734C246.736 353.506 251.885 353.165 254.993 355.607C258.101 358.049 259.117 362.557 258.041 366.357C257.551 368.052 256.708 369.625 255.567 370.971C254.427 372.318 253.015 373.408 251.423 374.17C250.444 374.63 249.409 374.957 248.344 375.145V375.145Z" fill="#171717"/>
<path d="M237.124 422.012C238.465 422.072 239.797 422.157 241.124 422.277C246.862 422.777 248.68 429.603 242.883 431.892C242.763 431.943 242.635 431.992 242.507 432.037C240.496 432.591 238.403 432.784 236.325 432.609L215.364 432.045C213.805 432.085 212.249 431.88 210.753 431.439C210.014 431.178 209.331 430.781 208.738 430.269C208.151 429.754 207.715 429.09 207.474 428.348C206.807 426.102 208.447 423.694 210.556 422.678C212.665 421.662 215.107 421.696 217.447 421.748H217.472C223.967 421.893 230.6 421.687 237.124 422.012Z" fill="#171717"/>
<path d="M224.582 708.091C226.733 709.62 228.984 711.003 231.319 712.232C231.601 712.386 231.874 712.548 232.155 712.71C232.813 713.086 233.47 713.479 234.12 713.897C236.995 715.528 239.421 717.845 241.181 720.642C241.533 721.271 241.825 721.931 242.052 722.615C242.535 724.11 242.695 725.69 242.522 727.251C236.527 731.279 229.566 733.637 222.357 734.083C215.148 734.529 207.95 733.046 201.504 729.787C197.85 727.943 194.443 725.527 190.504 724.417C187.456 723.704 184.327 723.394 181.197 723.495L181.009 723.512C180.463 718.064 182.009 710.875 182.324 706.392L182.424 706.145C188.415 708.801 194.986 709.877 201.511 709.271C208.036 708.664 214.296 706.394 219.694 702.679C220.894 704.829 222.565 706.679 224.582 708.091Z" fill="white"/>
<path d="M280.935 710.959C285.427 714.212 288.987 718.302 288.74 723.059L288.458 723.042C282.485 727.293 275.324 729.551 267.993 729.496C260.662 729.441 253.536 727.075 247.627 722.735C245.92 721.881 243.358 721.881 241.463 720.489L241.181 720.643C239.42 717.846 236.995 715.529 234.12 713.898C233.471 713.48 232.813 713.087 232.155 712.711L233.086 712.566C233.386 709.783 233.863 707.008 234.076 704.207L234.154 703.707C235.329 704.477 236.631 705.034 238 705.35C247.238 707.689 261.07 706.725 267.525 700.517L267.815 700.825C268.977 702.242 269.83 704.804 271.538 705.658C271.632 705.7 271.738 705.743 271.829 705.794C275.02 707.223 278.067 708.952 280.929 710.959H280.935Z" fill="white"/>
<path d="M465.748 214.085L503.573 212.65L534.722 211.472C537.207 211.378 539.822 211.242 541.885 209.867C544.618 208.04 545.642 204.567 546.285 201.345C547.335 196.017 547.848 190.365 545.969 185.267C544.09 180.169 539.275 175.832 533.844 176.037C530.061 176.182 526.612 178.462 524.196 181.382C521.78 184.302 520.234 187.82 518.715 191.295C520.454 181.596 518.716 171.593 513.805 163.05C510.082 156.65 503.388 150.85 496.079 152.018C489.888 153.009 485.389 158.84 483.989 164.945C482.589 171.05 483.639 177.428 484.715 183.592C480.778 176.283 475.587 168.607 467.515 166.635C464.277 165.842 460.872 166.075 457.772 167.3C454.671 168.525 452.028 170.683 450.207 173.475C448.386 176.268 447.477 179.557 447.605 182.888C447.734 186.219 448.894 189.428 450.925 192.072C444.878 188.422 437.647 187.271 430.766 188.861C423.926 190.488 417.714 194.086 412.9 199.21C410.382 201.822 408.093 205.067 408.162 208.696C408.316 216.039 415.804 216.107 420.952 215.782C430.152 215.21 439.421 215.082 448.633 214.732C454.339 214.521 460.044 214.305 465.748 214.085Z" stroke="#171717" stroke-width="2.82" stroke-linecap="round" stroke-linejoin="round"/>
<path d="M237.176 422.088L237.124 422.011C236.263 420.557 236.006 418.823 236.406 417.182C236.806 415.54 237.833 414.12 239.267 413.225C240.701 412.414 242.409 412.201 243.853 411.407C247.832 409.212 248.326 403.79 248.326 399.248C248.335 391.213 248.341 383.18 248.343 375.148V374.968" stroke="#171717" stroke-width="2.82" stroke-linecap="round" stroke-linejoin="round"/>
<path d="M217.478 421.662C217.589 415.962 217.708 409.511 217.819 403.782C217.827 403.696 217.827 403.611 217.827 403.525" stroke="#171717" stroke-width="2.82" stroke-linecap="round" stroke-linejoin="round"/>
<path d="M226.033 369.731C226.073 370.084 226.147 370.433 226.255 370.772C226.614 371.98 227.353 373.041 228.363 373.796C229.372 374.551 230.598 374.961 231.859 374.964C233.119 374.967 234.347 374.563 235.36 373.813C236.373 373.063 237.118 372.006 237.482 370.799C237.601 370.439 237.682 370.066 237.721 369.689" stroke="#171717" stroke-width="2.82" stroke-linecap="round" stroke-linejoin="round"/>
<path d="M237.244 369.424C237.236 369.893 237.317 370.36 237.482 370.799C238.21 372.416 239.544 373.682 241.197 374.325C243.447 375.293 245.932 375.578 248.343 375.145C249.409 374.958 250.446 374.631 251.426 374.171C253.017 373.409 254.43 372.319 255.57 370.972C256.711 369.626 257.554 368.053 258.044 366.358C259.12 362.558 258.095 358.058 254.996 355.608C251.897 353.158 246.739 353.508 244.467 356.735C244.567 356.402 244.667 356.06 244.775 355.727" stroke="#171717" stroke-width="2.82" stroke-linecap="round" stroke-linejoin="round"/>
<path d="M243.878 357.214C244.176 356.724 244.42 356.204 244.604 355.661C246.081 351.306 243.804 345.79 239.438 344.1C234.538 342.195 228.322 345.611 227.305 350.776C225.894 349.28 224.009 348.318 221.969 348.054C219.93 347.791 217.862 348.242 216.117 349.33C214.373 350.419 213.059 352.078 212.399 354.026C211.74 355.974 211.775 358.09 212.499 360.015C211.07 359.45 209.542 359.179 208.006 359.218C206.469 359.257 204.957 359.605 203.558 360.241C202.159 360.877 200.903 361.789 199.864 362.921C198.826 364.053 198.026 365.383 197.512 366.831C196.999 368.28 196.782 369.817 196.876 371.35C196.969 372.884 197.371 374.383 198.056 375.759C198.742 377.134 199.698 378.357 200.866 379.355C202.035 380.352 203.392 381.104 204.858 381.566C203.433 381.618 202.066 382.149 200.981 383.075C199.896 384.001 199.156 385.266 198.881 386.666C198.664 388.075 198.844 389.516 199.4 390.828C199.957 392.14 200.868 393.272 202.031 394.095C203.212 394.892 204.553 395.422 205.959 395.649C207.366 395.876 208.805 395.794 210.177 395.41C208.187 395.974 207.326 398.587 208.12 400.49C208.588 401.413 209.266 402.214 210.1 402.828C210.933 403.441 211.899 403.851 212.92 404.024C214.546 404.377 216.236 404.295 217.82 403.786C218.921 403.478 219.945 402.941 220.824 402.209C221.703 401.478 222.417 400.569 222.92 399.542C224.559 395.942 222.364 390.935 218.471 390.295" stroke="#171717" stroke-width="2.82" stroke-linecap="round" stroke-linejoin="round"/>
<path d="M218.784 379.021C219.828 379.155 220.89 379.025 221.871 378.643C222.852 378.261 223.721 377.639 224.399 376.833C225.077 376.028 225.542 375.065 225.752 374.033C225.961 373.001 225.908 371.933 225.597 370.927C225.498 370.582 225.366 370.247 225.204 369.927" stroke="#171717" stroke-width="2.82" stroke-linecap="round" stroke-linejoin="round"/>
<path d="M218.784 379.021C218.118 378.571 217.334 378.327 216.53 378.321C217.229 378.698 217.995 378.936 218.784 379.021V379.021Z" stroke="#171717" stroke-width="2.82" stroke-linecap="round" stroke-linejoin="round"/>
<path d="M218.1 390.633C218.211 390.514 218.33 390.395 218.441 390.274C220.224 388.515 221.261 386.136 221.336 383.632C221.299 382.718 221.049 381.825 220.605 381.024C220.162 380.224 219.538 379.538 218.783 379.021" stroke="#171717" stroke-width="2.82" stroke-linecap="round" stroke-linejoin="round"/>
<path d="M230.089 383.692C229.68 383.336 229.2 383.071 228.68 382.915C228.161 382.759 227.614 382.716 227.076 382.789C226.538 382.862 226.023 383.048 225.563 383.337C225.103 383.625 224.711 384.008 224.411 384.46" stroke="#171717" stroke-width="1.88" stroke-linecap="round" stroke-linejoin="round"/>
<path d="M243.648 384.392C243.322 384.042 242.922 383.771 242.476 383.599C242.031 383.426 241.552 383.356 241.076 383.395C240.599 383.433 240.138 383.579 239.726 383.821C239.314 384.063 238.962 384.395 238.696 384.792" stroke="#171717" stroke-width="1.88" stroke-linecap="round" stroke-linejoin="round"/>
<path d="M243.562 379.687C241.166 378.151 238.287 377.552 235.477 378.005C235.005 378.036 234.545 378.168 234.128 378.392C233.711 378.616 233.347 378.928 233.061 379.305C232.471 380.278 232.856 381.524 233.232 382.605C235.045 387.824 236.296 393.221 236.963 398.705C237.037 399.007 237.002 399.326 236.863 399.605C236.504 400.151 235.651 399.905 235.087 399.553" stroke="#171717" stroke-width="2.82" stroke-linecap="round" stroke-linejoin="round"/>
<path d="M232.172 406.489C230.911 407.037 229.51 407.181 228.163 406.901C226.817 406.621 225.589 405.931 224.65 404.926" stroke="#171717" stroke-width="2.82" stroke-linecap="round" stroke-linejoin="round"/>
<path d="M217.478 421.747H217.452C215.113 421.695 212.671 421.662 210.562 422.677C208.453 423.692 206.814 426.101 207.48 428.347C207.721 429.09 208.157 429.754 208.744 430.268C209.337 430.78 210.021 431.177 210.759 431.438C212.255 431.879 213.811 432.084 215.37 432.044L236.331 432.608C238.41 432.784 240.503 432.59 242.513 432.036C242.64 431.993 242.769 431.942 242.889 431.891C248.689 429.602 246.868 422.78 241.13 422.276C239.798 422.157 238.467 422.076 237.13 422.011C230.6 421.687 223.967 421.893 217.478 421.747Z" stroke="#171717" stroke-width="2.82" stroke-linecap="round" stroke-linejoin="round"/>
<path d="M183.478 468.427C180.746 489.115 184.784 515.754 179.013 535.812C178.176 538.74 177.484 542.369 179.747 544.412C180.757 545.228 182.009 545.688 183.307 545.718C184.052 545.768 184.799 545.78 185.544 545.752L264.823 543.908C265.412 543.891 266.018 543.874 266.616 543.822C268.324 543.811 269.979 543.231 271.321 542.175C273.413 540.275 273.43 537.035 273.294 534.2C272.21 512.733 271.134 491.259 270.066 469.778C269.955 467.498 269.836 465.228 269.725 462.947" stroke="#171717" stroke-width="2.82" stroke-linecap="round" stroke-linejoin="round"/>
<path d="M242.9 431.916C266.709 437.886 291.725 436.969 315.032 429.27C330.751 424.036 345.284 415.839 359.85 407.97C363.521 405.989 367.808 403.982 371.685 405.511C373.76 406.458 375.467 408.06 376.543 410.071C377.262 411.305 377.909 412.579 378.481 413.887C381.247 419.958 384.011 426.032 386.771 432.108C387.028 432.672 387.283 433.227 387.54 433.791C388.249 435.327 388.957 437.07 388.376 438.666C387.776 440.288 386.054 441.151 384.476 441.859C366.435 449.979 348.333 458.134 329.352 463.709C310.371 469.284 290.366 472.239 270.745 469.745" stroke="#171717" stroke-width="2.82" stroke-linecap="round" stroke-linejoin="round"/>
<path d="M376.59 410.033C377.667 401.366 384.497 392.933 392.711 389.661C393.369 389.396 394.042 389.161 394.717 388.969C396.287 388.466 397.943 388.289 399.584 388.448C400.016 388.507 400.441 388.605 400.856 388.739C401.856 389.028 402.743 389.62 403.392 390.433C404.042 391.246 404.424 392.242 404.485 393.281C404.425 395.851 401.941 397.652 399.575 398.651L399.507 398.677C397.167 399.667 394.52 400.427 393.027 402.485C391.584 404.458 391.601 407.104 391.678 409.546C391.832 414.498 391.983 419.45 392.131 424.403C392.305 426.101 392.109 427.817 391.558 429.432C391.103 430.27 390.42 430.963 389.589 431.429C388.757 431.896 387.81 432.118 386.858 432.07" stroke="#171717" stroke-width="2.82" stroke-linecap="round" stroke-linejoin="round"/>
<path d="M155.694 563.911C155.703 563.92 155.703 563.928 155.711 563.937C159.821 569.443 162.239 576.026 162.67 582.883C162.792 583.776 162.719 584.685 162.456 585.547C162.316 585.974 162.057 586.352 161.709 586.637C161.361 586.921 160.939 587.1 160.492 587.152C159.015 587.212 158.153 585.552 157.649 584.172C156.684 581.465 155.258 578.639 154.285 575.932" stroke="#171717" stroke-width="2.82" stroke-linecap="round" stroke-linejoin="round"/>
<path d="M140.052 589.381C139.924 592.549 139.79 595.716 139.652 598.881C139.558 601.118 139.823 603.936 141.923 604.721C143.512 605.321 145.33 604.234 146.15 602.749C146.852 601.199 147.174 599.504 147.089 597.805C147.311 590.605 147.527 583.405 147.737 576.205C147.882 582.958 148.027 589.706 148.173 596.449C148.088 597.816 148.34 599.182 148.907 600.428C149.205 601.042 149.71 601.53 150.333 601.808C150.956 602.086 151.657 602.136 152.313 601.948C153.825 601.316 154.072 599.318 154.09 597.679C154.156 590.43 154.223 583.181 154.29 575.932" stroke="#171717" stroke-width="2.82" stroke-linecap="round" stroke-linejoin="round"/>
<path d="M140.052 589.381C140.411 585.915 140.437 582.055 140.504 578.681C140.359 582.251 140.208 585.818 140.052 589.381Z" stroke="#171717" stroke-width="2.82" stroke-linecap="round" stroke-linejoin="round"/>
<path d="M136.056 564.014C133.69 582.243 129.626 599.354 134.306 599.354C138.08 599.354 139.489 594.862 140.052 589.381" stroke="#171717" stroke-width="2.82" stroke-linecap="round" stroke-linejoin="round"/>
<path d="M413.391 337.857C525.03 334.578 639.191 335.526 750.819 336.576C766.206 336.721 772.012 343.133 773.634 344.44C777.716 347.719 780.158 352.312 780.158 356.897C780.158 384.707 780.215 412.568 780.329 440.48C780.431 475.009 780.49 509.547 780.508 544.094C780.508 547.048 780.505 549.997 780.5 552.94C780.466 575.019 780.352 597.067 780.159 619.086C779.339 629.571 767.931 638.093 755.713 638.093C714.763 638.571 673.733 638.875 632.624 639.006C603.739 639.1 574.848 639.106 545.951 639.023C503.088 638.904 460.282 638.594 417.534 638.093C403.684 638.093 392.277 627.608 392.227 616.193" stroke="#171717" stroke-width="2.82" stroke-linecap="round" stroke-linejoin="round"/>
<path d="M392.532 389.208C392.574 374.649 392.447 371.969 392.267 357.555C392.139 346.661 404.955 337.892 413.167 337.892" stroke="#171717" stroke-width="2.82" stroke-linecap="round" stroke-linejoin="round"/>
<path d="M392.225 616.191C392.233 599.422 392.208 584.796 392.165 571.382C392.122 557.695 392.054 545.263 391.985 533.105C391.806 502.247 391.585 473.105 391.558 429.432" stroke="#171717" stroke-width="2.82" stroke-linecap="round" stroke-linejoin="round"/>
<path d="M424.192 343.425H745.849C760.672 343.425 772.686 353.025 772.686 364.865V608.883C772.686 620.726 760.673 630.314 745.849 630.314H427.94C413.118 630.314 399.609 620.726 399.609 608.883" stroke="#171717" stroke-width="2.82" stroke-linecap="round" stroke-linejoin="round"/>
<path d="M399.644 387.841C400.292 377.424 397.211 366.069 401.523 356.141C405.032 348.047 415.623 342.77 424.192 343.428" stroke="#171717" stroke-width="2.82" stroke-linecap="round" stroke-linejoin="round"/>
<path d="M399.61 608.883V398.933" stroke="#171717" stroke-width="2.82" stroke-linecap="round" stroke-linejoin="round"/>
<path d="M545.949 638.964V639.024C545.941 639.682 545.872 645.633 545.749 653.89C545.578 665.22 545.306 680.871 544.955 693.08C544.776 699.1 544.579 704.274 544.374 707.689C544.323 708.458 544.174 709.5 544.042 710.689C543.452 715.846 543.154 723.753 552.716 723.889C601.906 724.623 630.459 730.327 632.499 712.123C632.583 711.451 632.625 710.776 632.627 710.099C632.652 707.965 632.661 701.237 632.661 692.707C632.661 681.179 632.652 666.392 632.636 655.24C632.636 646.24 632.627 639.615 632.627 639.009V638.967" stroke="#171717" stroke-width="2.82" stroke-linecap="round" stroke-linejoin="round"/>
<path d="M632.452 712.121H632.494C686.064 712.121 683.994 717.884 683.994 726.832C683.994 735.78 673.457 742.193 586.912 743.032C505.371 743.826 489.831 735.783 489.831 726.832C489.831 717.881 489.865 710.626 543.486 710.626" stroke="#171717" stroke-width="2.82" stroke-linecap="round" stroke-linejoin="round"/>
<path d="M47.3164 576.394C76.2104 508.514 107.8 444.314 152.031 379.38C167.819 356.98 182.031 337.58 200.205 318.168C209.683 308.461 218.366 300.255 227.844 291.298C254.698 269.645 284.71 250.237 320.244 249.498C389.738 248.004 456.081 282.337 496.185 335.098" stroke="#171717" stroke-width="2.82" stroke-linecap="round" stroke-linejoin="round"/>
<path d="M411.188 267.518C427.773 248.143 446.03 230.263 465.747 214.085C481.321 201.277 499.424 188.324 518.943 177.942C542.458 165.417 568.042 156.642 593.755 156.342C685.943 155.293 801.034 213.78 821.517 280.696" stroke="#171717" stroke-width="2.82" stroke-linecap="round" stroke-linejoin="round"/>
<path d="M456.817 366.376H552.711C555.826 366.34 558.889 367.184 561.546 368.812C564.203 370.439 566.347 372.784 567.73 375.576C568.718 377.609 569.231 379.84 569.23 382.1V584.4C569.23 593.075 561.836 600.119 552.716 600.119H456.817C456.203 600.121 455.59 600.087 454.981 600.019C446.725 599.156 440.304 592.488 440.304 584.402V382.1C440.304 373.417 447.698 366.381 456.817 366.381" stroke="#171717" stroke-width="2.82" stroke-linecap="round" stroke-linejoin="round"/>
<path d="M568.209 375.341C573.656 376.541 579.633 379.38 580.376 384.35C581.87 390.745 582.246 397.106 582.613 403.536C582.945 409.213 582.613 414.909 582.613 420.586C581.87 480.278 583.364 539.253 580.376 598.936C580.22 600.457 579.708 601.919 578.882 603.205C575.901 606.048 572.162 608.891 567.688 608.891C534.841 609.599 502.745 610.308 469.898 608.891C463.93 608.174 457.961 605.33 454.956 600.207" stroke="#171717" stroke-width="2.82" stroke-linecap="round" stroke-linejoin="round"/>
<path d="M459.626 382.71H549.988" stroke="#171717" stroke-width="2.82" stroke-linecap="round" stroke-linejoin="round"/>
<path d="M461.471 405.635H503.095" stroke="#171717" stroke-width="2.82" stroke-linecap="round" stroke-linejoin="round"/>
<path d="M460.677 438.833H535.763" stroke="#171717" stroke-width="2.82" stroke-linecap="round" stroke-linejoin="round"/>
<path d="M460.941 468.598H489.656" stroke="#171717" stroke-width="2.82" stroke-linecap="round" stroke-linejoin="round"/>
<path d="M463.05 501.001H518.899" stroke="#171717" stroke-width="2.82" stroke-linecap="round" stroke-linejoin="round"/>
<path d="M460.42 527.085H496.247" stroke="#171717" stroke-width="2.82" stroke-linecap="round" stroke-linejoin="round"/>
<path d="M645.447 439.004V385.784" stroke="#171717" stroke-width="2.82" stroke-linecap="round" stroke-linejoin="round"/>
<path d="M660.372 439.004V421.619" stroke="#171717" stroke-width="2.82" stroke-linecap="round" stroke-linejoin="round"/>
<path d="M675.306 439.004V380.558" stroke="#171717" stroke-width="2.82" stroke-linecap="round" stroke-linejoin="round"/>
<path d="M690.982 439.004V399.966" stroke="#171717" stroke-width="2.82" stroke-linecap="round" stroke-linejoin="round"/>
<path d="M707.402 439.004V421.619" stroke="#171717" stroke-width="2.82" stroke-linecap="round" stroke-linejoin="round"/>
<path d="M718.067 517.479C722.88 527.057 724.119 538.036 721.563 548.446C719.007 558.855 712.823 568.012 704.121 574.271C695.42 580.531 684.772 583.482 674.09 582.595C663.408 581.709 653.392 577.042 645.842 569.434C638.292 561.825 633.702 551.774 632.898 541.086C632.093 530.397 635.126 519.772 641.452 511.119C647.778 502.466 656.982 496.352 667.411 493.876C677.84 491.4 688.81 492.724 698.35 497.61C706.873 501.96 713.782 508.922 718.067 517.479Z" stroke="#171717" stroke-width="2.82" stroke-linecap="round" stroke-linejoin="round"/>
<path d="M656.163 577.76L656.376 577.359L677.415 537.382L698.317 497.67" stroke="#171717" stroke-width="2.82" stroke-linecap="round" stroke-linejoin="round"/>
<path d="M636.84 517.693L637.327 517.932L677.415 537.382L677.458 537.408" stroke="#171717" stroke-width="2.82" stroke-linecap="round" stroke-linejoin="round"/>
<path d="M677.458 537.408L717.63 517.693" stroke="#171717" stroke-width="2.82" stroke-linecap="round" stroke-linejoin="round"/>
<path d="M408.874 314.667C410.494 314.753 412.107 314.393 413.536 313.626C415.312 312.439 415.978 310.177 416.396 308.076C417.079 304.61 417.412 300.921 416.191 297.608C414.97 294.295 411.828 291.461 408.291 291.597C407.061 291.711 405.867 292.078 404.786 292.676C403.704 293.274 402.759 294.09 402.008 295.072C400.527 297.048 399.329 299.22 398.448 301.527C399.583 295.211 398.45 288.697 395.248 283.135C392.824 278.969 388.469 275.195 383.704 275.955C379.674 276.595 376.746 280.395 375.832 284.374C374.918 288.353 375.602 292.503 376.302 296.516C373.741 291.76 370.359 286.757 365.108 285.467C362.999 284.95 360.78 285.101 358.76 285.899C356.74 286.697 355.017 288.103 353.831 289.922C352.644 291.742 352.052 293.885 352.136 296.056C352.22 298.226 352.977 300.317 354.3 302.039C350.365 299.662 345.657 298.911 341.177 299.947C336.724 301.009 332.678 303.351 329.539 306.684C327.9 308.392 326.405 310.501 326.456 312.866C326.556 317.648 331.425 317.69 334.79 317.485C340.784 317.101 346.812 317.023 352.814 316.793L388.591 315.436L408.874 314.667Z" stroke="#171717" stroke-width="2.82" stroke-linecap="round" stroke-linejoin="round"/>
<path d="M545.838 653.889C574.659 655.96 603.573 656.41 632.444 655.237" stroke="#171717" stroke-width="2.82" stroke-linecap="round" stroke-linejoin="round"/>
<path d="M266.633 543.956C268.084 593.489 269.538 643.021 270.996 692.55" stroke="#171717" stroke-width="2.82" stroke-linecap="round" stroke-linejoin="round"/>
<path d="M183.307 545.691V545.716C180.746 597.937 182.88 652.438 180.318 704.657" stroke="#171717" stroke-width="2.82" stroke-linecap="round" stroke-linejoin="round"/>
<path d="M271.074 692.738C271.057 693.114 271.031 693.481 270.98 693.831C270.646 696.396 269.422 698.762 267.522 700.516C261.067 706.724 247.234 707.688 237.997 705.349C236.63 705.033 235.329 704.478 234.154 703.71C233.597 703.368 233.115 702.916 232.738 702.382C232.36 701.847 232.096 701.242 231.96 700.602" stroke="#171717" stroke-width="2.82" stroke-linecap="round" stroke-linejoin="round"/>
<path d="M180.319 705.144C181.011 705.503 181.711 705.837 182.419 706.144C188.41 708.801 194.981 709.877 201.506 709.27C208.03 708.663 214.291 706.394 219.688 702.678C220.047 702.439 220.405 702.191 220.756 701.936" stroke="#171717" stroke-width="2.82" stroke-linecap="round" stroke-linejoin="round"/>
<path d="M231.959 700.218C232.061 698.203 232.146 696.185 232.216 694.164C233.693 652.334 228.655 609.064 225.308 567.3C225.145 565.362 224.991 563.432 224.846 561.511" stroke="#171717" stroke-width="2.82" stroke-linecap="round" stroke-linejoin="round"/>
<path d="M220.757 701.934C221.039 699.406 221.278 696.834 221.483 694.25C224.676 653.889 219.476 606.518 225.239 567.31" stroke="#171717" stroke-width="2.82" stroke-linecap="round" stroke-linejoin="round"/>
<path d="M280.926 710.959C278.064 708.952 275.017 707.223 271.826 705.794C271.732 705.742 271.626 705.7 271.535 705.657C269.827 704.803 268.974 702.242 267.812 700.825" stroke="#171717" stroke-width="2.82" stroke-linecap="round" stroke-linejoin="round"/>
<path d="M243.221 727.43C255.311 735.542 274.95 742.372 286.05 729.564C287.595 727.724 288.534 725.452 288.74 723.058C288.987 718.302 285.427 714.212 280.935 710.958" stroke="#171717" stroke-width="2.82" stroke-linecap="round" stroke-linejoin="round"/>
<path d="M234.076 704.205C233.863 707.005 233.385 709.781 233.086 712.564" stroke="#171717" stroke-width="2.82" stroke-linecap="round" stroke-linejoin="round"/>
<path d="M241.462 720.488C243.362 721.88 245.919 721.88 247.626 722.734C253.534 727.074 260.661 729.44 267.992 729.495C275.323 729.55 282.484 727.292 288.457 723.041" stroke="#171717" stroke-width="2.82" stroke-linecap="round" stroke-linejoin="round"/>
<path d="M272.278 705.742C272.126 705.75 271.975 705.767 271.825 705.794C266.358 706.387 261.339 709.092 257.839 713.333" stroke="#171717" stroke-width="2.82" stroke-linecap="round" stroke-linejoin="round"/>
<path d="M276.35 708.671C273.334 709.167 270.475 710.354 267.994 712.139C265.513 713.923 263.479 716.258 262.05 718.959" stroke="#171717" stroke-width="2.82" stroke-linecap="round" stroke-linejoin="round"/>
<path d="M280.935 710.959H280.927C278.489 711.872 276.256 713.26 274.358 715.043C272.46 716.825 270.935 718.966 269.87 721.342" stroke="#171717" stroke-width="2.82" stroke-linecap="round" stroke-linejoin="round"/>
<path d="M182.317 706.392C182.001 710.875 180.456 718.063 181.002 723.511C181.105 725.011 181.493 726.477 182.146 727.831C183.99 731.324 189.207 729.786 192.435 732.11C201.579 738.658 212.867 742.81 224.104 741.715C229.133 741.228 234.213 739.606 237.91 736.199C240.417 733.901 242.042 730.799 242.504 727.43C242.514 727.371 242.519 727.31 242.521 727.25C242.694 725.689 242.534 724.109 242.051 722.614C241.823 721.93 241.532 721.27 241.18 720.641C239.419 717.844 236.993 715.527 234.119 713.896C233.47 713.478 232.812 713.085 232.154 712.709C231.873 712.547 231.599 712.385 231.318 712.231C228.982 711.002 226.732 709.619 224.581 708.09C222.562 706.678 220.889 704.827 219.688 702.676C219.68 702.668 219.68 702.651 219.671 702.642" stroke="#171717" stroke-width="2.82" stroke-linecap="round" stroke-linejoin="round"/>
<path d="M181.189 723.494C184.319 723.392 187.448 723.702 190.496 724.416C194.44 725.526 197.847 727.942 201.496 729.786C207.942 733.045 215.14 734.528 222.349 734.082C229.559 733.636 236.519 731.278 242.514 727.25C242.514 727.242 242.523 727.242 242.523 727.242" stroke="#171717" stroke-width="2.82" stroke-linecap="round" stroke-linejoin="round"/>
<path d="M224.608 708.091H224.582C221.497 708.364 218.497 709.248 215.758 710.692C213.018 712.136 210.593 714.11 208.624 716.501" stroke="#171717" stroke-width="2.82" stroke-linecap="round" stroke-linejoin="round"/>
<path d="M229.124 711.327C225.785 711.877 222.618 713.191 219.871 715.167C217.124 717.143 214.87 719.727 213.286 722.717" stroke="#171717" stroke-width="2.82" stroke-linecap="round" stroke-linejoin="round"/>
<path d="M234.2 713.862C234.173 713.87 234.147 713.881 234.123 713.896C231.439 714.91 228.981 716.445 226.893 718.413C224.804 720.381 223.126 722.743 221.955 725.363" stroke="#171717" stroke-width="2.82" stroke-linecap="round" stroke-linejoin="round"/>
<path d="M208.615 430.43C191.504 431.873 173.415 435.374 160.98 447.23C151.69 456.076 146.772 468.474 142.81 480.666C135.697 502.55 130.788 525.212 129.41 548.171C129.179 551.996 129.119 556.095 131.21 559.297C132.495 561.201 134.356 562.644 136.521 563.413C140.236 564.838 144.821 564.882 148.921 564.685C151.203 564.615 153.477 564.367 155.721 563.943C159.085 563.26 162.167 561.919 164.105 559.17C166.325 556.028 166.368 551.896 166.411 548.044C166.598 528.877 168.75 509.779 172.832 491.051C174.65 482.726 177.084 474.059 183.132 468.083L183.175 468.041" stroke="#171717" stroke-width="2.82" stroke-linecap="round" stroke-linejoin="round"/>
<path d="M633.331 692.7C721.531 691.2 808.731 692.726 896.552 691.659C899.925 691.625 903.298 691.582 906.671 691.531" stroke="#171717" stroke-width="2.82" stroke-linecap="round" stroke-linejoin="round"/>
<path d="M270.826 693.831H270.98C273.643 693.798 276.31 693.773 278.98 693.754C367.454 692.994 456.074 695.343 544.95 693.079H545.036" stroke="#171717" stroke-width="2.82" stroke-linecap="round" stroke-linejoin="round"/>
<path d="M221.986 694.292C225.36 694.24 228.735 694.197 232.113 694.164" stroke="#171717" stroke-width="2.82" stroke-linecap="round" stroke-linejoin="round"/>
<path d="M38.5 695.249C85.4 694.557 133.216 694.557 180.314 694.412" stroke="#171717" stroke-width="2.82" stroke-linecap="round" stroke-linejoin="round"/>
<path d="M392.1 571.382C388.531 563.399 379.463 558.446 370.754 559.206C362.045 559.966 354.172 566.071 350.754 574.114C350.228 575.358 349.797 576.639 349.464 577.948C347.743 585.211 348.855 592.856 352.572 599.328C344.794 594.409 334.402 595.348 326.154 599.428C321.4 601.807 317.175 605.121 313.731 609.171C307.405 616.468 303.966 625.827 304.063 635.484C304.161 645.141 307.788 654.429 314.26 661.596C309.786 660.836 305.199 661.093 300.838 662.346C296.476 663.599 292.453 665.817 289.065 668.836C285.677 671.855 283.012 675.598 281.266 679.786C279.52 683.975 278.739 688.503 278.98 693.034" stroke="#171717" stroke-width="2.82" stroke-linecap="round" stroke-linejoin="round"/>
<path d="M780.917 552.94C788.311 544.23 801.196 540.94 812.125 544.273C823.054 547.606 831.704 557.021 834.94 567.985C836.81 574.529 836.998 581.44 835.486 588.076C834.495 592.629 832.797 597 830.456 601.029C843.272 596.555 858.394 601.823 866.856 612.41C867.789 613.583 868.639 614.819 869.4 616.11C877.033 629.11 875.343 646.6 866.344 658.699C870.685 658.039 875.121 658.453 879.265 659.905C883.409 661.356 887.134 663.801 890.115 667.025C893.096 670.25 895.241 674.155 896.363 678.4C897.485 682.645 897.55 687.1 896.552 691.376" stroke="#171717" stroke-width="2.82" stroke-linecap="round" stroke-linejoin="round"/>
<path d="M867.078 612.23C890.566 588.681 917.455 530.022 918.496 526.189C896.544 524.644 875.196 534.035 857.617 546.408" stroke="#171717" stroke-width="2.82" stroke-linecap="round" stroke-linejoin="round"/>
<path d="M835.315 588.288C835.377 588.221 835.435 588.15 835.487 588.075C844.324 577.375 851.624 562.34 857.487 546.364C870.653 510.495 876.587 469.852 876.425 462.706C860.274 467.493 845.02 474.904 831.274 484.641C817.522 494.369 805.398 506.213 795.352 519.734C789.699 527.372 784.782 535.529 780.666 544.094" stroke="#171717" stroke-width="2.82" stroke-linecap="round" stroke-linejoin="round"/>
<path d="M391.652 533.105C381.765 515.67 369.538 499.379 354.4 486.152C349.857 482.182 343.386 477.212 341.848 473.011C330.304 496.133 327.034 541.72 341.233 571.749" stroke="#171717" stroke-width="2.82" stroke-linecap="round" stroke-linejoin="round"/>
<path d="M348.986 577.88C346.434 575.805 343.81 573.815 341.114 571.912C329.352 563.578 316.414 557.042 302.726 552.521C300.318 571.75 304.306 591.55 313.202 608.712" stroke="#171717" stroke-width="2.82" stroke-linecap="round" stroke-linejoin="round"/>
<path d="M815.549 497.3C819.698 464.026 816.18 399.936 815.31 396.522C800.751 408.558 788.908 423.542 780.559 440.486" stroke="#171717" stroke-width="2.82" stroke-linecap="round" stroke-linejoin="round"/>
<path d="M664.855 302.406C669.193 302.816 673.906 303.32 677.62 301.039C682.666 297.957 683.52 289.948 679.43 285.679C675.34 281.41 667.587 281.734 663.66 286.149C665.649 280.837 667.152 275.177 666.52 269.541C665.888 263.905 662.745 258.288 657.58 255.948C652.252 253.548 645.592 255.18 641.416 259.278C637.24 263.376 635.482 269.541 636.037 275.356C634.988 273.369 633.517 271.636 631.726 270.278C629.935 268.921 627.868 267.973 625.671 267.5C623.474 267.028 621.201 267.042 619.01 267.543C616.819 268.044 614.765 269.019 612.992 270.399C611.218 271.779 609.769 273.531 608.746 275.531C607.722 277.532 607.15 279.732 607.068 281.978C606.987 284.224 607.398 286.46 608.274 288.529C609.15 290.599 610.469 292.451 612.137 293.956C609.997 292.06 607.29 290.924 604.438 290.727C601.585 290.529 598.748 291.28 596.366 292.863C595.527 293.384 594.805 294.074 594.245 294.888C593.686 295.702 593.301 296.623 593.114 297.593C592.721 300.881 595.863 303.741 599.133 304.293C603.061 304.933 607.296 303.233 611.267 302.993C616.954 302.652 622.648 302.31 628.344 302.028C640.508 301.279 652.71 301.405 664.855 302.406V302.406Z" stroke="#171717" stroke-width="2.82" stroke-linecap="round" stroke-linejoin="round"/>
<path d="M238.156 431.377L238.892 423.389" stroke="white" stroke-width="2.82" stroke-linecap="round" stroke-linejoin="round"/>
<path d="M230.454 431.224C230.483 428.512 230.512 425.8 230.543 423.088" stroke="white" stroke-width="2.82" stroke-linecap="round" stroke-linejoin="round"/>
<path d="M221.188 430.927C221.334 428.315 221.48 425.703 221.626 423.09" stroke="white" stroke-width="2.82" stroke-linecap="round" stroke-linejoin="round"/>
<path d="M213.128 430.766L213.407 422.935" stroke="white" stroke-width="2.82" stroke-linecap="round" stroke-linejoin="round"/>
<path d="M344.54 487.983C350.07 512.21 358.582 535.657 369.883 557.789" stroke="white" stroke-width="2.82" stroke-linecap="round" stroke-linejoin="round"/>
<path d="M357.858 501.049C356.176 506.953 354.712 512.914 353.465 518.931" stroke="white" stroke-width="2.82" stroke-linecap="round" stroke-linejoin="round"/>
<path d="M338.513 508.514C342.531 513.175 347.624 516.786 353.353 519.034" stroke="white" stroke-width="2.82" stroke-linecap="round" stroke-linejoin="round"/>
<path d="M368.433 514.69C366.287 522.557 363.813 530.325 361.012 537.996" stroke="white" stroke-width="2.82" stroke-linecap="round" stroke-linejoin="round"/>
<path d="M339.042 526.03C345.207 531.557 352.463 535.729 360.342 538.276" stroke="white" stroke-width="2.82" stroke-linecap="round" stroke-linejoin="round"/>
<path d="M341.512 548.744C350.28 551.88 359.288 554.3 368.448 555.981" stroke="white" stroke-width="2.82" stroke-linecap="round" stroke-linejoin="round"/>
<path d="M381.792 524.241C377.739 534.923 373.272 545.435 368.392 555.777L369.266 555.077" stroke="white" stroke-width="2.82" stroke-linecap="round" stroke-linejoin="round"/>
<path d="M811.862 405.609C799.203 441.821 788.103 478.537 777.712 516.027" stroke="white" stroke-width="2.82" stroke-linecap="round" stroke-linejoin="round"/>
<path d="M797.528 420.884C798.155 426.604 799.337 432.249 801.057 437.739" stroke="white" stroke-width="2.82" stroke-linecap="round" stroke-linejoin="round"/>
<path d="M812.988 427.225C809.277 431.039 805.249 434.533 800.949 437.668" stroke="white" stroke-width="2.82" stroke-linecap="round" stroke-linejoin="round"/>
<path d="M787.73 434.782C789.413 443.545 791.473 452.225 793.909 460.82" stroke="white" stroke-width="2.82" stroke-linecap="round" stroke-linejoin="round"/>
<path d="M811.107 447.247C805.868 452.404 800.131 457.031 793.98 461.059" stroke="white" stroke-width="2.82" stroke-linecap="round" stroke-linejoin="round"/>
<path d="M779.144 465.285C781.865 471.218 784.586 477.152 787.308 483.085" stroke="white" stroke-width="2.82" stroke-linecap="round" stroke-linejoin="round"/>
<path d="M811.178 465.191C803.864 471.885 795.955 477.898 787.55 483.156" stroke="white" stroke-width="2.82" stroke-linecap="round" stroke-linejoin="round"/>
<path d="M777.59 491.811L782.07 500.063" stroke="white" stroke-width="2.82" stroke-linecap="round" stroke-linejoin="round"/>
<path d="M812.065 483.765C803.482 491.396 793.237 496.921 782.145 499.9" stroke="white" stroke-width="2.82" stroke-linecap="round" stroke-linejoin="round"/>
<path d="M799.374 512.021L780.05 520.653" stroke="white" stroke-width="2.82" stroke-linecap="round" stroke-linejoin="round"/>
<path d="M861.763 477.357C844.517 498.603 829.449 521.529 816.786 545.788" stroke="#171717" stroke-width="2.82" stroke-linecap="round" stroke-linejoin="round"/>
<path d="M839.9 487.381L841.049 505.441C841.168 505.18 841.287 504.92 841.407 504.659" stroke="#171717" stroke-width="2.82" stroke-linecap="round" stroke-linejoin="round"/>
<path d="M862.664 497.164C855.565 500.182 848.334 502.858 840.971 505.193" stroke="#171717" stroke-width="2.82" stroke-linecap="round" stroke-linejoin="round"/>
<path d="M819.307 506.494C821.049 516.492 821.742 526.645 821.376 536.788L822.128 536.219" stroke="#171717" stroke-width="2.82" stroke-linecap="round" stroke-linejoin="round"/>
<path d="M853.438 521.1C842.608 525.512 832.06 530.589 821.855 536.3" stroke="#171717" stroke-width="2.82" stroke-linecap="round" stroke-linejoin="round"/>
<path d="M904.352 533.226C876.951 550.301 853.31 572.772 834.867 599.272" stroke="#171717" stroke-width="2.82" stroke-linecap="round" stroke-linejoin="round"/>
<path d="M889.127 535.538C886.37 539.661 884.04 544.055 882.174 548.65" stroke="#171717" stroke-width="2.82" stroke-linecap="round" stroke-linejoin="round"/>
<path d="M900.659 546.044L882.373 548.421" stroke="#171717" stroke-width="2.82" stroke-linecap="round" stroke-linejoin="round"/>
<path d="M868.694 543.622C866.294 551.548 863.894 559.473 861.494 567.398" stroke="#171717" stroke-width="2.82" stroke-linecap="round" stroke-linejoin="round"/>
<path d="M892.566 561.136C882.137 562.705 871.779 564.678 861.493 567.055L862.509 566.829" stroke="#171717" stroke-width="2.82" stroke-linecap="round" stroke-linejoin="round"/>
<path d="M880.778 579.3C869.243 580.124 857.764 581.593 846.395 583.7" stroke="#171717" stroke-width="2.82" stroke-linecap="round" stroke-linejoin="round"/>
<path d="M845.759 573.513C845.998 576.93 846.236 580.347 846.474 583.765" stroke="#171717" stroke-width="2.82" stroke-linecap="round" stroke-linejoin="round"/>
<path d="M314.03 566.726C320.918 576.578 327.805 586.43 334.691 596.282" stroke="#171717" stroke-width="2.82" stroke-linecap="round" stroke-linejoin="round"/>
<path d="M312.3 578.18C318.133 580.597 323.583 583.851 328.478 587.841" stroke="#171717" stroke-width="2.82" stroke-linecap="round" stroke-linejoin="round"/>
<path d="M328.084 567.737C327.207 574.214 327.349 580.788 328.505 587.221" stroke="#171717" stroke-width="2.82" stroke-linecap="round" stroke-linejoin="round"/>
<path d="M316.835 594.585C322.534 594.633 328.226 594.894 333.91 595.368" stroke="#171717" stroke-width="2.82" stroke-linecap="round" stroke-linejoin="round"/>
<path d="M337.917 575.005C336.623 581.685 335.33 588.365 334.037 595.045" stroke="#171717" stroke-width="2.82" stroke-linecap="round" stroke-linejoin="round"/>
<path d="M227.4 431.518C228.324 469.189 229.246 506.861 230.168 544.532" stroke="#171717" stroke-width="2.82" stroke-linecap="round" stroke-linejoin="round"/>
<path d="M129.1 547.473C140.881 552.185 154.045 552.062 165.738 547.133" stroke="#171717" stroke-width="2.82" stroke-linecap="round" stroke-linejoin="round"/>
<path d="M375.126 445.379C371.398 432.428 366.546 419.826 360.626 407.719" stroke="#171717" stroke-width="2.82" stroke-linecap="round" stroke-linejoin="round"/>
<path d="M349 448.01L353.605 439.564" stroke="#171717" stroke-width="2.82" stroke-linecap="round" stroke-linejoin="round"/>
<path d="M340.028 437.593C337.342 436.065 334.657 434.536 331.972 433.007" stroke="#171717" stroke-width="2.82" stroke-linecap="round" stroke-linejoin="round"/>
<path d="M305.945 450.185C307.825 446.906 309.703 443.627 311.58 440.347" stroke="#171717" stroke-width="2.82" stroke-linecap="round" stroke-linejoin="round"/>
<path d="M316.434 455.024C318.565 455.871 320.481 457.18 322.046 458.857" stroke="#171717" stroke-width="2.82" stroke-linecap="round" stroke-linejoin="round"/>
<path d="M279.654 462.858C280.882 460.54 282.307 458.332 283.914 456.258" stroke="#171717" stroke-width="2.82" stroke-linecap="round" stroke-linejoin="round"/>
<path d="M292.554 447.538L285.487 443.991" stroke="#171717" stroke-width="2.82" stroke-linecap="round" stroke-linejoin="round"/>
<path d="M251.32 466.271C252.446 463.906 253.939 461.735 255.745 459.838" stroke="#171717" stroke-width="2.82" stroke-linecap="round" stroke-linejoin="round"/>
<path d="M259.175 493.805C256.949 492.559 254.953 490.939 253.275 489.016" stroke="#171717" stroke-width="2.82" stroke-linecap="round" stroke-linejoin="round"/>
<path d="M244.082 455.281C242.15 454.284 240.398 452.974 238.894 451.405" stroke="#171717" stroke-width="2.82" stroke-linecap="round" stroke-linejoin="round"/>
<path d="M237.265 491.186C238.714 488.827 240.163 486.468 241.611 484.109" stroke="#171717" stroke-width="2.82" stroke-linecap="round" stroke-linejoin="round"/>
<path d="M256.332 523.575L250.101 518.355" stroke="#171717" stroke-width="2.82" stroke-linecap="round" stroke-linejoin="round"/>
<path d="M244.718 502.851C242.618 505.651 241.734 506.929 239.637 509.725" stroke="#171717" stroke-width="2.82" stroke-linecap="round" stroke-linejoin="round"/>
<path d="M215.3 528.473C212.84 526.747 210.655 524.659 208.818 522.28" stroke="#171717" stroke-width="2.82" stroke-linecap="round" stroke-linejoin="round"/>
<path d="M191.658 509.065L196.25 501.814" stroke="#171717" stroke-width="2.82" stroke-linecap="round" stroke-linejoin="round"/>
<path d="M213.9 490.705C211.836 489.472 209.959 487.95 208.327 486.184" stroke="#171717" stroke-width="2.82" stroke-linecap="round" stroke-linejoin="round"/>
<path d="M198.421 467.831L203.642 460.395" stroke="#171717" stroke-width="2.82" stroke-linecap="round" stroke-linejoin="round"/>
<path d="M193.991 448.338L188.036 444.412" stroke="#171717" stroke-width="2.82" stroke-linecap="round" stroke-linejoin="round"/>
<path d="M217.534 451.653C216.174 449.754 214.662 447.97 213.012 446.317C213.063 446.141 213.112 445.964 213.168 445.788" stroke="#171717" stroke-width="2.82" stroke-linecap="round" stroke-linejoin="round"/>
<path d="M171.186 464.077L165.705 470.053" stroke="#171717" stroke-width="2.82" stroke-linecap="round" stroke-linejoin="round"/>
<path d="M164.969 492.182C163.421 490.315 161.873 488.449 160.323 486.582" stroke="#171717" stroke-width="2.82" stroke-linecap="round" stroke-linejoin="round"/>
<path d="M142.04 509.066L146.856 503.435" stroke="#171717" stroke-width="2.82" stroke-linecap="round" stroke-linejoin="round"/>
<path d="M159.171 524.915L155.679 519.54" stroke="#171717" stroke-width="2.82" stroke-linecap="round" stroke-linejoin="round"/>
<path d="M144.99 534.926C143.549 536.544 142.109 538.162 140.669 539.78L141.438 539.401" stroke="#171717" stroke-width="2.82" stroke-linecap="round" stroke-linejoin="round"/>
<path d="M280.291 360.015L284.498 363.793L289.996 362.468L287.703 367.637L290.662 372.457L285.037 371.873L281.369 376.177L280.185 370.647L274.959 368.488L279.852 365.653L280.291 360.015Z" fill="#171717"/>
<path d="M251.541 324.313C248.56 320.875 245.58 317.437 242.6 314" stroke="#171717" stroke-width="2.82" stroke-linecap="round" stroke-linejoin="round"/>
<path d="M239.853 325C243.567 320.916 247.281 316.833 250.997 312.75" stroke="#171717" stroke-width="2.82" stroke-linecap="round" stroke-linejoin="round"/>
<path d="M292.483 316.723L294.294 323.633L301.012 326.06L294.999 329.916L294.768 337.056L289.242 332.53L282.38 334.516L284.977 327.861L280.967 321.949L288.099 322.363L292.483 316.723Z" fill="white" stroke="#171717" stroke-width="2.82" stroke-linecap="round" stroke-linejoin="round"/>
<path d="M182.283 365.859L171.934 366.417" stroke="#171717" stroke-width="2.82" stroke-linecap="round" stroke-linejoin="round"/>
<path d="M178.01 372.459L176.8 360.2" stroke="#171717" stroke-width="2.82" stroke-linecap="round" stroke-linejoin="round"/>
<path d="M790.337 293.784L791.316 300.475L797.382 303.461L791.322 306.46L790.356 313.152L785.631 308.315L778.969 309.464L782.109 303.477L778.957 297.494L785.622 298.631L790.337 293.784Z" fill="white" stroke="#171717" stroke-width="2.82" stroke-linecap="round" stroke-linejoin="round"/>
<path d="M807.537 340.422L814.68 346.835L824.013 344.585L820.121 353.362L825.144 361.542L815.596 360.553L809.367 367.858L807.358 358.471L798.486 354.804L806.792 349.992L807.537 340.422Z" stroke="#171717" stroke-width="2.82" stroke-linecap="round" stroke-linejoin="round"/>
<path d="M844.825 383.517C842.562 380.906 840.299 378.295 838.036 375.684" stroke="#171717" stroke-width="2.82" stroke-linecap="round" stroke-linejoin="round"/>
<path d="M835.95 384.041L844.412 374.741" stroke="#171717" stroke-width="2.82" stroke-linecap="round" stroke-linejoin="round"/>
<path d="M369.724 470.733L359.374 471.291" stroke="#171717" stroke-width="2.82" stroke-linecap="round" stroke-linejoin="round"/>
<path d="M365.45 477.332C365.05 473.246 364.65 469.16 364.25 465.073" stroke="#171717" stroke-width="2.82" stroke-linecap="round" stroke-linejoin="round"/>
<path d="M838.631 324.827L828.282 325.385" stroke="#171717" stroke-width="2.82" stroke-linecap="round" stroke-linejoin="round"/>
<path d="M834.358 331.427L833.152 319.167" stroke="#171717" stroke-width="2.82" stroke-linecap="round" stroke-linejoin="round"/>
<path d="M310.922 548.006C310.522 544.575 310.122 541.144 309.722 537.711" stroke="#171717" stroke-width="2.82" stroke-linecap="round" stroke-linejoin="round"/>
<path d="M303.292 543.444L315.522 540.519" stroke="#171717" stroke-width="2.82" stroke-linecap="round" stroke-linejoin="round"/>
<path d="M300.867 498.621L292 493.257" stroke="#171717" stroke-width="2.82" stroke-linecap="round" stroke-linejoin="round"/>
<path d="M293.62 501.671L299.52 490.86" stroke="#171717" stroke-width="2.82" stroke-linecap="round" stroke-linejoin="round"/>
<path d="M393.929 707.557C395.597 696.882 393.218 685.969 387.258 676.957" stroke="#171717" stroke-width="2.82" stroke-linecap="round" stroke-linejoin="round"/>
<path d="M394.11 708C396.695 696.78 402.499 686.558 410.81 678.59" stroke="#171717" stroke-width="2.82" stroke-linecap="round" stroke-linejoin="round"/>
<path d="M393.591 706.766C397.656 693.501 399.423 679.638 398.815 665.777" stroke="#171717" stroke-width="2.82" stroke-linecap="round" stroke-linejoin="round"/>
<path d="M138.407 714.793C140.958 702.446 145.868 690.708 152.867 680.222" stroke="#171717" stroke-width="2.82" stroke-linecap="round" stroke-linejoin="round"/>
<path d="M137.426 715.17C139.894 698.355 138.656 681.204 133.8 664.917" stroke="#171717" stroke-width="2.82" stroke-linecap="round" stroke-linejoin="round"/>
<path d="M137.187 715.141C135.177 702.859 130.697 691.112 124.019 680.61" stroke="#171717" stroke-width="2.82" stroke-linecap="round" stroke-linejoin="round"/>
<path d="M794.9 703.942C796.045 689.795 800.919 676.204 809.026 664.554" stroke="#171717" stroke-width="2.82" stroke-linecap="round" stroke-linejoin="round"/>
<path d="M794.851 703.919C795.688 688.957 794.357 673.953 790.901 659.372C790.842 659.753 790.784 660.134 790.724 660.516" stroke="#171717" stroke-width="2.82" stroke-linecap="round" stroke-linejoin="round"/>
<path d="M794.55 704.756C793.341 692.929 789.338 681.558 782.869 671.583" stroke="#171717" stroke-width="2.82" stroke-linecap="round" stroke-linejoin="round"/>
<path d="M852.705 757.368C854.276 747.128 858.225 737.399 864.236 728.962" stroke="#171717" stroke-width="2.82" stroke-linecap="round" stroke-linejoin="round"/>
<path d="M852.7 758.18C853.588 748.265 852.47 738.273 849.411 728.8" stroke="#171717" stroke-width="2.82" stroke-linecap="round" stroke-linejoin="round"/>
<path d="M852.055 758.191C851.231 750.339 848.273 742.862 843.5 736.573" stroke="#171717" stroke-width="2.82" stroke-linecap="round" stroke-linejoin="round"/>
<path d="M356.2 754.172C358.072 744.778 361.611 735.796 366.651 727.651" stroke="#171717" stroke-width="2.82" stroke-linecap="round" stroke-linejoin="round"/>
<path d="M355.385 754.14C356.29 743.257 355.736 732.302 353.739 721.565" stroke="#171717" stroke-width="2.82" stroke-linecap="round" stroke-linejoin="round"/>
<path d="M354.567 754.7C352.234 746.611 348.622 738.947 343.867 732" stroke="#171717" stroke-width="2.82" stroke-linecap="round" stroke-linejoin="round"/>
<path d="M830.207 752.775C831.034 750.143 829.598 747.175 827.344 745.59C824.986 744.115 822.217 743.436 819.444 743.655C814.628 743.807 809.959 745.354 806.005 748.109C804.527 748.975 803.405 750.338 802.84 751.955C800.208 762.421 827.9 760.14 830.207 752.775Z" stroke="#171717" stroke-width="2.82" stroke-linecap="round" stroke-linejoin="round"/>
<path d="M182.261 751.844C181.816 752.049 181.43 752.366 181.141 752.762C180.852 753.159 180.67 753.624 180.612 754.111C180.641 755.356 181.986 756.111 183.184 756.454C185.311 757.059 187.546 757.177 189.724 756.799C192.386 756.335 195.006 753.424 191.938 751.569C190.437 750.782 188.758 750.395 187.064 750.443C185.369 750.491 183.716 750.974 182.261 751.844V751.844Z" stroke="#171717" stroke-width="2.82" stroke-linecap="round" stroke-linejoin="round"/>
<path d="M294.609 746.485C293.99 746.77 293.324 747.193 293.22 747.868C293.099 748.656 293.811 749.312 294.497 749.719C296.077 750.563 297.816 751.067 299.602 751.199C301.389 751.331 303.183 751.087 304.87 750.484C305.7 750.289 306.445 749.831 306.994 749.178C308.761 746.657 304.644 745.722 303.105 745.442C300.233 744.912 297.267 745.276 294.609 746.485V746.485Z" stroke="#171717" stroke-width="2.82" stroke-linecap="round" stroke-linejoin="round"/>
<path d="M786.587 712.761C788.115 712.5 789.982 711.788 790.051 710.239C790.115 708.769 788.476 707.872 787.066 707.454C781.352 705.78 775.251 705.991 769.666 708.054C769.148 708.178 768.664 708.414 768.247 708.746C767.831 709.078 767.492 709.497 767.255 709.974C767.13 710.572 767.216 711.194 767.499 711.735C767.782 712.276 768.245 712.702 768.807 712.94C773.242 715.1 781.933 713.558 786.587 712.761Z" stroke="#171717" stroke-width="2.82" stroke-linecap="round" stroke-linejoin="round"/>
<path d="M755.072 709.912C755.685 709.818 756.408 709.618 756.593 709.026C756.87 708.139 755.721 707.526 754.817 707.309C752.008 706.487 749.091 706.086 746.164 706.121C745.203 706.119 744.262 706.399 743.458 706.926C740.742 708.984 743.767 710.114 745.379 710.39C748.319 710.891 752.144 710.361 755.072 709.912Z" stroke="#171717" stroke-width="2.82" stroke-linecap="round" stroke-linejoin="round"/>
<path d="M429.374 710.136C431.751 709.729 434.655 708.623 434.761 706.214C434.861 703.927 432.313 702.531 430.119 701.882C421.233 699.28 411.745 699.609 403.059 702.818C401.509 703.396 399.829 704.233 399.309 705.805C398.709 707.605 400.018 709.59 401.723 710.42C408.617 713.774 422.135 711.375 429.374 710.136Z" stroke="#171717" stroke-width="2.82" stroke-linecap="round" stroke-linejoin="round"/>
<path d="M380.353 705.705C381.307 705.559 382.431 705.248 382.718 704.327C383.15 702.946 381.361 701.993 379.954 701.656C375.534 700.595 371.034 699.527 366.496 699.808C365.001 699.806 363.538 700.242 362.288 701.061C358.063 704.261 362.768 706.019 365.276 706.448C369.849 707.229 375.8 706.4 380.353 705.705Z" stroke="#171717" stroke-width="2.82" stroke-linecap="round" stroke-linejoin="round"/>
<g opacity="0.1">
<path d="M209.419 431.383C202.774 430.349 195.87 429.272 189.267 430.965C182.627 432.677 176.352 435.575 170.745 439.52C159.495 447.406 149.402 458.527 143.372 470.929C136.741 484.567 132.931 499.262 130.165 514.116C128.623 522.401 127.465 530.772 126.482 539.141C125.492 547.541 124.671 556.577 130.082 563.55C133.944 568.526 142.754 565.52 144.028 559.868C144.848 556.229 144.15 553.049 144.062 549.395C144.028 545.967 144.229 542.541 144.662 539.141C145.439 532.207 146.382 525.278 147.295 518.36C148.964 505.711 151.559 492.986 156.476 481.16C160.909 470.498 166.523 459.911 175.461 452.36C180.111 448.494 185.313 445.346 190.895 443.019C196.495 440.666 202.42 438.133 208.545 437.826C212.019 437.652 213.264 431.98 209.417 431.38L209.419 431.383Z" fill="#171717"/>
</g>
<g opacity="0.1">
<path d="M185.8 466.6C180.973 469.889 182.031 477.219 181.911 482.374C181.747 489.45 181.473 496.517 180.744 503.559C180.015 510.601 179.482 517.668 178.588 524.698C177.757 531.236 174.582 539.46 178.212 545.398C178.761 546.299 179.505 547.065 180.391 547.64C181.276 548.214 182.279 548.582 183.325 548.717C184.372 548.851 185.435 548.749 186.437 548.416C187.439 548.084 188.353 547.531 189.112 546.798C194.194 542.233 193.451 533.025 193.935 526.606C194.596 519.262 194.865 511.887 194.741 504.514C194.519 497.452 194.296 490.375 193.758 483.329C193.358 478.151 193.902 469.315 188.501 466.592C188.091 466.354 187.625 466.229 187.151 466.229C186.677 466.229 186.211 466.354 185.801 466.592L185.8 466.6Z" fill="#171717"/>
</g>
<g opacity="0.1">
<path d="M373.884 561.909C365.695 556.116 355.328 563.794 351.084 570.881C344.641 581.634 346.422 594.656 349.518 606.148L361.376 597.032C343.153 588.452 322.819 595.391 311.533 611.59C299.604 628.713 302.146 650.908 312.112 668.228L320.565 653.496C318.253 653.274 316.072 653.942 313.832 654.25C311.276 654.552 308.743 655.025 306.249 655.665C301.601 656.924 297.205 658.975 293.255 661.73C285.044 667.357 279.187 675.804 276.795 685.466C274.305 696.146 290.724 700.705 293.248 690.002C294.495 684.398 297.776 679.455 302.456 676.13C304.788 674.449 307.393 673.183 310.156 672.39C311.403 672.036 312.609 672.09 313.828 671.804C315.456 671.932 315.614 671.834 314.302 671.51C315.414 672.185 316.664 672.601 317.958 672.727C326.008 674.149 333.658 666.214 329.014 658.345C322.832 647.876 319.814 634.507 325.249 623.051C330.098 612.84 342.138 605.983 353.224 610.972C359.195 613.659 367.347 609.172 365.081 601.856C362.888 594.771 359.686 585.999 361.961 578.569C363.866 572.348 368.686 568.75 373.882 565.39C374.179 565.207 374.424 564.951 374.594 564.646C374.764 564.341 374.853 563.998 374.853 563.65C374.853 563.301 374.764 562.958 374.594 562.653C374.424 562.349 374.179 562.092 373.882 561.909H373.884Z" fill="#171717"/>
</g>
<g opacity="0.1">
<path d="M786.668 551.242C794.011 544.688 799.643 536.347 805.821 528.734C812.286 520.77 819.294 513.262 826.793 506.263C834.003 499.484 841.67 493.208 849.74 487.479C853.71 484.679 857.769 482.012 861.917 479.479C866.627 476.604 871.947 474.541 875.252 470.015C878.285 465.86 874.216 459.566 869.383 459.788C863.823 460.043 859.004 463.713 854.368 466.564C849.768 469.391 845.279 472.386 840.901 475.551C832.266 481.74 824.072 488.523 816.379 495.851C808.779 503.145 801.701 510.964 795.198 519.251C788.645 527.592 782.198 536.68 779.617 547.14C779.399 548.031 779.475 548.97 779.834 549.814C780.193 550.659 780.816 551.365 781.609 551.826C782.402 552.288 783.323 552.481 784.235 552.376C785.147 552.271 786 551.875 786.668 551.245V551.242Z" fill="#171717"/>
</g>
</g>
<defs>
<clipPath id="clip0_164_2723">
<rect width="960" height="960" fill="white"/>
</clipPath>
</defs>
</svg>
