<?xml version="1.0" encoding="UTF-8"?><svg id="_179.Earth" xmlns="http://www.w3.org/2000/svg" width="520" height="520" viewBox="0 0 520 520"><defs><style>.cls-1,.cls-2,.cls-3,.cls-4{fill:#231f20;}.cls-5{opacity:.5;}.cls-2{opacity:.25;}.cls-3{opacity:.45;}.cls-4{opacity:.35;}</style></defs><g class="cls-5"><path class="cls-1" d="m125.6,169.77c1.72-.74,3.36-1.68,4.91-2.8,1.56-1.09,3.04-2.35,4.42-3.72,2.79-2.72,5.21-5.88,7.37-9.21,2.16-3.34,4.04-6.89,5.68-10.55,1.64-3.65,3.06-7.45,4.1-11.25.77-2.69.99-5.46.51-8.07-.46-2.58-1.89-4.9-3.81-4.98-.86-.09-1.89.21-2.88.75-.98.56-1.94,1.29-2.83,2.14-1.79,1.68-3.37,3.72-4.8,5.84-1.42,2.14-2.75,4.36-3.97,6.67-.62,1.14-1.19,2.32-1.78,3.48l-.8,1.75-.72,1.78c-1.82,4.8-2.93,9.89-3.13,15.01-.19,5.1.56,10.28,2.71,14.86,1.89,4.04,4.93,7.61,8.9,9.49,1.96.95,4.11,1.47,6.28,1.56,2.17.09,4.35-.28,6.42-.99,2.67-.9,5.16-2.36,7.42-4.13,2.28-1.75,4.35-3.8,6.25-6.02,1.88-2.23,3.66-4.57,5.24-7.05,1.59-2.48,3.08-5.03,4.59-7.59,1.84-3.22,1.7-2.76.82.3-.85,3.06-2.61,8.83-6.78,14.64-1.85,2.55-3.92,4.99-6.3,7.18-2.38,2.18-5.17,4-8.24,5.32l-1.16.48-1.2.39c-.79.29-1.64.43-2.46.63-1.68.28-3.4.47-5.12.32-.86-.01-1.72-.2-2.57-.32-.84-.22-1.69-.39-2.49-.72-1.64-.56-3.17-1.39-4.57-2.35-1.43-.95-2.65-2.14-3.8-3.37-1.09-1.28-2.1-2.62-2.91-4.07-1.68-2.86-2.76-6-3.39-9.18-1.25-6.38-.74-12.88.82-19.01.96-3.66,2.28-7.28,3.98-10.71,1.65-3.4,3.45-6.77,5.59-10,2.17-3.19,4.51-6.4,8.06-8.71.42-.3.94-.52,1.41-.78.52-.2,1.02-.44,1.6-.55,1.11-.3,2.41-.3,3.6.1,1.2.39,2.22,1.16,2.97,2.04.77.88,1.26,1.88,1.67,2.87,1.66,4.4,1.12,9.1-.08,13.17-1.18,4.07-2.7,7.99-4.46,11.82-1.76,3.82-3.77,7.53-6.13,11.04-2.34,3.51-5.03,6.84-8.16,9.75-3.83,3.58-8.5,6.51-13.75,7.77-2.61.64-5.31.86-7.99.66-2.7-.14-5.37-.93-7.8-2.14-1.88-.88-3.49-2.22-4.98-3.62-.68-.77-1.42-1.48-1.99-2.33-.3-.41-.62-.81-.89-1.24l-.78-1.3c-2.05-3.51-3.15-7.43-3.72-11.37-.53-3.95-.35-7.99.36-11.84.67-3.88,1.81-7.62,3.16-11.26,2.15-5.64,4.85-10.99,8.18-15.97,1.67-2.48,3.49-4.87,5.58-7.08,2.12-2.17,4.45-4.25,7.47-5.58,1.37-.54,2.81-.95,4.52-.79l.65.06c.24.05.51.13.75.22.48.21.94.48,1.29.88.73.74,1.02,1.96,1.01,2.87-.02,1.6-.44,2.77-.84,3.82-.42,1.04-.88,1.92-1.34,2.69-.93,1.54-1.88,2.63-2.7,3.48-.83.85-1.57,1.43-2.23,1.84-.67.4-1.28.63-1.82.8-.5.15-1.11.36-1.42.38-1.07.04,2.23-2.25,5.38-8.11.57-1.07,1.05-2.2,1.33-3.28.14-.54.22-1.07.22-1.5,0-.25-.02-.33-.05-.39-.02-.07-.06-.13-.11-.19-.05-.05-.11-.09-.18-.1-.03-.01-.07-.01-.1-.02h-.26s-.28-.03-.28-.03c-.1,0-.23.03-.35.04-.24.03-.47.03-.72.11-.98.21-2.03.7-3.02,1.34-2.01,1.25-3.85,3.06-5.56,4.97-1.7,1.93-3.27,4.04-4.71,6.26-2.88,4.43-5.3,9.24-7.18,14.23-1.87,4.99-3.24,10.22-3.54,15.39-.18,3.81.25,7.68,1.43,11.28.25.92.66,1.76.99,2.64.44.82.78,1.7,1.3,2.46.91,1.61,2.1,3.01,3.39,4.24l1.01.88,1.09.76c.18.12.36.26.55.38l.59.31c.4.2.77.43,1.18.6.84.29,1.64.68,2.53.83.44.09.87.23,1.31.3l1.35.15.68.08h.7c.46,0,.93.03,1.39.01.92-.08,1.85-.11,2.76-.3.92-.12,1.81-.4,2.71-.62.88-.32,1.77-.58,2.62-1l.06.08Z"/></g><path class="cls-3" d="m213.66,247.99l-5.3-1.71-3.97,4.36.06-5.82s-5.35-1.86-5.35-1.86c1.52-.67,5.04-2,5.04-2,0,0,1.02-3.54.96-5.39,0,0,3.61,3.86,3.61,3.86,0,0,4.9-.38,5.19-.42-.34.76-3.12,4.04-3.12,4.04,0,0,1.68,2.63,2.89,4.94Z"/><path class="cls-1" d="m323.98,350.36l-1.51-5.36-5.83-.89,4.88-3.17s-1.42-5.49-1.42-5.49c1.4.89,4.46,3.09,4.46,3.09,0,0,3.51-1.11,5.02-2.19l-1.22,5.15s3.03,3.87,3.22,4.08c-.82.14-5.09-.36-5.09-.36,0,0-1.26,2.86-2.51,5.14Z"/><path class="cls-3" d="m447.95,164.97l-1.29-4.59-4.98-.76,4.17-2.71s-1.21-4.69-1.21-4.69c1.2.76,3.81,2.64,3.81,2.64,0,0,3-.95,4.29-1.87l-1.04,4.4s2.59,3.31,2.76,3.49c-.7.12-4.35-.31-4.35-.31,0,0-1.08,2.44-2.15,4.4Z"/><path class="cls-1" d="m433.14,142.53l-7.15-2.45-5.27,6v-8.07s-7.22-2.65-7.22-2.65c2.03-.91,6.75-2.71,6.75-2.71,0,0,1.32-4.89,1.21-7.47,0,0,4.91,5.41,4.91,5.41,0,0,6.58-.46,6.97-.52-.45,1.06-4.15,5.56-4.15,5.56,0,0,2.29,3.68,3.95,6.9Z"/><path class="cls-1" d="m51.53,368.23l-2.19-6.62-7.35-.53,5.93-4.5s-2.08-6.78-2.08-6.78c1.8.98,5.76,3.44,5.76,3.44,0,0,4.33-1.76,6.16-3.27,0,0-1.23,6.62-1.23,6.62,0,0,4.01,4.58,4.26,4.83-1.02.26-6.39.06-6.39.06,0,0-1.42,3.73-2.86,6.75Z"/><path class="cls-1" d="m244.09,83.52l-7.08,1.03-1.85,7.33-3.48-6.79s-7.22.89-7.22.89c1.32-1.64,4.51-5.2,4.51-5.2,0,0-1-4.69-2.2-6.81,0,0,6.46,2.43,6.46,2.43,0,0,5.34-3.23,5.64-3.44.08,1.08-1.09,6.47-1.09,6.47,0,0,3.52,2.1,6.31,4.1Z"/><g><path class="cls-1" d="m350.78,216.5l-44.58-15.29-13.98-1.63-5.96-5.64-61.8-22.27s-5.14,4.16-4.1,10.13l81.18,29.46s13.39-2.32,23.66,3.68c0,0,9.42,5.74,16.22,4.24,6.8-1.5,9.37-2.69,9.37-2.69Z"/><path class="cls-1" d="m223.42,174.72c-.39.36-.8.75-1.07,1.27-.12.18-.12.41-.22.6-.36.7-.64,1.5-.84,2.36-.08.38-.09.77-.06,1.16l.04.37c0,.13-.02.25-.03.38-.02.13-.03.25-.1.39-.08.13-.17.27-.26.4-.13.17-.39.17-.8.07-.21-.05-.46-.13-.72-.23-.13-.05-.27-.11-.37-.17-.09-.07-.16-.14-.2-.21-.15-.27-.27-.55-.28-.84-.04-.28-.04-.58-.04-.87,0-.58.12-1.18.4-1.75.31-.68.32-1.44.6-2.15.31-.77.74-1.52,1.28-2.17.31-.41.7-.76,1.07-1.1.58-.51,1.25-.87,1.86-1.25.47-.32.92-.65,1.41-.94.11-.05.21-.13.33-.15.45-.09.65.03.91.54.06.11.12.22.17.32.15.34.12.81-.07,1.1-.6.86-1.14,1.49-1.74,1.91-.42.35-.84.64-1.22,1.01l-.06-.05Z"/><path class="cls-1" d="m186.7,171.55c-.28-.14-.53-.21-.84-.42-.32-.21-.61-.46-.89-.73-.53-.55-.92-1.21-1.17-1.86-.51-1.32-.53-2.59-.42-3.77.13-1.18.44-2.3.89-3.36.46-1.06,1.04-2.08,1.92-3.01.44-.46.96-.91,1.64-1.26.65-.35,1.6-.58,2.43-.46,1.45.3,2.23.67,3.22,1.01,1.87.7,3.7,1.42,5.53,2.15l21.89,8.76c5.33,2.11,10.7,4.12,16.03,6.19,8.15,3.16,16.33,6.24,24.54,9.25,4.11,1.49,8.22,2.98,12.34,4.42l6.19,2.15,6.43,2.19c.12.05.23.11.34.16l.17.08s.09-.01.05.08l.07.06c.1.08.18.17.27.26l.18.34c.09.24.19.49.27.73l.16.46c.22.59.46,1.14.77,1.64.6,1,1.44,1.79,2.49,2.22.84.37,1.86.49,2.94.57,1.08.07,2.18.09,3.3.1,2.24.02,4.52.01,6.85.28,1.15.14,2.37.4,3.48.77l3.19,1.04c2.13.68,4.25,1.36,6.37,2.04,5.45,1.71,10.92,3.42,16.38,5.13l8.16,2.69,4.06,1.39c1.35.48,2.65,1.1,3.98,1.63,3.29,1.42,2.77,1.43-.25.98-1.5-.25-3.71-.37-6.24-.96-2.55-.53-5.5-1.24-8.66-2.17-4.34-1.25-8.63-2.66-12.94-4.02-4.3-1.38-8.6-2.77-12.9-4.2l-1.61-.54-.81-.27-.68-.2c-.93-.24-1.96-.38-3.01-.48-2.13-.18-4.35-.15-6.66-.2-1.16-.03-2.34-.06-3.61-.24-.32-.05-.66-.11-.98-.17-.35-.1-.71-.18-1.04-.31-.68-.25-1.34-.58-1.94-1.01-1.22-.85-2.13-2.04-2.73-3.25-.3-.6-.55-1.22-.74-1.79l-.06-.17v-.03s-.02-.05-.02-.05c0-.04-.04-.05-.07-.07-2.39-.82-4.78-1.65-7.18-2.48-2.51-.9-5.02-1.8-7.54-2.7-13.25-4.82-27.05-9.79-40.49-15-7.38-2.87-14.75-5.79-22.1-8.74l-11.03-4.4c-1.83-.72-3.69-1.45-5.5-2.08-.5-.19-.8-.23-1.18-.36-.26-.05-.48,0-.78.16-.58.3-1.16.96-1.61,1.68-.56.91-.95,1.96-1.15,3.02-.2,1.05-.19,2.15.14,3,.16.43.4.78.71,1.04.07.07.17.12.25.18.1.06.24.1.35.16l.73.32,3.38,1.33c4.54,1.75,9.11,3.44,13.67,5.13,13.84,5.11,27.76,10.22,41.56,15.12,10.73,3.8,21.32,7.35,31.98,10.97,2.35.79,4.65,1.57,7.01,2.37,8.75,3.03,11.48,4.15,13.08,5.61.37.32.88.68,1.07.92.67.77-3.12.18-9.57-1.93-19.18-6.15-39.2-13.2-59.26-20.41-7.44-2.71-14.89-5.42-22.35-8.13l-11.17-4.14-5.58-2.1-2.79-1.07-1.4-.55-.7-.27-.83-.36v-.08Z"/><path class="cls-2" d="m422.18,287.26c-1.1,5.45-23.13,26.86-28.83,20.18-6.21-7.28,17.42-32.87,17.42-32.87l11.41,12.69Z"/><path class="cls-1" d="m390.06,306.93s13.1-2.74,21.07-9.32c7.97-6.58,21.54-15.09,26.96-34.77,0,0,32.89,26.61,35.29,28.31,2.4,1.71-3.47,9.99-14.77,16.39-11.29,6.4-7.54,9.28-9.8,19.44s-15.51,15.79-21.16,17.36-21.22-17.97-28.07-27.39c-6.85-9.41-9.53-10.03-9.53-10.03Z"/><path class="cls-1" d="m323.24,140.7c-1.58-1.34-3.18-2.64-4.74-4.01-.57-.5-1.18-.94-1.74-1.45-1.99-1.78-3.97-3.56-5.93-5.36-.88-.79-1.77-1.57-2.67-2.33-1.15-.97-2.21-2.06-3.21-3.19-.31-.36-.19-.4.23-.27.41.14,1.15.4,1.88.87,1.34.79,2.52,1.75,3.71,2.71,1.2.95,2.38,1.92,3.52,2.96,1.36,1.24,2.95,2.34,4.44,3.5,1.64,1.27,3.25,2.59,4.86,3.91l2.99,2.41c1.52,1.2,2.99,2.49,4.52,3.66,1.19.9,2.4,1.74,3.56,2.67.26.2.51.39.76.6.92.81,1.11,1.18,1.13,1.58,0,.09.02.2,0,.27-.05.25-.57.11-1.39-.29-1.19-.63-2.37-1.32-3.56-2.02-1.17-.73-2.3-1.55-3.45-2.35-.84-.61-1.7-1.2-2.51-1.85l-2.44-1.96.03-.05Z"/><path class="cls-1" d="m327.74,183.21c-6.43,1.44-12.84,2.96-19.23,4.58-3.19.82-6.37,1.63-9.51,2.61l-4.71,1.44c-1.53.5-3.1.99-4.4,1.58-.62.26-1.29.74-1.19.7-.04.05-.07.14-.06.18v.12c0,.08.02.15.02.22.02.14.02.29.06.42.21,1.09.87,1.92,1.98,2.6,1.1.67,2.54,1.09,4.02,1.37,1.49.28,3.06.41,4.65.47,6.37.18,12.91-.67,19.39-1.61,4.75-.7,9.47-1.56,14.28-2.28,2.43-.34,4.78-.73,7.49-.72,2.73.12,5.33.85,7.7,2.18,4.13,2.35,7.18,6.39,8.17,11.08.24,1.18.34,2.41.18,3.7-.18,1.27-.6,2.66-1.68,3.79-.24.28-.59.53-.87.73l-.72.44c-.48.29-.94.61-1.45.86-.5.26-1,.53-1.51.77l-1.57.67c-2.12.81-4.38,1.32-6.65,1.46-2.27.15-4.53-.04-6.72-.45-4.38-.83-8.41-2.44-12.37-3.93-3.96-1.5-7.87-2.97-11.9-3.67-2.01-.36-4.04-.52-6.06-.43-2,.09-4.02.47-6.01,1.01-.97.29-1.95.58-2.81.99-.86.39-1.66.9-2.04,1.43-.12.13-.13.25-.21.37,0,.12-.08.23-.04.36-.03.24.11.57.27.92.19.35.45.7.76,1.05.14.18.31.33.47.49.17.15.32.32.52.46,1.51,1.19,3.36,2.16,5.23,3.04,1.88.88,3.83,1.67,5.79,2.43,6.99,2.65,14.22,4.82,21.44,6.98,3.61,1.08,7.22,2.18,10.82,3.32,1.8.58,3.6,1.17,5.39,1.83.9.33,1.79.69,2.69,1.1.95.45,1.71.92,2.56,1.38,2.11,1.22,4.18,2.53,6.16,3.92,2,1.38,3.93,2.79,5.92,4.05,3.94,2.54,8.34,4.38,12.85,5.64,2.26.62,4.59.97,6.92,1.18,2.34.22,4.69.21,7.02-.02,4.66-.4,9.23-1.79,13.1-4.33.58-.42,1.09-.78,1.52-1.08.41-.33.74-.59,1-.8.54-.4.82-.55.86-.45.05.1-.15.44-.56,1.02-.21.28-.45.65-.8,1.01-.36.36-.77.77-1.22,1.23-.47.45-1.05.87-1.68,1.36-.63.47-1.38.88-2.15,1.37-1.62.83-3.51,1.72-5.7,2.29-4.36,1.25-9.77,1.65-15.47.74-2.51-.39-5.05-1.02-7.44-1.84-2.4-.8-4.78-1.77-7.06-2.96-2.28-1.18-4.44-2.56-6.48-3.94-2.05-1.39-4.04-2.71-6.07-3.97-1.02-.63-2.04-1.24-3.09-1.81-.52-.28-1.07-.6-1.51-.8-.48-.22-1-.45-1.54-.66-2.17-.84-4.5-1.58-6.82-2.31-4.65-1.44-9.38-2.8-14.07-4.29-4.7-1.47-9.41-2.98-14.09-4.66-2.34-.85-4.67-1.74-6.99-2.73-2.32-1.01-4.62-2.05-6.88-3.5-1.11-.7-2.31-1.61-3.28-2.79-.24-.27-.47-.6-.69-.95-.23-.31-.42-.75-.6-1.15-.32-.87-.52-2.03-.13-3.12.38-1.04,1.06-1.83,1.71-2.32.66-.53,1.32-.88,1.97-1.19,1.3-.59,2.57-.95,3.84-1.27,2.49-.57,5.11-1.06,7.75-1.03,2.63,0,5.23.35,7.73.95,6,1.42,11.47,4.03,17.06,5.82,2.79.88,5.62,1.57,8.45,1.68,2.83.17,5.64-.33,8.27-1.35,1.3-.55,2.59-1.16,3.79-1.96l.46-.29c.14-.09.35-.21.39-.26.17-.13.33-.28.46-.48.27-.38.46-.9.56-1.49.21-1.17.04-2.53-.34-3.81-.39-1.29-.99-2.54-1.76-3.67-1.54-2.27-3.75-4.06-6.29-5.05-1.27-.5-2.61-.81-3.98-.93-1.25-.12-2.75.05-4.21.21-3.23.39-6.51.96-9.79,1.48-3.28.53-6.58,1.06-9.9,1.52-3.32.46-6.65.86-10.01,1.12-3.36.25-6.76.36-10.21.07-1.72-.16-3.46-.43-5.2-.97-1.71-.56-3.52-1.4-4.86-3.03-.66-.8-1.13-1.79-1.35-2.79-.06-.25-.11-.5-.13-.75-.03-.26-.06-.48-.05-.77-.02-.36.01-.68.09-1,.03-.33.21-.62.36-.9.2-.26.38-.53.65-.75.29-.26.47-.4.69-.53.43-.3.85-.5,1.26-.7.83-.4,1.65-.69,2.46-.97,3.27-1.05,6.45-1.85,9.68-2.74,3.22-.89,6.44-1.76,9.67-2.58,7.95-2.04,15.94-3.92,23.95-5.69,4.01-.88,8.02-1.73,12.06-2.5,1.03-.17,1.99-.41,3.08-.51l1.6-.19c.53-.06,1.07-.02,1.61-.04,2.15-.07,4.28.31,6.36.78,3.13.81,6.07,2.16,8.81,3.77,2.74,1.62,5.3,3.51,7.68,5.57,4.79,4.11,9.01,8.77,12.96,13.6,7.92,9.66,14.76,20.04,21.99,29.95,2.82,3.87,5.72,7.54,8.88,11.09,3.11,3.57,6.26,7.09,9.47,10.54,6.4,6.92,13.03,13.58,19.97,19.94,1.51,1.42,3.08,2.74,4.61,4.11,1.56,1.33,3.13,2.67,4.72,4.02,5.93,4.98,10.02,8.01,12.8,10.28,1.39,1.14,2.46,2.06,3.33,2.87.88.78,1.55,1.46,2.14,2.09.53.58,1.27,1.28,1.55,1.66.47.64-.67.17-3.19-1.17-2.53-1.33-6.35-3.67-10.95-7.11-6.82-5.11-13.42-10.7-19.81-16.63-6.38-5.95-12.53-12.26-18.52-18.77-2.98-3.27-5.94-6.58-8.85-9.95-1.44-1.66-2.94-3.39-4.34-5.17-1.42-1.77-2.76-3.57-4.1-5.38-5.31-7.24-10.31-14.63-15.63-21.75-3.95-5.29-8.04-10.45-12.5-15.21-4.46-4.73-9.31-9.14-14.81-12.25-2.75-1.52-5.66-2.68-8.65-3.22-1.49-.27-3-.39-4.51-.34-1.5.06-2.96.28-4.63.59-6.49,1.23-13.01,2.65-19.49,4.11l-.05-.07Z"/><path class="cls-1" d="m411.46,277.13c-1.15-1.53-2.3-3.06-3.5-4.56-.44-.55-.93-1.04-1.37-1.58-1.54-1.93-3.09-3.84-4.69-5.72-.71-.83-1.49-1.61-2.26-2.37-1.01-.96-1.97-1.97-2.83-3.09-.26-.35-.02-.53.48-.53.5.01,1.29.16,1.96.64,1.19.83,2.25,1.81,3.28,2.82,1.02,1.01,2.02,2.06,2.93,3.19,1.07,1.37,2.4,2.59,3.58,3.91,1.29,1.45,2.55,2.94,3.79,4.44l2.28,2.77c1.14,1.4,2.24,2.86,3.42,4.21.9,1.07,1.97,1.97,2.86,3.03.2.23.42.44.6.68.68.92.66,1.39.33,1.95-.08.13-.14.27-.22.38-.27.35-.91.26-1.65-.21-.54-.35-1-.78-1.5-1.18-.49-.41-.97-.84-1.39-1.31-.87-.94-1.7-1.92-2.53-2.92-1.23-1.48-2.43-2.98-3.62-4.5l.05-.05Z"/><path class="cls-1" d="m329.05,131.39c3.76,2.89,7.43,5.89,11.04,9,1.32,1.14,2.69,2.22,3.96,3.45.56.54,1.12,1.1,1.67,1.7.26.29.64.77.84,1.07.22.33.45.67.66,1,.83,1.31,1.61,2.62,2.38,3.94l4.56,7.89c1.35,2.33,2.77,4.63,4.19,6.89.92,1.44,1.84,2.89,2.76,4.34.88,1.47,1.7,2.98,2.46,4.52.39,1.01.02,1.09-.96.64-.96-.46-2.43-1.51-3.62-3.1-3.89-5.84-7.54-11.81-11.01-17.94-1.03-1.84-2.17-3.66-3.37-5.4-.15-.22-.3-.42-.45-.63-.15-.2-.31-.44-.43-.57-.21-.29-.66-.69-1.01-1.03-.76-.71-1.56-1.41-2.36-2.11-3.53-3.07-7.26-6-10.98-8.91-2.3-1.79-4.61-3.57-6.96-5.29-3.56-2.6-7.14-5.23-10.84-7.53-.72-.44-1.45-.87-2.17-1.25-.36-.2-.73-.37-1.08-.53-.18-.07-.35-.16-.43-.17-.1-.03-.21-.06-.31-.04-.96.21-1.39.7-1.32,2.12.07.59.19,1.19.43,1.79.4,1.14.81,1.83.95,2.37.06.28.08.54.08.76-.01.23-.07.5-.1.71-.03.21,0,.44-.01.61-.03.28-.32.34-1.02.14-.68-.18-1.45-.82-2.04-1.83-.46-.73-.8-1.53-1.1-2.38-.26-.87-.55-1.76-.56-2.84,0-1.05.24-2.45,1.32-3.58.27-.25.57-.52.88-.71.31-.15.63-.3.96-.42.17-.07.32-.11.47-.13l.22-.04.31-.04c.21-.03.42-.07.62-.08.19,0,.37.07.56.07.38.04.73.2,1.1.29l.71.32c.39.2.79.4,1.15.6.74.4,1.44.82,2.14,1.24,1.39.85,2.74,1.73,4.09,2.63,3.98,2.67,7.84,5.51,11.67,8.37l-.05.08Z"/><path class="cls-1" d="m294.93,135.42c-.25-.47-.42-.99-.62-1.5-.14-.49-.34-.94-.46-1.43-.29-.96-.5-1.94-.67-2.95-.16-1.01-.23-2.06-.17-3.18.02-.56.12-1.14.29-1.75.1-.31.17-.61.35-.94l.24-.48c.1-.16.23-.35.36-.51.5-.69,1.23-1.17,2.02-1.45.84-.23,1.61-.27,2.39-.07.2.06.39.12.58.19.19.07.4.15.49.21l.69.37c.48.25.86.5,1.28.75,1.64,1.01,3.16,2.06,4.7,3.11,2.23,1.55,4.49,3.03,6.68,4.62,3.85,2.8,7.67,5.64,11.47,8.48l5.71,4.25,2.86,2.12,1.43,1.06c.49.45,1.08.87,1.48,1.36,1.57,1.68,2.76,3.48,3.91,5.3,1.15,1.81,2.21,3.66,3.25,5.49,2.66,4.7,5.26,9.44,7.47,14.15.3.75.4,1.15.29,1.22-.12.08-.47-.13-1.23-.47-1.48-.7-3.77-2.54-5.38-5.23-1.37-2.42-2.72-4.8-3.99-7.21-1.29-2.39-2.58-4.76-3.98-6.99l-1.07-1.63c-.38-.5-.75-1.03-1.13-1.51-.39-.42-.78-.96-1.17-1.26-.22-.18-.33-.34-.63-.55l-.83-.62c-2.21-1.66-4.39-3.35-6.57-5.06-5.21-4.09-10.88-7.98-16.38-11.89-3.02-2.13-6.07-4.3-9.14-6.19-.39-.25-.74-.41-1.12-.63l-.14-.08-.07-.02s-.09-.04-.14-.06l-.03-.02h-.02s0-.01,0-.01v-.09s.03-.2.03-.2l.02-.2v-.1s.01-.05.01-.05c.08-.61-.11.77-.09.63h-.02s-.04,0-.04,0h-.18c-.43-.02-.72.15-.95.64-.26.54-.39,1.35-.43,2.16-.04.82.02,1.69.14,2.55.15,1.06.39,2.13.71,3.17.32.96.83,1.9,1.42,2.8,1.19,1.8,2.76,3.41,4.4,4.92,5.06,4.57,10.95,8.31,16.61,12.29,1.1.78,2.19,1.57,3.26,2.41,1.06.85,2.12,1.72,3.07,2.88.89,1.23,1.49,2.34,2.17,3.52.66,1.16,1.29,2.32,1.92,3.49.55,1.03,1.12,2.02,1.66,3.06.92,1.97,1.51,3.27,1.8,4.25.11.51.18.91.21,1.27.06.34.07.63.06.9,0,.24.03.55,0,.71-.06.27-.36.06-.94-.54-.29-.31-.64-.7-1.07-1.16-.45-.46-.8-1.08-1.24-1.75-1.31-1.99-2.46-4.1-3.62-6.22-.58-1.05-1.17-2.1-1.76-3.16l-.89-1.53c-.15-.26-.3-.47-.45-.71-.15-.2-.24-.35-.42-.55-.65-.74-1.53-1.51-2.44-2.23-.92-.73-1.89-1.44-2.89-2.15-2-1.41-4.07-2.8-6.14-4.22-3.08-2.11-6.17-4.29-9.12-6.76-1.47-1.24-2.92-2.54-4.27-4-1.35-1.46-2.62-3.06-3.58-5.01l.06-.04Z"/><path class="cls-1" d="m410.46,334.39c-1.96-2.1-3.86-4.26-5.66-6.48-.66-.81-1.4-1.54-2.04-2.37-2.28-2.88-4.43-5.86-6.59-8.81-.97-1.3-1.94-2.61-2.89-3.91l-.94-1.24c-.3-.43-.58-.86-.86-1.3-.27-.44-.57-.86-.79-1.35-.21-.48-.42-.96-.63-1.45-.25-.61-.14-.58.39-.29.35.18.73.38,1.11.58.23.12.49.24.73.4.22.17.44.36.65.57,2.93,3.03,5.39,6.39,7.81,9.86,1.45,2.07,3.26,3.98,4.94,5.93,1.86,2.14,3.73,4.27,5.65,6.34l1.79,1.9c.61.62,1.23,1.23,1.85,1.83,1.89,1.84,3.84,3.62,5.93,5.17.79.64,1.68,1.1,2.53,1.62.84.53,1.72.97,2.58,1.44.38.2.75.4,1.14.6,1.44.67,1.79,1.11,1.84,1.91.01.18.05.37.03.54-.04.54-.85.71-2.12.36-.46-.14-.95-.25-1.39-.43l-1.34-.56c-.9-.39-1.83-.77-2.63-1.33-1.7-1.02-3.24-2.25-4.79-3.49-1.09-.97-2.21-1.92-3.26-2.93-1.03-1.03-2.11-2.02-3.1-3.08l.05-.06Z"/><path class="cls-1" d="m418.39,294.62c-4.05,3.5-8.36,6.72-13.12,9.29-1.74.92-3.49,1.88-5.41,2.53-1.68.58-3.41,1.07-5.25,1.25-.45.07-.91.09-1.38.1l-.7.02h-.18s-.25-.02-.25-.02l-.49-.06c-.66-.15-1.33-.44-1.82-.9-.5-.44-.85-.97-1.09-1.48-.89-2.08-.7-3.98-.43-5.76.31-1.78.81-3.47,1.47-5.08,1.15-2.87,2.63-5.57,4.27-8.09,1.06-1.62,2.21-3.18,3.47-4.66.62-.74,1.29-1.44,1.96-2.14.68-.69,1.45-1.28,2.2-1.88.96-.73,1.01-.44.6.56-.21.5-.52,1.18-.88,2-.4.78-.93,1.62-1.57,2.48-2.27,3.02-4.27,6.21-5.85,9.55-.79,1.67-1.44,3.39-1.96,5.11-.52,1.71-.85,3.5-.79,5.09.01.94.33,1.8.65,2.02.08.06.16.11.26.13.04.03.11.02.17.03.04.02.17.01.31,0,.53-.04,1.06-.02,1.61-.13,2.17-.3,4.34-1.07,6.44-1.98,4.61-2.05,8.95-4.96,12.94-8.25,2.46-2.03,4.82-4.2,7.03-6.5,3.35-3.49,6.51-7.24,9.12-11.26,2.03-3.13,3.58-6.46,4.82-9.85.24-.75.47-1.49.7-2.25.42-1.41.69-2.31,1.09-2.92.35-.61.74-.94,1.23-1.19.22-.11.43-.28.62-.34.31-.1.53.16.74.79.24.63.31,1.6.15,2.79-.63,3.51-1.99,6.88-3.65,10.09-1.67,3.21-3.72,6.25-5.93,9.13-3.3,4.29-7.05,8.21-11.07,11.82l-.06-.06Z"/></g><g><path class="cls-2" d="m175.73,349.65c-35.83,2.46-33.57-32.81-29.94-33.3,0,0-27.13,3.23-27.25,1.9-.12-1.33,1.41,26.71,1.41,26.71,0,0,16.61,3.96,25.4,5.15,11.48,1.56,30.38-.46,30.38-.46Z"/><path class="cls-1" d="m152.65,314.78c-2.79.77-5.59,1.51-8.43,2.09-1.03.24-2.06.47-3.11.64-3.67.64-7.39,1.06-11.12,1.16-.82.05-1.65.07-2.48.07-.83,0-1.65.04-2.47.03-1.05-.04-2.11-.03-3.17-.12-.53-.06-1.05-.14-1.57-.22-.52-.07-1.03-.27-1.54-.4-.63-.2-.53-.26.04-.42.37-.11.78-.24,1.18-.36.48-.12,1.04-.14,1.63-.12,1.05,0,2.1.02,3.15.09,1.05.06,2.1,0,3.16.03,2.11-.02,4.22-.09,6.35-.25,2.55-.15,5.17-.68,7.73-1.17,1.41-.27,2.82-.59,4.22-.91,1.4-.36,2.81-.67,4.19-1.07,1.72-.46,3.42-.96,5.12-1.5,2.57-.81,5.14-1.67,7.64-2.6,1.93-.76,3.84-1.5,5.75-2.25.42-.16.84-.32,1.26-.49,1.59-.59,2.13-.69,2.56-.57.1.03.22.04.29.08.22.13-.35.54-1.47,1.09-1.66.81-3.38,1.62-5.13,2.42-1.76.79-3.6,1.43-5.44,2.1-2.74.98-5.53,1.86-8.33,2.69v-.04Z"/><path class="cls-4" d="m157.2,294.95c-24.39-4.41,10.3-17.31,19.67-17.31,0,0-41.98.27-54.8,16.8,0,0,24.34,1.81,35.14.51Z"/><path class="cls-1" d="m254.14,293.44c-3.54-8.83-18.71-15.92-26.55-18.57-7.85-2.64-36.31-10.13-61.06-7.94-24.48,2.17-48.36,9.56-57.92,14.2-9.55,4.64-13.19,9.17-13.19,9.17-8.11,5.11-6.73,22.83,39.57,24.24,0,0,19.18.3,32.47-4.5,13.29-4.8,30.92-7.01,39.04-7.24,8.11-.22,25.97,2.49,38.78-3.13,5.36-2.35,10.34-2.54,8.86-6.23Zm-65.48-4.47c-12.71,2.56-32.56,6.45-40.13,7.09-7.58.64-18.57.48-21.08-.5-2.51-.98-3.31-3.99-3.31-3.99,0,0,15.27-11.65,38.05-13.18,22.78-1.54,29.72-1,42.54,2.56,12.83,3.57,14.68,6.79,14.68,6.79,0,0-18.04-1.33-30.75,1.23Z"/><path class="cls-1" d="m123.9,344.73s2.08,15.2,1.37,42.85c-.5,19.63-1.29,32.31-4.16,44.77-2.35,10.21,50.58,14.14,55.07,14.01s47.39-6.48,56.51-14.2c0,0-8.88-93.93-7.59-101.38,0,0-15.6,14.52-32.97,17.71-17.36,3.19-29.56,3.81-38.93,2.9-9.37-.91-29.31-6.67-29.31-6.67Z"/><path class="cls-1" d="m186.63,349.78c-5.63.96-11.31,1.58-17,1.91l-3.11.19c-1.04.05-2.07.09-3.11.11-3.66.04-7.32-.03-10.97-.29-1.83-.09-3.65-.3-5.47-.46-1.81-.24-3.63-.41-5.44-.72-3.21-.46-6.42-1.08-9.56-1.77l-3.02-.76-2.98-.91c-.99-.33-1.96-.7-2.91-1.11-.96-.41-1.86-.95-2.78-1.43-1.13-.63-.86-.78.28-.71.57.03,1.37.12,2.3.24.47.06.99.09,1.51.19.52.11,1.06.26,1.61.44,1.97.58,3.96,1.1,5.96,1.55.99.27,2.01.45,3.01.68,1,.23,2.02.42,3.04.59,4.06.73,8.18,1.29,12.34,1.67,4.98.48,10.21.34,15.32.09,5.63-.26,11.25-.83,16.82-1.72,3.43-.53,6.83-1.23,10.21-2.02,5.1-1.24,10.18-2.76,14.96-4.8,3.71-1.6,7.16-3.58,10.33-5.88.72-.48,1.33-1.07,2.04-1.56.66-.45,1.15-.89,1.6-1.21.44-.33.84-.56,1.15-.77.63-.4,1.12-.51,1.67-.47.25.02.53-.01.73.04.34.09.36.46.1,1.08-.26.61-.81,1.49-1.72,2.38-2.61,2.79-5.91,4.9-9.31,6.73-3.43,1.82-7.07,3.29-10.76,4.55-5.5,1.83-11.15,3.17-16.83,4.2l-.02-.07Z"/><path class="cls-1" d="m130.41,441.4c1.97.41,3.93.85,5.92,1.18,1.98.36,3.97.71,5.97.98,1.46.21,2.92.39,4.38.55,5.14.71,10.31,1.2,15.5,1.51,2.3.11,4.62.17,6.9.13,2.94.03,5.86-.37,8.82-.03.94.28.81.13.06.52-.74.46-2.16,1.06-3.87,1.19-6.07.31-12.13.09-18.2-.53-1.81-.21-3.66-.36-5.53-.52-1.86-.19-3.73-.36-5.58-.59-2.03-.3-4.06-.56-6.08-.89-2.02-.37-4.05-.66-6.05-1.09l-3.71-.76c-1.24-.26-2.46-.58-3.68-.87-1.87-.41-3.71-.95-5.55-1.47-1.85-.48-3.65-1.13-5.46-1.7-1.42-.41-2.77-.98-4.16-1.46-1.39-.45-2.71-1.1-4.04-1.73-.58-.28-1.17-.53-1.75-.84-2.08-1.28-2.61-1.89-2.85-2.45-.05-.13-.14-.28-.15-.38-.04-.33.94-.04,2.5.68.58.28,1.11.61,1.72.85.6.24,1.2.49,1.81.73.6.25,1.2.5,1.81.75.62.22,1.25.42,1.87.66,2.46.99,5.05,1.77,7.63,2.6,3.88,1.1,7.8,2.14,11.78,2.94v.05Z"/><path class="cls-1" d="m166.19,446.88c-7.53,1.5-79.53-7.6-69.03-18.72,3.51-3.71,19.42-5.4,19.42-5.45l-.71,10.64,16.48,6.68,33.84,6.86Z"/><path class="cls-1" d="m160.66,292.23c5.07-.77,10.15-1.63,15.23-2.53,1.85-.33,3.69-.74,5.55-1.05,6.55-1.1,13.15-2.06,19.8-2.72,2.95-.29,5.93-.57,8.9-.61,1.9-.04,3.84-.04,5.81.28.98.15,1.96.43,2.88.86.46.21.91.44,1.34.7.43.27.77.67,1.14.99.88.88.6.9-.44.71-1.14-.1-2.9-.12-4.78-.36-1.69-.27-3.5-.28-5.36-.21-1.85.07-3.71.2-5.58.33-3.75.27-7.53.69-11.35,1.11-4.57.51-9.26,1.54-13.9,2.37-5.11.92-10.23,1.84-15.37,2.69-3.16.53-6.34,1.01-9.51,1.46-4.82.67-9.69,1.2-14.54,1.43-3.77.17-7.52.33-11.36-.28-.84-.16-1.68-.31-2.53-.56-3.15-1.01-3.92-2.14-3.9-3.22-.01-.23-.07-.47-.05-.63.04-.27.38-.29,1-.28.33-.02.64.08,1.01.2.4.07.82.23,1.27.41,2.81.96,6.03,1.23,9.31,1.3,3.29.06,6.69-.14,10.11-.45,5.07-.46,10.2-1.18,15.3-2.02l.02.08Z"/><path class="cls-1" d="m159.08,276.95c5.44-.91,10.94-1.49,16.45-1.64,1.01-.04,2.01-.08,3.02-.1,1.01-.03,2.01-.05,3.02-.01,7.09.18,14.16,1.05,21.04,2.72,3.05.74,6.11,1.58,9.06,2.64,1.89.69,3.78,1.45,5.59,2.44,1.76,1.02,3.55,2.26,4.64,4.21.22.69.23,1,.13,1.04-.11.05-.38-.17-.92-.38-.32-.07-.58-.22-.94-.33-.37-.11-.72-.26-1.17-.37-.81-.28-1.73-.64-2.67-1.11-3.29-1.83-6.99-3.18-10.75-4.29-3.77-1.1-7.66-1.94-11.6-2.64-4.73-.8-9.75-.92-14.66-.86-5.4.06-10.82.43-16.19,1.2-3.31.44-6.6,1.06-9.86,1.79-4.94,1.05-9.79,2.61-14.49,4.42-3.64,1.43-7.11,3.11-10.44,4.97-.73.41-1.42.85-2.12,1.29-1.29.82-2.09,1.35-2.64,1.62-.55.31-.82.31-1.22.45-.2.07-.3.28-.39.46-.08.15-.19.22-.39.1-.09-.06-.23-.18-.3-.36-.06-.16-.14-.48-.1-.69.11-1.04.82-1.99,1.76-2.85,2.94-2.38,6.19-4,9.53-5.58,3.35-1.54,6.82-2.89,10.36-4.11,2.62-.89,5.32-1.73,8.05-2.36,1.36-.32,2.71-.65,4.08-.92,1.36-.3,2.73-.56,4.1-.8l.02.08Z"/><path class="cls-1" d="m158.46,269.81c-4.46.57-8.98,1.58-13.44,2.63-4.47,1.07-8.92,2.27-13.33,3.59-8.81,2.66-17.52,5.72-25.74,9.71-2.99,1.46-5.9,3.08-8.63,4.9-2.71,1.84-5.25,3.92-7.2,6.33-.87,1.05-1.44,2.06-1.63,3.16-.18,1.08.03,2.18.58,3.24,1.11,2.15,3.33,3.96,5.71,5.26,2.49,1.31,5.14,2.41,7.89,3.2,2.75.8,5.62,1.28,8.5,1.62,5.78.66,11.69.5,17.6.16,2.96-.17,5.93-.4,8.9-.61,2.93-.24,5.87-.53,8.79-.98,10.39-1.5,20.68-4.22,30.96-6.47,6.61-1.45,13.31-2.76,20.11-3.42,6.78-.63,13.6-.96,20.37-.38,2.11.43,3.01.67,2.94.75-.06.09-1.1.11-2.88.53-3.56.75-10.04,1.65-17.66,2.41-6.76.7-13.44,1.74-20.13,3.19-6.69,1.4-13.38,3.04-20.17,4.47-6.79,1.44-13.69,2.69-20.72,3.27-6.92.52-13.86,1.09-20.95.95-4.23-.1-8.54-.44-12.82-1.28-4.27-.86-8.55-2.17-12.49-4.37-2-1.13-3.86-2.55-5.42-4.39-.77-.93-1.44-1.99-1.92-3.18-.49-1.19-.68-2.56-.56-3.88.09-1.35.63-2.57,1.24-3.66.67-1.09,1.41-1.92,2.17-2.78,1.54-1.67,3.28-3.05,5.04-4.36,3.91-2.81,8.1-5.08,12.37-7.11,4.28-2.02,8.65-3.77,13.07-5.38,8.85-3.19,17.88-5.81,27.02-7.94,2.82-.65,5.65-1.25,8.51-1.76,2.88-.51,5.76-.8,8.64-1.12,5.76-.59,11.55-.88,17.33-.86,4.38.03,8.77.21,13.14.58,4.37.38,8.73.95,13.05,1.71,8.64,1.51,17.15,3.78,25.25,7.02,3.15,1.26,6.23,2.68,9.21,4.27,2.98,1.6,5.88,3.38,8.52,5.57,1.34,1.08,2.58,2.3,3.7,3.7.56.7,1.06,1.46,1.5,2.32.42.87.73,1.85.78,2.92.05,1.06-.2,2.17-.69,3.11-.49.94-1.17,1.71-1.9,2.35-1.47,1.27-3.12,2.06-4.77,2.7-2.92,1.11-5.82,1.73-8.81,2.17-11.11,1.36-14.63.4-16.97-.47-.53-.22-1.23-.44-1.54-.65-.51-.35.35-.63,2.32-.91,1.98-.3,5.06-.6,8.99-.87,2.91-.23,5.82-.57,8.67-1.11,2.83-.54,5.66-1.3,7.99-2.53,1.16-.6,2.14-1.38,2.64-2.16.5-.78.57-1.5.26-2.48-.31-.95-1.12-2.1-2.01-3.1-.88-1.04-1.97-1.99-3.08-2.91-4.56-3.64-10.02-6.48-15.67-8.77-5.66-2.29-11.58-4.11-17.6-5.49-17.9-4.11-36.7-4.72-55.02-2.32l-.03-.08Z"/><path class="cls-1" d="m141.42,440.97c8.92,2.25,18.14,3.39,27.38,3.66,4.62.16,9.26.05,13.88-.21,4.62-.27,9.24-.72,13.83-1.39,6.7-.95,13.32-2.42,19.78-4.3,2.81-.8,5.58-1.75,8.27-2.82,1.35-.53,2.67-1.12,3.94-1.76.63-.33,1.27-.64,1.85-1.02.3-.18.6-.35.89-.54l.56-.41c.08-.04.14-.1.14-.2.01-.1.01-.14.01-.29,0-.5-.04-1.06-.08-1.6-.08-1.1-.19-2.22-.31-3.34-.23-2.24-.5-4.48-.77-6.73l-1.66-13.49c-1.1-9-2.13-18.02-3.04-27.05-1.05-10.64-2.01-21.35-2.68-31.95-.43-6.81-.69-13.65-.75-20.49-.06-6.84.14-13.71,1.31-20.47.33-2.11.53-3.01.61-2.95.09.07.09,1.11.22,2.92.11,1.8.52,4.37.78,7.45.14,1.54.35,3.21.45,4.97.08,1.77.13,3.64.16,5.59.1,6.9.42,13.81.82,20.71.35,6.91.82,13.82,1.37,20.74,1.13,13.83,2.49,27.69,4.01,41.61.48,4.19.96,8.43,1.44,12.69.24,2.14.48,4.29.72,6.44.11,1.08.21,2.17.29,3.28.04.56.07,1.1.08,1.73-.02.44-.02.91-.12,1.33-.07.2-.17.4-.29.58-.05.22-.27.33-.39.5l-.95.69c-.23.18-.47.34-.72.48-.48.29-.96.6-1.45.87-.98.52-1.97,1.04-2.98,1.47-2,.93-4.04,1.68-6.09,2.41-4.11,1.41-8.28,2.55-12.48,3.48-9.29,2.06-18.73,3.31-28.21,3.8-4.74.22-9.5.25-14.24.07-4.75-.18-9.48-.63-14.19-1.29-11.56-1.67-23.03-4.92-33.35-10.58-.63-.34-1.23-.72-1.84-1.07l-2.04-1.21-.4-.33-.1-.08c.06-.08-.03-.09-.03-.13-.04-.08-.08-.15-.11-.23-.11-.33-.11-.71-.1-1.08,0-.42.02-.63.03-.9l.05-.77.25-3.04.57-6.05c.36-4.03.73-8.05,1.09-12.08.68-8.05,1.23-16.09,1.61-24.09.64-13.53.7-26.8.25-40.16-.1-2.94-.25-5.82-.39-8.78-.27-5.49-.49-9.11-.51-11.66.02-1.28.05-2.29.12-3.13.08-.84.2-1.52.32-2.12.11-.55.19-1.27.28-1.59.16-.55.42.29.9,2.26.48,1.97.98,5.1,1.28,9.14,1.91,23.99,1.31,49.41-.57,74.76-.37,4.97-.79,9.93-1.25,14.9l-.69,7.44-.32,3.7c-.05.61-.09,1.22-.12,1.8v.1s0,.01,0,.02l2.37,1.4c.93.56,1.92,1.01,2.88,1.52l1.45.75,1.49.67c1,.43,1.98.91,3,1.31,4.04,1.65,8.23,2.95,12.46,4.06v.08Z"/><path class="cls-1" d="m204.72,321.07c.06-.51.11-1.03.14-1.54.01-.19,0-.37,0-.56.06-.66.12-1.33.13-2,0-.3-.03-.59-.05-.88-.03-.37-.06-.75,0-1.13.02-.12.16-.12.33-.04.16.08.38.24.46.45.29.75.34,1.53.3,2.32-.03.47.07.95.1,1.43.03.53,0,1.05,0,1.58,0,.32-.02.65-.03.97-.01.49-.04.98-.04,1.47,0,.38.11.75.11,1.13,0,.08.02.16.01.25-.02.31-.13.4-.45.45-.07.01-.15.03-.22.03-.24.02-.44-.11-.54-.34-.32-.67-.39-1.35-.4-2.05.03-.51.07-1.03.1-1.54h.04Z"/><path class="cls-1" d="m195.15,323.55c.05-.59.09-1.19.1-1.78,0-.22-.04-.43-.04-.64.03-.77.06-1.54.03-2.3,0-.34-.09-.67-.13-1.01-.07-.42-.2-.84-.11-1.3.03-.14.32-.18.65-.12.32.06.69.21.78.45.33.86.44,1.76.37,2.68-.04.55.12,1.1.16,1.65.05.61.07,1.22.08,1.83,0,.38.01.75.02,1.13,0,.57-.03,1.14.03,1.7.06.41.12.86.18,1.29.01.1.03.19.03.28,0,.36-.13.47-.54.55-.09.02-.19.04-.28.05-.31.04-.58-.11-.72-.36-.39-.75-.68-1.53-.66-2.32-.03-.59-.03-1.18-.01-1.78h.05Z"/></g></svg>