<?xml version="1.0" encoding="UTF-8"?><svg id="Layer_1" xmlns="http://www.w3.org/2000/svg" width="520" height="520" viewBox="0 0 520 520"><defs><style>.cls-1{opacity:.35;}.cls-1,.cls-2,.cls-3{fill:#231f20;stroke-width:0px;}.cls-2{opacity:.2;}.cls-4{opacity:.65;}</style></defs><path class="cls-3" d="m397.53,121.04l.63,1.25-3.46,1.36c.05-.07.03-.27-.32-.55-.34-.27-.87-.51-1.44-.68-.61-.18-1.15-.19-1.41-.17-.23.02-.43.07-.65.31-.22.23-.41.65-.52,1.12-.1.48-.15,1.01-.12,1.53.03.54.1,1.14.21,1.7.19,1.02.57,1.99,1.02,2.92.28.6.61,1.17.96,1.74l.26.43c.06.16.14.31.2.48.13.32.3.62.42.97.04.54.13.39-.35.32-.25-.03-.55-.12-.93-.24-.19-.06-.38-.14-.59-.22-.1-.04-.2-.1-.31-.14-.07-.07-.16-.14-.23-.23-1.03-1.14-1.94-2.45-2.48-3.92-.28-.73-.5-1.48-.66-2.26-.16-.74-.24-1.63-.14-2.49.12-1.02.28-2.12.98-3.22.35-.54.89-1.05,1.52-1.35.63-.32,1.34-.39,1.91-.37.63.04,1.12.14,1.63.27.52.13,1.04.3,1.56.54.52.24,1.04.56,1.52,1.04.48.46.87,1.15.99,1.86l1.25,6.93-3.45-6.07-.09-.16c-.59-1.04-1.18-2.12-1.7-3.26-.8-1.73-1.36-3.69-1.17-5.81.2-1.59.64-3.21,1.84-4.57.26-.29.54-.59.88-.83,1.35-.85,2.07-.53,2.42.33.09.2.18.4.23.6.13.68-.2,1.33-.51,1.71-.5.56-.84,1.25-1.09,2.04-.12.39-.19.8-.22,1.19,0,.2-.05.39-.05.57-.01.19,0,.44,0,.67.08,1.38.63,3.01,1.52,4.62l-.07.04Z"/><path class="cls-3" d="m399.69,108.53c.04.06.07.12.08.09.06.06.09.03.13-.01.02-.03-.01-.11.02-.14l.09-.12.16-.5c.12-.36.23-.72.35-1.08.12-.32.11-.62.25-.99.08-.23.17-.46.35-.69.15-.24.49-.41.8-.37.2.03.15.16.13.37-.01.11,0,.25.05.38.06.14.15.23.15.28l.08.38c.01.08.03.15.04.23l-.04.29c-.07.39-.16.78-.3,1.17-.09.26-.11.43-.12.78,0,.43.05.92.02,1.38,0,.9,0,1.8,0,2.71-.1-.07-.15-.06-.22-.1l-.12-.04-.16-.13-.33-.26-.67-.51c-.34-.25-.68-.5-1.01-.71-.31-.18-.71-.39-.96-.47-.36-.12-.77-.08-1.15-.07-.08,0-.17.03-.25.02-.3-.03-.34-.21-.24-.91l.07-.48c.09-.54.33-.94.64-1.02.45-.11.89-.09,1.31.02.21.05.42.13.62.21l.14.06s0,0,0,0h0s0,.06.06.14l.04.1Z"/><path class="cls-3" d="m399.6,168.01c.13.94.18,1.89.42,2.82.1.47.19.94.3,1.4l.43,1.37c.19.68.54,1.29.79,1.95.95,2.28,2.12,4.52,3.64,6.54.31.47.7.88,1.07,1.3.39.41.74.84,1.16,1.21.53.48,1.08.95,1.59,1.44.54.47,1.08.94,1.56,1.5.24.43.11.51-.41.57-.52.05-1.34-.08-2.09-.54-2.5-1.8-4.71-4.09-6.3-6.79-.22-.41-.48-.81-.71-1.22l-.69-1.25c-.5-.81-.89-1.7-1.28-2.57-.43-.96-.71-1.98-1.05-2.97l-.37-1.53-.18-.76-.12-.78c-.09-.64-.21-1.27-.26-1.91l-.11-1.93c-.03-.97.04-1.95.07-2.92.14-.96.19-1.93.35-2.88.14-.73.22-1.47.32-2.21l.46-2.19c.06-.33.16-.63.28-.94.44-1.15.75-1.45,1.42-1.43.15,0,.31,0,.45.02.48.1.67.71.52,1.54-.27,1.23-.45,2.47-.74,3.7-.17,1.25-.43,2.5-.5,3.77-.14.94-.08,1.89-.13,2.84.02.95.09,1.9.18,2.84h-.06Z"/><path class="cls-2" d="m258.78,231.72c-9.77,7.98.85,28.99,13.7,22.03,10-5.42,8.52-13.53,7.68-15.48s-6.23-7.42-8.54-8.76c-2.6-1.51-7.72.09-10.37,1.03-.93.33-1.81.64-2.47,1.18Z"/><path class="cls-2" d="m287.32,211.47c-9.77,7.98.85,28.99,13.7,22.03,10-5.42,8.52-13.53,7.68-15.48-.83-1.95-6.23-7.42-8.54-8.76-2.6-1.51-7.72.09-10.37,1.03-.93.33-1.81.64-2.47,1.18Z"/><path class="cls-3" d="m264.95,230c-.64,1.12-1.08,2.33-1.18,3.62-.12,1.47.62,3.05,1.97,3.73.3.15.63.3.96.37.59.13.96.11,1.55.02.63-.1,1.18-.46,1.66-.87.78-.66,1.25-1.67,1.59-2.62.29-.82.48-1.75.49-2.62,0-.54-.24-1.12-.62-1.5s-.97-.65-1.5-.62c-1.16.05-2.12.93-2.13,2.13,0,.19-.02.37-.04.56l.08-.56c-.09.63-.25,1.25-.5,1.84l.21-.51c-.14.33-.31.65-.53.94l.33-.43c-.12.16-.25.3-.41.42l.43-.33c-.11.08-.22.15-.34.21l.51-.21c-.11.05-.23.08-.35.09l.56-.08c-.11.01-.23.01-.34,0l.56.08c-.14-.02-.28-.06-.41-.11l.51.21c-.16-.07-.3-.15-.44-.26l.43.33c-.1-.08-.19-.18-.28-.28l.33.43c-.08-.1-.14-.21-.19-.33l.21.51c-.06-.15-.1-.31-.13-.47l.08.56c-.04-.28-.03-.56.01-.84l-.08.56c.07-.49.23-.97.42-1.43l-.21.51c.13-.31.28-.61.45-.9.27-.48.36-1.1.21-1.64-.14-.49-.52-1.03-.98-1.27-.49-.26-1.09-.39-1.64-.21s-.99.49-1.27.98h0Z"/><path class="cls-3" d="m295.25,210.85c-.57-.09-1-.13-1.58.02-.33.08-.67.23-.95.43-.63.44-1.12.96-1.51,1.62-.31.53-.56,1.12-.7,1.72-.19.79-.2,1.51-.08,2.3.1.65.46,1.33.95,1.77.77.69,1.72.94,2.73.8.78-.1,1.55-.38,2.19-.84.7-.51,1.35-1.1,1.73-1.9.29-.61.44-1.1.48-1.78s-.15-1.22-.41-1.79c-.43-.97-1.4-1.73-2.35-2.15-.24-.16-.51-.24-.79-.25-.28-.06-.56-.05-.85.04-.49.14-1.03.52-1.27.98-.26.49-.39,1.09-.21,1.64.16.49.48,1.05.98,1.27.32.14.62.31.9.52l-.43-.33c.16.13.31.27.44.44l-.33-.43c.1.13.18.27.25.43l-.21-.51c.05.13.09.26.11.4l-.08-.56c.02.15.02.29,0,.44l.08-.56c-.02.18-.07.35-.14.51l.21-.51c-.09.21-.21.41-.35.59l.33-.43c-.17.21-.36.4-.58.57l.43-.33c-.23.18-.49.32-.76.44l.51-.21c-.23.1-.47.17-.72.2l.56-.08c-.14.02-.28.02-.42,0l.56.08c-.1-.01-.19-.04-.29-.08l.51.21c-.08-.03-.14-.07-.21-.12l.43.33c-.06-.05-.12-.11-.17-.17l.33.43c-.06-.08-.11-.17-.15-.26l.21.51c-.06-.15-.1-.3-.12-.46l.08.56c-.03-.25-.02-.5,0-.75l-.08.56c.05-.38.16-.76.3-1.11l-.21.51c.13-.3.29-.59.49-.86l-.33.43c.13-.17.27-.32.44-.45l-.43.33c.11-.09.23-.16.36-.21l-.51.21c.1-.04.19-.07.3-.08l-.56.08c.09-.01.19,0,.28,0l-.56-.08h.03c.28.09.56.11.85.04.28-.01.55-.1.79-.25.44-.26.86-.76.98-1.27.12-.54.1-1.15-.21-1.64-.28-.44-.74-.89-1.27-.98h0Z"/><path class="cls-2" d="m328.03,320.36c4.05-8.84,1.31-14.07-1.55-19.02s-11.84-9.41-11.84-9.41c0,0-6.31,9.67-6.95,12.17s-.99,9.21-.99,9.21c0,0-36.47-10.15-45.87-6.73-9.4,3.42-14.43,5.01-14.17,11.56,0,0,.99,22.59,24.17,23.06,23.18.46,35.88-6.19,35.88-6.19,0,0-4.35,15.8-3.6,21.59s4.37,11.17,4.37,11.17c0,0,8.88-2.75,11.71-8.02s8.58-27.24,8.58-27.24c0,0,5.95,3.81,9.51,8.38,2.94,3.78,3.28,8.3,5.87,9.72,4.62,2.53,1.03-14.13,0-15.59s-8.17-11.55-8.17-11.55l-6.92-3.09Z"/><path class="cls-3" d="m151.4,197.98c-.61.17-1.21.46-1.8.78-.22.11-.38.3-.6.42-.76.44-1.53.94-2.2,1.54-.3.27-.59.55-.88.83-.35.37-.71.75-1.11,1.09-.13.11-.17.05-.17-.13,0-.17.01-.48.13-.77.23-.5.47-1,.76-1.47.31-.45.69-.85,1.12-1.21.51-.42.92-.99,1.46-1.42.58-.48,1.23-.89,1.9-1.26.42-.21.85-.42,1.3-.58.67-.28,1.4-.38,2.1-.54.28-.04.56-.1.84-.18.28-.06.57-.1.87-.14.13-.02.26-.03.39,0,.47.09.6.27.56.83,0,.13-.01.25-.03.38-.07.41-.31.73-.59.85-.84.37-1.51.33-2.28.54-.55.15-1.14.25-1.73.48l-.02-.05Z"/><path class="cls-3" d="m130.99,275.43c1.13-.22,2.27-.47,3.4-.78.41-.11.8-.29,1.22-.41,1.46-.41,2.98-.7,4.47-1.13.66-.19,1.32-.38,1.97-.57.42-.12.83-.26,1.26-.36.43-.08.88-.13,1.32-.17.28-.01.29.16.14.44-.15.28-.44.74-.87,1.03-.76.48-1.55.86-2.34,1.26-.81.34-1.67.58-2.54.79-1.05.25-2.05.76-3.11,1.07-1.17.34-2.35.66-3.55.93-.73.18-1.48.3-2.22.46-1.12.21-2.26.35-3.38.53-.87.15-1.71.38-2.59.56-.19.04-.38.09-.58.06-.73-.11-.96-.37-1.12-.8-.04-.1-.08-.2-.1-.29-.07-.3.22-.62.71-.95.36-.25.73-.39,1.1-.47.37-.1.74-.17,1.12-.24.75-.16,1.51-.25,2.26-.39,1.13-.17,2.27-.38,3.4-.64l.02.06Z"/><path class="cls-3" d="m162.62,276.76c.61,1.19,1.27,2.37,1.98,3.52.25.42.57.8.83,1.22.9,1.5,1.86,2.95,2.82,4.42.43.65.93,1.25,1.43,1.84.61.78,1.19,1.58,1.53,2.61.1.33.1.27-.18.17-.28-.1-.97-.14-1.51-.44-.43-.31-.88-.59-1.28-.93-.35-.38-.69-.76-1.03-1.15-.65-.79-1.3-1.6-1.81-2.51-.63-1.08-1.49-2.04-2.22-3.08-.79-1.15-1.53-2.33-2.26-3.53-.43-.75-.87-1.48-1.29-2.24-.64-1.14-1.21-2.32-1.81-3.48l-.75-1.33c-.27-.43-.52-.89-.74-1.36-.1-.21-.22-.4-.31-.62-.16-.41-.1-.73-.02-.95.08-.23.29-.39.59-.54.13-.07.25-.15.37-.19.36-.15.99.05,1.34.51.95,1.38,1.65,2.92,2.48,4.49.62,1.16,1.22,2.36,1.89,3.53l-.05.04Z"/><path class="cls-3" d="m425.42,216.13c1.2-.09,2.41-.2,3.62-.37.44-.06.87-.19,1.31-.25,1.56-.23,3.12-.45,4.67-.77.69-.13,1.37-.3,2.04-.49.86-.26,1.74-.43,2.67-.47.29,0,.32.24.16.58-.15.34-.46.82-.93,1.08-.81.48-1.69.76-2.58,1.02-.88.28-1.81.41-2.74.53-1.12.13-2.22.51-3.34.73-1.23.24-2.47.44-3.72.61-.77.11-1.54.19-2.32.26-1.17.12-2.36.16-3.54.23-.46.04-.92.08-1.38.12-.46.06-.93.08-1.42.08-.21,0-.42.02-.64,0-.78-.3-.97-.58-.97-1.12,0-.13,0-.25.01-.36.06-.38.45-.65.96-.8.75-.26,1.44-.15,2.21-.25.77-.04,1.54-.07,2.32-.11,1.18-.08,2.37-.17,3.58-.3v.06Z"/><path class="cls-3" d="m460.42,216.5c.46,1.4.83,2.8,1.18,4.21.14.51.31,1.01.39,1.53.29,1.84.52,3.67.72,5.49.09.81.21,1.61.34,2.4.18,1.02.21,2.06.21,3.1,0,.33-.09.3-.28.05-.18-.24-.53-.69-.77-1.24-.45-.98-.73-1.98-1-2.99-.13-.5-.27-1-.39-1.51-.1-.51-.19-1.02-.27-1.54-.18-1.24-.66-2.46-1.03-3.66-.36-1.35-.73-2.69-1.18-4.01-.28-.81-.56-1.62-.9-2.4-.5-1.19-1.06-2.37-1.75-3.46-.28-.41-.6-.79-.92-1.16-.33-.36-.69-.7-1.03-1.06-.15-.16-.32-.29-.47-.44-.28-.28-.41-.52-.38-.78,0-.12.03-.24.09-.37.07-.14.17-.29.27-.43.09-.13.15-.26.22-.35.17-.25.98-.5,1.54-.14,1.58,1.16,2.78,2.84,3.71,4.62.7,1.32,1.26,2.71,1.77,4.1l-.06.03Z"/><path class="cls-3" d="m252.59,464.8c.4-1.7.86-3.39,1.32-5.08.16-.62.26-1.25.42-1.86.59-2.17,1.17-4.34,1.72-6.52.26-.96.47-1.94.68-2.91.14-.62.25-1.25.41-1.86.17-.61.36-1.23.56-1.83.13-.38.21-.31.3.05.08.35.23,1.01.23,1.75-.05,1.31-.23,2.59-.38,3.88-.15,1.29-.41,2.57-.74,3.83-.39,1.52-.56,3.14-.85,4.71-.33,1.73-.65,3.45-1.04,5.17l-.69,3.17c-.33,1.6-.7,3.21-.96,4.81-.19,1.25-.28,2.49-.45,3.73-.05.27-.09.54-.16.81-.25,1-.51,1.28-1.03,1.41-.12.03-.23.07-.34.08-.35.04-.62-.44-.69-1.22-.05-.58-.09-1.16-.12-1.75.02-.58.05-1.16.1-1.74.07-1.17.33-2.32.54-3.48.34-1.72.74-3.44,1.12-5.16h.06Z"/><path class="cls-3" d="m247.3,431.47c1.55.45,3.1.86,4.67,1.23.57.14,1.15.22,1.73.34,2.02.46,4.06.84,6.13,1.08.91.13,1.84.18,2.75.22.29.01.59,0,.88,0,.29.02.59.07.88.11.59.07,1.18.17,1.78.27.37.07.33.11.02.26-.31.13-.87.53-1.56.74-1.23.44-2.47.28-3.71.29-1.24-.03-2.46-.27-3.68-.51-1.45-.31-2.98-.46-4.47-.75-1.63-.34-3.24-.73-4.84-1.19-.98-.27-1.96-.58-2.93-.87-1.48-.45-2.93-.98-4.39-1.45-1.12-.39-2.27-.64-3.38-1.05-.25-.08-.49-.15-.73-.26-.89-.38-1.13-.61-1.16-1.08,0-.11-.02-.22-.01-.31.04-.33.51-.42,1.2-.27,2.06.42,4.1,1.13,6.18,1.77,1.54.49,3.09.96,4.66,1.39v.05Z"/><path class="cls-3" d="m398.84,396.87c2.13,1.8,12.66-1.13,15.15-3.28,2.49-2.15-12.08,8.36-12.08,8.36l-3.07-5.08Z"/><path class="cls-3" d="m332.28,310.06c.21-.83.25-1.68.38-2.53.07-.85.1-1.71.11-2.57-.03-.62-.11-1.25-.13-1.87-.17-2.2-.56-4.41-1.38-6.49l-.61-1.36c-.26-.42-.52-.84-.77-1.26-.32-.55-.75-1.01-1.1-1.54-.36-.53-.83-.96-1.23-1.46-.26-.31-.16-.35.17-.21.32.14.96.4,1.57.9l.74.72c.24.25.52.48.69.77.38.57.8,1.13,1.13,1.74.3.62.65,1.22.89,1.86.23.65.48,1.29.65,1.96.37,1.6.89,3.24.99,4.92l.1,1.38-.02,1.38c.01.92-.11,1.84-.2,2.75-.04.56-.17,1.12-.27,1.67-.12.55-.18,1.11-.35,1.65-.43,1.65-.98,3.28-1.7,4.81-.3.59-.51,1.21-.82,1.78-.31.57-.61,1.15-.95,1.72-.14.25-.32.47-.49.71-.67.85-.97,1.05-1.39,1-.1-.01-.2-.01-.28-.04-.27-.1-.2-.59.14-1.26.55-.97.96-2.04,1.46-3.05.42-1.05.85-2.1,1.24-3.18l.46-1.19.36-1.23c.27-.81.42-1.66.59-2.5h.05Z"/><path class="cls-3" d="m265.19,308.1c-3.1.43-6.21,1.07-8.91,2.38-.98.49-1.84,1.12-2.59,1.79-2.68,2.44-3.78,6.56-3.46,10.53.13,1.78.6,3.53,1.19,5.21.19.54.38,1.08.62,1.6.22.53.46,1.05.72,1.56.14.25.2.54.32.81.1.27.24.53.33.81.2.56.45,1.09.71,1.63.3.69.25.61-.28.23-.51-.4-1.72-.99-2.75-2.08-1.46-2.1-2.58-4.5-3.06-7.06-.52-2.54-.64-5.23-.02-7.84.33-1.56.91-3.12,1.69-4.58.38-.74.89-1.41,1.41-2.08.28-.32.58-.63.89-.92.32-.26.64-.55.98-.78,2.99-2.08,6.35-2.98,9.65-3.61,2.04-.36,4.1-.58,6.14-.71,3.11-.2,6.22-.13,9.3.04,2.39.14,4.75.24,7.13.65.53.09,1.03.21,1.55.37,1.92.63,2.46,1.13,2.59,1.82.03.16.09.32.08.45-.04.43-.86.41-2.17.19-.97-.18-2-.21-3.02-.36-1.01-.13-2.05-.23-3.1-.32-2.1-.17-4.24-.28-6.38-.29-3.19-.01-6.4.14-9.54.6v-.07Z"/><path class="cls-3" d="m283.7,305.03s22.32,13.38,22.99,8.28c.68-5.09,1.66-16.45,1.66-16.45,0,0-19.76,10.42-24.65,8.17Z"/><path class="cls-3" d="m297.84,207.76c4.48.55,8.35,2.98,11.12,6.2.47.62.99,1.19,1.39,1.86.21.32.43.64.63.97l.52,1.04c1.13,2.47,1.71,5.19,1.58,7.87-.11,2.69-.9,5.29-2.2,7.57-1.17,2.02-2.74,3.8-4.59,5.17-1.19.87-2.49,1.6-3.89,2.1-.69.26-1.42.43-2.16.5-.37.04-.73.08-1.1.07-.37,0-.73.04-1.1-.06-.92-.29-.76-.37-.07-.91.34-.27.81-.58,1.33-.93.26-.19.54-.36.82-.54.14-.09.29-.19.44-.29.16-.07.31-.14.48-.21,2.31-.96,4.29-2.56,5.85-4.43.77-.96,1.43-1.97,1.89-3.13.54-1.12.82-2.33,1.08-3.56.21-1.49.1-3.07-.3-4.58-.4-1.52-1.12-2.94-1.95-4.25-1.82-2.91-4.67-5.17-7.98-6.22-2.01-.65-4.19-.71-6.28-.24-.4.06-.79.18-1.17.32-.38.14-.78.24-1.16.4-.74.36-1.5.67-2.18,1.15-1.43.84-2.66,2.01-3.72,3.27-1.62,2.01-2.55,4.44-2.98,6.86-.06.54-.16,1.06-.19,1.6-.19,1.99-.27,2.6-1.32,3.14-.23.12-.45.28-.68.37-.75.31-1.5-.59-1.7-2.44-.24-2.72.34-5.6,1.56-8.2,1.22-2.61,3.08-4.97,5.4-6.83,3.41-2.77,8.07-4.29,12.6-3.75v.1Z"/><path class="cls-3" d="m280.29,220.37c.08,2.89.73,5.79,1.89,8.5.5.96.97,1.93,1.56,2.83l.73,1.24c.26.4.56.78.84,1.17.56.79,1.15,1.56,1.81,2.26,1.31,1.43,2.79,2.73,4.39,3.88,1.42,1.01,3,1.81,4.62,2.42,1.04.39,2.1.69,3.17.99,1.09.25,2.17.5,3.27.75.69.17.62.43,0,.81-.61.38-1.87,1.01-3.3.85-2.55-.15-5-.98-7.26-2.1-2.26-1.13-4.35-2.6-6.09-4.44-1.04-1.09-2.12-2.18-3.08-3.39-1.02-1.15-1.9-2.44-2.71-3.75-1.72-2.93-2.81-6.22-3.25-9.56-.09-1.03-.21-2.07-.22-3.1.04-1.04-.03-2.07.13-3.09.28-3.11,1.11-6.16,2.29-8.99.19-.57.48-1.09.7-1.64.25-.54.43-1.11.71-1.63.55-1.05,1.03-2.15,1.71-3.13.28-.44.53-.9.84-1.34,1.21-1.55,1.88-1.81,2.84-1.46.22.08.46.14.66.25.65.38.62,1.38-.04,2.52-1.96,3.37-3.9,6.8-5,10.56-.84,2.77-1.29,5.68-1.12,8.58h-.09Z"/><path class="cls-3" d="m292.35,201.46s16.94-6.52,14.55-22.88c-2.58-17.66-18.38-20.92-25.53-19.58,0,0-10.73,3.3-14.97,8.02l-4.24,4.72s-17.69-5.03-27.37-.76c-9.67,4.27-21.12,9.36-26.77,17.21s-5.9,23.9-5.32,26.94c.58,3.04,2.99,12.4,2.99,12.4,0,0-26.35,9.87-22.33,36.49,3.77,24.92,20.61,32.86,30.21,34.98,10.46,2.32,17.28,1.08,17.28,1.08,0,0-4.91-.04-6.9-6.49-2-6.45,1.36-10.04,3.59-11.41s10.51-2.31,10.51-2.31l-7.65-12.75s-1.56-11.45.46-14.31c2.02-2.86,7.62-6.34,7.62-6.34,0,0-1.39-9.05-1.14-11.65s4.14-12.39,6.78-14.67,11.35-5.02,11.35-5.02c0,0,11.6-1.22,14.3-3.15,2.71-1.93,8.16-9.31,8.16-9.31l14.43-1.19Z"/><path class="cls-3" d="m105.72,190.7c1.9,1.09,3.59,2.29,5.27,3.55.61.46,1.27.85,1.85,1.39.26.24.52.48.78.76.13.14.28.29.43.47l.32.42c.43.56.83,1.15,1.18,1.76.72,1.22,1.3,2.57,1.59,3.98.28,1.25.33,2.56.13,3.79-.21,1.59-.88,3.1-2.02,4.17-.34.34-.37.25-.4-.21-.02-.23-.05-.55-.11-.93-.03-.19-.08-.4-.1-.6,0-.19,0-.39.01-.59.04-.34.04-.69.07-1.01.05-.32.06-.64.08-.95.01-.63-.03-1.23-.15-1.82-.12-1.18-.53-2.34-1.11-3.53-.35-.71-.86-1.38-1.47-1.98-.14-.14-.32-.33-.41-.4-.13-.11-.29-.23-.46-.35l-1.06-.75c-1.57-1.14-3.22-2.27-4.91-3.24-1.03-.59-2.13-1.18-3.11-1.48-.27-.08-.56-.18-.82-.03l-.26.11-.35.21c-.25.14-.48.34-.72.52-.45.4-.89.84-1.27,1.35-.42.54-.75,1.14-1.04,1.75-.32.6-.59,1.23-.87,1.85-.12.28-.21.56-.34.83-.12.25-.23.45-.34.62-.12.16-.26.27-.39.36-.27.18-.53.24-.88.25-.16,0-.32.04-.47.03-.47,0-.78-.65-.79-1.66.17-1.42.56-2.82,1.14-4.2.66-1.34,1.53-2.64,2.74-3.85.32-.3.65-.6,1.03-.88l.61-.43.91-.51c.16-.04.3-.12.47-.13.16-.04.31-.11.48-.11.33-.04.66-.04.98,0,.33.03.65.11.97.18.3.1.47.15.68.23.8.3,1.46.63,2.12.97l-.04.09Z"/><path class="cls-3" d="m99.66,196.52c1.46.3,2.58.82,3.65,1.37,1.05.57,2.08,1.13,3,1.84.68.49,1.4.93,2.04,1.47,1.15.97,2.24,1.85,3.33,3.12.36.45.56.84.7,1.19.16.36.3.72.42,1.09.24.73.45,1.45.59,2.2.27,1.31.4,2.66.34,3.99-.04,1.7-.55,3.48-1.72,4.75-.35.4-.42.26-.48-.24-.04-.5-.28-1.4-.22-2.21l.02-.55c0-.18-.02-.37,0-.54.04-.35.02-.71.02-1.07-.03-.71-.1-1.42-.25-2.13-.22-1.4-.62-2.87-1.16-4.17-.08-.19-.17-.36-.21-.41-.06-.09-.24-.27-.38-.41-.33-.3-.7-.6-1.08-.88-.78-.57-1.61-1.09-2.44-1.59-1.83-1.08-3.65-2.26-5.52-2.98l-.84-.27c-.25-.03-.56-.15-.77-.13-.11,0-.23-.03-.33-.02-.09.02-.18.04-.28.05-.09-.01-.2.08-.31.11-.11.06-.22.07-.32.16-.68.4-1.35,1.11-1.93,1.87-.59.76-1.12,1.61-1.57,2.5-.69,1.39-1.15,2.86-1.67,4.32-.12.32-.2.65-.33.97-.25.59-.45.96-.7,1.18-.27.22-.56.29-.94.29-.17,0-.35.02-.51,0-.27-.03-.45-.21-.58-.51-.13-.3-.21-.73-.13-1.22.19-1.46.54-2.92,1.02-4.38.51-1.45,1.2-2.87,2.07-4.29.67-1.05,1.4-2.09,2.53-3.08.32-.24.63-.48.96-.71.41-.21.78-.43,1.25-.58.49-.13,1.04-.29,1.47-.26h.68c.22.02.39.07.58.1v.09Z"/><path class="cls-3" d="m125.98,204.23c1.3,1.76,2.94,3.26,4.79,4.39.92.56,1.89,1.06,2.85,1.36,1.09.3,1.18.31,1.99-.08.72-.45,1.52-1.21,2.23-2.08.72-.88,1.41-1.84,2.1-2.83,1.38-1.98,2.74-4.06,4.37-6.05,1.18-1.45,2.48-2.91,4.24-4.07.88-.57,1.89-1.05,3.01-1.3l.85-.14,1-.03c.71,0,1.54.18,2.18.56,1.19.66,1.78,2.08,1.81,3.37.05,1.15-.14,2.01-.36,2.88-.48,1.69-1.13,3.19-1.8,4.67-1.36,2.93-2.88,5.71-4.4,8.47-3.02,5.51-6.22,10.92-8.59,16.59-.51,1.25-.97,2.53-1.29,3.8-.16.64-.28,1.26-.35,1.9-.06.68-.13,1.35-.17,2.03-.17,2.71-.1,5.45.14,8.15.25,3.48.83,6.94,1.52,10.37.35,1.71.71,3.43,1.17,5.12.45,1.7.95,3.37,1.44,5.07.66,2.1.42,1.91-.75.37-1.2-1.52-3.23-4.56-4.54-8.58-2.25-7.12-3.22-14.66-2.45-22.28l.07-.71.11-.79c.09-.52.2-1.02.32-1.51.25-.98.55-1.91.88-2.82.66-1.81,1.44-3.53,2.24-5.21,1.63-3.36,3.43-6.57,5.25-9.75,2.17-3.8,4.37-7.69,6.16-11.67.44-.99.85-1.99,1.19-2.98.32-.98.6-1.99.67-2.78.02-.35,0-.44-.1-.62-.09-.16-.27-.25-.44-.28-.32-.06-1.36.04-2.14.39-1.83.77-3.48,2.52-4.94,4.35-1.47,1.87-2.8,3.92-4.25,5.96-.73,1.02-1.48,2.04-2.36,3.03-.9.97-1.84,2-3.38,2.62-.37.16-.8.25-1.23.31l-.66.02c-.21-.01-.39-.05-.59-.07-.75-.12-1.39-.33-2.03-.56-1.26-.48-2.42-1.11-3.53-1.83-1.35-.9-2.55-1.99-3.66-3.15-.52-.62-1.07-1.2-1.52-1.87l-.7-.98-.61-1.03c-1.61-2.77-2.59-5.84-3.09-8.94-.43-2.35-.48-4.75-.38-7.09.1-2.35.37-4.67.71-6.97.68-4.58,1.72-9.11,2.35-13.48.1-.84.18-1.7.1-2.41-.03-.35-.14-.65-.2-.72,0,0-.03.02,0-.04-.04.06-.02.03-.02.02-.05.02-.1-.02-.24.03-.11,0-.27.09-.43.16-.16.08-.31.12-.47.22-.31.23-.64.39-.93.66-.61.5-1.17,1.1-1.71,1.71-2.1,2.56-3.64,5.62-4.71,8.79-.48,1.4-.81,2.81-1.09,4.26-.17.67-.2,1.3-.3,1.86-.1.57-.15,1.09-.19,1.56-.04.47-.09.9-.14,1.29-.02.39-.04.74-.07,1.06-.15,1.28-.29,2.03-.63,2.68-.15.3-.28.69-.43.88-.25.32-.56-.08-.94-1.13-.2-.52-.38-1.21-.46-2.05-.05-.42-.1-.88-.14-1.37-.02-.49,0-1.01,0-1.57.1-3.29.77-6.6,1.93-9.78,1.19-3.17,2.8-6.23,5.19-8.96.32-.33.62-.68.96-1,.36-.32.72-.64,1.1-.94.87-.58,1.65-1.19,3.2-1.47.16-.04.47-.03.71-.01.26.02.5.04.82.16.62.18,1.13.6,1.51,1.06.14.2.28.42.4.64.12.23.15.37.23.56.14.39.18.66.24.98.17,1.17.11,2.07.06,2.98-.22,3.56-1.03,6.72-1.58,9.96-.86,4.76-1.57,9.53-1.33,14.11.04,1.15.21,2.25.42,3.37.09.56.19,1.12.36,1.66.16.54.27,1.1.46,1.62.68,2.14,1.72,4.13,3.04,5.88l-.06.06Z"/><path class="cls-3" d="m405.9,103.98l.42.24c.14.09.27.22.41.33.27.23.55.44.8.74.26.28.52.55.76.84l.36.44.23.3,1.46,2.01c.94,1.32,1.87,2.59,2.86,3.78.72.87,1.56,1.62,2.34,2.46,1.38,1.47,2.88,2.88,4.42,4.28.77.72,1.55,1.39,2.35,2.23.2.22.41.43.63.78.25.4.3.61.43.9.2.52.38,1.02.55,1.52.61,1.77,1.21,3.52,1.88,5.22.92,2.15,1.64,4.38,2.58,6.49.2.72.1.7-.55.37-.64-.34-1.66-1.14-2.46-2.32-.35-.53-.67-1.06-.99-1.59-.31-.54-.56-1.1-.82-1.66-.52-1.11-1-2.23-1.46-3.35-.46-1.11-.85-2.28-1.26-3.31-.05-.13-.1-.26-.15-.36l-.11-.25v-.02s-.04.03.04-.04l.23-.18.23-.18.11-.09.06-.05.03-.02c-1.38,1.09-.38.3-.69.54l-.08-.1c-.04-.06-.14-.16-.22-.25-.35-.37-.78-.78-1.21-1.19-2.1-1.96-4.66-3.75-6.83-5.95-2.38-2.44-4.27-5.34-6.14-7.78-.17-.24-.36-.48-.59-.72-.22-.22-.49-.48-.83-.5-.38-.03-.65.31-.7.66-.31.99.9,4.55,2.17,7.07,1.03,2.07,2.34,3.94,3.68,5.76.3.4.58.79.86,1.2.51.77.83,1.27.96,1.7.12.44.09.79-.03,1.17-.06.17-.08.37-.15.51-.12.24-.38.29-.8.18-.42-.12-.99-.4-1.52-.92-.8-.76-1.62-1.54-2.28-2.43-.68-.88-1.31-1.8-1.9-2.75-1.19-1.91-2.25-3.93-3.13-6.1-.26-.67-.52-1.34-.73-2.04-.05-.18-.11-.35-.16-.53l-.18-.69c-.08-.32-.13-.65-.19-.97-.07-.33-.11-.64-.12-.96-.12-1.27.05-2.41.55-3.22.26-.4.53-.81.96-1.09.2-.15.43-.29.66-.39.25-.08.48-.2.72-.26.47-.03.88-.06,1.29,0,.21,0,.42.11.62.16.21.05.42.16.63.28v.1Z"/><path class="cls-3" d="m299.72,298.97c6.64-2.85,12.5-7.54,16.84-13.45.72-1.11,1.52-2.19,2.15-3.35l.92-1.77c.3-.59.65-1.16.89-1.79,2.04-4.25,3.33-8.88,3.99-13.61.67-4.73.72-9.57.25-14.37-.44-4.26-1.4-8.48-2.63-12.56l-1.36-3.88c-.54-1.26-1.05-2.53-1.54-3.81-1.11-2.52-2.22-5.04-3.34-7.56-.61-1.64-.41-1.51.73-.47.57.51,1.35,1.28,2.29,2.22.87.98,1.7,2.26,2.52,3.68.38.63.66,1.3.99,1.95.32.66.64,1.31.93,1.98.61,1.33,1.04,2.72,1.57,4.09.54,1.36.88,2.79,1.31,4.18.45,1.39.71,2.84,1.04,4.27,1.15,5.75,1.45,11.69.86,17.56-.3,3.52-.98,7.06-1.83,10.59l-.8,2.61-.4,1.31-.51,1.27-1.03,2.54c-.4.82-.84,1.62-1.26,2.43l-.7,1.32c-.26.43-.55.84-.82,1.26-.56.83-1.1,1.68-1.68,2.49-.62.78-1.23,1.57-1.86,2.34-.67.74-1.32,1.49-2.01,2.21-2.78,2.86-5.93,5.36-9.36,7.38-2.09,1.28-4.33,2.28-6.59,3.2-2.29.86-4.62,1.58-7,2.1-7.21,1.6-14.77,1.37-21.87-.23-5.53-1.23-10.84-3.23-15.66-6.29-.53-.34-1.05-.68-1.57-1.02-.51-.37-1-.75-1.5-1.14-.92-.73-1.61-1.44-2.2-2.01-.55-.61-.97-1.13-1.27-1.59-.6-.93-.72-1.65-.66-2.33.03-.31.01-.68.11-.91.33-.8,1.92.24,4.33,2.24,7.21,5.88,16.59,9.69,26.37,10.4,7.24.57,14.67-.61,21.32-3.57l.05.08Z"/><path class="cls-3" d="m225.8,290.39c-.34,2.42.74,5.01,2.89,6.77.77.66,1.69,1.12,2.63,1.54,3.31,1.56,7.41,1.68,11.06.32.81-.29,1.62-.68,2.33-1.1.71-.43,1.33-.97,1.83-1.59,1.36-1.56,1.86-3.7,1.69-5.95-.06-.7.12-.69.59-.16.43.51,1.28,1.68,1.24,3.3-.02,1.4-.41,2.87-1.19,4.13-.83,1.21-1.95,2.2-3.15,2.91-1.14.64-2.33,1.25-3.61,1.61-1.27.36-2.58.62-3.91.65-3.14.13-6.5-.21-9.44-1.75-1.6-.84-3.06-1.99-4.2-3.44-1.15-1.44-1.97-3.19-2.23-5.04-.11-.57-.11-1.14-.13-1.71.05-.57.06-1.14.18-1.69.18-1.11.57-2.16,1.01-3.15l.57-1.09.65-1.03c.48-.66.92-1.29,1.55-1.93,1.22-1.23,2.73-2.03,4.28-2.57,2.42-.82,5.01-1.04,7.54-.51.54.15,1.11.22,1.64.46,1,.37,1.58.8,1.92,1.18.3.44.36.84.27,1.32-.04.22-.05.45-.12.63-.24.61-1.22.68-2.38.32-1.72-.58-3.51-.79-5.25-.65-1.72.16-3.44.68-4.67,1.64-.25.16-.43.37-.65.55-.18.23-.35.36-.57.68-.43.56-.8,1.13-1.14,1.72-.66,1.18-1.07,2.41-1.16,3.64h-.09Z"/><path class="cls-3" d="m231.51,257.14c-.58,1.78-.79,3.69-.56,5.59.08.7.32,1.36.5,2.03.32,1.2.76,2.39,1.34,3.54.31.56.62,1.15.97,1.65.36.52.79,1.03,1.24,1.55.8.92,1.7,1.86,2.51,2.95,1.04,1.35,1.69,3.4,1.02,5.07-.34.51-.3.41-.68-.02-.21-.21-.4-.49-.7-.77-.28-.29-.59-.56-.76-.86-.18-.27-.37-.51-.58-.74-.1-.12-.23-.23-.34-.34-.08-.13-.19-.25-.3-.37-.42-.49-.91-.99-1.46-1.52-.56-.51-1.1-1.13-1.65-1.8-.54-.65-1.12-1.46-1.52-2.26-1-1.86-2.14-3.78-2.65-5.94-.27-1.18-.42-2.38-.44-3.58,0-1.2.11-2.4.33-3.56.29-1.44.76-2.82,1.38-4.12.94-1.98,2.25-3.75,3.8-5.28,1.19-1.19,2.47-2.37,4.19-3.13.37-.17.76-.33,1.18-.43.39-.09.74-.1,1.01-.1.29.03.52.09.7.18.36.19.54.54.6,1.04.03.23.07.46.06.68-.02.38-.19.7-.41.95-.22.23-.49.43-.81.53-1.88.69-3.78,2.2-5.3,4.15-1.11,1.45-2.05,3.12-2.54,4.93l-.09-.02Z"/><path class="cls-3" d="m243.46,223.96l-.92,1.09c-.3.37-.53.79-.8,1.19-.57.78-.95,1.67-1.37,2.55-.17.32-.27.65-.35,1-.09.34-.19.68-.31,1.02-.8,2.37-1.18,4.93-1.03,7.52-.02.58.16,1.14.26,1.7.13.56.2,1.14.44,1.66l.4,1.03c.13.34.21.71.35,1.05.16.33.29.68.39,1.06.1.37.23.73.3,1.14-.01.57.04.47-.43.29-.24-.09-.54-.25-.92-.45-.19-.1-.38-.22-.59-.35-.11-.06-.19-.14-.31-.21l-.24-.27c-.57-.65-.95-1.42-1.33-2.19-.42-.76-.63-1.59-.88-2.42-.12-.42-.25-.83-.34-1.25l-.16-1.29c-.04-.43-.1-.86-.1-1.29,0-.43.08-.87.13-1.3.07-.51.11-1.03.14-1.55.06-.52.15-1.03.21-1.55.08-.52.11-1.05.23-1.56.13-.51.26-1.02.4-1.52l.24-.83c.09-.27.22-.53.33-.79l.7-1.57c.24-.52.58-.99.86-1.49.31-.48.55-1,.93-1.43l1.3-1.65c.47-.52.98-1,1.46-1.5.19-.19.37-.38.56-.56l.63-.49,1.25-.97c.88-.58,1.78-1.13,2.68-1.66.73-.35,1.44-.75,2.16-1.16.74-.33,1.51-.64,2.28-.95.34-.15.68-.27,1.04-.33,1.35-.24,1.82-.05,2.16.94.08.22.17.43.22.65.15.71-.3,1.49-1.08,1.8-1.19.4-2.29.99-3.43,1.42-.54.3-1.09.58-1.65.83-.55.28-1.05.66-1.58.97-.41.22-.77.51-1.13.81l-1.11.86-1,1-.5.5c-.16.17-.29.37-.44.56l-.07-.05Z"/><path class="cls-3" d="m183.75,266.44c.35,6.4,2.08,12.74,5.29,18.32,1.13,2.06,2.62,3.88,4.09,5.71,2.66,3.17,5.78,5.98,9.31,8.23,3.53,2.24,7.41,3.96,11.47,5.13,3.6,1.07,7.39,1.59,11.13,1.68,2.41,0,4.82-.02,7.24-.18,2.44-.06,4.82-.51,7.3-.63,1.55-.07,1.35-.08.15.53-.6.28-1.42.88-2.49,1.29-1.07.4-2.33.96-3.77,1.24-5.05,1.26-10.37,1.32-15.57.57-2.61-.33-5.19-.96-7.69-1.82-2.49-.91-4.91-1.99-7.21-3.32-5.46-3.17-10.76-7.26-14.65-12.47-4.27-5.71-6.94-12.51-8-19.46-.66-4.28-.72-8.63-.29-12.91.7-6.54,3.06-12.9,6.79-18.23,1.45-2.07,3-4.06,4.81-5.82.86-.92,1.84-1.72,2.8-2.54.48-.41,1.02-.75,1.53-1.14.52-.37,1.03-.75,1.59-1.06.96-.58,1.89-1.19,2.94-1.63.48-.21.92-.41,1.33-.59.42-.15.81-.26,1.16-.37.71-.2,1.28-.35,1.78-.38,1-.04,1.61.15,2.14.55.24.18.54.35.69.55.26.34.02.77-.59,1.22-.61.45-1.6.89-2.85,1.48-1.87.79-3.63,1.85-5.35,2.98-.81.64-1.69,1.18-2.45,1.89l-1.18,1.01-1.11,1.1c-2.97,2.93-5.38,6.5-7.14,10.36-1.29,2.88-2.21,5.93-2.7,9.06-.47,3.12-.63,6.45-.4,9.65l-.1.02Z"/><path class="cls-3" d="m153.28,369.27c3.55,4.53,7.36,8.85,11.23,13.1l2.99,3.1,1.5,1.54,1.56,1.49c2.09,1.97,4.12,4.01,6.32,5.85,1.6,1.36,3.14,2.78,4.81,4.05l4.95,3.87c5.92,4.41,12.05,8.54,18.48,12.18,6.46,3.58,13.16,6.74,20.07,9.38,6.17,2.24,12.51,4.1,18.89,5.43,2.05.41,4.12.73,6.18,1.09,1.03.2,2.07.28,3.11.43l3.11.42c4.16.48,8.32.86,12.51,1.48,2.61.17,2.27.53.04.91-1.12.15-2.72.67-4.67.93-.97.12-2.03.24-3.16.28-1.12.02-2.31,0-3.55-.05-2.18-.2-4.36-.41-6.54-.67-2.17-.32-4.32-.73-6.48-1.1-2.15-.41-4.28-.95-6.42-1.43-2.14-.49-4.23-1.17-6.34-1.75-8.39-2.59-16.49-6.08-24.21-10.28-9.23-5.02-18.52-10.85-26.88-17.58-9.2-7.38-17.62-15.72-25.19-24.71-2.38-2.73-4.6-5.59-6.86-8.4-2.17-2.89-4.39-5.74-6.47-8.69-6.38-8.88-12.25-18.19-17.59-27.64-4.12-7.36-8-14.69-11.35-22.37-.71-1.7-1.52-3.32-2.14-5.08-1.22-3.23-1.97-5.38-2.26-6.97-.33-1.57-.36-2.53-.17-3.35.08-.37.14-.85.26-1.09.45-.81,1.75,1.7,3.5,6.33,2.66,6.86,5.88,13.71,9.35,20.54,1.71,3.43,3.6,6.8,5.46,10.2,1.95,3.36,3.88,6.74,5.96,10.04,3.03,4.94,6.27,9.76,9.57,14.54,3.39,4.72,6.82,9.42,10.5,13.91l-.06.06Z"/><path class="cls-3" d="m406.93,275.79c-.8,3.35-1.91,6.62-3.13,9.84-.69,1.59-1.27,3.18-2.08,4.76-.78,1.58-1.65,3.1-2.59,4.56-1.37,2.13-2.79,4.23-4.44,6.13-5.79,6.73-12.86,12.19-20.63,16.26-3.44,1.81-7.06,3.36-10.76,4.54-2.38.75-4.84,1.33-7.35,1.57-.62.08-1.26.11-1.89.14-.63.03-1.26.07-1.89-.01-.63-.03-1.26-.1-1.88-.2-.62-.1-1.25-.16-1.85-.36-1.5-.56-1.24-.62.09-1.06.66-.21,1.58-.48,2.64-.76,1.07-.35,2.27-.64,3.58-.79,4.64-.73,9.23-2.04,13.61-3.99,4.39-1.93,8.58-4.39,12.59-7.18,4.8-3.35,9.09-7.79,12.67-12.54,1.98-2.61,3.73-5.38,5.1-8.31.36-.72.65-1.5.97-2.26.31-.77.64-1.52.93-2.3.53-1.57,1.14-3.1,1.57-4.71,1.2-3.9,2.05-7.91,2.61-11.96.85-6.13,1.16-12.4.71-18.56-.31-4.79-1.2-9.43-2.23-14.04-.21-1.02-.49-2-.74-3.02-.22-.95-.39-1.73-.5-2.4-.13-.66-.22-1.2-.22-1.67,0-.93.2-1.52.58-2.06.17-.24.32-.55.5-.71.31-.28.71-.07,1.18.55.47.62,1.06,1.65,1.51,3.05,2.64,8.32,4.07,17.57,3.96,26.88.01,3.46-.28,6.92-.64,10.38-.47,3.44-1.01,6.88-1.86,10.26h-.09Z"/><path class="cls-3" d="m255.93,455.9l-.95,6.74c-.12.82-.13,1.65-.26,2.47-.43,2.89-.88,5.78-1.23,8.67-.16,1.29-.27,2.58-.35,3.86-.11,1.64-.03,3.31-.72,4.92-.23.5-.4.42-.78-.03-.39-.46-1.08-1.3-1.17-2.26-.03-1.69-.03-3.38.05-5.07.07-1.69.33-3.37.61-5.06.35-2.01.35-4.14.53-6.21.2-2.28.49-4.55.76-6.83l.5-4.2c.23-2.12.53-4.24.67-6.36.11-1.64.02-3.27.02-4.91,0-.36-.04-.72-.02-1.08.05-1.34.38-1.74,1.4-1.92.21-.04.41-.11.6-.13.31-.03.57.1.89.38.34.28.5.68.56,1.18.32,2.95.08,5.99-.23,9.04-.23,2.27-.54,4.54-.8,6.81h-.08Z"/><path class="cls-3" d="m395.76,110.57l.46-.33.5-.28c.17-.04.33-.14.51-.14.18-.03.34-.11.52-.09.36,0,.71.04,1.04.17.34.1.65.29.95.49.28.26.59.47.84.77l.38.42c.15.15.16.2.25.3l.41.53.76,1.04c.97,1.37,1.9,2.7,2.89,4,.39.51.77.98,1.16,1.42l1.25,1.33c1.49,1.59,3.2,3.04,4.88,4.68.42.41.84.84,1.25,1.31.39.46.83,1.03,1.11,1.56.61,1.08,1.06,2.18,1.46,3.28.69,1.95,1.31,3.9,1.9,5.81.76,2.46,1.62,4.85,2.08,7.39-.09.89.02.75-.65.28-.35-.22-.72-.6-1.15-1.08-.21-.24-.42-.51-.63-.8-.1-.15-.21-.3-.31-.45-.07-.17-.15-.33-.22-.51-.95-2.5-1.78-4.99-2.6-7.42-.41-1.21-.84-2.41-1.32-3.53-.24-.56-.5-1.11-.78-1.6-.14-.26-.28-.48-.42-.68-.17-.22-.34-.44-.54-.67-1.98-2.18-4.88-4.04-7.2-6.53-1.32-1.41-2.32-2.85-3.39-4.31l-1.55-2.16c-.26-.35-.51-.69-.77-1.01-.21-.26-.28-.35-.45-.5-.18-.18-.47-.29-.69-.13-.34.15-.6.52-.68.89-.14.6-.12,1.33-.02,2.06.2,1.5.67,3.06,1.24,4.57.58,1.51,1.26,3,2.05,4.42,1.22,2.22,2.68,4.25,4.15,6.26.33.44.66.87.99,1.31,1.2,1.66,1.44,2.26,1.21,3.02-.05.17-.08.37-.16.51-.25.48-1.16.09-2.24-1.06-3.14-3.44-5.71-7.56-7.96-12-.82-1.67-1.6-3.38-2.11-5.33-.26-.97-.41-2.01-.37-3.2.05-.62.07-1.13.43-2.11.21-.37.37-.77.62-1.1.26-.32.52-.65.87-.86l.05.06Z"/><path class="cls-3" d="m427.08,167.5c.94-5.36,2.24-10.55,3.43-15.73.43-1.89.78-3.79,1.18-5.66.36-1.65.68-3.3.93-4.95.09-.81.26-1.65.28-2.44l.07-1.2c.01-.4-.03-.75-.04-1.13-.05-1.38-.76-2.94-1.38-4.48-.65-1.55-1.37-3.09-2.1-4.63-1.3-2.73-2.8-5.39-4.21-8.05l-1.36-2.57c-.44-.87-.86-1.74-1.28-2.62-.81-1.77-1.68-3.52-2.32-5.37-.39-1.16-.3-1.02.39-.23.71.78,2.08,2.17,3.39,4,2.37,3.21,4.42,6.59,6.28,10.12.95,1.75,1.86,3.53,2.74,5.35.87,1.83,1.68,3.67,2.33,5.74.18.57.39,1.38.45,2.05.03.67.13,1.39.09,2.03-.03.64-.04,1.3-.09,1.94l-.19,1.89c-.32,2.5-.72,4.96-1.23,7.36-1.11,5.29-2.47,10.47-3.53,15.7-.63,3.21-1.23,6.44-1.35,9.62,0,.59-.06,1.21,0,1.79.06.58.08,1.15.17,1.75.2,1.22.43,2.44.68,3.66.5,2.43,1.09,4.84,1.76,7.22,1.05,3.69,2.39,7.22,3.75,10.76.31.78.61,1.53.93,2.32.55,1.46.88,2.43.98,3.17.08.74-.03,1.23-.29,1.69-.12.21-.22.46-.35.61-.23.25-.57.12-1.01-.32-.44-.44-.99-1.2-1.46-2.26-2.89-6.26-5.18-13.18-6.91-20.32-.32-1.33-.61-2.66-.88-4.01l-.38-2.03c-.1-.72-.17-1.52-.24-2.28-.09-2.98.3-5.72.7-8.46h.08Z"/><path class="cls-1" d="m392.41,77.98c-20.48-28.83-68.67-13.89-68.67,21.56,0,20.59,20.55,35.27,37.27,35.27,21.45,0,36.73-16.11,37.08-35.27.14-7.35-.93-14.86-5.68-21.56Zm-26.96,35.03c-8.5,0-15.38-6.89-15.38-15.39s6.88-15.38,15.38-15.38,15.38,6.89,15.38,15.38-6.88,15.39-15.38,15.39Z"/><path class="cls-1" d="m362.38,38.94c-.28.85-.07,11.86,3.07,14.96,3.14,3.11-17.91,6.1-17.91,6.1l-5.93-16.78,20.76-4.28Z"/><path class="cls-1" d="m311.63,75.08s13.92,9.04,14.85,7.07-5.27,9.18-4.27,13.71-18.21,2.03-17.88-1.3,7.31-19.48,7.31-19.48Z"/><path class="cls-1" d="m327.6,118.16l-13.67,10.11,11.69,17.34s13.93-14.61,15.27-13.7-7.54-6.33-9.39-8.91-3.9-4.85-3.9-4.85Z"/><path class="cls-1" d="m362.38,141c-.9-1.61.56,17.23,1.69,17.73,1.13.5,18.4.56,21.69-1.26s2.11-5.87.77-9.58c-1.35-3.71-3.43-8.8-3.43-8.8,0,0-18.75,5.43-20.72,1.91Z"/><path class="cls-1" d="m407.99,53.71c-2.48,2.27-9.4,7.86-6.89,10.4,2.51,2.54,8.9,6.46,8.39,10.98s-4.91,1.84-4.91,1.84l-14.37-16.92,10.26-11.13,7.53,4.84Z"/><path class="cls-1" d="m425.17,110.47c.46-4.88-8.51-11.93-10.18-12.15l13.12,2.89-2.94,9.26Z"/><path class="cls-3" d="m355.12,53.29c1.26-.18,2.51-.32,3.76-.42.45-.05.9-.16,1.35-.18.8-.05,1.61-.04,2.41-.05l2.4.09h1.06c.35,0,.7,0,1.05.03.45.04.9.07,1.34.13.45.07.89.18,1.33.3.27.08.23.24,0,.47-.24.22-.67.59-1.16.75l-1.31.4c-.22.06-.43.14-.65.19l-.65.06c-.87.07-1.74.11-2.63.09-1.07-.05-2.14.24-3.2.41-1.17.18-2.34.37-3.51.61-.72.15-1.44.3-2.15.48-1.08.28-2.16.56-3.18,1-.79.35-1.47.9-2.18,1.36-.16.09-.31.2-.48.29-.62.31-.94.14-1.42-.49-.11-.14-.23-.28-.32-.42-.31-.46-.29-1.1.09-1.55.29-.33.59-.65.91-.93.34-.24.7-.48,1.07-.68.75-.4,1.54-.73,2.35-1.01,1.2-.42,2.45-.73,3.69-1l.02.08Z"/><path class="cls-3" d="m311.89,94.09c.85.22,1.73.42,2.61.6.32.07.66.07.98.14,1.15.24,2.29.63,3.43.98.5.15,1.02.28,1.53.4.31.13.64.22.94.4.3.18.58.39.85.59.17.14.11.21-.11.31-.22.09-.62.3-1.01.35-.35.06-.69.07-1.01.07-.32-.02-.63-.09-.94-.15-.62-.12-1.25-.26-1.88-.45-.76-.22-1.59-.21-2.4-.34-.89-.13-1.79-.28-2.69-.44-.56-.1-1.12-.21-1.67-.31-.85-.15-1.68-.41-2.53-.58-.66-.15-1.34-.18-2.02-.32-.15-.03-.31-.03-.44-.11-.13-.06-.23-.12-.31-.18-.08-.08-.11-.18-.15-.27-.06-.19-.05-.38,0-.63.02-.11.04-.22.06-.32.09-.31.44-.55.9-.72,1.19-.1,2.21.2,3.34.38.83.14,1.67.37,2.54.54v.06Z"/><path class="cls-3" d="m399.06,54.93c-.63.53-1.27,1.05-1.88,1.59-.22.2-.4.44-.63.63-.81.68-1.66,1.32-2.44,2.03-.35.31-.67.65-.97,1-.45.39-.79.88-1.42,1.12-.19.08-.22.02-.23-.21-.02-.17-.03-.34-.04-.47,0-.18.04-.36.12-.52l.44-.82c.16-.26.37-.48.56-.72.39-.46.81-.9,1.27-1.31.56-.48.96-1.14,1.47-1.68.56-.6,1.13-1.19,1.71-1.77l1.07-1.08c.54-.55,1.1-1.07,1.58-1.66.37-.46.63-1,.94-1.51.07-.11.12-.24.2-.34.28-.39.52-.38,1.06-.04.12.08.25.15.36.23.38.28.57.71.44,1.07-.38,1.06-1.08,1.91-1.82,2.73-.55.6-1.14,1.19-1.73,1.76l-.04-.04Z"/><path class="cls-3" d="m346.27,47.44c.17.84.35,1.69.55,2.52.07.31.21.59.28.9.24,1.08.43,2.19.72,3.26.12.48.3.94.49,1.39.12.29.2.6.27.9.03.16.08.3.07.48-.02.17-.04.34-.06.53-.04.22-.11.23-.37.15-.19-.06-.39-.11-.54-.16-.11-.04-.24-.07-.34-.12-.08-.06-.16-.12-.22-.2-.2-.27-.42-.53-.59-.81-.12-.3-.23-.6-.34-.91-.21-.62-.37-1.25-.48-1.9-.13-.78-.5-1.51-.71-2.28-.24-.85-.45-1.7-.66-2.55-.13-.53-.26-1.05-.39-1.57-.2-.79-.37-1.6-.62-2.37-.2-.6-.51-1.15-.78-1.73-.06-.13-.11-.25-.14-.39-.13-.5.08-.72.52-.95.11-.05.21-.11.31-.15.34-.14.72-.02,1.04.28.42.46.67.97.87,1.51.21.53.37,1.09.53,1.65.23.83.41,1.68.63,2.51l-.05.02Z"/><path class="cls-3" d="m329.91,125.98l-1.84-1.77c-.56-.54-1.42-1.24-1.38-1.22-.07-.06-.15-.02-.21.03-.1.07-.09.06-.42.27-1.88,1.19-3.76,2.37-5.63,3.56-.84.54-1.67,1.09-2.52,1.61-1.07.67-2.15,1.46-3.57,1.48-.43.02-.41-.08-.24-.49.08-.21.2-.51.32-.87.14-.33.34-.63.6-.87.95-.82,1.97-1.5,2.97-2.26,1.06-.67,2.15-1.33,3.28-1.95.68-.37,1.32-.83,1.96-1.3l.97-.72c.34-.25.59-.44,1.21-.81.14-.1.3-.17.46-.22.16-.05.32-.13.48-.16.16-.07.33-.04.5,0,.17.03.33.07.49.15.32.15.61.33.91.54.23.16.38.29.57.44.71.58,1.36,1.17,2,1.76l2.37,2.17c1.2,1.08,2.4,2.16,3.67,3.12.99.74,2.07,1.3,3.12,1.84.23.12.47.2.68.35.79.53.96.8.93,1.43,0,.14,0,.29-.02.42-.06.44-.62.65-1.46.5-1.25-.19-2.32-.8-3.36-1.4-1.03-.62-2.01-1.32-2.95-2.06-1.37-1.13-2.64-2.35-3.93-3.52l.04-.05Z"/><path class="cls-3" d="m361.37,144.54c-.04-.48.15-.72.25-1.04.13-.3.18-.63.51-.86.52-.43,1.28-.64,2.15-.69h1.28s.51,0,.51,0h.35s1.39.04,1.39.04c.67,0,1.34-.1,2-.1,2.36-.02,4.72-.16,7.06-.55,1.04-.15,2.07-.42,3.06-.73.64-.2,1.26-.47,1.91-.64l.49-.14.52-.06.52-.05c.18-.01.42.12.6.13.49.08.43.06.21.48-.12.18-.17.75-.39,1.06-.1.18-.21.37-.34.55-.06.09-.14.17-.2.27-.08.06-.17.12-.26.17-.63.39-1.3.68-1.98.94-.68.27-1.37.5-2.07.71-1.4.45-2.87.61-4.34.66-1.76.06-3.53.44-5.3.53-.97.05-1.94.07-2.9.07h-.35s-.16-.01-.16-.01l-.31-.02c-.2,0-.45-.05-.66.04-.03.17,0,.36.01.56,0,.17-.01.33.01.53l.06,1.11c.09,1.8.09,3.61.12,5.42,0,1.41.11,2.81-.1,4.3-.03.32-.09.66-.18.99-.21.6-.48.98-.74,1.17-.31.19-.6.21-.94.14-.16-.03-.32-.05-.46-.11-.44-.2-.62-.8-.6-1.5.15-2.03.21-4.36.1-6.79-.03-.89-.18-1.78-.28-2.68l-.19-1.35-.06-.36c-.03-.23-.07-.46-.12-.69l-.29-1.41v-.15s.09.03.09.03Z"/><path class="cls-3" d="m360.74,115.85c-2.44-.69-4.68-2.01-6.57-3.62-.35-.29-.7-.57-1.06-.86-.32-.32-.64-.64-.95-.97-1.07-1.18-1.92-2.52-2.65-3.9-.77-1.39-1.23-2.92-1.54-4.43-.25-1.35-.39-2.72-.37-4.09,0-.88.16-1.76.43-2.6.3-.84.76-1.63,1.34-2.27.38-.39.32-.32.16.1-.2.41-.24,1.27-.21,2.18-.02.39,0,.8.03,1.19.05.4.08.79.08,1.18.05.78.14,1.57.29,2.34.34,1.54.63,3.11,1.25,4.56.8,1.74,2.06,3.39,3.52,4.69,1.58,1.49,3.52,2.52,5.56,3.26.32.11.63.24.95.33l.98.24c.65.19,1.33.25,2,.35,2.04.21,4.15.17,6.19-.22,1.57-.36,3.05-.95,4.47-1.65.31-.15.62-.3.95-.42.6-.25,1-.4,1.35-.38.35.03.61.16.89.39.13.11.27.2.37.31.17.19.18.43.05.73-.13.3-.39.68-.82.99-1.24.99-2.71,1.7-4.26,2.25-.77.29-1.59.47-2.4.69-.82.15-1.66.31-2.5.4-2.51.26-5.1-.04-7.57-.7v-.07Z"/><path class="cls-3" d="m362.35,39.52c-3.14.21-6.35.69-9.5,1.32-1.15.23-2.28.58-3.42.85-1.36.32-2.71.67-4.02,1.07-.33.1-.65.21-.96.32l-.46.17-.2.08-.09.03c-.12.05-.25.1-.38.17-.06.04-.12.08-.16.14-.03.06,0,.13,0,.2.02.13.05.26.08.4l.25.91.56,1.95c.51,1.79,1.13,3.57,1.76,5.31.37,1.13.73,2.27,1.1,3.4.18.57.34,1.14.5,1.72.1.28.13.59.15.9.03.31.09.6.13.9.1.76,0,.69-.52.22-.27-.23-.61-.58-1.13-.96-.45-.41-.81-.95-1.14-1.57-.53-1.03-1.05-2.05-1.55-3.09-.51-1.03-.87-2.12-1.29-3.19-.4-1.08-.78-2.16-1.14-3.26-.18-.55-.32-1.11-.48-1.68-.07-.36-.5-1.64-.57-2.54.02-.25.05-.47.13-.7.08-.25.23-.46.39-.65.73-.86,2.31-1.45,2.84-1.66.75-.29,1.48-.55,2.22-.8,1.47-.5,2.95-.96,4.43-1.33,3.26-.8,6.56-1.42,9.9-1.85,2.06-.25,4.13-.45,6.3-.38.41.01.83.05,1.26.11.38.05,1.03.17,1.52.38.51.22.99.54,1.25,1.03.13.24.26.49.34.75.08.25.21.55.23.73.37,1.67.47,3.22.6,4.78.19,2.42.4,4.77.49,7.16.01.53.07,1.04.05,1.57-.02.98-.11,1.63-.34,2.07-.26.44-.6.67-1.09.84-.22.08-.44.19-.66.22-.36.06-.67-.11-.94-.48-.27-.37-.53-.93-.58-1.63-.23-2.08-.38-4.2-.52-6.33-.18-2.11-.13-4.29-.35-6.26-.04-.35-.08-.71-.14-1l-.04-.22s0-.02,0-.02c0,0,0-.01,0-.02h0s-.23-.06-.35-.07c-1.27-.17-2.89-.1-4.45.03v-.09Z"/><path class="cls-3" d="m367.66,158.68c3.15-.04,6.42-.39,9.63-.89,1.17-.19,2.32-.49,3.49-.71,1.46-.28,2.92-.59,4.33-.98.35-.1.7-.2,1.04-.3l.82-.27c.14-.05.28-.1.41-.18.06-.04.14-.09.16-.16,0-.07-.01-.15-.02-.22l-.07-.37-.21-.8-.48-1.75c-.5-1.82-1.1-3.61-1.74-5.37-.38-1.14-.75-2.28-1.13-3.42l-.54-1.72c-.1-.28-.15-.58-.18-.9-.04-.31-.11-.6-.18-.9-.14-.75-.04-.7.5-.25.28.22.65.56,1.18.94.46.41.85.96,1.2,1.58.54,1,1.05,2.01,1.55,3.03.52,1.01.86,2.08,1.27,3.13.39,1.06.76,2.12,1.1,3.2.18.53.32,1.09.46,1.64l.26.99c.11.5.26.99.31,1.47-.02.39-.02.72-.21,1.08-.18.35-.44.62-.75.86-.49.37-1.09.66-1.68.89-.49.19-.8.29-1.21.43-.76.25-1.51.48-2.27.7-1.51.44-3.02.84-4.53,1.15-3.33.68-6.68,1.17-10.09,1.44-2.11.14-4.19.27-6.47-.07-.22-.04-.37-.07-.64-.13-.26-.07-.51-.14-.75-.25-.47-.2-.93-.48-1.22-.91l-.3-.58-.2-.62-.1-.31-.04-.25-.09-.49c-.1-.65-.17-1.27-.21-1.89-.09-1.24-.14-2.45-.18-3.66-.13-2.42-.25-4.79-.38-7.19-.02-.52-.08-1.04-.08-1.57,0-.98.06-1.61.27-2.06.24-.44.56-.7,1.05-.9.22-.09.43-.21.64-.27.36-.09.68.07.97.43.29.36.58.93.66,1.65.3,2.14.45,4.32.55,6.51.15,2.18.02,4.39.12,6.49l.04.89.07.84.09.62v.02s0,.02,0,.03c0,0-.04-.01,0,0,.03.01.08.02.12.03.08.02.17.04.27.05.19.03.39.06.61.08.86.09,1.81.1,2.77.07v.09Z"/><path class="cls-3" d="m414.67,64.41c-1.86-2.54-3.98-4.99-6.2-7.33-.81-.85-1.71-1.61-2.54-2.43-.74-.72-1.48-1.43-2.24-2.12-.38-.34-.76-.67-1.15-.99l-.58-.46-.29-.22-.14-.1-.05-.04c-.15-.11-.32-.25-.53-.3-.21.02-.32.23-.49.36-.03.03-.08.08-.18.19l-.26.29-.52.59-1.05,1.18c-1.24,1.39-2.41,2.86-3.55,4.33l-2.29,2.75c-.39.45-.78.9-1.18,1.34-.18.23-.43.42-.68.6-.24.19-.46.4-.69.6-.59.49-.59.37-.46-.32.06-.35.16-.83.21-1.47.11-.6.37-1.2.71-1.8.62-1.06,1.26-2.12,1.91-3.16.67-1.03,1.43-1.99,2.17-2.97.75-.97,1.5-1.94,2.32-2.87l1.4-1.52c.77-.83,1.51-1.57,2.56-1.37,1.11.16,2.46,1.18,2.92,1.52.65.48,1.26.96,1.86,1.45,1.21.98,2.38,1.98,3.49,3.04,2.42,2.33,4.71,4.78,6.86,7.37,1.31,1.61,2.59,3.25,3.69,5.12.21.36.41.73.59,1.13.16.35.4.96.49,1.49.09.54.08,1.13-.21,1.61-.13.24-.27.48-.45.69-.17.2-.35.47-.5.59-1.21,1.2-2.47,2.12-3.72,3.07-1.94,1.46-3.82,2.89-5.79,4.24-.44.29-.84.61-1.3.88-.84.51-1.44.78-1.93.82-.51.01-.89-.15-1.3-.47-.19-.15-.39-.28-.54-.44-.25-.27-.26-.63-.1-1.05.17-.42.5-.94,1.06-1.36,1.63-1.31,3.35-2.57,5.07-3.82,1.69-1.28,3.56-2.4,5.1-3.64.28-.23.55-.45.77-.66l.17-.15s.02,0,.02,0c0,0,.01,0,.02,0h0s-.08-.22-.13-.34c-.54-1.16-1.46-2.5-2.4-3.74l.07-.06Z"/><path class="cls-3" d="m317.15,133.07c1.73,2.59,3.75,5.12,5.87,7.52.78.88,1.64,1.67,2.44,2.51.98,1.03,1.98,2.05,3.01,2.98l.78.68.58.48c.11.09.22.17.36.24.07.03.14.06.21.03.06-.03.11-.08.16-.13l.29-.27.62-.67,1.29-1.42c1.25-1.37,2.43-2.82,3.55-4.28l2.25-2.74,1.15-1.35c.18-.23.41-.43.65-.62.24-.19.44-.41.66-.62.55-.51.57-.4.48.29-.04.35-.12.84-.15,1.48-.09.6-.34,1.21-.67,1.83-.56.99-1.14,1.97-1.74,2.94-.58.98-1.31,1.84-1.98,2.75-.69.89-1.39,1.78-2.13,2.64-.36.44-.76.84-1.15,1.27l-.7.75c-.36.35-.7.75-1.07,1.05-.26.16-.51.29-.8.36-.31.07-.62.05-.92-.02-1.11-.22-2.38-1.28-2.84-1.63-.62-.5-1.22-1-1.8-1.51-1.17-1.02-2.3-2.06-3.37-3.15-2.33-2.41-4.51-4.93-6.55-7.6-1.24-1.66-2.45-3.34-3.44-5.29-.11-.23-.22-.47-.33-.71l-.15-.38c-.04-.13-.12-.33-.15-.49-.18-.66-.25-1.36.01-1.99l.28-.5c.11-.16.24-.3.36-.45.25-.34.46-.52.68-.72.44-.4.87-.76,1.31-1.09.88-.68,1.77-1.29,2.65-1.91,1.94-1.38,3.86-2.74,5.78-4.11.43-.29.82-.61,1.26-.89.82-.51,1.38-.8,1.86-.86.49-.03.88.11,1.3.41.19.14.41.25.57.4.26.25.3.61.16,1.04-.15.44-.47.98-1.02,1.43-1.62,1.38-3.36,2.65-5.12,3.89-1.72,1.27-3.64,2.33-5.26,3.52-.2.14-.38.27-.55.41-.17.14-.36.27-.49.4l-.21.18c-.09.08-.03.02-.05.04h-.01s0,.03-.03,0c.1.32.3.76.52,1.18.45.86,1.02,1.75,1.63,2.63l-.07.05Z"/><path class="cls-3" d="m425.77,102.07s-.03-.04-.04-.05c-.09-.03-.35-.09-.51-.14l-1.13-.29-2.29-.55c-.56-.13-1.13-.15-1.69-.29-1.97-.48-3.94-.95-5.91-1.38-.87-.21-1.77-.32-2.64-.42-.56-.11-1.12-.19-1.68-.31-.28-.06-.56-.13-.84-.21-.14-.02-.27-.11-.41-.21-.13-.09-.27-.15-.41-.23-.34-.21-.29-.28.03-.56.16-.15.39-.34.68-.67.29-.25.6-.37.95-.44.61-.1,1.21-.17,1.81-.24.6-.03,1.19.04,1.78.08.59.06,1.18.11,1.76.24.58.14,1.15.29,1.73.47,1.37.43,2.85.47,4.28.73,1.57.28,3.13.6,4.7.94l.96.2c.38.08.76.17,1.11.29.14.07.29.13.41.22.05.05.15.05.17.15l.18.16c.2.26.32.56.4.87.07.25.12.51.13.78.03.27.03.54.02.81v.4s-.04.31-.04.31c-.02.2-.04.41-.07.61-.1.8-.28,1.57-.45,2.34-.26,1.19-.5,2.4-.93,3.56-.09.26-.17.52-.29.77-.23.46-.45.71-.75.8-.32.07-.66,0-1.11-.18-.2-.08-.41-.15-.6-.25-.31-.17-.54-.41-.7-.71-.16-.3-.28-.67-.19-.97.35-1.91.81-3.61,1.31-5.29.07-.28.13-.56.19-.82.02-.11.04-.33.04-.31h.02s.06-.08.03-.1c0,0,0-.02-.02-.02l.04-.08Z"/><path class="cls-3" d="m310.71,76.26c-1.23,2.87-2.25,5.93-3.11,9.02-.31,1.13-.5,2.28-.78,3.42-.24,1-.46,2-.66,3-.1.5-.18,1-.26,1.49l-.1.73-.06.61c-.02.19-.05.4,0,.61.03.12.14.14.24.16l.31.08.19.04.38.07.77.13,1.55.25c1.83.3,3.69.5,5.52.65,1.17.13,2.35.26,3.53.39l1.76.22c.29.02.58.11.87.21.29.09.58.15.88.22.73.18.64.26.01.56-.32.16-.77.35-1.32.69-.56.25-1.2.37-1.9.43-1.24.08-2.47.13-3.7.16-1.23,0-2.45-.12-3.67-.21-1.22-.11-2.44-.22-3.66-.42l-2.11-.38c-1.12-.16-2.07-.51-2.41-1.52-.42-1.05-.23-2.69-.18-3.27.08-.79.17-1.56.28-2.33.22-1.53.47-3.05.81-4.54.75-3.26,1.68-6.47,2.8-9.63.71-1.95,1.47-3.87,2.56-5.77.22-.36.44-.71.73-1.09.36-.45.75-.85,1.24-1.12.25-.12.5-.25.78-.24.27-.02.55-.06.82,0,.26.04.59.04.78.1l.63.15c1.6.45,3.02,1.06,4.47,1.63,2.22.88,4.4,1.74,6.6,2.61.48.2.96.36,1.43.58.87.41,1.42.72,1.73,1.09.3.4.39.8.37,1.32,0,.24.01.48-.03.69-.07.36-.34.59-.79.7-.45.11-1.08.15-1.75-.08-2.04-.61-4.06-1.37-6.05-2.17-2-.75-3.94-1.78-5.81-2.49-.35-.15-.67-.24-1-.36-.28-.08-.69-.2-.57-.17-.01,0,0-.05-.06.02-.7.92-1.4,2.41-1.98,3.83l-.08-.03Z"/><path class="cls-3" d="m374.47,112.83c-1.27.68-2.62,1.24-4.04,1.56-.7.19-1.39.26-2.09.38-.7.06-1.4.14-2.1.14-2.81.03-5.63-.52-8.18-1.72-1.86-.85-3.62-2.01-5.04-3.5-1.24-1.32-2.31-2.81-3.04-4.43l-.29-.6-.23-.62-.45-1.25-.33-1.28-.16-.64-.09-.66c-.59-3.48-.04-7.17,1.59-10.28,1.45-2.76,3.69-5.06,6.35-6.57.83-.54,1.76-.87,2.66-1.26.95-.26,1.89-.58,2.88-.66,1.96-.3,4,.05,5.77.84,1.12.48.79.72-.25.85-1.04.03-2.77.44-4.58.73-1.65.23-3.21.86-4.65,1.66-1.46.8-2.64,1.99-3.74,3.19-1.1,1.23-1.86,2.7-2.47,4.22-.23.79-.51,1.57-.59,2.4-.19.82-.15,1.66-.19,2.5-.04.51.1,1.01.15,1.53l.1.77c.05.26.13.51.19.77.13.51.26,1.03.48,1.51.19.49.37.99.64,1.45.96,1.88,2.34,3.52,3.99,4.79,3.61,2.83,8.76,3.68,13.28,2.42,2.75-.78,5.26-2.5,7.09-4.77.71-.85,1.28-1.81,1.8-2.79.48-1,.88-2.04,1.13-3.12.5-2.16.46-4.41-.22-6.49-1.04-3.25-3.5-5.87-6.34-7.4-.3-.2-.65-.3-.96-.45-.32-.15-.65-.26-.98-.38-1.23-.45-2.04-.68-2.62-.95-.57-.31-.91-.58-1.2-1.11-.13-.23-.32-.46-.4-.69-.14-.38.09-.71.7-.96.61-.27,1.59-.38,2.83-.21,3.69.55,7.11,2.77,9.51,5.81,2.43,3.03,3.73,7.14,3.39,11.18-.5,5.96-4.15,11.28-9.23,14.14l-.05-.07Z"/><path class="cls-3" d="m320.71,100.91c-.37-6.35.84-12.77,3.26-18.61,2.46-5.85,6.23-11.07,10.79-15.38,3.36-3.11,7.06-5.87,11.15-7.93,7.2-3.62,15.28-5.44,23.29-5.18,1,.02,2,.13,3,.19,1,.1,1.99.26,2.98.38l2.95.57c.99.25,1.97.5,2.93.83,3.85,1.26,7.41,3.16,10.68,5.42,5.77,4.06,10.78,9.29,14.27,15.41,1.14,1.95,2.09,4.02,2.84,6.17.75,2.14,1.34,4.36,1.65,6.62.3,2.26.32,4.56.12,6.81-.07.56-.13,1.13-.22,1.69-.1.56-.26,1.11-.38,1.65-.12.55-.28,1.09-.46,1.62-.19.53-.3,1.08-.54,1.59-1.14,2.56-1.07,2.14-.95-.2.03-1.17,0-2.83-.21-4.75-.19-1.92-.4-4.09-.78-6.41-.54-4.12-1.98-8.07-3.94-11.75-1.96-3.68-4.47-7.1-7.47-10.07-2.98-2.98-6.37-5.59-10.08-7.6-1.85-1.01-3.78-1.87-5.76-2.53-1-.34-1.98-.62-3.02-.84-1.04-.22-2.09-.48-3.15-.61-2.53-.43-5.14-.55-7.75-.44-2.62.09-5.24.47-7.82,1.08-2.58.6-5.11,1.43-7.54,2.5-2.43,1.07-4.79,2.29-6.99,3.76-4.85,3.19-9.15,7.27-12.37,12.12-3.21,4.83-5.45,10.35-6.25,16.13-1.02,7.09-.13,14.53,2.78,21.1,1.12,2.48,2.47,4.87,4.07,7.09,1.62,2.21,3.46,4.26,5.46,6.14,4.05,3.71,8.78,6.69,13.85,8.72,3.94,1.58,8.06,2.61,12.21,3.07,4.16.43,8.34.32,12.43-.34,1.8-.29,3.54-.73,5.3-1.22.83-.19,1.55-.49,2.23-.69.68-.2,1.29-.42,1.84-.64.55-.21,1.06-.38,1.52-.54.46-.17.86-.33,1.24-.46,1.51-.5,2.45-.68,3.36-.61.41.03.92,0,1.21.08.49.15.19.71-.8,1.64-.49.48-1.17,1.01-2.06,1.53-.44.27-.92.55-1.44.85-.53.26-1.11.53-1.73.81-7.34,3.25-15.87,4.41-24.21,3.3-8.34-1.09-16.54-4.28-23.49-9.35-5.14-3.78-9.61-8.6-12.78-14.24-1.58-2.82-2.83-5.82-3.74-8.93-.93-3.11-1.37-6.33-1.57-9.52l.1-.02Z"/><path class="cls-3" d="m396.06,168.77v-1.56c0-.53.06-.96.09-1.44.06-.94.18-1.88.28-2.82.25-1.87.59-3.73.98-5.57.4-1.84.87-3.66,1.38-5.45l.8-2.67.4-1.31c.12-.4.26-.9.3-1.1,0-.02.01-.04.01-.06.03-.06-.14-.69-.38-1.17-.22-.52-.52-1.06-.81-1.59-.61-1.08-1.28-2.16-1.95-3.26-1.73-2.84-3.56-5.67-5.22-8.67-.83-1.5-1.58-3.06-2.28-4.71-.16-.43-.33-.84-.45-1.31-.13-.46-.23-.87-.32-1.62,0-.33-.02-.67.01-.99.07-.31.09-.64.21-.93.21-.6.55-1.1,1-1.54.77-.68,1.88-.65,2.82-.25.48.19.95.47,1.39.75.37.25.63.45.93.68,1.14.91,2.16,1.88,3.14,2.86,3.03,2.96,5.78,6.25,8.71,9l.15.13c.19.17.33.39.45.6l.19.32.12.23.45.92c.29.61.56,1.23.83,1.85.52,1.24.99,2.5,1.42,3.78.87,2.54,1.54,5.22,1.39,7.98-.15,1.73-.1,1.46-.67.13-.29-.66-.9-1.55-1.48-2.61-.31-.53-.67-1.09-.98-1.7-.28-.62-.58-1.28-.84-1.97-.52-1.33-1.09-2.64-1.69-3.94l-.89-1.94c-.26-.57-.75-1.51-.62-1.27-.05-.04-.28-.24-.45-.4l-.51-.48-.96-.95-1.83-1.9-3.56-3.76c-1.17-1.24-2.36-2.46-3.57-3.55-.3-.27-.61-.53-.91-.77-.15-.12-.3-.24-.45-.35-.16-.12-.1-.09-.15-.12-.09-.08-.28-.23-.42-.13-.17.12-.23.28-.21.61.06.64.23,1.37.48,2.1.11.36.27.73.41,1.1.18.36.34.72.53,1.08.74,1.43,1.6,2.85,2.49,4.25,1.79,2.82,3.75,5.57,5.52,8.53.41.7.81,1.4,1.17,2.18.18.39.36.78.51,1.23.16.42.29.94.33,1.63-.05.66-.17,1.04-.26,1.4l-.31,1.08-.61,2.09c-.4,1.38-.77,2.77-1.1,4.16-.67,2.79-1.17,5.61-1.51,8.45-.14,1.1-.26,2.24-.32,3.32,0,.52-.03,1.05,0,1.57l.17,1.57c.35,2.09,1.19,4.11,2.29,5.99,1.69,2.86,3.93,5.41,6.28,7.93.59.65,1.18,1.27,1.75,2.05.59.8.93,1.64,1.29,2.44.7,1.62,1.29,3.25,1.85,4.88,1.74,5.08,3.19,10.16,4.07,15.45.18,1.16.39,2.3.5,3.49.43,4.41.03,5.86-.81,6.77-.19.21-.37.48-.54.59-.3.19-.55-.16-.81-.93-.14-.39-.23-.88-.32-1.47-.11-.59-.2-1.27-.28-2.04-.51-4.55-1.46-9.19-2.67-13.81-.57-2.32-1.22-4.65-1.96-6.94-.36-1.15-.76-2.29-1.17-3.41-.41-1.08-.89-2.29-1.33-3.08-.28-.47-.95-1.17-1.53-1.81l-1.91-2.03c-1.29-1.39-2.56-2.86-3.69-4.47-1.14-1.61-2.17-3.34-2.97-5.23-.78-1.9-1.29-3.95-1.44-6.06h.08Z"/><path class="cls-3" d="m457.66,314.86c3.4-13.5,5.34-27.39,5.88-41.36.13-2.55.09-5.1.12-7.65l-.15-7.64c-.22-8.21-.88-16.41-2.01-24.54-.53-4.07-1.28-8.11-2.08-12.13-.45-2-.88-4-1.41-5.97-.24-.99-.52-1.97-.82-2.95l-.43-1.45-.27-.83-.17-.52c-.15-.11-.35.01-.51.05-.17.06-.34.12-.51.19l-.82.35c-7.31,3.3-14.89,6.54-22.71,8.64-5.02,1.33-10.2,2.3-15.45,2.55-5.23.24-10.59-.2-15.57-1.9-1.53-.6-2.13-1.03-2.02-1.19.11-.19.93-.15,2.32-.19,1.39-.05,3.31,0,5.58-.07,2.27-.03,4.88-.07,7.72-.17,7.39-.24,14.69-1.96,21.82-4.27,3.56-1.17,7.07-2.54,10.56-4.03,1.75-.74,3.48-1.52,5.25-2.31l1.34-.59,1.03-.44c.42-.18.85-.34,1.27-.47.86-.28,1.63-.32,2.3-.08.4.09.58.43.82.71l.68.85.58,1.71.29.85.15.53.59,2.08c.39,1.39.7,2.78,1.05,4.17l.9,4.2.77,4.22c2.1,12.58,3.49,25.78,3.58,38.8.01,7.15-.27,14.31-.92,21.44-.72,7.12-1.68,14.22-3.1,21.23-1.75,8.63-4.1,17.15-7.05,25.44-4.54,12.53-10.49,24.66-18,35.57-.74,1.06-1.47,2.11-2.2,3.16-.74,1.04-1.42,2.13-2.23,3.12-1.57,2.02-3.13,4.03-4.69,6.04l-5.01,5.76c-1.7,1.89-3.54,3.65-5.32,5.49-1.54,1.64-3.21,3.08-4.9,4.59-1.59,1.37-2.88,2.55-4.05,3.43-1.18.86-2.16,1.53-2.98,2.05-1.65,1.04-2.75,1.44-3.76,1.57-.46.06-1.01.21-1.32.18-1.02-.07,1.19-2.77,5.85-6.55,6.68-5.92,13.14-12.38,19.05-19.49,5.87-7.14,11.12-14.94,15.65-23.16,3.43-6.07,6.27-12.48,8.86-18.99l1.82-4.93c.63-1.64,1.09-3.33,1.64-5,1.13-3.32,1.96-6.74,2.89-10.12h.1Z"/><path class="cls-3" d="m407.12,414.14c1.05,2.9,2.14,5.78,3.28,8.65.41,1.05.91,2.06,1.32,3.1,1.44,3.7,2.89,7.4,4.45,11.04.67,1.63,1.43,3.23,2.18,4.81.47,1.02,1.01,2.01,1.46,3.04.44,1.04.87,2.08,1.29,3.13.25.66.12.62-.32.19-.43-.44-1.26-1.24-2.03-2.31-1.28-1.93-2.35-3.97-3.46-6-.53-1.02-1.07-2.05-1.56-3.09-.48-1.05-.94-2.11-1.39-3.19-1.05-2.57-2.41-5.12-3.55-7.72-1.25-2.86-2.45-5.74-3.64-8.62l-2.15-5.34c-1.09-2.69-2.11-5.43-3.22-8.1-.86-2.07-1.89-4.04-2.81-6.08-.2-.45-.44-.87-.61-1.34-.31-.87-.46-1.46-.42-1.92.05-.47.25-.79.6-1.11.16-.15.3-.32.47-.43.28-.18.6-.14.96.08.36.23.78.63,1.09,1.22,1.94,3.47,3.34,7.35,4.84,11.24,1.1,2.89,2.16,5.82,3.29,8.71l-.07.03Z"/><path class="cls-3" d="m303.77,158.49c1.53.82,2.91,1.9,4.22,3.03.61.61,1.27,1.18,1.81,1.85l.84.98.76,1.04c2.07,2.83,3.25,6.16,3.84,9.44.43,2.41.69,4.85.48,7.28-.19,2.13-.51,4.26-1.19,6.31-.64,2.04-1.49,4.05-2.69,5.86l-.43.69-.5.65c-.34.42-.65.87-1.03,1.26l-1.14,1.17c-.38.38-.81.7-1.22,1.05-1.67,1.34-3.51,2.43-5.43,3.3-3.44,1.5-7.13,2.36-10.81,2.52-2.36.07-4.74-.04-7.05-.51-1.16-.19-2.3-.52-3.41-.9l-1.65-.62c-.54-.22-1.03-.58-1.54-.86-1.25-.78-.99-.83.31-.89.64-.02,1.58-.15,2.61-.12.52,0,1.06.05,1.65.07.29.01.59.03.89.04.3.04.6.08.9.14,2.18.32,4.36.44,6.52.34,2.16-.07,4.3-.35,6.37-.89,4.12-1.06,8.06-3.18,10.88-6.31,1.68-1.9,2.87-4.34,3.59-6.92.72-2.59.98-5.34.89-8.03-.11-2.95-.65-5.94-1.83-8.6-.32-.65-.59-1.33-.99-1.93-.19-.31-.36-.62-.57-.92l-.66-.89c-.41-.61-.95-1.12-1.42-1.68-.54-.5-1.03-1.05-1.62-1.5-2.76-2.34-6.22-3.85-9.84-4.53-5.51-.99-11.4-.32-16.68,1.7-4.11,1.56-7.78,3.99-10.86,6.92-.35.31-.66.66-.98,1-.32.33-.63.67-.94,1.03-1.17,1.28-1.89,2.14-2.53,2.68-.69.5-1.18.74-1.79.82-.28.04-.58.14-.81.13-.39-.02-.51-.41-.4-1.17.1-.76.44-1.88,1.26-3.09,2.36-3.62,5.77-6.57,9.55-8.91,3.82-2.31,8.09-3.96,12.57-4.83,3.32-.65,6.78-.79,10.2-.4,3.42.44,6.84,1.39,9.91,3.12l-.04.09Z"/><path class="cls-3" d="m207.09,188.89c1.69-2.54,3.7-4.81,5.78-6.98,2.12-2.19,4.54-4.06,7.05-5.72,1.84-1.2,3.7-2.38,5.67-3.32,6.97-3.29,14.62-5.04,22.28-4.97,3.4.01,6.81.44,10.1,1.23,2.12.5,4.17,1.28,6.12,2.26,1.96.96,3.76,2.26,5.18,3.9.89,1.02.75.88-.35.5-.28-.09-.61-.19-1-.3-.43-.05-.83-.21-1.31-.31-.46-.14-.99-.22-1.5-.37-.5-.18-1.02-.37-1.56-.57-.94-.39-1.91-.69-2.88-.98l-2.92-.78c-1.96-.48-3.96-.8-5.98-.98-4.04-.36-8.17-.23-12.3.38-4.95.74-9.87,2.76-14.32,5.24-2.45,1.37-4.8,2.94-6.94,4.74-1.06.92-2.1,1.83-3.05,2.89-.95,1.05-1.97,2.04-2.81,3.18-2.23,2.67-4.06,5.66-5.46,8.83-1.12,2.38-1.82,4.93-2.42,7.49-.43,2.59-.76,5.22-.6,7.85.14,4.08,1.11,8.01,2.39,11.82.29.84.58,1.66.91,2.49.29.78.51,1.43.67,1.99.16.56.3,1,.34,1.4.08.8-.08,1.35-.36,1.87-.13.23-.22.51-.35.67-.22.27-.57.14-1.12-.31-.55-.45-1.21-1.25-1.78-2.41-3.32-6.84-5.13-15.19-4.11-23.53l.34-2.31c.14-.77.35-1.52.52-2.28l.27-1.14c.1-.38.24-.74.36-1.11l.75-2.22.93-2.14.47-1.07c.17-.35.37-.68.55-1.03l1.11-2.04c.4-.66.84-1.3,1.26-1.94l.08.04Z"/><path class="cls-3" d="m271.42,213.39c-1.94,1.13-4.08,1.77-6.17,2.34-.78.15-1.54.37-2.32.5-1.39.12-2.76.26-4.14.16-1.37-.02-2.72-.28-4.05-.45-.59-.13-1.17-.24-1.76-.35l-.88-.15c-.29-.07-.57-.16-.85-.24-.72-.22-1.47-.39-2.17-.67-.35-.15-.7-.29-1.03-.48-.32-.2-.64-.4-.98-.6-.4-.26-.29-.35.17-.46.31-.07.63-.14.92-.21.38-.1.79-.13,1.2-.05,1.45.22,2.9.32,4.31.51.71.09,1.41.22,2.12.25.71.03,1.42.19,2.14.19,1.72.13,3.51-.16,5.2-.58,1.9-.35,3.69-1.07,5.43-1.88l1.53-.89c.53-.28.96-.69,1.45-1.03.75-.51,1.35-1.18,2.01-1.79.62-.65,1.15-1.39,1.67-2.11.33-.61.62-1.24.89-1.87.21-.66.37-1.33.57-1.97.1-.28.11-.58.18-.87.25-1.08.59-1.33,1.64-1.32.24,0,.48-.02.71,0,.79.07,1.26.71,1.19,1.68-.2,2.88-1.59,5.79-3.63,8.1-.34.47-.78.84-1.19,1.24-.42.39-.81.81-1.27,1.15-.93.67-1.81,1.4-2.82,1.92l-.05-.07Z"/><path class="cls-3" d="m237.25,268.93c1.1-.91,2.2-1.83,3.27-2.78.39-.35.7-.77,1.1-1.11,1.4-1.21,2.87-2.34,4.23-3.6.59-.56,1.16-1.16,1.72-1.75.37-.37.65-.82,1.11-1.11.43-.32.9-.6,1.4-.86.32-.15.43,0,.5.42.06.41.2,1.21.02,1.86-.1.27-.15.59-.3.81l-.45.68c-.3.45-.62.89-.95,1.32-.74.79-1.53,1.53-2.4,2.2-1.05.8-1.82,1.93-2.79,2.84-1.06,1.01-2.15,1.99-3.24,2.96l-2.02,1.79c-1.01.91-2.06,1.78-3.01,2.75-.73.76-1.31,1.64-1.99,2.44-.15.18-.27.37-.44.54-.62.59-1.02.55-1.76,0-.17-.13-.35-.25-.5-.39-.52-.47-.66-1.15-.39-1.76.43-.88.99-1.66,1.59-2.4.62-.72,1.32-1.38,2.01-2.04,1.04-.98,2.14-1.91,3.2-2.88l.06.06Z"/><path class="cls-3" d="m278.95,246.82c.04-4.9-2.02-10.02-5.88-13.07-.66-.62-1.48-.99-2.26-1.44-.39-.21-.83-.33-1.24-.51-.41-.17-.83-.35-1.27-.44-6.05-1.9-13.56.47-17.35,5.99-1.71,2.42-2.5,5.38-2.79,8.41-.17,1.93-.06,3.86.35,5.69.38,1.85,1.03,3.57,1.87,5.39.22.6.32.9.27.92-.06.03-.3-.16-.86-.4-.56-.25-1.28-.7-2.14-1.38-.8-.71-1.51-1.76-2.01-3-.41-1.11-.62-2.27-.76-3.42-.14-1.15-.17-2.3-.12-3.44.04-1.14.17-2.26.35-3.36l.15-.83c.07-.28.16-.56.24-.85l.51-1.69c1.68-4.43,5.11-8.15,9.33-10.06,2.51-1.17,5.24-1.94,8.06-2.11.71,0,1.42-.06,2.12-.02l2.12.22,2.08.5c.68.2,1.33.5,1.99.75,2.85,1.28,5.32,3.35,7.11,5.84,1.8,2.49,2.97,5.36,3.54,8.32.67,3.64.52,7.48-.82,10.99-.95,2.66-2.59,5.12-4.78,6.95-.25.26-.53.47-.83.67l-.87.61c-.29.19-.57.42-.88.59l-.94.48c-1.24.67-2.54,1.19-3.89,1.53-4.18,1.13-8.68,1-12.79-.52-.45-.17-.89-.35-1.34-.52-.43-.2-.87-.4-1.31-.63-.78-.46-1.42-.86-1.88-1.29-.49-.4-.83-.78-1.07-1.14-.5-.69-.58-1.3-.45-1.95.06-.3.09-.62.21-.86.43-.82,1.78-.31,3.68.72,2.83,1.56,5.96,2.6,9.14,2.74,3.16.15,6.4-.6,9.05-2.32,1.97-1.22,3.59-2.95,4.66-5.06,1.07-2.1,1.61-4.54,1.59-7.01h.1Z"/><path class="cls-3" d="m135.93,156.9c-1.38-.25-8.43-5.62-7.35-8.01s4.3-2.82,4.3-2.82l6.3,7.25-3.25,3.58Z"/><path class="cls-3" d="m160.2,150.27c.27-.78,1.61-3.24,2.39-4.63.98-1.77-4.13-2.08-4.05-2.26l1.6-3.61,7.61,4.5-3.74,7.22-3.8-1.21Z"/><polygon class="cls-3" points="170.28 163.28 180.47 163.28 181.03 165.91 171.32 169.14 170.28 163.28"/><path class="cls-3" d="m160.21,185.14c.56-.22,8.76,6.65,8.76,6.65l4.15-2.81-7.19-8.88-5.72,5.03Z"/><polygon class="cls-3" points="142.38 182.82 137.41 192.88 142.38 194.89 147.41 185.95 142.38 182.82"/><polygon class="cls-3" points="131.79 167.01 123.7 169.14 124.18 176.97 133.82 174.97 131.79 167.01"/><path class="cls-3" d="m150.44,153.3c-8.96,0-16.22,7.13-16.22,15.92s7.26,15.92,16.22,15.92,16.22-7.12,16.22-15.92-7.26-15.92-16.22-15.92Zm1.04,23.64c-5.08,0-9.2-4.04-9.2-9.01s4.11-9.02,9.2-9.02,9.19,4.05,9.19,9.02-4.11,9.01-9.19,9.01Z"/><path class="cls-3" d="m165.19,143.9c-.72-.76-2.04-1.49-3.33-2-.47-.18-1.02-.26-1.44-.39-.15-.07-.28-.13-.47-.18-.08-.02-.22-.05-.25.03-.04.06-.08.14-.13.21-.04.09-.09.15-.18.33l-.33.69-.68,1.31c-.4.79-.8,1.59-1.2,2.37-.23.51-.48,1-.75,1.49-.13.25-.28.48-.45.72l-.25.35c-.09.11-.28.19-.4.3-.36.24-.35.2-.57-.19-.31-.42-.75-1.19-.68-1.89.12-1.23.44-2.4.8-3.49.26-.51.53-1.01.81-1.49l.41-.71.2-.35c.07-.12.13-.2.23-.46.1-.24.2-.48.3-.72.11-.22.19-.5.32-.67.14-.17.25-.36.41-.52.18-.16.41-.25.63-.32.22-.08.46-.12.71-.13.51.02,1.03.03,1.55.1.58.08.87.15,1.2.24,1.64.45,3.19,1.09,4.68,2.06.46.3.9.65,1.32,1.08.4.4.9,1.06,1.07,1.74.16.5.11,1.12.04,1.54-.07.45-.21.87-.36,1.26-.3.79-.69,1.47-1.06,2.14-.58,1.03-1.02,2.09-1.57,3.09-.13.21-.22.44-.37.64-.27.37-.48.59-.75.66-.3.04-.6-.02-.97-.17-.17-.07-.34-.12-.49-.2-.25-.13-.42-.34-.53-.63-.11-.28-.2-.67-.07-.99.15-.5.32-.99.51-1.47.21-.46.44-.91.66-1.35.46-.87.93-1.7,1.24-2.42.11-.27.21-.52.26-.73.03-.11.06-.2.08-.29.02-.05.02-.09.02-.12,0,0,.01.01,0,0,0-.04.17.04-.26-.39l.05-.07Z"/><path class="cls-3" d="m139.66,192.14c.93.86,2.42,1.67,3.88,2.3.13.06.27.11.41.16l.21.07.08.02c.07.02.14.03.22.08.07.03.15.09.23.1.05-.04.11-.08.16-.14.06-.05.11-.12.18-.19l.36-.6c.54-.91,1.06-1.87,1.54-2.85.41-.88.81-1.77,1.21-2.64.24-.57.5-1.14.8-1.69.14-.28.31-.55.5-.81l.28-.39c.1-.13.3-.21.43-.33.38-.26.37-.21.56.22.28.47.67,1.28.58,2.01-.15,1.3-.44,2.54-.82,3.77-.54,1.17-1.15,2.31-1.88,3.43-.22.34-.42.68-.62,1.04-.06.08-.07.18-.22.3l-.24.42c-.16.28-.31.57-.5.81-.18.26-.35.53-.58.67l-.16.13-.08.07-.04.03h0c-.15-.33-.04-.08-.08-.16h0s0,0,0,0h0s-.02.01-.02.01l-.36.12-.39.12c-.15-.02-.3-.02-.46-.06-.31-.07-.63-.16-.94-.25-.8-.24-1.06-.36-1.52-.53-.42-.17-.84-.34-1.25-.53-.83-.38-1.64-.8-2.44-1.3-.49-.32-.98-.67-1.45-1.11-.56-.52-1.06-1.2-1.23-1.94-.14-.58,0-1.17.19-1.72.12-.32.19-.47.29-.68.09-.2.19-.39.29-.58.4-.75.81-1.46,1.21-2.17.62-1.11,1.1-2.28,1.72-3.38.15-.24.26-.49.43-.72.31-.42.55-.67.85-.74.32-.05.63.01,1,.17.17.07.34.13.49.21.25.14.4.36.49.67.09.3.15.7,0,1.03-.18.52-.38,1.04-.58,1.54-.23.49-.47.98-.72,1.46-.5.94-1.01,1.9-1.52,2.85-.17.34-.35.69-.49,1-.07.14-.17.37-.14.29,0,0-.01,0-.02,0-.02,0-.03.02-.03.04,0,0,.01.04-.01.02.03.04.16.17.27.26l-.05.07Z"/><path class="cls-3" d="m134.25,145.55c-.33.02-1,.32-1.6.72-.61.4-1.22.93-1.8,1.48-.21.2-.4.43-.59.66l-.18.21s-.09.1-.12.12c-.08.07-.18.14-.27.24.01.11.07.23.13.38.01.04.03.06.06.11l.18.28.38.56c.51.75,1.04,1.49,1.6,2.2.62.75,1.26,1.49,1.91,2.18l1.28,1.31c.21.22.41.45.61.68l.3.36c.1.12.14.32.23.47.19.42.16.41-.31.51-.21.03-.66.25-1.02.22-.19,0-.39,0-.6-.03-.11-.02-.21-.04-.31-.05-.09-.04-.18-.07-.27-.12-1.3-.62-2.41-1.45-3.43-2.35-.89-1.02-1.68-2.11-2.37-3.28-.12-.21-.26-.42-.39-.62l-.21-.31c-.05-.07-.21-.3-.29-.46-.47-.66-.79-1.34-1-1.98l.23-.64c.09-.22.14-.44.31-.65.29-.44.6-.82.9-1.19.64-.74,1.27-1.38,1.99-2.01.72-.62,1.47-1.22,2.41-1.71.49-.24.94-.45,1.63-.58.33-.1.66-.02.99-.04.33.02.64.14.95.21.26.14.51.3.74.49.47.38.71.66,1.02,1,.29.32.56.66.82.99.52.66,1.03,1.32,1.55,1.97.8,1.01,1.72,1.89,2.54,2.9.17.23.36.43.52.67.28.46.43.77.39,1.08-.07.32-.24.58-.52.87-.13.13-.25.27-.38.38-.22.18-.49.23-.8.21-.32-.03-.71-.12-.97-.39-.42-.37-.84-.75-1.24-1.14-.38-.4-.75-.82-1.12-1.24-.71-.85-1.42-1.71-2.14-2.58l-1.11-1.3c-.17-.2-.36-.41-.51-.56-.1-.1-.06-.07-.07-.09,0,0,0-.02,0-.01,0-.03-.05-.05-.04-.05l-.02-.08Z"/><path class="cls-3" d="m168.35,190.05v.04c.05.1.17.15.3.14.01.01.11-.05.23-.1l.34-.22c.23-.17.47-.37.71-.59.18-.18.35-.37.51-.58l.24-.31s.05-.05.08-.08l.13-.11c.37-.2.15-.43-.03-.76l-1.71-2.2c-.59-.7-1.16-1.42-1.72-2.15-.37-.45-.72-.93-1.03-1.43-.16-.25-.3-.51-.42-.79l-.18-.42c-.05-.14-.02-.35-.04-.51-.01-.44.02-.4.48-.36.53-.01,1.4.01,1.94.4.98.68,1.85,1.42,2.7,2.2.72.89,1.41,1.82,2.07,2.83.07.11.14.21.23.33.14.17.28.34.41.51.25.35.5.69.71,1.02.1.17.18.34.25.51.02.09.02.17.02.26,0,.05,0,.09-.01.14h0s0,.01,0,.01c.04,0-.09,0,.09,0h0s0,0,0,0v.02s0,.03,0,.03v.06c-.03.16-.06.33-.15.52-.06.18-.14.36-.26.54l-.59.85c-.19.29-.44.59-.54.72-.56.66-1.16,1.3-1.91,1.88-.19.15-.38.29-.61.42-.22.16-.54.29-.82.42-.58.22-1.2.36-1.8.22-.18-.01-.35-.1-.52-.17-.17-.07-.34-.13-.49-.23-.54-.35-.75-.55-1.08-.8l-.89-.73c-1.18-.97-2.25-2.05-3.38-3.05-.87-.79-1.85-1.44-2.74-2.27-.19-.19-.4-.35-.57-.56-.31-.4-.48-.69-.46-.99.04-.32.2-.58.47-.88.12-.14.23-.28.36-.39.21-.19.47-.27.78-.28.31-.01.68.02.93.21,1.7,1,3.1,2.38,4.66,3.7.57.49,1.14.99,1.71,1.5.55.49,1.18,1.03,1.68,1.41l-.05.07Z"/><path class="cls-3" d="m124.63,169.18c-.16,1.34-.15,2.88.03,4.31.03.26.09.52.16.76l.1.36c.03.11.02.09.03.14,0,.13.02.3.09.47.03.08.1.17.17.17h.24s.3-.04.3-.04l.75-.17,1.54-.32c.9-.21,1.82-.39,2.74-.53.59-.11,1.18-.18,1.79-.18.3-.02.61.01.92.06.15.02.3.04.46.08.15.04.31.19.46.26.37.24.31.25.02.6-.3.44-.77,1.14-1.35,1.4-1.03.47-2.06.87-3.11,1.25-.55.1-1.1.21-1.66.31l-.85.14-.43.07c-.15.02-.25.03-.55.11-.58.14-1.19.29-1.72.31-.5.06-1.06-.14-1.47-.52-.4-.38-.71-.86-.97-1.39-.12-.27-.25-.54-.34-.84l-.14-.42-.08-.3c-.4-1.71-.53-3.36-.53-5.06,0-.52.03-1.05.08-1.59l.06-.48c.02-.18.07-.36.1-.54.08-.35.19-.7.36-1,.28-.45.72-.79,1.22-.98.48-.18,1.1-.32,1.45-.36.8-.11,1.57-.17,2.32-.24,1.17-.11,2.3-.38,3.45-.53.25-.02.5-.08.75-.08.47,0,.78.04,1,.22.22.22.34.5.44.89.05.18.1.35.13.52.04.28-.03.54-.2.8-.17.26-.43.56-.77.64-.5.17-1,.33-1.51.46-.51.11-1.01.19-1.52.26-.97.12-1.96.24-2.94.37-.17.02-.33.05-.49.08-.14.02-.37.08-.3.05,0,0-.01-.02-.03-.02-.02,0-.03,0-.05,0,0,.02-.01-.02-.03.04-.02.15-.04.31-.05.48h-.08Z"/><path class="cls-3" d="m179.98,166.07s.04-.02.06-.06c.04-.1.07-.23.1-.37.06-.28.09-.6.09-.94.02-.68-.06-1.42-.2-2.14-.1-.53-.34-1.01-.5-1.48-.04-.12-.08-.21-.07-.21,0-.04-.02-.07-.03-.11-.02-.08-.05-.16-.1-.24-.09-.19-.28-.17-.47-.18h-.08s-.19.02-.19.02l-.39.05-.79.1-1.59.24c-.94.18-1.87.36-2.8.54-.59.13-1.19.24-1.8.31-.3.04-.61.06-.93.06h-.47c-.16-.02-.34-.13-.51-.17-.43-.16-.38-.18-.14-.58.21-.5.63-1.29,1.26-1.63,1.12-.62,2.28-1.09,3.46-1.49,1.22-.23,2.47-.4,3.76-.47l.29-.02c.1,0,.18-.01.36-.04.32-.05.64-.07.95-.09.61-.05,1.22.14,1.7.53.47.39.84.92,1.16,1.47.18.32.27.51.36.71.09.2.17.41.24.61.59,1.8.91,3.59.68,5.61-.07.57-.3,1.47-.76,2.07-.23.31-.52.58-.84.78-.33.18-.72.3-1.06.41-1.7.41-3.27.46-4.86.66-1.23.14-2.42.46-3.66.61-.27.02-.54.08-.82.08-.51,0-.85-.05-1.08-.25-.23-.23-.35-.51-.44-.91-.04-.18-.09-.35-.11-.52-.03-.28.06-.54.25-.79.19-.25.46-.53.81-.61.51-.16,1.03-.31,1.55-.44.52-.11,1.04-.2,1.57-.29,1.05-.17,2.12-.3,3.18-.44l2.26-.34c.09-.01.17-.03.25-.05.08-.02.17-.03.17-.03h.03s.05,0,.06,0l.08.04Z"/><path class="cls-3" d="m157.98,177.27c-.88.52-1.84.84-2.8,1.08-.95.23-1.95.28-2.92.31-1.98-.03-3.93-.67-5.55-1.71-.63-.33-1.13-.82-1.7-1.24-.48-.5-1.02-.96-1.41-1.53-1.45-1.96-2.3-4.32-2.41-6.72-.13-2.42.63-4.78,2.01-6.76.67-.88,1.5-1.61,2.42-2.12.92-.5,1.89-.86,2.87-1.1,1.26-.3,2.55-.43,3.83-.35,1.28.07,2.56.4,3.68,1.04.69.42.47.53-.21.53-.34,0-.81.03-1.34.08-.28.03-.56.06-.85.09-.3.02-.61.04-.92.06-2.25.1-4.51.84-6.06,2.07-.41.27-.75.59-1.05.93-.16.16-.26.36-.4.53-.12.2-.23.46-.35.68-.5.91-.75,1.94-.92,2.99-.35,2.56.84,5.37,2.75,7.2,2.06,2.09,5.16,2.99,8.06,2.14,1.76-.47,3.31-1.58,4.29-3.13,1.5-2.33,1.74-5.54.63-8.16-.84-2.06-2.51-3.61-4.39-4.52-.41-.22-.86-.33-1.27-.55-1.61-.65-2.14-.88-2.4-1.75-.06-.19-.16-.38-.19-.56-.05-.3.14-.53.55-.7.42-.18,1.05-.23,1.86-.12,2.4.28,4.81,1.62,6.55,3.61,1.76,1.99,2.83,4.62,3,7.32.13,2-.22,4.06-1.13,5.92-.89,1.86-2.37,3.49-4.17,4.51l-.04-.06Z"/><path class="cls-3" d="m158.17,186.23c-6.29,1.7-13.09.57-18.43-3-1.94-1.32-3.7-2.95-5.07-4.9-4.63-6.93-4.26-16.62.94-22.9,1.13-1.38,2.43-2.62,3.86-3.67,1.45-1.03,3.03-1.84,4.66-2.47,2.1-.8,4.34-1.25,6.59-1.22,2.24,0,4.48.47,6.47,1.41,1.24.59.99.64-.17.56-1.16-.1-3.24-.01-5.51.19-8.1.67-15.35,6.38-16.75,14.37-.99,4.71.6,10.11,3.94,13.66,3.67,3.97,9.48,6.01,15.03,5.58,3.43-.21,6.77-1.5,9.38-3.67.25-.21.51-.4.75-.61l.65-.72c.43-.48.91-.93,1.23-1.5.35-.55.75-1.06,1.06-1.64.27-.59.62-1.14.82-1.77.96-2.43,1.36-5.09,1.22-7.7-.13-2.03-.59-4-1.35-5.83-.79-1.82-1.9-3.45-3.14-4.95-.61-.61-1.16-1.24-1.84-1.77-.3-.27-.57-.51-.82-.73-.27-.2-.51-.39-.74-.56-.44-.34-.79-.65-1.06-.92-.55-.56-.82-1-.99-1.48-.08-.22-.21-.46-.24-.63-.05-.29.28-.37.97-.29.35.04.78.11,1.31.23.27.04.53.15.8.3.27.14.55.29.85.46.92.46,1.71,1.12,2.56,1.74.42.32.77.7,1.17,1.06.39.36.78.73,1.1,1.15.34.41.69.82,1.02,1.25l.86,1.37c.3.45.53.94.76,1.44.22.5.5.97.65,1.49,1.54,4.08,1.84,8.65.76,12.97l-.31,1.2c-.13.39-.28.78-.42,1.17-.26.79-.66,1.53-1.03,2.29-.85,1.44-1.77,2.86-2.97,4.06-2.33,2.44-5.34,4.17-8.51,5.08l-.03-.07Z"/><path class="cls-3" d="m102.54,240.98c-2.52-1.91-5.05-3.86-7.47-6.03-1.2-1.09-2.38-2.23-3.47-3.51-1.08-1.28-2.12-2.66-2.84-4.35l-.36-.95-.27-1.01c-.07-.34-.1-.71-.15-1.06-.04-.36-.04-.53-.07-.84-.11-1.13-.18-2.32-.25-3.5-.08-2.1-.06-4.24.38-6.43.25-1.09.55-2.21,1.14-3.29.59-1.05,1.39-2.17,2.6-2.8,2.25-1.34,5-1.23,7.12-.42,2.16.8,3.95,2.09,5.53,3.53,1.4,1.3,2.64,2.72,3.69,4.37.26.41.5.85.72,1.31.21.49.42.94.5,1.69.02.17.02.34,0,.51-.02.17-.04.33-.1.5-.1.36-.15.53-.27.8-.19.49-.43.97-.73,1.4-.74,1.14-1.8,2.05-3.01,2.67-.62.3-1.25.55-2.06.63-.45.05-.87-.04-1.26-.13-.4-.13-.83-.3-1.17-.58-1.39-1.17-1.5-2.45-1.97-3.26-.4-.87-1.11-1.41-2.12-1.73-1.26-.35-1.2-.53.11-.87.64-.11,1.72-.2,2.96.51.58.35,1.16.88,1.6,1.41.23.25.42.53.63.73.08.14.16.22.23.32.08.11.14.17.2.23.23.21.23.12.35.13.04,0,.09-.01.13,0h0c0-.09-.05.82-.03.42v-.02s.01-.1.01-.1v-.19c.02-.19.01-.1.01-.12-.01,0,.03-.02.05-.02l.41-.13c.69-.26,1.38-.78,1.86-1.37.25-.3.43-.64.59-.98.06-.16.16-.4.18-.51,0,.02,0,0,0,0,0,.02.02.04-.02-.06-.03-.07-.04-.13-.09-.23-.07-.17-.17-.37-.28-.56-.22-.4-.5-.82-.79-1.23-1.22-1.64-2.74-3.2-4.4-4.4-1.66-1.19-3.52-1.99-5.2-1.88-.5.04-.99.17-1.45.38-.19.13-.39.23-.58.35-.17.17-.37.31-.54.49-.69.76-1.18,1.92-1.47,3.18-.55,2.56-.57,5.4-.34,8.22.06.75.11,1.71.18,2.23.13.62.32,1.26.65,1.88.61,1.25,1.52,2.45,2.53,3.57,2.03,2.25,4.45,4.25,6.92,6.18,3.05,2.38,6.23,4.64,9.35,7.02,1.18.91,2.37,1.82,3.51,2.82,1.14,1.01,2.26,2.05,3.22,3.36.47.64.91,1.49,1.15,2.16.3.7.55,1.41.81,2.12.5,1.42.95,2.84,1.36,4.26,1.27,4.43,2.47,8.78,3.3,13.3.19.99.38,1.97.51,2.98.38,3.79,0,5.1-1,5.87-.21.18-.4.41-.57.5-.29.16-.54-.15-.87-.81-.34-.65-.57-1.65-.79-2.95-.67-3.85-1.41-7.84-2.34-11.84-.93-3.99-1.98-8.07-3.35-11.84-.13-.33-.27-.72-.39-1l-.16-.33c-.06-.12-.15-.24-.23-.36-.32-.5-.76-1.02-1.24-1.54-.98-1.04-2.12-2.05-3.31-3.03-2.39-1.96-4.98-3.79-7.54-5.69l.04-.07Z"/><path class="cls-3" d="m193.88,327.21c-7.33-7.5-13.53-15.92-19.02-24.69-2.01-3.2-4.01-6.4-5.82-9.71-1.98-3.62-3.85-7.29-5.63-11.01-.9-1.85-1.8-3.71-2.65-5.58l-1.25-2.83-.61-1.42-.33-.81-.14-.35c0-.08-.07-.1-.14-.08-.06,0-.12.02-.18.04-.12.03-.24.07-.36.11l-.42.15-3.47,1.36c-2.33.92-4.67,1.83-7.02,2.71-5.5,2.06-11.08,4.04-16.71,5.66-3.61,1.05-7.29,1.96-11.03,2.54-3.74.59-7.57.9-11.36.37-2.35-.37-1.99-.54-.02-.99.98-.23,2.35-.67,3.98-1.07.81-.2,1.69-.46,2.62-.68.93-.2,1.92-.4,2.94-.59,7.17-1.38,14.26-3.44,21.25-5.92,3.5-1.23,6.97-2.56,10.45-3.93l5.25-2.06,1.34-.51.75-.28c.4-.15.8-.29,1.2-.42.79-.26,1.59-.42,2.22-.24.08.02.17.04.24.07l.11.09.05.05s.06-.1.04-.05h.01s.02.04.02.04l.33.41.66.81c.16.39.32.78.49,1.17l.77,1.84.68,1.58c.46,1.05.93,2.11,1.4,3.17.94,2.12,1.94,4.22,3.02,6.3,2.13,4.16,4.42,8.27,6.78,12.28,5.17,8.83,10.98,17.31,17.71,24.99,2.08,2.35,4.25,4.62,6.51,6.79,2.29,2.14,4.65,4.2,7.14,6.09,3.77,2.85,7.81,5.41,12.11,7.25,4.32,1.86,8.92,3.06,13.56,3.74,3.61.56,7.23.68,10.82.57,3.59-.09,7.15-.57,10.67-1.21,1.55-.31,3.05-.64,4.58-1.06,5.68-1.5,7.48-1.98,9.08-1.37.36.13.82.22,1.06.39.42.28.12.78-.82,1.47-.94.68-2.49,1.61-4.66,2.31-12.76,4.52-27.83,4.8-41.65.31-2.55-.9-5.1-1.85-7.52-3.16-1.25-.6-2.35-1.33-3.53-2-1.13-.72-2.27-1.44-3.37-2.21-4.39-3.07-8.43-6.58-12.18-10.32l.06-.08Z"/><path class="cls-3" d="m289.33,345.41c-1.11.3-2.23.54-3.34.81-1.13.21-2.25.46-3.38.64-.83.12-1.64.33-2.47.45-2.95.29-5.9.43-8.85.18-.65,0-1.31-.14-1.96-.18-.65-.08-1.31-.07-1.95-.2-.82-.15-1.67-.22-2.49-.43-.79-.32-1.59-.63-2.28-1.17-.36-.52-.32-.4.24-.7.55-.28,1.48-.72,2.35-.63.8,0,1.55.19,2.33.29.76.16,1.56.15,2.34.25.39.03.78.09,1.18.11l1.19.04c.8.05,1.6.13,2.41.13.97.02,1.96,0,2.95-.17.99-.14,1.98-.29,2.96-.49,1.08-.18,2.17-.38,3.24-.64,1.08-.22,2.15-.5,3.22-.79,1.32-.33,2.62-.78,3.92-1.19,1.95-.69,3.92-1.38,5.77-2.29,1.44-.7,2.75-1.59,4.06-2.45.29-.19.56-.41.86-.58,1.13-.61,1.6-.62,2.24-.11.15.12.31.22.43.35.41.42.2,1.12-.52,1.85-2.21,2.05-5.01,3.43-7.85,4.67-2.11.94-4.33,1.64-6.54,2.31l-.03-.07Z"/><path class="cls-3" d="m302.31,347.54c0,.66.02,1.32.04,1.98,0,.66.03,1.33.07,1.99.02.49.12.96.16,1.45.12,1.71.31,3.43.62,5.12.11.76.29,1.5.48,2.24.25.94.54,1.87.74,2.83.06.3-.12.33-.4.16-.28-.17-.7-.53-.97-1.05-.45-.93-.85-1.87-1.2-2.84-.36-.96-.5-1.99-.65-3-.15-1.22-.49-2.45-.69-3.69-.2-1.36-.36-2.74-.43-4.12-.03-.85-.07-1.7-.08-2.55-.04-1.29.03-2.58.04-3.86.02-1-.08-1.99-.04-3.01,0-.22-.02-.45.01-.67.16-.83.44-1.05,1.06-1.07.14,0,.27-.03.39-.02.38.02.79.45.87,1.02.16,1.68.03,3.37,0,5.14,0,1.31-.04,2.63.02,3.96h-.06Z"/><path class="cls-3" d="m345.49,338.65c.34,1.02.52,2.1.68,3.17.06.39.17.77.2,1.17.09,1.39.06,2.82-.22,4.2-.12.61-.22,1.23-.37,1.83-.19.76-.38,1.63-1.25,2.04-.25.13-.29.06-.42-.24-.07-.15-.17-.36-.32-.61-.11-.23-.16-.44-.17-.64.08-.67.27-1.28.35-1.95.11-.66.16-1.33.3-2.04.14-.85-.08-1.74-.22-2.61-.15-.96-.37-1.93-.61-2.89-.14-.6-.31-1.2-.51-1.78-.31-.89-.62-1.79-1.02-2.65-.31-.66-.74-1.26-1.1-1.89-.08-.14-.18-.27-.25-.41-.27-.54-.25-.76.09-1.08.08-.07.15-.15.23-.21.27-.21.64-.12.96.21.95.99,1.75,2.15,2.44,3.4.5.94.88,1.94,1.26,2.96l-.06.02Z"/><path class="cls-3" d="m318.96,360.6c-.86.96-1.74,1.89-2.72,2.73-.34.32-.66.67-1.04.95-1.31,1.03-2.8,1.82-4.3,2.48-.33.16-.66.3-1,.45-.33.15-.66.32-1.01.43-.88.27-1.74.76-2.76.44-.34-.24-.28-.17-.13-.57.15-.41.4-1.1.85-1.26,1.52-.82,3.02-1.44,4.62-2.17.49-.2.91-.52,1.34-.85.44-.3.82-.69,1.25-1.01.91-.75,1.8-1.55,2.62-2.44.51-.54,1-1.1,1.47-1.68.71-.88,1.4-1.79,1.97-2.77.43-.77.78-1.55,1.15-2.33l.24-.52c.33-.63.53-.79.94-.77.09,0,.19,0,.27.01.28.05.37.42.25.96-.17.8-.41,1.61-.69,2.41-.29.8-.7,1.56-1.12,2.31-.63,1.11-1.36,2.19-2.16,3.21l-.05-.03Z"/><path class="cls-3" d="m308.12,337.18c-.52.98-1.01,1.98-1.42,3.02-.16.38-.21.78-.37,1.16-.55,1.34-1.05,2.72-1.35,4.15-.14.63-.21,1.28-.3,1.92-.03.41-.06.82-.18,1.24-.08.41-.2.83-.31,1.25-.08.26-.16.23-.34,0-.16-.22-.51-.63-.7-1.14-.36-.89-.32-1.79-.34-2.69.09-.89.25-1.78.52-2.64.32-1.03.42-2.15.73-3.2.36-1.15.8-2.28,1.29-3.37.3-.68.63-1.34.96-2,.49-1,1.1-1.94,1.62-2.92.41-.75.7-1.57,1.1-2.34.08-.17.14-.36.28-.49.49-.52.79-.57,1.34-.34.13.05.26.1.37.16.38.21.52.66.44,1.2-.07.83-.43,1.46-.73,2.13-.31.67-.67,1.32-1.01,1.97-.5.98-1.06,1.94-1.54,2.94l-.06-.02Z"/><path class="cls-3" d="m311.87,298.58c-.71,1.15-1.39,2.33-1.94,3.58-.21.45-.33.93-.53,1.39-.72,1.6-1.33,3.27-1.65,5.01-.09.38-.12.77-.16,1.16-.05.39-.09.78-.12,1.17,0,.5,0,1-.07,1.5-.02.5-.05,1.01-.22,1.55-.09.33-.17.31-.43.07-.19-.18-.39-.35-.56-.51-.21-.22-.39-.49-.51-.8-.39-1.09-.52-2.22-.57-3.36.11-1.12.32-2.24.69-3.31.42-1.28.65-2.64,1.09-3.93.52-1.4,1.18-2.74,1.89-4.04.44-.8.91-1.58,1.4-2.34.72-1.17,1.57-2.26,2.33-3.38.62-.86,1.1-1.81,1.71-2.69.13-.2.24-.41.39-.59.6-.64,1.03-.61,1.65-.23.15.09.3.17.43.27.43.33.53.92.33,1.54-.75,1.67-1.89,3.04-2.9,4.56-.76,1.11-1.54,2.23-2.2,3.41l-.07-.03Z"/><path class="cls-3" d="m336.96,302.83c.21,2.78-.02,5.56-.71,8.2-.13.48-.24.96-.35,1.44-.13.48-.29.95-.46,1.41-1.24,3.27-3.19,6.18-5.48,8.69-.5.56-1.08,1.06-1.6,1.6-.54.52-1.12,1-1.68,1.5-1.49,1.19-3.08,2.36-5.01,2.72-.59.14-.59-.07-.32-.61.13-.27.33-.64.56-1.05.25-.38.55-.78.91-1.14,2.78-2.24,5-4.88,7.17-7.69,1.28-1.72,2.03-3.86,2.6-5.95.64-2.3,1-4.7.96-7.1-.04-.73-.07-1.49-.16-2.2-.09-.7-.25-1.41-.48-2.1-.66-2.1-1.76-4.15-3.23-5.84-1.14-1.33-2.62-2.24-4.02-3.09-.31-.2-.65-.31-.95-.5-1.17-.64-1.46-.97-1.44-1.93,0-.22-.02-.44,0-.65.07-.68.88-1.04,2.11-.74,1.78.47,3.56,1.29,4.99,2.55,1.46,1.22,2.71,2.7,3.75,4.32,1.53,2.4,2.62,5.2,2.91,8.16h-.09Z"/><path class="cls-3" d="m306.99,364.69c.15.47.3.93.47,1.38l.25.66.13.32s0,.03.01.05c.02.07.04.15.07.23.02.04.04.08.08.11.02.03.12-.03.18-.04l.43-.16.11-.04.06-.02.14-.09.61-.38,1.22-.75c.4-.26.76-.59,1.15-.88.56-.43,1.1-.88,1.57-1.43.48-.53,1.01-1,1.47-1.56,1.73-1.85,3.16-4.02,4.54-6.23,1.29-2.27,2.46-4.65,3.41-7.13.43-1.1.78-2.23,1.13-3.36.3-1.15.63-2.28.86-3.43.3-1.48.67-2.95,1.04-4.42.37-1.48.64-2.97,1.42-4.4.46-.9.26-.8.46.04.09.42.38,1.04.63,1.78.2.74.27,1.58.26,2.49-.02.8-.09,1.6-.13,2.41l-.08,1.21-.24,1.18c-.31,1.57-.72,3.13-1.16,4.68-.89,3.1-2.12,6.14-3.68,9.02-1.86,3.43-3.92,7.04-6.79,9.99-.4.4-.78.81-1.2,1.19l-1.31,1.08c-.84.76-1.85,1.32-2.8,1.94l-.36.23-.18.11-.26.1-1.05.4-2.08.8c-.33.24-.74-.01-1.03-.19-.3-.21-.57-.47-.82-.78-.49-.61-.88-1.37-1.22-2.1-1.12-2.57-1.81-5.16-2.38-7.79-.84-3.98-1.14-8.06-1.11-12.08.03-3.13.14-6.25.79-9.36.14-.68.27-1.36.47-2.04.37-1.26.77-2.04,1.21-2.51.43-.47.87-.65,1.44-.68.26-.02.53-.06.76-.03.78.12.9,1.28.6,2.99-1.13,4.97-1.58,10.26-1.18,15.64.32,3.97.96,8.02,2.21,11.78l-.09.04Z"/><path class="cls-3" d="m346.91,337.56c.97,2.51,1.83,5.15,1.94,8.05v1.59c-.07.55-.14,1.09-.24,1.63-.03.23-.15.47-.23.71l-.35,1.01c-.14.3-.3.57-.54.81-.24.23-.54.38-.84.51-.63.22-1.33.27-2.01.24-.48-.03-.93-.09-1.37-.17-1.76-.31-3.37-.91-4.93-1.6-1.38-.61-2.73-1.28-4-2.06-1.57-1.06-3.19-2.23-4.09-3.99-.28-.54-.17-.52.35-.34.26.09.63.2,1.08.32.21.07.47.11.7.2.22.1.44.21.65.34.76.47,1.55.88,2.35,1.25.79.39,1.56.8,2.37,1.15,1.6.71,3.28,1.28,4.95,1.74.5.14,1.01.23,1.51.27l.54.02c.09,0,.19,0,.28-.03.09-.03.19-.06.21-.16.02-.1.04-.16.07-.23.14-.4.09-.95.14-1.41.02-2.16-.45-4.55-1.28-6.85-.53-1.41-1.12-2.82-1.83-4.17-1.06-2.06-2.27-4.09-3.69-5.92-1.09-1.44-2.44-2.62-3.72-3.84-.28-.27-.59-.5-.86-.78-.49-.53-.8-.88-.89-1.26-.07-.4.02-.77.23-1.21.1-.2.17-.42.28-.59.18-.3.48-.44.88-.45.4-.01.93.08,1.41.41.72.48,1.41,1.01,2.08,1.57.63.59,1.28,1.2,1.86,1.86,1.19,1.31,2.27,2.74,3.26,4.23,1.48,2.22,2.75,4.61,3.84,7.11l-.08.04Z"/><path class="cls-3" d="m257.43,339.8c-3.87-2.02-7.02-5.14-9.3-8.73-2.26-3.6-3.68-7.86-3.51-12.28.04-3.18,1.19-6.65,3.52-9.11,1.03-1.06,2.2-1.93,3.42-2.65,1.23-.7,2.51-1.24,3.8-1.68,2.59-.82,5.22-1.26,7.82-1.45,5.21-.39,10.34,0,15.39.72,4.48.62,9,1.6,13.28,2.9,2.76.81,5.5,1.71,8.16,2.71,1.34.5,2.67.98,3.98,1.54,1.3.57,2.63,1.05,3.84,1.87.73.61,1.04.91.98,1-.06.1-.49.05-1.34.22-1.68.33-4.7.45-7.81-.59-5.56-1.71-10.86-3.77-16.32-4.9-5.48-1.15-11.19-1.87-16.82-1.94-3.37-.02-6.82.37-9.95,1.45-3.13,1.05-5.85,2.94-7.17,5.64-.75,1.47-1.09,3.18-1.11,4.95-.02,1.77.28,3.56.85,5.28,1.14,3.45,3.27,6.65,6.02,9.11,3.36,3.02,7.9,4.65,12.5,5.59,7,1.34,14.43,1.32,21.3-.56,5.39-1.43,10.46-3.62,15.16-6.35.51-.31,1.01-.62,1.52-.94.49-.32.99-.65,1.49-.98,1.84-1.24,3.03-2.07,3.93-2.58.46-.24.87-.38,1.23-.49.38-.08.74-.08,1.08-.07.31.01.67-.04.89,0,.38.07.3.51-.07,1.38-.17.46-.5.93-.95,1.44-.43.53-1.01,1.07-1.69,1.63-4.03,3.35-8.78,5.93-13.78,7.93-2.51,1-5.09,1.84-7.73,2.54-2.61.7-5.44,1.25-8.2,1.48-4.12.35-8.26.25-12.37-.35-4.1-.62-8.2-1.67-12.05-3.65l.03-.09Z"/><path class="cls-3" d="m255.08,320c1.61,0,1.61-2.5,0-2.5s-1.61,2.5,0,2.5h0Z"/><path class="cls-3" d="m260.17,323.77c2.09,0,2.09-3.25,0-3.25s-2.09,3.25,0,3.25h0Z"/><path class="cls-3" d="m256.78,327.72c1.61,0,1.61-2.5,0-2.5s-1.61,2.5,0,2.5h0Z"/><path class="cls-3" d="m268.83,333.93c2.09,0,2.09-3.25,0-3.25s-2.09,3.25,0,3.25h0Z"/><path class="cls-3" d="m275.41,330.51c2.09,0,2.09-3.25,0-3.25s-2.09,3.25,0,3.25h0Z"/><path class="cls-3" d="m281.63,337.32c2.09,0,2.09-3.25,0-3.25s-2.09,3.25,0,3.25h0Z"/><path class="cls-3" d="m262.43,333.74c1.61,0,1.61-2.5,0-2.5s-1.61,2.5,0,2.5h0Z"/><path class="cls-3" d="m263.37,315.11c1.61,0,1.61-2.5,0-2.5s-1.61,2.5,0,2.5h0Z"/><path class="cls-3" d="m310.05,347.11c1.61,0,1.61-2.5,0-2.5s-1.61,2.5,0,2.5h0Z"/><path class="cls-3" d="m309.86,357.84c2.09,0,2.09-3.25,0-3.25s-2.09,3.25,0,3.25h0Z"/><path class="cls-3" d="m317.39,355.39c1.61,0,1.61-2.5,0-2.5s-1.61,2.5,0,2.5h0Z"/><path class="cls-3" d="m315.13,350.31c2.09,0,2.09-3.25,0-3.25s-2.09,3.25,0,3.25h0Z"/><path class="cls-3" d="m321.91,343.19c2.09,0,2.09-3.25,0-3.25s-2.09,3.25,0,3.25h0Z"/><path class="cls-3" d="m290.67,274.2c5.45,1.55,11.52,0,15.59-3.95.8-.78.84-2.24,0-3.01s-2.15-.83-3.01,0c-.2.19-.4.38-.6.56-.1.09-.21.18-.31.26-.5.41.16-.11-.14.11-.45.32-.91.62-1.38.88-.27.15-.54.29-.82.42-.12.06-.25.12-.37.17.21-.09.06-.03-.06.02-.55.2-1.1.39-1.67.53-.27.07-.53.13-.8.18-.13.03-.27.05-.41.07-.35.06.3-.03-.05,0-.58.07-1.16.1-1.74.1-.27,0-.55-.01-.82-.03-.12,0-.83-.08-.46-.03-.61-.08-1.21-.22-1.81-.39-1.07-.3-2.36.37-2.61,1.48s.34,2.29,1.48,2.61h0Z"/><path class="cls-3" d="m245.02,225.24c.27-.22.59-.37.9-.54.13-.07.28-.11.36-.26.14-.26,1-.16.96-.33-.08-.38,2.6-1.58,2.76-1.74.07-.08.18-.11.26-.18.08-.07.15-.16.24-.22.07-.05.15-.08.23-.1.08-.03.19,0,.26-.06.15-.11.97-.46,1.09-.63.03-.03.09,0,.14,0,.37.04,2.3-.94,2.8-.96.08,0,.15-.03.2-.1.18-.32,3.17-.66,3.2-.86,0-.08.07-.1.12-.11.09-.03.19-.02.29,0,.09.02.15.01.23-.02.17-.08.4.03.6.14.04.02.11.15.14.23l.52,1.87v.04c.09.5.08,1.09-.13,1.05-.16,0-1.12.48-1.24.46-.19-.03-1.04.58-1.32.77-.04.02-.61.31-1.21.61-.62.27-1.26.6-1.4.75-.2.21-.81.51-.85.54-.06.02-2.19,1.54-2.33,1.71-.04.04-.1.05-.13.09-.31.35-.65.66-1.06.85-.01,0-.03,0-.04.02-.17.35-.52.45-.78.67-.42.34-.81.71-1.25,1.02-.12.09-.28.12-.43.19-.17.08-.36.14-.4.39,0,.04-.03.07-.07.07-.22,0-.24.25-.39.34-.19.11-.36.24-.54.37-.02.02-.05.02-.07.04-.2.23-.39.46-.61.67-.06.06-.17.06-.28.05-.15,0-.26.05-.3.19-.05.19-.25.09-.64-.33-.25-.26-.48-.53-.7-.86-.27-.4-.56-.81-.83-1.22-.3-.45-1.27-1.83-1.26-2.08,0-.06.01-.12.06-.12.37,0,.5-.31.75-.47.22-.14.37-.37.64-.45.18-.05.31-.18.36-.4.04-.2,1.01-.98,1.14-1.09Z"/><g class="cls-4"><path class="cls-3" d="m190.57,370.19c-1.65.79-3.51,1.17-5.39.97-1.89-.21-3.68-1.12-4.96-2.43-.94-.95-1.76-2.11-2.07-3.49-.55-2.45.28-4.82,1.71-6.51.73-.85,1.64-1.56,2.71-1.98,1.05-.43,2.34-.53,3.44-.15.97.32,1.89.93,2.46,1.86.28.45.48,1.01.51,1.56.04.55-.05,1.09-.23,1.58-.25.63-.65,1.23-1.26,1.65-.58.42-1.41.64-2.18.45-.75-.16-1.34-.64-1.71-1.23-.37-.58-.56-1.32-.36-2.02.13-.43.35-.53.44-.46.13.07.17.31.33.57.15.27.4.52.72.68.17.08.33.14.5.18.09.01.16.04.24.03.06.03.13.03.18.06.22.04.25,0,.42-.09.14-.09.29-.27.38-.51.09-.24.13-.52.08-.72-.04-.19-.11-.37-.3-.58-.33-.39-1.01-.69-1.63-.69-.63,0-1.38.28-2.04.79-.8.6-1.39,1.6-1.59,2.63-.22,1.04-.05,2.03.42,2.9.52.97,1.45,1.79,2.51,2.22,1.04.43,2.29.51,3.49.23,1.48-.34,2.9-1.19,3.89-2.4,1.52-1.8,2.25-4.48,1.45-6.68-.59-1.69-2.17-2.84-3.74-3.3-.35-.1-.7-.14-1.05-.18-.64-.09-1.04-.11-1.36-.25-.32-.14-.55-.41-.83-.84-.13-.2-.29-.38-.4-.57-.19-.32-.15-.67.14-1.05.29-.39.89-.68,1.7-.79,2.42-.29,4.95.66,6.8,2.45.93.89,1.67,2.08,2.11,3.35.43,1.26.59,2.6.48,3.88-.14,1.92-.82,3.72-1.85,5.27-1.04,1.56-2.52,2.86-4.18,3.68l-.04-.07Z"/></g><path class="cls-3" d="m314.74,417.86c-1.45.7-2.92,1-4.35,1.09-1.45.1-2.88-.02-4.26-.34-1-.24-2.01-.49-2.94-.95-1.62-.84-3.08-2.03-4.12-3.54-1.04-1.48-1.65-3.34-1.56-5.11.03-1.57.46-3.1,1.2-4.45.49-.85,1.1-1.67,1.91-2.28.8-.61,1.8-.97,2.77-1.04.62-.04.53.21.12.58-.43.32-1.03.98-1.65,1.57-1.16,1.04-1.91,2.54-2.17,4.1-.27,1.58-.04,3.11.71,4.49.45.84,1.17,1.57,2,2.13.84.56,1.79.96,2.76,1.28,2.13.69,4.52.79,6.66.13,1.29-.39,2.47-1.12,3.1-2.12.48-.75.7-1.74.53-2.57-.17-.84-.71-1.46-1.5-1.67-.61-.17-1.3-.04-1.74.27-.44.31-.62.74-.68,1.23-.03.22.02.44.04.64.1.74-.06.91-.77,1.77-.16.19-.29.41-.44.6-.26.32-.61.48-1.09.35-.46-.13-1.02-.6-1.35-1.38-.49-1.16-.5-2.51-.03-3.8.44-1.29,1.6-2.54,2.98-3.09,1.36-.57,2.83-.59,4.19-.15.68.22,1.35.57,1.94,1.06.6.5,1.09,1.12,1.42,1.77,1,2.01.78,4.1.03,5.78-.37.83-.97,1.67-1.6,2.26-.64.61-1.35,1.1-2.08,1.46l-.04-.07Z"/><path class="cls-3" d="m405.38,346.44c.99-.69,1.57-1.75,1.38-3-.07-.46-.33-.88-.56-1.31-.81-1.57-2.69-2.76-4.62-2.22-.85.22-1.62.76-2.24,1.42-.79.86-1.28,1.93-1.56,3.09-.09.36-.43.35-.79-.03-.37-.36-.71-1.2-.48-2.11.44-1.55,1.38-3.04,2.84-3.91,1.41-.9,3.3-1.28,4.97-.76,1.94.6,3.74,1.81,4.72,3.64.53.99.8,2.17.72,3.34-.07,1.18-.53,2.3-1.2,3.19-.82,1.11-1.94,1.93-3.21,2.39-.96.35-2.03.47-3.07.3-.52-.11-1.02-.23-1.52-.48-.5-.25-1.01-.6-1.39-1.17-.56-.87-.7-1.89-.45-2.86.13-.49.37-.98.76-1.41.39-.43.92-.74,1.46-.9.48-.15.97-.21,1.45-.13.9.15,1.43.57,1.65.96.21.41.13.8-.16,1.18-.13.18-.27.35-.44.48-.28.22-.62.31-.87.41-.26.1-.45.22-.58.28-.1.05-.18.11-.23.18-.06.05-.02.22-.07,0-.02-.06-.05-.11-.06-.14-.02-.03.03.04.06.07.08.08.24.16.32.18.09.03.08,0-.02.02-.1,0-.27.06-.36.11l-.05.04h-.01s0,.01,0,.01h0s.23-.2.23-.2h0s.01-.01.01-.01l.05-.05s.08-.09.14-.15c.03-.04.01-.01.02-.01.02.02.1.06.23.11.73.29,1.93.12,2.86-.61l.06.06Z"/><path class="cls-3" d="m443.93,293.28c-1.35,1-2.97,1.38-4.46,1.33-1.5-.06-2.94-.51-4.18-1.35-.88-.61-1.74-1.42-2.23-2.35-.91-1.65-1.15-3.51-.93-5.21.22-1.71.89-3.31,1.93-4.64.93-1.19,2.12-2.11,3.45-2.73.85-.39,1.79-.69,2.78-.68.98.02,1.99.34,2.75.95.48.4.12.65-.46.82-.6.16-1.34.46-2.01.59-1.22.15-2.51.74-3.48,1.67-.98.88-1.59,2.1-2.04,3.47-.53,1.66.02,3.55,1.05,4.72,1.06,1.26,3.16,2.01,4.89,1.47.52-.16,1.01-.41,1.39-.79.37-.35.65-.81.79-1.35.24-.81.17-1.76-.14-2.59-.16-.42-.42-.78-.7-1.09-.31-.29-.65-.52-1.02-.64-.58-.2-1.21-.08-1.68.22-.23.15-.39.33-.46.5-.08.15-.07.36-.01.33l.2.15c.14.16.17.21.14.37-.02.17.03.44.29.78.11.15.28.28.42.41.24.22.34.54,0,.94-.33.41-1.3.66-2.16.29-.63-.27-1.18-.67-1.57-1.27-.39-.58-.65-1.39-.52-2.29.23-1.62,1.46-2.7,2.6-3.16.59-.24,1.2-.37,1.83-.4.31-.01.64,0,.96.06.31.07.61.14.91.23,1.2.42,2.17,1.27,2.8,2.2.93,1.41,1.38,2.99,1.26,4.64-.05.82-.29,1.66-.67,2.45-.38.8-1.03,1.5-1.67,2.01l-.05-.06Z"/><g class="cls-4"><path class="cls-3" d="m373.41,455.78c.87.4,2.37-.04,3.21-1.06.3-.37.48-.8.62-1.21.27-.72.16-1.64-.3-2.46-.47-.82-1.27-1.52-2.2-1.9-.84-.37-1.76-.37-2.63-.08-1.11.41-2.16,1.11-3.16,1.96-.31.27-.44.11-.4-.33.04-.43.22-1.21.8-1.87,1.01-1.18,2.59-2.02,4.41-2.04,1.79-.01,3.43.86,4.51,2.18.64.78,1.21,1.69,1.49,2.74.29,1.04.26,2.25-.15,3.26-.95,2.21-3.07,3.63-5.42,3.72-1.46.03-2.92-.66-3.81-1.74-.69-.81-1.15-1.9-1.07-3.04.08-1.19.76-2.21,1.66-2.83.38-.27.82-.48,1.3-.6.49-.12,1.05-.13,1.57,0,.89.22,1.7.97,2.02,1.82.17.4.28.82.29,1.27.02.85-.39,1.42-.74,1.67-.36.25-.7.24-1.01.05-.14-.08-.28-.16-.38-.27-.16-.18-.21-.43-.25-.64-.05-.23-.14-.4-.23-.56-.13-.21-.23-.44-.4-.57-.16-.11-.21-.05-.27-.03-.03.02-.03.04-.06.06-.05.02-.13.06-.22.12-.18.12-.34.33-.4.48-.06.13-.07.54.17.93.23.4.65.77,1.08.89l-.02.07Z"/></g><path class="cls-3" d="m335.23,104.06c-.31.11-.63.23-.93.36-.11.05-.21.13-.32.17-.4.17-.8.34-1.17.55-.17.09-.32.21-.47.32-.19.15-.35.33-.6.41-.15.05-.45-.64-.25-.85.37-.35.78-.66,1.26-.86.29-.12.52-.35.79-.51.29-.18.6-.35.9-.51.19-.1.38-.2.56-.29.28-.15.57-.29.85-.45.21-.12.39-.31.58-.47.04-.03.08-.08.13-.11.17-.1.27-.05.45.23l.12.19c.13.22.15.45.06.59-.28.39-.63.66-1.03.86-.3.13-.61.26-.92.39l-.02-.03Z"/><path class="cls-3" d="m335.99,94.57c-.29.03-.59.05-.89.11-.11.02-.19.09-.3.11-.38.06-.78.12-1.15.24-.17.05-.31.15-.44.26-.17.14-.29.35-.57.32-.18-.02-.94-1.46-.71-1.65.4-.31.87-.51,1.42-.53.33-.01.57-.21.86-.31.32-.1.64-.18.97-.25.2-.04.4-.08.6-.12.3-.07.61-.1.89-.2.22-.08.42-.27.63-.4.05-.03.09-.08.14-.1.19-.07.27.04.4.56l.09.35c.09.4.07.75-.03.88-.3.41-.66.52-1.03.62-.28.07-.57.1-.85.16l-.02-.04Z"/><path class="cls-3" d="m345.09,114.53c-.33.41-.65.84-.94,1.28-.12.16-.18.34-.3.5-.4.56-.79,1.13-1.13,1.74-.17.26-.28.55-.4.83-.14.36-.25.74-.49,1.07-.08.1-.27.03-.45-.14-.18-.17-.36-.43-.33-.67.13-.83.32-1.66.84-2.35.29-.42.44-.92.68-1.37.26-.5.59-.96.9-1.43.2-.28.4-.57.6-.85.3-.43.64-.83.91-1.27.22-.34.36-.73.54-1.09.04-.08.07-.17.12-.24.18-.28.34-.29.74-.04.09.06.19.11.27.17.3.21.44.5.38.74-.19.72-.59,1.29-.99,1.87-.31.42-.62.85-.93,1.28l-.04-.02Z"/><path class="cls-3" d="m439.38,71.17c-.28.24-.41-.28-.46-1.27-.02-.32.11-1.25.2-1.38.17-.24.33-.47.49-.63.1-.1,1.48-.36,1.95-.49.46-.12.9-.1,1.33-.04.88.11,1.78.18,2.66.28.2.02.39.09.57.2.64.38,1.31.48,1.99.5.11,0,.23.04.35-.09.21-.21,2.04.03,2.26.17.55.36,1.12.61,1.68.9.08.04.18,0,.23.18.13.42.32.37.5.43.25.07.49.17.73.33.12.08.21.32.31.51.09.18-.05.75-.09.81-.14.17-.08.46-.1.7,0,.08-.02.19-.03.26-.03.15-1.61.98-1.77.96-.04,0-2.2.06-2.45.11-.13.03-.25-.08-.36-.15-.06-.03-1.8.1-1.86.09-.35-.09-.72.03-1.02-.37-.06-.08-.13-.07-.21-.07-.61,0-1.2-.22-1.79-.37-.3-.08-.62-.07-.93-.1-.06,0-.1-.07-.16-.1-.07-.04-.13-.1-.2-.1-.74-.04-1.44-.33-2.19-.24-.17.02-.92-.51-1.12-.47-.11.02-.39-.66-.5-.56Z"/><path class="cls-3" d="m435.2,60.63c.19.38-.36.53-1.37.57-.32.01-1.24-.2-1.35-.33-.21-.24-.41-.49-.54-.72-.09-.14-.05-2.13-.03-2.82,0-.67.17-1.3.36-1.91.41-1.25.81-2.5,1.31-3.72.11-.27.26-.53.45-.76.67-.8,1.09-1.69,1.47-2.61.06-.15.16-.29.1-.5-.12-.35,1.2-2.74,1.49-2.97.69-.61,1.29-1.25,1.95-1.85.09-.09.12-.22.33-.22.48,0,.57-.25.74-.45.24-.28.51-.54.83-.76.16-.11.44-.12.69-.16.22-.03.65.39.67.47.06.24.36.3.56.43.07.05.16.1.21.15.1.11-.2,2.31-.31,2.49-.06.03-1.28,2.63-1.34,2.96-.05.17-.21.27-.34.39-.08.05-.82,2.22-.85,2.3-.25.4-.3.89-.82,1.17-.1.05-.12.15-.16.24-.27.77-.7,1.45-1.08,2.18-.2.37-.28.78-.43,1.17-.03.07-.1.12-.15.18-.06.08-.14.15-.16.24-.27.94-.77,1.82-.86,2.82-.03.22-.72,1.16-.73,1.43,0,.15-.74.47-.66.62Z"/><path class="cls-3" d="m55.51,235.29c-.15.34-.51-.06-1.02-.91-.16-.27-.47-1.17-.45-1.31.05-.29.1-.57.17-.79.05-.13,1.21-1.02,1.6-1.35.37-.32.79-.51,1.23-.66.88-.32,1.74-.68,2.62-1,.19-.07.41-.1.63-.09.77.04,1.44-.19,2.09-.5.11-.05.23-.07.29-.24.1-.29,1.92-.93,2.19-.91.68.06,1.32.01,1.98.01.09,0,.16-.08.3.05.31.31.47.18.66.15.27-.05.54-.08.83-.05.15.02.34.19.53.31.17.11.3.69.29.77-.05.22.14.45.23.67.03.08.07.18.09.24.04.14-1.06,1.63-1.21,1.68-.04.01-2.03,1.09-2.24,1.25-.11.08-.27.04-.41.04-.07,0-1.63.94-1.7.95-.36.09-.66.36-1.12.16-.09-.04-.16,0-.22.04-.58.28-1.22.37-1.85.51-.32.07-.61.23-.91.34-.06.02-.13-.01-.19-.01-.08,0-.17-.02-.23,0-.71.31-1.5.39-2.16.82-.15.1-1.1-.02-1.27.11-.1.07-.66-.4-.72-.27Z"/><path class="cls-3" d="m54.33,201.9c-.41-.1-.18-.62.46-1.39.2-.25.97-.8,1.13-.8.32-.01.62-.02.87.02.15.03,1.55,1.14,2.06,1.48.49.33.87.75,1.23,1.19.74.88,1.52,1.73,2.3,2.58.17.19.31.41.42.65.37.85.97,1.5,1.64,2.08.11.1.2.22.4.22.32,0,2.02,1.68,2.16,1.97.36.73.81,1.38,1.23,2.07.06.1.19.13.15.33-.09.45.13.56.29.74.22.25.43.52.6.84.08.16.06.43.07.68,0,.22-.44.62-.52.63-.24.04-.32.34-.47.53-.05.07-.12.15-.16.2-.11.11-2.28-.41-2.44-.57-.04-.03-2.42-1.73-2.71-1.94-.15-.09-.22-.28-.3-.44-.05-.06-1.95-1.47-2.01-1.55-.31-.37-.76-.62-.84-1.21-.01-.12-.1-.17-.17-.24-.62-.56-1.09-1.27-1.58-1.94-.25-.34-.57-.63-.85-.95-.05-.06-.06-.15-.09-.22-.04-.09-.06-.2-.13-.27-.69-.73-1.18-1.63-1.95-2.3-.18-.15-.52-1.29-.73-1.46-.12-.1.1-.87-.07-.91Z"/></svg>