<svg xmlns="http://www.w3.org/2000/svg" width="520" height="520" viewBox="0 0 520 520"><defs><style>.cls-1{fill:#231f20;}</style></defs><title>Notioly New upgrade</title><g id="n.120_Calendar" data-name="n.120 Calendar"><path class="cls-1" d="M109.63,434.64c4.57,1.1-32.21-.69-35.37-5.11s11.6-8.24,13.25-9.37A39.86,39.86,0,0,0,109.63,434.64Z"/><path class="cls-1" d="M169.08,124.54s7.85,4.2,9.59,2.31,4.74-7.79,11.26-5.89,8.8,4.43,9.67,11.57l.86,7.15a40.33,40.33,0,0,0,26-30.47c4.91-24.25-1.58-43-21.18-34.48L203,76.33S187.18,38.4,147,58c0,0-22.62,13.14-26.57,33.42,0,0-25.81-10.92-35.09,16.37a36.33,36.33,0,0,0,8.55,34.53s-3.73-2.2-8.78,4.12-13.41,15.92,1.72,37.22c0,0,19.76,18.75,40.28,7.5l.32-2.41s-12.23,5.21-17.92-12.05c0,0-3.82-11.4,6.84-12.72s13.26,11.33,16.28,10.79,6.69,1.67,7.8-4.38-9.53-14.5,3.16-33.54S169.08,124.54,169.08,124.54Z"/><path class="cls-1" d="M154.09,311.93a20.45,20.45,0,0,0,2.39-1.74l.82-.74,3-2.55,1.35-1.14a5.82,5.82,0,0,1,2-1.23c.24-.07.3.18.23.49a1.54,1.54,0,0,1-.52.93c-1.11.86-2.16,1.92-3.38,2.84-.73.56-1.36,1.27-2.06,1.9a29.49,29.49,0,0,1-2.43,2,14.3,14.3,0,0,1-1.68,1,4.75,4.75,0,0,1-3.06.57,3.87,3.87,0,0,1-2.16-1.26,4.62,4.62,0,0,1-.34-.41c-.38-.55-.34-.8-.07-1.08a1.62,1.62,0,0,1,.19-.18c.24-.17.57-.07.84.24a6.53,6.53,0,0,0,1.22,1.08,2,2,0,0,0,1.29.24,5.92,5.92,0,0,0,2.39-1Z"/><path class="cls-1" d="M215.55,301.83a17.33,17.33,0,0,1-1.71-.66c-.2-.08-.41-.13-.6-.22-.69-.32-1.35-.67-2-1a5.29,5.29,0,0,0-.92-.32c-.39-.1-.79-.15-1.1-.26-.09,0-.14-.27,0-.52a.73.73,0,0,1,.69-.43,7.76,7.76,0,0,1,2.52.88,9.58,9.58,0,0,0,1.47.54c.54.19,1.07.38,1.61.53.33.08.66.17,1,.22a2.81,2.81,0,0,0,1.42-.05,1.13,1.13,0,0,0,.59-.65c0-.05,0-.11.08-.17s.29-.27.57-.27h.2c.2,0,.36.18.44.53a1.79,1.79,0,0,1-.67,1.47,2.85,2.85,0,0,1-1.52.6,5.69,5.69,0,0,1-2-.21Z"/><path class="cls-1" d="M256,271.82c3.12-2.85,5.17-7.18,9-9.24,1.55-.85.16-3.23-1.39-2.38-4,2.21-6.2,6.65-9.52,9.68-1.31,1.19.64,3.13,2,1.94Z"/><path class="cls-1" d="M281.2,249.17c-.26-5,5.16-9.66,9-12.08,1.49-.94.11-3.32-1.39-2.37-4.67,2.93-10.69,8.4-10.37,14.45.1,1.76,2.85,1.77,2.75,0Z"/><path class="cls-1" d="M411,360l-9-1.45c-1.1-.17-2.2-.28-3.29-.46q-5.79-1-11.57-2l-5.13-.94c-1.09-.22-2.19-.42-3.28-.68a16.48,16.48,0,0,1-3.16-1.28c-.63-.34-.43-.47.22-.52a11.88,11.88,0,0,1,1.24,0,9.26,9.26,0,0,1,1.73,0c1.07.21,2.18.38,3.27.58l3.31.53c2.22.34,4.43.8,6.66,1.23,2.67.53,5.49.81,8.24,1.2l9.08,1.32,5.59.82,8.47,1.26c2.19.31,4.35.47,6.53.77l1.43.18c1.79.34,2.32.63,2.54,1.35a2.43,2.43,0,0,1,.14.49c.05.53-.76.78-2,.64-3.83-.38-7.86-1-11.91-1.59L411,360Z"/><path class="cls-1" d="M393.48,375.11c1.88.51,3.77,1,5.67,1.4l2.1.41c2.46.56,4.9,1.15,7.37,1.61,1.09.2,2.21.36,3.31.52a21.74,21.74,0,0,1,4.21.95c.42.16.29.47-.15.72a3.36,3.36,0,0,1-2,.41l-2.15-.24-2.14-.34c-1.43-.24-2.87-.5-4.32-.85-1.71-.43-3.53-.62-5.3-1-1.94-.38-3.87-.8-5.81-1.25l-3.56-.88c-1.79-.45-3.57-1-5.34-1.52-1.38-.4-2.77-.72-4.13-1.21-.3-.12-.59-.22-.89-.36-1.09-.48-1.31-.92-1.28-1.48a2.13,2.13,0,0,1,0-.37c0-.2.21-.3.47-.36a2,2,0,0,1,1,.07c2.4.54,4.77,1.41,7.28,2.13,1.85.55,3.73,1.08,5.62,1.55Z"/><path class="cls-1" d="M389.38,440.46l-11.73-2c-1.43-.25-2.86-.43-4.29-.69q-7.53-1.38-15-3L355,434l-1.66-.36-1.64-.42a32.2,32.2,0,0,1-8.26-2.84c-.82-.42-.58-.6.25-.62a19.3,19.3,0,0,1,3.84.43c5.58,1.49,11.31,2.73,17.07,4,3.46.79,7.11,1.31,10.68,1.91l11.81,1.94,7.27,1.16c3.68.56,7.37,1.15,11,1.68l8.46,1.09c.63.08,1.23.18,1.85.29,2.31.42,3,.87,3.41,1.31a2.44,2.44,0,0,1,.28.3c.08.14-.12.22-.56.28a10,10,0,0,1-2,0c-1.25-.14-2.55-.18-3.83-.36l-3.89-.5-7.91-1.12-11.86-1.79Z"/><path class="cls-1" d="M462.35,424s6.77-.06,10.38,3c4,3.41-22,15.39-30.34,15.39Z"/><path class="cls-1" d="M199.72,421.27l8.48,6.49s1.58-4.1-3.44-8.2Z"/><path class="cls-1" d="M195.55,268.29c-.6,10.19,24.72,131.49,24.72,131.49l-15-.17c-15.18-23.47-33.75-136.74-33.75-136.74s7.42,11.46,18.81,8Z"/><path class="cls-1" d="M303.37,321.84s8,13.22,11.35,8.17-4-18.28-7.54-21.42Z"/><path class="cls-1" d="M285.38,295.87c4.5,12,13.27,22.29,22.58,30.92.76.7,3.48-.4,2.69-1.14-9.2-8.53-17.93-18.7-22.37-30.56-.39-1-3.26-.18-2.9.78Z"/><path class="cls-1" d="M203.18,156.83c.68,7,1.67,14.08,2.51,21.17.3,2.59.67,5.17.91,7.77a120.47,120.47,0,0,1,.6,13.86c0,1.16-.06,2.32-.18,3.49l-.14,1.74-.24,1.75c-.13,1.16-.43,2.31-.66,3.47-.13.57-.33,1.14-.49,1.71a13,13,0,0,1-.59,1.69A30.91,30.91,0,0,1,198,223.91a30.46,30.46,0,0,1-13.65,8c-1.65.27-1.52-.17-.45-1.23a30.73,30.73,0,0,1,5.5-4,30.38,30.38,0,0,0,10.81-10.07A25.17,25.17,0,0,0,202,213.4c.22-.57.49-1.11.69-1.69l.55-1.78a45.52,45.52,0,0,0,1.24-7.56c.5-6.22-.23-12.81-.94-19.25-.78-7.1-1.79-14.19-2.65-21.33-.52-4.41-.91-8.82-1.31-13.21-.31-3.33-.59-6.66-1-10a45.4,45.4,0,0,0-1.91-9.59,12.4,12.4,0,0,0-.72-1.66,7.38,7.38,0,0,0-.46-.72,3.72,3.72,0,0,0-.52-.68,8.91,8.91,0,0,0-2.68-2.13,7,7,0,0,0-6.3.1l-.66.32-.62.42c-.21.14-.42.26-.63.41l-.6.48a8.16,8.16,0,0,0-1,.84l-.85.73a14.27,14.27,0,0,1-1.28,1.15,3.65,3.65,0,0,1-1.87,1,4.49,4.49,0,0,1-.83.12c-.39,0-.42-.47-.13-1.24a9.45,9.45,0,0,1,.7-1.38c.35-.51.78-1.09,1.3-1.72a15,15,0,0,1,6.24-4.46A10.16,10.16,0,0,1,190,120a9.8,9.8,0,0,1,4.16,1.37,11.68,11.68,0,0,1,3.2,2.8,5,5,0,0,1,.63.88c.2.32.42.64.58.95a20.29,20.29,0,0,1,.8,1.9A42.51,42.51,0,0,1,201,135.3c1.05,7.24,1.45,14.4,2.22,21.51Z"/><path class="cls-1" d="M128.88,167.62a18.76,18.76,0,0,0,3.07,4.31,4.81,4.81,0,0,0,3.74,1.75,3.36,3.36,0,0,0,1-.23,4.76,4.76,0,0,0,1-.47,1.65,1.65,0,0,0,.52-.49,2.63,2.63,0,0,0,.31-.83,10.33,10.33,0,0,0,.21-1.26,3.74,3.74,0,0,0,0-.5c0-.18,0-.34,0-.55a19.17,19.17,0,0,0-.55-2.64c-.35-1.34-.8-2.69-1.19-4.12a16,16,0,0,1-.51-2.32c-.08-.75-.17-1.51-.18-2.27a33.46,33.46,0,0,1,.7-7.89,42.28,42.28,0,0,1,2.23-7.5,38.31,38.31,0,0,1,8.42-13.07,24.52,24.52,0,0,1,12.07-6.89c.73-.19,1.49-.24,2.24-.36s1.52-.12,2.27-.08a11.41,11.41,0,0,1,4.62.84,14.08,14.08,0,0,1,3.86,2.52c1.14.92,2,2.08,3.05,2.88,1.35.92,1.1,1.22-.52.92a20.34,20.34,0,0,1-3.2-1.08c-1.23-.57-2.42-1.35-3.64-1.9a8.33,8.33,0,0,0-3.4-.81,17.88,17.88,0,0,0-3.87.19,16.89,16.89,0,0,0-3.72,1c-.61.21-1.18.54-1.77.81s-1.16.63-1.7,1c-4.46,2.9-7.86,7.47-10.5,12.4a35.6,35.6,0,0,0-3.33,9.67,34.31,34.31,0,0,0-.59,5.13c0,.86,0,1.71,0,2.56,0,.42.08.84.11,1.26a11.6,11.6,0,0,0,.19,1.18c.4,1.79,1,3.7,1.51,5.68a16.7,16.7,0,0,1,.52,3.21,6.93,6.93,0,0,1-.05.94l-.11.78a9.84,9.84,0,0,1-.41,1.69,4.66,4.66,0,0,1-1.07,1.73,5.57,5.57,0,0,1-1.55,1.09,6.7,6.7,0,0,1-6.86-.27,11.9,11.9,0,0,1-2.5-2.15,19.38,19.38,0,0,1-2.28-3.11c-.33-.52-.64-1.13-.92-1.6a6,6,0,0,0-.93-1.25,10,10,0,0,0-10.71-2,6.52,6.52,0,0,0-3.36,3.34,9.58,9.58,0,0,0-.61,5,20.94,20.94,0,0,0,1.35,5.09,14.59,14.59,0,0,0,4.51,6.44,10.9,10.9,0,0,0,7.16,2.14,17.1,17.1,0,0,0,3.38-.53,45.83,45.83,0,0,0,4.46-1.25,6.6,6.6,0,0,1,2.19-.38c.27,0,.59,0,.78,0,.64.07-.64,1.77-3.89,3.31a17.26,17.26,0,0,1-8,1.74,13.23,13.23,0,0,1-8.22-3.1,15,15,0,0,1-2.92-3.35,20.65,20.65,0,0,1-2-3.84c-.26-.66-.52-1.33-.72-2s-.41-1.36-.58-2.07a17,17,0,0,1-.43-4.49,11.76,11.76,0,0,1,.73-3.51,9.54,9.54,0,0,1,2-3.15,10.66,10.66,0,0,1,6.5-3,13.63,13.63,0,0,1,6.83,1,11.93,11.93,0,0,1,3,1.87,10.37,10.37,0,0,1,2.32,2.84Z"/><path class="cls-1" d="M230.48,91.1a44.17,44.17,0,0,1-.28,8,57.71,57.71,0,0,1-1.46,7.74c-.23.93-.45,1.85-.72,2.77s-.53,1.84-.86,2.73a64.2,64.2,0,0,1-4.16,9.16,58.56,58.56,0,0,1-5.52,8.38,37.71,37.71,0,0,1-6.31,6.38,28.11,28.11,0,0,1-2.4,1.63c-.41.27-.86.45-1.29.68s-.86.46-1.32.62a17.28,17.28,0,0,1-2.79.86c-.48.1-1,.21-1.43.28l-1.45.1c-1.21.06-1.05-.47-.15-1.12a29.22,29.22,0,0,1,4.23-2.28,20.75,20.75,0,0,0,4.5-2.68,32.32,32.32,0,0,0,4-3.56,53.83,53.83,0,0,0,6.55-8.82,48.2,48.2,0,0,0,3.1-6.08,59.1,59.1,0,0,0,2.31-6.46,55.43,55.43,0,0,0,2.49-14.82,30.74,30.74,0,0,0-1.07-9.08,20.23,20.23,0,0,0-2.87-6.17,11.59,11.59,0,0,0-5-4.2,14.69,14.69,0,0,0-4.95-1.22,10.77,10.77,0,0,0-4.75.79,18.35,18.35,0,0,0-1.92,1,16.11,16.11,0,0,1-2.68,1.35,3.53,3.53,0,0,1-1.67.11,4.64,4.64,0,0,1-.63-.1c-.28-.11-.24-.43,0-1a6.56,6.56,0,0,1,1.65-2.18,14.3,14.3,0,0,1,4.76-2.8,13.55,13.55,0,0,1,5.9-.7A17.83,17.83,0,0,1,219.86,72a15.88,15.88,0,0,1,4.9,3.51,21.32,21.32,0,0,1,2.56,3.59l.94,1.92a20.79,20.79,0,0,1,.75,2,31.47,31.47,0,0,1,1.54,8.12Z"/><path class="cls-1" d="M140.45,59.37a53.27,53.27,0,0,1,8.72-4.82c.77-.33,1.56-.59,2.34-.89s1.55-.61,2.36-.81l2.42-.64,1.21-.32,1.22-.24a41.55,41.55,0,0,1,19.85.67,49.84,49.84,0,0,1,6,2c1,.4,1.93.84,2.88,1.28s1.91,1,2.81,1.55a30.06,30.06,0,0,1,8.45,7.55,27.23,27.23,0,0,1,3.63,6.3,16.26,16.26,0,0,1,1.36,7.1c0,1.5-.49,1.32-1.29.21-.36-.56-1-1.3-1.57-2.19a16,16,0,0,1-.89-1.4,17.2,17.2,0,0,1-.72-1.62,26.8,26.8,0,0,0-7.48-10.42,27.86,27.86,0,0,0-5.41-3.64,53.77,53.77,0,0,0-6.26-2.72,38,38,0,0,0-16.54-1.79,44,44,0,0,0-4.58.68c-1.52.32-3,.76-4.48,1.16l-2.18.8a18.29,18.29,0,0,0-2.15.88A40.66,40.66,0,0,0,146,60.21,50.18,50.18,0,0,0,136.7,67,52.88,52.88,0,0,0,126,80.79a42.86,42.86,0,0,0-4.37,12.56c-.24.94-.3,1.89-.45,2.85s-.3,1.63-.42,2.24a9,9,0,0,1-.3,1.53,3.16,3.16,0,0,1-1.08,1.68,4.65,4.65,0,0,1-.65.51c-.35.18-.64-.12-.87-.82a11.6,11.6,0,0,1-.45-3.28,41.67,41.67,0,0,1,2.52-12.79,56.46,56.46,0,0,1,6.29-11.86,58.29,58.29,0,0,1,14.21-14.12Z"/><path class="cls-1" d="M82,114.05a32,32,0,0,1,4.47-13.3,29.93,29.93,0,0,1,2.93-4.19c.51-.56,1-1.14,1.52-1.66l1.61-1.55a35.91,35.91,0,0,1,3.59-2.79,27.08,27.08,0,0,1,8.42-3.19,28.84,28.84,0,0,1,7.93-.61,17.43,17.43,0,0,1,5.11,1.12,8.27,8.27,0,0,1,4.15,3.34c.61,1,0,1.16-1.16,1.11-.57,0-1.24-.11-2-.16a6.08,6.08,0,0,1-2.08-.53,17.85,17.85,0,0,0-8.36-1.08,28.76,28.76,0,0,0-4.46.66,30,30,0,0,0-4.33,1.41c-.41.18-.8.39-1.2.6s-.74.47-1.12.71c-.74.58-1.49,1.22-2.21,1.87A34,34,0,0,0,91,100.13a26.86,26.86,0,0,0-3.25,5.42,25.86,25.86,0,0,0-2,6,31,31,0,0,0-.53,7.88,35.75,35.75,0,0,0,2.71,11.74A31.66,31.66,0,0,0,92.77,139c.44.49.88,1,1.34,1.42,1.59,1.83,2.07,2.21,2.14,3.2,0,.2.12.41.14.56s-.22.38-.85.41a4.36,4.36,0,0,1-2.34-.9,15.14,15.14,0,0,1-3.41-3.17,28.31,28.31,0,0,1-2.69-3.8,38.69,38.69,0,0,1-5.23-22.67Z"/><path class="cls-1" d="M81.22,170.82a38.88,38.88,0,0,0,3.15,6.57,35.75,35.75,0,0,0,4.45,5.73c.65.6,1.3,1.21,2,1.77s1.38,1.1,2.11,1.61a38.69,38.69,0,0,0,17.49,7,25.88,25.88,0,0,0,8.38-.12,23.46,23.46,0,0,0,5-1.55c.38-.18.78-.36,1.16-.56s.74-.42,1.09-.65a4.92,4.92,0,0,0,1.72-1.55c.2-.35.34-.53.55-.52s.44.27.51.9a5.73,5.73,0,0,1-3.05,4.81,19.18,19.18,0,0,1-5.84,2.26,26.91,26.91,0,0,1-6.12.64,26.45,26.45,0,0,1-6-.69,38.91,38.91,0,0,1-5.76-1.64l-1.69-.62-1.68-.7c-1.13-.43-2.22-1-3.33-1.53a34.17,34.17,0,0,1-6.21-4,33.16,33.16,0,0,1-5.56-5.86,36.77,36.77,0,0,1-4.09-6.9L79,174.07l-.44-1.14c-.28-.77-.62-1.52-.84-2.3s-.49-1.55-.71-2.34-.39-1.62-.55-2.43a26,26,0,0,1-.14-7.52,23.45,23.45,0,0,1,2.19-7.15,23.92,23.92,0,0,1,3.13-4.87A19.87,19.87,0,0,1,86,142.51a11.31,11.31,0,0,1,2.28-1.21c3-1.12,4.17-.91,4.91-.36a5,5,0,0,1,.48.32c.17.18,0,.4-.51.76A15.75,15.75,0,0,1,91,143.11a20.76,20.76,0,0,0-7.27,5.44,20.11,20.11,0,0,0-4,8.3,22,22,0,0,0-.29,7c.09.58.13,1.17.26,1.75l.42,1.72c.15.58.37,1.17.56,1.75a17.09,17.09,0,0,0,.62,1.74Z"/><path class="cls-1" d="M173.76,274.52c2,10.39,3.87,20.78,5.89,31.15.73,3.78,1.57,7.54,2.34,11.31,2.69,13.31,5.61,26.56,9,39.7.72,2.92,1.56,5.82,2.38,8.72s1.69,5.78,2.59,8.62c.58,1.83,1.14,3.67,1.75,5.49l1.85,5.45c1.2,3.65,2.43,7.29,3.52,11,.58,2.34.13,2.17-1.13.47a33.2,33.2,0,0,1-2.27-3.65c-.42-.78-.86-1.63-1.29-2.54-.22-.46-.44-.94-.65-1.43s-.38-1-.56-1.53a397.48,397.48,0,0,1-12.72-45.62c-2-9.28-4.26-18.88-6.18-28.39-2.11-10.44-4.08-20.92-6-31.4-1.19-6.44-2.36-12.9-3.6-19.32q-1.44-7.31-2.87-14.62c-.94-4.89-1.81-9.78-2.56-14.67-.07-.43-.13-.87-.2-1.29l-.31-.2-.5-.34-1.1-.77c-.73-.52-1.44-1-2.15-1.58-1.42-1.07-2.8-2.2-4.15-3.35a63.18,63.18,0,0,1-7.52-7.56c-.57-.64-1.06-1.33-1.58-2l-.77-1c-.23-.36-.46-.72-.7-1.08-.41-.69-.84-1.29-1.14-1.9s-.54-1.17-.78-1.69c-.11-.25-.21-.5-.32-.73s-.15-.48-.22-.7c-.13-.44-.24-.84-.35-1.2l-.24-1c0-.3-.05-.58-.06-.83a6.9,6.9,0,0,1,.06-1.26,7.66,7.66,0,0,1,.14-.94c.12-.32.42.12.88,1.14a38.25,38.25,0,0,0,2.21,4.5,50.14,50.14,0,0,0,8.84,11.19c1.73,1.72,3.61,3.33,5.52,4.9,1,.78,1.95,1.54,2.95,2.28l1.52,1.08.76.53,1.47,1,.33,2.29.24,1.48c.16,1,.32,2,.49,3,.36,2,.71,4,1.07,6,1,5.2,2.09,10.4,3.13,15.66s2.05,10.48,3.07,15.72Z"/><path class="cls-1" d="M204.14,332.39q-2.22-13.31-4.22-26.65c-.5-3.24-1-6.47-1.51-9.72-1.6-11.45-3-22.92-4.21-34.43-.51-5.11-1.06-10.24-1.49-15.32-.51-6.53-1.18-13.12-.31-19.75.27-2.06.81-1.69,1.29.07a45.33,45.33,0,0,1,1.28,8.56c.26,6.59.86,13.2,1.49,19.82s1.33,13.28,2,20c.82,8,2.16,16.25,3.37,24.38q2,13.41,4.19,26.8,1.36,8.23,2.82,16.45c1.49,8.29,3,16.62,4.75,24.8,1.35,6.36,2.91,12.54,4.48,18.76.36,1.36.71,2.7,1.08,4.07,1.34,5.09,1.63,6.7,1.35,8-.06.29-.08.66-.15.86-.2.66-1.62-1.22-2.84-4.95-3.6-11.05-6.11-22.94-8.51-34.9-1.77-8.88-3.37-17.83-4.93-26.77Z"/><path class="cls-1" d="M191.26,272.61a10.13,10.13,0,0,1-3.9.66l-.93,0-.9-.11a13,13,0,0,1-1.78-.36c-.43-.09-.83-.22-1.25-.34a7.14,7.14,0,0,1-1.2-.43,24.45,24.45,0,0,1-7-5c-.88-.88-1.79-1.72-2.64-2.6a20,20,0,0,1-2.87-3.74c-.23-.44.18-.66.81-.65a3.75,3.75,0,0,1,2.13.84c.58.5,1.16,1,1.75,1.47l1.66,1.51c1.1,1,2.25,1.94,3.36,2.95a13.4,13.4,0,0,0,4.71,2.47,11.32,11.32,0,0,0,5.53.55,5.19,5.19,0,0,0,2.77-1.46,8.35,8.35,0,0,0,2.08-4.79,22.06,22.06,0,0,0-.09-4.37c0-.32-.09-.63-.1-1a4.34,4.34,0,0,1,.06-.78,1.53,1.53,0,0,1,.25-.53,1.57,1.57,0,0,1,.82-.61,4.5,4.5,0,0,1,.48-.2c.51-.13,1,.36,1.5,1.27a15.66,15.66,0,0,1,0,9.11,12,12,0,0,1-1.81,3.58,9.32,9.32,0,0,1-3.41,2.65Z"/><path class="cls-1" d="M86.57,419.23a28.77,28.77,0,0,1-4.08-11.9l-.17-1.56,0-1.57c-.06-1.05,0-2.05,0-3.06,0-2,.16-4,.31-6a165.15,165.15,0,0,1,3.77-23.68c1.3-5.68,2.73-11.32,4.47-16.86a271.1,271.1,0,0,1,10.78-28.73,260,260,0,0,1,13.91-27.34A164.11,164.11,0,0,1,131,276.09a59.87,59.87,0,0,1,13-11.91,26.78,26.78,0,0,1,4.07-2.06,15.91,15.91,0,0,1,4.52-1.16,12.28,12.28,0,0,1,8.95,2.52A6.38,6.38,0,0,1,163,265c.25.36.3.58.19.65s-.4,0-.83-.13-1-.43-1.69-.67a13.3,13.3,0,0,0-5.62-.92,17,17,0,0,0-3.55.78,29.85,29.85,0,0,0-3.88,1.67c-4.77,2.55-9,6.54-12.79,10.76a128.15,128.15,0,0,0-10.54,13.74A246.61,246.61,0,0,0,107,321.39a249.73,249.73,0,0,0-15,40.43A197.59,197.59,0,0,0,86.82,385c-.6,3.91-1.07,7.84-1.33,11.77-.14,2-.21,3.94-.24,5.91,0,1,0,1.93.08,2.89s.16,1.92.35,2.86A25.54,25.54,0,0,0,91.6,421a34.81,34.81,0,0,0,11.47,8.38,57.12,57.12,0,0,0,10.33,3.67,77.9,77.9,0,0,0,10.85,2,94.44,94.44,0,0,0,11,.64c3.67,0,7.36-.23,11-.47,11.41-.81,22.51-2.53,33.77-3.94,2.48-.32,4.91-.63,7.42-.9,2.33-.25,4.26-.43,5.89-.54s2.94-.1,4-.1a19.12,19.12,0,0,1,4.45.42c.46.11,1.07.18,1.34.26.9.22-2.87,1-9.62,1.86-10,1.11-20.31,2.65-30.82,3.93-5.25.64-10.57,1.21-15.93,1.6l-4,.27-4,.19c-2.72.1-5.46.08-8.19,0a83.73,83.73,0,0,1-24-4.32,46.71,46.71,0,0,1-11.14-5.59,31.68,31.68,0,0,1-8.88-9.06Z"/><path class="cls-1" d="M216.22,401.67c-3.7.17-7.42.42-11.14.69s-7.49.56-11.25.61c-2.74.11-5.47.16-8.2.17-9.64-.07-19.25-.55-28.83-1-4.26-.19-8.53-.31-12.75-.37-1.35,0-2.71,0-4.06,0s-2.71,0-4.05.09a61.79,61.79,0,0,0-8,.66c-1.63.23-1.53,0-.23-.73a13.33,13.33,0,0,1,2.87-1.15,13.8,13.8,0,0,1,2-.42,19.6,19.6,0,0,1,2.27-.27c5.61-.34,11.17-.31,16.73-.15s11.12.4,16.7.66c6.67.34,13.61.3,20.42.17,1.87,0,3.75-.08,5.61-.17s3.73-.14,5.6-.3l11.25-.87c4.63-.33,9.27-.59,13.94-.6,1.77,0,3.55.05,5.33.22a18.71,18.71,0,0,1,5.38,1.15,100.87,100.87,0,0,1,9.44,4.83,83.23,83.23,0,0,1,13.42,9.19c.93.77,1.77,1.64,2.65,2.5s1.37,1.59,1.84,2.24a15.49,15.49,0,0,1,1,1.73,3.69,3.69,0,0,1,.29,2.32,4,4,0,0,1-.18.77c-.15.3-.54.1-1.15-.45a10.08,10.08,0,0,1-1-1.08,15.77,15.77,0,0,1-1.31-1.54,42.11,42.11,0,0,0-4.92-4.89c-.86-.79-1.84-1.5-2.76-2.25s-1.92-1.46-2.93-2.14a90,90,0,0,0-12.73-7.47c-.82-.4-1.66-.78-2.47-1.12-.2-.08-.41-.18-.61-.25l-.55-.15-.54-.17-.63-.11a37.29,37.29,0,0,0-5.31-.48c-3.67-.11-7.4,0-11.14.2Z"/><path class="cls-1" d="M192.47,414.15a29.25,29.25,0,0,0,3.74,4c.5.45,1.06.84,1.58,1.28a54.54,54.54,0,0,0,6,4c.93.59,1.89,1.19,2.78,1.86a8.23,8.23,0,0,1,2.87,3.31c.19.44-.24.56-.79.46a3.18,3.18,0,0,1-1.7-.84c-1.75-1.8-4.18-3.05-6.6-4.57-.72-.45-1.51-.87-2.3-1.33-.39-.22-.79-.47-1.18-.74s-.72-.53-1.08-.8a36.42,36.42,0,0,1-4.35-4,25.42,25.42,0,0,1-2.28-2.87,18.84,18.84,0,0,1-2.41-5.06,15.21,15.21,0,0,1-.8-4.3c0-.33,0-.65,0-1,.15-1.21.46-1.55,1.11-1.64a3.64,3.64,0,0,1,.45-.05c.5,0,.81.56.84,1.32,0,.57.12,1.13.15,1.68s.13,1.1.27,1.64a15,15,0,0,0,1,3.19,20.57,20.57,0,0,0,2.74,4.44Z"/><path class="cls-1" d="M233,423.45a30.66,30.66,0,0,0-4-1.22l-.43-.07c-.15,0-.28,0-.28,0h-.06l-.14,0-.59.14a21.45,21.45,0,0,1-2.4.4,19.66,19.66,0,0,1-3.51.17,28.3,28.3,0,0,1-5.94-1.06c-1-.27-1.89-.56-2.81-.87l-1.38-.45-.66-.22c-.19,0-.34-.1-.56-.13a17.21,17.21,0,0,0-4.83.19c-2.08.34-4.22.83-6.16,1.31-.5.16-.8-.23-.45-1a4.42,4.42,0,0,1,2.54-1.95,33.57,33.57,0,0,1,6.82-1.3c.6,0,1.21-.05,1.86,0a7,7,0,0,1,1,.14l.55.13.4.14,3.13,1.07a21.32,21.32,0,0,0,7.66,1,19.41,19.41,0,0,0,4.15-.59l.61-.17a2.37,2.37,0,0,1,.87-.07,8.46,8.46,0,0,1,1.29.15,22.46,22.46,0,0,1,2.32.59c1.82.57,3.56,1.24,5.3,1.9,2.63,1,5.23,2.09,7.85,3a38.16,38.16,0,0,0,6.11,1.41c.43.08.86.1,1.27.15a3.47,3.47,0,0,1,2.22.82,3.39,3.39,0,0,0,.48.17c.26.07.37.33.08.85a3.09,3.09,0,0,1-1.83,1.07,14.82,14.82,0,0,1-6.36-.6c-2-.53-3.92-1.2-5.83-1.9-2.83-1-5.61-2.19-8.38-3.14Z"/><path class="cls-1" d="M257.22,420.4l.89.83c.52.49,1.06,1,1.54,1.49a10.83,10.83,0,0,1,2.27,2.78,2.92,2.92,0,0,1,.28,1.1,1.59,1.59,0,0,1-.29,1.13,1.4,1.4,0,0,1-.4.32,2.57,2.57,0,0,1-.47.23,3.8,3.8,0,0,1-1.33.22c-.4,0-.79-.05-1.22-.1a18.14,18.14,0,0,1-5.28-1.41,22.1,22.1,0,0,1-3-1.77l-2.74-1.82c-1.83-1.21-3.66-2.38-5.54-3.47a39,39,0,0,0-5.17-2.5c-1.13-.44-2.26-.83-3.39-1.21s-2.26-.67-3.39-1c-.71-.21-.66-.61,0-1.09a5.25,5.25,0,0,1,1.52-.73,4.84,4.84,0,0,1,2.15,0,26.92,26.92,0,0,1,7.42,2.87,63.43,63.43,0,0,1,6.61,4.09c1.27.89,2.59,1.73,3.92,2.54l1,.6c.31.19.62.36.94.52s.65.31,1,.45l.5.21.41.16a6,6,0,0,0,1.08.33,5.6,5.6,0,0,0,.75.12c.11,0,.31,0,.32-.11a.64.64,0,0,0-.11-.3,6.39,6.39,0,0,0-.93-1.08c-.14-.17-1.21-1-2-1.66s-1.65-1.29-2.49-1.91c-2.56-1.87-5.13-3.8-7.84-5.4a31,31,0,0,0-6.46-3c-.48-.15-1-.25-1.45-.38-1.84-.37-2.26-1-2.59-1.76-.08-.18-.2-.34-.26-.49s.07-.5.52-.75a3.53,3.53,0,0,1,1.93-.41,16.87,16.87,0,0,1,3.53.76,22.06,22.06,0,0,1,3.35,1.43,60.12,60.12,0,0,1,6.08,3.62,76.88,76.88,0,0,1,8.31,6.47Z"/><path class="cls-1" d="M242.43,312.64c-1.86-6.1-3.7-12.2-5.63-18.26-.71-2.21-1.53-4.38-2.26-6.58-1.29-3.87-2.61-7.73-4.07-11.51-.74-1.89-1.52-3.76-2.37-5.56-.44-.9-.86-1.8-1.36-2.64a11.21,11.21,0,0,0-.75-1.21,10.2,10.2,0,0,0-.87-1.18,20.82,20.82,0,0,0-7.86-6.56A14.94,14.94,0,0,0,211,258c-.55,0-1.1,0-1.65.06s-1.11.09-1.66.16-1.12.14-1.67.23l-1.71.19c-1.43.1-1.37-.32-.34-1.25a10.53,10.53,0,0,1,6.06-2.55,18.43,18.43,0,0,1,7.88.93,19.91,19.91,0,0,1,6.65,4.26,33.88,33.88,0,0,1,2.62,2.75l1.18,1.45c.38.54.79,1.11,1.14,1.66a42,42,0,0,1,3.17,6.75c2.09,5.43,4.26,11,6.14,16.55,2.06,6.11,4,12.26,5.84,18.41q1.73,5.68,3.46,11.35c1.78,5.72,3.52,11.48,5.47,17.09,1.52,4.35,3.24,8.54,5.05,12.68l1.25,2.68a38,38,0,0,1,1.44,3.57,4.1,4.1,0,0,1,.19,1.06,3.26,3.26,0,0,1,0,.83,7.42,7.42,0,0,1-.1.76c-.12.34-.49.29-1.16-.16a8.61,8.61,0,0,1-2.21-2.55,44,44,0,0,1-3-5.65c-.88-1.94-1.69-3.91-2.46-5.91-1.56-4-3-8.1-4.34-12.21-2-6.11-3.93-12.28-5.87-18.42Z"/><path class="cls-1" d="M273.93,325.8q-1.71,6-3.3,12.13c-.38,1.48-.68,3-1.07,4.46-1.38,5.22-2.79,10.44-4.28,15.65-.68,2.31-1.29,4.65-2,6.95-.45,1.48-.9,3-1.47,4.43a13.9,13.9,0,0,1-2.41,4.2c-.77.8-1.05.16-1.07-.82a10.3,10.3,0,0,1,.12-1.74,9.11,9.11,0,0,1,.58-2.2c1.1-2.75,2-5.71,2.85-8.66s1.74-6,2.62-9c1.08-3.6,1.82-7.44,2.73-11.18q1.49-6.17,3.1-12.32,1-3.78,2-7.56c1.07-3.81,2.27-7.6,3.47-11.35.47-1.46.93-2.91,1.39-4.35.25-.72.46-1.45.73-2.17s.55-1.42.86-2.12.53-1.23.83-1.85a9.71,9.71,0,0,1,.86-1.37,5.42,5.42,0,0,1,.72-.84,2.23,2.23,0,0,1,1.17-.68,2.81,2.81,0,0,1,.5-.09c.48,0,.21,1.06-.32,2.76-1.7,5-3.49,10.19-5.13,15.58-1.2,4-2.36,8.05-3.47,12.12Z"/><path class="cls-1" d="M302,366.24q-2.82,6.6-5.74,13.17c-.71,1.59-1.35,3.22-2.09,4.8-2.59,5.59-5.41,11.08-8.31,16.52-1.29,2.41-2.58,4.85-3.95,7.21a49.35,49.35,0,0,1-2.85,4.46,16.89,16.89,0,0,1-1.74,2.07,6.28,6.28,0,0,1-2.4,1.64,1.27,1.27,0,0,1-.8,0c-.17-.06-.23-.14-.2-.23s.37-.35.66-.69c.59-.67,1.3-2,2.41-3.56a84.27,84.27,0,0,0,5.25-9c1.63-3.12,3.21-6.28,4.83-9.46,1.93-3.79,3.56-7.93,5.34-11.91q2.91-6.58,5.71-13.23,1.73-4.1,3.38-8.2c1.67-4.16,3.36-8.33,4.87-12.51,1.2-3.25,2.1-6.52,3.21-9.74.24-.72.47-1.42.71-2.13.88-2.66,1.55-3.38,2.23-3.79a4.36,4.36,0,0,1,.45-.28c.22-.07.32.19.35.74a10.16,10.16,0,0,1-.21,2.41,131.49,131.49,0,0,1-5.71,18.23c-1.68,4.52-3.49,9-5.34,13.48Z"/><path class="cls-1" d="M309.88,331.46a25.93,25.93,0,0,1-5-4c-1.47-1.44-2.83-2.95-4.14-4.49-1-1.12-2-2.21-2.85-3.4-1.57-2.16-2.92-4.33-4.24-6.56s-2.56-4.5-3.68-6.82c-1-2.06-2-4.12-3-6.19a35.36,35.36,0,0,1-2.76-8.36c-.15-.91.31-.88,1-.28a10.84,10.84,0,0,1,2.21,3.24c.56,1.33,1.2,2.63,1.82,3.93s1.24,2.61,1.88,3.91l4,7.79a44.8,44.8,0,0,0,2.78,4.56c.51.75,1,1.47,1.57,2.2s1.09,1.39,1.65,2.08a59.14,59.14,0,0,0,8.12,8.45,12.49,12.49,0,0,0,2.86,1.8c1,.42,1.68.37,2-.22a3.58,3.58,0,0,0,.27-1,10.54,10.54,0,0,0,.1-1.28,22.25,22.25,0,0,0-.11-2.69,41.48,41.48,0,0,0-.88-5.41,50.7,50.7,0,0,0-2.62-8l-.68-1.68a13.83,13.83,0,0,1-.76-2.22,2.58,2.58,0,0,1,.16-1.3c.06-.17.08-.38.13-.51s.34-.21.86,0a3.93,3.93,0,0,1,1.58,1.54,22.08,22.08,0,0,1,1.89,3.6c.51,1.25,1,2.53,1.34,3.84a53.57,53.57,0,0,1,1.75,8.09c.14,1,.25,2.08.29,3.16a17,17,0,0,1-.14,3.44,7.8,7.8,0,0,1-.25,1,2.39,2.39,0,0,1-.26.64,3.11,3.11,0,0,1-.38.63,3.75,3.75,0,0,1-2.44,1.49,4.11,4.11,0,0,1-1.35,0,5.55,5.55,0,0,1-1.08-.23,9.39,9.39,0,0,1-1.72-.76Z"/><path class="cls-1" d="M307.64,296.23a102.81,102.81,0,0,1,3.3-10.37l.42-1,.24-.55c.11-.23.17-.55.43-.7l.94-.76c.24-.18.46-.39.7-.58A39.66,39.66,0,0,0,322,272a60.07,60.07,0,0,0,2.76-5.35l.8-1.76c.25-.59.57-1.23.85-1.78a8.39,8.39,0,0,0,1-3.27c.09-.75.68-.71,1.27,0a3.36,3.36,0,0,1,.7,1.6,4.38,4.38,0,0,1-.34,2.43c-1.13,2.36-2.11,4.87-3.43,7.21a50,50,0,0,1-4.42,6.86,41.15,41.15,0,0,1-6.86,7.45c-.27.21-.2.1-.4.55s-.35.75-.49,1.17c-.31.81-.61,1.62-.87,2.47-.56,1.67-1,3.38-1.51,5.1-.57,2.11-1.13,4.24-1.65,6.38-.78,3.24-1.58,6.5-2.27,9.75-.54,2.52-.92,5-1.46,7.56-.12.55-.21,1.11-.35,1.66a7.37,7.37,0,0,1-.94,2.11,2.08,2.08,0,0,1-1.06.69,2.59,2.59,0,0,1-.47.13c-.24,0-.36-.21-.44-.64a5,5,0,0,1,0-1.79c.66-4.42,1.66-9.09,2.69-13.8.77-3.49,1.61-7,2.48-10.51Z"/><path class="cls-1" d="M294.5,278.81c.4-2,.75-4,1.07-6l.08-.55c0-.18,0-.21,0-.32s-.08-.56-.16-.9c-.54-2.41-1.43-5-1.87-7.66-.23-1.17-.41-2.37-.53-3.57a8.29,8.29,0,0,1,.7-4.66c.23-.45.59-.19.86.33a3.23,3.23,0,0,1,.33.89,2.51,2.51,0,0,1,.1,1.06c-.19,2.69.57,5.52,1.23,8.44a27.51,27.51,0,0,0,.76,2.67,17.2,17.2,0,0,1,.78,2.9,5.09,5.09,0,0,1,0,1l-.12.77-.23,1.53-.5,3.06c-.22,1.26-.46,2.52-.72,3.77-.4,1.9-.92,3.79-1.49,5.65a31.88,31.88,0,0,1-1.49,4.31,6,6,0,0,1-.46.91q-.25.4-.45.66a2,2,0,0,1-.45.37.92.92,0,0,1-.4.14,1.76,1.76,0,0,1-.46-.06c-.14,0-.27,0-.37-.07-.27-.08-.48-.87-.12-1.59l1.33-3.53c.42-1.2.82-2.46,1.18-3.73.51-1.91,1-3.88,1.32-5.87Z"/><path class="cls-1" d="M311.24,249.48a23.66,23.66,0,0,0-3.6-.34,9.72,9.72,0,0,0-1.66.13,4,4,0,0,0-.69.2l-.24.14a.49.49,0,0,0-.13.1.38.38,0,0,0,0,.61,7.74,7.74,0,0,0,1.69,1,20.38,20.38,0,0,0,2.19.87c1.52.51,3.1.94,4.7,1.33l2.16.5,1.12.28a5.07,5.07,0,0,1,1.22.5,8.06,8.06,0,0,1,2.29,2.15l.82,1.07c.14.16.27.33.41.48s.22.36.35.53c.31.43.21.64-.49.76a2.73,2.73,0,0,1-1.38-.12,3.75,3.75,0,0,1-1.38-.93,7.8,7.8,0,0,0-1.75-1.6,1.59,1.59,0,0,0-.38-.17,2.17,2.17,0,0,0-.45-.12l-1.33-.27a45.87,45.87,0,0,1-5.62-1.61c-1.12-.41-2.28-.79-3.47-1.28a9.64,9.64,0,0,1-1.79-.94,4.58,4.58,0,0,1-.45-.35A3.3,3.3,0,0,1,303,252a3.36,3.36,0,0,1-.68-1.26,2.88,2.88,0,0,1,1.09-2.82,5.65,5.65,0,0,1,2.27-1,15.4,15.4,0,0,1,4.15-.19,41,41,0,0,1,4.87.66,52.21,52.21,0,0,1,7.17,1.88l.71.27c.13.06.25.11.39.19a3,3,0,0,1,.39.24c.42.27.82.58,1.21.89.76.62,1.47,1.28,2.13,1.92.3.29.6.54.88.82a4.14,4.14,0,0,1,.94,1.2,1.72,1.72,0,0,1-.06,1.07,3.8,3.8,0,0,1-.18.54.73.73,0,0,1-.76.39,2.35,2.35,0,0,1-1.37-.54c-1.42-1.09-2.57-2.36-3.71-3.31-.29-.24-.57-.46-.86-.66-.09-.08-.07,0-.07,0l-.14-.06c-.15-.06-.3-.13-.48-.19-.71-.27-1.51-.51-2.31-.74a51.9,51.9,0,0,0-7.3-1.7Z"/><path class="cls-1" d="M308.05,237.18c-.86.09-1.71.18-2.54.29l-1.24.16-.45.08-.33.1a.64.64,0,0,0-.41.27c-.09.19.06.36.23.46a5.18,5.18,0,0,0,1.09.36c.54.13,1.12.24,1.7.35a51.18,51.18,0,0,0,6.43.73c1.09.06,2.19.11,3.3.13l1.65,0c.56,0,1.07,0,1.75,0a14.5,14.5,0,0,1,6.1,2,30.58,30.58,0,0,1,6.13,4.57c.54.56.21.93-.7,1.08a5.36,5.36,0,0,1-3.61-.72c-1.08-.68-2.15-1.32-3.18-1.89a16,16,0,0,0-3-1.47,9.89,9.89,0,0,0-1.47-.37c-.24,0-.48,0-.72-.08s-.64,0-1,0c-1.31,0-2.63-.11-3.95-.23-3.15-.3-6.44-.25-9.77-1a12.24,12.24,0,0,1-1.42-.42,7.25,7.25,0,0,1-.84-.36,4.06,4.06,0,0,1-.91-.52,3.34,3.34,0,0,1-1.27-1.45,2.45,2.45,0,0,1,0-1.86,3.71,3.71,0,0,1,1.18-1.53,6.41,6.41,0,0,1,1.76-.94,6,6,0,0,1,.81-.21c.29-.06.46-.07.7-.1l1.33-.17c2.16-.24,4.32-.4,6.47-.57,3.27-.25,6.52-.46,9.85-.48.32,0,.67,0,1,0a4,4,0,0,1,.62.1,3.53,3.53,0,0,1,.52.17,12.5,12.5,0,0,1,1.83.8,25.31,25.31,0,0,1,3.29,2.05c.46.33.91.64,1.34,1a7.78,7.78,0,0,1,1.56,1.5,1.81,1.81,0,0,1,.27,1.19,3.19,3.19,0,0,1-.06.55c-.08.27-.35.36-.79.3a4.07,4.07,0,0,1-1.67-.69,61.49,61.49,0,0,0-5.49-3.49,12.06,12.06,0,0,0-1.36-.58l-.16-.06-.05,0h0c.69-2,.19-.53.34-1l0,.06a9.25,9.25,0,0,0-.32.88c-.06.07,0,0-.11,0s-.43,0-.71,0c-1.05,0-2.21.06-3.35.13-3.41.22-6.89.49-10.32.91Z"/><path class="cls-1" d="M301.2,236.17A16.1,16.1,0,0,1,298,236a9.12,9.12,0,0,1-1.1-.34,4.92,4.92,0,0,1-1-.47,3.25,3.25,0,0,1-1.32-1.42,2.24,2.24,0,0,1,0-1.86,4.16,4.16,0,0,1,1.3-1.51,12.41,12.41,0,0,1,1.88-1.07c.43-.21.86-.38,1.29-.56,1.24-.49,2.46-1,3.71-1.34,2.18-.65,4.33-1.29,6.55-1.91a36.45,36.45,0,0,1,6.91-1.38,7.25,7.25,0,0,1,1.74.12,12.9,12.9,0,0,1,1.6.4,18.66,18.66,0,0,1,2.94,1.2,23.22,23.22,0,0,1,3.43,2.11,10.39,10.39,0,0,1,2.75,3c.44.77-.07.92-.91.76a15.26,15.26,0,0,1-1.52-.38,5.25,5.25,0,0,1-1.71-.81,26,26,0,0,0-6.3-3.19,8.25,8.25,0,0,0-1.44-.3,12,12,0,0,0-1.63.09c-1.19.16-2.44.42-3.7.69-3,.66-6.13,1.88-9.14,2.86-.83.27-1.64.57-2.44.86l-.59.22-.51.21-.49.24a1.15,1.15,0,0,0-.41.35.36.36,0,0,0,.1.48,1.72,1.72,0,0,0,.47.28,2.25,2.25,0,0,0,.66.16,8.82,8.82,0,0,0,1.38.08c.52,0,1,0,1.57-.07,1.06-.09,2.13-.22,3.19-.38,3.24-.49,6.47-1.16,9.74-1.77a16.49,16.49,0,0,1,2-.28,5.85,5.85,0,0,1,.62,0l.49.09,1,.19a22.31,22.31,0,0,1,3.76,1.22c.53.23,1.06.44,1.58.72,1.82,1.15,2.25,1.7,2.27,2.49,0,.17.06.34.05.46,0,.37-1,.38-2.4-.21-1.05-.38-2-.83-3.05-1.21a24.73,24.73,0,0,0-3.07-1l-.78-.16-.4-.07a.12.12,0,0,1-.1,0l-.66.08-.82.13-3.44.68a82.57,82.57,0,0,1-10.76,1.64Z"/><path class="cls-1" d="M306.55,218a13.22,13.22,0,0,0-2.12.12,5.13,5.13,0,0,0-1.35.4.29.29,0,0,0-.1.26s0,.09,0,.14a.35.35,0,0,0,.09.23,1.79,1.79,0,0,0,.32.45,6.29,6.29,0,0,0,1,.91,17.74,17.74,0,0,0,2.53,1.58,17.28,17.28,0,0,0,2.49,1.1l1.67.58a8.94,8.94,0,0,1,1.59.83c.31.22.14.55-.3.86a2.71,2.71,0,0,1-1.84.54,18.26,18.26,0,0,1-6.91-3c-.62-.48-1.28-.93-1.93-1.53a6,6,0,0,1-1-1.1c-.14-.27-.24-.56-.36-.84a5.17,5.17,0,0,1-.15-.89.32.32,0,0,1,0-.14,2.55,2.55,0,0,1,.85-1.75,3.78,3.78,0,0,1,.83-.59,4.79,4.79,0,0,1,.71-.31,10,10,0,0,1,2.72-.48,19.9,19.9,0,0,1,3.19.11,27.43,27.43,0,0,1,4.67,1,22.32,22.32,0,0,1,3.56,1.21,7,7,0,0,1,.77.4c.91.62,1,1.08.63,1.74a4.21,4.21,0,0,1-.28.45,1.25,1.25,0,0,1-1.51.26,31,31,0,0,0-5.39-1.87,18.41,18.41,0,0,0-4.42-.57Z"/><path class="cls-1" d="M283,192.27l4.46,9.46c.55,1.15,1.2,2.25,1.73,3.4,1.91,4.06,3.76,8.15,5.69,12.19.86,1.79,1.82,3.54,2.8,5.25a40.32,40.32,0,0,1,3.46,6.72c.25.71-.55,1.14-1.68,1a4.62,4.62,0,0,1-3.31-2.07,72,72,0,0,1-3.62-6.91q-1.66-3.52-3.12-7.18c-1.15-2.92-2.79-5.73-4.18-8.61L280.7,196l-2.79-5.86q-1.16-2.4-2.3-4.78a1.41,1.41,0,0,0-.42-.5,5,5,0,0,0-.76-.48,8.48,8.48,0,0,0-2-.62,67.86,67.86,0,0,0-7.36-.92c-.56-.07-1.12-.1-1.69-.22a8.11,8.11,0,0,1-1.35-.36,3,3,0,0,1-.85-.58,1.78,1.78,0,0,1-.46-.69,2.86,2.86,0,0,1-.08-.87,4.66,4.66,0,0,1,0-.69c.07-.32.36-.47.83-.77a1.52,1.52,0,0,1,.76-.31,3.81,3.81,0,0,1,.93-.09,52.89,52.89,0,0,1,6.67.78,27.92,27.92,0,0,1,3.61.94c.62.25,1.23.53,1.88.86a8.67,8.67,0,0,1,2.16,1.25,5.1,5.1,0,0,1,1.29,1.57l4.24,8.55Z"/><path class="cls-1" d="M279.87,241.08a29.17,29.17,0,0,1,5-4.51,18.5,18.5,0,0,1,2.05-1.4,9.43,9.43,0,0,1,2.24-.92,8.34,8.34,0,0,1,.84-.1l.54,0c.36,0,.72.05,1.07.1a22,22,0,0,1,4.23.89,25.46,25.46,0,0,1,3.57,1.41c1.44.75,3,1.56,3.81,3.08.25.46-.21.77-.94.94a5.74,5.74,0,0,1-1.22.15,1.65,1.65,0,0,1-1.16-.29,18.84,18.84,0,0,0-3.62-1.95,26.3,26.3,0,0,0-4.07-1.39,9.71,9.71,0,0,0-1.33-.22,6.18,6.18,0,0,0-1.05,0,9.46,9.46,0,0,0-2.23,1.09,22.12,22.12,0,0,0-4.75,3.79,17,17,0,0,0-2.32,2.92,11.67,11.67,0,0,0-1.19,2.5l-.16.65-.07.33a1.23,1.23,0,0,0,0,.26,2.2,2.2,0,0,0,.06.5,4,4,0,0,0,.24.52,11.07,11.07,0,0,0,3.17,2.75c.27.18.56.36.83.57,1.05.81,1.07,1.56.82,2.1a2.16,2.16,0,0,1-.18.34c-.12.14-.32.15-.59.13a3.17,3.17,0,0,1-1-.24,20.32,20.32,0,0,1-3.54-2.34,7.9,7.9,0,0,1-1.73-2,4,4,0,0,1-.34-.72,3,3,0,0,1-.25-.83,3.19,3.19,0,0,1-.07-.93,3.13,3.13,0,0,1,0-.46l.06-.32a14.34,14.34,0,0,1,3.27-6.44Z"/><path class="cls-1" d="M256.61,264.15a51.63,51.63,0,0,1,4.94-4.23c.63-.48,1.22-1,1.9-1.46a10.62,10.62,0,0,1,2.07-1.08,7.74,7.74,0,0,1,2.38-.47,9.22,9.22,0,0,1,4.44,1.07,30.48,30.48,0,0,1,3.26,1.94,22.15,22.15,0,0,1,1.9,1.4,23.18,23.18,0,0,1,1.58,1.71c.3.38-.05.71-.68.84a3.85,3.85,0,0,1-2.38-.29,4.78,4.78,0,0,1-1-.62l-.9-.65c-.6-.42-1.2-.81-1.8-1.19a13.15,13.15,0,0,0-3.6-1.57,3.91,3.91,0,0,0-2.23.25,8.39,8.39,0,0,0-1.06.57c-.36.24-.74.52-1.12.78a56.67,56.67,0,0,0-4.85,3.9,23.06,23.06,0,0,0-2.63,2.7,3.88,3.88,0,0,0-1.05,2.2,4.46,4.46,0,0,0,.63,2.42,14.31,14.31,0,0,0,2.85,3.2c.24.22.49.41.73.64.9.84,1.05,1.3.77,1.93a2.31,2.31,0,0,1-.15.38c-.16.3-.92.37-1.65-.17a19.66,19.66,0,0,1-3.29-2.81,9.22,9.22,0,0,1-2.38-4.49,5.63,5.63,0,0,1,.08-2.27,4.47,4.47,0,0,1,.38-1.08,6.4,6.4,0,0,1,.53-.92,20,20,0,0,1,2.24-2.67Z"/><path class="cls-1" d="M246.7,261.2c1.64,2.94,3.34,5.86,5.21,8.6a44.52,44.52,0,0,0,3,3.88,11.5,11.5,0,0,0,3.25,2.75,3.9,3.9,0,0,0,2.5-.06,11.2,11.2,0,0,0,1.52-.55,13.3,13.3,0,0,0,1.54-.72,56,56,0,0,0,10.38-7.4c3.28-2.83,6.43-5.87,9.46-9,2.69-2.79,5.25-5.74,7.68-8.73,1.56-1.92,3.05-3.89,4.53-5.86s3-4,4.33-5.85c.42-.62.44-.44.94-.5h0a.27.27,0,0,1,.11.05.54.54,0,0,1,.2.22,2.2,2.2,0,0,1,.19,1,11.25,11.25,0,0,1-2.44,6.5,153.55,153.55,0,0,1-9.79,11.9,134.51,134.51,0,0,1-11,10.87c-2.35,2-4.74,4.12-7.29,6.1a33.2,33.2,0,0,1-8.52,5.05c-.47.14-.92.3-1.41.41a15.42,15.42,0,0,1-1.54.21h-.83l-.42,0-.44-.09c-.29-.08-.59-.15-.87-.25l-.73-.36a15.73,15.73,0,0,1-4.31-3.74,66.48,66.48,0,0,1-6-8.67c-2.23-3.66-4.25-7.42-6.25-11.17-3-5.69-5.83-11.5-8.82-17.12-1.16-2.18-2.36-4.31-3.63-6.37-.66-1-1.34-2-2-2.93a14.11,14.11,0,0,0-1-1.24,4.73,4.73,0,0,0-1.08-.8,8.85,8.85,0,0,0-2.5-.8c-.89-.19-1.7-.32-2.4-.49a9,9,0,0,1-1.72-.6,3.66,3.66,0,0,1-1.07-.75,3.44,3.44,0,0,1-.53-1,5.78,5.78,0,0,1-.31-.8c0-.36.36-.5,1.14-.71A3.69,3.69,0,0,1,217,222c.53,0,1.15,0,1.88.08a27.76,27.76,0,0,1,3.48.54,9.86,9.86,0,0,1,3.88,1.83,9.31,9.31,0,0,1,1.56,1.59,15.68,15.68,0,0,1,1.08,1.56c.64,1,1.19,2.05,1.75,3.07,2.34,4,4.43,8.15,6.55,12.27,3.14,6.11,6.2,12.28,9.57,18.2Z"/><path class="cls-1" d="M147.7,305.26a45.55,45.55,0,0,1,.63-4.83c.26-1.6.58-3.19.93-4.77.26-1.15.46-2.32.77-3.46a49.43,49.43,0,0,1,4.69-11.66,20.84,20.84,0,0,1,3.46-4.61,11.65,11.65,0,0,1,1.52-1.23,8,8,0,0,1,1.86-.82l.49-.14c.17,0,.34,0,.52-.06a5.08,5.08,0,0,1,1,0c.34,0,.67.08,1,.14a4.38,4.38,0,0,1,.91.41c.75.37.4.8-.32,1.27-.36.22-.83.55-1.25.79a5.12,5.12,0,0,1-1.27.53,7.5,7.5,0,0,0-2.24,1.25,13.25,13.25,0,0,0-2.05,2.21A35.17,35.17,0,0,0,155,286a41.54,41.54,0,0,0-2.56,8.12,88.18,88.18,0,0,0-1.78,9.3c-.14,1-.27,1.93-.36,2.89-.06.48-.1,1-.13,1.44s0,1.08,0,1.24a5.47,5.47,0,0,0,0,.57,2.46,2.46,0,0,0,.06.53c.08.2.32.08.46,0a6.29,6.29,0,0,0,.95-.51c1.08-.71,2.16-1.45,3.24-2.2a56.05,56.05,0,0,1,5.9-3.86,10.14,10.14,0,0,1,1.49-.69,5.71,5.71,0,0,1,1.33-.33,2.53,2.53,0,0,1,1,.11,1.41,1.41,0,0,1,1,.88,1.77,1.77,0,0,1,.18.55c0,.28-.18.52-.46.72a9.91,9.91,0,0,1-1.19.7,27.78,27.78,0,0,0-5,2.58c-1.74,1.06-3.48,2.22-5.35,3.38a17.66,17.66,0,0,1-3.35,1.6,2.28,2.28,0,0,1-1.63-.19,1.88,1.88,0,0,1-.56-.52,2.07,2.07,0,0,1-.39-.74,22.79,22.79,0,0,1-.26-2.27,3.88,3.88,0,0,1,0-.59v-1c0-.86.05-1.7.09-2.54Z"/><path class="cls-1" d="M160.24,321.83c.39-1.23.76-2.48,1.07-3.73.11-.46.14-.93.25-1.39.21-.81.38-1.62.6-2.43s.41-1.63.58-2.45a13.45,13.45,0,0,0,.18-2.18c0-.47,0-.93,0-1.38s0-.89,0-1.35c0-.28.42-.36.87-.2a1.8,1.8,0,0,1,1.13,1.22,15.79,15.79,0,0,1,0,6.09c-.22,1.19-.31,2.43-.49,3.64s-.54,2.62-.85,3.93L163,324c-.29,1.21-.68,2.41-1,3.61-.24.94-.26,1.93-.59,2.86a2,2,0,0,1-.25.61c-.49.7-.86.84-1.38.76a2.69,2.69,0,0,1-.32,0c-.31-.07-.54-.55-.63-1.14a12,12,0,0,1,.35-5.1c.26-1.24.7-2.47,1-3.73Z"/><path class="cls-1" d="M168.66,336.41l2,2.43c.24.29.54.53.77.82.82,1.06,1.61,2.14,2.38,3.22.35.47.75.91,1.14,1.34a6.32,6.32,0,0,1,1.37,1.78c.1.22-.25.47-.71.6a1.53,1.53,0,0,1-1.35-.11,19.59,19.59,0,0,1-3.07-3.23,13.68,13.68,0,0,0-1.93-1.95l-2.13-2.15c-.44-.44-.88-.87-1.34-1.28a21.25,21.25,0,0,0-2.14-1.8,7.76,7.76,0,0,0-1.95-.79,2.45,2.45,0,0,1-.41-.11c-.46-.23-.46-.46-.27-1.32.05-.19.08-.39.13-.58a1.21,1.21,0,0,1,1.21-1,7.27,7.27,0,0,1,4.06,1.87,22.14,22.14,0,0,1,2.3,2.24Z"/><path class="cls-1" d="M216.5,294.74c-.36-1.16-.77-2.32-1.21-3.49s-.87-2.32-1.37-3.47c-.36-.83-.83-1.61-1.21-2.44a51.08,51.08,0,0,0-4.79-8.31,17,17,0,0,0-2.86-3,12.23,12.23,0,0,0-4.39-2.33c-.47-.11-.49-.65.08-1.19a3,3,0,0,1,3-.39,16,16,0,0,1,5.09,3.7,22.61,22.61,0,0,1,3.53,4.82c1.15,2.06,2.52,4.07,3.61,6.2a57,57,0,0,1,3.08,7.24c.26.77.51,1.54.73,2.33a26.45,26.45,0,0,1,.65,2.72,6.57,6.57,0,0,1,.08,1.91,2.73,2.73,0,0,1-.25.81,1.18,1.18,0,0,1-.63.57,4.68,4.68,0,0,1-2.81-.19l-2.33-.71a15,15,0,0,0-5.12-.57c-.36,0-.7.09-1,.14-1.25.15-1.63.11-2.22-.59-.13-.16-.3-.31-.41-.47-.4-.52,0-1.35,1.25-1.86a11.1,11.1,0,0,1,5.73-.36,22.3,22.3,0,0,1,2.68.62l1.26.38.31.1h0a0,0,0,0,0,.06,0v0s0,.05,0-.11l-.18-.65c-.13-.43-.26-.87-.41-1.31Z"/><path class="cls-1" d="M217.51,321c.32-1,.63-2,.87-2.95a9.16,9.16,0,0,0,.34-2.69,1.34,1.34,0,0,1,0-.28s0-.07-.06-.1l-.19-.25-.54-.63a72.4,72.4,0,0,1-5.46-6.31,36.62,36.62,0,0,1-2.11-3.14,11.41,11.41,0,0,1-1.74-4.51c-.08-.51.3-.51.79-.22a4.2,4.2,0,0,1,1.47,1.58c1.31,2.68,3.33,4.91,5.31,7.33a20.45,20.45,0,0,0,2,2.07,26.46,26.46,0,0,1,2.2,2.18l.39.52a3.9,3.9,0,0,1,.51,2.44,8.05,8.05,0,0,1-.13,1.5,22.22,22.22,0,0,1-.58,2.79c-.34,1.32-.76,2.6-1.16,3.88-.62,1.93-1.33,3.83-1.9,5.75-.44,1.49-.75,3-1.06,4.45-.06.33-.1.65-.18,1-.4,1.14-.67,1.41-1.32,1.61a4.29,4.29,0,0,1-.44.13.56.56,0,0,1-.59-.34,2.76,2.76,0,0,1-.3-1.22,8.17,8.17,0,0,1,.13-2.22c.11-.71.25-1.43.42-2.14a40.56,40.56,0,0,1,1.25-4.16c.68-2,1.42-4,2-6.05Z"/><path class="cls-1" d="M348.7,399.78l5.67-10.91c.68-1.33,1.3-2.7,2-4,2.45-4.68,4.93-9.34,7.49-14,1.14-2.06,2.22-4.15,3.39-6.18.72-1.32,1.51-2.63,2.34-3.92l.15-.24.23-.29a4.16,4.16,0,0,1,1.78-1.21,7.1,7.1,0,0,1,2.48-.42c.52,0,.68.18.69.41s-.21.55-.56.88-.83.7-1.29,1.07a5.25,5.25,0,0,0-1,1l-.07.11-.15.24-.28.47-.58.94c-.39.61-.75,1.27-1.11,1.92l-1.11,2-1.08,2c-1.51,2.63-3,5.27-4.53,7.93-1.85,3.17-3.43,6.65-5.13,10l-5.65,11-3.51,6.78-5.38,10.23c-1.38,2.64-2.63,5.29-4.05,7.9-.32.57-.61,1.15-.94,1.72-1.33,2.07-2,2.57-2.87,2.59a3.62,3.62,0,0,1-.51.05c-.23,0-.27-.28-.25-.8a4.86,4.86,0,0,1,.65-1.95c2.31-4.63,4.9-9.47,7.45-14.38,1.9-3.64,3.81-7.31,5.68-11Z"/><path class="cls-1" d="M433.71,414.12l.46-11.85.09-4.32.58-15.23c.08-2.25.09-4.51.08-6.75,0-1.43-.07-2.87,0-4.3l.05-2.15c0-.72,0-1.44,0-2.12,0-.87.2-.83.55-.1a12.65,12.65,0,0,1,1,3.81c.25,2.94.24,5.89.28,8.83s0,5.89-.18,8.85c-.19,3.54-.14,7.23-.22,10.85l-.33,11.94q-.12,3.68-.22,7.34c-.09,3.71-.22,7.44-.24,11.12,0,2.86.09,5.67.15,8.5,0,.62.05,1.23.05,1.86a10.85,10.85,0,0,1-.16,2.46A2.21,2.21,0,0,1,435,444a3.46,3.46,0,0,1-.35.33c-.18.11-.35-.07-.56-.5a4.92,4.92,0,0,1-.48-1.94c-.39-5.08-.39-10.41-.26-15.77q.18-6,.35-12Z"/><path class="cls-1" d="M454.25,401.66l-2.11-7.56c-.26-.92-.59-1.82-.84-2.74-.89-3.25-1.71-6.52-2.63-9.76-.39-1.44-.83-2.88-1.28-4.29-.66-1.77-.94-3.72-1.54-5.48-.17-.53,0-.56.33-.17a12.65,12.65,0,0,1,1.44,2.19l.7,1.31a13.33,13.33,0,0,1,.55,1.36c.36.91.7,1.82,1,2.74a56.89,56.89,0,0,1,1.7,5.62c.58,2.28,1.46,4.56,2.12,6.87l2.19,7.61,1.34,4.69c.69,2.36,1.39,4.73,2.07,7.08.56,1.81,1.22,3.55,1.82,5.34.13.39.26.77.37,1.18a6.19,6.19,0,0,1,.29,1.62,1.61,1.61,0,0,1-.27.84,1.69,1.69,0,0,1-.19.28c-.11.11-.27,0-.49-.2a3.72,3.72,0,0,1-.73-1.12c-.73-1.53-1.36-3.14-1.95-4.78s-1.17-3.32-1.71-5c-.75-2.52-1.5-5.06-2.25-7.6Z"/><path class="cls-1" d="M391.08,441.9l-13.36-1.74c-1.63-.21-3.27-.35-4.89-.58-5.73-.82-11.45-1.71-17.15-2.75-2.53-.47-5.09-.87-7.59-1.42-3.2-.75-6.58-1.28-9.38-3.67-.42-.41-.47-.72-.34-.8s.45,0,.91.06c.9.17,2.43.23,4.18.61,3.07.87,6.32,1.41,9.55,2.09l9.81,1.86c3.94.75,8.1,1.13,12.18,1.64l13.45,1.68,8.29,1,12.56,1.58c3.23.4,6.42.66,9.65,1.16.71.11,1.4.24,2.11.42,2.65.62,3.42,1.45,3.71,2.15a2,2,0,0,1,.17.48c0,.21-.25.23-.72.21a20.29,20.29,0,0,1-2.13-.17l-17.54-2.16L391.08,442Z"/><path class="cls-1" d="M455.58,432.41l-3.44,2.9c-.42.36-.8.75-1.22,1.1-1.48,1.23-3,2.43-4.46,3.67-.65.56-1.27,1.15-1.86,1.75a24.46,24.46,0,0,1-2.32,2.24c-.27.21-.55-.09-.65-.57a1.89,1.89,0,0,1,.43-1.63,42.7,42.7,0,0,1,5-4.5c1.08-.81,2-1.83,3.07-2.73l3.43-3,2.09-1.83c1-.94,2.1-1.87,3.08-2.86a31.92,31.92,0,0,0,2.08-2.44,5.72,5.72,0,0,1,.45-.53c.58-.64.9-.71,1.36-.56a2.29,2.29,0,0,1,.31.09c.27.12.3.63,0,1.23a22.34,22.34,0,0,1-3.94,4.6c-1.1,1-2.24,2.05-3.37,3.06Z"/><path class="cls-1" d="M416.76,362.23a18.32,18.32,0,0,1,2.12-6.09,15.82,15.82,0,0,1,1.22-2,16.75,16.75,0,0,1,2.92-2.91,9.31,9.31,0,0,1,3.93-1.76,7.25,7.25,0,0,1,2-.14,4.3,4.3,0,0,1,2,.75,3.89,3.89,0,0,1,1.55,2.19,5.26,5.26,0,0,1,.11,2.42c-.08.48-.49.39-1,0a4.53,4.53,0,0,1-.74-.67,2.85,2.85,0,0,1-.64-.79,3.63,3.63,0,0,0-.78-.93,2.43,2.43,0,0,0-1-.24,6.53,6.53,0,0,0-3.27.74,6.64,6.64,0,0,0-1.84,1.5,16.88,16.88,0,0,0-3.78,7,11.94,11.94,0,0,0-.39,3.36,4.93,4.93,0,0,0,.66,2.25,1.73,1.73,0,0,0,1.62.94,2.86,2.86,0,0,0,1.51-.72,10,10,0,0,0,1.29-1.38c.18-.24.32-.48.51-.7.63-.88,1-1,1.74-.81a3.51,3.51,0,0,1,.49.15c.5.21.58.87.19,1.71a9.23,9.23,0,0,1-2.89,3.32,6.53,6.53,0,0,1-1.17.64,3.68,3.68,0,0,1-.71.21,2.7,2.7,0,0,1-.77.13,4.15,4.15,0,0,1-3.14-1.09,6.28,6.28,0,0,1-1.86-3.62,9.71,9.71,0,0,1-.14-1.86c0-.58.07-1.11.15-1.66Z"/><path class="cls-1" d="M398.27,360a18.17,18.17,0,0,1,2.09-6.14,15.94,15.94,0,0,1,1.22-2,16.2,16.2,0,0,1,2.91-2.94,9.49,9.49,0,0,1,3.94-1.8,7.74,7.74,0,0,1,2-.15,4.39,4.39,0,0,1,2,.74,3.81,3.81,0,0,1,1.58,2.2,5.26,5.26,0,0,1,.11,2.42c-.08.49-.49.39-1,0a5.13,5.13,0,0,1-.74-.68,2.85,2.85,0,0,1-.64-.79,3.43,3.43,0,0,0-.79-.93,2.61,2.61,0,0,0-1-.24,6.77,6.77,0,0,0-3.29.77c-.16.08-.31.18-.46.27s-.33.25-.49.38a9.14,9.14,0,0,0-.89.87,16.87,16.87,0,0,0-3.76,7.09,13.84,13.84,0,0,0-.39,3.43,5.43,5.43,0,0,0,.48,2.31,1,1,0,0,0,1.49.41,8.25,8.25,0,0,0,2.83-2.6c.18-.23.34-.48.54-.71.68-.9,1.11-1,1.8-.76a3.41,3.41,0,0,1,.48.18c.49.25.53.9.11,1.72a13.26,13.26,0,0,1-2.7,3.24,7.51,7.51,0,0,1-2.15,1.32l-.72.24a7.61,7.61,0,0,1-1,.08,3.72,3.72,0,0,1-1.87-.62,2.52,2.52,0,0,1-.54-.49,4.9,4.9,0,0,1-.45-.53,4.85,4.85,0,0,1-.5-1l-.18-.49-.1-.47a8,8,0,0,1-.15-.92,14.82,14.82,0,0,1,.08-3.41Z"/><path class="cls-1" d="M378.58,356.05a18.23,18.23,0,0,1,2.22-5.94,13.66,13.66,0,0,1,4.17-4.77,9.41,9.41,0,0,1,3.9-1.64,6.76,6.76,0,0,1,2-.08,4.11,4.11,0,0,1,2,.79,4,4,0,0,1,1.49,2.18,5.31,5.31,0,0,1,.09,2.37c-.08.48-.5.38-1,0a5,5,0,0,1-.74-.67,2.64,2.64,0,0,1-.63-.78,3.82,3.82,0,0,0-.77-.93,2.85,2.85,0,0,0-.94-.27,6.47,6.47,0,0,0-3.21.66,6.22,6.22,0,0,0-1.83,1.42,17.64,17.64,0,0,0-1.53,1.92,15.3,15.3,0,0,0-2.32,4.91,13.75,13.75,0,0,0-.49,3.32,3.58,3.58,0,0,0,.6,2.07,1.63,1.63,0,0,0,1.71.55,3.12,3.12,0,0,0,.8-.3,7.57,7.57,0,0,0,.74-.52,13,13,0,0,0,1.33-1.35c.18-.23.34-.47.52-.69.67-.83,1.06-1,1.77-.7a3.26,3.26,0,0,1,.47.17c.49.24.55.89.14,1.71a10.23,10.23,0,0,1-2.88,3.14,10.91,10.91,0,0,1-1.06.62,6.71,6.71,0,0,1-1.31.43,4.29,4.29,0,0,1-3.17-.5,4.37,4.37,0,0,1-1.62-1.76,6,6,0,0,1-.61-2,6.19,6.19,0,0,1-.08-.95,8.24,8.24,0,0,1,0-.89c0-.54.11-1.07.18-1.61Z"/><path class="cls-1" d="M386.57,359.59c-.1-.48,0,.27.05.44a1.57,1.57,0,0,0,1.91,1.09,2.43,2.43,0,0,0,1.59-1.47,2.27,2.27,0,0,0-.27-1.86,1.55,1.55,0,0,0-2.67,1.57c.18.34.17.13,0-.63a.74.74,0,0,1,.55-.61l1.9,1.09q0,.33,0,.09a4.51,4.51,0,0,0-.08-.53,1.57,1.57,0,0,0-1.91-1.09,1.59,1.59,0,0,0-1.08,1.91Z"/><path class="cls-1" d="M405.66,362.65a2.33,2.33,0,0,0,1,2,2,2,0,0,0,2.4-.47,1.55,1.55,0,0,0-2.19-2.2c.57-.39,1.21-.18,1.89.64,0-.16,0-.16,0,0a1.58,1.58,0,0,0-1.55-1.55,1.56,1.56,0,0,0-1.55,1.55Z"/><path class="cls-1" d="M428.15,366.68a1,1,0,0,1-1.78,0,1.58,1.58,0,0,0,1.91,1.08,1.56,1.56,0,0,0,1.08-1.91,2.33,2.33,0,0,0-2.07-1.68,2.29,2.29,0,0,0-2.13,1.68,1.56,1.56,0,0,0,1.09,1.91,1.58,1.58,0,0,0,1.9-1.08Z"/><path class="cls-1" d="M394.46,373.72l6.68,1.22c.81.14,1.64.24,2.46.4,2.86.62,5.68,1.17,8.56,1.73l3.84.74a18.9,18.9,0,0,1,4.78,1.53c.47.24.28.52-.25.7a4.65,4.65,0,0,1-2.28.09l-9.77-1.95c-2-.42-4.11-.68-6.13-1l-6.74-1.09-4.17-.73c-2.1-.38-4.2-.85-6.28-1.33-1.62-.37-3.23-.67-4.82-1.15-.35-.12-.69-.22-1-.35-1.28-.48-1.58-.9-1.63-1.49a2.66,2.66,0,0,1,0-.39c0-.19.19-.31.48-.37a2.46,2.46,0,0,1,1.16.05c2.81.55,5.62,1.39,8.56,2,2.17.49,4.39.93,6.63,1.32Z"/><path class="cls-1" d="M368.12,389.47a2.52,2.52,0,0,0,4.5,2.27,2.92,2.92,0,0,0-.37-3.65c-1.31-1.17-3-.35-3.77,1a1.55,1.55,0,1,0,2.68,1.57l.12-.22c.07-.09.06-.08,0,0,.11-.11.12-.12,0,0a.49.49,0,0,1-.27.13,1,1,0,0,1-.71-.1l-.18-.15c.09.09.09.08,0,0s-.17-.44-.11-.14-.05-.33,0,0c0-.28,0-.09-.05.08.08-.16.09-.2,0-.1s0,.07.09-.1c-.22.2.29-.15,0,0l.21-.09c-.12,0-.11,0,0,0s.17,0,0,0l.25,0c-.27-.07.29.2.08.05l.15.12c-.08-.09-.05,0,.11.15-.15-.24.1.35,0,.05l0,.23c0-.17,0-.14,0,.09a3.59,3.59,0,0,1,.12-.35,1.56,1.56,0,0,0-1.09-1.91,1.61,1.61,0,0,0-1.91,1.08Z"/><path class="cls-1" d="M362.21,410.15a2.16,2.16,0,0,0,3.84,2,2.55,2.55,0,0,0-.31-3.21c-1.15-1-2.58-.22-3.21.93-.75,1.35,1.31,2.55,2.06,1.21l.15-.26c.11-.16.07,0-.08,0a.67.67,0,0,1-.44-.07l-.1-.09c.07.07.08.08,0,0s0-.19,0,0,0,.07,0-.05v.11c.09-.15,0,.12-.06.18s0-.09,0,0,0,.07,0,0l-.07.07c.12-.08.13-.09,0,0l.12-.05c-.11,0-.11,0,0,0s.1,0,0,0l.16,0c-.23-.12.19.11,0,0l.08.07c-.06-.06,0,0,.06.08-.07-.19.12.13,0,0l0,.13c0-.14,0-.14,0,0a2.17,2.17,0,0,1,.12-.36,1.21,1.21,0,0,0-.84-1.47,1.23,1.23,0,0,0-1.46.84Z"/><path class="cls-1" d="M380.77,414.24a2.17,2.17,0,0,0,3.85,2,2.57,2.57,0,0,0-.32-3.21c-1.14-1-2.57-.22-3.21.93-.74,1.35,1.32,2.55,2.06,1.21l.16-.26c.1-.16.07,0-.09,0a.8.8,0,0,1-.43-.07l-.11-.09c.07.07.08.08,0,0s0-.2,0,0,0,.06,0-.05v.11c.09-.15,0,.12-.06.18s0-.09,0,0,0,.06,0,0l-.07.07c.12-.08.12-.09,0,0l.13-.05c-.11,0-.11,0,0,0s.1,0,0,0l.15,0c-.23-.12.2.11,0,0l.08.07c-.06-.06,0,0,.05.08-.06-.19.13.13,0,0l0,.12c0-.13,0-.13,0,0a2.17,2.17,0,0,1,.12-.36,1.2,1.2,0,0,0-.83-1.47,1.23,1.23,0,0,0-1.47.84Z"/><path class="cls-1" d="M387,392.81c-.69.88-1.36,2.08-.66,3.17a2.65,2.65,0,0,0,4.55-.67,2.49,2.49,0,0,0-1.41-2.74,1.56,1.56,0,0,0-2.12.55,1.59,1.59,0,0,0,.55,2.13l.17.1c.22.09-.16-.17-.09-.07s.27.31.08.05c0,0-.21-.5-.15-.26a1.29,1.29,0,0,1,0-.58.88.88,0,0,1,.2-.39c.15-.22.11-.14.05-.08s.35-.25.14-.11a.53.53,0,0,1-.1.06s.4-.12.23-.1l-.22.06c-.25.09.43-.07.17,0a.17.17,0,0,1-.1,0l.25,0c-.27-.06.06,0,.16.09-.21-.11.22.22.25.26a1,1,0,0,1,.21.51c0,.32,0,.15,0,.07s-.05.46,0,.25l0-.12s-.18.33-.06.16.34-.49.08-.16a1.61,1.61,0,0,0,0-2.19,1.55,1.55,0,0,0-2.19,0Z"/><path class="cls-1" d="M405.69,396.91c-.68.88-1.35,2.08-.65,3.17a2.42,2.42,0,0,0,2.63.95,2.46,2.46,0,0,0,1.92-1.62,2.49,2.49,0,0,0-1.42-2.74,1.57,1.57,0,0,0-2.12.55,1.6,1.6,0,0,0,.56,2.13l.16.1c.23.09-.15-.17-.08-.07s.26.31.08.06c0,0-.21-.5-.16-.27a1.42,1.42,0,0,1,0-.58.79.79,0,0,1,.2-.39c.14-.22.11-.14.05-.08s.35-.25.14-.11l-.11.06s.41-.12.24-.1l-.22.06c-.26.09.42-.07.16,0H407l.25,0c-.26-.06.06,0,.17.1-.21-.12.21.21.24.25a1,1,0,0,1,.21.51c0,.32,0,.15,0,.07s0,.46,0,.25a.25.25,0,0,1,0-.12s-.18.33-.06.17.33-.5.08-.17a1.61,1.61,0,0,0,0-2.19,1.56,1.56,0,0,0-2.2,0Z"/><path class="cls-1" d="M400.46,416.09c-.6.77-1.17,1.78-.59,2.74a2,2,0,0,0,2.23.78,2.09,2.09,0,0,0,1.66-1.37,2.15,2.15,0,0,0-1.25-2.34,1.2,1.2,0,0,0-1.2,2.07l.16.1c.19.1-.09-.1,0,0l.1.1c.07.08,0,.1,0,0s-.18-.29-.11-.54.09-.16.14-.27.08-.1,0,0,.25-.17.07-.05.14,0,0,0l-.22.06c-.22.08.3-.05.07,0s-.17,0,.06,0c-.21,0-.06,0,.07.05-.18-.1.13.14.15.17a.85.85,0,0,1,.14.34c.06.19,0,.1,0,0s0,.32,0,.15a.56.56,0,0,1,0-.12c0,.07-.12.21,0,.08s.26-.4.13-.23a1.23,1.23,0,0,0,0-1.69,1.21,1.21,0,0,0-1.69,0Z"/><path class="cls-1" d="M314.09,420.87l-7.37-.12c-.9,0-1.79.05-2.69,0-3.16-.08-6.32-.22-9.48-.35-1.41-.05-2.82-.07-4.21-.08A27.69,27.69,0,0,1,285,420c-1.11-.22.46-2.21,2.47-2.19,1.8,0,3.6.05,5.41.1s3.63.19,5.46.35c2.19.18,4.48,0,6.72.05l7.41,0H317c2.3,0,4.61,0,6.9-.08,1.78-.07,3.52-.28,5.28-.42.39,0,.77-.08,1.16-.1,1.45-.05,1.91.12,2.22.83a3.33,3.33,0,0,1,.21.48c.13.54-.46,1-1.51,1.15a75.26,75.26,0,0,1-9.74.65c-2.46.05-4.94,0-7.42.06Z"/><path class="cls-1" d="M60,418.26l5.19.14c.63,0,1.27,0,1.9,0l6.67.24c1,0,2,0,3-.07a17.6,17.6,0,0,1,3.77,0c.78.12-.21,2.08-1.65,2.19a53.62,53.62,0,0,1-7.71,0c-1.54-.12-3.15.05-4.73.06l-5.22,0H58c-1.62,0-3.25,0-4.85.08-1.25.07-2.47.3-3.7.46a7.5,7.5,0,0,1-.81.11c-1,.07-1.35-.1-1.59-.8a2.9,2.9,0,0,1-.16-.47c-.12-.54.27-1,1-1.19a31.25,31.25,0,0,1,6.88-.71c1.75,0,3.5,0,5.24,0Z"/><path class="cls-1" d="M273.18,468.91l-48.79-.65-17.8-.16c-20.91-.28-41.82-.56-62.73-.73-9.28-.08-18.61-.11-27.81-.1l-17.76.06c-3,0-5.93,0-8.89,0l-8.86-.09a19.16,19.16,0,0,1-2.58,0,13.61,13.61,0,0,1,2.49-.42c3.11-.39,8.85-1,15.67-1.19,24.17-.35,48.31-.39,72.67-.08,14.56.18,29.72.09,44.62.16l49.16.33,30.25.27c15.27.11,30.61.27,45.77.3,11.78,0,23.33-.15,35-.26l7.66-.08c4.79,0,7.95,0,10.16.18a17.27,17.27,0,0,1,4.52.8,14.22,14.22,0,0,1,1.38.48c.47.26-.27.54-2,.81a66.8,66.8,0,0,1-8,.6c-20.83.56-42.79.44-64.84.32L273.2,469Z"/><path class="cls-1" d="M453.71,401.75l-1.7-6.69-.67-2.42c-.72-2.87-1.4-5.75-2.15-8.6-.32-1.27-.68-2.54-1.05-3.79-.54-1.58-.81-3.25-1.29-4.85-.26-1,.49.13,1.36,1.88a35,35,0,0,1,1.83,4.81c.54,1.63,1,3.29,1.38,5,.48,2,1.17,4,1.71,6.07l1.75,6.73L456,404c.55,2.09,1.11,4.18,1.66,6.26.45,1.6,1,3.15,1.46,4.72.11.35.21.69.3,1a7.19,7.19,0,0,1,.27,1.42,1.45,1.45,0,0,1-.17.71c-.05.08-.09.18-.13.24s-.2,0-.37-.2a4,4,0,0,1-.58-1,85.33,85.33,0,0,1-2.93-8.7c-.6-2.23-1.2-4.48-1.8-6.72Z"/><path class="cls-1" d="M273.27,270.94c-1.35.89-2.73,1.74-4.16,2.52-.53.28-1,.61-1.57.85A18.3,18.3,0,0,1,261.4,276a13.13,13.13,0,0,1-2.87-.08,6.75,6.75,0,0,1-3.37-1.38c-.3-.24-.06-.49.38-.65a2.72,2.72,0,0,1,1.61-.08,10.16,10.16,0,0,0,3.05.37,14.69,14.69,0,0,0,3.18-.33,14.09,14.09,0,0,0,3.79-1.61,41.88,41.88,0,0,0,4-2.44c.8-.55,1.59-1.12,2.36-1.7,1.17-.89,2.34-1.81,3.47-2.76.87-.74,1.65-1.57,2.51-2.34a5.37,5.37,0,0,1,.57-.5c.8-.53,1.16-.56,1.61-.24.11.08.22.14.31.22.28.29.16.77-.27,1.3a18.39,18.39,0,0,1-2.12,2.21c-.76.71-1.56,1.42-2.4,2.09-1.24,1-2.55,1.94-3.88,2.88Z"/><path class="cls-1" d="M266,264.57l1.31-.31c.16,0,.31-.1.47-.13a12.7,12.7,0,0,1,1.74-.2c.26,0,.52-.07.77-.12a2.07,2.07,0,0,1,1-.07c.21.06,0,1.09-.32,1.14a11.78,11.78,0,0,1-1.91.18,7,7,0,0,0-1.18.18c-.43.07-.87.14-1.31.23l-.8.17c-.4.1-.81.2-1.2.33s-.58.25-.87.38l-.2.08c-.25.08-.35.05-.46-.13a.44.44,0,0,1-.08-.11.34.34,0,0,1,.15-.42,6.66,6.66,0,0,1,1.6-.8c.42-.16.86-.29,1.29-.42Z"/><path class="cls-1" d="M266.51,267.87l.38,0a.5.5,0,0,1,.13,0l.48,0a.5.5,0,0,0,.21,0c.08,0,.16-.1.26-.05s.13.66,0,.68a1,1,0,0,1-.55,0,1.32,1.32,0,0,0-.34,0l-.36,0-.22,0c-.11,0-.23,0-.34.06a2.53,2.53,0,0,0-.23.12l0,0c-.06,0-.1,0-.15-.1l0-.07a.22.22,0,0,1,0-.22,1.21,1.21,0,0,1,.41-.34,1.73,1.73,0,0,1,.37-.11Z"/><path class="cls-1" d="M285.74,246.41a7.56,7.56,0,0,1-1.79-.34,3.37,3.37,0,0,1,.62-.85l.44-.42.11-.1c0-.07,0-.12.09-.13l.16-.13a4.59,4.59,0,0,1,.81-.51,17.91,17.91,0,0,1,3-1,13.58,13.58,0,0,0,1.32-.43,10.35,10.35,0,0,1,1.65-.56c.36-.08.36,1.11-.32,1.36a27.56,27.56,0,0,1-3.48,1,7.92,7.92,0,0,0-2,.83c-.63.38-.91.45-.92.66l.18.05a1,1,0,0,0,.38,0,4.5,4.5,0,0,0,.72-.07c.73-.14,1.48-.34,2.24-.46a3.53,3.53,0,0,1,.92,0l.27,0a1.63,1.63,0,0,1,.31.11l.16,0s.14,0,.08.09l-.15.28a2.18,2.18,0,0,1-.32.44c-.36.37-.54.4-.69.36s-.08,0-.1,0,0-.22.25-.46a3.11,3.11,0,0,0,.23-.28.25.25,0,0,0,0-.09s0,0,0,0l-.16,0a3.72,3.72,0,0,0-1.5.13l-1.18.34a6.42,6.42,0,0,1-.63.15l-.33,0h-.46Z"/><path class="cls-1" d="M174.71,170.35a6.68,6.68,0,0,1-.65,2.2,4.64,4.64,0,0,1-1.8,1.85,5.4,5.4,0,0,1-4.42.29,10.3,10.3,0,0,1-2.48-1.16A20.6,20.6,0,0,1,162,170.6a41.36,41.36,0,0,1-2.78-3.27,32.24,32.24,0,0,1-2.18-3.12,13.51,13.51,0,0,1-1.95-4.43c-.11-.5.35-.59.94-.37a3.61,3.61,0,0,1,1.77,1.42,36.71,36.71,0,0,0,2.53,3.71c.88,1.22,1.83,2.4,2.84,3.59a14.77,14.77,0,0,0,4.29,3.39,4.72,4.72,0,0,0,2.4.67,2.51,2.51,0,0,0,1-.31,1.65,1.65,0,0,0,.61-.73,6.19,6.19,0,0,0,.14-3.33,26.39,26.39,0,0,0-1.68-5.62c-.59-1.42-1.4-2.73-2.13-4.12-.15-.31-.34-.6-.48-.93-.49-1.22-.4-1.82.34-2.28a2.9,2.9,0,0,1,.51-.29,1.48,1.48,0,0,1,1.65.8,34.78,34.78,0,0,1,3.78,7.76,23.81,23.81,0,0,1,.92,3.37,14,14,0,0,1,.27,3.84Z"/><path class="cls-1" d="M191.41,163.21a14.74,14.74,0,0,1-.59,3.11l-.15.43a5.09,5.09,0,0,1-.21.47,4.39,4.39,0,0,1-.67,1,3.12,3.12,0,0,1-2,1.11,5.17,5.17,0,0,1-2.92-.72,10.72,10.72,0,0,1-3-2.73,17.24,17.24,0,0,1-2-3.28c-.47-1-.94-2-1.31-3.07a8.13,8.13,0,0,1-.64-4.2c.07-.46.65-.39,1.26-.08a3.76,3.76,0,0,1,.9.61,1.85,1.85,0,0,1,.6.86,28.3,28.3,0,0,0,2.83,6.79,6.19,6.19,0,0,0,1.46,1.64,8.72,8.72,0,0,0,.87.63c.3.14.64.36.84.43a1.2,1.2,0,0,0,.57.18.58.58,0,0,0,.44-.25,1.36,1.36,0,0,0,.16-.25c.06-.17.14-.32.19-.51a8.45,8.45,0,0,0,.27-1.2,21.89,21.89,0,0,0,.23-3.27,39.76,39.76,0,0,0-.3-5.1c-.17-1.31-.55-2.57-.84-3.87a6.63,6.63,0,0,1-.19-.86,2,2,0,0,1,.11-1.21.89.89,0,0,1,.28-.35,2.42,2.42,0,0,1,.48-.25,4,4,0,0,1,.43-.16,1.45,1.45,0,0,1,1.38,1,25.6,25.6,0,0,1,1.51,7.25,39,39,0,0,1,.1,5.84Z"/><path class="cls-1" d="M178.9,162.35a81.08,81.08,0,0,1-2.29-9.8c-.23-1.2-.45-2.43-.58-3.66a30.91,30.91,0,0,1-.11-3.35l0-.85.11-.88.12-.88c.06-.29.14-.57.22-.86a12.8,12.8,0,0,1,3.54-6,12.38,12.38,0,0,1,5.34-3.08,10.31,10.31,0,0,1,7.61.92c.71.39.34.86-.45,1.21a8.94,8.94,0,0,1-3.13.66,8.62,8.62,0,0,0-2.93.38,9.79,9.79,0,0,0-2.64,1.08,10.14,10.14,0,0,0-3.9,4.48,8.24,8.24,0,0,0-.71,3.81v1.05l.1,1.07c.05.71.14,1.43.25,2.16a73.57,73.57,0,0,0,1.93,9.49l.84,2.89.95,2.85a66.57,66.57,0,0,0,3.59,8.36c.56,1,1.18,2,1.81,3s1.32,1.88,2.05,2.75c.31.4.64.76.94,1.17,1.14,1.45,1.39,2,1,2.88a4.56,4.56,0,0,1-.26.59c-.35.58-1.26.32-2.37-.69a36.48,36.48,0,0,1-7.51-11.2,82.43,82.43,0,0,1-3.63-9.49Z"/><path class="cls-1" d="M149.37,147.91c5-4.4,10.33-7.38,17.2-6.66,2.39.25,2.38-3.5,0-3.75-7.81-.82-14.16,2.77-19.86,7.76-1.82,1.59.85,4.24,2.66,2.65Z"/><path class="cls-1" d="M180.7,201.77c2.28,2.9,6,3.38,9.28,2,2.06-.84,1.16-4.23-.93-3.37-2.27.92-4.28.89-5.88-1.13-1.39-1.77-3.85.72-2.47,2.47Z"/><path class="cls-1" d="M358.55,334.51c2.35,4,5.82,7.31,8.71,10.88.73.89,3.51-.18,2.68-1.21-2.9-3.56-6.37-6.91-8.72-10.87-.57-1-3.37,0-2.67,1.2Z"/><path class="cls-1" d="M457,342.12c2.11-2.24,4.62-4.07,6.74-6.31.69-.73-.6-.92-1.08-.9a4.38,4.38,0,0,0-2.89,1.09c-2.12,2.24-4.63,4.06-6.74,6.31-.69.73.6.92,1.08.9a4.31,4.31,0,0,0,2.89-1.09Z"/><path class="cls-1" d="M453.8,331.68l1.26-1.26c.5-.5-.42-.74-.75-.74a2.71,2.71,0,0,0-1.92.76l-1.27,1.26c-.49.5.42.74.76.74a2.74,2.74,0,0,0,1.92-.76Z"/><path class="cls-1" d="M437.82,411.07l.46-10.1.07-3.68c.13-4.34.41-8.68.49-13,0-1.92,0-3.85-.13-5.74-.14-2.43-.35-4.86-.69-7.23-.1-.74.22-.74.68-.17A6.63,6.63,0,0,1,440,374.3c.2,1.27.35,2.53.44,3.8s.11,2.53.11,3.8c0,2.52-.07,5.05-.22,7.58-.2,3-.15,6.14-.21,9.24-.09,3.41-.25,6.8-.39,10.2l-.25,6.26c-.09,3.16-.19,6.34-.14,9.47.05,2.44.23,4.82.44,7.21,0,.53.12,1,.15,1.58a12.8,12.8,0,0,1,0,2.09,1.85,1.85,0,0,1-.4,1,2.83,2.83,0,0,1-.26.31c-.28.22-.71-.56-1-2a82.12,82.12,0,0,1-.79-13.51c0-3.4.14-6.82.25-10.23Z"/><path class="cls-1" d="M442,410.77l-.45-8.86-.21-3.22-.52-11.39c-.09-1.69-.22-3.38-.35-5-.18-2.15-.39-4.29-.37-6.45,0-.67.27-.6.6-.06a7.72,7.72,0,0,1,.86,2.79c.39,4.37.71,8.75.87,13.17.09,2.65.38,5.39.54,8.09l.55,8.91.33,5.49c.18,2.77.34,5.55.57,8.3.17,2.13.45,4.21.69,6.31l.15,1.39c.15,1.73.07,2.3-.37,2.71a2.38,2.38,0,0,1-.29.27c-.35.19-.7-.49-.9-1.75-.63-3.75-.91-7.73-1.2-11.72l-.54-8.93Z"/><path class="cls-1" d="M448.79,408.3l-1-7.41-.43-2.69L446,388.67c-.21-1.41-.45-2.82-.69-4.21-.31-1.79-.64-3.58-.84-5.38-.14-1.13.8.17,1.24,2.21.74,3.63,1.45,7.26,2,11,.34,2.21.82,4.48,1.23,6.73l1.25,7.44.7,4.59c.33,2.32.67,4.65,1,7,.26,1.79.62,3.54.87,5.32.06.39.13.77.17,1.17.14,1.48.05,2-.4,2.31a2.13,2.13,0,0,1-.32.23c-.35.16-.71-.41-.91-1.47-.64-3.12-1-6.43-1.5-9.76l-1.05-7.46Z"/><path class="cls-1" d="M435.33,407.58c0-.73,0-1.45.06-2.18l.2-2,.57,1.78a14.54,14.54,0,0,1,.48,1.86,10.93,10.93,0,0,1,.17,1.5,26.07,26.07,0,0,1-.59,5.16c-.15.76-.29,1.51-.43,2.25q-.27,1.44-.48,2.88c-.08.6-.26-.19-.11-1.31.28-2,.7-3.92,1-5.89a14.61,14.61,0,0,0,.1-3.62,6,6,0,0,0-.73-2.51l.55-.14c0,.43,0,.87,0,1.31l0,2.49c0,1.25,0,2.52-.05,3.76v3.51a3,3,0,0,1-.13,1.21l-.07.12c-.06.07-.13-.25-.17-.83-.12-1.71-.23-3.52-.3-5.33-.06-1.34,0-2.7,0-4.05Z"/></g></svg>