<svg xmlns="http://www.w3.org/2000/svg" width="520" height="520" viewBox="0 0 520 520"><defs><style>.cls-1{fill:#231f20;}.cls-2{fill:#242021;}</style></defs><title>Notioly New</title><g id="n.136_Trading" data-name="n.136 Trading"><path class="cls-1" d="M294.23,439a12.1,12.1,0,0,0,6.39,5c.48.2,1,.32,1.48.48s1,.24,1.53.34a25.56,25.56,0,0,0,11-.21,21.51,21.51,0,0,0,4.64-1.71,31,31,0,0,0,5.2-3.55c.52-.41.62-.21.41.38a7.49,7.49,0,0,1-.57,1.15,6.13,6.13,0,0,1-1.19,1.29,20,20,0,0,1-6,3.3,21.5,21.5,0,0,1-6.73,1.26,28.86,28.86,0,0,1-8.31-.72,15.76,15.76,0,0,1-8-4.56,10.26,10.26,0,0,1-2.49-5.17,11.45,11.45,0,0,1,.08-4.33,13.49,13.49,0,0,1,1.4-4.06,21,21,0,0,1,3.94-5.2c.34-.32.68-.66,1-1,1.37-1.14,1.89-1.38,2.4-1.33a1.59,1.59,0,0,1,.34,0c.29.1-.13.72-1.05,1.59a37.5,37.5,0,0,0-3.82,4.15,14,14,0,0,0-2.49,4.93,13.1,13.1,0,0,0-.39,4.07,8.75,8.75,0,0,0,1.2,3.79Z"/><path class="cls-1" d="M330.08,409.09a23.4,23.4,0,0,1-2.35-.51c-.77-.18-1.53-.42-2.29-.66-.56-.15-1.12-.31-1.66-.51a44.09,44.09,0,0,1-5.56-2.5c-.8-.39-1.58-.84-2.38-1.24l-1.51-.83a10.47,10.47,0,0,1-1.39-1c-.54-.46.95-1.07,2.05-.48l6,3.11a23.28,23.28,0,0,0,3.9,1.44c.73.24,1.47.42,2.21.64s1.49.36,2.24.5a23.77,23.77,0,0,0,2.79.42,21.7,21.7,0,0,0,4.26.08,17.49,17.49,0,0,0,3.16-.73c.23-.06.44-.13.67-.21.83-.25,1.14-.2,1.48.18a2.68,2.68,0,0,1,.23.26c.2.29-.06.69-.69,1A13.76,13.76,0,0,1,335,409.5a28.3,28.3,0,0,1-4.87-.36Z"/><path class="cls-1" d="M275.15,427.87c1.91-2.73,3.94-5.39,6.06-8,.78-.94,1.52-1.9,2.33-2.81a87.64,87.64,0,0,1,9.27-8.91c1.49-1.2,3-2.43,4.51-3.51,1-.71,2-1.39,3.06-2,.54-.29,1.08-.57,1.63-.84s1.13-.48,1.69-.7c.72-.27.75.07.34.67A10.14,10.14,0,0,1,301.7,404a98.53,98.53,0,0,0-11.38,8.88,69.37,69.37,0,0,0-6.12,6.55q-3.21,3.75-6.13,7.77c-1.18,1.66-2.35,3.33-3.43,5.05a84,84,0,0,0-4.61,8,46.73,46.73,0,0,0-2.6,6.51c-.16.49-.28,1-.41,1.45-.25.91-.4,1.49-.56,1.88a1.76,1.76,0,0,1-.64.8,3.06,3.06,0,0,1-.32.26c-.17.1-.31-.05-.47-.44a3.41,3.41,0,0,1-.09-1.77c.75-4.41,2.74-8.52,4.88-12.52,1.61-3,3.4-5.83,5.29-8.61Z"/><path class="cls-1" d="M237.66,308.08a38,38,0,0,1-7.3,3.35c-.94.3-1.88.61-2.85.82a20.56,20.56,0,0,1-2.6.35l-1.31.08c-.44,0-.88,0-1.32-.05a12.11,12.11,0,0,1-5.16-1.23,7.88,7.88,0,0,1-3.47-3.34,6.89,6.89,0,0,1,0-6c.28-.58.62-.31.85.29a7,7,0,0,1,.37,2.4,5.46,5.46,0,0,0,1.83,4.15,9.12,9.12,0,0,0,4.68,1.94,17.55,17.55,0,0,0,6.76-.65,32.5,32.5,0,0,0,7.12-2.85q2.11-1.12,4.12-2.45c2-1.35,4-2.77,5.88-4.31,1.45-1.2,2.78-2.49,4.16-3.74.31-.28.6-.55.92-.82,1.18-1,1.65-1.19,2.16-1.1a3.09,3.09,0,0,1,.35.07c.3.13,0,.76-.75,1.59-.57.62-1.16,1.24-1.76,1.86s-1.26,1.18-1.91,1.77c-1.3,1.16-2.68,2.3-4.09,3.4a63.45,63.45,0,0,1-6.62,4.54Z"/><path class="cls-1" d="M133,394.7c-3.05,1.24-6.15,2.37-9.3,3.36-1.15.36-2.29.78-3.46,1.07a57.56,57.56,0,0,1-6.27,1.28,41.68,41.68,0,0,1-6.42.5c-1,0-1.92-.05-2.88-.07a23.46,23.46,0,0,1-2.88-.4,12,12,0,0,1-6.71-3.28c-.56-.57,0-.92.84-1a6.21,6.21,0,0,1,1.46.08,5.18,5.18,0,0,1,1.62.45,18.53,18.53,0,0,0,6.32,1.43,42.3,42.3,0,0,0,6.92-.11,43.69,43.69,0,0,0,8.48-2c3.09-.92,6.16-2,9.18-3.17,1.85-.74,3.71-1.5,5.52-2.34,2.77-1.24,5.52-2.57,8.17-4,2.07-1.12,4-2.41,5.95-3.62.44-.26.85-.54,1.3-.8,1.65-.94,2.29-1.06,2.94-.78a2.53,2.53,0,0,1,.44.19c.37.27-.09,1-1.18,1.94a66.25,66.25,0,0,1-11,7.08c-2.94,1.52-6,2.91-9,4.21Z"/><path class="cls-1" d="M402.39,411.94a43.36,43.36,0,0,1-7.5-3.17l-2.58-1.47a50.89,50.89,0,0,1-8-6.59c-1.11-1-2.14-2.2-3.17-3.31l-1.89-2.22c-.61-.75-1.18-1.54-1.75-2.34-.34-.49-.15-.53.32-.26a9.51,9.51,0,0,1,2,1.7l2,2.14,2.07,2.07,2.08,2.05,2.17,2c.9.75,1.85,1.5,2.84,2.17s2,1.34,3.08,1.89l1.72,1,1.79.84.89.42.93.35,1.84.71a42.45,42.45,0,0,0,4.71,1.26l1.81.37,1.84.24c.61.07,1.22.17,1.83.21l1.85.07,1.42,0c.47,0,.94-.05,1.41-.08.94-.08,1.88-.13,2.81-.22.41-.06.81-.13,1.23-.17,1.54-.14,2-.05,2.43.39a2.32,2.32,0,0,1,.26.3c.19.35-.41.71-1.56.94-.85.17-1.72.33-2.6.44s-1.78.13-2.68.17c-.46,0-.91.05-1.37.05l-1.37-.05c-.92-.05-1.84-.05-2.75-.18a43.55,43.55,0,0,1-8.08-1.65Z"/><path class="cls-1" d="M357.7,294.39c-.84,0-1.68-.22-2.51-.33s-1.66-.33-2.46-.58c-.58-.18-1.19-.29-1.76-.48a30.32,30.32,0,0,1-5.68-2.89c-.82-.46-1.56-1-2.33-1.54a15.58,15.58,0,0,1-2.74-2.24c-.26-.27-.05-.44.37-.47a2.71,2.71,0,0,1,1.63.38c1,.65,2,1.14,3,1.73l1.49.85c.49.3,1,.61,1.5.86a16.49,16.49,0,0,0,4,1.46,21.76,21.76,0,0,0,2.26.52c.38.07.76.15,1.14.2l1.16.12a13.91,13.91,0,0,0,1.44.09,11.53,11.53,0,0,0,1.44,0,25.53,25.53,0,0,0,4.36-.49,30.42,30.42,0,0,0,3.23-1.05c.24-.08.47-.17.71-.23.93-.17,1.28-.06,1.61.39.07.11.16.2.22.31.18.34-.1.78-.7,1.18a9.82,9.82,0,0,1-1.41.8c-.5.2-1,.38-1.54.55a20.61,20.61,0,0,1-3.28.76,27.25,27.25,0,0,1-5.11.16Z"/><path class="cls-1" d="M171,280.2l2-5.62s9.5,7,7.66,8.91S171,280.2,171,280.2Z"/><path class="cls-1" d="M202.58,239.1a13.55,13.55,0,0,0-4-1,1.14,1.14,0,0,0-.79.2,1.24,1.24,0,0,0-.36.7c-.08.42-.16.87-.22,1.33-.12.93-.2,1.9-.35,2.88a22.82,22.82,0,0,1-.51,2.62,6.91,6.91,0,0,1-.66,1.67,3.38,3.38,0,0,1-1.35,1.3c-.35.19-.49-.21-.53-.71a3.1,3.1,0,0,1,.18-1.44c.84-1.48.85-3.65,1.29-5.85.12-.67.18-1.36.3-2.11a3.61,3.61,0,0,1,.45-1.3,2.31,2.31,0,0,1,1.25-1,5.4,5.4,0,0,1,2.65,0,18.51,18.51,0,0,1,2.28.56c.91.28,1.78.6,2.66.91,1.32.48,2.62,1,3.94,1.39a15.22,15.22,0,0,0,3.06.53c.22,0,.43,0,.64,0a2,2,0,0,1,.78.12,1,1,0,0,1,.41.46c.07.11.15.22.21.33a.46.46,0,0,1-.08.56,1.38,1.38,0,0,1-.85.39,14.35,14.35,0,0,1-6.17-1.07c-1.43-.49-2.82-1.05-4.21-1.51Z"/><path class="cls-1" d="M212.59,239.15a2,2,0,0,1-.35.51.88.88,0,0,1-.12.17,2,2,0,0,1-.61.31.57.57,0,0,0-.22.15c-.08.07-.15.21-.31.11a7.21,7.21,0,0,1-.44-1.31c.08-.07.17-.06.36,0s.12-.05.16-.08a.66.66,0,0,0,.17-.12.47.47,0,0,0,.09-.12.36.36,0,0,0,0-.23c0-.06-.14-.1-.2-.14l-.05,0c0-.06.11-.12.39-.25l.19-.09a1.09,1.09,0,0,1,.55-.14.58.58,0,0,1,.49.62,1.7,1.7,0,0,1-.09.62Z"/><path class="cls-1" d="M272.49,304.33c-3.44-1.62-6,1.42-5.91,4.77a5.08,5.08,0,0,0,2,4.12c1.61,1.07,3.53.65,5.14-.18,2.14-1.1.25-4.34-1.9-3.24a2.33,2.33,0,0,1-.53.23s-.52.13-.27.09-.13,0-.15,0-.41,0-.12,0,0,0-.09,0,.39.07,0,0c-.18,0-.08,0,.06.08-.14-.09-.39-.43-.13-.09a1,1,0,0,1-.13-.22c-.13-.42.08.26,0,0s-.1-.35-.15-.53c-.11-.39-.05.24,0-.28,0-.19,0-.38,0-.58s0-.06,0,.07a2.61,2.61,0,0,1,.06-.27c0-.11.19-.65.11-.43s.12-.22.16-.3c.17-.32,0,.07,0,0s.17-.15.17-.17-.37.17-.11.09-.14,0-.14,0a1.8,1.8,0,0,0,.22-.06c-.21,0-.27,0-.26,0s-.16-.13.07,0c.05,0,.43.18,0,0a1.94,1.94,0,0,0,2.57-.67,1.9,1.9,0,0,0-.68-2.57Z"/><path class="cls-1" d="M272.89,325.62c-2.66-.71-4.93.88-4.87,3.7a7,7,0,0,0,3.45,5.92,2,2,0,0,0,2.27-.29c2.92-2.28,2.72-6.25.4-8.85-1.61-1.81-4.26.85-2.66,2.65a2.24,2.24,0,0,1-.39,3.55l2.27-.3a3.25,3.25,0,0,1-1.56-2.35,1.57,1.57,0,0,1,0-.53c0-.23.07-.13,0-.09.25-.1-.24.16-.23.12s.12,0,.39.08c2.33.62,3.33-3,1-3.61Z"/><path class="cls-1" d="M212.65,166.06s-4.59-26.43,7.21-35.59c0,0,15.65-15.9,32.14-6.68,0,0,23.17,21.69,49,21.45,0,0,23.82-2.58,31.8-14.2,0,0,24.17-25.7-12.83-51.82,0,0-32-25.23-71.31,2.44l-2.94,2.08s-21.5-20.95-46.13-8.45c0,0-28,10.45-33.25,37.92,0,0-.91,37.48-4.43,52.85-3.12,13.58-12.9,24.65-19.49,32.24s-22.3,23.75-10,44.75c0,0,10.34,13.95,23.6,14.58,0,0,7.62-9.68,8.73-16,0,0,3.09-15.69,7-19.17s12.73-8.88,12.73-8.88a59.16,59.16,0,0,1-5-35.1S189.78,157.32,212.65,166.06Z"/><path class="cls-1" d="M202.47,212.11S199,198,200.91,197.88s11.77.28,13.4-2.89c0,0,16.24,41.93,53.7,40.37,0,0,24-2.47,29.76-30.31,0,0,6.13-20.94,3.27-59.47,0,0,21.37-2.34,31-13,0,0,10.92,31.45,9.92,42.32,0,0-3.78-3.48-5.6,1.22,0,0-8.66,14.53-4.79,28.33,0,0,4.37,4.35,13.91,4.34,0,0-.88,13.31-3.42,14.29,0,0-13.46-.28-11.05,4.24a5.2,5.2,0,0,0,5.4,2.61s-7,1.43-8.12,4.59c-1.5,4.13,4.14,4.12,4.14,4.12s-5.49,2.67-4.43,4.4,4.85,3.2,4.85,3.2-1.4,6.86-3.23,5.91-10.65-8.11-17.42-3.79-8.88,20.48-7.82,24.05c0,0-10.95-7.21-19.79-3.52,0,0,1.38,12.23-5.19,13.89s-13.74,8.3-34-14.31c0,0-17.06-.4-27,7.7,0,0-1.76,13.83-7.31,14.66s-20.64,4.19-28.21-8c0,0-3.37-9.26-7.79-11.37,0,0,4.42-13.79,9.59-14.63,2.9-.47,8.13-3.82,8.89-7.1,0,0,6.94,19.94,17.52,18.79s21.51-1.82,26.49-10.07c0,0,1.41-14.84-7.07-21.49,0,0-5.3-3.68-16.53,4L211.13,235s3.27.08.74-6.54L207.74,224s8.33,2.79,8.17-1.16S202.47,212.11,202.47,212.11Z"/><path class="cls-1" d="M157.19,173.81a74.49,74.49,0,0,0,4.88-19.46,96.92,96.92,0,0,0,.62-10.1c0-3.42.05-6.87.15-10.32a135.32,135.32,0,0,1,1.06-15.15A69.44,69.44,0,0,1,167,105.64l.56-1.61.64-1.57c.41-1.06.91-2.07,1.4-3.1s1.08-2,1.61-3,1.21-1.93,1.88-2.85a50.18,50.18,0,0,1,9.36-9.78,59.84,59.84,0,0,1,11.43-7.12,57.15,57.15,0,0,1,23.06-5.74,49.2,49.2,0,0,1,7.66.43,39.61,39.61,0,0,1,7.49,1.85,18.16,18.16,0,0,1,1.8.71c.59.26,1.2.48,1.77.79A32.77,32.77,0,0,1,239,76.58a33.14,33.14,0,0,1,3.1,2.3c.51.4.94.88,1.41,1.31a15.85,15.85,0,0,1,1.34,1.38c2.1,2.43,1.39,2.38-.85.94a71.38,71.38,0,0,0-11.37-5.84c-1.09-.51-2.27-.82-3.4-1.22s-2.34-.65-3.54-.83a39.87,39.87,0,0,0-7.25-.72,49.91,49.91,0,0,0-7.32.48,59.77,59.77,0,0,0-7.21,1.56,58.42,58.42,0,0,0-13.61,5.84,59.09,59.09,0,0,0-6.15,4.2,53.31,53.31,0,0,0-5.49,5,39.91,39.91,0,0,0-5.36,7.19,44.42,44.42,0,0,0-3.69,8.36,78,78,0,0,0-3.44,18.24c-.57,6.83-.55,13.71-.63,20.65a87.59,87.59,0,0,1-2.77,20.8,65.28,65.28,0,0,1-11.19,23.22c-4,5.22-8.84,9.58-13,14.42A38.29,38.29,0,0,0,130,220.44a32.74,32.74,0,0,0-.67,7.17,37.82,37.82,0,0,0,.92,7.12,22.2,22.2,0,0,0,2.48,6.55,27.94,27.94,0,0,0,4.32,5.56,32.19,32.19,0,0,0,4.82,3.89,33,33,0,0,0,7.32,3.6c.42.14.8.29,1.14.42s.65.2.93.31.53.23.76.34.45.19.65.3a8.85,8.85,0,0,1,1.12.57c.39.3-.23.53-1.8.66a17.86,17.86,0,0,1-6.92-1.41,29,29,0,0,1-6.09-3.36,31,31,0,0,1-5.27-4.67,28.47,28.47,0,0,1-4.14-5.91l-.77-1.68c-.24-.57-.42-1.18-.64-1.77s-.31-1.16-.48-1.74-.31-1.15-.41-1.74a40.21,40.21,0,0,1-.83-7.2,36.61,36.61,0,0,1,.68-7.3,37.88,37.88,0,0,1,2.23-7,44.9,44.9,0,0,1,3.51-6.43,63,63,0,0,1,6.76-8.28c2.39-2.55,4.8-5,7-7.56a59.15,59.15,0,0,0,10.51-17.07Z"/><path class="cls-1" d="M195.89,211.62a39.73,39.73,0,0,0-6.71,1.8,64.06,64.06,0,0,0-6.53,2.7c-1.55.75-3,1.62-4.48,2.51a22.09,22.09,0,0,0-6.61,5.75,7.29,7.29,0,0,0-.93,1.82c-.11.3-.2.67-.3,1.05l-.27,1.11L169,232.85c-.63,2.66-1.19,5.36-1.76,8-.37,1.71-.7,3.44-1.12,5.14s-.94,3.39-1.55,5.05c-.38,1-.8.74-1-.28a11.92,11.92,0,0,1,.06-4.73c.74-3.46,1.55-6.92,2.34-10.4q.6-2.61,1.25-5.22l.71-2.61a26.29,26.29,0,0,1,.87-2.73,12,12,0,0,1,2-3,20.38,20.38,0,0,1,2.49-2.43,38.1,38.1,0,0,1,5.61-3.83,62.62,62.62,0,0,1,13.6-5.56,21,21,0,0,1,4.58-.81,7.34,7.34,0,0,1,2.43.51c.73.27,1.43.58,2.11.91a53.54,53.54,0,0,1,5.94,3.42,65.64,65.64,0,0,1,5.51,4c.68.57,1.35,1.15,2,1.78q.48.48.93,1a3.63,3.63,0,0,1,.74,1.46,2.62,2.62,0,0,1,0,.89,2.52,2.52,0,0,1-.26.85,3.07,3.07,0,0,1-.56.74,5.33,5.33,0,0,1-.74.5,6.53,6.53,0,0,1-2.95.46,13.79,13.79,0,0,1-2.41-.28c-2.92-.64-3.69-1.4-4-2.22a2.06,2.06,0,0,1-.16-.57c0-.27.3-.36.81-.31a11,11,0,0,1,2.23.45,15.68,15.68,0,0,0,4.19.69,2.65,2.65,0,0,0,1.48-.35.44.44,0,0,0,.18-.25s0-.17,0-.23,0-.05,0-.06a3.35,3.35,0,0,0-.39-.6c-.21-.25-.44-.52-.7-.78-.51-.52-1.08-1-1.67-1.54-1.19-1-2.47-1.94-3.78-2.84a60.26,60.26,0,0,0-6-3.7,25.43,25.43,0,0,0-3.12-1.43,4.45,4.45,0,0,0-2.89-.31Z"/><path class="cls-1" d="M211.15,232.51a.12.12,0,0,0,.21,0,.28.28,0,0,0,0-.17V232l0-.38a7.25,7.25,0,0,0-1.83-3.2,21,21,0,0,0-2.25-2,35.53,35.53,0,0,0-4.53-3.16c-.79-.47-1.61-.92-2.43-1.32-.42-.2-.83-.39-1.23-.54a2.22,2.22,0,0,0-.48-.14,6.07,6.07,0,0,0-.63,0,20.17,20.17,0,0,0-4.81.73c-2,.54-4,1.27-6.15,1.65-.65.13-.69-.15-.31-.73a6.37,6.37,0,0,1,.87-1.06,5.1,5.1,0,0,1,1.49-1,22.93,22.93,0,0,1,3.23-1,30.46,30.46,0,0,1,3.37-.69c.57-.08,1.16-.15,1.77-.18.32,0,.61,0,.95,0a4.41,4.41,0,0,1,.56,0,3.17,3.17,0,0,1,.63.16,19.21,19.21,0,0,1,3.18,1.57,47.16,47.16,0,0,1,7,4.64,15.77,15.77,0,0,1,3.13,3.63,5.61,5.61,0,0,1,.44,5.46,1.64,1.64,0,0,1-1.61.87,4.53,4.53,0,0,1-1.84-.67c-.85-.5-1.59-1-2.37-1.47a27.85,27.85,0,0,0-7.37-3.36c-.51-.13-1-.25-1.52-.34a4.49,4.49,0,0,0-.7-.1,5.5,5.5,0,0,0-.69,0,25.59,25.59,0,0,0-3,.51l-1.33.32c-1.66.39-2.22.27-2.73-.27-.12-.12-.26-.23-.35-.34-.29-.37.31-1.08,1.56-1.52a25.36,25.36,0,0,1,6-1.16,3.37,3.37,0,0,1,.45,0,3.33,3.33,0,0,1,.52,0l.29,0,.19,0,.39.08q.77.15,1.53.36a26.53,26.53,0,0,1,3,1,30.61,30.61,0,0,1,4.22,2.08c.67.38,1.32.79,1.95,1.18l1.28.78Z"/><path class="cls-1" d="M194.67,241.65a20.17,20.17,0,0,0,.14-2.05l0-1v-.64a1.08,1.08,0,0,1,.07-.46l0-.11s.05,0,0-.07l0-.05.1-.21a3.8,3.8,0,0,1,1.68-1.29,5.06,5.06,0,0,1,1.7-.35,12.14,12.14,0,0,1,3.07.34,36,36,0,0,1,3.57,1c1,.35,2,.72,3,1s2.08.46,2.18.22a.45.45,0,0,0,.12-.27.6.6,0,0,0,0-.24l0-.32a1.88,1.88,0,0,0-.13-.65,2.78,2.78,0,0,0-.24-.64,7.52,7.52,0,0,0-1.78-2.28,16.48,16.48,0,0,0-4.64-2.82,27.81,27.81,0,0,0-3.32-1.17,21.38,21.38,0,0,0-3.45-.73c-.72-.09-.64-.29,0-.5a7.44,7.44,0,0,1,3.33-.22,22.77,22.77,0,0,1,3.73.9,22.12,22.12,0,0,1,3.51,1.68,12.84,12.84,0,0,1,3.08,2.56,6.66,6.66,0,0,1,1.68,4,2.67,2.67,0,0,1-.34,1.68,2.13,2.13,0,0,1-1.59.91,7.89,7.89,0,0,1-2.59-.32c-1.53-.41-3-.9-4.39-1.37a20.81,20.81,0,0,0-3.65-.93,5.4,5.4,0,0,0-1.71,0,1.51,1.51,0,0,0-.38.1,1.3,1.3,0,0,0-.34.15,1.49,1.49,0,0,0-.29.2.61.61,0,0,0-.16.16c-.1.11,0,.23,0,.67v1.08a26,26,0,0,1-.83,6.25,17.18,17.18,0,0,1-4.78,8.24,17.59,17.59,0,0,1-6.38,3.81c-.52.17-1,.31-1.58.44-2,.36-2.71-.05-3.16-.47a2.64,2.64,0,0,1-.29-.29c-.1-.15,0-.31.38-.52a6.32,6.32,0,0,1,1.5-.68,32.22,32.22,0,0,0,5.64-2.1,13.26,13.26,0,0,0,4.52-3.88,17.78,17.78,0,0,0,3-8.73Z"/><path class="cls-1" d="M156,255.4c.77-.91,1.53-1.83,2.26-2.77.27-.35.48-.73.75-1.07q1.42-1.81,2.79-3.68a15.46,15.46,0,0,0,1.05-1.74,12.5,12.5,0,0,1,1.25-2.24c.18-.21.61,0,.95.41a1.58,1.58,0,0,1,.36,1.52,19,19,0,0,1-2.93,4.65c-.73.82-1.27,1.82-1.93,2.72s-1.49,2-2.26,2.91l-1.44,1.74-2.21,2.62c-.57.68-1,1.43-1.61,2.13-.12.15-.23.31-.37.46a1.17,1.17,0,0,1-.69.42,1,1,0,0,1-.65-.22l-.28-.18a1.09,1.09,0,0,1-.11-1.22,35.13,35.13,0,0,1,2.76-3.73c.75-.92,1.53-1.83,2.27-2.77Z"/><path class="cls-1" d="M173.62,270.21q.82-1.86,1.71-3.72c.21-.46.39-.93.62-1.38a33.35,33.35,0,0,1,2.84-4.53l1.4-1.92c.32-.4.61-.82.94-1.21a6.46,6.46,0,0,1,1.16-1c.27-.18.57.21.72.73a1.76,1.76,0,0,1-.15,1.59c-1.19,1.46-2.2,3-3.41,4.57a16.6,16.6,0,0,0-1.68,3.18c-.58,1.2-1.13,2.43-1.66,3.67l-1,2.31c-.47,1.18-1,2.35-1.43,3.54-.36.92-.56,1.89-.93,2.81a4,4,0,0,1-.23.61,1.29,1.29,0,0,1-.62.66,1,1,0,0,1-.66.08,2.88,2.88,0,0,1-.33,0c-.31-.08-.48-.54-.48-1.18a22.69,22.69,0,0,1,1.57-5c.51-1.25,1-2.5,1.52-3.76Z"/><path class="cls-1" d="M172.34,283.41a51.06,51.06,0,0,1-7.38-5.18c-.84-.69-1.7-1.35-2.5-2.08a73.92,73.92,0,0,1-7.76-8.37q-1.6-2-3.14-4c-.65-.85-1.32-1.7-1.91-2.6a22.38,22.38,0,0,1-1.52-2.86c-.27-.62.15-.75.83-.51a6,6,0,0,1,2.4,1.77c2.49,3.43,5.11,6.75,7.9,10a47.33,47.33,0,0,0,5.68,5.45,56.28,56.28,0,0,0,6.93,5.18,24.32,24.32,0,0,0,4.68,2.33A5.51,5.51,0,0,0,180,283a1.29,1.29,0,0,0,.53-.38,1.1,1.1,0,0,0,.23-.55,3.4,3.4,0,0,0-.37-1.61,22.91,22.91,0,0,0-3.62-4.86c-.3-.35-.61-.68-.91-1.05a6,6,0,0,1-.94-1.66,1.48,1.48,0,0,1,.1-1.06,2.68,2.68,0,0,1,.19-.38c.14-.14.34-.08.64.06a4.36,4.36,0,0,1,1.14.85,37.32,37.32,0,0,1,3.88,4.3,14.56,14.56,0,0,1,1.72,2.76,6.63,6.63,0,0,1,.59,1.87,3.83,3.83,0,0,1-.49,2.57,4.1,4.1,0,0,1-3.18,1.79,8.18,8.18,0,0,1-2.75-.3,21.1,21.1,0,0,1-4.44-1.84Z"/><path class="cls-1" d="M86.55,385.05c-1.29-6.11-.89-12.21-.18-18.12a111,111,0,0,1,3.76-17.46c1.27-4.15,2.57-8.29,4.21-12.29A216.89,216.89,0,0,1,104,316.53q5.33-10,11.15-19.82c3.46-5.77,7-11.5,10.8-17a174.43,174.43,0,0,1,15.61-20.47c1.82-2,1.71-1.59.6.41l-2.34,4.09c-.5.83-1,1.76-1.61,2.7s-1.26,1.93-2,2.93a448.57,448.57,0,0,0-27.88,44.21A196.63,196.63,0,0,0,95,342.69c-4,11-6.64,22.66-6.62,34.33a33.2,33.2,0,0,0,1.64,10.44,16.69,16.69,0,0,0,5.93,8.3c.55.35,1.06.76,1.64,1.06l1.77.87a22.74,22.74,0,0,0,3.8,1.13,26.13,26.13,0,0,0,8,.45A59.62,59.62,0,0,0,127,395.38,132.79,132.79,0,0,0,149.33,384l4.7-2.86c5.93-3.52,7.77-4.7,9.16-5.33.32-.15.7-.39.9-.46.67-.28-1.26,1.91-5.28,5.09-1.49,1.17-3,2.37-4.57,3.48-.78.55-1.57,1.11-2.37,1.66s-1.63,1-2.46,1.55c-3.32,2-6.75,4-10.3,5.75a119,119,0,0,1-11,4.88,72,72,0,0,1-11.72,3.47,40.16,40.16,0,0,1-9.27.84,24.41,24.41,0,0,1-4.73-.61l-1.17-.24-1.15-.37a15.56,15.56,0,0,1-2.27-.86,18.25,18.25,0,0,1-7.6-6.13,23.82,23.82,0,0,1-3.75-8.8Z"/><path class="cls-1" d="M213.12,173.54c-.41-1.61-.84-3.21-1.3-4.82l-.35-1.21-.08-.3,0-.06s0-.07,0-.08l-.13-.08a2.06,2.06,0,0,0-.47-.23,6.81,6.81,0,0,0-1-.39,21.68,21.68,0,0,0-9.35-.34,33.55,33.55,0,0,0-6.81,1.83c-7.58,2.81-13.74,10.4-12.81,19a88,88,0,0,0,.87,11.36c.34,2.4.76,4.8,1.28,7.16a52.3,52.3,0,0,0,1.87,6.91c.52,1.31,0,1.48-1.08.51a12.73,12.73,0,0,1-3-6,97.19,97.19,0,0,1-2.14-15.06,67.71,67.71,0,0,1-.08-7.68c0-.65.08-1.3.18-2,0-.33.07-.65.14-1l.24-1a18.92,18.92,0,0,1,1.53-3.75,23.93,23.93,0,0,1,14.85-11.7,34,34,0,0,1,10.39-1.37,17,17,0,0,1,5.31,1,8.61,8.61,0,0,1,1.28.57l.84.47c.37.1.36.5.48.8l.76,2.61A78.55,78.55,0,0,1,217.19,181a32.74,32.74,0,0,1-.19,9.68c-.11.81-.35,1.59-.52,2.39l-.37,1.16c-.19.5-.2,1.18-.84,1.32l-.67.35-.54.27c-.36.18-.73.34-1.1.51a20.41,20.41,0,0,1-2.3.85,34.31,34.31,0,0,1-7.33,1.21l-1.5.13c-.13,0-.3,0-.38.11a.9.9,0,0,0-.1.39c0,.16,0,.22,0,.48s0,.55,0,.83c0,.57.1,1.14.18,1.72.13,1,.33,2,.53,3,.77,3.8,1,5,.56,6a3.75,3.75,0,0,1-.3.69c-.4.55-1.43-.86-2.27-3.73a41.19,41.19,0,0,1-1.35-6.63c-.06-.58-.1-1.17-.11-1.8v-.54a6.75,6.75,0,0,1,.07-.75,3.45,3.45,0,0,1,.46-1.42c.45-1,1.64-.87,2.58-1.09a4,4,0,0,1,.53-.06l.41,0,.83-.06a29.77,29.77,0,0,0,6.28-1,19.52,19.52,0,0,0,2.9-1.13l.71-.35.21-.11v0l.22-.7c1.77-6.07.92-12.72-.76-19.14Z"/><path class="cls-1" d="M227.5,126.93a26.48,26.48,0,0,0-4.38,3,24.44,24.44,0,0,0-3.62,3.91,25.34,25.34,0,0,0-2,3.37,37.06,37.06,0,0,0-3.76,13.57,43.83,43.83,0,0,0-.14,6.38c.06,1.37.13,2.74.2,4.1a12.52,12.52,0,0,1-.29,4.16c-.16.87-.65.77-1.34.08a5.52,5.52,0,0,1-2-3.59c-.1-1.42-.18-2.86-.19-4.3s.11-2.9.23-4.35a53.27,53.27,0,0,1,5.49-18.77,26.51,26.51,0,0,1,8.08-8.77,31.93,31.93,0,0,1,6.49-3.35c.87-.32,1.73-.64,2.61-.88l1.32-.38c.47-.09.94-.22,1.4-.28a31,31,0,0,1,5.51-.31,36.56,36.56,0,0,1,8.38,1,17.83,17.83,0,0,1,1.82.53c2.24.86,2.79,1.61,2.77,2.49a2.09,2.09,0,0,1,0,.62c-.09.3-.39.42-.83.41a6.65,6.65,0,0,1-1.72-.44,32.53,32.53,0,0,0-6.81-1.43,34.31,34.31,0,0,0-7.16-.1,17.46,17.46,0,0,0-2.49.43c-.85.27-1.74.5-2.58.81a33.84,33.84,0,0,0-4.92,2.17Z"/><path class="cls-1" d="M222.61,265.23a39.33,39.33,0,0,0,7.23-2.84,25.48,25.48,0,0,0,6.23-4.38l.14-.15a.47.47,0,0,0,0-.17c0-.46,0-1,0-1.44,0-1-.06-1.92-.12-2.87a29,29,0,0,0-2-9.76,18.91,18.91,0,0,0-2.5-4.25c-.26-.31-.5-.65-.79-.94l-.81-.82a4.93,4.93,0,0,0-2-.75,10.77,10.77,0,0,0-4.26.4,25.53,25.53,0,0,0-4.18,1.6c-.87.41-1.72.87-2.56,1.35l-1.25.74-.85.51a.91.91,0,0,1-.51.15h-.42c-.05.35,0,.1,0,.17h0a2.82,2.82,0,0,1-.42-.22c-.14-.14-.28-.25-.42-.41l-.4-.44-.28-.32a6.54,6.54,0,0,1-.91-1.39,11.35,11.35,0,0,1-.91-3c-.21-1.25.33-1.16,1-.27.36.43.78,1.07,1.25,1.75a11.76,11.76,0,0,0,.75,1c.13.15.28.3.44.46l.24.24h0l.33-.2.66-.4c.89-.52,1.8-1,2.73-1.48a27.4,27.4,0,0,1,6-2.22,13.69,13.69,0,0,1,3.36-.34,7.6,7.6,0,0,1,3.55.94l.47.29a3.46,3.46,0,0,1,.41.37l.57.59a15.59,15.59,0,0,1,1.06,1.23,19.14,19.14,0,0,1,1.79,2.7,29.25,29.25,0,0,1,2.7,7.24,41.14,41.14,0,0,1,.95,7.62c0,.69,0,1.39,0,2.08v.77c0,.28.06.59-.21.76l-.58.63c-.14.15-.25.27-.39.4a24.28,24.28,0,0,1-3.33,2.7,38,38,0,0,1-7.45,3.88,39.38,39.38,0,0,1-10,2.52,22.76,22.76,0,0,1-7.88-.41,12.68,12.68,0,0,1-6.81-4.12,42.93,42.93,0,0,1-3.69-4.69,41.41,41.41,0,0,1-3.05-5.08c-.39-.78-.77-1.55-1.11-2.37-1.19-3.06-1.19-4.2-.76-5a3.1,3.1,0,0,1,.31-.53c.42-.39,1,.79,1.9,2.84a43,43,0,0,0,2.35,4.51c.87,1.48,1.77,3,2.77,4.38a36.42,36.42,0,0,0,3.2,4,13.62,13.62,0,0,0,1.73,1.63,9.54,9.54,0,0,0,2,1.09,16.91,16.91,0,0,0,7.17,1,32.87,32.87,0,0,0,7.6-1.34Z"/><path class="cls-1" d="M332.4,181.88c.61-1.63,1.26-3.22,1.91-4.81l.61-1.49.22-.56a2.9,2.9,0,0,1,.53-.26l1-.44a13.13,13.13,0,0,1,2.82-.72,21.06,21.06,0,0,1,5.5,0,32.7,32.7,0,0,1,5.24,1.09,34.63,34.63,0,0,1,7.24,2.89,23,23,0,0,1,9.33,10.09A19.64,19.64,0,0,1,368,191c.17.56.27,1.13.39,1.7a16.29,16.29,0,0,1,.11,1.82,40,40,0,0,1-.8,6.72c-.71,3.88-1.61,7.73-2.62,11.5-.67,2.41-1.33,4.84-2.16,7.22a36.78,36.78,0,0,1-3.09,7c-.9,1.39-1.21.82-1.05-.56a30.74,30.74,0,0,1,1.52-6.37,143.38,143.38,0,0,0,4.09-14.49c.55-2.45,1.07-4.92,1.41-7.37a30.75,30.75,0,0,0,.32-3.62,5.57,5.57,0,0,0,0-.83,4.89,4.89,0,0,0-.09-.82c-.1-.59-.25-1.16-.4-1.74a18.36,18.36,0,0,0-4.45-7.48,21.43,21.43,0,0,0-7.37-5,34.32,34.32,0,0,0-9.62-2.56,17.83,17.83,0,0,0-4.85.14,6.93,6.93,0,0,0-1.13.29,5.44,5.44,0,0,0-.88.33.45.45,0,0,0-.12.06l-.06.13-.16.4-.49,1.2a77.65,77.65,0,0,0-4,11.92,31.29,31.29,0,0,0-.82,9.33c0,.78.17,1.55.27,2.32.05.39.16.76.24,1.14l.09.43c0,.11,0,.24.15.28l.31.2c.16.11.33.2.5.3.33.21.67.4,1,.58a18,18,0,0,0,2.09,1,20.58,20.58,0,0,0,4.25,1.1c.74.12,1.47.22,2.21.3l2.57.29a7.35,7.35,0,0,1,.94.3,1.56,1.56,0,0,1,.54.81,3.88,3.88,0,0,1,.14,1,5,5,0,0,1,0,.55c0,.19,0,.38,0,.48a26.76,26.76,0,0,1-.48,2.91c-.24,1.09-.49,2.14-.8,3.2-1.21,3.94-2,5.07-2.95,5.6a3.88,3.88,0,0,1-.69.33c-.68.12-.41-1.54.41-4.32.51-1.75,1-3.54,1.36-5.33a26.31,26.31,0,0,0,.43-2.64c0-.3,0-.19,0-.25a.14.14,0,0,1,0-.06s-.07,0-.12,0h0l-.11,0-.24,0-1-.12-2-.28a30.09,30.09,0,0,1-4.12-.94,22.37,22.37,0,0,1-4-1.75c-.32-.17-.61-.36-.92-.54l-.47-.29-.85-.54a2.41,2.41,0,0,1-.4-.29l-.11-.49-.21-1-.24-1a30.69,30.69,0,0,1,.05-10.94,58.21,58.21,0,0,1,2.9-10.27Z"/><path class="cls-1" d="M310.58,277.1a34.51,34.51,0,0,1-5.81-4.87c-.23-.23-.44-.48-.65-.72s-.36-.43-.78-.94l-.26-.32-.13-.15a.67.67,0,0,1,0-.2l0-.82.06-1c.1-1.23.2-2.47.38-3.7a35.8,35.8,0,0,1,1-5.37,23.57,23.57,0,0,1,4.45-8.64,18.93,18.93,0,0,1,1.69-1.78l.93-.81a4.43,4.43,0,0,1,1.3-.66,10.27,10.27,0,0,1,5-.27,34,34,0,0,1,8.05,2.61c.81.37,1.62.75,2.42,1.15l.92.46c.08,0,.16.12.23.08l.17-.21s.35-.48.56-.81.44-.72.65-1.08c.41-.74.78-1.51,1.14-2.28.42-1,.83-.71.95.33a7.64,7.64,0,0,1-1.35,4.78l-.11.16a1.84,1.84,0,0,1-.19.25c-.14.17-.27.36-.41.52l-.45.47-.49.2h0c-.1-.48,0-.14-.06-.24h-.07l-.12,0-.25.05a1.67,1.67,0,0,1-.58-.05l-1-.51c-.78-.4-1.57-.78-2.36-1.15a41,41,0,0,0-4.83-1.9,17.67,17.67,0,0,0-4.87-.9,6.77,6.77,0,0,0-2.2.32,3,3,0,0,0-.48.2l-.14.07-.19.15c-.32.28-.66.53-.95.83a16.37,16.37,0,0,0-3.54,5,26.94,26.94,0,0,0-1.9,6.09,47.28,47.28,0,0,0-.86,7.06l0,.58c0,.06,0,.1.08.15l.14.18c.37.44.76.87,1.18,1.28a28.26,28.26,0,0,0,2.64,2.34,37.56,37.56,0,0,0,7.45,4.56c4,1.82,8.45,3.11,12.73,2.57a11.57,11.57,0,0,0,4.57-1.62,10.32,10.32,0,0,0,1.87-1.48c.29-.27.53-.59.8-.87l.83-1c.49-.58.93-1.16,1.4-1.74,1.73-2.17,2.26-2.85,3.08-3.07a2.62,2.62,0,0,1,.55-.14c.51,0,.3,1.22-.81,3.08a43.68,43.68,0,0,1-2.74,4l-.36.48-.44.5a8.62,8.62,0,0,1-.94,1,8.84,8.84,0,0,1-1.06.86,9.41,9.41,0,0,1-1.14.76,16.67,16.67,0,0,1-10.52,1.81,34,34,0,0,1-14.23-5.6Z"/><path class="cls-1" d="M160.33,328.66l2.13-4.25,2-4.32c.45-1.06.84-2.16,1.31-3.22,1.57-3.77,3.14-7.55,4.55-11.41.63-1.71,1.19-3.45,1.75-5.18a32.7,32.7,0,0,1,2.61-6.57c.39-.66.72-.33.87.42a6.29,6.29,0,0,1,.09,1.38,6.17,6.17,0,0,1-.29,1.78l-1,3.38L173.17,304c-.78,2.25-1.62,4.49-2.55,6.71-1.11,2.66-2.05,5.5-3.19,8.22-.62,1.5-1.26,3-2,4.45l-1,2.22-1.08,2.18c-.85,1.8-1.82,3.55-2.76,5.31-1.45,2.65-3,5.26-4.63,7.78-.31.5-.61,1-.91,1.5l-.94,1.45c-.63,1-1.24,2-1.89,2.92-.31.41-.59.83-.91,1.23-1.24,1.47-1.76,1.83-2.49,1.71a3.14,3.14,0,0,1-.48-.06c-.44-.16-.29-1.05.44-2.2,2.27-3.34,4.56-6.88,6.82-10.49l2.39-4.12,2.24-4.22Z"/><path class="cls-1" d="M361.31,227.31a68.83,68.83,0,0,1,4.72,6.26,57.06,57.06,0,0,1,4,6.79,28.81,28.81,0,0,1,1.15,2.72,11.69,11.69,0,0,1,.44,1.49,3.73,3.73,0,0,1,.08.41l0,.53a4.91,4.91,0,0,1-.07.87,48.68,48.68,0,0,1-1.13,5c-.43,1.6-.88,3.18-1.33,4.77-.91,3.15-1.86,6.3-2.7,9.45-.37,1.4-.73,2.81-1,4.2a10,10,0,0,0-.24,1.92,16.43,16.43,0,0,0,.39,2.05c.85,3.52,2.43,6.93,3.15,10.65.22,1.18-.2,1.09-.85.26a16.28,16.28,0,0,1-2.48-4.33c-.67-1.77-1.34-3.57-1.87-5.48a18.94,18.94,0,0,1-.63-3c0-.33,0-.72,0-1l.1-.78c.06-.53.18-1,.26-1.47.83-3.81,1.94-7.44,3.05-11.1.68-2.19,1.29-4.43,1.85-6.69.27-1.13.54-2.27.75-3.38.12-.57.19-1.1.26-1.62v-.25a.65.65,0,0,0,0-.3l-.19-.75a31.26,31.26,0,0,0-3.2-6.66,69.4,69.4,0,0,0-4.31-6.25c-1-1.23-1.94-2.44-3-3.55a12.81,12.81,0,0,0-1.61-1.48,2.74,2.74,0,0,0-.84-.41c-.32-.11-.7-.19-1.05-.28a55.87,55.87,0,0,0-7-.89c-2.37-.17-4.75-.24-7.1-.19a37.59,37.59,0,0,0-5.37.51,9.51,9.51,0,0,0-1.25.29l-.59.18-.46.23a2.34,2.34,0,0,0-.69.61.6.6,0,0,0-.08.53,2.57,2.57,0,0,0,1.13,1.05,14.21,14.21,0,0,0,2.55,1,6.17,6.17,0,0,1,1.72,1.07q.26.28-.63.63a5.12,5.12,0,0,1-2.81.05,7.68,7.68,0,0,1-2.66-1.16,7.21,7.21,0,0,1-.63-.52,5.71,5.71,0,0,1-.58-.69,3,3,0,0,1-.47-2.16,3.28,3.28,0,0,1,.4-1.08c.21-.26.43-.56.64-.79s.45-.37.68-.55.53-.27.8-.4a12.41,12.41,0,0,1,2.82-.76,58,58,0,0,1,10.59-.47,73,73,0,0,1,7.88.66c.67.11,1.33.21,2,.38l.53.14a3.49,3.49,0,0,1,.57.17,5,5,0,0,1,1.23.59,7.5,7.5,0,0,1,.95.75c.3.25.52.49.77.74.51.49.94,1,1.4,1.49Z"/><path class="cls-1" d="M331,238.77a12.77,12.77,0,0,1-1.25-.32,6.64,6.64,0,0,1-1.42-.59,3.38,3.38,0,0,1-1.46-1.41,2.44,2.44,0,0,1-.06-1.93c.06-.16.13-.32.2-.47s.19-.28.29-.42a3.69,3.69,0,0,1,.68-.74,7.05,7.05,0,0,1,1.2-.79,15.32,15.32,0,0,1,2.36-.95,28.61,28.61,0,0,1,3.41-.9,43.53,43.53,0,0,1,12.17-.39,18.2,18.2,0,0,1,2.75.52,6.85,6.85,0,0,1,1.41.55,4.21,4.21,0,0,1,.72.47c.22.18.36.33.53.49.81.84,1.59,1.67,2.31,2.58a16.54,16.54,0,0,1,1,1.44,7.15,7.15,0,0,1,.66,1.71c.16.83-.18.71-.79.38-.31-.16-.76-.35-1.26-.58a5.19,5.19,0,0,1-1.37-1c-.72-.81-1.47-1.63-2.24-2.38l-.55-.55c-.07-.07-.08-.06-.12-.11s-.13-.07-.19-.12a5.48,5.48,0,0,0-1.19-.46,30.69,30.69,0,0,0-6.41-.81,33.07,33.07,0,0,0-8.14.92,16,16,0,0,0-4.09,1.39,2.39,2.39,0,0,0-.41.26l-.18.12-.11.09a.84.84,0,0,0-.27.4.42.42,0,0,0,.09.46,1.27,1.27,0,0,0,.47.3,11,11,0,0,0,2.53.65c.91.15,1.84.25,2.78.33,2.84.23,5.74.31,8.64.4.56,0,1.12,0,1.71.08l.9.09a3.32,3.32,0,0,1,1,.34,7.58,7.58,0,0,1,2.72,2.54c.3.42.58.82.84,1.24a8.93,8.93,0,0,1,.85,1.63,1.58,1.58,0,0,1,0,1,4.49,4.49,0,0,1-.13.47c-.11.22-.35.26-.73.11a3.4,3.4,0,0,1-1.31-1.07c-1.28-1.66-2.29-3.34-3.53-3.82a8.29,8.29,0,0,0-.93-.12l-1.46-.07-3.09-.08a62.12,62.12,0,0,1-9.54-.8Z"/><path class="cls-1" d="M331.62,246.62a11,11,0,0,1-2.4-.52,4.12,4.12,0,0,1-1.36-.76,2.32,2.32,0,0,1-.78-1.75,3.55,3.55,0,0,1,.83-2.16,6.18,6.18,0,0,1,1.45-1.28,11.83,11.83,0,0,1,2.7-1.32,20.62,20.62,0,0,1,5-.94,24.09,24.09,0,0,1,5,.14,16.08,16.08,0,0,1,4.37,1.08,7.66,7.66,0,0,1,2.54,1.56,5.35,5.35,0,0,1,1.41,2.66c.11.62-.15.56-.59.22a15.78,15.78,0,0,0-1.9-1.29,4.94,4.94,0,0,0-.49-.3,3.08,3.08,0,0,0-.48-.32,6.7,6.7,0,0,0-1.07-.54,13.26,13.26,0,0,0-2.39-.73,23.89,23.89,0,0,0-5.26-.6,17.24,17.24,0,0,0-6.39,1.3,7.94,7.94,0,0,0-1.9,1.07,2.28,2.28,0,0,0-.93,1.4.53.53,0,0,0,.27.48,3.13,3.13,0,0,0,1,.41,18.11,18.11,0,0,0,4.46.33c1.18,0,2.3-.12,3.58-.09a11,11,0,0,1,3.67.77,11.48,11.48,0,0,1,4.66,3.36,11.1,11.1,0,0,1,.76,1,4.21,4.21,0,0,1,.7,1.51,1.47,1.47,0,0,1-.21.9,2,2,0,0,1-.21.32c-.13.13-.32.09-.58-.08a3.14,3.14,0,0,1-.9-.87c-1.77-2.47-4.11-4.44-7.05-4.77a11.27,11.27,0,0,0-1.65-.07c-.6,0-1.26.06-1.91.07a33.57,33.57,0,0,1-4-.15Z"/><path class="cls-1" d="M342.41,268.93c-.19-.75-.25-1.53-.38-2.29s-.13-1.54-.14-2.32c0-.56,0-1.13,0-1.69a16.86,16.86,0,0,1,1.67-5.72c.23-.37.45-.75.67-1.14.11-.18.2-.38.32-.57l.38-.52a10.29,10.29,0,0,1,1-1.32,11.72,11.72,0,0,1,1.31-1c.29-.19.47.1.5.56a2.4,2.4,0,0,1-.35,1.55c-.32.38-.57.82-.85,1.22l-.43.6-.33.66a8.92,8.92,0,0,0-.66,1.31c-.19.46-.47.89-.63,1.37a10.53,10.53,0,0,0-.54,3.68v1.05c0,.34.06.69.08,1a16.41,16.41,0,0,0,.29,2.09,10.81,10.81,0,0,0,.29,1.28A11.27,11.27,0,0,0,345,270a19.13,19.13,0,0,0,1.57,3.66,7.81,7.81,0,0,0,.88,1.25,12.08,12.08,0,0,0,1,1.14c.15.17.31.31.45.48.56.59.61.87.28,1.43-.08.13-.14.26-.23.38-.28.39-.81.39-1.35,0a13.74,13.74,0,0,1-3.69-4.93,17,17,0,0,1-.88-2.17c-.27-.73-.45-1.49-.65-2.25Z"/><path class="cls-1" d="M362.43,294.67a25.24,25.24,0,0,1-7.41.68,17.64,17.64,0,0,1-2.71-.36,12.15,12.15,0,0,1-2.31-.72l-1.11-.46c-.37-.16-.7-.4-1.05-.59a28.49,28.49,0,0,1-3.85-2.65c-1.07-.85-2.13-1.74-3.12-2.67a21.31,21.31,0,0,1-3.34-4c-.28-.47,0-.58.52-.42a5.19,5.19,0,0,1,2,1.24c1.22,1.21,2.48,2.31,3.77,3.4a50.73,50.73,0,0,0,4.11,3c.43.25.86.49,1.31.73a9.67,9.67,0,0,0,1.42.54l.72.25.74.16c.5.09,1,.24,1.5.29a19.43,19.43,0,0,0,6.75-.22l1-.21,1-.29a16.42,16.42,0,0,0,2-.66,29.69,29.69,0,0,0,5.83-2.85,33.46,33.46,0,0,0,3.91-3.07c.26-.25.51-.5.79-.74,1.07-.83,1.49-1,2.09-.78a3.09,3.09,0,0,1,.4.14c.39.22.21.86-.44,1.71a24.36,24.36,0,0,1-7.65,5.92,31.93,31.93,0,0,1-6.94,2.7Z"/><path class="cls-1" d="M431.58,399.31c.7-4.74-.12-9.8-1.44-14.66a97.15,97.15,0,0,0-5.4-14.31c-1.57-3.41-3.34-6.73-5.11-10-6.26-11.7-13.41-23-20.64-34.17l-9.66-14.91c-2-3.19-4.08-6.39-6-9.68q-1.43-2.48-2.7-5a37.43,37.43,0,0,1-2.23-5.29c-.7-2.31-.25-2.07.89-.4s3.3,4.61,5.53,8.29c3.92,6.55,8.22,12.93,12.47,19.36s8.4,13,12.45,19.64c4.81,8,10,16.2,14.38,24.71a138.42,138.42,0,0,1,6.51,14.42,61.7,61.7,0,0,1,3.88,15.47,26.07,26.07,0,0,1-.8,10,17.25,17.25,0,0,1-5.53,8.43,22.8,22.8,0,0,1-6.6,3.75,20.49,20.49,0,0,1-7.46,1.4,37,37,0,0,1-14.47-3.32,62.06,62.06,0,0,1-18.73-12.62,45.72,45.72,0,0,1-3.4-3.68,25.58,25.58,0,0,1-3.65-5.57,6.46,6.46,0,0,1-.75-2.94,7.77,7.77,0,0,1,0-1c.08-.35.48,0,1.18.85.35.43.79,1,1.26,1.67l1.76,2.3a60.45,60.45,0,0,0,14.44,13.41,56.82,56.82,0,0,0,8.83,4.83,38.1,38.1,0,0,0,9.55,2.85,22.33,22.33,0,0,0,7.16,0,16.3,16.3,0,0,0,3.39-1l.85-.33.82-.39.81-.38.77-.45a15.23,15.23,0,0,0,5.11-4.68,16.23,16.23,0,0,0,2.44-6.53Z"/><path class="cls-1" d="M376.36,376c-.36-1.13-.76-2.26-1.22-3.37-.16-.41-.39-.78-.56-1.18-.58-1.43-1.24-2.84-1.92-4.24a18.4,18.4,0,0,0-1.06-1.77,14.76,14.76,0,0,1-1.4-2.24c-.11-.26.19-.43.61-.45a1.71,1.71,0,0,1,1.32.52,19.7,19.7,0,0,1,3,4.63c.43,1,1.09,2,1.6,3s1.06,2.26,1.53,3.41c.29.71.57,1.43.83,2.15.41,1.08.73,2.21,1.13,3.29.29.85.73,1.64,1,2.49.07.19.16.37.21.56.15.73,0,1-.58,1.28a4.34,4.34,0,0,1-.4.17,1,1,0,0,1-1.21-.5c-.22-.34-.39-.69-.58-1s-.3-.72-.45-1.08c-.27-.72-.53-1.47-.78-2.22l-1.17-3.37Z"/><path class="cls-1" d="M272.75,286.44a26,26,0,0,1-9-1.74c-.53-.17-1-.38-1.54-.58a12.67,12.67,0,0,1-1.5-.67,42.63,42.63,0,0,1-9.1-6.7L248,273.4a35.92,35.92,0,0,1-4.3-4.51c-.4-.53,0-.81.77-.78a4.65,4.65,0,0,1,2.73,1.13c1.57,1.4,3.12,2.78,4.69,4.13s3.07,2.75,4.67,4.06a26.4,26.4,0,0,0,6.44,3.75,24.23,24.23,0,0,0,7.84,2,17.17,17.17,0,0,0,2.48.05,10,10,0,0,0,2.33-.43,6.07,6.07,0,0,0,2.87-1.8,7.5,7.5,0,0,0,1.6-3.14,19,19,0,0,0,.2-5.8c0-.44-.1-.86-.09-1.31,0-1.64.21-2.19,1-2.58a3.17,3.17,0,0,1,.53-.25c.59-.19,1.13.47,1.43,1.7a19.54,19.54,0,0,1,.54,5.84,13.51,13.51,0,0,1-1.8,6.45,8.78,8.78,0,0,1-4.18,3.64,13,13,0,0,1-5,1Z"/><path class="cls-1" d="M226.85,270.54c1.49-.51,3-1,4.5-1.48.56-.17,1.08-.42,1.64-.57a42.12,42.12,0,0,1,6.07-1.24c.92-.1,1.83-.27,2.78-.33a5.35,5.35,0,0,1,3.74.66c.37.27,0,.76-.55,1.2a8.21,8.21,0,0,1-.77.61,1.22,1.22,0,0,1-.73.27,37.16,37.16,0,0,0-6.2.57,20.1,20.1,0,0,0-4,1.13c-1.47.47-2.94,1-4.41,1.49-.9.33-1.8.66-2.7,1-1.35.54-2.73,1.05-4,1.68-1,.48-1.94,1.14-3,1.66-.22.12-.44.25-.67.36-.87.37-1.25.28-1.68-.37a4.3,4.3,0,0,1-.29-.45,1.18,1.18,0,0,1,.45-1.5,23.56,23.56,0,0,1,5.38-3c1.44-.63,2.92-1.2,4.4-1.77Z"/><path class="cls-1" d="M299.54,271.26a37.57,37.57,0,0,0-3.61-1.1c-.45-.11-.91-.16-1.36-.26a39.12,39.12,0,0,0-4.81-.88,10.92,10.92,0,0,0-2.14,0,9.55,9.55,0,0,0-1.32.2c-.45.06-.84.16-1.28.19-.27,0-.43-.41-.34-.91a1.66,1.66,0,0,1,.34-.76,1.26,1.26,0,0,1,.73-.5,14.77,14.77,0,0,1,6.1,0c1.17.24,2.41.27,3.6.5s2.61.57,3.89.94c.78.22,1.56.47,2.34.73,1.18.39,2.33.87,3.49,1.33l1.36.52a9.48,9.48,0,0,1,1.36.59c.19.1.4.18.59.3.69.51.8.83.5,1.4-.07.13-.13.26-.21.38a1.09,1.09,0,0,1-1.27.33c-1.42-.52-2.95-1-4.46-1.64-1.14-.45-2.31-.91-3.51-1.28Z"/><path class="cls-1" d="M227.81,311a25.74,25.74,0,0,1-3.84.55c-.65,0-1.3,0-2,0l-1,0-1-.16a8,8,0,0,1-4-2,7,7,0,0,1-2.08-4,12.08,12.08,0,0,1,.55-5.92,34.46,34.46,0,0,1,4.81-8.32,71.59,71.59,0,0,1,6.18-7c1.94-1.95,3.91-3.89,5.89-5.76a72.38,72.38,0,0,1,8-6.71c1.8-1.22,1.19,2.39-1.73,5.06-5.18,4.74-10.45,9.32-15,14.6a29.78,29.78,0,0,0-3.61,5.15,30.7,30.7,0,0,0-1.39,2.82,14.07,14.07,0,0,0-.84,2.83c-.4,2.09,0,4.21,1.38,5.36a5.35,5.35,0,0,0,2.69,1.1,11,11,0,0,0,1.66.11,8.69,8.69,0,0,0,1.69,0,23.17,23.17,0,0,0,8.18-2.17,52.45,52.45,0,0,0,11.17-7c2.69-2.13,5.12-4.48,7.65-6.78.57-.49,1.11-1,1.7-1.49,2.18-1.8,3-2.18,3.91-2.06a3.07,3.07,0,0,1,.58.09c.49.2-.13,1.25-1.57,2.71l-3.25,3.3c-1.13,1.08-2.3,2.16-3.5,3.22a91.43,91.43,0,0,1-7.67,6.12c-4.05,2.79-8.49,5.37-13.6,6.53Z"/><path class="cls-1" d="M314.21,298.84a10.07,10.07,0,0,1,.7,3.16,4.83,4.83,0,0,1-.05,1l-.1.54-.22.56a4.21,4.21,0,0,1-1.37,1.69,7.22,7.22,0,0,1-3.08,1.4,9.89,9.89,0,0,1-3.1.12,17.22,17.22,0,0,1-4.07-.88,52.28,52.28,0,0,1-12-6.82c-1.64-1.16-3.26-2.35-4.83-3.57a40.79,40.79,0,0,1-5.79-5c-.53-.6-.12-.87.69-.78a7,7,0,0,1,3.23,1.34c2,1.53,4.12,3,6.22,4.45s4.14,2.95,6.27,4.36A27.82,27.82,0,0,0,305.1,304a9.35,9.35,0,0,0,4.52.2,4.17,4.17,0,0,0,1.76-.94.91.91,0,0,0,.34-.47,2.92,2.92,0,0,0,0-.86,15.92,15.92,0,0,0-2.26-5.49,59.1,59.1,0,0,0-5.62-7.85c-1.62-1.9-3.4-3.6-5.16-5.32-.38-.39-.77-.74-1.15-1.14s-.62-.67-.85-.94a4.35,4.35,0,0,1-.46-.75,2,2,0,0,1-.24-1.15,3.75,3.75,0,0,1,0-.5c.09-.47,1.09-.27,2.46.54.94.67,1.87,1.38,2.78,2.12s1.71,1.59,2.55,2.44a60.07,60.07,0,0,1,4.69,5.44,42.86,42.86,0,0,1,5.76,9.48Z"/><path class="cls-1" d="M337.67,158.3c-.45-2.2-.93-4.39-1.46-6.58-.19-.8-.47-1.57-.67-2.37-.69-2.81-1.35-5.64-2.16-8.42-.35-1.24-.8-2.45-1.25-3.64a48.69,48.69,0,0,1-1.57-4.64c-.12-.49.31-.62.91-.41a3.42,3.42,0,0,1,1.82,1.65c.38.77.72,1.54,1.06,2.32s.58,1.6.86,2.4c.52,1.62,1,3.25,1.35,4.92.45,2,1.21,4,1.75,6,.6,2.21,1.14,4.44,1.65,6.68.33,1.37.59,2.75.91,4.13.45,2.09.79,4.21,1.21,6.29.3,1.63.76,3.2,1,4.84a10.18,10.18,0,0,1,.19,1.08c.05,1.39-.12,1.84-.78,2.14a3.25,3.25,0,0,1-.44.19c-.49.13-1-.4-1.22-1.32-.77-2.74-1.23-5.66-1.87-8.61-.46-2.19-.89-4.41-1.38-6.62Z"/><path class="cls-1" d="M190.45,368.38c-1.62-4.11-3.5-8.18-5.18-12.4a65.15,65.15,0,0,1-4-13.16,37.54,37.54,0,0,1-.56-10.15,34.91,34.91,0,0,1,5.63-16.86,44.34,44.34,0,0,1,5.59-6.88c2-2.12,4.19-4.07,6.37-6l5.77-5.07a63.73,63.73,0,0,0,5.39-5.23,23,23,0,0,0,4.58-8.09,42.37,42.37,0,0,0,1.79-9.31c.18-2,.66-1.75,1.19,0a17,17,0,0,1,.62,3.68,16.19,16.19,0,0,1-.49,5.33,27.8,27.8,0,0,1-1.88,5,26,26,0,0,1-2.9,4.52,37.54,37.54,0,0,1-3.59,3.84c-1.26,1.15-2.51,2.25-3.78,3.35-5,4.4-10.2,8.54-14.32,13.55a30.54,30.54,0,0,0-5.59,10.23,37.25,37.25,0,0,0-1.59,11.74,42.19,42.19,0,0,0,2.4,12.88,130.68,130.68,0,0,0,5,12.44,94,94,0,0,1,5.8,15.82,31,31,0,0,1,.19,13,18.9,18.9,0,0,1-6.57,11.24c-2.73,2.1-5.73,3.43-8.22,5.21a16.88,16.88,0,0,0-5.61,6.75,18.93,18.93,0,0,0-1.21,3.66c-.54,2.39-.65,4-.88,5.21a5.57,5.57,0,0,1-1,2.43,4.67,4.67,0,0,1-.58.77c-.33.27-.66-.13-1-1.1a14.19,14.19,0,0,1-.47-4.59,20.55,20.55,0,0,1,2.38-9.16,19.74,19.74,0,0,1,2.91-4c.58-.58,1.17-1.17,1.83-1.72s1.33-1,2-1.45c2.71-1.75,5.45-3,7.58-4.56a13.72,13.72,0,0,0,4.59-6.18,25.11,25.11,0,0,0,1.32-12.22,29.14,29.14,0,0,0-.56-3.1c-.3-1.05-.54-2.11-.88-3.15-.66-2.09-1.4-4.16-2.25-6.22Z"/><path class="cls-1" d="M347.11,376.18a13.83,13.83,0,0,1,1.58-8.23l.47-.91c.17-.3.37-.56.55-.84.37-.54.75-1.14,1.12-1.62l2.23-2.87c2.92-3.81,5.84-7.58,7.79-11.7a16.27,16.27,0,0,0,1.63-9.24,15.87,15.87,0,0,0-3.47-7.56c-.42-.59-.94-1.12-1.41-1.68L356,329.91l-1.64-1.57-1.71-1.51c-4.62-4-9.78-7.48-14.65-11.45a73.69,73.69,0,0,1-6.28-5.6,38.88,38.88,0,0,1-5.35-6.58,38.11,38.11,0,0,1-2.64-4.77,31.12,31.12,0,0,1-1.8-5.18,23.18,23.18,0,0,1-.64-5.51,16.38,16.38,0,0,1,1.09-5.46c1-2.14,1.3-1.52,1.23.36,0,.47,0,1.05,0,1.66s.11,1.32.18,2.06c.19,1.48.5,3.15.92,5a32.84,32.84,0,0,0,3.93,9.2,35.59,35.59,0,0,0,2.94,4.11c.53.65,1.1,1.28,1.7,1.9s1.2,1.23,1.8,1.85c4.94,4.85,10.9,8.87,16.57,13.52a72.09,72.09,0,0,1,9.85,9.3,20.49,20.49,0,0,1,3.57,6.24,16.16,16.16,0,0,1,.78,7.26c-1.62,10.77-10.22,17.7-14.56,25.53a10.26,10.26,0,0,0-.29,7.81,22,22,0,0,0,4.71,7c6.2,6.39,13.7,11.74,20.22,18.1a57.39,57.39,0,0,1,7,8,30.21,30.21,0,0,1,4.67,9.73,24.47,24.47,0,0,1,.75,4.76c0,.76,0,1.45,0,2.08s-.1,1.2-.15,1.72a15,15,0,0,1-.62,2.51,6,6,0,0,1-1.42,2.5,5.83,5.83,0,0,1-.67.66c-.7.37-.29-2-.34-5.94a26.74,26.74,0,0,0-5.35-16.47c-3.54-4.95-8.32-9.23-13.27-13.42-3.69-3.11-7.5-6.2-11.14-9.65a41.05,41.05,0,0,1-5.17-5.76A17.29,17.29,0,0,1,347,376.2Z"/><path class="cls-1" d="M274.42,425.35q3.52-4.43,7.38-8.54c.94-1,1.83-2.05,2.81-3a88.82,88.82,0,0,1,11.15-9.32c1.74-1.25,3.54-2.47,5.39-3.57l1.8-1c.62-.31,1.23-.64,1.87-.91a19.29,19.29,0,0,1,4-1.2c.86-.16.85.32.33,1A7.45,7.45,0,0,1,308,400a7.84,7.84,0,0,1-1.68,1.23c-.57.33-1.14.66-1.73.95s-1.14.68-1.71,1-1.12.71-1.68,1.07-1.13.7-1.68,1.09c-2.24,1.46-4.42,3.06-6.59,4.73a71.66,71.66,0,0,0-7.29,6.9q-3.87,4-7.42,8.29c-1.46,1.76-2.85,3.58-4.21,5.41a90.47,90.47,0,0,0-5.71,8.66,48.54,48.54,0,0,0-3.24,7.15c-.21.54-.35,1.07-.53,1.6a15.11,15.11,0,0,1-.73,2,2,2,0,0,1-.9.82c-.17.09-.33.23-.47.29s-.44-.06-.68-.53a2,2,0,0,1-.22-.89,4.47,4.47,0,0,1,.08-1.18,29.27,29.27,0,0,1,2.47-7.21,65.61,65.61,0,0,1,3.7-6.72c2-3.23,4.22-6.34,6.54-9.35Z"/><path class="cls-1" d="M331.05,408.1a25.09,25.09,0,0,1-2.6-.4c-.87-.16-1.72-.37-2.56-.6-.62-.14-1.24-.26-1.85-.46a39.52,39.52,0,0,1-6.13-2.62c-.88-.42-1.73-.92-2.61-1.34-.54-.31-1.1-.6-1.64-.92a8.74,8.74,0,0,1-1.47-1.18c-.27-.28.07-.66.63-.89a2.22,2.22,0,0,1,1.9,0l1.58.82,1.6.79c1.08.52,2.12,1.11,3.21,1.66a19.74,19.74,0,0,0,4.23,1.37c.78.22,1.59.36,2.39.56s1.61.29,2.42.39l1.5.17c.51,0,1,.05,1.51.07a21,21,0,0,0,4.56-.29,15.51,15.51,0,0,0,1.68-.5c.55-.2,1.06-.45,1.6-.66.23-.09.45-.2.68-.31.87-.34,1.22-.26,1.69.27.1.12.22.23.31.35.3.42.1,1-.53,1.45a13.49,13.49,0,0,1-6.72,2.33c-.9.11-1.8.13-2.7.15s-1.79,0-2.68-.12Z"/><path class="cls-1" d="M362.69,433a58,58,0,0,0-1.14-6c-.19-.72-.44-1.41-.65-2.12A36.18,36.18,0,0,0,358,417.6a21.8,21.8,0,0,0-1.93-2.9c-.89-1.18-1.91-2.25-2.79-3.46-.28-.37.05-.63.64-.65a3,3,0,0,1,2.1.85,23.54,23.54,0,0,1,5.2,8c.71,1.8,1.54,3.6,2.14,5.46a47.84,47.84,0,0,1,1.53,6.22c.24,1.29.42,2.59.58,3.88.24,2,.37,4,.44,5.93.07,1.54.21,3,.18,4.6,0,.34,0,.68-.05,1-.15,1.28-.45,1.65-1.14,1.77a4,4,0,0,1-.48.08c-.52,0-.85-.58-.87-1.44-.09-2.57-.06-5.23-.24-7.95a56.83,56.83,0,0,0-.65-6.07Z"/><path class="cls-1" d="M297.53,438.14a12.85,12.85,0,0,0,5.52,3.93,19.53,19.53,0,0,0,7,1.34,19.94,19.94,0,0,0,5.22-.62,16.87,16.87,0,0,0,4.3-1.6,13.24,13.24,0,0,0,3.62-2.72,11.53,11.53,0,0,0,2.44-3.78,14.46,14.46,0,0,0,.7-2.17c.08-.38.11-.76.18-1.14a7.63,7.63,0,0,0,.13-1.16,11.64,11.64,0,0,0-2.15-7.71A12.84,12.84,0,0,0,316,417c-1.06-.12-1-.45,0-.87a3.26,3.26,0,0,1,.95-.26,5.09,5.09,0,0,1,1.28-.11,6.42,6.42,0,0,1,.74.05l.77.18a7.75,7.75,0,0,1,1.6.62,14.54,14.54,0,0,1,4.7,4.08,14.91,14.91,0,0,1,2.7,5.66,12,12,0,0,1,.26,1.59c0,.27,0,.55.06.81v.77c0,.52,0,1-.07,1.55s-.14,1-.23,1.54a15.13,15.13,0,0,1-2.5,5.72,18.77,18.77,0,0,1-12.64,7.18,23.23,23.23,0,0,1-8-.22,19.33,19.33,0,0,1-7.42-3.14,13.07,13.07,0,0,1-3.43-3.71,10.83,10.83,0,0,1-1.58-4.82,14.19,14.19,0,0,1,1.4-7.38,16.17,16.17,0,0,1,4.76-5.7,23.62,23.62,0,0,1,4.84-2.94,27.61,27.61,0,0,1,5.3-1.88,24.15,24.15,0,0,1,2.42-.51,13,13,0,0,1,3.29-.16,2.41,2.41,0,0,1,1.45.55,2.68,2.68,0,0,1,.42.37c.26.42-.94.72-3,1.05a36.06,36.06,0,0,0-9.11,2.84,20.53,20.53,0,0,0-4.05,2.48,17.3,17.3,0,0,0-1.75,1.55c-.27.28-.49.59-.75.88l-.37.44-.3.48a12.48,12.48,0,0,0-2.06,6.32,9.83,9.83,0,0,0,.38,3.25l.3.75.14.38.21.35.39.72.51.65Z"/><path class="cls-1" d="M297,213.52a43.87,43.87,0,0,1-7.43,12.38,31.68,31.68,0,0,1-11.81,8.46A36.51,36.51,0,0,1,267.55,237a37.28,37.28,0,0,1-18.22-2.62,50.17,50.17,0,0,1-15.21-10,84,84,0,0,1-10.56-12.09,98.51,98.51,0,0,1-5.59-8.58c-.85-1.49-1.59-3-2.32-4.57s-1.27-3.17-1.85-4.77c-.67-2-.24-1.88,1-.49.61.69,1.47,1.68,2.48,2.86a46.79,46.79,0,0,1,3,4.28,100,100,0,0,0,11.59,16.47,56.38,56.38,0,0,0,15.36,12.71,33.49,33.49,0,0,0,11.47,3.78,36.32,36.32,0,0,0,12.21-.54A29.67,29.67,0,0,0,283,228a33.52,33.52,0,0,0,8.67-10.24,56.88,56.88,0,0,0,5.77-15.83,126.11,126.11,0,0,0,2.64-25.71c.06-6.69-.34-13.24-.75-19.85-.1-1.46-.19-2.89-.29-4.36-.3-5.45-.09-7.22.68-8.41a4.32,4.32,0,0,1,.52-.79c.58-.53,1.18,1.67,1.53,5.64,1,11.8,1.77,24.4.94,37.11-.64,9.41-2.08,19-5.65,28Z"/><path class="cls-1" d="M300,429.69a2.09,2.09,0,0,0,1.51.9,2.11,2.11,0,0,0,1.66-1.08,1.11,1.11,0,0,0,0-1.14,2,2,0,0,0-1.81-1.2,1.26,1.26,0,0,0-1,.58,1.31,1.31,0,0,0-.15.37l0,.29c0,.2,0,.08.1-.34l.41-.4-.07,0a1.16,1.16,0,0,0-.4,1.54,1.14,1.14,0,0,0,1.54.41,1.45,1.45,0,0,0,.56-.64,1,1,0,0,0,.09-.34c.06-.42,0,0-.1.21l-.4.4-.3.12-.79-.33a3.78,3.78,0,0,1,.38.43v-1.14a.89.89,0,0,1-.13.14c.16-.09.76-.41.81-.05,0,.05,0,0-.09-.1l-.23-.26a1.14,1.14,0,0,0-1.59,0,1.16,1.16,0,0,0,0,1.59Z"/><path class="cls-1" d="M308.1,423a1.76,1.76,0,0,0,3.17-.18,1.09,1.09,0,0,0,0-1.13,2,2,0,0,0-1.81-1.21,1.28,1.28,0,0,0-1,.59,1.14,1.14,0,0,0-.15.36l0,.3c0,.19,0,.08.1-.34l.41-.41-.07.05a1.15,1.15,0,0,0-.4,1.54,1.14,1.14,0,0,0,1.54.4,1.45,1.45,0,0,0,.56-.64,1,1,0,0,0,.09-.34c.06-.41,0,0-.1.21l-.4.4-.3.12-.79-.33a4.88,4.88,0,0,1,.38.43v-1.13a.8.8,0,0,1-.13.13c.16-.09.76-.41.81-.05,0,.06,0,0-.09-.1s-.15-.17-.23-.26a1.14,1.14,0,0,0-1.59,0,1.16,1.16,0,0,0,0,1.59Z"/><path class="cls-1" d="M305.72,439.76a2.77,2.77,0,0,0,.91.57,1.14,1.14,0,0,0,1.27-.52,1.83,1.83,0,0,0,.17-2.12,1.87,1.87,0,0,0-2.09-.4,1.13,1.13,0,0,0,.6,2.17l.21-.06c.09,0,.09,0,0,0h.1c-.24,0-.39-.15-.46-.43-.24-.12-.34-.28-.31-.48a.2.2,0,0,1,.05-.15,3.13,3.13,0,0,1-.21.34l1.27-.51c.16,0,.2.13,0,0l-.4-.31a1.13,1.13,0,0,0-1.54.4,1.15,1.15,0,0,0,.41,1.54Z"/><path class="cls-1" d="M319.68,434.79a1.52,1.52,0,0,0,2.88,1,2.13,2.13,0,0,0,.32-1.7,1.84,1.84,0,0,0-1.86-1.23,1.13,1.13,0,0,0,0,2.25h.12c-.08,0-.09,0,0,0s0,0-.12-.05a1.42,1.42,0,0,1-.24-.25c.1.15-.08-.23,0-.1s0-.32,0-.11c0,0,0-.29,0-.13s.07-.2,0,.07.12-.11,0,0,.14-.09.25-.11a1,1,0,0,1,1,.56s0-.12,0-.13c0,.15,0,.18,0,.09a.92.92,0,0,1,0-.16,1.13,1.13,0,0,0-2.25,0Z"/><path class="cls-1" d="M319,426.11c.77.62,2,1.06,2.78.25a1.76,1.76,0,0,0-.35-2.62,1.18,1.18,0,0,0-1.37-.18,2.22,2.22,0,0,0-.81.77,1.13,1.13,0,0,0,.4,1.54,1.15,1.15,0,0,0,1.54-.41c-.16.13-.16.14,0,.05l-1.36-.18a1.82,1.82,0,0,1,.24.23c-.05,0-.07-.05-.05-.14-.11-.28,0-.54.31-.78.06,0,.36-.05.38-.07s-.12,0-.13-.05a1.16,1.16,0,0,0-1.59,0,1.14,1.14,0,0,0,0,1.59Z"/><path class="cls-1" d="M193.73,288.17a24.36,24.36,0,0,0,2.33.9c.4.13.8.28,1.2.39l1.22.31c.6.17,1.21.18,1.82.3a27.85,27.85,0,0,0,6.52.53,7.84,7.84,0,0,0,1.45-.15c.48-.08,1-.16,1.43-.27s1.19-.36,1.79-.51a9.11,9.11,0,0,1,1.82-.43c.39,0,.56.54.44,1.2a2.26,2.26,0,0,1-1.3,1.71,19.69,19.69,0,0,1-8.2,1c-1.65-.15-3.35-.14-5-.39-.91-.13-1.81-.36-2.71-.55s-1.78-.49-2.64-.81l-1.59-.59-1.55-.68c-.8-.32-1.53-.79-2.29-1.17l-2.2-1.29c-.55-.37-1.13-.68-1.71-1s-1.1-.72-1.64-1.1a3.27,3.27,0,0,1-.67-.56c-.75-.8-.84-1.2-.51-1.82a3.3,3.3,0,0,1,.23-.42c.3-.41.92-.43,1.61-.1,2.07.91,3.78,2.19,5.73,3.28.7.43,1.46.77,2.18,1.18s1.49.73,2.28,1Z"/><path class="cls-1" d="M277.43,328.16a5.78,5.78,0,0,1,.74,3.35,4.64,4.64,0,0,1-.59,1.76,7.87,7.87,0,0,1-.53.72c-.2.19-.39.41-.6.58a5.55,5.55,0,0,1-5.88,1,7,7,0,0,1-2.95-2.15,5.1,5.1,0,0,1-1.16-3.1,4,4,0,0,1,2-3.5c.35-.23.55.17.64.72a3.49,3.49,0,0,1-.13,1.63,2.15,2.15,0,0,0,0,2.06,5.3,5.3,0,0,0,1.81,1.85,3,3,0,0,0,1.64.44,3.49,3.49,0,0,0,1.55-.44,2.7,2.7,0,0,0,1.24-1.13,2.07,2.07,0,0,0,.13-1.55A4.71,4.71,0,0,0,274,328.3a4.82,4.82,0,0,0-3.44-1.51c-.91.12-1.23.84-1.37,1.67,0,.2,0,.39,0,.59-.07.78-.26,1.06-1,1.27l-.48.15c-.5.11-1-.27-1.2-1.1a5.52,5.52,0,0,1,0-2,4.29,4.29,0,0,1,3.74-3.34,6.19,6.19,0,0,1,2.39.24,8.78,8.78,0,0,1,4.82,3.87Z"/><path class="cls-1" d="M275.41,306.68a5.74,5.74,0,0,1,.74,3.35,4.76,4.76,0,0,1-.59,1.76c-.17.24-.34.49-.53.71a6.55,6.55,0,0,1-.6.58,5.49,5.49,0,0,1-5.88,1,7,7,0,0,1-2.95-2.15,5.14,5.14,0,0,1-1.16-3.1,4.08,4.08,0,0,1,2-3.5c.35-.22.56.17.64.72a3.49,3.49,0,0,1-.13,1.63,2.17,2.17,0,0,0,0,2.07,5.36,5.36,0,0,0,1.81,1.84,3,3,0,0,0,1.64.44,3.48,3.48,0,0,0,1.55-.43,2.71,2.71,0,0,0,1.24-1.14,2.07,2.07,0,0,0,.13-1.55,5.38,5.38,0,0,0-4.77-3.59c-.91.11-1.22.83-1.37,1.66,0,.2,0,.4-.05.6-.07.77-.26,1.05-1,1.26a4.42,4.42,0,0,1-.48.15c-.5.12-1-.27-1.2-1.1a5.52,5.52,0,0,1,0-2,4.33,4.33,0,0,1,1.23-2.18,4.22,4.22,0,0,1,2.51-1.15,6,6,0,0,1,2.39.24,8.8,8.8,0,0,1,4.83,3.87Z"/><path class="cls-1" d="M209.41,431.22c.19-1.44.31-2.86.37-4.29,0-.52-.05-1,0-1.56a32.69,32.69,0,0,0-.37-5.49,14.72,14.72,0,0,0-.65-2.36,22.14,22.14,0,0,1-1-3c-.13-.67,1.84-.61,2.39.57a19.44,19.44,0,0,1,1.62,6.6c0,1.36.34,2.75.35,4.14s-.06,3-.16,4.53l-.28,2.74c-.13,1.38-.33,2.76-.41,4.12,0,1.06,0,2.1,0,3.15a5.16,5.16,0,0,1,0,.68c-.11.85-.3,1.11-.83,1.28a2.35,2.35,0,0,1-.35.11c-.38.07-.71-.29-.9-.94a14.87,14.87,0,0,1-.27-5.94c.14-1.47.35-2.93.47-4.38Z"/><path class="cls-1" d="M320.79,453,266,452.58l-20,0q-17.64-.14-35.26-.2l-35.25-.12-31.26,0c-13.3.07-26.65.16-39.94-.32-8.29-.27,2.25-2.26,17.56-2.41,27.14-.11,54.27-.1,81.64.12,8.18.07,16.53.05,24.93,0l25.22-.24,55.24-.25,34-.07c17.17,0,34.41,0,51.44-.07,13.25-.08,26.23-.4,39.33-.54l8.62-.11c5.39,0,9,.14,11.45.37a12.37,12.37,0,0,1,5.11,1.37,9.62,9.62,0,0,1,1.43.82c.46.44-.44.77-2.37,1.05-1,.16-2.14.19-3.65.29s-3.26.16-5.23.2c-23.35.47-48,.67-72.81.69-18.4,0-36.88.06-55.33-.06Z"/><path class="cls-1" d="M328.69,83.47l1.63,1.64.81.83.76.87,1.51,1.76,1.38,1.87.69.94.61,1,1.23,2,1.06,2.08c.17.35.36.69.52,1l.43,1.08a33.27,33.27,0,0,1,2.37,9.06,30.76,30.76,0,0,1,.12,4.7c-.06.78,0,1.57-.16,2.34l-.39,2.31A32.38,32.38,0,0,1,336,129.45a40.31,40.31,0,0,1-18.87,13.84A49.58,49.58,0,0,1,294,145.92,67.27,67.27,0,0,1,283.89,144c-1.67-.41-3.29-1-4.92-1.5s-3.22-1.17-4.78-1.87a62,62,0,0,1-21.48-14.89c-1.83-2-1.12-2.15.88-.93s5.36,3.63,9.34,6.39a69.25,69.25,0,0,0,23.37,10.54,63.17,63.17,0,0,0,12.75,1.78,47.35,47.35,0,0,0,12.74-1.4,43.67,43.67,0,0,0,7.36-2.56,39.9,39.9,0,0,0,6.78-4A32.34,32.34,0,0,0,336,123.69a29.16,29.16,0,0,0,2.55-8.15,27.18,27.18,0,0,0,.07-8.54l-.38-2.11c-.13-.71-.39-1.38-.57-2.08a35.14,35.14,0,0,0-1.49-4c-.31-.65-.66-1.29-1-1.93l-.5-1-.58-.92L333,93.09l-1.31-1.74a48.94,48.94,0,0,0-7.49-7.74,58.9,58.9,0,0,0-9-6c-9.7-5.11-20.72-8.14-31.62-7.83a56,56,0,0,0-24,6.44l-2.4,1.3L254.82,79c-1.46.88-2.58,1.75-3.59,2.39s-1.76,1.24-2.45,1.66a18,18,0,0,1-3,1.58c-.34.12-.77.33-1,.38-.39.08-.12-.42.67-1.46.41-.51.91-1.19,1.59-1.93s1.54-1.53,2.53-2.4c12-10.1,29.59-14.61,46-11.62a71.18,71.18,0,0,1,17.63,5.55A58.85,58.85,0,0,1,328.73,83.4Z"/><circle class="cls-1" cx="130.06" cy="164.17" r="2.67"/><circle class="cls-1" cx="359.29" cy="130.36" r="2.67"/><circle class="cls-1" cx="101.34" cy="115.03" r="2.67"/><circle class="cls-1" cx="115.53" cy="266.43" r="2.29"/><circle class="cls-1" cx="442.39" cy="212.24" r="2.29"/><path class="cls-1" d="M253.23,181.53a10,10,0,0,1-2.28,3.66,5.72,5.72,0,0,1-2.17,1.25,5.47,5.47,0,0,1-1.25.22,7.77,7.77,0,0,1-1.19-.07,8.88,8.88,0,0,1-2.94-1,13.26,13.26,0,0,1-3.74-3.37,28.64,28.64,0,0,1-2.62-4c-.68-1.22-1.36-2.43-2-3.67a14.67,14.67,0,0,1-1.66-5.08c0-.57.48-.57,1.09-.26a3.92,3.92,0,0,1,1.71,1.77,55.54,55.54,0,0,0,4.82,8.78,12,12,0,0,0,2,2.2,9.86,9.86,0,0,0,2.41,1.47,3.59,3.59,0,0,0,2.56.28,3.76,3.76,0,0,0,1.9-1.87,14,14,0,0,0,1.29-3.88,34.07,34.07,0,0,0,.65-6.48c0-1.69-.22-3.36-.37-5,0-.37-.1-.73-.11-1.11a7.63,7.63,0,0,1,0-.89,2,2,0,0,1,.22-.61,1.51,1.51,0,0,1,.72-.67,3.9,3.9,0,0,1,.42-.2c.44-.13.89.42,1.3,1.43a31.62,31.62,0,0,1,.64,9.59,28.52,28.52,0,0,1-1.42,7.54Z"/><path class="cls-1" d="M273.32,178c1.15,1.41,3,2.45,4.49,2.12a3.26,3.26,0,0,0,1.46-.83,12.93,12.93,0,0,0,2.09-3.31,24,24,0,0,0,1.52-4,23.49,23.49,0,0,0,.69-3.8c.19-1.65.2-3.31.54-5,.1-.51.61-.43,1.12,0a3.23,3.23,0,0,1,1,2.32,25.9,25.9,0,0,1-2.08,10.5c-.45,1-.89,2-1.42,3a7.22,7.22,0,0,1-2.4,2.94,5.75,5.75,0,0,1-4.26.85,8.38,8.38,0,0,1-3.66-1.72,11.63,11.63,0,0,1-2.91-3.69,28.26,28.26,0,0,1-2.19-6.41c-.42-1.65-.9-3.25-1.33-4.85-.09-.35-.22-.68-.28-1a6.61,6.61,0,0,1-.12-.83,2.1,2.1,0,0,1,.1-.61,1.56,1.56,0,0,1,.57-.79,3.05,3.05,0,0,1,.36-.29c.38-.24,1,.2,1.57,1.12,1.31,2.85,1.75,5.94,2.56,8.73a15,15,0,0,0,2.62,5.46Z"/><path class="cls-1" d="M260.43,167.21c-.08-1-.18-1.92-.25-2.88s-.11-1.92-.1-2.89,0-1.93.05-2.9l.07-1.46.2-1.54a14.89,14.89,0,0,1,1.38-4.38,14.09,14.09,0,0,1,5.67-5.58,22,22,0,0,1,7.23-2.37,32.51,32.51,0,0,1,6.6-.38,23.29,23.29,0,0,1,4.22.52,8.76,8.76,0,0,1,4,1.91c.72.76.16.94-.69,1-.22,0-.47.06-.72.07s-.55.05-.85.08-.61,0-.94,0a7.42,7.42,0,0,1-1-.13,27.23,27.23,0,0,0-7.61-.31,25.48,25.48,0,0,0-7.46,1.59,10.6,10.6,0,0,0-6.1,6.27,15.49,15.49,0,0,0-.84,5.07c-.06.9,0,1.82,0,2.73s.08,1.83.13,2.75a59.19,59.19,0,0,0,.88,6.74,53.2,53.2,0,0,0,2.76,9.92,31.6,31.6,0,0,0,3.8,6.76c.34.44.7.85,1,1.29,1.31,1.55,1.64,2,1.45,3a4.15,4.15,0,0,1-.13.65c-.11.32-.42.43-.89.33a3.64,3.64,0,0,1-.83-.33c-.15-.08-.32-.17-.49-.28l-.47-.4a21.88,21.88,0,0,1-4.69-6.24,43.61,43.61,0,0,1-3-7.24,65.7,65.7,0,0,1-2.45-11.36Z"/><path class="cls-1" d="M229.68,155.22c4.8-4.83,17-8.58,23-4.33,1.71,1.21,3.33-1.61,1.64-2.81-7.22-5.12-21.15-1-26.92,4.85a1.62,1.62,0,0,0,2.3,2.29Z"/><path class="cls-1" d="M258.87,211.43a14.09,14.09,0,0,0,15.86-2.15c1.59-1.37-.72-3.66-2.3-2.3a10.67,10.67,0,0,1-11.92,1.64c-1.89-.87-3.54,1.93-1.64,2.81Z"/><path class="cls-1" d="M407.66,261.28a21.4,21.4,0,0,0,3.16,2.85,15.17,15.17,0,0,1,3.59,3.61,7.53,7.53,0,0,1,1.18,3.94,7.32,7.32,0,0,1-3.19,6.14,6.24,6.24,0,0,1-3.41.95,8,8,0,0,1-3.22-.85,15.31,15.31,0,0,1-4.42-3.33,12.28,12.28,0,0,1-3.34-6.08c-.14-.72.18-.67.68-.22a17.35,17.35,0,0,1,2,2.19,18.44,18.44,0,0,0,4.38,4.43,8.22,8.22,0,0,0,2.61,1.28,4.36,4.36,0,0,0,2.55.06,3.72,3.72,0,0,0,2.21-2.17,5.34,5.34,0,0,0,.3-3.32c-.44-2.37-3.24-4-5.58-6.21a11.76,11.76,0,0,1-2-2.36,5.1,5.1,0,0,1,1.84-7.35,6.76,6.76,0,0,1,4.65-.79,14.92,14.92,0,0,1,6.38,2.78c.4.31.81.6,1.2.95,1.38,1.31,1.55,2,1.4,2.6a2.16,2.16,0,0,1-.1.42c-.18.35-.92,0-1.92-.76a22.16,22.16,0,0,0-4.74-3,7,7,0,0,0-4.82-.56,4.4,4.4,0,0,0-1.34.81,2.68,2.68,0,0,0-.75,1.21,2.77,2.77,0,0,0,.82,2.69Z"/><path class="cls-2" d="M401.84,279.37s0,0,0-.06a.61.61,0,0,1,.08-.3l15-28.34a.69.69,0,0,1,.19-.23.12.12,0,0,0,0-.05c.1-.18-.26-.57-.79-.85s-1.06-.36-1.15-.17a.14.14,0,0,0,0,.06,1,1,0,0,1-.08.3l-.61,1.15-14.36,27.19a.74.74,0,0,1-.2.23.1.1,0,0,0,0,.05c-.1.19.25.57.79.85S401.74,279.56,401.84,279.37Z"/><path class="cls-2" d="M405.27,281.43a.14.14,0,0,0,0-.06.74.74,0,0,1,.08-.3l15-28.34a.63.63,0,0,1,.2-.23.1.1,0,0,0,0-.05c.1-.19-.25-.57-.79-.85s-1.05-.36-1.15-.17a.11.11,0,0,0,0,.06.61.61,0,0,1-.08.3l-.61,1.15-14.36,27.19a.63.63,0,0,1-.2.23l0,.05c-.1.18.26.57.79.85S405.17,281.62,405.27,281.43Z"/><path class="cls-2" d="M422.42,130.41a.16.16,0,0,0,0,.09,1.17,1.17,0,0,1-.17.43l-5,7.63-16.6-6.94-12.12,16a1,1,0,0,1-.33.29.11.11,0,0,0-.07.06c-.19.25.22.88.92,1.41s1.42.75,1.61.5c0,0,0-.05,0-.08a1.22,1.22,0,0,1,.2-.43l1.16-1.54,9.57-12.68,16.75,7,6.34-9.69a1.14,1.14,0,0,1,.31-.31s.05,0,.07-.06c.17-.26-.28-.87-1-1.35S422.59,130.15,422.42,130.41Z"/><path class="cls-2" d="M429.85,134.42l0,0c-.08,0-.12-.1-.12-.16l-1.17-10.29-11.27,3.73a.29.29,0,0,1-.19,0s0,0,0,0,0,.74.29,1.57.59,1.48.71,1.44,0,0,0,0a.29.29,0,0,1,.14-.15l.72-.24,7.11-2.35.76,6.71a.21.21,0,0,1-.08.17.08.08,0,0,0,0,0c0,.13.73.14,1.6.05S429.86,134.55,429.85,134.42Z"/><path class="cls-1" d="M342.6,257c.43-.82.9-1.61,1.35-2.37a16.88,16.88,0,0,0,1.17-2.14.77.77,0,0,0,.06-.17.25.25,0,0,0,0-.12s0-.05-.09-.12l-.21-.32a10,10,0,0,0-5.35-3.06,15.15,15.15,0,0,0-2.92-.44c-1.26-.11-2.52-.07-3.78-.12-.38,0-.39-.28-.09-.62a2.72,2.72,0,0,1,1.72-.85,15.87,15.87,0,0,1,4.13.07,14.32,14.32,0,0,1,4,1.16,9.13,9.13,0,0,1,4.37,3.33,4.55,4.55,0,0,1,.21.51,2,2,0,0,1,0,.55,2.23,2.23,0,0,1-.08.56c0,.16-.09.27-.13.41a10.82,10.82,0,0,1-.65,1.32L345,256.89a28.74,28.74,0,0,0-1.45,2.88,15.58,15.58,0,0,0-1.25,4.65,11.91,11.91,0,0,0,.32,3.63l.2.76c.23,1,.22,1.29-.23,1.66-.1.08-.2.18-.3.25-.35.22-.81-.1-1.14-.85a12.84,12.84,0,0,1-.55-7.54,21.57,21.57,0,0,1,1.95-5.36Z"/><path class="cls-2" d="M66.11,266.75l.07,0a.91.91,0,0,1,.37-.15l11.52-1.65.73-18.14,10.25-2.18a.78.78,0,0,1,.37,0h.08c.26-.05.34-.74.17-1.53s-.52-1.38-.78-1.33l-.07,0a.75.75,0,0,1-.36.17l-1.59.34-10.69,2.28-.73,18-9.31,1.33a.79.79,0,0,1-.37,0,.11.11,0,0,0-.08,0c-.26,0-.38.72-.27,1.52S65.84,266.79,66.11,266.75Z"/><path class="cls-2" d="M67.91,269.45h0a.27.27,0,0,1-.2,0l-5.75-3.52,5.66-6a.22.22,0,0,1,.19-.05h0c.08-.09-.36-.65-1-1.25s-1.22-1-1.31-.93,0,0,0,0a.25.25,0,0,1,0,.2l-.52.55-7.62,8.07L66.14,272a.24.24,0,0,1,.1.17s0,0,0,0,.56-.48,1-1.23S68,269.52,67.91,269.45Z"/><path class="cls-1" d="M302.9,308.08a35.25,35.25,0,0,1-5.22-2.48c-.6-.34-1.23-.65-1.81-1-2.07-1.29-4-2.72-6-4.16l-2.57-1.92a24.68,24.68,0,0,1-3.16-2.6c-.3-.31-.08-.49.38-.5a3.35,3.35,0,0,1,1.81.6l3.4,2.34,3.32,2.46a36.83,36.83,0,0,0,4.32,2.63,40.63,40.63,0,0,0,5,2.41,20.18,20.18,0,0,0,3.2,1,8.17,8.17,0,0,0,4.83-.15,4.5,4.5,0,0,0,1.43-1,1.6,1.6,0,0,0,.4-1.31,6.77,6.77,0,0,0-.09-.74c-.2-.95-.12-1.35.13-1.69a1.41,1.41,0,0,1,.18-.23c.19-.19.62.11,1.08.89a5.57,5.57,0,0,1,.56,2.08,3.36,3.36,0,0,1-.23,1.31,3.08,3.08,0,0,1-.8,1.14,5.75,5.75,0,0,1-1.9,1.32A7.44,7.44,0,0,1,309,309a14.5,14.5,0,0,1-6.08-.87Z"/><path class="cls-1" d="M336.59,189.13c.19-.77.4-1.53.64-2.29.08-.27.13-.56.22-.83.35-.95.76-1.88,1.18-2.79.18-.41.34-.83.48-1.25a3.77,3.77,0,0,1,.74-1.55c.26-.26,1.6.93,1.35,1.47a24.64,24.64,0,0,1-1.48,3,8.93,8.93,0,0,0-.68,1.92c-.22.72-.44,1.44-.63,2.18-.11.45-.22.9-.3,1.36a14.75,14.75,0,0,0-.27,2.09c0,.55.07,1.08.12,1.61,0,.12,0,.24.05.35,0,.43-.09.58-.49.7l-.26.08a.61.61,0,0,1-.7-.45,6.85,6.85,0,0,1-.38-3.18,24,24,0,0,1,.36-2.38Z"/><path class="cls-1" d="M209.38,178.12a15.1,15.1,0,0,0,.08-1.9c0-.23-.05-.46-.07-.69a12.53,12.53,0,0,0-.31-2.43,5.21,5.21,0,0,0-.38-1,5.37,5.37,0,0,1-.57-1.27c-.06-.3,1.17-.57,1.48,0a7.42,7.42,0,0,1,.89,3c.06.62.23,1.24.3,1.87a17.77,17.77,0,0,1,0,2.06c0,.42,0,.84-.07,1.26-.07.63-.14,1.26-.2,1.89-.05.48,0,1,0,1.46,0,.11,0,.21,0,.32-.05.4-.18.5-.59.5h-.28a.59.59,0,0,1-.57-.53,11.55,11.55,0,0,1,.07-2.56c.06-.63.13-1.26.16-1.9Z"/></g></svg>