<svg id="Layer_1" data-name="Layer 1" xmlns="http://www.w3.org/2000/svg" width="520" height="520" viewBox="0 0 520 520"><defs><style>.cls-1{fill:#221f1f;}.cls-2{fill:none;stroke:#221f1f;stroke-linecap:round;stroke-linejoin:round;stroke-width:2px;}</style></defs><title>Notioly v2</title><g id="_55.Deal" data-name="55.Deal"><path class="cls-1" d="M142.3,236c0,10.16-13.21,76.19-17.43,76.14-32.28-.39-32.18-13.31-32.18-13.31,11.58-18.72,24.87-51.11,29.75-75.54C125.06,228.68,133.77,236,142.3,236Z"/><path class="cls-1" d="M103.28,282c-2.51,5.1-5.16,10.13-8.09,15l-1.11,1.83-.13.22s0,0,0,.09,0,0,0,.07l0,.2a3.25,3.25,0,0,0,.11.42A8.76,8.76,0,0,0,96,303.07a17.41,17.41,0,0,0,6.58,4.38,48.68,48.68,0,0,0,11.67,2.91l5.21.53,5.1.23a.31.31,0,0,0,.27-.12s.1-.12.18-.26a3.48,3.48,0,0,0,.23-.38,18.91,18.91,0,0,0,.83-1.75c.51-1.24,1-2.52,1.38-3.81.85-2.59,1.61-5.22,2.33-7.86,1.44-5.29,2.73-10.62,4-16,1.43-6.28,2.7-12.63,3.87-18.91q1.11-6.06,2.08-12.15c.65-4.05,1.32-8.12,1.79-12.14.13-1.25.27-1.77.49-1.74s.49.66.67,1.78a38.2,38.2,0,0,1-.39,11c-1.34,8.32-2.94,16.58-4.7,24.82s-3.71,16.46-6,24.64c-.72,2.48-1.45,5-2.28,7.5-.42,1.25-.86,2.51-1.38,3.76a17.88,17.88,0,0,1-.89,1.89c-.09.16-.2.33-.3.49a2.79,2.79,0,0,1-.17.25c-.08.09-.17.22-.26.31a2.18,2.18,0,0,1-.64.5.86.86,0,0,1-.38.13,1.08,1.08,0,0,1-.4.06l-4-.15c-.65,0-1.3,0-1.94-.08l-1.94-.19a66.52,66.52,0,0,1-7.69-1.1l-2.12-.5-1.06-.26c-.35-.1-.69-.22-1-.34l-2.08-.68c-.68-.27-1.35-.58-2-.87a18.84,18.84,0,0,1-7.13-5.33,10.48,10.48,0,0,1-1.19-2,6.06,6.06,0,0,1-.44-1.09A3.83,3.83,0,0,1,92,300a4,4,0,0,1-.12-.68l0-.42v-.21a.82.82,0,0,1,.09-.19c.11-.22.32-.55.38-.65l.55-.91,1.1-1.82c1.42-2.45,2.81-4.92,4.13-7.43,3.25-6.18,6.23-12.51,9-18.94a269.65,269.65,0,0,0,10.81-29.81c.41-1.33.76-2.67,1.11-4s.72-2.66,1-4,.65-2.66.91-4l.6-2.89.32-1.56.16-.79.09-.39c0-.12.07-.13.1-.19l.78,1.4.86,1.47a12.28,12.28,0,0,0,.89,1.33l.39.5a3.47,3.47,0,0,0,.31.36,25.59,25.59,0,0,0,2.65,2.66,30.26,30.26,0,0,0,4.17,3,29.28,29.28,0,0,0,6.17,2.78l1,.32.77.24c.47.18.84.33,1.18.48a8.3,8.3,0,0,1,.93.44c.32.23-.2.41-1.47.5a15.62,15.62,0,0,1-5.68-1.09,27.25,27.25,0,0,1-7.67-4.45,26.2,26.2,0,0,1-3.3-3.12c-.25-.29-.52-.56-.75-.88l-.09-.1,0,0,0,0c0-.06-.08-.1-.1-.14a1.26,1.26,0,0,0,0,.28l-.29,1.37-.4,1.69c-.27,1.12-.55,2.25-.82,3.38s-.61,2.24-.91,3.37c-1.25,4.49-2.65,9-4.18,13.42-1.85,5.41-3.89,10.77-6.08,16.07s-4.51,10.54-7,15.7Z"/><path class="cls-1" d="M150.5,99.67c2.55,1.65,5.57,5,8.95,3.69,2.93-1.16.89-4.77.27-6.84-.19-.63-2.36,0-2.18.58.28.9,2.11,4.66,1.12,5.44s-5.18-3.05-6.12-3.67c-.57-.37-2.48.51-2,.8Z"/><path class="cls-1" d="M359.65,98.94c-1.2.69-4,3.61-5.53,2.41-1.17-1-.26-3.36.12-4.47s-1.75-1.28-2.09-.3c-.66,1.89-1.57,4.9.54,6.23,2.87,1.81,5.66-1.17,7.95-2.49,1.27-.73.11-2-1-1.38Z"/><path class="cls-1" d="M347.75,97.77c-.6.8-2.13,3-3.29,2-1-.88-.9-3.1-.54-4.21s-1.78-1.18-2.08-.26c-.59,1.83-.6,5.08,1.44,6.08,2.44,1.19,5-1.15,6.29-2.92.82-1.11-1.23-1.45-1.82-.64Z"/><path class="cls-1" d="M165.71,95.65c1.4,2.44,3.1,5.63,6.46,4.32,2.64-1,2.08-4.06,1.59-6.27-.18-.81-2.36-.26-2.18.58s1.1,4.11-.13,4.64c-1.44.63-3.22-3.25-3.73-4.14-.38-.66-2.49,0-2,.87Z"/><path class="cls-1" d="M120.7,96.58a9.37,9.37,0,0,0,.34,3.75,7.66,7.66,0,0,0,.55,1.24,6.82,6.82,0,0,0,3.43,3.3,7,7,0,0,0,2.18.53c1,.09,1.93-.05,2.93.1.3,0,.33.6.1,1.16a1.7,1.7,0,0,1-1.42,1.12,9.6,9.6,0,0,1-6.64-2.32,10.74,10.74,0,0,1-2.7-3.44,11.29,11.29,0,0,1-.92-4.55,10.89,10.89,0,0,1,.37-2.83,8,8,0,0,1,.87-2A7.31,7.31,0,0,1,121.25,91a8.26,8.26,0,0,1,3-1.68,4.91,4.91,0,0,1,.78-.17c1-.06,1.39.24,1.41.83a1.87,1.87,0,0,1,0,.41,1,1,0,0,1-.91.77,6.6,6.6,0,0,0-3.66,2.22,6.36,6.36,0,0,0-1.1,3.24Z"/><path class="cls-1" d="M123.1,90.29c.52,0,5.19-.28,9.25,4.7,0,0,.92-5.95-1.41-10.64,5.72.11,59.48,4.79,59.41-31,0,0,.47-15.63-7.94-13.13-4.2,1.25-10.91,7.2-10.91,7.2s1.44-8.8-2.85-8.68c-4.57.13-13.29,10.74-16.43,9.86-5.68-1.61-35-6-42.52,8.8-4.23,8.37-8.64,20.25,9.87,37.67A5.94,5.94,0,0,1,123.1,90.29Z"/><path class="cls-1" d="M154.62,46.44c1.71-1.1,3.38-2.51,5.09-3.87a43.08,43.08,0,0,1,5.51-3.92A7.14,7.14,0,0,1,169,37.56a3.47,3.47,0,0,1,2.24,1,4.73,4.73,0,0,1,1.15,1.86,11.13,11.13,0,0,1,.55,3.61v.44l0,.32s0,0,0,0l.06-.05.11-.09.24-.19,1-.75,1.29-.94a28.76,28.76,0,0,1,5.63-3.26,7.28,7.28,0,0,1,4.1-.48,5.46,5.46,0,0,1,2,.92,7,7,0,0,1,1.46,1.52,16.06,16.06,0,0,1,2.36,7.14,31.89,31.89,0,0,1,.18,6.4l-.09,1.6c0,.53-.15,1.06-.23,1.59l-.25,1.59c-.12.52-.27,1-.4,1.56a25.09,25.09,0,0,1-6.27,11.14,34.47,34.47,0,0,1-10.49,7.15,58.15,58.15,0,0,1-12,3.75,110.32,110.32,0,0,1-22.08,2c-1.45,0-2.9,0-4.35-.06l-2.09-.07a6,6,0,0,0-.86,0c.08.18.17.36.24.54s.06.16.1.29l.21.71a21.74,21.74,0,0,1,.52,2.88c0,.48.09,1,.1,1.45s0,1.3,0,2-.11,1.42-.19,2.08l-.14,1c0,.15,0,.36-.07.48l-.14.21-1.2-1.36-.63-.7a6.19,6.19,0,0,0-.61-.63l-.59-.53-.3-.27-.2-.15c-.26-.19-.51-.39-.79-.56A10.65,10.65,0,0,0,125,91.21c-1.16-.24-1.74-.3-1.88-.48s.27-.42,1.12-.58a8.27,8.27,0,0,1,3.85.36,11.89,11.89,0,0,1,2.54,1.21c.49.28.47.19.5.16a.58.58,0,0,0,0-.19l0,0h0v-.28a18.73,18.73,0,0,0-.39-3.28c-.06-.26-.11-.53-.19-.79l-.11-.39-.07-.25a3.34,3.34,0,0,0-.17-.44c-.47-1.16-1-2.29-1.48-3.41l5.43.2,3.11.1q3.12.08,6.23,0a109,109,0,0,0,12.39-.93c8.16-1.11,16.39-3.24,23.13-7.91a25.65,25.65,0,0,0,6-5.85,21.8,21.8,0,0,0,3.54-7.66,29.74,29.74,0,0,0,.78-4.21l.1-2.17.05-1.09c0-.35,0-.71,0-1.07a22.91,22.91,0,0,0-1.53-8.29,4.48,4.48,0,0,0-3-2.92,4.71,4.71,0,0,0-2.15.17,13.8,13.8,0,0,0-2.26,1c-3.15,1.8-5,3.17-10.13,7.52.2-1.36.45-2.82.55-4,0-.3,0-.61,0-.9s0-.64,0-.76c0-.35,0-.7,0-1-.11-1.34-.53-2.78-1.36-3.16s-2.21.11-3.4.79A31.64,31.64,0,0,0,162.5,43c-1.57,1.22-3.1,2.5-4.71,3.73a26,26,0,0,1-2.54,1.76,9,9,0,0,1-1.5.71,3.58,3.58,0,0,1-.91.19,2,2,0,0,1-.54,0l-.28,0-.18,0a66,66,0,0,0-11.7-1.7,69,69,0,0,0-9,0A43.73,43.73,0,0,0,122.33,49a26.49,26.49,0,0,0-4.16,1.51,18.2,18.2,0,0,0-3.75,2.25,17.32,17.32,0,0,0-1.64,1.43,16.75,16.75,0,0,0-1.38,1.67,15,15,0,0,0-1.13,1.83c-.32.68-.67,1.34-1,2a28.66,28.66,0,0,0-2.17,6.45,22.31,22.31,0,0,0-.27,6.67A28.35,28.35,0,0,0,112,85.12a54.6,54.6,0,0,0,3.75,4.63c.72.8,1.35,1.55,2,2.16l.82.83.26.28.18.2.09.11s0,0,0,0v0a1.74,1.74,0,0,1,.15-.4,1.64,1.64,0,0,1,.14-.22,1.76,1.76,0,0,0,.13-.22l.18-.26a5,5,0,0,1,.74-.82,3.59,3.59,0,0,1,1.4-.79,3.33,3.33,0,0,1,1.15-.18c.32,0,.08.29-.48.78a5.89,5.89,0,0,0-.94,1,4.48,4.48,0,0,0-.47.78l-.11.23-.14.32a6.59,6.59,0,0,0-.29,1.07,3.79,3.79,0,0,0-.88.8l0,.07s-.09,0-.14,0h-.3l-.62,0-.69-.67-1.46-1.41c-.37-.37-.78-.71-1.13-1.11-.71-.78-1.43-1.56-2.14-2.35s-1.35-1.67-2-2.5a27.5,27.5,0,0,1-1.86-2.66,27.68,27.68,0,0,1-4.62-12.47,26.1,26.1,0,0,1,2.59-13.28c.23-.52.47-1,.71-1.52s.49-1,.8-1.53l.45-.78.52-.73a11.7,11.7,0,0,1,1.14-1.39A19.4,19.4,0,0,1,116.54,49a32.75,32.75,0,0,1,4.77-1.87,44.51,44.51,0,0,1,4.94-1.1,60.69,60.69,0,0,1,10-.68,82.13,82.13,0,0,1,9.91.73c1.64.23,3.27.5,4.92.85.41.1.82.18,1.25.3l.16,0,.07,0h.06c0,.06,0-.12,0,.13v0c.06-.17,0-.1,0-.11a1.58,1.58,0,0,0,.23,0,6.53,6.53,0,0,0,1.74-.85Z"/><path class="cls-1" d="M351.54,50.94c4.74,3.53,26.33-13.71,43.85,3.86,6.64,6.65,8.95,21.28-7.79,40.42,0,0,0-4.6-3-5.64-.52,0-5.2.22-8.75,5.57,0,0-1.49-5.83.37-10.73-5.56.65-58.3,14.21-61.85-22.9C312,36.87,342.55,44.23,351.54,50.94Z"/><path class="cls-1" d="M346.59,85.59a90.85,90.85,0,0,0,14.74-.42q3.69-.37,7.37-1l3.68-.62,2.74-.47,1.61-.24.81-.12a4.69,4.69,0,0,1,.75-.08l-.57,1.69c-.18.57-.4,1.18-.55,1.71l-.31,1.43-.11.85c-.05.57-.09,1.15-.09,1.73v.76l0,.31a3.73,3.73,0,0,0,0,.47c0,.11,0,.44.15.19a4.31,4.31,0,0,1,.39-.46l.11-.1.18-.16a1.86,1.86,0,0,1,.27-.22,12.49,12.49,0,0,1,1.11-.8,12.37,12.37,0,0,1,3.81-1.63c.23,0,.46-.1.69-.13l.35,0,.5-.06.51,0a11,11,0,0,1,1.19.58,4.46,4.46,0,0,1,.83.66A5.78,5.78,0,0,1,388,91a2.39,2.39,0,0,1,.27.66,3,3,0,0,1,.06.43c0,.06,0,.14,0,.18l.16-.19.34-.39.71-.82L391,88.83c.51-.69,1-1.36,1.47-2.09l1.39-2.15c.44-.73.82-1.48,1.24-2.23l.61-1.11.53-1.16c.32-.78.74-1.53,1-2.33a28,28,0,0,0,2.05-9.8,18.66,18.66,0,0,0-2.35-9.5,16.09,16.09,0,0,0-3.22-3.89,27.14,27.14,0,0,0-4.1-3.16A25.29,25.29,0,0,0,385,49.18a25.68,25.68,0,0,0-5-1.18,35.37,35.37,0,0,0-13.15,1.14c-2.17.53-4.33,1.18-6.52,1.83-1.09.32-2.2.63-3.33.91a15.36,15.36,0,0,1-3.62.5,3.27,3.27,0,0,1-1.83-.51c-.36-.29-.44-.48-.33-.57a1.31,1.31,0,0,1,.73-.1l.62-.07.76-.19c2.19-.64,6-2.81,11.19-4.23A41.16,41.16,0,0,1,379,45.05a26.77,26.77,0,0,1,13.79,5.19c.52.34,1,.77,1.45,1.15a16,16,0,0,1,1.38,1.22,20.87,20.87,0,0,1,2.55,2.8,18.33,18.33,0,0,1,3.17,6.91,13.24,13.24,0,0,1,.35,1.86,11.75,11.75,0,0,1,.2,1.87c0,.62.06,1.24.06,1.87l-.12,1.85a12.5,12.5,0,0,1-.23,1.84c-.11.61-.19,1.22-.32,1.82l-.47,1.77a13.64,13.64,0,0,1-.55,1.75c-.34.89-.62,1.82-1,2.7L398,82.28c-.93,1.69-1.81,3.41-2.89,5s-2.19,3.18-3.32,4.75c-.21.31-.77,1-1.23,1.53l-1.41,1.72L387.74,97l-.71.86c-.19.21-.29.21-.58.48-.05-1.26-.11-2.61-.2-3.72a8.15,8.15,0,0,0-.25-1.47c-.06-.21-.13-.37-.2-.56l-.1-.26-.07-.13a3.16,3.16,0,0,0-.65-.92,1.9,1.9,0,0,0-.39-.31.89.89,0,0,0-.24-.12l-.3,0c-.2,0-.39.06-.59.11a7.84,7.84,0,0,0-1.17.34,10.18,10.18,0,0,0-2.18,1.11c-.28.2-.56.4-.83.62l-.21.19a3.38,3.38,0,0,0-.35.31,6.32,6.32,0,0,0-.68.76c-.87,1-1.87,2.41-2.65,3.48l-.15-.23-.08-.12,0-.06,0-.13-.24-1c-.15-.67-.3-1.34-.43-2s-.21-1.48-.28-2.23l-.06-1.07v-.76a21.62,21.62,0,0,1,.23-3,5.93,5.93,0,0,1,.31-1.24.21.21,0,0,0,0-.06h-.19l-.25,0-.52.09-2.52.44c-1.81.3-3.62.59-5.44.83-3.64.5-7.31.86-11,1-7.8.28-15.81-.23-23.3-3A31,31,0,0,1,323.5,81a23.41,23.41,0,0,1-6-6.77,16.81,16.81,0,0,1-1.07-2,15.36,15.36,0,0,1-.9-2.08c-.24-.71-.52-1.42-.74-2.13l-.53-2.19a16.8,16.8,0,0,1-.4-2.21c-.09-.75-.23-1.48-.29-2.23s-.11-1.49-.12-2.25,0-1.51.1-2.26a15.21,15.21,0,0,1,2.08-6.77,13,13,0,0,1,5.31-4.76,19.77,19.77,0,0,1,6.78-1.8,33.34,33.34,0,0,1,6.92.11,44.79,44.79,0,0,1,5.95,1.1A31.23,31.23,0,0,1,348,47.63,7.72,7.72,0,0,1,350.8,50a5.35,5.35,0,0,1,.59,1c.19.88-2.25-.7-7.2-2.43a45.15,45.15,0,0,0-11.48-2.41c-3.88-.25-7.93.1-11.14,1.85a9.86,9.86,0,0,0-3.83,3.61,12.41,12.41,0,0,0-1.6,5.24,22.34,22.34,0,0,0,.2,5.87,20.46,20.46,0,0,0,.54,3l.36,1.45c.11.49.32.94.47,1.41A21.84,21.84,0,0,0,322.05,76a24.18,24.18,0,0,0,7,5.29,43.88,43.88,0,0,0,17.57,4.2Z"/><path class="cls-1" d="M179,123a20.73,20.73,0,0,1-2.69,8.3,12.16,12.16,0,0,1-7.05,5.39l-1.57.41-1.56.25a20.85,20.85,0,0,1-3.16.17,20.21,20.21,0,0,1-10.5-3.35,34.2,34.2,0,0,1-7.88-7.43c-2-2.48-3.82-5.09-5.56-7.69-2.24-3.34-4.43-6.7-6.46-10.11-1.3-2.13,2.25-.72,4.74,3.21,2.21,3.46,4.32,6.91,6.64,10.2a44.54,44.54,0,0,0,7.9,8.9,18.09,18.09,0,0,0,6.23,3.39,18.35,18.35,0,0,0,7.11.7c.66,0,1.32-.17,2-.25s1.25-.3,1.87-.48a10.21,10.21,0,0,0,3.3-1.85,10.66,10.66,0,0,0,2.44-2.93,17.24,17.24,0,0,0,1.46-3.67,34.89,34.89,0,0,0,1-9.92,117.32,117.32,0,0,0-1.55-15.3c-.6-3.94-1.39-7.77-1.86-11.73-.1-.88-.21-1.74-.25-2.63a12,12,0,0,1,.24-3.59,4.44,4.44,0,0,1,.38-.93,2,2,0,0,1,.52-.53,2.32,2.32,0,0,1,.51-.32c.53-.06.31,1.1.35,3.33A85.45,85.45,0,0,0,176.83,95c.59,3.6,1.2,7.28,1.68,11a70.33,70.33,0,0,1,.54,16.94Z"/><path class="cls-1" d="M169.37,135.61c-.74,6.08-6.89,8.48-12.33,6.67-5.24-1.75-8.84-7-9.43-12.4C147.61,129.88,156.3,141,169.37,135.61Z"/><path class="cls-1" d="M150.39,134.26l0-.07-.12-.14-.06-.09s0,0,0,0a.47.47,0,0,0,0,.19,1.47,1.47,0,0,0,.06.32c0,.06,0,.13.07.2a8,8,0,0,0,.42.82,13.27,13.27,0,0,0,1.71,2.36,12.48,12.48,0,0,0,4,3.16,10.47,10.47,0,0,0,5,1,7.73,7.73,0,0,0,4.22-1.44,6.6,6.6,0,0,0,1.86-2.08,10.49,10.49,0,0,0,1.08-2.6c.18-.57.72-.47,1.15.18a3.3,3.3,0,0,1,0,3.27,9.22,9.22,0,0,1-5.87,4.45,11.51,11.51,0,0,1-7.09-.49,15.63,15.63,0,0,1-6.73-5.06,15.36,15.36,0,0,1-1.25-1.95c-.2-.36-.3-.59-.59-1.2s-.41-1.06-.61-1.59-.27-1-.4-1.48l-.25-1.35-.2-1.37-.09-.72,0-.35v-.09h0s0,0,0,0a.17.17,0,0,0,.18-.1.62.62,0,0,0,.16-.33c1.16,1.39,2.11,2.5,3,3.42l1.2,1.06a6.75,6.75,0,0,0,.61.48l.41.3a17.25,17.25,0,0,0,7.12,3.13,14.4,14.4,0,0,0,5.89-.26c.42-.11.83-.24,1.25-.33,1.54-.49,2-.57,2.61-.14a2.75,2.75,0,0,1,.37.28c.33.35-.2.92-1.41,1.47l-.67.3-.71.22-1.45.41a14.84,14.84,0,0,1-1.51.23,8.92,8.92,0,0,1-1.55.12,17.51,17.51,0,0,1-6.19-1,20.79,20.79,0,0,1-4.19-2.1c-.33-.19-.63-.44-.95-.66l-.22-.16h0v0l-.09-.11Z"/><path class="cls-1" d="M348.59,136.79c1.72,5.87,8.18,7.24,13.25,4.56a14.19,14.19,0,0,0,7.85-13S362.37,140,348.59,136.79Z"/><path class="cls-1" d="M369.38,126.34l1.47-2.16,0,1.23,0,.3V128c0,.47,0,.93,0,1.4l0,.69c0,.24-.07.5-.1.75l-.12.76c0,.26-.14.54-.2.81a13.08,13.08,0,0,1-.51,1.61,9.53,9.53,0,0,1-.44,1,14.37,14.37,0,0,1-1.77,2.88,16.47,16.47,0,0,1-4.48,3.8,12.81,12.81,0,0,1-5.61,1.75,10.78,10.78,0,0,1-5.19-.87,7.51,7.51,0,0,1-4.4-5.05c-.18-.7.4-.72,1.09-.39a6.25,6.25,0,0,1,2.07,1.65,7,7,0,0,0,4.5,2.45,10.43,10.43,0,0,0,5.55-.77,13,13,0,0,0,5.46-4.76,13.32,13.32,0,0,0,1.48-2.9,5.93,5.93,0,0,0,.21-.92,4.36,4.36,0,0,0,.05-.52l0-.27V131l0,0-.07.09-.26.32c-.2.22-.42.45-.66.68l-.39.36-.75.64a22,22,0,0,1-7.27,4,25.73,25.73,0,0,1-3.1.82c-.53.11-1.06.14-1.59.21l-.8.1c-.27,0-.54,0-.81,0-.47,0-.94,0-1.42,0-1.75-.18-2.28-.47-2.53-1.08a2.35,2.35,0,0,1-.15-.42c-.06-.45.69-.7,1.87-.62a25.85,25.85,0,0,0,2.64,0,9.69,9.69,0,0,0,1.31-.13,11.63,11.63,0,0,0,1.32-.18,20.6,20.6,0,0,0,5.07-1.65,21,21,0,0,0,3.42-2.13,9.62,9.62,0,0,0,.8-.63l.38-.33.1-.09a2.3,2.3,0,0,0,.22-.2c.13-.12.26-.27.39-.4l1.53-1.64,1.74-2.49Z"/><path class="cls-1" d="M225.47,238.74c-1.7,3.47-2.11,16.87-2.11,16.87-8.82-3.59-92.31-13.85-100.92-32.3-8.93-19.14-3.67-85.3,23.37-79.24,0,0-2.75,13.86-2,20.1,0,0,1.64-2.14,3.86-4.74-.11.7-7.11,48.46-1.24,55.29C153.86,223.32,217.81,236.59,225.47,238.74Z"/><path class="cls-1" d="M142.4,160c.13-2.83.44-5.47.81-8.17.19-1.35.39-2.68.62-4l.35-2,.11-.6,0-.13-.17,0-.42,0c-.2,0-.4-.06-.6-.06a12.9,12.9,0,0,0-2.41.09,12.54,12.54,0,0,0-4.54,1.54,20.89,20.89,0,0,0-6.93,7.11c-3.64,5.81-5.75,12.6-7.24,19.4a119.36,119.36,0,0,0-2.41,21,102,102,0,0,0,1,18.58,44.26,44.26,0,0,0,2.22,8.9,13.15,13.15,0,0,0,.91,2c.18.31.38.61.58.9s.44.58.69.85a19.94,19.94,0,0,0,3.35,3,48.49,48.49,0,0,0,8,4.54q4.23,2,8.65,3.5c5.87,2.11,11.88,3.87,17.93,5.46,10.74,2.82,21.7,5.08,32.54,7.17l14.07,2.64c2.35.44,4.69.89,7,1.37,1.17.24,2.35.49,3.52.77.58.13,1.19.29,1.75.44a5.75,5.75,0,0,1,.67.21,6.34,6.34,0,0,0,.05-.67l.1-1.64c.07-1.17.16-2.34.26-3.51a70.18,70.18,0,0,1,1-7c.11-.5.23-.94.33-1.31s.24-.68.34-.93c.25-.5.45-.75.55-.77s.08.74,0,2.12-.15,3.45-.2,6c0,1.28,0,2.68-.06,4.19,0,2.1-.08,4.35-.13,6.7l-2.19-.77-1.12-.34-.63-.16-2.3-.53c-7-1.51-14.19-2.78-21.3-4.18s-14.24-2.84-21.34-4.46-14.18-3.38-21.19-5.47A132.71,132.71,0,0,1,134,234a51.56,51.56,0,0,1-5.83-3.35,22.59,22.59,0,0,1-5.19-4.61,12.48,12.48,0,0,1-1.79-3.12c-.43-1.07-.81-2.16-1.13-3.26a55.3,55.3,0,0,1-1.46-6.68,112.37,112.37,0,0,1-.55-27.11A113.89,113.89,0,0,1,120.15,172a75.14,75.14,0,0,1,4.22-13.42,33.07,33.07,0,0,1,8-11.74,19.07,19.07,0,0,1,3-2.11,15.3,15.3,0,0,1,3.41-1.37,14.56,14.56,0,0,1,3.65-.47,13.83,13.83,0,0,1,1.83.12,12,12,0,0,1,1.25.19c.44.09.89.16,1.32.26l-.47,2.45-.29,1.64c-.64,3.77-1.18,7.56-1.44,11.34l-.07,1.3v.74c0,.24,0,.47,0,.7l0,.35c0,.05,0,.16,0,.14l.11-.13,4.16-5.06-.74,5-.56,4.2-.8,6.57a266.84,266.84,0,0,0-1.95,27.36c0,2.27,0,4.55.23,6.8a20.71,20.71,0,0,0,1.35,6.47,5.52,5.52,0,0,0,2.09,2.24,23.14,23.14,0,0,0,2.87,1.67,67,67,0,0,0,6.21,2.66c6.59,2.46,13.32,4.41,20,6.23s13.48,3.48,20.27,5.1l8.95,2.07c11.2,2.6,14.74,3.54,17,4.69a13.75,13.75,0,0,1,1.49.79c.46.35-.44.3-2.49,0s-5.29-.95-9.4-1.84c-12.22-2.65-24.75-5.52-37.34-9-6.29-1.75-12.61-3.61-18.86-5.92a54.64,54.64,0,0,1-9.24-4.25,11.18,11.18,0,0,1-1.12-.77,7.24,7.24,0,0,1-1.1-.95,5.49,5.49,0,0,1-1-1.25,11.67,11.67,0,0,1-.63-1.35,22.59,22.59,0,0,1-1.09-5.19,90.08,90.08,0,0,1-.3-12.38c.13-4.1.4-8.18.75-12.26s.77-8.13,1.24-12.19l.75-6.08.12-1v-.06l0-.13,1-1.26.53-.65.21-.25-.4.48-1.58,1.94-.39.48-.37.41-.73.81-.74.8-.37.41s-.07.11-.07.06l0-.15,0-.29-.2-2.31c-.05-.76-.14-1.48-.15-2.25v-2.36Z"/><path class="cls-1" d="M200.27,232.47c-5.12-1.19-27-7.23-33-9.17-.58-15.06-1.62-33.36-.55-62.64l7.48-12.34C183.9,145.58,193.19,191.06,200.27,232.47Z"/><path class="cls-1" d="M181,156.77a25.73,25.73,0,0,0-3.15-5.42,5.69,5.69,0,0,0-2-1.71,2.07,2.07,0,0,0-.5-.16l-.22,0H175a.1.1,0,0,0-.1,0l-.28.46-6.8,11-.16,4c-.14,3.74-.18,7.49-.26,11.23-.31,13.19-.16,26.39.32,39.59l.16,4.4.08,2.09v.27a.29.29,0,0,0,0,.13l.16,0,.65.2c2.79.84,5.61,1.64,8.41,2.42,7.2,2,14.48,3.85,21.64,5.93,2.22.62,1.81,1.08-.24,1.13a39.16,39.16,0,0,1-9.87-1.51q-5.53-1.5-11-3.07l-5.51-1.6-2.76-.83L168,225l-1.18-.38-.59-.18-.3-.1c0-.07,0-.22,0-.33q-.19-6.15-.38-12.31-.15-5.76-.18-11.54c-.05-9.22-.15-18.82.08-28.25l.17-5.65.22-5.88,5.31-8.64,1.29-2.11.65-1,.21-.35c.09-.14.17-.28.26-.41.12-.35.51-.31.81-.39a6.17,6.17,0,0,1,.94-.06,3.77,3.77,0,0,1,.76.13,4.65,4.65,0,0,1,1.36.6,9,9,0,0,1,2,1.82,33.31,33.31,0,0,1,4.64,8.61c1.19,3,2.2,6,3.13,9.1,2.78,9.28,4.88,18.77,6.89,28.15,1.55,7.29,3.07,14.44,4.49,21.67.31,1.59.61,3.15.92,4.76,1.1,6,1.27,7.89.93,9.27a5,5,0,0,1-.23.91c-.34.65-1.11-1.73-2-6.07-2.66-12.89-5.24-26.51-8.35-40.05-1.16-5-2.4-10-3.81-15a106.9,106.9,0,0,0-5-14.49Z"/><path class="cls-1" d="M159.15,157.65l-.76-3.14L158,153l-.18-.79-.07-.34v-.09c0-.07,0-.13,0-.19s-.08-.07-.14-.06l-.17.05a6.12,6.12,0,0,0-1.2.73c-.52.38-1,.8-1.54,1.23a34.55,34.55,0,0,0-2.86,2.82,24.86,24.86,0,0,0-2.19,2.83c-.86,1.26-1.56,2.61-2.5,3.81-.58.78-1.84-1.3-.84-2.91a31.51,31.51,0,0,1,6.36-7.42c.76-.64,1.51-1.31,2.32-2l.63-.47.33-.23.41-.25a3.73,3.73,0,0,1,2.16-.63l.45,0a1.4,1.4,0,0,1,.36.13l.84,3.64.68,2.81c.32,1.27.65,2.54,1,3.8.28.95.57,1.9.9,2.83l.25.67a2.78,2.78,0,0,0,.16.4,4.79,4.79,0,0,0,.38.75l.1.12s.06.13.09,0l.16-.32.28-.59.12-.27a1.14,1.14,0,0,1,.06-.14l.13-.26.53-1c.15-.3.29-.6.45-.9.62-1.09.95-1.36,1.58-1.29a2,2,0,0,1,.43,0c.44.12.48.75.12,1.6-.28.63-.57,1.26-.88,1.89l-.48.94-.95,1.68a10.38,10.38,0,0,1-1.07,1.55l-.54.69c-.09.23-.18,0-.27-.13l-.28-.39L162.07,166l-.92-1.87-.35-.92c-.11-.26-.19-.52-.28-.79-.18-.52-.35-1-.51-1.57-.33-1-.62-2.09-.91-3.14Z"/><path class="cls-1" d="M211.25,297.81s-11,1.8-17.25-.68c0,0-4.09-25.24-7-48.06,5.37.91,10.79,1.85,16.19,3C206.75,273.76,209.54,292.25,211.25,297.81Z"/><path class="cls-1" d="M199.33,252.71l-9.63-1.9-.6-.12-.37-.07-.23-.06s-.1-.05-.09,0v.35l.59,4.85,1,7.11c1.06,8.36,2.16,16.73,3.36,25.07.28,1.85.56,3.71.85,5.56l.44,2.7.06.32a.73.73,0,0,0,.29.11l.51.17.65.15a29,29,0,0,0,6.92.6c2.35,0,4.71-.17,7.05-.35,1.45-.13,1.37.44.18,1.14a13.86,13.86,0,0,1-6.33,1.55,34.92,34.92,0,0,1-7.59-.57,19.38,19.38,0,0,1-1.92-.5l-1.69-.58a12.18,12.18,0,0,1-.33-1.76l-.54-3.62q-1-7.26-1.93-14.57c-.69-5.85-1.66-11.89-2.43-17.86l-1.27-10.21-.24-2,0-.25s.14,0,.21,0l.49.09,1,.19,3,.58,4.88,1,6,1.17,1.83.35.28.06c.07,0,.24,0,.21.11l.09.57.17,1,.47,3c.95,6.08,1.87,12.21,2.88,18.23.79,4.69,1.7,9.26,2.63,13.86.22,1,.43,2,.64,3,.79,3.77,1,4.95.63,5.89a3.66,3.66,0,0,1-.22.64c-.31.5-1.16-1-1.88-3.74-2.08-8.21-3.48-17-4.92-25.75l-1.56-9.8-.77-4.91,0-.27h0v0h0l-.19,0-2.43-.46Z"/><path class="cls-1" d="M185,220.1c0,.7,0,1.41,0,2.13,0,.26.09.51.09.77,0,.93,0,1.87.12,2.8a7,7,0,0,0,.24,1.21,3.1,3.1,0,0,1,.28,1.56c-.08.35-2.18.35-2.32-.25a10.11,10.11,0,0,1-.25-3.3,11.6,11.6,0,0,0-.18-2c-.05-.74-.08-1.5-.08-2.25v-1.39c0-.71.08-1.42.11-2.13,0-.56-.05-1.13,0-1.73a2.71,2.71,0,0,1,0-.4c.12-.49.36-.59.9-.43a2.72,2.72,0,0,1,.38.11,1,1,0,0,1,.69.74,16.31,16.31,0,0,1,0,2.53c0,.66,0,1.36,0,2.05Z"/><path class="cls-1" d="M154.69,270.07a20.9,20.9,0,0,1-2.51-.11c-.82-.09-1.63-.24-2.44-.39-.58-.14-1.17-.22-1.75-.36a36.55,36.55,0,0,1-5.77-2.36c-.81-.42-1.64-.79-2.45-1.19a11.49,11.49,0,0,1-3-1.78c-.53-.5,1.36-1.75,2.44-1.12,2,1.11,3.92,2.19,5.94,3.26a17.3,17.3,0,0,0,3.94,1.28l1.11.26,1.12.18a17.31,17.31,0,0,0,2.26.23,13.08,13.08,0,0,0,1.4,0,8,8,0,0,0,1.39-.12,12.17,12.17,0,0,0,2.08-.42l1-.3c.33-.12.64-.29,1-.43a13.21,13.21,0,0,0,2.67-1.81l.5-.5c.67-.58,1-.64,1.51-.33a2.53,2.53,0,0,1,.36.2c.36.27.31.78-.17,1.33a12.37,12.37,0,0,1-5.57,3.66,13.44,13.44,0,0,1-2.5.62c-.42.07-.84.15-1.26.2l-1.28.07Z"/><path class="cls-1" d="M177.12,311c-4.76,4.73-20.48,1.49-20.48,1.49,4.78-7.32,10.43-62.32,9-69.19,4.88,1,9.48,2.77,14.43,3.61C178.69,262.66,182.85,305.3,177.12,311Z"/><path class="cls-1" d="M178,247.87c-2.21-.49-4.35-1.12-6.45-1.73l-3.15-.9-1.18-.32a1.38,1.38,0,0,0-.26-.06,2.13,2.13,0,0,1,0,.27l0,1.41c0,1.1,0,2.18-.06,3.27-.08,2.16-.22,4.32-.37,6.47-.23,3.18-.45,6.35-.77,9.51-1.15,11.14-2.61,22.24-4.68,33.26-.45,2.31-.91,4.62-1.46,6.92-.28,1.15-.58,2.3-.93,3.44l-.28.85c-.1.27-.21.63-.26.74l-.2.48-.19.36c0,.07.23.06.33.09l1.68.24c.77.1,1.55.18,2.33.26,1.55.14,3.11.22,4.66.24a33.28,33.28,0,0,0,4.59-.27,12.68,12.68,0,0,0,4.22-1.23c.75-.43,1.08-.62,1.24-.44s0,.7-.6,1.41a7.89,7.89,0,0,1-3.17,2A16.14,16.14,0,0,1,168,315a48.18,48.18,0,0,1-5.9-.26q-1.46-.15-2.91-.36l-.72-.11-1.3-.22c-.93-.17-1.83-.37-2.73-.55l.84-1.54.66-1.38.17-.34a2.08,2.08,0,0,0,.12-.27l.13-.38.27-.76c.33-1.05.62-2.11.9-3.19.55-2.17,1-4.38,1.46-6.6q1.31-6.66,2.36-13.43c1.22-7.67,2-15.72,2.72-23.63.27-3.1.51-6.21.69-9.32q.13-2.32.18-4.65c0-.77,0-1.54,0-2.3v-.66l-.1-1c-.06-.64-.15-1.26-.24-1.89.9.15,1.91.41,2.85.63l1.06.26.92.25,3.62,1c1.29.37,2.57.74,3.86,1.06.65.16,1.3.31,1.94.44l1.47.29.37.07c.05,0,.16,0,.16,0v.19l-.06.72-.1,1.39-.05,1c0,.66-.06,1.33-.08,2,0,1.34-.06,2.68-.07,4,0,8.14.21,16.34.37,24.44.12,6.3.32,12.48,0,18.75-.07,1.38-.14,2.73-.29,4.13a20.89,20.89,0,0,1-1.17,5.47,6.78,6.78,0,0,1-.73,1.37,3.62,3.62,0,0,1-.8.75,3.36,3.36,0,0,1-.77.34c-.31,0-.16-.38.11-1.15a23,23,0,0,0,.89-3.9,120.15,120.15,0,0,0,.76-16.82c0-5.77-.19-11.63-.32-17.52-.11-4.37-.2-8.76-.23-13.16,0-2.2,0-4.41.06-6.63,0-1.1.08-2.23.14-3.32,0-.1,0-.25,0-.33l-.52-.11Z"/><path class="cls-1" d="M121.72,437.74l-2.89,15.34-1.51,7.67-.82,3.84c-.14.64-.29,1.28-.46,1.93-.08.33-.17.65-.28,1a4.16,4.16,0,0,1-.33.81,1.08,1.08,0,0,1-.28.32c-.06.13-.21.17-.32.26l-.84.35a3.81,3.81,0,0,1-.64.24l-1.29.33a18.75,18.75,0,0,1-2.57.24,27.54,27.54,0,0,1-5-.35,48.16,48.16,0,0,1-4.8-1c-.79-.21-1.58-.44-2.36-.69l-.58-.19-.43-.14-.5-.18-.49-.18a3.29,3.29,0,0,1-.2-.42l-.17-.45,0-.51a14.25,14.25,0,0,1,0-1.45l.06-1.17.16-2.32.41-4.59c.29-3.06.62-6.11,1-9.15C99,425.79,101.94,404.4,104.8,383c1.24-9.5,2.5-19.05,3.73-28.47,1.57-12.12,3.06-24.29,4.93-36.36,1.18-7.52,1.91,2.33,0,16.27-3.29,24.72-6.66,49.42-10.11,74.32-2,14.89-3.91,30.44-5.55,45.71-.26,2.53-.51,5-.71,7.57L97,463.92l0,.93v.64c0,.1,0,.26.14.26l.5.18c.59.19,1.19.37,1.79.54a40.92,40.92,0,0,0,7.31,1.44,22.3,22.3,0,0,0,3.65.06,14.19,14.19,0,0,0,1.75-.28c.28-.08.57-.13.84-.23l.63-.26c.1,0,.14-.09.17-.17l0-.12.07-.26c.11-.39.22-.79.31-1.19l.56-2.44,1-4.95,1.91-9.92,5.67-30.71c2.84-15.51,5.74-31.09,8.66-46.46,2.28-12,4.45-23.69,7-35.46.56-2.6,1.11-5.13,1.74-7.74,2.34-9.64,3.65-12.65,5.05-14.4a4.88,4.88,0,0,1,1-1.05c.45-.22.11.39-.41,2.07s-1.28,4.35-2.17,7.84c-2.59,10.37-4.72,21.21-6.9,32.18S133,376.55,131,387.74c-3,16.62-6.11,33.32-9.17,50Z"/><path class="cls-1" d="M152.57,441.23l1.07,12c.39,4,.75,8,1.3,11.91a5.4,5.4,0,0,0,.11.65,1,1,0,0,0,.13.44,2,2,0,0,0,.62.76,4.35,4.35,0,0,0,2.18.76,17.38,17.38,0,0,0,5.57-.55c.94-.23,1.88-.5,2.81-.8l1.38-.48.42-.16c.06,0,.12,0,.11-.09l.43-2.53c.19-1,.26-2,.39-3,.7-5.77,1-11.63,1.38-17.46,1.17-20.61,1.7-41.27,2.1-61.93.16-9.16.24-18.38.26-27.48,0-11.69-.08-23.43.15-35.11.15-7.29,2.22,1.95,2.2,15.43,0,23.89-.33,47.76-1.16,71.83-.52,14.39-.88,29.38-1.88,44.11-.31,4.05-.64,8.09-1.15,12.14-.09,1-.31,2-.46,3l-.29,1.73-.11.6s0,.11,0,.14l-.14.06-.29.11-1,.41a38.22,38.22,0,0,1-6,1.71,21.85,21.85,0,0,1-3.15.37,9.66,9.66,0,0,1-3.3-.39,4.63,4.63,0,0,1-2.83-2.23,2.78,2.78,0,0,1-.33-.9c-.09-.35-.1-.56-.15-.83q-.12-.78-.21-1.53c-.51-4.05-.88-8.07-1.27-12.11-.92-9.93-1.74-19.87-2.53-29.81-1.2-15-2.26-30.17-3.29-45.12-.79-11.63-1.62-23-2.22-34.53-.12-2.53-.26-5-.35-7.57-.34-9.49-.11-12.53.5-14.56a10.66,10.66,0,0,1,.42-1.33c.48-.89.65,3,.92,9.86.41,10.26,1,20.8,1.73,31.5s1.42,21.53,2.21,32.39c1.17,16.13,2.41,32.34,3.82,48.49Z"/><path class="cls-1" d="M108.55,469c1.24,6.49-23.83,10.95-33.76,6.49S99,467.33,99,467.33,103.75,469.73,108.55,469Z"/><path class="cls-1" d="M79.58,471.91c-.92.23-1.84.47-2.72.75-.44.15-.87.3-1.28.47-.21.09-.4.17-.59.27l-.26.14-.14.08a.32.32,0,0,0-.17.19.3.3,0,0,0,.15.23l0,0,.13.07a1.43,1.43,0,0,0,.27.15,6.49,6.49,0,0,0,.59.28c.41.18.84.34,1.27.48a25.11,25.11,0,0,0,4,.83,50.22,50.22,0,0,0,14.73-.28,34.57,34.57,0,0,0,6.34-1.67,19.4,19.4,0,0,0,3.65-1.81,4.77,4.77,0,0,0,2.24-2.56c0-.54.57-.82,1.16.06a2.69,2.69,0,0,1,.22.88,3,3,0,0,1-.21,1.15,4.58,4.58,0,0,1-1.66,2.11,17.94,17.94,0,0,1-4.21,2.13,34.34,34.34,0,0,1-4.36,1.27,47.56,47.56,0,0,1-8.89,1.07,51.88,51.88,0,0,1-11-.53,22.54,22.54,0,0,1-3-.78c-.49-.15-1-.38-1.46-.58a6.08,6.08,0,0,1-1.6-1,1.89,1.89,0,0,1-.7-2,3.09,3.09,0,0,1,1.46-1.6,14.79,14.79,0,0,1,2.9-1.19,63.51,63.51,0,0,1,7.17-1.67c3.64-.67,7.3-1.17,10.92-1.68l4.51-.66.35.16.29.12.46.17.93.31c.63.19,1.26.33,1.9.46s1.14.19,1.73.25c1.08.11,1.78.14,2.28.22a1.94,1.94,0,0,1,1.08.49,2.45,2.45,0,0,1,.37.34c.3.38-.62,1-2.45,1.06a16.31,16.31,0,0,1-3.87-.35,18.51,18.51,0,0,1-1.91-.5c-.32-.1-.63-.2-.94-.32l-.48-.19-.1,0h0l-7.68,1.1c-3.86.59-7.75,1.19-11.49,2.11Z"/><path class="cls-1" d="M157.84,468.93s2.34,13,24.68,12.26-16.21-13.55-15.34-13.86A13.74,13.74,0,0,1,157.84,468.93Z"/><path class="cls-1" d="M184.82,473.57c.83.46,1.66.95,2.48,1.48a13,13,0,0,1,2.39,1.94,4.65,4.65,0,0,1,.67.9,2.67,2.67,0,0,1,.33,1.16,2.28,2.28,0,0,1-1.15,2,3.92,3.92,0,0,1-.53.29,4.08,4.08,0,0,1-.43.18c-.27.09-.53.16-.78.23-.51.12-1,.2-1.49.27a29.64,29.64,0,0,1-4.17.29,36.77,36.77,0,0,1-14.35-2.44,22.12,22.12,0,0,1-5.69-3.23l-.83-.67-.76-.74a15.47,15.47,0,0,1-1.41-1.61,11.13,11.13,0,0,1-1.85-3.88c-.09-.45,0-.7.23-.73a1.74,1.74,0,0,1,.88.38,10.14,10.14,0,0,1,2.4,2.5,16.21,16.21,0,0,0,5.6,4.94,26.42,26.42,0,0,0,7.37,2.71,29.75,29.75,0,0,0,4.87.65c1.66,0,3.34.06,5,0a25.92,25.92,0,0,0,2.68-.23,11.68,11.68,0,0,0,1.26-.26l.54-.19a1.12,1.12,0,0,0,.24-.13.41.41,0,0,0,.16-.49.84.84,0,0,0-.14-.24,2.84,2.84,0,0,0-.36-.4,14.3,14.3,0,0,0-2.09-1.58,54.33,54.33,0,0,0-6-3.17c-3.14-1.46-6.35-2.82-9.57-4.06l-2-.75-.93-.35a1.63,1.63,0,0,1-.23-.11s-.14.09-.2.12a7,7,0,0,1-.74.39c-.3.15-.61.28-.92.41a15,15,0,0,1-1.9.61,15.56,15.56,0,0,1-1.83.34c-2.33.18-3.07-.19-3.46-.79a1.91,1.91,0,0,1-.25-.43c-.12-.48.79-.63,2.27-.73a15.53,15.53,0,0,0,3.09-.55c.5-.14,1-.33,1.49-.52l.71-.32.35-.18.25-.14.36-.2.55,1.08,0,.06,0,0v-.07l0-.27,0-.56,0-.28v-.13c0-.06,0-.1,0-.08l0,0h0c0,2.78,0,.77,0,1.39h0c0,.07.12.1.19.14l.11,0,.05,0s0,0,0,0l.15-.34c.49-1.36.55-.75.66-.81l.21.08.44.18,1.81.7,3.69,1.45a109.55,109.55,0,0,1,10.32,4.72Z"/><path class="cls-1" d="M204.26,298a15.44,15.44,0,0,0,1.43,7.49,16.59,16.59,0,0,1,1.77,5.9c0,1.45-.25,5.33-1.88,2.68-.26-.42-2,.32-1.89.5,1.69,2.74,4.72,1.37,5.43-1.39,1.39-5.41-3.46-10.16-3-15.69,0-.17-1.84,0-1.89.51Z"/><path class="cls-1" d="M203.69,314.21a3.87,3.87,0,0,1-.49,2.16c-.06.08-.24.26-.26.29.14-.22.28.07-.05-.08a2.29,2.29,0,0,1-1.47-2.09c0-.53-1.9-.18-1.88.5a2.79,2.79,0,0,0,2.86,2.62c2.29,0,3.15-1.89,3.18-3.91,0-.51-1.88-.18-1.89.51Z"/><path class="cls-1" d="M199.54,315a3.94,3.94,0,0,1,0,.77,5,5,0,0,1-.17.77c-.1.3-.34.54-.44.81-.11.11-.09.11,0,0s.17-.07,0-.11a2.93,2.93,0,0,0-.26-.19,2.48,2.48,0,0,1-.45-.52,3.58,3.58,0,0,1-.49-1.87c0-.5-1.9-.15-1.88.51.05,1.93,1.39,3.61,3.46,3a3.34,3.34,0,0,0,2.07-3.65c0-.52-1.93-.15-1.88.5Z"/><path class="cls-1" d="M187.8,311.91a6.76,6.76,0,0,1,.51-.72,2.77,2.77,0,0,1,.73-.63,6.67,6.67,0,0,1,1.36-.62,20.27,20.27,0,0,1,2.49-.64l.84-.19.42-.09.14,0h.08c.18,0,.2-.11.27-.27.12-.48.23-1,.33-1.48.2-1,.39-2,.55-3s.22-1.83.27-2.73a20.1,20.1,0,0,1,.28-3.43c0-.18.21,0,.4-.12a.67.67,0,0,1,.75.1,2,2,0,0,1,1,1.67,38.39,38.39,0,0,1-1.13,7.2c-.16.62-.28,1.26-.4,1.91a8.94,8.94,0,0,1-.34,1.37.92.92,0,0,1-.2.31l-.14.1-.05,0h0l.06.07h0l-.07,0a1.89,1.89,0,0,1-.73.22l-.48.1-.28.05c-.78.14-1.56.29-2.31.49a7.32,7.32,0,0,0-2,.75,3.39,3.39,0,0,0-.94,2.13,13.72,13.72,0,0,0,.19,4.32,21.47,21.47,0,0,0,1,3.25c.08.23.2.45.27.69.31.87.27,1.18-.2,1.56a4,4,0,0,1-.31.27c-.37.26-.88,0-1.22-.66a18.38,18.38,0,0,1-1.86-6.43,10.22,10.22,0,0,1,.69-5.59Z"/><path class="cls-1" d="M214.22,314.26a12.12,12.12,0,0,0-.15-2.37,4.52,4.52,0,0,0-.27-.69,2.16,2.16,0,0,0-.21-.48.8.8,0,0,0-.34-.27,5.75,5.75,0,0,0-1.4-.49,6.23,6.23,0,0,0-1.43-.11,4.8,4.8,0,0,1-1.85-.05c-.39-.13,0-2.22.83-2.23a9,9,0,0,1,4.18.83,5.7,5.7,0,0,1,1.44.89,5.16,5.16,0,0,1,.51.67,7.21,7.21,0,0,1,.33.69,10.13,10.13,0,0,1,.45,2.86c0,.57,0,1.13,0,1.69,0,.84-.09,1.68-.1,2.51,0,.65.08,1.29.11,1.94a3.24,3.24,0,0,1,0,.44c0,.53-.21.72-.79.72h-.4a.92.92,0,0,1-.83-.66,14,14,0,0,1-.18-3.37c0-.84.07-1.69,0-2.51Z"/><path class="cls-1" d="M229.14,318.82c-5,1-47.57,6.31-47.57,6.31l1.51,36.69c16.72.51,35.27-1.83,49.46-6.85C229.87,335.91,230.19,318.83,229.14,318.82ZM211,336c-1.55.44-6.51,1.69-7.95.9-1.59-.87-1-3.08,0-3.95,1.46-1.21,8-1.44,8-.32A19.25,19.25,0,0,1,211,336Z"/><path class="cls-1" d="M203.15,362.29q-6.57.58-13.15.65c-1.1,0-2.2,0-3.3,0l-4-.09h-.64s0-.06,0-.08l0-.74-.06-1.41,0-1.64-.11-3.26-.39-9.54-.7-21.71L194,322.88c4.94-.59,9.9-1.24,14.79-1.91,6.28-.87,12.59-1.81,18.85-2.57,1.91-.27,1.79.24.2,1a31.74,31.74,0,0,1-8.2,2.13c-6.3.87-12.61,1.67-18.93,2.44l-9.5,1.11-4.77.53-2.38.25-1.2.13-.29,0v.55l0,.73,0,1.48.09,3c.08,2,.15,4,.23,6,.16,4,.32,8,.48,12l.24,6.59.11,3.29,0,1.23c-.08.31.24.19.43.23,4.25.12,8.71.06,13.05-.19a148.55,148.55,0,0,0,16.05-1.74c4-.66,8-1.48,12-2.53,1-.26,2-.53,2.94-.83s1.94-.59,2.9-.92l.49-.17c.13-.05.33-.06.25-.24l-.16-1.19-.39-3c-.76-6.29-1.36-12.47-1.82-18.7-.1-1.38-.2-2.72-.3-4.1-.32-5.14-.33-6.73,0-7.85a1.56,1.56,0,0,0,.05-.79c-.05-.09-.15-.14-.09-.18s.31,0,.41.13a2.51,2.51,0,0,1,.53,1,22.82,22.82,0,0,1,.7,4.29c.5,5.58.88,11.28,1.43,17.05q.41,4.33.93,8.69l.27,2.18.35,2.61.15,1.09,0,.14s-.08,0-.11.05l-.26.09-.53.18-1.61.54c-.7.24-1.42.48-2.13.69a132.37,132.37,0,0,1-26.14,4.95Z"/><path class="cls-1" d="M205.36,333.36a6.05,6.05,0,0,0-1.49.35,1.5,1.5,0,0,0-.73.82,2,2,0,0,0-.13.87.91.91,0,0,0,.2.56.85.85,0,0,0,.24.22l.12.07.2.06a7.65,7.65,0,0,0,2.17.09A11.89,11.89,0,0,0,208,336a12.85,12.85,0,0,1,2.61-.6c.57,0,.38,1.91-.68,2.18a14.66,14.66,0,0,1-5.85.52,7.26,7.26,0,0,1-1.06-.25,2.93,2.93,0,0,1-1.06-.68,2.79,2.79,0,0,1-.77-2.26,3.9,3.9,0,0,1,.95-2.16,2.76,2.76,0,0,1,1-.74,6.42,6.42,0,0,1,1-.34,14.61,14.61,0,0,1,2.42-.32,16.08,16.08,0,0,1,3.7.17,2.67,2.67,0,0,1,1,.37,1.09,1.09,0,0,1,.46.85c.06.48.11,1,.16,1.43,0,.2,0,.4.06.6,0,.75-.14,1-.66,1.15-.11,0-.28.09-.32,0s0,.06,0,0a.1.1,0,0,0-.1-.09c-.41-.09-.33-.06-.44-.14a1.05,1.05,0,0,1-.27-.56c-.06-.36-.12-.73-.17-1.1l-.07-.56a2.14,2.14,0,0,0,0-.24l0,0a.07.07,0,0,0-.08,0l-.36,0-.58,0a17.56,17.56,0,0,0-3.47.17Z"/><path class="cls-1" d="M241.94,242.79l-2.58-.65c-.3-.07-.2-.07-.28-.08l-.32.07c-.31.11-.7.31-1.11.5a8.27,8.27,0,0,1-2.07.81,4.35,4.35,0,0,1-2.23-.15,3.43,3.43,0,0,1-1.82-1.48,3.27,3.27,0,0,1-.23-.46l-.05-.17c0-.12,0-.24,0-.38s-.06-.07-.11-.05l-.16.06-.36.13-.1,0-.17.07-.34.16-.69.33-1.35.68a18.58,18.58,0,0,1-3.5,1.63c-.78.22-.75-2.08.58-2.74s2.38-1.14,3.6-1.65l.91-.39c.43-.17,1.12-.5,1.62-.67h1.07s-.18.41-.09.22l.06,0,.1.05c.11.09.34.1.45.34a2.64,2.64,0,0,1,.22.9,2.36,2.36,0,0,0,.14.51l.08.21a1.35,1.35,0,0,0,.19.31,1.29,1.29,0,0,0,.59.38,2.84,2.84,0,0,0,1.75-.13c.73-.25,1.43-.71,2.46-1.08a3,3,0,0,1,1-.16,3.92,3.92,0,0,1,.51.07l.32.08,1.3.31,3.21.78c1.62.39,3.25.84,4.86,1.29a38.79,38.79,0,0,1,3.78,1.14,7.3,7.3,0,0,1,.82.36c1,.54,1.21.95,1,1.52a2,2,0,0,1-.13.39c-.24.39-.75.39-1.38.13a56.73,56.73,0,0,0-6.35-2c-1.68-.43-3.41-.85-5.14-1.24Z"/><path class="cls-1" d="M240.45,245.87c3.32,2.58,8.66,2.86,12.63,3.17,1.12.09,1.11-1.66,0-1.75a36.26,36.26,0,0,1-9-1.6,13.52,13.52,0,0,1-1.88-.78c-.11-.06-.82-.54-.49-.28-.88-.68-2.13.55-1.24,1.24Z"/><path class="cls-1" d="M241.61,250.76a28.14,28.14,0,0,0,10.38,1.8.88.88,0,0,0,0-1.75,26.66,26.66,0,0,1-9.91-1.74c-1.06-.39-1.52,1.3-.47,1.69Z"/><path class="cls-1" d="M242.48,255.94a17.55,17.55,0,0,0,9-1.47c1-.5.12-2-.88-1.51a16,16,0,0,1-8.09,1.23c-1.12-.08-1.12,1.68,0,1.75Z"/><path class="cls-1" d="M228.37,253.6c.24-.48.51-.95.79-1.4a13.24,13.24,0,0,1,.85-1.26,10.11,10.11,0,0,0,.71-.77c.24-.39.33.23-.08-.16a4.51,4.51,0,0,1,.54.44,2.5,2.5,0,0,1,.53,1.42,4.71,4.71,0,0,1-.14,1.63.88.88,0,0,0,1.69.47,6.35,6.35,0,0,0,.1-2.81c-.22-1.16-1.18-2.87-2.55-2.84-1.13,0-2,1.23-2.54,2.05a19.3,19.3,0,0,0-1.42,2.35c-.51,1,1,1.88,1.52.88Z"/><path class="cls-1" d="M233.62,251.83c.34-.48,1-1,1.56-.71a2.4,2.4,0,0,1,.94,1.52,5.41,5.41,0,0,1,.14,1.45,5.12,5.12,0,0,1,0,.56c0,.23,0,.07,0,.08-.18,1.1,1.51,1.57,1.69.46a6.43,6.43,0,0,0-.65-4.35,3.06,3.06,0,0,0-2.28-1.59,3.49,3.49,0,0,0-2.87,1.7c-.64.93.88,1.81,1.51.88Z"/><path class="cls-1" d="M237.82,255.4a3.86,3.86,0,0,1,1.56-1.38c.35-.19,1.1-.61,1.49-.34.56.38.29,1.59.13,2.13a.88.88,0,0,0,1.69.46c.42-1.41.4-3.41-1.09-4.19-1.8-1-4.41,1-5.29,2.44a.87.87,0,0,0,1.51.88Z"/><path class="cls-1" d="M265.53,247.71c-2.7-.18-5.68.37-8.32-.32a.88.88,0,0,0-.46,1.69c2.81.73,5.91.19,8.78.38,1.12.08,1.12-1.67,0-1.75Z"/><path class="cls-1" d="M359.39,260.58a49.14,49.14,0,0,1-5.12.68c-.62.05-1.25.14-1.88.16a26.32,26.32,0,0,1-6.65-.67,14.37,14.37,0,0,1-2.92-1,5.19,5.19,0,0,1-1.72-1.28,2.92,2.92,0,0,1-.74-2.15c0-.49.59-.35,1.15-.1l.8.35.32.15a.79.79,0,0,1,.22.19,5.2,5.2,0,0,0,2.32,1.44,23.93,23.93,0,0,0,3.34.86,18.71,18.71,0,0,0,4.43.06,43.16,43.16,0,0,0,4.91-.56c1-.16,2-.38,3-.62a32,32,0,0,0,4.42-1.4A24.57,24.57,0,0,0,368.4,255c.22-.14.42-.29.65-.41.84-.48,1.16-.51,1.63-.11a2.85,2.85,0,0,1,.32.27c.3.34.12.85-.47,1.32a20.86,20.86,0,0,1-6.1,3.14,41.56,41.56,0,0,1-5,1.38Z"/><path class="cls-1" d="M329.14,241.5c-19.63,6.84-45.38,9.54-63.61,8.09a51.86,51.86,0,0,1,.92-12.39c33.9-5.06,64.44-20,69.25-30.16C338.66,200.8,330.49,241,329.14,241.5Z"/><path class="cls-1" d="M305.27,228.29a182.54,182.54,0,0,1-28.19,8.12c-1.75.36-3.5.71-5.26,1-.87.16-1.75.33-2.63.46l-1.32.21-.32.05s-.12,0-.15,0l-.07.42-.19,1.14c-.12.76-.22,1.52-.32,2.28-.18,1.53-.31,3-.35,4.57,0,.38,0,.76,0,1.14v.89c0,.06.1,0,.15,0l.63.06c1.55.13,3.1.19,4.65.25a158.76,158.76,0,0,0,18.63-.46A162.93,162.93,0,0,0,307,246.33a196.28,196.28,0,0,0,20.48-5.08c2.1-.61,2,0,.41,1.09a20.76,20.76,0,0,1-3.48,1.87c-.75.32-1.57.65-2.45,1s-1.83.57-2.83.84a165.77,165.77,0,0,1-43.35,5l-3.3-.08-3.33-.15-4-.28-.35,0s-.14,0-.14,0l0-.18,0-.7c0-.45-.06-1-.07-1.37,0-.58,0-1.15,0-1.73a55,55,0,0,1,.59-6.8l.26-1.71.24-1.38c0-.1,0-.27.1-.31l.34-.06.7-.11,1.91-.3,1.64-.26a183,183,0,0,0,28.33-7.12,145.86,145.86,0,0,0,16.66-6.75A86.79,86.79,0,0,0,327,215a39,39,0,0,0,5.19-4.27c.2-.2.44-.48.66-.71l.33-.37a3.2,3.2,0,0,0,.35-.44,14.44,14.44,0,0,1,1.48-2l1-1.06c.12-.12.17-.3.42-.34.26.15.25.38.33.57a6.35,6.35,0,0,1,.18,1.14,11.73,11.73,0,0,1-.06,1.62c-.12,1.17-.33,2.63-.44,3.39-.26,1.73-.54,3.46-.83,5.18q-.87,5.15-1.88,10.27c-.31,1.51-.59,3-.93,4.5-1.25,5.61-1.95,7.38-2.91,8.38-.22.22-.51.55-.71.56s0,.08,0,0a.29.29,0,0,0-.12-.17c-.06,0,0-.06-.05-.08a6.55,6.55,0,0,1,.12-1c.17-1,.49-2.59.92-4.62,1.28-6.06,2.47-12.33,3.58-18.69.27-1.59.54-3.19.78-4.78l.07-.52,0-.11h0v0s0,0,0,0,0,0,0,0l-.27.29-.26.29c-.08.09-.29.28-.43.42-.61.62-1.26,1.18-1.91,1.74a69.93,69.93,0,0,1-12.62,8.1,139.53,139.53,0,0,1-13.58,6.07Z"/><path class="cls-1" d="M320.46,318.82c-.14,7.18,18.62-3,18.62-3,2-9.44,6.33-165.09,4.62-163.65-6.82,5.71-5.19,38.16-12.81,75.65C322.27,270.27,320.56,313.38,320.46,318.82Z"/><path class="cls-1" d="M335.83,182.2c.48-4.48.94-9,1.54-13.47.3-2.25.64-4.5,1.08-6.75.22-1.12.46-2.25.76-3.37.14-.56.3-1.12.49-1.68.09-.28.17-.56.28-.84l.22-.58a6.57,6.57,0,0,1,.29-.71c.85-1.76,1.84-3.2,2.81-3.71l.67-.1c.27.06.32.18.47.31a2.44,2.44,0,0,1,.64,1.62c.09.91.12,2,.14,3l0,2.08v3.4c0,4.51-.07,9-.15,13.53-.11,6.58-.19,13.15-.35,19.72q-.88,34.75-2.26,69.48c-.4,10.27-.8,20.61-1.2,30.8-.16,3.5-.33,7-.49,10.5l-.32,5.26-.21,2.64-.13,1.33-.1.74c-.05.35-.11.69-.19,1l-1.4.74-1,.52c-.69.35-1.39.68-2.09,1q-2.11,1-4.29,1.79a33.94,33.94,0,0,1-4.5,1.37,15.46,15.46,0,0,1-2.39.34,6.17,6.17,0,0,1-2.6-.35,3.51,3.51,0,0,1-.8-.47,3,3,0,0,1-.52-.65,2.76,2.76,0,0,1-.35-1.12c0-.56.11-.79.22-.75s.22.33.43.76a1.93,1.93,0,0,0,1.4,1.13c1.49.34,3.82-.39,6.48-1.44s5.76-2.57,9.06-4.26l.29-.15h0l.05-.43.13-1.2.2-2.44.33-4.92L339,296q.45-9.9.89-19.8.8-19.81,1.61-39.76c.64-16.12,1-32.91,1.33-49.41.18-9.06.37-18.14.37-27.2l0-3.17c0-.45,0-.91,0-1.38a2,2,0,0,0-.06-.34c-.09,0-.16.14-.25.2a4.31,4.31,0,0,0-.39.56,5.18,5.18,0,0,0-.3.63l-.16.4c-.1.26-.18.52-.26.78a81.08,81.08,0,0,0-2.48,13.21C337.89,181.79,337,193,335.48,204c-1.09,8.4-2.48,16.8-4.18,25.1S328.23,245.74,327,254c-1.85,12.91-3.12,25.64-4.09,38.49-.19,2.83-.37,5.6-.57,8.46-.67,10.58-.89,13.94-1.56,16.2a13.65,13.65,0,0,1-.43,1.49c-.46,1-.76-3.35-.43-11.13A538.44,538.44,0,0,1,327.82,236l2.58-13.37q1.25-6.67,2.2-13.4c1.3-9,2.26-18,3.18-27Z"/><path class="cls-1" d="M252.37,237.08c-2.38-.38-4.75-.79-7.11-1.21l-2.35-.38a5.72,5.72,0,0,0-1.79.53,18.82,18.82,0,0,0-1.94,1c-.64.38-1.26.79-1.86,1.22-.3.22-.6.45-.88.68l-.65.54a2.08,2.08,0,0,0-.59.79.25.25,0,0,0,.25.33,2.75,2.75,0,0,0,.5,0,2.59,2.59,0,0,0,.58-.15l.46-.16c.18-.08.36-.14.52-.23a5.76,5.76,0,0,0,1.76-1.24c.29-.3.79-.06,1,.66a2.51,2.51,0,0,1-1.4,2.55,8.1,8.1,0,0,1-1.49.59,9.26,9.26,0,0,1-2.46.36,2.77,2.77,0,0,1-1.84-.53,2,2,0,0,1-.51-.75,2,2,0,0,1-.09-.86,3.74,3.74,0,0,1,.92-1.85,11.76,11.76,0,0,1,1.56-1.5,18.71,18.71,0,0,1,2.32-1.59c1-.57,1.94-1.15,3-1.67a9.93,9.93,0,0,1,1.72-.66,2.61,2.61,0,0,1,.5-.11,3.77,3.77,0,0,1,.63,0l.9.15c2.36.43,4.73.84,7.1,1.21,1.46.23,2.92.45,4.39.63,2.21.29,4.45.56,6.66.67a38.77,38.77,0,0,0,5.07-.12c.38,0,.73-.08,1.09-.12a7.64,7.64,0,0,1,1.42,0,1.15,1.15,0,0,1,.73.47,3,3,0,0,1,.27.35c.24.4-.28.86-1.37,1.14a35.65,35.65,0,0,1-9.74.23c-2.43-.21-4.84-.52-7.25-.85Z"/><path class="cls-1" d="M444.64,296.08c-4,1.55-16.38,0-16.38,0-.55-14.29-20.42-61.44-30.31-84.08.7,27.51,16.16,93.2,16.16,93.2-5.4-.13-36.1,11.71-36.1,11.71-9-5.8-9.76-135.55-.63-174.7C408.86,135.29,439.91,269.74,444.64,296.08Z"/><path class="cls-1" d="M373.1,196.43q-1.05,22.45-1,44.94c0,15,.35,30,1.34,44.91.35,5.23.81,10.44,1.48,15.61.35,2.58.74,5.16,1.29,7.67a33.07,33.07,0,0,0,1,3.68,14.17,14.17,0,0,0,.67,1.67,5.64,5.64,0,0,0,.31.54.35.35,0,0,0,.17.15l.6-.23c9.06-3.37,18.11-6.71,27.41-9.5,1.17-.33,2.34-.68,3.54-1,.59-.16,1.19-.29,1.82-.4l.76-.15.28,0,.14,0,0-.13-.06-.28-.36-1.58-.79-3.53q-1.56-7.07-3.05-14.15-3-14.17-5.59-28.42c-1.72-9.5-3.3-19-4.48-28.63-.27-2.12-.52-4.26-.7-6.4l-.2-2.13c-.09-.82-.12-1.56-.17-2.34l-.26-4.72-.12-2.37-.07-1.18V208a.38.38,0,0,1,0,.11l.24.54,1.89,4.26,1.91,4.38,1.6,3.7c3.38,7.88,6.69,15.77,9.87,23.65,4.08,10.13,8.08,20.33,11.55,30.73a132,132,0,0,1,4.4,15.9c.11.69.3,1.35.35,2.06l.18,1.72,0,.22c0,.06.12,0,.18.05l.58.07,2,.2a78.1,78.1,0,0,0,8.07.38c1.67,0,2.84-.14,3.57-.23s1-.13,1,0-.36.39-1.11.66a14.79,14.79,0,0,1-3.33.73,44.73,44.73,0,0,1-5.23.31c-1,0-2.09,0-3.22-.05l-1.74-.08-.45,0-.71-.06-.8-.07-.41,0c-.13,0-.31,0-.28-.17-.12-.88-.24-1.78-.36-2.69a14.49,14.49,0,0,0-.34-1.87c-.31-1.27-.54-2.59-.95-3.95-.71-2.71-1.59-5.58-2.5-8.56-3.35-10.55-7.31-21-11.4-31.3-2.05-5.17-4.16-10.32-6.29-15.47L400,220.27c0-.08-.13-.42-.11-.18v.28l0,.53.19,2.07c.29,2.76.64,5.52,1,8.28s.75,5.53,1.19,8.28c1.7,11,3.72,22,5.87,33.06,1.11,5.7,2.3,11.43,3.53,17.18.63,2.88,1.26,5.76,1.9,8.66l1,4.33.75,3.24c.06.1-.06.09-.13.1l-.23,0-.47,0-.93.09-.47,0c-.13,0-.39.07-.43.07l-.53.11c-2.81.57-5.66,1.46-8.49,2.34s-5.64,1.86-8.45,2.85-5.61,2-8.41,3l-4.19,1.56-4.76,1.8a7.26,7.26,0,0,1-.85-.74,8.34,8.34,0,0,1-.7-.87l-.39-.7-.31-.7a23.25,23.25,0,0,1-.91-2.79c-.49-1.86-.85-3.72-1.16-5.57-1.22-7.53-1.81-15.09-2.3-22.65s-.76-15.12-1-22.68q-.54-22.69,0-45.39c.49-18.62,1.35-37.24,3.45-55.76.41-3.51.88-7,1.46-10.5q.43-2.62,1-5.23l.28-1.3.2-.89.11-.48c0-.06,0-.2.09-.19l.24,0,1.73-.25,1.4,0a13.89,13.89,0,0,1,5.33,1.43,20.83,20.83,0,0,1,4.54,3,44.18,44.18,0,0,1,7.18,7.93A120.08,120.08,0,0,1,407.9,172c3,6.36,5.77,12.84,8.29,19.37,3.92,10.16,7.38,20.37,10.6,30.62s6.16,20.56,8.92,31c1.21,4.58,2.38,9.07,3.51,13.71,4.16,17.22,5,22.81,5.21,26.65,0,.87.12,2,.08,2.53-.14,1.75-1.69-5.28-4.69-17.86-4.45-18.66-9.54-37.71-15.51-56.77-3-9.52-6.22-19.05-9.83-28.45a227.94,227.94,0,0,0-12.43-27.55,96.88,96.88,0,0,0-5.88-9.49,45.26,45.26,0,0,0-7.24-8.21c-2.69-2.36-5.93-4.1-9.23-4.09h-.62a1.76,1.76,0,0,0-.31,0l-.21,0h0l-.2.89-.27,1.38c-.37,1.83-.69,3.68-1,5.53-1.15,7.43-1.92,14.95-2.55,22.47s-1.06,15.08-1.41,22.63Z"/><path class="cls-1" d="M366.71,153a43.53,43.53,0,0,1-5.7,4.35,25.88,25.88,0,0,1-2.29,1.34,15.75,15.75,0,0,1-4.56,1.43,9.32,9.32,0,0,1-4.84-.57,11.38,11.38,0,0,1-3.56-2.35,13.46,13.46,0,0,1-3.12-4.21c-.44-1,2-.86,3.06.62a13.15,13.15,0,0,0,3.18,3.29,7.38,7.38,0,0,0,4.13,1.3,11.67,11.67,0,0,0,5.56-1.81,35.18,35.18,0,0,0,5.57-3.94c1.08-.92,2.13-1.89,3.14-2.88,1.52-1.55,3-3.11,4.39-4.79l.77-1a6.37,6.37,0,0,1,.47-.55,5.09,5.09,0,0,1,.58-.48,8.71,8.71,0,0,1,2.5-1.13c.38-.11.74-.22,1.12-.3,1.4-.27,1.85-.15,2.21.37a2.06,2.06,0,0,1,.23.37c.19.42-.33.84-1.28,1.1a12.65,12.65,0,0,0-3.71,1.44,3.23,3.23,0,0,0-.26.23l-.26.32-.74.92c-.5.61-1,1.23-1.55,1.82a67,67,0,0,1-5,5.12Z"/><path class="cls-1" d="M431.35,296.94c2.35,4.49-.81,10.63,1.27,15,1.8,3.83,3.87-2,4.49-3.63h-1.69c.89,3.82,1.68,8,.94,11.93-.21,1.11,1.48,1.58,1.69.47.8-4.22,0-8.73-.94-12.87-.21-.91-1.4-.74-1.69,0-.18.47-1,3.51-1.58,3.56.82-.07.32-.42.3-1.14-.05-1.84-.12-3.68-.15-5.52-.06-2.75.19-6.19-1.13-8.72-.53-1-2-.11-1.51.88Z"/><path class="cls-1" d="M438.58,308.35c.88,3.68,2.06,8.18,1.16,11.93-.27,1.1,1.42,1.57,1.68.47,1-4.06-.2-8.88-1.15-12.87-.26-1.09-1.95-.63-1.69.47Z"/><path class="cls-1" d="M442.4,308.35c.47,3.39,1.23,7.51.34,10.87a.87.87,0,0,0,1.68.46c1-3.68.19-8.08-.33-11.8-.16-1.11-1.84-.64-1.69.47Z"/><path class="cls-1" d="M445,306.82c1.2,2.76,1.71,6.9.07,9.91-.54,1,1,1.88,1.51.89,2-3.6,1.53-8-.07-11.69-.45-1-1.95-.14-1.51.89Z"/><path class="cls-1" d="M392.53,435.62l4.34,25.22,1.08,6.31.26,1.57.08.47c0,.07,0,.09.09.11l.47.26a6.21,6.21,0,0,0,.65.23,4.92,4.92,0,0,0,.65.21l.69.12a12.05,12.05,0,0,0,5.73-.73,21.32,21.32,0,0,0,2.79-1.2c.45-.23.9-.48,1.34-.74l.65-.4.38-.24c.11,0,.06-.15.07-.25l0-1.16,0-2.33c0-1.55-.05-3.1-.12-4.66-.13-3.1-.2-6.2-.36-9.3-.9-21.89-2.57-43.75-4.58-65.58-.92-9.68-1.94-19.41-3.11-29-1.47-12.31-3.19-24.64-4.77-36.92-.49-3.84.13-3.41,1.14-.25a102.27,102.27,0,0,1,3.32,16.16c3.32,25.15,5.84,50.37,7.63,75.87,1.06,15.25,2.24,31.12,2.75,46.76.07,2.15.14,4.3.17,6.45l.05,3.23,0,.88v.66c0,.21.07.48-.18.57l-.54.38-.48.33-.71.44a24,24,0,0,1-6.13,2.68,16,16,0,0,1-3.39.52,10.52,10.52,0,0,1-3.47-.49l-.85-.3-.83-.44-.57-.31-.28-.16a.94.94,0,0,1-.07-.3l-.19-1.11-.54-3.17-1.09-6.36L392.37,447q-2.75-15.61-5.48-31.24c-2.82-15.77-5.65-31.6-8.64-47.21-2.33-12.14-4.78-24-7.35-35.93-.59-2.62-1.16-5.19-1.75-7.83-2.19-9.81-2.95-12.86-3-15.07,0-.5-.15-1.15-.13-1.47,0-.55.53.11,1.26,1.84a67.64,67.64,0,0,1,2.47,8.06c2.65,10.63,5,21.62,7.21,32.78s4.4,22.5,6.52,33.87c3.13,16.88,6.15,33.87,9.14,50.83Z"/><path class="cls-1" d="M352.74,436.88l-3.87,33.05-1.35.94a10.41,10.41,0,0,1-1,.56,7.54,7.54,0,0,1-1.07.44,8,8,0,0,1-1.08.35,21.11,21.11,0,0,1-4.35.71,32.79,32.79,0,0,1-4.32,0c-.71,0-1.43-.08-2.14-.16l-1.11-.12-1.81-.28c-.07,0-.18,0-.22-.06l0-.24,0-.49-.06-1-.07-1.29-.11-2.27c-.08-1.51-.1-3-.15-4.53-.12-3-.1-6-.14-9,0-21.24.85-42.43,1.67-63.62.37-9.41.73-18.86,1.1-28.19.46-12,.86-24,1.67-36,.51-7.46,2.09,2.11,1.47,15.91-1.08,24.47-2.19,48.92-3.15,73.58-.57,14.75-.79,30.12-.59,45.19.07,2.31.09,4.63.21,6.94l.14,3.05c-.07.29.25.21.43.26.49.07,1.11.13,1.66.18a32.47,32.47,0,0,0,6.76-.07,16.33,16.33,0,0,0,3.22-.7,8.41,8.41,0,0,0,1.48-.62,3,3,0,0,0,.67-.39l.37-.24,2.49-21.44L353,416.87c1.82-15.37,3.65-30.82,5.45-46.08,1.37-11.88,2.71-23.51,4.07-35.25.31-2.58.62-5.11.94-7.72,1.26-9.64,1.92-12.7,2.88-14.66a4.65,4.65,0,0,1,.72-1.22c.05,0,.08,0,.1,0s-.09-.14,0,0l.07.09,0,0,0,0,0,0v.12c0,.31,0,.95-.13,1.81-.16,1.74-.46,4.49-.9,8-2.46,21-5.05,43.07-7.65,65.26-1.92,16.49-3.86,33.05-5.79,49.58Z"/><path class="cls-1" d="M331.43,471.4S296.31,476,306.59,478c28,5.59,39.58-6.15,35.29-6.15S334,473.9,331.43,471.4Z"/><path class="cls-1" d="M325.74,480.66a64.55,64.55,0,0,1-12.44-.46c-.74-.11-1.49-.18-2.24-.29l-1.12-.17-.55-.09a5.63,5.63,0,0,1-.63-.11l-2.76-.62-.67-.16-.58-.26a2.72,2.72,0,0,1-.76-.63,1.25,1.25,0,0,1-.23-.41.93.93,0,0,1,0-.57,1.88,1.88,0,0,1,.56-.79,6.63,6.63,0,0,1,2.46-1.19c.51-.15,1-.29,1.4-.38l1-.23,1.95-.41c1.29-.26,2.59-.49,3.88-.71l6.89-1.19a79.37,79.37,0,0,1,8.82-1.27c1.85-.09-.2,2.24-3.56,2.75-5.95.93-11.94,1.73-17.83,2.86l-1,.2a4.19,4.19,0,0,0-.42.1,1.72,1.72,0,0,0-.42.18c-.06,0-.14.09-.14.17s.09.11.15.14a2,2,0,0,0,.43.13l.75.14.82.15,1.37.22a68,68,0,0,0,12.09.92,47.2,47.2,0,0,0,7.42-.71,35.08,35.08,0,0,0,5.44-1.42,18.32,18.32,0,0,0,4.9-2.52,4.89,4.89,0,0,0,1.29-1.39c.05-.09.06-.2.07-.18l.13,0h0l.07,0a.26.26,0,0,0-.08.06s0,0-.07.13,0,0-.06,0h-.16l-.49,0a34.61,34.61,0,0,0-4.22.69,15.27,15.27,0,0,1-2,.29,4.74,4.74,0,0,1-2.88-.59,1.48,1.48,0,0,1-.8-1.15,2.3,2.3,0,0,1,0-.52c.19-.5,1,.06,2.33.19,2.12.16,4.75-1,7.73-1.05h.28a3.61,3.61,0,0,1,.44,0l.24,0,.31.1a1.71,1.71,0,0,1,.67.39,1.88,1.88,0,0,1,.63,1.64,1.62,1.62,0,0,1-.13.59,2,2,0,0,1-.2.44,6.88,6.88,0,0,1-1.76,1.94,18.8,18.8,0,0,1-3.88,2.25,39.05,39.05,0,0,1-12.42,2.83Z"/><path class="cls-1" d="M411.5,469.83c1.43,10.95-24.76,12.1-33.69,9.7S400,471.87,400,471.87,408.34,473.55,411.5,469.83Z"/><path class="cls-1" d="M382.59,476.94c-.94.25-1.88.51-2.78.81l-1,.36a.82.82,0,0,0-.24.1c-.08,0-.16.15-.07.21a.6.6,0,0,0,.24.13l.2.06.63.14c.46.1.94.17,1.41.26,1.39.22,2.81.29,4.22.39a57.55,57.55,0,0,0,15-.84,22.81,22.81,0,0,0,6.2-2.17c2.41-1.31,4.36-3.35,4.39-5.9,0-.78.58-.84,1.16-.06a3.15,3.15,0,0,1,.56,1.83,3.8,3.8,0,0,1-.19,1.3,5.14,5.14,0,0,1-.25.68c-.11.21-.24.42-.38.64a11,11,0,0,1-3.82,3.29,21.15,21.15,0,0,1-4.37,1.76,38.82,38.82,0,0,1-9,1.44,81.78,81.78,0,0,1-11.07,0c-1-.09-2-.22-3-.38-.51-.09-1-.18-1.52-.29l-.41-.09-.56-.16a7.17,7.17,0,0,1-1.08-.34,2.38,2.38,0,0,1-1.39-1.23,1.16,1.16,0,0,1,.08-.92,2.6,2.6,0,0,1,.59-.71A7,7,0,0,1,378,476.2c.6-.24,1-.38,1.52-.55,2.4-.76,4.81-1.32,7.22-1.86,3.66-.81,7.35-1.47,11-2.17l2.27-.44c.45.08.6.09.88.13l.78.07c.51,0,1,.06,1.54.06a18.84,18.84,0,0,0,3-.21,15.39,15.39,0,0,0,1.69-.39,17.46,17.46,0,0,0,2-.78,2.51,2.51,0,0,1,1.12-.19,4.22,4.22,0,0,1,.52,0c.25.06.28.32,0,.78a2.31,2.31,0,0,1-.58.74,4.93,4.93,0,0,1-.47.41c-.18.12-.38.24-.59.36a12.24,12.24,0,0,1-5.05,1.33,22.36,22.36,0,0,1-2.59,0c-.43,0-.86-.06-1.29-.1l-1.06-.13-5.73,1.1c-3.9.77-7.82,1.55-11.62,2.57Z"/><path class="cls-1" d="M183.08,361.82a11.8,11.8,0,0,1-4.94,1.16c-.51-6.32.11-28.73-.83-35,0,0,3.14-2.23,4.26-2.9C181.79,325,183.08,361.82,183.08,361.82Z"/><path class="cls-1" d="M180.7,330l-.1-3v-.25s0,0,0-.06l0,0-.09.05.3,0c.06,0-.05,0-.08,0l-.15.08-.3.13c-.4.18-.82.34-1.28.52a7.51,7.51,0,0,1-.8.16l-.5.13-.24.08-.07,0h0l1-.15h0v.05l.08.85c.07.57.09,1.11.13,1.67.09,1.54.17,3.07.2,4.6,0,5.39-.09,10.75-.15,16.12,0,2.38,0,4.77.08,7.12,0,.76.05,1.52.1,2.27l.06,1.06,0,.46c0,.05,0,0,.08,0l.11,0,.22,0,.37,0,.53-.07a10,10,0,0,0,2-.49c.81-.31,1,.14.42.92a3.91,3.91,0,0,1-1.49,1.16A6.5,6.5,0,0,1,180,364l-.32.07c-.12,0-.38.06-.57.09-.41.06-.84.1-1.27.14l-.57,0-.29,0a1.12,1.12,0,0,1,0-.27l-.08-1.15-.07-1.14,0-.66c0-.78-.06-1.57-.07-2.35,0-1.56,0-3.11,0-4.67q0-4.67.23-9.34c.13-3.73,0-7.62-.07-11.42-.05-1.54-.1-3.1-.26-4.59l-.06-.56c0-.05,0-.09.06-.13l.12-.1.24-.22,1-.88c.34-.29.7-.57,1.06-.85l.27-.2.5-.36,1-.72.82-.18.21-.05.1,0h0c-.06.11.15-.25-.14.25h0l0,0c.08.09.15.18.25.28a1.13,1.13,0,0,1,.24.39l0,.63.06,1.11q.12,3.87.26,7.76c.13,3.92.22,7.85.39,11.74.13,3,.37,6,.56,9,0,.66.09,1.3.14,2,.11,2.46,0,3.25-.46,3.79a2.35,2.35,0,0,1-.33.36c-.38.25-.73-.74-.91-2.54-.52-5.32-.78-10.95-1-16.6-.14-4.19-.29-8.41-.44-12.61Z"/><path class="cls-1" d="M200.46,364.33c2.86-.22,5.71-.54,8.55-1,1-.16,2.06-.39,3.09-.57,3.64-.65,7.27-1.43,10.84-2.4,1.59-.43,3.16-.94,4.7-1.49l1.18-.43,1.05-.41.26-.22.37-.3.74-.6c.5-.39,1-.77,1.54-1.12,1.1-.73.94,1.72-.93,3.26l-1,.79-1.62.57-1.42.47c-1,.3-1.92.59-2.88.86q-2.9.81-5.86,1.4c-2.57.5-5.2,1.18-7.83,1.65q-4.35.76-8.74,1.19c-1.8.18-3.6.31-5.4.4-2.74.14-5.49.15-8.21.07a53.64,53.64,0,0,1-6.32-.41c-.47-.07-.93-.13-1.41-.25a4.41,4.41,0,0,1-1.87-.85,1.52,1.52,0,0,1-.42-.65.66.66,0,0,1,.16-.67.47.47,0,0,1,.43-.11.55.55,0,0,1,.2.2s.07.09.06.06l-.07,0,.12,0s.16-.12.16-.1.08,0,.15,0l.62.18a30.14,30.14,0,0,0,5.35.69c1.88.12,3.8.17,5.73.17,2.87,0,5.76-.13,8.64-.39Z"/><path class="cls-2" d="M392.49,199.64c2.42,3.35,6.35,14.37,6.35,14.37"/><path class="cls-1" d="M356.07,166.85c-.79,4.41,2.69,5.07,2.94,1.36C359.23,165,356.6,163.87,356.07,166.85Z"/><path class="cls-1" d="M355,176.09c-.79,4.41,2.69,5.07,2.95,1.37C358.14,174.26,355.52,173.11,355,176.09Z"/><path class="cls-1" d="M144.73,92.54c0-1.69.08-2.06.34-2.18a17.84,17.84,0,0,1,2.55-1c.77-.22,1.58-.28,2.37-.44a42.35,42.35,0,0,1,4.18-.71c.42,0,.86,0,1.29-.08s.85-.1,1.31-.1c.07,0,.16-.06.22,0a2.1,2.1,0,0,1-.07,1.49c0,.13-.09.33-.12.33-.31,0-.56,1-.84.93a4.25,4.25,0,0,0-1.56.38,1.73,1.73,0,0,1-.64.07c-.29,0-.58-.09-.87-.1a25.66,25.66,0,0,0-3.94.79c-1.73.45-3.43.94-3.56.93A2.14,2.14,0,0,1,144.73,92.54Z"/><path class="cls-1" d="M165.9,88.11c-.33-1.64-.27-2-.14-2.1a5.91,5.91,0,0,1,1.41-.73c.42-.14.89-.11,1.33-.21.75-.17,1.49-.37,2.27-.54.23,0,.46-.07.71-.13s.46-.16.81-.23c.06,0,.14-.08.2,0s.11.94,0,1.5a1.63,1.63,0,0,1-.06.34c-.15,0-.17,1-.3,1s-.53.3-.8.45a.58.58,0,0,1-.36.08c-.17,0-.35-.1-.52-.11-.45-.06-4.06,1-4.16,1S166.08,88.27,165.9,88.11Z"/><path class="cls-1" d="M165.72,96.5c2.28,2.47,4.8,5.56,6,8.74.18.47.54,1.25.12,1.68s-1.81,0-2.3,0a9.76,9.76,0,0,1-3.84-1.21c-.75-.51-2.68.54-1.69,1.22,2.08,1.4,8.45,3.07,10,.14.86-1.64-.82-4-1.63-5.33a40.18,40.18,0,0,0-4.62-6.15c-.64-.69-2.7.17-2,.93Z"/><path class="cls-1" d="M162.93,118.5c.75-.83,1-1,1.12-.92l1.44.44a10.47,10.47,0,0,0,1.15.4,3.23,3.23,0,0,0,1.87-.15,1.31,1.31,0,0,0,.78-.65s0-.07.06-.05a2.26,2.26,0,0,1,.77.65c0,.07.14.17.12.19s.21.72,0,.86c-.36.22-.63.62-1,.84a1.2,1.2,0,0,1-.51.18c-.23,0-.46,0-.68,0a7.71,7.71,0,0,1-2.81-.36,9,9,0,0,1-2.18-1C163,118.86,163,118.7,162.93,118.5Z"/><path class="cls-1" d="M338.4,118.37a37.17,37.17,0,0,0,1,5.69,20.62,20.62,0,0,0,2.05,5.27,12.59,12.59,0,0,0,3.62,4.08,11.91,11.91,0,0,0,5.06,2,17.49,17.49,0,0,0,2.05.13l2.08-.07c.69,0,1.36-.21,2.05-.3.34-.07.68-.1,1-.19l1-.3.87-.26.44-.13.41-.19,1.66-.75c.54-.28,1-.64,1.56-.95.26-.17.53-.31.77-.49l.72-.58a14.31,14.31,0,0,0,1.39-1.19l1.3-1.32c.42-.45.78-1,1.17-1.43l.58-.73.51-.77A38.28,38.28,0,0,0,375.16,112c.17-1.1.42-2.2.51-3.31l.21-2.08c-.06-.28.24-.26.43-.32l.63-.15.91-.22a12.27,12.27,0,0,0,5.55-3.11,9.1,9.1,0,0,0,2.74-7.24,5.71,5.71,0,0,0-.5-1.81,4.28,4.28,0,0,0-1.16-1.34A3.92,3.92,0,0,0,381,92c-.78.24-1.17.32-1.24.13s.21-.6.89-1.08a4.66,4.66,0,0,1,3.49-.78,4.57,4.57,0,0,1,2.35,1.24,6,6,0,0,1,.92,1.16,6.25,6.25,0,0,1,.57,1.39,10.58,10.58,0,0,1-2.5,9.39,12.77,12.77,0,0,1-3.83,3l-1.09.53c-.37.15-.75.27-1.13.4a7.51,7.51,0,0,1-1.14.35l-.57.14h0a0,0,0,0,0,0,0l-.11,1c-.07.76-.21,1.5-.34,2.25a45.09,45.09,0,0,1-1,4.44,38.7,38.7,0,0,1-3.4,8.46,28.88,28.88,0,0,1-7,8.65,20.43,20.43,0,0,1-10.37,4.45,21.7,21.7,0,0,1-6.23-.09,12.59,12.59,0,0,1-5.78-2.56,14.89,14.89,0,0,1-3.93-4.9,25.62,25.62,0,0,1-2.08-5.8,58.21,58.21,0,0,1-1.12-14.87c.11-3.75.45-7.49.85-11.21.21-1.85.41-3.7.62-5.55l.13-1.38.17-1.87s0-.1,0-.11h.85l1,.07c.48.05.95.1,1.42.18a17.7,17.7,0,0,1,4.27,1.18,8.92,8.92,0,0,1,3.68,2.68,4.47,4.47,0,0,1,.79,2.35,7.66,7.66,0,0,1-.25,2.31,16.7,16.7,0,0,1-1.66,4.12,29.65,29.65,0,0,1-2,3.26,19.73,19.73,0,0,1-3.43,3.78,3.83,3.83,0,0,1-2.15,1c-.27,0-.63,0-.74-.12s0-.18.05-.27.26-.23.54-.5a33.5,33.5,0,0,0,6.58-9,12.76,12.76,0,0,0,1.15-3.4,4.39,4.39,0,0,0,0-1.57,2.23,2.23,0,0,0-.57-1.17c-1.45-1.62-3.91-2.48-6.38-2.89-.31,0-.62-.1-.93-.13l-.47-.05h-.06l-.19,1.92-.21,2c-.88,7.91-1.7,15.89-.91,23.71Z"/><path class="cls-1" d="M342.76,119c-.17,0-.12-.25.1-.55a1.82,1.82,0,0,1,.4-.33l.3-.06a5.91,5.91,0,0,0,.76.26,2.36,2.36,0,0,1,.47.16,2.72,2.72,0,0,0,.92.2.78.78,0,0,1,.21,0,1,1,0,0,0,.76,0s.09,0,.11-.09.2-.13.38-.23a1.63,1.63,0,0,1,.43-.19c.26,0,.51-.16.78-.24,0,0,.05-.06.12,0s.2,0,.27-.06a1.74,1.74,0,0,1,.33-.18.79.79,0,0,1,.26,0c.08,0,.21.19.21.22s.12.13.19.19l.06.07a2.74,2.74,0,0,1-.35.9.92.92,0,0,1-.13.14l-.32.29a5.56,5.56,0,0,1-.57.47c-.05,0-.14,0-.21.07s-.22.16-.46.29l-.5.25a1,1,0,0,1-.66.06s-.08,0-.13,0a2.87,2.87,0,0,1-1.13,0,5.62,5.62,0,0,1-.57-.09l-.09,0a.67.67,0,0,0-.12-.06,8.24,8.24,0,0,1-1.21-.54c-.11,0-.39-.45-.49-.5S342.83,119,342.76,119Z"/><path class="cls-1" d="M352.5,92.26c0-1.14.36-1.42.68-1.5a15.2,15.2,0,0,1,3.3-.49,18.81,18.81,0,0,1,2.89.2A12.27,12.27,0,0,1,364.26,92a7,7,0,0,1,1.27,1c.19.18.4.34.58.53l.5.61c.05.07.14.13.15.22,0,.25-.39.53-.8.6-.09,0-.23.06-.25,0-.23-.28-.89-.1-1-.36a4.6,4.6,0,0,0-.68-.56c-.25-.15-.55-.24-.8-.38s-.43-.2-.63-.33-.25-.18-.38-.27l-.43-.22c-.1,0-.29-.12-.56-.21l-1-.25a17.72,17.72,0,0,0-2.89-.26,28,28,0,0,0-4.13.31A2.43,2.43,0,0,1,352.5,92.26Z"/></g></svg>