<svg id="Layer_1" data-name="Layer 1" xmlns="http://www.w3.org/2000/svg" width="520" height="520" viewBox="0 0 520 520"><defs><style>.cls-1{fill:#221f1f;}.cls-2{fill:#232020;}</style></defs><title>Notioly v2</title><g id="_47.Inbox" data-name="47.Inbox"><path class="cls-1" d="M124.41,405s-.19,0-.14-.09a2.17,2.17,0,0,1,.15-.22,3.19,3.19,0,0,1,.47-.42,8.12,8.12,0,0,1,1.13-.69,13.35,13.35,0,0,1,2.51-.95,25.87,25.87,0,0,1,5.34-.78c12-.69,24-1,36-1.33,10.31-.28,20.62-.37,30.92-.7,17.72-.59,35.44-1.41,53.08-2.9,5.2-.45,10.41-.92,15.59-1.57,5-.61,9.89-1.39,14.77-2.31.82-.16,1.67-.39,2.46-.46,2.11-.21,2.79.55,1.37,1.5a3.2,3.2,0,0,1-1,.62c-3.81.77-6.71,2.38-10.81,2.92-7.56,1-15.12,2.06-22.71,2.82-3,.29-6.08.53-9.12.69-3.89.22-7.77.32-11.66.48-2.65.12-10.23.52-20.13.91s-22.13.79-34.1,1.09l-32.55.77c-8.86.22-14.84.52-15.42.55-.94,0-1.87,0-2.94,0-.53,0-1.09,0-1.69,0l-.92.05-.43,0-.17,0S124.41,405,124.41,405Z"/><path class="cls-1" d="M123,274.88a15.7,15.7,0,0,1,7.11,3.64c6.85,5.37,14.7,9.64,22.13,14.58,6.43,4.15,12.76,8.45,19.2,12.57,11.08,7.09,22.25,14.06,33.57,20.71,3.35,2,6.69,3.92,10.1,5.74a96.2,96.2,0,0,0,9.9,4.66c.54.17,1.16.36,1.59.53a3.14,3.14,0,0,1,.41.22,1.33,1.33,0,0,1,.24.2,1.23,1.23,0,0,1,.29.47c.1.35,0,.7-.62,1a1.56,1.56,0,0,1-.93.18c-1.42-.39-2.73-.64-4.07-.93a15.68,15.68,0,0,1-4-1.35c-5-2.64-10.09-5.2-15-8-2-1.11-3.92-2.27-5.83-3.47-2.45-1.54-4.84-3.16-7.26-4.72l-12.66-8c-6.22-3.93-13.87-8.82-21.33-13.65l-10.84-7.05c-3.45-2.2-6.7-4.25-9.44-6.13a77.2,77.2,0,0,1-9.25-7.15A28.1,28.1,0,0,1,123,274.88Z"/><path class="cls-1" d="M229.68,342.12a4.25,4.25,0,0,1,.29-4.51q3.67-5.66,7.7-11.07c2.33-3.09,4.83-6.05,7.37-9,1.08-1.27,2.27-2.58,3.49-3.76s2.31-2.31,3.46-3.49c2.29-2.38,4.58-4.81,7-7.14,1.42-1.38,2.91-2.72,4.45-4a41.81,41.81,0,0,1,4.68-3.57,3.48,3.48,0,0,1,.9-.5c.87-.22,1.39.48,1.17,1.34-.06.2-.07.48-.2.55-1.26.72-1.57,2.3-2.77,3.12a43.94,43.94,0,0,0-6,5.73c-.77.8-1.56,1.6-2.38,2.37-1.05,1-2.16,1.92-3.2,2.93-.73.67-2.67,2.73-5.36,5.34a57.12,57.12,0,0,0-3.94,4.41c-1.36,1.65-2.75,3.42-4.11,5.18-5.45,7-10.38,14-10.66,14.36A23.47,23.47,0,0,1,229.68,342.12Z"/><ellipse class="cls-1" cx="199.37" cy="449.2" rx="1.07" ry="1.58" transform="translate(-286.54 375.57) rotate(-57.45)"/><ellipse class="cls-1" cx="182.39" cy="386.29" rx="1.07" ry="1.58" transform="translate(-244.53 401.21) rotate(-66.73)"/><ellipse class="cls-1" cx="224.26" cy="416.29" rx="2.11" ry="3.11" transform="translate(-246.76 457.82) rotate(-66.73)"/><ellipse class="cls-1" cx="257.49" cy="371" rx="1.48" ry="2.18" transform="translate(-185.07 460.95) rotate(-66.73)"/><ellipse class="cls-1" cx="288.95" cy="311.21" rx="0.95" ry="1.41" transform="translate(-111.11 453.69) rotate(-66.73)"/><ellipse class="cls-1" cx="254.05" cy="331.67" rx="1.07" ry="1.58" transform="translate(-151.01 434) rotate(-66.73)"/><ellipse class="cls-1" cx="418.7" cy="340.15" rx="1.07" ry="1.58" transform="translate(-93.29 510.07) rotate(-57.45)"/><ellipse class="cls-1" cx="192.77" cy="355.29" rx="1.07" ry="1.58" transform="translate(-209.78 391.99) rotate(-66.73)"/><ellipse class="cls-1" cx="283.94" cy="459.41" rx="1.07" ry="1.58" transform="translate(-256.07 451.58) rotate(-57.45)"/><ellipse class="cls-1" cx="346.48" cy="371.99" rx="1.07" ry="1.58" transform="translate(-153.5 463.9) rotate(-57.45)"/><ellipse class="cls-1" cx="286.22" cy="443.3" rx="1.07" ry="1.58" transform="translate(-241.44 446.06) rotate(-57.45)"/><path class="cls-1" d="M207.08,147.35a5.21,5.21,0,0,1,3.88-.9,17.47,17.47,0,0,0,5.4-.06,14.41,14.41,0,0,0,5-1.68c.29-.2.61-.38.87-.59a6.17,6.17,0,0,0,.76-.67,3.82,3.82,0,0,0,.6-.74c.08-.12.19-.29.24-.35s0,0,0-.15a10.3,10.3,0,0,0,0-2.18c-.06-.79-.16-1.59-.29-2.38a25,25,0,0,0-1-4,10,10,0,0,0-1.78-3.27,1.92,1.92,0,0,0-1-.64,2.69,2.69,0,0,0-.43,0l-.51-.05-1,0a22.1,22.1,0,0,0-4.07.26,18,18,0,0,0-4.58,1.31c-.34.15-.68.33-1,.51a4.33,4.33,0,0,0-.74.53,4.23,4.23,0,0,0-1,1.44c-.09.19-.09.4-.22.55a1,1,0,0,1-1.62-.15c-.1-.14-.28-.34-.24-.47.19-.63.22-1.29.4-2a3.21,3.21,0,0,1,1.19-1.9,8.27,8.27,0,0,1,1-.58l.9-.46c.61-.29,1.21-.57,1.84-.81a20,20,0,0,1,3.84-1.15,15.65,15.65,0,0,1,3.2-.26,17,17,0,0,1,2,.16c.34,0,.67.1,1,.15a5.53,5.53,0,0,1,1.28.31,5.69,5.69,0,0,1,2.45,2,15.06,15.06,0,0,1,2,4.16,31.14,31.14,0,0,1,1.21,5.46,20.62,20.62,0,0,1,.19,3.11,7.68,7.68,0,0,1-.08.9,3,3,0,0,1-.38,1.12,8.14,8.14,0,0,1-1,1.46,11.87,11.87,0,0,1-5.46,3.31,20.13,20.13,0,0,1-5.26.85,16.89,16.89,0,0,1-5.45-.71,6.61,6.61,0,0,1-1-.52C207.87,148,207.51,147.68,207.08,147.35Z"/><path class="cls-1" d="M191.21,133.69a7.22,7.22,0,0,1-5.12,1,22.11,22.11,0,0,0-3.9-.06,18.48,18.48,0,0,0-3.77.73,16.81,16.81,0,0,0-3.48,1.51c-.27.16-.54.32-.8.5a1.91,1.91,0,0,0-.31.23,1.43,1.43,0,0,0-.26.23,4,4,0,0,0-.79,1.18,11.54,11.54,0,0,0-.21,6.11A13.33,13.33,0,0,0,175,151a8,8,0,0,0,4.28,2.83,9.59,9.59,0,0,0,2.64.28,21.81,21.81,0,0,0,2.87-.29,15.05,15.05,0,0,0,5.26-1.76,4.08,4.08,0,0,0,1.56-1.59,5.44,5.44,0,0,0,.48-2.33,14.66,14.66,0,0,0-.42-3.27l-.2-.84-.26-.94c-.09-.28-.14-.55-.2-.82l-.1-.41c0-.13.13-.24.18-.36s.29-.49.46-.71.37-.49.47-.59a7.56,7.56,0,0,1,3.63-2.38,7.43,7.43,0,0,1,4.39.2,4.19,4.19,0,0,1,1.27.56c.93.75.65,1.51-.3,1.66-.22,0-.48.14-.64.06a3.53,3.53,0,0,0-1.2-.33,4.48,4.48,0,0,0-1.17.1,15.47,15.47,0,0,0-2,.69,4.28,4.28,0,0,0-1.67,1.13l-.18.21-.08.09,0,0-.05.11s0,.08,0,.11a.39.39,0,0,1,0,.11l.11.32a18.42,18.42,0,0,1,1.05,5.66,8.19,8.19,0,0,1-.43,2.57,6.24,6.24,0,0,1-1.5,2.38,8.86,8.86,0,0,1-2.74,1.76,17.11,17.11,0,0,1-2.82.91,27.07,27.07,0,0,1-3.55.67,20.81,20.81,0,0,1-2.9.16,11.88,11.88,0,0,1-3.58-.62,11.57,11.57,0,0,1-6.27-5.53,17.83,17.83,0,0,1-1.6-4.14,19.72,19.72,0,0,1-.62-4.43,10.54,10.54,0,0,1,.83-4.63,6.8,6.8,0,0,1,1.47-2.07,11.43,11.43,0,0,1,1.88-1.28,19.62,19.62,0,0,1,7.13-2.33,21.44,21.44,0,0,1,5.36,0c1.31.18,2.1.35,2.24.39a11.67,11.67,0,0,1,1.37.51Z"/><path class="cls-1" d="M210.25,155.6a4,4,0,0,0-.22-.91,8.47,8.47,0,0,0-.41-1.08,20.21,20.21,0,0,0-1.13-2.22c-.31-.54-.74-1-1.08-1.56a67.23,67.23,0,0,0-4-5.67c-.65-.82-1.35-1.58-2-2.35a35.27,35.27,0,0,1-2.56-3.11c-.25-.34-.26-.25,0-.06s1,.41,1.69.77a20.83,20.83,0,0,1,6.53,5.13c1.05,1.31,2.35,2.5,3.39,3.92a18.08,18.08,0,0,1,2.72,5.28,5.9,5.9,0,0,1-.18,4.13,4.9,4.9,0,0,1-2.19,2.22,7.77,7.77,0,0,1-2.75.79,15.22,15.22,0,0,1-4.06-.15,6.82,6.82,0,0,1-.87-.2,8.55,8.55,0,0,1-1.58-.64l-.15,0a4.62,4.62,0,0,0,1.15,0,22.5,22.5,0,0,0,3.53-.62A8.27,8.27,0,0,0,209,158.1a2.78,2.78,0,0,0,1.08-1.15,2.28,2.28,0,0,0,.11-1.34Z"/><path class="cls-1" d="M190.19,148a2.54,2.54,0,0,1-5.08.11,2.69,2.69,0,0,1,2.54-2.56C190.2,145.31,190.18,147.92,190.19,148Z"/><path class="cls-1" d="M213.24,142.53a2.54,2.54,0,0,1-5.08.11,2.36,2.36,0,0,1,2.34-2.39A2.39,2.39,0,0,1,213.24,142.53Z"/><path class="cls-1" d="M217,209.74C211,215,202.9,216.53,197.62,217l-2-15.09a22.26,22.26,0,0,0,10.75,1.66,20,20,0,0,0,9.81-3.32Z"/><path class="cls-1" d="M216.41,209.1a4.27,4.27,0,0,1-2.17,4.14,34,34,0,0,1-14.2,5l-.91.11c-.51.06-1,.09-1.53.14l-.77.07-.38,0s-.16.06-.16,0l0-.19-.2-1.53-.45-3.72-.73-6.24-.93-7.24c1.22.49,2.59,1.07,3.77,1.48l.82.26.47.13c.32.08.63.16,1,.22a20,20,0,0,0,3.87.44,21.52,21.52,0,0,0,7.66-1.18,16.63,16.63,0,0,0,2-.87,45,45,0,0,0,3.87-2.41l.28,3.18.21,2.32.16,1.52.32,3a4.45,4.45,0,0,1,.09,1c-.12.88-.85,1.14-1.46.55-.14-.14-.36-.28-.38-.44-.16-1.57-1.22-2.75-1.33-4.41l-.08-1.07-.05-.54v-.17c0-.13,0-.27-.11-.29l-.18.17a.49.49,0,0,1-.21.18,18.27,18.27,0,0,1-2.42,1.12,16.74,16.74,0,0,1-3.86.94,26.11,26.11,0,0,1-5,.07c-.41,0-1.09-.06-2.37-.24a22.91,22.91,0,0,1-2.39-.47l-.75-.2-.32-.1-.33-.12a2,2,0,0,0,0,.3c.05.4.1.84.16,1.3.19,1.45.41,3.07.63,4.8s.45,3.38.68,5.13c0,.07,0,.21.06.23l.26,0c.88-.09,1.78-.23,2.64-.38a34.63,34.63,0,0,0,8.78-2.7,27.94,27.94,0,0,0,3.63-2.07,8.05,8.05,0,0,1,1-.54Z"/><path class="cls-1" d="M156,157.61a20.45,20.45,0,0,1-3.49-3.34c-.19-.22-.4-.43-.6-.65s-.37-.46-.53-.71a13.49,13.49,0,0,1-2.17-5.88c0-.47-.09-.94-.13-1.4s0-.89-.05-1.34a5.62,5.62,0,0,1,.7-3.5c.24-.34.9.07,1.48.58s1.15,1.08,1.08,1.55a18.86,18.86,0,0,0-.21,2.8c0,.43,0,.88,0,1.33s0,.94.19,1.41a7.27,7.27,0,0,0,.24.85,6.8,6.8,0,0,0,.42.8,17,17,0,0,0,1.05,1.51,17.72,17.72,0,0,0,2.87,3,10,10,0,0,0,1,.79,12.82,12.82,0,0,0,1.09.72,14.33,14.33,0,0,0,3.61,1.59,9.3,9.3,0,0,0,1.48.16,11.25,11.25,0,0,0,1.44-.09c.2,0,.4-.09.6-.11.72-.11.94,0,1.3.76.08.17.18.33.25.5.24.57,0,1.13-.75,1.43a9.68,9.68,0,0,1-6.65-.37,20.69,20.69,0,0,1-4.32-2.34Z"/><path class="cls-1" d="M244.44,144.08a10.73,10.73,0,0,0,.94-5.47,7.18,7.18,0,0,0-.16-1.05c-.09-.33-.18-.65-.24-1a4.85,4.85,0,0,0-1.57-2.7,4.34,4.34,0,0,0-3.14-.68,9.35,9.35,0,0,0-3.22,1c-1.34.66-2.53,1.59-4,2.18-.9.38-1.53-2.68.16-3.71a18.66,18.66,0,0,1,4.82-2.09,10,10,0,0,1,2.83-.34l.75,0c.25,0,.51.09.77.14a5.66,5.66,0,0,1,1.49.53,7,7,0,0,1,2.79,2.52,9,9,0,0,1,1.27,3.18,14.23,14.23,0,0,1-.3,7,15.71,15.71,0,0,1-1.86,3.87,18.29,18.29,0,0,1-4.43,4.6,16.55,16.55,0,0,1-4.38,2.44,6.76,6.76,0,0,1-1.11.32c-1.45.24-2-.12-2.17-.88a3.49,3.49,0,0,1-.12-.54c0-.61.5-1.07,1.25-1.24a14.1,14.1,0,0,0,3.28-1.42,14.46,14.46,0,0,0,3-2.23,13.27,13.27,0,0,0,3.25-4.57Z"/><path class="cls-1" d="M242.93,127c-4.18,1.31-7.29,1.5-9.78.86-8.8-2.23-9.68-14.65-21.08-23.66-13.13-10.38-40.86,18.71-52.93,25.06,1,3.36,1.92,6.91,2.94,10.55-4.64-2.17-9.51-2.93-11.27,1.16a20.73,20.73,0,0,1-9.32-7.81c-3.78-5.61-5.54-13-6-20-2.94-45.13,45.05-35.49,45.28-35.79,12.84-16,76.61-38.28,80.75,18.67C262.41,108.18,255.24,123.13,242.93,127Z"/><path class="cls-1" d="M242.63,126.05a17.3,17.3,0,0,1-5,2.28,10.75,10.75,0,0,1-6.05-.06,12.21,12.21,0,0,1-5.35-3.62,35,35,0,0,1-3.67-5.1,81.18,81.18,0,0,0-5.58-8.3c-.5-.65-1-1.26-1.59-1.86a23.4,23.4,0,0,0-1.7-1.75,21.37,21.37,0,0,0-1.82-1.61,9.8,9.8,0,0,0-.92-.75l-.9-.6a11.82,11.82,0,0,0-8.74-.52,37.76,37.76,0,0,0-8.93,3.84,144.68,144.68,0,0,0-16.54,11.43c-2.68,2.07-5.35,4.16-8.1,6.22q-2,1.55-4.2,3c-.72.49-1.47,1-2.23,1.42,0,0,0,0,0,.06L164.84,143c-1.91-.84-4.26-2-6-2.54l-.65-.22-.37-.09a5.37,5.37,0,0,0-.67-.15,9.93,9.93,0,0,0-1.29-.17,4.35,4.35,0,0,0-2.14.37,2.46,2.46,0,0,0-.73.55,27.47,27.47,0,0,0-1.39,2.5c-.86-.37-1.76-.76-2.62-1.17-.21-.09-.46-.21-.62-.3l-.35-.19-.71-.41a20.31,20.31,0,0,1-2.64-1.87,23.84,23.84,0,0,1-4.31-4.73,35.16,35.16,0,0,1-5-11.4A52.66,52.66,0,0,1,133.76,111a45.67,45.67,0,0,1,1.14-12.24,28.24,28.24,0,0,1,18.57-20.87,47.54,47.54,0,0,1,14-2.72,66.69,66.69,0,0,1,7.07,0q1.75.09,3.51.27l1.75.19.29,0s.06,0,.08,0l.45-.51a8,8,0,0,1,.76-.78c.53-.49,1-1,1.59-1.47l1.65-1.35,1.71-1.24a59.84,59.84,0,0,1,7.2-4.31,77,77,0,0,1,15.56-6,64.14,64.14,0,0,1,16.57-2.3,41.06,41.06,0,0,1,16.6,3.15l2.13,1,2,1.19c.33.2.68.38,1,.61l.94.7c.62.48,1.27.92,1.87,1.44a32.42,32.42,0,0,1,3.3,3.33c.5.61,1,1.2,1.5,1.81l1.29,1.95a44.53,44.53,0,0,1,6.19,17.27c.25,1.44.35,2.89.53,4.34a29.68,29.68,0,0,1,.23,4.45,33.33,33.33,0,0,1-1.37,8.83,37,37,0,0,1-3.47,8.23,30.14,30.14,0,0,1-5.55,7.1,11.47,11.47,0,0,1-1.15,1l-1.2,1a24.39,24.39,0,0,1-2.57,1.63c-2.36,1.19-4,1.35-4.55,1.24s0-.75,1.53-1.69a22.6,22.6,0,0,1,2.14-1.5,23.24,23.24,0,0,0,8.18-8.79,36,36,0,0,0,2.43-5.43,43.63,43.63,0,0,0,1.76-6.1,31.35,31.35,0,0,0,.71-6.1,53.48,53.48,0,0,0-.53-6.21,46.64,46.64,0,0,0-3.18-12.06,31.68,31.68,0,0,0-6.7-10.18,28,28,0,0,0-10.19-6.43,44.44,44.44,0,0,0-19.53-2,72.65,72.65,0,0,0-24.61,7.12l-1.79.92c-.72.39-1.57.9-2.67,1.52s-2.35,1.46-3.82,2.57c-.77.53-1.5,1.2-2.37,1.88l-1.23,1.17a6.28,6.28,0,0,0-.62.64l-.87,1-.52.37-.13.1,0,0h0c-.13-.32-.05-.08-.08-.15l-.07,0-.31.1c-.22,0-.41.17-.67.13l-.67-.08-1.72-.2c-1.2-.12-2.5-.23-3.9-.29a58.24,58.24,0,0,0-9.45.27,40.33,40.33,0,0,0-10.89,2.64,27.79,27.79,0,0,0-5.39,2.88,28.29,28.29,0,0,0-2.5,1.93l-1.15,1.12c-.19.19-.39.38-.57.58l-.52.62a24.94,24.94,0,0,0-3.6,5.6c-.21.53-.43,1.06-.65,1.59l-.33.8-.25.84-.51,1.67c-.16.57-.25,1.16-.38,1.74a50.51,50.51,0,0,0-.54,14.68,40.82,40.82,0,0,0,4,14.41,23.23,23.23,0,0,0,4.29,6,18,18,0,0,0,2.8,2.28c.5.33,1,.64,1.54.92l.16.08.09,0s.12.07.16.05a1.51,1.51,0,0,1,.34-.46,5.48,5.48,0,0,1,1.67-1.28,7.41,7.41,0,0,1,3.81-.73,11.27,11.27,0,0,1,1.77.22,7.86,7.86,0,0,1,.84.19l.36.09.15,0a2.8,2.8,0,0,1,.36.12l.27.12c0-.08-.06-.29-.09-.42l-.38-1.36q-.69-2.49-1.38-4.93c-.18-.71-.42-1.44-.56-2.12l1.92-1.08.26-.15.12-.07L160,127l.49-.3c.33-.2.66-.42,1-.64,1.31-.86,2.58-1.78,3.84-2.71,5-3.74,9.79-7.57,14.54-11a96.16,96.16,0,0,1,14.28-8.88,33.17,33.17,0,0,1,7.44-2.63,15.44,15.44,0,0,1,7.67.15c.3.1.61.17.9.29l.86.41a9.12,9.12,0,0,1,1.6,1,12.62,12.62,0,0,1,1.33,1.06l1.22,1c.75.75,1.5,1.45,2.17,2.19s1.33,1.46,1.88,2.21a73.69,73.69,0,0,1,5.34,7.95q2,3.38,3.34,5.1c.46.54.82,1,1.1,1.3l.6.58a9.72,9.72,0,0,0,5.1,2.68A18.74,18.74,0,0,0,242.63,126.05Z"/><path class="cls-2" d="M196.05,214.56c.49,5,.95,10,1.38,15.06s.84,10.07.94,15c0,.34,3.22.35,3.2,0-.11-5.19-.55-10.18-.95-15.24s-.89-10.07-1.39-15.11C199.21,214,196,214.29,196.05,214.56Z"/><path class="cls-2" d="M215.38,209,217,243.37c0,.4,3.23.25,3.19-.15l-1.56-34.32C218.57,208.59,215.36,208.73,215.38,209Z"/><path class="cls-1" d="M191,206.47a7.9,7.9,0,0,1-1.94,2.1,6,6,0,0,1-2,.9,73.93,73.93,0,0,0-13.69,5.4l-2.83,1.47-1.42.73-1.39.79-2.78,1.59-2.68,1.75a125.59,125.59,0,0,0-17.06,14c-1.53,1.55-3.09,3.08-4.6,4.65s-2.72,3.19-4.07,4.78a4.05,4.05,0,0,1-.7.78,1,1,0,0,1-1.62-.81c0-.21-.09-.49,0-.62,1.07-1.24,1.1-3,2.29-4.25,2.14-2.4,4.3-4.82,6.46-7.22a35.75,35.75,0,0,1,2.85-2.65c1.27-1.06,2.53-2.12,3.87-3.11,1.75-1.39,9.91-8.31,19-13.15A73.29,73.29,0,0,1,181.4,208a44.46,44.46,0,0,1,6.5-1.67,6.49,6.49,0,0,1,1.33,0l.79.06Z"/><path class="cls-1" d="M225.4,205.66a4.61,4.61,0,0,1,4.94-1.6,49.23,49.23,0,0,1,15.12,6.51,137.84,137.84,0,0,1,11.33,8.14c6.32,4.84,12.43,9.87,18.72,14.56,1.87,1.38,3.73,2.75,5.65,4s3.75,2.3,5.68,3.31a4.63,4.63,0,0,1,1,.51,1,1,0,0,1-.4,1.77c-.21,0-.48.18-.64.11-1.55-.78-3.32-.52-4.9-1.54-2.88-1.87-5.85-3.62-8.66-5.56-1.12-.78-2.21-1.62-3.26-2.48-1.34-1.11-2.62-2.29-3.95-3.41-.91-.76-3.54-2.88-7-5.61s-7.76-6-12.13-9a71.61,71.61,0,0,0-12.39-6.9,33.31,33.31,0,0,0-6.3-1.94c-.38-.09-.76-.25-1.2-.4Z"/><path class="cls-1" d="M106,341.61a4.07,4.07,0,0,1,2.54,3.6q.59,6.45.84,12.92c.15,3.71.07,7.43.13,11.14.1,6.39.2,12.78.2,19.17l0,5.66c0,1.81.07,3.62.1,5.43a2.78,2.78,0,0,1,0,.91,1,1,0,0,1-1.75.35c-.15-.13-.39-.27-.39-.42,0-1.39-1.13-2.52-1.08-4,.08-2.72-.2-5.45-.32-8.17-.05-1.09,0-2.18,0-3.27,0-1.4.2-2.79.24-4.18.06-1.91,0-10.87-.29-19.46s-.59-16.8-.6-17.23A18.2,18.2,0,0,1,106,341.61Z"/><path class="cls-1" d="M100.7,252.23c2,.82,2.46,1.91,2.59,3,.44,3.65.81,7.31,1.08,11,.23,3.15.25,6.31.44,9.47.31,5.42.68,10.84,1,16.27.1,1.6.17,3.2.3,4.8s.3,3.07.45,4.6a2,2,0,0,1,0,.77,1.09,1.09,0,0,1-1.72.43c-.16-.1-.41-.21-.42-.32-.11-1.19-1.3-2.07-1.34-3.33-.09-2.32-.53-4.62-.8-6.94-.1-.93-.15-1.86-.17-2.79,0-1.19.06-2.38,0-3.57,0-3.26-1.92-30.53-1.9-31.26A14.23,14.23,0,0,1,100.7,252.23Z"/><path class="cls-1" d="M101.84,250.44c3.82-2.49,8.46-3.25,13.07-3.63Q138,245,161.22,243.86c13.29-.66,26.6-1,39.9-1.45l68.6-2.27,20.26-.68c6.47-.26,12.93-.58,19.39-.9,1.08-.05,2.22-.18,3.25-.13,2.77.14,3.45,1.12,1.45,1.94a4.59,4.59,0,0,1-1.47.51c-5,.24-9,1.69-14.26,1.84-9.78.29-19.56,1-29.35,1.41-3.91.19-7.84.31-11.76.38l-15,.18c-6.84.15-39,1.11-69.85,2.44-15.41.67-30.48,1.43-41.88,2.09l-19.9,1.22C108.14,250.55,105.72,250.45,101.84,250.44Z"/><path class="cls-1" d="M318.69,328.65a4,4,0,0,1,2.5,3.59c.34,4.26.61,8.53.78,12.8.14,3.67.08,7.35.18,11l.58,19c.06,1.87.09,3.74.17,5.6s.22,3.58.33,5.36a3,3,0,0,1,0,.9,1,1,0,0,1-1.73.43c-.15-.13-.4-.26-.41-.4-.08-1.39-1.24-2.46-1.25-3.93,0-2.7-.41-5.4-.61-8.1-.08-1.08-.1-2.16-.09-3.25,0-1.37.09-2.77.13-4.15,0-3.78-1.08-35.57-1.05-36.41A19.24,19.24,0,0,1,318.69,328.65Z"/><path class="cls-1" d="M313.08,242.56c2,.67,2.51,1.66,2.68,2.67.54,3.37,1,6.75,1.34,10.15.29,2.92.36,5.86.58,8.79l1.11,15.1c.1,1.49.16,3,.28,4.46s.29,2.84.43,4.27a1.89,1.89,0,0,1,0,.71,1.15,1.15,0,0,1-1.73.41c-.15-.1-.4-.2-.41-.31-.1-1.1-1.28-1.91-1.32-3.07-.07-2.16-.51-4.29-.77-6.43a22.35,22.35,0,0,1-.17-2.58c0-1.11.05-2.21,0-3.31,0-1.51-.54-8.58-1.14-15.34s-1.23-13.22-1.26-13.56A12.35,12.35,0,0,1,313.08,242.56Z"/><path class="cls-1" d="M115.39,402.31c3.93-2.21,8.41-2.52,12.83-2.46,14.79,0,29.59-.36,44.38-1l19.09-.8c6.36-.35,12.73-.64,19.09-1.1,21.88-1.47,43.74-3.47,65.6-5.45l19.39-1.73L314.33,388a28.35,28.35,0,0,1,3.11-.26c2.67,0,3.37,1,1.48,2a3.93,3.93,0,0,1-1.38.59c-4.79.45-8.5,2.11-13.57,2.52-9.35.73-18.68,1.94-28,2.93-3.73.39-7.49.72-11.24,1l-14.38,1-24.84,2c-12.23.95-27.34,2-42.16,2.7S154,403.51,143,403.49s-18.48-.21-19.21-.28C121.41,403.08,119.09,402.72,115.39,402.31Z"/><path class="cls-1" d="M107.36,258.42c5.19,1.36,9.84,4.64,14.33,8,14.91,11.41,30.44,22,46.32,32q20.51,12.93,41.48,25.25l9,5.33,4.49,2.67,2.25,1.34.28.16.06,0,0-.06,13.09-15q13.82-15.72,28-31.17,8.38-9.11,17-18c5.52-5.68,11-11.39,17-16.72.51-.45,1-.94,1.51-1.39s1.07-.86,1.6-1.23c2.88-2,4.05-1.63,2.55.52a6.75,6.75,0,0,1-1.13,1.48c-.59.48-1.16,1-1.69,1.45s-1,1-1.5,1.55c-1,1-1.88,2.09-2.8,3.13a78.26,78.26,0,0,1-5.92,6.56c-8.48,8.32-16.39,17.26-24.36,26.12-3.18,3.55-6.41,7.08-9.63,10.59-4.13,4.48-8.31,8.91-12.4,13.43l-7.66,8.62-6,6.89c-1.1,1.27-2.25,2.6-3.45,4l-2.24,2.6-.84,1-.21.24s-.06.12-.11.08l-.14-.08-.56-.33-2.15-1.28c-13.34-8-30-17.57-46.07-27.41s-31.46-20.07-42.73-28.34-18.66-14.23-19.4-14.79C113,263.7,110.85,261.61,107.36,258.42Z"/><path class="cls-1" d="M114.72,272.66c3.32-.16,5.82,1.31,8.07,3q11.31,8.63,22.9,16.83c6.68,4.66,13.34,9.36,20.23,13.73,11.85,7.5,24.07,14.45,36.29,21.45L213,334l10.41,5.89a12.12,12.12,0,0,1,1.73,1c1.34,1.08,1.17,2.14-.29,2.14a2.16,2.16,0,0,1-1-.07c-2.68-1.53-5.44-1.69-8.24-3.36-5.16-3.09-10.55-5.8-15.85-8.68-2.11-1.15-4.21-2.36-6.27-3.61-2.64-1.59-5.23-3.27-7.86-4.88-3.59-2.2-20.84-12.09-36.55-22.92s-29.89-22.33-30.57-23C117.38,275.52,116.39,274.37,114.72,272.66Z"/><path class="cls-1" d="M284.78,283.26a6.06,6.06,0,0,1-2.19,5.41c-4.31,4.09-8.43,8.37-12.5,12.72-3.5,3.74-7.09,7.43-10.52,11.29-5.9,6.62-11.77,13.34-18,19.78-1.85,1.89-3.71,3.77-5.6,5.62l-2.67,2.7-2.72,2.66a5.11,5.11,0,0,1-.94.87,1.09,1.09,0,0,1-1.73-1.12c0-.25,0-.59.12-.73,1.4-1.35,1.68-3.33,3.18-4.71,2.77-2.56,5.21-5.47,7.73-8.28,1-1.14,2.05-2.23,3.13-3.29,1.36-1.38,2.8-2.68,4.15-4.07.92-.95,3.47-3.74,6.76-7.44s7.33-8.31,11.41-12.74,8.21-8.67,11.5-11.72,5.61-5,5.86-5.2A31.27,31.27,0,0,1,284.78,283.26Z"/><path class="cls-1" d="M101.84,308.59a3.38,3.38,0,0,1,.78-2,1.61,1.61,0,0,1,1.07-.53A40.31,40.31,0,0,1,111,306a22.14,22.14,0,0,1,3.17.49,15.4,15.4,0,0,1,1.64.44l.21.07.31.12.67.26.61.33c.2.12.36.26.54.39a2.73,2.73,0,0,1,1,1.83,2.25,2.25,0,0,1-.18,1c-.19.32-.34.65-.56.95l-.81.86a2.13,2.13,0,0,1-.47.37l-.42.28a12.91,12.91,0,0,1-1.38.71,24.2,24.2,0,0,1-5.45,1.45c-1.06.17-2.13.27-3.19.39s-2,.26-3.07.34a.92.92,0,0,1-.52,0c-.45-.21-.54-1.09-.23-1.74.07-.15.15-.4.22-.4.77-.05,1.32-1.21,2.1-1.22a19.32,19.32,0,0,0,4.27-.83c.55-.13,1.11-.23,1.66-.31.71-.1,1.43-.15,2.11-.31a8,8,0,0,0,1.19-.44,4.38,4.38,0,0,0,.78-.41.71.71,0,0,0,.21-.17.2.2,0,0,0,.05-.27.62.62,0,0,0-.27-.17l-.1,0-.36-.1c-.26-.06-.51-.13-.78-.18-.53-.12-1.09-.2-1.64-.28a57.8,57.8,0,0,0-6.23-.41c-1.71,0-2.86,0-3,0A6.42,6.42,0,0,1,101.84,308.59Z"/><path class="cls-1" d="M103.24,315.81c.82-1.81,1.55-2,2.07-1.92a35.81,35.81,0,0,1,5.17,1.4c1.44.51,2.79,1.23,4.2,1.85l1.82.82a18.8,18.8,0,0,1,1.91,1l.28.18.34.3c.1.11.23.2.32.32l.23.32a4.27,4.27,0,0,1,.67,1.42,5.41,5.41,0,0,1,.07.58,2.89,2.89,0,0,1-.09.68,2.41,2.41,0,0,1-.66,1.15,3.84,3.84,0,0,1-1.5.88,14.32,14.32,0,0,1-2.65.44c-.78.08-1.54.19-2.3.25-.12,0-.26.08-.38,0-.32-.21-.39-1.09-.16-1.74,0-.15.11-.4.17-.4.57,0,1-1.18,1.56-1.16a6.16,6.16,0,0,0,2.73-.71l.11-.08s-.09-.12.18.24a1.5,1.5,0,0,0,.39.43l.07.06s.11,0,0,0h-.12a1.35,1.35,0,0,0-.34,0l-.16.05-.26.05,0,0a1.91,1.91,0,0,0,0-.2c0-.06-.11-.22-.09-.22s0,0,0-.07-.19-.13-.34-.23c-.38-.22-.91-.5-1.54-.8-1.26-.59-2.89-1.26-4.5-1.88s-3.2-1.19-4.4-1.6l-2.07-.67C103.74,316.41,103.58,316.13,103.24,315.81Z"/><path class="cls-1" d="M101.66,324.18c.67-1.92,1.41-2.28,2.13-2.31a45.2,45.2,0,0,1,7.25.22,21.34,21.34,0,0,1,2.66.49l.34.09c.17,0,.38.12.57.17l1.15.38a9.77,9.77,0,0,1,1,.49,4.87,4.87,0,0,1,.86.55,4.36,4.36,0,0,1,.77,1,2.12,2.12,0,0,1,.06,1.71,2.81,2.81,0,0,1-1.1,1.3,7.56,7.56,0,0,1-2,.93c-.38.13-.78.22-1.17.33l-.73.17a48.24,48.24,0,0,1-5.38.81c-1.06.11-2.12.15-3.18.22s-2,.18-3.17.17a1.17,1.17,0,0,1-.61-.06c-.6-.31-.44-1.19,0-1.76.1-.13.2-.37.28-.36.75,0,1.36-1.09,2.13-1.06a21.33,21.33,0,0,0,4.32-.62,14.69,14.69,0,0,1,1.74-.19c.74,0,1.49,0,2.23-.08.17,0,.44-.06.81-.13l.85-.17a1.62,1.62,0,0,0,.39-.15c.06,0,.15-.11.1-.2a.4.4,0,0,0-.21-.17,1.39,1.39,0,0,0-.36-.12l-.72-.15c-.31-.07-.65-.12-1-.18-1.34-.21-2.74-.36-4-.46-2.54-.21-4.55-.27-4.69-.3A6.71,6.71,0,0,1,101.66,324.18Z"/><path class="cls-1" d="M100.18,330.8c.94-1.83,1.62-2.15,2.37-2.14a61.34,61.34,0,0,1,7.37.4l1.42.22.71.15.36.08.58.15,1.14.3,1.14.44c.18.08.39.15.54.23l.42.28c.27.19.56.36.8.56a3.38,3.38,0,0,1,.51.7l.18.35c0,.13.09.25.12.39a2.43,2.43,0,0,1,0,.89,2.62,2.62,0,0,1-.86,1.26,9.24,9.24,0,0,1-4.11,1.43l-.57.09-.35,0-.71.09-1.39.13c-.93.08-1.85.13-2.78.16-1.09,0-2.18,0-3.28,0s-2.1,0-3.27-.08a1.3,1.3,0,0,1-.63-.11.81.81,0,0,1-.35-.83,2.09,2.09,0,0,1,.51-.93c.12-.12.24-.34.32-.33.77.11,1.47-1,2.25-.89a21.17,21.17,0,0,0,4.48-.32,15.41,15.41,0,0,1,1.79-.08c.77,0,1.53.09,2.29.06l.73-.06.35,0a1.38,1.38,0,0,0,.4-.12c.07,0,.15-.11.11-.2a.43.43,0,0,0-.22-.17,2,2,0,0,0-.37-.12l-.37-.08-1-.18c-1.41-.23-2.88-.41-4.22-.55-2.68-.27-4.85-.44-5-.49A6.67,6.67,0,0,1,100.18,330.8Z"/><path class="cls-1" d="M321.39,292.41a7.63,7.63,0,0,1-.65,2.07,1.67,1.67,0,0,1-.9.73c-2.21.81-4.44,1.69-6.59,2.59-.92.38-1.84.75-2.7,1.16-.22.1-.43.2-.63.31s-.47.27-.44.23a.27.27,0,0,0-.15.09c-.09.09,0,.2.12.23a2.27,2.27,0,0,0,.42.08A8.38,8.38,0,0,0,311,300a25.16,25.16,0,0,0,5-.55c1-.2,2-.39,3-.67s1.89-.6,2.84-.93c.16-.05.31-.17.49-.14.47.09.81.9.69,1.62,0,.16,0,.42-.12.44-.74.26-1.05,1.51-1.87,1.7-1.52.35-3,1-4.53,1.42a10,10,0,0,1-1.9.31,23.79,23.79,0,0,1-2.53,0c-.28,0-.85,0-1.63,0-.4,0-.85-.08-1.36-.17-.19-.06-.73-.15-1.09-.29s-.71-.38-1.09-.58a2.73,2.73,0,0,1-1.4-1.93,2.91,2.91,0,0,1,1.05-2.38,7.71,7.71,0,0,1,1.22-1c.29-.19.57-.35.86-.52.58-.31,1.15-.6,1.73-.86a57,57,0,0,1,9.43-3.23A6.49,6.49,0,0,1,321.39,292.41Z"/><path class="cls-1" d="M322,302.31c-.2,2-1,2.53-1.67,2.7-2.41.55-4.79,1-7.11,1.5-1,.23-2,.4-2.93.65l-.34.07-.14,0a.36.36,0,0,0-.18.07c-.13.07,0,.2.07.22l.16,0,.16,0a6.17,6.17,0,0,0,.62.09,40.57,40.57,0,0,0,5.21.27c1,0,2.08,0,3.11-.1a17.71,17.71,0,0,0,2.8-.49c.14,0,.25-.14.37-.09s.26.32.43.61a1.83,1.83,0,0,1,.25,1c0,.17,0,.42-.12.45-.78.24-1.28,1.44-2.18,1.5-1.61.1-3.18.46-4.79.58a11.31,11.31,0,0,1-1.93,0c-.82-.09-1.64-.28-2.46-.41l-1.57-.23c-.24,0-1.15-.21-1.84-.41a5.63,5.63,0,0,1-2-1l-.36-.36a4.38,4.38,0,0,1-.28-.42,1.92,1.92,0,0,1-.24-1.08,2.08,2.08,0,0,1,.37-1.06,3.29,3.29,0,0,1,.81-.92,10.83,10.83,0,0,1,1.23-.76c.44-.22.93-.37,1.4-.56a3.41,3.41,0,0,1,.56-.18l.47-.14c.31-.09.62-.16.93-.24,2.49-.6,4.88-.94,6.69-1.22s3-.43,3.12-.43A7.12,7.12,0,0,1,322,302.31Z"/><path class="cls-1" d="M323.6,312.4c-.55,2-1.4,2.33-2.12,2.37-2.47.13-4.89.17-7.26.26l-3.62.14-.06,0c-.13.05-.06.2,0,.23l.15.07.15.05.59.19a41.88,41.88,0,0,0,5.09,1.17c1,.17,2.05.35,3.08.44a19.21,19.21,0,0,0,2.84,0c.15,0,.28-.09.38,0s.21.35.32.67a1.82,1.82,0,0,1,.07,1c-.05.16-.11.41-.19.42-.81.1-1.51,1.19-2.4,1.1-1.61-.18-3.22-.1-4.83-.26a11.06,11.06,0,0,1-1.89-.36c-.8-.23-1.56-.56-2.35-.83l-.82-.27-.64-.21-.39-.14c-.21-.07-.45-.18-.69-.28a5.84,5.84,0,0,1-2.66-1.82,2.16,2.16,0,0,1-.44-1.59,2.68,2.68,0,0,1,1-1.59l.6-.37a5.17,5.17,0,0,1,.74-.3c.26-.09.51-.2.79-.27l.85-.17.44-.08a2.71,2.71,0,0,1,.37-.06l.58-.06c.4,0,.78-.07,1.18-.1,1.57-.09,3.15-.1,4.58-.08,2.86,0,5.08.14,5.24.16A7.74,7.74,0,0,1,323.6,312.4Z"/><path class="cls-1" d="M323.42,318.08c-.47,2-.9,2.4-1.46,2.53-1.82.44-3.66.94-5.46,1.42l-1,.25c-.21.06-.17,0-.19,0h-.06a.68.68,0,0,0-.34,0c-.08,0-.19.07-.2.16s.14.08.22.09h1c.82,0,1.64,0,2.46-.11a20.06,20.06,0,0,0,2.28-.39c.13,0,.23-.12.36-.05a2,2,0,0,1,.46,1.69c0,.15-.05.41-.12.42-.62.14-1,1.32-1.7,1.35-1.27.06-2.51.42-3.78.56l-.4,0h-.64c-.4,0-.95,0-1.4-.06a11.87,11.87,0,0,1-2.93-.65,4.5,4.5,0,0,1-1.21-.57,3,3,0,0,1-.63-.57,2,2,0,0,1-.26-.44,1.42,1.42,0,0,1-.11-.68,2.32,2.32,0,0,1,.45-1.11c.15-.17.28-.34.45-.51l.67-.51a17.27,17.27,0,0,1,4.33-1.76c1.18-.34,2-.54,3-.75s1.73-.36,2.46-.48a25.43,25.43,0,0,1,2.58-.35A5,5,0,0,1,323.42,318.08Z"/><path class="cls-1" d="M157.92,400.68c2,.18,2.44.63,2.57,1.13a50.55,50.55,0,0,1,1.07,5c.24,1.45.27,2.92.45,4.37.32,2.5.69,5,1,7.48.1.74.17,1.48.3,2.21s.3,1.4.45,2.1c0,.12.12.23.05.35-.17.33-1,.52-1.71.39-.15,0-.4,0-.41-.11-.11-.54-1.29-.82-1.34-1.41a19.62,19.62,0,0,0-.79-3.15,5.55,5.55,0,0,1-.17-1.28c0-.56.05-1.12,0-1.67-.06-1.52-1.93-14-1.92-14.38A4.61,4.61,0,0,1,157.92,400.68Z"/><path class="cls-1" d="M273.84,393.92c1.94.56,2.33,1.21,2.39,1.86.21,2.16.35,4.33.39,6.49,0,1.87-.14,3.73-.15,5.59,0,3.21,0,6.41,0,9.62,0,.94,0,1.89,0,2.83s.11,1.82.17,2.72c0,.16.08.32,0,.46-.22.39-1.09.48-1.75.19-.14-.06-.39-.14-.39-.21,0-.7-1.17-1.26-1.14-2a32,32,0,0,0-.36-4.12,10,10,0,0,1,0-1.64c.05-.7.2-1.4.26-2.11.15-1.91,0-18,.05-18.46A6,6,0,0,1,273.84,393.92Z"/><path class="cls-1" d="M334.68,205.05c2.23,1.79,2.27,4.54,1.4,6.76a17.71,17.71,0,0,1-19.73,11.13,17.67,17.67,0,0,1-9.3-4.88,18.72,18.72,0,0,1-3.17-4.23,19.39,19.39,0,0,1-1.83-5,18.7,18.7,0,0,1,.35-9,18.42,18.42,0,0,1,4.64-7.7,18,18,0,0,1,7.79-4.5,17.79,17.79,0,0,1,9-.18,18.77,18.77,0,0,1,12.09,9.55A17.44,17.44,0,0,1,337.6,202a6.13,6.13,0,0,1,.22,1.73c-.17,1.52-1.17,1.76-2,.8-.18-.21-.47-.44-.49-.67a6.65,6.65,0,0,0-1.23-3c-.29-.44-.64-.85-.92-1.29a10,10,0,0,1-.85-1.38,12.86,12.86,0,0,0-4.16-4.57,14.58,14.58,0,0,0-5.65-2.26,18.24,18.24,0,0,0-4.84-.16A14.37,14.37,0,0,0,311.8,193c-.32.17-.73.51-1.28.9a14.88,14.88,0,0,0-1.75,1.69,13.86,13.86,0,0,0-3.16,6.15,14.38,14.38,0,0,0,16.27,17.5A13.4,13.4,0,0,0,326,218a17.34,17.34,0,0,0,1.75-1,16.13,16.13,0,0,0,1.47-1.18,14.2,14.2,0,0,0,3.5-4.72,12.84,12.84,0,0,0,.87-2.37c.08-.25.17-.49.27-.74l.26-.82A14.23,14.23,0,0,0,334.68,205.05Z"/><path class="cls-2" d="M322.24,211.57V198.41h-3.39a7.58,7.58,0,0,1-1.12.91l-.28.17-.21.12-.26.13c-.33.16-.69.31-1,.44-.15,0,.9,3.3,1.15,3.18.47-.17.91-.36,1.35-.57l.4-.2h0v9A11.26,11.26,0,0,0,322.24,211.57Z"/><path class="cls-1" d="M224.41,192.78a25.79,25.79,0,0,1-4.22,5.41,20.87,20.87,0,0,1-5.73,3.93,22.38,22.38,0,0,1-6.64,1.85,25.06,25.06,0,0,1-6.81-.07,24,24,0,0,1-9.3-3.41c-4.93-3.16-8.6-7.68-11.59-12.39a95.22,95.22,0,0,1-7.37-15c-1.81-4.57-3.49-9.2-5-13.81-2-5.92-3.91-11.87-5.29-17.94-.85-3.79,3.18.2,5.19,7,1.8,6.06,3.65,12.08,5.75,18a125.78,125.78,0,0,0,7.38,17.3,43.57,43.57,0,0,0,6.48,9.26,27.14,27.14,0,0,0,9,6.61,23,23,0,0,0,5.83,1.58,24.85,24.85,0,0,0,6.09-.13,18,18,0,0,0,10.59-5.47c3.48-3.67,5.62-8.54,7.08-13.51,2.2-7.6,3.14-15.62,3.78-23.52.46-6.15.71-12.25,1-18.36.07-1.35.14-2.67.21-4,.5-5,.92-6.63,1.81-7.6a3.71,3.71,0,0,1,.62-.63c.65-.4.91,1.71.65,5.36-.23,2.69-.27,5.48-.42,8.27s-.29,5.61-.46,8.45c-.36,5.65-.72,11.48-1.42,17.29a104.47,104.47,0,0,1-2.29,13,47.27,47.27,0,0,1-4.85,12.54Z"/><path class="cls-1" d="M211.86,172.32c-1.93-.51-11.21,1.5-13.53,1.85.34,3.14,4.22,6.8,8.43,6.13C211.13,179.62,211.29,173.68,211.86,172.32Z"/><path class="cls-1" d="M202.37,127.55c-1.61-1.56-1.59-2.37-1.29-2.93a14.74,14.74,0,0,1,1.87-2.69,10.39,10.39,0,0,1,1.21-1.18,8.21,8.21,0,0,1,1.36-1c.43-.26.86-.5,1.3-.73a11.92,11.92,0,0,1,1.41-.52,19.49,19.49,0,0,1,2.9-.63,21.35,21.35,0,0,1,9.52,1.29c.87.3,1.69.67,2.52,1s1.6.54,2.32.74c.12,0,.26,0,.34.12a2.39,2.39,0,0,1-.48,2c-.11.14-.26.38-.33.36-.63-.17-1.59.82-2.23.52a16.23,16.23,0,0,0-3.55-1,8.57,8.57,0,0,1-1.33-.42c-.56-.25-1.08-.51-1.65-.72a12.48,12.48,0,0,0-3-.4,11.47,11.47,0,0,0-4.73,1,15,15,0,0,0-5.1,4.73A4.63,4.63,0,0,1,202.37,127.55Z"/><path class="cls-1" d="M194.19,125.26c-1.46,1.8-2.16,2-2.74,1.85s-.94-.29-1.43-.37l-1.43-.26a27.39,27.39,0,0,0-2.81-.37c-.8-.07-1.59,0-2.39-.12l-1.18.09a4.67,4.67,0,0,0-1.18.17,15.92,15.92,0,0,0-7.24,4,20.9,20.9,0,0,0-1.84,1.81c-.56.65-1,1.33-1.66,2.11-.08.11-.22.35-.44.42-.61.21-1.21-.59-1.46-1.37-.06-.18-.19-.43-.15-.48.44-.47-.17-1.74.34-2.25,1-1,1.64-2.22,2.65-3.27a6.18,6.18,0,0,1,1.33-1.11,22.15,22.15,0,0,1,2-1c.21-.14.65-.36,1.25-.66.3-.15.62-.34,1-.5l1.25-.49a7.49,7.49,0,0,1,1.43-.46,16,16,0,0,1,1.59-.39,18.54,18.54,0,0,1,3.43-.27,20.85,20.85,0,0,1,6.08,1,12.23,12.23,0,0,1,1.9.66l.8.34A5.32,5.32,0,0,1,194.19,125.26Z"/><path class="cls-1" d="M171,143.6c-1,1.45-1.41,1.63-1.7,1.56a19,19,0,0,1-2.77-1c-.77-.34-1.45-.85-2.2-1.23-1.28-.65-2.59-1.26-3.89-1.89-.38-.19-.75-.4-1.14-.57s-.78-.27-1.17-.4c-.06,0-.15,0-.18-.09a2.53,2.53,0,0,1,.61-1.44c.08-.11.21-.29.24-.28.3.11,1-.68,1.25-.51a7.73,7.73,0,0,0,1.81.53,2.24,2.24,0,0,1,.66.32c.26.19.49.44.75.63.71.5,7.29,3.56,7.44,3.69A2.5,2.5,0,0,1,171,143.6Z"/><path class="cls-1" d="M226,137.13c-1-1.44-1-1.85-.91-2a11.07,11.07,0,0,1,1.45-1.67c.45-.43,1-.72,1.52-1.12.83-.68,1.64-1.39,2.46-2.09.24-.21.5-.39.73-.62s.4-.47.6-.7c0,0,0-.12.12-.1a3.34,3.34,0,0,1,1.06,1.15c.07.11.19.29.17.31-.16.18.35,1.07.14,1.21-.38.26-.56.76-.85,1.14a1.22,1.22,0,0,1-.42.36c-.21.11-.48.16-.69.28-.58.31-4.62,3.93-4.77,4A1.89,1.89,0,0,1,226,137.13Z"/></g></svg>