<?xml version="1.0" encoding="UTF-8"?>
<svg id="Layer_40" data-name="Layer 40" xmlns="http://www.w3.org/2000/svg" viewBox="0 0 520 520">
  <defs>
    <style>
      .cls-1 {
        fill: #242021;
      }

      .cls-2, .cls-3, .cls-4 {
        fill: #231f20;
      }

      .cls-3 {
        opacity: .2;
      }

      .cls-4 {
        opacity: .3;
      }
    </style>
  </defs>
  <path class="cls-4" d="M386.33,174.36s-2.54-9.53-5.13-9.55-30.67,4.99-32.24,5.39-7.02,8.34-7.02,8.34c0,0,25.54,1.32,36.14-2.45,10.6-3.77,8.24-1.73,8.24-1.73Z"/>
  <path class="cls-2" d="M374.15,165.28c-1.24,.22,10.19,1.16,9.45,9.42-.15,1.68-3.07,.55-3.07,.55h7.53s-4.74-9.24-5.8-9.84-8.11-.13-8.11-.13Z"/>
  <path class="cls-2" d="M372.26,167.23c-2.85,.38-5.69,.79-8.52,1.24l-3.09,.58c-3.65,.58-7.28,1.26-10.92,1.9-1.61,.29-3.22,.67-4.81,1-2.04,.45-4.09,.9-6.16,1.25-.65,.11-.59-.04-.11-.36,.49-.3,1.4-.84,2.55-1.25,4.05-1.46,8.16-2.69,12.44-3.38,2.55-.42,5.16-1.1,7.75-1.61,2.85-.56,5.72-1.06,8.58-1.55,1.76-.3,3.53-.57,5.3-.84l1.02-.16c.37-.05,.74-.08,1.1-.09,.72-.02,1.42,.02,2.09,.05l.99,.03h.48c.14-.01,.33-.01,.54,0,.77-.05,1.75,.29,2.37,.92,.96,1.02,1.22,2.16,1.56,3.14,.31,1,.62,1.93,1.02,2.78,.16,.39,.4,.69,.58,1.04,.65,1.29,.91,1.68,.78,2.37-.03,.15-.03,.33-.07,.46-.07,.22-.29,.29-.66,.2-.18-.05-.41-.13-.66-.26-.24-.14-.49-.34-.78-.58-.83-.71-1.43-1.69-1.82-2.66-.42-.97-.7-1.96-.96-2.84-.24-.87-.57-1.67-.79-1.84-.03-.02-.04-.06-.06-.07-.03,0-.05,0-.06-.02,0-.05-.13-.01-.18-.06-.07-.03-.24,0-.36-.02-.04,0-.05,0-.11,0h-.21s-.41,.02-.41,.02c-1.6,0-2.96-.16-4.08,.01l-4.29,.67v-.06Z"/>
  <path class="cls-4" d="M181.55,387.7c-1.04,.27,3.81,8.36,3.81,8.36,0,0,36.75-5.37,57.25-8.36l-9.83-5.73-51.38,3.34,.15,2.39Z"/>
  <path class="cls-2" d="M181.39,390.6l48.8-7.41s-49.3,.25-49.69,1.19,.9,6.22,.9,6.22Z"/>
  <path class="cls-2" d="M199.37,392.03c4.14-.66,8.29-1.28,12.43-1.88,1.51-.23,3.01-.53,4.52-.72,5.34-.67,10.7-1.25,16.05-1.79,2.38-.22,4.77-.49,7.12-.76,1.52-.17,3.04-.33,4.58-.36,.77-.02,1.53-.06,2.3-.02,.77,.09,1.54,.17,2.32,.26,.96,.13,.82,.39,.03,.84-.4,.23-.95,.51-1.61,.82-.33,.15-.68,.32-1.07,.46-.38,.13-.79,.24-1.22,.31-.76,.14-1.5,.25-2.26,.41l-1.13,.23-1.14,.16-4.57,.64c-3.05,.46-6.13,.72-9.24,.98-3.72,.29-7.52,1.09-11.29,1.68-4.14,.65-8.29,1.28-12.42,1.99-2.55,.42-5.08,.88-7.62,1.35-1.57,.31-3.17,.58-4.73,.93-.78,.17-1.58,.32-2.34,.52l-1.15,.29-.6,.16-.82,.26c-.45,.07-.9,.2-1.34,.23-.46-.08-.78-.43-1.06-.78-.59-.79-1.03-2.03-1.27-2.61l-.83-2.13c-.53-1.39-1.07-2.78-1.6-4.17-.24-.6-.48-1.19-.73-1.79-.82-2.25-.8-3.04-.33-3.85,.11-.18,.2-.4,.32-.54,.38-.46,1.37,.21,2.38,1.83,1.24,2.11,2.1,4.42,2.99,6.68,.43,1.13,.85,2.27,1.29,3.31l.04,.1s0,0,0,0h0s0,0,0,0c0,0,.02,0,.02,0,0,0,.01-.01,.01-.02-.31,.09,.79-.23,1.4-.4,4.19-1.14,8.31-2,12.49-2.73l.02,.09Z"/>
  <path class="cls-4" d="M124.38,197.79s15.64,45.56,17.6,55.37c1.51,7.59-6.59-57.66-6.59-57.66l-11,2.29Z"/>
  <path class="cls-2" d="M127.11,213.23l4.63,12.01c.56,1.46,1.19,2.9,1.72,4.37,1.84,5.21,3.57,10.46,5.19,15.75,.73,2.34,1.45,4.7,2.1,7.05,.9,3,1.57,6.1,1.84,9.24,.08,.98-.21,.89-.72,.16-.49-.74-1.32-2.09-1.94-3.76-.56-1.48-1.04-2.97-1.54-4.46l-1.54-4.47c-.93-3.02-1.86-6.05-2.79-9.1-1.1-3.66-2.69-7.31-4.08-10.97-1.52-4.02-3.07-8.04-4.66-12.05-.98-2.47-1.96-4.93-2.95-7.4-.76-1.86-1.46-3.76-2.17-5.65-.36-.98-.68-1.85-1.03-2.95-.2-.68-.43-1.39-.31-1.98,.05-.14,.06-.33,.19-.42,.1-.12,.26-.17,.39-.25,.29-.14,.59-.29,.93-.39,.84-.22,1.67-.44,2.5-.66,.74-.2,1.47-.42,2.2-.64,1.45-.44,2.88-.93,4.3-1.45,.63-.22,1.22-.49,1.85-.71,2.29-.92,3.08-1.02,3.82-.72,.17,.07,.38,.12,.5,.21,.21,.15,.12,.42-.22,.79-.34,.37-.94,.83-1.78,1.3-2.52,1.28-5.23,2.29-8.01,3.13-1.22,.36-2.44,.73-3.67,1.09,0,0,0,.01,0,.02,0,0,0,0,0,.01l.37,.96c.78,1.94,1.64,3.92,2.48,5.89l2.43,6-.07,.03Z"/>
  <path class="cls-2" d="M111.84,349.67s4.93-4.25,8.74-10.04c0,0,10.51-5.98,14.49-7.25,3.98-1.27-4.14-1.52-4.14-1.52l-11.31,5.24-10.94,11.83,3.16,1.74Z"/>
  <path class="cls-2" d="M108.73,314.78s18.64,1.27,29.93-4.94l-4.82,6.3s-15.08,5.38-23.82,.45c-3.82-2.16-1.28-1.8-1.28-1.8Z"/>
  <path class="cls-2" d="M130.93,196.34s9.4,42.57,8.97,49c-.33,5.02,.46-8.72,.46-8.72l-4.98-41.12-4.45,.84Z"/>
  <path class="cls-3" d="M333.95,285.84s-3.34-3.96,0-10.87c3.34-6.92,31.76-19.4,35.75-19.17s9.38,3.74,9.38,3.74l-32.94,20.94s-1.34-2.24-3.76,.21c-2.42,2.45-2.43,3.86-2.43,3.86l-5.99,1.29Z"/>
  <path class="cls-3" d="M370.61,280.76s8.1,5.63,9.59,10.51c1.49,4.88,3.05,5.85-1.45,7.45,0,0-14.61-3.02-24.78-12.6-10.18-9.59-9.17-7.87-11.59-5.42-2.42,2.45-1.37,7.91,.87,12.89,2.24,4.97,24.89,23.92,34.75,28.13,9.86,4.21,21.31,10.97,29.61,9.16,8.3-1.81,11.7-2.33,11.7-2.33,0,0,18.34,25.37,18.28,27.91s18.05-26.75,16.9-29.89-17.45-6.76-24.83-19.77c-7.37-13.01-24.45-32.7-28.62-35.7-4.17-3.01-6.9-3.9-6.9-3.9l-23.53,13.6Z"/>
  <path class="cls-2" d="M325.22,265.85l-4.7-44.29s-21.71,3.37-29.86,18.44c-8.15,15.07-5.95,28.32-5.95,28.32l40.51-2.48Z"/>
  <path class="cls-2" d="M319.34,266.69l-13.66,1.18c-1.66,.15-3.32,.39-4.98,.53-5.87,.48-11.76,.88-17.65,1.18-2.61,.16-5.24,.33-7.83,.52-3.33,.12-6.69,.64-10.04-.09-1.04-.22-.9-.54-.03-1.12,.44-.28,1.05-.72,1.8-1.03,.37-.16,.77-.34,1.2-.45,.43-.09,.88-.16,1.36-.18,6.72-.45,13.45-.74,20.28-.98,4.09-.12,8.31-.72,12.47-1.12l13.76-1.3c2.83-.25,5.66-.5,8.49-.75,4.29-.34,8.6-.68,12.86-1.01,1.66-.12,3.3-.28,4.93-.46,1.64-.15,3.27-.3,4.91-.45,.72-.06,1.43-.15,2.16-.17,.68-.02,1.24-.03,1.71-.01,.47,.03,.85,.11,1.17,.2,.31,.09,.56,.2,.77,.34,.21,.16,.37,.35,.51,.54,.13,.18,.31,.33,.38,.48,.26,.4-.84,1.23-2.79,1.51-5.8,.66-11.9,1.05-18.04,1.56-4.56,.37-9.15,.73-13.74,1.17v-.08Z"/>
  <path class="cls-2" d="M283.99,249.76c1.23-4.44,3.29-8.65,6-12.36,2.7-3.72,6.03-6.92,9.74-9.58,2.72-1.91,5.61-3.59,8.68-4.84,2.71-1.09,5.5-1.93,8.35-2.53,2.85-.57,5.74-.89,8.63-.96,5.79-.18,11.59,.75,17.05,2.65,4.83,1.74,9.42,4.27,13.3,7.61,2.49,2.14,4.77,4.58,6.57,7.35,.43,.7,.84,1.42,1.25,2.13,.4,.72,.72,1.48,1.08,2.22,.39,.72,.57,1.54,.8,2.33,.24,.78,.4,1.59,.56,2.39,.37,2,.03,1.78-1.06,.4-.28-.35-.61-.76-.98-1.22-.44-.44-.85-.96-1.34-1.49-.46-.55-.91-1.15-1.37-1.79-.45-.64-.93-1.32-1.42-2.02-.4-.64-.87-1.24-1.33-1.84l-.67-.91-.73-.86-.73-.86-.79-.81c-.52-.55-1.05-1.08-1.62-1.57-2.23-2.03-4.73-3.76-7.42-5.18-5.39-2.81-11.43-4.54-17.68-4.99-3.74-.27-7.6,.03-11.38,.83-3.77,.83-7.44,2.17-10.86,3.89-7.49,3.82-13.89,10.04-17.38,17.77-1.12,2.35-1.88,4.87-2.48,7.41-.58,2.55-.81,5.18-.87,7.8-.05,7.95,2.25,15.99,6.51,22.69,1.67,2.59,3.64,4.95,5.82,7.05,1.08,1.07,2.26,2.01,3.43,2.97l1.84,1.31c.61,.45,1.27,.8,1.91,1.21l.84,.52,.88,.45c.59,.29,1.16,.62,1.76,.91,2.24,1.06,3.75,1.66,4.76,2.25,.51,.28,.92,.49,1.24,.75,.32,.26,.56,.52,.77,.79,.19,.25,.46,.51,.56,.71,.17,.34-.28,.47-1.27,.48-.5,.02-1.12-.05-1.87-.17-.73-.16-1.57-.38-2.51-.67-5.48-1.9-10.71-5.16-15.04-9.48-2.15-2.17-4.11-4.56-5.8-7.15-1.67-2.6-3.08-5.38-4.23-8.27-1.66-4.31-2.68-8.88-2.99-13.51-.29-4.63,.2-9.33,1.42-13.82h.09Z"/>
  <path class="cls-2" d="M330.36,310.71c.02,.78,.08,1.57,.16,2.42,0,.32,.08,.62,.06,.94-.06,1.14-.17,2.27-.25,3.36-.02,.49,0,.97,.04,1.45,.03,.31,.02,.61,0,.92,.01,.31-.2,.62-.32,.94-.1,.2-.26,.18-.54,.03-.14-.07-.33-.18-.53-.3-.1-.06-.2-.13-.3-.2-.05-.04-.09-.08-.15-.11-.02-.04-.05-.08-.06-.12-.11-.3-.24-.6-.33-.9-.05-.3-.09-.6-.12-.91-.06-.6-.07-1.21-.02-1.83,.08-.74-.21-1.46-.34-2.19-.08-.4-.12-.82-.13-1.24l-.06-1.31c0-.54-.02-1.08-.03-1.61-.02-.81,.04-1.61-.03-2.4-.04-.61-.25-1.2-.37-1.8-.03-.13-.08-.26-.09-.4-.03-.25,.02-.41,.19-.53,.08-.06,.17-.11,.28-.14,.14-.04,.31-.07,.46-.1l.35-.07c.23-.05,1.03,.14,1.22,.49,.53,1.05,.68,2.15,.79,3.23,.08,.81,.11,1.6,.2,2.38h-.07Z"/>
  <path class="cls-2" d="M323.32,258.7c-.33-4.57-.7-9.15-1.1-13.72-.12-1.67-.33-3.33-.44-5-.4-5.89-.83-11.79-1.34-17.68-.22-2.61-.52-5.23-.81-7.82-.37-3.32-.68-6.68-.57-10.04,.02-1.05,.18-.92,.54-.07,.32,.86,1.02,2.42,1.41,4.31l.81,5.05c.21,1.69,.41,3.39,.62,5.08,.39,3.39,.75,6.8,1.02,10.23,.31,4.11,.97,8.35,1.43,12.54l.36,3.46,.28,3.47,.52,6.94c.19,2.85,.39,5.7,.58,8.54,.25,4.32,.5,8.65,.74,12.94,.24,3.33,.47,6.6,.7,9.89,.05,.73,.11,1.44,.12,2.17,.04,1.36,0,2.26-.17,2.89-.07,.32-.16,.56-.28,.77-.14,.21-.31,.37-.46,.51-.14,.13-.26,.31-.35,.38-.23,.26-1.04-.85-1.24-2.82-.55-5.85-.94-12-1.39-18.19-.32-4.6-.66-9.22-1.05-13.82h.07Z"/>
  <path class="cls-2" d="M427.36,341.18c.28,.42-14.43,19.38-9.18,27.26,4.05,6.07,19.39-12,19.39-12l-10.22-15.26Z"/>
  <path class="cls-2" d="M337.51,285.52c.07,.89,.37,5.77,2.41,8.06,2.04,2.29,4.68,0,4.68,0l-4.64-10.44-2.45,2.38Z"/>
  <path class="cls-2" d="M407.13,243.64s4.32,3.66,1.03,7.47c-4.24,4.89-53.69,32.51-56.21,32.84-2.52,.33,4.98,3.57,4.98,3.57,0,0,54.72-28.33,57.45-34.23,4.6-9.95-7.25-9.65-7.25-9.65Z"/>
  <path class="cls-2" d="M342.35,291.27s-17.71,10.95-19.17,10.97c-1.46,.02,.91,3.92,.91,3.92l21.11-11.39-2.85-3.5Z"/>
  <path class="cls-4" d="M21.06,393.53s7.46,3,10.27-2.22c2.49-4.63-4.99-8.37-4.99-8.37l-5.28,10.59Z"/>
  <path class="cls-4" d="M52.68,405.98c-1.39-.28-2.88,.06-4.06,1.27-2.05,2.1-1.68,5.99,.61,7.78,2.86,2.24,7.71-.51,7.68-4.03-.02-2.54-2-4.57-4.23-5.02Z"/>
  <path class="cls-4" d="M32.35,412.5c-1.21-.24-2.5,.05-3.53,1.1-1.78,1.82-1.46,5.2,.53,6.76,2.49,1.94,6.7-.44,6.67-3.5-.02-2.2-1.73-3.97-3.67-4.36Z"/>
  <path class="cls-4" d="M72.52,422.01s-5.58-1.34-7.84,1.77c-2.26,3.11-1.76,9.32,3.92,10.87,0,0,3.72-7.77,3.92-12.64Z"/>
  <path class="cls-2" d="M29.95,373.37s6.52,12.6,26.96,24.42c4.6,2.66-23.35-23.72-24.03-28.09s-2.93,3.67-2.93,3.67Z"/>
  <path class="cls-2" d="M54.06,393.23s17.77,12.57,21.74,10.7c4.73-2.23-16.75-20.99-16.75-20.99l-4.99,10.3Z"/>
  <path class="cls-2" d="M259.5,208.9s1.69,.99,3.81,.42,14.82-5.79,26.26-27.81c0,0,13.84-2.92,17.79-6.21s3.35-5.41,3.35-5.41c0,0-20.73,9.75-22.63,8.78-1.89-.97-11.49,16.44-15.82,20.58-3.35,3.2-12.75,9.65-12.75,9.65Z"/>
  <path class="cls-2" d="M337.67,160.76s2.96-4.8,5.11-4.04,1.45,5.21-1.16,6.63c-2.61,1.43-4.58,1.04-3.95-2.59Z"/>
  <path class="cls-2" d="M354.23,142.5s3.5,6.21,4.2,2.82c.7-3.39-.86-11.27-2.1-12.8-1.24-1.53,2.9-2.87,2.9-2.87,0,0,3.14,17.13,1.14,21.11-2,3.98-5.12,1.79-5.35-1.07s-2.07-6.25-2.07-6.25l1.27-.94Z"/>
  <path class="cls-2" d="M345.26,101.81c.69,.86,14.23,20.23,14.95,33.79,.72,13.55-.05,17.08-.05,17.08,0,0,19.73-6.28,26.3-10.13s23.84-14.64,25.38-15.63-1.56-7.56-8.2-11.23c-6.64-3.67-6.35-4.52-4.94-10.59s1.43-13.41-5.14-15.39-8.1-6.3-6.39-9.7c1.71-3.4-21.48,10.7-22.05,10.98s-19.87,10.82-19.87,10.82Z"/>
  <path class="cls-2" d="M75.83,309.07c-6.64,7.68-12.84,15.76-18.74,24.07-2.08,3.08-4.17,6.15-6.19,9.27-7.24,10.92-13.99,22.19-19.95,33.87-2.61,5.2-5.16,10.47-7.32,15.82-.7,1.71-1.47,3.41-2.1,5.15-.64,1.74-1.27,3.49-1.94,5.21-1.43,3.43-2.46,6.99-3.88,10.42-.86,2.15-1.31,1.71-1.34-.36-.01-1.03,.04-2.48,.29-4.19,.26-1.7,.59-3.71,1.34-5.74,5.02-14.52,11.68-28.4,19.6-41.61,2.3-3.99,4.8-7.98,7.19-12.05,1.2-2.03,2.51-4.01,3.76-6.02,1.27-2,2.5-4.02,3.86-5.95l4.39-6.41,4.57-6.29c1.5-2.11,3.11-4.14,4.7-6.19,1.59-2.04,3.16-4.11,4.85-6.08,2.05-2.44,4.04-4.94,6.22-7.28l3.2-3.56c1.07-1.19,2.22-2.3,3.33-3.45l2.54-2.6c.86-.85,1.78-1.65,2.67-2.48l2.69-2.46c.91-.81,1.9-1.53,2.84-2.3,.96-.75,1.88-1.53,2.88-2.26,1.03-.72,2.11-1.38,3.23-1.92,2.24-1.11,4.63-1.87,7.05-2.35,3.76-.75,7.55-.9,11.28-.72,3.74,.17,7.42,.68,11.07,1.36,1.61,.31,3.18,.6,4.77,.97,1.48,.35,2.69,.66,3.71,.94,1.01,.29,1.8,.59,2.45,.84,1.3,.5,2,.97,2.55,1.49,.25,.23,.61,.46,.75,.65,.54,.58-2.16,.91-6.53,.1-6.42-1.3-12.92-2.66-19.5-2.95-3.27-.13-6.55,0-9.7,.61-3.13,.63-6.13,1.71-8.69,3.47l-.72,.49-.73,.59-1.46,1.17c-.97,.79-1.97,1.54-2.92,2.37-1.85,1.73-3.75,3.39-5.56,5.18-1.77,1.83-3.58,3.63-5.32,5.49l-5.11,5.72-.07-.05Z"/>
  <path class="cls-2" d="M123.33,332.71c3.54-1.5,7.04-2.78,10.49-4.16,3.44-1.39,6.85-2.8,10.03-4.49,1.16-.62,2.27-1.3,3.27-2.06,1-.75,1.92-1.56,2.53-2.4,.55-.75,.77-1.43,.67-2.08-.09-.63-.66-1.55-1.25-2.04-.61-.51-1.44-.79-2.45-.84-1.01-.04-2.11,.08-3.23,.28-4.51,.91-9.15,2.6-13.95,3.57-4.25,.89-8.72,1.37-13.09,.78-5.58-.69-11.16-3.02-14.98-7.12-1.08-1.4-.93-1.18,.5-.67,.37,.11,.78,.28,1.27,.44,.51,.13,1.02,.36,1.59,.58,.56,.24,1.15,.49,1.8,.73,.64,.24,1.28,.56,1.98,.81,2.42,.98,4.89,1.78,7.47,2.1,2.56,.35,5.18,.32,7.79,.02,2.62-.25,5.26-.77,7.91-1.42,2.65-.65,5.32-1.44,8.09-2.13,1.67-.4,3.39-.81,5.27-.98,.46-.06,.97-.04,1.45-.06,.5,.02,1.01,.06,1.52,.14,1.04,.2,2.13,.59,3.03,1.31,.46,.33,.82,.77,1.18,1.18,.29,.46,.62,.85,.84,1.39,.54,1,.67,2.36,.42,3.5-.24,1.19-.84,2.12-1.45,2.92-.32,.39-.64,.78-.99,1.1-.34,.35-.7,.66-1.06,.95-3.19,2.56-6.68,4.2-10.15,5.79-3.49,1.55-7.03,2.91-10.52,4.3-2.15,.86-4.29,1.71-6.33,2.68-1,.49-2.02,.98-2.78,1.61-.19,.16-.38,.3-.57,.48l-.59,.59c-.39,.38-.79,.81-1.19,1.22-2.4,2.55-4.92,5.13-7.68,7.41-2.77,2.27-5.7,4.37-8.86,6.05-4.87,2.66-10.12,4.56-15.62,5.33-1.2,.26-2.4,.29-3.63,.39-1.14,.04-2.09,.15-2.88,.05-.79-.08-1.43-.16-1.94-.3-.52-.14-.92-.3-1.25-.49-.33-.21-.57-.45-.79-.7-.2-.22-.46-.43-.57-.61-.18-.31,.19-.55,1.01-.89,.82-.36,2.05-.5,3.6-.52,4.62-.32,9.26-1.06,13.71-2.59,4.46-1.51,8.69-3.8,12.53-6.7,2.87-2.14,5.51-4.61,8.08-7.29l1.96-2.05c.32-.34,.68-.7,1.05-1.06l.54-.54c.2-.19,.46-.39,.69-.58,.95-.82,1.91-1.28,2.81-1.75,.91-.47,1.8-.87,2.69-1.26l.05,.08Z"/>
  <path class="cls-2" d="M56.97,382.39c.63-1.44,1.27-2.87,1.95-4.3,.25-.52,.39-1.08,.69-1.59,.98-1.79,2.09-3.53,3.24-5.21,.49-.76,.98-1.52,1.43-2.29,.31-.48,.6-.98,.92-1.46,.36-.45,.66-.95,1.31-1.17,.41-.13,.58,.07,.83,.64,.12,.28,.3,.68,.37,1.04,.06,.35,.01,.67-.15,.93-1.15,1.87-2.23,3.74-3.51,5.59-.78,1.1-1.17,2.47-1.71,3.73-.61,1.39-1.23,2.79-1.79,4.22-.36,.88-.7,1.76-1.02,2.66-.48,1.36-1,2.71-1.43,4.09-.33,1.07-.42,2.19-.72,3.26-.07,.23-.11,.47-.23,.69-.41,.83-.73,1.03-1.39,1.01-.15,0-.3,0-.44-.01-.46-.06-.74-.55-.83-1.27-.16-1.08-.12-2.13,.09-3.13,.17-1.02,.42-2.03,.68-3.04,.46-1.48,1.06-2.94,1.61-4.42l.08,.03Z"/>
  <path class="cls-2" d="M52.48,389.91c3.28,2.86,6.77,5.5,10.48,7.75,1.36,.82,2.79,1.47,4.19,2.17,1.54,.76,3.12,1.45,4.69,1.92,.78,.23,1.56,.4,2.26,.46,.77,.02,.99,.03,1.29-.22,.16-.14,.27-.32,.33-.55,.08-.28,.1-.67,.06-1.08-.07-.83-.37-1.78-.73-2.69-.9-2.21-2.32-4.31-3.76-6.33-.92-1.31-1.92-2.57-2.89-3.88l-.72-.99-.62-1.07c-.41-.72-.8-1.46-1.16-2.24-.43-1.02,.14-1.12,1.15-.79,.51,.16,1.17,.42,1.89,.78,.36,.18,.74,.39,1.11,.64,.18,.13,.37,.26,.56,.39,.16,.16,.32,.33,.46,.51,2.06,2.52,4.18,5.1,5.85,8.13,.84,1.52,1.64,3.09,2.18,4.95,.26,.94,.47,1.95,.43,3.13-.01,.3-.03,.59-.1,.92l-.1,.48c-.05,.18-.11,.35-.18,.52-.24,.7-.7,1.29-1.18,1.82-.19,.15-.38,.32-.58,.45-.37,.23-.77,.41-1.19,.53-.4,.12-.91,.19-1.22,.2-.7,.04-1.33-.02-1.92-.11-1.19-.17-2.26-.48-3.31-.82-2.09-.69-4.05-1.56-5.92-2.56-4.08-2.22-7.86-4.85-11.42-7.72-2.19-1.77-4.28-3.65-6.3-5.61-3.06-2.97-5.86-6.2-8.45-9.55-2.01-2.6-3.98-5.19-5.64-8.05-.37-.63-.7-1.26-1.01-1.92-.55-1.24-.82-2.11-.88-2.76-.04-.66,.12-1.1,.38-1.5,.12-.18,.23-.4,.36-.52,.22-.21,.54-.1,.94,.25,.4,.35,.93,.93,1.39,1.74,.71,1.2,1.54,2.34,2.27,3.54,.75,1.19,1.54,2.37,2.36,3.54,1.64,2.34,3.43,4.64,5.35,6.85,2.85,3.28,5.95,6.39,9.31,9.22l-.05,.07Z"/>
  <path class="cls-2" d="M74.85,421.83c-.5,1.91-.99,3.84-1.6,5.74-.21,.7-.34,1.41-.59,2.1-.86,2.43-1.88,4.79-2.92,7.11-.45,1.04-.84,2.1-1.24,3.14-.55,1.32-.97,2.72-2.14,3.76-.39,.31-.61,.14-.94-.42-.36-.58-.84-1.54-.65-2.33,.21-.68,.42-1.37,.62-2.05,.22-.67,.53-1.31,.8-1.97,.54-1.31,1.14-2.6,1.77-3.9,.78-1.55,1.09-3.32,1.58-5,.5-1.86,1.05-3.72,1.51-5.62,.29-1.16,.57-2.34,.83-3.52,.39-1.79,.84-3.59,1.16-5.39,.28-1.4,.4-2.81,.66-4.21,.05-.31,.12-.61,.22-.91,.1-.28,.2-.5,.29-.68,.11-.18,.26-.31,.39-.41,.26-.21,.53-.29,.85-.33,.15-.02,.29-.05,.42-.05,.41,0,.7,.58,.93,1.5,.02,.64,.11,1.31,.07,1.94-.03,.64-.09,1.27-.15,1.91-.09,1.28-.31,2.56-.58,3.83-.37,1.9-.8,3.82-1.22,5.76h-.09Z"/>
  <path class="cls-2" d="M270.41,198.88c4.86-5.3,9.27-11.21,13.45-17.31l1.48-2.19,.38-.56,.2-.28,.31-.43c.24-.3,.46-.62,.77-.82l.25-.11c.03-.13,.16-.08,.24-.13,.18-.06,.36-.09,.53-.16l1.72-.21c.45-.06,.91-.1,1.37-.18,9.07-1.4,17.86-5.6,24.23-12.39,2.89-2.95,5.09-6.55,6.81-10.25,1.18-2.36,2-4.89,2.78-7.41l.5-1.92,.59-1.91,.44-1.95c.16-.65,.37-1.29,.55-1.94,.51-1.62,.57-1.4,.77,.07,.21,1.46,.74,4.26,.06,7.42-.16,.69-.26,1.4-.47,2.08l-.63,2.05-.64,2.05c-.26,.67-.55,1.33-.82,1.99-.27,.67-.57,1.32-.87,1.98-.3,.65-.7,1.26-1.05,1.89l-1.09,1.87c-.36,.62-.83,1.19-1.24,1.78-3.35,4.72-7.74,8.7-12.74,11.6-2.98,1.65-6.08,3.23-9.4,4.3-.81,.32-1.65,.54-2.49,.78-.84,.23-1.67,.51-2.53,.66-.85,.18-1.71,.37-2.56,.53l-2.28,.31s-.06,0-.08,0c-.08,0-.14,.05-.19,.11l-.17,.22-.78,1.13-1.57,2.32c-1.05,1.55-2.11,3.11-3.2,4.64-2.19,3.07-4.42,6.12-6.91,8.98-1.53,1.77-3.12,3.49-4.82,5.11-1.71,1.62-3.52,3.16-5.59,4.43-1.57,.93-3.31,1.78-5.32,1.95-2.02,.15-4.16-.55-5.52-2.31-.15-.24-.32-.46-.43-.72l-.28-.78c-.1-.53-.17-1.07-.13-1.57,.05-1.02,.3-1.95,.62-2.82,.64-1.74,1.5-3.3,2.39-4.82,2.79-4.68,5.8-9.03,8.15-13.66,.52-1.01,.94-2.03,1.44-3.04,1.7-3.8,1.77-5,2.64-5.88,.16-.2,.31-.49,.44-.62,.22-.22,.42,.1,.71,.97,.27,.86,.27,2.27-.1,3.96-.28,1.24-.64,2.48-1.09,3.66-.44,1.2-1.03,2.31-1.6,3.43-1.18,2.22-2.5,4.35-3.84,6.45-1.34,2.09-2.71,4.16-3.96,6.23-.61,1.03-1.19,2.07-1.68,3.1-.48,1.02-.85,2.06-.95,2.9-.5,1.95,2.25,3.18,5.09,1.83,1.44-.6,2.84-1.64,4.18-2.75,1.34-1.13,2.61-2.4,3.84-3.72l.07,.05Z"/>
  <path class="cls-2" d="M333.12,110.8c-7.77,4.1-15.52,8.21-23.19,12.47-2.8,1.55-5.54,3.2-8.32,4.78-9.77,5.59-19.51,11.29-28.58,17.89-3.98,2.95-7.89,6.14-11,9.8-.47,.6-.99,1.18-1.43,1.79-.4,.64-.83,1.23-1.22,1.9-.77,1.37-1.48,2.76-2.15,4.17-1.33,2.83-2.44,5.73-3.58,8.66-.8,1.8-1.13,1.5-1.44-.34-.16-.92-.19-2.2-.07-3.74,.16-1.52,.62-3.25,1.37-5.01,.67-1.56,1.41-3.08,2.21-4.57l.61-1.11c.22-.37,.49-.76,.73-1.14l.75-1.14,.83-1.03c2.23-2.72,4.75-4.99,7.35-7.09,5.19-4.23,10.74-7.85,16.4-11.27,6.78-4.08,13.75-8.42,20.76-12.42,7.71-4.39,15.5-8.61,23.31-12.8,4.81-2.56,9.62-5.13,14.43-7.69,7.28-3.89,14.61-7.74,21.76-11.72,5.56-3.09,10.89-6.34,16.26-9.58,1.18-.72,2.33-1.43,3.52-2.15,2.21-1.33,3.7-2.15,4.82-2.61,1.14-.42,1.91-.49,2.59-.43,.31,.02,.68-.01,.88,.03,.34,.08,.11,.48-.52,1.25-.63,.78-1.74,1.82-3.34,2.85-9.38,6.34-19.79,12.08-30.25,17.79-7.8,4.17-15.63,8.37-23.45,12.55l-.05-.07Z"/>
  <path class="cls-2" d="M359.89,125.16c1,3.63,1.74,7.32,2.24,11.05,.17,1.36,.43,2.71,.5,4.09,.14,2.43,.17,4.87-.16,7.37-.17,1.25-.4,2.49-.97,3.84l-.24,.5c-.11,.17-.24,.35-.38,.56-.13,.21-.32,.33-.49,.49l-.25,.23-.3,.17c-.38,.23-.9,.38-1.41,.41-.52,0-1.04-.1-1.43-.3-1.42-.74-2.05-1.77-2.71-2.71-.62-.96-1.13-1.94-1.54-2.93-.55-1.27-1.06-2.54-1.47-3.85l-.29-.98-.17-1.01c-.11-.68-.17-1.36-.19-2.05,0-.87,.31-.83,1-.29,.34,.27,.84,.64,1.3,1.12,.24,.24,.48,.5,.72,.78,.12,.14,.22,.29,.35,.44,.08,.16,.16,.33,.23,.5,.5,1.22,1.02,2.42,1.58,3.57,.28,.57,.58,1.12,.87,1.66,.26,.55,.55,1.06,.84,1.51,.28,.44,.6,.84,.78,.99,.04,.03,.08,.07,.08,.07h0s0,.05-.02,.08l-.02,.05c-.03,.07-.05,.15-.06,.24-.05,.18,.04,.18-.12-.2-.04-.07,.03-.03,.04-.04l.07-.02s0,0,.07-.05c.05-.06,.11-.17,.17-.26,.13-.16,.22-.45,.34-.68l.26-.84c.37-1.42,.45-3.04,.41-4.65-.03-1.62-.21-3.26-.38-4.88-.39-3.58-1.04-7.16-1.95-10.68-.55-2.17-1.19-4.32-1.95-6.43-1.13-3.2-2.42-6.37-4.06-9.31-1.26-2.3-2.82-4.35-4.39-6.37-.32-.46-.68-.88-1.02-1.34-.31-.43-.55-.79-.74-1.11-.18-.32-.25-.64-.33-.9-.14-.52-.12-.9,0-1.29,.05-.18,.08-.38,.14-.52,.22-.45,1.12-.06,2.56,.87,.87,.85,1.77,1.71,2.59,2.66,.8,.96,1.51,1.99,2.23,3.04,1.4,2.11,2.62,4.37,3.72,6.68,1.63,3.44,2.93,7.04,3.99,10.69l-.08,.03Z"/>
  <path class="cls-2" d="M380.12,143.72c2.8-1.26,5.56-2.67,8.3-4.13,1-.54,1.94-1.17,2.93-1.71,3.5-1.93,6.99-3.9,10.44-5.96,1.54-.89,3.05-1.86,4.53-2.83,1.94-1.19,3.82-2.49,6.05-3.21,.68-.25,.67-.08,.34,.51-.22,.37-.46,.78-.7,1.21-.15,.24-.3,.52-.5,.76-.21,.23-.43,.45-.69,.66-.91,.73-1.8,1.49-2.73,2.18-.95,.66-1.92,1.31-2.89,1.94-1.93,1.29-3.97,2.44-6.06,3.53-2.49,1.31-4.9,2.97-7.4,4.39-2.74,1.58-5.55,3.06-8.39,4.48-.87,.45-1.77,.84-2.65,1.26-.88,.42-1.77,.84-2.67,1.22-1.35,.6-2.72,1.19-4.11,1.7-.69,.26-1.38,.55-2.08,.8-.7,.25-1.4,.49-2.1,.73-1.07,.42-2.16,.76-3.24,1.14-1.07,.41-2.18,.71-3.3,1-.49,.12-.97,.3-1.48,.39-1.91,.24-2.55,.03-3-.73-.1-.18-.23-.35-.29-.52-.2-.6,.5-1.2,1.75-1.58,3.71-1.04,7.55-2.19,11.4-3.66,1.42-.58,2.86-1.09,4.27-1.73l2.13-.92,2.1-1,.04,.07Z"/>
  <path class="cls-2" d="M349.44,136.15c-1.48,.75-2.92,1.57-4.35,2.44-.51,.33-.98,.73-1.49,1.05-.9,.58-1.82,1.15-2.71,1.76-.92,.58-1.81,1.19-2.7,1.82-.77,.57-1.51,1.2-2.2,1.85-.93,.8-1.8,1.66-2.99,2.19-.36,.17-.56-.11-.61-.64-.03-.51-.05-1.41,.37-2.02,.4-.5,.83-.99,1.26-1.47,.44-.47,.94-.87,1.43-1.29,.98-.83,2.03-1.59,3.14-2.27,1.34-.8,2.54-1.87,3.86-2.74,1.44-.97,2.95-1.85,4.46-2.72,.94-.51,1.88-1.03,2.83-1.51,1.43-.76,2.93-1.41,4.35-2.14,1.12-.55,2.15-1.25,3.26-1.84,.24-.13,.47-.29,.72-.4,.97-.34,1.36-.23,1.82,.42,.1,.15,.22,.29,.31,.45,.28,.52,.07,1.13-.52,1.61-1.76,1.35-3.78,2.21-5.76,3.23-1.47,.75-2.98,1.46-4.42,2.3l-.04-.06Z"/>
  <path class="cls-2" d="M341.09,136.51c-.42-4.07-1.15-8.16-2.23-12.15-.39-1.46-.92-2.87-1.39-4.3-.82-2.52-1.77-5-2.86-7.39-1.12-2.36-2.4-4.71-4.14-6.52-.75-.83-1.65-1.45-2.57-1.86-.94-.4-1.83-.39-2.77-.05-1.18,.46-2.28,1.37-3.25,2.42-.49,.52-.94,1.1-1.38,1.68-.42,.6-.94,1.15-1.38,1.77-.57,.76-.8,.54-.86-.41-.03-.48-.02-1.14,.1-1.93,.14-.78,.5-1.61,1.05-2.43,1.03-1.39,2.24-2.83,4.11-3.71,.91-.45,2.01-.74,3.15-.71,.57,.02,1.16,.1,1.64,.27,.52,.14,1.03,.31,1.45,.56,1.79,.92,3.11,2.21,4.21,3.55,1.07,1.36,2.01,2.78,2.75,4.26,1.85,3.51,3.55,7.19,4.77,10.97,1.33,4.15,2.3,8.4,2.95,12.7,.4,2.65,.66,5.32,.76,8,.09,2.03,.04,4.09-.2,6.14-.24,2.05-.61,4.12-1.46,6.13-.31,.78-.75,1.54-1.25,2.27-.3,.34-.55,.7-.97,1.08-.41,.38-.98,.6-1.48,.77-1.94,.55-3.94,.19-5.53-.8-.68-.44-1.33-.91-1.86-1.51-1.92-2.25-1.73-3.34-1.22-4.18,.11-.19,.17-.39,.26-.5,.19-.34,1.45,.25,2.51,1.4,1.63,1.71,3.92,2.15,4.94,1.76,0,0,.01-.04,.02-.05,.02-.06,.2-.27,.34-.41,.24-.41,.52-.8,.72-1.32,.43-.99,.76-2.19,.95-3.45,.62-3.76,.48-7.93,.02-12.01l.09-.02Z"/>
  <path class="cls-2" d="M343.97,162.49c-.44,.66-.98,1.22-1.62,1.69-.65,.45-1.42,.84-2.35,.94-.66,.08-1.39,.06-2.01-.23-1.13-.51-1.78-1.55-2.04-2.44-.27-.91-.28-1.79-.15-2.64,.14-.75,.38-1.49,.77-2.14,.24-.42,.55-.84,.99-1.16,.47-.29,1.1-.36,1.61-.2,.32,.12,.2,.34,.02,.68-.09,.17-.18,.39-.21,.62-.04,.22-.02,.46-.02,.59-.15,.33-.36,.83-.41,1.33-.02,.47-.19,1.03-.17,1.59,0,.34,.14,.62,.31,.79,.17,.16,.34,.22,.52,.27,.35,.14,1.11-.13,1.67-.77,.34-.38,.6-.82,.74-1.34,.22-.78,.16-1.6-.24-2.06-.23-.3-.82-.2-1.1-.03-.06,.04-.09,.11-.14,.1-.09,0-.16-.05-.3-.08-.15-.05-.37-.08-.67-.12-.14-.02-.28-.01-.42-.02-.23-.02-.41-.1-.54-.34-.14-.23-.17-.62,.03-1.05,.29-.64,.84-1.14,1.46-1.36,.61-.25,1.27-.33,1.97-.23,.68,.09,1.47,.45,2.04,1.02,.51,.49,.91,1.11,1.12,1.74,.27,.95,.25,1.84,.09,2.64-.16,.8-.44,1.54-.87,2.25l-.07-.04Z"/>
  <path class="cls-2" d="M358.55,262.07c-2.71,1.14-5.39,2.37-8.05,3.63-.97,.47-1.9,1.01-2.86,1.49-3.39,1.67-6.84,3.33-9.99,5.31l-.98,.7c-.29,.26-.49,.4-.74,.71-.47,.62-.88,1.3-1.24,2.01-.44,.91-.84,1.85-1.2,2.8l-.51,1.43c-.07,.24-.18,.47-.3,.71-.12,.23-.19,.47-.34,.71-.42,.58-.6,.52-1.14-.14-.28-.33-.53-.81-.76-1.41-.18-.59-.19-1.26-.01-1.92,.34-1.17,.69-2.34,1.32-3.39,.3-.53,.62-1.05,.98-1.55,.18-.25,.37-.5,.56-.75,.22-.25,.35-.47,.68-.75,.28-.25,.62-.57,.88-.74l.76-.5c.51-.35,1-.6,1.51-.89,.99-.58,1.99-1.09,3-1.59,2.42-1.18,4.78-2.65,7.2-3.91,2.67-1.38,5.37-2.68,8.09-3.96,1.68-.78,3.37-1.53,5.06-2.28,1.29-.56,2.59-1.1,3.92-1.6,.65-.26,1.36-.47,2.03-.71,.72-.2,1.47-.42,2.19-.51,2.26-.34,4.57-.36,6.81,.13,.49,.11,.98,.2,1.45,.39,.87,.36,1.4,.67,1.71,1.01,.3,.36,.41,.69,.42,1.08,0,.18,.04,.36,.02,.51-.04,.25-.27,.39-.64,.46-.38,.06-.91,.09-1.51-.03-1.8-.26-3.5-.61-5.22-.58-.85,0-1.7,.07-2.54,.21l-.63,.12-.57,.17c-.35,.09-.8,.27-1.24,.43-2.61,.97-5.39,2.1-8.08,3.31l-.04-.07Z"/>
  <path class="cls-2" d="M434.53,308.99c4.5,5.25,9.73,9.83,15.7,13.33,1.08,.65,2.16,1.3,3.31,1.82l3.49,1.7c8.18,4.1,16.32,8.3,24.38,12.65,3.59,1.92,7.2,3.84,10.76,5.75,2.28,1.24,4.58,2.47,6.8,3.85,2.24,1.34,4.45,2.78,6.25,4.77,1.07,1.3,.82,1.24-.68,.98-.76-.11-1.74-.37-2.97-.61-1.19-.31-2.38-.92-3.66-1.63-8.99-5.25-18.26-10.26-27.55-15.4-5.57-3.08-11.59-5.81-17.44-8.7-.8-.4-1.63-.8-2.43-1.25l-2.38-1.39-2.37-1.39-2.24-1.59c-.74-.53-1.5-1.05-2.23-1.6l-2.1-1.77c-.69-.6-1.42-1.16-2.08-1.79l-1.95-1.92c-1.65-1.53-3.05-3.28-4.56-4.94-.71-.86-1.4-1.74-2.1-2.61-.71-.86-1.39-1.74-2.04-2.65-4.05-5.39-7.56-11.12-11.45-16.44-3.04-4.12-6.26-7.96-9.91-11.35-.76-.8-1.65-1.4-2.45-2.15-1.5-1.39-2.54-2.21-3.17-2.95-.32-.36-.54-.69-.69-1.01-.12-.36-.18-.7-.23-1.01-.04-.29-.16-.59-.18-.77-.14-.51,1.9-.43,4.52,1.4,3.78,2.78,7.34,6.12,10.45,9.85,3.12,3.72,5.95,7.7,8.68,11.68,4.07,5.89,7.95,11.82,12.56,17.05l-.06,.07Z"/>
  <path class="cls-2" d="M377.89,257.81c4.15-2.53,8.31-5.05,12.51-7.53l6.33-3.68c2.13-1.21,4.25-2.41,6.54-3.52,.44-.2,.81-.41,1.31-.6,.51-.18,1.04-.4,1.54-.5,1-.23,2.07-.34,3.17-.26,1.1,.08,2.24,.38,3.25,.94,1.01,.55,1.86,1.32,2.52,2.16,.29,.37,.55,.76,.79,1.14,.21,.36,.43,.72,.64,1.13,.4,.79,.84,1.85,.78,3.06-.05,1.19-.49,2.12-.9,2.9-.43,.78-.89,1.48-1.35,2.14-.21,.31-.6,.78-.9,1.09-.32,.31-.64,.64-.96,.89-.65,.56-1.3,1.04-1.96,1.51-1.32,.94-2.66,1.78-4.02,2.61-5.42,3.25-10.95,6.16-16.49,9.06-4.92,2.56-9.84,5.18-14.66,7.8-6.22,3.35-12.26,7.02-18.68,9.96-2.01,.91-1.89,.56-.59-.89,.67-.7,1.53-1.85,2.8-2.86,1.25-1.06,2.77-2.19,4.52-3.26,12.58-7.19,25.51-13.59,38.21-20.46,1.88-1.04,3.76-2.14,5.57-3.33,.9-.59,1.78-1.21,2.61-1.86,.4-.32,.81-.66,1.15-.99,.16-.17,.37-.34,.48-.5,.13-.17,.25-.29,.41-.54,.59-.88,1.18-1.79,1.46-2.58,.27-.8,.23-1.2-.17-2.06-.19-.39-.48-.87-.74-1.28-.26-.39-.55-.75-.86-1.05-.63-.61-1.35-1.02-2.16-1.22-.89-.22-1.89-.19-2.91,.04-.26,.05-.51,.12-.73,.22-.23,.1-.45,.15-.7,.26l-1.58,.73c-2.13,1.08-4.27,2.24-6.38,3.44-4.24,2.4-8.43,4.91-12.61,7.44-5.15,3.11-10.28,6.26-15.39,9.44-7.69,4.79-15.35,9.56-22.98,14.46-.09,.06-.18,.1-.27,.16-.56,.31-1.22,.34-1.84,.25-.28-.04-.5-.09-.71-.13-.21-.04-.28-.05-.41-.06-.51-.07-.92,.34-1.09,.78-.31,.62-.39,1.6-1.22,2.65-.21,.24-.48,.46-.72,.62l-.54,.36-1.09,.73c-2.9,1.93-5.8,3.84-8.73,5.72-1.29,.83-2.54,1.66-3.85,2.48-4.87,3.02-6.5,3.78-8.01,3.71-.34-.02-.76,.02-1-.06-.84-.26,.84-2.04,4.32-4.39,7.61-5.04,15.51-10.28,23.55-15.6,2.58-1.66,5.2-3.35,7.82-5.05,8.24-5.27,16.56-10.49,24.9-15.67l.06,.07Z"/>
  <path class="cls-2" d="M317.76,297.43l.16-.09c.09-.03,.19-.05,.28-.07l.14-.02h.07s.04-.01,.04-.01h0s0,0,0,0c0-.02,.02,.2,.01,.11h0s.02,0,.02,0l.65,.05c.21,0,.43,.08,.65,.16,.22,.06,.43,.21,.65,.33,.21,.12,.43,.27,.64,.42,.21,.15,.42,.29,.61,.49l.58,.55c.2,.15,.41,.42,.5,.52,.46,.55,.92,1.14,1.25,1.83,.18,.34,.32,.7,.44,1.06l.1,.27s0,.04,0,.06v.1c.03,.09,0,.24,0,.37l-.04,.2s.12-.03,.17-.05c.12-.06,.22-.12,.33-.15l.33-.1s.3-.13,.48-.21l.62-.29,2.48-1.18c1.65-.8,3.3-1.61,4.94-2.44,1.46-.74,2.86-1.58,4.27-2.38,.9-.52,1.79-1.07,2.7-1.58,.96-.43,1.96-.78,3.05-.96,.8,.1,.68,.07,.46,.82-.23,.72-.7,1.95-1.58,2.81-.86,.63-1.78,1.15-2.68,1.71-.91,.55-1.81,1.1-2.76,1.59-1.88,.99-3.8,1.93-5.78,2.79-1.18,.51-2.34,1.13-3.5,1.77l-2.23,1.26c-.96,.54-2.04,1.14-2.82,1.13-.34,.03-.63,0-.89-.07-.12-.02-.32-.11-.32-.21l-.13-.28-.39-.81c-.05-.05-.05-.19-.06-.32l-.03-.38c0-.26-.06-.49-.03-.78l-.18-1.09-.2-.45c-.15-.29-.31-.59-.49-.9l-.3-.44c-.05-.07-.11-.14-.17-.22-.04-.05-.06-.07-.09-.12-.12-.15-.25-.29-.41-.43-.1-.09-.2-.18-.32-.26-.06-.04-.12-.09-.18-.1-.06,.02-.1,.08-.14,.12-.18,.19-.37,.4-.56,.62l-.15,.17-.27,.33-.56,.69-2.43,3.08c-.46,.59-.95,1.23-1.33,1.84-.07,.12-.14,.23-.19,.34-.03,.06-.05,.11-.07,.17-.05,.08,.11,.05,.17,.06,.34-.01,.67-.1,.98-.19,.62-.18,1.12-.4,1.51-.56,.09-.04,.17-.08,.24-.12,0-.01,.14-.05,.24-.09l.33-.1c.82-.22,1.38-.33,1.8-.22,.43,.14,.73,.43,.98,.81,.12,.17,.26,.32,.33,.47,.13,.26,.05,.53-.19,.91-.23,.38-.63,.77-1.21,.96l-1.3,.47c-.14,.06-.64,.17-1.03,.28l-1.25,.31c-.84,.2-1.67,.36-2.49,.48-.75,.06-1.46,.06-2.01-.04-.57-.09-.93-.33-1.15-.69l-.09-.14v-.02s-.02,0-.02,0h0c-.2,.12,.27-.17,.22-.14h0s-.04-.04-.04-.04l-.06-.05-.2-.19c-.06-.06-.14-.12-.2-.2-.04-.09-.06-.18-.08-.29-.07-.41,.03-1.01,.47-1.73,.41-.72,1.01-1.45,1.35-2.22,.35-.57,.71-1.17,1.11-1.76,.1-.15,.2-.29,.31-.44l.18-.25,.32-.44,1.32-1.74,1.34-1.73,1.27-1.65c.21-.29,.43-.57,.68-.77,.25-.19,.51-.29,.74-.43l.03,.1Z"/>
  <path class="cls-2" d="M429.19,340.72c.7,1.24,1.39,2.48,2.12,3.7,.26,.45,.59,.85,.85,1.29,.91,1.58,1.83,3.17,2.74,4.75,.41,.7,.88,1.37,1.35,2.01,.57,.86,1.17,1.7,1.58,2.68,.13,.31-.14,.45-.58,.44-.43-.02-1.09-.16-1.55-.57l-1.16-1.12c-.36-.39-.67-.82-1-1.24-.64-.85-1.23-1.73-1.7-2.7-.58-1.15-1.45-2.16-2.16-3.25-.79-1.2-1.55-2.42-2.31-3.63l-1.41-2.24c-.71-1.13-1.37-2.31-2.13-3.39-.58-.85-1.32-1.57-1.92-2.41-.13-.18-.28-.35-.4-.54-.39-.75-.36-1.09,.02-1.54,.09-.1,.16-.22,.26-.3,.31-.29,.81-.21,1.34,.17,1.58,1.13,2.66,2.7,3.78,4.25,.41,.58,.81,1.17,1.2,1.77l1.12,1.83-.06,.04Z"/>
  <path class="cls-2" d="M441.82,354.2c-2.71,3.34-5.57,6.57-8.81,9.48-1.19,1.06-2.32,2.18-3.64,3.13-1.15,.84-2.36,1.63-3.69,2.3-1.3,.68-2.78,1.24-4.46,1.36-.41,.06-.86,0-1.3-.04-.44-.01-.88-.2-1.31-.34-.84-.32-1.57-.86-2.14-1.53-1.15-1.37-1.47-2.99-1.62-4.44-.2-2.6,.08-5.07,.48-7.46,.26-1.53,.5-3.05,.85-4.55l.57-2.22,.29-1.1c.1-.37,.25-.72,.36-1.09,.31-.91,.39-.8,.68,.05,.35,.85,.76,2.47,.67,4.26-.02,.4-.03,.79-.07,1.18l-.14,1.16-.27,2.3c-.17,1.52-.28,3.02-.4,4.46-.08,1.43-.06,2.86,.25,4,.31,1.13,.83,1.88,1.74,2.18,.06,.03,.12,.06,.19,.08l.22,.02c.15,0,.29,.06,.47,.05,.35-.04,.69-.04,1.07-.18,.19-.06,.37-.09,.56-.16l.57-.25c.38-.14,.76-.39,1.14-.59,1.52-.89,2.95-2.09,4.34-3.3,1.53-1.34,3-2.8,4.41-4.32,1.42-1.51,2.82-3.06,4.15-4.68,1.64-1.98,3.23-4.02,4.73-6.12,2.26-3.19,4.44-6.47,6.27-9.89,1.4-2.67,2.53-5.41,3.55-8.16,.23-.6,.45-1.19,.68-1.8,.48-1.1,.75-1.83,1.15-2.29,.45-.44,.84-.66,1.25-.83,.19-.07,.37-.19,.51-.23,.24-.06,.38,.17,.55,.69,.09,.26,.16,.6,.24,1,.1,.41-.02,.81-.07,1.29-.87,5.66-3.5,10.98-6.52,15.95-2.25,3.7-4.76,7.25-7.43,10.68l-.08-.05Z"/>
  <path class="cls-2" d="M444.3,386.39c3.08,1.45,6.25,2.77,9.46,4,1.18,.44,2.38,.8,3.56,1.23,4.16,1.53,8.33,3.11,12.54,4.6,1.87,.67,3.75,1.33,5.61,1.99,2.37,.87,4.85,1.7,6.9,3.39,.64,.52,.4,.64-.34,.6-.71-.1-2.05-.03-3.4-.42-2.38-.77-4.85-1.42-7.31-2.12-2.45-.75-4.88-1.62-7.31-2.54-2.91-1.1-6.04-1.95-9.05-3.03-3.31-1.18-6.59-2.46-9.82-3.86-1.99-.86-3.96-1.78-5.91-2.74-2.95-1.46-5.82-3.13-8.58-4.92-2.14-1.41-4.27-2.79-6.21-4.54-.42-.39-.88-.73-1.26-1.18-.36-.4-.65-.75-.87-1.06-.22-.31-.3-.63-.38-.88-.14-.52-.07-.91,.14-1.32,.09-.18,.17-.39,.28-.53,.37-.46,1.32-.1,2.4,.81,1.5,1.45,3.17,2.78,4.92,4.08,1.75,1.3,3.62,2.53,5.58,3.67,2.89,1.71,5.94,3.27,9.07,4.67l-.03,.08Z"/>
  <path class="cls-2" d="M132.06,188.5c-.16-1.46-.31-2.92-.42-4.42-.06-.75-.1-1.5-.12-2.3v-.35c-.01-.16,0-.34,0-.5,.02-.34,0-.68,.08-1,.03-.33,.12-.64,.23-.94,.13-.28,.39-.5,.54-.77l1.63-1.06c.13-.09,.28-.18,.42-.24l.4-.14,.61-.2c.83-.31,1.58-.42,2.37-.61,1.55-.3,3.06-.48,4.56-.61,5.99-.48,11.83-.39,17.68-.25,4.26,.1,8.52,.16,12.76,.35,14.96,.68,29.86,1.58,44.78,1.81,6.62,.1,13.27-.02,19.82-.33,4.21-.13,8.42-.44,12.63-.73,4.2-.37,8.4-.63,12.63-.73,2.64-.05,2.33,.18,.2,1.05-1.07,.42-2.58,1.14-4.46,1.7-.94,.29-1.95,.63-3.05,.89-1.1,.21-2.27,.4-3.49,.54-4.33,.49-8.67,.87-13.01,1.13-2.17,.15-4.35,.18-6.52,.24-2.17,.06-4.35,.06-6.52,.08-8.7,.02-17.39-.27-26.11-.74-10.42-.57-21.26-.88-31.89-1.27-5.84-.21-11.68-.39-17.48-.32-2.9,.04-5.8,.13-8.63,.44-1.41,.15-2.81,.36-4.13,.68-.34,.06-.65,.17-.95,.27l-.46,.15c-.12,.04-.22,.06-.28,.1l-.44,.22c-.14,.1-.12,.3-.14,.45,0,.1,0,.2-.01,.3v.56c.03,.43,.05,.86,.08,1.3,.06,.88,.14,1.76,.23,2.65,.17,1.78,.38,3.56,.59,5.35l1.36,10.72c.69,5.42,1.39,10.85,2.08,16.27,.2,1.35,.24,2.73,.4,4.08l.47,4.07c.3,2.71,.6,5.42,.9,8.11,.92,8.39,1.9,16.62,2.23,25.02,.07,1.85,.14,3.66,.11,5.54-.29,6.97-1.31,9.21-2.33,10.48-.25,.29-.52,.67-.72,.81-.35,.23-.39-.34-.36-1.56,.03-1.24,.07-3.14,.13-5.57,0-3.64-.09-7.36-.27-11.12-.19-3.76-.49-7.57-.83-11.41-.34-3.84-.73-7.7-1.17-11.59-.47-3.88-.97-7.77-1.49-11.66-.09-1.46-.67-2.86-.79-4.32l-.56-4.35c-.38-2.9-.76-5.81-1.15-8.72-.76-5.82-1.56-11.64-2.25-17.52l.09-.03Z"/>
  <path class="cls-2" d="M365.14,178.71c-4.51,.33-9.02,.6-13.53,.7-1.65,.07-3.29,.16-4.94,.17-5.81-.04-11.61-.27-17.38-.87-2.56-.23-5.13-.45-7.67-.68-1.63-.17-3.26-.3-4.89-.49-.81-.12-1.61-.31-2.41-.48-.8-.16-1.58-.5-2.37-.74-.98-.35-.81-.5,.1-.8,.54-.18,1.18-.39,1.88-.61,.77-.2,1.65-.3,2.58-.29,6.57,.57,13.11,1,19.74,1.49,.99,.08,1.99,.14,3,.18,1.01,0,2.03,0,3.05,0,2.04,0,4.09-.13,6.12-.17,2.24-.05,4.47-.19,6.71-.28,2.23-.17,4.47-.26,6.7-.49,2.75-.23,5.5-.51,8.24-.83,2.08-.26,4.16-.53,6.23-.79,2.07-.31,4.14-.61,6.19-1,3.18-.59,6.25-1.41,9.36-2.17,.69-.16,1.35-.37,2.04-.52,1.3-.21,2.17-.28,2.81-.19,.65,.12,1.05,.34,1.4,.67,.16,.15,.36,.28,.47,.43,.18,.25,.03,.53-.39,.89-.42,.36-1.09,.83-2.01,1.16-1.35,.57-2.76,.97-4.19,1.33-1.43,.37-2.88,.72-4.34,1.06-2.93,.63-5.93,1.2-8.94,1.68-4.48,.73-9.01,1.29-13.54,1.75l-.02-.09Z"/>
  <path class="cls-2" d="M400.87,214.69c.12-3.29,.13-6.61,.07-9.93-.03-1.21-.15-2.42-.17-3.63-.07-4.28-.22-8.57-.28-12.87-.03-1.91-.17-3.82-.22-5.71-.04-1.21-.12-2.43-.13-3.65-.05-1.22,.13-2.44,.23-3.66,.09-.76,.3-.67,.66-.04,.18,.31,.41,.76,.66,1.29,.12,.27,.25,.56,.37,.87,.06,.16,.1,.32,.18,.48,.03,.17,.06,.34,.09,.51,.32,2.46,.74,4.9,.92,7.37,.17,2.47,.34,4.95,.29,7.45-.03,3,.35,6.09,.49,9.15,.16,3.37,.24,6.75,.25,10.13-.01,2.08-.03,4.17-.11,6.25-.06,3.16-.4,6.32-.61,9.45-.12,1.21-.18,2.42-.24,3.63-.07,1.21-.2,2.4-.33,3.6-.05,.53-.1,1.05-.2,1.58-.09,.49-.18,.89-.28,1.23-.11,.33-.26,.59-.39,.8-.27,.42-.56,.63-.93,.77-.17,.07-.34,.16-.49,.19-.49,.1-.82-.79-.97-2.26,.08-2.13,.02-4.32,.22-6.49,.06-1.09,.14-2.19,.23-3.29,.06-1.1,.13-2.2,.2-3.31,.13-3.29,.4-6.59,.41-9.91h.09Z"/>
  <path class="cls-2" d="M398.33,351.7c-.2-1.92-.4-3.85-.56-5.78-.06-.71-.23-1.4-.25-2.11-.09-2.51-.05-5.02,.06-7.53,.04-1.11,.02-2.23,.08-3.33,.06-.71,.1-1.42,.18-2.13,.15-.7,.46-1.39,.72-2.06,.18-.42,.36-.33,.64,.08,.26,.41,.8,1.14,1.03,1.93,.33,2.77,.25,5.46,.14,8.29-.09,1.69,.29,3.41,.47,5.13,.19,1.89,.38,3.79,.63,5.69,.15,1.17,.3,2.34,.47,3.51,.28,1.77,.48,3.57,.83,5.31,.25,1.36,.75,2.66,1.02,4.01,.06,.3,.15,.58,.19,.89,.03,.28,.02,.52,0,.72-.03,.2-.1,.38-.17,.52-.14,.29-.33,.47-.59,.63-.12,.07-.23,.16-.34,.21-.35,.16-.83-.23-1.38-.97-1.23-2.26-1.75-4.75-2.32-7.28-.43-1.87-.64-3.81-.94-5.73l.08-.02Z"/>
  <path class="cls-2" d="M245.25,378.2c6.49-.81,12.97-1.7,19.47-2.61l9.77-1.33c3.25-.43,6.62-.81,9.95-.97,4.86-.26,9.69-.39,14.5-.3,16.96,.38,33.76,1.82,50.58,2.31,7.46,.23,14.96,.17,22.33-.24,9.46-.58,18.86-1.93,27.8-4.65,2.83-.8,2.56-.62,.5,1.01-.5,.45-1.17,.86-1.92,1.38-.73,.6-1.67,1.01-2.68,1.49-1.01,.5-2.14,.95-3.36,1.36-.61,.22-1.24,.43-1.89,.61-.66,.16-1.33,.31-2.02,.46-4.9,.97-9.83,1.52-14.76,1.87-4.92,.35-9.84,.5-14.76,.48-9.83,0-19.62-.5-29.43-1.11-11.73-.73-23.94-1.13-35.86-1.03-3.27,.05-6.55,.12-9.79,.36-3.24,.21-6.46,.6-9.73,1.06l-19.62,2.78c-8.07,1.12-16.15,2.15-24.25,3.05-12.27,1.35-24.66,2.28-36.94,2.56-4.77,.11-9.51,.12-14.24-.04-4.73-.14-9.46-.49-14.2-1.23-.52-.08-1.04-.15-1.56-.23l-1.55-.3c-1.03-.21-2.07-.38-3.1-.69-.96-.28-1.83-.53-2.63-.76-.8-.24-1.51-.55-2.16-.79-.65-.26-1.23-.48-1.75-.73-.51-.27-.97-.51-1.37-.76-.79-.51-1.42-.88-1.86-1.36-.44-.46-.76-.88-1.01-1.28-.23-.37-.57-.77-.67-1.03-.32-.84,2.67,.2,7.86,1.73,7.8,2.14,16.26,2.94,24.85,3.23,4.3,.12,8.64,.14,13.02,.01,4.37-.09,8.76-.28,13.16-.54,13.07-.79,26.21-2.18,39.29-3.91l.03,.1Z"/>
  <path class="cls-2" d="M146.97,367.38c-.05,.69-.11,1.38-.16,2.07-.02,.26,.06,.52,.04,.78-.1,.94-.26,1.92-.53,2.86-.06,.21-.08,.42-.12,.63l-.14,.63c-.07,.26-.12,.53-.22,.79-.15,.24-.41,.45-.65,.65-.17,.12-.35,.03-.64-.19-.27-.22-.78-.6-1-.91-.09-.25-.12-.47-.17-.7-.04-.22-.13-.45-.09-.66,.04-.42,.12-.86,.29-1.32,.23-.57,.04-1.16,.03-1.77,0-.69,0-1.39,.01-2.08,.01-.44,.03-.88,.04-1.32,0-.67,.08-1.34,.02-2-.04-.51-.3-1.03-.32-1.55,0-.11-.04-.23-.03-.34,0-.21,.15-.35,.31-.43,.09-.04,.19-.08,.31-.1,.15-.02,.33-.03,.49-.04l.39-.03c.27-.02,1.07,.2,1.28,.5,.22,.22,.32,.43,.46,.65,.14,.21,.26,.43,.29,.64,.09,.42,.14,.85,.16,1.28,.04,.64,0,1.29,.04,1.96h-.08Z"/>
  <path class="cls-1" d="M297.81,317.97s-.01,0-.02,0c-.03,.05-.06,.06-.09,.04-.77-.12-1.54-.09-2.32-.15-.78-.04-1.57-.08-2.4-.09-.82-.02-1.66,0-2.48,.06-.81,.09-1.64,0-2.39,.51-.03,.01-.05,.07-.08,.07,0,0-.01,0-.02,.02-.05,.15-.04,.69,.02,1.21,.06,.52,.17,1.05,.25,1.18,0,.01,.01,.02,.02,.02,.03,0,.06,.04,.09,.05,.07,.04,.14,.11,.2,.13h.19c.74,.08,1.45-.04,2.16-.05,.71-.02,1.4-.01,2.12,.02,.71,.03,1.45,.09,2.2,.15,.75,.03,1.5,.17,2.26,.11,.03-.02,.06,0,.08,.05,0,.01,.01,.01,.02,.01,.07-.15,.17-1.02,.2-1.67,.03-.65,.03-1.52-.03-1.68Z"/>
  <path class="cls-1" d="M282,318.66s-.01,0-.02,.01c-.03,.05-.06,.07-.1,.06-.92,.02-1.82,.21-2.73,.31l-2.73,.36-2.73,.36c-.9,.16-1.83,.11-2.7,.63-.03,.01-.06,.07-.09,.07,0,0-.01,0-.02,.02-.06,.15-.05,.69,.01,1.21s.19,1.05,.27,1.18c0,.01,.02,.02,.02,.02,.03,0,.08,.04,.11,.05,.08,.04,.16,.11,.24,.13h.22c.89,.05,1.76-.12,2.63-.2l2.62-.29,2.62-.29c.87-.12,1.75-.14,2.62-.34,.03-.02,.07,0,.1,.04,0,0,.02,.01,.02,0,.05-.17,.01-1.04-.06-1.68s-.24-1.5-.33-1.65Z"/>
  <path class="cls-1" d="M266.04,320.92s-.01,0-.02,.01c-.02,.05-.05,.08-.09,.06-.83,.07-1.62,.3-2.43,.42-.81,.15-1.61,.29-2.41,.41-.8,.13-1.61,.24-2.43,.34-.81,.14-1.65,.07-2.43,.56-.03,.01-.05,.07-.08,.07,0,0-.01,0-.02,.02-.05,.15-.05,.69,0,1.21,.05,.52,.16,1.05,.24,1.18,0,.01,.01,.02,.02,.02,.03,0,.07,.04,.1,.05,.07,.04,.15,.11,.22,.13h.21c.81,.08,1.61-.07,2.42-.14,.81-.08,1.62-.18,2.42-.29,.81-.11,1.61-.23,2.41-.36,.8-.15,1.6-.21,2.38-.45,.03-.02,.06-.01,.1,.03,0,0,.01,.01,.02,0,.04-.17-.07-1.03-.19-1.67-.12-.64-.34-1.48-.43-1.63Z"/>
  <path class="cls-1" d="M250.5,322.7s-.01,0-.02,0c-.02,.05-.05,.07-.08,.05-.76-.03-1.49,.11-2.24,.16l-2.24,.21-2.24,.21c-.74,.11-1.5,0-2.22,.48-.03,.01-.05,.07-.08,.06,0,0-.01,0-.02,.02-.05,.15-.06,.69-.03,1.21,.03,.52,.12,1.05,.19,1.19,0,.01,.01,.02,.02,.02,.03,0,.06,.04,.09,.05,.06,.05,.13,.12,.19,.14h.19c.73,.11,1.45-.02,2.18-.05l2.17-.14,2.17-.14c.72-.07,1.45-.05,2.17-.2,.03-.02,.06,0,.09,.04,0,0,.01,.01,.02,0,.05-.16,.01-1.03-.05-1.68s-.19-1.51-.26-1.66Z"/>
  <path class="cls-1" d="M237.36,323.02s0,0-.01,0c-.02,.05-.04,.07-.07,.05-.59-.07-1.17,.03-1.76,.04l-1.76,.08-1.76,.08c-.59,.07-1.18-.08-1.76,.35-.02,0-.04,.07-.06,.06,0,0,0,0-.01,.02-.05,.14-.08,.68-.07,1.2s.05,1.06,.1,1.2c0,.01,.01,.02,.01,.02,.02,0,.05,.05,.07,.06,.05,.05,.1,.12,.15,.15l.15,.02c.57,.14,1.15,.05,1.72,.07l1.72-.02,1.72-.02c.57-.03,1.15,.04,1.72-.07,.02-.02,.04,0,.07,.05,0,.01,0,.01,.01,0,.04-.16,.03-1.03,0-1.68s-.12-1.52-.17-1.67Z"/>
  <path class="cls-1" d="M266.13,295.91s-.01,0-.02,.01c-.02,.05-.05,.08-.08,.06-.83,.07-1.62,.3-2.43,.42-.81,.15-1.61,.29-2.41,.41-.8,.13-1.61,.24-2.43,.34-.81,.14-1.65,.07-2.43,.56-.03,.01-.05,.07-.08,.07,0,0-.01,0-.02,.02-.05,.15-.05,.69,0,1.21,.05,.52,.16,1.05,.24,1.18,0,.01,.01,.02,.02,.02,.03,0,.07,.04,.1,.05,.07,.04,.15,.11,.22,.13h.21c.81,.08,1.61-.07,2.42-.14,.81-.08,1.62-.18,2.42-.29,.81-.11,1.61-.23,2.41-.36,.8-.15,1.6-.21,2.38-.45,.03-.02,.06-.01,.1,.03,0,0,.02,.01,.02,0,.04-.17-.07-1.03-.19-1.67-.12-.64-.34-1.48-.43-1.63Z"/>
  <path class="cls-1" d="M250.58,297.68s-.01,0-.02,0c-.02,.05-.05,.07-.08,.05-.75-.03-1.49,.11-2.24,.16l-2.24,.21-2.24,.21c-.74,.11-1.5,0-2.22,.48-.03,.01-.05,.07-.08,.06,0,0-.01,0-.02,.02-.05,.15-.06,.69-.03,1.21,.03,.52,.12,1.05,.19,1.19,0,.01,.01,.02,.02,.02,.03,0,.06,.04,.09,.05,.06,.04,.13,.12,.19,.14h.19c.73,.11,1.45-.02,2.18-.05l2.17-.14,2.17-.14c.72-.07,1.45-.05,2.17-.2,.03-.02,.06,0,.09,.04,0,0,.01,.01,.02,0,.05-.16,.01-1.03-.05-1.68-.06-.65-.19-1.51-.26-1.66Z"/>
  <path class="cls-1" d="M237.44,298.01s0,0-.01,0c-.02,.05-.04,.07-.07,.05-.59-.07-1.17,.03-1.76,.04l-1.76,.08-1.76,.08c-.59,.07-1.18-.08-1.76,.35-.02,0-.04,.07-.06,.06,0,0,0,0-.01,.02-.05,.14-.08,.68-.07,1.2s.05,1.06,.1,1.2c0,.01,.01,.02,.01,.02,.02,0,.05,.05,.07,.06,.05,.05,.1,.12,.15,.15l.15,.02c.57,.14,1.15,.05,1.72,.07l1.72-.02,1.72-.02c.57-.03,1.15,.04,1.72-.07,.02-.02,.04,0,.07,.05,0,.01,0,.01,.01,0,.04-.16,.03-1.03,0-1.68-.03-.65-.12-1.52-.17-1.67Z"/>
  <path class="cls-2" d="M342.11,283.51c-.07,.73,.05,1.62,.29,2.52,.26,.91,.62,1.83,1.05,2.75,.86,1.84,2.01,3.62,3.23,5.36,2.47,3.47,5.4,6.68,8.54,9.67,2.3,2.18,4.78,4.17,7.27,6.13,4.41,3.46,9.11,6.53,14.01,9.3,4.88,2.78,10.02,5.08,15.38,6.72,4.75,1.45,9.72,2.26,14.64,2.39,.79,.04,1.58,0,2.37,0,.79-.03,1.58,.01,2.37-.08,1.58-.14,3.16-.2,4.72-.47,3.16-.32,6.22-1.1,9.43-1.42,2.04-.11,1.81,0,.32,1.01-.37,.27-.83,.56-1.35,.92-.13,.09-.27,.17-.41,.29-.15,.08-.29,.16-.45,.24-.31,.17-.63,.33-.98,.46-.7,.29-1.47,.58-2.3,.86-.42,.13-.85,.27-1.28,.41-.45,.09-.91,.17-1.39,.24-6.7,1.07-13.62,1.05-20.32-.26-1.68-.27-3.32-.73-4.98-1.13-1.62-.5-3.27-.94-4.85-1.56-3.21-1.13-6.29-2.55-9.29-4.11-7.14-3.75-14.34-8.11-20.7-13.38-3.49-2.89-6.8-6.02-9.82-9.44-3-3.43-5.8-7.1-7.68-11.45-.63-1.54-1.17-3.16-1.27-4.96-.04-.9,.04-1.85,.33-2.78,.34-.94,.88-1.79,1.67-2.48,.66-.59,1.64-.83,2.44-.8,.78,.03,1.45,.2,2.07,.42,1.24,.45,2.32,1.05,3.37,1.68,3.66,2.22,6.97,4.76,10.33,7.22,3.35,2.46,6.69,4.91,10.21,6.94,1.89,1.08,3.83,2.04,5.81,2.6,.98,.26,1.98,.44,2.89,.38,.9-.03,1.75-.37,2.29-.83,.17-.15,.27-.34,.3-.58,.04-.26,.02-.62-.05-.99-.15-.76-.48-1.57-.89-2.35-.59-1.12-1.36-2.15-2.13-3.21-1.48-1.95-2.67-3.02-3.43-3.84-.74-.87-1.17-1.42-1.52-1.95-.16-.25-.42-.49-.52-.66-.18-.27,.28-.37,1.34-.19,1.04,.19,2.65,.78,4.21,2.14,.91,.75,1.75,1.57,2.54,2.46,.39,.45,.78,.9,1.14,1.39,.35,.49,.67,1.01,.98,1.54,.6,1.08,1.15,2.23,1.48,3.62,.15,.7,.26,1.48,.14,2.4-.12,.92-.62,2.06-1.48,2.71-.38,.27-.55,.42-.86,.59-.28,.17-.57,.31-.87,.43-.6,.24-1.22,.4-1.81,.47-1.21,.15-2.34,.05-3.39-.17-2.09-.44-3.91-1.24-5.65-2.12-3.45-1.78-6.55-3.93-9.59-6.11-3.17-2.27-6.24-4.64-9.35-6.81-.78-.54-1.56-1.07-2.34-1.57-.79-.49-1.61-.91-2.4-1.29-.79-.37-1.59-.68-2.24-.82-.32-.08-.62-.11-.72-.09-.04,0-.04,0-.07,0-.36,.35-.64,.88-.7,1.65h-.09Z"/>
  <g>
    <path class="cls-3" d="M202.81,249.9s-7.75,78.04-41.71,101.72c-6.26,4.36-14.93,5-22.96,5,0,0,31.65,19.44,35.96,11.37,4.31-8.08,16.3-67.84,17.41-69.28s11.29-48.81,11.29-48.81Z"/>
    <path class="cls-2" d="M192.53,294.02l-4.51,17.22-1.62,6.29c-1.99,7.37-4.04,14.72-6.14,22.05-.91,3.26-1.83,6.54-2.74,9.77-1.19,4.15-2.26,8.35-3.82,12.39-.66,1.2-.58,1.04-.59-.15,0-1.19,.2-3.31,.9-5.7,2.37-8.48,4.81-16.92,7.28-25.45,1.5-5.09,2.79-10.47,4.18-15.72l4.52-17.34c.92-3.56,1.84-7.12,2.76-10.68,1.39-5.39,2.79-10.81,4.17-16.16,.52-2.09,1.03-4.15,1.53-6.21,.53-2.05,1.05-4.1,1.58-6.16,.24-.9,.47-1.79,.71-2.7,.47-1.69,.79-2.79,1.07-3.55,.29-.76,.52-1.18,.74-1.51,.1-.15,.2-.36,.27-.44,.11-.14,.1,.14,.04,.78-.06,.64-.2,1.63-.49,2.88-.84,3.71-1.69,7.51-2.56,11.37-.95,3.84-1.91,7.73-2.87,11.63-1.46,5.79-2.92,11.6-4.38,17.41h-.04Z"/>
    <path class="cls-2" d="M202.81,249.9l3.11-.62c1.41,0-21.83,98.02-27.44,115.15-.48,1.45-4.37,3.56-4.37,3.56l28.7-118.09Z"/>
    <polygon class="cls-2" points="169.64 359.3 175.13 362.35 176.07 358.99 170.58 356.62 169.64 359.3"/>
    <polygon class="cls-2" points="176.07 337.24 181.55 340.28 182.5 336.93 177.01 334.55 176.07 337.24"/>
    <polygon class="cls-2" points="183.3 311.05 188.79 314.1 189.73 310.74 184.24 308.37 183.3 311.05"/>
    <polygon class="cls-2" points="189.41 284.37 194.89 287.41 195.83 284.06 190.35 281.69 189.41 284.37"/>
    <polygon class="cls-2" points="171.25 347.96 178.34 351.62 179.28 348.27 172.19 345.28 171.25 347.96"/>
    <polygon class="cls-2" points="178.48 324.21 185.57 327.87 186.52 324.52 179.42 321.52 178.48 324.21"/>
    <polygon class="cls-2" points="184.58 296.96 191.68 300.62 192.62 297.27 185.53 294.28 184.58 296.96"/>
    <path class="cls-2" d="M167.67,269.51c-5.31,3.6-10.61,7.2-15.87,10.86-1.92,1.33-3.77,2.77-5.69,4.1-6.76,4.71-13.51,9.43-20.13,14.32-2.94,2.17-5.82,4.45-8.62,6.74-1.79,1.49-3.57,2.99-5.41,4.43-.91,.73-1.82,1.45-2.75,2.16l-1.41,1.04c-.48,.34-1.03,.58-1.52,.9-1.25,.76-1.41,.28-.89-1.01,.28-.63,.59-1.62,1.23-2.5,.62-.92,1.42-1.9,2.42-2.8,3.54-3.23,7.32-6.16,11.11-9.08,3.79-2.92,7.69-5.72,11.69-8.41,4.77-3.23,9.5-6.91,14.3-10.31,5.28-3.74,10.6-7.41,15.92-11.09,3.27-2.26,6.55-4.52,9.82-6.77,4.94-3.44,9.94-6.85,14.76-10.38,3.74-2.75,7.26-5.65,10.87-8.49,.79-.63,1.56-1.25,2.36-1.88,1.49-1.15,2.53-1.84,3.37-2.18,.41-.18,.77-.28,1.09-.32,.34-.02,.66,.02,.96,.08,.27,.06,.58,.06,.77,.14,.59,.18-.08,1.85-2.15,3.72-6.15,5.52-13.16,10.66-20.24,15.71-5.26,3.75-10.62,7.42-15.93,11.12l-.06-.07Z"/>
    <path class="cls-2" d="M132.07,354.41l9.94,4.04c1.21,.49,2.46,.89,3.65,1.41,4.24,1.81,8.42,3.77,12.57,5.79,1.85,.87,3.7,1.78,5.55,2.62,1.18,.57,2.38,1.11,3.53,1.73,1.14,.65,2.22,1.43,3.26,2.25,.64,.52,.21,1.01-.73,1.28-.94,.26-2.43,.37-3.78-.18-4.73-2.14-9.44-4.34-14.13-6.85-2.81-1.49-5.95-2.54-8.97-3.76-3.32-1.34-6.64-2.67-9.98-3.98l-6.18-2.38c-3.13-1.17-6.27-2.4-9.41-3.47-2.45-.83-4.91-1.48-7.36-2.25-.54-.17-1.08-.3-1.62-.5-1.95-.84-2.47-1.33-2.56-2.34-.02-.22-.08-.45-.07-.64,.03-.61,1.08-.94,2.61-.65,4.52,.86,9.05,2.39,13.59,4.02,3.37,1.2,6.74,2.5,10.11,3.76l-.03,.09Z"/>
    <path class="cls-2" d="M195.06,293.37l-5.02,19.34c-.61,2.35-1.13,4.73-1.78,7.07-2.29,8.26-4.66,16.49-7.04,24.71-1.06,3.65-2.04,7.34-3.02,10.98-.62,2.34-1.25,4.69-1.88,7.03-.32,1.17-.68,2.33-1.08,3.48l-.6,1.72c-.22,.57-.51,1.11-.8,1.66-.84,1.33-.8,1.13-1.02-.26-.31-1.42-.48-3.91,.21-6.61,2.56-9.53,5.16-19.04,8.02-28.58,1.73-5.7,3.06-11.76,4.56-17.66,1.66-6.49,3.32-12.98,4.98-19.47,.99-4,1.98-8.01,2.97-12.01,1.47-6.07,2.96-12.17,4.33-18.21,.53-2.35,1-4.69,1.46-7.03,.45-2.34,.91-4.67,1.45-6.99,.23-1.02,.43-2.03,.69-3.06,.46-1.91,.85-3.14,1.24-3.99,.38-.84,.72-1.3,1.13-1.64,.19-.15,.38-.37,.54-.45,.52-.27,.6,1.39,.32,4.27-1.02,8.5-2.84,17.3-4.86,26.1-1.51,6.53-3.12,13.07-4.72,19.59h-.09Z"/>
    <path class="cls-2" d="M164.74,315.78c2.67-6.31,5.21-12.64,7.25-19.12,.36-1.08,.65-2.17,.95-3.26l.49-1.8,.05-.16c.03-.14,.12-.29,.12-.44-.09-.13-.25-.04-.37-.02-.28,.09-.51,.19-.87,.37-1.89,1.02-3.78,2.16-5.65,3.31-3.74,2.31-7.45,4.71-11.14,7.14-3.28,2.15-6.52,4.4-9.73,6.62-2.06,1.42-4.11,2.87-6.2,4.27-1.04,.71-2.11,1.37-3.2,1.99l-1.64,.93c-.56,.29-1.16,.51-1.76,.73-1.56,.45-1.39,.32-.58-.88,.76-1.28,2.34-3.28,4.69-4.92,8.41-5.71,16.75-11.6,25.56-17.02,2.33-1.43,4.67-2.93,7.1-4.39l.92-.54,.71-.4c.26-.14,.51-.29,.77-.42,1.02-.54,2.09-1.01,2.94-1.11,.43-.06,.81-.05,1.16,.03,.18,.04,.35,.09,.54,.2,.19,.1,.37,.3,.43,.44,.08,.11,.06,.36,.08,.55l.04,.6,.08,1.2c-.15,.6-.3,1.2-.44,1.8l-.22,.9c-.07,.28-.17,.65-.21,.78-.94,3.37-2.01,6.71-3.16,10-1.17,3.29-2.42,6.55-3.72,9.77-1.6,3.97-3.28,7.9-4.9,11.83-.99,2.41-1.98,4.82-2.93,7.24-.47,1.21-.94,2.42-1.39,3.64l-.67,1.82-.8,2.31-.58,.98-.15,.24c-.12-.04-.18,.05-.26,.06-.16,.05-.35,.02-.54,.01-.77-.07-1.65-.45-2.46-.73-2.38-.86-4.68-1.67-7.01-2.44-2.33-.76-4.64-1.52-6.97-2.28-1.03-.32-2.03-.63-3.06-.96-3.82-1.18-4.96-1.8-5.67-2.6-.16-.19-.39-.38-.47-.54-.3-.51,1.44-.66,4.45-.21,1.96,.36,3.92,.8,5.89,1.29,.98,.25,1.96,.51,2.95,.76,.98,.28,1.95,.59,2.93,.91,1.95,.63,3.9,1.3,5.84,1.98l1.45,.51,.72,.25c.17,.06,.12,.04,.13,.04,0,0,0,0,0,0,.01,0,0-.02,0-.02,0-.01,0,0,0,0h0s.12-.36,.12-.36l.53-1.49c2.37-6.6,5.17-13.01,7.78-19.4l.09,.03Z"/>
  </g>
  <path class="cls-2" d="M459.57,361.92c-1.36,1.77-2.76,3.51-4.26,5.17-.56,.6-1.03,1.26-1.62,1.84-2.03,2.04-4.27,3.91-6.72,5.44-.55,.33-1.08,.7-1.63,1.02-.56,.31-1.12,.62-1.68,.93-.73,.38-1.51,.66-2.27,.97-.77,.29-1.61,.4-2.41,.53-.51,.06-.51-.32-.21-.82,.31-.5,.88-1.15,1.66-1.49l2-1.1c.64-.42,1.31-.77,1.96-1.17,.63-.44,1.27-.86,1.92-1.29,.61-.47,1.25-.93,1.91-1.36,.75-.57,1.48-1.21,2.17-1.9,.66-.72,1.34-1.42,1.98-2.16,.71-.81,1.44-1.59,2.11-2.45,.69-.83,1.36-1.68,2-2.55,.81-1.06,1.57-2.16,2.34-3.26,1.12-1.69,2.24-3.4,3.2-5.18,.73-1.39,1.31-2.82,1.96-4.23,.14-.31,.25-.63,.44-.92,.67-1.09,1.03-1.37,1.61-1.39,.13,0,.27-.03,.39-.01,.39,.05,.47,.68,.27,1.64-.58,2.85-1.98,5.5-3.46,8.11-1.1,1.94-2.34,3.82-3.61,5.67l-.06-.04Z"/>
</svg>