<?xml version="1.0" encoding="UTF-8"?><svg id="Layer_34" xmlns="http://www.w3.org/2000/svg" width="520" height="520" viewBox="0 0 520 520"><defs><style>.cls-1,.cls-2,.cls-3,.cls-4{fill:#231f20;}.cls-2{opacity:.2;}.cls-3{opacity:.25;}.cls-4{opacity:.35;}</style></defs><g><path class="cls-1" d="m206.16,213.28c-.25,1.66-1.05,2.81-1.86,3.77-.29.37-.54.73-.87,1.04-1.24.99-2.61,1.64-3.98,2.15-.6.24-1.2.47-1.79.71-.77.25-1.6.58-2.46.15-.27-.12-.25-.55-.1-1.12.07-.29.17-.62.27-.94.11-.29.24-.5.4-.58.29-.15.55-.38.85-.43.29-.13.57-.24.87-.33.29-.13.58-.24.89-.34.29-.13.61-.23.93-.34.76-.28,1.29-.97,1.8-1.53.59-.61,1.11-1.28,1.36-1.97.11-.41.24-.84.11-1.2-.02-.07-.03-.14-.04-.22l-.08-.18c-.05-.12-.11-.25-.2-.35-.17-.21-.37-.43-.65-.47-.23-.02-.38.14-.61.28-.37.18-.84.36-1.26.47-.19.05-.38.14-.57.13-.35,0-.58-.07-.72-.3-.07-.13-.12-.27-.16-.45-.04-.2-.06-.43-.08-.65-.02-.21-.04-.4-.04-.56,0-.28.06-.53.19-.92.13-.42.3-.64.49-.78.29-.21.55-.39.78-.49l.33-.16.15-.07s.08-.04.24-.08c.22-.05.61-.18.92-.21.33-.06.66-.04.99,0,.65.13,1.29.4,1.79.89.37.35.8.66,1.11,1.06.25.45.54.89.75,1.34.14.45.27.91.33,1.35.02.44.05.9.02,1.32h-.09Z"/><path class="cls-3" d="m177.17,168.45l5.22,36.39s5.74-1.42,8.77-1.75c3.03-.33,1.49,7.44,1.49,7.44l56.22-30.51s-5.6-40.95-7.88-44.82c-2.81-4.79-63.83,33.26-63.83,33.26Zm25.88,10.35s-13.99,9.77-16.1,8.47c-2.1-1.29-1.21-6.66-1.21-6.66-.58-7.48,14.98-10.57,15.94-10.79.95-.2,1.37,8.98,1.37,8.98Z"/><path class="cls-1" d="m231.99,188.89c5.45-2.84,10.87-5.76,16.29-8.65.99-.53,1.97-1.07,2.92-1.65l1.29-.76.56-.32c.08-.02.08-.08.07-.14v-.18s-.02-.19-.02-.19l-.1-.7-.42-2.92-.86-5.88c-.57-3.93-1.12-7.86-1.64-11.79-.47-3.49-.95-7.01-1.42-10.48-.28-2.23-.63-4.47-.77-6.73-.08-1.13-.14-2.26-.15-3.39,0-.28-.03-.57.01-.85l.14-.86.25-1.71c.26-1.42.47-1.23,1.11-.07.32.57.77,1.39,1.38,2.35.5.97.79,2.12,1.01,3.38.37,2.23.67,4.47.98,6.71.32,2.24.65,4.49.97,6.74.61,4.51,1.13,9.05,1.66,13.62.3,2.74.76,5.51,1.26,8.29l.37,2.1.18,1.06.1.58c.05.29.1.59.13.88.03.29.09.59.09.87-.04.26-.07.54-.12.79.02.56-.47.9-.87,1.22l-1.31.88-.63.42-.46.26c-5.39,3.12-10.84,6.09-16.31,9.04-3.37,1.81-6.73,3.62-10.1,5.43-5.09,2.74-10.25,5.43-15.29,8.19-3.91,2.15-7.64,4.47-11.49,6.67-.85.48-1.66.99-2.53,1.45-1.6.87-2.72,1.33-3.58,1.49-.43.08-.79.09-1.13.04-.35-.09-.67-.25-.97-.42-.27-.16-.59-.27-.77-.42-.57-.39.22-2.15,2.5-3.48,6.65-4.2,13.89-8.21,21.21-12.18,5.45-2.92,10.92-5.86,16.39-8.79l.06.09Z"/><path class="cls-1" d="m182.39,204.83s6.94-5.78,11.81-3.03,2.13,10.04-.57,12.51c-.64.59-.97-3.79-.97-3.79,0,0,1.63-5.16-1.2-6.45-2.83-1.29-7.2,1.67-7.64,2.05s-1.43-1.29-1.43-1.29Z"/><path class="cls-1" d="m193.62,173.73c.17.36,3.99,6.89-1.84,10.91-4.56,3.14,11.28-5.84,11.28-5.84l-1.38-8.98-8.06,3.91Z"/><path class="cls-1" d="m175.97,257.92c-1.06.72-2.22,1.28-3.38,1.79-.43.16-.84.37-1.27.53-1.54.48-3.1.84-4.67,1.07-.69.11-1.38.22-2.07.33-.44.08-.88.16-1.32.2-.44.03-.9,0-1.34-.05-.28-.03-.26-.23-.06-.5.2-.26.58-.67,1.06-.86,1.73-.38,3.42-.76,5.18-.98,1.05-.15,2.07-.56,3.05-.96,1.1-.41,2.14-.95,3.14-1.56.61-.38,1.2-.81,1.77-1.26.84-.71,1.69-1.45,2.42-2.29.59-.64,1.03-1.39,1.59-2.06.12-.15.22-.31.35-.45.47-.54.75-.6,1.18-.4.1.04.2.08.29.13.27.16.32.6.07,1.07-.73,1.41-1.8,2.65-3.01,3.84-.88.89-1.9,1.7-2.95,2.45l-.03-.03Z"/><path class="cls-2" d="m80.87,359.42s14.79,30.16,6.4,42.48c-8.38,12.32-18.04-23.09-18.04-23.09l11.64-19.4Z"/><path class="cls-1" d="m80.39,395.05l-.88-.97-.77-1.02c-.51-.68-1.04-1.36-1.47-2.08-.33-.52-.69-1.02-1.01-1.54-1.02-1.91-1.98-3.82-2.83-5.78-.39-.86-.85-1.69-1.23-2.55-.47-1.1-1.06-2.17-1.23-3.4-.01-.4.03-.36.37-.17.17.1.39.25.64.43.27.18.51.41.68.71.31.53.62,1.05.91,1.58.26.54.52,1.09.81,1.62.56,1.07,1.07,2.16,1.58,3.27.32.65.7,1.28,1.1,1.91l.59.94.64.9c.48.65.87,1.37,1.36,2.01.49.63.96,1.3,1.48,1.91.68.7,1.3,1.5,2.08,2.08,1.09,1,2.39,1.76,3.74,2.07.26.03.53.12.78.09l.76-.07c.24-.07.46-.16.69-.23.22-.08.4-.24.6-.33.17-.1.27-.28.43-.39.49-.51.64-.63,1.21-.62.13,0,.26-.02.39,0,.21.02.35.14.4.39.05.24.06.66-.2,1.04-.64,1.22-1.99,2.09-3.41,2.26-.35.02-.7.04-1.05.04-.35,0-.67-.09-1.01-.15-.7-.09-1.26-.39-1.88-.62-1.7-.85-3.14-2.01-4.32-3.29l.04-.04Z"/><path class="cls-1" d="m14.7,350.37s29.46-25.38,34.14-29.34c4.68-3.96,5.55-2.79,5.57,1.54s5.55,55.21,22.51,71.29c0,0,2.53,5.8,9.33,6.32,6.8.51-31.15,28.75-32.22,32.33-1.07,3.58-9.87-6.01-11-18.66s-5.23-24.03-12.58-26.55c-8.44-2.89-12.83-16.27-9.85-26.15,2.98-9.88-5.9-10.77-5.9-10.77Z"/><path class="cls-1" d="m120.6,235.28c-4.01,7.96-7.71,16.23-11.75,24.35-1.48,2.96-2.87,5.97-4.45,8.88-5.55,10.28-11.94,20.19-19.55,29.11-3.38,3.95-6.9,7.82-10.66,11.36-4.83,4.52-9.98,8.95-16.14,11.59-1.09.19-1.54.28-1.54.23,0-.06.42-.33.94-1.14.51-.82,1.39-1.71,2.4-2.83,1.02-1.11,2.24-2.33,3.68-3.48,10.38-8.01,19.14-17.91,26.85-28.78,4.6-6.52,8.59-13.86,12.3-21.18,4.14-8.02,7.88-16.28,11.78-24.51,1.21-2.53,2.43-5.06,3.74-7.57,1.3-2.5,2.67-4.99,4.25-7.39,1.16-1.83,2.53-3.58,4.12-5.18l1.26-1.15,1.44-1c.96-.58,1.92-1.05,2.88-1.57,3.89-1.94,8.02-3.32,12.18-4.3,6.47-1.52,12.92-2.34,19.33-3.05,1.41-.17,2.79-.33,4.21-.49,2.62-.29,4.34-.42,5.58-.34.62.04,1.1.09,1.52.2.42.13.77.31,1.08.5.29.17.66.31.83.46.3.26-.07.58-.97,1.1-.9.56-2.4.95-4.34,1.36-5.77.98-11.69,1.53-17.53,2.36-2.91.44-5.82.93-8.66,1.61-2.83.71-5.62,1.54-8.28,2.65-.99.41-1.94.89-2.92,1.32-.92.51-1.91,1.02-2.78,1.53-1.46.86-2.84,2.42-4.1,4.06-2.53,3.35-4.64,7.32-6.64,11.33l-.09-.03Z"/><path class="cls-1" d="m187.68,218.28c1.37-2.48,2.53-5.11,3.07-7.72.25-1.28.36-2.6.12-3.59-.12-.49-.31-.85-.51-1.12-.33-.29-.6-.57-.86-.59-.35-.13-1.04.04-1.81.48-.77.42-1.57,1.02-2.38,1.67-2.86,2.31-5.62,5.13-8.5,7.77-2.87,2.67-5.86,5.26-9.03,7.63-2.83,2.08-5.76,4.07-8.83,5.77-1.96,1.11-4,2.08-6.1,2.93-2.13.77-4.33,1.36-6.61,1.46-1.41.1-1.28-.29-.29-1.13.49-.44,1.2-.95,2-1.63.41-.33.87-.59,1.36-.87.49-.27,1-.57,1.56-.82,3.99-1.58,7.77-3.68,11.36-6.1,3.58-2.45,7.02-5.19,10.41-8.1,2.04-1.74,3.98-3.67,5.96-5.65.99-.99,1.99-1.98,3.05-2.96,1.06-.97,2.17-1.93,3.49-2.77.72-.47,1.56-.88,2.5-1.18.99-.26,2.19-.33,3.31.1.27.1.51.25.75.38.26.13.48.29.66.46l.58.52c.19.18.35.42.51.63.63.88.96,1.85,1.11,2.76.33,1.83.14,3.53-.17,5.14-.33,1.61-.8,3.16-1.39,4.64-1.44,3.66-3.46,6.97-5.67,10.1-3.39,4.73-7.47,8.9-11.74,12.71-3.33,2.95-6.68,5.78-10.34,8.29-.81.54-1.59,1.1-2.42,1.62-1.57.93-2.69,1.4-3.54,1.58-.85.2-1.45.07-2.03-.23-.26-.14-.57-.24-.76-.39-.61-.49.32-1.87,2.41-3.34,6.25-4.31,12.62-8.98,18.16-14.6,4.1-4.16,7.8-8.79,10.49-13.88l.1.04Z"/><path class="cls-1" d="m158,273.4c-.39.75-.87,1.44-1.35,2.13l-1.42,2.08c-.52.66-1.06,1.3-1.59,1.95-.55.63-1.02,1.33-1.64,1.9-.86.87-1.63,1.81-2.49,2.66-.82.7-1.66,1.36-2.49,2.03l-1.25,1-1.35.86-2.67,1.72-2.8,1.46c-1.61.94-3.33,1.67-4.99,2.48-.53.27-1.07.51-1.61.76-.56.2-1.12.4-1.68.58-1.12.39-2.28.68-3.52.64-.77-.01-.72-.22-.3-.9.21-.33.49-.87.87-1.35.19-.24.39-.52.63-.72.24-.19.51-.36.81-.5l1.57-.71c.53-.22,1-.56,1.52-.8,1.02-.5,2.05-.98,3.09-1.44,1.02-.51,1.99-1.1,3-1.61l1.53-.79,1.46-.9c1.17-.72,2.36-1.48,3.37-2.47,1.04-.95,2.13-1.86,3.05-2.91l1.61-1.67c.53-.56.98-1.19,1.47-1.79.47-.61,1-1.19,1.43-1.83l1.28-1.94c.56-.78.99-1.63,1.45-2.48.45-.84.93-1.68,1.28-2.57l.86-2.01c.27-.68.48-1.38.72-2.06.51-1.37.8-2.8,1.13-4.21.21-1.11.28-2.23.38-3.33,0-1.11.05-2.22.01-3.32-.02-.49-.08-.96-.08-1.44.03-.9,0-1.48.22-1.91.24-.42.63-.68,1.11-.91.21-.1.41-.23.58-.3.3-.11.58.02.97.35.41.33.75.88.86,1.6.76,4.28.25,8.9-.99,13.3-.54,1.61-1.01,3.25-1.74,4.8-.35.78-.65,1.57-1.04,2.33l-1.2,2.26-.09-.04Z"/><path class="cls-1" d="m181.06,246.16c.96-1.43,1.86-2.92,2.67-4.45.79-1.52,1.54-3.12,1.99-4.62.06-.18.09-.34.13-.52l.03-.22s0-.06.01-.09c0-.1,0-.22-.07-.3-.04-.06-.03-.06-.13-.18-.09-.12-.18-.25-.28-.35-.25-.29-.52-.54-.83-.72-.15-.09-.31-.17-.47-.24-.04-.02-.08-.03-.12-.04l-.04-.02-.13-.04c-.17-.04-.39-.08-.53.07-.09.07-.12.08-.26.23-.16.17-.32.36-.48.56-.64.8-1.24,1.8-1.96,2.82-.76,1.04-1.57,1.92-2.43,2.82-1.54,1.56-3.24,3.04-5.2,4.13-1.25.69-2.58,1.29-3.98,1.59-1.39.33-2.83.43-4.22-.12-.86-.31-.73-.37-.06-.92.33-.25.78-.81,1.29-1.21.26-.21.52-.49.81-.66.29-.15.59-.3.91-.39,1.12-.38,2.19-.81,3.18-1.36,1-.55,1.93-1.23,2.81-2.01.88-.78,1.72-1.65,2.52-2.59l1.16-1.42c.38-.48.77-1.02,1.2-1.58.51-.67,1.03-1.4,1.7-2.14.46-.48.94-1.01,1.51-1.33.59-.32,1.29-.35,1.97-.31,1.49.12,2.41.57,3.36,1.2.46.31.87.68,1.23,1.08.19.19.34.41.51.61.18.21.37.56.55.83l.12.24c.33.68.32,1.47.23,2.22-.1.65-.23,1.11-.37,1.61-.29.98-.64,1.88-1.02,2.76-.76,1.76-1.62,3.44-2.57,5.07-1.16,2.01-2.45,3.94-3.9,5.79-1.11,1.39-2.31,2.73-3.8,3.89-.79.63-1.7,1.06-2.52,1.41-.84.36-1.68.65-2.52.93-2.61.84-5.18,1.6-7.86,2.06-.59.11-1.17.23-1.77.29-.28.03-.53.05-.77.05-.23-.02-.45-.04-.64-.07-.39-.07-.7-.13-.96-.28-.51-.3-.8-.66-1.03-1.14-.1-.22-.24-.42-.29-.62-.1-.33.08-.63.46-.97.38-.33.97-.72,1.71-.93,1.1-.35,2.21-.48,3.31-.74,1.1-.23,2.21-.46,3.31-.74,1.1-.26,2.19-.55,3.25-.89,1.05-.33,2.09-.71,2.93-1.13l.41-.22c.1-.08.15-.08.31-.21.28-.21.56-.45.84-.7.57-.51,1.12-1.1,1.66-1.73,1.09-1.25,2.1-2.65,3.04-4.11l.09.05Z"/><path class="cls-1" d="m171.78,268.51c2.06-1.54,4.11-3.15,6.08-4.82.72-.61,1.36-1.31,2.06-1.93,1.25-1.09,2.5-2.18,3.64-3.33.29-.28.58-.57.84-.86.27-.29.55-.58.76-.86l.34-.43c.06-.12.13-.23.21-.35.08-.08.15-.33.23-.51l.21-.56c.48-1.3.57-2.56.21-3.73-.21-.77-.68-1.44-1.05-2.2-.22-.37-.41-.76-.66-1.14-.13-.18-.2-.41-.27-.66l-.27-.69c-.21-.6-.04-.69.67-.66.35.02.87.02,1.51.1.58.11,1.12.42,1.58.88.21.2.39.42.58.65.19.22.39.45.51.73.29.53.54,1.1.74,1.71.4,1.21.52,2.58.36,3.83-.16,1.25-.55,2.34-.92,3.27-.16.35-.34.69-.53,1.02-.18.31-.36.49-.54.74-.36.49-.73.84-1.1,1.23-1.8,1.76-3.41,3.62-5.2,5.29-1.97,1.82-4,3.54-6.07,5.23-1.28,1.04-2.55,2.05-3.93,3.06-.61.44-1.23.77-1.85,1.03-.62.28-1.24.5-1.87.7-1.26.39-2.53.67-3.8.89-1.97.35-3.94.65-5.95.67-.44,0-.88.03-1.32-.04-1.63-.27-2.07-.76-2.19-1.83-.03-.22-.09-.42-.1-.6-.01-.3.16-.52.51-.86.35-.36.8-.5,1.35-.6,3.23-.52,6.34-.59,9.31-1.32,1.09-.27,2.14-.63,3.05-1.08.27-.13.77-.49,1.28-.87.5-.37,1.01-.77,1.52-1.17l.07.07Z"/><path class="cls-1" d="m173.68,282.8c-2.81.98-5.61,1.78-8.49,2.47-1.05.25-2.08.58-3.16.77-.96.15-1.92.28-2.92.35-.5.03-1.01.05-1.53.04-.27-.01-.52-.01-.8-.04l-.41-.04c-.15,0-.34-.03-.53-.07-.74-.12-1.45-.37-2.04-.75-.58-.4-1.03-.97-1.24-1.64-.09-.34-.16-.68-.15-1.03-.04-.35.02-.7.09-1.04.03-.17.07-.34.12-.52l.19-.52c.1-.28.24-.51.36-.76.92-1.7,2.15-3,3.45-4.2.83-.76,1.76-1.42,2.75-1.96.25-.14.51-.25.76-.37.27-.09.54-.17.83-.23.27-.08.58-.08.88-.07.3,0,.58-.03.86-.04.71-.02.68.27.35.94-.16.36-.43.72-.6,1.42-.09.32-.25.53-.39.79-.07.14-.15.24-.22.39-.1.09-.19.18-.3.25-.37.27-.73.57-1.08.87-.34.32-.68.61-1.04.89-.69.58-1.34,1.2-1.89,1.85-.26.33-.54.63-.77.95-.13.16-.2.3-.31.45-.06.06-.09.17-.11.18,0,0-.01-.02-.04,0-.12.09-.26.39-.07.59.05.06.12.11.2.15.05.02.06.04.16.05l.38.05c.54.03,1.13,0,1.73-.07,1.2-.13,2.44-.42,3.68-.68,2.73-.59,5.47-1.37,8.17-2.27.83-.28,1.66-.57,2.45-.87l.56-.23c.07-.02.3-.17.46-.26.35-.21.7-.41,1.02-.66,2.02-1.42,3.68-3.45,4.99-5.68,1.01-1.75,1.68-3.67,2.49-5.57.17-.42.32-.85.52-1.27.91-1.47,1.48-1.79,2.43-1.66.22.03.44.04.63.1.63.19.81,1.09.54,2.31-.17.93-.49,1.79-.84,2.66-.34.87-.72,1.76-1.14,2.65-.84,1.77-1.85,3.58-3.14,5.3-.96,1.27-2.06,2.51-3.38,3.56-.66.52-1.34,1.02-2.07,1.45l-.56.34-.24.13-.17.08-.3.13-1.09.43-.04-.09Z"/><path class="cls-1" d="m125.07,314.02c1.05-.6,2.07-1.24,3.1-1.9.98-.72,2.02-1.38,2.94-2.18.68-.58,1.33-1.2,1.98-1.81,2.41-2.05,4.64-4.36,6.74-6.8.94-1.08,1.71-2.3,2.48-3.49,1.01-1.52,1.93-3.09,3.33-4.42.43-.42.69-.19.88.47.1.33.19.78.24,1.3.03.26.04.54.04.82,0,.14-.02.28-.02.43-.04.13-.07.26-.13.39-.38.9-.77,1.8-1.18,2.69-.46.86-1.03,1.66-1.57,2.47-1.14,1.59-2.38,3.12-3.79,4.51-.85.82-1.69,1.68-2.47,2.6-.83.87-1.64,1.78-2.53,2.6-1.01.87-1.97,1.78-3.05,2.56l-1.58,1.21-1.65,1.11-1.02.68-1.06.62c-.71.4-1.4.84-2.12,1.22-2.18,1.16-4.45,2.14-6.71,3.06-.89.34-1.73.79-2.6,1.15l-2.64,1.09c-.39.16-.78.31-1.19.38-.77.13-1.29.17-1.69-.02-.42-.28-.68-.6-.92-1.01-.11-.19-.24-.36-.31-.54-.12-.29-.05-.6.15-.99.1-.19.23-.42.39-.66.15-.27.38-.35.61-.51l1.07-.59c.36-.18.73-.31,1.09-.5.73-.34,1.46-.65,2.21-.93.74-.29,1.46-.65,2.21-.93.76-.26,1.49-.59,2.23-.92l1.65-.71,1.62-.8c1.11-.49,2.12-1.15,3.18-1.74l.06.09Z"/><path class="cls-1" d="m94.62,343.31l-1.8,2.15-1.74,2.2c-1.18,1.45-2.29,2.95-3.39,4.46-.82,1.09-1.52,2.26-2.29,3.39-2.8,3.91-5.42,7.94-7.83,12.1-.5.94-.98,1.9-1.44,2.86-.45.97-.96,1.9-1.35,2.88-1.07,2.5-2.04,5.01-3.39,7.44-.42.76-.69.56-.9-.26-.19-.82-.45-2.33-.22-3.98.12-.73.4-1.38.62-2.07l.7-2.04c.45-1.37,1-2.7,1.67-3.97,1.23-2.6,2.75-5.04,4.3-7.45.99-1.41,1.88-2.91,2.78-4.42.95-1.48,1.89-2.97,2.86-4.42,1.1-1.57,2.25-3.12,3.37-4.67l3.53-4.55c1.51-1.82,2.97-3.67,4.53-5.44,1.15-1.37,2.33-2.71,3.54-4.03,1.18-1.34,2.41-2.64,3.6-3.95,1.85-2.04,3.6-4.14,5.54-6.13.41-.45.88-.85,1.35-1.25.45-.37.83-.66,1.16-.88.36-.21.7-.32.98-.39.57-.14.99-.07,1.42.16.2.1.42.19.57.31.5.42.07,1.43-.91,2.59-1.52,1.8-3.17,3.52-4.83,5.34-1.67,1.8-3.36,3.66-5.04,5.52-2.47,2.8-4.98,5.62-7.31,8.57l-.08-.05Z"/><path class="cls-1" d="m65.7,365.38c2.28,6.44,4.92,12.78,8.11,18.77,1.18,2.18,2.52,4.25,3.87,6.28,1.18,1.79,2.45,3.51,3.85,5,.7.74,1.43,1.42,2.18,1.96.74.53,1.51.87,2.08.93.55.02,1.14-.14,1.67-.64.54-.49,1.02-1.3,1.39-2.19.75-1.81,1.12-3.95,1.37-6.07.41-3.81.22-7.76-.07-11.61-.19-2.49-.55-4.96-.85-7.44l-.41-3.73c-.03-.31-.09-.62-.08-.94l.03-.96c.01-.64-.05-1.26-.08-1.9-.08-1.58.25-1.45,1.08-.26.43.59.92,1.47,1.71,2.5.64,1.06,1.1,2.37,1.44,3.82.14.64.28,1.29.41,1.93l.3,1.95c.19,1.3.35,2.61.5,3.92.28,2.62.47,5.27.43,7.95-.03,2.68-.21,5.39-.74,8.15-.27,1.38-.64,2.78-1.23,4.2-.61,1.39-1.42,2.91-2.99,4.09-.95.71-2.15,1.13-3.35,1.21-1.27.06-2.37-.28-3.29-.7-1.83-.88-3.16-2.08-4.38-3.3-2.41-2.47-4.32-5.19-6.03-7.97-3.71-6.14-6.6-12.62-9.15-19.21-1.56-4.06-2.96-8.17-4.22-12.32-1.91-6.29-3.42-12.72-4.59-19.15-.9-5-1.74-9.94-1.92-15.05-.03-1.12-.07-2.23-.01-3.37.05-1.06.14-1.93.25-2.66.14-.73.31-1.31.49-1.78.37-.94.77-1.44,1.31-1.78.24-.16.49-.38.7-.45.73-.23.91,1.49,1.02,4.38.04,8.57,1.34,17.64,3.44,26.62,1.56,6.67,3.51,13.31,5.88,19.78l-.09.04Z"/><path class="cls-1" d="m38.84,331.31c-2.14,2-4.24,4.09-6.37,6.22-.78.77-1.49,1.62-2.29,2.38-2.84,2.67-5.87,5.2-9.08,7.43-1.45.96-2.78,2.08-4.24,2.98-.94.58-1.83,1.24-2.82,1.73-1,.49-2.05.87-3.08,1.26-.66.22-.71-.07-.43-.73.29-.64.83-1.79,1.7-2.69.85-.69,1.67-1.4,2.49-2.12.8-.74,1.74-1.27,2.57-1.96.85-.66,1.75-1.26,2.6-1.93.86-.66,1.72-1.32,2.63-1.93,2.13-1.54,3.98-3.56,5.88-5.49l6.37-6.39c1.32-1.32,2.71-2.59,4.08-3.87,2.14-1.88,4.37-3.68,6.64-5.37,1.73-1.37,3.43-2.71,5.19-4.03.4-.27.78-.56,1.19-.81.8-.42,1.35-.64,1.82-.65.49.04.85.21,1.21.5.17.13.35.25.48.38.21.23.22.54.08.96-.14.41-.39.98-.89,1.38-2.9,2.46-6.08,4.59-9.1,7.04-2.27,1.77-4.43,3.73-6.55,5.76l-.07-.06Z"/><path class="cls-1" d="m77.25,415.47c-2.45,2.09-4.91,4.14-7.32,6.24-.88.76-1.66,1.63-2.54,2.39-3.11,2.67-6.23,5.33-9.12,8.21-1.3,1.27-2.45,2.67-3.62,4.03-1.43,1.81-2.85,3.6-4.72,5.09-.59.46-.91.13-1.06-.75-.08-.44-.13-1.02-.12-1.68.03-.65.19-1.32.52-1.94,2.42-4.33,5.97-7.74,9.71-10.87,2.26-1.85,4.25-4.12,6.46-6.08,2.42-2.17,4.89-4.27,7.33-6.39,1.5-1.3,3.01-2.59,4.47-3.92,2.22-2.01,4.46-4.02,6.41-6.22,1.48-1.74,2.77-3.56,3.88-5.4.22-.41.45-.81.69-1.2.89-1.46,1.21-1.83,2.15-1.98.21-.03.43-.1.63-.11.34-.02.58.19.72.62.07.22.12.5.13.82,0,.31-.05.67-.12,1.07-.48,2.33-1.6,4.4-2.84,6.31-.6.98-1.34,1.84-2.08,2.68-.74.85-1.51,1.66-2.29,2.45-2.32,2.36-4.78,4.53-7.19,6.71l-.08-.08Z"/><path class="cls-1" d="m180.04,163.46c5.29-2.96,10.59-5.83,15.9-8.71,1.94-1.04,3.82-2.19,5.76-3.22l20.64-10.77c3.06-1.58,6.08-3.26,9.06-4.93l2.86-1.63c.96-.53,1.94-1.04,2.92-1.54.98-.49,1.96-1.01,2.97-1.43l1.53-.63c.52-.2,1.13-.22,1.65-.4,1.34-.39,1.23-.2.45.78-.72,1.09-2,3.19-4.16,4.5l-2.82,1.83c-.94.61-1.93,1.14-2.89,1.71-1.95,1.1-3.89,2.21-5.84,3.31-3.9,2.21-7.93,4.19-11.98,6.19-4.86,2.36-9.65,5.3-14.48,7.97l-15.95,8.77-4.2,2.36-2.07,1.2-.76.45c-.17.11-.36.2-.51.34-.04.26,0,.52.02.79l.21,1.93.25,2.1.53,4.21c.35,2.81.72,5.62,1.11,8.4.61,4.33,1.43,8.56,2.05,12.86.14.95.31,1.87.41,2.83.19,1.78.25,2.96.08,3.81-.24.85-.59,1.35-1.06,1.77-.21.19-.41.43-.6.54-.33.19-.65-.07-1.06-.68-.4-.62-.9-1.58-1.08-2.86-1.4-7.55-2.59-15.54-3.77-23.61-.3-2.06-.59-4.12-.87-6.2l-.4-3.14-.21-1.91c-.07-.51-.07-1.02-.09-1.52.11-.47.21-.9.33-1.36.28-.32.55-.64.84-.95l1.08-.83.95-.59.63-.38,2.49-1.46.06.09Z"/><path class="cls-1" d="m204.29,173.61l.05,1.17.02.54v.3s0,1.21,0,1.21v.6s.05,1.09.05,1.09c.02.37,0,.72,0,1.08,0,.36-.01.7-.06,1.03l-1.51.54c-.41.2-.9.41-1.23.6l-1.34.71c-.84.45-1.63,1-2.47,1.45-1.49.8-2.99,1.58-4.52,2.33l-2.28,1.15-1.35.67c-.57.29-1.14.59-1.68.77-.24.11-.45.07-.65.08-.21.02-.36-.04-.63.03-.28-.24-.43-.67-.64-1.09-.17-.48-.29-1.04-.38-1.61l-.25-1.4c-.16-.94-.41-1.87-.5-2.83-.06-.47-.1-.95-.13-1.43-.05-.47.09-.98.11-1.47.09-.62.28-.59.81-.18.26.2.63.5,1.05.87.37.38.64.85.82,1.38.34.94.54,1.89.74,2.85l.15.71c.04.17.01.1.01.12,0,0,0,0,0,0,0,.01-.02.04-.03.08-.04.13.02.13.13.16h.05s0,.03.15-.06l.64-.34,1.3-.67c2.09-1.06,4.08-2.51,6.17-3.72l2.11-1.21.53-.3.27-.15.12-.06c.14-.06.29-.14.45-.2.14-.03.09-.15.08-.25-.02-.11,0-.21,0-.32.02-.04,0-.42-.02-.64l-.03-.78c-.06-1-.01-1.18,0-1.64.01-.42-.01-.85-.03-1.3-.58.08-1.17.35-1.81.59l-.72.3-.84.38c-.56.26-1.11.52-1.65.8-1.69.86-3.23,1.94-4.84,2.94-.35.22-.68.47-1.04.67-.34.19-.63.32-.88.41-.26.08-.5.08-.71.06-.21-.03-.41-.1-.59-.22-.2-.15-.4-.34-.59-.53-.17-.18-.36-.33-.48-.48-.37-.42-.3-1.7.59-2.47,2.68-2.2,5.82-3.87,9.08-5.41l1.12-.52c.6-.27,1.21-.54,1.81-.79,1.2-.41,2.4-.78,3.23-.56.21.04.4.1.58.18.09.04.16.12.22.22l.06.08h0s0,.01,0,.01c-.01.03.13-.22.07-.12h0s.01.02.01.02l.02.03.08.14.65,1.1.32.55.16.27c.06.09.04.3.06.45l.11,1.97-.1.05Z"/><path class="cls-1" d="m229.44,147.64l-4.34,2.07c-.53.25-1.02.58-1.55.83-1.88.87-3.76,1.74-5.63,2.6-.83.39-1.63.85-2.42,1.31-1,.61-1.99,1.25-3.27,1.32-.4.03-.48-.24-.4-.76.04-.26.11-.6.21-.97.12-.34.31-.64.57-.86.24-.18.46-.4.72-.54l.78-.42c.52-.28,1.05-.55,1.58-.81,1.07-.52,2.15-1.01,3.28-1.45,1.35-.52,2.59-1.36,3.89-2.04,1.43-.75,2.88-1.46,4.33-2.19l2.68-1.33c1.34-.69,2.72-1.33,4.03-2.06,1.02-.56,1.95-1.26,2.94-1.88.22-.14.41-.31.66-.39.22-.09.41-.15.58-.19.17-.02.34,0,.47.04.28.07.48.2.69.41.1.1.2.18.27.27.23.29.06.82-.39,1.48-.73.81-1.64,1.32-2.54,1.88-.91.54-1.85,1.05-2.8,1.55-1.43.73-2.86,1.46-4.3,2.19l-.03-.06Z"/><polygon class="cls-1" points="197.18 195.72 197.82 199.5 204.8 195.56 204.23 191.73 197.18 195.72"/><polygon class="cls-1" points="207.63 189.56 208.27 193.34 215.25 189.4 214.68 185.56 207.63 189.56"/><polygon class="cls-1" points="217.95 183.47 218.58 187.26 225.57 183.31 225 179.48 217.95 183.47"/><polygon class="cls-1" points="228.01 177.54 228.65 181.33 235.63 177.38 235.06 173.55 228.01 177.54"/></g><path class="cls-1" d="m242.93,108.73c.37.42,0,.97-.77,1.58-.24.2-1.08.42-1.25.31-.32-.21-.63-.42-.89-.65-.15-.14-1.49-2.73-1.99-3.61-.49-.84-.82-1.73-1.12-2.63-.6-1.83-1.24-3.65-1.69-5.52-.11-.41-.16-.84-.15-1.28.03-1.5-.27-2.92-.68-4.34-.07-.24-.09-.49-.33-.68-.42-.32-1.2-4.23-1.13-4.77.19-1.32.16-2.62.38-3.94.03-.19-.07-.37.16-.57.53-.45.4-.83.4-1.23,0-.55.06-1.11.26-1.67.18-.29.57-.59.81-.88.23-.26.75-.18.85-.1.23.22.51,0,.74-.04.08-.02.19-.03.27-.03.04,0,.24.18.57.45.38.26.6.63.87,1.01.52.75.99,1.54,1.01,1.7-.02.04.33,1.13.56,2.29.26,1.15.54,2.35.63,2.59.09.25,0,.53-.05.81-.03.13.92,3.56.94,3.7.04.74.36,1.42.02,2.23-.07.16-.02.3.01.45.29,1.23.33,2.51.46,3.78.05.65.27,1.27.36,1.91.02.12-.03.25-.04.37-.01.15-.05.31-.02.46.31,1.5.37,3.07.85,4.53.1.34,0,2.11.16,2.49.07.22-.36,1.11-.21,1.28Z"/><path class="cls-1" d="m287.86,105.77c.03.5-.56.66-1.48.67-.29,0-1.04-.31-1.1-.48-.12-.33-.23-.67-.28-.99-.04-.19.47-2.91.69-3.87.17-.93.52-1.79.91-2.62.42-.83.82-1.69,1.28-2.51.47-.81,1-1.57,1.53-2.33.24-.33.53-.62.85-.87,1.13-.86,2-1.89,2.77-2.99.13-.18.3-.33.29-.63,0-.49,2.23-3.28,2.7-3.46,1.08-.56,2.01-1.25,3.02-1.86.15-.08.22-.25.5-.2.65.11.83-.2,1.11-.42.39-.31.76-.63,1.27-.84.25-.11.62-.1.95-.14.3-.04.7.45.71.56.02.3.37.36.59.52.07.05.17.12.22.18.04.05-.05.91-.22,1.76-.17.84-.37,1.72-.46,1.85.05.14-2.34,3.62-2.56,4.06-.12.22-.4.31-.62.44-.11.07-2.03,2.76-2.12,2.83-.51.45-.81,1.07-1.61,1.24-.16.04-.23.15-.31.26-.7.89-1.58,1.61-2.36,2.41-.41.4-.69.89-1.04,1.33-.07.08-.19.12-.28.18-.11.08-.25.14-.32.24-.78,1.07-1.77,2.03-2.32,3.26-.15.26-1.29,1.35-1.4,1.71-.08.18-.93.54-.91.75Z"/><path class="cls-1" d="m299.86,135.78c-.13.45-.66.2-1.55-.4-.28-.19-.92-.95-.92-1.14.01-.36.04-.73.13-1.03.05-.21,1.7-1.93,2.26-2.5.54-.56,1.16-.99,1.81-1.37,1.31-.78,2.62-1.56,3.96-2.27.3-.16.62-.27.96-.34,1.17-.24,2.22-.72,3.25-1.26.17-.09.37-.14.48-.36.15-.41,3.21-1.46,3.68-1.45,1.11-.02,2.19-.14,3.33-.08.16.01.33-.06.5.09.4.35.72.26,1.08.28.49.04,1,.11,1.51.32.25.09.47.37.66.59.17.2-.13.63-.2.67-.23.1-.15.38-.21.58-.02.07-.04.16-.07.21-.03.06-.49.19-.98.51-.49.29-.98.68-1.09.7-.03.01-.75.31-1.52.62-.78.33-1.59.76-1.75.86-.17.11-.38.09-.58.11-.1,0-2.39,1.41-2.49,1.44-.53.18-.96.57-1.62.46-.13-.02-.22.05-.32.1-.84.48-1.76.79-2.66,1.16-.46.19-.87.48-1.3.71-.08.04-.18.04-.27.06-.11.03-.24.04-.33.1-.99.62-2.11,1.04-3,1.82-.2.17-1.52.49-1.72.72-.12.12-.96-.11-1.01.08Z"/><g><path class="cls-1" d="m194.77,306.38s-3.84,3.84-3.72,4.86,11.59,3.11,11.59,3.11c0,0,4.4-5.26,4.07-5.32l-11.94-2.65Z"/><path class="cls-1" d="m200.22,356.13c-18.89-2.1-18.73-14.87-17.68-17.07,2.63-5.52,20.56,6.53,40.05,3.06,0,0-39.89-6.28-44.39-15.31,0,0-3.04-.17-2.6,9.59.45,9.76,1.89,12.34,5.03,14.32s19.59,5.41,19.59,5.41Z"/><path class="cls-1" d="m184.79,350.32c3.87,2.1,8.3,3.66,12.75,5.02,1.63.49,3.3.84,4.95,1.29,5.82,1.59,11.72,3.02,17.66,4.28,2.64.55,5.32.97,7.97,1.36,3.39.6,6.85.85,10.1,2.39,1.02.45.84.62-.15,1-.57.22-1.27.48-2.03.78-.83.26-1.78.4-2.78.4-1.76-.12-3.51-.33-5.27-.52-1.75-.22-3.49-.56-5.23-.87-3.48-.65-6.95-1.41-10.41-2.34-4.13-1.12-8.51-1.89-12.75-3.03-4.65-1.28-9.29-2.72-13.78-4.71-1.39-.61-2.75-1.3-4.08-2.08-1.33-.78-2.63-1.7-3.8-2.88-.22-.24-.44-.43-.65-.72-.2-.3-.4-.6-.58-.9-.28-.59-.54-1.18-.72-1.75-.37-1.16-.61-2.3-.81-3.44-.39-2.28-.54-4.54-.66-6.79-.15-3.5-.27-6.94.14-10.47.12-.78.2-1.54.41-2.32.21-.72.36-1.32.58-1.8.23-.49.43-.87.65-1.16.47-.57.98-.8,1.49-.86.24-.03.48-.09.68-.07.33.05.47.4.51.94.02.27,0,.57-.02.94,0,.39-.07.8-.16,1.25-.72,5.55-.78,11.85,0,17.83.16,1.1.35,2.19.61,3.21.1.54.29.97.42,1.46.07.25.17.4.25.61.08.19.16.43.24.49.09.11.08.2.23.35l.45.46c.35.3.7.62,1.12.91.41.3.82.6,1.3.86.44.29.92.55,1.41.8l-.04.09Z"/><path class="cls-1" d="m279.02,293.83l12.51-12.86h12.72s-25.67,26.92-26.01,33.79,1.67,6.56,1.67,6.56c1.42,1.29-37.28,43.12-41.03,43.02-4.48-.13-8.34-1.17-3.98-20.12,0,0,3.77-7.43,10.94-14.76,7.17-7.33,33.17-35.63,33.17-35.63Z"/><path class="cls-1" d="m266.2,340.12l-6.63,6.88c-.81.84-1.56,1.73-2.38,2.55-2.94,2.88-5.92,5.71-8.98,8.47l-2.03,1.85c-.66.63-1.33,1.26-2.03,1.86-.86.8-1.75,1.58-2.75,2.25-.49.34-.96.7-1.5.99-.54.29-1.14.47-1.73.65-.79.12-.79-.17-.56-1.01.11-.43.31-.92.54-1.46.12-.27.3-.46.47-.71.18-.25.39-.48.62-.69,3.45-3.04,6.9-6.08,10.4-9.16,2.14-1.85,4.03-4.12,6.02-6.23l6.6-6.95,4.04-4.31c2.02-2.19,4.1-4.36,6.07-6.59.76-.87,1.5-1.75,2.21-2.64.7-.9,1.44-1.79,2.22-2.63.34-.37.65-.76,1.01-1.13,1.38-1.31,1.97-1.58,2.83-1.25.19.07.39.11.54.19.48.26.38,1.26-.44,2.35-1.2,1.63-2.37,3.35-3.77,4.93-1.37,1.59-2.78,3.19-4.23,4.78-2.13,2.37-4.33,4.71-6.5,7.07l-.07-.05Z"/><path class="cls-1" d="m245.51,326.96c3.63-4.05,7.43-7.93,11.16-11.86,1.37-1.43,2.66-2.93,4.04-4.34l14.64-14.91c2.14-2.23,4.3-4.46,6.42-6.67,1.36-1.42,2.7-2.88,4.09-4.28,1.38-1.41,2.81-2.78,4.53-3.85,1.11-.62,1.12-.38.81.78-.16.58-.37,1.41-.76,2.26-.2.43-.41.9-.69,1.34-.29.43-.63.86-1.01,1.28-2.71,2.95-5.42,5.91-8.18,8.82-2.84,2.84-5.73,5.66-8.67,8.44-3.53,3.33-6.84,7.13-10.2,10.76-3.7,3.99-7.42,7.97-11.08,11.99-2.26,2.47-4.51,4.95-6.68,7.48-1.63,1.92-3.28,3.86-4.74,5.84-.33.5-.7.98-.99,1.49-.27.51-.54,1.03-.74,1.6-.45,1.1-.78,2.29-1.07,3.47-.82,3.71-.88,7.53-.51,11.19.06.81.24,1.57.36,2.37.19.7.27,1.33.44,1.78.14.48.21.89.33,1.19.1.31.14.6.18.84.05.22.07.43.07.65,0,.2.04.45.02.61-.04.27-.33.24-.91-.12-.14-.09-.31-.2-.48-.34-.14-.15-.3-.32-.47-.51-.16-.19-.36-.4-.52-.65-.15-.24-.31-.51-.46-.8-.86-1.72-1.37-3.57-1.73-5.44-.32-1.87-.36-3.77-.33-5.68.07-1.9.27-3.82.62-5.74.38-1.93.89-3.85,1.89-5.81.76-1.41,1.67-2.65,2.51-3.73.85-1.14,1.74-2.19,2.63-3.26,1.78-2.13,3.58-4.2,5.4-6.25l.07.05Z"/><path class="cls-1" d="m269.49,275.16c-16.38-8.56,14.5-18.38,15.08-18.36l-27.92-5.22s-18.97,13.54-18.07,15.79c.9,2.25,30.9,7.78,30.9,7.78Z"/><path class="cls-1" d="m190.68,298.65c3.75-4.28,7.56-8.47,11.34-12.67,3.78-4.18,7.51-8.46,11.42-12.61,2.85-3.02,5.64-6.1,8.61-9,5.23-5.13,10.62-10.1,16.43-14.65,2.92-2.26,5.89-4.46,9.2-6.31.85-.43,1.69-.88,2.57-1.29.94-.34,1.78-.78,2.84-.97,1.04-.3,1.98-.32,2.94-.41.96-.11,1.89-.05,2.84-.07,6.65.13,13.11,1.17,19.46,2.24,4.08.7,8.14,1.45,12.17,2.32,4.03.86,8.04,1.74,11.94,3.02,1.21.46,1.73.74,1.67.88-.06.15-.69.22-1.84.46-.58.16-1.25.2-2.05.32-.8.16-1.67.14-2.64.18-.96.02-2,.04-3.09-.04-1.08-.1-2.22-.25-3.38-.47-8.27-1.46-16.42-3.33-24.59-4.33-2.04-.25-4.07-.46-6.08-.55-1.02-.09-1.99-.03-2.98-.06-.5-.02-.97.04-1.45.07-.46.04-.99.04-1.4.12-.39.09-.78.18-1.18.25l-1.29.48c-.43.13-.87.37-1.31.58-.44.22-.88.42-1.32.65-.87.51-1.75.98-2.61,1.53-.86.56-1.73,1.09-2.58,1.68-4.08,2.8-7.99,6.12-11.79,9.59-3.8,3.48-7.47,7.16-11.07,10.84-3.96,4.05-7.83,8.19-11.61,12.43l-11.43,12.72c-4.66,5.22-9.34,10.44-13.46,16-1.54,2.11-3,4.28-4.16,6.53-.57,1.12-1.04,2.29-1.26,3.42-.24,1.12-.05,2.19.41,3.23.2.53.57,1.01.89,1.5.41.45.77.93,1.25,1.34.88.87,1.94,1.59,3,2.29,2.15,1.38,4.52,2.47,6.92,3.44,3.76,1.47,7.62,2.61,11.52,3.52,3.9.93,7.84,1.65,11.8,2.25,1.75.26,3.46.46,5.23.68,6.55.8,8.58.95,9.97,2.01.32.21.75.41.94.59.67.53-2.15,1.52-7.11,1.16-7.34-.44-14.8-1.6-22.26-3.44-3.73-.92-7.45-2.06-11.13-3.49-3.66-1.48-7.33-3.17-10.67-5.96-1.23-1.04-2.38-2.34-3.29-3.94-.2-.43-.45-.82-.6-1.28-.15-.47-.3-.94-.41-1.42-.06-.5-.12-1-.15-1.5,0-.48.02-1.01.1-1.45.28-1.84.91-3.36,1.58-4.78.67-1.42,1.46-2.71,2.28-3.96,3.3-4.97,7.04-9.36,10.77-13.73l.08.05Z"/><path class="cls-1" d="m236.98,268.29c-.28-.95-.05-1.91.47-2.88.23-.49.59-.94.92-1.4l.38-.46.33-.38c.88-.98,1.78-1.86,2.7-2.71,1.84-1.7,3.74-3.27,5.69-4.78,1.42-1.1,2.81-2.25,4.32-3.26,1.34-.89,2.69-1.74,4.23-2.5.4-.19.77-.36,1.28-.55.32-.13.63-.17.96-.19l.48-.04c.16,0,.25.01.36.02.91.08,1.67.23,2.47.36,3.12.58,6.16,1.26,9.21,1.94,2.7.6,5.44,1.13,8.13,1.65,1.73.33,3.47.65,5.2,1.03.86.19,1.72.4,2.58.63.86.2,1.66.68,2.48,1.05,1.01.52.79.79-.26,1.18-.52.19-1.26.46-2.13.7-.85.18-1.8.14-2.79-.03-7.04-1.27-14.05-2.82-21.05-4.39-1.04-.23-2.11-.43-3.14-.56-.27-.04-.49-.05-.73-.07l-.33-.03h-.13c-.06-.02-.58.2-1.01.42-1.79.93-3.61,2.22-5.38,3.46-1.95,1.38-3.86,2.85-5.7,4.38-1.83,1.53-3.64,3.14-5.15,4.86l-.26.31-.16.2c-.1.14-.21.29-.29.45-.07.15-.16.35-.05.51.13.11.29.19.46.26.17.06.33.14.51.19l.91.28,2.15.57c4.38,1.1,8.83,2.13,13.25,3.05,3.44.71,6.84,1.23,10.27,1.9.75.15,1.5.27,2.25.44,2.79.7,3.61,1.23,3.97,2.2.09.2.23.38.27.52.07.24-.2.36-.78.54-.6.21-1.4.15-2.44.02-6.1-.9-12.48-2.19-18.9-3.55-2.38-.51-4.78-1.05-7.17-1.62-1.2-.29-2.4-.6-3.62-.92l-.95-.28c-.56-.16-1.15-.32-1.64-.58l-.77-.35-.38-.17-.19-.09s-.08-.09-.12-.13c-.29-.37-.65-.65-.79-1.16l.08-.04Z"/><path class="cls-1" d="m219.09,278.83s-3.84,3.84-3.72,4.86c.11,1.02,11.59,3.11,11.59,3.11,0,0,4.4-5.26,4.07-5.32l-11.94-2.65Z"/><path class="cls-1" d="m235.58,282.87s-3.84,3.84-3.72,4.86c.11,1.02,11.59,3.11,11.59,3.11,0,0,4.4-5.26,4.07-5.32l-11.94-2.65Z"/><path class="cls-1" d="m252.48,287.24s-3.84,3.84-3.72,4.86,11.59,3.11,11.59,3.11c0,0,4.4-5.26,4.07-5.32l-11.94-2.65Z"/><path class="cls-1" d="m207.79,292.56s-3.84,3.84-3.72,4.86,11.59,3.11,11.59,3.11c0,0,4.4-5.26,4.07-5.32l-11.94-2.65Z"/><path class="cls-1" d="m224.28,296.6s-3.84,3.84-3.72,4.86,11.59,3.11,11.59,3.11c0,0,4.4-5.26,4.07-5.32l-11.94-2.65Z"/><path class="cls-1" d="m241.18,300.97s-3.84,3.84-3.72,4.86,11.59,3.11,11.59,3.11c0,0,4.4-5.26,4.07-5.32l-11.94-2.65Z"/><path class="cls-1" d="m211.25,310.42s-3.84,3.84-3.72,4.86,11.59,3.11,11.59,3.11c0,0,4.4-5.26,4.07-5.32l-11.94-2.65Z"/><path class="cls-1" d="m228.16,314.79s-3.84,3.84-3.72,4.86,11.59,3.11,11.59,3.11c0,0,4.4-5.26,4.07-5.32l-11.94-2.65Z"/></g><g><path class="cls-4" d="m451.18,285.68s-51.38-21.14-62.76-18.61c-11.38,2.53-14.59,14.76-33.91,29.82-19.32,15.06-34.49,10.27-34.49,10.27,0,0-16.69,7.46-25.12,7.93-8.43.48-7.76,7.92-15.59,7.6s11.66-35.73,35.34-51.5c0,0-20.53,16.4-27,7.11-6.47-9.29,23.95-23.32,29.22-32.37s27.42-19.51,38.31-18.27c10.88,1.24,41.14,10.91,48.02,13.54,6.88,2.63,38.49,4.51,44.93,1.33,0,0,6.04,15.09,5.33,41.74l-2.29,1.42Z"/><path class="cls-1" d="m435.97,232.75s6.04,1.4,5.55,12.24l7.96-1.65s-3.84-9.21-6.32-10.37c-2.49-1.16-7.19-.21-7.19-.21Z"/><path class="cls-1" d="m440.49,280.94c1.17,7.06-.23,33.05-9.41,25.44l3.32,9.27s4.04,4.68,8.27,2.45c4.24-2.24,10.62-15.58,8.97-31.48l-11.14-5.68Z"/><path class="cls-1" d="m355.71,229.99c-2.99-.13-5.97,0-8.85.51-2.84.51-5.74,1.49-8.47,2.66-5.5,2.37-10.56,5.85-15.25,9.79-1.71,1.45-3.38,2.96-5,4.52l-2.43,2.36-1.21,1.19c-.4.39-.86.84-1.28,1.23-4.84,4.35-9.77,8.26-14.45,12.5-2.33,2.11-4.62,4.26-6.65,6.55-1,1.14-1.97,2.32-2.68,3.52-.37.59-.61,1.2-.72,1.67-.08.25-.02.67.23.9l.69.64c.26.24.57.37.85.57.27.22.6.29.91.43.16.06.31.13.47.18l.51.09c1.34.25,2.84.13,4.32-.33,3.14-.95,6.17-2.8,9.03-4.81,2.87-2.03,5.63-4.25,8.37-6.49,3.53-2.87,7.02-5.85,10.84-8.52,1.93-1.31,3.92-2.59,6.14-3.55,1.11-.48,2.27-.89,3.49-1.15.62-.11,1.22-.27,1.88-.27.64-.02,1.29-.15,1.94.14.8.18,1.31.56,1.62.75.31.22.42.35.36.44-.06.09-.28.14-.64.19-.36.07-.84.07-1.43.34-1.15.39-2.56,1-4.17,2.01-1.6,1-3.43,2.28-5.52,3.64-3.11,2.05-6.11,4.45-9.13,6.87-3.02,2.43-6.06,4.92-9.28,7.3-3.22,2.35-6.59,4.68-10.64,6.29-2.02.78-4.3,1.4-6.83,1.19-.63-.08-1.26-.21-1.88-.33-.61-.21-1.22-.45-1.81-.7-.55-.33-1.09-.67-1.62-1.02l-.68-.62-.79-.74c-.37-.57-.83-1.1-.97-1.78-.12-.32-.14-.66-.16-1-.03-.34-.03-.67.04-1.05.19-1.31.62-2.09,1.06-2.9.89-1.55,1.91-2.81,2.98-4,3.98-4.32,8.35-8.04,12.72-11.84,2.18-1.87,4.37-3.75,6.55-5.63,1.07-.94,2.14-1.89,3.13-2.84,1-.97,2.05-2.03,3.09-3.01,4.6-4.39,9.49-8.6,14.97-12.05,5.48-3.43,11.53-6.11,18.06-7.08,4-.58,8.02-.49,11.95-.08,3.94.42,7.8,1.18,11.61,2.07,11.53,2.75,22.7,6.62,33.98,9.45,8.76,2.2,17.49,3.72,26.31,4.2.97.02,1.93.08,2.89.14.96.06,1.92.05,2.9.09,7.24.1,9.58.14,11.23.59.38.09.86.15,1.09.23.38.13-.17.36-1.47.81-1.3.49-3.4.94-6.13,1.37-1.02.1-2.04.19-3.07.29-1.03.09-2.06.12-3.1.18-2.07.1-4.17.12-6.26-.04-4.19-.23-8.39-.75-12.58-1.48-8.37-1.48-16.62-3.8-24.77-6.22-6.06-1.78-12.06-3.7-18.11-5.23-3.02-.78-6.06-1.44-9.09-1.99-3.03-.55-6.08-.92-9.09-1.04v-.09Z"/><path class="cls-1" d="m288.73,320.22c-.81.6-1.65,1.19-2.6,1.72-.97.52-1.94,1.07-3.48,1.32-.39.06-.88.06-1.3,0-.22,0-.43-.09-.64-.15-.21-.06-.42-.12-.64-.24-.71-.31-1.22-.69-1.79-1.17-.53-.51-1-1.11-1.33-1.78-.31-.67-.51-1.36-.59-2.02-.16-1.32.03-2.49.28-3.56.26-1.07.63-2.06,1.04-3,.82-1.89,1.82-3.6,2.85-5.27,1.52-2.42,3.1-4.77,4.84-6.98,3.07-3.9,6.34-7.58,9.72-11.15,3.38-3.56,6.85-7.08,10.51-10.35,3.21-2.93,6.43-5.91,9.74-8.72,2.15-1.78,4.33-3.54,6.64-5.14,2.34-1.54,4.8-2.98,7.5-3.87.91-.14,1.31-.17,1.33-.07.03.11-.31.39-.78,1.05-.98,1.26-2.76,3.37-5.16,5.32-2.19,1.64-4.37,3.33-6.48,5.12-2.13,1.76-4.27,3.54-6.37,5.39-2.09,1.86-4.19,3.73-6.29,5.6-2.03,1.85-4.07,3.82-6.09,5.79-4.81,4.73-9.32,10.15-13.36,15.66-2.19,3.03-4.3,6.19-5.62,9.51-.63,1.62-1.06,3.41-.7,4.65.17.62.5,1.06,1.08,1.41l.22.13.2.09c.07.04.19.09.29.09.19.03.44,0,.8-.13.85-.3,1.8-.89,2.7-1.53.92-.63,1.82-1.34,2.7-2.08,1.77-1.47,3.49-3.05,5.19-4.66,5.15-4.88,10.24-9.94,15.41-14.82,4.04-3.79,7.93-7.61,12.53-10.88,1.02-.71,2.02-1.42,3.16-2.03,2.09-1.12,3.68-1.61,4.85-1.7.58-.03,1.07.04,1.46.15.41.15.73.35,1,.57.25.21.56.4.69.59.23.32-.12.62-.79,1.12-.66.53-1.67,1.03-2.99,1.7-3.91,2.09-7.71,5.12-11.43,8.34-3.73,3.24-7.42,6.73-11.1,10.27-2.75,2.65-5.51,5.31-8.27,7.97-2.82,2.65-5.63,5.31-8.84,7.79l-.07-.07Z"/><path class="cls-1" d="m326.18,305.32c-2.61,1.77-5.31,3.44-8.12,4.92-.52.27-1.02.55-1.53.84-.52.27-1.05.54-1.59.77-3.81,1.6-7.76,2.63-11.75,3.35-1.77.31-3.56.59-5.35.79-1.15.11-2.31.26-3.49.16-1.17-.06-2.36-.23-3.44-.8-.68-.32-.51-.53.15-.88.33-.19.77-.38,1.29-.68.51-.25,1.06-.35,1.67-.43l.8-.07c.27-.03.54-.08.81-.08.54-.02,1.08-.06,1.62-.12,1.08-.09,2.17-.24,3.26-.41,2.18-.35,4.37-.75,6.58-1.22,2.65-.56,5.24-1.7,7.67-2.9,2.7-1.35,5.33-2.93,7.88-4.65,1.57-1.05,3.12-2.16,4.62-3.32,2.29-1.75,4.57-3.55,6.73-5.46,1.68-1.48,3.19-3.1,4.87-4.63.36-.34.74-.66,1.16-.96.76-.56,1.38-.85,1.85-.95.51-.06.9.07,1.23.32.16.11.33.21.43.34.18.21.14.51,0,.87-.08.18-.18.37-.31.58-.13.24-.33.44-.54.66-.66.65-1.28,1.42-2.01,2.08-.71.68-1.45,1.37-2.2,2.06-1.51,1.38-3.09,2.76-4.72,4.1-2.41,2-4.93,3.93-7.53,5.77l-.05-.06Z"/><path class="cls-1" d="m366.39,287.47c-3.4,2.99-6.83,5.98-10.32,8.92-1.29,1.06-2.49,2.22-3.83,3.23-2.31,1.83-4.78,3.54-7.4,5.07-2.69,1.54-5.56,2.55-8.48,3.28-2.6.62-5.22,1.11-7.83,1.38-3.34.28-6.73.75-10.02-.34-1.02-.39-.88-.45,0-.97.89-.59,2.48-1.62,4.33-1.79,6.54-.4,12.95-.99,18.82-3.57,3.47-1.54,6.67-4.32,9.83-6.9,3.48-2.88,6.88-5.91,10.31-8.92l6.32-5.58c3.19-2.83,6.49-5.58,9.71-8.33,2.55-2.1,4.91-4.36,7.62-6.24.59-.42,1.16-.85,1.77-1.26,1.13-.76,2-1.07,2.61-1.27.31-.09.58-.13.82-.12.25.02.47.09.68.16.19.07.4.1.53.17.38.16-.19,1.37-1.69,2.56-1.11.89-2.18,1.89-3.29,2.82-.56.46-1.09.98-1.64,1.47-.55.49-1.13.94-1.7,1.41-1.14.96-2.29,1.92-3.44,2.88-1.14.98-2.29,1.97-3.44,2.96-3.4,2.97-6.82,5.98-10.2,9.05l-.06-.06Z"/><path class="cls-1" d="m431.14,280.46c-2.78-1.02-5.58-2.02-8.41-2.9-1.03-.34-2.1-.53-3.13-.85-1.82-.56-3.65-1.1-5.49-1.6-1.84-.53-3.68-1.02-5.54-1.47-1.65-.38-3.34-.67-5-.9l-1.61-.2c-.54-.08-1.07-.19-1.6-.29-1.07-.19-2.13-.44-3.17-.86-.65-.26-.52-.6.12-1.03.32-.22.76-.47,1.29-.72.53-.22,1.13-.35,1.77-.35,1.13,0,2.26.04,3.37.22,1.11.13,2.22.32,3.33.52,2.21.39,4.41.89,6.59,1.54,1.3.38,2.64.71,3.99,1.02,1.35.3,2.71.61,4.05.97,2.93.8,5.83,1.72,8.71,2.67l5.29,1.81c2.67.92,5.31,1.94,7.97,2.8,2.07.67,4.16,1.14,6.23,1.72.46.13.92.22,1.37.37,1.68.55,2.11,1.02,2.1,2.12,0,.25.02.51-.01.75-.12.8-1.03,1.2-2.32.99-3.84-.64-7.66-1.86-11.45-3.23-2.82-1-5.62-2.06-8.45-3.02l.02-.09Z"/><path class="cls-1" d="m449.24,300.49c1.52-6.94,1.98-14.25,2.02-21.52,0-2.66-.18-5.32-.29-7.97-.21-4.69-.61-9.38-1.24-14.03-.61-4.65-1.43-9.29-2.72-13.78-.58-1.98-1.26-3.94-2.17-5.75-.45-.9-.95-1.77-1.53-2.52-.57-.75-1.23-1.4-1.88-1.71-.74-.35-1.69-.13-2.5.49-.82.65-1.51,1.66-2.07,2.75-.27.56-.53,1.12-.76,1.72-.25.58-.48,1.18-.68,1.79-.21.61-.39,1.23-.55,1.85-.17.62-.4,1.24-.53,1.87-.34,1.55-.54,1.45-1.06-.03-.54-1.48-1.07-4.43.14-7.69.58-1.42,1.29-2.85,2.51-4.17.34-.32.66-.64,1.05-.94.43-.27.8-.58,1.32-.77.5-.19,1-.39,1.56-.43.27-.03.55-.06.82-.08.31.02.62.05.92.1,1.2.24,2.11.84,2.84,1.44.68.61,1.26,1.26,1.71,1.92.94,1.31,1.61,2.65,2.22,3.99,2.38,5.35,3.61,10.85,4.52,16.41,1,6.65,1.97,13.55,2.29,20.41.35,7.53.12,15.1-.95,22.62-.7,4.62-1.67,9.25-3.61,13.66-.74,1.66-1.64,3.29-2.82,4.78-1.18,1.47-2.68,2.83-4.55,3.6-.91.42-1.92.61-2.9.74-.5.02-.97.05-1.5.02-.27-.03-.54-.05-.8-.09l-.77-.2c-2.03-.65-3.52-2.04-4.7-3.44-1.84-2.23-3.15-4.68-4.27-7.17-1.11-2.5-2.01-5.06-2.71-7.7-.31-1.16-.61-2.3-.83-3.5-.4-2.22-.46-3.74-.29-4.81.15-1.07.48-1.69.97-2.16.23-.21.46-.48.67-.59.75-.31,1.11,1.35,1.81,4.33.91,4.44,2.34,8.99,4.28,13.18.97,2.09,2.13,4.09,3.46,5.66.66.78,1.39,1.43,2.06,1.8.33.18.64.34.93.39.14.05.28.06.42.07.1.04.39,0,.57,0,1.25-.03,2.33-.51,3.39-1.32,1.04-.86,1.98-2.08,2.78-3.49,1.59-2.84,2.61-6.28,3.34-9.75h.11Z"/><path class="cls-1" d="m460.66,323.23c3,1.49,5.99,3.01,8.95,4.57,1.08.57,2.21,1.02,3.28,1.62,3.79,2.04,7.44,4.34,11.1,6.61,1.63.99,3.24,2.03,4.84,3.05,1.04.62,2.04,1.34,3,2.09.49.37.96.76,1.41,1.18.46.4.91.82,1.32,1.29.51.59.38.59-.32.47-.72-.09-1.99-.31-3.26-.87l-1.69-.74c-.56-.24-1.07-.57-1.63-.83l-3.25-1.66c-1.09-.55-2.12-1.2-3.18-1.82-1.06-.61-2.11-1.25-3.16-1.91-1.26-.78-2.61-1.45-3.95-2.14-1.36-.66-2.75-1.3-4.09-1.98-2.98-1.47-5.96-2.95-8.98-4.36-1.86-.86-3.71-1.75-5.59-2.57-2.84-1.26-5.7-2.52-8.59-3.56-2.25-.82-4.56-1.33-6.83-1.99-.5-.15-1-.27-1.49-.43-.92-.3-1.5-.58-1.85-.94-.36-.35-.51-.72-.57-1.22-.03-.23-.08-.46-.07-.67.03-.69.97-1.03,2.47-.94,4.37.48,8.64,2.04,12.87,3.67,3.14,1.24,6.23,2.61,9.31,3.99l-.04.09Z"/><path class="cls-1" d="m483.42,243.82c-3.34-1.62-6.75-3.07-10.21-4.41-1.26-.48-2.58-.81-3.85-1.28-4.5-1.55-9.05-3.03-13.74-3.92-1.03-.25-2.08-.37-3.13-.5-1.05-.13-2.09-.29-3.14-.35-1.34-.07-2.69-.1-4.03-.19-1.34,0-2.68-.1-4.03-.35-.85-.32-.76-.75-.06-1.51.7-.74,2.06-1.61,3.7-1.72,1.44-.01,2.88.08,4.32.14,1.44.05,2.86.29,4.29.46,1.43.19,2.82.53,4.22.85l2.09.51,2.06.64c.82.26,1.65.5,2.49.72.83.24,1.67.48,2.52.72l2.54.7c.83.27,1.67.54,2.5.81,3.64,1.21,7.18,2.68,10.69,4.19,2.14.98,4.29,1.92,6.39,2.97,1.6.77,3.2,1.56,4.77,2.39,1.58.82,3.15,1.63,4.72,2.44,2.44,1.25,4.93,2.31,7.35,3.55.53.28,1.07.51,1.59.82.96.58,1.56,1.01,1.89,1.46.32.47.39.9.33,1.45-.03.25-.02.51-.09.72-.11.36-.43.55-.93.6-.5.05-1.19-.03-1.93-.36-1.11-.47-2.23-.94-3.34-1.45-1.09-.54-2.2-1.08-3.31-1.63-2.2-1.14-4.42-2.29-6.65-3.44-1.67-.83-3.31-1.72-5-2.52l-2.52-1.24-2.55-1.16.03-.09Z"/><path class="cls-1" d="m468.21,252.17c.23.14.46.29.69.45.13.09.26.19.39.28.31.22-.14-.13.04.03.41.36.83.71,1.22,1.1.36.36.71.74,1.03,1.14.08.1.16.2.24.3.15.19.2.18.02.01.19.17.34.46.49.67,1.2,1.69,2.17,3.53,3.2,5.33.52.91,1.84,1.3,2.74.72s1.27-1.76.72-2.74c-1.07-1.89-2.09-3.81-3.37-5.57-1.48-2.05-3.22-3.83-5.38-5.17-.89-.55-2.24-.22-2.74.72s-.23,2.15.72,2.74h0Z"/><path class="cls-1" d="m490.66,280.36c2.95-2.09,5.99-3.97,9.17-5.68.92-.5,1.29-1.85.72-2.74-.6-.94-1.75-1.25-2.74-.72-3.18,1.71-6.22,3.6-9.17,5.68-.85.6-1.34,1.77-.72,2.74.55.85,1.82,1.36,2.74.72h0Z"/><path class="cls-1" d="m468.04,285.94c1.23,2.15,2.46,4.29,3.69,6.44.52.91,1.83,1.3,2.74.72s1.27-1.76.72-2.74c-1.23-2.15-2.46-4.29-3.69-6.44-.52-.91-1.83-1.3-2.74-.72s-1.27,1.76-.72,2.74h0Z"/><path class="cls-1" d="m483.89,318.77c.66-.37,1.33-.73,2.01-1.06.32-.16.64-.31.96-.45.14-.06.28-.12.42-.19.09-.04.19-.08.28-.12-.24.1-.26.11-.06.03,1.36-.55,2.75-1.03,4.16-1.43,1.01-.28,1.73-1.43,1.4-2.46s-1.38-1.7-2.46-1.4c-3.04.85-5.99,2.07-8.73,3.63-.91.52-1.3,1.84-.72,2.74s1.76,1.27,2.74.72h0Z"/></g></svg>