<svg xmlns="http://www.w3.org/2000/svg" width="520" height="520" viewBox="0 0 520 520"><defs><style>.cls-1{fill:#231f20;}.cls-2{opacity:0.3;}</style></defs><title>Notioly New</title><g id="_143.Cryptocurrency" data-name="143.Cryptocurrency"><path class="cls-1" d="M194.05,291.58c2.26,0,4.55-.11,6.83-.29.83-.09,1.65-.21,2.48-.3a43.38,43.38,0,0,0,4.33-.59,39.14,39.14,0,0,0,4.23-1.08,22.7,22.7,0,0,0,3.54-1.51,40.83,40.83,0,0,0,4-2.66c.41-.28.77.13.81.83a2.73,2.73,0,0,1-1.18,2.31,25.56,25.56,0,0,1-10,3.88l-3.19.58c-1.09.16-2.13.32-3.2.44-2.34.25-4.69.4-7,.48-1.45,0-2.91,0-4.36,0a33.58,33.58,0,0,1-6.59-.89,13.59,13.59,0,0,1-4.87-2,8,8,0,0,1-.94-.8c-1-1.19-1-1.83-.64-2.3a2.17,2.17,0,0,1,.27-.32c.38-.26.91.09,1.43.72a7.9,7.9,0,0,0,3.23,2.07,19.25,19.25,0,0,0,4.15,1,43.93,43.93,0,0,0,6.73.41Z"/><path class="cls-1" d="M195.21,199.1c-7.14,12.74,0,19.66,0,19.66s-10.63,1.25-10.15-10.32,6.62-16.68,6.62-16.68S190.5,198.64,195.21,199.1Z"/><path class="cls-1" d="M239.37,371.18s1.23.58,2.16,1a14.6,14.6,0,0,0,7.3.8c4.55-.77,1.54-3.13,1.54-3.13Z"/><path class="cls-1" d="M324.74,398.34c-4.58,11.79-14.94,16-17.32,12.57-1.08-1.55,1.68-6.27,3.43-11.31a42.49,42.49,0,0,0,1.83-8.84Z"/><path class="cls-1" d="M318.11,416.43a37.81,37.81,0,0,0,8.59-8c7.93-10,16.9-29,13.77-48.66a29.09,29.09,0,0,0-4.74-12.36s34.31,17.49,41.74,16.86c0,0,7.42,2.67-3.73,20s1.89,21.51-1.27,27.62c-2.09,4.05-6.79,7-10.2,10.18a10.94,10.94,0,0,0-3.54,7.55c-.09,2-.74,4.5-3.52,4.94-4.63.74-24-15.72-37.1-18.05Z"/><path class="cls-1" d="M206.55,311c-4.09-2.74,0-8.58,0-8.58l3.65,3.92v0l13.89,4.34c-3.76,2.4,2.78,7.4,2.78,7.4L203.82,311A12,12,0,0,0,206.55,311Z"/><path class="cls-1" d="M226.89,329.14s3.64-2.38,3.48-4,.79,3,4.58,4-8.06,1.72-8.06,1.72Z"/><path class="cls-1" d="M239.37,344.44l3.31-2.68s1.15,3.67,2.69,3.76-6,0-6,0Z"/><path class="cls-1" d="M245.57,358.49l3.79-1.89a5.73,5.73,0,0,0,2.4,3.45C253.76,361.33,245.57,358.49,245.57,358.49Z"/><path class="cls-1" d="M236,311.56a50.68,50.68,0,0,1-6,.47c-.74,0-1.47.05-2.21.05a46.35,46.35,0,0,1-7.71-.9l-1.7-.33-1.66-.43a16.57,16.57,0,0,1-4.13-1.48c-.41-.2-.27-.38.18-.47a4.5,4.5,0,0,1,2,.1c.35.09.69.21,1,.33l1.05.27c.7.17,1.39.38,2.1.55,1.42.25,2.84.62,4.3.78a15.57,15.57,0,0,0,2.66.24c.9,0,1.81.07,2.71,0a53.51,53.51,0,0,0,5.93-.39l1.82-.23,1.81-.32a48.68,48.68,0,0,0,5.39-1.31,39,39,0,0,0,3.95-1.55l.85-.37c1.06-.45,1.41-.53,1.79-.33a1.58,1.58,0,0,1,.26.13c.22.17-.11.61-.87,1.06a29.47,29.47,0,0,1-7.51,2.92c-1,.28-2,.48-3,.71s-2,.38-3,.52Z"/><g class="cls-2"><path class="cls-1" d="M196.74,281.05s2.9,4.15,5,2.67c1-.68,1.84-1.9,3-2,1.92-.09,4.08,1.28,4.74.7,1.93-1.72-.72-5-1.33-5.25C207.28,276.81,196.74,281.05,196.74,281.05Z"/></g><g class="cls-2"><path class="cls-1" d="M141.23,123s4.87-2.72,6.86-.86,1.25,4.42,0,6c-1.46,1.84-2.87,1.68-2.87,1.68Z"/></g><g class="cls-2"><path class="cls-1" d="M146.7,131l3,7.06s4.78-1.47,5.31-4.21S151.67,128.11,146.7,131Z"/></g><path class="cls-1" d="M128.26,134.49a25.35,25.35,0,0,0,1.2,3.25c.18.39.44.72.62,1.11.32.68.7,1.32,1.06,2s.77,1.3,1.23,1.91a9.11,9.11,0,0,0,1.32,1.51,11.74,11.74,0,0,1,1.81,1.85c.16.23-.17.58-.66.79a1.65,1.65,0,0,1-1.57,0,13.47,13.47,0,0,1-3.74-4.24c-.53-1-1.29-1.91-1.83-2.94a28.19,28.19,0,0,1-1.58-3.45c-.26-.74-.53-1.46-.74-2.21-.34-1.12-.55-2.28-.84-3.4-.21-.88-.47-1.73-.63-2.62,0-.2-.08-.39-.1-.59-.06-.74.13-1,.62-1.17.11,0,.22-.09.33-.12.37-.08.72.2.94.68a40.54,40.54,0,0,1,1.55,4.37c.34,1.1.69,2.19,1.07,3.28Z"/><path class="cls-1" d="M151.15,153.39s-10.85,7.1-26.46-10c0,0,6.46,4.09,10.41,1.56Z"/><path class="cls-1" d="M206.91,184.4a41.72,41.72,0,0,0-4.31,4.1c-.49.54-.93,1.12-1.4,1.68a60.15,60.15,0,0,0-4.68,6.19,31.5,31.5,0,0,0-1.75,3c-.63,1.32-1.31,2.6-2,3.91-.22.41-.37.3-.46-.15a4.67,4.67,0,0,1,.06-2.12,25.34,25.34,0,0,1,4.45-8.12c1.14-1.45,2.2-3.06,3.41-4.52a39.4,39.4,0,0,1,4.33-4.53c1-.86,1.94-1.67,3-2.45a52.21,52.21,0,0,1,4.82-3.26,42.26,42.26,0,0,1,3.88-2.18,7.25,7.25,0,0,1,.9-.4c1.16-.4,1.58-.38,2-.12a1.43,1.43,0,0,1,.24.16c.18.17-.18.62-.92,1.08l-6.69,4.22a44.51,44.51,0,0,0-4.76,3.58Z"/><path class="cls-1" d="M206.58,296c-3.79,1.63-14,1-16.32.63-4.85-.72-8.48-5.05-8.48-5.05s17.6,1.49,19.22.22c0,0-.11,4.83,5.58,4.2"/><g class="cls-2"><path class="cls-1" d="M60.58,270.14c-3.79-10.45-8-24.34-11.18-34.72-2.47-.83-12.89-4.71-12.66-4.9l3.08-2.13,12.86,4.47L64,272.05S60.62,270.25,60.58,270.14Z"/></g><g class="cls-2"><path class="cls-1" d="M136.68,404.23l-6.11-7.05c-7.61-30.61-27.21-119.74-33.83-147-6.19,7.3-21.82,23.95-26.16,27-.45.32.39-4.23.39-4.23l24.94-26.31h0c-.11-.13-1.06-1.28.93-2s2.28,1.07,2.28,1.07l.46-.33Z"/></g><g class="cls-2"><path class="cls-1" d="M142.42,399.29c7.41-12.44,20.68-34.86,27.4-45.53a1.69,1.69,0,0,1,.71-.64l6.28-3L142.3,409l-.12-8.81A1.72,1.72,0,0,1,142.42,399.29Z"/></g><g class="cls-2"><path class="cls-1" d="M235.58,246.23c9-15.7,20.07-32.83,27.59-45.86l4.78-1.73-31.23,53.27Z"/></g><g class="cls-2"><path class="cls-1" d="M315.86,302.13c-10-21.43-35.05-76.7-44.06-95.86a1.35,1.35,0,0,1-.09-1l.87-3.44,47.75,102.53-2.86-1.61C317.2,302.63,316,302.41,315.86,302.13Z"/></g><g class="cls-2"><path class="cls-1" d="M353.42,261.7a17.7,17.7,0,0,0,.05-2.52L349,263.39l-15.48,34,1,4.25C334.79,302.09,349.05,274.63,353.42,261.7Z"/></g><g class="cls-2"><path class="cls-1" d="M392.59,242.94c-.26.56-5.31,2.68-5.31,2.68l-16.79,33.69,1.94,3.9Z"/></g><g class="cls-2"><polygon class="cls-1" points="449.69 324.13 446.99 324.17 438.18 338.66 440.71 343.8 449.69 324.13"/></g><g class="cls-2"><path class="cls-1" d="M448.74,327.24,469,366.7a1.26,1.26,0,0,0,.56.56l5.39,2.63-24.06-45.76Z"/></g><path class="cls-1" d="M149.11,138.91l1.38,2.88c.38.78,1.54.1,1.17-.68l-1.39-2.88c-.37-.79-1.54-.1-1.16.68Z"/><path class="cls-1" d="M139.72,119.35l1.49,3.12c.38.78,1.54.09,1.17-.69l-1.5-3.11c-.37-.78-1.54-.1-1.16.68Z"/><path class="cls-1" d="M152.37,137.34l1.39,2.88c.37.78,1.54.1,1.16-.68l-1.38-2.88c-.38-.78-1.54-.1-1.17.68Z"/><path class="cls-1" d="M143,117.79l1.5,3.11c.37.78,1.54.1,1.16-.68l-1.49-3.12c-.38-.78-1.54-.1-1.17.69Z"/><path class="cls-1" d="M249.15,281.21a24.28,24.28,0,0,1,5.35-1.27,20,20,0,0,1,2.79-.1,18.18,18.18,0,0,1,2.77.27c.92.12,1.8.4,2.69.6s1.68.55,2.6.91a14.46,14.46,0,0,1,2.51,1.48c.74.53,1.44,1.07,2.11,1.63a95.88,95.88,0,0,1,7.51,7.12c2.38,2.48,4.66,5,6.89,7.63,3.2,3.83,6.27,7.7,9.37,11.51a142.79,142.79,0,0,0,17.81,18.72A126.65,126.65,0,0,0,333,344.16a217.68,217.68,0,0,0,20.8,9.95c9,3.86,18.3,7.27,27.43,10.95,2.84,1.15,2.23,1.64-.45,1.39A54.26,54.26,0,0,1,368,363.19a292.15,292.15,0,0,1-27.9-11.95c-4.56-2.24-9.05-4.65-13.42-7.29A121.59,121.59,0,0,1,314,335.3a134.33,134.33,0,0,1-13.82-12.6c-4.36-4.53-8.4-9.4-12.26-14.25-2.14-2.67-4.24-5.34-6.44-7.9s-4.5-5.06-6.86-7.48a79.05,79.05,0,0,0-7.42-6.8c-.65-.5-1.31-1-2-1.39a8.5,8.5,0,0,0-1-.52c-.31-.15-.75-.26-1.12-.4l-1.16-.39-1.18-.28a19.22,19.22,0,0,0-2.37-.4,22,22,0,0,0-11.58,2.55c-3.74,1.73-7.41,3.84-11.21,5.69l-2.17,1a9.69,9.69,0,0,1-1.22.49c-.41.13-.81.25-1.21.35-1.59.41-3.16.7-4.72,1-3.13.61-6.25,1.2-9.28,2a35.08,35.08,0,0,0-4.42,1.42,13.84,13.84,0,0,0-2,1,5.11,5.11,0,0,0-1.51,1.28,1.92,1.92,0,0,0-.26,1.6,4.51,4.51,0,0,0,.7,1.82,7.88,7.88,0,0,0,3.29,2.6,22.83,22.83,0,0,0,6.75,1.87,48.21,48.21,0,0,0,7.11.41,70.15,70.15,0,0,0,14.15-1.69c2-.45,4-1,6-1.64a63.55,63.55,0,0,0,7.62-3,17,17,0,0,1,3.47-1.34,7.53,7.53,0,0,1,1.22-.31c.5,0,.23.6-.81,1.74a20.59,20.59,0,0,1-5.74,3.9,54,54,0,0,1-12.89,4.16,68.11,68.11,0,0,1-13.74,1.33,48.36,48.36,0,0,1-7.07-.52,26.72,26.72,0,0,1-7.13-2,15.14,15.14,0,0,1-1.76-1l-.86-.57-.81-.7a8,8,0,0,1-2.42-3.91,6,6,0,0,1-.19-1.18l-.05-.6a5.72,5.72,0,0,1,.05-.78,5.08,5.08,0,0,1,1.32-2.64,11,11,0,0,1,3.55-2.38,52.76,52.76,0,0,1,10.27-3l5-1c1.66-.33,3.34-.66,4.83-1.07a7.42,7.42,0,0,0,1-.33c.27-.11.73-.34,1.08-.5.76-.36,1.52-.72,2.27-1.1,1.51-.75,3-1.54,4.53-2.33a75.44,75.44,0,0,1,9.54-4.47Z"/><path class="cls-1" d="M262.78,327.24a28,28,0,0,0,2.23,3.4,17.37,17.37,0,0,0,2.81,2.81,7.49,7.49,0,0,0,1.2.82c.42.25.83.52,1.27.74a19.17,19.17,0,0,0,4.82,2,17.57,17.57,0,0,0,5.26.64,15.75,15.75,0,0,0,2.36-.25,17.3,17.3,0,0,0,2.27-.63,45.74,45.74,0,0,0,5.45-2.67c.58-.28.8.09.64.82a4,4,0,0,1-1.77,2.64,18.7,18.7,0,0,1-13.54,2.39,24.66,24.66,0,0,1-8-2.87l-1-.62-.94-.71a18.52,18.52,0,0,1-1.77-1.55,24.25,24.25,0,0,1-2.94-3.57,42.51,42.51,0,0,1-2.79-4.81c-1.27-2.46-2.35-5-3.66-7.32a29.23,29.23,0,0,0-3.58-4.88c-.28-.33-.58-.63-.88-.94a5.82,5.82,0,0,1-1-1.36,1.61,1.61,0,0,1,0-1.18,6.26,6.26,0,0,1,.21-.61c.29-.6,1.2-.56,2.35.23a18,18,0,0,1,4.2,4.49,41.4,41.4,0,0,1,3,5.3c1.3,2.65,2.44,5.29,3.86,7.67Z"/><path class="cls-1" d="M215.89,331.35A76.29,76.29,0,0,1,197.24,329a39.14,39.14,0,0,1-6.62-2.25,21.88,21.88,0,0,1-5.35-3.47c-.41-.37-.78-.79-1.17-1.18s-.69-.83-1-1.27a16.47,16.47,0,0,1-1.64-2.82,12.42,12.42,0,0,1-1-6.52,12.27,12.27,0,0,1,.85-3.21,13.85,13.85,0,0,1,1.64-2.82,16.47,16.47,0,0,1,4.12-3.91,20.87,20.87,0,0,1,5-2.43c4.41-1.45,9.06-2.27,13.57-1.43,1.41.25,1.2.61,0,1.26-.58.33-1.39.75-2.35,1.25a16,16,0,0,1-3.26,1,28.76,28.76,0,0,0-11.55,3.92,11.81,11.81,0,0,0-3.74,4.15,8.64,8.64,0,0,0-.9,5.36,11.33,11.33,0,0,0,3.58,6.21,21.4,21.4,0,0,0,6.82,3.71,62.44,62.44,0,0,0,17.66,3.14,56.63,56.63,0,0,0,11.07-.43c.53-.09,1.06-.2,1.56-.33a4.06,4.06,0,0,0,1.13-.47,5.19,5.19,0,0,0,1.62-2.18,2.53,2.53,0,0,0-.51-2.29,8.93,8.93,0,0,0-2.25-2.05,20.6,20.6,0,0,0-2.84-1.6,54,54,0,0,0-12.28-3.66c-.93-.18-1.85-.3-2.77-.51a30.91,30.91,0,0,1-3.62-.87,3.73,3.73,0,0,1-1.57-1,4.77,4.77,0,0,1-.5-.52c-.17-.27.11-.52.81-.75a9.6,9.6,0,0,1,3.16-.32,49.19,49.19,0,0,1,12.16,2.07,42.87,42.87,0,0,1,6.07,2.24,19,19,0,0,1,5.87,4,8,8,0,0,1,1.51,2.32c.09.25.2.48.27.73s.11.55.15.82a5.91,5.91,0,0,1,0,1.68,8,8,0,0,1-.47,1.53,7.79,7.79,0,0,1-.73,1.24,10.64,10.64,0,0,1-.83,1c-.31.3-.55.54-.92.87a6,6,0,0,1-2,1,12.64,12.64,0,0,1-1.57.41,28,28,0,0,1-2.91.42c-1.89.2-3.76.27-5.61.29Z"/><path class="cls-1" d="M236.21,346.4a44.58,44.58,0,0,1-8.41,2.09c-1.41.16-2.8.36-4.23.5a35.34,35.34,0,0,1-4.36.07c-2.09-.09-4.16-.24-6.17-.53-3.56-.52-7-1.17-10.43-1.39a37.45,37.45,0,0,1-10.81-1.88A14.19,14.19,0,0,1,184,339a11,11,0,0,1,1.3-12.36c.93-1,1.09-.5.87.61a31.32,31.32,0,0,0-.54,4.91,10.36,10.36,0,0,0,1,4.88,7.61,7.61,0,0,0,1.39,2c.26.32.59.58.88.88a11,11,0,0,0,1,.79c2.84,2,6.75,2.8,10.7,3.26.6.07,1.2.12,1.81.16s1.3.09,1.94.15c1.29.11,2.56.27,3.84.42,2.54.32,5.05.67,7.51.94a37.84,37.84,0,0,0,8,.17c1.34-.18,2.7-.32,4-.53l2-.39,1-.19,1-.27a22.48,22.48,0,0,0,8.8-4,9.52,9.52,0,0,0,2.27-2.61,4.91,4.91,0,0,0,.61-3.08,2.81,2.81,0,0,0-.55-1.28l-.23-.2a.7.7,0,0,0-.29-.21l-.76-.41a12.28,12.28,0,0,0-3.44-.9,29.44,29.44,0,0,0-11.26,1.49c-.8.25-1.59.52-2.38.8-3,1.07-4,1.22-4.92.82a4.24,4.24,0,0,1-.64-.28c-.54-.36.42-1.48,2.62-2.66a35.77,35.77,0,0,1,5.2-2,31.38,31.38,0,0,1,5.62-1.23,25.23,25.23,0,0,1,6-.11,17.28,17.28,0,0,1,3.16.66,12.38,12.38,0,0,1,1.58.63l.78.41a3.49,3.49,0,0,1,.41.25l.51.41a5.61,5.61,0,0,1,1.14,1.42,7.46,7.46,0,0,1,.57,1.53,7.23,7.23,0,0,1,0,3,8.23,8.23,0,0,1-.38,1.36c-.18.43-.37.84-.56,1.26a12.4,12.4,0,0,1-1.53,2.08,20.24,20.24,0,0,1-7.85,5Z"/><path class="cls-1" d="M221.25,361.15c2.37-.24,4.74-.6,7.09-1.06s4.75-1,7.12-1.58c1.73-.42,3.43-.95,5.16-1.39l2.28-.59,1.15-.3c.33-.1.67-.18,1-.31a15.68,15.68,0,0,0,3.84-2,7.51,7.51,0,0,0,2.68-2.94,2.43,2.43,0,0,0-.86-3,6.29,6.29,0,0,0-3.34-1.35,18.1,18.1,0,0,0-4-.11,53.9,53.9,0,0,0-10.18,2.06c-1,.31-1.08,0-.41-.84a10.54,10.54,0,0,1,1.57-1.49A8.81,8.81,0,0,1,237,345a25,25,0,0,1,11.58-1,9.43,9.43,0,0,1,3.13,1.24,7,7,0,0,1,1.38,1.15,4,4,0,0,1,.59.74,3.33,3.33,0,0,1,.49.87,6.41,6.41,0,0,1,.34,1c0,.35.08.7.1,1.05a5.62,5.62,0,0,1-.42,1.92,7.94,7.94,0,0,1-1.94,2.76,16.38,16.38,0,0,1-2.92,2.25,18.81,18.81,0,0,1-3.26,1.65c-1.21.46-2.26.72-3.35,1.05l-3.26.93A147.46,147.46,0,0,1,224.91,364a67.85,67.85,0,0,1-9.24.89,30.29,30.29,0,0,1-14-2.58,15.29,15.29,0,0,1-4.59-3.38l-.92-1.14a13,13,0,0,1-.76-1.25l-.36-.64c-.11-.22-.17-.46-.26-.68-.17-.46-.34-.92-.49-1.39-.17-.83-.32-1.65-.42-2.5a9.33,9.33,0,0,1,.32-3.28,2.22,2.22,0,0,1,1-1.31,4.87,4.87,0,0,1,.53-.33c.55-.18,1,1.08,1.05,3a13.62,13.62,0,0,0,1,4.1l.38.94.51.85a10.54,10.54,0,0,0,1.19,1.56,15.67,15.67,0,0,0,7.44,3.77,31.2,31.2,0,0,0,6.82.81,53.39,53.39,0,0,0,7.11-.38Z"/><path class="cls-1" d="M262.52,386c-2.46-.08-4.9-.33-7.33-.6l-3.64-.39c-1.19-.13-2.36-.26-3.56-.37-1.73-.16-3.49-.2-5.26-.38a84.36,84.36,0,0,1-9.34-1.5,34.6,34.6,0,0,1-9-3.28c-.64-.33-1.25-.71-1.86-1.1a21.54,21.54,0,0,1-1.78-1.22,19.39,19.39,0,0,1-3.17-3,11.84,11.84,0,0,1-1.54-2.42,7.66,7.66,0,0,1-.84-2.86,5.58,5.58,0,0,1,.5-3.06,6.52,6.52,0,0,1,.83-1.3,7.09,7.09,0,0,1,1.18-.9c1-.62,1-.26.65.68a3.38,3.38,0,0,0-.21.86,2,2,0,0,0,0,.26l-.06.23-.06.5a11.12,11.12,0,0,0,0,2,7,7,0,0,0,1.65,3.79,12.53,12.53,0,0,0,1.59,1.67,20.85,20.85,0,0,0,2,1.33c.66.48,1.4.85,2.11,1.27s1.46.77,2.25,1.07a41.5,41.5,0,0,0,4.75,1.87c4,1.29,8.41,1.55,12.78,2.09,2.41.3,4.85.62,7.27,1s4.77.65,7.16.81a70.52,70.52,0,0,0,8.84.13,61.43,61.43,0,0,0,13.22-2,90.48,90.48,0,0,0,9.71-3.36c.7-.28,1.38-.59,2.09-.86,2.64-1,3.58-1.07,4.4-.64a3.27,3.27,0,0,1,.53.26c.41.29-.47,1.23-2.33,2.21a75.69,75.69,0,0,1-18.48,6.21A65.56,65.56,0,0,1,262.53,386Z"/><path class="cls-1" d="M246.85,358a24.29,24.29,0,0,1,4.47.67c.38.12.76.2,1.14.3s.78.29,1.17.43a8.62,8.62,0,0,1,2.18,1.39,6.25,6.25,0,0,1,2.24,3.4,4.9,4.9,0,0,1-1,3.77,8.19,8.19,0,0,1-2.5,2.17,12.33,12.33,0,0,1-2.8,1.19,15.44,15.44,0,0,1-2.84.6c-.84.11-1.69.18-2.53.23s-1.68,0-2.51,0a26.05,26.05,0,0,1-3.19-.26,14,14,0,0,1-1.56-.35l-.75-.27a7.56,7.56,0,0,1-.71-.44c-.58-.35-.42-.56.22-.87a4.87,4.87,0,0,1,2.84-.8,28.85,28.85,0,0,0,2.93.13c.49,0,1,0,1.45-.05a1.94,1.94,0,0,0,.72-.11,2.84,2.84,0,0,1,.71-.11,25.78,25.78,0,0,0,2.79-.47,20.25,20.25,0,0,0,2.71-.64,4.91,4.91,0,0,0,2.46-1.69,1.91,1.91,0,0,0,.2-2.08,4.73,4.73,0,0,0-1-1.3,3.31,3.31,0,0,0-.67-.54l-.34-.25-.42-.19a8.34,8.34,0,0,0-1.8-.65c-.66-.11-1.3-.28-2-.33a35.89,35.89,0,0,0-5.1-.21,60.24,60.24,0,0,0-7.81.68c-2,.34-3.92.86-5.86,1.37-.43.11-.84.25-1.27.36-1.61.34-2.17.21-2.67-.36a2.54,2.54,0,0,1-.32-.35c-.25-.36.28-1,1.43-1.53a47.17,47.17,0,0,1,11.13-2.55,52.35,52.35,0,0,1,8.79-.35Z"/><path class="cls-1" d="M321,403.61a61.69,61.69,0,0,0,7.46-13.05c.73-1.7,1.31-3.46,1.93-5.21a78.56,78.56,0,0,0,4.23-19.14,57.56,57.56,0,0,0,0-8.71,78.59,78.59,0,0,0-1.76-11c-.23-1.14.22-1.14.95-.31A11.08,11.08,0,0,1,335,348a15.46,15.46,0,0,1,1.09,2.84,48.18,48.18,0,0,1,1.42,11.77,55,55,0,0,1-1.23,11.79,104.5,104.5,0,0,1-3.68,14,71.54,71.54,0,0,1-7,14.32,42.45,42.45,0,0,1-6.22,7.72,14.66,14.66,0,0,1-6.77,3.91,7,7,0,0,1-4.19-.49,5.71,5.71,0,0,1-1.81-1.25,6.26,6.26,0,0,1-1.18-1.85,13.15,13.15,0,0,1-.51-6.07,47.93,47.93,0,0,1,1-5.61l.53-2.38c.74-2.94.94-3.55,1.78-4.17.19-.15.34-.36.52-.5a.39.39,0,0,1,.48,0,1.27,1.27,0,0,1,.49.67,6,6,0,0,1,.2,2.89c-.46,3.46-1.37,6.72-1.67,9.87a9.29,9.29,0,0,0,.27,4,2.23,2.23,0,0,0,.75,1,2.61,2.61,0,0,1,.28.17l.34.15a2.45,2.45,0,0,0,.76.2c.19,0,.34.09.54,0l.59,0a6.81,6.81,0,0,0,1.32-.44,12.56,12.56,0,0,0,2.76-1.71,29.4,29.4,0,0,0,4.95-5.28Z"/><path class="cls-1" d="M314.4,392c-1.46-1-2.92-2-4.46-2.87-.56-.33-1.16-.55-1.73-.86-1-.55-2-1-3.06-1.52l-1.57-.7-1.6-.63a23.37,23.37,0,0,0-2.94-.83c-1.27-.28-2.57-.45-3.83-.85-.39-.13-.29-.46.1-.77a2.94,2.94,0,0,1,1.88-.56,26.93,26.93,0,0,1,8.07,1.87c.76.33,1.55.64,2.34,1s1.6.63,2.37,1a46.26,46.26,0,0,1,4.88,2.7c1,.61,1.91,1.25,2.86,1.88,1.42,1,2.8,2,4.22,2.95,1.09.74,2.27,1.31,3.39,2,.25.15.5.28.74.45.87.62,1,1,.75,1.74-.07.17-.11.35-.19.51-.27.53-.92.66-1.66.35a31.2,31.2,0,0,1-6.17-3.67c-1.47-1-2.93-2.08-4.42-3.06Z"/><path class="cls-1" d="M336.78,426.65c-1.84-1.12-3.76-2.3-5.59-3.37-.68-.39-1.41-.69-2.09-1.07a62.35,62.35,0,0,0-7.41-3.69,24.81,24.81,0,0,0-3.5-1.09c-1.51-.4-3.05-.63-4.54-1.14-.46-.16-.34-.66.16-1.13a3,3,0,0,1,2.33-.79,24.21,24.21,0,0,1,4.91,1.09,32.36,32.36,0,0,1,4.63,1.94c1.77.94,3.73,1.62,5.53,2.59,2,1.05,3.86,2.2,5.76,3.29l3.53,2.06c1.78,1.05,3.52,2.19,5.27,3.3,1.35.87,2.77,1.62,4.09,2.58a7.82,7.82,0,0,1,.85.67,2.49,2.49,0,0,1,.82,1.2,1.32,1.32,0,0,1-.1,1,3.45,3.45,0,0,1-.2.43c-.26.41-1,.36-1.83,0a5.72,5.72,0,0,1-.92-.48l-.89-.5-1.73-1.13c-1.16-.76-2.35-1.53-3.56-2.29-1.81-1.13-3.65-2.26-5.55-3.34Z"/><path class="cls-1" d="M188.67,278.64a33.64,33.64,0,0,0-5.68,2.89,12,12,0,0,0-2.23,1.85,3.86,3.86,0,0,0-.61.9c-.11.27-.11.35-.08.47a3.47,3.47,0,0,0,1.55,1.63,17.89,17.89,0,0,0,5.31,1.83,49.21,49.21,0,0,0,10.55.94,63.73,63.73,0,0,0,10.68-1,46.63,46.63,0,0,0,9.11-2.71,42.06,42.06,0,0,0,5.37-2.69c.85-.51,1.68-1,2.45-1.61a9,9,0,0,0,1.89-1.72.38.38,0,0,1,.28-.21c.1,0,.25-.06.41-.08a.67.67,0,0,1,.53.18,1.38,1.38,0,0,1,.34.87,4.62,4.62,0,0,1-.86,2.71,8.41,8.41,0,0,1-2.58,2.48,44.91,44.91,0,0,1-12.24,5,56.44,56.44,0,0,1-13,1.72c-2.61,0-5.27,0-7.95-.11a36.7,36.7,0,0,1-8.05-1.29,16.6,16.6,0,0,1-3.69-1.56,6.56,6.56,0,0,1-3.07-3.39,3.74,3.74,0,0,1-.09-1.93,5.15,5.15,0,0,1,.66-1.54,9.54,9.54,0,0,1,1.91-2.11,23.63,23.63,0,0,1,4.35-2.83A55,55,0,0,1,194,273.48a61,61,0,0,1,16.05-2.39,40.46,40.46,0,0,1,12.47,1.58,17.35,17.35,0,0,1,2.68,1.06,7.46,7.46,0,0,1,3.11,2.63,2,2,0,0,1,.18,2.06,1.75,1.75,0,0,1-.46.61c-.31.19-.62,0-1-.34a15.49,15.49,0,0,0-1.73-1.32,16.35,16.35,0,0,0-4.53-1.88,33.87,33.87,0,0,0-5.2-1,47.32,47.32,0,0,0-10.9,0,62.86,62.86,0,0,0-16,4.15Z"/><path class="cls-1" d="M212.32,297.21a27.48,27.48,0,0,1-5.33,1.28c-1.74.22-3.49.36-5.24.43-1.28.05-2.56.17-3.83.13a46.42,46.42,0,0,1-13.35-2.21,13.51,13.51,0,0,1-5.5-3.23,8.81,8.81,0,0,1-2.16-3.7,7.73,7.73,0,0,1-.06-4.21c.11-.42.41-.59.71-.49a2.9,2.9,0,0,1,1,.74,6.61,6.61,0,0,1,1.66,2.72,6.42,6.42,0,0,0,3.42,4.28,16.81,16.81,0,0,0,3.1,1.28c1.13.37,2.31.68,3.5,1a38.14,38.14,0,0,0,9,.67c1.67,0,3.35-.1,5-.24.84-.08,1.67-.17,2.5-.28a18.4,18.4,0,0,0,2.36-.5,58.84,58.84,0,0,0,5.89-2c3-1.2,6.19-1.94,8.73-3.53a6.82,6.82,0,0,0,3.39-5.16,10.76,10.76,0,0,0,.07-1.4c0-1.78,0-2.39.85-2.93a3.7,3.7,0,0,1,.55-.36c.6-.3,1.31.43,1.6,2a10.23,10.23,0,0,1,.15,1.86,9.32,9.32,0,0,1-1.82,5.81,12,12,0,0,1-3.08,2.77,23.1,23.1,0,0,1-3.4,1.72c-1.67.69-3.35,1.22-4.88,1.79s-3.18,1.24-4.87,1.84Z"/><path class="cls-1" d="M189.31,296c-1.52-1.76-1.83-4.87.95-5.69"/><path class="cls-1" d="M198.55,289.89c-2.79,2.22-2.3,6.62,1.24,7.67a1,1,0,0,0,.53-1.93c-2.21-.65-1.89-3.11-.35-4.32,1-.8-.42-2.21-1.42-1.42Z"/><path class="cls-1" d="M211.15,290.46c1.53.48,1.07,2.83.73,4a1,1,0,0,0,1.93.53c.69-2.34.63-5.56-2.12-6.44-1.23-.39-1.76,1.54-.54,1.93Z"/><path class="cls-1" d="M220.53,287.77c.13,0,.1,0,0-.11a.54.54,0,0,1,.1.3,7.6,7.6,0,0,1-.09,1.35c-.14.78-.38,1.53-.59,2.29a1,1,0,0,0,1.93.53c.56-2,1.89-6.91-1.86-6.29-1.27.22-.73,2.14.53,1.93Z"/><path class="cls-1" d="M195.89,203.33a25.54,25.54,0,0,0-1.66,9,8.23,8.23,0,0,0,1,3.9A3.42,3.42,0,0,0,198,217.9l.36,0h.38l.76,0a14.54,14.54,0,0,0,1.58-.28,15.78,15.78,0,0,0,1.59-.45c.53-.18,1.06-.36,1.58-.59a29,29,0,0,0,5.36-2.84c.88-.53,1.68-1.19,2.52-1.78s1.63-1.28,2.39-2a56.47,56.47,0,0,0,8.31-9.33,52.27,52.27,0,0,0,5.45-9.69,40.62,40.62,0,0,0,2.21-6.66,23.48,23.48,0,0,0,.55-3.34,7.56,7.56,0,0,0-.21-3c-.17-.47-.17-.74.07-1s.79-.29,1.49.21a5,5,0,0,1,1.67,2.78,9.49,9.49,0,0,1,0,4.22,46.41,46.41,0,0,1-6,14.24,58,58,0,0,1-9.58,11.9,59.91,59.91,0,0,1-7.25,5.92,29.56,29.56,0,0,1-8.62,4.22,13.24,13.24,0,0,1-5.58.44,11.49,11.49,0,0,1-1.48-.38,9.31,9.31,0,0,1-1.42-.78,6.78,6.78,0,0,1-2-2.4,12.23,12.23,0,0,1-1.15-5.46,25.26,25.26,0,0,1,.58-5.24,42.22,42.22,0,0,1,4.65-11.78,48,48,0,0,1,12.47-14.28,37.06,37.06,0,0,1,13-6.83,18.09,18.09,0,0,1,3.33-.55,8.38,8.38,0,0,1,4.61.87,2.45,2.45,0,0,1,1.4,1.76,2.61,2.61,0,0,1,0,.82c-.1.36-.53.35-1.14.19a17.23,17.23,0,0,0-2.66-.51,15,15,0,0,0-5.65.77,30.58,30.58,0,0,0-5.64,2.43,43.18,43.18,0,0,0-10.07,7.7A44.39,44.39,0,0,0,196,203.35Z"/><path class="cls-1" d="M188.08,192.71a56.91,56.91,0,0,1,9.17-12.07,45.16,45.16,0,0,1,12.24-9.07c1.44-.76,2.91-1.42,4.42-2a19.72,19.72,0,0,1,4.92-1.18,18.82,18.82,0,0,1,8.84,1,11.06,11.06,0,0,1,4.82,3.5,15,15,0,0,1,.83,1.3c.21.47.41.95.59,1.42a9.83,9.83,0,0,1,.39,3c0,1.25-.86,1-1.74.14a7.76,7.76,0,0,1-.64-.72c-.2-.27-.48-.53-.69-.82a4.37,4.37,0,0,1-.31-.44l-.36-.43c-.23-.3-.38-.63-.63-.93-1.43-2.3-4.45-3.61-7.64-3.86a18,18,0,0,0-4.85.24l-1.19.26-1.16.37c-.8.31-1.64.63-2.45,1a40.84,40.84,0,0,0-10.81,7.21,50.35,50.35,0,0,0-9.35,10.95,52.77,52.77,0,0,0-4.22,7.87,31.11,31.11,0,0,0-2,6.38,15.27,15.27,0,0,0,.08,6.46,7.5,7.5,0,0,0,2.43,3.92,10.7,10.7,0,0,0,4.22,2,18.37,18.37,0,0,0,2.1.34,28,28,0,0,1,2.86.39,2.24,2.24,0,0,1,1.33.83,4.37,4.37,0,0,1,.44.57c.32.63-.85,1.31-3.13,1.38a17.56,17.56,0,0,1-5.17-.61,11.87,11.87,0,0,1-5-2.72,10.71,10.71,0,0,1-3.06-5.18,17.57,17.57,0,0,1-.48-5.64c.46-5.49,2.63-10.35,5.11-14.81Z"/><path class="cls-1" d="M219.44,169.1a5.57,5.57,0,0,0-1.62,7.69c.69,1.08,2.43.07,1.73-1a3.55,3.55,0,0,1,.9-4.95c1.1-.67.09-2.4-1-1.73Z"/><path class="cls-1" d="M206.61,174.51a8.14,8.14,0,0,0,.31,8.59,1,1,0,0,0,1.73-1,6.09,6.09,0,0,1-.31-6.57c.6-1.13-1.13-2.15-1.73-1Z"/><path class="cls-1" d="M194.47,186.55c0,2.92,1.41,5.44,4.37,6.17a1,1,0,0,0,.53-1.93c-2.1-.51-2.92-2.19-2.9-4.24a1,1,0,0,0-2,0Z"/><path class="cls-1" d="M186.26,199.49c-.2,3.08,2.46,5,5.16,5.7a1,1,0,0,0,.53-1.92c-1.86-.48-3.83-1.6-3.69-3.78.09-1.28-1.91-1.28-2,0Z"/><path class="cls-1" d="M168.08,131.15a27.79,27.79,0,0,0-8-18.55,25,25,0,0,0-6.08-4.4,19.25,19.25,0,0,0-12.72-2.06,17.39,17.39,0,0,0-6.08,2.46,15,15,0,0,0-4.73,4.53,19,19,0,0,0-2.46,5.39,22.62,22.62,0,0,0-.75,5.9,29.77,29.77,0,0,0,4.34,14.51c.78,1.39,0,1.75-1.43,1a8.68,8.68,0,0,1-1.22-.78,11,11,0,0,1-1.27-1.28c-.22-.24-.44-.51-.65-.79s-.39-.61-.58-.94a10.17,10.17,0,0,1-1-2.16,26.68,26.68,0,0,1-.21-17.49,20.55,20.55,0,0,1,4.72-7.69,20.09,20.09,0,0,1,7.63-4.73,22.09,22.09,0,0,1,10.68-1,24.29,24.29,0,0,1,9.95,4,29.49,29.49,0,0,1,8,8.37,31.07,31.07,0,0,1,4.4,10.66,30.26,30.26,0,0,1,.49,7.11,26.48,26.48,0,0,1-1.42,7,21.57,21.57,0,0,1-6.07,8.89c-.35.29-.67.61-1,.88l-1.12.77a17,17,0,0,1-2.39,1.34,13,13,0,0,1-1.28.49,10.21,10.21,0,0,1-1.29.42,16.4,16.4,0,0,1-2.68.49,23.89,23.89,0,0,1-15.72-4.24,14.07,14.07,0,0,1-1.49-1c-.47-.36-1-.72-1.43-1.12-3.38-3-3.95-4.49-3.88-5.71a4,4,0,0,1,.09-.83c.14-.36.59-.27,1.26.18a10.94,10.94,0,0,1,1.14,1c.45.38,1,.82,1.51,1.35a29.23,29.23,0,0,0,11.54,6.76,15.69,15.69,0,0,0,12.56-1.46,18.61,18.61,0,0,0,6.47-7.31,22,22,0,0,0,2.06-9.83Z"/><path class="cls-1" d="M130.08,151.59a31.37,31.37,0,0,1-9.54-12L119.48,137a24.84,24.84,0,0,1-.8-2.71,26.86,26.86,0,0,1-.31-9.87,24.19,24.19,0,0,1,3.54-9.15,32.72,32.72,0,0,1,2.59-3.51,30.53,30.53,0,0,1,3.17-3,16.26,16.26,0,0,1,2.23-1.65l1.18-.74a8,8,0,0,1,1.21-.68c.84-.39,1.69-.76,2.54-1.11s1.78-.49,2.67-.69c1.13-.24,1.15.62.5,1.67a9.24,9.24,0,0,1-3.62,3,24.78,24.78,0,0,0-7.87,5.82,22.55,22.55,0,0,0-4.77,8.63,21.72,21.72,0,0,0,.5,12.3c.17.55.41,1.08.61,1.62a13.13,13.13,0,0,0,.66,1.6,34.87,34.87,0,0,0,1.66,3.07A28.29,28.29,0,0,0,136.74,152a21.7,21.7,0,0,0,12.73,2,19.72,19.72,0,0,0,8.9-4.13c.56-.48,1.1-.92,1.63-1.43,2-1.83,2.65-2.4,3.71-2.28a5.28,5.28,0,0,1,.72.08c.34.11.42.47.25,1a6.31,6.31,0,0,1-1.33,2.16,22.76,22.76,0,0,1-8.14,6.1,22.51,22.51,0,0,1-10.53,1.84,26.14,26.14,0,0,1-7.77-1.77,31.32,31.32,0,0,1-6.87-3.86Z"/><path class="cls-1" d="M119.74,126.65c1.73,2.11,4.61,1.9,6.75.54,1.09-.69.08-2.42-1-1.73-1.43.91-3.15,1.21-4.33-.23-.82-1-2.22.43-1.41,1.42Z"/><path class="cls-1" d="M122.49,139.79c1.81,2.57,6.4,2.87,8.88,1.1,1-.75,0-2.48-1-1.73-1.5,1.08-5,1.31-6.14-.38-.74-1.05-2.47-.05-1.73,1Z"/><path class="cls-1" d="M133.38,151.5a6.26,6.26,0,0,0,6.54-2.9,1,1,0,0,0-1.73-1,4.21,4.21,0,0,1-4.28,2c-1.26-.28-1.79,1.65-.53,1.93Z"/><path class="cls-1" d="M56.66,251.8,54,242.87c-.33-1.09-.74-2.14-1-3.25l-1.39-5.52c0-.24-.19-.27-.35-.36L50,233.19,47.19,232c-1.63-.68-3.29-1.3-4.94-1.86-2.13-.72-4.28-1.32-6.37-2.17-.65-.26-.44-.71.26-1.05a5.28,5.28,0,0,1,3.23-.3q3.42.79,6.74,1.88c1.12.35,2.19.78,3.27,1.21l1.6.67.8.34.4.17.72.28c.5.29,1.22.35,1.24,1.07l.44,1.47c.2.68.42,1.35.64,2,.45,1.35.94,2.69,1.38,4l2.65,9,1.66,5.53c.86,2.79,1.67,5.61,2.59,8.35.72,2.14,1.58,4.18,2.37,6.27.17.47.36.91.52,1.38.57,1.75.52,2.38-.2,3a3.2,3.2,0,0,1-.5.41c-.59.35-1.32-.22-1.88-1.44a122.63,122.63,0,0,1-4.34-11.54c-1-3-1.93-5.94-2.89-8.91Z"/><path class="cls-1" d="M86.75,257l-4.58,4.74c-.56.57-1.06,1.2-1.62,1.78l-6,6.06c-.86.91-1.69,1.86-2.49,2.82-1.07,1.2-1.92,2.6-3.43,3.44-.46.28-.72-.12-.8-.8a5.16,5.16,0,0,1,0-1.18,2.87,2.87,0,0,1,.14-.66,2,2,0,0,1,.36-.55,91.78,91.78,0,0,1,6.75-7.09c1.46-1.35,2.72-3,4.09-4.45,1.49-1.64,3-3.23,4.58-4.83l2.84-3c1.43-1.5,2.9-3,4.29-4.49,1.08-1.17,2-2.43,3.1-3.63.23-.26.44-.54.69-.79,1-.9,1.42-1,2.06-.74a2.46,2.46,0,0,1,.43.21c.42.29.32,1-.23,1.73a67,67,0,0,1-5.64,6.61l-4.54,4.82Z"/><path class="cls-1" d="M121,345.33,115.42,320c-.69-3.09-1.5-6.14-2.17-9.23l-7.11-32.64c-1.06-4.82-2.23-9.65-3.4-14.41-1.57-6.08-3-12.28-4.1-18.43-.34-1.88.23-1.85,1.25-.39a21.1,21.1,0,0,1,1.77,3.11,28.55,28.55,0,0,1,1.81,4.62l1.32,4.65c.44,1.55.8,3.12,1.2,4.67l2.28,9.39c1.48,6.27,2.93,12.56,4.18,18.92,1.51,7.62,3.56,15.42,5.34,23.15l5.82,25.52,3.6,15.7c1.84,7.92,3.64,15.88,5.6,23.71,1.53,6.08,3.27,12,4.94,18,.37,1.31.78,2.58,1.13,3.91,1.25,4.95,1.17,6.62.54,7.92a4.69,4.69,0,0,1-.44.87c-.28.33-.68,0-1.22-.79a21.23,21.23,0,0,1-1.87-3.93c-1.84-5.26-3.29-10.77-4.8-16.35s-2.86-11.28-4.22-17c-2-8.48-4-17-5.93-25.54Z"/><path class="cls-1" d="M165,373.79l-5.8,9.39c-.7,1.14-1.33,2.33-2,3.47l-7.52,12.05c-1.1,1.79-2.13,3.64-3.2,5.43A45.19,45.19,0,0,1,142,411c-.6.68-1,.15-1.06-.78a6.42,6.42,0,0,1,.74-3.65l2-3.58c.65-1.19,1.31-2.39,2-3.54,1.43-2.33,2.92-4.63,4.47-6.92,1.86-2.73,3.44-5.77,5.17-8.66l5.75-9.52,3.55-5.86c1.77-3,3.61-5.91,5.31-8.89,1.32-2.32,2.51-4.66,3.85-6.95a13.59,13.59,0,0,1,1-1.46,9.19,9.19,0,0,1,1.57-1.78,2.26,2.26,0,0,1,1.14-.47,2.38,2.38,0,0,1,.44,0c.19,0,.2.28.12.7a7.85,7.85,0,0,1-.54,1.73,83.81,83.81,0,0,1-6.71,13l-5.71,9.54Z"/><path class="cls-1" d="M258.91,220.36l-5.42,8.43c-.66,1-1.22,2.1-1.89,3.12l-7.07,10.77c-1,1.6-2,3.25-2.95,4.89-.61,1.05-1.17,2.13-1.81,3.16a35.86,35.86,0,0,1-2.12,3c-.48.6-.86.27-1-.56a6.27,6.27,0,0,1,.41-3.46c1.05-2.25,2.28-4.4,3.49-6.57a73.4,73.4,0,0,1,4-6.33c1.72-2.46,3.11-5.24,4.68-7.87q2.58-4.32,5.26-8.6l3.26-5.28c1.62-2.68,3.3-5.35,4.81-8.07,1.17-2.11,2.11-4.3,3.15-6.46.22-.47.46-.93.73-1.39,1.05-1.67,1.57-2.08,2.65-2a5.92,5.92,0,0,1,.64,0c.56.1.9,1.22.4,2.59a26.68,26.68,0,0,1-1.12,3.1c-.45,1-.94,2-1.45,3-1,2-2.14,3.93-3.28,5.89-1.69,2.89-3.48,5.76-5.22,8.64Z"/><path class="cls-1" d="M302.49,267.19l-7.69-16.81c-.95-2-2-4-2.92-6.08l-9.76-21.68c-1.45-3.2-3-6.39-4.52-9.52a105,105,0,0,1-5.42-12.37c-.46-1.34.14-1.37,1.2-.54a16.68,16.68,0,0,1,3.85,4.73l1.64,3c.55,1,1,2,1.53,3.07,1,2.06,2,4.13,3,6.19,2,4.14,3.87,8.32,5.68,12.56,2.14,5.1,4.79,10.2,7.18,15.31l7.86,16.88,4.83,10.39c2.47,5.24,4.89,10.53,7.42,15.68,2,4,4.09,7.85,6.12,11.78.45.86.92,1.69,1.35,2.58a16.92,16.92,0,0,1,1.42,3.62,3,3,0,0,1-.26,2,4.61,4.61,0,0,1-.4.71c-.27.29-.68.14-1.22-.34a9.28,9.28,0,0,1-1.82-2.43c-3.89-6.85-7.57-14.31-11.18-21.84q-4-8.42-7.95-16.86Z"/><path class="cls-1" d="M349,276.59l-3.5,7.05c-.42.86-.77,1.75-1.2,2.61l-4.55,9c-.67,1.33-1.24,2.72-1.86,4.07a39.46,39.46,0,0,1-2.62,5.09c-.33.51-.64.28-.83-.36a5.14,5.14,0,0,1,0-2.76,54.81,54.81,0,0,1,4.69-10.71c1.15-2.05,2-4.34,3-6.51l3.39-7.15,2.1-4.39c1-2.23,2.13-4.45,3.08-6.7.74-1.74,1.3-3.52,1.94-5.29.14-.39.26-.78.41-1.16.59-1.43.95-1.81,1.83-1.79a3.57,3.57,0,0,1,.57,0c.55.08.85.89.53,2a68.26,68.26,0,0,1-3.66,9.8c-1.06,2.41-2.2,4.81-3.3,7.21Z"/><path class="cls-1" d="M420.47,301.84,414,285.65c-.8-2-1.67-3.9-2.46-5.87l-8.21-20.87c-1.23-3.08-2.49-6.17-3.78-9.2l-2.47-5.85c-.4-1-.68-2-1-3s-.61-2.05-.86-3.1c-.32-1.32.11-1.24,1-.37a23.2,23.2,0,0,1,3.48,4.62c3.45,7.89,6.72,15.87,9.66,24.08,1.77,4.9,4,9.84,6,14.77l6.59,16.28,4.08,10c2.08,5.05,4.13,10.13,6.28,15.1,1.67,3.87,3.48,7.58,5.23,11.36.39.84.79,1.64,1.17,2.49,1.35,3.14,1.66,4.21,1,5.26-.11.22-.17.49-.26.63-.21.44-1.65-.47-2.69-2.75-3.41-6.63-6.55-13.82-9.62-21.08-2.28-5.39-4.5-10.83-6.74-16.25Z"/><path class="cls-1" d="M442.39,336.52l1.83-3.16c.22-.39.38-.81.6-1.19.77-1.37,1.54-2.74,2.27-4.12.32-.62.6-1.26.87-1.89l.5-1.24a6.64,6.64,0,0,1,.75-1.12c.18-.22.42-.07.62.28a2.24,2.24,0,0,1,.3,1.42,31.9,31.9,0,0,1-2.33,4.91,32.19,32.19,0,0,0-1.39,3c-.51,1.12-1,2.22-1.58,3.33l-1,2c-.51,1-1.06,2-1.51,3.07-.35.82-.58,1.67-.85,2.51a1.53,1.53,0,0,1-.22.53c-.43.59-.71.71-1.21.63a1.86,1.86,0,0,1-.34,0c-.34-.09-.51-.49-.51-1.08v-.65a2.68,2.68,0,0,1,.13-.59c.12-.39.25-.77.4-1.15.29-.75.63-1.5,1-2.24.52-1.1,1.11-2.18,1.66-3.27Z"/><path class="cls-1" d="M463.72,345.16c1.55,3.17,3.1,6.35,4.72,9.49.59,1.15,1.26,2.24,1.86,3.38,1.05,2,2.11,4,3.24,6,.28.49.57,1,.87,1.43l.38.6a2.36,2.36,0,0,0,.2.31l.22.31.12.17.11-.14.48-.58.85-1.13.88-1.22c.57-.83,1.13-1.66,1.66-2.5a54.16,54.16,0,0,1,4.2-6.52c.53-.63.87-.24.89.6a7.18,7.18,0,0,1-.92,3.39,67.63,67.63,0,0,1-4.17,6.82c-.39.55-.77,1.1-1.17,1.63-.13.15-.58.82-.94,1.26l-1.13,1.37-.56.67-.14.17s0,.06-.07.07l-.07-.09-.28-.36-1.12-1.41a13.81,13.81,0,0,1-1-1.41l-.55-.92c-1.61-2.82-3.38-5.62-4.94-8.48-1.71-3.15-3.35-6.33-5-9.51l-3-5.89c-1.51-3-3-6-4.53-8.88-1.22-2.25-2.52-4.42-3.77-6.62-.28-.49-.57-.95-.83-1.45-.89-1.88-1-2.55-.66-3.25a3.43,3.43,0,0,1,.23-.47c.31-.41,1.1.15,2,1.39A87.18,87.18,0,0,1,459,335.55l4.8,9.57Z"/><path class="cls-1" d="M382,268.46l-5.64,10.11-1,1.86-.51.93-.3.53c-.14.26-.3.52-.46.78l-.79,1.35-.4.67c-.13.17-.25.63-.42.23-.65-.82-1.3-1.61-1.9-2.51l-.67-1-.51-.79-1-1.58c-1.32-2.11-2.59-4.24-3.87-6.36L361,267.06c-1.46-2.39-3-4.78-4.23-7.27-.4-.78-.07-.84.6-.39a11,11,0,0,1,2.58,2.78c3.19,4.75,6.18,9.61,9.15,14.52.44.73.92,1.46,1.4,2.18l1.34,1.94.26.34.13.16.1-.18.73-1.33c1.83-3.4,3.63-6.84,5.42-10.27l3.29-6.36c1.65-3.21,3.33-6.43,4.86-9.67,1.19-2.53,2.24-5,3.34-7.57.24-.56.45-1.11.7-1.67.93-2.06,1.36-2.63,2.15-2.82a2.23,2.23,0,0,1,.54-.13c.54,0,.58,1,0,2.62a109.13,109.13,0,0,1-6.06,14.17c-1.74,3.47-3.53,6.94-5.36,10.37Z"/><path class="cls-1" d="M210.88,278.28l2.37-.58c.63-.15.36-1.11-.27-1l-2.36.57c-.63.15-.36,1.12.26,1Z"/><path class="cls-1" d="M212.35,280.19l1.57-.4a.5.5,0,0,0-.26-1l-1.58.4a.5.5,0,0,0,.27,1Z"/><path class="cls-1" d="M194,282.51l2.12-.51a.5.5,0,0,0-.27-1l-2.12.51c-.62.15-.36,1.12.27,1Z"/><path class="cls-1" d="M194.94,284.5l2.38-.61c.63-.15.36-1.12-.26-1l-2.38.61a.5.5,0,0,0,.26,1Z"/><path class="cls-1" d="M207.32,281.32a6.87,6.87,0,0,0,2.51.86c.61.05,1.12-.4,1.31-1.25a3.28,3.28,0,0,0-.27-1.87,2,2,0,0,0-.94-1.1,4.71,4.71,0,0,0-1.76,0,36.71,36.71,0,0,0-4.09.68c-1.2.27-2.4.61-3.57,1-1.48.52-3,1-4.42,1.55-.44.16-.55-.13-.32-.61a3.42,3.42,0,0,1,1.71-1.51,33.67,33.67,0,0,1,4.72-1.52,35.9,35.9,0,0,1,4.9-.91c.5-.05,1-.11,1.53-.15a4.78,4.78,0,0,1,1.79.14,3.19,3.19,0,0,1,1.51,1.22,4.42,4.42,0,0,1,.68,1.62,5.21,5.21,0,0,1,.06,1.93,3.27,3.27,0,0,1-.93,1.86,2.93,2.93,0,0,1-2,.81,5.56,5.56,0,0,1-1.87-.3,12.17,12.17,0,0,1-2-.89c-.39-.21-.45-.25-.61-.35l-.44-.3-.17-.12-.09-.06-.05,0,0,0a.88.88,0,0,1,.14.36,1.33,1.33,0,0,1,0,.4,2.1,2.1,0,0,1-.15.53,3.64,3.64,0,0,1-2.71,2.12,4.66,4.66,0,0,1-2.69,0,6.72,6.72,0,0,1-2.3-1.31,8.6,8.6,0,0,1-.83-.77c-.92-1.07-1-1.58-.64-2.09a3.07,3.07,0,0,1,.24-.35c.31-.3.87,0,1.46.6a7.22,7.22,0,0,0,2.86,2,3.39,3.39,0,0,0,1.46.07,2.71,2.71,0,0,0,1.33-.5,1.26,1.26,0,0,0,.28-.33l.06-.1v-.38c.12-.14-.25-.84-.45-1.35a1,1,0,0,1-.08-.19l0-.13,0-.24a1.58,1.58,0,0,1,.08-.44l.11-.29c0-.1.09-.07.14-.11a.23.23,0,0,1,.32.19c.38-1.05,3.83,1.67,4,1.59Z"/><path class="cls-1" d="M151.52,123.46a2.43,2.43,0,0,0-.15-.7A3.75,3.75,0,0,0,151,122a3.66,3.66,0,0,0-1.22-1.16,3.23,3.23,0,0,0-1.15-.37,3.11,3.11,0,0,0-1.56.12c-.18.06-.42.17-.63.25l-2.58,1.08c-.76.33-1.5.7-2.23,1.09a13.68,13.68,0,0,1-2.87,1.35c-.65.16-.72-1.92.37-2.46a45.16,45.16,0,0,1,6-2.51c.31-.11.61-.23.92-.36a7.25,7.25,0,0,1,1.12-.39,4.76,4.76,0,0,1,2.43,0,5.67,5.67,0,0,1,3.63,3.39,4.44,4.44,0,0,1,0,3.13,6.39,6.39,0,0,1-3,3.33c-.84.51-1.69,1.2-2.52,1.8-.19.13-.36.28-.55.41-.72.47-1,.5-1.45.14-.09-.08-.2-.16-.29-.25-.28-.3-.15-.77.32-1.2A22.11,22.11,0,0,1,148,127.7l.6-.4.31-.2.15-.1.24-.13a4.66,4.66,0,0,0,.89-.66,3.48,3.48,0,0,0,1.27-2.74Z"/><path class="cls-1" d="M154.86,134.48a3.34,3.34,0,0,0,.79-3,4.63,4.63,0,0,0-.58-1.1c-.73-1.24-2.42-1.66-4.09-1.32a3.85,3.85,0,0,0-1,.34l-1.1.56a12.75,12.75,0,0,1-2.87,1.35c-.65.17-.72-1.91.36-2.46s1.89-.92,3-1.37a6.94,6.94,0,0,1,3.8-.31,6.62,6.62,0,0,1,2.24.86,5.13,5.13,0,0,1,1.64,1.77,4.91,4.91,0,0,1,.67,2.51,5.27,5.27,0,0,1-.65,2.46,6.22,6.22,0,0,1-2,2.23l-.26.16-.27.14-.46.22-.92.44c-.61.29-1.22.59-1.82.91-.92.5-1.78,1.09-2.66,1.64-.2.12-.38.26-.58.37-.75.42-1.05.42-1.45,0a2.29,2.29,0,0,1-.27-.27c-.26-.33-.1-.78.4-1.17a31.43,31.43,0,0,1,5-3l2-1,.12-.06.17-.11a4.08,4.08,0,0,0,.33-.25,4.8,4.8,0,0,0,.58-.61Z"/><path class="cls-1" d="M140.07,123a85.34,85.34,0,0,1,8,16.62c.44,1.24,2.42.7,2-.54a87.07,87.07,0,0,0-8.2-17.11c-.69-1.12-2.46-.09-1.77,1Z"/><path class="cls-1" d="M214.49,197.06l-1.85.69-.25.08c-.13,0-.28.07-.42.11a4.24,4.24,0,0,1-.81.18,7.56,7.56,0,0,1-1.43,0,3.37,3.37,0,0,1-.6-.06c.2-.54.39-1,.61-1.52a9,9,0,0,1,1.9-2.55,19.63,19.63,0,0,1,2-1.69c.61-.46,1.21-.92,1.84-1.34a8.91,8.91,0,0,1,2.6-1.34c.3-.08.34.17.21.5a2.19,2.19,0,0,1-.88,1,30.67,30.67,0,0,0-4.51,3.33,8,8,0,0,0-1.13,1.26l-.23.32-.08.13c0,.08-.09.17-.14.26l-.06.15c-.07.08,0,0,.06.07h.15a1.15,1.15,0,0,0,.31,0l.19-.06.39-.15.8-.33a11.49,11.49,0,0,1,2.4-.83,3,3,0,0,1,.52-.06,2.45,2.45,0,0,1,.54,0,1.72,1.72,0,0,1,.65.15,2.18,2.18,0,0,1,.59.25c.54.1.3.66.27,1a4.37,4.37,0,0,1-.17.62,3.66,3.66,0,0,1-.2.48,16.15,16.15,0,0,1-1.52,2.53c-.13.17-.24.35-.37.51-.48.6-.7.7-1.15.54l-.31-.1c-.32-.15-.34-.6,0-1.1.44-.74.95-1.41,1.38-2.08a7.61,7.61,0,0,0,.56-1c.21-.45.12-.27.13-.31h0s0,0,0,0a1.1,1.1,0,0,0-.32,0,5.18,5.18,0,0,0-1.61.4Z"/><path class="cls-1" d="M126.87,166.3c.29-.24.62,0,1.08.52.14.17.31.74.22.85a3.78,3.78,0,0,1-.55.58,11.94,11.94,0,0,1-3.14.81,8.07,8.07,0,0,1-2.25,0,22,22,0,0,1-4.37-1.08,3.21,3.21,0,0,1-.89-.44c-1-.61-2-1.12-3-1.65a1.22,1.22,0,0,0-.52-.23,5,5,0,0,1-1.58-1,12.85,12.85,0,0,1-1.39-1.36c-.57-.85-1.14-1.66-1.62-2.54-.06-.13-.18-.22-.18-.39a1.66,1.66,0,0,0-.31-.87,4.84,4.84,0,0,1-.46-1.16,2.73,2.73,0,0,1-.06-.64c0-.18.25-.19.3-.15s.2-.05.28-.1a.24.24,0,0,1,.1-.05s.42.43.81.84.9.77,1,.86.57.58,1.17,1.12l.91.71a6.54,6.54,0,0,0,.58.36,1.71,1.71,0,0,1,.39.37c.06.08,2.21,1.23,2.29,1.27.4.3.9.43,1.24.87a.71.71,0,0,0,.26.16c.8.33,1.56.76,2.38,1.08a8,8,0,0,0,1.27.37.91.91,0,0,1,.22.11,1.39,1.39,0,0,0,.28.12,10.8,10.8,0,0,0,3.08.35,5.45,5.45,0,0,1,.8.11,3.21,3.21,0,0,0,.82,0C126.19,166.09,126.75,166.43,126.87,166.3Z"/><path class="cls-1" d="M100.59,107.16c.07.45-.25.76-.81,1-.18.08-.67,0-.72-.14a4.69,4.69,0,0,1-.24-.81,25.72,25.72,0,0,1,.39-3.57,12.35,12.35,0,0,1,.67-2.45A31.09,31.09,0,0,1,102,96.52a6.08,6.08,0,0,1,.64-1c.82-1,1.57-2.09,2.36-3.12a2.14,2.14,0,0,0,.35-.55,11.18,11.18,0,0,1,1.33-1.66,21.59,21.59,0,0,1,1.6-1.54l1.41-1,1.44-.9a1,1,0,0,1,.43-.22,2.06,2.06,0,0,0,.94-.45,10.27,10.27,0,0,1,1.26-.69,4.29,4.29,0,0,1,.7-.2c.22-.05.26.23.21.3s.08.19.15.27a.3.3,0,0,1,.07.1,13.71,13.71,0,0,1-1,1c-.5.5-1,1.06-1.11,1.14s-.21.17-.49.43l-1,.94c-.7.74-1.47,1.46-1.59,1.64a2.69,2.69,0,0,1-.51.44,27.78,27.78,0,0,0-2,2.54A10.9,10.9,0,0,1,106,95.5a.82.82,0,0,0-.23.29c-.57.91-1.19,1.78-1.73,2.71-.29.47-.48,1-.73,1.48a1.84,1.84,0,0,1-.17.25,2.06,2.06,0,0,0-.17.33,19.13,19.13,0,0,0-1.29,3.68c-.08.28-.63,1.63-.66,2C101,106.41,100.55,107,100.59,107.16Z"/><path class="cls-1" d="M207.78,161.57c-.25.32-.66.27-1.16,0-.17-.09-.4-.5-.34-.61a4,4,0,0,1,.38-.64c.09-.13,1.85-1.45,2.48-1.87a12.3,12.3,0,0,1,1.9-1.09,33.2,33.2,0,0,1,4.17-1.72,4.66,4.66,0,0,1,1-.23c1.16-.16,2.28-.41,3.43-.6a1.63,1.63,0,0,0,.58-.13,7.34,7.34,0,0,1,1.92-.22,12,12,0,0,1,2,.14l1.51.43,1.45.55a.86.86,0,0,1,.39.23,1.66,1.66,0,0,0,.8.51,4.85,4.85,0,0,1,1.12.66,1.93,1.93,0,0,1,.44.5c.12.16-.12.4-.2.4s-.15.21-.2.33,0,.1-.06.13a7,7,0,0,1-1.21-.21c-.6-.12-1.22-.15-1.33-.21a5.29,5.29,0,0,0-.51-.15l-1.12-.21a12.78,12.78,0,0,0-1.89-.15,2.11,2.11,0,0,1-.56-.09,15.77,15.77,0,0,0-2.72.27,7.59,7.59,0,0,1-1.59.12.69.69,0,0,0-.32,0c-.45.13-.9.23-1.35.33l-1.36.35c-.46.13-.9.34-1.35.5-.08,0-.18,0-.26.06a3,3,0,0,0-.32.09,22.8,22.8,0,0,0-3.11,1.5c-.23.13-1.45.56-1.71.74S207.89,161.44,207.78,161.57Z"/><path class="cls-1" d="M208.06,259.92c.17.29-.15.52-.78.78a1.58,1.58,0,0,1-.89,0,3.22,3.22,0,0,1-.45-.54,12.13,12.13,0,0,1-.29-2.65,6.21,6.21,0,0,1,.26-1.87,18.18,18.18,0,0,1,1.42-3.54,3,3,0,0,1,.49-.67,21,21,0,0,0,1.72-2.22.76.76,0,0,0,.21-.42,5.22,5.22,0,0,1,.87-1.23,9.27,9.27,0,0,1,1.08-1.1l2-1.31c.09-.06.15-.17.3-.15.36,0,.5-.15.69-.3a4.82,4.82,0,0,1,.84-.54,2,2,0,0,1,.57-.08c.18,0,.4.36.4.42s.2.27.32.39a.71.71,0,0,1,.12.13,10,10,0,0,1-1,2c-.07,0-1.79,2-1.94,2.28a1,1,0,0,1-.37.28c-.08,0-1.26,1.73-1.28,1.8-.29.31-.46.7-.88.9a.37.37,0,0,0-.17.18c-.37.61-.81,1.16-1.19,1.76a6,6,0,0,0-.45,1,1,1,0,0,1-.13.16.57.57,0,0,0-.13.21,8.15,8.15,0,0,0-.66,2.41,9,9,0,0,0-.37,1.31C208.4,259.39,208,259.8,208.06,259.92Z"/></g></svg>