<svg version="1.1" xmlns="http://www.w3.org/2000/svg" width="128" height="128"><path d="M0 0 C42.24 0 84.48 0 128 0 C128 42.24 128 84.48 128 128 C85.76 128 43.52 128 0 128 C0 85.76 0 43.52 0 0 Z " fill="none" transform="translate(0,0)"/><path d="M0 0 C3.53601795 2.37491839 5.6838282 5.61687184 8.03051758 9.11376953 C8.51907227 9.81115234 9.00762695 10.50853516 9.51098633 11.22705078 C10.69969907 12.92854156 11.86736776 14.64470253 13.03051758 16.36376953 C12.99829102 15.29513672 12.96606445 14.22650391 12.93286133 13.12548828 C13.05845071 8.28778513 14.18676956 5.2423726 17.03051758 1.36376953 C20.35981201 -1.71539656 23.92396237 -2.90145466 28.40551758 -3.26123047 C34.05261632 -2.94430146 37.99528576 -0.48601965 42.03051758 3.36376953 C44.00331313 5.9900536 45.68936231 8.67147714 47.35083008 11.50439453 C48.95601408 14.23694032 50.68547611 16.78891166 52.53051758 19.36376953 C65.26011885 37.36377133 65.26011885 37.36377133 64.03051758 46.36376953 C61.28320421 51.65489157 57.74926025 55.45752197 52.03051758 57.36376953 C47.58876577 57.87985879 44.02959213 57.80336234 39.90551758 55.98876953 C35.87355789 52.30741503 32.7988019 48.06493877 30.03051758 43.36376953 C30.03051758 42.70376953 30.03051758 42.04376953 30.03051758 41.36376953 C29.37051758 41.36376953 28.71051758 41.36376953 28.03051758 41.36376953 C27.62833008 42.44658203 27.62833008 42.44658203 27.21801758 43.55126953 C26.03150396 46.36143336 24.75566119 48.8479351 23.03051758 51.36376953 C22.37051758 51.36376953 21.71051758 51.36376953 21.03051758 51.36376953 C20.70051758 52.35376953 20.37051758 53.34376953 20.03051758 54.36376953 C15.1827242 57.63603006 10.6984384 58.20750556 5.03051758 57.36376953 C-2.05081713 54.67774602 -4.96240227 49.55292303 -8.96948242 43.36376953 C-9.95783816 42.02178193 -10.95388926 40.68526425 -11.96948242 39.36376953 C-12.09323242 40.60126953 -12.21698242 41.83876953 -12.34448242 43.11376953 C-12.72694547 46.23998923 -13.27497765 48.6525619 -14.96948242 51.36376953 C-15.62948242 51.36376953 -16.28948242 51.36376953 -16.96948242 51.36376953 C-16.96948242 52.02376953 -16.96948242 52.68376953 -16.96948242 53.36376953 C-22.34243194 57.02194793 -26.45641261 58.48194258 -32.96948242 57.36376953 C-37.16609772 55.97039431 -39.98579086 53.81328252 -42.40698242 50.11376953 C-44.29808164 46.21595804 -44.95728867 42.60767787 -43.96948242 38.36376953 C-40.42762687 30.68795958 -35.67613044 23.61208241 -30.96948242 16.61376953 C-30.3790918 15.72044922 -29.78870117 14.82712891 -29.18041992 13.90673828 C-21.61955904 2.59875472 -14.64683323 -7.60167093 0 0 Z " fill="#3253A0" transform="translate(53.969482421875,35.63623046875)"/><path d="M0 0 C5.67039009 3.32701459 8.7069567 7.57423565 11.9921875 13.17578125 C13.5973715 15.90832704 15.32683353 18.46029838 17.171875 21.03515625 C29.90147627 39.03515805 29.90147627 39.03515805 28.671875 48.03515625 C25.92456163 53.32627829 22.39061767 57.12890869 16.671875 59.03515625 C14.62109375 59.2734375 14.62109375 59.2734375 12.359375 59.34765625 C11.25142578 59.40373047 11.25142578 59.40373047 10.12109375 59.4609375 C5.29953897 58.62274058 2.32774076 55.85224654 -0.6640625 52.125 C-1.33695313 51.08472656 -2.00984375 50.04445312 -2.703125 48.97265625 C-3.39148438 47.92980469 -4.07984375 46.88695312 -4.7890625 45.8125 C-6.328125 43.03515625 -6.328125 43.03515625 -6.328125 40.03515625 C-5.36523945 38.99937084 -4.35507626 38.00745822 -3.328125 37.03515625 C-1.9073247 35.15796121 -0.51326397 33.2603499 0.859375 31.34765625 C1.57480469 30.35378906 2.29023437 29.35992187 3.02734375 28.3359375 C3.57003906 27.57667969 4.11273438 26.81742188 4.671875 26.03515625 C4.1871875 26.32390625 3.7025 26.61265625 3.203125 26.91015625 C-1.95362387 29.76620178 -5.43515007 30.87700981 -11.328125 30.03515625 C-14.08391593 28.61804175 -15.95940089 27.10778985 -18.328125 25.03515625 C-18.328125 24.37515625 -18.328125 23.71515625 -18.328125 23.03515625 C-18.988125 23.03515625 -19.648125 23.03515625 -20.328125 23.03515625 C-22.62591852 17.76374758 -22.54046763 13.53654295 -21.328125 8.03515625 C-19.6828944 3.92207975 -17.31206415 1.79927855 -13.34375 -0.2265625 C-8.67534366 -1.93650203 -4.60229705 -1.9073278 0 0 Z " fill="#96C74B" transform="translate(89.328125,33.96484375)"/><path d="M0 0 C4.58897688 2.83086236 8.17670813 5.44120751 9.53125 10.859375 C9.10714162 15.80730606 8.11036769 20.56999133 5.53125 24.859375 C0.63981178 28.50193538 -3.14515651 30.26454977 -9.328125 30.21875 C-13.24351371 29.56142197 -15.51840326 27.44092839 -18.46875 24.859375 C-18.46875 24.199375 -18.46875 23.539375 -18.46875 22.859375 C-19.12875 22.859375 -19.78875 22.859375 -20.46875 22.859375 C-22.76654352 17.58796633 -22.68109263 13.3607617 -21.46875 7.859375 C-19.8235194 3.7462985 -17.45268915 1.6234973 -13.484375 -0.40234375 C-8.72831588 -2.14438866 -4.61751784 -2.13341014 0 0 Z " fill="#F08337" transform="translate(89.46875,34.140625)"/><path d="M0 0 C2.96317861 1.86298853 4.77932659 3.95555194 5.953125 7.2421875 C6.613125 7.2421875 7.273125 7.2421875 7.953125 7.2421875 C8.95279579 10.24119986 8.98638035 11.61949459 8.640625 14.6796875 C8.52267578 15.82244141 8.52267578 15.82244141 8.40234375 16.98828125 C7.93056189 19.35539547 7.12478177 21.14276985 5.953125 23.2421875 C5.293125 23.2421875 4.633125 23.2421875 3.953125 23.2421875 C3.953125 23.9021875 3.953125 24.5621875 3.953125 25.2421875 C-1.41982452 28.9003659 -5.53380519 30.36036055 -12.046875 29.2421875 C-16.2434903 27.84881228 -19.06318343 25.69170049 -21.484375 21.9921875 C-23.37453081 18.12969519 -23.95367299 14.45841065 -23.046875 10.2421875 C-21.45355816 6.31242582 -19.82008814 2.45503458 -16.2421875 0.0078125 C-11.28856262 -1.71978621 -4.93605918 -1.82747229 0 0 Z " fill="#38BEC0" transform="translate(33.046875,63.7578125)"/><path d="M0 0 C1.99609375 1.10546875 1.99609375 1.10546875 4 3 C4.59025349 7.9674142 4.26505342 13.54485929 1.9453125 18.046875 C0.6875 19.5625 0.6875 19.5625 -2 22 C-4.71364528 24.48104712 -5.88226518 25.64679553 -7.0625 29.1875 C-7.371875 30.115625 -7.68125 31.04375 -8 32 C-9.485 32.495 -9.485 32.495 -11 33 C-11 33.66 -11 34.32 -11 35 C-11.99 34.67 -12.98 34.34 -14 34 C-14.6875 31.6875 -14.6875 31.6875 -15 29 C-14.04341888 27.95838944 -13.03136634 26.96761742 -12 26 C-5.32516797 17.54880138 -0.94895669 10.81810629 0 0 Z " fill="#85AE42" transform="translate(98,45)"/><path d="M0 0 C0.66 0.33 1.32 0.66 2 1 C2 4.63 2 8.26 2 12 C1.34 12 0.68 12 0 12 C0 12.66 0 13.32 0 14 C-0.66 14 -1.32 14 -2 14 C-2.061875 14.680625 -2.12375 15.36125 -2.1875 16.0625 C-3.26401385 19.95451162 -5.25665032 23.03444754 -8 26 C-8.66 26 -9.32 26 -10 26 C-10.66 28.31 -11.32 30.62 -12 33 C-12.99 32.67 -13.98 32.34 -15 32 C-15 29 -15 29 -13.75 27.640625 C-13.1725 27.09921875 -12.595 26.5578125 -12 26 C-5.32516797 17.54880138 -0.94895669 10.81810629 0 0 Z " fill="#708E3C" transform="translate(98,45)"/><path d="M0 0 C0.33 0 0.66 0 1 0 C1.125 4.75 1.125 4.75 0 7 C1.65 7.33 3.3 7.66 5 8 C5 8.33 5 8.66 5 9 C3.01432292 9.22786458 1.02864583 9.45572917 -0.95703125 9.68359375 C-3.19396393 9.97170735 -3.19396393 9.97170735 -6 11 C-4.55007731 6.89188572 -2.54592427 3.53144334 0 0 Z " fill="#4262A2" transform="translate(22,54)"/><path d="M0 0 C0.66 0.33 1.32 0.66 2 1 C1.93994409 3.10495964 1.85114641 5.20911435 1.75 7.3125 C1.70359375 8.48425781 1.6571875 9.65601563 1.609375 10.86328125 C1 14 1 14 -1.046875 15.91796875 C-2.01367188 16.45357422 -2.01367188 16.45357422 -3 17 C-2.690625 16.05125 -2.38125 15.1025 -2.0625 14.125 C-0.72071729 9.49061575 -0.36657993 4.79447959 0 0 Z " fill="#8BB348" transform="translate(100,47)"/><path d="M0 0 C4.97409326 4.64248705 4.97409326 4.64248705 6 8 C5.85838746 10.72735271 5.45056269 13.29662385 5 16 C4.67 16 4.34 16 4 16 C4 13.03 4 10.06 4 7 C2.68 7.33 1.36 7.66 0 8 C0 7.01 0 6.02 0 5 C-0.33 4.34 -0.66 3.68 -1 3 C-0.67 2.01 -0.34 1.02 0 0 Z " fill="#DF8D48" transform="translate(93,37)"/><path d="M0 0 C0.66 0.33 1.32 0.66 2 1 C2 4.63 2 8.26 2 12 C1.34 12 0.68 12 0 12 C-0.33 12.66 -0.66 13.32 -1 14 C-0.67 9.38 -0.34 4.76 0 0 Z " fill="#7C9535" transform="translate(98,45)"/><path d="M0 0 C-0.33 0.66 -0.66 1.32 -1 2 C-1.66 2 -2.32 2 -3 2 C-3.33 2.99 -3.66 3.98 -4 5 C-6.0625 6.1875 -6.0625 6.1875 -8 7 C-8.3125 4.6875 -8.3125 4.6875 -8 2 C-3.92125984 -1.30708661 -3.92125984 -1.30708661 0 0 Z " fill="#415CA5" transform="translate(78,85)"/><path d="M0 0 C1.39195915 4.17587745 -0.17676781 6.13474776 -2 10 C-2.99 9.67 -3.98 9.34 -5 9 C-5 6 -5 6 -3.625 4.5 C-3.08875 4.005 -2.5525 3.51 -2 3 C-1.34 2.01 -0.68 1.02 0 0 Z " fill="#638845" transform="translate(88,68)"/><path d="M0 0 C2.31 0 4.62 0 7 0 C7 0.66 7 1.32 7 2 C6.34 2 5.68 2 5 2 C5.66 3.32 6.32 4.64 7 6 C2.32307692 4.52307692 2.32307692 4.52307692 0.6875 1.875 C0.460625 1.25625 0.23375 0.6375 0 0 Z " fill="#9EC959" transform="translate(90,86)"/><path d="M0 0 C0.66 0 1.32 0 2 0 C2 0.66 2 1.32 2 2 C2.66 2 3.32 2 4 2 C4 2.66 4 3.32 4 4 C4.66 4.33 5.32 4.66 6 5 C4.02 5.33 2.04 5.66 0 6 C0 5.34 0 4.68 0 4 C-0.66 4 -1.32 4 -2 4 C-1.34 2.68 -0.68 1.36 0 0 Z " fill="#3F5595" transform="translate(67,55)"/><path d="M0 0 C0 0.99 0 1.98 0 3 C-0.66 3.66 -1.32 4.32 -2 5 C-2.71408334 6.98356483 -3.38617742 8.98315437 -4 11 C-4.66 10.67 -5.32 10.34 -6 10 C-5.58578031 5.16743695 -3.53586014 3.17320782 0 0 Z " fill="#EE924F" transform="translate(74,35)"/><path d="M0 0 C0.66 0.33 1.32 0.66 2 1 C-0.97 4.96 -0.97 4.96 -4 9 C-4.66 8.67 -5.32 8.34 -6 8 C-5.65120368 4.74456771 -4.97866739 3.98126893 -2.4375 1.75 C-1.633125 1.1725 -0.82875 0.595 0 0 Z " fill="#445983" transform="translate(93,59)"/><path d="M0 0 C0.66 0 1.32 0 2 0 C1.42415568 2.38564077 0.77772405 4.66682784 0 7 C-0.99 6.67 -1.98 6.34 -3 6 C-3.6875 3.9375 -3.6875 3.9375 -4 2 C-2.68 2.33 -1.36 2.66 0 3 C0 2.01 0 1.02 0 0 Z " fill="#4DC0C5" transform="translate(39,80)"/></svg>
