<svg width="128" height="128" viewBox="0 0 428 389.11" fill="none" xmlns="http://www.w3.org/2000/svg">
<g clip-path="url(#clip0_344_44)">
<path d="M96.5415 262.413C96.5415 264.861 94.5567 266.854 92.1084 266.863C89.6601 266.872 87.6753 264.895 87.6753 262.447L96.5415 262.413ZM87.6753 262.447L87.6753 157.017L96.5415 156.983L96.5415 262.413L87.6753 262.447Z" fill="#F97316"/>
<path d="M121.619 193.609C123.003 195.629 122.607 198.546 120.735 200.124C118.863 201.702 116.224 201.344 114.841 199.324L121.619 193.609ZM114.841 199.324L89.7861 162.734L96.5648 157.02L121.619 193.609L114.841 199.324Z" fill="#F97316"/>
<path d="M62.6107 193.605C61.2274 195.625 61.6235 198.542 63.4953 200.12C65.3672 201.698 68.0061 201.34 69.3893 199.32L62.6107 193.605ZM69.3893 199.32L94.4439 162.731L87.6652 157.016L62.6107 193.605L69.3893 199.32Z" fill="#F97316"/>
<path d="M132.373 266.828C131.435 266.828 130.69 266.662 130.138 266.331C129.642 266 129.283 265.559 129.063 265.007C128.897 264.4 128.814 263.711 128.814 262.938V212.543C128.814 211.825 128.925 211.218 129.145 210.722C129.366 210.225 129.752 209.839 130.304 209.563C130.911 209.232 131.738 209.067 132.787 209.067C134 209.067 134.855 209.177 135.352 209.398C135.848 209.619 136.345 210.005 136.841 210.556L167.956 254.58V212.543C167.956 211.825 168.039 211.218 168.204 210.722C168.425 210.225 168.811 209.839 169.363 209.563C169.914 209.232 170.714 209.067 171.763 209.067C172.756 209.067 173.5 209.232 173.997 209.563C174.548 209.894 174.907 210.363 175.073 210.97C175.293 211.522 175.404 212.156 175.404 212.874V263.021C175.404 263.738 175.266 264.4 174.99 265.007C174.769 265.559 174.355 266 173.749 266.331C173.197 266.662 172.397 266.828 171.349 266.828C170.466 266.828 169.721 266.717 169.114 266.497C168.563 266.276 168.039 265.862 167.542 265.255L136.262 221.562V263.021C136.262 263.738 136.152 264.4 135.931 265.007C135.71 265.559 135.324 266 134.773 266.331C134.221 266.662 133.421 266.828 132.373 266.828Z" fill="black"/>
<mask id="mask0_344_44" style="mask-type:luminance" maskUnits="userSpaceOnUse" x="195" y="225" width="51" height="42">
<path d="M195.709 225.457H245.23V266.492H195.709V225.457Z" fill="white"/>
</mask>
<g mask="url(#mask0_344_44)">
<path d="M213.042 266.441C208.598 266.441 204.153 266.464 199.705 266.428C197.989 266.415 196.527 265.304 196.04 263.819C195.494 262.154 195.93 260.315 197.381 259.415C198.202 258.906 199.305 258.644 200.284 258.636C208.296 258.574 216.306 258.627 224.319 258.586C230.563 258.554 235.494 254.44 236.729 248.35C238.247 240.866 232.494 233.666 224.808 233.547C219.278 233.461 213.746 233.53 208.216 233.523C206.514 233.522 205.235 232.773 204.456 231.255C203.758 229.891 203.76 228.399 204.808 227.361C205.651 226.523 206.953 225.682 208.066 225.662C214.211 225.559 220.379 225.414 226.503 225.84C235.241 226.448 242.508 233.102 244.401 241.618C247.218 254.286 237.677 266.299 224.671 266.436C220.798 266.476 216.92 266.441 213.042 266.441Z" fill="black"/>
</g>
<mask id="mask1_344_44" style="mask-type:luminance" maskUnits="userSpaceOnUse" x="187" y="209" width="42" height="42">
<path d="M187.23 209H228.61V250.217H187.23V209Z" fill="white"/>
</mask>
<g mask="url(#mask1_344_44)">
<path d="M216.861 249.686C213.047 249.686 209.187 250.046 205.43 249.614C196.242 248.562 188.317 240.559 187.349 231.823C186.318 222.501 192.085 213.597 201.083 210.374C205.14 208.921 209.311 208.911 213.505 209.065C215.738 209.147 217.355 210.974 217.34 213.001C217.323 215.025 215.7 216.755 213.478 216.937C211.959 217.061 210.425 216.982 208.895 216.993C201.526 217.045 195.684 222.283 195.595 229.243C195.504 236.396 201.216 241.68 208.085 241.953C213.642 242.174 219.217 242.026 224.783 242.049C225.437 242.05 226.098 242.046 226.743 242.128C228.943 242.41 230.546 244.205 230.415 246.195C230.283 248.216 228.536 249.905 226.361 249.946C223.196 250.005 220.029 249.961 216.864 249.961C216.864 249.871 216.864 249.778 216.861 249.686Z" fill="#F97316"/>
<ellipse cx="207.487" cy="229.472" rx="7.99142" ry="8.24454" transform="rotate(41.6752 207.487 229.472)" fill="#F97316"/>
<ellipse cx="207.233" cy="229.273" rx="2.35042" ry="2.29015" transform="rotate(41.6752 207.233 229.273)" fill="black"/>
</g>
<ellipse cx="223.005" cy="245.994" rx="7.99142" ry="8.24454" transform="rotate(41.6752 223.005 245.994)" fill="black"/>
<ellipse cx="223.261" cy="245.994" rx="2.35042" ry="2.29015" transform="rotate(41.6752 223.261 245.994)" fill="#F97316"/>
<path d="M259.197 266.828C258.094 266.828 257.267 266.662 256.715 266.331C256.218 266.055 255.887 265.641 255.722 265.09C255.556 264.483 255.474 263.793 255.474 263.021V212.791C255.474 212.018 255.556 211.356 255.722 210.805C255.943 210.253 256.301 209.839 256.798 209.563C257.349 209.232 258.177 209.067 259.28 209.067C260.384 209.067 261.184 209.232 261.68 209.563C262.232 209.839 262.563 210.253 262.673 210.805C262.839 211.356 262.921 212.046 262.921 212.874V263.104C262.921 263.876 262.839 264.538 262.673 265.09C262.508 265.641 262.149 266.055 261.597 266.331C261.101 266.662 260.301 266.828 259.197 266.828Z" fill="black"/>
<path d="M320.328 266.828C319.28 266.828 318.48 266.662 317.928 266.331C317.432 266.055 317.101 265.641 316.935 265.09C316.77 264.483 316.687 263.793 316.687 263.021V212.791C316.687 212.018 316.77 211.356 316.935 210.805C317.101 210.253 317.459 209.839 318.011 209.563C318.563 209.232 319.362 209.067 320.411 209.067C321.514 209.067 322.314 209.232 322.81 209.563C323.362 209.839 323.721 210.253 323.886 210.805C324.052 211.356 324.134 212.046 324.134 212.874V263.104C324.134 263.876 324.024 264.538 323.803 265.09C323.638 265.641 323.279 266.055 322.728 266.331C322.231 266.662 321.431 266.828 320.328 266.828ZM283.09 266.828C281.986 266.828 281.159 266.662 280.607 266.331C280.111 266.055 279.78 265.641 279.614 265.09C279.449 264.483 279.366 263.793 279.366 263.021V212.791C279.366 212.018 279.449 211.356 279.614 210.805C279.835 210.253 280.193 209.839 280.69 209.563C281.242 209.232 282.069 209.067 283.172 209.067C284.221 209.067 284.993 209.232 285.49 209.563C286.041 209.839 286.4 210.253 286.565 210.805C286.731 211.356 286.814 212.046 286.814 212.874V263.104C286.814 263.876 286.731 264.538 286.565 265.09C286.4 265.641 286.041 266.055 285.49 266.331C284.938 266.662 284.138 266.828 283.09 266.828ZM283.421 240.678V233.727H318.011L317.928 240.678H283.421Z" fill="black"/>
<path d="M383.83 209.067C384.547 209.067 385.126 209.15 385.567 209.315C386.064 209.481 386.45 209.812 386.726 210.308C387.002 210.75 387.14 211.494 387.14 212.543C387.14 213.536 386.974 214.28 386.643 214.777C386.367 215.273 385.981 215.604 385.485 215.77C384.988 215.88 384.381 215.935 383.664 215.935H366.534V263.186C366.534 263.904 366.424 264.538 366.203 265.09C366.038 265.641 365.679 266.055 365.128 266.331C364.631 266.662 363.859 266.828 362.811 266.828C361.707 266.828 360.88 266.662 360.328 266.331C359.832 266.055 359.501 265.641 359.335 265.09C359.225 264.483 359.17 263.821 359.17 263.104V215.935H341.792C341.075 215.935 340.468 215.88 339.971 215.77C339.475 215.604 339.089 215.273 338.813 214.777C338.537 214.28 338.399 213.536 338.399 212.543C338.399 211.494 338.509 210.75 338.73 210.308C339.006 209.812 339.392 209.481 339.888 209.315C340.44 209.15 341.047 209.067 341.709 209.067H383.83Z" fill="black"/>
<path d="M417.746 267.655C415.65 267.655 413.664 267.407 411.788 266.91C409.967 266.414 408.285 265.752 406.74 264.924C405.25 264.042 403.926 263.076 402.768 262.028C401.609 260.98 400.699 259.932 400.037 258.883C399.43 258.001 399.044 257.284 398.879 256.732C398.713 256.125 398.741 255.546 398.961 254.994C399.237 254.442 399.761 253.836 400.534 253.174C401.416 252.511 402.189 252.208 402.851 252.263C403.513 252.263 404.119 252.511 404.671 253.008C405.278 253.505 405.885 254.167 406.492 254.994C407.871 256.87 409.554 258.249 411.54 259.132C413.526 259.959 415.484 260.373 417.415 260.373C419.897 260.373 422.104 260.042 424.035 259.38C425.966 258.718 427.483 257.725 428.586 256.401C429.745 255.022 430.324 253.256 430.324 251.105C430.324 249.339 429.883 247.85 429 246.636C428.117 245.422 426.931 244.402 425.442 243.574C423.952 242.692 422.297 241.947 420.477 241.34C418.656 240.678 416.808 240.044 414.932 239.437C413.443 238.94 411.981 238.389 410.547 237.782C409.112 237.12 407.761 236.403 406.492 235.63C405.223 234.803 404.092 233.837 403.099 232.734C402.161 231.631 401.416 230.334 400.865 228.845C400.368 227.355 400.12 225.617 400.12 223.631C400.12 220.597 400.837 217.921 402.271 215.604C403.761 213.287 405.83 211.494 408.478 210.225C411.126 208.901 414.188 208.239 417.663 208.239C419.704 208.239 421.58 208.433 423.29 208.819C425 209.205 426.518 209.729 427.842 210.391C429.166 210.998 430.297 211.66 431.234 212.377C432.172 213.039 432.889 213.673 433.386 214.28C434.379 215.328 434.931 216.211 435.041 216.928C435.151 217.646 434.738 218.528 433.8 219.576C432.917 220.569 432.062 221.093 431.234 221.149C430.407 221.204 429.497 220.818 428.504 219.99C427.455 218.776 426.352 217.839 425.194 217.177C424.09 216.515 422.904 216.073 421.635 215.853C420.422 215.577 419.07 215.439 417.58 215.439C416.146 215.439 414.794 215.632 413.526 216.018C412.312 216.349 411.236 216.873 410.298 217.59C409.416 218.308 408.726 219.19 408.229 220.238C407.733 221.231 407.485 222.39 407.485 223.714C407.485 225.203 407.871 226.472 408.643 227.521C409.471 228.569 410.547 229.479 411.871 230.251C413.195 230.969 414.684 231.631 416.339 232.237C417.994 232.789 419.732 233.341 421.552 233.892C423.539 234.499 425.497 235.244 427.428 236.127C429.359 236.954 431.097 238.002 432.641 239.271C434.186 240.485 435.427 242.03 436.365 243.905C437.303 245.781 437.772 248.098 437.772 250.856C437.772 253.615 437.22 256.042 436.117 258.139C435.069 260.235 433.607 262 431.731 263.435C429.855 264.814 427.704 265.862 425.276 266.579C422.904 267.296 420.394 267.655 417.746 267.655Z" fill="black"/>
</g>
<defs>
<clipPath id="clip0_344_44">
<rect width="382" height="115" fill="white" transform="translate(59 156)"/>
</clipPath>
</defs>
</svg>
