<svg width="290" height="290" viewBox="0 0 290 290" fill="none" xmlns="http://www.w3.org/2000/svg">
<rect width="290" height="290" rx="49" fill="#292929"/>
<path d="M225.245 188.797C226.285 187.277 227.085 185.357 227.645 183.037C228.285 180.637 228.605 178.037 228.605 175.237V148.357C228.605 145.077 228.245 142.437 227.525 140.437C226.805 138.357 225.725 136.597 224.285 135.157V134.557L244.205 127.837H244.805V175.237C244.805 178.037 245.085 180.637 245.645 183.037C246.285 185.357 247.125 187.277 248.165 188.797V189.397H225.245V188.797ZM236.645 120.997C233.925 120.997 231.645 120.077 229.805 118.237C227.965 116.397 227.045 114.117 227.045 111.397C227.045 108.677 227.965 106.397 229.805 104.557C231.645 102.717 233.925 101.797 236.645 101.797C239.365 101.797 241.645 102.717 243.485 104.557C245.325 106.397 246.245 108.677 246.245 111.397C246.245 114.117 245.325 116.397 243.485 118.237C241.645 120.077 239.365 120.997 236.645 120.997Z" fill="white"/>
<path d="M188.433 188.8C189.473 187.28 190.273 185.36 190.833 183.04C191.473 180.64 191.793 178.04 191.793 175.24V120.52C191.793 117.24 191.433 114.56 190.713 112.48C189.993 110.4 188.913 108.68 187.473 107.32V106.72L207.393 100H207.993V175.24C207.993 178.04 208.273 180.64 208.833 183.04C209.473 185.36 210.313 187.28 211.353 188.8V189.4H188.433V188.8Z" fill="white"/>
<path d="M152.222 188.8C153.262 187.28 154.062 185.36 154.622 183.04C155.262 180.64 155.582 178.04 155.582 175.24V120.52C155.582 117.24 155.222 114.56 154.502 112.48C153.782 110.4 152.702 108.68 151.262 107.32V106.72L171.182 100H171.782V175.24C171.782 178.04 172.062 180.64 172.622 183.04C173.262 185.36 174.102 187.28 175.142 188.8V189.4H152.222V188.8Z" fill="white"/>
<path d="M141.737 169.12C140.377 175.76 137.337 181.08 132.617 185.08C127.897 189 122.137 190.96 115.337 190.96C109.977 190.96 105.137 189.8 100.817 187.48C96.4973 185.08 93.0573 181.6 90.4973 177.04C88.0173 172.48 86.7773 167.08 86.7773 160.84C86.7773 154.36 88.1373 148.64 90.8573 143.68C93.5773 138.64 97.2173 134.76 101.777 132.04C106.337 129.24 111.297 127.84 116.657 127.84C121.617 127.84 125.937 128.88 129.617 130.96C133.297 133.04 136.097 135.84 138.017 139.36C139.937 142.88 140.897 146.68 140.897 150.76H99.8573C100.097 156.76 101.297 161.92 103.457 166.24C105.617 170.48 108.417 173.68 111.857 175.84C115.377 178 119.217 179.08 123.377 179.08C127.297 179.08 130.737 178.2 133.697 176.44C136.737 174.68 139.017 172.24 140.537 169.12H141.737ZM112.097 131.32C108.497 131.32 105.577 132.76 103.337 135.64C101.097 138.44 99.9373 142.56 99.8573 148H124.937C124.457 142.88 123.097 138.84 120.857 135.88C118.697 132.84 115.777 131.32 112.097 131.32Z" fill="white"/>
<path d="M65.76 190.959C60.56 190.959 56.2 189.319 52.68 186.039C49.16 182.679 47.4 178.199 47.4 172.599V140.919C47.4 138.759 46.88 136.999 45.84 135.639C44.88 134.199 43.6 133.159 42 132.519V131.919C45.84 130.479 49.56 128.399 53.16 125.679C56.76 122.959 60.04 119.919 63 116.559H63.6V129.399H81L79.56 133.719H63.6V172.599C63.6 176.199 64.56 178.959 66.48 180.879C68.4 182.799 70.8 183.759 73.68 183.759C75.44 183.759 76.96 183.479 78.24 182.919C79.52 182.279 80.44 181.559 81 180.759L82.2 181.359C81 184.159 78.92 186.479 75.96 188.319C73 190.079 69.6 190.959 65.76 190.959Z" fill="white"/>
</svg>
