<svg width="41" height="41" viewBox="0 0 41 41" fill="none" xmlns="http://www.w3.org/2000/svg">
<path d="M2.74882 26.8433C-2.10667 13.5032 0.721199 7.43732 14.0623 2.58183C27.4034 -2.27366 33.4683 0.554207 38.3238 13.8953C43.1792 27.2364 40.3514 33.3013 27.0103 38.1568C13.6692 43.0122 7.60431 40.1844 2.74882 26.8433" fill="#333740"/>
<path d="M14.3263 12.664H13.4861C12.7288 12.6379 12.0306 12.8283 11.3914 13.2352C11.065 13.461 10.8129 13.7515 10.6352 14.1064C10.4382 14.5172 10.3441 14.9503 10.3531 15.4058V27.4605C10.3531 27.5756 10.3939 27.6738 10.4754 27.7551C10.5569 27.8364 10.6552 27.8769 10.7703 27.8767H12.4108C12.5259 27.8769 12.6242 27.8364 12.7057 27.7551C12.7871 27.6738 12.8279 27.5756 12.8279 27.4605V18.9679H14.3284C14.4435 18.9682 14.5418 18.9277 14.6232 18.8464C14.7047 18.7651 14.7455 18.6669 14.7455 18.5518V17.1454C14.7458 17.0301 14.7051 16.9316 14.6236 16.8501C14.5421 16.7686 14.4437 16.728 14.3283 16.7282H12.8279V15.6599C12.8198 15.4801 12.8438 15.3047 12.8999 15.1337C12.9168 15.0838 12.9442 15.0405 12.9819 15.0037C13.0405 14.9567 13.1072 14.93 13.182 14.9237C13.3252 14.906 13.4689 14.8994 13.6131 14.9037H14.3263C14.4415 14.904 14.5398 14.8634 14.6212 14.7821C14.7027 14.7009 14.7435 14.6027 14.7435 14.4875V13.0811C14.7438 12.9658 14.7031 12.8674 14.6216 12.7859C14.5401 12.7043 14.4417 12.6637 14.3263 12.664" fill="white"/>
<path d="M24.2485 20.3892C24.2795 19.2764 23.8793 18.3498 23.0481 17.6094C22.132 16.8697 21.0856 16.5239 19.9091 16.572C18.7087 16.536 17.6277 16.8778 16.6662 17.5974C15.7995 18.2708 15.3413 19.1557 15.2917 20.2522C15.286 20.371 15.3242 20.4734 15.4063 20.5594C15.4884 20.6455 15.5889 20.6884 15.7079 20.6883H17.4424C17.6966 20.6881 17.835 20.5614 17.8575 20.3082C17.8966 19.8961 18.084 19.569 18.4197 19.3269C18.8657 19.0152 19.3605 18.8699 19.9041 18.8908C20.4289 18.8601 20.8997 19.0048 21.3166 19.3249C21.6374 19.6069 21.7898 19.9614 21.7737 20.3882V20.4472C21.7752 20.4956 21.7702 20.5433 21.7587 20.5903L21.7427 20.6263C21.7125 20.6575 21.6765 20.6792 21.6347 20.6913C21.4008 20.7672 21.1614 20.8162 20.9165 20.8383C20.5644 20.8854 20.1072 20.9384 19.537 21.0094C18.4936 21.0895 17.5003 21.3563 16.5571 21.8096C16.1059 22.0564 15.7468 22.3995 15.4798 22.839C15.1911 23.3514 15.0551 23.9016 15.0717 24.4895C15.0643 25.0213 15.168 25.5304 15.3828 26.0169C15.6956 26.694 16.1864 27.1975 16.8552 27.5274C17.5594 27.8671 18.3023 28.0288 19.0839 28.0126C19.9141 28.0443 20.6867 27.8486 21.4016 27.4254C21.5327 27.3424 21.6567 27.2501 21.7737 27.1483V27.4604C21.7737 27.5755 21.8145 27.6737 21.896 27.755C21.9774 27.8363 22.0757 27.8768 22.1909 27.8765H22.9911L24.2495 23.1931L24.2485 20.3892ZM21.7737 23.5542C21.795 24.1282 21.6103 24.6256 21.2196 25.0466C20.6787 25.5342 20.0452 25.751 19.319 25.6968C18.8476 25.7251 18.4095 25.6177 18.0046 25.3747C17.8798 25.2888 17.7821 25.1787 17.7115 25.0446C17.6414 24.8996 17.6081 24.7465 17.6114 24.5855V24.5745C17.6062 24.3904 17.6509 24.2194 17.7455 24.0613C17.9172 23.8186 18.1433 23.6479 18.4237 23.5492C18.7961 23.4055 19.1806 23.3101 19.577 23.2631C20.1702 23.1801 20.7774 23.091 21.2866 22.992C21.4676 22.957 21.6287 22.919 21.7797 22.879L21.7737 23.5542Z" fill="white"/>
<path d="M31.2176 11.4795C31.1343 11.3703 31.0239 11.3156 30.8865 11.3154H28.7959C28.5837 11.3165 28.4503 11.4195 28.3958 11.6245L24.2485 27.0493L24.0484 27.8115L23.7674 28.8578C23.732 28.9897 23.7557 29.11 23.8385 29.2187C23.9212 29.3273 24.0309 29.3821 24.1675 29.383H26.2581C26.4699 29.3821 26.6033 29.2794 26.6582 29.0749L31.2897 11.8416C31.3251 11.7091 31.301 11.5884 31.2176 11.4795" fill="#A299FF"/>
</svg>
