<svg width="18" height="18" viewBox="0 0 18 18" fill="none" xmlns="http://www.w3.org/2000/svg">
<path d="M7.42703 2.09497H10.5668V6.54706C12.2547 4.2179 13.8669 3.77574 16.4277 3.77574H17.335V7.13838H16.341C14.0222 7.13838 12.7232 7.58856 11.3544 9.1505C12.7413 10.7017 14.0065 11.1914 16.341 11.1914H17.335V14.554H16.4277C13.8669 14.554 12.2547 14.1119 10.5668 11.7827V15.905H7.42703V11.7896C5.7414 14.1131 4.13062 14.554 1.57249 14.554H0.665001V11.1914H1.65898C3.99339 11.1914 5.25883 10.7017 6.64542 9.15081C5.27632 7.58903 3.97779 7.13854 1.65898 7.13854H0.665001V3.77574H1.57233C4.13062 3.77574 5.74125 4.21711 7.42687 6.5403L7.42703 2.09497Z" fill="#FF5207"/>
</svg>
