<svg width="74" height="74" viewBox="0 0 74 74" fill="none" xmlns="http://www.w3.org/2000/svg">
  <rect width="74" height="74" rx="37" fill="#1F1F1F"/>
  <path d="M37 20C27.6112 20 20 27.6112 20 37C20 46.3888 27.6112 54 37 54C46.3888 54 54 46.3888 54 37C54 27.6112 46.3888 20 37 20ZM37 22C45.2843 22 52 28.7157 52 37C52 45.2843 45.2843 52 37 52C28.7157 52 22 45.2843 22 37C22 28.7157 28.7157 22 37 22Z" fill="white"/>
  <path d="M37 24C29.268 24 23 30.268 23 38C23 45.732 29.268 52 37 52C44.732 52 51 45.732 51 38C51 30.268 44.732 24 37 24ZM37 26C43.6274 26 49 31.3726 49 38C49 44.6274 43.6274 50 37 50C30.3726 50 25 44.6274 25 38C25 31.3726 30.3726 26 37 26Z" fill="white"/>
  <path d="M32 30C30.8954 30 30 30.8954 30 32V42C30 43.1046 30.8954 44 32 44H42C43.1046 44 44 43.1046 44 42V32C44 30.8954 43.1046 30 42 30H32ZM32 32H42V42H32V32Z" fill="white"/>
  <circle cx="37" cy="37" r="8" fill="white"/>
</svg>
