<?xml version="1.0" encoding="utf-8"?>
<!-- Generator: Adobe Illustrator 25.0.1, SVG Export Plug-In . SVG Version: 6.00 Build 0)  -->
<svg version="1.0" id="Layer_1" xmlns="http://www.w3.org/2000/svg" xmlns:xlink="http://www.w3.org/1999/xlink" x="0px" y="0px"
	 viewBox="0 0 1014 719" style="enable-background:new 0 0 1014 719;" xml:space="preserve">
<style type="text/css">
	.st0{fill:#6C3DFF;}
	.st1{fill:none;}
</style>
<path class="st0" d="M682.3,180.4c-42.6,0-83.7,15.7-115.6,44c-32.2,28.6-53.1,67.9-58.9,110.5V88c0-1.1-0.6-2.1-1.7-2.5
	c-1-0.4-2.2-0.2-2.9,0.6l-103,108.3c-21.7-9.3-45-14.1-68.6-14.1c-97.3,0-176.2,80.2-176.2,179.1s78.9,179.2,176.2,179.2
	c42.6,0,83.7-15.7,115.6-44c32.2-28.6,53.1-67.9,58.9-110.5V631c0,1.5,1.1,2.7,2.6,2.7c0.7,0,1.5-0.3,2-0.8l103.1-108.3
	c21.7,9.3,45,14.1,68.6,14.1c97.3,0,176.2-80.2,176.2-179.2S779.6,180.4,682.3,180.4z"/>
<rect x="114" y="58" class="st1" width="786" height="603"/>
</svg>
