<svg width="65" height="65" viewBox="0 0 65 65" fill="none" xmlns="http://www.w3.org/2000/svg">
<path d="M64.0326 39.7453C59.7586 56.8883 42.3955 67.3213 25.2505 63.0463C8.11254 58.7723 -2.32047 41.4083 1.95553 24.2663C6.22753 7.12128 23.5906 -3.31271 40.7306 0.961289C57.8746 5.23529 68.3066 22.6013 64.0326 39.7453V39.7453Z" fill="#F7931A"/>
<path d="M47.1025 27.4453C47.7395 23.1873 44.4975 20.8983 40.0645 19.3713L41.5025 13.6033L37.9915 12.7283L36.5916 18.3443C35.6686 18.1143 34.7205 17.8973 33.7785 17.6823L35.1885 12.0293L31.6795 11.1543L30.2405 16.9203C29.4765 16.7463 28.7265 16.5743 27.9985 16.3933L28.0025 16.3753L23.1606 15.1663L22.2266 18.9163C22.2266 18.9163 24.8316 19.5133 24.7766 19.5503C26.1986 19.9053 26.4555 20.8463 26.4125 21.5923L24.7745 28.1633C24.8725 28.1883 24.9996 28.2243 25.1396 28.2803C25.0226 28.2513 24.8976 28.2193 24.7686 28.1883L22.4725 37.3933C22.2985 37.8253 21.8576 38.4733 20.8636 38.2273C20.8986 38.2783 18.3116 37.5903 18.3116 37.5903L16.5685 41.6093L21.1375 42.7483C21.9875 42.9613 22.8205 43.1843 23.6405 43.3943L22.1876 49.2283L25.6945 50.1033L27.1335 44.3313C28.0915 44.5913 29.0215 44.8313 29.9315 45.0573L28.4976 50.8023L32.0085 51.6773L33.4615 45.8543C39.4485 46.9873 43.9506 46.5303 45.8456 41.1153C47.3726 36.7553 45.7695 34.2403 42.6195 32.6003C44.9135 32.0713 46.6415 30.5623 47.1025 27.4453V27.4453ZM39.0805 38.6943C37.9955 43.0543 30.6545 40.6973 28.2745 40.1063L30.2025 32.3773C32.5825 32.9713 40.2145 34.1473 39.0805 38.6943ZM40.1665 27.3823C39.1765 31.3483 33.0665 29.3333 31.0845 28.8393L32.8326 21.8293C34.8146 22.3233 41.1975 23.2453 40.1665 27.3823Z" fill="white"/>
</svg>
