<svg width="62" height="62" viewBox="0 0 62 62" fill="none" xmlns="http://www.w3.org/2000/svg">
<path d="M9 19V43.6173H52.5918V19H9ZM43.8003 37.9023C41.8781 37.9023 40.1569 37.0778 38.951 35.7688V35.7791C38.951 35.7791 35.9672 32.2182 30.8346 32.2182C25.7019 32.2182 22.7181 35.6915 22.7181 35.6915V35.6812C21.5122 37.0417 19.7549 37.9023 17.7915 37.9023C14.1482 37.9023 11.2005 34.9494 11.2005 31.3112C11.2005 27.6678 14.1533 24.7202 17.7915 24.7202C19.7549 24.7202 21.5122 25.5808 22.7181 26.9412V26.9309C22.7181 26.9309 25.7019 30.4042 30.8346 30.4042C35.9672 30.4042 38.951 26.8433 38.951 26.8433V26.8485C40.1569 25.5395 41.8781 24.715 43.8003 24.715C47.4437 24.715 50.3913 27.6678 50.3913 31.306C50.3913 34.9494 47.4385 37.9023 43.8003 37.9023Z" fill="#161616"/>
</svg>
