<svg width="490" height="489" viewBox="0 0 490 489" fill="none" xmlns="http://www.w3.org/2000/svg">
<path d="M90.0776 181.767C97.3318 182.509 104.344 181.661 110.765 179.495L110.917 179.632L111.159 179.874C83.8531 210.92 64.5892 251.099 56.6382 295.564C51.0044 327.034 67.8907 357.293 95.8477 370.605C141.418 392.293 192.395 404.423 246.143 404.423C299.891 404.423 349.823 392.535 395.03 371.272C423.093 358.066 440.1 327.822 434.557 296.306C426.697 251.599 407.024 211.481 379.976 179.965C345.825 140.15 380.082 179.798 380.082 179.798C380.082 179.798 391.819 182.342 398.119 181.903C422.427 180.222 442.024 160.368 443.387 136.03C445.007 106.877 421.018 82.9028 391.865 84.5384C367.86 85.8863 348.127 105.014 346.082 128.973C345.446 136.439 346.506 143.618 348.914 150.145L348.521 150.539L348.294 150.766C318.822 129.033 283.671 116.221 245.552 116.221C207.433 116.221 172.04 129.124 142.493 151.008L142.266 150.781L141.903 150.418L141.191 149.706C143.508 143.224 144.507 136.106 143.826 128.715C141.66 104.878 121.972 85.9015 98.0739 84.5536C68.8599 82.918 44.8708 106.907 46.5065 136.091C47.8392 159.777 66.4671 179.344 90.0624 181.782L90.0776 181.767Z" fill="white" stroke="white" stroke-width="19.962"/>
<path fill-rule="evenodd" clip-rule="evenodd" d="M104.98 351.417C85.2161 342.012 73.7213 320.886 77.5681 299.335C85.6099 254.325 106.07 214.797 134.451 186.083C138.783 181.691 143.311 177.572 147.991 173.695C175.69 150.872 209.281 137.514 245.492 137.514C281.703 137.514 315.051 150.781 342.69 173.453C347.385 177.299 351.913 181.434 356.26 185.811C384.928 214.691 405.555 254.582 413.537 300.016C417.338 321.597 405.737 342.724 385.913 352.053C343.478 372.014 296.09 383.175 246.098 383.175C196.105 383.175 147.718 371.787 104.95 351.417H104.98Z" fill="#FFDF6F"/>
<path d="M95.5749 121.279L82.6111 134.243L113.446 165.078C118.822 161.988 123.35 157.566 126.561 152.265L95.5749 121.279Z" fill="black"/>
<path fill-rule="evenodd" clip-rule="evenodd" d="M395.287 96.6087C375.448 96.2756 358.183 113.056 357.986 132.895C357.91 140.15 359.955 146.934 363.529 152.659L394.894 121.294L407.857 134.258L376.796 165.305C382.944 168.727 390.184 170.454 397.847 169.803C415.505 168.303 429.772 153.977 431.195 136.318C432.922 114.903 416.232 96.9571 395.287 96.6087ZM363.529 152.659L349.233 166.94C353.927 170.817 358.44 174.967 362.772 179.329L376.796 165.305C371.374 162.276 366.8 157.914 363.529 152.659ZM422.593 298.441C414.339 251.463 392.879 209.709 362.772 179.329L356.29 185.811C351.943 181.434 347.415 177.314 342.72 173.468L349.233 166.94C320.034 142.709 284.353 128.367 245.507 128.367C206.661 128.367 170.753 142.8 141.494 167.198L148.006 173.71C143.311 177.572 138.798 181.706 134.466 186.098L127.985 179.616C98.1648 209.815 76.8714 251.19 68.5419 297.745C63.9379 323.551 77.7498 348.615 101.042 359.701C145.007 380.631 194.212 392.353 246.128 392.353C298.044 392.353 346.219 380.874 389.85 360.353C413.219 349.342 427.152 324.293 422.593 298.441ZM382.036 343.754C340.812 363.169 294.742 374.013 246.128 374.013C197.514 374.013 150.489 362.942 108.917 343.148C92.6976 335.424 83.5048 318.235 86.5943 300.97C94.3635 257.505 113.991 219.81 140.948 192.565L154.533 180.237C180.642 158.989 212.052 146.692 245.507 146.692C278.961 146.692 310.129 158.883 336.193 179.98L349.808 192.293C377.038 219.689 396.832 257.732 404.541 301.606C407.585 318.917 398.316 336.106 382.036 343.754ZM126.576 152.28C123.365 157.581 118.837 161.988 113.461 165.093L127.985 179.616C132.316 175.225 136.814 171.09 141.494 167.198L126.576 152.28ZM126.576 152.28C130.059 146.541 132.013 139.771 131.877 132.562C131.483 112.495 114.536 96.215 94.4695 96.6087C73.5548 97.0328 56.9411 114.949 58.6676 136.318C60.1063 154.067 74.5089 168.425 92.2584 169.818C100.012 170.424 107.297 168.606 113.461 165.093L82.6264 134.258L95.5902 121.294L126.576 152.28Z" fill="black"/>
<path fill-rule="evenodd" clip-rule="evenodd" d="M407.857 134.258L376.796 165.305C371.374 162.276 366.8 157.914 363.529 152.659L394.894 121.295L407.857 134.258Z" fill="black"/>
<path fill-rule="evenodd" clip-rule="evenodd" d="M362.772 179.329L356.29 185.811C351.943 181.434 347.415 177.315 342.72 173.468L349.232 166.94C353.927 170.817 358.44 174.967 362.772 179.329Z" fill="black"/>
<path fill-rule="evenodd" clip-rule="evenodd" d="M148.006 173.71C143.311 177.572 138.798 181.706 134.467 186.098L127.985 179.616C132.316 175.225 136.814 171.09 141.494 167.198L148.006 173.71Z" fill="black"/>
<path fill-rule="evenodd" clip-rule="evenodd" d="M126.576 152.28C123.366 157.581 118.837 161.988 113.461 165.093L82.6265 134.258L95.5903 121.295L126.576 152.28Z" fill="black"/>
<path fill-rule="evenodd" clip-rule="evenodd" d="M407.857 134.243L376.796 165.29C371.374 162.261 366.8 157.899 363.529 152.644L394.894 121.279L407.857 134.243Z" fill="black"/>
<path d="M349.232 166.925L342.705 173.453C347.4 177.299 351.928 181.434 356.275 185.811L362.757 179.329C358.425 174.952 353.912 170.817 349.232 166.94V166.925Z" fill="black"/>
<path d="M141.478 167.183C136.799 171.075 132.301 175.225 127.969 179.601L134.451 186.083C138.783 181.691 143.311 177.572 147.99 173.695L141.478 167.183Z" fill="black"/>
<path fill-rule="evenodd" clip-rule="evenodd" d="M140.873 329.064C124.971 322.582 115.536 305.665 121.048 289.4C138.041 239.241 187.624 202.924 246.143 202.924C304.662 202.924 354.245 239.226 371.253 289.4C376.766 305.665 367.33 322.597 351.429 329.064C318.943 342.3 283.399 349.585 246.158 349.585C208.918 349.585 173.373 342.3 140.888 329.064H140.873Z" fill="black"/>
<path d="M288.321 305.59C305.2 305.59 318.883 294.646 318.883 281.146C318.883 267.646 305.2 256.703 288.321 256.703C271.442 256.703 257.759 267.646 257.759 281.146C257.759 294.646 271.442 305.59 288.321 305.59Z" fill="white"/>
<path d="M200.845 305.605C217.724 305.605 231.407 294.661 231.407 281.161C231.407 267.661 217.724 256.718 200.845 256.718C183.966 256.718 170.283 267.661 170.283 281.161C170.283 294.661 183.966 305.605 200.845 305.605Z" fill="white"/>
</svg>
