<svg width="34" height="34" viewBox="0 0 34 34" fill="none" xmlns="http://www.w3.org/2000/svg">
<rect width="34" height="34" rx="3" fill="#CC6149"/>
<path fill-rule="evenodd" clip-rule="evenodd" d="M23.2551 5.48293C22.8086 4.3538 22.0077 3.54198 20.93 3H20.7569C20.2203 3.21888 20.1003 3.46323 20.2388 4.06544C20.3992 4.76376 20.495 5.46441 20.3288 6.1801C20.2626 6.16788 20.1965 6.15823 20.1313 6.14869C19.9862 6.12747 19.8447 6.10679 19.7126 6.05966C19.4322 5.96007 19.2141 6.08514 19.0583 6.26233C18.8852 6.45804 18.8368 6.72556 18.966 6.98381C19.4841 8.01335 19.918 9.07416 20.1938 10.1987C20.2919 10.5947 20.7627 10.8066 21.1146 10.6341C21.2992 10.5438 21.4758 10.4291 21.6396 10.304C22.3251 9.77943 22.8432 9.12048 23.1582 8.31329C23.5194 7.38451 23.6302 6.43141 23.2551 5.48293ZM5.03618 28.6516C5.02416 28.6958 5.01216 28.7399 5 28.7839V28.84C5.01465 28.9045 5.02847 28.9694 5.0423 29.0342C5.07475 29.1865 5.10724 29.339 5.15065 29.488C5.36903 30.2469 6.28576 30.7128 7.12892 30.5272C7.9594 30.3441 8.79412 30.1796 9.62879 30.0151C10.0347 29.9351 10.4407 29.855 10.8461 29.7729C11.2016 29.7008 11.557 29.627 11.9124 29.5531C12.6738 29.3949 13.4357 29.2366 14.2 29.0957C14.364 29.0654 14.5364 29.0859 14.7096 29.1066C14.8164 29.1194 14.9236 29.1322 15.0292 29.1331C15.3984 29.1367 15.7673 29.1359 16.1362 29.1352C16.4789 29.1345 16.8221 29.1338 17.1651 29.1366C17.2505 29.1372 17.3352 29.1359 17.4197 29.1346C17.7891 29.1288 18.1522 29.1231 18.5314 29.2837C19.566 29.7222 20.6189 30.116 21.6721 30.5099C21.9706 30.6216 22.2692 30.7332 22.5674 30.8459C22.6974 30.8949 22.8346 30.9256 22.9717 30.9564C23.0342 30.9703 23.0966 30.9843 23.1583 31H23.3919C23.498 30.9588 23.6072 30.9223 23.7164 30.8858C23.9531 30.8067 24.19 30.7274 24.3962 30.5996C25.1996 30.101 25.4344 28.9147 24.9252 28.1254C24.8935 28.0768 24.8646 28.0272 24.8276 27.9637C24.806 27.9267 24.7816 27.8849 24.7524 27.8359C24.859 27.8447 24.9589 27.8543 25.0543 27.8636C25.2503 27.8825 25.4274 27.8997 25.6049 27.9036C25.7966 27.9073 25.9887 27.9044 26.1808 27.9015C26.4743 27.8971 26.7678 27.8927 27.06 27.9118C27.8354 27.962 28.7685 27.2953 28.8841 26.4172C28.8864 26.3967 28.9021 26.3773 28.9178 26.3579C28.9222 26.3524 28.9266 26.347 28.9307 26.3415C28.9336 26.3376 28.9364 26.3336 28.939 26.3297V25.7459C28.9369 25.7444 28.9345 25.743 28.9321 25.7416L28.9224 25.7364C28.9098 25.7297 28.8973 25.7231 28.8958 25.7143C28.7194 24.7441 27.9125 24.1626 26.9186 24.1685C26.4599 24.171 26.0011 24.1705 25.5423 24.17C25.3588 24.1698 25.1753 24.1696 24.9918 24.1696H24.4149C24.4375 24.0164 24.4651 23.8673 24.4921 23.7208C24.55 23.4074 24.6056 23.1063 24.6064 22.8047C24.6076 21.9769 24.604 21.1386 24.4849 20.3212C24.346 19.3661 24.1299 18.4134 23.8543 17.4875C23.5854 16.5848 23.23 15.7067 22.8759 14.8317L22.8266 14.7098C22.629 14.2197 22.3732 13.7498 22.1194 13.2836L22.1026 13.2526C21.959 12.9876 21.5841 12.9 21.2956 13.0226C21.0562 13.1242 20.8192 13.499 20.8904 13.7232C21.0656 14.2754 21.0936 14.8429 21.0504 15.408C20.9955 16.1214 20.7526 16.7683 20.2166 17.2972C20.1464 17.201 20.077 17.1071 20.0086 17.0145C19.8553 16.8068 19.7067 16.6056 19.5638 16.4005C18.7767 15.2726 18.0398 14.112 17.6953 12.7634C17.4874 11.9473 17.3566 11.1206 18.1729 10.4889C18.3528 10.35 18.3539 10.0873 18.271 9.84911C18.1776 9.58056 17.9802 9.40542 17.7245 9.41243L17.6545 9.41415C17.1127 9.42741 16.5598 9.44094 16.0358 9.56071C14.7746 9.8491 13.7598 10.5473 12.9236 11.5386C12.105 12.5101 11.5421 13.6146 11.0773 14.7798C10.9806 15.022 10.8981 15.2701 10.8141 15.5228C10.7754 15.6393 10.7363 15.7568 10.6954 15.875L10.5653 15.8009C10.5084 15.7683 10.4553 15.738 10.4023 15.7081C10.247 15.6197 10.0921 15.5305 9.93715 15.4413C9.58874 15.2408 9.23958 15.0398 8.88648 14.8476C8.57817 14.6794 8.25936 14.7343 8.05733 14.9562C7.81559 15.2235 7.80275 15.4862 7.99894 15.819C8.29323 16.3187 8.46957 16.8663 8.37381 17.4385C8.30162 17.8736 8.1962 18.3031 8.09073 18.7328C8.02386 19.0052 7.95696 19.2777 7.89851 19.5518C7.86541 19.7068 7.83109 19.8617 7.79676 20.0168C7.66637 20.6056 7.5358 21.1951 7.47109 21.7912C7.41737 22.2793 7.49444 22.7919 7.57853 23.2823C7.70115 24.005 7.92186 24.7044 8.30023 25.3407C8.46566 25.6192 8.63716 25.8941 8.81208 26.1745C8.90265 26.3197 8.99414 26.4664 9.08617 26.6157L8.36323 26.7808C7.73951 26.9231 7.1186 27.0648 6.4983 27.2089C5.82214 27.3665 5.30246 27.7074 5.1016 28.415C5.07915 28.4935 5.05763 28.5727 5.03618 28.6516ZM14.512 20.6356C14.5258 20.614 14.5421 20.5884 14.5609 20.5559C14.6975 21.4083 14.9626 22.1544 15.4624 22.8222C15.933 23.4492 16.5064 23.7283 17.3134 23.5228C17.3449 24.1544 17.1452 24.6962 16.7949 25.1866C16.6559 25.3816 16.4866 25.5567 16.3173 25.7272C15.9622 26.0821 15.3655 26.0319 15.1156 25.6104C14.6741 24.8667 14.4032 24.0599 14.2794 23.2005C14.158 22.3599 14.2164 21.5367 14.4639 20.7264C14.4721 20.6983 14.4882 20.673 14.512 20.6356ZM8.58135 6.84733C8.92114 6.91341 9.15001 7.0641 9.24809 7.35042C9.31885 7.558 9.38999 7.76544 9.46114 7.97288C9.75749 8.83695 10.0538 9.70081 10.3212 10.573C10.3763 10.7517 10.3187 10.9723 10.2649 11.1781C10.2549 11.2166 10.245 11.2546 10.2359 11.2917C10.1009 11.8377 9.9481 12.3795 9.79533 12.9211L9.77004 13.0107C9.69531 13.2773 9.57037 13.5266 9.26094 13.5706C8.93282 13.617 8.68878 13.4941 8.47626 13.2101C7.83521 12.3535 7.33895 11.425 7.1276 10.384C6.88472 9.19005 7.06805 8.06912 8.0162 7.18698C8.12262 7.08915 8.25671 7.01986 8.39082 6.95056C8.45535 6.91721 8.5199 6.88386 8.58135 6.84733Z" fill="white"/>
</svg>
