<?xml version="1.0" encoding="UTF-8"?><svg enable-background="new 0 0 1024 1024" version="1.1" viewBox="0 0 1024 1024" xml:space="preserve" xmlns="http://www.w3.org/2000/svg"><style type="text/css">.st1{fill:#F4B01C;}.st2{fill:#256FB2;}</style><g class="st0"><g class="st0"><path class="st1" d="m733.3 796.1c-65.5 0-118.8-53.3-118.8-118.8 0-33.2 10.2-60 30.4-79.6 5.5-5.4 11.5-9.9 17.9-13.8-5.5-6-8.5-14.3-7.6-23 1.6-16.5 16.2-28.6 32.7-27 26 2.5 56.7 13.3 83.6 29 4.4 0.1 8.6 0.2 12.5 0.3 16.6 0.5 29.6 14.3 29.1 30.8v0.5c24 24.1 37.6 52.2 39 81.2 1.6 32.8-8.7 61.8-29.8 84-22 23.2-54.4 36.4-89 36.4zm20.5-173.2c-25 0.5-52.8 3.9-67.2 17.9-8.2 8-12.2 19.9-12.2 36.5 0 32.4 26.4 58.8 58.8 58.8 18.2 0 34.8-6.4 45.5-17.7 9.7-10.1 14.1-23.5 13.3-39.7-1.1-25.5-24.1-45.8-38.2-55.8z"/></g></g><g class="st0"><path class="st2" d="m267.9 955.2c-32.4 0-63.4-12-87.4-33.8s-38.9-51.5-42-83.7l-4-41.4-26.9-4.7c-68.4-11.9-115.3-75.3-106.6-144.3l28.5-225.9c2.2-17.4 10.6-32.6 23.7-43 11.6-9.2 26.5-14.1 41.8-13.9s30 5.6 41.3 15.1c12.8 10.7 20.7 26.2 22.4 43.6l39.6 408.8c3.5 36.1 33.4 63.3 69.7 63.3h626c20 0 38.4-8.2 51.8-23s19.8-33.9 17.8-53.8l-60.6-626.5c-3.5-36.1-33.4-63.3-69.7-63.3h-626c-20 0-38.4 8.1-51.8 22.9s-19.8 33.9-17.9 53.8l3.9 40.8c0.2 2.6 2.4 4.5 5 4.5h636.1c16.6 0 30 13.4 30 30s-13.4 30-30 30h-636c-33.6 0-61.5-25.2-64.7-58.7l-3.9-40.8c-3.5-36.4 8.6-72.8 33.2-99.9s59.7-42.6 96.2-42.6h626.1c32.4 0 63.4 12 87.4 33.8s38.9 51.5 42 83.7l60.6 626.4c3.5 36.4-8.6 72.8-33.2 99.9s-59.7 42.6-96.2 42.6h-626.2zm-174-530.6c-4.3 0-4.6 2.5-4.9 4.4l-28.4 225.8c-4.7 37.1 20.5 71.3 57.4 77.7l10.6 1.8-29.6-305.2c-0.2-1.9-0.4-4.5-4.9-4.5h-0.2z"/></g></svg>