<svg
   width="3004"
   height="3004"
   viewBox="0 0 3004 3004"
   fill="none"
   version="1.1"
   id="svg16"
   xmlns="http://www.w3.org/2000/svg"
   xmlns:svg="http://www.w3.org/2000/svg">
  <defs
     id="defs16" />
  <path
     fill="#DFE4E4"
     stroke="#fff"
     stroke-width="100"
     d="m2809.88 802.052 12.75 14.238v1801.24c0 168.34-136.45 304.8-304.8 304.8H485.801c-168.343 0-304.801-136.46-304.801-304.8V825.541l3.742-9.121 28.646-69.814 12.728-31.02H2732.48l14.91 16.652 62.49 69.814Z"
     id="path1" />
  <path
     fill="#CD2E47"
     stroke="#fff"
     stroke-width="100"
     d="M2822.63 835.4v50H181V585.507c0-168.345 136.457-304.814 304.801-304.814H2517.83c168.35 0 304.8 136.47 304.8 304.814V835.4Z"
     id="path2" />
  <path
     fill="#1C202E"
     stroke="#fff"
     stroke-width="70"
     d="M593.032 611.307h-3.084c-53.065 0-96.079-43.018-96.079-96.08V192.08c0-53.062 43.015-96.08 96.079-96.08h3.084c53.064 0 96.078 43.018 96.078 96.08v323.147c0 53.062-43.014 96.08-96.078 96.08ZM1050.09 611.307h-3.08c-53.065 0-96.081-43.018-96.081-96.08V192.08c0-53.063 43.016-96.08 96.081-96.08h3.08c53.07 0 96.08 43.017 96.08 96.08v323.147c0 53.062-43.01 96.08-96.08 96.08ZM1507.15 611.307h-3.08c-53.06 0-96.08-43.017-96.08-96.08V192.08c0-53.063 43.02-96.08 96.08-96.08h3.08c53.06 0 96.08 43.017 96.08 96.08v323.147c0 53.063-43.02 96.08-96.08 96.08ZM1964.22 611.307h-3.08c-53.07 0-96.08-43.017-96.08-96.08V192.08c0-53.063 43.01-96.08 96.08-96.08h3.08c53.06 0 96.08 43.017 96.08 96.08v323.147c0 53.063-43.02 96.08-96.08 96.08ZM2421.27 611.307h-3.08c-53.06 0-96.08-43.017-96.08-96.08V192.08c0-53.064 43.02-96.08 96.08-96.08h3.08c53.06 0 96.08 43.017 96.08 96.08v323.147c0 53.063-43.02 96.08-96.08 96.08Z"
     id="path3" />
  <path
     fill="#DFE4E4"
     d="M2772.63 835.4v1782.13c0 140.72-114.07 254.8-254.8 254.8H485.801c-140.728 0-254.801-114.08-254.801-254.8V835.4l28.645-69.813H2710.14l62.49 69.813Z"
     id="path4" />
  <path
     fill="#CD2E47"
     d="M2772.63 585.507V835.4H231V585.507c0-140.734 114.073-254.814 254.801-254.814H2517.83c140.73 0 254.8 114.08 254.8 254.814Z"
     id="path5" />
  <path
     fill="#9B213B"
     d="M684.276 632.147H491.114c-21.767 0-39.414-17.64-39.414-39.414V510.72c0-21.773 17.647-39.413 39.414-39.413h193.162c21.768 0 39.414 17.64 39.414 39.413v82.013c0 21.774-17.646 39.414-39.414 39.414Z"
     id="path6" />
  <path
     fill="#1C202E"
     d="M593.032 576.307h-3.084c-33.733 0-61.079-27.347-61.079-61.08V192.08c0-33.733 27.346-61.08 61.079-61.08h3.084c33.733 0 61.078 27.347 61.078 61.08v323.147c0 33.733-27.345 61.08-61.078 61.08Z"
     id="path7" />
  <path
     fill="#9B213B"
     d="M1141.34 632.147H948.174c-21.768 0-39.414-17.64-39.414-39.414V510.72c0-21.773 17.646-39.413 39.414-39.413h193.166c21.76 0 39.41 17.64 39.41 39.413v82.013c0 21.774-17.65 39.414-39.41 39.414Z"
     id="path8" />
  <path
     fill="#1C202E"
     d="M1050.09 576.307h-3.08c-33.73 0-61.081-27.347-61.081-61.08V192.08c0-33.733 27.351-61.08 61.081-61.08h3.08c33.74 0 61.08 27.347 61.08 61.08v323.147c0 33.733-27.34 61.08-61.08 61.08Z"
     id="path9" />
  <path
     fill="#9B213B"
     d="M1598.4 632.147h-193.17c-21.76 0-39.41-17.64-39.41-39.414V510.72c0-21.773 17.65-39.413 39.41-39.413h193.17c21.76 0 39.42 17.64 39.42 39.413v82.013c0 21.774-17.66 39.414-39.42 39.414Z"
     id="path10" />
  <path
     fill="#1C202E"
     d="M1507.15 576.307h-3.08c-33.73 0-61.08-27.347-61.08-61.08V192.08c0-33.733 27.35-61.08 61.08-61.08h3.08c33.73 0 61.08 27.347 61.08 61.08v323.147c0 33.733-27.35 61.08-61.08 61.08Z"
     id="path11" />
  <path
     fill="#9B213B"
     d="M2055.46 632.147H1862.3c-21.78 0-39.42-17.64-39.42-39.414V510.72c0-21.773 17.64-39.413 39.42-39.413h193.16c21.77 0 39.41 17.64 39.41 39.413v82.013c0 21.774-17.64 39.414-39.41 39.414Z"
     id="path12" />
  <path
     fill="#1C202E"
     d="M1964.22 576.307h-3.08c-33.74 0-61.08-27.347-61.08-61.08V192.08c0-33.733 27.34-61.08 61.08-61.08h3.08c33.73 0 61.08 27.347 61.08 61.08v323.147c0 33.733-27.35 61.08-61.08 61.08Z"
     id="path13" />
  <path
     fill="#9B213B"
     d="M2512.52 632.147h-193.16c-21.77 0-39.42-17.64-39.42-39.414V510.72c0-21.773 17.65-39.413 39.42-39.413h193.16c21.76 0 39.42 17.64 39.42 39.413v82.013c0 21.774-17.66 39.414-39.42 39.414Z"
     id="path14" />
  <path
     fill="#1C202E"
     d="M2421.27 576.307h-3.08c-33.73 0-61.08-27.347-61.08-61.08V192.08c0-33.733 27.35-61.08 61.08-61.08h3.08c33.73 0 61.08 27.347 61.08 61.08v323.147c0 33.733-27.35 61.08-61.08 61.08Z"
     id="path15" />
  <path
     fill="#B9C3C4"
     d="M842.32 959.6h154.945c21.575 0 39.065 17.48 39.065 39.053v154.957c0 21.56-17.49 39.06-39.065 39.06H842.32c-21.573 0-39.063-17.5-39.063-39.06V998.653c0-21.573 17.49-39.053 39.063-39.053ZM1618.35 959.6h154.95c21.57 0 39.06 17.48 39.06 39.053v154.957c0 21.56-17.49 39.06-39.06 39.06h-154.95c-21.57 0-39.07-17.5-39.07-39.06V998.653c0-21.573 17.5-39.053 39.07-39.053ZM2588.39 998.653v154.957c0 21.56-17.49 39.06-39.07 39.06h-154.94c-21.58 0-39.06-17.5-39.06-39.06V998.653c0-21.573 17.48-39.053 39.06-39.053h154.94c21.58 0 39.07 17.48 39.07 39.053ZM454.304 959.6h154.945c21.574 0 39.063 17.48 39.063 39.053v154.957c0 21.56-17.489 39.06-39.063 39.06H454.304c-21.573 0-39.063-17.5-39.063-39.06V998.653c0-21.573 17.49-39.053 39.063-39.053ZM2006.36 959.6h154.95c21.57 0 39.07 17.48 39.07 39.053v154.957c0 21.56-17.5 39.06-39.07 39.06h-154.95c-21.57 0-39.05-17.5-39.05-39.06V998.653c0-21.573 17.48-39.053 39.05-39.053ZM1230.33 959.6h154.95c21.58 0 39.07 17.48 39.07 39.053v154.957c0 21.56-17.49 39.06-39.07 39.06h-154.95c-21.57 0-39.06-17.5-39.06-39.06V998.653c0-21.573 17.49-39.053 39.06-39.053ZM1618.35 2092.4h154.95c21.57 0 39.06 17.48 39.06 39.05v154.95c0 21.57-17.49 39.07-39.06 39.07h-154.95c-21.57 0-39.07-17.5-39.07-39.07v-154.95c0-21.57 17.5-39.05 39.07-39.05ZM2588.39 2131.45v154.95c0 21.57-17.49 39.07-39.07 39.07h-154.94c-21.58 0-39.06-17.5-39.06-39.07v-154.95c0-21.57 17.48-39.05 39.06-39.05h154.94c21.58 0 39.07 17.48 39.07 39.05ZM2006.36 2092.4h154.95c21.57 0 39.07 17.48 39.07 39.05v154.95c0 21.57-17.5 39.07-39.07 39.07h-154.95c-21.57 0-39.05-17.5-39.05-39.07v-154.95c0-21.57 17.48-39.05 39.05-39.05ZM1230.33 2092.4h154.95c21.58 0 39.07 17.48 39.07 39.05v154.95c0 21.57-17.49 39.07-39.07 39.07h-154.95c-21.57 0-39.06-17.5-39.06-39.07v-154.95c0-21.57 17.49-39.05 39.06-39.05ZM842.32 2092.4h154.945c21.575 0 39.065 17.48 39.065 39.05v154.95c0 21.57-17.49 39.07-39.065 39.07H842.32c-21.573 0-39.063-17.5-39.063-39.07v-154.95c0-21.57 17.49-39.05 39.063-39.05ZM454.304 2092.4h154.945c21.574 0 39.063 17.48 39.063 39.05v154.95c0 21.57-17.489 39.07-39.063 39.07H454.304c-21.573 0-39.063-17.5-39.063-39.07v-154.95c0-21.57 17.49-39.05 39.063-39.05ZM454.304 2470h154.945c21.574 0 39.063 17.48 39.063 39.05V2664c0 21.57-17.489 39.07-39.063 39.07H454.304c-21.573 0-39.063-17.5-39.063-39.07v-154.95c0-21.57 17.49-39.05 39.063-39.05ZM842.32 2470h154.945c21.575 0 39.065 17.48 39.065 39.05V2664c0 21.57-17.49 39.07-39.065 39.07H842.32c-21.573 0-39.063-17.5-39.063-39.07v-154.95c0-21.57 17.49-39.05 39.063-39.05ZM1424.35 2509.05V2664c0 21.57-17.49 39.07-39.07 39.07h-154.95c-21.57 0-39.06-17.5-39.06-39.07v-154.95c0-21.57 17.49-39.05 39.06-39.05h154.95c21.58 0 39.07 17.48 39.07 39.05Z"
     id="path16" />
  <path
     style="font-weight:bold;font-size:666.667px;font-family:'Noto Serif Yezidi';-inkscape-font-specification:'Noto Serif Yezidi Bold';fill:#1c202e;stroke-width:40;paint-order:markers stroke fill"
     d="M 1157.7616,1891.9453 H 873.90725 v -85.9375 h 79.42712 v -312.8257 h -79.42712 v -85.9375 h 283.85435 v 85.9375 h -79.4272 v 312.8257 h 79.4272 z m 320.9636,9.4401 q -54.0364,0 -99.9349,-15.9505 -45.5729,-15.9505 -78.4506,-47.5261 -32.8776,-31.5755 -51.1068,-78.7761 -17.9036,-47.2005 -17.9036,-109.0495 0,-57.6172 17.2526,-104.4922 17.2526,-46.875 50.1302,-80.4037 31.5756,-32.2266 78.1251,-49.8047 46.875,-17.5782 102.2136,-17.5782 30.5989,0 55.013,3.5808 24.7396,3.2552 45.573,8.789 21.8099,6.1849 39.388,13.9974 17.9036,7.487 31.25,13.9974 v 117.5131 h -14.3229 q -9.1146,-7.8125 -23.112,-18.5547 -13.6719,-10.7422 -31.25,-21.1588 -17.9037,-10.4167 -38.737,-17.5782 -20.8334,-7.1614 -44.5964,-7.1614 -26.3672,0 -50.1302,8.4635 -23.7631,8.138 -43.9454,27.3438 -19.2057,18.5547 -31.25,49.1536 -11.7187,30.599 -11.7187,74.2188 0,45.573 12.6953,76.1719 13.0208,30.599 32.5521,48.1772 19.8568,17.9036 44.2708,25.7161 24.4141,7.487 48.1771,7.487 22.7865,0 44.9219,-6.8359 22.461,-6.836 41.3412,-18.5547 15.9505,-9.4401 29.6224,-20.1823 13.6719,-10.7422 22.461,-18.5547 h 13.0208 v 115.8854 q -18.2292,8.1381 -34.8307,15.2995 -16.6016,7.1615 -34.8308,12.3698 -23.763,6.836 -44.5964,10.4167 -20.8333,3.5807 -57.2917,3.5807 z m 651.3676,-161.7839 q 0,71.6146 -60.8724,116.5365 -60.5469,44.5964 -164.7137,44.5964 -60.2213,0 -105.1432,-10.4167 -44.5964,-10.7422 -83.6589,-27.0182 v -116.211 h 13.6718 q 38.737,30.9245 86.5886,47.526 48.1771,16.6016 92.448,16.6016 11.3932,0 29.9479,-1.9531 18.5547,-1.9531 30.2735,-6.5104 14.3229,-5.8594 23.4375,-14.6485 9.4401,-8.7891 9.4401,-26.0417 0,-15.9505 -13.6719,-27.3437 -13.3463,-11.7188 -39.388,-17.9037 -27.3438,-6.5104 -57.9428,-12.0443 -30.2734,-5.8593 -56.9661,-14.6484 -61.198,-19.8568 -88.2162,-53.711 -26.6927,-34.1797 -26.6927,-84.6354 0,-67.7084 60.5469,-110.3516 60.8724,-42.9688 156.25,-42.9688 47.8516,0 94.4011,9.4401 46.875,9.1146 81.0548,23.112 v 111.6537 h -13.3464 q -29.2969,-23.4375 -71.9401,-39.0625 -42.3178,-15.9506 -86.5886,-15.9506 -15.625,0 -31.25,2.2787 -15.2995,1.9531 -29.6225,7.8125 -12.6953,4.8828 -21.8099,14.974 -9.1146,9.7656 -9.1146,22.4609 0,19.2057 14.6485,29.6224 14.6484,10.0912 55.3386,18.5547 26.6927,5.5339 51.1068,10.7422 24.7396,5.2083 53.0599,14.3229 55.6641,18.2292 82.0313,49.8047 26.6927,31.2501 26.6927,81.3803 z"
     id="text16"
     aria-label="ICS" />
</svg>
