<svg width="384" height="216" viewBox="0 0 384 216" fill="none" xmlns="http://www.w3.org/2000/svg">
<path d="M196.601 47.4891C198.789 44.6834 200.93 41.8388 203.179 39.0832C205.427 36.3291 207.746 33.6302 210.106 30.9714C211.872 28.9822 213.694 27.0348 215.594 25.1738C220.836 20.0393 226.44 15.3517 232.761 11.5715C238.194 8.32227 243.947 5.87709 250.143 4.49669C254.82 3.45493 259.548 3.17372 264.314 3.42818C272.145 3.84623 279.562 5.87585 286.651 9.19412C293.241 12.2784 299.198 16.3139 304.639 21.1162C306.683 22.9204 308.68 24.7896 310.574 26.7489C314.929 31.2527 318.825 36.1397 322.358 41.3138C326.269 47.0406 329.71 53.0403 332.717 59.2865C336.183 66.4874 339.081 73.9132 341.473 81.54C343.106 86.7442 344.553 91.998 345.644 97.3392C346.528 101.663 347.277 106.014 348.018 110.365C348.407 112.652 348.743 114.956 348.929 117.266C349.054 118.81 349.275 120.342 349.385 121.885C349.545 124.136 349.701 126.387 349.827 128.641C349.922 130.332 349.99 132.026 350.027 133.719C350.091 136.646 350.216 139.576 350.143 142.501C350.061 145.817 349.864 149.134 349.584 152.44C348.895 160.576 347.376 168.554 344.722 176.292C342.89 181.63 340.533 186.729 337.36 191.408C336.037 193.358 334.506 195.166 332.93 197.025C332.437 196.94 332.085 196.821 331.73 196.81C330.798 196.781 329.864 196.809 328.931 196.797C328.175 196.787 328.075 196.739 327.914 195.989C327.804 195.477 327.82 194.935 327.803 194.406C327.791 194.008 327.727 193.606 327.246 193.625C326.569 193.652 326.393 193.225 326.27 192.718C326.166 192.289 325.99 191.972 325.478 191.997C325.019 192.02 324.823 191.737 324.756 191.332C324.696 190.975 324.61 190.616 324.607 190.257C324.592 188.491 324.607 186.724 324.597 184.958C324.593 184.193 324.582 184.172 323.795 184.004C323.454 183.931 323.251 183.78 323.188 183.446C323.12 183.09 323.023 182.734 323.008 182.375C322.98 181.676 322.989 180.975 323.003 180.276C323.015 179.678 322.821 179.283 322.194 179.082C321.4 178.829 321.404 178.787 321.402 177.952C321.396 175.986 321.428 174.019 321.391 172.053C321.362 170.462 321.529 168.868 321.229 167.276C321.129 166.741 320.979 166.372 320.47 166.26C319.867 166.128 319.79 165.743 319.794 165.225C319.809 163.259 319.812 161.293 319.792 159.327C319.787 158.781 319.947 158.475 320.514 158.321C321.534 158.044 321.397 157.917 321.399 157.053C321.403 155.22 321.399 153.387 321.401 151.554C321.401 150.614 321.328 150.54 322.28 150.281C322.84 150.129 323.018 149.831 323.008 149.28C322.984 147.814 323.004 146.347 322.999 144.881C322.995 143.998 323 143.962 322.144 143.692C321.619 143.526 321.387 143.28 321.39 142.707C321.41 139.108 321.408 135.509 321.392 131.91C321.39 131.375 321.61 131.123 322.106 131.01C322.99 130.808 322.998 130.796 322.998 129.932C323.002 125.3 323.002 120.667 322.998 116.035C322.997 115.125 322.948 115.057 322.068 114.788C321.636 114.656 321.38 114.457 321.393 113.954C321.419 112.955 321.408 111.955 321.398 110.955C321.394 110.527 321.556 110.253 321.996 110.177C322.818 110.034 323.019 109.504 323.012 108.731C322.983 105.799 323.002 102.866 322.999 99.9333C322.998 98.9967 322.995 98.9881 322.103 98.6645C321.785 98.5491 321.393 98.4846 321.422 98.0633C321.468 97.3914 321.049 97.2116 320.535 97.07C320.219 96.9826 319.799 96.9203 319.83 96.4958C319.882 95.7664 319.4 95.5975 318.872 95.4508C318.532 95.3565 318.245 95.2446 318.204 94.8264C318.151 94.3006 318.012 93.7771 318.017 93.2535C318.022 92.6738 317.735 92.3861 317.246 92.2442C316.899 92.1435 316.582 92.0165 316.613 91.6023C316.661 90.97 316.232 90.8331 315.772 90.6839C315.467 90.5851 315.018 90.5576 315.038 90.1341C315.076 89.3706 314.587 89.1725 314.014 89.0329C313.649 88.9439 313.393 88.7757 313.406 88.3675C313.43 87.6421 312.966 87.5672 312.372 87.5375C311.725 85.6462 311.137 83.8107 310.508 81.9892C308.073 74.9309 305.072 68.125 301.392 61.6218C298.119 55.8367 294.326 50.423 289.791 45.5567C286.559 42.0876 282.977 39.0096 278.946 36.4863C273.238 32.9128 267.09 30.7022 260.299 30.4159C256.978 30.2759 253.733 30.6424 250.544 31.5434C246.066 32.8086 242.071 35.0274 238.361 37.7921C234.502 40.6672 231.069 44.0037 227.882 47.5926C224.079 51.8751 220.595 56.4122 217.34 61.1231C215.58 63.6695 213.856 66.2409 212.068 68.7589C211.548 68.0777 211.061 67.4479 210.604 66.7979C208.733 64.139 206.902 61.4514 204.998 58.817C202.823 55.8089 200.587 52.8456 198.376 49.8639C197.787 49.0701 197.193 48.2806 196.601 47.4891Z" fill="#0081FA"/>
<path d="M192.401 102.309C191.69 103.508 190.959 104.695 190.271 105.907C186.871 111.895 183.483 117.89 180.09 123.882C175.943 131.205 171.829 138.548 167.638 145.846C163.56 152.946 159.308 159.94 154.824 166.794C151.596 171.726 148.243 176.567 144.682 181.263C141.827 185.028 138.826 188.669 135.618 192.143C131.906 196.161 127.948 199.899 123.531 203.137C117.376 207.648 110.596 210.76 103.07 212.137C99.8662 212.724 96.628 213.066 93.3611 213.032C91.3292 213.011 89.2901 213.091 87.2671 212.946C83.3889 212.668 79.5557 212.071 75.7977 211.021C70.7292 209.605 65.9636 207.527 61.5694 204.626C58.0253 202.287 54.8539 199.515 51.9991 196.366C48.1891 192.163 45.1606 187.448 42.7087 182.354C40.5534 177.877 38.8908 173.211 37.6976 168.39C37.0568 165.801 36.5778 163.173 36.1008 160.464C36.4175 159.907 36.6592 159.449 36.9076 158.978C36.6323 158.45 36.2007 158.743 35.811 158.8C35.6441 157.729 35.4438 156.662 35.3181 155.586C35.1309 153.983 34.9965 152.375 34.9468 150.684C35.8534 150.599 36.6528 150.6 37.4522 150.598C37.9668 150.597 38.3437 150.395 38.5413 149.891C38.8906 149.001 38.8965 149.003 39.8593 149C40.0591 148.999 40.2591 149.004 40.4588 148.999C41.3727 148.976 41.4997 148.862 41.8127 147.997C41.8913 147.779 42.093 147.466 42.2654 147.448C42.9118 147.377 43.2545 146.97 43.4464 146.6C44.0949 146.6 44.6234 146.561 45.1421 146.615C45.4487 146.647 45.8114 146.753 46.0225 146.957C46.396 147.317 46.7924 147.421 47.2846 147.407C48.1499 147.382 49.0166 147.39 49.8825 147.403C50.6359 147.415 50.6357 147.427 50.8018 148.143C50.9562 148.808 51.1334 148.97 51.8098 148.996C52.342 149.016 52.8806 148.963 53.4057 149.028C53.6072 149.053 53.7791 149.317 53.9645 149.471C53.811 149.625 53.6823 149.834 53.4971 149.917C53.2964 150.006 53.0434 149.991 52.8126 149.997C52.3799 150.008 51.9466 150.004 51.5136 150.002C51.0784 150 50.8739 150.195 50.7913 150.644C50.6324 151.508 50.5004 151.589 49.5865 151.598C48.6872 151.607 47.7875 151.588 46.8885 151.604C46.1313 151.618 46.0274 151.736 46.0003 152.475C45.9675 153.372 46.1807 153.731 46.8439 153.788C47.3068 153.829 47.7763 153.812 48.2421 153.797C48.7577 153.78 49.1748 153.854 49.2265 154.5C49.2378 154.641 49.3592 154.816 49.4817 154.898C49.999 155.246 51.1216 154.965 51.3599 154.367C51.5491 153.893 51.8377 153.768 52.2746 153.802C53.9107 153.929 55.5128 153.668 57.1171 153.404C57.441 153.351 57.7428 153.285 57.7701 152.923C57.8243 152.206 58.2982 152.177 58.8339 152.198C59.1 152.209 59.3686 152.219 59.6329 152.195C60.3021 152.135 60.8829 151.935 61.0052 151.153C61.0695 150.743 61.3254 150.602 61.7051 150.602C62.1048 150.603 62.5072 150.628 62.9036 150.591C63.5378 150.532 64.0844 150.306 64.1985 149.582C64.2727 149.111 64.5646 148.994 64.9761 149C65.3424 149.005 65.7089 149.004 66.0752 149.001C66.3998 149 66.6829 149.079 66.7743 149.432C66.9566 150.138 67.4734 150.241 68.0893 150.203C68.388 150.185 68.6887 150.2 69.0087 150.28C69.0732 150.553 69.1399 150.744 69.1586 150.94C69.4636 154.124 70.1157 157.242 71.0372 160.3C72.2665 164.378 74.0371 168.191 76.7831 171.495C79.8486 175.183 83.7223 177.55 88.4312 178.484C90.6823 178.931 92.9539 179.044 95.2615 178.856C98.2112 178.616 101.03 177.97 103.711 176.722C107.13 175.132 110.058 172.844 112.773 170.271C115.53 167.66 118.012 164.792 120.385 161.833C125.302 155.702 129.773 149.248 134.127 142.714C137.172 138.145 140.155 133.535 143.127 128.919C145.757 124.836 148.326 120.714 150.938 116.62C152.226 114.601 153.552 112.607 154.947 110.601C155.534 110.6 156.034 110.615 156.533 110.593C157.12 110.566 157.54 110.282 157.731 109.708C157.802 109.496 157.857 109.278 157.937 108.998C158.671 108.998 159.366 109.019 160.06 108.992C160.691 108.967 160.958 108.696 160.992 108.07C161.02 107.572 161.008 107.071 160.998 106.572C160.989 106.119 161.167 105.71 161.599 105.656C162.58 105.533 162.644 104.896 162.602 104.141C162.589 103.909 162.606 103.675 162.599 103.442C162.581 102.861 162.812 102.485 163.422 102.397C163.873 102.331 164.135 102.066 164.197 101.614C164.266 101.114 164.553 100.867 165.046 100.789C165.6 100.701 165.813 100.324 165.801 99.7867C165.792 99.3873 165.807 98.9875 165.799 98.5881C165.789 98.0945 165.984 97.7039 166.481 97.6309C167.223 97.522 167.359 97.0189 167.396 96.4204C167.415 96.1219 167.393 95.8211 167.401 95.5216C167.423 94.7485 167.47 94.6557 168.247 94.4048C168.577 94.298 168.759 94.1469 168.798 93.8001C168.853 93.3083 168.979 92.8198 168.987 92.3283C168.997 91.7654 169.146 91.3595 169.73 91.1885C170.386 90.9963 170.426 90.4698 170.402 89.9075C170.378 89.3493 170.489 88.7437 169.703 88.5616C169.567 88.5301 169.482 88.2802 169.387 88.065C170.493 86.2965 171.575 84.5867 172.683 82.8938C173.844 81.1196 175.03 79.3616 176.266 77.6274C177.245 78.9541 178.204 80.2234 179.075 81.5505C182.625 86.9582 186.158 92.3769 189.673 97.8071C190.626 99.2794 191.494 100.807 192.401 102.309Z" fill="#0081FB"/>
<path d="M52.5957 59.991C53.3347 58.4678 54.026 56.9192 54.8218 55.4263C57.0445 51.2564 59.4285 47.1785 62.0604 43.2522C65.2118 38.551 68.6125 34.0403 72.4111 29.835C76.5917 25.2068 81.085 20.9199 86.0813 17.1747C92.6022 12.2865 99.6805 8.46519 107.476 6.02223C110.714 5.00723 114.021 4.29562 117.382 3.82819C121.643 3.23567 125.933 3.17693 130.203 3.46212C138.88 4.0416 147.137 6.25439 154.95 10.1393C161.519 13.4056 167.48 17.5521 173.031 22.3085C175.2 24.1679 177.281 26.1346 179.345 28.1126C180.808 29.5145 182.205 30.9882 183.575 32.4818C185.925 35.0433 188.236 37.64 190.549 40.2348C191.095 40.8468 191.583 41.5101 192.135 42.2615C192.111 42.4482 192.061 42.5384 191.986 42.5962C189.522 44.4949 187.06 46.3954 184.589 48.2855C180.91 51.1002 177.228 53.9096 173.543 56.7165C171.674 58.1399 169.803 59.5595 167.923 60.9678C167.077 61.6011 166.208 62.2028 165.29 62.7916C162.279 59.1597 159.196 55.6771 155.873 52.4062C152.64 49.2237 149.205 46.2967 145.382 43.8414C142.375 41.9096 139.196 40.335 135.775 39.2713C133.1 38.4399 130.371 37.9534 127.573 37.7451C125.38 37.5819 123.2 37.5556 121.031 37.8615C116.344 38.5225 112.08 40.3156 108.119 42.8641C103.918 45.5666 100.281 48.9137 97.0128 52.6704C92.6924 57.6359 89.0902 63.0931 85.9822 68.8855C85.4183 69.9364 84.8289 70.9737 84.1733 72.0119C83.7636 71.8688 83.3699 71.8021 83.1136 71.5781C82.6285 71.1543 82.114 70.9449 81.4773 70.9969C81.1343 71.0249 80.7948 70.9916 80.6205 70.6304C80.4016 70.1768 80.0002 70.2097 79.595 70.1943C79.2025 70.1795 78.655 70.2642 78.4513 70.0469C77.9433 69.5048 77.3895 69.3626 76.6969 69.3631C76.4312 69.3633 76.1125 69.1772 75.9112 68.9805C75.562 68.6394 75.1711 68.5906 74.7245 68.5925C74.3648 68.594 73.8533 68.665 73.6744 68.4664C73.203 67.9431 72.5116 67.8551 72.0217 67.4566C71.561 67.0819 71.1073 67.0069 70.561 66.9812C70.188 66.9637 69.7364 66.8646 69.4778 66.6287C69.1843 66.361 68.9277 66.2064 68.5373 66.1769C68.3223 66.1607 68.0302 66.0585 67.9251 65.8964C67.5932 65.3847 67.1196 65.3644 66.6106 65.4021C66.0561 65.443 65.5636 65.3711 65.1742 64.8987C65.0438 64.7405 64.7792 64.69 64.5724 64.5984C64.3622 64.5054 64.0485 64.4825 63.9527 64.3244C63.6075 63.7546 63.0853 63.8195 62.5505 63.7862C62.2024 63.7644 61.752 63.7139 61.5442 63.4921C61.2145 63.1401 60.8817 62.994 60.428 62.9609C60.2471 62.9477 60.0017 62.836 59.9146 62.6915C59.5948 62.1606 59.104 62.168 58.6001 62.2035C58.0423 62.2427 57.5703 62.1428 57.1609 61.6974C56.9893 61.5106 56.6384 61.4561 56.3578 61.4108C56.0656 61.3637 55.7477 61.3456 55.4624 61.4098C54.4499 61.6377 54.0114 60.4131 53.0522 60.4808C52.9123 60.4907 52.7485 60.1627 52.5957 59.991Z" fill="#0264E0"/>
<path d="M165.35 62.8189C166.208 62.2029 167.077 61.6013 167.923 60.968C169.803 59.5596 171.674 58.1401 173.543 56.7166C177.228 53.9097 180.91 51.1003 184.589 48.2856C187.06 46.3955 189.522 44.4951 191.986 42.5963C192.061 42.5386 192.111 42.4484 192.185 42.3091C192.843 42.9844 193.504 43.7113 194.131 44.4667C194.932 45.4322 195.705 46.4207 196.546 47.4443C197.193 48.2807 197.787 49.0702 198.376 49.864C200.587 52.8457 202.823 55.809 204.998 58.8171C206.902 61.4515 208.733 64.139 210.604 66.7979C211.061 67.448 211.547 68.0777 212.079 68.832C213.776 71.4541 215.442 73.9431 217.045 76.4715C220.324 81.6405 223.636 86.7899 226.813 92.0209C233.116 102.398 239.273 112.863 245.613 123.217C250.268 130.82 255.118 138.305 259.882 145.842C260.662 147.076 261.444 148.309 262.195 149.61C261.861 149.917 261.589 150.233 261.245 150.38C260.507 150.695 260.415 150.745 260.403 151.513C260.39 152.379 260.411 153.245 260.396 154.111C260.384 154.829 260.269 154.971 259.623 155.198C258.895 155.453 258.815 155.553 258.802 156.342C258.791 157.042 258.774 157.742 258.806 158.44C258.864 159.719 258.657 160.079 257.191 160.006C256.494 159.972 255.793 159.989 255.094 160.004C254.335 160.02 254.117 160.163 254.016 160.876C253.948 161.362 253.759 161.55 253.273 161.617C252.591 161.71 252.435 161.93 252.404 162.596C252.385 162.995 252.406 163.395 252.399 163.795C252.384 164.698 252.306 164.83 251.437 164.992C250.986 165.077 250.799 165.288 250.802 165.721C250.804 166.187 250.812 166.654 250.797 167.12C250.773 167.9 250.593 168.09 249.812 168.2C249.058 168.307 249.014 168.345 249.003 169.149C248.99 170.048 249.004 170.948 248.999 171.847C248.993 172.79 248.993 172.81 248.037 172.994C247.651 173.068 247.39 173.22 247.414 173.621C247.456 174.316 247.104 174.587 246.466 174.602C246.076 174.611 245.794 174.788 245.817 175.193C245.86 175.946 245.467 176.195 244.794 176.211C244.385 176.221 244.184 176.477 244.21 176.865C244.254 177.518 243.91 177.78 243.321 177.795C242.822 177.808 242.637 178.049 242.589 178.537C242.521 179.236 242.371 179.324 241.649 179.404C241.292 179.443 240.941 179.536 240.588 179.605C238.84 177.179 237.056 174.778 235.351 172.322C229.242 163.516 223.65 154.381 218.147 145.191C213.86 138.03 209.638 130.83 205.349 123.67C201.095 116.567 196.792 109.491 192.456 102.356C191.494 100.807 190.626 99.2795 189.673 97.8072C186.158 92.377 182.625 86.9584 179.075 81.5507C178.204 80.2235 177.245 78.9543 176.255 77.5588C173.91 74.3119 171.654 71.1509 169.354 68.0229C168.057 66.2601 166.687 64.5518 165.35 62.8189Z" fill="#0769E1"/>
<path d="M312.412 87.5999C312.966 87.5673 313.43 87.6421 313.406 88.3676C313.393 88.7758 313.649 88.944 314.014 89.0329C314.587 89.1726 315.076 89.3707 315.038 90.1342C315.017 90.5577 315.467 90.5852 315.772 90.684C316.232 90.8332 316.661 90.9701 316.613 91.6024C316.582 92.0166 316.899 92.1435 317.246 92.2443C317.735 92.3862 318.022 92.6739 318.017 93.2536C318.012 93.7771 318.151 94.3007 318.203 94.8265C318.245 95.2446 318.532 95.3566 318.871 95.4509C319.4 95.5976 319.882 95.7665 319.83 96.4959C319.799 96.9204 320.219 96.9827 320.535 97.0701C321.049 97.2117 321.468 97.3915 321.421 98.0634C321.393 98.4847 321.785 98.5492 322.103 98.6645C322.995 98.9882 322.998 98.9968 322.999 99.9334C323.002 102.866 322.983 105.799 323.011 108.731C323.019 109.504 322.818 110.034 321.996 110.177C321.556 110.253 321.394 110.527 321.398 110.955C321.408 111.955 321.419 112.955 321.393 113.954C321.38 114.457 321.636 114.656 322.068 114.788C322.948 115.057 322.997 115.125 322.998 116.035C323.002 120.667 323.002 125.3 322.998 129.932C322.998 130.796 322.99 130.808 322.106 131.01C321.609 131.123 321.39 131.375 321.392 131.91C321.408 135.509 321.41 139.108 321.39 142.707C321.387 143.28 321.619 143.526 322.144 143.692C323 143.962 322.995 143.998 322.998 144.881C323.004 146.347 322.984 147.814 323.008 149.28C323.018 149.831 322.84 150.129 322.28 150.281C321.328 150.54 321.401 150.614 321.401 151.554C321.399 153.387 321.403 155.22 321.399 157.053C321.397 157.917 321.534 158.044 320.514 158.321C319.947 158.475 319.787 158.781 319.792 159.327C319.812 161.293 319.809 163.259 319.794 165.226C319.79 165.743 319.867 166.129 320.47 166.26C320.979 166.372 321.129 166.741 321.229 167.276C321.528 168.868 321.362 170.462 321.391 172.053C321.428 174.019 321.396 175.986 321.402 177.952C321.404 178.787 321.4 178.829 322.194 179.082C322.821 179.283 323.015 179.678 323.003 180.276C322.989 180.976 322.98 181.676 323.008 182.375C323.023 182.734 323.12 183.09 323.188 183.446C323.251 183.78 323.454 183.931 323.795 184.004C324.582 184.172 324.593 184.193 324.597 184.958C324.607 186.724 324.592 188.491 324.607 190.257C324.61 190.616 324.696 190.975 324.756 191.332C324.823 191.737 325.019 192.02 325.478 191.997C325.99 191.972 326.166 192.289 326.27 192.718C326.393 193.225 326.569 193.652 327.246 193.625C327.727 193.606 327.791 194.008 327.803 194.406C327.82 194.935 327.804 195.477 327.914 195.989C328.075 196.739 328.175 196.787 328.931 196.797C329.864 196.81 330.798 196.781 331.73 196.81C332.085 196.821 332.437 196.941 332.876 197.06C331.994 198.137 331.039 199.18 330.046 200.186C329.706 200.531 329.256 200.764 328.886 201.084C327.92 201.921 327.011 202.829 326.004 203.611C325.058 204.346 324.031 204.981 323.011 205.614C320.899 206.927 318.73 208.136 316.426 209.088C313.03 210.491 309.545 211.581 305.92 212.231C301.245 213.069 296.536 213.175 291.812 212.964C285.866 212.697 280.083 211.604 274.465 209.286C274.401 208.593 274.376 208.025 274.41 207.461C274.452 206.782 274.668 206.514 275.345 206.411C275.866 206.331 276.012 206.056 276.001 205.597C275.994 205.33 276 205.064 276 204.797C276 203.598 275.984 202.399 276.006 201.2C276.022 200.389 276.203 200.166 277.006 200.004C277.471 199.91 277.635 199.647 277.594 199.237C277.377 197.065 277.998 194.949 277.996 192.793C277.996 192.342 278.152 191.962 278.578 191.854C279.064 191.731 279.202 191.4 279.296 191.003C279.408 190.527 279.681 190.24 280.179 190.202C280.715 190.16 280.81 189.808 280.801 189.363C280.793 188.93 280.778 188.495 280.809 188.064C280.857 187.404 281.174 187.082 281.787 187.006C282.579 186.909 282.978 187.239 282.995 188.055C283.015 189.054 283 190.054 283.002 191.053C283.003 191.412 283.074 191.769 283.515 191.756C283.954 191.744 283.998 191.375 283.999 191.023C284 190.623 283.987 190.223 284.003 189.824C284.036 189.011 284.24 188.72 285.029 188.621C285.566 188.554 285.803 188.357 285.812 187.817C285.819 187.358 286.107 187.113 286.548 187.004C287.385 186.798 287.384 186.789 287.399 185.992C287.404 185.759 287.403 185.526 287.399 185.292C287.387 184.457 287.377 184.484 286.585 184.184C286.303 184.078 285.97 183.859 285.855 183.604C285.415 182.623 285.444 182.61 284.504 182.6C282.389 182.578 282.356 182.546 282.404 180.399C282.41 180.137 282.434 179.866 282.511 179.618C282.612 179.29 282.809 179.069 283.202 178.993C283.984 178.841 283.982 178.811 283.998 178.036C284.007 177.637 283.943 177.226 284.017 176.84C284.087 176.474 284.294 176.135 284.509 175.796C284.696 175.869 284.818 175.922 284.932 175.991C288.412 178.106 292.242 178.929 296.259 178.947C297.711 178.953 299.178 178.814 300.614 178.586C304.275 178.003 307.525 176.5 310.279 173.987C313.356 171.179 315.357 167.686 316.804 163.825C318.271 159.911 319.087 155.845 319.54 151.715C319.84 148.981 319.983 146.219 320.007 143.469C320.041 139.612 319.917 135.754 319.824 131.897C319.783 130.238 319.695 128.578 319.549 126.925C319.337 124.522 319.059 122.124 318.799 119.726C318.596 117.856 318.432 115.98 318.152 114.122C317.749 111.453 317.241 108.8 316.808 106.135C316.179 102.265 315.265 98.4571 314.299 94.6617C313.698 92.3007 313.043 89.9534 312.412 87.5999Z" fill="#027BF3"/>
<path d="M284.441 175.783C284.294 176.134 284.087 176.474 284.017 176.84C283.943 177.225 284.007 177.636 283.998 178.036C283.982 178.811 283.984 178.84 283.202 178.992C282.809 179.069 282.612 179.29 282.511 179.618C282.434 179.866 282.41 180.137 282.404 180.399C282.355 182.545 282.389 182.577 284.504 182.6C285.444 182.61 285.415 182.623 285.855 183.604C285.97 183.859 286.303 184.078 286.585 184.184C287.377 184.483 287.387 184.457 287.399 185.292C287.403 185.525 287.404 185.759 287.399 185.992C287.384 186.789 287.385 186.798 286.548 187.004C286.107 187.113 285.819 187.358 285.811 187.817C285.803 188.357 285.566 188.554 285.029 188.621C284.239 188.719 284.035 189.011 284.003 189.823C283.987 190.223 284 190.623 283.999 191.022C283.998 191.374 283.954 191.743 283.515 191.756C283.074 191.768 283.003 191.412 283.002 191.053C283 190.054 283.015 189.054 282.995 188.055C282.978 187.238 282.579 186.909 281.787 187.006C281.174 187.082 280.857 187.404 280.809 188.064C280.777 188.495 280.793 188.93 280.801 189.362C280.81 189.808 280.715 190.16 280.179 190.202C279.681 190.24 279.408 190.526 279.295 191.003C279.202 191.4 279.064 191.731 278.578 191.854C278.151 191.961 277.996 192.342 277.996 192.793C277.998 194.948 277.377 197.065 277.594 199.236C277.635 199.647 277.471 199.91 277.006 200.004C276.203 200.166 276.022 200.389 276.006 201.2C275.983 202.398 276 203.598 276 204.797C276 205.063 275.994 205.33 276 205.596C276.012 206.056 275.866 206.331 275.345 206.411C274.668 206.514 274.452 206.781 274.41 207.46C274.376 208.025 274.401 208.593 274.4 209.247C270.703 207.949 267.283 206.038 264.029 203.821C261.082 201.813 258.355 199.536 255.744 197.105C250.833 192.533 246.521 187.435 242.476 182.019C242.652 181.398 242.407 181.087 241.948 180.803C241.886 180.968 241.844 181.079 241.802 181.191C241.408 180.707 241.014 180.222 240.604 179.671C240.941 179.536 241.292 179.443 241.649 179.404C242.371 179.324 242.521 179.236 242.589 178.537C242.637 178.049 242.822 177.808 243.321 177.795C243.91 177.779 244.254 177.518 244.21 176.865C244.183 176.476 244.385 176.22 244.794 176.211C245.467 176.195 245.86 175.946 245.817 175.193C245.794 174.787 246.076 174.611 246.466 174.602C247.104 174.587 247.456 174.316 247.414 173.62C247.39 173.22 247.651 173.068 248.037 172.994C248.993 172.81 248.993 172.79 248.999 171.847C249.004 170.947 248.99 170.048 249.003 169.149C249.014 168.345 249.057 168.307 249.812 168.2C250.593 168.09 250.773 167.899 250.797 167.12C250.811 166.654 250.804 166.187 250.802 165.721C250.799 165.288 250.986 165.077 251.437 164.992C252.306 164.829 252.384 164.698 252.399 163.795C252.405 163.395 252.385 162.995 252.404 162.596C252.435 161.93 252.591 161.71 253.273 161.616C253.759 161.55 253.948 161.361 254.016 160.875C254.117 160.162 254.334 160.019 255.094 160.003C255.793 159.989 256.494 159.971 257.191 160.006C258.657 160.079 258.864 159.719 258.806 158.44C258.774 157.742 258.791 157.041 258.802 156.342C258.815 155.553 258.895 155.453 259.623 155.197C260.269 154.971 260.384 154.829 260.396 154.111C260.411 153.245 260.39 152.379 260.403 151.513C260.415 150.745 260.507 150.695 261.245 150.38C261.589 150.233 261.861 149.916 262.25 149.651C264.521 152.804 266.679 156.003 268.9 159.156C272.041 163.616 275.479 167.838 279.279 171.757C279.709 172.202 280.247 172.541 280.697 172.969C281.836 174.054 283.067 175.013 284.441 175.783Z" fill="#0572EA"/>
<path d="M68.9886 150.2C68.6888 150.2 68.3881 150.185 68.0894 150.203C67.4735 150.241 66.9567 150.138 66.7744 149.433C66.6829 149.079 66.3998 149 66.0753 149.002C65.7089 149.004 65.3424 149.005 64.9761 149C64.5647 148.994 64.2727 149.111 64.1986 149.582C64.0845 150.306 63.5379 150.532 62.9037 150.591C62.5073 150.628 62.1049 150.603 61.7052 150.602C61.3255 150.602 61.0695 150.743 61.0052 151.154C60.883 151.935 60.3022 152.135 59.633 152.195C59.3686 152.219 59.1 152.209 58.8339 152.198C58.2982 152.177 57.8243 152.206 57.7702 152.923C57.7428 153.285 57.4411 153.351 57.1172 153.404C55.5129 153.668 53.9107 153.929 52.2746 153.802C51.8377 153.768 51.5491 153.893 51.36 154.367C51.1217 154.966 49.999 155.246 49.4818 154.898C49.3593 154.816 49.2378 154.641 49.2265 154.5C49.1748 153.854 48.7577 153.78 48.2421 153.797C47.7763 153.812 47.3069 153.829 46.8439 153.789C46.1808 153.731 45.9676 153.372 46.0004 152.475C46.0274 151.736 46.1314 151.619 46.8885 151.605C47.7876 151.588 48.6873 151.607 49.5865 151.598C50.5004 151.589 50.6324 151.508 50.7913 150.644C50.8739 150.195 51.0785 150.001 51.5137 150.002C51.9467 150.004 52.3799 150.008 52.8126 149.997C53.0435 149.991 53.2965 150.006 53.4972 149.917C53.6823 149.834 53.811 149.625 53.9646 149.472C53.7792 149.317 53.6073 149.053 53.4058 149.028C52.8807 148.963 52.342 149.016 51.8098 148.996C51.1334 148.97 50.9563 148.808 50.8018 148.143C50.6357 147.427 50.6359 147.415 49.8825 147.404C49.0167 147.39 48.15 147.383 47.2846 147.407C46.7924 147.421 46.3961 147.317 46.0225 146.957C45.8115 146.753 45.4488 146.647 45.1421 146.615C44.6234 146.561 44.095 146.6 43.4465 146.6C43.2546 146.97 42.9119 147.377 42.2655 147.448C42.093 147.467 41.8913 147.779 41.8127 147.997C41.4997 148.862 41.3727 148.976 40.4589 148.999C40.2591 149.004 40.0592 149 39.8593 149C38.8965 149.004 38.8907 149.001 38.5413 149.891C38.3438 150.395 37.9668 150.597 37.4523 150.598C36.6529 150.6 35.8534 150.6 34.9658 150.6C34.7837 149.446 34.6354 148.293 34.6063 147.138C34.5227 143.816 34.4554 140.494 34.4455 137.172C34.4402 135.381 34.5293 133.589 34.6406 131.801C34.8072 129.124 35.031 126.45 35.3389 123.687C36.0359 123.551 36.7443 123.69 37.183 123.408C37.7469 123.046 38.275 123.001 38.8668 123.001C42.3938 123 45.9208 123.015 49.4475 122.984C49.9517 122.979 50.6479 122.914 50.9153 122.594C51.4145 121.996 51.9687 121.998 52.6023 121.998C56.7281 122.002 60.854 122.004 64.9798 121.993C65.3335 121.992 65.7934 122.01 66.0182 121.81C66.4765 121.402 66.9674 121.394 67.5013 121.399C68.2666 121.405 69.0319 121.4 69.8115 121.488C69.6037 123.987 69.3518 126.395 69.1672 128.809C68.9574 131.553 68.7451 134.3 68.6505 137.05C68.5634 139.579 68.6302 142.113 68.6322 144.645C68.6324 144.911 68.6463 145.177 68.6641 145.443C68.7706 147.029 68.8801 148.614 68.9886 150.2Z" fill="#017BF4"/>
<path d="M52.5419 60.0342C52.7486 60.1627 52.9124 60.4907 53.0524 60.4808C54.0115 60.413 54.4501 61.6377 55.4626 61.4098C55.7478 61.3456 56.0658 61.3636 56.358 61.4108C56.6386 61.4561 56.9894 61.5106 57.1611 61.6974C57.5705 62.1428 58.0425 62.2427 58.6003 62.2034C59.1042 62.168 59.595 62.1605 59.9148 62.6915C60.0019 62.836 60.2472 62.9477 60.4282 62.9609C60.8819 62.994 61.2147 63.14 61.5444 63.492C61.7522 63.7139 62.2026 63.7644 62.5507 63.7861C63.0855 63.8195 63.6077 63.7546 63.9529 64.3244C64.0487 64.4825 64.3624 64.5054 64.5726 64.5984C64.7794 64.69 65.0439 64.7405 65.1744 64.8987C65.5638 65.3711 66.0563 65.443 66.6108 65.402C67.1198 65.3644 67.5934 65.3847 67.9253 65.8964C68.0304 66.0585 68.3224 66.1607 68.5375 66.1769C68.9279 66.2063 69.1844 66.361 69.478 66.6287C69.7366 66.8645 70.1882 66.9637 70.5612 66.9812C71.1075 67.0069 71.5612 67.0818 72.0218 67.4566C72.5118 67.8551 73.2032 67.9431 73.6745 68.4664C73.8535 68.665 74.3649 68.594 74.7246 68.5925C75.1713 68.5906 75.5622 68.6394 75.9114 68.9805C76.1127 69.1772 76.4313 69.3633 76.697 69.3631C77.3897 69.3626 77.9435 69.5047 78.4515 70.0468C78.6552 70.2642 79.2027 70.1795 79.5951 70.1943C80.0003 70.2096 80.4017 70.1768 80.6206 70.6303C80.795 70.9916 81.1345 71.0249 81.4775 70.9969C82.1142 70.9449 82.6287 71.1543 83.1137 71.5781C83.3701 71.8021 83.7638 71.8688 84.1616 72.0856C84.1288 72.4105 84.0462 72.6644 83.9283 72.9007C81.8314 77.1023 79.9734 81.4078 78.4075 85.8339C77.4679 88.4895 76.6291 91.1805 75.7285 93.8501C75.5939 94.249 75.3687 94.6174 75.1026 94.9998C74.7673 94.9695 74.5148 94.9391 74.2332 94.9053C74.2861 93.7845 73.7155 93.3225 72.7257 93.3396C72.6755 93.1957 72.6313 93.1067 72.6137 93.0128C72.4183 91.9731 72.2329 91.8144 71.1641 91.801C70.698 91.7952 70.2318 91.7979 69.7656 91.8004C68.5176 91.8073 68.3897 91.9175 68.1365 93.1747C68.1254 93.23 68.0573 93.2738 67.9505 93.4C67.6877 93.4 67.3594 93.4 67.0311 93.4C64.8001 93.4 62.5689 93.421 60.3384 93.3881C59.5991 93.3773 58.9575 93.4737 58.4893 94.1041C58.4662 94.1352 58.3649 94.1081 58.1517 94.1081C58.1034 93.7637 58.0225 93.3963 58.0059 93.026C57.9653 92.118 57.7287 91.8363 56.8215 91.807C55.9234 91.7781 55.0236 91.8068 54.1247 91.7946C53.9153 91.7918 53.7068 91.7262 53.4979 91.6895C53.4802 91.6182 53.4624 91.547 53.4447 91.4757C53.6547 91.3849 53.8586 91.2391 54.076 91.2153C54.4709 91.1719 54.874 91.2087 55.2733 91.1982C56.1216 91.1758 56.3598 90.9519 56.3996 90.1588C56.4564 89.0277 56.2391 88.6395 55.3541 88.6171C53.5904 88.5723 51.8245 88.5834 50.0604 88.616C49.5566 88.6253 49.1215 88.8038 48.9788 89.4379C48.8083 90.1958 48.7541 90.193 47.9458 90.1978C46.614 90.2057 45.282 90.2048 43.9502 90.1978C43.3892 90.1948 42.8902 90.3 42.5823 90.8318C42.356 91.2228 42.0263 91.25 41.6349 91.1179C41.4492 91.0553 41.2486 91.0371 41.0547 90.9988C41.8966 88.1056 42.6902 85.1974 43.5905 82.3225C45.3862 76.5885 47.5207 70.9785 49.9671 65.4898C50.7772 63.6722 51.6459 61.8808 52.5419 60.0342Z" fill="#0169E3"/>
<path d="M69.7972 121.4C69.0319 121.4 68.2666 121.405 67.5014 121.398C66.9675 121.394 66.4766 121.402 66.0183 121.81C65.7935 122.01 65.3336 121.992 64.9799 121.993C60.8541 122.004 56.7282 122.002 52.6024 121.998C51.9688 121.998 51.4146 121.996 50.9154 122.594C50.648 122.914 49.9518 122.979 49.4475 122.983C45.9209 123.015 42.3939 122.999 38.8669 123.001C38.275 123.001 37.747 123.046 37.1831 123.408C36.7443 123.69 36.036 123.551 35.3624 123.6C35.3318 122.777 35.3435 121.948 35.4481 121.131C35.8719 117.823 36.291 114.513 36.7767 111.213C37.1503 108.676 37.6203 106.153 38.0514 103.624C38.0675 103.529 38.1257 103.441 38.2749 103.273C38.7421 103.13 39.0979 103.013 39.4551 103.009C41.1504 102.989 42.8468 102.974 44.5412 103.018C44.9811 103.03 45.5348 103.14 45.8223 103.423C46.1957 103.79 46.5634 103.799 46.9886 103.799C49.1163 103.801 51.2441 103.806 53.3718 103.796C53.8538 103.793 54.3506 103.816 54.648 104.212C54.9429 104.604 55.3004 104.602 55.7021 104.601C57.5971 104.598 59.4922 104.607 61.3871 104.596C61.8705 104.593 62.3637 104.625 62.6594 105.022C62.9551 105.419 63.3194 105.401 63.7175 105.401C66.1777 105.399 68.6379 105.389 71.098 105.409C71.5873 105.413 72.0757 105.533 72.5695 105.679C72.1357 107.938 71.6323 110.106 71.274 112.298C70.8149 115.107 70.0556 117.871 69.963 120.738C69.9559 120.96 69.8547 121.179 69.7972 121.4Z" fill="#0172ED"/>
<path d="M72.5645 105.599C72.0757 105.533 71.5873 105.413 71.098 105.409C68.638 105.389 66.1777 105.399 63.7175 105.401C63.3194 105.401 62.9551 105.419 62.6594 105.022C62.3637 104.625 61.8705 104.593 61.3872 104.596C59.4922 104.607 57.5972 104.598 55.7021 104.601C55.3005 104.602 54.9429 104.604 54.648 104.212C54.3506 103.816 53.8538 103.793 53.3718 103.796C51.2441 103.806 49.1164 103.801 46.9886 103.799C46.5634 103.799 46.1957 103.79 45.8223 103.423C45.5348 103.14 44.9811 103.03 44.5412 103.018C42.8468 102.974 41.1504 102.989 39.4551 103.009C39.0979 103.013 38.7421 103.13 38.3022 103.198C38.6636 101.112 39.1083 99.0239 39.6168 96.8519C39.6941 96.7501 39.7226 96.726 39.7183 96.7158C39.702 96.6771 39.6749 96.6429 39.6519 96.6071C40.0977 94.7855 40.5435 92.964 41.0219 91.0706C41.2483 91.0371 41.449 91.0553 41.6347 91.1179C42.0261 91.25 42.3557 91.2228 42.5821 90.8318C42.89 90.3 43.389 90.1948 43.9499 90.1978C45.2818 90.2048 46.6138 90.2057 47.9456 90.1978C48.7539 90.193 48.8081 90.1959 48.9786 89.4379C49.1213 88.8038 49.5563 88.6253 50.0602 88.616C51.8243 88.5834 53.5902 88.5723 55.3538 88.6171C56.2389 88.6396 56.4562 89.0277 56.3994 90.1588C56.3596 90.9519 56.1214 91.1759 55.2731 91.1982C54.8738 91.2087 54.4707 91.1719 54.0758 91.2153C53.8584 91.2391 53.6545 91.3849 53.4445 91.4757C53.4622 91.547 53.48 91.6182 53.4977 91.6895C53.7066 91.7262 53.9151 91.7918 54.1245 91.7946C55.0234 91.8068 55.9232 91.7781 56.8213 91.807C57.7285 91.8363 57.9651 92.118 58.0057 93.026C58.0223 93.3963 58.1032 93.7637 58.1515 94.1081C58.3647 94.1081 58.466 94.1352 58.4891 94.1041C58.9573 93.4738 59.5989 93.3773 60.3382 93.3881C62.5687 93.421 64.7999 93.4 67.0309 93.4C67.3592 93.4 67.6875 93.4 67.9503 93.4C68.0571 93.2738 68.1252 93.23 68.1363 93.1747C68.3894 91.9176 68.5173 91.8073 69.7654 91.8004C70.2316 91.7979 70.6978 91.7952 71.1639 91.801C72.2326 91.8145 72.4181 91.9731 72.6135 93.0128C72.6311 93.1067 72.6753 93.1957 72.7255 93.3396C73.7153 93.3225 74.2859 93.7845 74.2329 94.9053C74.5146 94.9391 74.7671 94.9695 75.1281 95.0793C75.0593 95.8853 74.8924 96.6144 74.7028 97.3376C74.233 99.1306 73.7471 100.919 73.2791 102.713C73.0287 103.672 72.8019 104.637 72.5645 105.599Z" fill="#016DE9"/>
<path d="M35.7974 158.881C36.2009 158.742 36.6324 158.45 36.9078 158.978C36.6593 159.449 36.4177 159.907 36.1063 160.382C35.9522 159.92 35.8679 159.441 35.7974 158.881Z" fill="#017BF4"/>
<path d="M241.819 181.254C241.844 181.08 241.886 180.968 241.948 180.803C242.407 181.087 242.652 181.398 242.459 181.954C242.217 181.77 242.026 181.543 241.819 181.254Z" fill="#0769E1"/>
<path d="M39.6267 96.6518C39.6749 96.643 39.7019 96.6771 39.7183 96.7158C39.7226 96.726 39.6941 96.7502 39.6503 96.7826C39.6138 96.7637 39.6077 96.7301 39.6267 96.6518Z" fill="#0172ED"/>
<path d="M154.948 110.601C156.064 108.69 157.253 106.768 158.475 104.868C161.82 99.6657 165.178 94.4725 168.533 89.277C168.766 88.9154 169.014 88.5633 169.315 88.1689C169.483 88.2801 169.568 88.53 169.703 88.5615C170.489 88.7436 170.378 89.3492 170.402 89.9074C170.426 90.4697 170.386 90.9962 169.73 91.1884C169.146 91.3594 168.997 91.7653 168.988 92.3282C168.979 92.8197 168.853 93.3082 168.798 93.8001C168.759 94.1468 168.578 94.2979 168.247 94.4047C167.471 94.6556 167.423 94.7484 167.402 95.5215C167.393 95.821 167.415 96.1218 167.396 96.4203C167.359 97.0188 167.223 97.5219 166.481 97.6309C165.984 97.7038 165.789 98.0944 165.799 98.588C165.807 98.9874 165.793 99.3873 165.801 99.7866C165.813 100.324 165.6 100.7 165.047 100.789C164.554 100.867 164.266 101.114 164.197 101.614C164.136 102.066 163.873 102.331 163.423 102.397C162.813 102.485 162.582 102.861 162.599 103.442C162.606 103.675 162.589 103.909 162.602 104.141C162.644 104.896 162.58 105.533 161.6 105.656C161.168 105.71 160.989 106.119 160.998 106.572C161.009 107.071 161.02 107.572 160.993 108.07C160.959 108.696 160.691 108.967 160.06 108.992C159.367 109.019 158.671 108.998 157.938 108.998C157.857 109.277 157.802 109.495 157.731 109.708C157.54 110.282 157.12 110.566 156.533 110.593C156.035 110.615 155.534 110.599 154.948 110.601Z" fill="#047FF9"/>
</svg>
