<svg width="225" height="194" viewBox="0 0 225 194" fill="none" xmlns="http://www.w3.org/2000/svg">
<path d="M122 0C111.165 12.6969 97.216 11 82 11H0L15.3596 31L55.2253 126L83 194C89.6476 189.977 93.162 175.16 95.939 168C102.189 151.888 109.18 136.05 115.6 120C118.55 112.627 121.059 102.427 127 97L139.397 129L166 194H168C179.451 160.152 194.728 127.184 208 94C215.76 74.5976 225.481 54.4307 223.91 33C222.153 9.039 200.34 -5.05637 178 4.0941C162.109 10.603 147.708 28.6561 143 45H141C137.245 31.2703 130.585 11.3441 122 0Z" fill="#020202"/>
<path d="M99 140C106.153 129.228 109.609 114.887 114.719 103C116.824 98.105 120.848 91.4555 120.436 86C119.51 73.7292 109.69 58.3931 104.989 47C98.526 31.337 83.6322 6.45451 63.0432 19.9946C51.9447 27.2934 58.4592 42.5507 62.4244 52C74.4729 80.7126 83.6101 112.957 99 140Z" fill="#F7F7F7"/>
<path d="M181 139C185.865 132.978 187.766 124.144 190.601 117C198.802 96.331 213.176 64.1847 198.892 43.0147C188.503 27.618 150.597 31.2788 145.789 51C144.199 57.521 152.287 69.9822 154.85 76C163.748 96.89 172.79 117.831 181 139Z" fill="#F7F7F7"/>
</svg>
