<svg width="28" height="29" viewBox="0 0 28 29" fill="none" xmlns="http://www.w3.org/2000/svg">
<path fill-rule="evenodd" clip-rule="evenodd" d="M7 19.073V21.994L0 14.994L1.46 13.534L7 19.075V19.073ZM9.921 21.994H7L14 28.994L15.46 27.534L9.921 21.994V21.994ZM26.535 16.456L27.996 14.994L13.996 0.993999L12.538 2.46L18.077 7.998H14.73L10.864 4.14L9.404 5.6L11.809 8.004H10.129V18.87H20.994V17.19L23.399 19.594L24.859 18.134L20.994 14.268V10.921L26.534 16.456H26.535ZM7.73 7.27L6.265 8.732L7.833 10.298L9.294 8.838L7.73 7.27ZM20.162 19.702L18.702 21.164L20.268 22.732L21.73 21.27L20.162 19.702V19.702ZM4.596 10.404L3.134 11.866L7 15.732V12.809L4.596 10.404ZM16.192 22H13.268L17.134 25.866L18.596 24.404L16.192 22Z" fill="#FF6363"/>
</svg>
