<svg width="29" height="29" viewBox="0 0 29 29" fill="none" xmlns="http://www.w3.org/2000/svg">
<path d="M18.9175 0H9.45898V9.41811H18.9175V0Z" fill="#19C3D0"/>
<path d="M18.9175 18.877H9.45898V28.2951H18.9175V18.877Z" fill="#FE7541"/>
<path d="M18.918 18.877H28.3765C28.4169 24.0913 24.1727 28.2951 18.918 28.2951V18.877Z" fill="#19C3D0"/>
<path d="M18.918 9.41895C24.1323 9.41895 28.3765 13.6227 28.3765 18.837H18.918V9.41895Z" fill="#414FE8"/>
<path d="M18.918 0H28.3765C28.3765 5.21432 24.1323 9.41811 18.918 9.41811V0Z" fill="#FE7541"/>
<path d="M0 9.41811C0 4.20379 4.24421 0 9.4585 0V9.41811H0Z" fill="#414FE8"/>
<path d="M0 9.41895H9.4585V18.837C4.24421 18.8774 0 14.6332 0 9.41895Z" fill="#FFC000"/>
<path d="M0 28.2951C0 23.0808 4.24421 18.877 9.4585 18.877V28.2951H0Z" fill="#414FE8"/>
</svg>
