<svg version="1.1" id="Layer_1" xmlns="http://www.w3.org/2000/svg" xmlns:xlink="http://www.w3.org/1999/xlink" x="0" y="0" viewBox="0 0 256 256" style="enable-background:new 0 0 256 256" xml:space="preserve"><style>.st3{fill:#fff}</style><symbol id="BigBlueButton" viewBox="-207.5 -207.5 415 415"><linearGradient id="SVGID_1_" gradientUnits="userSpaceOnUse" x1="-736.348" y1="-459.885" x2="-508.634" y2="-785.095" gradientTransform="translate(622.491 622.49)"><stop offset="0" style="stop-color:#283274"/><stop offset=".709" style="stop-color:#283375"/><stop offset=".967" style="stop-color:#273f88"/></linearGradient><path d="M198.5 0c0-109.6-88.9-198.5-198.5-198.5S-198.5-109.6-198.5 0-109.6 198.5 0 198.5 198.5 109.6 198.5 0z" style="fill:url(#SVGID_1_);stroke:#5d6aa5;stroke-width:18"/><linearGradient id="SVGID_2_" gradientUnits="userSpaceOnUse" x1="-750.178" y1="-434.426" x2="-635.93" y2="-597.589" gradientTransform="translate(640.986 590.539)"><stop offset="0" style="stop-color:#bfc8e6"/><stop offset=".077" style="stop-color:#b6bedd"/><stop offset=".204" style="stop-color:#9fa4c9"/><stop offset=".364" style="stop-color:#7f82ae"/><stop offset=".552" style="stop-color:#585c92"/><stop offset=".758" style="stop-color:#283375"/></linearGradient><path d="M.5 190.3c50.3-.4 104.3-20.5 143.3-67-1.7-39.9-73-80.7-132.5-125.7-49.9-37.7-126.4-73.1-178.6-87-49.7 95.2-13.6 186.6 48.8 238 29.2 25.5 73.1 42 119 41.7z" style="fill:url(#SVGID_2_)"/><path d="M107.4-49.4c0-16.8-5.9-31-17.7-42.8s-26.1-17.7-42.8-17.7h-72.2c-16.8 0-31 5.9-42.8 17.7C-80-80.4-85.8-66.1-85.8-49.4v181.1c12.9 0 23.8-6.3 32.9-18.9s13.6-27.7 13.6-45.4V-49.4c0-9.3 4.7-14 14-14h72.2c9.3 0 14 4.7 14 14V6c0 9-4.7 13.7-14 14h-14c-18 .6-33.2 5.3-45.6 14.1s-18.6 19.6-18.6 32.5h78.2c16.8 0 31-5.9 42.8-17.7s17.7-26.1 17.7-42.8v-55.5z"/><path class="st3" d="M107.4-49.4c0-16.8-5.9-31-17.7-42.8s-26.1-17.7-42.8-17.7h-72.2c-16.8 0-31 5.9-42.8 17.7C-80-80.4-85.8-66.1-85.8-49.4v181.1c12.9 0 23.8-6.3 32.9-18.9s13.6-27.7 13.6-45.4V-49.4c0-9.3 4.7-14 14-14h72.2c9.3 0 14 4.7 14 14V6c0 9-4.7 13.7-14 14h-14c-18 .6-33.2 5.3-45.6 14.1s-18.6 19.6-18.6 32.5h78.2c16.8 0 31-5.9 42.8-17.7s17.7-26.1 17.7-42.8v-55.5z" style="opacity:.46"/><path class="st3" d="M104-51.7c0-16.8-5.9-31-17.7-42.8s-26.1-17.7-42.8-17.7h-72.2c-16.8 0-31 5.9-42.8 17.7s-17.7 26.1-17.7 42.8v181.1c12.9 0 23.8-6.3 32.9-18.9s13.6-27.7 13.6-45.4V-51.7c0-9.3 4.7-14 14-14h72.2c9.3 0 14 4.7 14 14V3.7c0 9-4.7 13.7-14 14h-14c-18 .6-33.2 5.3-45.6 14.1s-18.6 19.6-18.6 32.5h78.2c16.8 0 31-5.9 42.8-17.7C98.1 34.7 104 20.4 104 3.7v-55.4z"/></symbol><use xlink:href="#BigBlueButton" width="415" height="415" x="-207.5" y="-207.5" transform="matrix(.6169 0 0 -.6169 128 128)" style="overflow:visible"/></svg>