<svg width="48" height="48" viewBox="0 0 48 48" fill="none" xmlns="http://www.w3.org/2000/svg">
<path d="M46 23.6696C46 16.6741 35.9231 10.9999 23.5 10.9999C11.0769 10.9999 1 16.7 1 23.6696V24.421C1 31.8311 9.8135 37.842 23.5 37.842C37.2767 37.842 46 31.8311 46 24.421V23.6696Z" fill="#28316B"/>
<path d="M45.1575 23.6688C45.1575 30.2498 35.4717 35.5872 23.5298 35.5872C11.5579 35.5872 1.87207 30.2498 1.87207 23.6688C1.87207 17.0878 11.5579 11.7505 23.4997 11.7505C35.4717 11.7246 45.1575 17.0878 45.1575 23.6688Z" fill="#50B4E9"/>
<path d="M16.3321 19.8948C16.3321 19.9207 16.0914 20.1021 16.2418 20.2575C16.5727 20.6462 17.6255 20.8535 18.7084 20.6462C19.3401 20.5166 20.1523 19.9725 20.9343 19.4284C21.7766 18.8325 22.6489 18.2625 23.4912 18.0293C24.3936 17.7702 24.9651 17.8998 25.3561 17.9775C25.7773 18.0811 26.2585 18.3143 27.0406 18.8325C28.5146 19.7912 34.4704 24.2735 35.4932 25.0508C36.3354 24.7399 40.0052 23.3667 44.9985 22.408C44.5774 20.1021 42.9531 18.0034 40.4865 16.2934C37.0874 17.5371 32.8762 18.1848 28.7853 16.4489C28.7552 16.4489 26.5593 15.542 24.3635 15.5938C21.1148 15.6457 19.7011 16.8634 18.197 18.1589L16.3321 19.8948Z" fill="white"/>
<path d="M35.2582 25.5278C35.198 25.476 28.2796 20.2682 26.6853 19.2318C25.7829 18.6359 25.2715 18.5063 24.7301 18.4286C24.4594 18.4027 24.0683 18.4545 23.7976 18.5063C23.0757 18.6877 22.1131 19.2318 21.2709 19.8018C20.3985 20.3977 19.5563 20.9677 18.8043 21.1232C17.8116 21.3046 16.6385 21.0973 16.067 20.7605C15.8564 20.6309 15.6759 20.4755 15.6158 20.3459C15.4052 19.9314 15.7963 19.6204 15.8564 19.5686L17.7816 17.7809L18.4433 17.2109C17.8417 17.2886 17.2702 17.4181 16.6987 17.5477C16.0068 17.7291 15.3451 17.8845 14.6532 17.8845C14.3825 17.8845 12.8785 17.6772 12.5777 17.5995C10.8631 17.2109 9.3591 16.7963 7.07301 15.8895C4.36579 17.6254 2.53089 19.8018 2.01953 22.2114C2.41057 22.2891 3.04226 22.4705 3.31298 22.5223C9.47942 23.7141 11.3745 24.906 11.7354 25.1651C12.1265 24.8023 12.6679 24.5691 13.2695 24.5691C13.9614 24.5691 14.563 24.8541 14.9239 25.3205C15.2849 25.0873 15.7662 24.8801 16.3979 24.8801C16.6686 24.8801 16.9694 24.9319 17.2702 25.0096C17.962 25.2169 18.323 25.6055 18.5035 25.9683C18.7441 25.8646 19.0149 25.8128 19.3457 25.8128C19.6766 25.8128 20.0376 25.8646 20.3685 25.9942C21.5115 26.4087 21.692 27.3674 21.5717 28.0928H21.8123C23.1659 28.0928 24.2488 29.0256 24.2488 30.1915C24.2488 30.5542 24.1285 30.891 23.948 31.176C24.309 31.3574 25.2415 31.746 26.0536 31.6683C26.7154 31.5906 26.956 31.4092 27.0463 31.3056C27.1064 31.2279 27.1666 31.1501 27.1064 31.0724L25.3618 29.4142C25.3618 29.4142 25.061 29.181 25.1813 29.1033C25.2715 28.9997 25.452 29.1551 25.5723 29.2328C26.4447 29.8806 27.5276 30.8392 27.5276 30.8392C27.5576 30.8392 27.6178 30.9688 28.0088 31.0206C28.3397 31.0724 28.9714 31.0465 29.3925 30.7356C29.5128 30.6579 29.6031 30.5542 29.6933 30.4765L29.6632 30.5024C30.1144 30.0101 29.6031 29.5178 29.6031 29.5178L27.6479 27.5487C27.6479 27.5487 27.3471 27.3155 27.4674 27.2119C27.5576 27.1342 27.7381 27.2637 27.8584 27.3414C28.4901 27.8078 29.4226 28.5851 30.2649 29.3106C30.4453 29.4142 31.1973 29.8288 32.2201 29.2587C32.8217 28.9219 32.942 28.4815 32.942 28.1706C32.9119 27.756 32.5209 27.4451 32.5209 27.4451L29.7535 25.0614C29.7535 25.0614 29.4527 24.8541 29.573 24.7246C29.6632 24.621 29.8437 24.7764 29.964 24.8541C30.8364 25.5019 33.2428 27.3674 33.2428 27.3674C33.2729 27.3933 34.1151 27.8855 35.1078 27.3414C35.4687 27.1342 35.7094 26.8492 35.7395 26.4864C35.7695 25.8905 35.2582 25.5278 35.2582 25.5278Z" fill="white"/>
<path d="M21.8493 28.5782C21.4282 28.5782 20.9469 28.7855 20.8868 28.7596C20.8567 28.7336 20.9168 28.6041 20.9469 28.5005C20.977 28.4227 21.5485 26.9459 20.1648 26.4536C19.112 26.065 18.4803 26.5054 18.2397 26.7127C18.1795 26.7645 18.1495 26.7645 18.1495 26.6868C18.1194 26.4277 17.9991 25.7022 17.0967 25.4691C15.8032 25.1322 14.961 25.9095 14.7504 26.1945C14.6602 25.5468 14.0285 25.0545 13.2765 25.0545C12.4342 25.0545 11.7725 25.6245 11.7725 26.35C11.7725 27.0754 12.4342 27.6454 13.2765 27.6454C13.6675 27.6454 14.0586 27.5159 14.3293 27.2827V27.3345C14.2691 27.6454 14.1488 28.8373 15.5626 29.3037C16.1341 29.485 16.6154 29.3555 17.0064 29.0964C17.1267 29.0186 17.1568 29.0446 17.1267 29.1482C17.0666 29.4591 17.1267 30.0809 18.1795 30.4696C18.9616 30.7546 19.4429 30.4696 19.7437 30.2105C19.864 30.1068 19.9242 30.1328 19.9242 30.2882C19.9543 31.1691 20.7965 31.8428 21.8193 31.8428C22.8721 31.8428 23.7143 31.1173 23.7143 30.2105C23.7444 29.3037 22.9021 28.5782 21.8493 28.5782Z" fill="white"/>
<path d="M21.8494 31.7267C20.8869 31.7267 20.1349 31.079 20.1048 30.2758C20.1048 30.1981 20.1048 30.0167 19.9243 30.0167C19.8641 30.0167 19.7739 30.0426 19.7137 30.1204C19.4731 30.3017 19.2024 30.4572 18.8113 30.4572C18.6309 30.4572 18.4504 30.4313 18.2398 30.3535C17.2472 29.9908 17.2171 29.3949 17.2772 29.1617C17.2772 29.1099 17.2772 29.0322 17.2472 28.9803L17.187 28.9285H17.1268C17.0667 28.9285 17.0065 28.9544 16.9464 28.9803C16.6456 29.1617 16.3748 29.2394 16.1041 29.2394C15.9537 29.2394 15.8033 29.2135 15.6228 29.1617C14.2993 28.7213 14.4196 27.6331 14.4798 27.3221C14.4798 27.2444 14.4798 27.2185 14.4196 27.1667L14.2993 27.1149L14.2091 27.1926C13.9383 27.3999 13.6075 27.5294 13.2465 27.5294C12.4945 27.5294 11.8628 27.0112 11.8628 26.3376C11.8628 25.6639 12.4945 25.1458 13.2465 25.1458C13.9383 25.1458 14.5099 25.5862 14.6001 26.1821L14.6603 26.493L14.8708 26.234C14.9009 26.208 15.4423 25.4826 16.4651 25.4826C16.6456 25.4826 16.8561 25.5085 17.0667 25.5603C17.8788 25.7676 18.0292 26.4153 18.0292 26.6744C18.0593 26.8299 18.1796 26.8299 18.2097 26.8299C18.2699 26.8299 18.33 26.804 18.3601 26.7521C18.5105 26.6226 18.8414 26.3894 19.3829 26.3894C19.6235 26.3894 19.8641 26.4412 20.1349 26.5449C21.4283 27.0112 20.8267 28.4363 20.8267 28.4622C20.7064 28.6953 20.7064 28.799 20.8267 28.8508L20.8869 28.8767H20.9169C20.9771 28.8767 21.0373 28.8508 21.1576 28.8249C21.3381 28.7731 21.6088 28.6953 21.8494 28.6953C22.812 28.6953 23.6242 29.3949 23.6242 30.224C23.5941 31.0531 22.812 31.7267 21.8494 31.7267ZM35.5359 24.9126C33.4002 23.3062 28.4671 19.6011 27.1436 18.7461C26.3915 18.2539 25.8501 17.9948 25.3989 17.8652C25.1883 17.8134 24.8875 17.7616 24.5266 17.7616C24.1957 17.7616 23.8347 17.8134 23.4437 17.917C22.5714 18.1502 21.7291 18.7461 20.8869 19.3161L20.8568 19.342C20.0747 19.8602 19.2926 20.4302 18.6609 20.5339C18.3902 20.5857 18.1195 20.6116 17.8488 20.6116C17.1569 20.6116 16.5553 20.4302 16.3448 20.1971C16.3147 20.1452 16.3448 20.0934 16.4049 19.9898V19.9639L18.2699 18.2279C19.7438 16.9584 21.1275 15.7665 24.316 15.6888H24.4664C26.4517 15.6888 28.437 16.4661 28.6776 16.5438C30.5426 17.3211 32.4678 17.7357 34.423 17.7357C36.4383 17.7357 38.5139 17.2952 40.7097 16.4402C40.4691 16.2588 40.1984 16.1034 39.9577 15.922C38.0627 16.6475 36.2278 17.0102 34.453 17.0102C32.6482 17.0102 30.8434 16.6216 29.0988 15.8961C29.0085 15.8702 26.8127 14.9634 24.5266 14.9634H24.3461C21.669 15.0152 20.1349 15.8443 19.1422 16.5697C18.1496 16.5956 17.3073 16.8029 16.5252 16.9843C15.8334 17.1397 15.2619 17.2952 14.6903 17.2952C14.4497 17.2952 14.0286 17.2693 13.9985 17.2693C13.3367 17.2434 10.0279 16.5438 7.38085 15.6888C7.11013 15.8443 6.83941 16.0256 6.59876 16.207C9.33606 17.1657 12.705 17.917 13.7579 17.9948C14.0587 18.0207 14.3595 18.0466 14.6903 18.0466C15.3822 18.0466 16.074 17.8652 16.7659 17.7098C17.1569 17.6061 17.6081 17.5025 18.0593 17.4248L17.6984 17.7357L15.8033 19.5234C15.6529 19.653 15.322 20.0157 15.5326 20.4302C15.6228 20.6116 15.8033 20.7671 16.044 20.9225C16.4952 21.1816 17.3073 21.363 18.0593 21.363C18.3601 21.363 18.6309 21.3371 18.8715 21.2853C19.6837 21.1298 20.4958 20.5598 21.3982 19.938C22.1202 19.4457 23.1128 18.8498 23.8949 18.6684C24.1054 18.6166 24.3762 18.5907 24.5867 18.5907H24.7672C25.2786 18.6425 25.7599 18.7979 26.6623 19.368C28.2264 20.3784 35.175 25.6121 35.2351 25.6639C35.2351 25.6639 35.6863 26.0008 35.6563 26.5449C35.6262 26.8558 35.4457 27.1149 35.1148 27.2962C34.814 27.4517 34.5132 27.5294 34.2124 27.5294C33.7612 27.5294 33.4303 27.3481 33.4002 27.3221C33.3702 27.2962 30.9938 25.4308 30.1215 24.8089C29.9711 24.7053 29.8508 24.6276 29.7004 24.6276C29.6402 24.6276 29.55 24.6535 29.5199 24.7053C29.3695 24.8608 29.55 25.0421 29.7305 25.1976L32.4978 27.6071C32.4978 27.6071 32.8287 27.8922 32.8889 28.2549C32.919 28.6435 32.6783 28.9803 32.2271 29.2394C31.8962 29.4208 31.5653 29.5244 31.2345 29.5244C30.8133 29.5244 30.5125 29.369 30.4524 29.3172L30.0613 28.9803C29.3394 28.3585 28.5874 27.7367 28.046 27.3221C27.8354 27.1926 27.685 27.089 27.5346 27.089C27.4744 27.089 27.4143 27.1149 27.3541 27.1408C27.294 27.1926 27.2338 27.2962 27.4143 27.4776C27.4744 27.5553 27.5647 27.6071 27.5647 27.6071L29.58 29.5763C29.6101 29.6022 30.0012 30.0167 29.6101 30.4054L29.55 30.4831L29.3695 30.6386C29.0386 30.8717 28.5573 30.8976 28.3768 30.8976C28.2866 30.8976 28.1964 30.8976 28.1061 30.8717C27.8956 30.8458 27.7752 30.794 27.7151 30.7163L27.685 30.6904C27.5647 30.5867 26.5419 29.7058 25.6997 29.084C25.5794 29.0063 25.4591 28.9026 25.3087 28.9026C25.2485 28.9026 25.1883 28.9285 25.1282 28.9803C24.9477 29.1358 25.2184 29.369 25.3087 29.4726L27.0232 31.1049C27.0232 31.1308 26.9931 31.1567 26.9631 31.2086C26.9029 31.2863 26.6923 31.4677 26.0607 31.5195H25.82C25.1583 31.5195 24.4965 31.2604 24.1355 31.079C24.2859 30.794 24.3762 30.4572 24.3762 30.1463C24.3762 28.9285 23.2331 27.9181 21.7893 27.9181H21.699C21.7592 27.3481 21.669 26.3117 20.4056 25.8453C20.0446 25.7158 19.6837 25.638 19.3227 25.638C19.052 25.638 18.7813 25.6899 18.5406 25.7676C18.2699 25.3271 17.8488 25.0162 17.2772 24.8348C17.0065 24.8089 16.7057 24.7571 16.3748 24.7571C15.8635 24.7571 15.3521 24.8867 14.931 25.1458C14.5099 24.7053 13.8782 24.4462 13.2465 24.4462C12.675 24.4462 12.1335 24.6535 11.7124 24.9903C11.171 24.6276 9.03526 23.4616 3.3501 22.3475C3.07938 22.2957 2.44769 22.1403 2.05665 22.0366C1.99649 22.2957 1.93633 22.5807 1.90625 22.8398C1.90625 22.8398 2.95906 23.0471 3.16962 23.0989C9.00518 24.213 10.9303 25.3789 11.2612 25.5862C11.1409 25.8194 11.0807 26.0526 11.0807 26.3117C11.0807 27.3481 12.0734 28.2031 13.2766 28.2031C13.3969 28.2031 13.5473 28.2031 13.6676 28.1772C13.8481 28.9285 14.4196 29.5244 15.322 29.8094C15.5927 29.8872 15.8334 29.939 16.1041 29.939C16.2846 29.939 16.435 29.9131 16.6155 29.8872C16.7659 30.2499 17.1569 30.6904 17.9691 30.9754C18.2699 31.079 18.5406 31.1308 18.8414 31.1308C19.0821 31.1308 19.2926 31.1049 19.5032 31.0272C19.8942 31.8563 20.8267 32.4004 21.8795 32.4004C22.5714 32.4004 23.2331 32.1672 23.7144 31.7267C24.1355 31.934 25.0079 32.2968 25.8802 32.2968C26.0005 32.2968 26.0907 32.2968 26.2111 32.2708C27.0834 32.1672 27.5045 31.8822 27.685 31.649C27.7151 31.5972 27.7452 31.5713 27.7752 31.5195C27.9858 31.5713 28.1964 31.6231 28.4671 31.6231C28.9484 31.6231 29.3996 31.4936 29.8809 31.1826C30.3321 30.8976 30.6629 30.4831 30.7231 30.1463V30.1204C30.8735 30.1463 31.0239 30.1722 31.2044 30.1722C31.7157 30.1722 32.197 30.0426 32.6482 29.7835C33.5506 29.2654 33.701 28.6176 33.701 28.1772C33.8514 28.2031 34.0319 28.229 34.1823 28.229C34.6335 28.229 35.1148 28.0994 35.5359 27.8662C36.1075 27.5553 36.4383 27.089 36.4684 26.5449C36.4985 26.1821 36.4083 25.7935 36.1676 25.4826C37.6716 24.9126 41.1008 23.8503 45.1616 23.0471C45.1315 22.788 45.1014 22.503 45.0413 22.2439C40.1081 23.2025 36.4383 24.5498 35.5359 24.9126Z" fill="#28316B"/>
</svg>
