<?xml version="1.0" standalone="no"?>
<!DOCTYPE svg PUBLIC "-//W3C//DTD SVG 20010904//EN"
 "http://www.w3.org/TR/2001/REC-SVG-20010904/DTD/svg10.dtd">
<svg version="1.0" xmlns="http://www.w3.org/2000/svg"
 width="450pt" height="450pt" viewBox="0 0 450 450"
 preserveAspectRatio="xMidYMid meet">

<g transform="translate(0,450) scale(0.1,-0.1)"
fill="#002884" stroke="none">
<path d="M2000 4484 c-1310 -157 -2208 -1381 -1954 -2664 85 -431 281 -808
583 -1122 488 -509 1176 -761 1861 -682 536 62 1004 291 1376 675 331 342 535
756 611 1239 25 159 25 481 0 640 -104 658 -460 1210 -1018 1573 -415 270
-968 400 -1459 341z m550 -170 c689 -100 1285 -539 1586 -1169 237 -495 266
-1059 80 -1591 -240 -687 -834 -1205 -1546 -1348 -278 -56 -563 -57 -835 -1
-783 159 -1415 762 -1610 1534 -82 325 -80 697 5 1027 268 1037 1265 1702
2320 1548z"/>
<path d="M2090 3845 c-219 -24 -361 -65 -555 -161 -164 -81 -292 -172 -419
-300 -220 -219 -371 -498 -437 -802 -30 -140 -37 -400 -15 -550 73 -493 300
-857 698 -1116 101 -66 311 -169 380 -188 43 -11 50 -10 75 8 15 11 31 33 36
48 15 46 -15 74 -129 121 -203 84 -347 178 -494 325 -165 165 -278 348 -349
566 -52 159 -73 287 -73 454 0 167 21 297 72 451 147 444 477 774 920 919 428
141 921 69 1275 -185 196 -141 360 -325 450 -505 15 -30 36 -65 48 -77 38 -43
117 -23 131 33 18 69 -145 316 -328 500 -278 278 -582 418 -1008 464 -114 12
-128 12 -278 -5z"/>
<path d="M1100 3793 c-49 -25 -326 -302 -401 -403 -253 -336 -370 -682 -371
-1095 -3 -573 196 -1058 588 -1435 287 -277 615 -441 1034 -517 133 -24 457
-24 590 0 390 71 715 227 1018 489 295 255 500 626 577 1044 30 162 47 367 34
403 -21 54 -83 68 -123 28 -25 -25 -29 -46 -42 -227 -23 -325 -167 -680 -384
-945 -83 -101 -242 -250 -350 -328 -113 -80 -337 -193 -470 -236 -438 -142
-915 -109 -1314 90 -576 288 -909 754 -986 1381 -18 146 -8 456 20 583 80 373
277 696 590 970 98 87 110 100 110 130 0 66 -58 98 -120 68z"/>
<path d="M1770 2175 l0 -725 95 0 95 0 0 325 0 325 365 0 365 0 0 -325 0 -325
95 0 95 0 0 725 0 725 -95 0 -95 0 0 -325 0 -325 -365 0 -365 0 0 325 0 325
-95 0 -95 0 0 -725z"/>
</g>
</svg>
