<svg width="199" height="36" fill="none" xmlns="http://www.w3.org/2000/svg"><rect width="198.026" height="36" rx="6" fill="url(#a)"/><path d="M24.667 11.333V14m-5.334-2.667V14M16 16.667h12m-8 4L21.333 22 24 19.333m-6.667-6.666h9.334c.736 0 1.333.597 1.333 1.333v9.333c0 .737-.597 1.334-1.333 1.334h-9.334A1.333 1.333 0 0 1 16 23.333V14c0-.736.597-1.333 1.333-1.333Z" stroke="#fff" stroke-width="1.25" stroke-linecap="round" stroke-linejoin="round"/><path d="M40 23.203V13.02h3.729c.722 0 1.32.12 1.794.358.474.235.829.555 1.064.96.236.4.353.853.353 1.357 0 .424-.078.782-.233 1.074-.156.288-.365.52-.627.695a2.76 2.76 0 0 1-.855.378v.1c.338.016.668.126.99.328.324.199.593.482.805.85.212.368.318.815.318 1.342a2.7 2.7 0 0 1-.368 1.402c-.242.411-.616.738-1.123.98-.508.238-1.156.358-1.944.358H40Zm1.536-1.318h2.218c.735 0 1.262-.142 1.58-.427.319-.285.478-.642.478-1.07 0-.32-.081-.616-.244-.884a1.74 1.74 0 0 0-.696-.642c-.298-.159-.653-.238-1.064-.238h-2.272v3.261Zm0-4.46h2.058c.345 0 .655-.066.93-.198.279-.133.499-.318.661-.557.166-.242.249-.527.249-.855 0-.421-.148-.774-.442-1.059-.295-.285-.748-.428-1.358-.428h-2.098v3.098ZM52.258 23.357c-.717 0-1.341-.164-1.875-.492a3.318 3.318 0 0 1-1.243-1.377c-.295-.59-.442-1.28-.442-2.069 0-.792.147-1.485.442-2.078a3.312 3.312 0 0 1 1.243-1.382c.534-.328 1.158-.492 1.874-.492.716 0 1.341.164 1.875.492a3.31 3.31 0 0 1 1.243 1.382c.295.593.442 1.286.442 2.078 0 .79-.147 1.479-.442 2.069a3.317 3.317 0 0 1-1.243 1.377c-.534.328-1.159.492-1.874.492Zm.004-1.248c.464 0 .849-.123 1.154-.368.305-.245.53-.572.676-.98.15-.407.224-.856.224-1.347 0-.487-.075-.934-.224-1.342a2.187 2.187 0 0 0-.676-.99c-.305-.248-.69-.372-1.154-.372-.467 0-.855.124-1.163.373a2.221 2.221 0 0 0-.681.989 3.958 3.958 0 0 0-.219 1.342c0 .49.073.94.219 1.348.15.407.376.734.681.98.308.244.696.367 1.163.367ZM60.693 23.357c-.716 0-1.34-.164-1.874-.492a3.319 3.319 0 0 1-1.243-1.377c-.295-.59-.443-1.28-.443-2.069 0-.792.148-1.485.443-2.078a3.312 3.312 0 0 1 1.243-1.382c.533-.328 1.158-.492 1.874-.492.716 0 1.34.164 1.874.492.534.328.948.789 1.243 1.382.295.593.443 1.286.443 2.078 0 .79-.148 1.479-.443 2.069a3.319 3.319 0 0 1-1.243 1.377c-.533.328-1.158.492-1.874.492Zm.005-1.248c.464 0 .849-.123 1.153-.368.305-.245.53-.572.677-.98.149-.407.223-.856.223-1.347a3.88 3.88 0 0 0-.223-1.342 2.187 2.187 0 0 0-.677-.99c-.304-.248-.689-.372-1.153-.372-.467 0-.855.124-1.163.373a2.222 2.222 0 0 0-.681.989 3.96 3.96 0 0 0-.22 1.342c0 .49.074.94.22 1.348.149.407.376.734.68.98.309.244.697.367 1.164.367ZM67.28 20.613l-.01-1.815h.258l3.042-3.232h1.78l-3.47 3.68h-.234l-1.367 1.367Zm-1.368 2.59V13.02h1.486v10.182h-1.486Zm4.822 0L68 19.573l1.024-1.039 3.535 4.669h-1.825ZM82.247 20.036v-4.47h1.492v7.637h-1.462V21.88h-.08a2.383 2.383 0 0 1-.844 1.02c-.385.268-.864.402-1.437.402-.49 0-.925-.108-1.303-.323a2.27 2.27 0 0 1-.885-.97c-.212-.427-.318-.956-.318-1.585v-4.858h1.487v4.679c0 .52.144.934.432 1.242.288.309.663.463 1.124.463.278 0 .555-.07.83-.209.278-.14.509-.35.69-.631.186-.282.278-.64.274-1.074ZM91.459 17.43l-1.348.24a1.599 1.599 0 0 0-.268-.493 1.33 1.33 0 0 0-.487-.383c-.206-.1-.463-.149-.771-.149-.421 0-.772.095-1.054.284-.282.185-.423.426-.423.72 0 .256.095.461.284.617.189.156.493.283.915.383l1.212.278c.703.163 1.227.413 1.572.75.344.339.517.778.517 1.318 0 .458-.133.865-.398 1.223-.262.355-.628.633-1.099.836-.467.202-1.01.303-1.626.303-.855 0-1.552-.183-2.093-.547-.54-.368-.871-.89-.994-1.566l1.437-.219c.09.375.273.658.552.85.278.19.641.284 1.088.284.488 0 .877-.101 1.169-.304.291-.205.437-.455.437-.75a.78.78 0 0 0-.268-.602c-.176-.162-.446-.285-.81-.368l-1.293-.283c-.713-.163-1.24-.421-1.581-.776-.338-.354-.507-.803-.507-1.347 0-.45.126-.845.378-1.183.251-.338.6-.602 1.044-.79.444-.193.953-.29 1.526-.29.825 0 1.475.18 1.949.538.474.354.787.83.94 1.427ZM98.603 23.203l-2.247-7.637h1.536l1.496 5.608h.075l1.501-5.608h1.536l1.492 5.583h.074l1.487-5.583h1.536l-2.242 7.637h-1.516l-1.552-5.514h-.114l-1.551 5.514h-1.511ZM108.5 23.203v-7.637h1.486v7.637H108.5Zm.751-8.815a.947.947 0 0 1-.667-.258.841.841 0 0 1-.273-.627c0-.245.091-.454.273-.626a.937.937 0 0 1 .667-.264.92.92 0 0 1 .661.264.825.825 0 0 1 .278.626c0 .242-.093.45-.278.627a.93.93 0 0 1-.661.258ZM115.551 15.566v1.193h-4.171v-1.193h4.171Zm-3.053-1.83h1.487v7.224c0 .289.043.506.129.652.086.142.197.24.333.293.139.05.29.075.453.075.119 0 .223-.009.313-.025l.209-.04.268 1.228a2.512 2.512 0 0 1-.368.1 2.913 2.913 0 0 1-.596.06 2.613 2.613 0 0 1-1.094-.21 1.88 1.88 0 0 1-.821-.676c-.208-.305-.313-.688-.313-1.148v-7.532ZM118.846 18.669v4.534h-1.487V13.02h1.467v3.788h.094c.179-.41.453-.737.821-.98.367-.241.848-.362 1.441-.362.524 0 .981.108 1.373.323.394.216.699.537.914.965.219.424.328.954.328 1.59v4.858h-1.486v-4.679c0-.56-.144-.994-.433-1.302-.288-.312-.689-.467-1.203-.467-.351 0-.666.074-.944.223-.275.15-.493.368-.652.656-.155.286-.233.63-.233 1.035ZM135.09 23.387c-3.016 0-5.293-2.35-5.293-5.25 0-2.914 2.161-5.277 5.293-5.277 1.653 0 2.798.507 3.712 1.595l-1.436 1.247c-.609-.638-1.363-.957-2.276-.957-1.958 0-3.19 1.537-3.19 3.393 0 1.856 1.232 3.364 3.233 3.364.986 0 1.726-.334 2.32-.986l1.479 1.261c-.768.928-2.073 1.61-3.842 1.61Z" fill="#fff"/><path d="M142.627 23.387c-2.073 0-3.726-1.755-3.726-3.93 0-2.175 1.653-3.958 3.726-3.958 1.305 0 1.987.536 2.393 1.348v-1.189h1.943v7.54h-1.9v-1.232c-.406.855-1.087 1.42-2.436 1.42Zm-1.769-3.944c0 1.145.841 2.175 2.088 2.175 1.291 0 2.117-.986 2.117-2.16 0-1.175-.826-2.19-2.117-2.19-1.247 0-2.088 1-2.088 2.175ZM148.126 23.198V12.613h1.957v10.585h-1.957ZM152.285 23.387c-.754 0-1.305-.58-1.305-1.276 0-.682.551-1.262 1.305-1.262.754 0 1.29.58 1.29 1.262 0 .696-.536 1.276-1.29 1.276ZM157.782 23.387c-2.16 0-3.886-1.77-3.886-3.959 0-2.19 1.682-3.944 3.988-3.958 1.377-.015 2.494.522 3.132 1.406l-1.508 1.233a1.902 1.902 0 0 0-1.595-.856c-1.247 0-2.059 1-2.059 2.175 0 1.175.855 2.175 2.102 2.175.754 0 1.247-.377 1.639-.899l1.421 1.233c-.711.913-1.755 1.45-3.234 1.45ZM165.035 23.387c-2.334 0-4.016-1.77-4.016-3.944 0-2.175 1.682-3.959 4.016-3.959 2.335 0 4.017 1.784 4.017 3.959s-1.682 3.944-4.017 3.944Zm-2.059-3.944c0 1.174.812 2.16 2.059 2.16s2.059-.986 2.059-2.16c0-1.175-.812-2.175-2.059-2.175s-2.059 1-2.059 2.175ZM169.918 23.198v-7.54h1.929v1.102c.391-.84 1.145-1.276 2.305-1.276 1.059 0 1.958.508 2.451 1.421.507-.913 1.232-1.42 2.552-1.42 1.624 0 2.871 1.203 2.871 3.102v4.611h-1.958v-4.132c0-1.305-.623-1.87-1.508-1.87-.913 0-1.537.42-1.537 1.87v4.132h-1.957v-4.132c0-1.305-.653-1.87-1.624-1.87-.827 0-1.566.565-1.566 1.87v4.132h-1.958Z" fill="#fff"/><defs><radialGradient id="a" cx="0" cy="0" r="1" gradientUnits="userSpaceOnUse" gradientTransform="rotate(167.735 98.696 10.604) scale(373.527 295.232)"><stop stop-color="#282E39"/><stop offset="1" stop-color="#D4D4D5"/></radialGradient></defs></svg>