<svg width="127" height="113" xmlns="http://www.w3.org/2000/svg" viewBox="17 34 127 113">
	<defs>
		<linearGradient id="gradient" x1="28.286" y1="53.757" x2="70.714" y2="127.243" gradientUnits="userSpaceOnUse">
			<stop offset="0" stop-color="#1784d9"/>
			<stop offset="0.5" stop-color="#107ad5"/>
			<stop offset="1" stop-color="#0a63c9"/>
		</linearGradient>
	</defs>
	<path d="M143.984,93.02a1.813,1.813,0,0,1-.07.52,1.055,1.055,0,0,1-.06.24c.01.01,0,.02-.01.03a.9.9,0,0,1-.079.21,2.1,2.1,0,0,1-.15.3,2.5,2.5,0,0,1-1.059,1.05l-4.636,2.62-.4.23L132.584,101l-1.139.64-21.5,12.16-.419.24-8.193,4.63-1.019.57-1.009.57-.51.29c-.17.09-.349.19-.529.29-.02.01-.03.02-.05.03a4.689,4.689,0,0,1-1.169.43h-.01a5.834,5.834,0,0,1-1.509.19,5.973,5.973,0,0,1-2.7-.62c-.14-.08-.28-.16-.42-.23-.05-.03-.1-.06-.16-.09l-6.414-3.63-.869-.49-.62-.35-.13-.07-.469-.27-.07-.04-.21-.12-.15-.09-.16-.09-.2-.11-.239-.13-.12-.07-.03-.02-.32-.18-.28-.16-.08-.04-.359-.2L63.416,103.8,59.6,101.64,58.46,101l-4.936-2.78L53,97.92l-4.506-2.55a2.546,2.546,0,0,1-1.059-1.05,2.233,2.233,0,0,1-.15-.31l-.21-.99a2.645,2.645,0,0,1,1.329-2.3l.03-.03c.02,0,.04-.02.06-.02L53,88.13l.529-.3L74.845,75.78,76.224,75l5.306-2.99.359-.21.08-.04.28-.16.32-.18.03-.02.12-.07.239-.13.2-.11.16-.09.15-.08.21-.12.07-.04.469-.27.13-.07.62-.35.869-.5,6.414-3.62c.2-.11.39-.22.58-.32a6.069,6.069,0,0,1,5.385,0c.2.1.389.21.579.32l10.731,6.06,6.674,3.77L137.52,87.83l.4.23,4.636,2.61c.03,0,.05.02.07.02l.02.03A2.633,2.633,0,0,1,143.984,93.02Z" fill="#123b6d"/>
	<polygon points="110 49 82 49 82 75 110 101 138 101 138 75 110 49" fill="#28a8ea"/>
	<path d="M110,101v26H82l-.5-.42-.07-.06v-.01l-.09-.08-.18-.15-.34-.29-.03-.02-.44-.38-.01-.01-.11-.09-.05-.04-.05-.05-.59-.5h-.01l-.12-.11-.08-.07-.05-.04-.12-.1-.3-.25-.6-.49L54,103.99l-1-.82V75H82l.6.56.15.14.44.41.31.28.28.26.47.44.13.12.62.58Z" fill="#0364b8"/>
	<rect x="54" y="101" width="28" height="26" fill="#14447d"/>
	<rect x="110" y="101" width="28" height="26" fill="#0078d4"/>
	<rect x="110" y="49" width="28" height="26" fill="#50d9ff"/>
	<rect x="53" y="49" width="29" height="26" fill="#0078d4"/>
	<rect x="82" y="75" width="28" height="26" fill="#0078d4"/>
	<path d="M58.38,34h74.24A5.38,5.38,0,0,1,138,39.38V49a0,0,0,0,1,0,0H53a0,0,0,0,1,0,0V39.38A5.38,5.38,0,0,1,58.38,34Z" fill="#0358a7"/>
	<path d="M138,93.829,96.942,116.108l-.192.111a1.94,1.94,0,0,1-.2.107c-.074.035-.151.066-.227.093l-1.34-.751-.167-.089c-.08-.04-.161-.082-.237-.13l-.1-.062-8.132-4.52-.664-.375-.545-.3-1.2-.675L53,92.318v32.259h85Z" fill="#0a2767" opacity="0.1"/>
	<path d="M138,94.829,96.942,117.108l-.192.111a1.94,1.94,0,0,1-.2.107c-.074.035-.151.066-.227.093l-1.34-.751-.167-.089c-.08-.04-.161-.082-.237-.13l-.1-.062-8.132-4.52-.664-.375-.545-.3-1.2-.675L53,93.318v32.259h85Z" fill="#0a2767" opacity="0.1"/>
	<path d="M138,95.829,96.942,118.108l-.192.111a1.94,1.94,0,0,1-.2.107c-.074.035-.151.066-.227.093l-1.34-.751-.167-.089c-.08-.04-.161-.082-.237-.13l-.1-.062-8.132-4.52-.664-.375-.545-.3-1.2-.675L53,94.318v32.259h85Z" fill="#0a2767" opacity="0.1"/>
	<path d="M138,96.829,96.942,119.108l-.192.111a1.94,1.94,0,0,1-.2.107c-.074.035-.151.066-.227.093l-1.34-.751-.167-.089c-.08-.04-.161-.082-.237-.13l-.1-.062-8.132-4.52-.664-.375-.545-.3-1.2-.675L53,95.318v32.259h85Z" fill="#0a2767" opacity="0.1"/>
	<path d="M142.641,95.242v0l-.054.029-.013.008-43.8,23.765a6.019,6.019,0,0,1-.587.319h0a6.331,6.331,0,0,1-5.389,0h0a6.138,6.138,0,0,1-.587-.319l2.061,14.818,43.658,13.047a6.235,6.235,0,0,0,3.564-1.1,5.686,5.686,0,0,0,2.5-4.671V93.022A2.542,2.542,0,0,1,142.641,95.242Z" fill="#1490df"/>
	<path d="M100.479,118.163l-1.629.883a6.261,6.261,0,0,1-.587.319h0a6.329,6.329,0,0,1-5.388,0h0a6.261,6.261,0,0,1-.587-.319l2.061,14.818,43.658,13.047a6.241,6.241,0,0,0,3.565-1.1,5.773,5.773,0,0,0,2.339-3.356Z" opacity="0.05"/>
	<path d="M143.578,143.412,99.439,118.727l-.589.319a6.261,6.261,0,0,1-.587.319h0a6.329,6.329,0,0,1-5.388,0h0a6.261,6.261,0,0,1-.587-.319l2.061,14.818,43.658,13.047a6.241,6.241,0,0,0,3.565-1.1A5.851,5.851,0,0,0,143.578,143.412Z" opacity="0.05"/>
	<path d="M143.088,144.284,98.406,119.3l-.143.07h0a6.329,6.329,0,0,1-5.388,0h0a6.261,6.261,0,0,1-.587-.319l2.061,14.818,43.658,13.047a6.241,6.241,0,0,0,3.565-1.1A5.943,5.943,0,0,0,143.088,144.284Z" opacity="0.05"/>
	<path d="M142.444,145.069,97.578,119.977l-.223-.119-.176-.1a6.334,6.334,0,0,1-4.305-.394h0a6.261,6.261,0,0,1-.587-.319l2.061,14.818,43.658,13.047a6.241,6.241,0,0,0,3.565-1.1A6.015,6.015,0,0,0,142.444,145.069Z" opacity="0.05"/>
	<path d="M141.63,145.76c-.13.09-.26.18-.39.26s-.27.15-.41.22c-.16.08-.32.15-.48.22-.01,0-.02.01-.03.01q-.27.1-.54.18a3.3,3.3,0,0,1-.62.15.7.7,0,0,1-.14.03c-.11.02-.22.03-.34.04a4.632,4.632,0,0,1-.65.04H53.15a6.01,6.01,0,0,1-6.08-5.94V93.02l1.38.77.02.01c.01.01.01.01.02.01L53,96.32,61.42,101,82,112.44l.6.34.15.08.44.25.31.17.28.15.47.27.13.07.62.34,7.44,4.14c.19.12.39.23.59.33l2.48,1.39,1.57.88h.01l6.67,3.73,1.79,1,1.79,1,.75.42,1.04.58Z" fill="#28a8ea"/>
	<path d="M85,63v59.62a5.337,5.337,0,0,1-.37,1.96,5.272,5.272,0,0,1-.52,1,4.839,4.839,0,0,1-.86,1,5.173,5.173,0,0,1-.51.42,5.462,5.462,0,0,1-1.03.58,5.378,5.378,0,0,1-2.09.42H47v-4h.07V93.02a2.644,2.644,0,0,1,1.33-2.3l.03-.03c.02,0,.04-.02.06-.02L53,88.13V57H79.62a4.547,4.547,0,0,1,2.38.69A6.374,6.374,0,0,1,85,63Z" opacity="0.05"/>
	<path d="M84.25,63.1v58.52a5.432,5.432,0,0,1-.86,2.96,4.746,4.746,0,0,1-.84,1,3.379,3.379,0,0,1-.55.45,3.747,3.747,0,0,1-.66.4c-.1.06-.2.1-.3.15a5.292,5.292,0,0,1-2.08.42H47v-3h.07V93.02a2.644,2.644,0,0,1,1.33-2.3l.03-.03c.02,0,.04-.02.06-.02L53,88.13V57.25H78.87A4.942,4.942,0,0,1,82,58.42,6.149,6.149,0,0,1,84.25,63.1Z" opacity="0.075"/>
	<path d="M83.5,63.19v57.43a5.45,5.45,0,0,1-1.5,3.82,1.92,1.92,0,0,1-.15.14,4.911,4.911,0,0,1-1.47,1c-.01,0-.02.01-.03.01a5.268,5.268,0,0,1-2.04.41H47v-2h.07V93.02a2.644,2.644,0,0,1,1.33-2.3l.03-.03c.02,0,.04-.02.06-.02L53,88.13V57.5H78.12A5.21,5.21,0,0,1,82,59.32,5.846,5.846,0,0,1,83.5,63.19Z" opacity="0.1"/>
	<path d="M82.75,63.28v56.34a5.735,5.735,0,0,1-.75,2.87,4.989,4.989,0,0,1-2.29,2.09c-.12.05-.25.1-.38.14a5.088,5.088,0,0,1-1.67.28H47v-1h.07V93.02a2.644,2.644,0,0,1,1.33-2.3l.03-.03c.02,0,.04-.02.06-.02L53,88.13V57.75H77.37A5.373,5.373,0,0,1,82,60.51,5.5,5.5,0,0,1,82.75,63.28Z" opacity="0.125"/>
	<path d="M82,63.38v55.24a5.158,5.158,0,0,1-3.74,5.22A4.731,4.731,0,0,1,77,124H47.07V93.02a2.644,2.644,0,0,1,1.33-2.3l.03-.03c.02,0,.04-.02.06-.02L53,88.13V58H76.62A5.382,5.382,0,0,1,82,63.38Z" opacity="0.2"/>
	<rect x="17" y="58" width="65" height="65" rx="5.38" fill="url(#gradient)"/>
	<path d="M35.041,81.643A14.637,14.637,0,0,1,40.785,75.3a17.366,17.366,0,0,1,9.128-2.287,16.154,16.154,0,0,1,8.444,2.169,14.489,14.489,0,0,1,5.59,6.062,19.581,19.581,0,0,1,1.958,8.916,20.653,20.653,0,0,1-2.017,9.329,14.837,14.837,0,0,1-5.755,6.274,16.788,16.788,0,0,1-8.763,2.228,16.542,16.542,0,0,1-8.632-2.193,14.705,14.705,0,0,1-5.661-6.074A19.091,19.091,0,0,1,33.1,90.913,21.187,21.187,0,0,1,35.041,81.643Zm6.121,14.895a9.5,9.5,0,0,0,3.231,4.175,8.44,8.44,0,0,0,5.048,1.521,8.862,8.862,0,0,0,5.39-1.568,9.107,9.107,0,0,0,3.137-4.187,16.181,16.181,0,0,0,1-5.826,17.723,17.723,0,0,0-.943-5.9A9.345,9.345,0,0,0,55,80.417a8.35,8.35,0,0,0-5.343-1.651A8.718,8.718,0,0,0,44.488,80.3a9.576,9.576,0,0,0-3.3,4.21,16.71,16.71,0,0,0-.024,12.029Z" fill="#fff"/>
	<rect width="180" height="180" fill="none"/>
</svg>