<svg width="40" height="21" viewBox="0 0 40 21" fill="none" xmlns="http://www.w3.org/2000/svg">
<path d="M10.0582 20.817C4.32115 20.817 0 16.2763 0 10.6704C0 5.04589 4.1005 0.467773 10.0582 0.467773C13.2209 0.467773 15.409 1.43945 17.1191 3.66311L14.3609 5.96151C13.2025 4.72822 11.805 4.11158 10.0582 4.11158C6.17833 4.11158 4.04533 7.08268 4.04533 10.6704C4.04533 14.2582 6.38059 17.1732 10.0582 17.1732C11.7866 17.1732 13.2577 16.5566 14.4161 15.3233L17.1375 17.7151C15.501 19.8453 13.2577 20.817 10.0582 20.817Z" fill="#292929"/>
<path d="M29.0161 5.88601H32.7304V20.4612H29.0161V18.331C28.2438 19.8446 26.9566 20.8536 24.4927 20.8536C20.5577 20.8536 17.4133 17.4341 17.4133 13.2297C17.4133 9.02528 20.5577 5.60571 24.4927 5.60571C26.9383 5.60571 28.2438 6.61477 29.0161 8.12835V5.88601ZM29.1264 13.2297C29.1264 10.95 27.5634 9.06266 25.0995 9.06266C22.7274 9.06266 21.1828 10.9686 21.1828 13.2297C21.1828 15.4346 22.7274 17.3967 25.0995 17.3967C27.5451 17.3967 29.1264 15.4907 29.1264 13.2297Z" fill="#292929"/>
<path d="M35.3599 0H39.0742V20.4427H35.3599V0Z" fill="#292929"/>
</svg>
