<svg width="523" height="523" viewBox="0 0 523 523" fill="none" xmlns="http://www.w3.org/2000/svg">
<rect width="523" height="523" rx="45" fill="url(#paint0_linear_1409_14)"/>
<mask id="path-2-outside-1_1409_14" maskUnits="userSpaceOnUse" x="11" y="54" width="500" height="469" fill="black">
<rect fill="white" x="11" y="54" width="500" height="469"/>
<path d="M258.576 451.309C258.756 463.899 258.935 473.072 259.115 477.568C259.294 478.108 259.294 478.827 259.115 479.367C259.115 480.086 259.115 480.626 259.115 480.626C259.115 483.144 259.474 485.662 260.192 488C260.91 485.662 261.269 483.144 261.269 480.626C261.269 479.726 261.628 466.597 262.167 445.553C261.987 445.733 261.808 445.913 261.808 446.093C260.551 447.712 259.474 449.51 258.576 451.309ZM221.233 188.716C224.105 185.658 226.798 182.061 228.773 178.284C227.337 181.521 221.771 193.752 227.157 194.831C233.082 195.91 239.725 194.111 251.754 178.824C251.395 159.219 251.036 142.132 250.856 129.183H244.393C244.034 129.183 243.854 129.183 243.495 129.183C239.905 129.183 233.98 128.823 230.03 122.888C225.721 116.413 225.542 109.758 225.362 104.902C225.183 97.8873 223.387 85.1174 214.59 77.923C208.486 73.0669 191.968 69.2898 176.708 75.405C171.681 77.3835 161.627 82.5994 151.753 87.4555C142.776 91.952 131.286 97.5276 127.695 97.5276C133.62 94.8297 141.519 90.8728 150.137 86.0167C160.011 80.6209 170.424 74.8654 175.631 72.7071C186.044 68.5704 205.972 67.3114 216.206 75.5849C225.901 83.4987 227.876 97.1679 228.055 104.542C228.235 109.398 228.414 115.334 232.184 121.269C235.596 126.305 240.982 126.305 244.213 126.305H244.932H250.677C250.677 124.686 250.677 123.247 250.677 121.629C244.932 121.988 236.673 122.348 233.082 114.614C228.773 105.262 233.441 81.3404 219.078 71.2683C204.716 61.1962 181.735 63.7142 161.268 75.5849C140.981 87.2757 114.05 102.564 80.836 115.873C47.6219 129.183 26.9753 134.578 23.0255 135.118C19.2552 135.837 26.0776 138.355 40.261 138.715C54.4443 139.075 66.2937 137.996 66.2937 137.996L170.424 90.5131C170.424 90.5131 80.6565 135.298 73.116 140.154C65.5755 145.01 59.4713 146.629 60.0099 151.125C60.5485 155.622 66.2937 155.082 82.0928 154.723C97.8919 154.363 101.303 152.924 106.689 151.305C112.075 149.687 170.424 122.708 170.424 122.708C170.424 122.708 107.946 153.823 98.9692 161.018C89.9924 168.212 99.6871 170.55 105.791 170.73C112.075 170.91 128.772 170.011 138.108 165.334C147.444 160.658 176.529 141.953 176.529 141.953C176.529 141.953 147.803 162.636 142.237 167.313C137.749 171.09 135.415 174.327 136.492 178.284C138.108 183.32 146.726 182.78 158.216 178.644C158.216 178.644 170.065 174.507 174.554 170.55C179.042 166.413 191.61 155.262 191.61 155.262C191.61 155.262 176.708 170.73 172.938 177.385C169.347 184.039 168.629 185.658 170.424 189.435C172.938 194.831 191.968 189.255 197.355 183.5C201.304 179.003 205.075 174.327 208.486 169.291C208.486 169.291 202.741 178.644 201.484 184.039C200.227 189.435 198.791 193.752 203.997 194.291C209.743 195.191 215.129 195.371 221.233 188.716ZM256.781 311.199C257.319 310.84 257.858 310.48 258.397 310.12C259.474 309.401 260.372 308.861 261.09 308.142C262.526 307.242 263.962 306.163 265.399 305.264C265.578 295.012 265.937 284.58 266.117 274.328C263.244 273.069 260.192 271.81 256.96 270.551C256.781 270.551 256.601 270.371 256.422 270.371C256.063 270.192 255.883 270.192 255.524 270.012C253.37 269.292 251.395 268.393 249.061 267.674C246.368 266.594 243.675 265.695 240.982 264.616C223.028 274.148 219.437 278.645 219.437 287.458C219.437 299.868 230.03 305.444 248.343 317.135C251.215 314.976 254.088 312.998 256.781 311.199ZM234.698 289.077C234.698 289.077 233.441 281.163 253.729 271.99C254.267 271.81 254.806 271.451 255.345 271.271C255.524 283.681 255.704 296.091 256.063 308.501C246.009 301.667 234.698 295.192 234.698 289.077ZM265.399 441.776C264.501 442.856 263.603 443.935 262.706 444.834C267.912 451.848 267.553 458.683 264.68 467.496C267.373 464.439 272.76 456.705 268.271 446.633C267.373 445.014 266.476 443.395 265.399 441.776ZM257.14 368.034C259.115 370.013 261.449 372.351 263.783 374.689C265.219 376.128 266.655 377.567 268.271 379.186C268.451 379.366 268.81 379.545 269.169 379.905C281.377 369.294 292.508 359.221 292.508 346.631C292.508 336.739 282.993 327.746 273.478 320.552C272.58 321.091 271.682 321.631 270.785 322.35C268.63 323.789 266.655 325.048 264.86 326.307C264.86 326.307 264.68 326.307 264.68 326.487C264.321 326.847 263.783 327.027 263.424 327.387C260.91 329.185 258.576 330.804 256.422 332.423C256.781 344.473 256.96 356.524 257.14 368.034ZM264.86 328.286C276.709 336.919 281.377 342.495 281.377 348.61C281.377 354.905 274.734 362.279 263.962 373.071C264.142 358.682 264.501 343.754 264.86 328.286ZM330.391 155.442C330.391 155.442 342.958 166.593 347.446 170.73C351.935 174.867 363.784 178.824 363.784 178.824C375.274 182.96 383.892 183.5 385.508 178.464C386.765 174.507 384.251 171.09 379.763 167.492C374.197 162.816 345.471 142.132 345.471 142.132C345.471 142.132 374.556 160.838 383.892 165.514C393.228 170.19 409.925 171.09 416.209 170.91C422.492 170.73 432.008 168.392 423.031 161.197C414.054 154.003 351.576 122.888 351.576 122.888C351.576 122.888 409.745 150.046 415.311 151.485C420.697 153.104 424.108 154.363 439.907 154.902C455.706 155.262 461.272 155.802 461.99 151.305C462.708 146.989 456.425 145.37 448.884 140.334C441.344 135.478 351.576 90.693 351.576 90.693L455.706 138.176C455.706 138.176 467.556 139.255 481.739 138.895C495.922 138.535 502.745 136.017 498.975 135.298C495.204 134.578 474.378 129.363 441.164 116.053C407.95 102.743 381.02 87.6354 360.732 75.7647C340.445 64.074 317.284 61.3761 302.922 71.4481C288.559 81.5202 293.227 105.262 288.918 114.794C285.327 122.528 277.068 122.168 271.323 121.808C271.323 123.247 271.323 124.866 271.144 126.485H277.068H277.787C281.018 126.485 286.404 126.485 289.815 121.449C293.586 115.693 293.765 109.578 293.945 104.722C294.124 97.3477 296.099 83.6785 305.794 75.7647C316.028 67.4913 335.956 68.7503 346.369 72.887C351.576 74.8655 361.989 80.6209 371.863 86.1965C380.481 91.0527 388.381 95.0096 394.305 97.7075C390.535 97.7075 379.224 92.1319 370.247 87.6354C360.553 82.5994 350.499 77.5633 345.292 75.5849C330.031 69.4697 313.514 73.2467 307.41 78.1029C298.433 85.2972 296.817 98.0672 296.638 105.082C296.458 109.938 296.279 116.772 291.97 123.067C288.2 129.003 282.275 129.363 278.505 129.363C278.146 129.363 277.966 129.363 277.607 129.363H271.144C270.785 142.312 270.426 159.219 270.066 178.464C282.275 194.112 289.277 196.09 295.022 194.831C300.408 193.752 295.022 181.521 293.406 178.284C295.561 182.061 298.074 185.478 300.947 188.716C306.871 195.371 312.437 195.191 317.823 194.471C323.209 193.752 321.593 189.615 320.336 184.219C319.08 178.824 313.335 169.471 313.335 169.471C316.746 174.327 320.516 179.183 324.466 183.68C329.852 189.435 348.883 195.191 351.396 189.615C353.012 186.018 352.473 184.219 348.883 177.565C345.472 170.91 330.391 155.442 330.391 155.442ZM261.269 100.405C264.142 100.405 267.014 99.506 269.348 97.8873C271.682 96.2686 273.657 93.9304 274.734 91.4124C275.812 88.7145 276.171 85.8368 275.632 82.9591C275.094 80.0813 273.657 77.5633 271.682 75.405C269.707 73.4266 267.014 71.9877 264.142 71.4481C261.269 70.9086 258.397 71.0884 255.704 72.3474C253.011 73.4266 250.677 75.405 249.24 77.7432C247.625 80.0813 246.727 82.9591 246.727 85.8368C246.727 87.8153 247.086 89.6138 247.804 91.4124C248.522 93.211 249.599 94.8297 251.036 96.0887C252.472 97.5276 253.908 98.6068 255.704 99.3262C257.319 100.046 259.294 100.405 261.269 100.405ZM309.026 209.759C309.026 209.759 308.667 199.687 292.329 198.608C275.632 197.529 274.914 204.723 275.273 207.421C276.53 207.421 277.607 207.781 277.607 208.14C277.607 208.5 276.709 208.86 275.632 208.86C276.53 211.558 279.043 214.795 286.225 218.392C292.149 221.27 295.022 221.09 298.433 220.551C298.433 220.551 302.383 222.889 302.383 226.666C302.383 230.263 296.099 237.277 266.655 252.026C268.451 172.529 270.066 102.743 270.066 102.743H271.862C272.58 102.743 273.298 102.384 273.837 101.844C274.375 101.305 274.734 100.585 274.734 99.8658V98.9665C274.734 98.6067 274.734 98.247 274.555 97.8873C274.375 97.5276 274.196 97.1679 273.837 96.988C272.221 98.7866 270.426 100.225 268.271 101.305C266.117 102.384 263.783 102.743 261.449 102.743C259.115 102.743 256.781 102.204 254.626 101.305C252.472 100.405 250.497 98.7866 249.061 96.988C248.702 97.3477 248.522 97.5276 248.343 97.8873C248.163 98.247 248.163 98.6067 248.163 98.9665V99.8658C248.163 100.585 248.522 101.305 249.061 101.844C249.599 102.384 250.318 102.743 251.036 102.743H252.831C252.831 102.743 254.088 170.55 255.345 248.609C257.858 249.868 260.372 251.127 263.244 252.565C263.603 252.745 264.142 252.925 264.501 253.105C271.144 256.342 276.709 259.04 281.377 261.558C297.176 255.443 312.616 248.429 317.284 238.537C325.543 220.191 309.026 209.759 309.026 209.759ZM287.122 205.622C285.327 205.622 283.891 204.723 283.891 203.644C283.891 202.565 285.327 201.666 287.122 201.666C288.918 201.666 290.354 202.565 290.354 203.644C290.354 204.723 288.918 205.622 287.122 205.622ZM258.576 433.323C260.013 431.524 261.269 429.726 262.706 428.107C262.885 417.855 263.244 406.344 263.424 393.934C261.628 392.135 259.653 390.337 257.499 388.358C256.781 387.819 256.242 387.099 255.524 386.56C254.626 385.661 253.729 384.941 252.831 384.222C247.804 388.898 237.93 399.33 237.93 408.323C237.93 418.934 248.163 429.726 255.883 437.46C256.601 435.841 257.499 434.582 258.576 433.323ZM257.499 390.517C257.858 405.805 258.038 419.834 258.217 431.884C252.292 423.97 246.009 415.877 246.009 410.301C246.009 405.085 249.061 399.15 257.499 390.517ZM261.628 254.904C226.619 237.997 219.437 230.263 219.437 226.486C219.437 222.709 223.387 220.371 223.387 220.371C226.798 221.09 229.671 221.09 235.596 218.213C242.777 214.795 245.291 211.378 246.188 208.68C245.111 208.68 244.213 208.32 244.213 207.961C244.213 207.601 245.291 207.241 246.547 207.241V207.061C246.727 204.363 245.829 197.349 229.312 198.428C212.974 199.507 212.615 209.579 212.615 209.579C212.615 209.579 196.098 220.191 204.716 238.177C212.256 254.184 247.625 262.638 268.092 271.81C288.379 280.983 287.122 288.897 287.122 288.897C287.122 295.731 273.478 302.926 262.706 310.48C251.933 318.034 229.132 331.164 229.132 346.631C229.132 360.84 243.316 371.812 257.14 384.042C271.144 396.272 275.632 403.646 275.632 410.481C275.632 419.834 260.192 432.424 252.292 448.071C244.393 463.719 260.013 488 255.165 475.23C250.138 462.46 252.831 453.467 259.294 444.474C267.194 433.503 284.07 422.711 284.07 408.143C284.07 395.913 266.296 381.524 266.296 381.524C250.497 365.696 240.443 356.703 240.443 348.79C240.443 340.876 247.984 333.861 269.169 320.012C290.175 306.343 302.562 300.947 302.562 287.638C302.562 275.947 296.638 271.81 261.628 254.904ZM234.698 201.845C236.493 201.845 237.93 202.745 237.93 203.824C237.93 204.903 236.493 205.802 234.698 205.802C232.903 205.802 231.466 204.903 231.466 203.824C231.466 202.745 232.903 201.845 234.698 201.845Z"/>
</mask>
<path d="M258.576 451.309C258.756 463.899 258.935 473.072 259.115 477.568C259.294 478.108 259.294 478.827 259.115 479.367C259.115 480.086 259.115 480.626 259.115 480.626C259.115 483.144 259.474 485.662 260.192 488C260.91 485.662 261.269 483.144 261.269 480.626C261.269 479.726 261.628 466.597 262.167 445.553C261.987 445.733 261.808 445.913 261.808 446.093C260.551 447.712 259.474 449.51 258.576 451.309ZM221.233 188.716C224.105 185.658 226.798 182.061 228.773 178.284C227.337 181.521 221.771 193.752 227.157 194.831C233.082 195.91 239.725 194.111 251.754 178.824C251.395 159.219 251.036 142.132 250.856 129.183H244.393C244.034 129.183 243.854 129.183 243.495 129.183C239.905 129.183 233.98 128.823 230.03 122.888C225.721 116.413 225.542 109.758 225.362 104.902C225.183 97.8873 223.387 85.1174 214.59 77.923C208.486 73.0669 191.968 69.2898 176.708 75.405C171.681 77.3835 161.627 82.5994 151.753 87.4555C142.776 91.952 131.286 97.5276 127.695 97.5276C133.62 94.8297 141.519 90.8728 150.137 86.0167C160.011 80.6209 170.424 74.8654 175.631 72.7071C186.044 68.5704 205.972 67.3114 216.206 75.5849C225.901 83.4987 227.876 97.1679 228.055 104.542C228.235 109.398 228.414 115.334 232.184 121.269C235.596 126.305 240.982 126.305 244.213 126.305H244.932H250.677C250.677 124.686 250.677 123.247 250.677 121.629C244.932 121.988 236.673 122.348 233.082 114.614C228.773 105.262 233.441 81.3404 219.078 71.2683C204.716 61.1962 181.735 63.7142 161.268 75.5849C140.981 87.2757 114.05 102.564 80.836 115.873C47.6219 129.183 26.9753 134.578 23.0255 135.118C19.2552 135.837 26.0776 138.355 40.261 138.715C54.4443 139.075 66.2937 137.996 66.2937 137.996L170.424 90.5131C170.424 90.5131 80.6565 135.298 73.116 140.154C65.5755 145.01 59.4713 146.629 60.0099 151.125C60.5485 155.622 66.2937 155.082 82.0928 154.723C97.8919 154.363 101.303 152.924 106.689 151.305C112.075 149.687 170.424 122.708 170.424 122.708C170.424 122.708 107.946 153.823 98.9692 161.018C89.9924 168.212 99.6871 170.55 105.791 170.73C112.075 170.91 128.772 170.011 138.108 165.334C147.444 160.658 176.529 141.953 176.529 141.953C176.529 141.953 147.803 162.636 142.237 167.313C137.749 171.09 135.415 174.327 136.492 178.284C138.108 183.32 146.726 182.78 158.216 178.644C158.216 178.644 170.065 174.507 174.554 170.55C179.042 166.413 191.61 155.262 191.61 155.262C191.61 155.262 176.708 170.73 172.938 177.385C169.347 184.039 168.629 185.658 170.424 189.435C172.938 194.831 191.968 189.255 197.355 183.5C201.304 179.003 205.075 174.327 208.486 169.291C208.486 169.291 202.741 178.644 201.484 184.039C200.227 189.435 198.791 193.752 203.997 194.291C209.743 195.191 215.129 195.371 221.233 188.716ZM256.781 311.199C257.319 310.84 257.858 310.48 258.397 310.12C259.474 309.401 260.372 308.861 261.09 308.142C262.526 307.242 263.962 306.163 265.399 305.264C265.578 295.012 265.937 284.58 266.117 274.328C263.244 273.069 260.192 271.81 256.96 270.551C256.781 270.551 256.601 270.371 256.422 270.371C256.063 270.192 255.883 270.192 255.524 270.012C253.37 269.292 251.395 268.393 249.061 267.674C246.368 266.594 243.675 265.695 240.982 264.616C223.028 274.148 219.437 278.645 219.437 287.458C219.437 299.868 230.03 305.444 248.343 317.135C251.215 314.976 254.088 312.998 256.781 311.199ZM234.698 289.077C234.698 289.077 233.441 281.163 253.729 271.99C254.267 271.81 254.806 271.451 255.345 271.271C255.524 283.681 255.704 296.091 256.063 308.501C246.009 301.667 234.698 295.192 234.698 289.077ZM265.399 441.776C264.501 442.856 263.603 443.935 262.706 444.834C267.912 451.848 267.553 458.683 264.68 467.496C267.373 464.439 272.76 456.705 268.271 446.633C267.373 445.014 266.476 443.395 265.399 441.776ZM257.14 368.034C259.115 370.013 261.449 372.351 263.783 374.689C265.219 376.128 266.655 377.567 268.271 379.186C268.451 379.366 268.81 379.545 269.169 379.905C281.377 369.294 292.508 359.221 292.508 346.631C292.508 336.739 282.993 327.746 273.478 320.552C272.58 321.091 271.682 321.631 270.785 322.35C268.63 323.789 266.655 325.048 264.86 326.307C264.86 326.307 264.68 326.307 264.68 326.487C264.321 326.847 263.783 327.027 263.424 327.387C260.91 329.185 258.576 330.804 256.422 332.423C256.781 344.473 256.96 356.524 257.14 368.034ZM264.86 328.286C276.709 336.919 281.377 342.495 281.377 348.61C281.377 354.905 274.734 362.279 263.962 373.071C264.142 358.682 264.501 343.754 264.86 328.286ZM330.391 155.442C330.391 155.442 342.958 166.593 347.446 170.73C351.935 174.867 363.784 178.824 363.784 178.824C375.274 182.96 383.892 183.5 385.508 178.464C386.765 174.507 384.251 171.09 379.763 167.492C374.197 162.816 345.471 142.132 345.471 142.132C345.471 142.132 374.556 160.838 383.892 165.514C393.228 170.19 409.925 171.09 416.209 170.91C422.492 170.73 432.008 168.392 423.031 161.197C414.054 154.003 351.576 122.888 351.576 122.888C351.576 122.888 409.745 150.046 415.311 151.485C420.697 153.104 424.108 154.363 439.907 154.902C455.706 155.262 461.272 155.802 461.99 151.305C462.708 146.989 456.425 145.37 448.884 140.334C441.344 135.478 351.576 90.693 351.576 90.693L455.706 138.176C455.706 138.176 467.556 139.255 481.739 138.895C495.922 138.535 502.745 136.017 498.975 135.298C495.204 134.578 474.378 129.363 441.164 116.053C407.95 102.743 381.02 87.6354 360.732 75.7647C340.445 64.074 317.284 61.3761 302.922 71.4481C288.559 81.5202 293.227 105.262 288.918 114.794C285.327 122.528 277.068 122.168 271.323 121.808C271.323 123.247 271.323 124.866 271.144 126.485H277.068H277.787C281.018 126.485 286.404 126.485 289.815 121.449C293.586 115.693 293.765 109.578 293.945 104.722C294.124 97.3477 296.099 83.6785 305.794 75.7647C316.028 67.4913 335.956 68.7503 346.369 72.887C351.576 74.8655 361.989 80.6209 371.863 86.1965C380.481 91.0527 388.381 95.0096 394.305 97.7075C390.535 97.7075 379.224 92.1319 370.247 87.6354C360.553 82.5994 350.499 77.5633 345.292 75.5849C330.031 69.4697 313.514 73.2467 307.41 78.1029C298.433 85.2972 296.817 98.0672 296.638 105.082C296.458 109.938 296.279 116.772 291.97 123.067C288.2 129.003 282.275 129.363 278.505 129.363C278.146 129.363 277.966 129.363 277.607 129.363H271.144C270.785 142.312 270.426 159.219 270.066 178.464C282.275 194.112 289.277 196.09 295.022 194.831C300.408 193.752 295.022 181.521 293.406 178.284C295.561 182.061 298.074 185.478 300.947 188.716C306.871 195.371 312.437 195.191 317.823 194.471C323.209 193.752 321.593 189.615 320.336 184.219C319.08 178.824 313.335 169.471 313.335 169.471C316.746 174.327 320.516 179.183 324.466 183.68C329.852 189.435 348.883 195.191 351.396 189.615C353.012 186.018 352.473 184.219 348.883 177.565C345.472 170.91 330.391 155.442 330.391 155.442ZM261.269 100.405C264.142 100.405 267.014 99.506 269.348 97.8873C271.682 96.2686 273.657 93.9304 274.734 91.4124C275.812 88.7145 276.171 85.8368 275.632 82.9591C275.094 80.0813 273.657 77.5633 271.682 75.405C269.707 73.4266 267.014 71.9877 264.142 71.4481C261.269 70.9086 258.397 71.0884 255.704 72.3474C253.011 73.4266 250.677 75.405 249.24 77.7432C247.625 80.0813 246.727 82.9591 246.727 85.8368C246.727 87.8153 247.086 89.6138 247.804 91.4124C248.522 93.211 249.599 94.8297 251.036 96.0887C252.472 97.5276 253.908 98.6068 255.704 99.3262C257.319 100.046 259.294 100.405 261.269 100.405ZM309.026 209.759C309.026 209.759 308.667 199.687 292.329 198.608C275.632 197.529 274.914 204.723 275.273 207.421C276.53 207.421 277.607 207.781 277.607 208.14C277.607 208.5 276.709 208.86 275.632 208.86C276.53 211.558 279.043 214.795 286.225 218.392C292.149 221.27 295.022 221.09 298.433 220.551C298.433 220.551 302.383 222.889 302.383 226.666C302.383 230.263 296.099 237.277 266.655 252.026C268.451 172.529 270.066 102.743 270.066 102.743H271.862C272.58 102.743 273.298 102.384 273.837 101.844C274.375 101.305 274.734 100.585 274.734 99.8658V98.9665C274.734 98.6067 274.734 98.247 274.555 97.8873C274.375 97.5276 274.196 97.1679 273.837 96.988C272.221 98.7866 270.426 100.225 268.271 101.305C266.117 102.384 263.783 102.743 261.449 102.743C259.115 102.743 256.781 102.204 254.626 101.305C252.472 100.405 250.497 98.7866 249.061 96.988C248.702 97.3477 248.522 97.5276 248.343 97.8873C248.163 98.247 248.163 98.6067 248.163 98.9665V99.8658C248.163 100.585 248.522 101.305 249.061 101.844C249.599 102.384 250.318 102.743 251.036 102.743H252.831C252.831 102.743 254.088 170.55 255.345 248.609C257.858 249.868 260.372 251.127 263.244 252.565C263.603 252.745 264.142 252.925 264.501 253.105C271.144 256.342 276.709 259.04 281.377 261.558C297.176 255.443 312.616 248.429 317.284 238.537C325.543 220.191 309.026 209.759 309.026 209.759ZM287.122 205.622C285.327 205.622 283.891 204.723 283.891 203.644C283.891 202.565 285.327 201.666 287.122 201.666C288.918 201.666 290.354 202.565 290.354 203.644C290.354 204.723 288.918 205.622 287.122 205.622ZM258.576 433.323C260.013 431.524 261.269 429.726 262.706 428.107C262.885 417.855 263.244 406.344 263.424 393.934C261.628 392.135 259.653 390.337 257.499 388.358C256.781 387.819 256.242 387.099 255.524 386.56C254.626 385.661 253.729 384.941 252.831 384.222C247.804 388.898 237.93 399.33 237.93 408.323C237.93 418.934 248.163 429.726 255.883 437.46C256.601 435.841 257.499 434.582 258.576 433.323ZM257.499 390.517C257.858 405.805 258.038 419.834 258.217 431.884C252.292 423.97 246.009 415.877 246.009 410.301C246.009 405.085 249.061 399.15 257.499 390.517ZM261.628 254.904C226.619 237.997 219.437 230.263 219.437 226.486C219.437 222.709 223.387 220.371 223.387 220.371C226.798 221.09 229.671 221.09 235.596 218.213C242.777 214.795 245.291 211.378 246.188 208.68C245.111 208.68 244.213 208.32 244.213 207.961C244.213 207.601 245.291 207.241 246.547 207.241V207.061C246.727 204.363 245.829 197.349 229.312 198.428C212.974 199.507 212.615 209.579 212.615 209.579C212.615 209.579 196.098 220.191 204.716 238.177C212.256 254.184 247.625 262.638 268.092 271.81C288.379 280.983 287.122 288.897 287.122 288.897C287.122 295.731 273.478 302.926 262.706 310.48C251.933 318.034 229.132 331.164 229.132 346.631C229.132 360.84 243.316 371.812 257.14 384.042C271.144 396.272 275.632 403.646 275.632 410.481C275.632 419.834 260.192 432.424 252.292 448.071C244.393 463.719 260.013 488 255.165 475.23C250.138 462.46 252.831 453.467 259.294 444.474C267.194 433.503 284.07 422.711 284.07 408.143C284.07 395.913 266.296 381.524 266.296 381.524C250.497 365.696 240.443 356.703 240.443 348.79C240.443 340.876 247.984 333.861 269.169 320.012C290.175 306.343 302.562 300.947 302.562 287.638C302.562 275.947 296.638 271.81 261.628 254.904ZM234.698 201.845C236.493 201.845 237.93 202.745 237.93 203.824C237.93 204.903 236.493 205.802 234.698 205.802C232.903 205.802 231.466 204.903 231.466 203.824C231.466 202.745 232.903 201.845 234.698 201.845Z" fill="white"/>
<path d="M258.576 451.309C258.756 463.899 258.935 473.072 259.115 477.568C259.294 478.108 259.294 478.827 259.115 479.367C259.115 480.086 259.115 480.626 259.115 480.626C259.115 483.144 259.474 485.662 260.192 488C260.91 485.662 261.269 483.144 261.269 480.626C261.269 479.726 261.628 466.597 262.167 445.553C261.987 445.733 261.808 445.913 261.808 446.093C260.551 447.712 259.474 449.51 258.576 451.309ZM221.233 188.716C224.105 185.658 226.798 182.061 228.773 178.284C227.337 181.521 221.771 193.752 227.157 194.831C233.082 195.91 239.725 194.111 251.754 178.824C251.395 159.219 251.036 142.132 250.856 129.183H244.393C244.034 129.183 243.854 129.183 243.495 129.183C239.905 129.183 233.98 128.823 230.03 122.888C225.721 116.413 225.542 109.758 225.362 104.902C225.183 97.8873 223.387 85.1174 214.59 77.923C208.486 73.0669 191.968 69.2898 176.708 75.405C171.681 77.3835 161.627 82.5994 151.753 87.4555C142.776 91.952 131.286 97.5276 127.695 97.5276C133.62 94.8297 141.519 90.8728 150.137 86.0167C160.011 80.6209 170.424 74.8654 175.631 72.7071C186.044 68.5704 205.972 67.3114 216.206 75.5849C225.901 83.4987 227.876 97.1679 228.055 104.542C228.235 109.398 228.414 115.334 232.184 121.269C235.596 126.305 240.982 126.305 244.213 126.305H244.932H250.677C250.677 124.686 250.677 123.247 250.677 121.629C244.932 121.988 236.673 122.348 233.082 114.614C228.773 105.262 233.441 81.3404 219.078 71.2683C204.716 61.1962 181.735 63.7142 161.268 75.5849C140.981 87.2757 114.05 102.564 80.836 115.873C47.6219 129.183 26.9753 134.578 23.0255 135.118C19.2552 135.837 26.0776 138.355 40.261 138.715C54.4443 139.075 66.2937 137.996 66.2937 137.996L170.424 90.5131C170.424 90.5131 80.6565 135.298 73.116 140.154C65.5755 145.01 59.4713 146.629 60.0099 151.125C60.5485 155.622 66.2937 155.082 82.0928 154.723C97.8919 154.363 101.303 152.924 106.689 151.305C112.075 149.687 170.424 122.708 170.424 122.708C170.424 122.708 107.946 153.823 98.9692 161.018C89.9924 168.212 99.6871 170.55 105.791 170.73C112.075 170.91 128.772 170.011 138.108 165.334C147.444 160.658 176.529 141.953 176.529 141.953C176.529 141.953 147.803 162.636 142.237 167.313C137.749 171.09 135.415 174.327 136.492 178.284C138.108 183.32 146.726 182.78 158.216 178.644C158.216 178.644 170.065 174.507 174.554 170.55C179.042 166.413 191.61 155.262 191.61 155.262C191.61 155.262 176.708 170.73 172.938 177.385C169.347 184.039 168.629 185.658 170.424 189.435C172.938 194.831 191.968 189.255 197.355 183.5C201.304 179.003 205.075 174.327 208.486 169.291C208.486 169.291 202.741 178.644 201.484 184.039C200.227 189.435 198.791 193.752 203.997 194.291C209.743 195.191 215.129 195.371 221.233 188.716ZM256.781 311.199C257.319 310.84 257.858 310.48 258.397 310.12C259.474 309.401 260.372 308.861 261.09 308.142C262.526 307.242 263.962 306.163 265.399 305.264C265.578 295.012 265.937 284.58 266.117 274.328C263.244 273.069 260.192 271.81 256.96 270.551C256.781 270.551 256.601 270.371 256.422 270.371C256.063 270.192 255.883 270.192 255.524 270.012C253.37 269.292 251.395 268.393 249.061 267.674C246.368 266.594 243.675 265.695 240.982 264.616C223.028 274.148 219.437 278.645 219.437 287.458C219.437 299.868 230.03 305.444 248.343 317.135C251.215 314.976 254.088 312.998 256.781 311.199ZM234.698 289.077C234.698 289.077 233.441 281.163 253.729 271.99C254.267 271.81 254.806 271.451 255.345 271.271C255.524 283.681 255.704 296.091 256.063 308.501C246.009 301.667 234.698 295.192 234.698 289.077ZM265.399 441.776C264.501 442.856 263.603 443.935 262.706 444.834C267.912 451.848 267.553 458.683 264.68 467.496C267.373 464.439 272.76 456.705 268.271 446.633C267.373 445.014 266.476 443.395 265.399 441.776ZM257.14 368.034C259.115 370.013 261.449 372.351 263.783 374.689C265.219 376.128 266.655 377.567 268.271 379.186C268.451 379.366 268.81 379.545 269.169 379.905C281.377 369.294 292.508 359.221 292.508 346.631C292.508 336.739 282.993 327.746 273.478 320.552C272.58 321.091 271.682 321.631 270.785 322.35C268.63 323.789 266.655 325.048 264.86 326.307C264.86 326.307 264.68 326.307 264.68 326.487C264.321 326.847 263.783 327.027 263.424 327.387C260.91 329.185 258.576 330.804 256.422 332.423C256.781 344.473 256.96 356.524 257.14 368.034ZM264.86 328.286C276.709 336.919 281.377 342.495 281.377 348.61C281.377 354.905 274.734 362.279 263.962 373.071C264.142 358.682 264.501 343.754 264.86 328.286ZM330.391 155.442C330.391 155.442 342.958 166.593 347.446 170.73C351.935 174.867 363.784 178.824 363.784 178.824C375.274 182.96 383.892 183.5 385.508 178.464C386.765 174.507 384.251 171.09 379.763 167.492C374.197 162.816 345.471 142.132 345.471 142.132C345.471 142.132 374.556 160.838 383.892 165.514C393.228 170.19 409.925 171.09 416.209 170.91C422.492 170.73 432.008 168.392 423.031 161.197C414.054 154.003 351.576 122.888 351.576 122.888C351.576 122.888 409.745 150.046 415.311 151.485C420.697 153.104 424.108 154.363 439.907 154.902C455.706 155.262 461.272 155.802 461.99 151.305C462.708 146.989 456.425 145.37 448.884 140.334C441.344 135.478 351.576 90.693 351.576 90.693L455.706 138.176C455.706 138.176 467.556 139.255 481.739 138.895C495.922 138.535 502.745 136.017 498.975 135.298C495.204 134.578 474.378 129.363 441.164 116.053C407.95 102.743 381.02 87.6354 360.732 75.7647C340.445 64.074 317.284 61.3761 302.922 71.4481C288.559 81.5202 293.227 105.262 288.918 114.794C285.327 122.528 277.068 122.168 271.323 121.808C271.323 123.247 271.323 124.866 271.144 126.485H277.068H277.787C281.018 126.485 286.404 126.485 289.815 121.449C293.586 115.693 293.765 109.578 293.945 104.722C294.124 97.3477 296.099 83.6785 305.794 75.7647C316.028 67.4913 335.956 68.7503 346.369 72.887C351.576 74.8655 361.989 80.6209 371.863 86.1965C380.481 91.0527 388.381 95.0096 394.305 97.7075C390.535 97.7075 379.224 92.1319 370.247 87.6354C360.553 82.5994 350.499 77.5633 345.292 75.5849C330.031 69.4697 313.514 73.2467 307.41 78.1029C298.433 85.2972 296.817 98.0672 296.638 105.082C296.458 109.938 296.279 116.772 291.97 123.067C288.2 129.003 282.275 129.363 278.505 129.363C278.146 129.363 277.966 129.363 277.607 129.363H271.144C270.785 142.312 270.426 159.219 270.066 178.464C282.275 194.112 289.277 196.09 295.022 194.831C300.408 193.752 295.022 181.521 293.406 178.284C295.561 182.061 298.074 185.478 300.947 188.716C306.871 195.371 312.437 195.191 317.823 194.471C323.209 193.752 321.593 189.615 320.336 184.219C319.08 178.824 313.335 169.471 313.335 169.471C316.746 174.327 320.516 179.183 324.466 183.68C329.852 189.435 348.883 195.191 351.396 189.615C353.012 186.018 352.473 184.219 348.883 177.565C345.472 170.91 330.391 155.442 330.391 155.442ZM261.269 100.405C264.142 100.405 267.014 99.506 269.348 97.8873C271.682 96.2686 273.657 93.9304 274.734 91.4124C275.812 88.7145 276.171 85.8368 275.632 82.9591C275.094 80.0813 273.657 77.5633 271.682 75.405C269.707 73.4266 267.014 71.9877 264.142 71.4481C261.269 70.9086 258.397 71.0884 255.704 72.3474C253.011 73.4266 250.677 75.405 249.24 77.7432C247.625 80.0813 246.727 82.9591 246.727 85.8368C246.727 87.8153 247.086 89.6138 247.804 91.4124C248.522 93.211 249.599 94.8297 251.036 96.0887C252.472 97.5276 253.908 98.6068 255.704 99.3262C257.319 100.046 259.294 100.405 261.269 100.405ZM309.026 209.759C309.026 209.759 308.667 199.687 292.329 198.608C275.632 197.529 274.914 204.723 275.273 207.421C276.53 207.421 277.607 207.781 277.607 208.14C277.607 208.5 276.709 208.86 275.632 208.86C276.53 211.558 279.043 214.795 286.225 218.392C292.149 221.27 295.022 221.09 298.433 220.551C298.433 220.551 302.383 222.889 302.383 226.666C302.383 230.263 296.099 237.277 266.655 252.026C268.451 172.529 270.066 102.743 270.066 102.743H271.862C272.58 102.743 273.298 102.384 273.837 101.844C274.375 101.305 274.734 100.585 274.734 99.8658V98.9665C274.734 98.6067 274.734 98.247 274.555 97.8873C274.375 97.5276 274.196 97.1679 273.837 96.988C272.221 98.7866 270.426 100.225 268.271 101.305C266.117 102.384 263.783 102.743 261.449 102.743C259.115 102.743 256.781 102.204 254.626 101.305C252.472 100.405 250.497 98.7866 249.061 96.988C248.702 97.3477 248.522 97.5276 248.343 97.8873C248.163 98.247 248.163 98.6067 248.163 98.9665V99.8658C248.163 100.585 248.522 101.305 249.061 101.844C249.599 102.384 250.318 102.743 251.036 102.743H252.831C252.831 102.743 254.088 170.55 255.345 248.609C257.858 249.868 260.372 251.127 263.244 252.565C263.603 252.745 264.142 252.925 264.501 253.105C271.144 256.342 276.709 259.04 281.377 261.558C297.176 255.443 312.616 248.429 317.284 238.537C325.543 220.191 309.026 209.759 309.026 209.759ZM287.122 205.622C285.327 205.622 283.891 204.723 283.891 203.644C283.891 202.565 285.327 201.666 287.122 201.666C288.918 201.666 290.354 202.565 290.354 203.644C290.354 204.723 288.918 205.622 287.122 205.622ZM258.576 433.323C260.013 431.524 261.269 429.726 262.706 428.107C262.885 417.855 263.244 406.344 263.424 393.934C261.628 392.135 259.653 390.337 257.499 388.358C256.781 387.819 256.242 387.099 255.524 386.56C254.626 385.661 253.729 384.941 252.831 384.222C247.804 388.898 237.93 399.33 237.93 408.323C237.93 418.934 248.163 429.726 255.883 437.46C256.601 435.841 257.499 434.582 258.576 433.323ZM257.499 390.517C257.858 405.805 258.038 419.834 258.217 431.884C252.292 423.97 246.009 415.877 246.009 410.301C246.009 405.085 249.061 399.15 257.499 390.517ZM261.628 254.904C226.619 237.997 219.437 230.263 219.437 226.486C219.437 222.709 223.387 220.371 223.387 220.371C226.798 221.09 229.671 221.09 235.596 218.213C242.777 214.795 245.291 211.378 246.188 208.68C245.111 208.68 244.213 208.32 244.213 207.961C244.213 207.601 245.291 207.241 246.547 207.241V207.061C246.727 204.363 245.829 197.349 229.312 198.428C212.974 199.507 212.615 209.579 212.615 209.579C212.615 209.579 196.098 220.191 204.716 238.177C212.256 254.184 247.625 262.638 268.092 271.81C288.379 280.983 287.122 288.897 287.122 288.897C287.122 295.731 273.478 302.926 262.706 310.48C251.933 318.034 229.132 331.164 229.132 346.631C229.132 360.84 243.316 371.812 257.14 384.042C271.144 396.272 275.632 403.646 275.632 410.481C275.632 419.834 260.192 432.424 252.292 448.071C244.393 463.719 260.013 488 255.165 475.23C250.138 462.46 252.831 453.467 259.294 444.474C267.194 433.503 284.07 422.711 284.07 408.143C284.07 395.913 266.296 381.524 266.296 381.524C250.497 365.696 240.443 356.703 240.443 348.79C240.443 340.876 247.984 333.861 269.169 320.012C290.175 306.343 302.562 300.947 302.562 287.638C302.562 275.947 296.638 271.81 261.628 254.904ZM234.698 201.845C236.493 201.845 237.93 202.745 237.93 203.824C237.93 204.903 236.493 205.802 234.698 205.802C232.903 205.802 231.466 204.903 231.466 203.824C231.466 202.745 232.903 201.845 234.698 201.845Z" stroke="#174865" stroke-width="20" mask="url(#path-2-outside-1_1409_14)"/>
<defs>
<linearGradient id="paint0_linear_1409_14" x1="141" y1="145.5" x2="1154" y2="1162.5" gradientUnits="userSpaceOnUse">
<stop stop-color="#174865"/>
<stop offset="1" stop-color="#2E91CB"/>
</linearGradient>
</defs>
</svg>
