<svg width="1200" height="630" viewBox="0 0 1200 630" xmlns="http://www.w3.org/2000/svg"><mask id="satori_om-id"><rect x="0" y="0" width="1200" height="630" fill="#fff"/></mask><mask id="satori_om-id-0"><rect x="0" y="0" width="1200" height="693" fill="#fff"/></mask><mask id="satori_om-id-1"><rect x="0" y="0" width="1200" height="630" fill="#fff"/></mask><mask id="satori_om-id-1-0"><rect x="1002" y="48" width="150" height="33" fill="#fff"/></mask><clipPath id="satori_cp-id-1-0-0"><rect x="1002" y="48" width="150" height="33"/></clipPath><mask id="satori_om-id-1-0-0"><rect x="1002" y="48" width="150" height="33" fill="#fff"/></mask><image x="1002" y="48" width="150" height="33" href="data:image/svg+xml;utf8,%3Csvg  fill=%22none%22 xmlns=%22http://www.w3.org/2000/svg%22 width=%22151.5%22 height=%2233%22 viewBox=%220 0 101 22%22%3E%3Cpath d=%22M10.0582 20.817C4.32115 20.817 0 16.2763 0 10.6704C0 5.04589 4.1005 0.467773 10.0582 0.467773C13.2209 0.467773 15.409 1.43945 17.1191 3.66311L14.3609 5.96151C13.2025 4.72822 11.805 4.11158 10.0582 4.11158C6.17833 4.11158 4.04533 7.08268 4.04533 10.6704C4.04533 14.2582 6.38059 17.1732 10.0582 17.1732C11.7866 17.1732 13.2577 16.5566 14.4161 15.3233L17.1375 17.7151C15.501 19.8453 13.2577 20.817 10.0582 20.817Z%22 fill=%22%23292929%22%3E%3C/path%3E%3Cpath d=%22M29.0161 5.88601H32.7304V20.4612H29.0161V18.331C28.2438 19.8446 26.9566 20.8536 24.4927 20.8536C20.5577 20.8536 17.4133 17.4341 17.4133 13.2297C17.4133 9.02528 20.5577 5.60571 24.4927 5.60571C26.9383 5.60571 28.2438 6.61477 29.0161 8.12835V5.88601ZM29.1264 13.2297C29.1264 10.95 27.5634 9.06266 25.0995 9.06266C22.7274 9.06266 21.1828 10.9686 21.1828 13.2297C21.1828 15.4346 22.7274 17.3967 25.0995 17.3967C27.5451 17.3967 29.1264 15.4907 29.1264 13.2297Z%22 fill=%22%23292929%22%3E%3C/path%3E%3Cpath d=%22M35.3599 0H39.0742V20.4427H35.3599V0Z%22 fill=%22%23292929%22%3E%3C/path%3E%3Cpath d=%22M40.7291 18.5182C40.7291 17.3223 41.6853 16.3132 42.9908 16.3132C44.2964 16.3132 45.2158 17.3223 45.2158 18.5182C45.2158 19.7515 44.278 20.7605 42.9908 20.7605C41.7037 20.7605 40.7291 19.7515 40.7291 18.5182Z%22 fill=%22%23292929%22%3E%3C/path%3E%3Cpath d=%22M59.4296 18.1068C58.0505 19.7885 55.9543 20.8536 53.4719 20.8536C49.0404 20.8536 45.7858 17.4341 45.7858 13.2297C45.7858 9.02528 49.0404 5.60571 53.4719 5.60571C55.8623 5.60571 57.9402 6.61477 59.3193 8.20309L56.4508 10.6136C55.7336 9.71667 54.7958 9.04397 53.4719 9.04397C51.0999 9.04397 49.5553 10.95 49.5553 13.211C49.5553 15.472 51.0999 17.378 53.4719 17.378C54.9062 17.378 55.8991 16.6306 56.6346 15.6215L59.4296 18.1068Z%22 fill=%22%23292929%22%3E%3C/path%3E%3Cpath d=%22M59.7422 13.2297C59.7422 9.02528 62.9968 5.60571 67.4283 5.60571C71.8598 5.60571 75.1144 9.02528 75.1144 13.2297C75.1144 17.4341 71.8598 20.8536 67.4283 20.8536C62.9968 20.8349 59.7422 17.4341 59.7422 13.2297ZM71.3449 13.2297C71.3449 10.95 69.8003 9.06266 67.4283 9.06266C65.0563 9.04397 63.5117 10.95 63.5117 13.2297C63.5117 15.4907 65.0563 17.3967 67.4283 17.3967C69.8003 17.3967 71.3449 15.4907 71.3449 13.2297Z%22 fill=%22%23292929%22%3E%3C/path%3E%3Cpath d=%22M100.232 11.5482V20.4428H96.518V12.4638C96.518 9.94119 95.3412 8.85739 93.576 8.85739C91.921 8.85739 90.7442 9.67958 90.7442 12.4638V20.4428H87.0299V12.4638C87.0299 9.94119 85.8346 8.85739 84.0878 8.85739C82.4329 8.85739 80.9802 9.67958 80.9802 12.4638V20.4428H77.2659V5.8676H80.9802V7.88571C81.7525 6.31607 83.15 5.53125 85.3014 5.53125C87.3425 5.53125 89.0525 6.5403 89.9903 8.24074C90.9281 6.50293 92.3072 5.53125 94.8079 5.53125C97.8603 5.54994 100.232 7.86702 100.232 11.5482Z%22 fill=%22%23292929%22%3E%3C/path%3E%3C/svg%3E" preserveAspectRatio="none" clip-path="url(#satori_cp-id-1-0-0)" mask="url(#satori_om-id-1-0-0)"/><mask id="satori_om-id-1-0-0-0"><rect x="1002" y="48" width="0" height="33" fill="#fff"/></mask><mask id="satori_om-id-1-0-0-1"><rect x="1002" y="48" width="0" height="33" fill="#fff"/></mask><mask id="satori_om-id-1-0-0-2"><rect x="1002" y="48" width="0" height="33" fill="#fff"/></mask><mask id="satori_om-id-1-0-0-3"><rect x="1002" y="48" width="0" height="33" fill="#fff"/></mask><mask id="satori_om-id-1-0-0-4"><rect x="1002" y="48" width="0" height="33" fill="#fff"/></mask><mask id="satori_om-id-1-0-0-5"><rect x="1002" y="48" width="0" height="33" fill="#fff"/></mask><mask id="satori_om-id-1-0-0-6"><rect x="1002" y="48" width="0" height="33" fill="#fff"/></mask><mask id="satori_om-id-1-1"><rect x="80" y="70" width="0" height="0" fill="#fff"/></mask><defs><pattern id="satori_biid-1-1-0_0" patternContentUnits="userSpaceOnUse" patternUnits="userSpaceOnUse" x="-20" y="-30" width="400" height="400"><image x="0" y="0" width="400" height="400" preserveAspectRatio="none"/></pattern></defs><mask id="satori_om-id-1-1-0"><rect x="-20" y="-30" width="400" height="400" fill="#fff"/></mask><g opacity="0.8"><rect x="-20" y="-30" width="400" height="400" fill="rgba(255, 255, 255, 0.7)" style="filter:blur(98px)"/><rect x="-20" y="-30" width="400" height="400" fill="url(#satori_biid-1-1-0_0)" style="filter:blur(98px)"/></g><defs><pattern id="satori_biid-1-1-1_0" patternContentUnits="userSpaceOnUse" patternUnits="userSpaceOnUse" x="740" y="300" width="630" height="630"><image x="0" y="0" width="630" height="630" preserveAspectRatio="none"/></pattern></defs><mask id="satori_om-id-1-1-1"><rect x="740" y="300" width="630" height="630" fill="#fff"/></mask><g opacity="0.8"><rect x="740" y="300" width="630" height="630" fill="rgba(255, 255, 255, 0.7)" style="filter:blur(150px)"/><rect x="740" y="300" width="630" height="630" fill="url(#satori_biid-1-1-1_0)" style="filter:blur(150px)"/></g><mask id="satori_om-id-1-2"><rect x="80" y="70" width="1040" height="172" fill="#fff"/></mask><mask id="satori_om-id-1-2-0"><rect x="80" y="70" width="172" height="172" fill="#fff"/></mask><mask id="satori_om-id-1-2-0-0"><rect x="80" y="70" width="172" height="172" fill="#fff"/></mask><mask id="satori_om-id-1-3"><rect x="80" y="412" width="1040" height="148" fill="#fff"/></mask><mask id="satori_om-id-1-3-0"><rect x="80" y="412" width="1040" height="76" fill="#fff"/></mask><path fill="#111827" d="M93.8 479.1L93.8 442.4L81.0 442.4L81.0 434.3L115.5 434.3L115.5 442.4L102.7 442.4L102.7 479.1L93.8 479.1ZM126.2 480.0Q121.2 480.0 117.2 477.6Q113.3 475.3 111.2 471.3Q109.0 467.4 109.0 462.6L109.0 462.6Q109.0 457.8 111.2 453.8Q113.5 449.8 117.4 447.4Q121.3 445.0 126.2 445.0L126.2 445.0Q131.1 445.0 134.9 447.4Q138.8 449.8 141.0 453.8Q143.1 457.8 143.1 462.6L143.1 462.6Q143.1 464.2 142.8 465.6L142.8 465.6L118.0 465.6Q118.7 468.6 120.9 470.5Q123.0 472.3 126.2 472.3L126.2 472.3Q128.9 472.3 131.0 471.0Q133.1 469.8 134.3 467.8L134.3 467.8L141.1 472.9Q139.0 476.1 135.0 478.0Q131.1 480.0 126.2 480.0L126.2 480.0ZM118.0 459.2L134.4 459.2Q133.6 456.3 131.4 454.4Q129.2 452.4 126.1 452.4L126.1 452.4Q123.1 452.4 120.9 454.3Q118.7 456.2 118.0 459.2L118.0 459.2ZM157.3 480.0Q148.9 480.0 143.5 474.1L143.5 474.1L149.3 468.8Q153.0 472.9 157.1 472.9L157.1 472.9Q159.3 472.9 160.5 472.0Q161.7 471 161.7 469.5L161.7 469.5Q161.7 468.1 160.5 467.3Q159.4 466.5 155.6 465.6L155.6 465.6Q149.6 464.1 147.5 461.5Q145.4 459.0 145.4 455.2L145.4 455.2Q145.4 450.7 148.7 447.9Q152.1 445.0 157.8 445.0L157.8 445.0Q162.0 445.0 164.8 446.3Q167.7 447.6 170.2 450.8L170.2 450.8L163.9 455.6Q161.7 452.0 158.0 452.0L158.0 452.0Q156.2 452.0 155.0 452.7Q153.9 453.5 153.9 454.9L153.9 454.9Q153.9 456.0 154.7 456.7Q155.6 457.4 158.3 458.1L158.3 458.1Q165.2 459.9 167.7 462.6Q170.2 465.2 170.2 469.2L170.2 469.2Q170.2 472.2 168.5 474.7Q166.8 477.1 163.9 478.6Q161.0 480.0 157.3 480.0L157.3 480.0ZM185.7 479.1Q180.6 479.1 178.0 476.6Q175.5 474.1 175.5 468.8L175.5 468.8L175.5 453.2L170.8 453.2L170.8 445.8L175.5 445.8L175.5 439.1L184.1 438.2L184.1 445.8L191.2 445.8L191.2 453.2L184.1 453.2L184.1 468.4Q184.1 471.4 186.8 471.4L186.8 471.4L190.4 471.4L190.4 479.1L185.7 479.1Z M211.1 479.1L229.4 434.3L237.1 434.3L255.4 479.1L245.6 479.1L242.6 470.6L223.9 470.6L220.8 479.1L211.1 479.1ZM226.8 462.9L239.6 462.9L234.8 450.6Q233.7 447.8 233.2 445.5L233.2 445.5Q232.4 448.7 231.6 450.6L231.6 450.6L226.8 462.9ZM256.7 491.9L256.7 445.8L265.2 445.8L265.2 451.2Q266.7 448.3 269.2 446.7Q271.7 445.1 275.8 445.1L275.8 445.1Q280.3 445.1 284.1 447.5Q287.9 449.9 290.1 453.9Q292.3 457.9 292.3 462.6L292.3 462.6Q292.3 467.4 290.1 471.3Q287.9 475.3 284.1 477.6Q280.3 480.0 275.8 480.0L275.8 480.0Q271.8 480.0 269.3 478.5Q266.8 477.0 265.3 474.2L265.3 474.2L265.3 491.9L256.7 491.9ZM265.1 462.6Q265.1 465.2 266.2 467.4Q267.4 469.6 269.5 470.9Q271.7 472.2 274.4 472.2L274.4 472.2Q277.1 472.2 279.2 470.8Q281.3 469.5 282.5 467.3Q283.6 465.1 283.6 462.6L283.6 462.6Q283.6 459.9 282.5 457.8Q281.3 455.6 279.2 454.3Q277.1 453.0 274.4 453.0L274.4 453.0Q271.7 453.0 269.5 454.3Q267.4 455.6 266.2 457.8Q265.1 460.0 265.1 462.6L265.1 462.6ZM296.1 491.9L296.1 445.8L304.6 445.8L304.6 451.2Q306.1 448.3 308.6 446.7Q311.1 445.1 315.3 445.1L315.3 445.1Q319.7 445.1 323.5 447.5Q327.3 449.9 329.5 453.9Q331.7 457.9 331.7 462.6L331.7 462.6Q331.7 467.4 329.5 471.3Q327.3 475.3 323.5 477.6Q319.7 480.0 315.3 480.0L315.3 480.0Q311.2 480.0 308.7 478.5Q306.2 477.0 304.8 474.2L304.8 474.2L304.8 491.9L296.1 491.9ZM304.5 462.6Q304.5 465.2 305.7 467.4Q306.8 469.6 309.0 470.9Q311.1 472.2 313.9 472.2L313.9 472.2Q316.5 472.2 318.6 470.8Q320.7 469.5 321.9 467.3Q323.1 465.1 323.1 462.6L323.1 462.6Q323.1 459.9 321.9 457.8Q320.8 455.6 318.7 454.3Q316.5 453.0 313.9 453.0L313.9 453.0Q311.1 453.0 309.0 454.3Q306.8 455.6 305.7 457.8Q304.5 460.0 304.5 462.6L304.5 462.6Z "/><mask id="satori_om-id-1-3-1"><rect x="80" y="517" width="1040" height="44" fill="#fff"/></mask><path fill="#111827" d="M92.1 528.7L84.2 550.7L80.9 550.7L90.5 524.5L93.8 524.5L103.4 550.7L100.1 550.7L92.3 528.7L92.1 528.7ZM85.5 543.3L85.5 540.5L98.9 540.5L98.9 543.3L85.5 543.3Z M115.6 531.1L125.8 531.1L125.8 533.6L115.6 533.6L115.6 531.1ZM118.6 545.9L118.6 526.4L121.6 526.4L121.6 545.1Q121.6 546.3 122.0 547.0Q122.3 547.6 122.9 547.8Q123.5 548.0 124.2 548.0L124.2 548.0Q124.7 548.0 125 548.0Q125.3 547.9 125.5 547.9L125.5 547.9L126.1 550.6Q125.8 550.7 125.3 550.8Q124.7 551.0 123.9 551.0L123.9 551.0Q122.6 551.0 121.4 550.4Q120.2 549.9 119.4 548.7Q118.6 547.6 118.6 545.9L118.6 545.9ZM138.3 551.1L138.3 551.1Q135.5 551.1 133.5 549.8Q131.4 548.6 130.3 546.3Q129.2 544.0 129.2 541.0L129.2 541.0Q129.2 538.0 130.3 535.7Q131.4 533.4 133.4 532.1Q135.4 530.8 138.0 530.8L138.0 530.8Q139.6 530.8 141.1 531.3Q142.6 531.8 143.8 533.0Q145.0 534.1 145.7 536.0Q146.5 537.9 146.5 540.6L146.5 540.6L146.5 541.9L131.3 541.9L131.3 539.3L143.4 539.3Q143.4 537.6 142.8 536.3Q142.1 535.0 140.9 534.3Q139.7 533.5 138.0 533.5L138.0 533.5Q136.2 533.5 134.9 534.4Q133.6 535.3 132.9 536.7Q132.2 538.1 132.2 539.8L132.2 539.8L132.2 541.5Q132.2 543.7 133.0 545.3Q133.8 546.8 135.1 547.6Q136.5 548.4 138.3 548.4L138.3 548.4Q139.5 548.4 140.5 548.1Q141.5 547.7 142.2 547.0Q142.9 546.3 143.3 545.3L143.3 545.3L146.2 546.1Q145.7 547.6 144.6 548.7Q143.5 549.9 141.9 550.5Q140.3 551.1 138.3 551.1ZM165.0 535.5L165.0 535.5L162.3 536.2Q162.0 535.5 161.5 534.9Q161.0 534.3 160.2 533.8Q159.4 533.4 158.0 533.4L158.0 533.4Q156.2 533.4 155.0 534.2Q153.8 535.1 153.8 536.3L153.8 536.3Q153.8 537.5 154.7 538.1Q155.5 538.8 157.2 539.2L157.2 539.2L160.1 539.9Q162.8 540.5 164.1 541.9Q165.3 543.2 165.3 545.2L165.3 545.2Q165.3 546.9 164.4 548.2Q163.4 549.6 161.7 550.3Q160.0 551.1 157.7 551.1L157.7 551.1Q154.7 551.1 152.7 549.8Q150.7 548.5 150.2 546.0L150.2 546.0L153.1 545.3Q153.5 546.9 154.6 547.7Q155.8 548.4 157.6 548.4L157.6 548.4Q159.7 548.4 161.0 547.5Q162.2 546.6 162.2 545.4L162.2 545.4Q162.2 544.4 161.5 543.7Q160.8 543.0 159.3 542.6L159.3 542.6L156.0 541.8Q153.3 541.2 152.1 539.9Q150.8 538.5 150.8 536.5L150.8 536.5Q150.8 534.8 151.8 533.5Q152.7 532.3 154.3 531.5Q156.0 530.8 158.0 530.8L158.0 530.8Q160.9 530.8 162.6 532.1Q164.3 533.4 165.0 535.5ZM168.3 531.1L178.4 531.1L178.4 533.6L168.3 533.6L168.3 531.1ZM171.2 545.9L171.2 526.4L174.2 526.4L174.2 545.1Q174.2 546.3 174.6 547.0Q175.0 547.6 175.6 547.8Q176.2 548.0 176.9 548.0L176.9 548.0Q177.4 548.0 177.7 548.0Q178.0 547.9 178.2 547.9L178.2 547.9L178.8 550.6Q178.5 550.7 177.9 550.8Q177.4 551.0 176.5 551.0L176.5 551.0Q175.3 551.0 174.0 550.4Q172.8 549.9 172.0 548.7Q171.2 547.6 171.2 545.9L171.2 545.9Z M199.1 551.2L199.1 551.2Q197.2 551.2 195.7 550.4Q194.2 549.7 193.3 548.4Q192.4 547.0 192.4 545.1L192.4 545.1Q192.4 543.4 193.1 542.4Q193.7 541.3 194.8 540.7Q196.0 540.1 197.3 539.8Q198.6 539.5 200.0 539.3L200.0 539.3Q201.8 539.1 202.9 539.0Q204.0 538.9 204.6 538.6Q205.1 538.3 205.1 537.6L205.1 537.6L205.1 537.5Q205.1 535.6 204.1 534.5Q203.0 533.5 200.9 533.5L200.9 533.5Q198.8 533.5 197.5 534.4Q196.3 535.4 195.8 536.4L195.8 536.4L193.0 535.4Q193.7 533.6 195.0 532.6Q196.3 531.6 197.8 531.2Q199.4 530.8 200.8 530.8L200.8 530.8Q201.8 530.8 203.0 531.0Q204.2 531.3 205.4 531.9Q206.6 532.6 207.3 534.0Q208.1 535.4 208.1 537.8L208.1 537.8L208.1 550.7L205.1 550.7L205.1 548.0L204.9 548.0Q204.6 548.7 203.9 549.4Q203.2 550.1 202.0 550.6Q200.8 551.2 199.1 551.2ZM199.6 548.4L199.6 548.4Q201.3 548.4 202.6 547.7Q203.8 547.0 204.4 545.9Q205.1 544.8 205.1 543.6L205.1 543.6L205.1 540.8Q204.9 541.1 204.2 541.2Q203.6 541.4 202.8 541.6Q201.9 541.7 201.1 541.8Q200.3 541.9 199.9 542.0L199.9 542.0Q198.7 542.1 197.7 542.4Q196.7 542.8 196.0 543.5Q195.4 544.1 195.4 545.3L195.4 545.3Q195.4 546.8 196.6 547.6Q197.8 548.4 199.6 548.4ZM216.6 558.1L213.6 558.1L213.6 531.1L216.5 531.1L216.5 534.2L216.9 534.2Q217.2 533.7 217.8 532.9Q218.4 532.1 219.5 531.4Q220.7 530.8 222.6 530.8L222.6 530.8Q225.0 530.8 226.9 532.0Q228.8 533.3 229.9 535.6Q231.0 537.8 231.0 540.9L231.0 540.9Q231.0 544.0 229.9 546.3Q228.8 548.6 227.0 549.9Q225.1 551.1 222.6 551.1L222.6 551.1Q220.7 551.1 219.6 550.5Q218.5 549.8 217.8 549.0Q217.2 548.2 216.9 547.7L216.9 547.7L216.6 547.7L216.6 558.1ZM216.6 540.9L216.6 540.9Q216.6 543.1 217.2 544.8Q217.9 546.5 219.1 547.4Q220.4 548.4 222.2 548.4L222.2 548.4Q224.1 548.4 225.4 547.4Q226.6 546.4 227.3 544.7Q227.9 543.0 227.9 540.9L227.9 540.9Q227.9 538.8 227.3 537.1Q226.7 535.5 225.4 534.5Q224.1 533.5 222.2 533.5L222.2 533.5Q220.4 533.5 219.1 534.4Q217.9 535.4 217.2 537.0Q216.6 538.7 216.6 540.9ZM238.6 558.1L235.6 558.1L235.6 531.1L238.5 531.1L238.5 534.2L238.8 534.2Q239.2 533.7 239.8 532.9Q240.4 532.1 241.5 531.4Q242.6 530.8 244.5 530.8L244.5 530.8Q247.0 530.8 248.9 532.0Q250.8 533.3 251.8 535.6Q252.9 537.8 252.9 540.9L252.9 540.9Q252.9 544.0 251.8 546.3Q250.8 548.6 248.9 549.9Q247.0 551.1 244.6 551.1L244.6 551.1Q242.7 551.1 241.5 550.5Q240.4 549.8 239.8 549.0Q239.2 548.2 238.8 547.7L238.8 547.7L238.6 547.7L238.6 558.1ZM238.5 540.9L238.5 540.9Q238.5 543.1 239.2 544.8Q239.8 546.5 241.1 547.4Q242.3 548.4 244.1 548.4L244.1 548.4Q246.0 548.4 247.3 547.4Q248.6 546.4 249.2 544.7Q249.9 543.0 249.9 540.9L249.9 540.9Q249.9 538.8 249.2 537.1Q248.6 535.5 247.3 534.5Q246.1 533.5 244.1 533.5L244.1 533.5Q242.3 533.5 241.1 534.4Q239.8 535.4 239.2 537.0Q238.5 538.7 238.5 540.9ZM257.5 524.5L260.5 524.5L260.5 550.7L257.5 550.7L257.5 524.5ZM269.1 550.7L266.0 550.7L266.0 531.1L269.1 531.1L269.1 550.7ZM267.6 527.8L267.6 527.8Q266.7 527.8 266.1 527.2Q265.4 526.6 265.4 525.7L265.4 525.7Q265.4 524.9 266.1 524.3Q266.7 523.7 267.6 523.7L267.6 523.7Q268.5 523.7 269.1 524.3Q269.7 524.9 269.7 525.7L269.7 525.7Q269.7 526.6 269.1 527.2Q268.5 527.8 267.6 527.8ZM282.6 551.1L282.6 551.1Q279.8 551.1 277.8 549.8Q275.8 548.5 274.7 546.2Q273.7 543.9 273.7 541.0L273.7 541.0Q273.7 538.0 274.8 535.7Q275.9 533.4 277.9 532.1Q279.8 530.8 282.5 530.8L282.5 530.8Q284.6 530.8 286.2 531.6Q287.9 532.3 289.0 533.7Q290.0 535.1 290.3 536.9L290.3 536.9L287.3 536.9Q286.9 535.6 285.7 534.6Q284.5 533.5 282.6 533.5L282.6 533.5Q280.8 533.5 279.5 534.4Q278.1 535.3 277.4 537.0Q276.7 538.7 276.7 540.9L276.7 540.9Q276.7 543.2 277.4 544.8Q278.1 546.5 279.4 547.5Q280.8 548.4 282.6 548.4L282.6 548.4Q283.7 548.4 284.7 548.0Q285.6 547.6 286.3 546.8Q287.0 546.0 287.3 545.0L287.3 545.0L290.3 545.0Q290.0 546.7 289.0 548.1Q288.0 549.5 286.4 550.3Q284.7 551.1 282.6 551.1ZM300.4 551.2L300.4 551.2Q298.6 551.2 297.1 550.4Q295.5 549.7 294.6 548.4Q293.8 547.0 293.8 545.1L293.8 545.1Q293.8 543.4 294.4 542.4Q295.1 541.3 296.2 540.7Q297.3 540.1 298.7 539.8Q300.0 539.5 301.4 539.3L301.4 539.3Q303.2 539.1 304.3 539.0Q305.4 538.9 305.9 538.6Q306.4 538.3 306.4 537.6L306.4 537.6L306.4 537.5Q306.4 535.6 305.4 534.5Q304.4 533.5 302.3 533.5L302.3 533.5Q300.1 533.5 298.9 534.4Q297.7 535.4 297.2 536.4L297.2 536.4L294.3 535.4Q295.1 533.6 296.4 532.6Q297.6 531.6 299.2 531.2Q300.7 530.8 302.2 530.8L302.2 530.8Q303.1 530.8 304.4 531.0Q305.6 531.3 306.8 531.9Q307.9 532.6 308.7 534.0Q309.4 535.4 309.4 537.8L309.4 537.8L309.4 550.7L306.4 550.7L306.4 548.0L306.3 548.0Q306.0 548.7 305.3 549.4Q304.5 550.1 303.4 550.6Q302.2 551.2 300.4 551.2ZM300.9 548.4L300.9 548.4Q302.7 548.4 303.9 547.7Q305.2 547.0 305.8 545.9Q306.4 544.8 306.4 543.6L306.4 543.6L306.4 540.8Q306.2 541.1 305.6 541.2Q304.9 541.4 304.1 541.6Q303.3 541.7 302.5 541.8Q301.7 541.9 301.2 542.0L301.2 542.0Q300.0 542.1 299.0 542.4Q298.0 542.8 297.4 543.5Q296.8 544.1 296.8 545.3L296.8 545.3Q296.8 546.8 297.9 547.6Q299.1 548.4 300.9 548.4ZM313.3 531.1L323.5 531.1L323.5 533.6L313.3 533.6L313.3 531.1ZM316.3 545.9L316.3 526.4L319.3 526.4L319.3 545.1Q319.3 546.3 319.7 547.0Q320.1 547.6 320.7 547.8Q321.3 548.0 321.9 548.0L321.9 548.0Q322.4 548.0 322.7 548.0Q323.1 547.9 323.3 547.9L323.3 547.9L323.9 550.6Q323.6 550.7 323.0 550.8Q322.5 551.0 321.6 551.0L321.6 551.0Q320.3 551.0 319.1 550.4Q317.9 549.9 317.1 548.7Q316.3 547.6 316.3 545.9L316.3 545.9ZM331.1 550.7L328.1 550.7L328.1 531.1L331.1 531.1L331.1 550.7ZM329.6 527.8L329.6 527.8Q328.7 527.8 328.1 527.2Q327.4 526.6 327.4 525.7L327.4 525.7Q327.4 524.9 328.1 524.3Q328.7 523.7 329.6 523.7L329.6 523.7Q330.5 523.7 331.1 524.3Q331.7 524.9 331.7 525.7L331.7 525.7Q331.7 526.6 331.1 527.2Q330.5 527.8 329.6 527.8ZM344.6 551.1L344.6 551.1Q341.9 551.1 339.9 549.8Q337.9 548.6 336.8 546.3Q335.7 544.0 335.7 541.0L335.7 541.0Q335.7 537.9 336.8 535.6Q337.9 533.3 339.9 532.1Q341.9 530.8 344.6 530.8L344.6 530.8Q347.2 530.8 349.2 532.1Q351.2 533.3 352.4 535.6Q353.5 537.9 353.5 541.0L353.5 541.0Q353.5 544.0 352.4 546.3Q351.2 548.6 349.2 549.8Q347.2 551.1 344.6 551.1ZM344.6 548.4L344.6 548.4Q346.6 548.4 347.9 547.4Q349.2 546.3 349.8 544.6Q350.5 542.9 350.5 541.0L350.5 541.0Q350.5 539.0 349.8 537.3Q349.2 535.6 347.9 534.6Q346.6 533.5 344.6 533.5L344.6 533.5Q342.6 533.5 341.3 534.6Q340.0 535.6 339.3 537.3Q338.7 539.0 338.7 541.0L338.7 541.0Q338.7 542.9 339.3 544.6Q340.0 546.3 341.3 547.4Q342.6 548.4 344.6 548.4ZM361.1 538.9L361.1 538.9L361.1 550.7L358.1 550.7L358.1 531.1L361.0 531.1L361.0 534.1L361.3 534.1Q361.9 532.6 363.3 531.7Q364.8 530.8 367.0 530.8L367.0 530.8Q369.0 530.8 370.5 531.6Q372.0 532.4 372.8 534.1Q373.6 535.7 373.6 538.2L373.6 538.2L373.6 550.7L370.6 550.7L370.6 538.4Q370.6 536.1 369.4 534.8Q368.2 533.5 366.1 533.5L366.1 533.5Q364.7 533.5 363.5 534.1Q362.4 534.8 361.7 536.0Q361.1 537.2 361.1 538.9Z M387.4 531.1L398.0 531.1L398.0 533.6L387.4 533.6L387.4 531.1ZM393.6 550.7L390.6 550.7L390.6 528.3Q390.6 526.7 391.4 525.5Q392.2 524.4 393.5 523.8Q394.7 523.3 396.1 523.3L396.1 523.3Q397.2 523.3 397.9 523.5Q398.6 523.6 399.0 523.8L399.0 523.8L398.1 526.4Q397.9 526.3 397.5 526.2Q397.1 526.1 396.4 526.1L396.4 526.1Q394.9 526.1 394.3 526.9Q393.6 527.6 393.6 529.1L393.6 529.1L393.6 550.7ZM409.4 551.1L409.4 551.1Q406.8 551.1 404.8 549.8Q402.8 548.6 401.6 546.3Q400.5 544.0 400.5 541.0L400.5 541.0Q400.5 537.9 401.6 535.6Q402.8 533.3 404.8 532.1Q406.8 530.8 409.4 530.8L409.4 530.8Q412.1 530.8 414.1 532.1Q416.1 533.3 417.2 535.6Q418.3 537.9 418.3 541.0L418.3 541.0Q418.3 544.0 417.2 546.3Q416.1 548.6 414.1 549.8Q412.1 551.1 409.4 551.1ZM409.4 548.4L409.4 548.4Q411.4 548.4 412.7 547.4Q414.0 546.3 414.7 544.6Q415.3 542.9 415.3 541.0L415.3 541.0Q415.3 539.0 414.7 537.3Q414.0 535.6 412.7 534.6Q411.4 533.5 409.4 533.5L409.4 533.5Q407.4 533.5 406.1 534.6Q404.8 535.6 404.2 537.3Q403.5 539.0 403.5 541.0L403.5 541.0Q403.5 542.9 404.2 544.6Q404.8 546.3 406.1 547.4Q407.4 548.4 409.4 548.4ZM425.9 550.7L422.9 550.7L422.9 531.1L425.8 531.1L425.8 534.0L426.0 534.0Q426.6 532.6 428.0 531.7Q429.4 530.8 431.2 530.8L431.2 530.8Q431.5 530.8 432.0 530.8Q432.5 530.8 432.7 530.8L432.7 530.8L432.7 533.9Q432.6 533.8 432.0 533.8Q431.5 533.7 430.9 533.7L430.9 533.7Q429.5 533.7 428.3 534.3Q427.2 534.9 426.6 535.9Q425.9 536.9 425.9 538.3L425.9 538.3L425.9 550.7Z M461.2 535.5L461.2 535.5L458.5 536.2Q458.2 535.5 457.7 534.9Q457.2 534.3 456.4 533.8Q455.5 533.4 454.2 533.4L454.2 533.4Q452.4 533.4 451.2 534.2Q450.0 535.1 450.0 536.3L450.0 536.3Q450.0 537.5 450.8 538.1Q451.7 538.8 453.4 539.2L453.4 539.2L456.3 539.9Q458.9 540.5 460.2 541.9Q461.5 543.2 461.5 545.2L461.5 545.2Q461.5 546.9 460.6 548.2Q459.6 549.6 457.9 550.3Q456.1 551.1 453.9 551.1L453.9 551.1Q450.9 551.1 448.9 549.8Q446.9 548.5 446.4 546.0L446.4 546.0L449.3 545.3Q449.7 546.9 450.8 547.7Q452.0 548.4 453.8 548.4L453.8 548.4Q455.9 548.4 457.2 547.5Q458.4 546.6 458.4 545.4L458.4 545.4Q458.4 544.4 457.7 543.7Q457.0 543.0 455.5 542.6L455.5 542.6L452.2 541.8Q449.5 541.2 448.3 539.9Q447.0 538.5 447.0 536.5L447.0 536.5Q447.0 534.8 447.9 533.5Q448.9 532.3 450.5 531.5Q452.1 530.8 454.2 530.8L454.2 530.8Q457.1 530.8 458.8 532.1Q460.5 533.4 461.2 535.5ZM469.1 538.9L469.1 538.9L469.1 550.7L466.1 550.7L466.1 531.1L469.0 531.1L469.0 534.1L469.3 534.1Q469.9 532.6 471.3 531.7Q472.8 530.8 475.0 530.8L475.0 530.8Q477.0 530.8 478.5 531.6Q480.0 532.4 480.8 534.1Q481.6 535.7 481.6 538.2L481.6 538.2L481.6 550.7L478.6 550.7L478.6 538.4Q478.6 536.1 477.4 534.8Q476.2 533.5 474.1 533.5L474.1 533.5Q472.7 533.5 471.5 534.1Q470.4 534.8 469.7 536.0Q469.1 537.2 469.1 538.9ZM492.9 551.2L492.9 551.2Q491.1 551.2 489.5 550.4Q488.0 549.7 487.1 548.4Q486.2 547.0 486.2 545.1L486.2 545.1Q486.2 543.4 486.9 542.4Q487.6 541.3 488.7 540.7Q489.8 540.1 491.1 539.8Q492.5 539.5 493.8 539.3L493.8 539.3Q495.6 539.1 496.8 539.0Q497.9 538.9 498.4 538.6Q498.9 538.3 498.9 537.6L498.9 537.6L498.9 537.5Q498.9 535.6 497.9 534.5Q496.9 533.5 494.8 533.5L494.8 533.5Q492.6 533.5 491.4 534.4Q490.2 535.4 489.7 536.4L489.7 536.4L486.8 535.4Q487.6 533.6 488.8 532.6Q490.1 531.6 491.7 531.2Q493.2 530.8 494.7 530.8L494.7 530.8Q495.6 530.8 496.8 531.0Q498.1 531.3 499.2 531.9Q500.4 532.6 501.2 534.0Q501.9 535.4 501.9 537.8L501.9 537.8L501.9 550.7L498.9 550.7L498.9 548.0L498.8 548.0Q498.4 548.7 497.7 549.4Q497.0 550.1 495.8 550.6Q494.6 551.2 492.9 551.2ZM493.4 548.4L493.4 548.4Q495.2 548.4 496.4 547.7Q497.6 547.0 498.3 545.9Q498.9 544.8 498.9 543.6L498.9 543.6L498.9 540.8Q498.7 541.1 498.1 541.2Q497.4 541.4 496.6 541.6Q495.8 541.7 495.0 541.8Q494.2 541.9 493.7 542.0L493.7 542.0Q492.5 542.1 491.5 542.4Q490.5 542.8 489.9 543.5Q489.2 544.1 489.2 545.3L489.2 545.3Q489.2 546.8 490.4 547.6Q491.6 548.4 493.4 548.4ZM510.5 558.1L507.4 558.1L507.4 531.1L510.4 531.1L510.4 534.2L510.7 534.2Q511.1 533.7 511.6 532.9Q512.2 532.1 513.4 531.4Q514.5 530.8 516.4 530.8L516.4 530.8Q518.9 530.8 520.8 532.0Q522.7 533.3 523.7 535.6Q524.8 537.8 524.8 540.9L524.8 540.9Q524.8 544.0 523.7 546.3Q522.7 548.6 520.8 549.9Q518.9 551.1 516.4 551.1L516.4 551.1Q514.6 551.1 513.4 550.5Q512.3 549.8 511.7 549.0Q511.1 548.2 510.7 547.7L510.7 547.7L510.5 547.7L510.5 558.1ZM510.4 540.9L510.4 540.9Q510.4 543.1 511.1 544.8Q511.7 546.5 513.0 547.4Q514.2 548.4 516.0 548.4L516.0 548.4Q517.9 548.4 519.2 547.4Q520.5 546.4 521.1 544.7Q521.8 543.0 521.8 540.9L521.8 540.9Q521.8 538.8 521.1 537.1Q520.5 535.5 519.2 534.5Q518.0 533.5 516.0 533.5L516.0 533.5Q514.2 533.5 512.9 534.4Q511.7 535.4 511.1 537.0Q510.4 538.7 510.4 540.9ZM543.3 535.5L543.3 535.5L540.6 536.2Q540.3 535.5 539.8 534.9Q539.3 534.3 538.5 533.8Q537.7 533.4 536.3 533.4L536.3 533.4Q534.5 533.4 533.3 534.2Q532.1 535.1 532.1 536.3L532.1 536.3Q532.1 537.5 533.0 538.1Q533.8 538.8 535.5 539.2L535.5 539.2L538.4 539.9Q541.1 540.5 542.4 541.9Q543.7 543.2 543.7 545.2L543.7 545.2Q543.7 546.9 542.7 548.2Q541.7 549.6 540.0 550.3Q538.3 551.1 536.0 551.1L536.0 551.1Q533.0 551.1 531.0 549.8Q529.0 548.5 528.5 546.0L528.5 546.0L531.4 545.3Q531.8 546.9 532.9 547.7Q534.1 548.4 535.9 548.4L535.9 548.4Q538.0 548.4 539.3 547.5Q540.5 546.6 540.5 545.4L540.5 545.4Q540.5 544.4 539.8 543.7Q539.1 543.0 537.6 542.6L537.6 542.6L534.3 541.8Q531.6 541.2 530.4 539.9Q529.1 538.5 529.1 536.5L529.1 536.5Q529.1 534.8 530.1 533.5Q531.0 532.3 532.6 531.5Q534.3 530.8 536.3 530.8L536.3 530.8Q539.3 530.8 540.9 532.1Q542.6 533.4 543.3 535.5ZM551.2 538.9L551.2 538.9L551.2 550.7L548.2 550.7L548.2 524.5L551.2 524.5L551.2 534.1L551.5 534.1Q552.2 532.6 553.6 531.7Q554.9 530.8 557.3 530.8L557.3 530.8Q559.3 530.8 560.8 531.6Q562.3 532.4 563.1 534.0Q564.0 535.7 564.0 538.2L564.0 538.2L564.0 550.7L560.9 550.7L560.9 538.4Q560.9 536.1 559.7 534.8Q558.5 533.5 556.4 533.5L556.4 533.5Q554.9 533.5 553.7 534.1Q552.6 534.8 551.9 536.0Q551.2 537.2 551.2 538.9ZM577.5 551.1L577.5 551.1Q574.8 551.1 572.8 549.8Q570.8 548.6 569.7 546.3Q568.6 544.0 568.6 541.0L568.6 541.0Q568.6 537.9 569.7 535.6Q570.8 533.3 572.8 532.1Q574.8 530.8 577.5 530.8L577.5 530.8Q580.1 530.8 582.1 532.1Q584.1 533.3 585.2 535.6Q586.4 537.9 586.4 541.0L586.4 541.0Q586.4 544.0 585.2 546.3Q584.1 548.6 582.1 549.8Q580.1 551.1 577.5 551.1ZM577.5 548.4L577.5 548.4Q579.5 548.4 580.8 547.4Q582.1 546.3 582.7 544.6Q583.3 542.9 583.3 541.0L583.3 541.0Q583.3 539.0 582.7 537.3Q582.1 535.6 580.8 534.6Q579.5 533.5 577.5 533.5L577.5 533.5Q575.4 533.5 574.1 534.6Q572.8 535.6 572.2 537.3Q571.6 539.0 571.6 541.0L571.6 541.0Q571.6 542.9 572.2 544.6Q572.8 546.3 574.1 547.4Q575.4 548.4 577.5 548.4ZM589.3 531.1L599.5 531.1L599.5 533.6L589.3 533.6L589.3 531.1ZM592.3 545.9L592.3 526.4L595.3 526.4L595.3 545.1Q595.3 546.3 595.7 547.0Q596.1 547.6 596.6 547.8Q597.2 548.0 597.9 548.0L597.9 548.0Q598.4 548.0 598.7 548.0Q599.0 547.9 599.2 547.9L599.2 547.9L599.9 550.6Q599.5 550.7 599.0 550.8Q598.4 551.0 597.6 551.0L597.6 551.0Q596.3 551.0 595.1 550.4Q593.9 549.9 593.1 548.7Q592.3 547.6 592.3 545.9L592.3 545.9Z M612.5 531.1L622.7 531.1L622.7 533.6L612.5 533.6L612.5 531.1ZM615.5 545.9L615.5 526.4L618.5 526.4L618.5 545.1Q618.5 546.3 618.9 547.0Q619.3 547.6 619.9 547.8Q620.5 548.0 621.1 548.0L621.1 548.0Q621.6 548.0 621.9 548.0Q622.3 547.9 622.5 547.9L622.5 547.9L623.1 550.6Q622.8 550.7 622.2 550.8Q621.7 551.0 620.8 551.0L620.8 551.0Q619.5 551.0 618.3 550.4Q617.1 549.9 616.3 548.7Q615.5 547.6 615.5 545.9L615.5 545.9ZM635.3 551.1L635.3 551.1Q632.5 551.1 630.4 549.8Q628.3 548.6 627.2 546.3Q626.1 544.0 626.1 541.0L626.1 541.0Q626.1 538.0 627.2 535.7Q628.3 533.4 630.3 532.1Q632.3 530.8 635.0 530.8L635.0 530.8Q636.5 530.8 638.0 531.3Q639.5 531.8 640.7 533.0Q642.0 534.1 642.7 536.0Q643.4 537.9 643.4 540.6L643.4 540.6L643.4 541.9L628.3 541.9L628.3 539.3L640.4 539.3Q640.4 537.6 639.7 536.3Q639.0 535.0 637.8 534.3Q636.6 533.5 635.0 533.5L635.0 533.5Q633.2 533.5 631.9 534.4Q630.6 535.3 629.9 536.7Q629.2 538.1 629.2 539.8L629.2 539.8L629.2 541.5Q629.2 543.7 629.9 545.3Q630.7 546.8 632.1 547.6Q633.5 548.4 635.3 548.4L635.3 548.4Q636.5 548.4 637.4 548.1Q638.4 547.7 639.1 547.0Q639.8 546.3 640.2 545.3L640.2 545.3L643.1 546.1Q642.7 547.6 641.6 548.7Q640.5 549.9 638.9 550.5Q637.3 551.1 635.3 551.1ZM661.9 535.5L661.9 535.5L659.2 536.2Q659.0 535.5 658.5 534.9Q658.0 534.3 657.1 533.8Q656.3 533.4 655.0 533.4L655.0 533.4Q653.2 533.4 652.0 534.2Q650.8 535.1 650.8 536.3L650.8 536.3Q650.8 537.5 651.6 538.1Q652.4 538.8 654.2 539.2L654.2 539.2L657.1 539.9Q659.7 540.5 661.0 541.9Q662.3 543.2 662.3 545.2L662.3 545.2Q662.3 546.9 661.3 548.2Q660.4 549.6 658.6 550.3Q656.9 551.1 654.6 551.1L654.6 551.1Q651.6 551.1 649.6 549.8Q647.7 548.5 647.2 546.0L647.2 546.0L650.0 545.3Q650.4 546.9 651.6 547.7Q652.7 548.4 654.6 548.4L654.6 548.4Q656.7 548.4 657.9 547.5Q659.2 546.6 659.2 545.4L659.2 545.4Q659.2 544.4 658.5 543.7Q657.7 543.0 656.3 542.6L656.3 542.6L653.0 541.8Q650.3 541.2 649.0 539.9Q647.8 538.5 647.8 536.5L647.8 536.5Q647.8 534.8 648.7 533.5Q649.6 532.3 651.3 531.5Q652.9 530.8 655.0 530.8L655.0 530.8Q657.9 530.8 659.6 532.1Q661.2 533.4 661.9 535.5ZM665.2 531.1L675.4 531.1L675.4 533.6L665.2 533.6L665.2 531.1ZM668.2 545.9L668.2 526.4L671.2 526.4L671.2 545.1Q671.2 546.3 671.6 547.0Q671.9 547.6 672.5 547.8Q673.1 548.0 673.8 548.0L673.8 548.0Q674.3 548.0 674.6 548.0Q674.9 547.9 675.1 547.9L675.1 547.9L675.7 550.6Q675.4 550.7 674.9 550.8Q674.3 551.0 673.5 551.0L673.5 551.0Q672.2 551.0 671.0 550.4Q669.8 549.9 669.0 548.7Q668.2 547.6 668.2 545.9L668.2 545.9ZM682.9 550.7L679.9 550.7L679.9 531.1L682.9 531.1L682.9 550.7ZM681.5 527.8L681.5 527.8Q680.6 527.8 680.0 527.2Q679.3 526.6 679.3 525.7L679.3 525.7Q679.3 524.9 680.0 524.3Q680.6 523.7 681.5 523.7L681.5 523.7Q682.3 523.7 683.0 524.3Q683.6 524.9 683.6 525.7L683.6 525.7Q683.6 526.6 683.0 527.2Q682.3 527.8 681.5 527.8ZM691.5 538.9L691.5 538.9L691.5 550.7L688.5 550.7L688.5 531.1L691.4 531.1L691.4 534.1L691.6 534.1Q692.3 532.6 693.7 531.7Q695.1 530.8 697.4 530.8L697.4 530.8Q699.4 530.8 700.9 531.6Q702.4 532.4 703.2 534.1Q704.0 535.7 704.0 538.2L704.0 538.2L704.0 550.7L701.0 550.7L701.0 538.4Q701.0 536.1 699.8 534.8Q698.6 533.5 696.5 533.5L696.5 533.5Q695.1 533.5 693.9 534.1Q692.8 534.8 692.1 536.0Q691.5 537.2 691.5 538.9ZM717.5 558.5L717.5 558.5Q715.3 558.5 713.7 557.9Q712.1 557.4 711.1 556.5Q710.1 555.6 709.4 554.5L709.4 554.5L711.8 552.8Q712.3 553.4 712.9 554.1Q713.5 554.8 714.6 555.3Q715.7 555.8 717.5 555.8L717.5 555.8Q719.8 555.8 721.4 554.7Q722.9 553.5 722.9 551.1L722.9 551.1L722.9 547.1L722.7 547.1Q722.3 547.6 721.7 548.4Q721.1 549.2 720.0 549.8Q718.9 550.4 717.0 550.4L717.0 550.4Q714.6 550.4 712.7 549.3Q710.8 548.1 709.7 546.0Q708.6 543.8 708.6 540.8L708.6 540.8Q708.6 537.8 709.7 535.5Q710.7 533.3 712.6 532.0Q714.5 530.8 717.0 530.8L717.0 530.8Q718.9 530.8 720.1 531.4Q721.2 532.1 721.8 532.9Q722.4 533.7 722.7 534.2L722.7 534.2L723.0 534.2L723.0 531.1L726.0 531.1L726.0 551.3Q726.0 553.8 724.8 555.4Q723.7 557.0 721.7 557.7Q719.8 558.5 717.5 558.5ZM717.4 547.7L717.4 547.7Q719.2 547.7 720.4 546.8Q721.7 546.0 722.3 544.5Q723.0 542.9 723.0 540.7L723.0 540.7Q723.0 538.6 722.3 537.0Q721.7 535.4 720.5 534.4Q719.2 533.5 717.4 533.5L717.4 533.5Q715.4 533.5 714.2 534.5Q712.9 535.5 712.3 537.1Q711.6 538.7 711.6 540.7L711.6 540.7Q711.6 542.8 712.3 544.3Q712.9 545.9 714.2 546.8Q715.5 547.7 717.4 547.7Z "/></svg>