<?xml version="1.0" encoding="utf-8"?>
<!-- Generator: Adobe Illustrator 23.0.1, SVG Export Plug-In . SVG Version: 6.00 Build 0)  -->
<svg version="1.1" id="Layer_1" xmlns="http://www.w3.org/2000/svg" xmlns:xlink="http://www.w3.org/1999/xlink" x="0px" y="0px"
	 viewBox="0 0 51.4 107.71" style="enable-background:new 0 0 51.4 107.71;" xml:space="preserve">
<style type="text/css">
	.st0{fill:#23A47F;}
</style>
<g>
	<path class="st0" d="M44.9,32c0,5.2-2.2,9.8-5.8,13.4c-4,4-9.8,5-9.8,8.4c0,4.6,7.4,3.2,14.5,10.3c4.7,4.7,7.6,10.9,7.6,18.1
		c0,14.2-11.4,25.5-25.7,25.5S0,96.4,0,82.21C0,75,2.9,68.8,7.6,64.1c7.1-7.1,14.5-5.7,14.5-10.3c0-3.4-5.8-4.4-9.8-8.4
		c-3.6-3.6-5.8-8.2-5.8-13.6C6.5,21.4,15,13,25.4,13c2,0,3.8,0.3,5.3,0.3c2.7,0,4.1-1.2,4.1-3.1c0-1.1-0.5-2.5-0.5-4
		c0-3.4,2.9-6.2,6.4-6.2C44.2,0,47,2.9,47,6.4c0,3.7-2.9,5.4-5.1,6.2c-1.8,0.6-3.2,1.4-3.2,3.2C38.7,19.2,44.9,22.5,44.9,32z
		 M42.9,82.21c0-9.9-7.3-17.9-17.2-17.9c-9.9,0-17.2,8-17.2,17.9c0,9.8,7.3,17.9,17.2,17.9C35.6,100.11,42.9,92,42.9,82.21z
		 M37,31.8c0-6.3-5.1-11.5-11.3-11.5s-11.3,5.2-11.3,11.5s5.1,11.5,11.3,11.5S37,38.1,37,31.8z"/>
</g>
</svg>
