<svg width="62" height="58" viewBox="0 0 62 58" fill="none" xmlns="http://www.w3.org/2000/svg">
<path d="M3.90676 11.7682C0.331514 15.5535 -0.904363 20.8542 2.31152 24.925C4.55796 27.7688 8.12817 28.9722 11.4731 28.3502C25.0725 15.2446 38.1409 10.9884 48.1289 10.1525C49.6733 10.0233 51.1425 9.97591 52.5271 9.98991C55.2643 7.11068 58.346 4.54111 61.7196 2.35078L61.7443 2.28935C61.7443 2.28935 47.1718 -1.08376 32.9863 0.929534C20.5999 2.68751 8.38054 7.03215 3.90676 11.7682Z" fill="url(#paint0_linear_1303_1047)"/>
<path d="M13.9571 39.6669C11.2816 36.28 11.3264 31.6336 13.7764 28.3277C26.6775 16.3673 38.9317 12.4894 48.26 11.7088L50.7032 12.0128C46.1398 17.3558 42.6942 23.6199 40.6579 30.4189C37.9724 31.1454 35.321 32.4756 32.801 34.2211C29.4853 36.5177 26.3539 39.561 23.607 42.988C20.1257 43.8278 16.3134 42.6495 13.9571 39.6669Z" fill="url(#paint1_linear_1303_1047)"/>
<path d="M24.7519 44.0672C24.5613 44.4084 24.3899 44.7653 24.2397 45.1369C22.2998 49.9396 24.6453 55.3958 29.4789 57.3235C31.0785 57.9616 32.7496 58.1333 34.3407 57.9032C35.9331 57.6814 37.4896 57.0516 38.8456 55.9941C39.1282 55.7738 39.3946 55.5405 39.6449 55.296C39.4201 54.2267 39.2282 53.1435 39.0705 52.047C38.0873 45.208 38.525 38.4931 40.1611 32.1969C37.9955 32.9019 35.8236 34.0315 33.7003 35.5022C30.4914 37.7248 27.4375 40.6986 24.7519 44.0672Z" fill="url(#paint2_linear_1303_1047)"/>
<defs>
<linearGradient id="paint0_linear_1303_1047" x1="57.8884" y1="7.12205" x2="-11.0432" y2="37.0341" gradientUnits="userSpaceOnUse">
<stop stop-color="#FFB6BE"/>
<stop offset="0.113339" stop-color="#FA6753"/>
<stop offset="0.432815" stop-color="#F50058"/>
<stop offset="0.61187" stop-color="#F50081"/>
<stop offset="0.77952" stop-color="#C71FD6"/>
</linearGradient>
<linearGradient id="paint1_linear_1303_1047" x1="57.8876" y1="7.12205" x2="-11.0441" y2="37.0341" gradientUnits="userSpaceOnUse">
<stop stop-color="#FFB6BE"/>
<stop offset="0.113339" stop-color="#FA6753"/>
<stop offset="0.432815" stop-color="#F50058"/>
<stop offset="0.61187" stop-color="#F50081"/>
<stop offset="0.77952" stop-color="#C71FD6"/>
</linearGradient>
<linearGradient id="paint2_linear_1303_1047" x1="57.8879" y1="7.12206" x2="-11.0437" y2="37.0341" gradientUnits="userSpaceOnUse">
<stop stop-color="#FFB6BE"/>
<stop offset="0.113339" stop-color="#FA6753"/>
<stop offset="0.432815" stop-color="#F50058"/>
<stop offset="0.61187" stop-color="#F50081"/>
<stop offset="0.77952" stop-color="#C71FD6"/>
</linearGradient>
</defs>
</svg>
