<svg width="1024" height="1024" viewBox="0 0 1024 1024" fill="none" xmlns="http://www.w3.org/2000/svg">
<rect width="1024" height="1024" fill="#2E2E2E"/>
<rect x="195" y="264" width="523.754" height="497" rx="100" fill="#8BABF3"/>
<path d="M757.513 529.446L757.513 664.506C757.513 670.872 761.531 676.544 767.536 678.656L855.023 709.426C864.78 712.858 875 705.618 875 695.276L875 529.446L875 363.033C875 352.858 865.084 345.635 855.399 348.756L767.911 376.954C761.714 378.951 757.513 384.719 757.513 391.23L757.513 529.446Z" fill="#8BABF3"/>
<path d="M522.081 507.15C534.99 514.924 534.99 533.641 522.081 541.415L426.825 598.784C413.495 606.813 396.507 597.212 396.507 581.652L396.507 466.913C396.507 451.352 413.495 441.752 426.825 449.78L522.081 507.15Z" fill="#2E2E2E"/>
</svg>
