<?xml version="1.0" encoding="utf-8"?>
<svg version="1.1" xmlns="http://www.w3.org/2000/svg" viewBox="0 0 513 342">
<rect y="0" fill="#DB3E00" width="513" height="342"/>
<rect x="331" y="0" fill="#479900" width="182" height="342"/>
<rect y="0" width="181.8" height="342"/>
<path fill="#FFFFFF" d="M256,126.7c-19.4,0-35.2,15.8-35.2,35.2v52.8h70.4v-52.8C291.2,142.4,275.4,126.7,256,126.7z"/>
<path fill="#FFFFFF" d="M256,84.3c-47.7,0-86.4,38.7-86.4,86.4S208.3,257,256,257c47.7,0,86.4-38.7,86.4-86.4S303.7,84.3,256,84.3z
	 M256,242c-39.4,0-71.4-32-71.4-71.4c0-39.4,32-71.4,71.4-71.4c39.4,0,71.4,32,71.4,71.4C327.4,210.1,295.4,242,256,242z"/>
</svg>
