<?xml version="1.0" encoding="utf-8"?>
<svg version="1.1" xmlns="http://www.w3.org/2000/svg" viewBox="0 0 90 60">
<rect x="0" fill="#ED2024" width="90" height="60"/>
<polygon fill="#212121" points="32.5,12.2 32.5,28.2 39.6,30.7 34.6,35.6 37,38.6 42.3,33.1 43.5,35.4 40.5,40.3 44.1,45.9 42.3,48.5
	45.1,52.1 47.8,48.4 46.3,45.8 49.3,40 46.6,35.4 47.8,33.1 53,38.6 55.5,35.7 50.3,30.6 57.5,28 57.5,12.2 52.3,14.1 52.2,17.9
	48.9,18.2 48.9,15.6 50.6,13.3 56.2,11.1 53.9,10.7 55.3,9.5 56.2,9.9 55.4,8.5 54,9 53,7.9 47.5,9 48.9,10.1 45.1,15 41.3,10.2
	42.6,9.1 37.6,7.9 36.2,9 34.7,8.6 33.9,10 34.8,9.4 36.4,10.5 34.1,11 39.6,13 41.2,15.3 41.2,18.2 37.9,17.9 37.9,14.3 "/>
<g>
	<rect x="26.2" y="25" fill="#212121" width="6.4" height="2.5"/>
	<rect x="26.2" y="20.9" fill="#212121" width="6.4" height="2.7"/>
	<rect x="26.2" y="16.7" fill="#212121" width="6.4" height="2.6"/>
	<rect x="26.2" y="12.7" fill="#212121" width="6.4" height="2.5"/>
</g>
<g>
	<rect x="57.4" y="25" fill="#212121" width="6.4" height="2.5"/>
	<rect x="57.4" y="20.9" fill="#212121" width="6.4" height="2.7"/>
	<rect x="57.4" y="16.7" fill="#212121" width="6.4" height="2.6"/>
	<rect x="57.4" y="12.7" fill="#212121" width="6.4" height="2.5"/>
</g>
<rect x="53.4" y="36.1" fill="#212121" width="6.4" height="1.9"/>
<rect x="30.2" y="36.1" fill="#212121" width="6.4" height="1.9"/>
</svg>
