<?xml version="1.0" encoding="utf-8"?>
<svg version="1.1" xmlns="http://www.w3.org/2000/svg" viewBox="0 0 513 342">
<rect fill="#000000" y="171" width="513" height="171"/>
<rect fill="#D80027" class="st0" width="513" height="171"/>
<g fill="#FFDA44">
  <polygon points="332.7,135.6 350.2,127 342.8,108 324.1,114.2 "/>
  <polygon points="287.1,79.6 292.6,60.8 273.5,53.6 265.5,71.6 "/>
  <polygon points="316.5,102.8 328.7,87.5 313.8,73.6 299.6,87.2 "/>
  <polygon points="335.9,171.7 355.4,170.9 355.4,149.6 332.5,149.8 "/>
  <polygon points="323.3,209.8 342.1,215.3 349.4,196.3 331.4,188.3 "/>
  <polygon points="294.3,242.2 309.2,254.9 323.6,240.5 310.5,225.8 "/>
  <polygon points="247.3,94.5 257.1,114.4 279,117.7 263.1,133.2 266.7,155.1 247.1,144.7 227.4,154.9 231.2,133
  	215.4,117.5 237.4,114.4 "/>
  <path d="M250.8,61.3l-2.7,18.3c43.1,3.2,77,39.2,77,83.1c0,46-37.3,82.9-83.4,83.4c-29.2,0.3-51.3-14.8-67-33.7
  	l-13.9,12.3c15,19,40.8,39.9,80.9,39.9c56.3,0,101.9-45.6,101.9-101.9C343.7,109.5,302.9,65.8,250.8,61.3z"/>
  <path fill="#000000" d="M291.9,223.4l-11.8,14c0,0,51.9,38.9,53.6,40.4c1.7,1.5,5.2,2,9.1-2.7c3.7-4.5,2.8-8.1,0.9-9.7
  C341.7,263.9,291.9,223.4,291.9,223.4z"/>
  <path d="M206.1,157.2c-7.7,10.3-7.5,23.1,2.8,30.9c0,0,135.2,101.5,136.9,103c1.7,1.5,5.2,2,9.1-2.7
  	c3.7-4.5,2.8-8.1,0.9-9.7C353.9,277.2,206.1,157.2,206.1,157.2z"/>
  <polygon points="253.8,256.3 261.1,274.5 280.6,268.5 275.8,249.4 "/>
  <polygon points="213.4,252.6 211.4,272.1 231.5,275.7 236,256.6 "/>
  <polygon points="177.7,231.4 167.4,248 183.8,260.1 196.3,244.9 "/>
</g>
</svg>
