<?xml version="1.0" encoding="utf-8"?>
<svg version="1.1" xmlns="http://www.w3.org/2000/svg" viewBox="0 0 513 342">
<rect fill="#10338c" width="513" height="342"/>
<polygon fill="#D80027" points="513,33 95.3,171 513,310.76 513,342 0,171 513,0 "/>
<polyline fill="#FFFFFF" points="513,287.18 513,311.76 81.72,171 513,30 513,54.16 "/>
<path fill="#A2001D" d="M476.98,140.21l-21.89,10.68l-3.18-15.32l31.19-29.77c0,0-9.42-40.65-13.75-44.98l-112.32,55.82l-6.84,36.76
	l-31.9,28.59l-0.4,34.2l34.29-22.76l67.23-2.66l-1.51,38.11h22.23l11.9-44.64l31.55-24.61L476.98,140.21z"/>
<polygon fill="#EFC100" stroke="#231F20" stroke-miterlimit="10" points="317.89,238.41 295.65,227.3 317.89,216.19 462.35,216.19 462.35,238.41 "/>
</svg>
