<?xml version="1.0" encoding="utf-8"?>
<svg version="1.1" xmlns="http://www.w3.org/2000/svg" viewBox="0 0 513 342">
<rect fill="#10338c" width="513" height="342"/>
<g fill="#FFFFFF">
	<path d="M222.2,170.7c0.3-0.3,0.5-0.6,0.8-0.9C222.8,170.1,222.5,170.4,222.2,170.7L222.2,170.7z"/>
	<polygon points="188,212.6 199,235.5 223.7,229.8 212.7,252.6 232.6,268.4 207.8,274 207.9,299.4 188,283.5
		168.2,299.4 168.3,274 143.5,268.4 163.4,252.6 152.3,229.8 177.1,235.5 	"/>
	<polygon points="385.9,241.1 391.1,252 402.9,249.3 397.6,260.2 407.1,267.7 395.3,270.3 395.3,282.5 385.9,274.9
		376.4,282.5 376.5,270.3 364.7,267.7 374.2,260.2 368.9,249.3 380.7,252 	"/>
	<polygon points="337.3,125.1 342.5,136 354.3,133.3 349,144.2 358.5,151.7 346.7,154.4 346.7,166.5 337.3,158.9
		327.8,166.5 327.9,154.4 316,151.7 325.5,144.2 320.2,133.3 332,136 	"/>
	<polygon points="385.9,58.9 391.1,69.8 402.9,67.1 397.6,78 407.1,85.5 395.3,88.2 395.3,100.3 385.9,92.7
		376.4,100.3 376.5,88.2 364.7,85.5 374.2,78 368.9,67.1 380.7,69.8 	"/>
	<polygon points="428.4,108.6 433.6,119.5 445.4,116.8 440.1,127.7 449.6,135.2 437.8,137.8 437.8,150 428.4,142.4
		418.9,150 418.9,137.8 407.1,135.2 416.6,127.7 411.3,116.8 423.1,119.5 	"/>
	<polygon points="398,166.5 402.1,179.2 415.4,179.2 404.6,187 408.8,199.7 398,191.8 387.2,199.7 391.3,187
		380.6,179.2 393.9,179.2 	"/>
	<polygon points="254.8,0 254.8,30.6 209.7,55.7 254.8,55.7 254.8,115 195.7,115 254.8,147.8 254.8,170.7 228.1,170.7
		154.6,129.8 154.6,170.7 99,170.7 99,122.1 11.6,170.7 -1.2,170.7 -1.2,140.1 44,115 -1.2,115 -1.2,55.7 57.9,55.7 -1.2,22.8
		-1.2,0 25.5,0 99,40.8 99,0 154.6,0 154.6,48.6 242.1,0 	"/>
</g>
<polygon fill="#D80027" points="142.8,0 110.8,0 110.8,69.3 -1.2,69.3 -1.2,101.3 110.8,101.3 110.8,170.7 142.8,170.7 142.8,101.3
	254.8,101.3 254.8,69.3 142.8,69.3 "/>
<polygon fill="#0052B4" points="154.6,115 254.8,170.7 254.8,154.9 183,115 "/>
<polygon fill="#FFFFFF" points="154.6,115 254.8,170.7 254.8,154.9 183,115 "/>
<g fill="#D80027">
	<polygon points="154.6,115 254.8,170.7 254.8,154.9 183,115 	"/>
	<polygon points="70.7,115 -1.2,154.9 -1.2,170.7 -1.2,170.7 99,115 	"/>
</g>
<polygon fill="#0052B4" points="99,55.7 -1.2,0 -1.2,15.7 70.7,55.7 "/>
<polygon fill="#FFFFFF" points="99,55.7 -1.2,0 -1.2,15.7 70.7,55.7 "/>
<g fill="#D80027">
	<polygon points="99,55.7 -1.2,0 -1.2,15.7 70.7,55.7 	"/>
	<polygon points="183,55.7 254.8,15.7 254.8,0 254.8,0 154.6,55.7 	"/>
</g>
</svg>
