<?xml version="1.0" encoding="utf-8"?>
<svg version="1.1" xmlns="http://www.w3.org/2000/svg" viewBox="0 0 513 342">
<rect fill="#ef3340" width="513" height="342"/>
<rect fill="#00b5e2" width="513" height="114"/>
<rect y="228" fill="#509e2f" width="513" height="114"/>
<g fill="#FFFFFF">
	<path d="M265.6,212.6c-23,0-41.6-18.6-41.6-41.6s18.6-41.6,41.6-41.6c7.2,0,13.9,1.8,19.8,5
		c-9.2-9-21.9-14.6-35.8-14.6c-28.3,0-51.2,22.9-51.2,51.2s22.9,51.2,51.2,51.2c13.9,0,26.6-5.6,35.8-14.6
		C279.5,210.8,272.8,212.6,265.6,212.6z"/>
	<polygon points="297.6,142.2 303.1,157.7 318,150.6 310.9,165.5 326.4,171 310.9,176.5 318,191.4 303.1,184.3
		297.6,199.8 292.1,184.3 277.2,191.4 284.3,176.5 268.8,171 284.3,165.5 277.2,150.6 292.1,157.7 	"/>
</g>
</svg>
