<?xml version="1.0" encoding="utf-8"?>
<svg version="1.1" xmlns="http://www.w3.org/2000/svg" xmlns:xlink="http://www.w3.org/1999/xlink" viewBox="0 0 513 342">
<rect fill="#10338C" width="513.1" height="342"/>
<polyline fill="#F6C500" points="99.9,0 441.9,0 441.9,342 "/>
<g>
	<polygon fill="#FFFFFF" points="19.9,21.1 40.3,6.2 60.9,21 54,0 26.7,0 	"/>
	<polygon fill="#FFFFFF" points="92.3,25.5 84.4,1.3 76.6,25.5 51.3,25.5 71.8,40.3 64,64.3 84.4,49.5 105,64.3 97.1,40.3 117.6,25.4
		"/>
	<polygon fill="#FFFFFF" points="136.3,69.2 128.5,45.2 120.7,69.2 95.5,69.2 115.9,84.1 108.1,108.1 128.5,93.3 149.1,108.1
		141.3,84.1 161.7,69.2 	"/>
	<polygon fill="#FFFFFF" points="179.4,112.3 171.6,88.2 163.8,112.3 138.5,112.3 159,127.2 151.2,151.2 171.6,136.4 192.2,151.2
		184.3,127.2 204.8,112.2 	"/>
	<polygon fill="#FFFFFF" points="222.5,155.3 214.7,131.3 206.9,155.3 181.5,155.3 202.1,170.3 194.3,194.3 214.7,179.4 235.1,194.3
		227.3,170.3 247.9,155.3 	"/>
	<polygon fill="#FFFFFF" points="265.6,198.4 257.8,174.4 250,198.4 224.6,198.4 245.2,213.3 237.4,237.4 257.8,222.5 278.2,237.4
		270.4,213.2 290.9,198.4 	"/>
	<polygon fill="#FFFFFF" points="308.7,241.5 300.8,217.5 293,241.5 267.7,241.5 288.2,256.3 280.3,280.5 300.9,265.6 321.3,280.4
		313.5,256.3 334,241.5 	"/>
	<polygon fill="#FFFFFF" points="351.7,284.6 343.9,260.4 336.1,284.6 310.8,284.6 331.2,299.4 323.4,323.5 343.9,308.6 364.4,323.5
		356.6,299.4 377,284.6 	"/>
	<polygon fill="#FFFFFF" points="387,303.5 379.1,327.6 353.8,327.7 373.6,342 400.2,342 420.1,327.6 394.8,327.6 	"/>
</g>
</svg>
