<?xml version="1.0" encoding="utf-8"?>
<svg version="1.1" xmlns="http://www.w3.org/2000/svg" viewBox="0 0 513 342">
<rect y="0" fill="#ffc726" width="513" height="342"/>
<g fill="#00267f">
	<rect y="0" width="171" height="342"/>
	<rect x="342" y="0" width="171" height="342"/>
</g>
<path d="M325.74,101.02l-31.97,12.4c-0.68,1.35-5.79,7.54-8.18,53.06h-17.05v-60.42l-12.54-27.38l-12.54,27v60.8H226.4
	c-2.39-45.53-7.8-52.48-8.47-53.84l-31.68-11.63c0.15,0.31,15.4,31.34,15.4,78.01v12.54h41.81v71.07h25.08v-71.07h41.81v-12.54
	c0-24.13,4.17-44.02,7.68-56.46c3.82-13.57,7.7-21.49,7.74-21.57L325.74,101.02z"/>
</svg>
