<?xml version="1.0" encoding="utf-8"?>
<svg version="1.1" xmlns="http://www.w3.org/2000/svg" viewBox="0 0 513 342">
<rect fill="#D80027" width="513" height="342"/>
<g fill="#47a644">
	<polygon points="215.9,170.7 0,314.6 0,26.8 	"/>
	<polygon points="513,26.8 513,314.6 297.1,170.7 	"/>
</g>
<polygon fill="#0052B4" points="513,26.8 296.1,170.7 513,314.6 513,342 471.9,342 256,197.4 40.1,342 0,342 0,314.6
	215.9,170.7 0,26.8 0,0 40.1,0 256,143.9 471.9,0 513,0 "/>
<polygon fill="#FFFFFF" points="513,26.8 297.1,170.7 513,314.6 513,342 473,342 256,197.4 39,342 0,342 0,314.6 215.9,170.7 0,26.8
		0,0 40.1,0 256,143.9 471.9,0 513,0 	"/>
<circle fill="#FFFFFF" cx="251.6" cy="170.7" r="100.2"/>
<g fill="#D80027" stroke="#47a644" stroke-width="3">
	<polygon points="251.4,103.6 258.8,116.5 273.6,116.5 266.2,129.3 273.6,142.1 258.8,142.1 251.4,155 244,142.1
		229.2,142.1 236.6,129.3 229.2,116.5 244,116.5 	"/>
	<polygon points="290.2,170.3 297.6,183.2 312.4,183.2 305,196 312.4,208.8 297.6,208.8 290.2,221.7 282.8,208.8
		267.9,208.8 275.3,196 267.9,183.2 282.8,183.2 	"/>
	<polygon points="213,170.3 220.4,183.2 235.3,183.2 227.9,196 235.3,208.8 220.4,208.8 213,221.7 205.6,208.8
		190.8,208.8 198.2,196 190.8,183.2 205.6,183.2 	"/>
</g>
</svg>
