<?xml version="1.0" encoding="utf-8"?>
<svg version="1.1" xmlns="http://www.w3.org/2000/svg" viewBox="0 0 513 342">
<rect fill="#FFFFFF" width="513" height="342"/>
<path fill="#FFFFFF" d="M0-75.85"/>
<path fill="#E6BC00" d="M157.31,199.76c0,0-9.04,43.93-19.31,40.39c-10.62-3.54-17.53-18.76-17.53-18.76l-14.52,21.24
		c0,0,38.18,8.48,41.01,5.47c1.22-1.14,8.21-15.1,10.34-26.05V199.76z M101.18,260.33c0,0-2.48,20.18-1.06,22.66
		c1.24,2.3,39.48,11.33,39.48,11.33s-24.96,16.46-29.74,20.54L91.8,284.94l-0.71-24.61L101.18,260.33L101.18,260.33z"/>
<path fill="#E6BC00" d="M0-75.85"/>
<path fill="#E6BC00" d="M112.51,94.64c0,0,39.65,41.6,40.36,45.5c0.71,3.72-4.25,3.19-4.25,3.19s-44.79-37.53-49.92-41.07
	C93.39,98.71,112.51,94.64,112.51,94.64L112.51,94.64z"/>
<path fill="#ADADAD" d="M99.41,104.73c0,0,16.99-0.71,16.64-11.51C115.7,82.6,104.9,78.35,96.93,80.83
	c-7.97,2.3-23.01,13.45-13.63,35.05c9.38,21.42,23.37,29.39,26.2,47.8c0,0-5.46,9.86-19.12,0.35c-16.9-11.77-6.2-38.24-10.44-44.96
	c-4.25-7.08-40.95-38.92-40.95-38.92s-30.24,39.37-18,74.92c16.95,49.21,51.74,31.98,64.61,36.76c0,0-42.13,61.96-49.57,67.09
	c0,0,24.08,8.32,47.8-18.76c0,0,5.84,9.74,7.08,20.18h10.27c4.78-26.2,51.51-64.26,49.92-82.32
	C149.33,156.77,101.89,128.63,99.41,104.73z"/>
<path fill="#E6BC00" d="M359.17,201.27c0,0,8.96,42.43,19.23,38.89c10.62-3.54,17.53-18.76,17.53-18.76l14.52,21.24
	c0,0-37,8.48-39.83,5.47c-1.21-1.14-9.32-13.79-11.52-24.66L359.17,201.27z M415.22,260.33c0,0,2.48,20.18,1.06,22.66
	c-1.24,2.3-39.48,11.33-39.48,11.33s24.96,16.46,29.74,20.54l18.06-29.92l0.71-24.61H415.22z"/>
<path fill="#E6BC00" d="M403.89,94.64c0,0-39.65,41.6-40.36,45.5c-0.71,3.72,4.25,3.19,4.25,3.19s44.79-37.53,49.92-41.07
	C422.84,98.71,403.89,94.64,403.89,94.64L403.89,94.64z"/>
<g transform="translate(6.5 5)">
	<g>
		<path id="b_1_" fill="#125ECC" d="M150.81,82.06h201.79v145.46c0,16.06-9.69,21.39-21.91,31.85l-45.92,39.41
			c-18.25,15.62-47.91,15.57-66.07,0l-46.01-39.43c-12.08-10.35-21.88-15.71-21.88-31.82V82.06z"/>
	</g>
	<path fill="#FFE600" d="M194.05,142.71c-7.96,0-14.41-6.45-14.41-14.41s6.45-14.41,14.41-14.41s14.41,6.45,14.41,14.41
		S202.01,142.71,194.05,142.71z M251.7,139.71c-7.96,0-14.41-6.45-14.41-14.41c0-7.96,6.45-14.41,14.41-14.41
		s14.41,6.45,14.41,14.41C266.11,133.26,259.66,139.71,251.7,139.71z M309.35,142.71c-7.96,0-14.41-6.45-14.41-14.41
		s6.45-14.41,14.41-14.41s14.41,6.45,14.41,14.41S317.31,142.71,309.35,142.71z M208.46,269.43c-7.96,0-14.41-6.45-14.41-14.41
		c0-7.96,6.45-14.41,14.41-14.41s14.41,6.45,14.41,14.41C222.88,262.98,216.42,269.43,208.46,269.43z M251.7,283.85
		c-7.96,0-14.41-6.45-14.41-14.41c0-7.96,6.45-14.41,14.41-14.41s14.41,6.45,14.41,14.41C266.11,277.39,259.66,283.85,251.7,283.85z
		 M294.94,269.43c-7.96,0-14.41-6.45-14.41-14.41c0-7.96,6.45-14.41,14.41-14.41c7.96,0,14.41,6.45,14.41,14.41
		C309.35,262.98,302.9,269.43,294.94,269.43z"/>
	<path fill="#D60537" d="M150.81,170.36h201.79v57.65H150.81V170.36z"/>
</g>
<path fill="#EACE00" d="M142.9,43.82c0,0,57.65-14.41,115.31-14.41s115.31,14.41,115.31,14.41l-14.41,57.65
	c0,0-50.45-14.41-100.89-14.41s-100.89,14.41-100.89,14.41L142.9,43.82z"/>
<path fill="#7A6920" d="M258.2,72.65c-7.96,0-14.41-6.45-14.41-14.41s6.45-14.41,14.41-14.41c7.96,0,14.41,6.45,14.41,14.41
	S266.16,72.65,258.2,72.65z M315.85,77.65c-7.96,0-14.41-6.45-14.41-14.41s6.45-14.41,14.41-14.41s14.41,6.45,14.41,14.41
	S323.81,77.65,315.85,77.65z M200.55,77.65c-7.96,0-14.41-6.45-14.41-14.41s6.45-14.41,14.41-14.41s14.41,6.45,14.41,14.41
	S208.51,77.65,200.55,77.65z"/>
<path fill="#ADADAD" d="M365.08,178.02c-1.59,18.06,45.14,56.12,49.92,82.32h10.27c1.24-10.44,7.08-20.18,7.08-20.18
	c23.72,27.09,47.8,18.76,47.8,18.76c-7.44-5.13-49.57-67.09-49.57-67.09c12.88-4.78,47.67,12.45,64.61-36.76
	c12.24-35.55-18-74.92-18-74.92s-36.7,31.84-40.95,38.92c-4.25,6.73,6.46,33.2-10.44,44.96c-13.66,9.51-19.12-0.35-19.12-0.35
	c2.83-18.41,16.82-26.38,26.2-47.8c9.38-21.6-5.66-32.75-13.63-35.05c-7.97-2.48-18.76,1.77-19.12,12.39
	c-0.35,10.8,16.64,11.51,16.64,11.51C414.29,128.63,366.85,156.77,365.08,178.02z"/>
<circle fill="#FFFFFF" cx="258.2" cy="204.19" r="16.93"/>
</svg>
