<?xml version="1.0" encoding="utf-8"?>
<svg version="1.1" xmlns="http://www.w3.org/2000/svg" viewBox="0 0 513 342">
<rect y="0" fill="#c8102e" width="513" height="342"/>
<g>
	<rect y="0.1" fill="#012169" width="256.5" height="171"/>
	<polygon fill="#FFFFFF" points="256,0 233.4,0 160,48.9 160,0 96,0 96,48.9 22.6,0 0,0 0,22.7 46.1,53.4 0,53.4 0,117.4 46.1,117.4
		0,148.1 0,170.7 22.6,170.7 96,121.8 96,170.7 160,170.7 160,121.8 233.4,170.7 256,170.7 256,148.1 209.9,117.4 256,117.4
		256,53.4 209.9,53.4 256,22.7 	"/>
	<polygon fill="#c8102e" points="144,0 112,0 112,69.4 0,69.4 0,101.4 112,101.4 112,170.7 144,170.7 144,101.4 256,101.4 256,69.4
		144,69.4 	"/>
	<polygon fill="#c8102e" points="0,170.7 0,159.7 62.5,117.4 85.1,117.4 7.3,170.7 	"/>
	<polygon fill="#c8102e" points="7.3,0.1 85.1,53.3 62.5,53.3 0,11.1 0,0.1 	"/>
	<polygon fill="#c8102e" points="256,0.1 256,11.1 193.5,53.4 170.9,53.4 248.7,0.1 	"/>
	<polygon fill="#c8102e" points="248.7,170.7 170.9,117.4 193.5,117.4 256,159.7 256,170.7 	"/>
</g>
<g transform="translate(13 5)">
	<path fill="#ffffff" d="M303.9,94.94v99.69c0,59.81,79.75,99.69,79.75,99.69s79.75-39.88,79.75-99.69V94.94H303.9z"/>
	<path fill="#2F8F22" d="M436.37,254.44H330.93c23.13,25.08,52.72,39.88,52.72,39.88S413.24,279.52,436.37,254.44z"/>
	<circle fill="#65B5D2" cx="383.65" cy="214.56" r="39.88"/>
	<circle fill="#c8102e" cx="343.77" cy="194.63" r="19.94"/>
	<circle fill="#c8102e" cx="423.52" cy="194.63" r="19.94"/>
	<circle fill="#c8102e" cx="383.65" cy="154.75" r="19.94"/>
</g>
</svg>
