<?xml version="1.0" encoding="utf-8"?>
<svg version="1.1" xmlns="http://www.w3.org/2000/svg" viewBox="0 0 513 342">
<rect y="0" fill="#FFDA44" width="513" height="342"/>
<polygon fill="#000000" points="0,193.74 513,320.93 513,214.26 0,97.08 "/>
<polyline fill="#FFFFFF" points="513,234.26 513,147.59 0,20.41 0,107.08 "/>
<g>
	<path fill="#D80027" stroke="#231F20" stroke-width="3" stroke-miterlimit="10" d="M306.4,134.01c3.87,7.14,6.07,15.33,6.07,24.02c0,21.55-13.51,39.94-32.52,47.19v-59.51
		c5.7-1.19,10-6.37,10-12.59c6.9,0,12.5-5.75,12.5-12.85h-0.42c6.9,0,12.91-5.75,12.91-12.85h-34.99V76.58l-14.99-27.71l-15,27.71
		v30.84h-34.99c0,7.1,6.01,12.85,12.91,12.85h-0.42c0,7.1,5.6,12.85,12.5,12.85c0,6.22,4.29,11.4,9.99,12.59v61.37
		c-22.09-5.39-38.48-25.3-38.48-49.05c0-8.7,2.2-16.88,6.07-24.02c-10.96,11.21-17.72,26.53-17.72,43.44
		c0,34.32,27.82,62.15,62.15,62.15s62.15-27.83,62.15-62.15C324.12,160.54,317.35,145.21,306.4,134.01z"/>
	<path fill="#D80027" stroke="#231F20" stroke-width="3" stroke-miterlimit="10" d="M198.46,226.81c0,0,20.69,27.71,66.5,27.71s66.5-27.71,66.5-27.71l13.47,28.37c0,0-21.03,27.71-79.97,27.71
		s-79.97-27.71-79.97-27.71L198.46,226.81z"/>
	<polygon fill="#D80027" stroke="#231F20" stroke-width="3" stroke-miterlimit="10" points="129.24,133.18 150.12,133.18 175.05,160.44 175.05,233.89 148.77,233.89 148.77,165.52 	"/>
	<polygon fill="#D80027" stroke="#231F20" stroke-width="3" stroke-miterlimit="10" points="400,133.18 379.12,133.18 354.19,160.44 354.19,233.89 380.46,233.89 380.46,165.52 	"/>
</g>
</svg>
