<?xml version="1.0" encoding="utf-8"?>
<svg version="1.1" xmlns="http://www.w3.org/2000/svg" viewBox="0 0 513 342">
<rect y="0" fill="#009b3a" width="513" height="342"/>
<polygon fill="#fedf00" points="256.5,19.3 461.4,170.7 256.5,322 50.6,170.7   "/>
<circle fill="#FFFFFF" cx="256.5" cy="171" r="80.4"/>
<path fill="#002776" d="M215.9,165.7c-13.9,0-27.4,2.1-40.1,6c0.6,43.9,36.3,79.3,80.3,79.3c27.2,0,51.3-13.6,65.8-34.3
  C297,185.7,258.7,165.7,215.9,165.7z"/>
<path fill="#002776" d="M334.9,186c0.9-5,1.5-10.1,1.5-15.4c0-44.4-36-80.4-80.4-80.4c-33.1,0-61.5,20.1-73.9,48.6
  c10.9-2.2,22.1-3.4,33.6-3.4C262.5,135.5,304.7,154.9,334.9,186z"/>
</svg>
