<?xml version="1.0" encoding="utf-8"?>
<!-- Generator: Adobe Illustrator 24.1.3, SVG Export Plug-In . SVG Version: 6.00 Build 0)  -->
<svg version="1.1" xmlns="http://www.w3.org/2000/svg" xmlns:xlink="http://www.w3.org/1999/xlink" viewBox="0 0 513 342">
<rect fill="#007C30" width="513" height="342"/>
<polyline fill="#CE1720" points="0,230 513,230 513,0 513,0 0,0 0,0 "/>
<polygon fill="#FFFFFF" points="100,230 100,215.1 100,0 0,0 0,342 513,342 513,342 100,342 "/>
<g fill="#CE1720">
<polygon points="28,159.6 8.6,128.2 28,97.4 47.3,128.2 "/>
<polygon points="72.6,159.6 53.3,128.2 72.6,97.4 92,128.2 "/>
<polygon points="28,241.2 8.6,209.8 28,179 47.3,209.8 "/>
<polygon points="72.6,241.2 53.3,209.8 72.6,179 92,209.8 "/>
</g>
<g fill="none" stroke="#CE1720" stroke-width="7">
<polygon points="28,73.8 11.9,47.8 28,22.2 44,47.8 "/>
<polygon points="72.6,73.8 56.6,47.8 72.6,22.2 88.7,47.8 "/>
<polygon points="28,318 11.9,291.9 28,266.3 44,291.9 "/>
<polygon points="72.6,318 56.6,291.9 72.6,266.3 88.7,291.9 "/>
</g>
</svg>
