<?xml version="1.0" encoding="utf-8"?>
<svg version="1.1" xmlns="http://www.w3.org/2000/svg" viewBox="0 0 513 342">
<rect y="0" fill="#008000" width="513" height="342"/>
<g fill="#FFDA44">
	<polygon points="422.7,252.4 428.9,265.2 442.7,262 436.5,274.8 447.7,283.6 433.8,286.8 433.8,301 422.7,292.1
		411.6,301 411.6,286.8 397.8,283.6 408.9,274.8 402.7,262 416.6,265.2 	"/>
	<polygon points="376.1,116.1 382.3,129 396.1,125.8 389.9,138.6 401.1,147.4 387.2,150.5 387.2,164.8 376.1,155.9
		365,164.8 365.1,150.5 351.2,147.4 362.3,138.6 356.1,125.8 370,129 	"/>
	<polygon points="413.1,38.3 419.3,51.1 433.1,47.9 426.9,60.7 438.1,69.6 424.2,72.7 424.2,86.9 413.1,78 402,86.9
		402.1,72.7 388.2,69.6 399.3,60.7 393.1,47.9 407,51.1 	"/>
	<polygon points="464.9,96.7 471.1,109.5 485,106.3 478.7,119.1 489.9,128 476,131.1 476.1,145.3 464.9,136.4
		453.8,145.3 453.9,131.1 440,128 451.2,119.1 444.9,106.3 458.8,109.5 	"/>
	<polygon points="436.9,164.8 441.8,179.6 457.4,179.6 444.8,188.8 449.6,203.7 436.9,194.5 424.3,203.7 429.1,188.8
		416.5,179.6 432.1,179.6 	"/>
</g>
<path fill="#FFDA44" d="M306.8,254.7c-49.2,0-89.1-39.9-89.1-89.1s39.9-89.1,89.1-89.1c15.3,0,29.8,3.9,42.4,10.7
	C329.4,67.9,302.3,56,272.5,56c-60.5,0-109.6,49.1-109.6,109.6S212,275.3,272.5,275.3c29.8,0,56.9-11.9,76.6-31.3
	C336.5,250.8,322.1,254.7,306.8,254.7z"/>
<g>
	<path fill="#FFDA44" d="M140.4,59.5C129.7,41,109.7,28.6,86.8,28.6S44,41,33.3,59.5H140.4z"/>
	<path fill="#FFDA44" d="M140.6,59.9l-53.8,53.8L33.1,59.9c-5.1,9-8.1,19.4-8.1,30.6c0,34.2,27.7,61.9,61.9,61.9s61.9-27.7,61.9-61.9
		C148.7,79.3,145.7,68.9,140.6,59.9z"/>
	<path fill="#A2001D" d="M71.4,98.2v52.2c4.9,1.3,10.1,1.9,15.5,1.9s10.5-0.7,15.5-1.9V98.2H71.4z"/>
</g>
</svg>
