<?xml version="1.0" encoding="utf-8"?>
<svg version="1.1" xmlns="http://www.w3.org/2000/svg" viewBox="0 0 513 342">
<rect fill="#d21034" width="513" height="342"/>
<g fill="#3a9927">
	<rect y="171" width="211.5" height="85.3"/>
	<rect x="300.5" y="171" width="211.5" height="85.3"/>
</g>
<polygon fill="#003082" points="0,0 0,0 0,85.3 211.5,85.3 211.5,0 300.5,0 300.5,85.3 513,85.3 513,0 513,0 "/>
<g fill="#FFFFFF">
	<rect x="300.5" y="85.3" width="211.5" height="85.3"/>
	<rect y="85.3" width="211.5" height="85.3"/>
</g>
<g fill="#ffce00">
	<polygon points="300.5,342 211.5,342 211.5,256 0,256 0,342 0,342 513,342 513,342 513,256 300.5,256 	"/>
	<polygon points="105.7,8.6 114.3,34.8 141.8,34.8 119.5,51 128.1,77.2 105.7,61 83.4,77.2 91.9,51 69.6,34.8
		97.2,34.8 	"/>
</g>
</svg>
