<?xml version="1.0" encoding="utf-8"?>
<svg version="1.1" xmlns="http://www.w3.org/2000/svg" viewBox="0 0 513 342">
<rect fill="#D80027" width="513" height="342"/>
<g fill="#FFDA44">
	<polygon points="226.8,239.2 217.1,223.6 199.2,228 211.1,213.9 201.4,198.3 218.5,205.2 230.3,191.1 229,209.5
		246.1,216.4 228.2,220.8 	"/>
	<polygon points="290.6,82 280.5,97.4 292.1,111.7 274.4,106.9 264.3,122.4 263.3,104 245.6,99.2 262.8,92.6
		261.8,74.2 273.4,88.5 	"/>
	<polygon points="236.2,25.4 234.2,43.7 251,51.3 233,55.1 231,73.4 221.8,57.4 203.9,61.2 216.2,47.5 207,31.6
		223.8,39.1 	"/>
	<polygon points="292.8,161.8 277.9,172.7 283.7,190.2 268.8,179.4 253.9,190.4 259.5,172.8 244.6,162.1 263,162
		268.6,144.4 274.4,161.9 	"/>
  <polygon points="115,46.3 132.3,99.8 188.5,99.8 143.1,132.7 160.4,186.2 115,153.2 69.5,186.2 86.9,132.7 41.4,99.8
	97.7,99.8 "/>
</g>
</svg>
