<?xml version="1.0" encoding="utf-8"?>
<svg version="1.1" xmlns="http://www.w3.org/2000/svg" viewBox="0 0 513 342">
<rect y="0" fill="#003893" width="513" height="342"/>
<g>
	<rect y="182.2" fill="#cf2027" width="513" height="41.4"/>
	<rect y="140.8" fill="#FFFFFF" width="513" height="41.4"/>
	<rect y="223.6" fill="#FFFFFF" width="513" height="41.4"/>
</g>
<g fill="#f7d116" stroke="#000000">
	<polygon points="150.4,70 157.3,91.1 179.5,91.1 161.5,104.2 168.4,125.3 150.4,112.2 132.5,125.3 139.3,104.2
		121.4,91.1 143.6,91.1 	"/>
	<polygon points="150.4,279.7 157.3,300.8 179.5,300.8 161.5,313.8 168.4,335 150.4,321.9 132.5,335 139.3,313.8
		121.4,300.8 143.6,300.8 	"/>
	<polygon points="52.8,208.8 59.7,229.9 81.9,229.9 63.9,242.9 70.8,264.1 52.8,251 34.9,264.1 41.7,242.9 23.8,229.9
		46,229.9 	"/>
	<polygon points="90.1,91 97,112.1 119.2,112.1 101.2,125.1 108.1,146.3 90.1,133.2 72.2,146.3 79,125.1 61,112.1
		83.3,112.1 	"/>
	<polygon points="23.8,162 46,162 52.8,140.9 59.7,162 81.9,162 63.9,175.1 70.8,196.2 52.8,183.2 34.9,196.2
		41.7,175.1 	"/>
	<polygon points="72.2,310.9 79,289.8 61,276.8 83.3,276.8 90.1,255.6 97,276.8 119.2,276.8 101.2,289.8 108.1,310.9
		90.1,297.9 	"/>
	<polygon points="248,208.8 241.1,229.9 218.9,229.9 236.9,242.9 230,264.1 248,251 266,264.1 259.1,242.9 277.1,229.9
		254.9,229.9 	"/>
	<polygon points="210.7,91 203.9,112.1 181.7,112.1 199.6,125.1 192.8,146.3 210.7,133.2 228.7,146.3 221.8,125.1
		239.8,112.1 217.6,112.1 	"/>
	<polygon points="277.1,162 254.9,162 248,140.9 241.1,162 218.9,162 236.9,175.1 230,196.2 248,183.2 266,196.2
		259.1,175.1 	"/>
	<polygon points="228.7,310.9 221.8,289.8 239.8,276.8 217.6,276.8 210.7,255.6 203.9,276.8 181.7,276.8 199.6,289.8
		192.8,310.9 210.7,297.9 	"/>
</g>
</svg>
