<?xml version="1.0" encoding="utf-8"?>
<svg version="1.1" xmlns="http://www.w3.org/2000/svg" viewBox="0 0 513 342">
<rect fill="#0021ad" width="513" height="342"/>
<polyline fill="#1c8a42" points="0,0 513,0 513,342 "/>
<g fill="#FFFFFF">
	<polygon points="77.6,272 83.3,283.9 96.1,280.9 90.4,292.8 100.7,300.9 87.9,303.8 87.9,317 77.6,308.7 67.4,317
		67.4,303.8 54.6,300.9 64.9,292.8 59.1,280.9 72,283.9 	"/>
	<polygon points="40.5,173.1 46.2,185 59,182 53.3,193.8 63.6,202 50.7,204.9 50.8,218.1 40.5,209.8 30.2,218.1
		30.3,204.9 17.4,202 27.8,193.8 22,182 34.8,185 	"/>
	<polygon points="77.6,92.2 83.3,104 96.1,101.1 90.4,112.9 100.7,121.1 87.9,124 87.9,137.1 77.6,128.9 67.4,137.1
		67.4,124 54.6,121.1 64.9,112.9 59.1,101.1 72,104 	"/>
	<polygon points="123.7,155.1 129.4,167 142.2,164 136.5,175.9 146.8,184 134,186.9 134,200.1 123.7,191.9 113.5,200.1
		113.5,186.9 100.7,184 111,175.9 105.3,164 118.1,167 	"/>
	<polygon points="90.8,209.1 95.2,222.8 109.7,222.8 98,231.3 102.5,245 90.8,236.6 79.1,245 83.6,231.3 71.9,222.8
		86.3,222.8 	"/>
</g>
<g>
	<circle fill="#ffc639" cx="267.1" cy="170.7" r="74.5"/>
	<path fill="#1c8a42" d="M267.1,220.3h24.8c0,0,10.8-19,0-37.2l24.8-24.8l-12.4-24.8h-12.4c0,0-6.2,18.6-31,18.6s-31-18.6-31-18.6
		h-12.4l12.4,24.8l-12.4,24.8l12.4,12.4c0,0,12.4-24.8,37.2-12.4C267.1,183.1,277.6,198.6,267.1,220.3z"/>
</g>
<path fill="#ffc639" d="M464.4,92.2c0.6-2.9-0.2-17.6-0.2-20.7c0-21.3-13.9-39.4-33.2-45.7c5.9,12,9.2,25.4,9.2,39.7
	c0,4.8-0.4,9.5-1.1,14.1c-2.9-4.7-6.6-8.9-11.2-12.6c-17.1-13.6-40.6-14-57.9-2.5c13.4,2.9,26.3,8.9,37.7,18
	c9,7.1,16.2,16.8,21.7,26.1c0,0-17.8,10.9-31,15.1s-42.3,7.9-42.3,7.9c72,12,132-36,132-36C481.6,82.2,472.3,91.6,464.4,92.2z"/>
</svg>
