<?xml version="1.0" encoding="utf-8"?>
<svg version="1.1" xmlns="http://www.w3.org/2000/svg" viewBox="0 0 513 342">
<rect fill="#FFFFFF" width="513" height="342"/>
<path fill="#DB7D00" d="M141.7,154.7c0,0,0.2,67.1,74.7,65.3l4.5,13.9h8.9c0,0-7.4-41.1,60.1-41.5c0,0,0-27.6,27.6-27.6s41.5,0,41.5,0
	s-66-51.8,58.9-118l1.8-13.1c0,0-129.9,71-198.9,57.2c0,0,10.7,42.5-10.8,42.5c-10.8,0-9.7-8.1-32.3-8.1
	c-18.7,0-17.3,19.7-26.3,19.5c-8.9-0.2-18.8-12.3-19.6-10.2C131.1,136.7,141.7,154.7,141.7,154.7z"/>
<g fill="#006651">
	<path d="M237.2,308.1c6.9-5,13-6.6,22.4-8.3s19.4-4.4,24.6-5.8s-17.7,6.6-23.5,8.3
		C254.9,303.9,237.2,308.1,237.2,308.1z"/>
	<path d="M275.1,293.4c-1.9-11.9,2.8-24.3,13.5-29.3C291.1,272.7,283.4,287.3,275.1,293.4z"/>
	<path d="M293.3,287.2c-5.8-9.8,4-22.6,11.1-28.8C307.7,264.4,301.9,282.1,293.3,287.2z"/>
	<path d="M310.2,279.6c-6.2-8.4,1.1-23.2,8.8-29C322.1,258.8,319.1,273.8,310.2,279.6z"/>
	<path d="M327.1,269c-5.6-8-1.7-20.4,6.3-28.4C339.2,247.2,334.3,261.6,327.1,269z"/>
	<path d="M340.6,258.3c-4.7-7.5,1.1-25.4,8.6-30.4C352.5,234.5,350,253.3,340.6,258.3z"/>
	<path d="M351.4,255.5c-1.4-10.8,17.4-22.7,25.2-22.4C375.7,242,367.7,251.7,351.4,255.5z"/>
	<path d="M340.9,267.7c8.8-9.1,26-9.1,32.1-7.2C371.3,265.8,351.1,277.4,340.9,267.7z"/>
	<path d="M328.7,276.8c12.4-3.3,20.5-6.1,27.9,1.7C351.4,285.1,331.2,283.2,328.7,276.8z"/>
	<path d="M311,284.8c11.9-6.4,26.3,3,28.5,8.6C326.2,298.9,310.8,286.2,311,284.8z"/>
	<path d="M294.7,294c10.8-4.1,23.2,1.4,28.2,7.5C317.1,304.2,301.9,307.2,294.7,294z"/>
	<path d="M279.8,298.7c12.4-1.4,24.4,8,27,13.4C290.9,313.6,284.8,308.9,279.8,298.7z"/>
	<path d="M275.8,308.1c-6.9-5-13-6.6-22.4-8.3c-9.4-1.7-19.4-4.4-24.6-5.8c-5.3-1.4,17.7,6.6,23.5,8.3
		C258.1,303.9,275.8,308.1,275.8,308.1z"/>
	<path d="M237.9,293.4c1.9-11.9-2.8-24.3-13.5-29.3C221.9,272.7,229.6,287.3,237.9,293.4z"/>
	<path d="M219.7,287.2c5.8-9.8-4-22.6-11.1-28.8C205.3,264.4,211.1,282.1,219.7,287.2z"/>
	<path d="M202.8,279.6c6.2-8.4-1.1-23.2-8.8-29C190.9,258.8,193.9,273.8,202.8,279.6z"/>
	<path d="M185.9,269c5.6-8,1.7-20.4-6.3-28.4C173.8,247.2,178.7,261.6,185.9,269z"/>
	<path d="M172.4,258.3c4.7-7.5-1.1-25.4-8.6-30.4C160.5,234.5,163,253.3,172.4,258.3z"/>
	<path d="M161.6,255.5c1.4-10.8-17.4-22.7-25.2-22.4C137.3,242,145.3,251.7,161.6,255.5z"/>
	<path d="M172.1,267.7c-8.8-9.1-26-9.1-32.1-7.2C141.7,265.8,161.9,277.4,172.1,267.7z"/>
	<path d="M184.3,276.8c-12.4-3.3-20.5-6.1-27.9,1.7C161.6,285.1,181.8,283.2,184.3,276.8z"/>
	<path d="M202,284.8c-11.9-6.4-26.3,3-28.5,8.6C186.8,298.9,202.2,286.2,202,284.8z"/>
	<path d="M218.3,294c-10.8-4.1-23.2,1.4-28.2,7.5C195.9,304.2,211.1,307.2,218.3,294z"/>
	<path d="M233.2,298.7c-12.4-1.4-24.4,8-27,13.4C222.1,313.6,228.2,308.9,233.2,298.7z"/>
</g>
</svg>
