<?xml version="1.0" encoding="utf-8"?>
<svg version="1.1" xmlns="http://www.w3.org/2000/svg" viewBox="0 0 513 342">
<rect y="0" fill="#496E2D" width="513" height="342"/>
<polygon points="0,110.7 0,150.7 0,190.7 0,230.7 513,230.7 513,190.7 513,150.7 513,110.7 "/>
<rect y="110.7" fill="#FFDA44" width="513" height="40"/>
<rect y="190.7" fill="#FFFFFF" width="513" height="40"/>
<rect x="196" y="0" width="120" height="342"/>
<rect x="196" y="0" fill="#FFDA44" width="40" height="342"/>
<rect x="274.7" y="0" fill="#FFFFFF" width="40" height="342"/>
<g>
	<circle fill="#D80027" cx="256" cy="170.7" r="123.1"/>
	<g fill="#496E2D">
		<polygon points="256,58.6 260.6,72.8 275.6,72.8 263.5,81.7 268.1,95.9 256,87.1 243.9,95.9 248.5,81.7 236.4,72.8
			251.4,72.8 		"/>
		<polygon points="190.1,80 202.3,88.8 214.4,80 209.8,94.3 221.9,103.1 206.9,103.1 202.3,117.3 197.6,103.1
			182.6,103.1 194.7,94.3 		"/>
		<polygon points="149.4,136 164.4,136 169,121.8 173.7,136 188.7,136 176.5,144.8 181.2,159.1 169,150.3 156.9,159.1
			161.5,144.8 		"/>
		<polygon points="149.4,205.3 161.5,196.5 156.9,182.2 169,191 181.2,182.2 176.5,196.5 188.7,205.3 173.7,205.3
			169,219.6 164.4,205.3 		"/>
		<polygon points="190.1,261.4 194.7,247.1 182.6,238.3 197.6,238.3 202.3,224 206.9,238.3 221.9,238.3 209.8,247.1
			214.4,261.4 202.3,252.5 		"/>
		<polygon points="256,282.8 251.4,268.5 236.4,268.5 248.5,259.7 243.9,245.4 256,254.2 268.1,245.4 263.5,259.7
			275.6,268.5 260.6,268.5 		"/>
		<polygon points="321.9,261.4 309.7,252.5 297.6,261.4 302.2,247.1 290.1,238.3 305.1,238.3 309.7,224 314.4,238.3
			329.4,238.3 317.3,247.1 		"/>
		<polygon points="362.6,205.3 347.6,205.3 343,219.6 338.3,205.3 323.3,205.3 335.5,196.5 330.8,182.2 343,191
			355.1,182.2 350.5,196.5 		"/>
		<polygon points="362.6,136 350.5,144.8 355.1,159.1 343,150.3 330.8,159.1 335.5,144.8 323.3,136 338.3,136
			343,121.8 347.6,136 		"/>
		<polygon points="321.9,80 317.3,94.3 329.4,103.1 314.4,103.1 309.7,117.3 305.1,103.1 290.1,103.1 302.2,94.3
			297.6,80 309.7,88.8 		"/>
	</g>
	<path fill="#496E2D" d="M279.3,168.7c-11-21.1-14.5-25.1-14.5-25.1s0.4-9.7,0.4-15.6c0-8.8-7.4-15.8-16.5-15.8
		c-8.6,0-15.7,2.9-16.5,11c-4.2,0.9-8.6,4.1-8.6,10.7c0,4.8,1,7.3,5.2,9.3c2.1-4.6,4.3-4.8,9.3-6.4c0.8,0.6,1.7,3,2.6,3.4l0.3,1
		c0,0-13.3,6.6-13.3,30.9c0,29.5,22,45.4,22,45.4l-1.8,0.3l-1.9,7.1h22v-7.2l11,17.5C279.3,234.9,289.2,187.6,279.3,168.7z"/>
</g>
</svg>
