<?xml version="1.0" encoding="utf-8"?>
<svg version="1.1" xmlns="http://www.w3.org/2000/svg" viewBox="0 0 513 342">
<rect y="0" fill="#41662E" width="513" height="342"/>
<rect x="256.5" y="0" fill="#FFFFFF" width="256.5" height="342"/>
<g>
	<polygon fill="#D80027" points="341.5,105.3 312.1,145.7 264.6,130.3 294,170.7 264.6,211.1 312.1,195.7 341.5,236.1 341.5,186.1
		389,170.6 341.5,155.2 	"/>
	<path fill="#D80027" d="M309.9,276.7c-58.5,0-106-47.5-106-106s47.5-106,106-106c18.3,0,35.4,4.6,50.4,12.7
		c-23.5-23-55.7-37.2-91.2-37.2c-72,0-130.4,58.4-130.4,130.4s58.4,130.4,130.4,130.4c35.5,0,67.7-14.2,91.2-37.2
		C345.4,272,328.2,276.7,309.9,276.7z"/>
</g>
</svg>
