<?xml version="1.0" encoding="utf-8"?>
<svg version="1.1" xmlns="http://www.w3.org/2000/svg" viewBox="0 0 513 342">
<rect y="0" fill="#FFFFFF" width="513" height="342"/>
<rect y="0" fill="#D80027" width="513" height="114"/>
<rect y="228" width="513" height="114"/>
<path fill="#C09300" d="M220.3,204.4c0,0,0-58.4,4.5-64.7c3.1-4.3,16.8,5.2,22.7,4.5c0,0,4.2-7.5,4.5-12c0.3-4.6-1.1-7.6-4.9-6.2
	c0,0-1.2-2.1,0.5-3.3c1.6-1.2,5.6,0.1,5.6,0.1s-0.5-1,1.6-0.9c2.9,0.2,7.2,1.4,7.4,5.6c0.2,3.1,0.3,7.7,0.4,8.7
	c0.7,6.8,2.7,8.7,2.7,8.7s18.4-9.2,22-5.2c3.3,3.8,4.5,64.7,4.5,64.7l-18.1-16.8l12.1,29.5c0,0-14.4,2.4-28.9,2.4
	c-14.5,0-31.1-4.2-31.1-4.2l13.8-28.2L220.3,204.4z"/>
</svg>
