<?xml version="1.0" encoding="utf-8"?>
<svg version="1.1" xmlns="http://www.w3.org/2000/svg" viewBox="0 0 513 342">
<rect y="0" fill="#338AF3" width="513" height="342"/>
<rect y="0" fill="#56AF35" width="513" height="171"/>
<path fill="#D80027" d="M0,342c0,0,513-171,513-171L0,0V342z"/>
<g fill="#ffc945">
	<path d="M134.7,231.5c33.6,0,60.8-27.2,60.8-60.8s-27.2-60.8-60.8-60.8s-60.8,27.2-60.8,60.8S101.1,231.5,134.7,231.5z
		 M134.7,255.8c-47,0-85.2-38.1-85.2-85.2s38.1-85.2,85.2-85.2s85.2,38.1,85.2,85.2S181.7,255.8,134.7,255.8z"/>
	<circle cx="119.5" cy="148.3" r="17.5"/>
	<circle cx="148.9" cy="158.5" r="17.5"/>
	<circle cx="134.7" cy="135.2" r="17.5"/>
	<circle cx="119.5" cy="172.7" r="17.5"/>
	<circle cx="149.9" cy="182.8" r="17.5"/>
	<circle cx="122.5" cy="198" r="17.5"/>
	<circle cx="145.9" cy="205.2" r="17.5"/>
</g>
</svg>
