<?xml version="1.0" encoding="utf-8"?>
<svg version="1.1" xmlns="http://www.w3.org/2000/svg" viewBox="0 0 22.5 15">
<path fill="#20AA46" d="M0,0h22.5v5H0V0z"/>
<path fill="#E92F3B" d="M0,10h22.5v5H0V10z"/>
<path fill="#FADF50" d="M0,5h22.5v5H0V5z"/>
<circle fill="#205CCA" cx="11.3" cy="7.5" r="5.2"/>
<g stroke="#FFDB3D" fill="none">
  <g stroke-width="0.5">
    <path d="M11.3,8.8l-2.1,1.5L10,7.9L8,6.4h2.5l0.8-2.3l0.8,2.3l2.6,0l-2.1,1.5l0.8,2.4L11.3,8.8z"/>
    <line x1="10.3" y1="6.4" x2="12.2" y2="6.4"/>
    <line x1="9.9" y1="7.8" x2="11.2" y2="8.8"/>
    <line x1="12" y1="6.2" x2="12.7" y2="8"/>
    <line x1="10" y1="7.9" x2="10.6" y2="6.1"/>
    <line x1="11" y1="9" x2="12.6" y2="7.9"/>
  </g>
  <g stroke-width="0.25">
    <line x1="8.7" y1="3.9" x2="9.8" y2="5.5"/>
    <line x1="13.8" y1="3.8" x2="12.8" y2="5.4"/>
    <line x1="11.3" y1="10.1" x2="11.3" y2="12"/>
    <line x1="8.9" y1="8.3" x2="7.1" y2="9"/>
    <line x1="15.5" y1="9" x2="13.7" y2="8.3"/>
  </g>
</g>
</svg>
