<?xml version="1.0" encoding="utf-8"?>
<svg version="1.1" xmlns="http://www.w3.org/2000/svg" viewBox="0 0 513 342">
<rect y="0" fill="#2E52B2" width="513" height="342"/>
<polygon fill="#FFFFFF" points="256,0 256,22.6 209.9,53.3 256,53.3 256,117.3 209.9,117.3 256,148 256,170.7 233.4,170.7 160,121.7
	160,170.7 96,170.7 96,121.7 22.6,170.7 0,170.7 0,148 46.1,117.3 0,117.3 0,53.3 46.1,53.3 0,22.6 0,0 22.6,0 96,48.9 96,0 160,0
	160,48.9 233.4,0 "/>
<g>
	<polygon fill="#D80027" points="144,0 112,0 112,69.3 0,69.3 0,101.3 112,101.3 112,170.7 144,170.7 144,101.3 256,101.3 256,69.3
		144,69.3 	"/>
	<polygon fill="#D80027" points="0,0 0,15.1 57.4,53.3 80,53.3 	"/>
	<polygon fill="#D80027" points="256,0 256,15.1 198.6,53.3 176,53.3 	"/>
	<polygon fill="#D80027" points="0,0 0,15.1 57.4,53.3 80,53.3 	"/>
	<polygon fill="#D80027" points="256,0 256,15.1 198.6,53.3 176,53.3 	"/>
	<polygon fill="#D80027" points="0,170.7 0,155.6 57.4,117.3 80,117.3 	"/>
	<polygon fill="#D80027" points="256,170.7 256,155.6 198.6,117.3 176,117.3 	"/>
</g>
<g>
	<path fill="#F3F3F3" d="M307.1,127.1v92c0,61.6,80.5,80.5,80.5,80.5S468,280.6,468,219v-92l-80.5-23L307.1,127.1z"/>
	<path fill="#D80027" d="M468,132.8V98.3H307.1v34.5h69v69h-69v23v0h69V296c6.9,2.5,11.5,3.5,11.5,3.5s4.6-1.1,11.5-3.5v-71.2h69v0v-23
		h-69v-69H468z"/>
</g>
</svg>
