<?xml version="1.0" encoding="utf-8"?>
<svg version="1.1" xmlns="http://www.w3.org/2000/svg" viewBox="0 0 513 342">
<rect fill="#0052B4" width="513" height="342"/>
<polygon fill="#FFFFFF" points="256,0 256,30.6 210.8,55.7 256,55.7 256,115 196.9,115 256,147.8 256,170.7 229.3,170.7 155.8,129.8
	155.8,170.7 100.2,170.7 100.2,122.1 12.7,170.7 0,170.7 0,140.1 45.2,115 0,115 0,55.7 59.1,55.7 0,22.8 0,0 26.7,0 100.2,40.8
	100.2,0 155.8,0 155.8,48.6 243.3,0 "/>
<polygon fill="#D80027" points="144,0 112,0 112,69.3 0,69.3 0,101.3 112,101.3 112,170.7 144,170.7 144,101.3 256,101.3 256,69.3
	144,69.3 "/>
<polygon fill="#0052B4" points="155.8,115 256,170.7 256,154.9 184.2,115 "/>
<polygon fill="#FFFFFF" points="155.8,115 256,170.7 256,154.9 184.2,115 "/>
<g>
	<polygon fill="#D80027" points="155.8,115 256,170.7 256,154.9 184.2,115 	"/>
	<polygon fill="#D80027" points="71.8,115 0,154.9 0,170.7 0,170.7 100.2,115 	"/>
</g>
<polygon fill="#0052B4" points="100.2,55.6 0,0 0,15.7 71.8,55.6 "/>
<polygon fill="#FFFFFF" points="100.2,55.6 0,0 0,15.7 71.8,55.6 "/>
<g>
	<polygon fill="#D80027" points="100.2,55.6 0,0 0,15.7 71.8,55.6 	"/>
	<polygon fill="#D80027" points="184.2,55.6 256,15.7 256,0 256,0 155.8,55.6 	"/>
</g>
<g transform="translate(13 4)">
	<path fill="#1F8BDE" d="M299.2,190.2v-90c0-8.5,6.5-15.3,15-15.3h120.5c8.3,0,15,6.8,15,15.3v90
			c0,75.2-75.2,105.3-75.2,105.3S299.2,265.4,299.2,190.2z"/>
	<path fill="#FFFFFF" d="M299.2,190.2v-90c0-8.5,6.5-15.3,15-15.3h120.5c8.3,0,15,6.8,15,15.3v90c0,75.2-75.2,105.3-75.2,105.3
		S299.2,265.4,299.2,190.2z M378.8,276.5c7.9-4.5,15.9-10,23.2-16.7c20.5-18.5,32.6-41.4,32.6-69.7v-90c0-0.3-120.4-0.3-120.4-0.3
		l0,90.3c0,28.3,12.1,51.2,32.6,69.7c8.3,7.5,17.6,13.9,27.6,19C375.8,278.2,377.2,277.4,378.8,276.5z"/>
	<path fill="#187536" d="M334.1,189.4c-2.6-7.9,1.7-14.3,10.1-14.3h60.5c8.2,0,12.8,6.3,10.1,14.3l-5.5,16.5c-2.6,7.9-8.9,9.2-15.8,4
		c0,0,2.6-4.8-19.1-4.8c-21.7,0-19.1,4.8-19.1,4.8c-6.1,5.7-13.1,4-15.8-4C339.6,206,334.1,189.4,334.1,189.4z"/>

	<path fill="#FFFFFF" d="M344.4,175.1c8.1,1.6,17.8-15,30.1-15c13.1,0,21.8,17.1,30.1,15c7.4-1.8,15-22.2,15-30.1
		c0-16.6-20.2-30.1-45.1-30.1c-24.9,0-45.1,13.5-45.1,30.1C329.3,153.5,336,173.5,344.4,175.1z"/>

	<path fill="#FFFFFF" d="M343,266.7c6.2,0.4,12.5-1.8,17.2-6.5l9-9c2.9-2.9,7.5-2.9,10.4,0c0,0,0,0,0,0l9,9c4.7,4.7,11,6.9,17.1,6.5
		c5.3-0.3,32.5-33.5,25.7-32.6c-4.6,0.6-9.1,2.8-12.7,6.3c0,0,0,0-0.1,0.1l-9,9c-2.9,2.9-7.5,2.9-10.4,0c0,0,0,0,0,0l-9-9
		c-8.7-8.8-22.9-8.8-31.7-0.1c0,0,0,0-0.1,0.1l-9,9c-2.9,2.9-7.5,2.9-10.4,0c0,0,0,0,0,0l-9-9c-3.5-3.5-7.8-5.6-12.3-6.3
		C311,233.1,337.8,266.4,343,266.7z M309.1,206c2.9-2.9,7.5-2.9,10.4,0c0,0,0,0,0,0l9,9c8.8,8.7,22.9,8.7,31.7,0l9-9
		c2.9-2.9,7.5-2.9,10.4,0c0,0,0,0,0,0l9,9c8.8,8.7,22.9,8.7,31.7,0l9-9c2.9-2.9,7.5-2.9,10.4,0c0,0,0,0,0,0c0,0,5.5-14.8,2.5-15.9
		c-7.9-2.9-17.2-1.2-23.5,5.2c0,0,0,0-0.1,0.1l-9,9c-2.9,2.9-7.5,2.9-10.4,0c0,0,0,0,0,0l-9-9c-8.7-8.8-22.9-8.8-31.7-0.1
		c0,0,0,0-0.1,0.1l-9,9c-2.9,2.9-7.5,2.9-10.4,0c0,0,0,0,0,0l-9-9c-6.2-6.2-15.1-8-22.8-5.5C304.1,191,309.1,206,309.1,206z"/>
</g>
</svg>
