<?xml version="1.0" encoding="utf-8"?>
<svg version="1.1" xmlns="http://www.w3.org/2000/svg" viewBox="0 0 513 342">
<rect y="0" fill="#338AF3" width="513" height="342"/>
<g>
	<polygon fill="#FFFFFF" points="256,37.9 266.1,69.1 299,69.1 272.4,88.4 282.6,119.6 256,100.3 229.4,119.6 239.6,88.4 213,69.1
		245.9,69.1 	"/>
	<polygon fill="#FFFFFF" points="123.2,170.7 154.4,160.5 154.4,127.7 173.7,154.3 204.9,144.1 185.6,170.7 204.9,197.2 173.7,187.1
		154.4,213.6 154.4,180.8 	"/>
	<polygon fill="#FFFFFF" points="256,303.5 245.9,272.3 213,272.3 239.6,253 229.4,221.7 256,241 282.6,221.7 272.4,253 299,272.3
		266.1,272.3 	"/>
	<polygon fill="#FFFFFF" points="388.8,170.7 357.6,180.8 357.6,213.6 338.3,187.1 307.1,197.2 326.4,170.7 307.1,144.1 338.3,154.3
		357.6,127.7 357.6,160.5 	"/>
</g>
</svg>
