<?xml version="1.0" encoding="utf-8"?>
<svg version="1.1" xmlns="http://www.w3.org/2000/svg" xmlns:xlink="http://www.w3.org/1999/xlink" viewBox="0 0 513 342">
	<g fill="#FFFFFF">
		<path d="M0,0h513v341.3H0V0z"/>
		<path d="M311.7,230L513,341.3v-31.5L369.3,230L311.7,230z"/>
		<path d="M200.3,111.3L0,0v31.5l143.7,79.8H200.3z"/>
	</g>
	<g fill="#0052B4">
		<path d="M393.8,230L513,295.7V230H393.8z M311.7,230L513,341.3v-31.5L369.3,230L311.7,230z M458.6,341.3l-147-81.7
				v81.7H458.6z"/>
		<path d="M90.3,230L0,280.2V230H90.3z M200.3,244.2v97.2H25.5L200.3,244.2z"/>
		<path d="M118.2,111.3L0,45.6v65.7H118.2z M200.3,111.3L0,0v31.5l143.7,79.8H200.3z M53.4,0l147,81.7V0H53.4z"/>
		<path d="M421.7,111.3L513,61.1v50.2H421.7z M311.7,97.1V0h174.9L311.7,97.1z"/>
	</g>
	<g fill="#D80027">
		<path d="M288,0h-64v138.7H0v64h224v138.7h64V202.7h224v-64H288V0z"/>
		<path d="M311.7,230L513,341.3v-31.5L369.3,230L311.7,230z"/>
		<path d="M143.7,230L0,309.9v31.5L200.3,230L143.7,230z"/>
		<path d="M200.3,111.3L0,0v31.5l143.7,79.8H200.3z"/>
		<path d="M368.3,111.3L513,31.5V0L311.7,111.3H368.3z"/>
	</g>
</svg>
