<?xml version="1.0" encoding="utf-8"?>
<svg version="1.1" xmlns="http://www.w3.org/2000/svg" viewBox="0 0 513 342">
<rect y="0" fill="#c60a0a" width="513" height="342"/>
<polygon fill="#3E8446" points="256.5,170.7 44.5,296.8 44.5,44.5 "/>
<g>
	<polygon fill="#FFDA44" points="256.5,170.7 467.5,296.8 44.5,296.8 	"/>
	<polygon fill="#FFDA44" points="467.5,44.5 256.5,170.7 44.5,44.5 	"/>
</g>
<polygon fill="#3E8446" points="467.5,44.5 467.5,296.8 256.5,170.7 "/>
<g fill="#FFDA44">
	<polygon points="256.5,10.4 259.3,20.6 270,20.6 261.4,26.9 264.7,37.1 256.5,30.8 247.3,37.1 250.6,26.9 242,20.6
		252.7,20.6 	"/>
	<polygon points="170.1,10.4 173.4,20.6 184.1,20.6 175.5,26.9 178.8,37.1 170.1,30.8 161.4,37.1 164.7,26.9
		156.1,20.6 166.8,20.6 	"/>
	<polygon points="341.9,10.4 345.2,20.6 356,20.6 347.3,26.9 350.6,37.1 341.9,30.8 333.2,37.1 336.5,26.9 327.9,20.6
		338.6,20.6 	"/>
	<polygon points="256.5,304.2 259.3,314.4 270,314.4 261.4,320.7 264.7,330.9 256.5,324.6 247.3,330.9 250.6,320.7
		242,314.4 252.7,314.4 	"/>
	<polygon points="170.1,304.2 173.4,314.4 184.1,314.4 175.5,320.7 178.8,330.9 170.1,324.6 161.4,330.9 164.7,320.7
		156.1,314.4 166.8,314.4 	"/>
	<polygon points="341.9,304.2 345.2,314.4 356,314.4 347.3,320.7 350.6,330.9 341.9,324.6 333.2,330.9 336.5,320.7
		327.9,314.4 338.6,314.4 	"/>
</g>
<g>
	<circle fill="#c60a0a" cx="244.5" cy="170.7" r="76.2"/>
	<polygon fill="#FFDA44" points="244.5,110.1 258.1,151.9 302.1,151.9 266.5,177.7 280.1,219.5 244.5,193.7 209,219.5 222.6,177.7
		187,151.9 231,151.9 	"/>
</g>
<path fill="#FFDA44" d="M107.7,167.8c4.4,6.9,2.3,16.1-4.6,20.5s-16.1,2.3-20.5-4.6c-7.9-12.5-3.3-33-3.3-33S99.7,155.3,107.7,167.8z"
	/>
<circle fill="#A2001D" cx="99.1" cy="182.1" r="7.4"/>
</svg>
