<?xml version="1.0" encoding="utf-8"?>
<svg version="1.1" xmlns="http://www.w3.org/2000/svg" viewBox="0 0 22.5 15">
	<path fill="#FFFFFF" d="M0.8,0h21v15h-21V0z"/>
	<path fill="#eb000e" d="M9.8,6H0v3h9.8v6h3V9h9.8V6h-9.8V0h-3V6z"/>
	<path fill="#eb000e" d="M17.3,2.7l-0.2-1.2h1l-0.2,1.2l1.2-0.2v1l-1.2-0.2l0.2,1.2h-1l0.2-1.2l-1.2,0.2v-1L17.3,2.7z M4.6,2.7L4.4,1.5
		h1L5.2,2.7l1.2-0.2v1L5.2,3.3l0.2,1.2h-1l0.2-1.2L3.4,3.5v-1C3.4,2.5,4.6,2.7,4.6,2.7z M4.6,11.7l-0.2-1.2h1l-0.2,1.2l1.2-0.2v1
		l-1.2-0.2l0.2,1.2h-1l0.2-1.2l-1.2,0.2v-1C3.4,11.5,4.6,11.7,4.6,11.7z M17.3,11.7l-0.2-1.2h1l-0.2,1.2l1.2-0.2v1l-1.2-0.2l0.2,1.2
		h-1l0.2-1.2l-1.2,0.2v-1L17.3,11.7z"/>
</svg>
