<?xml version="1.0" encoding="UTF-8"?>
<svg xmlns="http://www.w3.org/2000/svg" viewBox="0 0 513 342">
<rect fill="#FFFFFF" width="513" height="342"/>
<polygon fill="#D80027" points="308,0 204,0 204,118.7 0,118.7 0,222.7 204,222.7 204,342 308,342 308,222.7 513,222.7 513,118.7 308,118.7 "/>
<polygon fill="#FFDA44" points="368.6,188 394.6,205.3 394.6,136 368.6,153.3 273.3,153.3 273.3,58.1 290.6,32.1 221.4,32.1 238.7,58.1 238.7,153.3 143.4,153.3 117.4,136 117.4,205.3 143.4,188 238.7,188 238.7,283.2 221.4,309.2 290.6,309.2 273.3,283.2 273.3,188 "/>
</svg>
