<?xml version="1.0" encoding="utf-8"?>
<svg version="1.1" xmlns="http://www.w3.org/2000/svg" viewBox="0 0 513 342">
<rect y="0" fill="#FFFFFF" width="513" height="342"/>
<rect y="230" fill="#D80027" width="513" height="112"/>
<polygon fill="#D80027" stroke="#000000" stroke-miterlimit="10" points="363.1,131.8 363.1,99.1 374,99.1 374,77.3 352.1,77.3 352.1,88.2 330.3,88.2 330.3,77.3 308.5,77.3
	308.5,99.1 319.4,99.1 319.4,131.8 297.6,131.8 297.6,55.5 308.5,55.5 308.5,33.7 286.7,33.7 286.7,44.6 275.8,44.6 275.8,33.7
	254,33.7 254,44.6 243.1,44.6 243.1,33.7 221.3,33.7 221.3,55.5 232.2,55.5 232.2,131.8 210.4,131.8 210.4,99.1 221.3,99.1
	221.3,77.3 199.5,77.3 199.5,88.2 177.7,88.2 177.7,77.3 155.9,77.3 155.9,99.1 166.8,99.1 166.8,131.8 145,131.8 145,219
	384.9,219 384.9,131.8 "/>
<path fill="#FFDA44" stroke="#000000" stroke-miterlimit="10" d="M264.9,235.5l-24.2,18.2l19.1,14.3v31.3h-23.2v9l23,0l0,7.9l-23,0v9.3H270V268l19.1-14.3L264.9,235.5z
	 M264.9,260.8l-10.1-7.1l10.1-7.1l10.1,7.1L264.9,260.8z"/>
<path d="M239.6,209.7v-27.9c0,0,0.1-22.3,25-22.3c24.8,0,25.7,22,25.7,22v28.2H239.6z"/>
<path d="M170.5,209.7v-24.3c0,0,0.1-18.7,19.6-18.7s20.2,18.4,20.2,18.4v24.5H170.5z"/>
<path d="M169.1,209.7v-24.3c0,0,0.1-18.7,19.6-18.7s20.2,18.4,20.2,18.4v24.5H169.1z"/>
<path d="M320.9,209.7v-24.3c0,0,0.1-18.7,19.6-18.7c19.5,0,20.2,18.4,20.2,18.4v24.5H320.9z"/>
<path d="M329.3,132v-15.7c0,0,0.1-12.1,11.3-12.1c11.3,0,11.7,11.9,11.7,11.9V132H329.3z"/>
<path d="M250.5,132v-23.7c0,0,0.1-18.3,14.3-18.3c14.2,0,14.7,18,14.7,18v24H250.5z"/>
<path d="M177.5,132v-15.7c0,0,0.1-12.1,11.3-12.1s11.7,11.9,11.7,11.9V132H177.5z"/>
</svg>
