<?xml version="1.0" encoding="utf-8"?>
<svg version="1.1" xmlns="http://www.w3.org/2000/svg" viewBox="0 0 513 342">
<rect y="0" fill="#FFFFFF" width="513" height="342"/>
<rect y="0" fill="#6DA544" width="513" height="113.8"/>
<rect y="227.6" fill="#D80027" width="513" height="114.4"/>
<polygon fill="#0070C8" points="126,171 0,342 0,0 "/>
<path fill="none" stroke="#000000" stroke-miterlimit="10" d="M233.8,139.4v40.4c0,35.6,35.6,35.6,35.6,35.6s35.6,0,35.6-35.6v-40.4H233.8z"/>
<polygon fill="#786145" points="264.5,179.8 274.3,179.8 278.3,205.6 260.5,205.6 "/>
<path fill="#6DA544" d="M287.2,162c0-9.8-8-14.8-17.8-14.8s-17.8,5-17.8,14.8c-4.9,0-8.9,4-8.9,8.9s4,8.9,8.9,8.9c2.9,0,32.6,0,35.6,0
	c4.9,0,8.9-4,8.9-8.9S292.1,162,287.2,162z"/>
<g fill="#FFDA00" stroke="#000000" stroke-miterlimit="10">
	<polygon points="230.7,120 232.6,123.3 236.4,123.3 234.5,126.6 236.4,129.8 232.6,129.8 230.7,133.1 228.8,129.8
		225,129.8 226.9,126.6 225,123.3 228.8,123.3 	"/>
	<polygon points="246,120 247.9,123.3 251.6,123.3 249.7,126.6 251.6,129.8 247.9,129.8 246,133.1 244.1,129.8
		240.3,129.8 242.2,126.6 240.3,123.3 244.1,123.3 	"/>
	<polygon points="261.3,120 263.2,123.3 266.9,123.3 265,126.6 266.9,129.8 263.2,129.8 261.3,133.1 259.4,129.8
		255.6,129.8 257.5,126.6 255.6,123.3 259.4,123.3 	"/>
	<polygon points="277.1,120 279,123.3 282.8,123.3 280.9,126.6 282.8,129.8 279,129.8 277.1,133.1 275.2,129.8
		271.5,129.8 273.3,126.6 271.5,123.3 275.2,123.3 	"/>
	<polygon points="293.1,120 295,123.3 298.8,123.3 296.9,126.6 298.8,129.8 295,129.8 293.1,133.1 291.2,129.8
		287.5,129.8 289.3,126.6 287.5,123.3 291.2,123.3 	"/>
	<polygon points="308.1,120 310,123.3 313.7,123.3 311.8,126.6 313.7,129.8 310,129.8 308.1,133.1 306.2,129.8
		302.4,129.8 304.3,126.6 302.4,123.3 306.2,123.3 	"/>
</g>
</svg>
