<?xml version="1.0" encoding="utf-8"?>
<svg version="1.1" xmlns="http://www.w3.org/2000/svg" viewBox="0 0 513 342">
<rect fill="#0052B4" width="513" height="342"/>
<g>
	<polygon fill="#FFFFFF" points="256,0 256,117.4 209.9,117.4 256,148.1 256,170.7 233.4,170.7 160,121.8 160,170.7 96,170.7 96,121.8
		22.6,170.7 0,170.7 0,148.1 46.1,117.4 0,117.4 0,53.4 46.1,53.4 0,22.7 0,0 22.6,0 96,48.9 96,0 160,0 160,48.9 233.4,0 	"/>
	<polygon fill="#D80027" points="144,0 112,0 112,69.4 0,69.4 0,101.4 112,101.4 112,170.7 144,170.7 144,101.4 256,101.4 256,69.4
		144,69.4 	"/>
	<polygon fill="#2E52B2" points="256,22.7 256,53.4 209.9,53.4 	"/>
	<g>
		<polygon fill="#D80027" points="0,170.7 0,159.7 62.5,117.4 85.1,117.4 7.3,170.7 		"/>
	</g>
	<polygon fill="#D80027" points="7.3,0.1 85.1,53.3 62.5,53.3 0,11.1 0,0.1 	"/>
	<polygon fill="#D80027" points="256,0.1 256,11.1 193.5,53.4 170.9,53.4 248.7,0.1 	"/>
	<polygon fill="#D80027" points="248.7,170.7 170.9,117.4 193.5,117.4 256,159.7 256,170.7 	"/>
</g>
<g>
	<ellipse fill="#FFFFFF" cx="443.4" cy="233.6" rx="29" ry="43.5"/>
	<ellipse fill="#FFCE00" cx="406.9" cy="317.7" rx="22" ry="9.3"/>
	<ellipse fill="#FFCE00" cx="364" cy="317.7" rx="22" ry="9.3"/>
	<polygon fill="#39B200" points="342,190.1 385.4,277 428.9,190.1 	"/>
	<ellipse fill="#9B9B9B" cx="327.5" cy="233.6" rx="29" ry="43.5"/>
	<path fill="#757575" d="M371,175.6l-14.5,14.5h57.9l-14.5-14.5l14.5-43.5c0,0-13-29-29-29s-29,29-29,29L371,175.6z"/>
	<circle fill="#C6B56F" cx="385.4" cy="67" r="29"/>
	<circle fill="#A54A00" cx="386" cy="88.7" r="29"/>
	<circle fill="#FFFFFF" cx="443.4" cy="117.7" r="29"/>
	<circle fill="#0049FF" cx="342.2" cy="146.7" r="29"/>
	<circle fill="#0041F9" cx="429.8" cy="146.7" r="29"/>
	<circle fill="#F7D71E" cx="386" cy="233.6" r="29"/>
	<circle fill="#CEC851" cx="457.9" cy="190.1" r="29"/>
	<circle fill="#FFFFFF" cx="385.4" cy="289.5" r="29"/>
	<path fill="#7C0B29" d="M371,135.7l14.5-3.5l14.5,3.5c0,7.5-14.5,11-14.5,11S371,143.2,371,135.7z"/>
	<circle fill="#FFFFFF" cx="327.5" cy="117.4" r="29"/>
</g>
</svg>
