<?xml version="1.0" encoding="utf-8"?>
<svg version="1.1" xmlns="http://www.w3.org/2000/svg" viewBox="0 0 513 342">
<rect y="0" fill="#FFFFFF" width="513" height="342"/>
<g>
	<rect y="0" fill="#338AF3" width="171" height="342"/>
	<rect x="342" y="0" fill="#338AF3" width="171" height="342"/>
</g>
<circle fill="#DCC26D" cx="256" cy="155.8" r="25.5"/>
<path fill="#628A40" d="M194.2,155.9c0,22.1,11.8,42.5,30.8,53.5c5.9,3.4,13.5,1.4,16.9-4.5c3.4-5.9,1.4-13.5-4.5-16.9
	c-11.5-6.6-18.5-18.9-18.5-32.1c0-6.8-5.5-12.4-12.4-12.4S194.2,149,194.2,155.9z M289.3,208c17.8-11.4,28.6-31,28.5-52.1
	c0-6.8-5.5-12.4-12.4-12.4c-6.8,0-12.4,5.5-12.4,12.4c0,12.7-6.5,24.5-17.1,31.3c-5.8,3.6-7.7,11.2-4.1,17c3.6,5.8,11.2,7.7,17,4.1
	C289,208.2,289.1,208.1,289.3,208z"/>
</svg>
