<?xml version="1.0" encoding="utf-8"?>
<svg xmlns="http://www.w3.org/2000/svg" viewBox="0 0 513 342">
<rect fill="#D80027" width="513" height="342"/>
<rect x="11.1" y="11.1" fill="#0052B4" width="489.7" height="319.1"/>
<path fill="#7DBEF1" d="M256,285.3c0,0,76.4-51.3,76.4-114.6S256,56,256,56s-76.4,51.3-76.4,114.6S256,285.3,256,285.3z"/>
<polygon fill="#1C8AE6" points="179.8,180.7 332.4,180.7 303.1,245.6 207.9,245.6 "/>
<path fill="#FFF042" d="M192.3,205.9c0,0,40.5,38.2,51,38.2c12.4,0,12.6-18.4,25.5-25.5c20.2-11.1,51-12.7,51-12.7l-22.8,42.8l-41,36.6
	l-46.8-39.7L192.3,205.9z"/>
<path fill="#259C7B" d="M256,157.5l-22.5,15.6l7.9-26.2l-21.8-16.5l27.4-0.5l9-25.9l9,25.9l27.4,0.5L270.6,147l7.9,26.2L256,157.5z"/>
<path fill="#8E5715" d="M249.7,144.6c-0.9,9.2-1.5,18.4-1.7,27.6c-0.3,11.9,0.3,20.7,2,26c2.2,6.6,7.2,12.9,14.2,18.9
	c5.3,4.6,10.6,8.1,14.2,10.1c3.1,1.7,7,0.6,8.7-2.4c1.7-3.1,0.6-7-2.4-8.7l0,0c-4.3-2.5-8.4-5.4-12.2-8.7
	c-5.4-4.6-9.1-9.2-10.4-13.3c-1.1-3.4-1.6-11.3-1.4-21.7c0.2-8.9,0.8-17.8,1.7-26.6c0.4-3.5-2.2-6.6-5.7-7
	C253.1,138.5,250,141.1,249.7,144.6z"/>
<path fill="#FFFFFF" d="M217.8,170.7l25.5,38.2h-25.5V170.7z"/>
<path fill="none" stroke="#D80027" stroke-width="12" stroke-miterlimit="10" d="M256,285.3c0,0,76.4-51.3,76.4-114.6S256,56,256,56s-76.4,51.3-76.4,114.6S256,285.3,256,285.3z"/>
</svg>
