<?xml version="1.0" encoding="UTF-8"?>

<svg xmlns="http://www.w3.org/2000/svg" viewBox="0 0 513 342">
<rect y="0" fill="#0052B4" width="513" height="342"/>

<g fill="#FFFFFF">
	<path d="M223.4,170.7c0.3-0.3,0.5-0.6,0.8-0.9C223.9,170.1,223.7,170.4,223.4,170.7L223.4,170.7z"/>
	<polygon points="189.2,212.6 200.2,235.5 224.9,229.8 213.8,252.6 233.7,268.4 209,274 209,299.4 189.2,283.5
		169.4,299.4 169.5,274 144.7,268.4 164.6,252.6 153.5,229.8 178.3,235.5 	"/>
	<polygon points="387.1,241.1 392.3,252 404.1,249.3 398.8,260.2 408.3,267.7 396.5,270.3 396.5,282.5 387.1,274.9
		377.6,282.5 377.7,270.3 365.8,267.7 375.3,260.2 370,249.3 381.9,252 	"/>
	<polygon points="338.5,125.1 343.7,136 355.5,133.3 350.2,144.2 359.7,151.7 347.9,154.4 347.9,166.5 338.5,158.9
		329,166.5 329,154.4 317.2,151.7 326.7,144.2 321.4,133.3 333.2,136 	"/>
	<polygon points="387.1,58.9 392.3,69.8 404.1,67.1 398.8,78 408.3,85.5 396.5,88.2 396.5,100.3 387.1,92.7
		377.6,100.3 377.7,88.2 365.8,85.5 375.3,78 370,67.1 381.9,69.8 	"/>
	<polygon points="429.5,108.6 434.8,119.5 446.6,116.8 441.3,127.7 450.8,135.2 439,137.8 439,150 429.5,142.4
		420.1,150 420.1,137.8 408.3,135.2 417.8,127.7 412.5,116.8 424.3,119.5 	"/>
	<polygon points="399.2,166.5 403.3,179.2 416.6,179.2 405.8,187 409.9,199.6 399.2,191.8 388.4,199.6 392.5,187
		381.8,179.2 395.1,179.2 	"/>
	<polygon points="256,0 256,30.6 210.8,55.7 256,55.7 256,115 196.9,115 256,147.8 256,170.7 229.3,170.7 155.8,129.8
		155.8,170.7 100.2,170.7 100.2,122.1 12.7,170.7 0,170.7 0,140.1 45.2,115 0,115 0,55.7 59.1,55.7 0,22.8 0,0 26.7,0 100.2,40.8
		100.2,0 155.8,0 155.8,48.6 243.3,0 	"/>
</g>
<polygon fill="#D80027" points="144,0 112,0 112,69.3 0,69.3 0,101.3 112,101.3 112,170.7 144,170.7 144,101.3 256,101.3 256,69.3
	144,69.3 "/>
<polygon fill="#0052B4" points="155.8,115 256,170.7 256,154.9 184.2,115 "/>
<polygon fill="#FFFFFF" points="155.8,115 256,170.7 256,154.9 184.2,115 "/>
<g fill="#D80027">
	<polygon points="155.8,115 256,170.7 256,154.9 184.2,115 	"/>
	<polygon points="71.8,115 0,154.9 0,170.7 0,170.7 100.2,115 	"/>
</g>
<polygon fill="#0052B4" points="100.2,55.6 0,0 0,15.7 71.8,55.6 "/>
<polygon fill="#FFFFFF" points="100.2,55.6 0,0 0,15.7 71.8,55.6 "/>
<g fill="#D80027">
	<polygon points="100.2,55.6 0,0 0,15.7 71.8,55.6 	"/>
	<polygon points="184.2,55.6 256,15.7 256,0 256,0 155.8,55.6 	"/>
</g>
</svg>
