<?xml version="1.0" encoding="utf-8"?>
<svg xmlns="http://www.w3.org/2000/svg" viewBox="0 0 513 342">
<rect y="0" fill="#FFFFFF" width="513" height="342"/>
<g fill="#338AF3">
	<rect y="0" width="513" height="114"/>
	<rect y="228" width="513" height="114"/>
	<polygon points="203.5,117.9 210.2,134.5 227.8,135.5 213.8,146.4 218.5,164.1 203.5,154.2 188.5,164.1 193.2,146.4
		179.2,135.5 196.8,134.5 	"/>
	<polygon points="308.5,117.9 315.2,134.5 332.8,135.5 318.8,146.4 323.5,164.1 308.5,154.2 293.5,164.1 298.2,146.4
		284.2,135.5 301.8,134.5 	"/>
	<polygon points="256,147.6 262.7,164.2 280.3,165.2 266.3,176.1 271,193.8 256,183.9 241,193.8 245.7,176.1
		231.7,165.2 249.3,164.2 	"/>
	<polygon points="203.5,177.3 210.2,193.9 227.8,194.9 213.8,205.8 218.5,223.4 203.5,213.5 188.5,223.4 193.2,205.8
		179.2,194.9 196.8,193.9 	"/>
	<polygon points="308.5,177.3 315.2,193.9 332.8,194.9 318.8,205.8 323.5,223.4 308.5,213.5 293.5,223.4 298.2,205.8
		284.2,194.9 301.8,193.9 	"/>
</g>
</svg>
