<?xml version="1.0" encoding="utf-8"?>
<svg version="1.1" xmlns="http://www.w3.org/2000/svg" viewBox="0 0 513 342">
<rect fill="#FFFFFF" width="513" height="342"/>
<rect fill="#D80027" width="513" height="114"/>
<rect y="228" fill="#0052B4" width="513" height="114"/>
<g fill="#338AF3">
	<polygon points="309.3,113.2 309.3,69.2 326.8,54.8 344.5,69.2 344.5,113.2 	"/>
	<polygon points="203.7,113.2 203.7,69.2 186.4,54.8 168.5,69.2 168.5,113.2 	"/>
	<polygon points="238.9,113.2 238.9,69.2 256.5,54.8 274.1,69.2 274.1,113.2 	"/>
</g>
<g fill="#0052B4">
	<polygon points="309.3,113.2 274.1,113.2 274.1,69.2 291.6,54.8 309.3,69.2 "/>
	<polygon points="238.9,113.2 203.7,113.2 203.7,69.2 221.2,54.8 238.9,69.2 "/>
</g>
<path stroke="#D80027" stroke-width="1" fill="#FFFFFF" d="M168.5,113.2v101.9c0,24.3,14.4,46.2,35.4,59.4c21.3,13.4,42.1,14.7,52.6,14.7c10.5,0,31.4-1.7,52.6-14.8
	c21-13,35.4-35.1,35.4-59.3V113.2L168.5,113.2z"/>
<g fill="#D80027">
	<rect x="168.5" y="113.2" width="35.2" height="35.2"/>
	<rect x="238.9" y="113.2" width="35.2" height="35.2"/>
	<rect x="309.3" y="113.2" width="35.2" height="35.2"/>
	<rect x="203.7" y="148.4" width="35.2" height="35.2"/>
	<rect x="274.1" y="148.4" width="35.2" height="35.2"/>
	<rect x="168.5" y="183.6" width="35.2" height="35.2"/>
	<rect x="203.7" y="218.8" width="35.2" height="35.2"/>
	<rect x="238.9" y="183.6" width="35.2" height="35.2"/>
	<rect x="309.3" y="183.6" width="35.2" height="35.2"/>
	<rect x="274.1" y="218.8" width="35.2" height="35.2"/>
	<path d="M309.3,274.3c8.6-5.4,16.2-12.3,22-20.3h-22V274.3z"/>
	<path d="M181.7,254c5.8,8,13.3,14.9,22,20.4V254H181.7z"/>
	<path d="M238.9,254v33.7c7.2,1.2,13.3,1.5,17.6,1.5c4.3,0,10.4-0.3,17.6-1.6V254H238.9z"/>
</g>
</svg>
