<?xml version="1.0" encoding="utf-8"?>
<svg version="1.1" xmlns="http://www.w3.org/2000/svg" viewBox="0 0 513 342">
<rect y="0" fill="#FFFFFF" width="513" height="342"/>
<g fill="#2E52B2">
	<path d="M340.6,122.4h-56.1l-28-48.6l-28,48.6h-56.1l28,48.6l-28,48.6h56.1l28,48.6l28-48.6h56.1l-28-48.6L340.6,122.4
		z M293.2,171l-17.2,33.2h-38.9L219.8,171l17.2-33.2h38.9L293.2,171z M256.5,99.2l11.9,23.3h-23.9L256.5,99.2z M198.2,137.8h23.9
		l-10.8,21L198.2,137.8z M198.2,204.2l13-22.1l11.9,22.1H198.2z M256.5,241.7l-11.9-22.1h23.9L256.5,241.7z M315.9,204.2h-25
		l11.9-22.1L315.9,204.2z M289.8,137.8h26.1l-13,22.1L289.8,137.8z"/>
	<rect y="21.3" width="512" height="42.7"/>
	<rect y="277.3" width="512" height="42.7"/>
</g>
</svg>
