<?xml version="1.0" encoding="utf-8"?>
<svg version="1.1" xmlns="http://www.w3.org/2000/svg" viewBox="0 0 513 342">
<rect y="0" fill="#E52D42" width="513" height="342"/>
<path fill="#FFFFFF" d="M393.3,68.2h-45.8l-33.8,80.2l-34.4-22.9c0,0-24.7-59.1-34.4-68.2c-9.7-9.7-18.7-0.6-48.9,7.8
	c-29.6,8.4-30.8,18.7-42.2,18.7c-4.8,0-19.9-17.5-27.7-22.3c-12.1-7.8-16.9-4.2-13.9,7.2c1.2,4.8,10.9,10.9,16.9,19.9
	c7.8,11.5,12.7,25.9,12.7,25.9s10.9-10.3,16.9-12.1c9-2.4,19.3,1.8,31.4,0c15.1-2.4,31.4-10.9,31.4-10.9l4.2,43.4
	c0,0-54.3,50.7-49.5,70.6s56.1,44.6,68.2,62.7c12.1,17.5-7.2,24.1-7.2,32.6s-1.8,19.9,7.2,16.3c9-3.6,10.3-18.1,18.7-31.4
	c6-9,10.3-13.9,11.5-17.5c1.8-9-23.5-32-37.4-48.9c-6.6-7.8-19.9-18.7-19.9-18.7l39.2-29.6c0,0,67.6,27.7,82.6,18.7
	c15.1-9,19.3-98.3,19.3-98.3l47-11.5L393.3,68.2z"/>
<path fill="#F8DD4E" d="M279.3,262.4c-6,0-11.5-4.8-11.5-11.5s4.8-11.5,11.5-11.5c6,0,11.5,4.8,11.5,11.5S285.3,262.4,279.3,262.4z
	 M325.1,79.6c-6,0-11.5-4.8-11.5-11.5s4.8-11.5,11.5-11.5c6,0,11.5,4.8,11.5,11.5S331.1,79.6,325.1,79.6z M325.1,170.7
	c-6,0-11.5-4.8-11.5-11.5c0-6,4.8-11.5,11.5-11.5c6,0,11.5,4.8,11.5,11.5C336,165.9,331.1,170.7,325.1,170.7z M188.2,216.5
	c-6,0-11.5-4.8-11.5-11.5c0-6,4.8-11.5,11.5-11.5c6.6,0,11.5,4.8,11.5,11.5C199.7,211.7,194.2,216.5,188.2,216.5z M233.4,79.6
	c-6,0-11.5-4.8-11.5-11.5s4.8-11.5,11.5-11.5c6,0,11.5,4.8,11.5,11.5S240.1,79.6,233.4,79.6z M256.3,170.7c-6,0-11.5-10.3-11.5-22.9
	s4.8-22.9,11.5-22.9c6,0,11.5,10.3,11.5,22.9S263,170.7,256.3,170.7z M142.3,125.5c-6,0-11.5-4.8-11.5-11.5
	c0-6.6,4.8-11.5,11.5-11.5c6.6,0,11.5,4.8,11.5,11.5C153.8,120.6,149,125.5,142.3,125.5z"/>
</svg>
