<?xml version="1.0" encoding="utf-8"?>
<svg version="1.1" xmlns="http://www.w3.org/2000/svg" viewBox="0 0 513 342">
	<path fill="#181A93" d="M17.3,0h478.4v342H17.3V0z"/>
	<path fill="#FFA44A" d="M0,0h513v114H0V0z"/>
	<path fill="#1A9F0B" d="M0,228h513v114H0V228z"/>
	<path fill="#FFFFFF" d="M0,114h513v114H0V114z"/>
	<ellipse fill="#FFFFFF" cx="256.5" cy="171" rx="34.2" ry="34.2"/>
	<path fill="#181A93" d="M256.5,216.6c-25.1,0-45.6-20.5-45.6-45.6s20.5-45.6,45.6-45.6s45.6,20.5,45.6,45.6S281.6,216.6,256.5,216.6z M256.5,205.2
		c18.2,0,34.2-16,34.2-34.2s-15.9-34.2-34.2-34.2s-34.2,16-34.2,34.2S238.3,205.2,256.5,205.2z"/>
	<ellipse fill="#181A93" cx="256.5" cy="171" rx="22.8" ry="22.8"/>
</svg>
