<?xml version="1.0" encoding="utf-8"?>
<svg version="1.1" xmlns="http://www.w3.org/2000/svg" viewBox="0 0 513 342">
<rect y="0" fill="#FFFFFF" width="513" height="342"/>
<rect y="0" fill="#CE1126" width="513" height="114"/>
<rect y="228" width="513" height="114"/>
<g fill="#547C31">
	<path d="M219.2,160.7c-0.1,0-0.2,0-0.2,0l0,0h-29.1c1.5-5.7,6.6-9.9,12.8-9.9v-19.9c-18.3,0-33.1,14.9-33.1,33.1v16.2
		v0.3H219c0.1,0,0.2,0,0.2,0c1.8,0,3.3,1.5,3.3,3.3v6.6h-66.2v19.9h86.1v-26.5C242.4,171.1,232,160.7,219.2,160.7z"/>
	<polygon points="268.8,190.5 268.8,130.9 249,130.9 249,210.4 282.1,210.4 282.1,190.5 	"/>
	<polygon points="335,190.5 335,130.9 315.2,130.9 315.2,190.5 308.6,190.5 308.6,170.7 288.7,170.7 288.7,210.4
		348.3,210.4 348.3,190.5 	"/>
</g>
</svg>
