<?xml version="1.0" encoding="UTF-8"?>

<svg xmlns="http://www.w3.org/2000/svg" viewBox="0 0 513 342">
<rect y="0" fill="#0052B4" width="513" height="342"/>

<polygon fill="#FFFFFF" points="513,210.6 202.2,210.6 202.2,341.3 183.7,341.3 141,341.3 122.4,341.3 122.4,210.6 0,210.6 0,192
	0,149.3 0,130.8 122.4,130.8 122.4,0 141,0 183.7,0 202.2,0 202.2,130.8 513,130.8 513,149.3 512,192 "/>
<polygon fill="#D80027" points="513,149.3 513,192 183.7,192 183.7,341.3 141,341.3 141,192 0,192 0,149.3 141,149.3 141,0 183.7,0
	183.7,149.3 "/>
</svg>
