<?xml version="1.0" encoding="utf-8"?>
<svg version="1.1" xmlns="http://www.w3.org/2000/svg" viewBox="0 0 513 342">
<rect y="0" fill="#FFFFFF" width="513" height="342"/>
<polygon fill="#D80027" points="301.8,171 513,30.2 513,0 467.7,0 256.5,140.8 45.3,0 0,0 0,30.2 211.2,171 0,311.8 0,342 45.3,342
	256.5,201.2 467.7,342 513,342 513,311.8 "/>
<polygon fill="#FFDA44" points="233.7,44.6 256,50.2 278.3,44.6 282.3,23.7 267.4,30.2 256,14.8 244.6,30.2 229.7,23.7 "/>
<path fill="#D80027" d="M233.7,44.6c0,0-4,12.9-4,29.9c0,27.9,26.3,41.3,26.3,41.3s26.3-15.5,26.3-41.3c0-15.4-4-29.9-4-29.9
	s-8.1-5-22.3-5S233.7,44.6,233.7,44.6z"/>
</svg>
