<?xml version="1.0" encoding="UTF-8"?>

<svg xmlns="http://www.w3.org/2000/svg" viewBox="0 0 513 342">
<rect y="0" fill="#FFFFFF" width="513" height="342"/>
<rect y="0" width="512" height="90.579"/>
<rect y="251" fill="#496E2D" width="513" height="91"/>
<rect y="114" fill="#A2001D" width="513" height="114"/>
<g fill="#FFFFFF">
	<polygon points="323.3,54.5 297.7,42.7 256,137 214.3,42.7 188.7,54.5 240.5,170.7 188.7,286.9 214.3,298.7 256,204.3
		297.7,298.7 323.3,286.9 271.5,170.7 	"/>
	<path d="M273.4,65.6c-9.9-10.8-17.4-17-17.4-17s-7.5,6.2-17.4,17v210.1c9.9,10.8,17.4,17,17.4,17s7.5-6.2,17.4-17V65.6
		z"/>
</g>
<g fill="#A2001D">
	<path d="M209,105.9v129.5c10.5,18.5,23.3,33.7,32.9,43.8V62.1C232.3,72.2,219.5,87.4,209,105.9z"/>
	<path d="M303,105.9c-10.5-18.5-23.3-33.7-32.9-43.8v217.2c9.6-10.1,22.4-25.3,32.9-43.8V105.9z"/>
</g>
<path d="M303,105.9v129.5c10.6-18.8,18.8-41,18.8-64.8S313.6,124.7,303,105.9z"/>
<path d="M209,105.9v129.5c-10.6-18.8-18.8-41-18.8-64.8S198.4,124.7,209,105.9z"/>
</svg>
