<?xml version="1.0" encoding="utf-8"?>
<svg version="1.1" xmlns="http://www.w3.org/2000/svg" viewBox="0 0 512 342">
<g fill="#D80027">
	<rect y="0" width="513" height="342"/>
	<circle cx="256" cy="170.7" r="170.7"/>
</g>
<polygon fill="#FFDA44" points="382.4,170.7 330.8,195 358.3,245 302.2,234.3 295.1,290.9 256,249.2 216.9,290.9 209.8,234.3
	153.7,245 181.2,195 129.6,170.7 181.2,146.4 153.7,96.3 209.8,107.1 216.9,50.4 256,92.1 295.1,50.4 302.2,107.1 358.3,96.3
	330.8,146.4 "/>
<circle fill="#D80027" cx="257.4" cy="170.7" r="71.6"/>
<g fill="#FFDA44">
	<path d="M214.2,170.7c-2.1,0-4.1,0.1-6.2,0.3c0.1,12,4.4,22.9,11.6,31.5c3.8-10.3,9.5-19.6,16.7-27.7
		C229.4,172.1,222,170.7,214.2,170.7z"/>
	<path d="M240.8,217.2c5.2,1.9,10.8,2.9,16.6,2.9c5.8,0,11.4-1,16.6-2.9c-2.8-11.1-8.7-21-16.6-28.8
		C249.5,196.2,243.6,206.1,240.8,217.2z"/>
	<path d="M300.2,146c-8.5-14.8-24.5-24.7-42.8-24.7c-18.3,0-34.2,9.9-42.8,24.7c15.6,0.1,30.2,4.3,42.8,11.6
		C270,150.3,284.6,146,300.2,146z"/>
	<path d="M278.5,174.8c7.2,8,12.9,17.4,16.7,27.7c7.2-8.5,11.5-19.5,11.6-31.5c-2-0.2-4.1-0.3-6.2-0.3
		C292.9,170.7,285.4,172.1,278.5,174.8z"/>
</g>
</svg>
