<?xml version="1.0" encoding="utf-8"?>
<svg version="1.1" xmlns="http://www.w3.org/2000/svg" viewBox="0 0 450 300">
<path fill="#CE1126" d="M0,0h450v300H0V0z"/>
<g fill="#FCD116">
	<circle cx="227.6" cy="161.2" r="56.2"/>
	<polygon points="254.1,73.4 230.4,99.4 259,105.9 	"/>
	<polygon points="202.6,73.6 197.8,106.7 226.3,98.7 	"/>
	<polygon points="296.9,100.3 262.2,108.8 282.3,132.5 	"/>
	<polygon points="158.6,98.5 174.1,131.2 194.3,108.5 	"/>
	<polygon points="317.6,143.8 283.2,133.9 288.8,163.4 	"/>
	<polygon points="135.6,141.2 167.5,161 172.7,133.3 	"/>
</g>
<path fill="#003F87" d="M0,175h450v125H0V175z"/>
<path fill="#FFFFFF" d="M0,267c15,0,30,13,45,13s30-13,45-13s30,13,45,13s30-13,45-13s30,13,45,13s30-13,45-13s30,13,45,13s30-13,45-13
	s30,13,45,13s30-13,45-13v-21c-15,0-30,13-45,13s-30-13-45-13s-30,13-45,13s-30-13-45-13s-30,13-45,13s-30-13-45-13s-30,13-45,13
	s-30-13-45-13s-30,13-45,13s-30-13-45-13V267z M0,224c15,0,30,13,45,13s30-13,45-13s30,13,45,13s30-13,45-13s30,13,45,13
	s30-13,45-13s30,13,45,13s30-13,45-13s30,13,45,13s30-13,45-13v-21c-15,0-30,13-45,13s-30-13-45-13s-30,13-45,13s-30-13-45-13
	s-30,13-45,13s-30-13-45-13s-30,13-45,13s-30-13-45-13s-30,13-45,13s-30-13-45-13V224z M0,181c15,0,30,13,45,13s30-13,45-13
	s30,13,45,13s30-13,45-13s30,13,45,13s30-13,45-13s30,13,45,13s30-13,45-13s30,13,45,13s30-13,45-13v-21c-15,0-30,13-45,13
	s-30-13-45-13s-30,13-45,13s-30-13-45-13s-30,13-45,13s-30-13-45-13s-30,13-45,13s-30-13-45-13s-30,13-45,13s-30-13-45-13V181z"/>
<path fill-rule="evenodd" clip-rule="evenodd" fill="#FCD116" d="M183.2,48.3l-1.1-5.3l22.4-3.7c0,0-30.1-7.1-40-10.7c-14.3-5.1-16.3-12.1-16.3-12.1s44.7,11,64.8,11
	c4.3,0,12.8,10.7,12.8,10.7s14.8-14.9,21.9-15.4c32.1-2.3,66.6-6.4,66.6-6.4s-10,6.7-16,8.5c-16.2,4.9-50.6,11.7-50.6,11.7l-4.8,7.5
	H277l-14.4,4.3l7.4,6.9c0,0-7.8-4.1-18.1-2.1c-7.1,1.3-15.4,6-22.9,8c-18.7,4.8-29.9-12.8-29.9-12.8S183.2,48.3,183.2,48.3z"/>
</svg>
