<?xml version="1.0" encoding="UTF-8"?>

<svg xmlns="http://www.w3.org/2000/svg" viewBox="0 0 513 342">
<rect y="0" fill="#0052B4" width="513" height="342"/>
<rect y="0" fill="#FFDA44" width="513" height="85.5"/>
<rect y="85.5" fill="#FFFFFF" width="513" height="85.5"/>
<rect y="171" fill="#D80027" width="513" height="85.5"/>
<polygon fill="#6DA544" points="256.5,171 0,342 0,0 "/>
<g fill="#FFFFFF">
	<path d="M68.6,170.7c0-24.9,17.5-45.6,40.8-50.7c-3.6-0.8-7.3-1.2-11.1-1.2c-28.7,0-51.9,23.3-51.9,51.9
		s23.3,51.9,51.9,51.9c3.8,0,7.5-0.4,11.1-1.2C86.1,216.3,68.6,195.5,68.6,170.7z"/>
	<polygon points="108.9,126.1 111.6,134.6 120.6,134.6 113.3,139.9 116.1,148.4 108.9,143.2 101.6,148.4 104.4,139.9
		97.2,134.6 106.1,134.6 	"/>
	<polygon points="108.9,148.4 111.6,156.9 120.6,156.9 113.3,162.2 116.1,170.7 108.9,165.4 101.6,170.7 104.4,162.2
		97.2,156.9 106.1,156.9 	"/>
	<polygon points="108.9,170.7 111.6,179.2 120.6,179.2 113.3,184.4 116.1,192.9 108.9,187.7 101.6,192.9 104.4,184.4
		97.2,179.2 106.1,179.2 	"/>
	<polygon points="108.9,192.9 111.6,201.4 120.6,201.4 113.3,206.7 116.1,215.2 108.9,209.9 101.6,215.2 104.4,206.7
		97.2,201.4 106.1,201.4 	"/>
</g>
</svg>
