<?xml version="1.0" encoding="utf-8"?>
<svg version="1.1" xmlns="http://www.w3.org/2000/svg" viewBox="0 0 513 342">
<rect y="0" fill="#D80027" width="513" height="342"/>
<polyline fill="#6DA544" points="512,0 0,0 0,342 "/>
<polygon fill="#FFDA44" points="307.7,0 0,194.5 0,342 206.9,342 513,148.5 513,0 "/>
<polygon fill="#000000" points="513,0 385.2,0 0,249.4 0,341 126.2,342 513,91.6 "/>
<g fill="#FFFFFF">
	<polygon points="141.1,187 172.3,211 204.6,188.8 191.5,225.8 222.6,249.7 183.4,248.6 170.2,285.6 159.1,248
		119.9,246.9 152.2,224.7 	"/>
	<polygon points="310.6,70.8 341.8,94.7 374.1,72.5 361,109.5 392.1,133.4 352.9,132.3 339.7,169.3 328.6,131.7
		289.4,130.6 321.8,108.4 	"/>
</g>
</svg>
