<?xml version="1.0" encoding="UTF-8"?>

<svg xmlns="http://www.w3.org/2000/svg" viewBox="0 0 513 342">

<rect y="0" fill="#0052B4" width="513" height="342"/>
<circle fill="#6DA544" cx="384" cy="96.5" r="29.7"/>
<rect x="332.1" y="89" fill="#D80027" width="103.9" height="44.5"/>
<path fill="#496E2D" d="M435.9,170.7L435.9,170.7L435.9,170.7z"/>
<path fill="#FFDA44" d="M332.1,200.3V230h15.6c9.4,9.2,22.2,14.8,36.3,14.8c14.1,0,27-5.7,36.3-14.8h0.8h14.8v-29.7H332.1z"/>
<path fill="#338AF3" d="M332.1,126.1v44.5c0,39.8,51.9,51.9,51.9,51.9s51.9-12.2,51.9-51.9v-44.5L332.1,126.1L332.1,126.1z"/>

<g fill="#F3F3F3">
	<path d="M384,149.9c-13,0-13,11.9-26,11.9s-13-11.9-26-11.9v20.8c13,0,13,11.9,26,11.9s13-11.9,26-11.9
		c13,0,13,11.9,26,11.9c13,0,13-11.9,26-11.9v-20.8c-13,0-13,11.9-26,11.9C397,161.8,397,149.9,384,149.9z"/>
	<path d="M384,108.3c-13,0-13,11.9-26,11.9s-13-11.9-26-11.9v20.8c13,0,13,11.9,26,11.9s13-11.9,26-11.9
		c13,0,13,11.9,26,11.9c13,0,13-11.9,26-11.9v-20.8c-13,0-13,11.9-26,11.9C397,120.2,397,108.3,384,108.3z"/>
</g>
<polygon fill="#FFFFFF" points="256,0 256,22.6 209.9,53.3 256,53.3 256,117.3 209.9,117.3 256,148 256,170.7 233.4,170.7 160,121.7
	160,170.7 96,170.7 96,121.7 22.6,170.7 0,170.7 0,148 46.1,117.3 0,117.3 0,53.3 46.1,53.3 0,22.6 0,0 22.6,0 96,48.9 96,0 160,0
	160,48.9 233.4,0 "/>
<g fill="#D80027">
	<polygon points="144,0 112,0 112,69.3 0,69.3 0,101.3 112,101.3 112,170.7 144,170.7 144,101.3 256,101.3 256,69.3
		144,69.3 	"/>
	<polygon points="0,0 0,15.1 57.4,53.3 80,53.3 	"/>
	<polygon points="256,0 256,15.1 198.6,53.3 176,53.3 	"/>
	<polygon points="0,0 0,15.1 57.4,53.3 80,53.3 	"/>
	<polygon points="256,0 256,15.1 198.6,53.3 176,53.3 	"/>
	<polygon points="0,170.7 0,155.6 57.4,117.3 80,117.3 	"/>
	<polygon points="256,170.7 256,155.6 198.6,117.3 176,117.3 	"/>
</g>
</svg>
