<?xml version="1.0" encoding="utf-8"?>
<svg version="1.1" xmlns="http://www.w3.org/2000/svg" viewBox="0 0 513 342">
	<path fill="#36B6CC" d="M0,0h513v342H0V0z"/>
	<circle fill="#FFD400" cx="256.5" cy="170.9" r="68.4"/>
	<path fill="#FFD400" d="M256.5,251.5l-27.9,41.7l-7.1-49.7L178.3,269l15.2-47.8l-50,4.2l34.4-36.5L131,170.9l46.8-18l-34.4-36.5
		l50,4.2l-15.2-47.8l43.2,25.4l7.1-49.7l27.9,41.7l27.9-41.7l7.1,49.7l43.2-25.4l-15.2,47.8l50-4.2L335.1,153l46.8,17.9l-46.8,18
		l34.4,36.5l-50-4.2l15.2,47.8l-43.2-25.4l-7.1,49.7C284.4,293.2,256.5,251.5,256.5,251.5z M256.5,250.7c44.1,0,79.9-35.8,79.9-79.9
		S300.6,91,256.5,91s-79.9,35.8-79.9,79.9S212.4,250.7,256.5,250.7z M22.8,28.3c0-3.2,2.4-5.7,5.7-5.7h11.3c3.2,0,5.7,2.4,5.7,5.7
		v11.3c0.1,3.1-2.4,5.7-5.6,5.7c-0.1,0-0.1,0-0.2,0H28.5c-3.1,0-5.7-2.5-5.7-5.6c0,0,0-0.1,0-0.1C22.8,39.7,22.8,28.3,22.8,28.3z
		 M22.8,74c0-3.2,2.4-5.7,5.7-5.7h11.3c3.2,0,5.7,2.4,5.7,5.7v11.3c0.1,3.1-2.4,5.7-5.6,5.7c-0.1,0-0.1,0-0.2,0H28.5
		c-3.1,0-5.7-2.5-5.7-5.6c0,0,0-0.1,0-0.1V74z M22.8,119.6c0-3.2,2.4-5.7,5.7-5.7h11.3c3.2,0,5.7,2.4,5.7,5.7v11.3
		c0.1,3.1-2.4,5.7-5.6,5.7c-0.1,0-0.1,0-0.2,0H28.5c-3.1,0-5.7-2.5-5.7-5.6c0,0,0-0.1,0-0.1C22.8,130.9,22.8,119.6,22.8,119.6z
		 M22.8,165.2c0-3.2,2.4-5.7,5.7-5.7h11.3c3.2,0,5.7,2.4,5.7,5.7v11.3c0.1,3.1-2.4,5.7-5.6,5.7c-0.1,0-0.1,0-0.2,0H28.5
		c-3.1,0-5.7-2.5-5.7-5.6c0,0,0-0.1,0-0.1C22.8,176.5,22.8,165.2,22.8,165.2z M22.8,210.9c0-3.2,2.4-5.7,5.7-5.7h11.3
		c3.2,0,5.7,2.4,5.7,5.7v11.3c0.1,3.1-2.4,5.7-5.6,5.7c-0.1,0-0.1,0-0.2,0H28.5c-3.1,0-5.7-2.5-5.7-5.6c0,0,0-0.1,0-0.1V210.9z
		 M22.8,256.5c0-3.2,2.4-5.7,5.7-5.7h11.3c3.2,0,5.7,2.4,5.7,5.7v11.3c0.1,3.1-2.4,5.7-5.6,5.7c-0.1,0-0.1,0-0.2,0H28.5
		c-3.1,0-5.7-2.5-5.7-5.6c0,0,0-0.1,0-0.1V256.5z M22.8,302.1c0-3.2,2.4-5.7,5.7-5.7h11.3c3.2,0,5.7,2.4,5.7,5.7v11.3
		c0.1,3.1-2.4,5.7-5.6,5.7c-0.1,0-0.1,0-0.2,0H28.5c-3.1,0-5.7-2.5-5.7-5.6c0,0,0-0.1,0-0.1V302.1z M45.6,279.3
		c0-3.2,2.4-5.7,5.7-5.7h11.3c3.2,0,5.7,2.4,5.7,5.7v11.3c0.1,3.1-2.4,5.7-5.6,5.7c-0.1,0-0.1,0-0.2,0H51.3c-3.1,0-5.7-2.5-5.7-5.6
		c0,0,0-0.1,0-0.1V279.3z M45.6,233.7c0-3.2,2.4-5.7,5.7-5.7h11.3c3.2,0,5.7,2.4,5.7,5.7V245c0.1,3.1-2.4,5.7-5.6,5.7
		c-0.1,0-0.1,0-0.2,0H51.3c-3.1,0-5.7-2.5-5.7-5.6c0,0,0-0.1,0-0.1V233.7z M45.6,188c0-3.2,2.4-5.7,5.7-5.7h11.3
		c3.2,0,5.7,2.4,5.7,5.7v11.3c0.1,3.1-2.4,5.7-5.6,5.7c-0.1,0-0.1,0-0.2,0H51.3c-3.1,0-5.7-2.5-5.7-5.6c0,0,0-0.1,0-0.1V188z
		 M45.6,142.4c0-3.2,2.4-5.7,5.7-5.7h11.3c3.2,0,5.7,2.4,5.7,5.7v11.3c0.1,3.1-2.4,5.7-5.6,5.7c-0.1,0-0.1,0-0.2,0H51.3
		c-3.1,0-5.7-2.5-5.7-5.6c0,0,0-0.1,0-0.1C45.6,153.7,45.6,142.4,45.6,142.4z M45.6,96.8c0-3.2,2.4-5.7,5.7-5.7h11.3
		c3.2,0,5.7,2.4,5.7,5.7v11.3c0.1,3.1-2.4,5.7-5.6,5.7c-0.1,0-0.1,0-0.2,0H51.3c-3.1,0-5.7-2.5-5.7-5.6c0,0,0-0.1,0-0.1
		C45.6,108.1,45.6,96.8,45.6,96.8z M45.6,51.2c0-3.2,2.4-5.7,5.7-5.7h11.3c3.2,0,5.7,2.4,5.7,5.7v11.3c0.1,3.1-2.4,5.7-5.6,5.7
		c-0.1,0-0.1,0-0.2,0H51.3c-3.1,0-5.7-2.5-5.7-5.6c0,0,0-0.1,0-0.1V51.2z"/>
</svg>
