<?xml version="1.0" encoding="utf-8"?>
<svg version="1.1" xmlns="http://www.w3.org/2000/svg" viewBox="0 0 513 342">
<rect y="0" fill="#FFFFFF" width="513" height="342"/>
<g fill="#D80027">
	<rect y="0.2" width="513" height="90.7"/>
	<rect x="0.5" y="251.3" width="512.5" height="90.7"/>
</g>
<polygon fill="#6DA544" points="290.3,193.5 256,130.7 221.7,193.5 247.4,193.5 247.4,210.7 264.6,210.7 264.6,193.5 "/>
	<path fill="#14AF5A" d="M241.3,213.1c4.4-4.4,4.4-11.6-0.1-16c0,0,0,0,0,0l4.7,4.7c-5.2-4.7-12.2-6.6-19.1-5.3l-23.5,5.9
		c-6.1,1.5-6.8-0.4-1.8-4.2l27.1-20.3c5.1-3.8,4.2-6.9-2.3-6.9h-11c-6.4,0-7-2.3-1.5-5.1l25.3-12.7c5.6-2.8,5.1-5.1-1.5-5.1h-11
		c-6.4,0-7.4-3.1-2.3-6.9l27.1-20.3c5.6-3.8,12.9-3.8,18.5,0l27.1,20.3c5.1,3.8,4.2,6.9-2.3,6.9h-11c-6.4,0-7,2.3-1.5,5.1l25.3,12.7
		c5.6,2.8,5.1,5.1-1.5,5.1h-11c-6.4,0-7.4,3.1-2.3,6.9l27.1,20.3c5.1,3.8,4.4,5.7-1.8,4.2l-23.5-5.9c-6.8-1.3-13.9,0.6-19.1,5.3
		l4.7-4.7c-4.4,4.4-4.5,11.5-0.1,16c0,0,0,0,0,0l6.8,6.8c4.4,4.4,3.1,8-3.3,8h-45.8c-6.2,0-7.7-3.6-3.3-8
		C234.5,220,241.3,213.1,241.3,213.1z"/>
</svg>
