<?xml version="1.0" encoding="utf-8"?>
<svg version="1.1" xmlns="http://www.w3.org/2000/svg" viewBox="0 0 513 342">
<rect x="0" y="0" fill="#FFDA44" width="513" height="342"/>
<rect x="222.6" y="22.3" fill="#A2001D" width="267.1" height="296.8"/>
<rect x="22.3" y="22.3" fill="#D80027" width="200.3" height="296.8"/>
<rect x="200.3" y="0" fill="#FFDA44" width="22.3" height="342"/>
<rect x="22.3" y="22.3" fill="#6DA544" width="89" height="296.8"/>
<rect x="111.3" y="22.3" fill="#FF9811" width="89" height="296.8"/>
<g>
	<path fill="#FFDA44" d="M368.2,156.8c-1.4-2,0-37.9,0-37.9c0.9-7.4,0.1-8.4,1-11.4c0.9-2.9,5.4-11.6,5.4-11.6s-6-2.3-10.3-0.6
		c-4.3,1.7-24.7-7.5-31.2,3.4c-4.4,7-23.6,16.2-24.6,14c-1-2.2-5.9-5-6.9-2.9s-0.7,13.9,0,16c0.8,2.6,9.8,2,12.3,3.1
		c3.7,1.8,12.2,8.2,11.9,10.7c-0.3,2.5-22.5-6-24.2-4.5c-1.4,1.2-1.9,13.2-0.4,15c1.8,2.1,23.4,5.6,25,7.5c1.6,1.9-13.1,7.4-12.3,25
		c0.7,14.7,8,17.4,8,17.4s-2.4,3.6-7.8,3.1c-6.2-0.6-27.4-17.7-27.4-17.7S283.2,76.4,290.3,64c4.9-8.5-22.7,10.1-22.7,50.8v36.2
		c0,6.6-1.4,22.4,2.6,34c0,0-0.4,46.9,1.5,49.6s12.7,2.2,14.8,0s0-30,0-30c7.7,0.2,18.3,17.5,32.5,16.4c20.6-1.6,28.7-9.9,34.3-5
		c8.1,7.1,5.5,23.2,0.4,31.5c-2.2,3.5-14.3,4.7-15.7,7.6c-1.4,2.9,0.5,5.4,0.5,5.4h29.7c0,0,1.4-20.5,2.7-26.1
		c1.3-5.7-0.6-10.7,5.9-10.4c23.5,1.1,39.8-15.3,45.5-8c3.2,4.1,5.6,29.9,3.3,33.3c-2.2,3.4-13.8,2.8-15.2,6.7
		c-1.4,4,0.8,4.4,0.8,4.4h29.7c0,0-0.4-21.2,2.5-27.7c2.9-6.5,4.9-10.4,9.3-17.2c4.4-6.8,11.3-15.7,11.3-36.2
		c0-14.2-8.1-22.8-8.1-22.8h-38.9C402.9,156.7,369.6,158.8,368.2,156.8z"/>
	<path fill="#FFDA44" d="M232.2,32.3c10.7-10.6,20.2-2.7,22.2,2.1c1.9,4.8,2.1,8.2,2.8,13.6c0.9,6.9,4.9,14,4.9,14s-7.1-3.8-14.7-4.2
		c-4.7-0.3-9-0.6-13.6-2.5C228.1,53,222.1,42.4,232.2,32.3z"/>
	<path fill="#FFDA44" d="M480.6,32.2c10.7,10.6,2.8,20.2-2,22.2c-4.8,2-8.2,2.1-13.6,2.8c-6.9,0.9-14,5-14,5s3.7-7.1,4.2-14.7
		c0.3-4.7,0.6-9.1,2.4-13.6C459.8,28.2,470.4,22.1,480.6,32.2z"/>
	<path fill="#FFDA44" d="M480.7,309.1c-10.7,10.6-20.2,2.6-22.2-2.2c-1.9-4.8-2.1-8.2-2.7-13.6c-0.8-6.9-4.9-14.1-4.9-14.1
		s7,3.8,14.7,4.3c4.7,0.3,9,0.6,13.6,2.5C484.9,288.4,490.9,299.1,480.7,309.1z"/>
	<path fill="#FFDA44" d="M232.5,309c-10.6-10.7-2.7-20.2,2.1-22.2c4.8-1.9,8.2-2.1,13.6-2.8c6.9-0.9,14-4.9,14-4.9s-3.8,7.1-4.2,14.7
		c-0.3,4.7-0.6,9-2.5,13.6C253.2,313.1,242.6,319.2,232.5,309z"/>
	<path fill="none" stroke="#FFDA44" stroke-width="6" stroke-miterlimit="10" d="M446.9,162.4c0,0,7.5-2.6,8.4-16.1c0.6-8.6-19.8-16-39-11.5c-19.7,4.6-34-3.1-34-14.6
		c0-22.9,29.7-16.2,38.9-11.3c9.1,4.9,29.7,23.5,35.1,9.4"/>
</g>
</svg>
