<?xml version="1.0" encoding="utf-8"?>
<svg version="1.1" xmlns="http://www.w3.org/2000/svg" viewBox="0 0 513 342">
<rect y="0" fill="#FFFFFF" width="513" height="342"/>
<rect y="0" fill="#0052B4" width="513" height="114"/>
<rect y="227.6" fill="#6DA544" width="513" height="114"/>
<path fill="#000000" d="M245.2,171l7.7-23.1c2-5.9,5.1-6,7.1,0l7.7,23.1l19.4,29.1c1.7,2.6,1.3,6.3-1.2,8c0,0-6.9,8-29.5,8
	s-29.5-8-29.5-8c-2.4-2-2.9-5.4-1.2-8L245.2,171z"/>
<path fill="#000000" d="M256.5,171c-12.5,0-22.6-10.1-22.6-22.6c0-12.5,10.1-22.6,22.6-22.6s22.6,10.1,22.6,22.6C279.1,160.9,268.9,171,256.5,171z
	 M256.5,171c6.2,0,11.3-16.3,11.3-22.6c0-6.2-5.1-11.3-11.3-11.3c-6.2,0-11.3,5.1-11.3,11.3C245.2,154.7,250.2,171,256.5,171z"/>
</svg>
