<?xml version="1.0" encoding="UTF-8"?>

<svg xmlns="http://www.w3.org/2000/svg" viewBox="0 0 513 342">
<rect y="0" width="513" height="342"/>
<rect y="0" fill="#D80027" width="513" height="114"/>
<rect y="228" fill="#496E2D" width="513" height="114"/>
<g fill="#FFFFFF">
	<polygon points="281.4,150.7 290.4,163 304.9,158.3 295.9,170.7 304.9,183 290.4,178.3 281.4,190.6 281.4,175.4
		266.9,170.7 281.4,166 	"/>
	<path d="M257,201.5c-17,0-30.9-13.8-30.9-30.9s13.8-30.9,30.9-30.9c5.3,0,10.3,1.3,14.7,3.7
		c-6.9-6.7-16.2-10.8-26.6-10.8c-21,0-38,17-38,38s17,38,38,38c10.3,0,19.7-4.1,26.6-10.8C267.3,200.2,262.3,201.5,257,201.5z"/>
</g>
</svg>
