<?xml version="1.0" encoding="UTF-8"?>

<svg xmlns="http://www.w3.org/2000/svg" viewBox="0 85.333 512 341.333">
<polygon fill="#D80027" points="0,85.337 0,256 0,426.663 512,426.663 512,256 512,85.337 "/>
<path fill="#20661b" d="M352,226.484h-73.337L256,156.738l-22.663,69.748H160l59.331,43.107l-22.663,69.749L256,296.232  l59.332,43.107l-22.663-69.749L352,226.484z M235.937,264.195l7.663-23.585h24.8l7.663,23.585l0,0v0.001L256,278.772  L235.937,264.195L235.937,264.195L235.937,264.195z M263.81,226.484h-15.619L256,202.447L263.81,226.484z M288.079,255.466  l-4.827-14.856h25.274L288.079,255.466z M228.748,240.61l-4.827,14.856l-20.447-14.856H228.748z M223.537,302.358l7.81-24.036  l12.636,9.181L223.537,302.358z M268.016,287.502l12.636-9.181l7.81,24.036L268.016,287.502z"/>
</svg>
