<?xml version="1.0" encoding="utf-8"?>
<svg version="1.1" xmlns="http://www.w3.org/2000/svg" viewBox="0 0 513 342">
<rect y="0" fill="#E6BE53" width="513" height="342"/>
<rect x="20" y="20" fill="#E01D24" width="473" height="302"/>
	<path fill="#E6BE53" d="M248.5,112.9c4.4,4.4,11.6,4.4,16,0l-4.7,4.7l22.7-22.7c4.9-4.5,12.1-5.6,18.2-2.8l2.1,1
		c5.7,2.9,6.7,8.7,2.3,13.1l4.7-4.7L287,124.3c-4.5,4.9-5.6,12.1-2.8,18.2l1,2.1c2.9,5.7,5.1,15.4,5.1,21.6v-11.3
		c0,6.2,4.4,9.1,10.2,6.2l2.1-1c5.7-2.9,6.7-8.7,2.3-13.1l4.7,4.7c-4.4-4.4-4.4-11.6,0-16c0,0,0,0,0,0l-4.7,4.7
		c5.2-5.5,9.6-11.6,13.1-18.2l1-2.1c2.9-5.7,6.3-15.1,7.9-21.2l5.8-23.3c1.5-6,5.9-6.8,9.6-1.8l20.2,26.9c3.8,5.1,6.9,14,6.9,20.6
		v22.4c0,6.3-2.2,15.8-5.1,21.7l-1,2.1c-3.5,6.6-7.9,12.7-13.1,18.2l-6.8,6.8c-5.4,5.2-11.5,9.6-18.2,13.1l-2.1,1
		c-5.7,2.9-15.5,5.1-21.6,5.1c-6.2,0-6.9,2.2-1.1,5.1l2.1,1c5.7,2.9,13.8,8.7,18.2,13.1l-4.7-4.7c4.4,4.4,11.6,4.4,16,0l-4.7,4.7
		c4.4-4.4,11.6-4.4,16,0c0,0,0,0,0,0L339,226c4.6,4.9,5.7,12.1,2.9,18.2l-1,2.1c-2.9,5.7-10.4,10.2-16.4,10.2
		c-7.5-0.3-14.8-2-21.6-5.1l-2.1-1c-6.5-3.6-11.8-8.9-15.4-15.4l-1-2.1c-2.9-5.7-8.7-6.7-13.1-2.3l4.7-4.7
		c-4.4,4.7-5.2,11.8-1.8,17.3l10.3,15.4c3.4,5.1,2,12.1-3.1,15.5l-15.4,10.3c-5.7,3.4-12.8,3.4-18.6,0l-15.4-10.3
		c-5.1-3.4-6.5-10.3-3.1-15.5l10.3-15.4c3.4-5.5,2.6-12.6-1.8-17.3l4.7,4.7c-4.4-4.4-10.2-3.6-13.1,2.3l-1,2.1
		c-2.9,5.7-9.5,12.4-15.4,15.4l-2.1,1c-5.7,2.9-15.5,5.1-21.6,5.1c-6.9-0.3-13.1-4.2-16.4-10.2l-1-2.1c-2.8-6.1-1.6-13.3,2.9-18.2
		l-4.7,4.7c4.4-4.4,11.6-4.4,16,0c0,0,0,0,0,0l-4.7-4.7c4.4,4.4,11.6,4.4,16,0l-4.7,4.7c5.5-5.2,11.6-9.6,18.2-13.1l2.1-1
		c5.7-2.9,5-5.1-1.1-5.1c-7.5-0.3-14.8-2-21.6-5.1l-2.1-1c-6.6-3.5-12.7-7.9-18.2-13.1l-6.8-6.8c-5.2-5.4-9.6-11.5-13.1-18.2l-1-2.1
		c-3.1-6.8-4.9-14.2-5.1-21.7V121c0-6.3,3.1-15.6,6.9-20.6l20.2-26.9c3.8-5.1,8.1-4.3,9.6,1.8l5.8,23.3c2,7.3,4.6,14.4,7.9,21.2
		l1,2.1c2.9,5.7,8.7,13.8,13.1,18.2l-4.7-4.7c4.4,4.4,4.4,11.6,0,16c0,0,0,0,0,0l4.7-4.7c-4.4,4.4-3.6,10.2,2.3,13.1l2.1,1
		c5.7,2.9,10.2,0,10.2-6.2v11.3c0-6.2,2.2-15.7,5.1-21.6l1-2.1c2.8-6.1,1.7-13.2-2.8-18.2l-22.7-22.7l4.7,4.7
		c-4.4-4.4-3.6-10.2,2.3-13.1l2.1-1c6.1-2.8,13.2-1.7,18.2,2.8l22.7,22.7L248.5,112.9z M230.5,72.2c-4.4-4.4-3.2-9.5,2.8-11.5
		l12.4-4.2c6-2,15.5-2,21.5,0l12.4,4.2c6,2,7.2,7.1,2.8,11.5l-6.8,6.8c-5.3,4.7-12.1,7.5-19.2,7.9c-6.2,0-14.8-3.5-19.2-7.9
		C237.3,79,230.5,72.2,230.5,72.2z"/>
	<path fill="#215F90" d="M233.9,200.2c0,6.2,1.7,6.4,4.2,0.5c0,0,7.1-23.2,18.4-23.2c11.3,0,18.6,23.6,18.6,23.6c2.2,5.7,4,5.3,4-1.1
		v-11.2c0-18.7-10.1-33.9-22.6-33.9c-12.5,0-22.6,15.2-22.6,33.9V200.2z"/>
</svg>
