<?xml version="1.0" encoding="utf-8"?>
<svg version="1.1" xmlns="http://www.w3.org/2000/svg" viewBox="0 0 513 342">
<rect y="0" fill="#1E509C" width="513" height="342"/>
<path fill="#FFFFFF" d="M513,176.1V81.3L0,342L513,176.1z"/>
<path fill="#F18D36" d="M513,0v81.3L0,342L513,0z"/>
<polygon fill="#FFFFFF" points="126.7,99.3 118.9,45.2 111.2,99.3 90.4,75.6 101.1,107.2 69.6,96.5 93.2,117.3 39.1,125 93.2,132.7
	69.6,153.5 101.1,142.8 90.4,174.4 111.2,150.7 118.9,204.8 126.7,150.7 147.4,174.4 136.8,142.8 168.3,153.5 144.7,132.7
	198.7,125 144.7,117.3 168.3,96.5 136.8,107.2 147.4,75.6 "/>
</svg>
