<?xml version="1.0" encoding="UTF-8"?>

<svg xmlns="http://www.w3.org/2000/svg" viewBox="0 85.333 512 341.333">
<rect y="85.331" fill="#00745a" width="512" height="341.337"/>
<path fill="#FFFFFF" d="M285.682,248.878c-4.19,0-8.166,0.836-11.861,2.164c2.023-4.509,3.379-9.527,3.379-14.885  c0-21.201-21.201-37.101-21.201-37.101s-21.201,15.901-21.201,37.101c0,5.357,1.356,10.375,3.379,14.885  c-3.693-1.328-7.671-2.164-11.861-2.164c-21.201,0-37.101,21.201-37.101,21.201s15.901,21.201,37.101,21.201  c12.429,0,23.031-7.286,29.682-13.315c6.65,6.03,17.251,13.315,29.682,13.315c21.201,0,37.101-21.201,37.101-21.201  S306.882,248.878,285.682,248.878z"/>
<g>
	<polygon fill="#FFDA44" points="256,152.111 260.38,165.587 274.551,165.587 263.087,173.919 267.463,187.395 256,179.065    244.537,187.395 248.913,173.919 237.449,165.587 251.62,165.587  "/>
	<polygon fill="#FFDA44" points="202.112,175.683 210.537,183.268 220.355,177.601 215.745,187.956 224.168,195.544    212.894,194.359 208.283,204.714 205.925,193.626 194.65,192.441 204.468,186.772  "/>
	<polygon fill="#FFDA44" points="162.662,215.132 173.752,217.49 179.42,207.672 180.606,218.946 191.695,221.304    181.338,225.914 182.524,237.188 174.937,228.765 164.58,233.375 170.249,223.557  "/>
	<polygon fill="#FFDA44" points="309.889,175.683 301.464,183.268 291.646,177.601 296.257,187.956 287.832,195.544    299.107,194.359 303.717,204.714 306.076,193.626 317.351,192.441 307.533,186.772  "/>
	<polygon fill="#FFDA44" points="349.338,215.132 338.249,217.49 332.58,207.672 331.394,218.946 320.306,221.304    330.663,225.914 329.478,237.188 337.064,228.765 347.421,233.375 341.752,223.557  "/>
</g>
<g>
	<path fill="#FFFFFF" d="M256,350.642c16.84,0,32.363-5.619,44.816-15.073h-89.63   C223.637,345.023,239.16,350.642,256,350.642z"/>
	<path fill="#FFFFFF" d="M187.977,306.12c2.355,5.39,5.341,10.44,8.85,15.073h118.345c3.508-4.632,6.495-9.682,8.85-15.073   H187.977z"/>
</g>
</svg>
