<?xml version="1.0" encoding="utf-8"?>
<svg version="1.1" xmlns="http://www.w3.org/2000/svg" viewBox="0 0 513 342">
<rect y="0" fill="#0052B4" width="513" height="342"/>
<g fill="#ffffff">
<polygon points="512,148.4 512,192.9 278.3,192.9 278.3,341.3 233.7,341.3 233.7,192.9 0,192.9 0,148.4 233.7,148.4
	233.7,0 278.3,0 278.3,148.4 "/>
<path d="M101,36.1c4.2-0.2,8.3-0.1,12.5,0.2c5.5,0.4,9.4,1.6,9.1,0.5c-0.5-1.8-0.1-2.2-0.8-1.8c-1.3,1,0.7-0.2-7.4,4.4
	c-11.8,6.7-16.9,11.8-14.3,21c2.3,8.1,8.2,10.3,22.3,12.5l1.9,0.3c5.6,0.9,8.1,1.4,9.8,2.2c0.4,0.2-0.3-1-0.1-1.7
	c-0.2,0.6-3.9,2.1-13.3,3.9l-4.7,0.9c-18.1,3.7-27.1,8.5-28.5,21c-1.5,13.7,12.7,23.3,30.6,25.6c18.2,2.4,34.1-3.6,35.7-18.4
	c1-9.4-5.5-15-15.9-17.1c-7-1.4-16.3-1.4-27.4-0.3c-12.4,1.3-24.7,3.4-36.9,6.3c-3.6,0.7-5.9,4.2-5.2,7.8c0.7,3.6,4.2,5.9,7.8,5.2
	c0.2,0,0.3-0.1,0.5-0.1c11.6-2.7,23.3-4.7,35.1-5.9c9.9-1,18-1,23.4,0.1c4.4,0.9,5.3,1.7,5.2,2.6c-0.5,5.1-8.9,8.2-20.7,6.7
	c-11.6-1.5-19.5-6.8-19.1-11c0.5-4.3,5.3-6.8,17.9-9.4l4.6-0.9c15.5-3,21.1-5.3,23.5-13.2c1.9-6.5-1.3-11.6-7.2-14.2
	c-3.2-1.4-6.3-2.1-13.2-3.1l-1.8-0.3c-8-1.3-11.4-2.6-11.5-3c-0.1-0.4,1.8-2.3,8.1-5.9l4.4-2.5c1.5-0.8,2.9-1.8,4.3-2.7
	c4.6-3.4,7.2-7.1,5.8-12.3c-1.9-7.3-9-9.5-20.9-10.4c-4.7-0.3-9.3-0.4-14-0.3l-2,0.1c-3.7,0.2-6.5,3.4-6.3,7c0.2,3.7,3.4,6.5,7,6.3
	L101,36.1L101,36.1z"/>
<path d="M385,36.1c4.2-0.2,8.3-0.1,12.5,0.2c5.5,0.4,9.4,1.6,9.1,0.5c-0.5-1.8-0.1-2.2-0.8-1.8c-1.3,1,0.7-0.2-7.4,4.4
	c-11.8,6.7-16.9,11.8-14.3,21c2.3,8.1,8.2,10.3,22.3,12.5l1.9,0.3c5.6,0.9,8.1,1.4,9.8,2.2c0.4,0.2-0.3-1-0.1-1.7
	c-0.2,0.6-3.9,2.1-13.3,3.9l-4.7,0.9c-18.1,3.7-27.1,8.5-28.5,21c-1.5,13.7,12.7,23.3,30.6,25.6c18.2,2.4,34.1-3.6,35.7-18.4
	c1-9.4-5.5-15-15.9-17.1c-7-1.4-16.3-1.4-27.4-0.3c-12.4,1.3-24.7,3.4-36.9,6.3c-3.6,0.7-5.9,4.2-5.2,7.8c0.7,3.6,4.2,5.9,7.8,5.2
	c0.2,0,0.3-0.1,0.5-0.1c11.6-2.7,23.3-4.7,35.1-5.9c9.9-1,18-1,23.4,0.1c4.4,0.9,5.3,1.7,5.2,2.6c-0.5,5.1-8.9,8.2-20.7,6.7
	c-11.6-1.5-19.5-6.8-19.1-11c0.5-4.3,5.3-6.8,17.9-9.4l4.6-0.9c15.5-3,21.1-5.3,23.5-13.2c1.9-6.5-1.3-11.6-7.2-14.2
	c-3.2-1.4-6.3-2.1-13.2-3.1l-1.8-0.3c-8-1.3-11.4-2.6-11.5-3c-0.1-0.4,1.8-2.3,8.1-5.9l4.4-2.5c1.5-0.8,2.9-1.8,4.3-2.7
	c4.6-3.4,7.2-7.1,5.8-12.3c-1.9-7.3-9-9.5-20.9-10.4c-4.7-0.3-9.3-0.4-14-0.3l-2,0.1c-3.7,0.2-6.5,3.4-6.3,7c0.2,3.7,3.4,6.5,7,6.3
	L385,36.1L385,36.1z"/>
<path d="M379.6,235.1c4.2-0.2,8.3-0.1,12.5,0.2c5.5,0.4,9.4,1.6,9.1,0.5c-0.5-1.8-0.1-2.2-0.8-1.8
	c-1.3,1,0.7-0.2-7.4,4.4c-11.8,6.7-16.9,11.8-14.3,21c2.3,8.1,8.2,10.3,22.3,12.5l1.9,0.3c5.6,0.9,8.1,1.4,9.8,2.2
	c0.4,0.2-0.3-1-0.1-1.7c-0.2,0.6-3.9,2.1-13.3,3.9l-4.7,0.9c-18.1,3.7-27.1,8.5-28.5,21c-1.5,13.7,12.7,23.3,30.6,25.6
	c18.2,2.4,34.1-3.6,35.7-18.4c1-9.4-5.5-15-15.9-17.1c-7-1.4-16.3-1.4-27.4-0.3c-12.4,1.3-24.7,3.4-36.9,6.3
	c-3.6,0.7-5.9,4.2-5.2,7.8c0.7,3.6,4.2,5.9,7.8,5.2c0.2,0,0.3-0.1,0.5-0.1c11.6-2.7,23.3-4.7,35.1-5.9c9.9-1,18-1,23.4,0.1
	c4.4,0.9,5.3,1.7,5.2,2.6c-0.5,5.1-8.9,8.2-20.7,6.7c-11.6-1.5-19.5-6.8-19.1-11c0.5-4.3,5.3-6.8,17.9-9.4l4.6-0.9
	c15.5-3,21.1-5.3,23.5-13.2c1.9-6.5-1.3-11.6-7.2-14.2c-3.2-1.4-6.3-2.1-13.2-3.1l-1.8-0.3c-8-1.3-11.4-2.6-11.5-3
	c-0.1-0.4,1.8-2.3,8.1-5.9l4.4-2.5c1.5-0.8,2.9-1.8,4.3-2.7c4.6-3.4,7.2-7.1,5.8-12.3c-1.9-7.3-9-9.5-20.9-10.4
	c-4.7-0.3-9.3-0.4-14-0.3l-2,0.1c-3.7,0.2-6.5,3.4-6.3,7s3.4,6.5,7,6.3L379.6,235.1L379.6,235.1z"/>
<path d="M101,235.1c4.2-0.2,8.3-0.1,12.5,0.2c5.5,0.4,9.4,1.6,9.1,0.5c-0.5-1.8-0.1-2.2-0.8-1.8c-1.3,1,0.7-0.2-7.4,4.4
	c-11.8,6.7-16.9,11.8-14.3,21c2.3,8.1,8.2,10.3,22.3,12.5l1.9,0.3c5.6,0.9,8.1,1.4,9.8,2.2c0.4,0.2-0.3-1-0.1-1.7
	c-0.2,0.6-3.9,2.1-13.3,3.9l-4.7,0.9c-18.1,3.7-27.1,8.5-28.5,21c-1.5,13.7,12.7,23.3,30.6,25.6c18.2,2.4,34.1-3.6,35.7-18.4
	c1-9.4-5.5-15-15.9-17.1c-7-1.4-16.3-1.4-27.4-0.3c-12.4,1.3-24.7,3.4-36.9,6.3c-3.6,0.7-5.9,4.2-5.2,7.8s4.2,5.9,7.8,5.2
	c0.2,0,0.3-0.1,0.5-0.1c11.6-2.7,23.3-4.7,35.1-5.9c9.9-1,18-1,23.4,0.1c4.4,0.9,5.3,1.7,5.2,2.6c-0.5,5.1-8.9,8.2-20.7,6.7
	c-11.6-1.5-19.5-6.8-19.1-11c0.5-4.3,5.3-6.8,17.9-9.4l4.6-0.9c15.5-3,21.1-5.3,23.5-13.2c1.9-6.5-1.3-11.6-7.2-14.2
	c-3.2-1.4-6.3-2.1-13.2-3.1l-1.8-0.3c-8-1.3-11.4-2.6-11.5-3c-0.1-0.4,1.8-2.3,8.1-5.9l4.4-2.5c1.5-0.8,2.9-1.8,4.3-2.7
	c4.6-3.4,7.2-7.1,5.8-12.3c-1.9-7.3-9-9.5-20.9-10.4c-4.7-0.3-9.3-0.4-14-0.3l-2,0.1c-3.7,0.2-6.5,3.4-6.3,7c0.2,3.7,3.4,6.5,7,6.3
	L101,235.1L101,235.1z"/>
</g>
</svg>
