<?xml version="1.0" encoding="UTF-8"?>

<svg xmlns="http://www.w3.org/2000/svg" viewBox="0 100 513 342">
	<rect y="100" fill="#006233" width="513" height="342"/>
	<rect y="100" fill="#cd2a3e" width="513" height="46"/>
	<rect y="396" fill="#cd2a3e" width="513" height="46"/>
	<path fill="#ffc400" d="M256,298.851c-45.956,0-84.348-32.298-93.767-75.429c-1.448,6.63-2.233,13.507-2.233,20.572   c0,53.02,42.979,96,96,96s96-42.98,96-96c0-7.066-0.785-13.942-2.233-20.572C340.348,266.553,301.956,298.851,256,298.851z"/>
	<polygon fill="#ffc400" points="255.999,171.994 264.934,199.496 293.852,199.496 270.458,216.492 279.394,243.995    255.999,226.997 232.605,243.995 241.542,216.492 218.148,199.496 247.063,199.496  "/>
</svg>
