<?xml version="1.0" encoding="utf-8"?>
<svg version="1.1" xmlns="http://www.w3.org/2000/svg" viewBox="0 0 513 342">
<rect y="0" fill="#1B4991" width="513" height="342"/>
<path fill="#00A2B8" stroke="#FFFFFF" stroke-width="3" d="M318.2,106.7v106.5c0,51.9,67.8,67.8,67.8,67.8s67.8-15.9,67.8-67.8V106.7H318.2z"/>
<path fill="#A35023" d="M319.7,212.7c0,50.8,66.3,66.3,66.3,66.3s66.3-15.6,66.3-66.3H319.7L319.7,212.7z"/>
<polygon points="415.1,155.1 395.7,155.1 395.7,135.7 376.3,135.7 376.3,155.1 357,155.1 357,174.5 376.3,174.5 376.3,232.6
	395.7,232.6 395.7,174.5 415.1,174.5 "/>
<polygon fill="#FFFFFF" points="256,0 256,30.6 210.8,55.7 256,55.7 256,115 196.9,115 256,147.8 256,170.7 229.3,170.7 155.8,129.8
	155.8,170.7 100.2,170.7 100.2,122.1 12.7,170.7 0,170.7 0,140.1 45.2,115 0,115 0,55.7 59.1,55.7 0,22.8 0,0 26.7,0 100.2,40.8
	100.2,0 155.8,0 155.8,48.6 243.3,0 "/>
<polygon fill="#D80027" points="144,0 112,0 112,69.3 0,69.3 0,101.3 112,101.3 112,170.7 144,170.7 144,101.3 256,101.3 256,69.3
	144,69.3 "/>
<polygon fill="#0052B4" points="155.8,115 256,170.7 256,154.9 184.2,115 "/>
<polygon fill="#FFFFFF" points="155.8,115 256,170.7 256,154.9 184.2,115 "/>
<polygon fill="#D80027" points="155.8,115 256,170.7 256,154.9 184.2,115 	"/>
<polygon fill="#D80027" points="71.8,115 0,154.9 0,170.7 0,170.7 100.2,115 	"/>
<polygon fill="#0052B4" points="100.2,55.6 0,0 0,15.7 71.8,55.6 "/>
<polygon fill="#FFFFFF" points="100.2,55.6 0,0 0,15.7 71.8,55.6 "/>
<polygon fill="#D80027" points="100.2,55.6 0,0 0,15.7 71.8,55.6 	"/>
<polygon fill="#D80027" points="184.2,55.6 256,15.7 256,0 256,0 155.8,55.6 	"/>
</svg>
