<?xml version="1.0" encoding="utf-8"?>
<svg version="1.1" xmlns="http://www.w3.org/2000/svg" viewBox="0 0 513 342">
<polygon fill="#dc2339" points="342,0 171,0 0,0 0,341.3 171,341.3 342,341.3 513,341.3 513,0 "/>
<rect y="0" fill="#11865d" width="171" height="342"/>
<rect x="171" y="0" fill="#FFFFFF" width="171" height="342"/>
<path fill="#8C9157" d="M195.8,171.2c0,21.6,11.5,41.7,30.3,52.5c5.8,3.4,13.2,1.4,16.6-4.4c3.4-5.8,1.4-13.2-4.4-16.6
	c-11.3-6.5-18.2-18.5-18.2-31.5c0-6.7-5.4-12.1-12.1-12.1C201.3,159.1,195.8,164.5,195.8,171.2z M289.2,222.3
	c17.5-11.1,28-30.4,28-51.1c0-6.7-5.4-12.1-12.1-12.1s-12.1,5.4-12.1,12.1c0,12.4-6.3,24-16.8,30.7c-5.7,3.5-7.5,10.9-4.1,16.7
	s10.9,7.5,16.7,4.1C288.8,222.5,289,222.4,289.2,222.3z"/>
<ellipse fill="#C59262" cx="256.5" cy="159.1" rx="24.3" ry="36.4"/>
</svg>
