<?xml version="1.0" encoding="UTF-8"?>

<svg xmlns="http://www.w3.org/2000/svg" viewBox="0 85.333 512 341.333">
<rect y="85.337" fill="#496E2D" width="512" height="341.326"/>
<polyline fill="#0052B4" points="0,426.663 0,85.337 512,85.337 "/>
<polygon fill="#FFFFFF" points="512,152.222 512,85.337 411.67,85.337 0,359.778 0,426.663 100.33,426.663 "/>
<polygon fill="#A2001D" points="512,85.337 512,125.462 60.193,426.663 0,426.663 0,386.538 451.807,85.337 "/>
<polygon fill="#FFDA44" points="187.737,189.212 164.996,199.908 177.106,221.932 152.413,217.208 149.284,242.153   132.085,223.806 114.885,242.153 111.756,217.208 87.063,221.931 99.172,199.908 76.433,189.212 99.173,178.515 87.063,156.493   111.756,161.215 114.886,136.271 132.085,154.618 149.285,136.271 152.413,161.215 177.106,156.493 164.998,178.517 "/>
</svg>
