<?xml version="1.0" encoding="utf-8"?>
<!-- Generator: Adobe Illustrator 22.0.0, SVG Export Plug-In . SVG Version: 6.00 Build 0)  -->
<svg version="1.1" xmlns="http://www.w3.org/2000/svg" viewBox="0 0 640 426.7">
<path fill="#009543" d="M0,293h640v133.7H0V293z"/>
<path fill="#ED4135" d="M0,132h640v161.3H0V132z"/>
<path fill="#0035AD" d="M0,0h640v133.3H0V0z"/>
<circle fill="#FAE600" stroke="#000000" stroke-width="5.3" cx="240" cy="213.3" r="157.3"/>
<path d="M307.9,354.5l-31.8,12l-36.1,4.2l-37.8-2.4l-35.9-15.5c0,0,28.6-29.3,40.7-33.5c8.6-3,22.4-3.7,22.4-3.7V122l-0.3-66H246
	l-0.5,67.5v191.7c0,0,15.3,1.2,22.1,4.1C278.9,324.2,307.9,354.5,307.9,354.5z"/>
<rect x="213" y="91" transform="matrix(0.8949 -0.4462 0.4462 0.8949 -18.4912 115.9796)" width="48" height="12.5"/>
<ellipse cx="237.8" cy="280.5" rx="16.8" ry="26.5"/>
<circle cx="237.4" cy="143.4" r="20.9"/>
<ellipse cx="238.4" cy="211.1" rx="19.9" ry="12.1"/>
<rect x="213.8" y="177" width="47" height="10"/>
<rect x="213.8" y="234" width="47" height="10"/>
</svg>
