<?xml version="1.0" encoding="UTF-8"?>

<svg xmlns="http://www.w3.org/2000/svg" viewBox="0 85.333 512 341.333">
<rect y="85.337" fill="#FFFFFF" width="512" height="341.326"/>
<g>
	<rect y="85.337" fill="#338AF3" width="512" height="113.775"/>
	<rect y="312.888" fill="#338AF3" width="512" height="113.775"/>
</g>
<path fill="#FFDA44" d="M256,214.447c-22.949,0-41.553,18.603-41.553,41.553S233.05,297.553,256,297.553  c22.949,0,41.553-18.603,41.553-41.553S278.949,214.447,256,214.447z M256,279.745c-13.114,0-23.745-10.631-23.745-23.745  s10.631-23.745,23.745-23.745c13.114,0,23.745,10.631,23.745,23.745C279.745,269.114,269.114,279.745,256,279.745z"/>
<polygon fill="#0052B4" points="276.563,261.936 256,256 235.437,261.936 228.582,273.809 283.418,273.809 "/>
<polygon fill="#338AF3" points="256,226.32 242.291,250.064 256,256 269.709,250.064 "/>
<polygon fill="#6DA544" points="235.437,261.936 276.563,261.936 269.709,250.064 242.291,250.064 "/>
</svg>
