<?xml version="1.0" encoding="UTF-8"?>

<svg xmlns="http://www.w3.org/2000/svg" viewBox="0 85.333 512 341.333">
<rect y="85.337" fill="#FFFFFF" width="512" height="341.326"/>
<polygon fill="#0052B4" points="0,426.663 0,85.337 280.419,260.087 87.61,260.087 271.186,426.663 "/>
<polygon fill="#D80027" points="244.769,249.888 10.199,103.71 10.199,249.888 10.199,416.464 244.769,416.464   61.193,249.888 "/>
<g>
	<polygon fill="#FFFFFF" points="98.003,324.433 83.414,317.57 91.184,303.44 75.34,306.47 73.332,290.465 62.297,302.237    51.261,290.465 49.253,306.47 33.41,303.439 41.18,317.57 26.589,324.433 41.18,331.295 33.41,345.425 49.254,342.396    51.261,358.4 62.297,346.628 73.332,358.4 75.34,342.396 91.183,345.426 83.414,331.296  "/>
	<polygon fill="#FFFFFF" points="88.268,191.662 77.656,186.671 83.307,176.393 71.784,178.598 70.323,166.957    62.297,175.518 54.271,166.957 52.811,178.598 41.286,176.393 46.938,186.671 36.325,191.662 62.297,196.856  "/>
	<path fill="#FFFFFF" d="M93.462,191.662c0,17.212-13.953,31.165-31.165,31.165s-31.165-13.953-31.165-31.165"/>
</g>
</svg>
