<?xml version="1.0" encoding="UTF-8"?>

<svg xmlns="http://www.w3.org/2000/svg" viewBox="0 85.333 512 341.333">
<rect y="85.334" fill="#FFDA44" width="512" height="341.337"/>
<rect y="85.334" fill="#FFFFFF" width="256" height="170.663"/>
<g>
	<polygon fill="#D80027" points="144,85.33 112,85.33 112,154.663 0,154.663 0,186.663 112,186.663 112,255.997 144,255.997    144,186.663 256,186.663 256,154.663 144,154.663  "/>
	<polygon fill="#D80027" points="0,85.329 0,100.412 57.377,138.663 80,138.663  "/>
</g>
<g>
	<polygon fill="#2E52B2" points="0,107.951 0,138.663 46.069,138.663  "/>
	<polygon fill="#2E52B2" points="96,85.331 96,134.244 22.628,85.331  "/>
</g>
<polygon fill="#D80027" points="256,85.329 256,100.412 198.623,138.663 176,138.663 "/>
<g>
	<polygon fill="#2E52B2" points="256,107.951 256,138.663 209.931,138.663  "/>
	<polygon fill="#2E52B2" points="160,85.331 160,134.244 233.372,85.331  "/>
</g>
<polygon fill="#D80027" points="0,85.329 0,100.412 57.377,138.663 80,138.663 "/>
<g>
	<polygon fill="#2E52B2" points="0,107.951 0,138.663 46.069,138.663  "/>
	<polygon fill="#2E52B2" points="96,85.331 96,134.244 22.628,85.331  "/>
</g>
<polygon fill="#D80027" points="256,85.329 256,100.412 198.623,138.663 176,138.663 "/>
<g>
	<polygon fill="#2E52B2" points="256,107.951 256,138.663 209.931,138.663  "/>
	<polygon fill="#2E52B2" points="160,85.331 160,134.244 233.372,85.331  "/>
</g>
<polygon fill="#D80027" points="0,255.997 0,240.915 57.377,202.663 80,202.663 "/>
<g>
	<polygon fill="#2E52B2" points="0,233.376 0,202.663 46.069,202.663  "/>
	<polygon fill="#2E52B2" points="96,255.994 96,207.082 22.628,255.994  "/>
</g>
<polygon fill="#D80027" points="256,255.997 256,240.915 198.623,202.663 176,202.663 "/>
<g>
	<polygon fill="#2E52B2" points="256,233.376 256,202.663 209.931,202.663  "/>
	<polygon fill="#2E52B2" points="160,255.994 160,207.082 233.372,255.994  "/>
	<circle fill="#2E52B2" cx="128" cy="170.66" r="22.627"/>
</g>
<g>
	<polygon fill="#FFDA44" points="128,154.663 131.97,166.885 144.824,166.885 134.426,174.441 138.397,186.663 128,179.109    117.602,186.663 121.574,174.441 111.176,166.885 124.029,166.885  "/>
	<polygon fill="#FFDA44" points="128,219.803 130.364,227.081 138.017,227.081 131.827,231.579 134.191,238.857 128,234.359    121.809,238.857 124.173,231.579 117.983,227.081 125.635,227.081  "/>
	<polygon fill="#FFDA44" points="128,102.469 130.364,109.747 138.017,109.747 131.827,114.245 134.191,121.523 128,117.025    121.809,121.523 124.173,114.245 117.983,109.747 125.635,109.747  "/>
	<polygon fill="#FFDA44" points="197.931,161.136 200.296,168.413 207.949,168.413 201.757,172.912 204.122,180.191    197.931,175.693 191.74,180.191 194.105,172.912 187.914,168.413 195.566,168.413  "/>
	<polygon fill="#FFDA44" points="58.069,161.136 60.433,168.413 68.086,168.413 61.895,172.912 64.259,180.191    58.069,175.693 51.878,180.191 54.243,172.912 48.051,168.413 55.704,168.413  "/>
</g>
</svg>
