<?xml version="1.0" encoding="UTF-8"?>

<svg xmlns="http://www.w3.org/2000/svg" viewBox="0 85.333 512 341.333">
<rect y="85.334" fill="#0052B4" width="512" height="341.337"/>
<g>
	<polygon fill="#D80027" points="425.301,233.745 428.689,244.173 439.652,244.173 430.782,250.617 434.17,261.044    425.301,254.6 416.43,261.044 419.818,250.617 410.948,244.173 421.911,244.173  "/>
	<polygon fill="#D80027" points="386.107,308.817 391.19,324.459 407.635,324.459 394.33,334.126 399.412,349.766    386.107,340.099 372.802,349.766 377.885,334.126 364.58,324.459 381.025,324.459  "/>
	<polygon fill="#D80027" points="387.588,185.971 391.824,199.007 405.528,199.007 394.44,207.061 398.675,220.095    387.588,212.039 376.5,220.095 380.735,207.061 369.648,199.007 383.352,199.007  "/>
	<polygon fill="#D80027" points="349.876,233.291 354.958,248.932 371.404,248.932 358.098,258.598 363.182,274.239    349.876,264.573 336.571,274.239 341.653,258.598 328.348,248.932 344.793,248.932  "/>
</g>
<polygon fill="#FFFFFF" points="256.003,85.329 256.003,115.893 210.825,140.981 256.003,140.981 256.003,200.34   196.89,200.34 256.003,233.186 256.003,255.992 229.313,255.992 155.829,215.166 155.829,255.992 100.177,255.992 100.177,207.419   12.748,255.992 0.003,255.992 0.003,225.439 45.171,200.34 0.003,200.34 0.003,140.981 59.106,140.981 0.003,108.147 0.003,85.329   26.683,85.329 100.177,126.167 100.177,85.329 155.829,85.329 155.829,133.902 243.259,85.329 "/>
<polygon fill="#D80027" points="144,85.33 112,85.33 112,154.664 0,154.664 0,186.664 112,186.664 112,255.998 144,255.998   144,186.664 256,186.664 256,154.664 144,154.664 "/>
<polygon fill="#0052B4" points="155.826,200.344 256,255.998 256,240.259 184.153,200.344 "/>
<polygon fill="#FFFFFF" points="155.826,200.344 256,255.998 256,240.259 184.153,200.344 "/>
<g>
	<polygon fill="#D80027" points="155.826,200.344 256,255.998 256,240.259 184.153,200.344  "/>
	<polygon fill="#D80027" points="71.846,200.344 0,240.259 0,255.998 0,255.998 100.174,200.344  "/>
</g>
<polygon fill="#0052B4" points="100.174,140.983 0,85.33 0,101.068 71.847,140.983 "/>
<polygon fill="#FFFFFF" points="100.174,140.983 0,85.33 0,101.068 71.847,140.983 "/>
<g>
	<polygon fill="#D80027" points="100.174,140.983 0,85.33 0,101.068 71.847,140.983  "/>
	<polygon fill="#D80027" points="184.154,140.983 256,101.068 256,85.33 256,85.33 155.826,140.983  "/>
</g>
</svg>
