<?xml version="1.0" encoding="UTF-8"?>

<svg xmlns="http://www.w3.org/2000/svg" viewBox="0 85.333 512 341.333">
<rect y="85.337" fill="#FFFFFF" width="512" height="341.326"/>
<path fill="#0052B4" d="M256,256c0,0,0,85.304,0,170.663H0V256h85.337C166.934,256,256,256,256,256z"/>
<path fill="#D80027" d="M512,85.337V256h-85.337C336.184,256,256,256,256,256s0-90.323,0-170.663H512z"/>
<polygon fill="#0052B4" points="128,123.034 139.824,159.423 178.087,159.423 147.132,181.914 158.955,218.303 128,195.813   97.045,218.303 108.868,181.914 77.913,159.423 116.176,159.423 "/>
<polygon fill="#D80027" points="384,293.697 395.824,330.086 434.087,330.086 403.132,352.577 414.955,388.966 384,366.476   353.045,388.966 364.868,352.577 333.913,330.086 372.176,330.086 "/>
</svg>
