<?xml version="1.0" encoding="UTF-8"?>

<svg xmlns="http://www.w3.org/2000/svg" viewBox="0 85.333 512 341.333">
<rect y="85.333" width="512" height="341.337"/>
<polyline fill="#A2001D" points="0,85.33 512,85.33 512,426.662 "/>
<g>
	<polygon fill="#FFFFFF" points="204.631,326.488 207.393,334.992 216.334,334.992 209.101,340.247 211.864,348.749    204.631,343.495 197.398,348.749 200.16,340.247 192.927,334.992 201.867,334.992  "/>
	<polygon fill="#FFFFFF" points="181.797,244.866 186.402,259.038 201.303,259.038 189.247,267.795 193.852,281.967    181.797,273.208 169.742,281.967 174.348,267.795 162.292,259.038 177.193,259.038  "/>
	<polygon fill="#FFFFFF" points="181.797,348.749 186.401,362.922 201.303,362.922 189.246,371.679 193.852,385.852    181.797,377.093 169.742,385.852 174.346,371.679 162.292,362.922 177.191,362.922  "/>
	<polygon fill="#FFFFFF" points="225.363,281.967 229.969,296.139 244.87,296.139 232.814,304.897 237.419,319.069    225.363,310.31 213.309,319.069 217.915,304.897 205.859,296.139 220.76,296.139  "/>
	<polygon fill="#FFFFFF" points="138.23,281.967 142.836,296.139 157.735,296.139 145.681,304.897 150.284,319.069    138.23,310.31 126.175,319.069 130.78,304.897 118.725,296.139 133.625,296.139  "/>
</g>
<path fill="#FFDA44" d="M376.526,204.163c-7.628-7.628-17.538-12.133-28.189-12.908l31.88-24.795  c-12.698-12.698-29.714-18.431-46.319-17.218c-1.988-7.145-5.778-13.892-11.396-19.511l-12.593,25.186  c-0.826-1.506-1.872-2.923-3.148-4.197c-7.245-7.245-18.991-7.244-26.234,0s-7.245,18.99,0,26.234  c1.276,1.276,2.692,2.322,4.197,3.148l-25.186,12.593c5.62,5.62,12.371,9.412,19.519,11.399  c-1.217,16.606,4.511,33.619,17.209,46.317l27.854-35.811c2.096-2.064,4.862-3.202,7.807-3.202c2.973,0,5.768,1.158,7.87,3.26  c2.103,2.103,3.26,4.897,3.26,7.87c0,2.974-1.158,5.768-3.26,7.87l10.494,10.494c4.905-4.905,7.607-11.428,7.607-18.364  c0-5.675-1.81-11.071-5.153-15.534c4.871,1.3,9.474,3.849,13.288,7.662c11.573,11.572,11.573,30.403,0,41.975l10.494,10.494  c8.409-8.409,13.039-19.59,13.039-31.481C389.565,223.752,384.934,212.572,376.526,204.163z"/>
</svg>
