<?xml version="1.0" encoding="UTF-8"?>

<svg xmlns="http://www.w3.org/2000/svg" viewBox="0 85.333 512 341.333">
<g>
	<rect y="85.337" fill="#FFFFFF" width="512" height="341.326"/>
</g>
<polygon fill="#0052B4" points="512,85.337 512,256 256,256 0,85.337 "/>
<polygon fill="#D80027" points="512,256 512,426.663 0,426.663 256,256 "/>
<g>
	<polygon fill="#FFDA44" points="161.908,256 134.62,243.165 149.152,216.737 119.52,222.405 115.765,192.472    95.125,214.487 74.486,192.472 70.731,222.405 41.1,216.736 55.631,243.164 28.343,256 55.631,268.835 41.1,295.263    70.733,289.595 74.486,319.528 95.125,297.513 115.765,319.528 119.52,289.595 149.151,295.264 134.619,268.837  "/>
	<polygon fill="#FFDA44" points="21.789,117.607 30.87,130.303 45.749,125.589 36.481,138.149 45.562,150.843    30.753,145.911 21.485,158.47 21.602,142.862 6.793,137.928 21.673,133.216  "/>
	<polygon fill="#FFDA44" points="21.789,353.53 30.87,366.226 45.749,361.512 36.481,374.072 45.562,386.767 30.753,381.834    21.485,394.392 21.602,378.785 6.793,373.851 21.673,369.139  "/>
	<polygon fill="#FFDA44" points="210.395,235.569 201.314,248.264 186.435,243.551 195.703,256.11 186.622,268.806    201.431,263.873 210.699,276.431 210.582,260.824 225.391,255.89 210.511,251.177  "/>
</g>
</svg>
