<?xml version="1.0" encoding="UTF-8"?>

<svg xmlns="http://www.w3.org/2000/svg" viewBox="0 85.333 512 341.333">
<rect y="85.333" fill="#0052B4" width="512" height="341.337"/>
<polygon fill="#ACABB1" points="400.696,219.822 384,225.387 367.304,219.822 361.739,205.909 367.304,191.996   400.696,191.996 395.13,205.909 "/>
<path fill="#338AF3" d="M345.043,219.822v61.217c0,29.821,38.957,38.957,38.957,38.957s38.957-9.137,38.957-38.957v-61.217  H345.043z"/>
<path fill="#6DA544" d="M348.555,295.541C358.131,313.927,384,319.996,384,319.996s25.869-6.069,35.445-24.455L384,236.518  L348.555,295.541z"/>
<path fill="#FFDA44" d="M422.957,280.421L384,219.822l-38.957,60.599v0.618c0,5.518,1.337,10.328,3.512,14.503L384,240.405  l35.445,55.137c2.175-4.175,3.512-8.983,3.512-14.503V280.421z"/>
<polygon fill="#FFFFFF" points="256,85.333 256,115.886 210.833,140.985 256,140.985 256,200.344 196.897,200.344   256,233.179 256,255.996 229.32,255.996 155.826,215.17 155.826,255.996 100.174,255.996 100.174,207.423 12.744,255.996 0,255.996   0,225.442 45.167,200.344 0,200.344 0,140.985 59.103,140.985 0,108.139 0,85.333 26.68,85.333 100.174,126.158 100.174,85.333   155.826,85.333 155.826,133.905 243.256,85.333 "/>
<polygon fill="#D80027" points="144,85.33 112,85.33 112,154.662 0,154.662 0,186.662 112,186.662 112,255.996 144,255.996   144,186.662 256,186.662 256,154.662 144,154.662 "/>
<polygon fill="#0052B4" points="155.826,200.344 256,255.996 256,240.259 184.153,200.344 "/>
<polygon fill="#FFFFFF" points="155.826,200.344 256,255.996 256,240.259 184.153,200.344 "/>
<g>
	<polygon fill="#D80027" points="155.826,200.344 256,255.996 256,240.259 184.153,200.344  "/>
	<polygon fill="#D80027" points="71.846,200.344 0,240.259 0,255.996 0,255.996 100.174,200.344  "/>
</g>
<polygon fill="#0052B4" points="100.174,140.982 0,85.33 0,101.067 71.847,140.982 "/>
<polygon fill="#FFFFFF" points="100.174,140.982 0,85.33 0,101.067 71.847,140.982 "/>
<g>
	<polygon fill="#D80027" points="100.174,140.982 0,85.33 0,101.067 71.847,140.982  "/>
	<polygon fill="#D80027" points="184.154,140.982 256,101.067 256,85.33 256,85.33 155.826,140.982  "/>
</g>
</svg>
