<?xml version="1.0" encoding="UTF-8"?>

<svg xmlns="http://www.w3.org/2000/svg" viewBox="0 85.333 512 341.333">
<rect y="85.337" fill="#FFFFFF" width="512" height="341.326"/>
<rect y="85.337" fill="#D80027" width="512" height="113.775"/>
<rect y="312.888" fill="#0052B4" width="512" height="113.775"/>
<path fill="#6DA544" d="M289.579,216.738l-12.592,12.592c5.37,5.372,8.693,12.792,8.693,20.988  c0,16.392-13.289,29.68-29.68,29.68c-16.392,0-29.68-13.289-29.68-29.68c0-8.195,3.322-15.616,8.693-20.988l-12.592-12.592  c-8.594,8.594-13.91,20.466-13.91,33.579c0,26.228,21.261,47.489,47.489,47.489s47.489-21.261,47.489-47.489  C303.489,237.205,298.173,225.332,289.579,216.738z"/>
<polygon fill="#FFDA44" points="256,232.51 260.421,246.115 274.725,246.115 263.152,254.523 267.573,268.127 256,259.719   244.427,268.127 248.848,254.523 237.275,246.115 251.579,246.115 "/>
</svg>
