<?xml version="1.0" encoding="UTF-8"?>

<svg xmlns="http://www.w3.org/2000/svg" viewBox="0 85.333 512 341.333">
<rect y="85.331" fill="#0052B4" width="512" height="341.337"/>
<rect y="85.331" fill="#D80027" width="512" height="113.775"/>
<rect y="312.882" fill="#FFFFFF" width="512" height="113.775"/>
<path fill="#D80027" d="M129.468,181.793v85.136c0,48.429,63.267,63.267,63.267,63.267S256,315.356,256,266.929v-85.136  H129.468z"/>
<g>
	<polygon fill="#FFDA44" points="155.634,196.634 229.835,196.634 229.835,166.953 214.994,174.373 192.733,152.113    170.474,174.373 155.634,166.953  "/>
	<polygon fill="#FFDA44" points="241.16,278.782 192.929,230.551 144.698,278.782 160.439,294.522 192.929,262.032    225.419,294.522  "/>
</g>
<path fill="#FFFFFF" d="M241.16,233.734h-22.504c1.266-2.184,2.001-4.713,2.001-7.418c0-8.196-6.645-14.84-14.84-14.84  c-5.663,0-10.581,3.172-13.083,7.836c-2.502-4.663-7.421-7.836-13.083-7.836c-8.195,0-14.84,6.644-14.84,14.84  c0,2.706,0.736,5.235,2.001,7.418h-22.114c0,8.196,7.139,14.84,15.334,14.84h-0.494c0,8.196,6.644,14.84,14.84,14.84  c0,7.257,5.211,13.286,12.094,14.576l-11.694,26.401c5.603,2.278,11.727,3.544,18.149,3.544c6.422,0,12.545-1.266,18.149-3.544  l-11.694-26.401c6.883-1.29,12.094-7.319,12.094-14.576c8.196,0,14.84-6.644,14.84-14.84h-0.494  C234.021,248.574,241.16,241.93,241.16,233.734z"/>
</svg>
