<?xml version="1.0" encoding="UTF-8"?>
<svg xmlns="http://www.w3.org/2000/svg" viewBox="0 85.333 512 341.333">
<rect y="85.333" fill="#055e1c" width="512" height="341.333"/>
<g fill="#FFFFFF">
	<path d="M183.548,289.386c0,12.295,9.731,22.261,21.736,22.261h65.208c0,10.244,8.11,18.551,18.114,18.551   h21.736c10.004,0,18.114-8.306,18.114-18.551v-22.261H183.548z"/>
	<path d="M330.264,181.791v51.942c0,8.183-6.5,14.84-14.491,14.84v22.261   c19.976,0,36.226-16.643,36.226-37.101v-51.942L330.264,181.791L330.264,181.791z"/>
	<path d="M174.491,233.734c0,8.183-6.5,14.84-14.491,14.84v22.261c19.976,0,36.226-16.643,36.226-37.101   v-51.942h-21.736V233.734z"/>
	<rect x="297.661" y="181.788" width="21.736" height="51.942"/>
	<path d="M265.057,211.473c0,2.046-1.625,3.71-3.623,3.71c-1.998,0-3.623-1.664-3.623-3.71v-29.682h-21.736   v29.682c0,2.046-1.625,3.71-3.623,3.71s-3.623-1.664-3.623-3.71v-29.682h-21.736v29.682c0,14.32,11.376,25.971,25.358,25.971   c5.385,0,10.38-1.733,14.491-4.677c4.11,2.944,9.106,4.677,14.491,4.677c1.084,0,2.15-0.078,3.2-0.215   c-1.54,6.499-7.255,11.345-14.068,11.345v22.261c19.976,0,36.226-16.643,36.226-37.101v-22.261v-29.682h-21.736L265.057,211.473   L265.057,211.473z"/>
	<rect x="207.093" y="248.57" width="32.601" height="22.261"/>
</g>
</svg>
