<?xml version="1.0" encoding="UTF-8"?>

<svg xmlns="http://www.w3.org/2000/svg" viewBox="0 85.333 512 341.333">
<rect y="85.334" fill="#496E2D" width="512" height="341.337"/>
<polyline fill="#0052B4" points="0,426.663 0,85.329 512,85.329 "/>
<polygon fill="#FFDA44" points="0,396.494 0,426.663 45.255,426.663 512,115.499 512,85.329 466.745,85.329 "/>
<g>
	<polygon fill="#FFFFFF" points="85.688,108.787 90.808,124.543 107.374,124.543 93.971,134.28 99.091,150.037    85.688,140.299 72.283,150.037 77.403,134.28 64,124.543 80.567,124.543  "/>
	<polygon fill="#FFFFFF" points="170.312,108.787 175.433,124.543 192,124.543 178.597,134.28 183.717,150.037    170.312,140.299 156.909,150.037 162.029,134.28 148.626,124.543 165.192,124.543  "/>
	<polygon fill="#FFFFFF" points="85.688,191.289 90.808,207.045 107.374,207.045 93.971,216.783 99.091,232.54    85.688,222.801 72.283,232.54 77.403,216.783 64,207.045 80.567,207.045  "/>
	<polygon fill="#FFFFFF" points="170.312,191.289 175.433,207.045 192,207.045 178.597,216.783 183.717,232.54    170.312,222.801 156.909,232.54 162.029,216.783 148.626,207.045 165.192,207.045  "/>
	<polygon fill="#FFFFFF" points="128,150.037 133.12,165.793 149.688,165.793 136.283,175.531 141.403,191.289 128,181.55    114.597,191.289 119.717,175.531 106.312,165.793 122.88,165.793  "/>
</g>
</svg>
