<?xml version="1.0" encoding="UTF-8"?>

<svg xmlns="http://www.w3.org/2000/svg" viewBox="0 85.333 512 341.333">
<rect y="85.337" fill="#FFFFFF" width="512" height="341.326"/>
<rect y="85.337" fill="#D80027" width="512" height="170.663"/>
<g>
	<path fill="#FFFFFF" d="M83.478,170.666c0-24.865,17.476-45.637,40.812-50.734c-3.587-0.784-7.308-1.208-11.13-1.208   c-28.688,0-51.942,23.254-51.942,51.941s23.255,51.942,51.942,51.942c3.822,0,7.543-0.425,11.13-1.208   C100.954,216.304,83.478,195.532,83.478,170.666z"/>
	<polygon fill="#FFFFFF" points="150.261,122.435 153.945,133.772 165.866,133.772 156.221,140.779 159.905,152.116    150.261,145.11 140.616,152.116 144.301,140.779 134.656,133.772 146.577,133.772  "/>
	<polygon fill="#FFFFFF" points="121.344,144.696 125.027,156.033 136.948,156.033 127.303,163.04 130.987,174.377    121.344,167.371 111.699,174.377 115.384,163.04 105.739,156.033 117.66,156.033  "/>
	<polygon fill="#FFFFFF" points="179.178,144.696 182.862,156.033 194.783,156.033 185.138,163.04 188.822,174.377    179.178,167.371 169.534,174.377 173.219,163.04 163.574,156.033 175.495,156.033  "/>
	<polygon fill="#FFFFFF" points="168.047,178.087 171.731,189.424 183.652,189.424 174.008,196.431 177.692,207.768    168.047,200.762 158.404,207.768 162.088,196.431 152.444,189.424 164.364,189.424  "/>
	<polygon fill="#FFFFFF" points="132.474,178.087 136.157,189.424 148.078,189.424 138.434,196.431 142.118,207.768    132.474,200.762 122.83,207.768 126.514,196.431 116.87,189.424 128.79,189.424  "/>
</g>
</svg>
