<?xml version="1.0" encoding="utf-8"?>
<svg version="1.1" xmlns="http://www.w3.org/2000/svg" xmlns:xlink="http://www.w3.org/1999/xlink"
	 viewBox="0 0 512 341.3">
<rect y="0" fill="#0052B4" width="512" height="341.3"/>
<polygon fill="#FFFFFF" points="256,0 256,117.4 209.9,117.4 256,148.1 256,170.7 233.4,170.7 160,121.8 160,170.7 96,170.7 96,121.8
	22.6,170.7 0,170.7 0,148.1 46.1,117.4 0,117.4 0,53.4 46.1,53.4 0,22.7 0,0 22.6,0 96,48.9 96,0 160,0 160,48.9 233.4,0 "/>
<g>
	<polygon fill="#D80027" points="144,0 112,0 112,69.4 0,69.4 0,101.4 112,101.4 112,170.7 144,170.7 144,101.4 256,101.4 256,69.4
		144,69.4 	"/>
	<polygon fill="#D80027" points="0,0 0,15.1 57.4,53.4 80,53.4 	"/>
	<polygon fill="#D80027" points="256,0 256,15.1 198.6,53.4 176,53.4 	"/>
</g>
<polygon fill="#2E52B2" points="256,22.7 256,53.4 209.9,53.4 "/>
<g>
	<polygon fill="#D80027" points="0,0 0,15.1 57.4,53.4 80,53.4 	"/>
	<polygon fill="#D80027" points="256,0 256,15.1 198.6,53.4 176,53.4 	"/>
</g>
<polygon fill="#2E52B2" points="256,22.7 256,53.4 209.9,53.4 "/>
<g>
	<polygon fill="#D80027" points="0,170.7 0,155.6 57.4,117.4 80,117.4 	"/>
	<polygon fill="#D80027" points="256,170.7 256,155.6 198.6,117.4 176,117.4 	"/>
</g>
<g>
	<path fill="#29DBFF" d="M449,139.7c-0.1,44.4-7.2,92.1-65,114.9c-57.8-22.8-64.9-70.5-65-114.9L449,139.7L449,139.7z"/>
	<path fill="#ffda44" d="M449,139.7c0-16.7-0.9-32.9-0.5-47.1C426.9,83,398.4,81,383.9,81s-42.9,2-64.6,11.6
		c0.4,14.2-0.5,30.4-0.5,47.1H449z"/>
	<path fill="#BF521B" d="M369.5,204.5l0.3,10.3L357,215l4.9,13.2l-17.3,0c-18-20.2-23.4-42.4-24.9-68.1l9.1-9.7l8.3,14.3l10.8-12.8
		l7,7.8l0.8,15.7L369.5,204.5z"/>
</g>
<polygon fill="#474747" points="436.6,192.5 428,210.8 381,210.8 351.8,191.3 377.5,201.8 402.6,201.8 406.3,195.3 413.5,195.5
	415.5,192.5 "/>
</svg>
