<?xml version="1.0" encoding="UTF-8"?>

<svg xmlns="http://www.w3.org/2000/svg" viewBox="0 85.333 512 341.333">
<rect y="85.337" fill="#FFFFFF" width="512" height="341.326"/>
<rect y="199.112" fill="#0052B4" width="512" height="113.775"/>
<rect y="312.888" fill="#D80027" width="512" height="113.775"/>
<path fill="#FFFFFF" d="M233.606,196.639v14.837c0,34.081-44.522,44.522-44.522,44.522s-44.522-10.44-44.522-44.522v-14.837  l-0.145-44.188l89.043-0.266L233.606,196.639z"/>
<path fill="#0052B4" d="M233.606,196.639v14.837c0,34.081-44.522,44.522-44.522,44.522s-44.522-10.44-44.522-44.522v-14.837  l-0.145-44.188l89.043-0.266L233.606,196.639z"/>
<path fill="#FFFFFF" d="M233.606,196.639v14.837c0,34.081-44.522,44.522-44.522,44.522s-44.522-10.44-44.522-44.522v-14.837  l14.848,14.837l29.674-22.261l29.685,22.261L233.606,196.639z"/>
</svg>
