<?xml version="1.0" encoding="UTF-8"?>

<svg xmlns="http://www.w3.org/2000/svg" viewBox="0 85.333 512 341.333">
<rect y="85.334" fill="#D80027" width="512" height="341.337"/>
<polygon fill="#FFFFFF" points="512,295.883 202.195,295.883 202.195,426.666 183.652,426.666 140.978,426.666   122.435,426.666 122.435,295.883 0,295.883 0,277.329 0,234.666 0,216.111 122.435,216.111 122.435,85.329 140.978,85.329   183.652,85.329 202.195,85.329 202.195,216.111 512,216.111 512,234.666 512,277.329 "/>
<polygon fill="#2E52B2" points="512,234.666 512,277.329 183.652,277.329 183.652,426.666 140.978,426.666 140.978,277.329   0,277.329 0,234.666 140.978,234.666 140.978,85.329 183.652,85.329 183.652,234.666 "/>
</svg>
