<?xml version="1.0" encoding="UTF-8"?>

<svg xmlns="http://www.w3.org/2000/svg" viewBox="0 85.333 512 341.333">
<rect y="85.34" fill="#338AF3" width="512" height="341.326"/>
<polygon fill="#FFFFFF" points="512,85.334 512,252.024 0,256.175 0,85.334 "/>
<path fill="#6DA544" d="M323.744,203.099L256,270.843l-67.744-67.744c-8.76,13.005-13.879,28.658-13.879,45.483v22.261  c0,35.744,23.097,66.193,55.148,77.213c-4.277,8.385-3.556,18.848,2.712,26.671c8.326-6.673,16.945-13.58,24.258-19.439  c7.313,5.859,15.932,12.767,24.258,19.439c6.342-7.915,7.011-18.534,2.564-26.968c31.614-11.261,54.308-41.485,54.308-76.916  v-22.261C337.623,231.756,332.504,216.105,323.744,203.099z"/>
<path fill="#FFDA44" d="M256,330.206c-32.732,0-59.362-26.63-59.362-59.362v-22.261c0-32.733,26.63-59.363,59.362-59.363  s59.362,26.63,59.362,59.362v22.261C315.362,303.576,288.732,330.206,256,330.206z"/>
<path fill="#338AF3" d="M293.101,270.843v-22.261c0-20.458-16.643-37.101-37.101-37.101s-37.101,16.643-37.101,37.101v22.261  L256,278.264L293.101,270.843z"/>
<path fill="#6DA544" d="M218.899,270.843L218.899,270.843c0,20.458,16.643,37.101,37.101,37.101  c20.458,0,37.101-16.643,37.101-37.101l0,0H218.899L218.899,270.843z"/>
<path fill="#FFDA44" d="M300.522,189.22c0-12.295-9.966-22.261-22.261-22.261c-5.703,0-10.901,2.146-14.84,5.672v-13.093  h7.421v-14.84h-7.421v-7.421h-14.84v7.421h-7.421v14.84h7.421v13.093c-3.94-3.526-9.138-5.672-14.841-5.672  c-12.295,0-22.261,9.966-22.261,22.261c0,6.591,2.867,12.512,7.421,16.589v13.093h74.203v-13.093  C297.655,201.732,300.522,195.812,300.522,189.22z"/>
</svg>
