<?xml version="1.0" encoding="UTF-8"?>

<svg xmlns="http://www.w3.org/2000/svg" viewBox="0 85.333 512 341.333">
<rect y="85.337" fill="#0052B4" width="512" height="341.326"/>
<polygon fill="#D80027" points="512,85.331 512,252.021 0,256.173 0,85.331 "/>
<polygon fill="#FFFFFF" points="256,256.006 0,426.668 0,85.331 "/>
<g>
	<path fill="#FFDA44" d="M59.621,256c-0.116,1.509-0.193,3.031-0.193,4.57c0,32.821,26.607,59.429,59.429,59.429   s59.429-26.607,59.429-59.429c0-1.539-0.078-3.061-0.193-4.57L59.621,256L59.621,256z"/>
	<circle fill="#FFDA44" cx="118.862" cy="210.287" r="18.286"/>
</g>
<path fill="#D80027" d="M77.715,205.714v59.429c0,31.494,41.144,41.143,41.144,41.143s41.144-9.649,41.144-41.143v-59.429  H77.715z"/>
<path fill="#338AF3" d="M118.877,287.148c-7.632-2.746-22.876-9.767-22.876-22.006v-41.144h45.715v41.144  C141.715,277.422,126.472,284.425,118.877,287.148z"/>
<polygon fill="#F3F3F3" points="128.001,246.856 128.001,237.714 118.857,233.143 109.715,237.714 109.715,246.856   105.144,251.429 105.144,269.714 132.572,269.714 132.572,251.429 "/>
</svg>
