<?xml version="1.0" encoding="utf-8"?>
<svg version="1.1" xmlns="http://www.w3.org/2000/svg" viewBox="0 0 900 600">
<path fill="#2B5DEA" d="M0,0h900v600H0V0z"/>
<path fill="#FFDF29" d="M0,100h900v400H0V100z"/>
<path fill="#D70000" d="M0,150h900v300H0V150z"/>
<path fill="#FFFFFF" d="M450,171.4v257.2c114.3,0,171.4-85.7,214.3-128.6C621.4,257.1,564.3,171.4,450,171.4z"/>
<path d="M450,171.4c-100,0-171.4,85.7-214.3,128.6C278.6,342.9,350,428.6,450,428.6V171.4z"/>
<rect x="346.3" y="254.3" fill="#FFFFFF" width="21" height="91.3"/>
<rect x="398.2" y="254.3" fill="#FFFFFF" width="21" height="91.3"/>
<rect x="477.8" y="254.3" width="21" height="91.3"/>
<rect x="529.7" y="254.3" width="21" height="91.3"/>
</svg>
