<?xml version="1.0" encoding="utf-8"?>
<svg version="1.1" xmlns="http://www.w3.org/2000/svg" viewBox="0 0 512 341.3">
<rect fill="#0052B4" width="512" height="341.3"/>
<polygon fill="#FFFFFF" points="256,0 256,117.4 209.9,117.4 256,148.1 256,170.7 233.4,170.7 160,121.8 160,170.7 96,170.7 96,121.8
	22.6,170.7 0,170.7 0,148.1 46.1,117.4 0,117.4 0,53.4 46.1,53.4 0,22.7 0,0 22.6,0 96,48.9 96,0 160,0 160,48.9 233.4,0 "/>
<g>
	<polygon fill="#D80027" points="144,0 112,0 112,69.4 0,69.4 0,101.4 112,101.4 112,170.7 144,170.7 144,101.4 256,101.4 256,69.4
		144,69.4 	"/>
	<polygon fill="#D80027" points="0,0 0,15.1 57.4,53.4 80,53.4 	"/>
	<polygon fill="#D80027" points="256,0 256,15.1 198.6,53.4 176,53.4 	"/>
</g>
<polygon fill="#2E52B2" points="256,22.7 256,53.4 209.9,53.4 "/>
<g>
	<polygon fill="#D80027" points="0,0 0,15.1 57.4,53.4 80,53.4 	"/>
	<polygon fill="#D80027" points="256,0 256,15.1 198.6,53.4 176,53.4 	"/>
</g>
<polygon fill="#2E52B2" points="256,22.7 256,53.4 209.9,53.4 "/>
<g>
	<polygon fill="#D80027" points="0,170.7 0,155.6 57.4,117.4 80,117.4 	"/>
	<polygon fill="#D80027" points="256,170.7 256,155.6 198.6,117.4 176,117.4 	"/>
</g>
<g>
	<path fill="#29DBFF" d="M448.9,169.5c0,9.6-0.3,29.6-1.4,39.2c-4.1,34.9-23.5,68.8-62.1,85.9c-45.3-17.9-60.8-51-64.9-85.9
		c-1.1-9.6-1.5-19.4-1.5-29l0.3-47.1h129.2L448.9,169.5z"/>
</g>
<g>
	<path fill="#FFFFFF" d="M447.5,208.7c-0.2,1.6-0.4,3.3-0.6,4.9c-4.8,33.1-22.9,65.4-61.5,81c-43.2-17-59.4-47.9-64.2-81
		c-0.2-1.6-0.4-3.2-0.6-4.9"/>
</g>
<polygon fill="#29DBFF" points="385.4,251.7 362.5,208.7 408.3,208.7 "/>
<polygon fill="#FFFFFF" points="385.4,165.8 362.5,208.7 408.3,208.7 "/>
<ellipse fill="#FFBE57" cx="474.8" cy="236.8" rx="16.8" ry="43.3"/>
<ellipse fill="#FFBE57" cx="295.3" cy="236.8" rx="16.8" ry="43.3"/>
<polygon fill="#FFFFFF" points="385.4,31.5 352,75.5 420.5,75.5 "/>
<path fill="#FFFFFF" d="M315.5,280c0,0,33.8,29.5,69.9,29.5s67.1-29.5,67.1-29.5l8.5,14.6c0,0-21.8,31.4-75.6,31.4S307,294.6,307,294.6
	L315.5,280z"/>
<ellipse fill="#A5A5A5" cx="386.3" cy="104.3" rx="34.3" ry="23.3"/>
</svg>
