<?xml version="1.0" encoding="UTF-8"?>

<svg xmlns="http://www.w3.org/2000/svg" viewBox="0 85.333 512 341.333">
<rect y="85.333" fill="#0052B4" width="512" height="341.337"/>
<path fill="#FFDA44" d="M332.058,191.996v78.221c0,38.103,51.942,49.779,51.942,49.779s51.942-11.675,51.942-49.779v-78.221  H332.058z"/>
<path fill="#FF9811" d="M376.579,220.44c0,7.855-6.644,28.445-14.84,28.445s-14.84-20.589-14.84-28.445  c0-7.856,14.84-14.222,14.84-14.222S376.579,212.585,376.579,220.44z"/>
<path fill="#A2001D" d="M415.961,235.93c2.394-5.6,4.257-13.785,4.257-17.86c0-6.546-8.904-11.852-8.904-11.852  s-8.904,5.306-8.904,11.852c0,4.075,1.862,12.26,4.257,17.86l-5.141,11.123c3.022,1.178,6.324,1.831,9.788,1.831  c3.463,0,6.766-0.654,9.788-1.831L415.961,235.93z"/>
<path fill="#6DA544" d="M372.87,270.217c0,0-7.421,14.222-7.421,28.445c0,0,22.261,0,37.101,0  c0-14.222-7.421-28.445-7.421-28.445l-11.13-7.111L372.87,270.217z"/>
<path fill="#D80027" d="M395.13,270.217v-3.555c0-5.891-4.983-10.666-11.13-10.666c-6.147,0-11.13,4.776-11.13,10.666v3.555  H395.13L395.13,270.217z"/>
<polygon fill="#FFFFFF" points="256,85.333 256,115.886 210.833,140.985 256,140.985 256,200.344 196.897,200.344   256,233.179 256,255.996 229.32,255.996 155.826,215.17 155.826,255.996 100.174,255.996 100.174,207.423 12.744,255.996 0,255.996   0,225.442 45.167,200.344 0,200.344 0,140.985 59.103,140.985 0,108.139 0,85.333 26.68,85.333 100.174,126.158 100.174,85.333   155.826,85.333 155.826,133.905 243.256,85.333 "/>
<polygon fill="#D80027" points="144,85.33 112,85.33 112,154.662 0,154.662 0,186.662 112,186.662 112,255.996 144,255.996   144,186.662 256,186.662 256,154.662 144,154.662 "/>
<polygon fill="#0052B4" points="155.826,200.344 256,255.996 256,240.259 184.153,200.344 "/>
<polygon fill="#FFFFFF" points="155.826,200.344 256,255.996 256,240.259 184.153,200.344 "/>
<g>
	<polygon fill="#D80027" points="155.826,200.344 256,255.996 256,240.259 184.153,200.344  "/>
	<polygon fill="#D80027" points="71.846,200.344 0,240.259 0,255.996 0,255.996 100.174,200.344  "/>
</g>
<polygon fill="#0052B4" points="100.174,140.982 0,85.33 0,101.067 71.847,140.982 "/>
<polygon fill="#FFFFFF" points="100.174,140.982 0,85.33 0,101.067 71.847,140.982 "/>
<g>
	<polygon fill="#D80027" points="100.174,140.982 0,85.33 0,101.067 71.847,140.982  "/>
	<polygon fill="#D80027" points="184.154,140.982 256,101.067 256,85.33 256,85.33 155.826,140.982  "/>
</g>
</svg>
