<?xml version="1.0" encoding="UTF-8"?>

<svg xmlns="http://www.w3.org/2000/svg" viewBox="0 85.333 512 341.333">
<rect y="85.337" fill="#0052B4" width="512" height="341.326"/>
<g>
	<polygon fill="#FFFFFF" points="210.715,174.377 214.399,185.715 226.318,185.715 216.675,192.721 220.359,204.058    210.715,197.051 201.071,204.058 204.755,192.721 195.11,185.715 207.031,185.715  "/>
	<polygon fill="#FFFFFF" points="116.816,281.971 121.421,296.143 136.321,296.143 124.266,304.9 128.872,319.073    116.816,310.313 104.761,319.073 109.365,304.9 97.311,296.143 112.21,296.143  "/>
	<polygon fill="#FFFFFF" points="144.696,119.679 149.3,133.851 164.201,133.851 152.145,142.609 156.751,156.78    144.696,148.021 132.64,156.78 137.246,142.609 125.191,133.851 140.091,133.851  "/>
	<polygon fill="#FFFFFF" points="69.539,175.331 74.143,189.503 89.043,189.503 76.988,198.261 81.594,212.432    69.539,203.674 57.483,212.432 62.089,198.261 50.034,189.503 64.934,189.503  "/>
</g>
<g>
	<path fill="#FFDA44" d="M483.386,354.503H117.801c0,0,109.234-88.562,310.593-220.938   C428.395,133.565,339.951,262.5,483.386,354.503z"/>
	<path fill="#FFDA44" d="M117.801,366.089c-11.177,0-11.195,17.37,0,17.37h365.585c11.177,0,11.195-17.37,0-17.37H117.801z"/>
</g>
</svg>
