<?xml version="1.0" encoding="UTF-8"?>

<svg xmlns="http://www.w3.org/2000/svg" viewBox="0 85.333 512 341.333">
<rect y="85.337" fill="#496E2D" width="512" height="341.326"/>
<g>
	<path fill="#FFFFFF" d="M357.208,183.679c8.397-23.404-1.036-48.858-21.281-61.536c3.641,0.474,7.287,1.331,10.884,2.621   c27.002,9.688,41.038,39.428,31.35,66.431s-39.428,41.038-66.431,31.35c-3.597-1.291-6.957-2.947-10.069-4.895   C325.347,220.734,348.811,207.084,357.208,183.679z"/>
	<polygon fill="#FFFFFF" points="310.637,115.729 303.34,125.156 292.12,121.13 298.832,130.982 291.536,140.409    302.979,137.071 309.691,146.923 310.052,135.009 321.496,131.67 310.275,127.645  "/>
	<polygon fill="#FFFFFF" points="330.338,146.448 323.042,155.875 311.821,151.849 318.533,161.701 311.237,171.128    322.68,167.789 329.392,177.642 329.752,165.727 341.197,162.387 329.976,158.363  "/>
	<polygon fill="#FFFFFF" points="275.9,126.916 268.604,136.343 257.385,132.319 264.096,142.17 256.8,151.596    268.243,148.258 274.955,158.11 275.316,146.195 286.76,142.858 275.539,138.831  "/>
	<polygon fill="#FFFFFF" points="275.101,162.105 267.805,171.532 256.584,167.506 263.296,177.358 256,186.785    267.444,183.447 274.155,193.299 274.517,181.384 285.96,178.046 274.74,174.02  "/>
	<polygon fill="#FFFFFF" points="308.585,174.118 301.289,183.545 290.069,179.519 296.781,189.372 289.484,198.798    300.928,195.46 307.64,205.312 308,193.397 319.443,190.059 308.224,186.034  "/>
</g>
<rect x="83.478" y="85.337" fill="#D80027" width="89.043" height="341.326"/>
<polygon fill="#FFFFFF" points="117.458,175.191 102.55,164.086 102.55,148.381 117.458,137.276 138.542,137.276   153.45,148.381 153.45,164.086 138.542,175.191 "/>
<g>
	<polygon fill="#FF9811" points="128,137.276 117.458,137.276 102.55,148.381 102.55,156.059 128,156.059  "/>
	<polygon fill="#FF9811" points="128,175.191 138.542,175.191 153.45,164.086 153.45,156.074 128,156.074  "/>
</g>
<polygon fill="#FFFFFF" points="117.458,374.725 102.55,363.619 102.55,347.915 117.458,336.81 138.542,336.81   153.45,347.915 153.45,363.619 138.542,374.725 "/>
<g>
	<polygon fill="#FF9811" points="128,336.81 117.458,336.81 102.55,347.915 102.55,355.593 128,355.593  "/>
	<polygon fill="#FF9811" points="128,374.725 138.542,374.725 153.45,363.619 153.45,355.608 128,355.608  "/>
</g>
<g>
	<polygon fill="#496E2D" points="117.458,274.957 102.55,263.852 102.55,248.149 117.458,237.043 138.542,237.043    153.45,248.149 153.45,263.852 138.542,274.957  "/>
	<polygon fill="#496E2D" points="153.971,299.391 147.478,299.391 147.478,292.898 136.067,292.898 127.999,284.83    119.932,292.898 108.522,292.898 108.522,299.391 102.029,299.391 102.029,312.377 108.522,312.377 108.522,318.869    119.932,318.869 128,326.938 136.068,318.869 147.478,318.869 147.478,312.377 153.971,312.377  "/>
	<polygon fill="#496E2D" points="153.971,199.623 147.478,199.623 147.478,193.131 136.067,193.131 127.999,185.062    119.932,193.131 108.522,193.131 108.522,199.623 102.029,199.623 102.029,212.609 108.522,212.609 108.522,219.101    119.932,219.101 128,227.171 136.068,219.101 147.478,219.101 147.478,212.609 153.971,212.609  "/>
</g>
<g>
	<rect x="120.576" y="248.576" fill="#D80027" width="14.84" height="14.84"/>
	<circle fill="#D80027" cx="128" cy="206.113" r="7.421"/>
	<circle fill="#D80027" cx="128" cy="305.887" r="7.421"/>
</g>
</svg>
