<?xml version="1.0" encoding="utf-8"?>
<svg version="1.1" xmlns="http://www.w3.org/2000/svg" viewBox="0 0 513 342">
<rect fill="#E30A17" width="513" height="342"/>
<path fill="#FFFFFF" d="M259.7,118.6c-13.1-9.5-29-14.6-45.3-14.5c-40.8,0-73.8,30.8-73.8,68.9s33.1,68.9,73.8,68.9
	c17.1,0,32.9-5.4,45.3-14.5c-30,38.6-85.7,45.6-124.3,15.5s-45.6-85.7-15.5-124.3s85.7-45.6,124.3-15.5
	C250,107.6,255.2,112.9,259.7,118.6z M299.6,184.4l-18.1,21.9l1.2-28.4l-26.4-10.4l27.3-7.6l1.8-28.3l15.6,23.7l27.5-7.1L311,170.2
	l15.3,23.9L299.6,184.4L299.6,184.4z"/>
</svg>
