<?xml version="1.0" encoding="utf-8"?>
<svg version="1.1" xmlns="http://www.w3.org/2000/svg" viewBox="0 0 900 600">
<rect fill="#0052B4" width="900" height="600"/>
<path fill="#00B2EE" d="M0,300h450V0h450v600H0V300z"/>
<path fill="#FFDA44" d="M345.3,480.9l29.4,90.6l-77.1-56H393l-77.1,56L345.3,480.9z"/>
<path fill="#FFDA44" d="M706.4,340l29.4,90.6l-77.1-56h95.3l-77.1,56L706.4,340z"/>
<path fill="#FFDA44" d="M812.8,261.5l29.4,90.6l-77.1-56h95.3l-77.1,56L812.8,261.5z"/>
<path fill="#FFDA44" d="M812.8,37.4l29.4,90.6l-77.1-56h95.3l-77.1,56L812.8,37.4z"/>
<polygon fill="#FFFFFF" points="449.9,0 449.9,206.3 368.9,206.3 449.9,260.3 449.9,300 410.2,300 281.2,214.1 281.2,300 168.7,300 168.7,214.1 39.7,300 0,300 0,260.3 81,206.3 0,206.3 0,93.8 81,93.8 0,39.9 0,0 39.7,0 168.7,85.9 168.7,0 281.2,0 281.2,85.9 410.2,0 "/>
<polygon fill="#D80027" points="253.1,0 196.8,0 196.8,122 0,122 0,178.2 196.8,178.2 196.8,300 253.1,300 253.1,178.2 449.9,178.2 449.9,122 253.1,122 	"/>
<polygon fill="#2E52B2" points="449.9,39.9 449.9,93.8 368.9,93.8 "/>
<polygon fill="#D80027" points="0,300 0,280.7 109.9,206.3 149.6,206.3 12.8,300 	"/>
<polygon fill="#D80027" points="12.8,0.1 149.6,93.8 109.9,93.8 0,19.4 0,0.1 "/>
<polygon fill="#D80027" points="449.9,0.2 449.9,19.5 340,93.8 300.3,93.8 437.1,0.2 "/>
<polygon fill="#D80027" points="437.1,300 300.3,206.3 340,206.3 449.9,280.7 449.9,300 "/>
<path fill="#FFDA44" d="M719.9,131.6l29.4,90.6l-77.1-56h95.3l-77.1,56L719.9,131.6z"/>
<path fill="#FFDA44" d="M584,187.7l29.4,90.6l-77.1-56h95.3l-77.1,56L584,187.7z"/>
<path fill="#FFDA44" d="M614,430.6l29.4,90.6l-77.1-56h95.3l-77.1,56L614,430.6z"/>
<path fill="#FFDA44" d="M488,332l29.4,90.6l-77.1-56h95.3l-77.1,56L488,332z"/>
<path fill="#FFDA44" d="M488,464l29.4,90.6l-77.1-56h95.3l-77.1,56L488,464z"/>
</svg>
