<?xml version="1.0" encoding="utf-8"?>
<svg version="1.1" xmlns="http://www.w3.org/2000/svg" viewBox="0 0 512 341.3">
<rect y="0" fill="#232323" width="512" height="341.3"/>
<rect y="56.9" fill="#FFDA44" width="512" height="56.9"/>
<rect y="113.8" fill="#D32300" width="512" height="56.9"/>
<rect y="227.6" fill="#FFDA44" width="512" height="56.9"/>
<rect y="284.4" fill="#D32300" width="512" height="56.9"/>
<circle fill="#FFFFFF" cx="256" cy="170.7" r="80.7"/>
<path fill="#000000" d="M234.5,127.5c0.9-1.4-19.6-2-19.6-2c1.7-2.5,18.4-10.5,18.4-10.5s-0.9-6,2.7-9.8l-4.5-9.8c0,0,7-3.4,18.4-3.4
	s19.9,7,21,13.1l-6.4,3.4c-0.1,4.7,1.7,11.6-4.3,17.3c-5.9,5.7-8.3,6.9-8.5,18.8c0,3.9,2.3,8.2,8.8,11.7
	c17.4,9.3,38.6,28.2,44.6,33.9c6.1,5.7,5.1,19.2,2.6,25.2s-12.1,14.3-14.3,13.6c-2.2-0.6,1.2-9.2-3.5-11.6c0,0-8.9-7.6-16.8,0.6
	s-0.2,25.2,3.9,28c4.1,2.8,1.7,5-1.9,5h-28.1c-3.8,0-5.4-2.3-1.9-5c7.6-3.8,12.4-15.3,7.4-20.3c-4.9-4.9-18.3,1.5-21.5,6.3
	c-2.8,2.8-8.8,3.6-12.9-1.4s-4.1-10.4-1.1-12.5c7-4.8,0,0,0.1-0.1c0,0,11.9-8.6,29.9-9c3.9,0,4.8-2.2,2.2-4.8
	c0,0-30.9-27.4-28.1-44.2C224.1,141.7,241.1,133.7,234.5,127.5C233.2,125.7,234.5,127.5,234.5,127.5z"/>
</svg>
