<?xml version="1.0" encoding="utf-8"?>
<svg version="1.1" xmlns="http://www.w3.org/2000/svg" viewBox="0 0 513 342">

<rect fill="#FFFFFF" width="513" height="342"/>
<g fill="#0038a8">
	<rect y="38" width="513" height="38"/>
	<rect y="114" width="513" height="38"/>
	<rect y="190" width="513" height="38"/>
	<rect y="266" width="513" height="38"/>
</g>
<rect fill="#FFFFFF" width="256.5" height="190"/>
<path fill="#FED443" d="M128.3,138.7l-15.1,22.6l-3.8-26.9l-23.4,13.8l8.2-25.9L67,124.5l18.6-19.8L60.3,95l25.4-9.7L67,65.5l27.1,2.3
	l-8.2-25.9l23.4,13.8l3.9-26.9l15.1,22.6l15.1-22.6l3.8,26.9l23.4-13.8l-8.2,25.9l27.1-2.2l-18.6,19.8l25.4,9.7l-25.4,9.7l18.6,19.8
	l-27.1-2.2l8.2,25.9l-23.4-13.8l-3.9,26.9L128.3,138.7z M128.3,138.2c23.9,0.9,44-17.6,44.9-41.5c0.9-23.9-17.6-44-41.5-44.9
	c-1.1,0-2.3,0-3.4,0c-23.9,0.8-42.6,20.8-41.8,44.6C87.1,119.2,105.5,137.5,128.3,138.2L128.3,138.2z M128.3,127.6
	c-18.8,0-34-15.2-34-34s15.2-34,34-34s34,15.2,34,34S147,127.6,128.3,127.6z"/>
</svg>
