<?xml version="1.0" encoding="UTF-8"?>

<svg xmlns="http://www.w3.org/2000/svg" viewBox="0 85.333 512 341.333">
<rect y="85.331" fill="#FFDA44" width="512" height="341.326"/>
<rect x="256" y="85.331" fill="#FFFFFF" width="256" height="341.337"/>
<path fill="#ACABB1" d="M321.353,233.837l32.073,42.43c-5.053,7.651-5.026,17.961,0.817,25.692  c7.414,9.807,21.374,11.748,31.182,4.335c9.807-7.414,11.748-21.374,4.334-31.182c-5.843-7.731-15.756-10.568-24.495-7.795  l-49.988-66.129l-11.838,8.949l-17.759,13.424l17.899,23.677L321.353,233.837z M367.528,282.617  c3.27-2.472,7.923-1.824,10.395,1.445c2.471,3.269,1.824,7.923-1.445,10.395c-3.269,2.47-7.923,1.824-10.394-1.446  C363.613,289.743,364.259,285.088,367.528,282.617z"/>
<path fill="#FFDA44" d="M376.367,247.24l17.899-23.677l-17.759-13.424l-11.838-8.949l-49.988,66.129  c-8.74-2.775-18.651,0.063-24.495,7.795c-7.414,9.808-5.473,23.768,4.334,31.182c9.808,7.414,23.768,5.473,31.182-4.335  c5.845-7.731,5.871-18.041,0.817-25.692l32.073-42.43L376.367,247.24z M313.863,293.011c-2.471,3.27-7.125,3.916-10.394,1.446  c-3.27-2.472-3.916-7.126-1.445-10.395c2.471-3.268,7.125-3.916,10.395-1.445C315.687,285.088,316.334,289.743,313.863,293.011z"/>
</svg>
