<?xml version="1.0" encoding="utf-8"?>
<svg version="1.1" xmlns="http://www.w3.org/2000/svg" viewBox="0 0 22.5 15">
<rect fill="#FFCE00" width="22.5" height="5"/>
<rect y="5" fill="#203899" width="22.5" height="5"/>
<rect y="10" fill="#D82B2B" width="22.5" height="5"/>
<polygon fill="#FFFFFF" points="12.13,5.38 12.27,5.84 12.72,5.98 12.33,6.25 12.34,6.73 11.96,6.44 11.51,6.59 11.66,6.15 11.38,5.77
	11.85,5.77 "/>
<polygon fill="#FFFFFF" points="10.36,5.38 10.63,5.77 11.1,5.77 10.82,6.15 10.97,6.6 10.52,6.44 10.14,6.72 10.15,6.25 9.76,5.97
	10.21,5.84 "/>
<polygon fill="#FFFFFF" points="13.8,5.94 13.79,6.42 14.18,6.69 13.72,6.83 13.58,7.28 13.31,6.9 12.83,6.9 13.12,6.52 12.97,6.07
	13.42,6.23 "/>
<polygon fill="#FFFFFF" points="8.69,5.96 9.09,6.23 9.53,6.05 9.4,6.51 9.7,6.87 9.23,6.89 8.97,7.29 8.81,6.85 8.35,6.73 8.72,6.43
	"/>
<polygon fill="#FFFFFF" points="15.24,7.13 15.04,7.57 15.29,7.97 14.82,7.92 14.51,8.28 14.41,7.82 13.98,7.64 14.39,7.4 14.42,6.93
	14.77,7.24 "/>
<polygon fill="#FFFFFF" points="15.43,8.25 15.64,8.68 16.11,8.75 15.77,9.08 15.85,9.54 15.43,9.32 15.01,9.54 15.09,9.08 14.75,8.75
	15.22,8.68 "/>
<polygon fill="#FFFFFF" points="7,8.2 7.21,8.63 7.68,8.69 7.34,9.02 7.42,9.49 7,9.27 6.58,9.49 6.66,9.02 6.32,8.69 6.79,8.63 "/>
<polygon fill="#FFFFFF" points="7.31,7.05 7.76,7.19 8.14,6.9 8.14,7.38 8.53,7.64 8.08,7.79 7.95,8.25 7.67,7.87 7.2,7.88 7.47,7.5
	"/>
</svg>
