<?xml version="1.0" encoding="UTF-8"?>

<svg xmlns="http://www.w3.org/2000/svg" viewBox="0 85.333 512 341.333">
<rect y="85.334" fill="#0052B4" width="512" height="341.337"/>
<polygon fill="#FFFFFF" points="256,85.334 256,202.66 209.931,202.66 256,233.38 256,255.997 233.372,255.997 160,207.078   160,255.997 96,255.997 96,207.078 22.628,255.997 0,255.997 0,233.38 46.069,202.66 0,202.66 0,138.66 46.069,138.66 0,107.951   0,85.334 22.628,85.334 96,134.241 96,85.334 160,85.334 160,134.241 233.372,85.334 "/>
<g>
	<polygon fill="#D80027" points="144,85.33 112,85.33 112,154.663 0,154.663 0,186.663 112,186.663 112,255.997 144,255.997    144,186.663 256,186.663 256,154.663 144,154.663  "/>
	<polygon fill="#D80027" points="0,85.329 0,100.412 57.377,138.663 80,138.663  "/>
	<polygon fill="#D80027" points="256,85.329 256,100.412 198.623,138.663 176,138.663  "/>
</g>
<polygon fill="#2E52B2" points="256,107.951 256,138.663 209.931,138.663 "/>
<g>
	<polygon fill="#D80027" points="0,85.329 0,100.412 57.377,138.663 80,138.663  "/>
	<polygon fill="#D80027" points="256,85.329 256,100.412 198.623,138.663 176,138.663  "/>
</g>
<polygon fill="#2E52B2" points="256,107.951 256,138.663 209.931,138.663 "/>
<g>
	<polygon fill="#D80027" points="0,255.997 0,240.915 57.377,202.663 80,202.663  "/>
	<polygon fill="#D80027" points="256,255.997 256,240.915 198.623,202.663 176,202.663  "/>
</g>
<path fill="#FFDA44" d="M384,259.706l-46.129,46.129c8.645,16.675,26.051,28.074,46.129,28.074  c20.078,0,37.484-11.4,46.129-28.074L384,259.706z"/>
<path fill="#6DA544" d="M332.058,178.084v81.623v0.001l0,0C332.059,299.467,384,311.649,384,311.649  s51.941-12.182,51.942-51.942l0,0v-0.001v-81.622H332.058z"/>
<rect x="372.87" y="215.181" fill="#FFFFFF" width="22.261" height="59.359"/>
<circle fill="#A2001D" cx="384" cy="215.181" r="11.13"/>
<g>
	<rect x="346.902" y="192.92" fill="#FFDA44" width="14.84" height="14.84"/>
	<rect x="346.902" y="226.312" fill="#FFDA44" width="14.84" height="14.84"/>
	<rect x="346.902" y="259.703" fill="#FFDA44" width="14.84" height="14.84"/>
	<rect x="406.261" y="192.92" fill="#FFDA44" width="14.84" height="14.84"/>
	<rect x="406.261" y="226.312" fill="#FFDA44" width="14.84" height="14.84"/>
	<rect x="406.261" y="259.703" fill="#FFDA44" width="14.84" height="14.84"/>
</g>
</svg>
