<?xml version="1.0" encoding="utf-8"?>
<svg version="1.1" xmlns="http://www.w3.org/2000/svg"  viewBox="0 0 512 341.3">
<rect y="0" fill="#FFFFFF" width="512" height="341.3"/>
<path fill="#1583C4" d="M397.7,166.3L346.7,264c-1.1,2-0.3,4.5,1.8,5.6c2,1.1,4.5,0.3,5.6-1.8l51-97.7c1-2.1,0.1-4.6-2-5.5
	C401.1,163.7,398.8,164.4,397.7,166.3L397.7,166.3z"/>
<path fill="#1583C4" d="M404.9,188l-57.8,75.4c-1.3,1.9-0.8,4.5,1.1,5.8c1.7,1.2,4.1,0.9,5.5-0.7l57.8-75.4c1.4-1.8,1.1-4.4-0.8-5.8
	C408.9,185.8,406.3,186.2,404.9,188L404.9,188z"/>
<path fill="#1583C4" d="M379,181.3l-32.5,83.1c-0.8,2.1,0.2,4.6,2.4,5.4c2.1,0.8,4.6-0.2,5.4-2.4l32.5-83.1c0.7-2.2-0.4-4.5-2.6-5.3
	C382.1,178.4,379.9,179.4,379,181.3z"/>
<path fill="#409347" d="M122.1,171.9c0.4,1.7,1.2,4.7,2.2,8.5c1.7,6.4,3.6,12.8,5.6,18.7c2.3,6.9,14.7,31.4,20.2,39.1
	c6.9,9.7,14.1,19.3,21.5,28.6c1.6,1.9,4.5,2.1,6.4,0.5c1.8-1.6,2.1-4.3,0.7-6.2c-7.3-9.2-14.4-18.6-21.2-28.2
	c-4.2-5.8-17.2-31.1-19-36.7c-2.9-8.7-5.4-17.6-7.6-26.5c-0.5-2.4-2.9-4-5.3-3.5c-2.4,0.5-4,2.9-3.5,5.3
	C122,171.7,122.1,171.8,122.1,171.9L122.1,171.9z"/>
<g>
	<path fill="#FFD836" stroke="#231F20" stroke-miterlimit="10" d="M297.1,114.9c0,0-17.6-72.1-36.1-72.1c-6.9,0-11.9-0.6-15.4,6.4c-0.9,1.7-20.7-1.6-19.1,20.8
		c0.5,6.9,1.1-9.8,14.9-3.4c6.3,3-16.4,48.2-16.4,48.2H297.1z"/>
	<path fill="#FFD836" stroke="#231F20" stroke-miterlimit="10" d="M466.1,48.4l-90.9,22c-75.3,18.3-42.1,44.4-42.1,44.4l-72.1,12l-72.1-12c0,0,33.2-26.1-42.1-44.4l-90.9-22
		C43.1,45.3,38.1,51.8,45.3,63c0,0,106.6,104,126.8,112c20.2,8.1,40.8,0,40.8,0s-14.9,8.7-24,24c-9.2,15.3-4.6,34.7-38.9,40.2
		c-5.5,6.6-5,14,2.9,19.9c7.9,5.8,72.1-48.1,72.1-48.1s-24,24.4-24,36.1c0,5.1,44.1,53.8,60.1,53.8s60.1-48.7,60.1-53.8
		c0-11.7-24-36.1-24-36.1s64.2,53.9,72.1,48.1s11.4-19.3,2.8-19.9c-28-1.8-29.7-24.9-38.9-40.2c-9.2-15.3-24-24-24-24
		s20.6,8.1,40.8,0S476.7,63,476.7,63C483.9,51.8,479,45.3,466.1,48.4z"/>
</g>
<path fill="#FFFFFF" stroke="#231F20" stroke-miterlimit="10" d="M201.3,111.8v80.3c0,45.7,59.7,59.7,59.7,59.7s59.7-14,59.7-59.7v-80.3H201.3L201.3,111.8z"/>
<g>
	<path fill="#D80027" d="M225.2,137.7v97.3c8.2,6,17,10.2,23.9,12.9V137.7H225.2L225.2,137.7z"/>
	<path fill="#D80027" d="M296.8,137.7v97.3c-8.2,6-17,10.2-23.9,12.9V137.7H296.8L296.8,137.7z"/>
</g>
<rect x="201.3" y="111.8" fill="#0052B4" width="119.4" height="37.9"/>
<polygon fill="#1583C4" points="60.1,210.5 38.2,152.4 15.7,152.4 47.5,233.2 72.7,233.2 104.2,152.4 81.7,152.4 "/>
<rect x="451.5" y="151.9" fill="#1583C4" width="18.9" height="81.7"/>
</svg>