<?xml version="1.0" encoding="UTF-8"?>

<svg xmlns="http://www.w3.org/2000/svg" viewBox="0 85.333 512 341.333">
<rect y="85.337" width="512" height="341.326"/>
<polygon fill="#6DA544" points="512,256 512,426.663 0,426.663 215.185,256 "/>
<polygon fill="#D80027" points="512,85.337 512,256 215.185,256 0,85.337 "/>
<polygon points="221.001,239.304 26.868,85.337 8.956,85.337 217.124,250.435 512,250.435 512,239.304 "/>
<polygon points="8.956,426.663 26.868,426.663 221.001,272.696 512,272.696 512,261.565 217.124,261.565 "/>
<polygon points="0,92.44 0,106.646 188.317,256 0,405.354 0,419.559 206.229,256 "/>
<g>
	<polygon fill="#FFDA44" points="8.956,85.337 0,85.337 0,92.44 206.229,256 0,419.559 0,426.663 8.956,426.663    217.124,261.565 512,261.565 512,250.435 217.124,250.435  "/>
	<path fill="#FFDA44" d="M63.718,292.382v-14.295c14.265,0,25.87-11.606,25.87-25.869c0-10.092-8.211-18.303-18.304-18.303   c-6.875,0-12.469,5.593-12.469,12.469c0,4.397,3.577,7.974,7.974,7.974c2.485,0,4.508-2.023,4.508-4.508h14.295   c0,10.368-8.435,18.804-18.802,18.804c-12.279-0.002-22.269-9.993-22.269-22.271c0-14.758,12.006-26.764,26.764-26.764   c17.975,0,32.599,14.623,32.599,32.599C103.884,274.363,85.866,292.382,63.718,292.382z"/>
</g>
</svg>
