<?xml version="1.0" encoding="UTF-8"?>

<svg xmlns="http://www.w3.org/2000/svg" viewBox="0 85.333 512 341.333">
<rect y="85.331" fill="#D80027" width="512" height="341.337"/>
<rect y="85.331" fill="#0052B4" width="256" height="170.663"/>
<g>
	<polygon fill="#FFFFFF" points="165.483,181.79 168.247,190.294 177.186,190.294 169.954,195.548 172.717,204.051    165.483,198.796 158.25,204.051 161.013,195.548 153.78,190.294 162.72,190.294  "/>
	<polygon fill="#FFFFFF" points="120.579,115.007 125.185,129.18 140.085,129.18 128.03,137.937 132.635,152.108    120.579,143.35 108.525,152.108 113.13,137.937 101.074,129.18 115.975,129.18  "/>
	<polygon fill="#FFFFFF" points="165.101,129.848 169.707,144.02 184.607,144.02 172.552,152.777 177.156,166.95    165.101,158.19 153.047,166.95 157.651,152.777 145.596,144.02 160.496,144.02  "/>
	<polygon fill="#FFFFFF" points="129.909,189.211 134.515,203.383 149.415,203.383 137.36,212.141 141.964,226.312    129.909,217.553 117.855,226.312 122.459,212.141 110.404,203.383 125.304,203.383  "/>
	<polygon fill="#FFFFFF" points="90.899,152.108 95.504,166.281 110.404,166.281 98.349,175.038 102.953,189.211    90.899,180.451 78.844,189.211 83.448,175.038 71.393,166.281 86.293,166.281  "/>
</g>
</svg>
