<?xml version="1.0" encoding="utf-8"?>
<svg version="1.1" xmlns="http://www.w3.org/2000/svg" viewBox="0 0 512 341.33">
<rect y="0" fill="#0052B4" width="512" height="341.34"/>
<g>
	<polygon fill="#FFFFFF" points="220.72,42.63 228.67,58.74 246.44,61.32 233.58,73.86 236.62,91.56 220.72,83.2 204.82,91.56
		207.85,73.86 194.99,61.32 212.77,58.74 	"/>
	<polygon fill="#FFFFFF" points="291.28,42.57 299.23,58.67 317.01,61.26 304.15,73.79 307.18,91.5 291.28,83.14 275.38,91.5
		278.42,73.79 265.56,61.26 283.33,58.67 	"/>
	<polygon fill="#FFFFFF" points="353.36,53.93 361.31,70.04 379.08,72.62 366.22,85.16 369.26,102.86 353.36,94.51 337.46,102.86
		340.5,85.16 327.63,72.62 345.41,70.04 	"/>
	<polygon fill="#FFFFFF" points="416.37,72.23 424.32,88.34 442.09,90.93 429.23,103.46 432.27,121.17 416.37,112.81 400.47,121.17
		403.5,103.46 390.64,90.93 408.42,88.34 	"/>
	<polygon fill="#FFFFFF" points="158.64,53.93 166.59,70.04 184.37,72.62 171.5,85.16 174.54,102.86 158.64,94.51 142.74,102.86
		145.78,85.16 132.92,72.62 150.69,70.04 	"/>
	<polygon fill="#FFFFFF" points="95.63,72.23 103.58,88.34 121.36,90.93 108.5,103.46 111.53,121.17 95.63,112.81 79.73,121.17
		82.77,103.46 69.91,90.93 87.68,88.34 	"/>
</g>
<path fill="#FFDA44" d="M217.53,259.33l-27.22-13.61l-27.22-54.43h27.22l27.22-27.22l13.61-27.22l27.22-13.61l13.61,13.61l27.22,13.61
	v13.61l13.61,13.61l40.83,27.22L340,245.73l-40.83,40.83l-13.61-27.22l-40.83,27.22v27.22l-13.61-13.61L217.53,259.33z"/>
</svg>
