<?xml version="1.0" encoding="utf-8"?>
<svg version="1.1" xmlns="http://www.w3.org/2000/svg" viewBox="0 0 90 60">
<rect fill="#FFFFFF" width="90" height="60"/>
<path stroke="#7f7f7f" stroke-width="0.25" fill="#ABABAB" d="M75.6,39.6c-1.1,0.7,0,1.8-0.6,1.9c-0.6,0.1-1.5-1.4-0.2-2.5c1.6-1.5,5.8,0,5.9,4.3c0,2.2-0.9,6.8-7.2,6.8
	c-7.6,0-11.4-5.7-11.4-11.4c0-4.8,3.7-13.5,6.5-14.6c3.1-1.2,6.7-3.5,6.8-5c0-0.5-1.4-0.1-3.3,0.9c-3.1,1.7-6.6,2.5-6.6,1.4
	s2.9-3.1,4-4.6c1.2-1.6,0.9-5.5,3-5.5c7.6,0,9.9,7.7,7,11.7c-1.9,2.6,4.3,1,4.3,1s0,5.3-3.2,7.3c-3,1.8-4.8,3.9-4.8,3.9
	s0.2-4.6-0.5-3.9c-0.6,0.7-11.1,4.5-10.3,12c0.3,3,4.5,5.4,8.5,5.2s5.7-2.4,5.8-4.9C79.4,39.7,76.3,39.2,75.6,39.6z"/>
<path stroke="#7f7f7f" stroke-width="0.25" fill="#ABABAB" d="M10.7,43.6c0.1,2.5,1.8,4.7,5.8,4.9s8.2-2.2,8.5-5.2c0.8-7.5-9.7-11.3-10.3-12c-0.7-0.7-0.5,3.9-0.5,3.9
	s-1.8-2.1-4.8-3.9c-3.2-2-3.2-7.3-3.2-7.3s6.2,1.6,4.3-1c-2.9-4-0.6-11.7,7-11.7c2.1,0,1.8,3.9,3,5.5c1.1,1.5,4,3.5,4,4.6
	S21,21.7,17.9,20c-1.9-1-3.3-1.4-3.3-0.9c0.1,1.5,3.7,3.8,6.8,5c2.8,1.1,6.5,9.8,6.5,14.6c0,5.7-3.8,11.4-11.4,11.4
	c-6.3,0-7.2-4.6-7.2-6.8c0.1-4.3,4.3-5.8,5.9-4.3c1.2,1.1,0.4,2.7-0.2,2.5c-0.6-0.1,0.6-1.2-0.6-1.9C13.8,39.2,10.7,39.7,10.7,43.6z
	"/>
<g>
	<path fill="#DE393A" d="M31,28.8c0,0,0,12.1,0,14s2.1,1.6,2.1,1.6s8.2,0,9.3,0c1.2,0,2.6,2.3,2.6,2.3s1.4-2.3,2.5-2.3s9.6,0,9.6,0
		s2,0.2,2-1.8s0-13.9,0-13.9H31z"/>
	<rect x="31" y="13.1" fill="#3951A3" width="28" height="15.7"/>
</g>
<path fill="#FFFFFF" d="M50.1,16.5c-0.4,2.4-2.5,4.2-5.1,4.2c-2.5,0-4.6-1.8-5.1-4.2c-0.5,0.9-0.8,1.9-0.8,3c0,3.3,2.6,5.9,5.9,5.9
	c3.3,0,5.9-2.6,5.9-5.9C50.9,18.4,50.6,17.4,50.1,16.5z"/>
<circle fill="#FEE05F" cx="39.1" cy="36.5" r="3"/>
<circle fill="#FEE05F" cx="50.9" cy="36.5" r="3"/>
</svg>
