<?xml version="1.0" encoding="UTF-8"?>

<svg xmlns="http://www.w3.org/2000/svg" viewBox="0 85.333 512 341.333">
<rect y="85.331" fill="#496E2D" width="512" height="341.337"/>
<path fill="#FF9811" d="M490.668,195.476h-48c0-8.836-7.164-16-16-16s-16,7.164-16,16h-48c0,8.836,7.697,16,16.533,16h-0.533  c0,8.836,7.162,16,16,16c0,8.836,7.162,16,16,16h32c8.836,0,16-7.164,16-16c8.836,0,16-7.164,16-16h-0.533  C482.972,211.476,490.668,204.312,490.668,195.476z"/>
<rect x="341.337" y="255.994" fill="#D80027" width="56.888" height="170.663"/>
<rect x="455.112" y="255.994" fill="#FF9811" width="56.888" height="170.663"/>
<rect x="398.225" y="255.994" width="56.888" height="170.663"/>
</svg>
