<svg width="100" height="100" viewBox="0 0 100 100" fill="none" xmlns="http://www.w3.org/2000/svg">
<g clip-path="url(#clip0_4365_187758)">
<rect width="100" height="100" rx="20" fill="black"/>
<path d="M33.0615 68.7662C39.0984 68.7662 43.552 66.4405 46.1746 63.2735L41.1273 58.9685C39.0984 61.1952 36.5748 62.3334 33.2099 62.3334C26.3812 62.3334 22.1751 57.1871 22.1751 50.8532C22.1751 44.5193 26.3812 39.2741 33.0615 39.2741C36.1789 39.2741 38.7521 40.3627 40.8304 42.54L45.7292 38.2844C42.6118 34.5731 38.7026 32.8412 33.0615 32.8412C22.373 32.8412 15 40.907 15 50.8532C15 60.7499 22.7689 68.7662 33.0615 68.7662ZM58.7836 68.7662C63.3856 68.7662 65.7113 66.8364 67.0968 63.9168V68.1229H73.5792V42.3915H66.9484V46.4492C65.5629 43.6781 63.2371 41.8472 58.7836 41.8472C51.7075 41.8472 46.0664 47.9337 46.0664 55.3562C46.0664 62.7787 51.7075 68.7662 58.7836 68.7662ZM52.7466 55.3067C52.7466 51.2985 55.6167 47.8842 59.8723 47.8842C64.2763 47.8842 67.0968 51.348 67.0968 55.3562C67.0968 59.3644 64.2763 62.7292 59.8723 62.7292C55.6167 62.7292 52.7466 59.2159 52.7466 55.3067ZM77.5483 68.1229H84.2285V32H77.5483V68.1229Z" fill="white"/>
</g>
<defs>
<clipPath id="clip0_4365_187758">
<rect width="100" height="100" fill="white"/>
</clipPath>
</defs>
</svg>
