<svg width="183" height="40" viewBox="0 0 183 40" fill="none" xmlns="http://www.w3.org/2000/svg"><path d="M0 6a6 6 0 0 1 6-6h171a6 6 0 0 1 6 6v28a6 6 0 0 1-6 6H6a6 6 0 0 1-6-6V6Z" fill="url(#55z8apfxva)"/><path d="M50.494 25c3.103 0 4.982-1.919 4.982-5.1 0-3.173-1.88-5.082-4.952-5.082h-3.64V25h3.61Zm-1.456-1.845v-6.492h1.372c1.909 0 2.918.974 2.918 3.236 0 2.272-1.01 3.256-2.923 3.256h-1.367ZM60.51 25.15c1.889 0 3.162-.92 3.46-2.337l-1.959-.129c-.214.582-.76.885-1.466.885-1.06 0-1.73-.7-1.73-1.84v-.004h5.2v-.582c0-2.595-1.571-3.878-3.59-3.878-2.247 0-3.704 1.596-3.704 3.953 0 2.42 1.437 3.932 3.789 3.932Zm-1.696-4.738c.045-.87.707-1.566 1.646-1.566.92 0 1.556.656 1.561 1.566h-3.206Zm6.583 7.453h2.118v-4.087h.064c.294.636.935 1.347 2.168 1.347 1.74 0 3.097-1.377 3.097-3.932 0-2.625-1.417-3.928-3.092-3.928-1.278 0-1.89.76-2.173 1.382h-.094v-1.282h-2.088v10.5Zm2.073-6.682c0-1.362.577-2.232 1.606-2.232 1.049 0 1.606.91 1.606 2.232 0 1.332-.567 2.257-1.606 2.257-1.02 0-1.606-.895-1.606-2.257Zm8.904-6.364h-2.118V25h2.118V14.818Zm5.147 10.331c2.317 0 3.758-1.586 3.758-3.937 0-2.367-1.441-3.948-3.758-3.948s-3.759 1.581-3.759 3.948c0 2.351 1.442 3.937 3.759 3.937Zm.01-1.64c-1.069 0-1.616-.98-1.616-2.312 0-1.333.547-2.317 1.616-2.317 1.049 0 1.596.984 1.596 2.317 0 1.332-.547 2.312-1.596 2.312Zm6.173 4.355c1.576 0 2.412-.806 2.844-2.039l2.968-8.451-2.242-.01-1.596 5.608h-.08l-1.58-5.608H85.79l2.74 7.855-.125.323c-.278.716-.81.75-1.556.522l-.477 1.58c.303.13.795.22 1.332.22Zm13.587-2.715c2.316 0 3.758-1.586 3.758-3.937 0-2.367-1.442-3.948-3.758-3.948-2.317 0-3.759 1.581-3.759 3.948 0 2.351 1.442 3.937 3.759 3.937Zm.009-1.64c-1.068 0-1.615-.98-1.615-2.312 0-1.333.547-2.317 1.615-2.317 1.049 0 1.596.984 1.596 2.317 0 1.332-.547 2.312-1.596 2.312Zm7.244-2.924c.005-.984.592-1.56 1.447-1.56.85 0 1.362.556 1.357 1.49V25h2.118v-4.862c0-1.78-1.044-2.874-2.635-2.874-1.133 0-1.954.557-2.297 1.447h-.089v-1.347h-2.019V25h2.118v-4.415ZM118.416 25h2.153v-3.61h1.571l1.929 3.61h2.376l-2.162-3.957c1.158-.497 1.799-1.507 1.799-2.899 0-2.023-1.337-3.326-3.649-3.326h-4.017V25Zm2.153-5.34v-3.082h1.452c1.242 0 1.844.552 1.844 1.566 0 1.01-.602 1.517-1.834 1.517h-1.462Zm9.172 5.484c1.129 0 1.86-.492 2.233-1.203h.059V25h2.009v-5.15c0-1.82-1.541-2.586-3.242-2.586-1.829 0-3.032.875-3.326 2.267l1.959.16c.144-.508.597-.88 1.357-.88.721 0 1.134.362 1.134.989v.03c0 .492-.522.556-1.849.686-1.512.139-2.869.646-2.869 2.351 0 1.512 1.079 2.277 2.535 2.277Zm.607-1.461c-.651 0-1.119-.304-1.119-.885 0-.597.493-.89 1.238-.995.463-.064 1.218-.174 1.472-.343v.81c0 .801-.661 1.413-1.591 1.413ZM135.685 25h2.118v-7.636h-2.118V25Zm1.064-8.62c.631 0 1.148-.483 1.148-1.075 0-.586-.517-1.069-1.148-1.069-.626 0-1.144.483-1.144 1.07 0 .591.518 1.073 1.144 1.073Zm4.868-1.562h-2.118V25h2.118V14.818ZM144.82 25h2.238l1.312-4.803h.094L149.777 25h2.242l2.073-7.636h-2.137l-1.164 5.1h-.064l-1.253-5.1h-2.103l-1.233 5.13h-.07l-1.183-5.13h-2.143L144.82 25Zm12.58.144c1.128 0 1.859-.492 2.232-1.203h.06V25h2.008v-5.15c0-1.82-1.541-2.586-3.241-2.586-1.83 0-3.033.875-3.326 2.267l1.958.16c.145-.508.597-.88 1.358-.88.721 0 1.133.362 1.133.989v.03c0 .492-.522.556-1.849.686-1.512.139-2.869.646-2.869 2.351 0 1.512 1.079 2.277 2.536 2.277Zm.606-1.461c-.651 0-1.118-.304-1.118-.885 0-.597.492-.89 1.238-.995.462-.064 1.218-.174 1.471-.343v.81c0 .801-.661 1.413-1.591 1.413Zm6.371 4.18c1.576 0 2.412-.805 2.844-2.038l2.968-8.451-2.242-.01-1.596 5.608h-.08l-1.58-5.608h-2.228l2.74 7.855-.125.323c-.278.716-.81.75-1.556.522l-.477 1.58c.303.13.795.22 1.332.22Z" fill="#fff"/><path fill-rule="evenodd" clip-rule="evenodd" d="M13.554 14.105C15.614 10.464 19.516 8 24 8c6.628 0 12 5.373 12 12a11.967 11.967 0 0 1-.61 3.764H12.61a11.896 11.896 0 0 1-.451-1.893l.212 1.008h16.693c1.064 0 1.943-.545 2.35-1.457.444-.994.257-2.03-.396-2.933-.705-.975-1.889-2.343-2.709-2.964-1.51-1.143-3.43-1.31-4.991-1.363l-.449-.016-.13-.006c-.625-.027-.965-.041-4.438-.041v.001s-3.137.002-4.747.005Zm-1.528 5.379c.017-.405.054-.808.111-1.208h9.573V17.06h-9.332a.145.145 0 0 1-.003.012l-.003.01-.214 1.055a12.06 12.06 0 0 1 .797-2.814c1.798-.005 3.645-.01 5.343-.01 3.18 0 3.721.014 4.52.047.217.009.428.015.635.02 2.076.055 3.718.098 6.549 3.758.086.11.172.221.235.346H12.026Zm1.484-5.303c-.205.37-.39.75-.555 1.142h-.01c.166-.393.359-.771.565-1.142Zm.041-.073Zm-1.516 6.593h18.346c-.138.532-.56.96-1.315.96H12.128a12.315 12.315 0 0 1-.093-.96Zm.582 3.079c.138.407.296.808.475 1.199H34.91C33.017 29.119 28.85 32 24 32c-5.305 0-9.798-3.447-11.384-8.22Zm-.607-4.005.01-.158v.763c-.002-.054-.006-.107-.01-.16-.005-.074-.01-.147-.01-.222 0-.075.005-.149.01-.223Z" fill="#fff"/><path fill-rule="evenodd" clip-rule="evenodd" d="M13.554 14.105C15.614 10.464 19.516 8 24 8c6.628 0 12 5.373 12 12a11.967 11.967 0 0 1-.61 3.764H12.61a11.896 11.896 0 0 1-.451-1.893l.212 1.008h16.693c1.064 0 1.943-.545 2.35-1.457.444-.994.257-2.03-.396-2.933-.705-.975-1.889-2.343-2.709-2.964-1.51-1.143-3.43-1.31-4.991-1.363l-.449-.016-.13-.006c-.625-.027-.965-.041-4.438-.041v.001s-3.137.002-4.747.005Zm-1.528 5.379c.017-.405.054-.808.111-1.208h9.573V17.06h-9.332a.145.145 0 0 1-.003.012l-.003.01-.214 1.055a12.06 12.06 0 0 1 .797-2.814c1.798-.005 3.645-.01 5.343-.01 3.18 0 3.721.014 4.52.047.217.009.428.015.635.02 2.076.055 3.718.098 6.549 3.758.086.11.172.221.235.346H12.026Zm1.484-5.303c-.205.37-.39.75-.555 1.142h-.01c.166-.393.359-.771.565-1.142Zm.041-.073Zm-1.516 6.593h18.346c-.138.532-.56.96-1.315.96H12.128a12.315 12.315 0 0 1-.093-.96Zm.582 3.079c.138.407.296.808.475 1.199H34.91C33.017 29.119 28.85 32 24 32c-5.305 0-9.798-3.447-11.384-8.22Zm-.607-4.005.01-.158v.763c-.002-.054-.006-.107-.01-.16-.005-.074-.01-.147-.01-.222 0-.075.005-.149.01-.223Z" fill="url(#7fqr7pmokb)" fill-opacity=".1"/><defs><linearGradient id="55z8apfxva" x1="181" y1="0" x2="26" y2="37.5" gradientUnits="userSpaceOnUse"><stop stop-color="#B63BCE"/><stop offset="1" stop-color="#5016A1"/></linearGradient><linearGradient id="7fqr7pmokb" x1="19.5" y1="32" x2="19.5" y2="8" gradientUnits="userSpaceOnUse"><stop stop-color="#5B1BA7"/><stop offset="1" stop-color="#fff" stop-opacity="0"/></linearGradient></defs></svg>