<svg width="153" height="40" viewBox="0 0 153 40" fill="none" xmlns="http://www.w3.org/2000/svg">
<rect width="153" height="40" fill="#8A05FF"/>
<path d="M17.5001 21L18.2051 21.705L19.5001 20.415V26.5H20.5001V20.415L21.7951 21.705L22.5001 21L20.0001 18.5L17.5001 21Z" fill="white"/>
<path d="M23.7501 23H23.5001V22H23.7501C24.3468 22.0239 24.9286 21.8097 25.3674 21.4047C25.8062 20.9996 26.0662 20.4368 26.0901 19.84C26.1139 19.2433 25.8998 18.6615 25.4947 18.2227C25.0896 17.7838 24.5268 17.5239 23.9301 17.5H23.5001L23.4501 17.09C23.3391 16.2483 22.926 15.4755 22.2876 14.9157C21.6492 14.3559 20.8291 14.0473 19.9801 14.0473C19.131 14.0473 18.3109 14.3559 17.6725 14.9157C17.0341 15.4755 16.621 16.2483 16.5101 17.09L16.5001 17.5H16.0701C15.4733 17.5239 14.9105 17.7838 14.5054 18.2227C14.1003 18.6615 13.8862 19.2433 13.9101 19.84C13.9339 20.4368 14.1939 20.9996 14.6327 21.4047C15.0715 21.8097 15.6533 22.0239 16.2501 22H16.5001V23H16.2501C15.4483 22.995 14.6766 22.6937 14.0835 22.1541C13.4905 21.6145 13.1178 20.8747 13.0371 20.077C12.9565 19.2792 13.1736 18.4798 13.6467 17.8325C14.1198 17.1851 14.8155 16.7355 15.6001 16.57C15.8159 15.5633 16.3705 14.661 17.1712 14.0138C17.9719 13.3665 18.9704 13.0134 20.0001 13.0134C21.0297 13.0134 22.0282 13.3665 22.8289 14.0138C23.6296 14.661 24.1842 15.5633 24.4001 16.57C25.1846 16.7355 25.8803 17.1851 26.3534 17.8325C26.8265 18.4798 27.0436 19.2792 26.963 20.077C26.8823 20.8747 26.5096 21.6145 25.9166 22.1541C25.3235 22.6937 24.5518 22.995 23.7501 23Z" fill="white"/>
<path d="M39.0632 25H35.4372V14.99H39.0632C41.8212 14.99 43.5152 16.782 43.5152 20.002C43.5152 23.222 41.8212 25 39.0632 25ZM36.6972 23.88H39.0632C41.6112 23.88 42.1992 21.962 42.1992 20.002C42.1992 18.042 41.6112 16.11 39.0632 16.11H36.6972V23.88ZM51.4309 21.164C51.4309 21.374 51.4309 21.612 51.4169 21.724H45.8309C45.8589 22.984 46.5589 24.244 48.1409 24.244C49.5409 24.244 50.0729 23.306 50.1989 22.802H51.3329C50.9689 24.132 49.9609 25.21 48.1269 25.21C45.8729 25.21 44.6549 23.586 44.6549 21.416C44.6549 19.134 46.0129 17.65 48.1269 17.65C50.2129 17.65 51.4309 19.078 51.4309 21.164ZM45.8309 20.744H50.2409C50.2409 19.568 49.4009 18.616 48.0709 18.616C46.8389 18.616 45.9009 19.498 45.8309 20.744ZM56.1898 17.664C57.9818 17.664 59.4098 19.078 59.4098 21.43C59.4098 23.782 57.9818 25.196 56.1898 25.196C55.0418 25.196 54.3698 24.692 53.9498 24.076H53.9218V27.478H52.8018V17.86H53.9218V18.742H53.9498C54.3698 18.196 55.0418 17.664 56.1898 17.664ZM56.0778 24.216C57.5478 24.216 58.2338 22.83 58.2338 21.43C58.2338 20.03 57.5478 18.644 56.0778 18.644C54.7478 18.644 53.9218 19.75 53.9218 21.43C53.9218 23.11 54.7478 24.216 56.0778 24.216ZM61.9094 25H60.7894V14.99H61.9094V25ZM66.7855 25.21C64.6015 25.21 63.2855 23.656 63.2855 21.43C63.2855 19.204 64.6015 17.65 66.7855 17.65C68.9555 17.65 70.2715 19.204 70.2715 21.43C70.2715 23.656 68.9555 25.21 66.7855 25.21ZM66.7855 24.23C68.3815 24.23 69.0955 22.956 69.0955 21.43C69.0955 19.904 68.3815 18.63 66.7855 18.63C65.1755 18.63 64.4615 19.904 64.4615 21.43C64.4615 22.956 65.1755 24.23 66.7855 24.23ZM72.202 27.506C71.95 27.506 71.782 27.492 71.46 27.436V26.484C71.698 26.512 71.81 26.526 72.02 26.526C72.608 26.526 73.252 26.162 73.56 24.93L70.662 17.86H71.922L74.12 23.544H74.148L76.248 17.86H77.452L74.568 25.21C73.854 27.016 73.168 27.506 72.202 27.506ZM84.237 17.86V18.84H82.837V23.138C82.837 23.894 83.019 24.09 83.649 24.09C83.887 24.09 83.999 24.076 84.237 24.048V25C83.915 25.056 83.747 25.07 83.495 25.07C82.445 25.07 81.717 24.706 81.717 23.082V18.84H80.667V17.86H81.717V15.48H82.837V17.86H84.237ZM88.5095 25.21C86.3255 25.21 85.0095 23.656 85.0095 21.43C85.0095 19.204 86.3255 17.65 88.5095 17.65C90.6795 17.65 91.9955 19.204 91.9955 21.43C91.9955 23.656 90.6795 25.21 88.5095 25.21ZM88.5095 24.23C90.1055 24.23 90.8195 22.956 90.8195 21.43C90.8195 19.904 90.1055 18.63 88.5095 18.63C86.8995 18.63 86.1855 19.904 86.1855 21.43C86.1855 22.956 86.8995 24.23 88.5095 24.23ZM97.98 25H96.72V14.99H100.738C102.936 14.99 104.084 16.026 104.084 17.874C104.084 19.12 103.314 20.072 102.264 20.324V20.352C104.518 20.786 103.692 24.748 104.224 24.916V25H102.866C102.432 24.58 103.384 20.954 100.85 20.954H97.98V25ZM97.98 19.834H100.444C101.97 19.834 102.824 19.148 102.824 17.902C102.824 16.754 102.18 16.11 100.486 16.11H97.98V19.834ZM111.962 21.164C111.962 21.374 111.962 21.612 111.948 21.724H106.362C106.39 22.984 107.09 24.244 108.672 24.244C110.072 24.244 110.604 23.306 110.73 22.802H111.864C111.5 24.132 110.492 25.21 108.658 25.21C106.404 25.21 105.186 23.586 105.186 21.416C105.186 19.134 106.544 17.65 108.658 17.65C110.744 17.65 111.962 19.078 111.962 21.164ZM106.362 20.744H110.772C110.772 19.568 109.932 18.616 108.602 18.616C107.37 18.616 106.432 19.498 106.362 20.744ZM116.833 17.664C118.135 17.664 119.227 18.378 119.227 20.016V25H118.107V20.296C118.107 19.372 117.673 18.644 116.553 18.644C115.293 18.644 114.453 19.442 114.453 20.548V25H113.333V17.86H114.453V18.714H114.481C114.859 18.21 115.615 17.664 116.833 17.664ZM126.047 18.784V14.99H127.167V25H126.047V24.118H126.019C125.599 24.664 124.927 25.196 123.779 25.196C121.987 25.196 120.559 23.782 120.559 21.43C120.559 19.078 121.987 17.664 123.779 17.664C124.927 17.664 125.599 18.168 126.019 18.784H126.047ZM123.891 24.216C125.221 24.216 126.047 23.11 126.047 21.43C126.047 19.75 125.221 18.644 123.891 18.644C122.421 18.644 121.735 20.03 121.735 21.43C121.735 22.83 122.421 24.216 123.891 24.216ZM135.323 21.164C135.323 21.374 135.323 21.612 135.309 21.724H129.723C129.751 22.984 130.451 24.244 132.033 24.244C133.433 24.244 133.965 23.306 134.091 22.802H135.225C134.861 24.132 133.853 25.21 132.019 25.21C129.765 25.21 128.547 23.586 128.547 21.416C128.547 19.134 129.905 17.65 132.019 17.65C134.105 17.65 135.323 19.078 135.323 21.164ZM129.723 20.744H134.133C134.133 19.568 133.293 18.616 131.963 18.616C130.731 18.616 129.793 19.498 129.723 20.744ZM139.816 17.664C140.082 17.664 140.278 17.678 140.474 17.706V18.826C140.306 18.798 140.18 18.784 140.012 18.784C138.696 18.784 137.814 19.82 137.814 21.192V25H136.694V17.86H137.814V19.274H137.842C138.22 18.336 138.794 17.664 139.816 17.664Z" fill="white"/>
</svg>
