<?xml version="1.0" encoding="utf-8"?>
<!-- Generator: Adobe Illustrator 25.2.1, SVG Export Plug-In . SVG Version: 6.00 Build 0)  -->
<svg version="1.1" id="Layer_1" xmlns="http://www.w3.org/2000/svg" x="0px" y="0px"
     viewBox="0 0 29.2 33" style="enable-background:new 0 0 29.2 33;" xml:space="preserve">
<style type="text/css">
	.st0{fill:#F68D2E;}
</style>
<path class="st0" d="M27.2,18.5c-1.5-0.9-3.3-0.8-4.7,0.2c-0.3,0.2-0.6,0.2-0.9,0l-4.2-2.4c-0.1,0-0.1-0.1,0-0.1c0,0,0,0,0,0
	l4.2-2.4c0.3-0.2,0.7-0.1,0.9,0.1c1.4,1,3.2,1.1,4.7,0.2c1.9-1.2,2.6-3.7,1.5-5.7c-1.1-2.1-3.7-2.8-5.8-1.7
	c-1.5,0.8-2.4,2.4-2.2,4.1c0,0.3-0.1,0.7-0.4,0.8L16,13.9c-0.1,0-0.1,0-0.1,0c0,0,0,0,0-0.1V8.9c0-0.3,0.2-0.6,0.5-0.8
	c2.1-1,3.1-3.5,2.1-5.7S15-0.6,12.8,0.4S9.7,3.9,10.7,6c0.4,0.9,1.2,1.7,2.1,2.1c0.3,0.1,0.5,0.4,0.5,0.8v4.9c0,0.1,0,0.1-0.1,0.1
	c0,0,0,0-0.1,0l-4.2-2.4c-0.3-0.2-0.5-0.5-0.4-0.8C8.7,8.3,7,6.2,4.6,6S0.2,7.6,0,9.9s1.5,4.4,3.9,4.6c1,0.1,2-0.2,2.9-0.8
	c0.3-0.2,0.6-0.2,0.9-0.1l4.2,2.4c0.1,0,0.1,0.1,0,0.1c0,0,0,0,0,0l-4.2,2.4c-0.3,0.2-0.7,0.1-0.9,0c-1.4-1-3.2-1-4.7-0.2
	c-1.9,1.2-2.6,3.7-1.5,5.7c1.1,2.1,3.7,2.8,5.8,1.7c1.5-0.8,2.4-2.4,2.2-4.1c0-0.3,0.1-0.7,0.4-0.8l4.2-2.4c0.1,0,0.1,0,0.1,0
	c0,0,0,0,0,0.1v4.9c0,0.3-0.2,0.6-0.5,0.8c-2.1,1-3.1,3.5-2.1,5.7s3.5,3.1,5.7,2.1c2.1-1,3.1-3.5,2.1-5.7c-0.4-0.9-1.2-1.7-2.1-2.1
	c-0.3-0.1-0.5-0.4-0.5-0.8v-4.9c0-0.1,0-0.1,0.1-0.1c0,0,0,0,0.1,0l4.2,2.4c0.3,0.2,0.5,0.5,0.4,0.8c-0.2,2.3,1.5,4.4,3.9,4.6
	c1.7,0.2,3.3-0.7,4.1-2.2C29.8,22.2,29.1,19.7,27.2,18.5L27.2,18.5z"/>
</svg>
