<svg width="183" height="76" viewBox="0 0 183 76" fill="none" xmlns="http://www.w3.org/2000/svg">
<g clip-path="url(#clip0)">
<path fill-rule="evenodd" clip-rule="evenodd" d="M182.4 39.216C182.4 26.2453 176.117 16.0107 164.109 16.0107C152.051 16.0107 144.755 26.2453 144.755 39.1147C144.755 54.3653 153.368 62.0667 165.731 62.0667C171.76 62.0667 176.32 60.6987 179.765 58.7733V48.64C176.32 50.3627 172.368 51.4267 167.352 51.4267C162.437 51.4267 158.08 49.704 157.523 43.7253H182.299C182.299 43.0667 182.4 40.432 182.4 39.216ZM157.371 34.4027C157.371 28.6773 160.867 26.296 164.059 26.296C167.149 26.296 170.443 28.6773 170.443 34.4027H157.371Z" fill="#635BFF"/>
<path fill-rule="evenodd" clip-rule="evenodd" d="M125.197 16.0107C120.232 16.0107 117.04 18.3413 115.267 19.9627L114.608 16.8213H103.461V75.8987L116.128 73.2134L116.179 58.8747C118.003 60.192 120.688 62.0667 125.147 62.0667C134.216 62.0667 142.475 54.7707 142.475 38.7094C142.424 24.016 134.064 16.0107 125.197 16.0107ZM122.157 50.92C119.168 50.92 117.395 49.856 116.179 48.5387L116.128 29.7413C117.445 28.272 119.269 27.2587 122.157 27.2587C126.768 27.2587 129.96 32.4267 129.96 39.064C129.96 45.8534 126.819 50.92 122.157 50.92Z" fill="#635BFF"/>
<path fill-rule="evenodd" clip-rule="evenodd" d="M86.032 13.0213L98.7493 10.2853V0L86.032 2.68533V13.0213Z" fill="#635BFF"/>
<path d="M98.7493 16.872H86.032V61.2053H98.7493V16.872Z" fill="#635BFF"/>
<path fill-rule="evenodd" clip-rule="evenodd" d="M72.4026 20.6213L71.592 16.872H60.6479V61.2053H73.3146V31.16C76.304 27.2587 81.3706 27.968 82.9413 28.5253V16.872C81.32 16.264 75.3919 15.1493 72.4026 20.6213Z" fill="#635BFF"/>
<path fill-rule="evenodd" clip-rule="evenodd" d="M47.0693 5.87732L34.7067 8.51199L34.656 49.096C34.656 56.5946 40.28 62.1173 47.7787 62.1173C51.9333 62.1173 54.9733 61.3573 56.6453 60.4453V50.16C55.024 50.8187 47.0187 53.1493 47.0187 45.6507V27.664H56.6453V16.872H47.0187L47.0693 5.87732Z" fill="#635BFF"/>
<path fill-rule="evenodd" clip-rule="evenodd" d="M12.8187 29.7413C12.8187 27.7653 14.44 27.0054 17.1253 27.0054C20.976 27.0054 25.84 28.1707 29.6907 30.248V18.3413C25.4853 16.6693 21.3307 16.0107 17.1253 16.0107C6.84 16.0107 0 21.3813 0 30.3493C0 44.3333 19.2533 42.104 19.2533 48.1333C19.2533 50.464 17.2267 51.224 14.3893 51.224C10.184 51.224 4.81333 49.5014 0.557333 47.1707V59.2293C5.26933 61.256 10.032 62.1174 14.3893 62.1174C24.928 62.1174 32.1733 56.8987 32.1733 47.8293C32.1227 32.7307 12.8187 35.416 12.8187 29.7413Z" fill="#635BFF"/>
</g>
<defs>
<clipPath id="clip0">
<rect width="182.4" height="76" fill="white"/>
</clipPath>
</defs>
</svg>
