<svg width="390" height="390" viewBox="0 0 390 390" fill="none" xmlns="http://www.w3.org/2000/svg">
<rect width="390" height="390" rx="60" fill="#4F46E5"/>
<path d="M179.559 284.969C156.31 280.584 138.756 272.318 126.897 260.171C115.243 248.063 111.065 233.265 114.364 215.776L157.19 223.855C154.047 240.518 163.386 250.908 185.207 255.024C194.792 256.832 202.523 256.155 208.399 252.992C214.48 249.868 218.096 245.253 219.247 239.149C220.834 230.734 218.801 223.602 213.146 217.751C207.523 211.736 199.291 207.791 188.451 205.917L166.685 202.068L172.054 173.607L193.773 177.704C204.378 179.705 213.097 179.385 219.931 176.744C226.765 174.103 230.851 169.236 232.189 162.141C233.372 155.872 231.889 150.296 227.742 145.413C223.829 140.403 217.183 137.014 207.801 135.244C198.013 133.398 189.889 133.916 183.432 136.798C177.21 139.554 173.399 144.645 171.998 152.069L130.701 144.279C133.813 127.78 142.767 116.142 157.562 109.365C172.592 102.461 191.221 101.106 213.45 105.299C227.93 108.031 239.95 112.604 249.51 119.021C259.306 125.311 266.241 132.77 270.315 141.398C274.39 150.026 275.54 159.042 273.767 168.446C270.499 185.77 259.748 196.3 241.514 200.037C258.751 211.66 265.394 227.948 261.441 248.902C259.667 258.306 255.209 266.264 248.068 272.776C240.957 279.124 231.475 283.486 219.622 285.863C208.004 288.114 194.65 287.816 179.559 284.969Z" fill="white"/>
<path fill-rule="evenodd" clip-rule="evenodd" d="M230.875 87.5969L201.204 82L193.942 120.498H201.338C209.298 120.498 216.895 122.048 223.846 124.862L230.875 87.5969ZM194.674 279.51H186.596C178.878 279.51 171.5 278.053 164.723 275.398L159.669 302.187L189.341 307.784L194.674 279.51Z" fill="white"/>
</svg>
