<svg xmlns="http://www.w3.org/2000/svg" width="64" height="64"><path d="M63.207 26.418H44.432l13.193-13.193c-1.015-1.522-2.03-2.537-3.045-4.06a29.025 29.025 0 0 1-4.059-3.552L37.33 18.807V.54a17.252 17.252 0 0 0-5.074-.507A15.629 15.629 0 0 0 27.18.54v18.775l-13.7-13.7A13.7 13.7 0 0 0 9.42 9.166c-1.015 1.522-2.537 2.537-3.552 4.06L19.06 26.418H.794l-.507 5.074a15.629 15.629 0 0 0 .507 5.074H19.57l-13.7 13.7a27.198 27.198 0 0 0 7.611 7.611l13.193-13.193V63.46a17.252 17.252 0 0 0 5.074.507 15.629 15.629 0 0 0 5.074-.507V44.686L50.014 57.88a13.7 13.7 0 0 0 4.059-3.552 29.025 29.025 0 0 0 3.552-4.059L44.432 37.074h18.775A17.252 17.252 0 0 0 63.715 32a19.028 19.028 0 0 0-.507-5.582zm-23.342 5.074a25.726 25.726 0 0 1-1.015 6.597 15.223 15.223 0 0 1-6.597 1.015 25.726 25.726 0 0 1-6.597-1.015 15.223 15.223 0 0 1-1.015-6.597 25.726 25.726 0 0 1 1.015-6.597 15.223 15.223 0 0 1 6.597-1.015 25.726 25.726 0 0 1 6.597 1.015 29.684 29.684 0 0 1 1.015 6.597z" fill="#ff4a00"/></svg>