<svg width="55" height="48" xmlns="http://www.w3.org/2000/svg" viewBox="4 8 55 48">
  <path d="M55.50977,8h-12.207A3.48835,3.48835,0,0,0,40.835,9.02246L12.02246,37.835A3.48835,3.48835,0,0,0,11,40.30273v12.207A3.49006,3.49006,0,0,0,14.49023,56h12.207A3.48835,3.48835,0,0,0,29.165,54.97754L57.978,26.165A3.48994,3.48994,0,0,0,59,23.69727v-12.207A3.49007,3.49007,0,0,0,55.50977,8Z" fill="#28a8ea"/>
  <path d="M55.51,56H43.30275a3.49,3.49,0,0,1-2.4678-1.0222L35,49.14286V38.24A6.24,6.24,0,0,1,41.24,32H52.14286L57.9778,37.835A3.49,3.49,0,0,1,59,40.30275V52.51A3.49,3.49,0,0,1,55.51,56Z" fill="#0078d4"/>
  <path d="M14.49,8H26.69725a3.49,3.49,0,0,1,2.4678,1.0222L35,14.85714V25.76A6.24,6.24,0,0,1,28.76,32H17.85714L12.0222,26.16505A3.49,3.49,0,0,1,11,23.69725V11.49A3.49,3.49,0,0,1,14.49,8Z" fill="#50d9ff"/>
  <path d="M33,20.33008V46.66992a1.73444,1.73444,0,0,1-.04.3999A2.31378,2.31378,0,0,1,30.66992,49H11V18H30.66992A2.326,2.326,0,0,1,33,20.33008Z" opacity="0.2"/>
  <path d="M34,20.33008V44.66992A3.36171,3.36171,0,0,1,30.66992,48H11V17H30.66992A3.34177,3.34177,0,0,1,34,20.33008Z" opacity="0.1"/>
  <path d="M33,20.33008V44.66992A2.326,2.326,0,0,1,30.66992,47H11V18H30.66992A2.326,2.326,0,0,1,33,20.33008Z" opacity="0.2"/>
  <path d="M32,20.33008V44.66992A2.326,2.326,0,0,1,29.66992,47H11V18H29.66992A2.326,2.326,0,0,1,32,20.33008Z" opacity="0.1"/>
  <rect x="4.00022" y="18" width="28" height="28" rx="2.33333" fill="#0078d4"/>
  <path d="M22.58533,26.88121h-6.5472V30.7098h6.14535v2.45375H16.03813V37.1401h6.89609v2.4434h-9.868V24.4165h9.5191Z" fill="#fff"/>
</svg>