<svg width="367" height="200" viewBox="0 0 367 200" fill="none" xmlns="http://www.w3.org/2000/svg">
<g filter="url(#filter0_ddd_2547_723)">
<g clip-path="url(#clip0_2547_723)">
<rect x="75" y="37" width="230" height="123.217" rx="8.07018" fill="white"/>
<rect x="80.665" y="42.665" width="3.54072" height="3.54072" rx="1.77036" fill="#CBD3D6"/>
<rect x="87.0383" y="42.665" width="3.54072" height="3.54072" rx="1.77036" fill="#CBD3D6"/>
<rect x="93.4116" y="42.665" width="3.54072" height="3.54072" rx="1.77036" fill="#CBD3D6"/>
<path d="M74.6667 52H304.667" stroke="#F2F2F3" stroke-width="0.708145"/>
</g>
</g>
<g filter="url(#filter1_i_2547_723)">
<path d="M128.5 14C128.5 6.54416 134.544 0.5 142 0.5H238C245.456 0.5 251.5 6.54416 251.5 14V14C251.5 21.4558 245.456 27.5 238 27.5H142C134.544 27.5 128.5 21.4558 128.5 14V14Z" fill="white"/>
<path d="M142 1H238C245.18 1 251 6.8203 251 14C251 21.1797 245.18 27 238 27H142C134.82 27 129 21.1797 129 14C129 6.8203 134.82 1 142 1Z" stroke="url(#paint0_linear_2547_723)"/>
<path d="M143.261 18.6449C142.847 18.6449 142.472 18.5682 142.136 18.4148C141.801 18.2585 141.536 18.0327 141.339 17.7372C141.146 17.4418 141.05 17.0795 141.05 16.6506C141.05 16.2812 141.121 15.9773 141.263 15.7386C141.405 15.5 141.597 15.3111 141.838 15.1719C142.08 15.0327 142.349 14.9276 142.648 14.8565C142.946 14.7855 143.25 14.7315 143.56 14.6946C143.952 14.6491 144.27 14.6122 144.514 14.5838C144.759 14.5526 144.936 14.5028 145.047 14.4347C145.158 14.3665 145.213 14.2557 145.213 14.1023V14.0724C145.213 13.7003 145.108 13.4119 144.898 13.2074C144.69 13.0028 144.381 12.9006 143.969 12.9006C143.54 12.9006 143.202 12.9957 142.955 13.1861C142.71 13.3736 142.541 13.5824 142.447 13.8125L141.25 13.5398C141.392 13.142 141.599 12.821 141.872 12.5767C142.148 12.3295 142.464 12.1506 142.822 12.0398C143.18 11.9261 143.557 11.8693 143.952 11.8693C144.213 11.8693 144.49 11.9006 144.783 11.9631C145.078 12.0227 145.354 12.1335 145.609 12.2955C145.868 12.4574 146.08 12.6889 146.244 12.9901C146.409 13.2884 146.491 13.6761 146.491 14.1534V18.5H145.247V17.6051H145.196C145.114 17.7699 144.99 17.9318 144.825 18.0909C144.661 18.25 144.449 18.3821 144.19 18.4872C143.932 18.5923 143.622 18.6449 143.261 18.6449ZM143.538 17.6222C143.891 17.6222 144.192 17.5526 144.442 17.4134C144.695 17.2741 144.886 17.0923 145.017 16.8679C145.151 16.6406 145.217 16.3977 145.217 16.1392V15.2955C145.172 15.3409 145.084 15.3835 144.953 15.4233C144.825 15.4602 144.679 15.4929 144.514 15.5213C144.349 15.5469 144.189 15.571 144.033 15.5937C143.876 15.6136 143.746 15.6307 143.641 15.6449C143.393 15.6761 143.168 15.7287 142.963 15.8026C142.761 15.8764 142.599 15.983 142.477 16.1222C142.358 16.2585 142.298 16.4403 142.298 16.6676C142.298 16.983 142.415 17.2216 142.648 17.3835C142.881 17.5426 143.178 17.6222 143.538 17.6222ZM149.463 14.6136V18.5H148.189V11.9545H149.412V13.0199H149.493C149.643 12.6733 149.879 12.3949 150.2 12.1847C150.524 11.9744 150.931 11.8693 151.423 11.8693C151.869 11.8693 152.26 11.9631 152.595 12.1506C152.93 12.3352 153.19 12.6108 153.375 12.9773C153.559 13.3437 153.652 13.7969 153.652 14.3366V18.5H152.377V14.4901C152.377 14.0156 152.254 13.6449 152.007 13.3778C151.76 13.108 151.42 12.973 150.988 12.973C150.693 12.973 150.43 13.0369 150.2 13.1648C149.973 13.2926 149.792 13.4801 149.659 13.7273C149.528 13.9716 149.463 14.267 149.463 14.6136ZM156.635 14.6136V18.5H155.36V11.9545H156.583V13.0199H156.664C156.815 12.6733 157.051 12.3949 157.372 12.1847C157.696 11.9744 158.103 11.8693 158.595 11.8693C159.041 11.8693 159.431 11.9631 159.767 12.1506C160.102 12.3352 160.362 12.6108 160.547 12.9773C160.731 13.3437 160.824 13.7969 160.824 14.3366V18.5H159.549V14.4901C159.549 14.0156 159.426 13.6449 159.179 13.3778C158.931 13.108 158.592 12.973 158.16 12.973C157.865 12.973 157.602 13.0369 157.372 13.1648C157.145 13.2926 156.964 13.4801 156.831 13.7273C156.7 13.9716 156.635 14.267 156.635 14.6136ZM164.437 18.6449C164.022 18.6449 163.647 18.5682 163.312 18.4148C162.977 18.2585 162.711 18.0327 162.515 17.7372C162.322 17.4418 162.225 17.0795 162.225 16.6506C162.225 16.2812 162.297 15.9773 162.439 15.7386C162.581 15.5 162.772 15.3111 163.014 15.1719C163.255 15.0327 163.525 14.9276 163.824 14.8565C164.122 14.7855 164.426 14.7315 164.735 14.6946C165.127 14.6491 165.446 14.6122 165.69 14.5838C165.934 14.5526 166.112 14.5028 166.223 14.4347C166.333 14.3665 166.389 14.2557 166.389 14.1023V14.0724C166.389 13.7003 166.284 13.4119 166.074 13.2074C165.866 13.0028 165.556 12.9006 165.145 12.9006C164.716 12.9006 164.377 12.9957 164.13 13.1861C163.886 13.3736 163.717 13.5824 163.623 13.8125L162.426 13.5398C162.568 13.142 162.775 12.821 163.048 12.5767C163.324 12.3295 163.64 12.1506 163.998 12.0398C164.356 11.9261 164.733 11.8693 165.127 11.8693C165.389 11.8693 165.666 11.9006 165.958 11.9631C166.254 12.0227 166.529 12.1335 166.785 12.2955C167.044 12.4574 167.255 12.6889 167.42 12.9901C167.585 13.2884 167.667 13.6761 167.667 14.1534V18.5H166.423V17.6051H166.372C166.289 17.7699 166.166 17.9318 166.001 18.0909C165.836 18.25 165.625 18.3821 165.366 18.4872C165.108 18.5923 164.798 18.6449 164.437 18.6449ZM164.714 17.6222C165.066 17.6222 165.368 17.5526 165.618 17.4134C165.87 17.2741 166.062 17.0923 166.193 16.8679C166.326 16.6406 166.393 16.3977 166.393 16.1392V15.2955C166.348 15.3409 166.26 15.3835 166.129 15.4233C166.001 15.4602 165.855 15.4929 165.69 15.5213C165.525 15.5469 165.365 15.571 165.208 15.5937C165.052 15.6136 164.922 15.6307 164.816 15.6449C164.569 15.6761 164.343 15.7287 164.139 15.8026C163.937 15.8764 163.775 15.983 163.653 16.1222C163.534 16.2585 163.474 16.4403 163.474 16.6676C163.474 16.983 163.591 17.2216 163.824 17.3835C164.056 17.5426 164.353 17.6222 164.714 17.6222ZM174.619 20.8736C173.738 20.8736 172.957 20.7528 172.275 20.5114C171.596 20.2727 171.023 19.9205 170.558 19.4545C170.092 18.9915 169.738 18.4233 169.496 17.75C169.255 17.0767 169.134 16.3082 169.134 15.4446C169.134 14.6037 169.256 13.848 169.501 13.1776C169.745 12.5071 170.1 11.9361 170.566 11.4645C171.035 10.9901 171.604 10.6278 172.275 10.3778C172.945 10.1278 173.707 10.0028 174.559 10.0028C175.374 10.0028 176.093 10.1307 176.715 10.3864C177.337 10.642 177.86 10.9929 178.283 11.4389C178.71 11.8849 179.031 12.3963 179.246 12.973C179.462 13.5497 179.57 14.1591 179.57 14.8011C179.57 15.25 179.542 15.6889 179.485 16.1179C179.428 16.544 179.323 16.9304 179.17 17.277C179.019 17.6207 178.8 17.8963 178.513 18.1037C178.229 18.3082 177.86 18.4148 177.406 18.4233C177.164 18.4318 176.93 18.4034 176.702 18.3381C176.475 18.2727 176.282 18.1676 176.123 18.0227C175.964 17.875 175.867 17.6875 175.833 17.4602H175.782C175.714 17.6278 175.6 17.7841 175.441 17.929C175.282 18.071 175.079 18.1847 174.832 18.2699C174.587 18.3523 174.303 18.3864 173.979 18.3722C173.621 18.358 173.299 18.277 173.012 18.1293C172.725 17.9815 172.479 17.777 172.275 17.5156C172.073 17.2543 171.918 16.9446 171.81 16.5866C171.702 16.2287 171.648 15.831 171.648 15.3935C171.648 14.973 171.71 14.5966 171.832 14.2642C171.954 13.929 172.12 13.6406 172.33 13.3991C172.543 13.1548 172.788 12.9616 173.063 12.8196C173.339 12.6776 173.63 12.5881 173.937 12.5511C174.235 12.517 174.509 12.5256 174.759 12.5767C175.009 12.6278 175.217 12.706 175.381 12.8111C175.549 12.9162 175.654 13.0312 175.697 13.1562H175.752V12.679H176.8V16.6335C176.8 16.858 176.859 17.0483 176.975 17.2045C177.094 17.3608 177.263 17.4389 177.482 17.4389C177.741 17.4389 177.942 17.3437 178.087 17.1534C178.235 16.9631 178.339 16.6705 178.398 16.2756C178.461 15.8807 178.492 15.375 178.492 14.7585C178.492 14.3267 178.434 13.9205 178.317 13.5398C178.204 13.1562 178.035 12.8097 177.81 12.5C177.589 12.1875 177.316 11.919 176.992 11.6946C176.668 11.4702 176.299 11.2969 175.884 11.1747C175.472 11.0526 175.016 10.9915 174.516 10.9915C173.837 10.9915 173.234 11.0966 172.705 11.3068C172.177 11.5142 171.731 11.8139 171.367 12.206C171.006 12.598 170.732 13.0682 170.545 13.6165C170.36 14.1619 170.268 14.7741 170.268 15.4531C170.268 16.1605 170.363 16.7884 170.553 17.3366C170.744 17.8821 171.025 18.3423 171.397 18.7173C171.769 19.0923 172.229 19.3764 172.778 19.5696C173.326 19.7656 173.958 19.8636 174.674 19.8636C174.992 19.8636 175.305 19.8352 175.612 19.7784C175.918 19.7244 176.191 19.6619 176.43 19.5909C176.671 19.5227 176.852 19.4673 176.971 19.4247L177.269 20.358C177.093 20.4403 176.859 20.5213 176.566 20.6009C176.276 20.6804 175.961 20.7457 175.62 20.7969C175.282 20.848 174.948 20.8736 174.619 20.8736ZM174.227 17.3281C174.596 17.3281 174.893 17.2543 175.117 17.1065C175.344 16.9588 175.508 16.7386 175.607 16.446C175.71 16.1506 175.761 15.7812 175.761 15.3381C175.758 14.9062 175.702 14.5625 175.594 14.3068C175.489 14.0483 175.325 13.8636 175.1 13.7528C174.879 13.6392 174.593 13.5824 174.244 13.5824C173.923 13.5824 173.648 13.6605 173.421 13.8168C173.197 13.973 173.025 14.1847 172.906 14.4517C172.789 14.7187 172.729 15.0156 172.727 15.3423C172.729 15.6861 172.778 16.0099 172.871 16.3139C172.968 16.6151 173.124 16.8594 173.34 17.0469C173.559 17.2344 173.854 17.3281 174.227 17.3281ZM182.882 18.6449C182.468 18.6449 182.093 18.5682 181.757 18.4148C181.422 18.2585 181.157 18.0327 180.961 17.7372C180.767 17.4418 180.671 17.0795 180.671 16.6506C180.671 16.2812 180.742 15.9773 180.884 15.7386C181.026 15.5 181.218 15.3111 181.459 15.1719C181.701 15.0327 181.971 14.9276 182.269 14.8565C182.567 14.7855 182.871 14.7315 183.181 14.6946C183.573 14.6491 183.891 14.6122 184.135 14.5838C184.38 14.5526 184.557 14.5028 184.668 14.4347C184.779 14.3665 184.834 14.2557 184.834 14.1023V14.0724C184.834 13.7003 184.729 13.4119 184.519 13.2074C184.311 13.0028 184.002 12.9006 183.59 12.9006C183.161 12.9006 182.823 12.9957 182.576 13.1861C182.331 13.3736 182.162 13.5824 182.069 13.8125L180.871 13.5398C181.013 13.142 181.221 12.821 181.493 12.5767C181.769 12.3295 182.086 12.1506 182.444 12.0398C182.801 11.9261 183.178 11.8693 183.573 11.8693C183.834 11.8693 184.111 11.9006 184.404 11.9631C184.699 12.0227 184.975 12.1335 185.23 12.2955C185.489 12.4574 185.701 12.6889 185.865 12.9901C186.03 13.2884 186.113 13.6761 186.113 14.1534V18.5H184.868V17.6051H184.817C184.735 17.7699 184.611 17.9318 184.446 18.0909C184.282 18.25 184.07 18.3821 183.811 18.4872C183.553 18.5923 183.243 18.6449 182.882 18.6449ZM183.159 17.6222C183.512 17.6222 183.813 17.5526 184.063 17.4134C184.316 17.2741 184.507 17.0923 184.638 16.8679C184.772 16.6406 184.838 16.3977 184.838 16.1392V15.2955C184.793 15.3409 184.705 15.3835 184.574 15.4233C184.446 15.4602 184.3 15.4929 184.135 15.5213C183.971 15.5469 183.81 15.571 183.654 15.5937C183.498 15.6136 183.367 15.6307 183.262 15.6449C183.015 15.6761 182.789 15.7287 182.584 15.8026C182.382 15.8764 182.221 15.983 182.098 16.1222C181.979 16.2585 181.919 16.4403 181.919 16.6676C181.919 16.983 182.036 17.2216 182.269 17.3835C182.502 17.5426 182.799 17.6222 183.159 17.6222ZM190.567 18.6321C189.933 18.6321 189.388 18.4886 188.93 18.2017C188.476 17.9119 188.126 17.5128 187.882 17.0043C187.638 16.4957 187.516 15.9134 187.516 15.2571C187.516 14.5923 187.641 14.0057 187.891 13.4972C188.141 12.9858 188.493 12.5866 188.947 12.2997C189.402 12.0128 189.937 11.8693 190.554 11.8693C191.051 11.8693 191.494 11.9616 191.884 12.1463C192.273 12.3281 192.587 12.5838 192.825 12.9134C193.067 13.2429 193.21 13.6278 193.256 14.0682H192.016C191.947 13.7614 191.791 13.4972 191.547 13.2756C191.305 13.054 190.982 12.9432 190.575 12.9432C190.22 12.9432 189.909 13.0369 189.642 13.2244C189.378 13.4091 189.172 13.6733 189.024 14.017C188.876 14.358 188.803 14.7614 188.803 15.2273C188.803 15.7045 188.875 16.1165 189.02 16.4631C189.165 16.8097 189.369 17.0781 189.634 17.2685C189.901 17.4588 190.214 17.554 190.575 17.554C190.817 17.554 191.036 17.5099 191.232 17.4219C191.43 17.331 191.597 17.2017 191.73 17.0341C191.866 16.8665 191.962 16.6648 192.016 16.429H193.256C193.21 16.8523 193.072 17.2301 192.842 17.5625C192.612 17.8949 192.304 18.1562 191.918 18.3466C191.534 18.5369 191.084 18.6321 190.567 18.6321ZM194.618 18.5V11.9545H195.841V13.0199H195.922C196.059 12.6591 196.282 12.3778 196.591 12.1761C196.901 11.9716 197.272 11.8693 197.703 11.8693C198.141 11.8693 198.507 11.9716 198.803 12.1761C199.101 12.3807 199.321 12.6619 199.463 13.0199H199.532C199.688 12.6705 199.936 12.392 200.277 12.1847C200.618 11.9744 201.024 11.8693 201.496 11.8693C202.09 11.8693 202.574 12.0554 202.949 12.4276C203.327 12.7997 203.516 13.3608 203.516 14.1108V18.5H202.242V14.2301C202.242 13.7869 202.121 13.4659 201.88 13.267C201.638 13.0682 201.35 12.9687 201.015 12.9687C200.6 12.9687 200.277 13.0966 200.047 13.3523C199.817 13.6051 199.702 13.9304 199.702 14.3281V18.5H198.432V14.1491C198.432 13.794 198.321 13.5085 198.1 13.2926C197.878 13.0767 197.59 12.9687 197.235 12.9687C196.993 12.9687 196.77 13.0327 196.566 13.1605C196.364 13.2855 196.201 13.4602 196.076 13.6847C195.953 13.9091 195.892 14.169 195.892 14.4645V18.5H194.618ZM208.045 18.6321C207.4 18.6321 206.844 18.4943 206.379 18.2187C205.915 17.9403 205.558 17.5497 205.305 17.0469C205.055 16.5412 204.93 15.9489 204.93 15.2699C204.93 14.5994 205.055 14.0085 205.305 13.4972C205.558 12.9858 205.91 12.5866 206.362 12.2997C206.816 12.0128 207.347 11.8693 207.955 11.8693C208.325 11.8693 208.683 11.9304 209.029 12.0526C209.376 12.1747 209.687 12.3665 209.962 12.6278C210.238 12.8892 210.455 13.2287 210.614 13.6463C210.773 14.0611 210.853 14.5653 210.853 15.1591V15.6108H205.65V14.6562H209.604C209.604 14.321 209.536 14.0241 209.4 13.7656C209.263 13.5043 209.072 13.2983 208.825 13.1477C208.58 12.9972 208.293 12.9219 207.964 12.9219C207.606 12.9219 207.293 13.0099 207.026 13.1861C206.762 13.3594 206.558 13.5866 206.413 13.8679C206.271 14.1463 206.2 14.4489 206.2 14.7756V15.5213C206.2 15.9588 206.276 16.331 206.43 16.6378C206.586 16.9446 206.803 17.179 207.082 17.3409C207.36 17.5 207.685 17.5795 208.058 17.5795C208.299 17.5795 208.519 17.5455 208.718 17.4773C208.917 17.4062 209.089 17.3011 209.234 17.1619C209.379 17.0227 209.489 16.8509 209.566 16.6463L210.772 16.8636C210.675 17.2187 210.502 17.5298 210.252 17.7969C210.005 18.0611 209.694 18.267 209.319 18.4148C208.947 18.5597 208.522 18.6321 208.045 18.6321ZM213.106 18.581C212.873 18.581 212.673 18.4986 212.505 18.3338C212.338 18.1662 212.254 17.9645 212.254 17.7287C212.254 17.4957 212.338 17.2969 212.505 17.1321C212.673 16.9645 212.873 16.8807 213.106 16.8807C213.339 16.8807 213.539 16.9645 213.707 17.1321C213.875 17.2969 213.958 17.4957 213.958 17.7287C213.958 17.8849 213.919 18.0284 213.839 18.1591C213.762 18.2869 213.66 18.3892 213.532 18.4659C213.404 18.5426 213.262 18.581 213.106 18.581ZM218.422 18.6321C217.789 18.6321 217.243 18.4886 216.786 18.2017C216.331 17.9119 215.982 17.5128 215.738 17.0043C215.493 16.4957 215.371 15.9134 215.371 15.2571C215.371 14.5923 215.496 14.0057 215.746 13.4972C215.996 12.9858 216.348 12.5866 216.803 12.2997C217.257 12.0128 217.793 11.8693 218.409 11.8693C218.907 11.8693 219.35 11.9616 219.739 12.1463C220.128 12.3281 220.442 12.5838 220.681 12.9134C220.922 13.2429 221.066 13.6278 221.111 14.0682H219.871C219.803 13.7614 219.647 13.4972 219.402 13.2756C219.161 13.054 218.837 12.9432 218.431 12.9432C218.076 12.9432 217.765 13.0369 217.498 13.2244C217.233 13.4091 217.027 13.6733 216.88 14.017C216.732 14.358 216.658 14.7614 216.658 15.2273C216.658 15.7045 216.73 16.1165 216.875 16.4631C217.02 16.8097 217.225 17.0781 217.489 17.2685C217.756 17.4588 218.07 17.554 218.431 17.554C218.672 17.554 218.891 17.5099 219.087 17.4219C219.286 17.331 219.452 17.2017 219.586 17.0341C219.722 16.8665 219.817 16.6648 219.871 16.429H221.111C221.066 16.8523 220.928 17.2301 220.698 17.5625C220.468 17.8949 220.159 18.1562 219.773 18.3466C219.39 18.5369 218.939 18.6321 218.422 18.6321ZM225.231 18.6321C224.617 18.6321 224.082 18.4915 223.624 18.2102C223.167 17.929 222.812 17.5355 222.559 17.0298C222.306 16.5241 222.18 15.9332 222.18 15.2571C222.18 14.5781 222.306 13.9844 222.559 13.4759C222.812 12.9673 223.167 12.5724 223.624 12.2912C224.082 12.0099 224.617 11.8693 225.231 11.8693C225.844 11.8693 226.38 12.0099 226.837 12.2912C227.295 12.5724 227.65 12.9673 227.903 13.4759C228.156 13.9844 228.282 14.5781 228.282 15.2571C228.282 15.9332 228.156 16.5241 227.903 17.0298C227.65 17.5355 227.295 17.929 226.837 18.2102C226.38 18.4915 225.844 18.6321 225.231 18.6321ZM225.235 17.5625C225.633 17.5625 225.962 17.4574 226.224 17.2472C226.485 17.0369 226.678 16.7571 226.803 16.4077C226.931 16.0582 226.995 15.6733 226.995 15.2528C226.995 14.8352 226.931 14.4517 226.803 14.1023C226.678 13.75 226.485 13.4673 226.224 13.2543C225.962 13.0412 225.633 12.9347 225.235 12.9347C224.835 12.9347 224.502 13.0412 224.238 13.2543C223.977 13.4673 223.782 13.75 223.654 14.1023C223.529 14.4517 223.467 14.8352 223.467 15.2528C223.467 15.6733 223.529 16.0582 223.654 16.4077C223.782 16.7571 223.977 17.0369 224.238 17.2472C224.502 17.4574 224.835 17.5625 225.235 17.5625ZM229.704 18.5V11.9545H230.927V13.0199H231.008C231.145 12.6591 231.368 12.3778 231.677 12.1761C231.987 11.9716 232.358 11.8693 232.789 11.8693C233.227 11.8693 233.593 11.9716 233.889 12.1761C234.187 12.3807 234.407 12.6619 234.549 13.0199H234.618C234.774 12.6705 235.022 12.392 235.363 12.1847C235.704 11.9744 236.11 11.8693 236.582 11.8693C237.176 11.8693 237.66 12.0554 238.035 12.4276C238.413 12.7997 238.602 13.3608 238.602 14.1108V18.5H237.328V14.2301C237.328 13.7869 237.207 13.4659 236.966 13.267C236.724 13.0682 236.436 12.9687 236.1 12.9687C235.686 12.9687 235.363 13.0966 235.133 13.3523C234.903 13.6051 234.788 13.9304 234.788 14.3281V18.5H233.518V14.1491C233.518 13.794 233.407 13.5085 233.186 13.2926C232.964 13.0767 232.676 12.9687 232.321 12.9687C232.079 12.9687 231.856 13.0327 231.652 13.1605C231.45 13.2855 231.287 13.4602 231.162 13.6847C231.039 13.9091 230.978 14.169 230.978 14.4645V18.5H229.704Z" fill="#B2B2B2"/>
</g>
<g filter="url(#filter2_i_2547_723)">
<path d="M121 48C121 40.5442 127.044 34.5 134.5 34.5H245.5C252.956 34.5 259 40.5442 259 48V48C259 55.4558 252.956 61.5 245.5 61.5H134.5C127.044 61.5 121 55.4558 121 48V48Z" fill="white"/>
<path d="M134.5 35H245.5C252.68 35 258.5 40.8203 258.5 48C258.5 55.1797 252.68 61 245.5 61H134.5C127.32 61 121.5 55.1797 121.5 48C121.5 40.9326 127.14 35.1821 134.164 35.0039L134.5 35Z" stroke="url(#paint1_linear_2547_723)"/>
<path d="M135.761 52.6449C135.347 52.6449 134.972 52.5682 134.636 52.4148C134.301 52.2585 134.036 52.0327 133.839 51.7372C133.646 51.4418 133.55 51.0795 133.55 50.6506C133.55 50.2812 133.621 49.9773 133.763 49.7386C133.905 49.5 134.097 49.3111 134.338 49.1719C134.58 49.0327 134.849 48.9276 135.148 48.8565C135.446 48.7855 135.75 48.7315 136.06 48.6946C136.452 48.6491 136.77 48.6122 137.014 48.5838C137.259 48.5526 137.436 48.5028 137.547 48.4347C137.658 48.3665 137.713 48.2557 137.713 48.1023V48.0724C137.713 47.7003 137.608 47.4119 137.398 47.2074C137.19 47.0028 136.881 46.9006 136.469 46.9006C136.04 46.9006 135.702 46.9957 135.455 47.1861C135.21 47.3736 135.041 47.5824 134.947 47.8125L133.75 47.5398C133.892 47.142 134.099 46.821 134.372 46.5767C134.648 46.3295 134.964 46.1506 135.322 46.0398C135.68 45.9261 136.057 45.8693 136.452 45.8693C136.713 45.8693 136.99 45.9006 137.283 45.9631C137.578 46.0227 137.854 46.1335 138.109 46.2955C138.368 46.4574 138.58 46.6889 138.744 46.9901C138.909 47.2884 138.991 47.6761 138.991 48.1534V52.5H137.747V51.6051H137.696C137.614 51.7699 137.49 51.9318 137.325 52.0909C137.161 52.25 136.949 52.3821 136.69 52.4872C136.432 52.5923 136.122 52.6449 135.761 52.6449ZM136.038 51.6222C136.391 51.6222 136.692 51.5526 136.942 51.4134C137.195 51.2741 137.386 51.0923 137.517 50.8679C137.651 50.6406 137.717 50.3977 137.717 50.1392V49.2955C137.672 49.3409 137.584 49.3835 137.453 49.4233C137.325 49.4602 137.179 49.4929 137.014 49.5213C136.849 49.5469 136.689 49.571 136.533 49.5937C136.376 49.6136 136.246 49.6307 136.141 49.6449C135.893 49.6761 135.668 49.7287 135.463 49.8026C135.261 49.8764 135.099 49.983 134.977 50.1222C134.858 50.2585 134.798 50.4403 134.798 50.6676C134.798 50.983 134.915 51.2216 135.148 51.3835C135.381 51.5426 135.678 51.6222 136.038 51.6222ZM143.446 52.6321C142.812 52.6321 142.267 52.4886 141.809 52.2017C141.355 51.9119 141.005 51.5128 140.761 51.0043C140.517 50.4957 140.395 49.9134 140.395 49.2571C140.395 48.5923 140.52 48.0057 140.77 47.4972C141.02 46.9858 141.372 46.5866 141.826 46.2997C142.281 46.0128 142.816 45.8693 143.433 45.8693C143.93 45.8693 144.373 45.9616 144.762 46.1463C145.152 46.3281 145.466 46.5838 145.704 46.9134C145.946 47.2429 146.089 47.6278 146.135 48.0682H144.895C144.826 47.7614 144.67 47.4972 144.426 47.2756C144.184 47.054 143.86 46.9432 143.454 46.9432C143.099 46.9432 142.788 47.0369 142.521 47.2244C142.257 47.4091 142.051 47.6733 141.903 48.017C141.755 48.358 141.681 48.7614 141.681 49.2273C141.681 49.7045 141.754 50.1165 141.899 50.4631C142.044 50.8097 142.248 51.0781 142.512 51.2685C142.779 51.4588 143.093 51.554 143.454 51.554C143.696 51.554 143.914 51.5099 144.11 51.4219C144.309 51.331 144.475 51.2017 144.609 51.0341C144.745 50.8665 144.841 50.6648 144.895 50.429H146.135C146.089 50.8523 145.951 51.2301 145.721 51.5625C145.491 51.8949 145.183 52.1562 144.797 52.3466C144.413 52.5369 143.963 52.6321 143.446 52.6321ZM147.497 52.5V45.9545H148.72V47.0199H148.801C148.937 46.6591 149.161 46.3778 149.47 46.1761C149.78 45.9716 150.151 45.8693 150.582 45.8693C151.02 45.8693 151.386 45.9716 151.682 46.1761C151.98 46.3807 152.2 46.6619 152.342 47.0199H152.411C152.567 46.6705 152.815 46.392 153.156 46.1847C153.497 45.9744 153.903 45.8693 154.375 45.8693C154.969 45.8693 155.453 46.0554 155.828 46.4276C156.206 46.7997 156.395 47.3608 156.395 48.1108V52.5H155.121V48.2301C155.121 47.7869 155 47.4659 154.759 47.267C154.517 47.0682 154.229 46.9687 153.893 46.9687C153.479 46.9687 153.156 47.0966 152.926 47.3523C152.696 47.6051 152.581 47.9304 152.581 48.3281V52.5H151.311V48.1491C151.311 47.794 151.2 47.5085 150.979 47.2926C150.757 47.0767 150.469 46.9687 150.114 46.9687C149.872 46.9687 149.649 47.0327 149.445 47.1605C149.243 47.2855 149.08 47.4602 148.955 47.6847C148.832 47.9091 148.771 48.169 148.771 48.4645V52.5H147.497ZM160.924 52.6321C160.279 52.6321 159.723 52.4943 159.257 52.2187C158.794 51.9403 158.436 51.5497 158.184 51.0469C157.934 50.5412 157.809 49.9489 157.809 49.2699C157.809 48.5994 157.934 48.0085 158.184 47.4972C158.436 46.9858 158.789 46.5866 159.24 46.2997C159.695 46.0128 160.226 45.8693 160.834 45.8693C161.203 45.8693 161.561 45.9304 161.908 46.0526C162.255 46.1747 162.566 46.3665 162.841 46.6278C163.117 46.8892 163.334 47.2287 163.493 47.6463C163.652 48.0611 163.732 48.5653 163.732 49.1591V49.6108H158.529V48.6562H162.483C162.483 48.321 162.415 48.0241 162.279 47.7656C162.142 47.5043 161.951 47.2983 161.703 47.1477C161.459 46.9972 161.172 46.9219 160.843 46.9219C160.485 46.9219 160.172 47.0099 159.905 47.1861C159.641 47.3594 159.436 47.5866 159.292 47.8679C159.15 48.1463 159.078 48.4489 159.078 48.7756V49.5213C159.078 49.9588 159.155 50.331 159.309 50.6378C159.465 50.9446 159.682 51.179 159.961 51.3409C160.239 51.5 160.564 51.5795 160.936 51.5795C161.178 51.5795 161.398 51.5455 161.597 51.4773C161.796 51.4062 161.968 51.3011 162.113 51.1619C162.257 51.0227 162.368 50.8509 162.445 50.6463L163.651 50.8636C163.554 51.2187 163.381 51.5298 163.131 51.7969C162.884 52.0611 162.573 52.267 162.198 52.4148C161.826 52.5597 161.401 52.6321 160.924 52.6321ZM165.985 52.581C165.752 52.581 165.552 52.4986 165.384 52.3338C165.217 52.1662 165.133 51.9645 165.133 51.7287C165.133 51.4957 165.217 51.2969 165.384 51.1321C165.552 50.9645 165.752 50.8807 165.985 50.8807C166.218 50.8807 166.418 50.9645 166.586 51.1321C166.754 51.2969 166.837 51.4957 166.837 51.7287C166.837 51.8849 166.798 52.0284 166.718 52.1591C166.641 52.2869 166.539 52.3892 166.411 52.4659C166.283 52.5426 166.141 52.581 165.985 52.581ZM171.301 52.6321C170.668 52.6321 170.122 52.4886 169.665 52.2017C169.21 51.9119 168.861 51.5128 168.616 51.0043C168.372 50.4957 168.25 49.9134 168.25 49.2571C168.25 48.5923 168.375 48.0057 168.625 47.4972C168.875 46.9858 169.227 46.5866 169.682 46.2997C170.136 46.0128 170.672 45.8693 171.288 45.8693C171.786 45.8693 172.229 45.9616 172.618 46.1463C173.007 46.3281 173.321 46.5838 173.56 46.9134C173.801 47.2429 173.945 47.6278 173.99 48.0682H172.75C172.682 47.7614 172.526 47.4972 172.281 47.2756C172.04 47.054 171.716 46.9432 171.31 46.9432C170.955 46.9432 170.643 47.0369 170.376 47.2244C170.112 47.4091 169.906 47.6733 169.759 48.017C169.611 48.358 169.537 48.7614 169.537 49.2273C169.537 49.7045 169.609 50.1165 169.754 50.4631C169.899 50.8097 170.104 51.0781 170.368 51.2685C170.635 51.4588 170.949 51.554 171.31 51.554C171.551 51.554 171.77 51.5099 171.966 51.4219C172.165 51.331 172.331 51.2017 172.464 51.0341C172.601 50.8665 172.696 50.6648 172.75 50.429H173.99C173.945 50.8523 173.807 51.2301 173.577 51.5625C173.347 51.8949 173.038 52.1562 172.652 52.3466C172.268 52.5369 171.818 52.6321 171.301 52.6321ZM177.257 52.6449C176.843 52.6449 176.468 52.5682 176.132 52.4148C175.797 52.2585 175.532 52.0327 175.336 51.7372C175.142 51.4418 175.046 51.0795 175.046 50.6506C175.046 50.2812 175.117 49.9773 175.259 49.7386C175.401 49.5 175.593 49.3111 175.834 49.1719C176.076 49.0327 176.346 48.9276 176.644 48.8565C176.942 48.7855 177.246 48.7315 177.556 48.6946C177.948 48.6491 178.266 48.6122 178.51 48.5838C178.755 48.5526 178.932 48.5028 179.043 48.4347C179.154 48.3665 179.209 48.2557 179.209 48.1023V48.0724C179.209 47.7003 179.104 47.4119 178.894 47.2074C178.686 47.0028 178.377 46.9006 177.965 46.9006C177.536 46.9006 177.198 46.9957 176.951 47.1861C176.706 47.3736 176.537 47.5824 176.444 47.8125L175.246 47.5398C175.388 47.142 175.596 46.821 175.868 46.5767C176.144 46.3295 176.461 46.1506 176.819 46.0398C177.176 45.9261 177.553 45.8693 177.948 45.8693C178.209 45.8693 178.486 45.9006 178.779 45.9631C179.074 46.0227 179.35 46.1335 179.605 46.2955C179.864 46.4574 180.076 46.6889 180.24 46.9901C180.405 47.2884 180.488 47.6761 180.488 48.1534V52.5H179.243V51.6051H179.192C179.11 51.7699 178.986 51.9318 178.821 52.0909C178.657 52.25 178.445 52.3821 178.186 52.4872C177.928 52.5923 177.618 52.6449 177.257 52.6449ZM177.534 51.6222C177.887 51.6222 178.188 51.5526 178.438 51.4134C178.691 51.2741 178.882 51.0923 179.013 50.8679C179.147 50.6406 179.213 50.3977 179.213 50.1392V49.2955C179.168 49.3409 179.08 49.3835 178.949 49.4233C178.821 49.4602 178.675 49.4929 178.51 49.5213C178.346 49.5469 178.185 49.571 178.029 49.5937C177.873 49.6136 177.742 49.6307 177.637 49.6449C177.39 49.6761 177.164 49.7287 176.959 49.8026C176.757 49.8764 176.596 49.983 176.473 50.1222C176.354 50.2585 176.294 50.4403 176.294 50.6676C176.294 50.983 176.411 51.2216 176.644 51.3835C176.877 51.5426 177.174 51.6222 177.534 51.6222ZM183.459 43.7727V52.5H182.185V43.7727H183.459ZM186.012 52.581C185.779 52.581 185.579 52.4986 185.412 52.3338C185.244 52.1662 185.16 51.9645 185.16 51.7287C185.16 51.4957 185.244 51.2969 185.412 51.1321C185.579 50.9645 185.779 50.8807 186.012 50.8807C186.245 50.8807 186.446 50.9645 186.613 51.1321C186.781 51.2969 186.865 51.4957 186.865 51.7287C186.865 51.8849 186.825 52.0284 186.745 52.1591C186.669 52.2869 186.566 52.3892 186.439 52.4659C186.311 52.5426 186.169 52.581 186.012 52.581ZM191.328 52.6321C190.695 52.6321 190.149 52.4886 189.692 52.2017C189.238 51.9119 188.888 51.5128 188.644 51.0043C188.399 50.4957 188.277 49.9134 188.277 49.2571C188.277 48.5923 188.402 48.0057 188.652 47.4972C188.902 46.9858 189.255 46.5866 189.709 46.2997C190.164 46.0128 190.699 45.8693 191.316 45.8693C191.813 45.8693 192.256 45.9616 192.645 46.1463C193.034 46.3281 193.348 46.5838 193.587 46.9134C193.828 47.2429 193.972 47.6278 194.017 48.0682H192.777C192.709 47.7614 192.553 47.4972 192.309 47.2756C192.067 47.054 191.743 46.9432 191.337 46.9432C190.982 46.9432 190.671 47.0369 190.404 47.2244C190.14 47.4091 189.934 47.6733 189.786 48.017C189.638 48.358 189.564 48.7614 189.564 49.2273C189.564 49.7045 189.637 50.1165 189.782 50.4631C189.926 50.8097 190.131 51.0781 190.395 51.2685C190.662 51.4588 190.976 51.554 191.337 51.554C191.578 51.554 191.797 51.5099 191.993 51.4219C192.192 51.331 192.358 51.2017 192.492 51.0341C192.628 50.8665 192.723 50.6648 192.777 50.429H194.017C193.972 50.8523 193.834 51.2301 193.604 51.5625C193.374 51.8949 193.066 52.1562 192.679 52.3466C192.296 52.5369 191.846 52.6321 191.328 52.6321ZM198.137 52.6321C197.523 52.6321 196.988 52.4915 196.531 52.2102C196.073 51.929 195.718 51.5355 195.465 51.0298C195.212 50.5241 195.086 49.9332 195.086 49.2571C195.086 48.5781 195.212 47.9844 195.465 47.4759C195.718 46.9673 196.073 46.5724 196.531 46.2912C196.988 46.0099 197.523 45.8693 198.137 45.8693C198.751 45.8693 199.286 46.0099 199.744 46.2912C200.201 46.5724 200.556 46.9673 200.809 47.4759C201.062 47.9844 201.188 48.5781 201.188 49.2571C201.188 49.9332 201.062 50.5241 200.809 51.0298C200.556 51.5355 200.201 51.929 199.744 52.2102C199.286 52.4915 198.751 52.6321 198.137 52.6321ZM198.141 51.5625C198.539 51.5625 198.869 51.4574 199.13 51.2472C199.391 51.0369 199.585 50.7571 199.71 50.4077C199.837 50.0582 199.901 49.6733 199.901 49.2528C199.901 48.8352 199.837 48.4517 199.71 48.1023C199.585 47.75 199.391 47.4673 199.13 47.2543C198.869 47.0412 198.539 46.9347 198.141 46.9347C197.741 46.9347 197.408 47.0412 197.144 47.2543C196.883 47.4673 196.688 47.75 196.56 48.1023C196.435 48.4517 196.373 48.8352 196.373 49.2528C196.373 49.6733 196.435 50.0582 196.56 50.4077C196.688 50.7571 196.883 51.0369 197.144 51.2472C197.408 51.4574 197.741 51.5625 198.141 51.5625ZM202.61 52.5V45.9545H203.833V47.0199H203.914C204.051 46.6591 204.274 46.3778 204.583 46.1761C204.893 45.9716 205.264 45.8693 205.696 45.8693C206.133 45.8693 206.5 45.9716 206.795 46.1761C207.093 46.3807 207.314 46.6619 207.456 47.0199H207.524C207.68 46.6705 207.929 46.392 208.27 46.1847C208.61 45.9744 209.017 45.8693 209.488 45.8693C210.082 45.8693 210.566 46.0554 210.941 46.4276C211.319 46.7997 211.508 47.3608 211.508 48.1108V52.5H210.234V48.2301C210.234 47.7869 210.113 47.4659 209.872 47.267C209.63 47.0682 209.342 46.9687 209.007 46.9687C208.592 46.9687 208.27 47.0966 208.039 47.3523C207.809 47.6051 207.694 47.9304 207.694 48.3281V52.5H206.424V48.1491C206.424 47.794 206.314 47.5085 206.092 47.2926C205.87 47.0767 205.582 46.9687 205.227 46.9687C204.985 46.9687 204.762 47.0327 204.558 47.1605C204.356 47.2855 204.193 47.4602 204.068 47.6847C203.946 47.9091 203.885 48.169 203.885 48.4645V52.5H202.61ZM216.54 43.3636L213.727 53.8125H212.589L215.402 43.3636H216.54ZM222.527 47.5526L221.372 47.7571C221.324 47.6094 221.247 47.4687 221.142 47.3352C221.04 47.2017 220.901 47.0923 220.724 47.0071C220.548 46.9219 220.328 46.8793 220.064 46.8793C219.703 46.8793 219.402 46.9602 219.161 47.1222C218.919 47.2812 218.798 47.4872 218.798 47.7401C218.798 47.9588 218.879 48.1349 219.041 48.2685C219.203 48.402 219.464 48.5114 219.825 48.5966L220.865 48.8352C221.467 48.9744 221.916 49.1889 222.212 49.4787C222.507 49.7685 222.655 50.1449 222.655 50.608C222.655 51 222.541 51.3494 222.314 51.6562C222.089 51.9602 221.776 52.1989 221.372 52.3722C220.972 52.5455 220.507 52.6321 219.979 52.6321C219.246 52.6321 218.648 52.4759 218.185 52.1634C217.722 51.848 217.437 51.4006 217.332 50.821L218.564 50.6335C218.641 50.9545 218.798 51.1974 219.037 51.3622C219.276 51.5241 219.587 51.6051 219.97 51.6051C220.388 51.6051 220.722 51.5185 220.972 51.3452C221.222 51.169 221.347 50.9545 221.347 50.7017C221.347 50.4972 221.27 50.3253 221.116 50.1861C220.966 50.0469 220.734 49.9418 220.422 49.8707L219.314 49.6278C218.703 49.4886 218.251 49.267 217.959 48.9631C217.669 48.6591 217.524 48.2741 217.524 47.8082C217.524 47.4219 217.632 47.0838 217.848 46.794C218.064 46.5043 218.362 46.2784 218.743 46.1165C219.124 45.9517 219.56 45.8693 220.051 45.8693C220.759 45.8693 221.315 46.0227 221.722 46.3295C222.128 46.6335 222.396 47.0412 222.527 47.5526ZM225.961 52.6449C225.546 52.6449 225.171 52.5682 224.836 52.4148C224.5 52.2585 224.235 52.0327 224.039 51.7372C223.846 51.4418 223.749 51.0795 223.749 50.6506C223.749 50.2812 223.82 49.9773 223.962 49.7386C224.104 49.5 224.296 49.3111 224.537 49.1719C224.779 49.0327 225.049 48.9276 225.347 48.8565C225.645 48.7855 225.949 48.7315 226.259 48.6946C226.651 48.6491 226.969 48.6122 227.213 48.5838C227.458 48.5526 227.635 48.5028 227.746 48.4347C227.857 48.3665 227.912 48.2557 227.912 48.1023V48.0724C227.912 47.7003 227.807 47.4119 227.597 47.2074C227.39 47.0028 227.08 46.9006 226.668 46.9006C226.239 46.9006 225.901 46.9957 225.654 47.1861C225.409 47.3736 225.24 47.5824 225.147 47.8125L223.949 47.5398C224.091 47.142 224.299 46.821 224.571 46.5767C224.847 46.3295 225.164 46.1506 225.522 46.0398C225.88 45.9261 226.256 45.8693 226.651 45.8693C226.912 45.8693 227.189 45.9006 227.482 45.9631C227.777 46.0227 228.053 46.1335 228.309 46.2955C228.567 46.4574 228.779 46.6889 228.944 46.9901C229.108 47.2884 229.191 47.6761 229.191 48.1534V52.5H227.946V51.6051H227.895C227.813 51.7699 227.689 51.9318 227.524 52.0909C227.36 52.25 227.148 52.3821 226.89 52.4872C226.631 52.5923 226.321 52.6449 225.961 52.6449ZM226.238 51.6222C226.59 51.6222 226.891 51.5526 227.141 51.4134C227.394 51.2741 227.586 51.0923 227.716 50.8679C227.85 50.6406 227.917 50.3977 227.917 50.1392V49.2955C227.871 49.3409 227.783 49.3835 227.652 49.4233C227.524 49.4602 227.378 49.4929 227.213 49.5213C227.049 49.5469 226.888 49.571 226.732 49.5937C226.576 49.6136 226.445 49.6307 226.34 49.6449C226.093 49.6761 225.867 49.7287 225.662 49.8026C225.461 49.8764 225.299 49.983 225.176 50.1222C225.057 50.2585 224.998 50.4403 224.998 50.6676C224.998 50.983 225.114 51.2216 225.347 51.3835C225.58 51.5426 225.877 51.6222 226.238 51.6222ZM232.162 43.7727V52.5H230.888V43.7727H232.162ZM236.697 52.6321C236.052 52.6321 235.497 52.4943 235.031 52.2187C234.568 51.9403 234.21 51.5497 233.957 51.0469C233.707 50.5412 233.582 49.9489 233.582 49.2699C233.582 48.5994 233.707 48.0085 233.957 47.4972C234.21 46.9858 234.562 46.5866 235.014 46.2997C235.468 46.0128 236 45.8693 236.608 45.8693C236.977 45.8693 237.335 45.9304 237.681 46.0526C238.028 46.1747 238.339 46.3665 238.615 46.6278C238.89 46.8892 239.108 47.2287 239.267 47.6463C239.426 48.0611 239.505 48.5653 239.505 49.1591V49.6108H234.302V48.6562H238.257C238.257 48.321 238.189 48.0241 238.052 47.7656C237.916 47.5043 237.724 47.2983 237.477 47.1477C237.233 46.9972 236.946 46.9219 236.616 46.9219C236.258 46.9219 235.946 47.0099 235.679 47.1861C235.414 47.3594 235.21 47.5866 235.065 47.8679C234.923 48.1463 234.852 48.4489 234.852 48.7756V49.5213C234.852 49.9588 234.929 50.331 235.082 50.6378C235.238 50.9446 235.456 51.179 235.734 51.3409C236.012 51.5 236.338 51.5795 236.71 51.5795C236.951 51.5795 237.172 51.5455 237.37 51.4773C237.569 51.4062 237.741 51.3011 237.886 51.1619C238.031 51.0227 238.142 50.8509 238.218 50.6463L239.424 50.8636C239.328 51.2187 239.154 51.5298 238.904 51.7969C238.657 52.0611 238.346 52.267 237.971 52.4148C237.599 52.5597 237.174 52.6321 236.697 52.6321ZM245.824 47.5526L244.669 47.7571C244.621 47.6094 244.544 47.4687 244.439 47.3352C244.337 47.2017 244.197 47.0923 244.021 47.0071C243.845 46.9219 243.625 46.8793 243.361 46.8793C243 46.8793 242.699 46.9602 242.457 47.1222C242.216 47.2812 242.095 47.4872 242.095 47.7401C242.095 47.9588 242.176 48.1349 242.338 48.2685C242.5 48.402 242.761 48.5114 243.122 48.5966L244.162 48.8352C244.764 48.9744 245.213 49.1889 245.509 49.4787C245.804 49.7685 245.952 50.1449 245.952 50.608C245.952 51 245.838 51.3494 245.611 51.6562C245.386 51.9602 245.072 52.1989 244.669 52.3722C244.268 52.5455 243.804 52.6321 243.276 52.6321C242.543 52.6321 241.945 52.4759 241.482 52.1634C241.018 51.848 240.734 51.4006 240.629 50.821L241.861 50.6335C241.937 50.9545 242.095 51.1974 242.334 51.3622C242.572 51.5241 242.884 51.6051 243.267 51.6051C243.685 51.6051 244.018 51.5185 244.268 51.3452C244.518 51.169 244.643 50.9545 244.643 50.7017C244.643 50.4972 244.567 50.3253 244.413 50.1861C244.263 50.0469 244.031 49.9418 243.719 49.8707L242.611 49.6278C242 49.4886 241.548 49.267 241.256 48.9631C240.966 48.6591 240.821 48.2741 240.821 47.8082C240.821 47.4219 240.929 47.0838 241.145 46.794C241.361 46.5043 241.659 46.2784 242.04 46.1165C242.42 45.9517 242.857 45.8693 243.348 45.8693C244.055 45.8693 244.612 46.0227 245.018 46.3295C245.425 46.6335 245.693 47.0412 245.824 47.5526Z" fill="#B2B2B2"/>
</g>
<g filter="url(#filter3_i_2547_723)">
<path d="M190.667 21C196.189 21 200.667 25.4772 200.667 31V31C200.667 36.5228 196.189 41 190.667 41V41C185.144 41 180.667 36.5228 180.667 31V31C180.667 25.4772 185.144 21 190.667 21V21Z" fill="white"/>
<path d="M200.167 31C200.167 36.2467 195.913 40.5 190.667 40.5C185.42 40.5 181.167 36.2467 181.167 31C181.167 25.7533 185.42 21.5 190.667 21.5C195.913 21.5 200.167 25.7533 200.167 31Z" stroke="url(#paint2_linear_2547_723)"/>
<path d="M186.009 31.294L186.767 30.527L189.431 33.1903V26.5H190.539V33.1903L193.198 30.527L193.961 31.294L189.985 35.2699L186.009 31.294Z" fill="#B2B2B2"/>
</g>
<defs>
<filter id="filter0_ddd_2547_723" x="69.3348" y="34.1674" width="241.33" height="134.547" filterUnits="userSpaceOnUse" color-interpolation-filters="sRGB">
<feFlood flood-opacity="0" result="BackgroundImageFix"/>
<feColorMatrix in="SourceAlpha" type="matrix" values="0 0 0 0 0 0 0 0 0 0 0 0 0 0 0 0 0 0 127 0" result="hardAlpha"/>
<feMorphology radius="2.83258" operator="erode" in="SourceAlpha" result="effect1_dropShadow_2547_723"/>
<feOffset dy="0.708145"/>
<feGaussianBlur stdDeviation="1.77036"/>
<feComposite in2="hardAlpha" operator="out"/>
<feColorMatrix type="matrix" values="0 0 0 0 0.0745098 0 0 0 0 0.0745098 0 0 0 0 0.0862745 0 0 0 0.7 0"/>
<feBlend mode="normal" in2="BackgroundImageFix" result="effect1_dropShadow_2547_723"/>
<feColorMatrix in="SourceAlpha" type="matrix" values="0 0 0 0 0 0 0 0 0 0 0 0 0 0 0 0 0 0 127 0" result="hardAlpha"/>
<feMorphology radius="0.708145" operator="dilate" in="SourceAlpha" result="effect2_dropShadow_2547_723"/>
<feOffset/>
<feComposite in2="hardAlpha" operator="out"/>
<feColorMatrix type="matrix" values="0 0 0 0 0.133333 0 0 0 0 0.164706 0 0 0 0 0.207843 0 0 0 0.08 0"/>
<feBlend mode="normal" in2="effect1_dropShadow_2547_723" result="effect2_dropShadow_2547_723"/>
<feColorMatrix in="SourceAlpha" type="matrix" values="0 0 0 0 0 0 0 0 0 0 0 0 0 0 0 0 0 0 127 0" result="hardAlpha"/>
<feOffset dy="2.83258"/>
<feGaussianBlur stdDeviation="2.83258"/>
<feComposite in2="hardAlpha" operator="out"/>
<feColorMatrix type="matrix" values="0 0 0 0 0.133333 0 0 0 0 0.164706 0 0 0 0 0.207843 0 0 0 0.05 0"/>
<feBlend mode="normal" in2="effect2_dropShadow_2547_723" result="effect3_dropShadow_2547_723"/>
<feBlend mode="normal" in="SourceGraphic" in2="effect3_dropShadow_2547_723" result="shape"/>
</filter>
<filter id="filter1_i_2547_723" x="128.5" y="-1" width="123" height="28.5" filterUnits="userSpaceOnUse" color-interpolation-filters="sRGB">
<feFlood flood-opacity="0" result="BackgroundImageFix"/>
<feBlend mode="normal" in="SourceGraphic" in2="BackgroundImageFix" result="shape"/>
<feColorMatrix in="SourceAlpha" type="matrix" values="0 0 0 0 0 0 0 0 0 0 0 0 0 0 0 0 0 0 127 0" result="hardAlpha"/>
<feMorphology radius="1" operator="erode" in="SourceAlpha" result="effect1_innerShadow_2547_723"/>
<feOffset dy="-1.5"/>
<feGaussianBlur stdDeviation="2.25"/>
<feComposite in2="hardAlpha" operator="arithmetic" k2="-1" k3="1"/>
<feColorMatrix type="matrix" values="0 0 0 0 0.933333 0 0 0 0 0.933333 0 0 0 0 0.933333 0 0 0 1 0"/>
<feBlend mode="normal" in2="shape" result="effect1_innerShadow_2547_723"/>
</filter>
<filter id="filter2_i_2547_723" x="121" y="33" width="138" height="28.5" filterUnits="userSpaceOnUse" color-interpolation-filters="sRGB">
<feFlood flood-opacity="0" result="BackgroundImageFix"/>
<feBlend mode="normal" in="SourceGraphic" in2="BackgroundImageFix" result="shape"/>
<feColorMatrix in="SourceAlpha" type="matrix" values="0 0 0 0 0 0 0 0 0 0 0 0 0 0 0 0 0 0 127 0" result="hardAlpha"/>
<feMorphology radius="1" operator="erode" in="SourceAlpha" result="effect1_innerShadow_2547_723"/>
<feOffset dy="-1.5"/>
<feGaussianBlur stdDeviation="2.25"/>
<feComposite in2="hardAlpha" operator="arithmetic" k2="-1" k3="1"/>
<feColorMatrix type="matrix" values="0 0 0 0 0.933333 0 0 0 0 0.933333 0 0 0 0 0.933333 0 0 0 1 0"/>
<feBlend mode="normal" in2="shape" result="effect1_innerShadow_2547_723"/>
</filter>
<filter id="filter3_i_2547_723" x="180.667" y="19.5" width="20" height="21.5" filterUnits="userSpaceOnUse" color-interpolation-filters="sRGB">
<feFlood flood-opacity="0" result="BackgroundImageFix"/>
<feBlend mode="normal" in="SourceGraphic" in2="BackgroundImageFix" result="shape"/>
<feColorMatrix in="SourceAlpha" type="matrix" values="0 0 0 0 0 0 0 0 0 0 0 0 0 0 0 0 0 0 127 0" result="hardAlpha"/>
<feMorphology radius="1" operator="erode" in="SourceAlpha" result="effect1_innerShadow_2547_723"/>
<feOffset dy="-1.5"/>
<feGaussianBlur stdDeviation="2.25"/>
<feComposite in2="hardAlpha" operator="arithmetic" k2="-1" k3="1"/>
<feColorMatrix type="matrix" values="0 0 0 0 0.933333 0 0 0 0 0.933333 0 0 0 0 0.933333 0 0 0 1 0"/>
<feBlend mode="normal" in2="shape" result="effect1_innerShadow_2547_723"/>
</filter>
<linearGradient id="paint0_linear_2547_723" x1="190" y1="0.500003" x2="190" y2="27.5" gradientUnits="userSpaceOnUse">
<stop stop-color="#EEEEEE"/>
<stop offset="1" stop-color="#E8E8E8"/>
</linearGradient>
<linearGradient id="paint1_linear_2547_723" x1="190" y1="34.5" x2="190" y2="61.5" gradientUnits="userSpaceOnUse">
<stop stop-color="#EEEEEE"/>
<stop offset="1" stop-color="#E8E8E8"/>
</linearGradient>
<linearGradient id="paint2_linear_2547_723" x1="200.667" y1="31" x2="180.667" y2="31" gradientUnits="userSpaceOnUse">
<stop stop-color="#EEEEEE"/>
<stop offset="1" stop-color="#E8E8E8"/>
</linearGradient>
<clipPath id="clip0_2547_723">
<rect x="75" y="37" width="230" height="123.217" rx="8.07018" fill="white"/>
</clipPath>
</defs>
</svg>
