<svg width="368" height="201" viewBox="0 0 368 201" fill="none" xmlns="http://www.w3.org/2000/svg">
<g filter="url(#filter0_ddd_2547_773)">
<rect x="94.3335" y="6.72607" width="70" height="62" rx="8.07018" fill="white"/>
<path opacity="0.5" d="M106.177 47.7943V36.2715H108.47V47.7943H106.177ZM101.566 43.1749V40.8908H113.089V43.1749H101.566ZM129.579 50.9647C128.357 50.9647 127.277 50.7545 126.34 50.334C125.408 49.9136 124.678 49.334 124.15 48.5954C123.621 47.8568 123.36 47.0158 123.365 46.0727C123.36 45.334 123.51 44.6551 123.817 44.0357C124.13 43.4107 124.553 42.8908 125.087 42.4761C125.621 42.0556 126.218 41.7886 126.877 41.6749V41.5727C126.008 41.3624 125.311 40.8965 124.789 40.1749C124.266 39.4533 124.008 38.6238 124.013 37.6863C124.008 36.7943 124.243 35.9988 124.721 35.2999C125.204 34.5954 125.865 34.0414 126.706 33.638C127.547 33.2346 128.505 33.0329 129.579 33.0329C130.641 33.0329 131.59 33.2374 132.425 33.6465C133.266 34.0499 133.928 34.6039 134.411 35.3085C134.894 36.0073 135.138 36.7999 135.144 37.6863C135.138 38.6238 134.871 39.4533 134.343 40.1749C133.814 40.8965 133.127 41.3624 132.28 41.5727V41.6749C132.934 41.7886 133.522 42.0556 134.044 42.4761C134.573 42.8908 134.993 43.4107 135.306 44.0357C135.624 44.6551 135.786 45.334 135.792 46.0727C135.786 47.0158 135.519 47.8568 134.99 48.5954C134.462 49.334 133.729 49.9136 132.792 50.334C131.86 50.7545 130.789 50.9647 129.579 50.9647ZM129.579 48.8085C130.3 48.8085 130.925 48.6891 131.454 48.4505C131.982 48.2062 132.391 47.8681 132.681 47.4363C132.971 46.9988 133.118 46.4874 133.124 45.9022C133.118 45.2943 132.959 44.7573 132.647 44.2914C132.34 43.8255 131.922 43.459 131.394 43.192C130.865 42.9249 130.26 42.7914 129.579 42.7914C128.891 42.7914 128.28 42.9249 127.746 43.192C127.212 43.459 126.792 43.8255 126.485 44.2914C126.178 44.7573 126.027 45.2943 126.033 45.9022C126.027 46.4874 126.167 46.9988 126.451 47.4363C126.74 47.8681 127.152 48.2062 127.686 48.4505C128.221 48.6891 128.851 48.8085 129.579 48.8085ZM129.579 40.6863C130.158 40.6863 130.672 40.5698 131.121 40.3369C131.57 40.1039 131.922 39.7801 132.178 39.3653C132.439 38.9505 132.573 38.4647 132.579 37.9079C132.573 37.3624 132.442 36.8852 132.186 36.4761C131.936 36.067 131.587 35.7516 131.138 35.5301C130.689 35.3028 130.169 35.1891 129.579 35.1891C128.976 35.1891 128.448 35.3028 127.993 35.5301C127.544 35.7516 127.195 36.067 126.945 36.4761C126.695 36.8852 126.573 37.3624 126.579 37.9079C126.573 38.4647 126.698 38.9505 126.954 39.3653C127.209 39.7801 127.561 40.1039 128.01 40.3369C128.465 40.5698 128.988 40.6863 129.579 40.6863ZM145.535 50.9647C144.757 50.9533 143.99 50.8113 143.234 50.5386C142.484 50.2658 141.802 49.8113 141.189 49.1749C140.575 48.5386 140.083 47.6835 139.714 46.6096C139.351 45.5357 139.169 44.1948 139.169 42.5869C139.169 41.0641 139.319 39.7119 139.62 38.5301C139.927 37.3482 140.368 36.3511 140.941 35.5386C141.515 34.7204 142.208 34.0982 143.021 33.6721C143.833 33.246 144.745 33.0329 145.757 33.0329C146.797 33.0329 147.72 33.2374 148.527 33.6465C149.333 34.0556 149.987 34.621 150.487 35.3426C150.993 36.0641 151.314 36.8852 151.45 37.8056H148.851C148.674 37.0783 148.325 36.4846 147.802 36.0244C147.28 35.5641 146.598 35.334 145.757 35.334C144.478 35.334 143.481 35.8908 142.765 37.0045C142.055 38.1181 141.697 39.6664 141.691 41.6494H141.819C142.12 41.1551 142.49 40.7346 142.927 40.388C143.37 40.0357 143.865 39.7658 144.41 39.5783C144.961 39.3852 145.541 39.2886 146.149 39.2886C147.16 39.2886 148.075 39.5357 148.893 40.0301C149.717 40.5187 150.373 41.1948 150.862 42.0585C151.351 42.9221 151.595 43.9107 151.595 45.0244C151.595 46.138 151.342 47.1465 150.836 48.0499C150.336 48.9533 149.632 49.6693 148.723 50.1977C147.814 50.7204 146.751 50.9761 145.535 50.9647ZM145.527 48.7488C146.197 48.7488 146.797 48.584 147.325 48.2545C147.853 47.9249 148.271 47.4818 148.578 46.9249C148.885 46.3681 149.038 45.746 149.038 45.0585C149.038 44.388 148.887 43.7772 148.586 43.2261C148.291 42.6749 147.882 42.2374 147.359 41.9136C146.842 41.5897 146.251 41.4278 145.586 41.4278C145.081 41.4278 144.612 41.5244 144.18 41.7176C143.754 41.9107 143.379 42.1778 143.055 42.5187C142.731 42.8596 142.476 43.2516 142.288 43.6948C142.106 44.1323 142.015 44.5954 142.015 45.084C142.015 45.7374 142.166 46.3426 142.467 46.8994C142.774 47.4562 143.191 47.9051 143.72 48.246C144.254 48.5812 144.856 48.7488 145.527 48.7488Z" fill="url(#paint0_linear_2547_773)"/>
<path d="M99.3335 16.7261C99.3335 14.5169 101.124 12.7261 103.333 12.7261H136.333C138.543 12.7261 140.333 14.5169 140.333 16.7261V16.7261C140.333 18.9352 138.543 20.7261 136.333 20.7261H103.333C101.124 20.7261 99.3335 18.9352 99.3335 16.7261V16.7261Z" fill="#F7F7F7"/>
<path d="M99.3335 16.7261C99.3335 14.5169 101.124 12.7261 103.333 12.7261H123.333C125.543 12.7261 127.333 14.5169 127.333 16.7261V16.7261C127.333 18.9352 125.543 20.7261 123.333 20.7261H103.333C101.124 20.7261 99.3335 18.9352 99.3335 16.7261V16.7261Z" fill="#F7F7F7"/>
</g>
<g filter="url(#filter1_ddd_2547_773)">
<g clip-path="url(#clip0_2547_773)">
<rect x="174.333" y="6.72607" width="161" height="152" rx="8.07018" fill="white"/>
<g opacity="0.8">
<path d="M184.333 23.2261C184.333 22.9499 184.557 22.7261 184.833 22.7261H324.833C325.11 22.7261 325.333 22.9499 325.333 23.2261V23.2261C325.333 23.5022 325.11 23.7261 324.833 23.7261H184.833C184.557 23.7261 184.333 23.5022 184.333 23.2261V23.2261Z" fill="#EEEEEE"/>
</g>
<g opacity="0.8">
<path d="M184.333 40.2261C184.333 39.9499 184.557 39.7261 184.833 39.7261H324.833C325.11 39.7261 325.333 39.9499 325.333 40.2261V40.2261C325.333 40.5022 325.11 40.7261 324.833 40.7261H184.833C184.557 40.7261 184.333 40.5022 184.333 40.2261V40.2261Z" fill="#EEEEEE"/>
</g>
<g opacity="0.8">
<path d="M184.333 57.2261C184.333 56.9499 184.557 56.7261 184.833 56.7261H324.833C325.11 56.7261 325.333 56.9499 325.333 57.2261V57.2261C325.333 57.5022 325.11 57.7261 324.833 57.7261H184.833C184.557 57.7261 184.333 57.5022 184.333 57.2261V57.2261Z" fill="#EEEEEE"/>
</g>
<g opacity="0.8">
<path d="M184.333 74.2261C184.333 73.9499 184.557 73.7261 184.833 73.7261H324.833C325.11 73.7261 325.333 73.9499 325.333 74.2261V74.2261C325.333 74.5022 325.11 74.7261 324.833 74.7261H184.833C184.557 74.7261 184.333 74.5022 184.333 74.2261V74.2261Z" fill="#EEEEEE"/>
</g>
<g opacity="0.8">
<path d="M184.333 91.2261C184.333 90.9499 184.557 90.7261 184.833 90.7261H324.833C325.11 90.7261 325.333 90.9499 325.333 91.2261V91.2261C325.333 91.5022 325.11 91.7261 324.833 91.7261H184.833C184.557 91.7261 184.333 91.5022 184.333 91.2261V91.2261Z" fill="#EEEEEE"/>
</g>
<g opacity="0.8">
<path d="M184.333 108.226C184.333 107.95 184.557 107.726 184.833 107.726H324.833C325.11 107.726 325.333 107.95 325.333 108.226V108.226C325.333 108.502 325.11 108.726 324.833 108.726H184.833C184.557 108.726 184.333 108.502 184.333 108.226V108.226Z" fill="#EEEEEE"/>
</g>
<g opacity="0.8">
<path d="M184.333 125.226C184.333 124.95 184.557 124.726 184.833 124.726H324.833C325.11 124.726 325.333 124.95 325.333 125.226V125.226C325.333 125.502 325.11 125.726 324.833 125.726H184.833C184.557 125.726 184.333 125.502 184.333 125.226V125.226Z" fill="#EEEEEE"/>
</g>
<g opacity="0.8">
<path d="M184.333 142.226C184.333 141.95 184.557 141.726 184.833 141.726H324.833C325.11 141.726 325.333 141.95 325.333 142.226V142.226C325.333 142.502 325.11 142.726 324.833 142.726H184.833C184.557 142.726 184.333 142.502 184.333 142.226V142.226Z" fill="#EEEEEE"/>
</g>
<path opacity="0.8" d="M184.333 61.9021L200.582 54.0497C202.066 53.3325 203.795 53.3214 205.288 54.0195L226.436 63.9064C229.147 65.1739 232.373 64.0319 233.683 61.3412L253.434 20.7797C254.221 19.1628 255.751 18.0351 257.529 17.7622L273.142 15.3652C275.597 14.9884 277.998 16.3096 278.994 18.585L299.234 64.8418C300.842 68.5151 305.72 69.2752 308.369 66.2648L330.498 41.1134C332.76 38.5418 336.801 38.6528 338.919 41.3447L354.897 61.6524C356.838 64.1196 360.451 64.4551 362.813 62.3875L381.334 46.1768" stroke="#E8E8E8" stroke-width="2" stroke-linecap="round"/>
<path opacity="0.8" d="M184.833 50.2261L195.244 60.4774C196.959 62.1669 199.253 63.1402 201.661 63.1998L215.787 63.5495C220.011 63.6541 223.794 60.9512 225.064 56.9217L235.537 23.688C237.275 18.173 243.502 15.4852 248.707 18.0038L265.513 26.1356C268.229 27.4498 270.157 29.9786 270.706 32.9457L279.4 79.9695C280.23 84.4643 284.151 87.7261 288.722 87.7261H299.877H317.716H335.333" stroke="#D3D3D3" stroke-width="2" stroke-linecap="round"/>
</g>
</g>
<g filter="url(#filter2_dd_2547_773)">
<path d="M147.333 12.7261C147.333 6.09866 152.706 0.726074 159.333 0.726074V0.726074C165.961 0.726074 171.333 6.09866 171.333 12.7261V12.7261C171.333 19.3535 165.961 24.7261 159.333 24.7261V24.7261C152.706 24.7261 147.333 19.3535 147.333 12.7261V12.7261Z" fill="url(#paint1_linear_2547_773)"/>
<path d="M159.333 1.271C165.66 1.271 170.789 6.39941 170.789 12.7261C170.789 19.0527 165.66 24.1812 159.333 24.1812C153.007 24.1812 147.878 19.0527 147.878 12.7261C147.878 6.39941 153.007 1.271 159.333 1.271Z" stroke="url(#paint2_linear_2547_773)" stroke-width="1.08911"/>
<g opacity="0.4" clip-path="url(#clip1_2547_773)">
<path d="M164.833 9.72607L160.083 14.4761L157.583 11.9761L153.833 15.7261M164.833 9.72607H161.833M164.833 9.72607V12.7261" stroke="url(#paint3_linear_2547_773)" stroke-width="1.2" stroke-linecap="round" stroke-linejoin="round"/>
</g>
</g>
<defs>
<filter id="filter0_ddd_2547_773" x="88.6683" y="3.8935" width="81.3303" height="73.3303" filterUnits="userSpaceOnUse" color-interpolation-filters="sRGB">
<feFlood flood-opacity="0" result="BackgroundImageFix"/>
<feColorMatrix in="SourceAlpha" type="matrix" values="0 0 0 0 0 0 0 0 0 0 0 0 0 0 0 0 0 0 127 0" result="hardAlpha"/>
<feMorphology radius="2.83258" operator="erode" in="SourceAlpha" result="effect1_dropShadow_2547_773"/>
<feOffset dy="0.708145"/>
<feGaussianBlur stdDeviation="1.77036"/>
<feComposite in2="hardAlpha" operator="out"/>
<feColorMatrix type="matrix" values="0 0 0 0 0.0745098 0 0 0 0 0.0745098 0 0 0 0 0.0862745 0 0 0 0.7 0"/>
<feBlend mode="normal" in2="BackgroundImageFix" result="effect1_dropShadow_2547_773"/>
<feColorMatrix in="SourceAlpha" type="matrix" values="0 0 0 0 0 0 0 0 0 0 0 0 0 0 0 0 0 0 127 0" result="hardAlpha"/>
<feMorphology radius="1" operator="dilate" in="SourceAlpha" result="effect2_dropShadow_2547_773"/>
<feOffset/>
<feComposite in2="hardAlpha" operator="out"/>
<feColorMatrix type="matrix" values="0 0 0 0 0.133333 0 0 0 0 0.164706 0 0 0 0 0.207843 0 0 0 0.08 0"/>
<feBlend mode="normal" in2="effect1_dropShadow_2547_773" result="effect2_dropShadow_2547_773"/>
<feColorMatrix in="SourceAlpha" type="matrix" values="0 0 0 0 0 0 0 0 0 0 0 0 0 0 0 0 0 0 127 0" result="hardAlpha"/>
<feOffset dy="2.83258"/>
<feGaussianBlur stdDeviation="2.83258"/>
<feComposite in2="hardAlpha" operator="out"/>
<feColorMatrix type="matrix" values="0 0 0 0 0.133333 0 0 0 0 0.164706 0 0 0 0 0.207843 0 0 0 0.05 0"/>
<feBlend mode="normal" in2="effect2_dropShadow_2547_773" result="effect3_dropShadow_2547_773"/>
<feBlend mode="normal" in="SourceGraphic" in2="effect3_dropShadow_2547_773" result="shape"/>
</filter>
<filter id="filter1_ddd_2547_773" x="168.668" y="3.8935" width="172.33" height="163.33" filterUnits="userSpaceOnUse" color-interpolation-filters="sRGB">
<feFlood flood-opacity="0" result="BackgroundImageFix"/>
<feColorMatrix in="SourceAlpha" type="matrix" values="0 0 0 0 0 0 0 0 0 0 0 0 0 0 0 0 0 0 127 0" result="hardAlpha"/>
<feMorphology radius="2.83258" operator="erode" in="SourceAlpha" result="effect1_dropShadow_2547_773"/>
<feOffset dy="0.708145"/>
<feGaussianBlur stdDeviation="1.77036"/>
<feComposite in2="hardAlpha" operator="out"/>
<feColorMatrix type="matrix" values="0 0 0 0 0.0745098 0 0 0 0 0.0745098 0 0 0 0 0.0862745 0 0 0 0.7 0"/>
<feBlend mode="normal" in2="BackgroundImageFix" result="effect1_dropShadow_2547_773"/>
<feColorMatrix in="SourceAlpha" type="matrix" values="0 0 0 0 0 0 0 0 0 0 0 0 0 0 0 0 0 0 127 0" result="hardAlpha"/>
<feMorphology radius="1" operator="dilate" in="SourceAlpha" result="effect2_dropShadow_2547_773"/>
<feOffset/>
<feComposite in2="hardAlpha" operator="out"/>
<feColorMatrix type="matrix" values="0 0 0 0 0.133333 0 0 0 0 0.164706 0 0 0 0 0.207843 0 0 0 0.08 0"/>
<feBlend mode="normal" in2="effect1_dropShadow_2547_773" result="effect2_dropShadow_2547_773"/>
<feColorMatrix in="SourceAlpha" type="matrix" values="0 0 0 0 0 0 0 0 0 0 0 0 0 0 0 0 0 0 127 0" result="hardAlpha"/>
<feOffset dy="2.83258"/>
<feGaussianBlur stdDeviation="2.83258"/>
<feComposite in2="hardAlpha" operator="out"/>
<feColorMatrix type="matrix" values="0 0 0 0 0.133333 0 0 0 0 0.164706 0 0 0 0 0.207843 0 0 0 0.05 0"/>
<feBlend mode="normal" in2="effect2_dropShadow_2547_773" result="effect3_dropShadow_2547_773"/>
<feBlend mode="normal" in="SourceGraphic" in2="effect3_dropShadow_2547_773" result="shape"/>
</filter>
<filter id="filter2_dd_2547_773" x="145.155" y="1.54972e-06" width="28.3564" height="28.3564" filterUnits="userSpaceOnUse" color-interpolation-filters="sRGB">
<feFlood flood-opacity="0" result="BackgroundImageFix"/>
<feColorMatrix in="SourceAlpha" type="matrix" values="0 0 0 0 0 0 0 0 0 0 0 0 0 0 0 0 0 0 127 0" result="hardAlpha"/>
<feMorphology radius="0.726073" operator="erode" in="SourceAlpha" result="effect1_dropShadow_2547_773"/>
<feOffset dy="1.45215"/>
<feGaussianBlur stdDeviation="0.726073"/>
<feColorMatrix type="matrix" values="0 0 0 0 0 0 0 0 0 0 0 0 0 0 0 0 0 0 0.03 0"/>
<feBlend mode="normal" in2="BackgroundImageFix" result="effect1_dropShadow_2547_773"/>
<feColorMatrix in="SourceAlpha" type="matrix" values="0 0 0 0 0 0 0 0 0 0 0 0 0 0 0 0 0 0 127 0" result="hardAlpha"/>
<feOffset dy="1.45215"/>
<feGaussianBlur stdDeviation="1.08911"/>
<feComposite in2="hardAlpha" operator="out"/>
<feColorMatrix type="matrix" values="0 0 0 0 0 0 0 0 0 0 0 0 0 0 0 0 0 0 0.03 0"/>
<feBlend mode="normal" in2="effect1_dropShadow_2547_773" result="effect2_dropShadow_2547_773"/>
<feBlend mode="normal" in="SourceGraphic" in2="effect2_dropShadow_2547_773" result="shape"/>
</filter>
<linearGradient id="paint0_linear_2547_773" x1="126.333" y1="33.7261" x2="126.333" y2="50.7261" gradientUnits="userSpaceOnUse">
<stop stop-color="#B2B2B2"/>
<stop offset="1" stop-color="#6B7280"/>
</linearGradient>
<linearGradient id="paint1_linear_2547_773" x1="159.333" y1="0.726074" x2="159.333" y2="24.7261" gradientUnits="userSpaceOnUse">
<stop offset="0.592418" stop-color="white"/>
<stop offset="1" stop-color="#EEEEEE"/>
</linearGradient>
<linearGradient id="paint2_linear_2547_773" x1="159.333" y1="0.726074" x2="159.333" y2="24.7261" gradientUnits="userSpaceOnUse">
<stop stop-color="#EEEEEE"/>
<stop offset="1" stop-color="#E8E8E8"/>
</linearGradient>
<linearGradient id="paint3_linear_2547_773" x1="159.333" y1="9.72607" x2="159.333" y2="15.7261" gradientUnits="userSpaceOnUse">
<stop stop-color="#B2B2B2"/>
<stop offset="1" stop-color="#6B7280"/>
</linearGradient>
<clipPath id="clip0_2547_773">
<rect x="174.333" y="6.72607" width="161" height="152" rx="8.07018" fill="white"/>
</clipPath>
<clipPath id="clip1_2547_773">
<rect width="12" height="12" fill="white" transform="translate(153.333 6.72607)"/>
</clipPath>
</defs>
</svg>
