<svg width="66" height="66" viewBox="0 0 66 66" fill="none" xmlns="http://www.w3.org/2000/svg">
<g clip-path="url(#clip0_778_8)">
<rect width="66" height="66" rx="7" fill="url(#paint0_linear_778_8)"/>
<path fill-rule="evenodd" clip-rule="evenodd" d="M41.9315 26.149C43.3028 24.7543 45.0227 23.673 46.7193 23.2734L46.6961 23.2655C48.5787 22.8267 50.2288 23.289 51.3599 24.5663C54.0791 27.6456 53.4129 34.9798 49.3921 46.3651C49.1752 46.9841 48.4934 47.3054 47.8814 47.086C47.2694 46.8666 46.9517 46.177 47.1686 45.558C52.2121 31.2814 50.5464 27.2382 49.5935 26.1569C49.0512 25.5457 48.261 25.3576 47.2306 25.6005C45.5882 25.9845 43.7676 27.3871 42.6443 28.9699C44.3099 35.7086 45.5262 43.4267 43.4422 46.4905C42.8844 47.3054 42.1097 47.7833 41.211 47.8774C40.4828 47.9479 39.8166 47.658 39.3207 47.0625C37.1205 44.414 38.2206 34.5646 39.4059 30.2471C39.5609 29.6829 39.801 29.1109 40.1032 28.5546C39.9869 28.1001 39.863 27.63 39.7313 27.1441C37.6318 19.3477 34.1611 13.4239 32.937 13.3847C31.9995 13.9332 29.536 19.2223 35.207 34.8544C35.4239 35.4578 35.1372 36.1317 34.5484 36.3746C33.9596 36.6253 33.2856 36.3589 33.0222 35.7712C27.173 22.8894 24.384 19.1518 23.346 18.0861C22.9353 20.0215 22.7106 25.9375 29.6677 38.8898C29.9698 39.454 29.7838 40.1592 29.2415 40.4884C28.6993 40.8174 27.9943 40.6607 27.6457 40.1279C24.2989 35.0504 19.8519 28.3117 18.0778 26.4781C17.8764 28.3822 18.4652 34.0004 24.5235 43.2856C24.8721 43.8185 24.7404 44.5394 24.2291 44.9155C23.7178 45.2916 22.9973 45.1819 22.61 44.6804C18.2947 39.0936 16.0868 37.7772 15.3198 37.4637C15.4128 38.9368 17.0164 43.7558 20.6809 47.7676C23.1368 50.4553 27.1885 53.4407 32.5651 52.3829C33.2082 52.2575 33.8279 52.6807 33.9519 53.331C34.0759 53.9814 33.6575 54.6082 33.0145 54.7336C32.0848 54.9138 31.1861 55 30.3262 55C23.8572 55 19.3948 50.2751 17.1714 47.2035C14.4754 43.4658 12.2054 37.9417 13.2668 35.9828C13.5844 35.4029 14.1422 35.0425 14.8162 34.9877C15.7459 34.9172 16.8383 35.4422 18.0236 36.3275C15.4205 30.3254 15.3043 26.2666 16.1565 24.6916C16.6213 23.8375 17.2953 23.6808 17.6517 23.6651C18.6434 23.626 19.5033 24.1196 22.3078 27.9983C20.0224 20.8129 20.9365 17.4749 21.4169 16.4014C21.719 15.7119 22.3155 15.3044 22.9973 15.3044L23.0058 15.3045C23.7223 15.3123 25.2615 15.3289 29.6522 23.4458C28.5134 16.2682 29.8149 12.4601 31.8136 11.3082C32.2707 11.0497 33.0145 10.8146 33.9596 11.2142C37.1515 12.5463 40.4208 20.7346 41.9315 26.149ZM41.1104 45.4796C41.2265 45.4405 41.3582 45.3622 41.5132 45.1348V45.1427C41.947 44.5002 43.0007 41.9222 41.1955 33.1541C40.2426 38.2316 40.2426 44.4375 41.1104 45.4796Z" fill="white"/>
</g>
<defs>
<linearGradient id="paint0_linear_778_8" x1="21" y1="54.5" x2="79.5" y2="-13.5" gradientUnits="userSpaceOnUse">
<stop stop-color="#4C28EF"/>
<stop offset="1" stop-color="#4078D9"/>
</linearGradient>
<clipPath id="clip0_778_8">
<rect width="66" height="66" rx="7" fill="white"/>
</clipPath>
</defs>
</svg>
