<svg xmlns="http://www.w3.org/2000/svg" width="533" height="533" fill="none" viewBox="0 0 533 533"><path fill="#292524" d="M533 267c0 206-60 266.001-266.5 266C60 533 0 472 0 266.5S60 0 266.5 0 533 61 533 267z"/><g fill="#fff"><path d="M145.46 401.741c6.407 0 11.057-3.295 20.15-10.503l7.854-6.179-6.407-7.517-18.187 13.49-2.066-.824 5.373-32.54h21.183l1.757-10.297h-21.183l3.1-18.742h-12.091l-2.17 12.975c-.723 4.325-2.686 5.767-6.82 5.767h-9.196L125 357.668h14.157l-4.444 26.67c-.413 2.472-.723 4.325-.723 5.87 0 7.002 3.72 11.533 11.47 11.533zM208.819 401.326c17.257 0 29.554-12.563 29.554-32.849 0-13.799-8.164-22.757-22.32-22.757-17.257 0-29.554 12.563-29.554 32.848 0 13.799 8.163 22.758 22.32 22.758zm.93-9.989c-6.303 0-10.23-3.398-10.23-10.4 0-1.236.207-2.986.517-4.634l1.24-7.311c1.446-8.444 6.2-13.284 13.847-13.284 6.303 0 10.23 3.398 10.23 10.401 0 1.235-.207 2.986-.517 4.633l-1.24 7.312c-1.447 8.443-6.2 13.283-13.847 13.283zM327.986 401.326c6.2 0 11.366-3.295 19.22-11.533l7.646-7.929-7.233-6.488-16.43 15.652-1.86-.618 12.607-66.521h-29.864l-1.757 10.298h16.637l-9.3 49.53c-.62 3.089-.827 4.84-.827 6.693 0 6.591 3.514 10.916 11.161 10.916zM383.48 401.326c15.397 0 25.42-6.9 25.42-18.433 0-9.267-6.407-12.254-14.673-14.004l-7.854-1.648c-3.616-.721-6.096-1.647-6.096-5.251 0-4.325 3.823-6.797 10.436-6.797 6.82 0 11.574 2.678 13.847 5.664l7.44-7.414c-3.72-4.737-11.367-7.723-20.77-7.723-13.537 0-23.767 6.075-23.767 17.814 0 9.577 6.82 12.666 14.777 14.314l7.647 1.544c3.513.721 6.096 1.751 6.096 5.252 0 4.634-4.443 7.208-11.573 7.208-6.82 0-12.4-2.368-15.707-6.796l-7.75 7.208c3.927 5.767 11.987 9.062 22.527 9.062zM272.284 401.326c17.257 0 29.554-12.563 29.554-32.849 0-13.799-8.164-22.757-22.321-22.757-17.256 0-29.553 12.563-29.553 32.848 0 13.799 8.163 22.758 22.32 22.758zm.93-9.989c-6.303 0-10.23-3.398-10.23-10.4 0-1.236.207-2.986.517-4.634l1.24-7.311c1.446-8.444 6.2-13.284 13.846-13.284 6.304 0 10.231 3.398 10.231 10.401 0 1.235-.207 2.986-.517 4.633l-1.24 7.312c-1.447 8.443-6.2 13.283-13.847 13.283zM187.981 290.398c43.792 0 67.773-25.649 67.773-66.521V134h-38.787v90.711c0 18.351-10.427 29.403-28.986 29.403-18.768 0-29.194-11.261-29.194-29.403V134H120v89.877c0 40.872 24.19 66.521 67.981 66.521zM308.871 286.228l29.402-50.256h5.422l31.071 50.256h42.541l-50.673-78.408L412.302 134h-41.289l-25.232 44h-5.422l-26.067-44h-42.54l45.46 72.569-49.631 79.659z"/></g></svg>