<?xml version="1.0" encoding="UTF-8"?><svg id="Layer_2" xmlns="http://www.w3.org/2000/svg" viewBox="0 0 909.13 915.13"><defs><style>.cls-1{fill:#becafc;}.cls-1,.cls-2,.cls-3,.cls-4,.cls-5,.cls-6,.cls-7,.cls-8,.cls-9{stroke-width:0px;}.cls-2{fill:#5263f3;}.cls-10{stroke:#383838;stroke-width:5px;}.cls-10,.cls-11,.cls-12,.cls-13{stroke-miterlimit:10;}.cls-10,.cls-11,.cls-13{fill:none;stroke-linecap:round;}.cls-3{fill:#95a4f9;}.cls-4{fill:#171d26;}.cls-5{fill:#000;}.cls-6{fill:#f6c765;}.cls-11{stroke:#171d26;}.cls-11,.cls-13{stroke-width:2px;}.cls-12{stroke:#e8e8e8;stroke-width:4px;}.cls-12,.cls-9{fill:#fff;}.cls-7{fill:#383838;}.cls-8{fill:#f8c3d3;}.cls-13{stroke:#abb7ff;}</style></defs><g id="Layer_1-2"><rect class="cls-12" x="2" y="4" width="404.13" height="909.13" rx="20.98" ry="20.98"/><path class="cls-4" d="M65.31,75.95c-.45.84-1.16,1.52-2.14,2.05-.98.53-2.24.79-3.77.79h-3.37v7.55h-3.05v-18.6h6.42c1.43,0,2.64.25,3.63.74.99.49,1.73,1.16,2.22,1.99.49.84.74,1.78.74,2.81,0,.95-.22,1.84-.67,2.68ZM61.99,75.5c.57-.53.86-1.27.86-2.23,0-2.03-1.15-3.05-3.45-3.05h-3.37v6.08h3.37c1.16,0,2.02-.26,2.6-.79Z"/><path class="cls-4" d="M82.31,80.09h-11.27c.09,1.18.53,2.12,1.31,2.84.78.71,1.75,1.07,2.89,1.07,1.64,0,2.8-.69,3.48-2.06h3.29c-.45,1.36-1.25,2.47-2.42,3.33s-2.62,1.3-4.35,1.3c-1.41,0-2.67-.32-3.79-.95-1.12-.63-1.99-1.53-2.62-2.68-.63-1.15-.95-2.48-.95-4s.31-2.85.92-4c.62-1.15,1.48-2.04,2.6-2.66s2.4-.94,3.84-.94,2.63.3,3.72.91c1.09.61,1.94,1.46,2.54,2.56.61,1.1.91,2.36.91,3.79,0,.55-.04,1.05-.11,1.5ZM79.23,77.63c-.02-1.12-.42-2.02-1.2-2.7-.79-.68-1.76-1.02-2.92-1.02-1.05,0-1.95.33-2.7,1-.75.67-1.2,1.58-1.34,2.72h8.16Z"/><path class="cls-4" d="M90.24,71.97c.74-.42,1.62-.63,2.64-.63v3.16h-.78c-1.2,0-2.1.3-2.72.91-.62.61-.92,1.66-.92,3.16v7.76h-3.05v-14.75h3.05v2.14c.45-.75,1.04-1.33,1.78-1.75Z"/><path class="cls-4" d="M97.92,85.94c-.92-.42-1.65-.99-2.18-1.71s-.82-1.53-.86-2.42h3.16c.05.62.35,1.15.9,1.57.54.42,1.23.63,2.05.63s1.52-.17,1.99-.5.71-.75.71-1.27c0-.55-.26-.96-.79-1.23-.53-.27-1.36-.56-2.5-.88-1.11-.3-2.01-.6-2.7-.88-.7-.29-1.3-.72-1.81-1.31-.51-.59-.76-1.36-.76-2.33,0-.78.23-1.5.7-2.15.46-.65,1.13-1.16,1.99-1.54.87-.37,1.86-.56,2.98-.56,1.68,0,3.03.42,4.05,1.27,1.03.85,1.57,2,1.65,3.47h-3.05c-.05-.66-.32-1.19-.8-1.58-.48-.39-1.13-.59-1.95-.59s-1.42.15-1.85.46c-.43.3-.64.71-.64,1.2,0,.39.14.72.43.99s.63.48,1.04.63c.41.15,1.02.34,1.82.58,1.07.29,1.95.58,2.64.87.69.29,1.28.73,1.78,1.3.5.57.76,1.33.78,2.28,0,.84-.23,1.59-.7,2.25s-1.12,1.18-1.97,1.55c-.85.38-1.84.56-2.98.56s-2.2-.21-3.12-.63Z"/><path class="cls-4" d="M112.6,85.62c-1.12-.63-2.01-1.53-2.65-2.68-.64-1.15-.96-2.48-.96-4s.33-2.83.99-3.99,1.56-2.05,2.7-2.68c1.14-.62,2.42-.94,3.83-.94s2.69.31,3.83.94,2.04,1.52,2.7,2.68c.66,1.16.99,2.49.99,3.99s-.34,2.83-1.02,3.99c-.68,1.16-1.6,2.06-2.77,2.69-1.17.63-2.46.95-3.87.95s-2.65-.32-3.77-.95ZM118.58,83.36c.69-.37,1.24-.94,1.67-1.69.43-.75.64-1.66.64-2.73s-.21-1.98-.62-2.72c-.41-.74-.96-1.3-1.63-1.67-.68-.37-1.41-.56-2.19-.56s-1.51.19-2.18.56c-.67.38-1.2.93-1.59,1.67-.39.74-.59,1.65-.59,2.72,0,1.59.41,2.81,1.22,3.68.81.87,1.83,1.3,3.06,1.3.79,0,1.52-.19,2.21-.56Z"/><path class="cls-4" d="M137.61,72.07c.92.48,1.64,1.2,2.15,2.14.52.95.78,2.09.78,3.43v8.7h-3.02v-8.24c0-1.32-.33-2.33-.99-3.04-.66-.7-1.56-1.06-2.7-1.06s-2.05.35-2.72,1.06c-.67.7-1,1.72-1,3.04v8.24h-3.05v-14.75h3.05v1.69c.5-.61,1.14-1.08,1.91-1.42.78-.34,1.6-.51,2.47-.51,1.16,0,2.2.24,3.12.72Z"/><path class="cls-4" d="M144.33,74.96c.62-1.14,1.45-2.03,2.52-2.66s2.23-.95,3.52-.95c1.16,0,2.17.23,3.04.68.87.45,1.56,1.02,2.07,1.7v-2.14h3.08v14.75h-3.08v-2.19c-.52.7-1.22,1.28-2.11,1.74-.89.46-1.91.7-3.05.7-1.27,0-2.43-.33-3.48-.98-1.05-.65-1.89-1.56-2.5-2.73-.62-1.17-.92-2.49-.92-3.97s.31-2.79.92-3.93ZM154.85,76.29c-.42-.75-.97-1.32-1.65-1.71-.68-.39-1.41-.59-2.2-.59s-1.52.19-2.2.58c-.68.38-1.23.95-1.65,1.69s-.63,1.62-.63,2.64.21,1.91.63,2.68c.42.77.97,1.35,1.66,1.75.69.4,1.41.6,2.18.6s1.52-.2,2.2-.59c.68-.39,1.23-.97,1.65-1.73.42-.76.63-1.65.63-2.66s-.21-1.9-.63-2.65Z"/><path class="cls-4" d="M165.62,66.53v19.81h-3.05v-19.81h3.05Z"/><path class="cls-4" d="M176.85,72.09c.85-1.45,2-2.57,3.45-3.39,1.45-.81,3.05-1.22,4.78-1.22,1.98,0,3.74.49,5.29,1.46,1.54.97,2.66,2.35,3.36,4.13h-3.67c-.48-.98-1.15-1.71-2.01-2.19-.86-.48-1.85-.72-2.97-.72-1.23,0-2.33.28-3.29.83-.96.55-1.72,1.35-2.26,2.38s-.82,2.24-.82,3.61.27,2.58.82,3.61c.54,1.04,1.3,1.83,2.26,2.4.96.56,2.06.84,3.29.84,1.12,0,2.11-.24,2.97-.72s1.53-1.21,2.01-2.19h3.67c-.7,1.78-1.82,3.16-3.36,4.12-1.54.96-3.3,1.45-5.29,1.45-1.75,0-3.35-.41-4.79-1.22-1.45-.81-2.59-1.94-3.44-3.39s-1.27-3.08-1.27-4.9.42-3.45,1.27-4.9Z"/><path class="cls-4" d="M197.19,74.96c.62-1.14,1.45-2.03,2.52-2.66,1.06-.63,2.23-.95,3.52-.95,1.16,0,2.17.23,3.04.68.87.45,1.56,1.02,2.07,1.7v-2.14h3.08v14.75h-3.08v-2.19c-.52.7-1.22,1.28-2.11,1.74-.89.46-1.91.7-3.05.7-1.27,0-2.43-.33-3.48-.98-1.05-.65-1.89-1.56-2.5-2.73-.62-1.17-.92-2.49-.92-3.97s.31-2.79.92-3.93ZM207.71,76.29c-.42-.75-.97-1.32-1.65-1.71s-1.41-.59-2.19-.59-1.52.19-2.19.58c-.68.38-1.23.95-1.65,1.69s-.63,1.62-.63,2.64.21,1.91.63,2.68c.42.77.97,1.35,1.66,1.75.69.4,1.41.6,2.18.6s1.52-.2,2.19-.59,1.23-.97,1.65-1.73c.42-.76.63-1.65.63-2.66s-.21-1.9-.63-2.65Z"/><path class="cls-4" d="M218.48,66.53v19.81h-3.05v-19.81h3.05Z"/><path class="cls-4" d="M235.9,80.09h-11.27c.09,1.18.53,2.12,1.31,2.84.78.71,1.75,1.07,2.89,1.07,1.64,0,2.8-.69,3.48-2.06h3.29c-.45,1.36-1.25,2.47-2.42,3.33-1.17.87-2.62,1.3-4.35,1.3-1.41,0-2.67-.32-3.79-.95-1.12-.63-1.99-1.53-2.62-2.68-.63-1.15-.95-2.48-.95-4s.31-2.85.92-4c.62-1.15,1.48-2.04,2.6-2.66s2.4-.94,3.84-.94,2.63.3,3.72.91c1.09.61,1.94,1.46,2.54,2.56.61,1.1.91,2.36.91,3.79,0,.55-.04,1.05-.11,1.5ZM232.82,77.63c-.02-1.12-.42-2.02-1.2-2.7-.79-.68-1.76-1.02-2.92-1.02-1.05,0-1.95.33-2.7,1-.75.67-1.2,1.58-1.34,2.72h8.16Z"/><path class="cls-4" d="M249.57,72.07c.92.48,1.64,1.2,2.15,2.14.52.95.78,2.09.78,3.43v8.7h-3.02v-8.24c0-1.32-.33-2.33-.99-3.04-.66-.7-1.56-1.06-2.7-1.06s-2.05.35-2.72,1.06-1,1.72-1,3.04v8.24h-3.05v-14.75h3.05v1.69c.5-.61,1.14-1.08,1.91-1.42.78-.34,1.6-.51,2.48-.51,1.16,0,2.2.24,3.12.72Z"/><path class="cls-4" d="M256.28,74.96c.62-1.14,1.45-2.03,2.52-2.66,1.06-.63,2.24-.95,3.55-.95.96,0,1.91.21,2.85.63.94.42,1.68.98,2.23,1.67v-7.12h3.08v19.81h-3.08v-2.22c-.5.71-1.19,1.3-2.07,1.77-.88.46-1.9.7-3.04.7-1.29,0-2.46-.33-3.52-.98-1.06-.65-1.9-1.56-2.52-2.73-.62-1.17-.92-2.49-.92-3.97s.31-2.79.92-3.93ZM266.8,76.29c-.42-.75-.97-1.32-1.65-1.71-.68-.39-1.41-.59-2.19-.59s-1.52.19-2.2.58c-.68.38-1.23.95-1.65,1.69-.42.74-.63,1.62-.63,2.64s.21,1.91.63,2.68c.42.77.97,1.35,1.66,1.75.69.4,1.41.6,2.18.6s1.52-.2,2.19-.59c.68-.39,1.23-.97,1.65-1.73.42-.76.63-1.65.63-2.66s-.21-1.9-.63-2.65Z"/><path class="cls-4" d="M274.43,74.96c.62-1.14,1.45-2.03,2.52-2.66,1.06-.63,2.23-.95,3.52-.95,1.16,0,2.17.23,3.04.68.87.45,1.56,1.02,2.07,1.7v-2.14h3.08v14.75h-3.08v-2.19c-.52.7-1.22,1.28-2.11,1.74-.89.46-1.91.7-3.05.7-1.27,0-2.43-.33-3.48-.98-1.05-.65-1.89-1.56-2.5-2.73-.62-1.17-.92-2.49-.92-3.97s.31-2.79.92-3.93ZM284.95,76.29c-.42-.75-.97-1.32-1.65-1.71s-1.41-.59-2.19-.59-1.52.19-2.19.58c-.68.38-1.23.95-1.65,1.69s-.63,1.62-.63,2.64.21,1.91.63,2.68c.42.77.97,1.35,1.66,1.75.69.4,1.41.6,2.18.6s1.52-.2,2.19-.59,1.23-.97,1.65-1.73c.42-.76.63-1.65.63-2.66s-.21-1.9-.63-2.65Z"/><path class="cls-4" d="M297.5,71.97c.74-.42,1.62-.63,2.64-.63v3.16h-.78c-1.2,0-2.1.3-2.72.91-.62.61-.92,1.66-.92,3.16v7.76h-3.05v-14.75h3.05v2.14c.45-.75,1.04-1.33,1.78-1.75Z"/><line class="cls-11" x1="50.01" y1="101.19" x2="355.72" y2="101.19"/><line class="cls-13" x1="50.01" y1="195.12" x2="355.72" y2="195.12"/><line class="cls-13" x1="50.01" y1="289.05" x2="355.72" y2="289.05"/><line class="cls-13" x1="50.01" y1="382.98" x2="355.72" y2="382.98"/><line class="cls-13" x1="50.01" y1="476.91" x2="355.72" y2="476.91"/><line class="cls-13" x1="50.01" y1="570.84" x2="355.72" y2="570.84"/><line class="cls-13" x1="50.01" y1="664.77" x2="355.72" y2="664.77"/><line class="cls-13" x1="50.01" y1="758.7" x2="355.72" y2="758.7"/><line class="cls-13" x1="50.01" y1="852.63" x2="355.72" y2="852.63"/><rect class="cls-1" x="51.69" y="765.18" width="304" height="81" rx="2" ry="2"/><rect class="cls-1" x="51.69" y="107.18" width="304" height="81" rx="2" ry="2"/><path class="cls-5" d="M71.34,779.39v7.73c0,.86-.26,1.55-.79,2.06-.53.51-1.23.77-2.1.77s-1.59-.26-2.12-.79c-.53-.52-.79-1.24-.79-2.15h1.37c0,.51.14.93.4,1.25.25.32.64.48,1.15.48s.89-.15,1.14-.46c.25-.3.38-.69.38-1.16v-7.73h1.38Z"/><path class="cls-5" d="M75.52,789.45c-.62-.35-1.12-.85-1.47-1.49-.36-.65-.53-1.39-.53-2.24s.18-1.58.55-2.23c.37-.64.86-1.14,1.49-1.48.63-.35,1.33-.52,2.12-.52s1.49.17,2.12.52c.63.34,1.13.84,1.49,1.48.37.64.55,1.39.55,2.23s-.19,1.6-.56,2.24-.88,1.14-1.52,1.49c-.64.35-1.35.52-2.13.52s-1.47-.17-2.09-.52ZM78.99,788.43c.43-.23.78-.57,1.04-1.04.27-.46.4-1.02.4-1.68s-.13-1.22-.39-1.68-.6-.8-1.02-1.03c-.42-.23-.88-.34-1.37-.34s-.96.11-1.37.34c-.42.22-.75.57-1,1.03s-.38,1.02-.38,1.68.12,1.24.37,1.7.57.8.98,1.03c.41.23.86.34,1.35.34s.95-.12,1.38-.35Z"/><path class="cls-5" d="M86.22,781.95c.54-.31,1.16-.46,1.84-.46.74,0,1.41.17,2,.52.59.35,1.05.84,1.4,1.48.34.64.51,1.37.51,2.21s-.17,1.57-.51,2.22c-.34.65-.81,1.16-1.4,1.52-.59.36-1.26.54-1.99.54s-1.33-.15-1.87-.47c-.54-.31-.94-.7-1.21-1.18v1.51h-1.36v-11.1h1.36v4.41c.28-.49.69-.89,1.23-1.2ZM90.19,784.08c-.25-.46-.59-.81-1.01-1.05-.43-.24-.89-.36-1.4-.36s-.96.12-1.39.37c-.43.25-.77.6-1.02,1.06s-.38,1-.38,1.61.13,1.16.38,1.63.59.82,1.02,1.06c.42.25.89.37,1.39.37s.98-.12,1.4-.37c.42-.24.76-.6,1.01-1.06s.38-1.01.38-1.64-.12-1.16-.38-1.62Z"/><path class="cls-5" d="M99.13,779.39v10.46h-1.36v-10.46h1.36Z"/><path class="cls-5" d="M107.89,782.38c.62.6.93,1.48.93,2.62v4.84h-1.35v-4.65c0-.82-.21-1.45-.62-1.88s-.97-.65-1.68-.65-1.29.22-1.72.67-.64,1.1-.64,1.96v4.54h-1.36v-8.22h1.36v1.17c.27-.42.64-.75,1.1-.97.47-.23.98-.35,1.54-.35,1,0,1.81.3,2.43.91Z"/><path class="cls-5" d="M112.72,782.75v4.84c0,.4.08.68.25.85s.46.25.88.25h1v1.15h-1.23c-.76,0-1.33-.17-1.71-.52-.38-.35-.57-.93-.57-1.73v-4.84h-1.07v-1.12h1.07v-2.07h1.37v2.07h2.14v1.12h-2.14Z"/><path class="cls-5" d="M123.97,786.24h-6.57c.05.81.33,1.44.83,1.9s1.12.68,1.84.68c.59,0,1.08-.14,1.48-.41.39-.27.67-.64.83-1.1h1.47c-.22.79-.66,1.43-1.32,1.93s-1.48.74-2.46.74c-.78,0-1.48-.17-2.09-.52-.61-.35-1.1-.85-1.45-1.49s-.53-1.39-.53-2.24.17-1.59.51-2.23c.34-.64.82-1.13,1.43-1.48.61-.35,1.32-.52,2.12-.52s1.47.17,2.07.51c.6.34,1.06.81,1.39,1.4.32.6.49,1.27.49,2.02,0,.26-.02.54-.04.83ZM122.26,783.79c-.23-.38-.54-.66-.94-.85-.4-.2-.83-.29-1.31-.29-.69,0-1.28.22-1.76.66-.49.44-.76,1.05-.83,1.83h5.19c0-.52-.12-.97-.34-1.34Z"/><path class="cls-5" d="M128.21,781.86c.44-.26.99-.39,1.63-.39v1.41h-.36c-1.53,0-2.3.83-2.3,2.49v4.47h-1.36v-8.22h1.36v1.33c.24-.47.58-.83,1.03-1.09Z"/><path class="cls-5" d="M134.47,788.58l2.55-6.96h1.46l-3.22,8.22h-1.59l-3.23-8.22h1.47l2.56,6.96Z"/><path class="cls-5" d="M139.87,780.02c-.18-.18-.27-.4-.27-.66s.09-.48.27-.66c.18-.18.4-.27.66-.27s.46.09.64.27c.17.18.26.4.26.66s-.09.48-.26.66-.39.27-.64.27-.48-.09-.66-.27ZM141.19,781.62v8.22h-1.36v-8.22h1.36Z"/><path class="cls-5" d="M150.97,786.24h-6.57c.05.81.33,1.44.83,1.9s1.12.68,1.84.68c.59,0,1.08-.14,1.48-.41.39-.27.67-.64.83-1.1h1.47c-.22.79-.66,1.43-1.32,1.93s-1.48.74-2.46.74c-.78,0-1.48-.17-2.09-.52-.61-.35-1.1-.85-1.45-1.49s-.53-1.39-.53-2.24.17-1.59.51-2.23c.34-.64.82-1.13,1.43-1.48.61-.35,1.32-.52,2.12-.52s1.47.17,2.07.51c.6.34,1.06.81,1.39,1.4.32.6.49,1.27.49,2.02,0,.26-.02.54-.04.83ZM149.26,783.79c-.23-.38-.54-.66-.94-.85-.4-.2-.83-.29-1.31-.29-.69,0-1.28.22-1.76.66-.49.44-.76,1.05-.83,1.83h5.19c0-.52-.12-.97-.34-1.34Z"/><path class="cls-5" d="M163.77,781.62l-2.57,8.22h-1.41l-1.98-6.52-1.98,6.52h-1.41l-2.58-8.22h1.4l1.89,6.9,2.04-6.9h1.4l1.99,6.92,1.86-6.92h1.35Z"/><path class="cls-5" d="M69.46,119.68c.83.43,1.47,1.04,1.91,1.83.44.79.66,1.72.65,2.79,0,1.07-.24,2-.68,2.78-.45.78-1.09,1.38-1.93,1.79s-1.83.61-2.97.6l-3.25-.02.07-10.45,3.25.02c1.14,0,2.13.23,2.96.66ZM69.54,127.3c.71-.71,1.08-1.71,1.08-3s-.34-2.32-1.05-3.05c-.71-.73-1.74-1.11-3.08-1.11h-1.89s-.05,8.21-.05,8.21h1.89c1.35.02,2.38-.33,3.1-1.04Z"/><path class="cls-5" d="M75.28,129.14c-.62-.35-1.11-.85-1.46-1.5-.35-.65-.52-1.4-.52-2.25s.19-1.58.56-2.22c.37-.64.87-1.13,1.5-1.48.63-.34,1.34-.51,2.12-.5s1.48.18,2.11.53c.63.35,1.12.84,1.48,1.49.36.64.54,1.39.53,2.24s-.2,1.6-.58,2.24c-.38.64-.89,1.14-1.53,1.48-.64.35-1.35.52-2.13.51s-1.47-.18-2.09-.54ZM78.76,128.15c.43-.23.78-.57,1.05-1.03.27-.46.4-1.02.41-1.68s-.12-1.22-.38-1.68-.59-.81-1.01-1.03c-.42-.23-.87-.34-1.36-.35s-.96.11-1.38.33c-.42.22-.75.56-1,1.02s-.38,1.02-.39,1.68.11,1.24.36,1.7.57.81.98,1.03c.41.23.86.34,1.35.35s.95-.11,1.38-.34Z"/><path class="cls-5" d="M83.43,123.23c.34-.63.82-1.12,1.43-1.47.61-.35,1.3-.52,2.08-.51,1.01,0,1.84.26,2.49.75.65.49,1.08,1.18,1.29,2.05h-1.47c-.14-.51-.41-.91-.81-1.2-.4-.29-.9-.44-1.5-.44-.78,0-1.41.26-1.9.79-.48.53-.73,1.29-.73,2.27,0,.99.23,1.76.71,2.3.48.54,1.11.82,1.89.82.6,0,1.1-.13,1.5-.41.4-.28.68-.68.83-1.2h1.47c-.23.85-.67,1.52-1.33,2.02s-1.49.75-2.48.74c-.78,0-1.47-.18-2.07-.54-.6-.35-1.07-.85-1.41-1.49-.34-.64-.5-1.39-.5-2.25s.18-1.59.52-2.22Z"/><path class="cls-5" d="M94.2,122.56l-.03,4.84c0,.4.08.68.25.85s.46.25.88.25h1s0,1.16,0,1.16h-1.23c-.76-.01-1.33-.19-1.71-.54-.38-.35-.56-.93-.56-1.73l.03-4.84h-1.07s0-1.13,0-1.13h1.07s.01-2.06.01-2.06h1.37s-.01,2.08-.01,2.08h2.14s0,1.14,0,1.14h-2.14Z"/><path class="cls-5" d="M99.45,129.3c-.62-.35-1.11-.85-1.46-1.5-.35-.65-.52-1.4-.52-2.25s.19-1.58.56-2.22c.37-.64.87-1.13,1.5-1.48.63-.34,1.34-.51,2.12-.5s1.48.18,2.11.53c.63.35,1.12.84,1.48,1.49.36.64.54,1.39.53,2.24s-.2,1.6-.58,2.24-.89,1.14-1.53,1.48c-.64.35-1.35.52-2.13.51s-1.47-.18-2.09-.54ZM102.93,128.3c.43-.23.78-.57,1.05-1.03.27-.46.4-1.02.41-1.68s-.12-1.22-.38-1.68-.59-.81-1.01-1.03c-.42-.23-.87-.34-1.36-.35s-.96.11-1.38.33c-.42.22-.75.56-1,1.02s-.38,1.02-.39,1.68.11,1.24.36,1.7.57.81.98,1.03c.41.23.86.34,1.35.35s.95-.11,1.38-.34Z"/><path class="cls-5" d="M110,121.77c.45-.26.99-.38,1.63-.38v1.41s-.37,0-.37,0c-1.53,0-2.3.82-2.31,2.48l-.03,4.47h-1.36s.05-8.23.05-8.23h1.36s0,1.34,0,1.34c.24-.47.59-.83,1.04-1.09Z"/><path class="cls-5" d="M113.42,119.32h1.51s-1.46,3.41-1.46,3.41h-.96s.91-3.41.91-3.41Z"/><path class="cls-5" d="M117.65,129.61c-.5-.22-.89-.52-1.18-.91-.29-.39-.44-.83-.47-1.33h1.41c.04.42.23.76.57,1.02s.8.4,1.35.4c.52,0,.93-.11,1.23-.34s.45-.52.46-.87-.16-.63-.48-.81-.81-.35-1.48-.53c-.61-.16-1.11-.33-1.49-.5s-.71-.41-.99-.74c-.27-.33-.41-.75-.4-1.28,0-.42.13-.8.38-1.15.25-.35.61-.62,1.07-.83.46-.2.99-.3,1.58-.3.91,0,1.64.24,2.2.7.56.46.85,1.1.89,1.9h-1.37c-.03-.44-.2-.79-.51-1.05-.31-.26-.73-.39-1.27-.4-.49,0-.88.1-1.17.31s-.44.48-.44.82c0,.27.08.49.26.67.17.18.39.32.66.42s.63.23,1.1.36c.59.16,1.07.32,1.44.48.37.16.69.39.95.7s.4.72.41,1.22c0,.45-.13.85-.38,1.21-.25.36-.61.64-1.06.84s-.98.3-1.57.3c-.63,0-1.19-.12-1.69-.33Z"/><path class="cls-5" d="M134.46,127.58l-4.56-.03-.86,2.32h-1.44s3.85-10.38,3.85-10.38h1.57s3.7,10.43,3.7,10.43h-1.44s-.83-2.34-.83-2.34ZM134.08,126.47l-1.86-5.29-1.92,5.27,3.78.02Z"/><path class="cls-5" d="M141,122.06c.54-.31,1.16-.46,1.87-.46s1.39.18,1.98.54c.59.35,1.06.85,1.39,1.49.34.64.5,1.38.5,2.22s-.18,1.57-.52,2.22c-.34.65-.81,1.15-1.41,1.51-.6.36-1.26.53-1.99.53s-1.32-.17-1.85-.48c-.53-.32-.94-.71-1.22-1.19l-.03,5.41h-1.36s.08-12.13.08-12.13h1.36s0,1.52,0,1.52c.27-.47.68-.86,1.22-1.17ZM144.98,124.21c-.25-.46-.58-.81-1.01-1.06-.42-.24-.89-.37-1.4-.37s-.96.12-1.39.36c-.43.24-.77.6-1.03,1.06s-.39,1-.39,1.61.12,1.16.37,1.63.59.82,1.01,1.07c.42.25.88.37,1.38.38s.98-.12,1.41-.36c.43-.24.77-.59,1.02-1.06s.38-1.01.39-1.64-.12-1.16-.36-1.62Z"/><path class="cls-5" d="M151.14,122.13c.54-.31,1.16-.46,1.87-.46s1.39.18,1.98.54c.59.35,1.06.85,1.39,1.49.34.64.5,1.38.5,2.22s-.18,1.57-.52,2.22c-.34.65-.81,1.15-1.41,1.51-.6.36-1.26.53-1.99.53s-1.32-.17-1.85-.48c-.53-.32-.94-.71-1.22-1.19l-.03,5.41h-1.36s.08-12.13.08-12.13h1.36s0,1.52,0,1.52c.27-.47.68-.86,1.22-1.17ZM155.12,124.27c-.25-.46-.58-.81-1.01-1.06-.42-.24-.89-.37-1.4-.37s-.96.12-1.39.36c-.43.24-.77.6-1.03,1.06s-.39,1-.39,1.61.12,1.16.37,1.63.59.82,1.01,1.07c.42.25.88.37,1.38.38s.98-.12,1.41-.36c.43-.24.77-.59,1.02-1.06s.38-1.01.39-1.64-.12-1.16-.36-1.62Z"/><path class="cls-5" d="M160.15,129.67c-.62-.35-1.11-.85-1.46-1.5-.35-.65-.52-1.4-.52-2.25s.19-1.58.56-2.22c.37-.64.87-1.13,1.5-1.48.63-.34,1.34-.51,2.12-.5s1.48.18,2.11.53c.63.35,1.12.84,1.48,1.49.36.64.54,1.39.53,2.24s-.2,1.6-.58,2.24-.89,1.14-1.53,1.48c-.64.35-1.35.52-2.13.51s-1.47-.18-2.09-.54ZM163.63,128.68c.43-.23.78-.57,1.05-1.03.27-.46.4-1.02.41-1.68s-.12-1.22-.38-1.68-.59-.81-1.01-1.03c-.42-.23-.87-.34-1.36-.35s-.96.11-1.38.33c-.42.22-.75.56-1,1.02s-.38,1.02-.39,1.68.11,1.24.36,1.7.57.81.98,1.03c.41.23.86.34,1.35.35s.95-.11,1.38-.34Z"/><path class="cls-5" d="M168.36,120.29c-.18-.18-.27-.4-.27-.66s.09-.48.27-.66c.18-.18.4-.27.66-.27s.46.09.64.27c.17.18.26.4.26.66s-.09.48-.27.66-.39.27-.64.27-.48-.09-.66-.27ZM169.67,121.9l-.05,8.22h-1.36s.05-8.23.05-8.23h1.36Z"/><path class="cls-5" d="M178.43,122.72c.62.61.92,1.48.91,2.62l-.03,4.84h-1.35s.03-4.66.03-4.66c0-.82-.2-1.45-.6-1.89s-.97-.66-1.68-.66-1.29.22-1.72.66-.64,1.1-.65,1.96l-.03,4.54h-1.36s.05-8.23.05-8.23h1.36s0,1.18,0,1.18c.27-.42.64-.74,1.11-.97.47-.23.98-.34,1.54-.34,1,0,1.81.31,2.42.92Z"/><path class="cls-5" d="M183.25,123.11l-.03,4.84c0,.4.08.68.25.85s.46.25.88.25h1s0,1.16,0,1.16h-1.23c-.76-.01-1.33-.19-1.71-.54-.38-.35-.56-.93-.56-1.73l.03-4.84h-1.07s0-1.13,0-1.13h1.07s.01-2.06.01-2.06h1.37s-.01,2.08-.01,2.08h2.14s0,1.14,0,1.14h-2.14Z"/><path class="cls-5" d="M198.65,122.33c.5.27.89.67,1.18,1.2.29.53.43,1.18.42,1.94l-.03,4.84h-1.35s.03-4.66.03-4.66c0-.82-.19-1.45-.6-1.89-.4-.44-.95-.66-1.64-.66s-1.28.22-1.7.67-.64,1.11-.64,1.97l-.03,4.53h-1.35s.03-4.66.03-4.66c0-.82-.19-1.45-.6-1.89s-.95-.66-1.64-.66-1.28.22-1.7.67-.64,1.11-.64,1.97l-.03,4.53h-1.36s.05-8.23.05-8.23h1.36s0,1.19,0,1.19c.27-.43.64-.76,1.09-.98.46-.23.96-.34,1.51-.34.69,0,1.3.16,1.83.48.53.31.92.77,1.18,1.37.23-.58.62-1.03,1.15-1.34.53-.32,1.12-.47,1.77-.47s1.21.14,1.71.41Z"/><path class="cls-5" d="M209.93,126.78l-6.57-.04c.04.81.32,1.44.82,1.9s1.11.69,1.83.69c.59,0,1.08-.13,1.48-.4.4-.27.68-.64.84-1.1h1.47c-.23.8-.67,1.44-1.33,1.93s-1.49.73-2.46.73c-.78,0-1.48-.18-2.09-.54-.61-.35-1.09-.85-1.44-1.5s-.52-1.4-.51-2.25c0-.85.18-1.59.52-2.23.34-.64.82-1.13,1.44-1.47.62-.34,1.33-.51,2.13-.5s1.47.18,2.07.52c.6.34,1.06.81,1.38,1.41.32.6.48,1.27.47,2.02,0,.26-.02.54-.05.82ZM208.24,124.31c-.23-.38-.54-.66-.93-.86-.39-.2-.83-.3-1.31-.3-.69,0-1.28.21-1.77.65-.49.44-.77,1.05-.84,1.82l5.19.03c0-.52-.11-.97-.34-1.34Z"/><path class="cls-5" d="M218.24,122.97c.62.61.92,1.48.91,2.62l-.03,4.84h-1.35s.03-4.66.03-4.66c0-.82-.2-1.45-.6-1.89s-.97-.66-1.68-.66-1.29.22-1.72.66-.64,1.1-.65,1.96l-.03,4.54h-1.36s.05-8.23.05-8.23h1.36s0,1.18,0,1.18c.27-.42.64-.74,1.11-.97.47-.23.98-.34,1.54-.34,1,0,1.81.31,2.42.92Z"/><path class="cls-5" d="M223.06,123.36l-.03,4.84c0,.4.08.68.25.85s.46.25.88.25h1s0,1.16,0,1.16h-1.23c-.76-.01-1.33-.19-1.71-.54-.38-.35-.56-.93-.56-1.73l.03-4.84h-1.07s0-1.13,0-1.13h1.07s.01-2.06.01-2.06h1.37s-.01,2.08-.01,2.08h2.14s0,1.14,0,1.14h-2.14Z"/><rect class="cls-12" x="503" y="2" width="404.13" height="909.13" rx="20.98" ry="20.98"/><path class="cls-4" d="M578.19,65.73l-5.51,18.6h-3.45l-3.91-14.08-4.15,14.08-3.43.03-5.27-18.63h3.24l3.85,15.15,4.17-15.15h3.43l3.88,15.07,3.88-15.07h3.26Z"/><path class="cls-4" d="M583.33,83.62c-1.12-.63-2.01-1.53-2.65-2.68-.64-1.15-.96-2.48-.96-4s.33-2.83.99-3.99,1.56-2.05,2.7-2.68c1.14-.62,2.42-.94,3.83-.94s2.69.31,3.83.94,2.04,1.52,2.7,2.68c.66,1.16.99,2.49.99,3.99s-.34,2.83-1.02,3.99c-.68,1.16-1.6,2.06-2.77,2.69-1.17.63-2.46.95-3.87.95s-2.65-.32-3.77-.95ZM589.32,81.36c.69-.37,1.24-.94,1.67-1.69.43-.75.64-1.66.64-2.73s-.21-1.98-.62-2.72c-.41-.74-.96-1.3-1.63-1.67-.68-.37-1.41-.56-2.19-.56s-1.51.19-2.18.56c-.67.38-1.2.93-1.59,1.67-.39.74-.59,1.65-.59,2.72,0,1.59.41,2.81,1.22,3.68.81.87,1.83,1.3,3.06,1.3.79,0,1.52-.19,2.21-.56Z"/><path class="cls-4" d="M602.62,69.97c.74-.42,1.62-.63,2.64-.63v3.16h-.78c-1.2,0-2.1.3-2.72.91-.62.61-.92,1.66-.92,3.16v7.76h-3.05v-14.75h3.05v2.14c.45-.75,1.04-1.33,1.78-1.75Z"/><path class="cls-4" d="M613.9,76.97l6.8,7.36h-4.12l-5.46-6.34v6.34h-3.05v-19.81h3.05v11.51l5.35-6.45h4.23l-6.8,7.39Z"/><path class="cls-4" d="M630.1,70.09c.85-1.45,2-2.57,3.45-3.39,1.45-.81,3.05-1.22,4.78-1.22,1.98,0,3.74.49,5.29,1.46,1.54.97,2.66,2.35,3.36,4.13h-3.67c-.48-.98-1.15-1.71-2.01-2.19-.86-.48-1.85-.72-2.97-.72-1.23,0-2.33.28-3.29.83-.96.55-1.72,1.35-2.26,2.38s-.82,2.24-.82,3.61.27,2.58.82,3.61c.54,1.04,1.3,1.83,2.26,2.4.96.56,2.06.84,3.29.84,1.12,0,2.11-.24,2.97-.72s1.53-1.21,2.01-2.19h3.67c-.7,1.78-1.82,3.16-3.36,4.12-1.54.96-3.3,1.45-5.29,1.45-1.75,0-3.35-.41-4.79-1.22-1.45-.81-2.59-1.94-3.44-3.39s-1.27-3.08-1.27-4.9.42-3.45,1.27-4.9Z"/><path class="cls-4" d="M650.44,72.96c.62-1.14,1.45-2.03,2.52-2.66,1.06-.63,2.23-.95,3.52-.95,1.16,0,2.17.23,3.04.68.87.45,1.56,1.02,2.07,1.7v-2.14h3.08v14.75h-3.08v-2.19c-.52.7-1.22,1.28-2.11,1.74-.89.46-1.91.7-3.05.7-1.27,0-2.43-.33-3.48-.98-1.05-.65-1.89-1.56-2.5-2.73-.62-1.17-.92-2.49-.92-3.97s.31-2.79.92-3.93ZM660.96,74.29c-.42-.75-.97-1.32-1.65-1.71s-1.41-.59-2.19-.59-1.52.19-2.19.58c-.68.38-1.23.95-1.65,1.69s-.63,1.62-.63,2.64.21,1.91.63,2.68c.42.77.97,1.35,1.66,1.75.69.4,1.41.6,2.18.6s1.52-.2,2.19-.59,1.23-.97,1.65-1.73c.42-.76.63-1.65.63-2.66s-.21-1.9-.63-2.65Z"/><path class="cls-4" d="M671.73,64.53v19.81h-3.05v-19.81h3.05Z"/><path class="cls-4" d="M689.16,78.09h-11.27c.09,1.18.53,2.12,1.31,2.84.78.71,1.75,1.07,2.89,1.07,1.64,0,2.8-.69,3.48-2.06h3.29c-.45,1.36-1.25,2.47-2.42,3.33-1.17.87-2.62,1.3-4.35,1.3-1.41,0-2.67-.32-3.79-.95-1.12-.63-1.99-1.53-2.62-2.68-.63-1.15-.95-2.48-.95-4s.31-2.85.92-4c.62-1.15,1.48-2.04,2.6-2.66s2.4-.94,3.84-.94,2.63.3,3.72.91c1.09.61,1.94,1.46,2.54,2.56.61,1.1.91,2.36.91,3.79,0,.55-.04,1.05-.11,1.5ZM686.08,75.63c-.02-1.12-.42-2.02-1.2-2.7-.79-.68-1.76-1.02-2.92-1.02-1.05,0-1.95.33-2.7,1-.75.67-1.2,1.58-1.34,2.72h8.16Z"/><path class="cls-4" d="M702.82,70.07c.92.48,1.64,1.2,2.15,2.14.52.95.78,2.09.78,3.43v8.7h-3.02v-8.24c0-1.32-.33-2.33-.99-3.04-.66-.7-1.56-1.06-2.7-1.06s-2.05.35-2.72,1.06-1,1.72-1,3.04v8.24h-3.05v-14.75h3.05v1.69c.5-.61,1.14-1.08,1.91-1.42.78-.34,1.6-.51,2.48-.51,1.16,0,2.2.24,3.12.72Z"/><path class="cls-4" d="M709.54,72.96c.62-1.14,1.45-2.03,2.52-2.66,1.06-.63,2.24-.95,3.55-.95.96,0,1.91.21,2.85.63.94.42,1.68.98,2.23,1.67v-7.12h3.08v19.81h-3.08v-2.22c-.5.71-1.19,1.3-2.07,1.77-.88.46-1.9.7-3.04.7-1.29,0-2.46-.33-3.52-.98-1.06-.65-1.9-1.56-2.52-2.73-.62-1.17-.92-2.49-.92-3.97s.31-2.79.92-3.93ZM720.06,74.29c-.42-.75-.97-1.32-1.65-1.71-.68-.39-1.41-.59-2.19-.59s-1.52.19-2.2.58c-.68.38-1.23.95-1.65,1.69-.42.74-.63,1.62-.63,2.64s.21,1.91.63,2.68c.42.77.97,1.35,1.66,1.75.69.4,1.41.6,2.18.6s1.52-.2,2.19-.59c.68-.39,1.23-.97,1.65-1.73.42-.76.63-1.65.63-2.66s-.21-1.9-.63-2.65Z"/><path class="cls-4" d="M727.68,72.96c.62-1.14,1.45-2.03,2.52-2.66,1.06-.63,2.23-.95,3.52-.95,1.16,0,2.17.23,3.04.68.87.45,1.56,1.02,2.07,1.7v-2.14h3.08v14.75h-3.08v-2.19c-.52.7-1.22,1.28-2.11,1.74-.89.46-1.91.7-3.05.7-1.27,0-2.43-.33-3.48-.98-1.05-.65-1.89-1.56-2.5-2.73-.62-1.17-.92-2.49-.92-3.97s.31-2.79.92-3.93ZM738.2,74.29c-.42-.75-.97-1.32-1.65-1.71s-1.41-.59-2.19-.59-1.52.19-2.19.58c-.68.38-1.23.95-1.65,1.69s-.63,1.62-.63,2.64.21,1.91.63,2.68c.42.77.97,1.35,1.66,1.75.69.4,1.41.6,2.18.6s1.52-.2,2.19-.59,1.23-.97,1.65-1.73c.42-.76.63-1.65.63-2.66s-.21-1.9-.63-2.65Z"/><path class="cls-4" d="M750.75,69.97c.74-.42,1.62-.63,2.64-.63v3.16h-.78c-1.2,0-2.1.3-2.72.91-.62.61-.92,1.66-.92,3.16v7.76h-3.05v-14.75h3.05v2.14c.45-.75,1.04-1.33,1.78-1.75Z"/><line class="cls-11" x1="551.01" y1="99.19" x2="856.72" y2="99.19"/><line class="cls-13" x1="551.01" y1="193.12" x2="856.72" y2="193.12"/><line class="cls-13" x1="551.01" y1="287.05" x2="856.72" y2="287.05"/><line class="cls-13" x1="551.01" y1="380.98" x2="856.72" y2="380.98"/><line class="cls-13" x1="551.01" y1="474.91" x2="856.72" y2="474.91"/><line class="cls-13" x1="551.01" y1="568.84" x2="856.72" y2="568.84"/><line class="cls-13" x1="551.01" y1="662.77" x2="856.72" y2="662.77"/><line class="cls-13" x1="551.01" y1="756.7" x2="856.72" y2="756.7"/><line class="cls-13" x1="551.01" y1="850.63" x2="856.72" y2="850.63"/><rect class="cls-3" x="552.57" y="527.18" width="304.9" height="128" rx="2" ry="2"/><rect class="cls-6" x="551.69" y="387.45" width="304.9" height="80.29" rx="2" ry="2"/><rect class="cls-8" x="551.69" y="482.18" width="304.9" height="39" rx="2" ry="2"/><rect class="cls-2" x="552.69" y="763.18" width="304" height="81" rx="2" ry="2"/><rect class="cls-2" x="552.69" y="105.18" width="304" height="81" rx="2" ry="2"/><path class="cls-9" d="M571.31,121.3c-.6.57-1.51.85-2.73.85h-2.01s-.03,4.35-.03,4.35h-1.36s.07-10.46.07-10.46l3.37.02c1.18,0,2.08.3,2.69.87.61.57.91,1.31.91,2.21s-.31,1.59-.91,2.16ZM570.27,120.54c.36-.33.55-.8.55-1.41,0-1.29-.73-1.94-2.21-1.95h-2.01s-.02,3.83-.02,3.83h2.01c.76.02,1.32-.14,1.68-.47Z"/><path class="cls-9" d="M581.34,122.99l-6.57-.04c.04.81.32,1.44.82,1.9s1.11.69,1.83.69c.59,0,1.08-.13,1.48-.4.4-.27.68-.64.84-1.1h1.47c-.23.8-.67,1.44-1.33,1.93s-1.49.73-2.46.73c-.78,0-1.48-.18-2.09-.54-.61-.35-1.09-.85-1.44-1.5s-.52-1.4-.51-2.25.18-1.59.52-2.23c.34-.64.82-1.13,1.44-1.47.62-.34,1.33-.51,2.13-.5s1.47.18,2.07.52c.6.34,1.06.81,1.38,1.41.32.6.48,1.27.47,2.02,0,.26-.02.54-.05.82ZM579.64,120.53c-.23-.38-.54-.66-.93-.86-.39-.2-.83-.3-1.31-.3-.69,0-1.28.21-1.77.65-.49.44-.77,1.05-.84,1.82l5.19.03c0-.52-.11-.97-.34-1.34Z"/><path class="cls-9" d="M585.6,118.64c.45-.26.99-.38,1.63-.38v1.41s-.37,0-.37,0c-1.53,0-2.3.82-2.31,2.48l-.03,4.47h-1.36s.05-8.23.05-8.23h1.36s0,1.34,0,1.34c.24-.47.59-.83,1.04-1.09Z"/><path class="cls-9" d="M589.97,126.46c-.5-.22-.89-.52-1.18-.91-.29-.39-.44-.83-.47-1.33h1.41c.04.42.23.76.57,1.02s.8.4,1.35.4c.52,0,.93-.11,1.23-.34s.45-.52.46-.87-.16-.63-.48-.81-.81-.35-1.48-.53c-.61-.16-1.11-.33-1.49-.5s-.71-.41-.99-.74c-.27-.33-.41-.75-.4-1.28,0-.42.13-.8.38-1.15.25-.35.61-.62,1.07-.83.46-.2.99-.3,1.58-.3.91,0,1.64.24,2.2.7.56.46.85,1.1.89,1.9h-1.37c-.03-.44-.2-.79-.51-1.05-.31-.26-.73-.39-1.27-.4-.49,0-.88.1-1.17.31s-.44.48-.44.82c0,.27.08.49.26.67.17.18.39.32.66.42s.63.23,1.1.36c.59.16,1.07.32,1.44.48.37.16.69.39.95.7s.4.72.41,1.22c0,.45-.13.85-.38,1.21-.25.36-.61.64-1.06.84s-.98.3-1.57.3c-.63,0-1.19-.12-1.69-.33Z"/><path class="cls-9" d="M598.08,126.3c-.62-.35-1.11-.85-1.46-1.5-.35-.65-.52-1.4-.52-2.25s.19-1.58.56-2.22c.37-.64.87-1.13,1.5-1.48.63-.34,1.34-.51,2.12-.5s1.48.18,2.11.53c.63.35,1.12.84,1.48,1.49.36.64.54,1.39.53,2.24s-.2,1.6-.58,2.24-.89,1.14-1.53,1.48c-.64.35-1.35.52-2.13.51s-1.47-.18-2.09-.54ZM601.56,125.31c.43-.23.78-.57,1.05-1.03.27-.46.4-1.02.41-1.68s-.12-1.22-.38-1.68-.59-.81-1.01-1.03c-.42-.23-.87-.34-1.36-.35s-.96.11-1.38.33c-.42.22-.75.56-1,1.02s-.38,1.02-.39,1.68.11,1.24.36,1.7.57.81.98,1.03c.41.23.86.34,1.35.35s.95-.11,1.38-.34Z"/><path class="cls-9" d="M612.67,119.32c.62.61.92,1.48.91,2.62l-.03,4.84h-1.35s.03-4.66.03-4.66c0-.82-.2-1.45-.6-1.89s-.97-.66-1.68-.66-1.29.22-1.72.66-.64,1.1-.65,1.96l-.03,4.54h-1.36s.05-8.23.05-8.23h1.36s0,1.18,0,1.18c.27-.42.64-.74,1.11-.97.47-.23.98-.34,1.54-.34,1,0,1.81.31,2.42.92Z"/><path class="cls-9" d="M615.82,120.45c.34-.63.81-1.12,1.41-1.47.6-.35,1.26-.52,1.99-.51s1.34.16,1.87.48.92.71,1.18,1.18v-1.5s1.39,0,1.39,0l-.05,8.22h-1.38s0-1.54,0-1.54c-.27.48-.68.87-1.22,1.19-.54.31-1.16.46-1.87.46s-1.39-.19-1.98-.55-1.05-.87-1.39-1.52c-.34-.65-.5-1.39-.5-2.22s.18-1.58.52-2.21ZM621.89,121.1c-.25-.46-.58-.82-1.01-1.06-.42-.25-.89-.37-1.4-.38s-.98.11-1.4.35c-.42.24-.76.59-1.01,1.04s-.38,1-.39,1.62.12,1.18.36,1.64.58.82,1,1.07c.42.25.88.37,1.39.38s.98-.12,1.4-.36c.43-.24.77-.59,1.02-1.06.25-.46.38-1.01.39-1.63s-.12-1.16-.36-1.62Z"/><path class="cls-9" d="M627.36,115.78l-.07,11.1h-1.36s.07-11.11.07-11.11h1.36Z"/><path class="cls-9" d="M633.85,118.93c.47-.81,1.1-1.45,1.89-1.9s1.68-.68,2.65-.67c1.14,0,2.13.29,2.98.84.85.56,1.46,1.34,1.85,2.35h-1.63c-.29-.64-.7-1.13-1.24-1.47s-1.19-.52-1.95-.52-1.39.16-1.97.5c-.58.34-1.04.82-1.37,1.44-.33.62-.5,1.35-.51,2.19s.16,1.56.48,2.19c.33.63.78,1.11,1.36,1.46.58.34,1.23.52,1.96.52s1.41-.16,1.96-.49.97-.81,1.26-1.44h1.63c-.4,1.01-1.02,1.78-1.87,2.32-.85.54-1.85.81-2.99.8-.97,0-1.85-.24-2.64-.7-.79-.46-1.42-1.1-1.87-1.91s-.68-1.73-.67-2.75.24-1.94.71-2.75Z"/><path class="cls-9" d="M646.69,126.61c-.62-.35-1.11-.85-1.46-1.5-.35-.65-.52-1.4-.52-2.25s.19-1.58.56-2.22c.37-.64.87-1.13,1.5-1.48.63-.34,1.34-.51,2.12-.5s1.48.18,2.11.53c.63.35,1.12.84,1.48,1.49.36.64.54,1.39.53,2.24,0,.85-.2,1.6-.58,2.24s-.89,1.14-1.53,1.48c-.64.35-1.35.52-2.13.51s-1.47-.18-2.09-.54ZM650.17,125.61c.43-.23.78-.57,1.05-1.03.27-.46.4-1.02.41-1.68s-.12-1.22-.38-1.68-.59-.81-1.01-1.03c-.42-.23-.87-.34-1.36-.35s-.96.11-1.38.33c-.42.22-.75.56-1,1.02s-.38,1.02-.39,1.68.11,1.24.36,1.7.57.81.98,1.03c.41.23.86.34,1.35.35s.95-.11,1.38-.34Z"/><path class="cls-9" d="M666.44,119.15c.5.27.89.67,1.18,1.2.29.53.43,1.18.42,1.94l-.03,4.84h-1.35s.03-4.66.03-4.66c0-.82-.19-1.45-.6-1.89-.4-.44-.95-.66-1.64-.66s-1.28.22-1.7.67-.64,1.11-.64,1.97l-.03,4.53h-1.35s.03-4.66.03-4.66c0-.82-.19-1.45-.6-1.89s-.95-.66-1.64-.66-1.28.22-1.7.67-.64,1.11-.64,1.97l-.03,4.53h-1.36s.05-8.23.05-8.23h1.36s0,1.19,0,1.19c.27-.43.64-.76,1.09-.98.46-.23.96-.34,1.51-.34.69,0,1.3.16,1.83.48.53.31.92.77,1.18,1.37.23-.58.62-1.03,1.15-1.34.53-.32,1.12-.47,1.77-.47s1.21.14,1.71.41Z"/><path class="cls-9" d="M681.89,119.25c.5.27.89.67,1.18,1.2.29.53.43,1.18.42,1.94l-.03,4.84h-1.35s.03-4.66.03-4.66c0-.82-.19-1.45-.6-1.89-.4-.44-.95-.66-1.64-.66s-1.28.22-1.7.67-.64,1.11-.64,1.97l-.03,4.53h-1.35s.03-4.66.03-4.66c0-.82-.19-1.45-.6-1.89s-.95-.66-1.64-.66-1.28.22-1.7.67-.64,1.11-.64,1.97l-.03,4.53h-1.36s.05-8.23.05-8.23h1.36s0,1.19,0,1.19c.27-.43.64-.76,1.09-.98.46-.23.96-.34,1.51-.34.69,0,1.3.16,1.83.48.53.31.92.77,1.18,1.37.23-.58.62-1.03,1.15-1.34.53-.32,1.12-.47,1.77-.47s1.21.14,1.71.41Z"/><path class="cls-9" d="M685.8,117.42c-.18-.18-.27-.4-.27-.66s.09-.48.27-.66c.18-.18.4-.27.66-.27s.46.09.64.27c.17.18.26.4.26.66s-.09.48-.27.66-.39.27-.64.27-.48-.09-.66-.27ZM687.11,119.03l-.05,8.22h-1.36s.05-8.23.05-8.23h1.36Z"/><path class="cls-9" d="M691.09,120.18l-.03,4.84c0,.4.08.68.25.85s.46.25.88.25h1s0,1.16,0,1.16h-1.23c-.76-.01-1.33-.19-1.71-.54-.38-.35-.56-.93-.56-1.73l.03-4.84h-1.07s0-1.13,0-1.13h1.07s.01-2.06.01-2.06h1.37s-.01,2.08-.01,2.08h2.14s0,1.14,0,1.14h-2.14Z"/><path class="cls-9" d="M706.49,119.4c.5.27.89.67,1.18,1.2.29.53.43,1.18.42,1.94l-.03,4.84h-1.35s.03-4.66.03-4.66c0-.82-.19-1.45-.6-1.89-.4-.44-.95-.66-1.64-.66s-1.28.22-1.7.67-.64,1.11-.64,1.97l-.03,4.53h-1.35s.03-4.66.03-4.66c0-.82-.19-1.45-.6-1.89s-.95-.66-1.64-.66-1.28.22-1.7.67-.64,1.11-.64,1.97l-.03,4.53h-1.36s.05-8.23.05-8.23h1.36s0,1.19,0,1.19c.27-.43.64-.76,1.09-.98.46-.23.96-.34,1.51-.34.69,0,1.3.16,1.83.48.53.31.92.77,1.18,1.37.23-.58.62-1.03,1.15-1.34.53-.32,1.12-.47,1.77-.47s1.21.14,1.71.41Z"/><path class="cls-9" d="M717.77,123.84l-6.57-.04c.04.81.32,1.44.82,1.9s1.11.69,1.83.69c.59,0,1.08-.13,1.48-.4.4-.27.68-.64.84-1.1h1.47c-.23.8-.67,1.44-1.33,1.93s-1.49.73-2.46.73c-.78,0-1.48-.18-2.09-.54-.61-.35-1.09-.85-1.44-1.5s-.52-1.4-.51-2.25.18-1.59.52-2.23c.34-.64.82-1.13,1.44-1.47.62-.34,1.33-.51,2.13-.5s1.47.18,2.07.52c.6.34,1.06.81,1.38,1.41.32.6.48,1.27.47,2.02,0,.26-.02.54-.05.82ZM716.08,121.38c-.23-.38-.54-.66-.93-.86-.39-.2-.83-.3-1.31-.3-.69,0-1.28.21-1.77.65-.49.44-.77,1.05-.84,1.82l5.19.03c0-.52-.11-.97-.34-1.34Z"/><path class="cls-9" d="M726.08,120.03c.62.61.92,1.48.91,2.62l-.03,4.84h-1.35s.03-4.66.03-4.66c0-.82-.2-1.45-.6-1.89s-.97-.66-1.68-.66-1.29.22-1.72.66-.64,1.1-.65,1.96l-.03,4.54h-1.36s.05-8.23.05-8.23h1.36s0,1.18,0,1.18c.27-.42.64-.74,1.11-.97.47-.23.98-.34,1.54-.34,1,0,1.81.31,2.42.92Z"/><path class="cls-9" d="M730.9,120.43l-.03,4.84c0,.4.08.68.25.85s.46.25.88.25h1s0,1.16,0,1.16h-1.23c-.76-.01-1.33-.19-1.71-.54-.38-.35-.56-.93-.56-1.73l.03-4.84h-1.07s0-1.13,0-1.13h1.07s.01-2.06.01-2.06h1.37s-.01,2.08-.01,2.08h2.14s0,1.14,0,1.14h-2.14Z"/><path class="cls-9" d="M572.11,780.29c-.6.57-1.51.85-2.73.85h-2.01s-.03,4.35-.03,4.35h-1.36s.07-10.46.07-10.46l3.37.02c1.18,0,2.08.3,2.69.87.61.57.91,1.31.91,2.21s-.31,1.59-.91,2.16ZM571.07,779.52c.36-.33.55-.8.55-1.41,0-1.29-.73-1.94-2.21-1.95h-2.01s-.02,3.83-.02,3.83h2.01c.76.02,1.32-.14,1.68-.47Z"/><path class="cls-9" d="M582.14,781.98l-6.57-.04c.04.81.32,1.44.82,1.9s1.11.69,1.83.69c.59,0,1.08-.13,1.48-.4.4-.27.68-.64.84-1.1h1.47c-.23.8-.67,1.44-1.33,1.93s-1.49.73-2.46.73c-.78,0-1.48-.18-2.09-.54-.61-.35-1.09-.85-1.44-1.5s-.52-1.4-.51-2.25.18-1.59.52-2.23c.34-.64.82-1.13,1.44-1.47.62-.34,1.33-.51,2.13-.5s1.47.18,2.07.52c.6.34,1.06.81,1.38,1.41.32.6.48,1.27.47,2.02,0,.26-.02.54-.05.82ZM580.45,779.51c-.23-.38-.54-.66-.93-.86-.39-.2-.83-.3-1.31-.3-.69,0-1.28.21-1.77.65-.49.44-.77,1.05-.84,1.82l5.19.03c0-.52-.11-.97-.34-1.34Z"/><path class="cls-9" d="M586.4,777.62c.45-.26.99-.38,1.63-.38v1.41s-.37,0-.37,0c-1.53,0-2.3.82-2.31,2.48l-.03,4.47h-1.36s.05-8.23.05-8.23h1.36s0,1.34,0,1.34c.24-.47.59-.83,1.04-1.09Z"/><path class="cls-9" d="M590.77,785.44c-.5-.22-.89-.52-1.18-.91-.29-.39-.44-.83-.47-1.33h1.41c.04.42.23.76.57,1.02s.8.4,1.35.4c.52,0,.93-.11,1.23-.34s.45-.52.46-.87-.16-.63-.48-.81-.81-.35-1.48-.53c-.61-.16-1.11-.33-1.49-.5s-.71-.41-.99-.74c-.27-.33-.41-.75-.4-1.28,0-.42.13-.8.38-1.15.25-.35.61-.62,1.07-.83.46-.2.99-.3,1.58-.3.91,0,1.64.24,2.2.7.56.46.85,1.1.89,1.9h-1.37c-.03-.44-.2-.79-.51-1.05-.31-.26-.73-.39-1.27-.4-.49,0-.88.1-1.17.31s-.44.48-.44.82c0,.27.08.49.26.67.17.18.39.32.66.42s.63.23,1.1.36c.59.16,1.07.32,1.44.48.37.16.69.39.95.7s.4.72.41,1.22c0,.45-.13.85-.38,1.21-.25.36-.61.64-1.06.84s-.98.3-1.57.3c-.63,0-1.19-.12-1.69-.33Z"/><path class="cls-9" d="M598.88,785.29c-.62-.35-1.11-.85-1.46-1.5-.35-.65-.52-1.4-.52-2.25s.19-1.58.56-2.22c.37-.64.87-1.13,1.5-1.48.63-.34,1.34-.51,2.12-.5s1.48.18,2.11.53c.63.35,1.12.84,1.48,1.49.36.64.54,1.39.53,2.24s-.2,1.6-.58,2.24-.89,1.14-1.53,1.48c-.64.35-1.35.52-2.13.51s-1.47-.18-2.09-.54ZM602.36,784.29c.43-.23.78-.57,1.05-1.03.27-.46.4-1.02.41-1.68s-.12-1.22-.38-1.68-.59-.81-1.01-1.03c-.42-.23-.87-.34-1.36-.35s-.96.11-1.38.33c-.42.22-.75.56-1,1.02s-.38,1.02-.39,1.68.11,1.24.36,1.7.57.81.98,1.03c.41.23.86.34,1.35.35s.95-.11,1.38-.34Z"/><path class="cls-9" d="M613.47,778.31c.62.61.92,1.48.91,2.62l-.03,4.84h-1.35s.03-4.66.03-4.66c0-.82-.2-1.45-.6-1.89s-.97-.66-1.68-.66-1.29.22-1.72.66-.64,1.1-.65,1.96l-.03,4.54h-1.36s.05-8.23.05-8.23h1.36s0,1.18,0,1.18c.27-.42.64-.74,1.11-.97.47-.23.98-.34,1.54-.34,1,0,1.81.31,2.42.92Z"/><path class="cls-9" d="M616.63,779.44c.34-.63.81-1.12,1.41-1.47.6-.35,1.26-.52,1.99-.51s1.34.16,1.87.48.92.71,1.18,1.18v-1.5s1.39,0,1.39,0l-.05,8.22h-1.38s0-1.54,0-1.54c-.27.48-.68.87-1.22,1.19-.54.31-1.16.46-1.87.46s-1.39-.19-1.98-.55-1.05-.87-1.39-1.52c-.34-.65-.5-1.39-.5-2.22s.18-1.58.52-2.21ZM622.7,780.08c-.25-.46-.58-.82-1.01-1.06-.42-.25-.89-.37-1.4-.38s-.98.11-1.4.35c-.42.24-.76.59-1.01,1.04s-.38,1-.39,1.62.12,1.18.36,1.64.58.82,1,1.07c.42.25.88.37,1.39.38s.98-.12,1.4-.36c.43-.24.77-.59,1.02-1.06.25-.46.38-1.01.39-1.63s-.12-1.16-.36-1.62Z"/><path class="cls-9" d="M628.16,774.76l-.07,11.1h-1.36s.07-11.11.07-11.11h1.36Z"/><path class="cls-9" d="M634.65,777.92c.47-.81,1.1-1.45,1.89-1.9s1.68-.68,2.65-.67c1.14,0,2.13.29,2.98.84.85.56,1.46,1.34,1.85,2.35h-1.63c-.29-.64-.7-1.13-1.24-1.47s-1.19-.52-1.95-.52-1.39.16-1.97.5c-.58.34-1.04.82-1.37,1.44-.33.62-.5,1.35-.51,2.19s.16,1.56.48,2.19c.33.63.78,1.11,1.36,1.46.58.34,1.23.52,1.96.52s1.41-.16,1.96-.49.97-.81,1.26-1.44h1.63c-.4,1.01-1.02,1.78-1.87,2.32-.85.54-1.85.81-2.99.8-.97,0-1.85-.24-2.64-.7-.79-.46-1.42-1.1-1.87-1.91s-.68-1.73-.67-2.75.24-1.94.71-2.75Z"/><path class="cls-9" d="M647.49,785.6c-.62-.35-1.11-.85-1.46-1.5-.35-.65-.52-1.4-.52-2.25s.19-1.58.56-2.22c.37-.64.87-1.13,1.5-1.48.63-.34,1.34-.51,2.12-.5s1.48.18,2.11.53c.63.35,1.12.84,1.48,1.49.36.64.54,1.39.53,2.24s-.2,1.6-.58,2.24-.89,1.14-1.53,1.48c-.64.35-1.35.52-2.13.51s-1.47-.18-2.09-.54ZM650.97,784.6c.43-.23.78-.57,1.05-1.03.27-.46.4-1.02.41-1.68s-.12-1.22-.38-1.68-.59-.81-1.01-1.03c-.42-.23-.87-.34-1.36-.35s-.96.11-1.38.33c-.42.22-.75.56-1,1.02s-.38,1.02-.39,1.68.11,1.24.36,1.7.57.81.98,1.03c.41.23.86.34,1.35.35s.95-.11,1.38-.34Z"/><path class="cls-9" d="M667.24,778.14c.5.27.89.67,1.18,1.2.29.53.43,1.18.42,1.94l-.03,4.84h-1.35s.03-4.66.03-4.66c0-.82-.19-1.45-.6-1.89-.4-.44-.95-.66-1.64-.66s-1.28.22-1.7.67-.64,1.11-.64,1.97l-.03,4.53h-1.35s.03-4.66.03-4.66c0-.82-.19-1.45-.6-1.89s-.95-.66-1.64-.66-1.28.22-1.7.67-.64,1.11-.64,1.97l-.03,4.53h-1.36s.05-8.23.05-8.23h1.36s0,1.19,0,1.19c.27-.43.64-.76,1.09-.98.46-.23.96-.34,1.51-.34.69,0,1.3.16,1.83.48.53.31.92.77,1.18,1.37.23-.58.62-1.03,1.15-1.34.53-.32,1.12-.47,1.77-.47s1.21.14,1.71.41Z"/><path class="cls-9" d="M682.69,778.23c.5.27.89.67,1.18,1.2.29.53.43,1.18.42,1.94l-.03,4.84h-1.35s.03-4.66.03-4.66c0-.82-.19-1.45-.6-1.89-.4-.44-.95-.66-1.64-.66s-1.28.22-1.7.67-.64,1.11-.64,1.97l-.03,4.53h-1.35s.03-4.66.03-4.66c0-.82-.19-1.45-.6-1.89s-.95-.66-1.64-.66-1.28.22-1.7.67-.64,1.11-.64,1.97l-.03,4.53h-1.36s.05-8.23.05-8.23h1.36s0,1.19,0,1.19c.27-.43.64-.76,1.09-.98.46-.23.96-.34,1.51-.34.69,0,1.3.16,1.83.48.53.31.92.77,1.18,1.37.23-.58.62-1.03,1.15-1.34.53-.32,1.12-.47,1.77-.47s1.21.14,1.71.41Z"/><path class="cls-9" d="M686.6,776.4c-.18-.18-.27-.4-.27-.66s.09-.48.27-.66c.18-.18.4-.27.66-.27s.46.09.64.27c.17.18.26.4.26.66s-.09.48-.27.66-.39.27-.64.27-.48-.09-.66-.27ZM687.91,778.02l-.05,8.22h-1.36s.05-8.23.05-8.23h1.36Z"/><path class="cls-9" d="M691.9,779.17l-.03,4.84c0,.4.08.68.25.85s.46.25.88.25h1s0,1.16,0,1.16h-1.23c-.76-.01-1.33-.19-1.71-.54-.38-.35-.56-.93-.56-1.73l.03-4.84h-1.07s0-1.13,0-1.13h1.07s.01-2.06.01-2.06h1.37s-.01,2.08-.01,2.08h2.14s0,1.14,0,1.14h-2.14Z"/><path class="cls-9" d="M707.29,778.39c.5.27.89.67,1.18,1.2.29.53.43,1.18.42,1.94l-.03,4.84h-1.35s.03-4.66.03-4.66c0-.82-.19-1.45-.6-1.89-.4-.44-.95-.66-1.64-.66s-1.28.22-1.7.67-.64,1.11-.64,1.97l-.03,4.53h-1.35s.03-4.66.03-4.66c0-.82-.19-1.45-.6-1.89s-.95-.66-1.64-.66-1.28.22-1.7.67-.64,1.11-.64,1.97l-.03,4.53h-1.36s.05-8.23.05-8.23h1.36s0,1.19,0,1.19c.27-.43.64-.76,1.09-.98.46-.23.96-.34,1.51-.34.69,0,1.3.16,1.83.48.53.31.92.77,1.18,1.37.23-.58.62-1.03,1.15-1.34.53-.32,1.12-.47,1.77-.47s1.21.14,1.71.41Z"/><path class="cls-9" d="M718.57,782.83l-6.57-.04c.04.81.32,1.44.82,1.9s1.11.69,1.83.69c.59,0,1.08-.13,1.48-.4.4-.27.68-.64.84-1.1h1.47c-.23.8-.67,1.44-1.33,1.93s-1.49.73-2.46.73c-.78,0-1.48-.18-2.09-.54-.61-.35-1.09-.85-1.44-1.5s-.52-1.4-.51-2.25.18-1.59.52-2.23c.34-.64.82-1.13,1.44-1.47.62-.34,1.33-.51,2.13-.5s1.47.18,2.07.52c.6.34,1.06.81,1.38,1.41.32.6.48,1.27.47,2.02,0,.26-.02.54-.05.82ZM716.88,780.37c-.23-.38-.54-.66-.93-.86-.39-.2-.83-.3-1.31-.3-.69,0-1.28.21-1.77.65-.49.44-.77,1.05-.84,1.82l5.19.03c0-.52-.11-.97-.34-1.34Z"/><path class="cls-9" d="M726.88,779.02c.62.61.92,1.48.91,2.62l-.03,4.84h-1.35s.03-4.66.03-4.66c0-.82-.2-1.45-.6-1.89s-.97-.66-1.68-.66-1.29.22-1.72.66-.64,1.1-.65,1.96l-.03,4.54h-1.36s.05-8.23.05-8.23h1.36s0,1.18,0,1.18c.27-.42.64-.74,1.11-.97.47-.23.98-.34,1.54-.34,1,0,1.81.31,2.42.92Z"/><path class="cls-9" d="M731.71,779.42l-.03,4.84c0,.4.08.68.25.85s.46.25.88.25h1s0,1.16,0,1.16h-1.23c-.76-.01-1.33-.19-1.71-.54-.38-.35-.56-.93-.56-1.73l.03-4.84h-1.07s0-1.13,0-1.13h1.07s.01-2.06.01-2.06h1.37s-.01,2.08-.01,2.08h2.14s0,1.14,0,1.14h-2.14Z"/><path class="cls-7" d="M561.29,813.89l-14.87,8.46c-1.8,1.02-4.02-.28-4.01-2.35l.11-17.11c.01-2.07,2.26-3.34,4.04-2.3l14.77,8.65c1.78,1.04,1.77,3.63-.03,4.65Z"/><path class="cls-10" d="M347.47,810.44c48.75-40.2,98.49,1.12,204.38,1.28"/><path class="cls-7" d="M560.5,157.92l-14.87,8.46c-1.8,1.02-4.02-.28-4.01-2.35l.11-17.11c.01-2.07,2.26-3.34,4.04-2.3l14.77,8.65c1.78,1.04,1.77,3.63-.03,4.65Z"/><path class="cls-10" d="M346.67,154.46c48.75-40.2,98.49,1.12,204.38,1.28"/></g></svg>