<?xml version="1.0" encoding="UTF-8"?><svg id="Layer_2" xmlns="http://www.w3.org/2000/svg" viewBox="0 0 972.45 913.13"><defs><style>.cls-1{fill:#e8e8e9;}.cls-1,.cls-2,.cls-3,.cls-4,.cls-5,.cls-6,.cls-7,.cls-8,.cls-9{stroke-width:0px;}.cls-2{fill:#5263f3;}.cls-10,.cls-11,.cls-12,.cls-13,.cls-14,.cls-15{stroke-miterlimit:10;}.cls-10,.cls-11,.cls-12,.cls-14,.cls-15{fill:none;stroke-width:2px;}.cls-10,.cls-12{stroke:#5263f3;}.cls-3{fill:#5b5b5b;}.cls-4{fill:#95a4f9;}.cls-5{fill:#171d26;}.cls-6{fill:#000;}.cls-7{fill:#f6c765;}.cls-11{stroke:#171d26;}.cls-11,.cls-12,.cls-14{stroke-linecap:round;}.cls-13{stroke:#e8e8e8;stroke-width:4px;}.cls-13,.cls-9{fill:#fff;}.cls-8{fill:#f8c3d3;}.cls-14{stroke:#abb7ff;}.cls-15{stroke:#9b9b9b;}</style></defs><g id="Layer_1-2"><rect class="cls-13" x="2" y="2" width="404.13" height="909.13" rx="20.98" ry="20.98"/><path class="cls-5" d="M77.19,65.73l-5.51,18.6h-3.45l-3.91-14.08-4.15,14.08-3.43.03-5.27-18.63h3.24l3.85,15.15,4.17-15.15h3.43l3.88,15.07,3.88-15.07h3.26Z"/><path class="cls-5" d="M82.33,83.62c-1.12-.63-2.01-1.53-2.65-2.68-.64-1.15-.96-2.48-.96-4s.33-2.83.99-3.99,1.56-2.05,2.7-2.68c1.14-.62,2.42-.94,3.83-.94s2.69.31,3.83.94,2.04,1.52,2.7,2.68c.66,1.16.99,2.49.99,3.99s-.34,2.83-1.02,3.99c-.68,1.16-1.6,2.06-2.77,2.69-1.17.63-2.46.95-3.87.95s-2.65-.32-3.77-.95ZM88.32,81.36c.69-.37,1.24-.94,1.67-1.69.43-.75.64-1.66.64-2.73s-.21-1.98-.62-2.72c-.41-.74-.96-1.3-1.63-1.67-.68-.37-1.41-.56-2.19-.56s-1.51.19-2.18.56c-.67.38-1.2.93-1.59,1.67-.39.74-.59,1.65-.59,2.72,0,1.59.41,2.81,1.22,3.68.81.87,1.83,1.3,3.06,1.3.79,0,1.52-.19,2.21-.56Z"/><path class="cls-5" d="M101.62,69.97c.74-.42,1.62-.63,2.64-.63v3.16h-.78c-1.2,0-2.1.3-2.72.91-.62.61-.92,1.66-.92,3.16v7.76h-3.05v-14.75h3.05v2.14c.45-.75,1.04-1.33,1.78-1.75Z"/><path class="cls-5" d="M112.9,76.97l6.8,7.36h-4.12l-5.46-6.34v6.34h-3.05v-19.81h3.05v11.51l5.35-6.45h4.23l-6.8,7.39Z"/><path class="cls-5" d="M129.1,70.09c.85-1.45,2-2.57,3.45-3.39,1.45-.81,3.05-1.22,4.78-1.22,1.98,0,3.74.49,5.29,1.46,1.54.97,2.66,2.35,3.36,4.13h-3.67c-.48-.98-1.15-1.71-2.01-2.19-.86-.48-1.85-.72-2.97-.72-1.23,0-2.33.28-3.29.83-.96.55-1.72,1.35-2.26,2.38s-.82,2.24-.82,3.61.27,2.58.82,3.61c.54,1.04,1.3,1.83,2.26,2.4.96.56,2.06.84,3.29.84,1.12,0,2.11-.24,2.97-.72s1.53-1.21,2.01-2.19h3.67c-.7,1.78-1.82,3.16-3.36,4.12-1.54.96-3.3,1.45-5.29,1.45-1.75,0-3.35-.41-4.79-1.22-1.45-.81-2.59-1.94-3.44-3.39s-1.27-3.08-1.27-4.9.42-3.45,1.27-4.9Z"/><path class="cls-5" d="M149.44,72.96c.62-1.14,1.45-2.03,2.52-2.66,1.06-.63,2.23-.95,3.52-.95,1.16,0,2.17.23,3.04.68.87.45,1.56,1.02,2.07,1.7v-2.14h3.08v14.75h-3.08v-2.19c-.52.7-1.22,1.28-2.11,1.74-.89.46-1.91.7-3.05.7-1.27,0-2.43-.33-3.48-.98-1.05-.65-1.89-1.56-2.5-2.73-.62-1.17-.92-2.49-.92-3.97s.31-2.79.92-3.93ZM159.96,74.29c-.42-.75-.97-1.32-1.65-1.71s-1.41-.59-2.19-.59-1.52.19-2.19.58c-.68.38-1.23.95-1.65,1.69s-.63,1.62-.63,2.64.21,1.91.63,2.68c.42.77.97,1.35,1.66,1.75.69.4,1.41.6,2.18.6s1.52-.2,2.19-.59,1.23-.97,1.65-1.73c.42-.76.63-1.65.63-2.66s-.21-1.9-.63-2.65Z"/><path class="cls-5" d="M170.73,64.53v19.81h-3.05v-19.81h3.05Z"/><path class="cls-5" d="M188.16,78.09h-11.27c.09,1.18.53,2.12,1.31,2.84.78.71,1.75,1.07,2.89,1.07,1.64,0,2.8-.69,3.48-2.06h3.29c-.45,1.36-1.25,2.47-2.42,3.33-1.17.87-2.62,1.3-4.35,1.3-1.41,0-2.67-.32-3.79-.95-1.12-.63-1.99-1.53-2.62-2.68-.63-1.15-.95-2.48-.95-4s.31-2.85.92-4c.62-1.15,1.48-2.04,2.6-2.66s2.4-.94,3.84-.94,2.63.3,3.72.91c1.09.61,1.94,1.46,2.54,2.56.61,1.1.91,2.36.91,3.79,0,.55-.04,1.05-.11,1.5ZM185.08,75.63c-.02-1.12-.42-2.02-1.2-2.7-.79-.68-1.76-1.02-2.92-1.02-1.05,0-1.95.33-2.7,1-.75.67-1.2,1.58-1.34,2.72h8.16Z"/><path class="cls-5" d="M201.82,70.07c.92.48,1.64,1.2,2.15,2.14.52.95.78,2.09.78,3.43v8.7h-3.02v-8.24c0-1.32-.33-2.33-.99-3.04-.66-.7-1.56-1.06-2.7-1.06s-2.05.35-2.72,1.06-1,1.72-1,3.04v8.24h-3.05v-14.75h3.05v1.69c.5-.61,1.14-1.08,1.91-1.42.78-.34,1.6-.51,2.48-.51,1.16,0,2.2.24,3.12.72Z"/><path class="cls-5" d="M208.54,72.96c.62-1.14,1.45-2.03,2.52-2.66,1.06-.63,2.24-.95,3.55-.95.96,0,1.91.21,2.85.63.94.42,1.68.98,2.23,1.67v-7.12h3.08v19.81h-3.08v-2.22c-.5.71-1.19,1.3-2.07,1.77-.88.46-1.9.7-3.04.7-1.29,0-2.46-.33-3.52-.98-1.06-.65-1.9-1.56-2.52-2.73-.62-1.17-.92-2.49-.92-3.97s.31-2.79.92-3.93ZM219.06,74.29c-.42-.75-.97-1.32-1.65-1.71-.68-.39-1.41-.59-2.19-.59s-1.52.19-2.2.58c-.68.38-1.23.95-1.65,1.69-.42.74-.63,1.62-.63,2.64s.21,1.91.63,2.68c.42.77.97,1.35,1.66,1.75.69.4,1.41.6,2.18.6s1.52-.2,2.19-.59c.68-.39,1.23-.97,1.65-1.73.42-.76.63-1.65.63-2.66s-.21-1.9-.63-2.65Z"/><path class="cls-5" d="M226.68,72.96c.62-1.14,1.45-2.03,2.52-2.66,1.06-.63,2.23-.95,3.52-.95,1.16,0,2.17.23,3.04.68.87.45,1.56,1.02,2.07,1.7v-2.14h3.08v14.75h-3.08v-2.19c-.52.7-1.22,1.28-2.11,1.74-.89.46-1.91.7-3.05.7-1.27,0-2.43-.33-3.48-.98-1.05-.65-1.89-1.56-2.5-2.73-.62-1.17-.92-2.49-.92-3.97s.31-2.79.92-3.93ZM237.2,74.29c-.42-.75-.97-1.32-1.65-1.71s-1.41-.59-2.19-.59-1.52.19-2.19.58c-.68.38-1.23.95-1.65,1.69s-.63,1.62-.63,2.64.21,1.91.63,2.68c.42.77.97,1.35,1.66,1.75.69.4,1.41.6,2.18.6s1.52-.2,2.19-.59,1.23-.97,1.65-1.73c.42-.76.63-1.65.63-2.66s-.21-1.9-.63-2.65Z"/><path class="cls-5" d="M249.75,69.97c.74-.42,1.62-.63,2.64-.63v3.16h-.78c-1.2,0-2.1.3-2.72.91-.62.61-.92,1.66-.92,3.16v7.76h-3.05v-14.75h3.05v2.14c.45-.75,1.04-1.33,1.78-1.75Z"/><line class="cls-11" x1="50.01" y1="99.19" x2="355.72" y2="99.19"/><line class="cls-14" x1="50.01" y1="193.12" x2="355.72" y2="193.12"/><line class="cls-14" x1="50.01" y1="287.05" x2="355.72" y2="287.05"/><line class="cls-14" x1="50.01" y1="380.98" x2="355.72" y2="380.98"/><line class="cls-14" x1="50.01" y1="474.91" x2="355.72" y2="474.91"/><line class="cls-14" x1="50.01" y1="568.84" x2="355.72" y2="568.84"/><line class="cls-14" x1="50.01" y1="662.77" x2="355.72" y2="662.77"/><line class="cls-14" x1="50.01" y1="756.7" x2="355.72" y2="756.7"/><line class="cls-14" x1="50.01" y1="850.63" x2="355.72" y2="850.63"/><rect class="cls-4" x="51.57" y="527.18" width="304.9" height="128" rx="2" ry="2"/><rect class="cls-7" x="50.69" y="387.45" width="304.9" height="80.29" rx="2" ry="2"/><rect class="cls-8" x="50.69" y="482.18" width="304.9" height="39" rx="2" ry="2"/><rect class="cls-2" x="51.69" y="763.18" width="304" height="81" rx="2" ry="2"/><rect class="cls-2" x="51.69" y="105.18" width="304" height="81" rx="2" ry="2"/><path class="cls-9" d="M70.31,121.3c-.6.57-1.51.85-2.73.85h-2.01s-.03,4.35-.03,4.35h-1.36s.07-10.46.07-10.46l3.37.02c1.18,0,2.08.3,2.69.87.61.57.91,1.31.91,2.21s-.31,1.59-.91,2.16ZM69.27,120.54c.36-.33.55-.8.55-1.41,0-1.29-.73-1.94-2.21-1.95h-2.01s-.02,3.83-.02,3.83h2.01c.76.02,1.32-.14,1.68-.47Z"/><path class="cls-9" d="M80.34,122.99l-6.57-.04c.04.81.32,1.44.82,1.9s1.11.69,1.83.69c.59,0,1.08-.13,1.48-.4.4-.27.68-.64.84-1.1h1.47c-.23.8-.67,1.44-1.33,1.93s-1.49.73-2.46.73c-.78,0-1.48-.18-2.09-.54-.61-.35-1.09-.85-1.44-1.5s-.52-1.4-.51-2.25.18-1.59.52-2.23c.34-.64.82-1.13,1.44-1.47.62-.34,1.33-.51,2.13-.5s1.47.18,2.07.52c.6.34,1.06.81,1.38,1.41.32.6.48,1.27.47,2.02,0,.26-.02.54-.05.82ZM78.64,120.53c-.23-.38-.54-.66-.93-.86-.39-.2-.83-.3-1.31-.3-.69,0-1.28.21-1.77.65-.49.44-.77,1.05-.84,1.82l5.19.03c0-.52-.11-.97-.34-1.34Z"/><path class="cls-9" d="M84.6,118.64c.45-.26.99-.38,1.63-.38v1.41s-.37,0-.37,0c-1.53,0-2.3.82-2.31,2.48l-.03,4.47h-1.36s.05-8.23.05-8.23h1.36s0,1.34,0,1.34c.24-.47.59-.83,1.04-1.09Z"/><path class="cls-9" d="M88.97,126.46c-.5-.22-.89-.52-1.18-.91-.29-.39-.44-.83-.47-1.33h1.41c.04.42.23.76.57,1.02s.8.4,1.35.4c.52,0,.93-.11,1.23-.34s.45-.52.46-.87-.16-.63-.48-.81-.81-.35-1.48-.53c-.61-.16-1.11-.33-1.49-.5s-.71-.41-.99-.74c-.27-.33-.41-.75-.4-1.28,0-.42.13-.8.38-1.15.25-.35.61-.62,1.07-.83.46-.2.99-.3,1.58-.3.91,0,1.64.24,2.2.7.56.46.85,1.1.89,1.9h-1.37c-.03-.44-.2-.79-.51-1.05-.31-.26-.73-.39-1.27-.4-.49,0-.88.1-1.17.31s-.44.48-.44.82c0,.27.08.49.26.67.17.18.39.32.66.42s.63.23,1.1.36c.59.16,1.07.32,1.44.48.37.16.69.39.95.7s.4.72.41,1.22c0,.45-.13.85-.38,1.21-.25.36-.61.64-1.06.84s-.98.3-1.57.3c-.63,0-1.19-.12-1.69-.33Z"/><path class="cls-9" d="M97.08,126.3c-.62-.35-1.11-.85-1.46-1.5-.35-.65-.52-1.4-.52-2.25s.19-1.58.56-2.22c.37-.64.87-1.13,1.5-1.48.63-.34,1.34-.51,2.12-.5s1.48.18,2.11.53c.63.35,1.12.84,1.48,1.49.36.64.54,1.39.53,2.24s-.2,1.6-.58,2.24-.89,1.14-1.53,1.48c-.64.35-1.35.52-2.13.51s-1.47-.18-2.09-.54ZM100.56,125.31c.43-.23.78-.57,1.05-1.03.27-.46.4-1.02.41-1.68s-.12-1.22-.38-1.68-.59-.81-1.01-1.03c-.42-.23-.87-.34-1.36-.35s-.96.11-1.38.33c-.42.22-.75.56-1,1.02s-.38,1.02-.39,1.68.11,1.24.36,1.7.57.81.98,1.03c.41.23.86.34,1.35.35s.95-.11,1.38-.34Z"/><path class="cls-9" d="M111.67,119.32c.62.61.92,1.48.91,2.62l-.03,4.84h-1.35s.03-4.66.03-4.66c0-.82-.2-1.45-.6-1.89s-.97-.66-1.68-.66-1.29.22-1.72.66-.64,1.1-.65,1.96l-.03,4.54h-1.36s.05-8.23.05-8.23h1.36s0,1.18,0,1.18c.27-.42.64-.74,1.11-.97.47-.23.98-.34,1.54-.34,1,0,1.81.31,2.42.92Z"/><path class="cls-9" d="M114.82,120.45c.34-.63.81-1.12,1.41-1.47.6-.35,1.26-.52,1.99-.51s1.34.16,1.87.48.92.71,1.18,1.18v-1.5s1.39,0,1.39,0l-.05,8.22h-1.38s0-1.54,0-1.54c-.27.48-.68.87-1.22,1.19-.54.31-1.16.46-1.87.46s-1.39-.19-1.98-.55-1.05-.87-1.39-1.52c-.34-.65-.5-1.39-.5-2.22s.18-1.58.52-2.21ZM120.89,121.1c-.25-.46-.58-.82-1.01-1.06-.42-.25-.89-.37-1.4-.38s-.98.11-1.4.35c-.42.24-.76.59-1.01,1.04s-.38,1-.39,1.62.12,1.18.36,1.64.58.82,1,1.07c.42.25.88.37,1.39.38s.98-.12,1.4-.36c.43-.24.77-.59,1.02-1.06.25-.46.38-1.01.39-1.63s-.12-1.16-.36-1.62Z"/><path class="cls-9" d="M126.36,115.78l-.07,11.1h-1.36s.07-11.11.07-11.11h1.36Z"/><path class="cls-9" d="M132.85,118.93c.47-.81,1.1-1.45,1.89-1.9s1.68-.68,2.65-.67c1.14,0,2.13.29,2.98.84.85.56,1.46,1.34,1.85,2.35h-1.63c-.29-.64-.7-1.13-1.24-1.47s-1.19-.52-1.95-.52-1.39.16-1.97.5c-.58.34-1.04.82-1.37,1.44-.33.62-.5,1.35-.51,2.19s.16,1.56.48,2.19c.33.63.78,1.11,1.36,1.46.58.34,1.23.52,1.96.52s1.41-.16,1.96-.49.97-.81,1.26-1.44h1.63c-.4,1.01-1.02,1.78-1.87,2.32-.85.54-1.85.81-2.99.8-.97,0-1.85-.24-2.64-.7-.79-.46-1.42-1.1-1.87-1.91s-.68-1.73-.67-2.75.24-1.94.71-2.75Z"/><path class="cls-9" d="M145.69,126.61c-.62-.35-1.11-.85-1.46-1.5-.35-.65-.52-1.4-.52-2.25s.19-1.58.56-2.22c.37-.64.87-1.13,1.5-1.48.63-.34,1.34-.51,2.12-.5s1.48.18,2.11.53c.63.35,1.12.84,1.48,1.49.36.64.54,1.39.53,2.24,0,.85-.2,1.6-.58,2.24s-.89,1.14-1.53,1.48c-.64.35-1.35.52-2.13.51s-1.47-.18-2.09-.54ZM149.17,125.61c.43-.23.78-.57,1.05-1.03.27-.46.4-1.02.41-1.68s-.12-1.22-.38-1.68-.59-.81-1.01-1.03c-.42-.23-.87-.34-1.36-.35s-.96.11-1.38.33c-.42.22-.75.56-1,1.02s-.38,1.02-.39,1.68.11,1.24.36,1.7.57.81.98,1.03c.41.23.86.34,1.35.35s.95-.11,1.38-.34Z"/><path class="cls-9" d="M165.44,119.15c.5.27.89.67,1.18,1.2.29.53.43,1.18.42,1.94l-.03,4.84h-1.35s.03-4.66.03-4.66c0-.82-.19-1.45-.6-1.89-.4-.44-.95-.66-1.64-.66s-1.28.22-1.7.67-.64,1.11-.64,1.97l-.03,4.53h-1.35s.03-4.66.03-4.66c0-.82-.19-1.45-.6-1.89s-.95-.66-1.64-.66-1.28.22-1.7.67-.64,1.11-.64,1.97l-.03,4.53h-1.36s.05-8.23.05-8.23h1.36s0,1.19,0,1.19c.27-.43.64-.76,1.09-.98.46-.23.96-.34,1.51-.34.69,0,1.3.16,1.83.48.53.31.92.77,1.18,1.37.23-.58.62-1.03,1.15-1.34.53-.32,1.12-.47,1.77-.47s1.21.14,1.71.41Z"/><path class="cls-9" d="M180.89,119.25c.5.27.89.67,1.18,1.2.29.53.43,1.18.42,1.94l-.03,4.84h-1.35s.03-4.66.03-4.66c0-.82-.19-1.45-.6-1.89-.4-.44-.95-.66-1.64-.66s-1.28.22-1.7.67-.64,1.11-.64,1.97l-.03,4.53h-1.35s.03-4.66.03-4.66c0-.82-.19-1.45-.6-1.89s-.95-.66-1.64-.66-1.28.22-1.7.67-.64,1.11-.64,1.97l-.03,4.53h-1.36s.05-8.23.05-8.23h1.36s0,1.19,0,1.19c.27-.43.64-.76,1.09-.98.46-.23.96-.34,1.51-.34.69,0,1.3.16,1.83.48.53.31.92.77,1.18,1.37.23-.58.62-1.03,1.15-1.34.53-.32,1.12-.47,1.77-.47s1.21.14,1.71.41Z"/><path class="cls-9" d="M184.8,117.42c-.18-.18-.27-.4-.27-.66s.09-.48.27-.66c.18-.18.4-.27.66-.27s.46.09.64.27c.17.18.26.4.26.66s-.09.48-.27.66-.39.27-.64.27-.48-.09-.66-.27ZM186.11,119.03l-.05,8.22h-1.36s.05-8.23.05-8.23h1.36Z"/><path class="cls-9" d="M190.09,120.18l-.03,4.84c0,.4.08.68.25.85s.46.25.88.25h1s0,1.16,0,1.16h-1.23c-.76-.01-1.33-.19-1.71-.54-.38-.35-.56-.93-.56-1.73l.03-4.84h-1.07s0-1.13,0-1.13h1.07s.01-2.06.01-2.06h1.37s-.01,2.08-.01,2.08h2.14s0,1.14,0,1.14h-2.14Z"/><path class="cls-9" d="M205.49,119.4c.5.27.89.67,1.18,1.2.29.53.43,1.18.42,1.94l-.03,4.84h-1.35s.03-4.66.03-4.66c0-.82-.19-1.45-.6-1.89-.4-.44-.95-.66-1.64-.66s-1.28.22-1.7.67-.64,1.11-.64,1.97l-.03,4.53h-1.35s.03-4.66.03-4.66c0-.82-.19-1.45-.6-1.89s-.95-.66-1.64-.66-1.28.22-1.7.67-.64,1.11-.64,1.97l-.03,4.53h-1.36s.05-8.23.05-8.23h1.36s0,1.19,0,1.19c.27-.43.64-.76,1.09-.98.46-.23.96-.34,1.51-.34.69,0,1.3.16,1.83.48.53.31.92.77,1.18,1.37.23-.58.62-1.03,1.15-1.34.53-.32,1.12-.47,1.77-.47s1.21.14,1.71.41Z"/><path class="cls-9" d="M216.77,123.84l-6.57-.04c.04.81.32,1.44.82,1.9s1.11.69,1.83.69c.59,0,1.08-.13,1.48-.4.4-.27.68-.64.84-1.1h1.47c-.23.8-.67,1.44-1.33,1.93s-1.49.73-2.46.73c-.78,0-1.48-.18-2.09-.54-.61-.35-1.09-.85-1.44-1.5s-.52-1.4-.51-2.25.18-1.59.52-2.23c.34-.64.82-1.13,1.44-1.47.62-.34,1.33-.51,2.13-.5s1.47.18,2.07.52c.6.34,1.06.81,1.38,1.41.32.6.48,1.27.47,2.02,0,.26-.02.54-.05.82ZM215.08,121.38c-.23-.38-.54-.66-.93-.86-.39-.2-.83-.3-1.31-.3-.69,0-1.28.21-1.77.65-.49.44-.77,1.05-.84,1.82l5.19.03c0-.52-.11-.97-.34-1.34Z"/><path class="cls-9" d="M225.08,120.03c.62.61.92,1.48.91,2.62l-.03,4.84h-1.35s.03-4.66.03-4.66c0-.82-.2-1.45-.6-1.89s-.97-.66-1.68-.66-1.29.22-1.72.66-.64,1.1-.65,1.96l-.03,4.54h-1.36s.05-8.23.05-8.23h1.36s0,1.18,0,1.18c.27-.42.64-.74,1.11-.97.47-.23.98-.34,1.54-.34,1,0,1.81.31,2.42.92Z"/><path class="cls-9" d="M229.9,120.43l-.03,4.84c0,.4.08.68.25.85s.46.25.88.25h1s0,1.16,0,1.16h-1.23c-.76-.01-1.33-.19-1.71-.54-.38-.35-.56-.93-.56-1.73l.03-4.84h-1.07s0-1.13,0-1.13h1.07s.01-2.06.01-2.06h1.37s-.01,2.08-.01,2.08h2.14s0,1.14,0,1.14h-2.14Z"/><path class="cls-9" d="M71.11,780.29c-.6.57-1.51.85-2.73.85h-2.01s-.03,4.35-.03,4.35h-1.36s.07-10.46.07-10.46l3.37.02c1.18,0,2.08.3,2.69.87.61.57.91,1.31.91,2.21s-.31,1.59-.91,2.16ZM70.07,779.52c.36-.33.55-.8.55-1.41,0-1.29-.73-1.94-2.21-1.95h-2.01s-.02,3.83-.02,3.83h2.01c.76.02,1.32-.14,1.68-.47Z"/><path class="cls-9" d="M81.14,781.98l-6.57-.04c.04.81.32,1.44.82,1.9s1.11.69,1.83.69c.59,0,1.08-.13,1.48-.4.4-.27.68-.64.84-1.1h1.47c-.23.8-.67,1.44-1.33,1.93s-1.49.73-2.46.73c-.78,0-1.48-.18-2.09-.54-.61-.35-1.09-.85-1.44-1.5s-.52-1.4-.51-2.25.18-1.59.52-2.23c.34-.64.82-1.13,1.44-1.47.62-.34,1.33-.51,2.13-.5s1.47.18,2.07.52c.6.34,1.06.81,1.38,1.41.32.6.48,1.27.47,2.02,0,.26-.02.54-.05.82ZM79.45,779.51c-.23-.38-.54-.66-.93-.86-.39-.2-.83-.3-1.31-.3-.69,0-1.28.21-1.77.65-.49.44-.77,1.05-.84,1.82l5.19.03c0-.52-.11-.97-.34-1.34Z"/><path class="cls-9" d="M85.4,777.62c.45-.26.99-.38,1.63-.38v1.41s-.37,0-.37,0c-1.53,0-2.3.82-2.31,2.48l-.03,4.47h-1.36s.05-8.23.05-8.23h1.36s0,1.34,0,1.34c.24-.47.59-.83,1.04-1.09Z"/><path class="cls-9" d="M89.77,785.44c-.5-.22-.89-.52-1.18-.91-.29-.39-.44-.83-.47-1.33h1.41c.04.42.23.76.57,1.02s.8.4,1.35.4c.52,0,.93-.11,1.23-.34s.45-.52.46-.87-.16-.63-.48-.81-.81-.35-1.48-.53c-.61-.16-1.11-.33-1.49-.5s-.71-.41-.99-.74c-.27-.33-.41-.75-.4-1.28,0-.42.13-.8.38-1.15.25-.35.61-.62,1.07-.83.46-.2.99-.3,1.58-.3.91,0,1.64.24,2.2.7.56.46.85,1.1.89,1.9h-1.37c-.03-.44-.2-.79-.51-1.05-.31-.26-.73-.39-1.27-.4-.49,0-.88.1-1.17.31s-.44.48-.44.82c0,.27.08.49.26.67.17.18.39.32.66.42s.63.23,1.1.36c.59.16,1.07.32,1.44.48.37.16.69.39.95.7s.4.72.41,1.22c0,.45-.13.85-.38,1.21-.25.36-.61.64-1.06.84s-.98.3-1.57.3c-.63,0-1.19-.12-1.69-.33Z"/><path class="cls-9" d="M97.88,785.29c-.62-.35-1.11-.85-1.46-1.5-.35-.65-.52-1.4-.52-2.25s.19-1.58.56-2.22c.37-.64.87-1.13,1.5-1.48.63-.34,1.34-.51,2.12-.5s1.48.18,2.11.53c.63.35,1.12.84,1.48,1.49.36.64.54,1.39.53,2.24s-.2,1.6-.58,2.24-.89,1.14-1.53,1.48c-.64.35-1.35.52-2.13.51s-1.47-.18-2.09-.54ZM101.36,784.29c.43-.23.78-.57,1.05-1.03.27-.46.4-1.02.41-1.68s-.12-1.22-.38-1.68-.59-.81-1.01-1.03c-.42-.23-.87-.34-1.36-.35s-.96.11-1.38.33c-.42.22-.75.56-1,1.02s-.38,1.02-.39,1.68.11,1.24.36,1.7.57.81.98,1.03c.41.23.86.34,1.35.35s.95-.11,1.38-.34Z"/><path class="cls-9" d="M112.47,778.31c.62.61.92,1.48.91,2.62l-.03,4.84h-1.35s.03-4.66.03-4.66c0-.82-.2-1.45-.6-1.89s-.97-.66-1.68-.66-1.29.22-1.72.66-.64,1.1-.65,1.96l-.03,4.54h-1.36s.05-8.23.05-8.23h1.36s0,1.18,0,1.18c.27-.42.64-.74,1.11-.97.47-.23.98-.34,1.54-.34,1,0,1.81.31,2.42.92Z"/><path class="cls-9" d="M115.63,779.44c.34-.63.81-1.12,1.41-1.47.6-.35,1.26-.52,1.99-.51s1.34.16,1.87.48.92.71,1.18,1.18v-1.5s1.39,0,1.39,0l-.05,8.22h-1.38s0-1.54,0-1.54c-.27.48-.68.87-1.22,1.19-.54.31-1.16.46-1.87.46s-1.39-.19-1.98-.55-1.05-.87-1.39-1.52c-.34-.65-.5-1.39-.5-2.22s.18-1.58.52-2.21ZM121.7,780.08c-.25-.46-.58-.82-1.01-1.06-.42-.25-.89-.37-1.4-.38s-.98.11-1.4.35c-.42.24-.76.59-1.01,1.04s-.38,1-.39,1.62.12,1.18.36,1.64.58.82,1,1.07c.42.25.88.37,1.39.38s.98-.12,1.4-.36c.43-.24.77-.59,1.02-1.06.25-.46.38-1.01.39-1.63s-.12-1.16-.36-1.62Z"/><path class="cls-9" d="M127.16,774.76l-.07,11.1h-1.36s.07-11.11.07-11.11h1.36Z"/><path class="cls-9" d="M133.65,777.92c.47-.81,1.1-1.45,1.89-1.9s1.68-.68,2.65-.67c1.14,0,2.13.29,2.98.84.85.56,1.46,1.34,1.85,2.35h-1.63c-.29-.64-.7-1.13-1.24-1.47s-1.19-.52-1.95-.52-1.39.16-1.97.5c-.58.34-1.04.82-1.37,1.44-.33.62-.5,1.35-.51,2.19s.16,1.56.48,2.19c.33.63.78,1.11,1.36,1.46.58.34,1.23.52,1.96.52s1.41-.16,1.96-.49.97-.81,1.26-1.44h1.63c-.4,1.01-1.02,1.78-1.87,2.32-.85.54-1.85.81-2.99.8-.97,0-1.85-.24-2.64-.7-.79-.46-1.42-1.1-1.87-1.91s-.68-1.73-.67-2.75.24-1.94.71-2.75Z"/><path class="cls-9" d="M146.49,785.6c-.62-.35-1.11-.85-1.46-1.5-.35-.65-.52-1.4-.52-2.25s.19-1.58.56-2.22c.37-.64.87-1.13,1.5-1.48.63-.34,1.34-.51,2.12-.5s1.48.18,2.11.53c.63.35,1.12.84,1.48,1.49.36.64.54,1.39.53,2.24s-.2,1.6-.58,2.24-.89,1.14-1.53,1.48c-.64.35-1.35.52-2.13.51s-1.47-.18-2.09-.54ZM149.97,784.6c.43-.23.78-.57,1.05-1.03.27-.46.4-1.02.41-1.68s-.12-1.22-.38-1.68-.59-.81-1.01-1.03c-.42-.23-.87-.34-1.36-.35s-.96.11-1.38.33c-.42.22-.75.56-1,1.02s-.38,1.02-.39,1.68.11,1.24.36,1.7.57.81.98,1.03c.41.23.86.34,1.35.35s.95-.11,1.38-.34Z"/><path class="cls-9" d="M166.24,778.14c.5.27.89.67,1.18,1.2.29.53.43,1.18.42,1.94l-.03,4.84h-1.35s.03-4.66.03-4.66c0-.82-.19-1.45-.6-1.89-.4-.44-.95-.66-1.64-.66s-1.28.22-1.7.67-.64,1.11-.64,1.97l-.03,4.53h-1.35s.03-4.66.03-4.66c0-.82-.19-1.45-.6-1.89s-.95-.66-1.64-.66-1.28.22-1.7.67-.64,1.11-.64,1.97l-.03,4.53h-1.36s.05-8.23.05-8.23h1.36s0,1.19,0,1.19c.27-.43.64-.76,1.09-.98.46-.23.96-.34,1.51-.34.69,0,1.3.16,1.83.48.53.31.92.77,1.18,1.37.23-.58.62-1.03,1.15-1.34.53-.32,1.12-.47,1.77-.47s1.21.14,1.71.41Z"/><path class="cls-9" d="M181.69,778.23c.5.27.89.67,1.18,1.2.29.53.43,1.18.42,1.94l-.03,4.84h-1.35s.03-4.66.03-4.66c0-.82-.19-1.45-.6-1.89-.4-.44-.95-.66-1.64-.66s-1.28.22-1.7.67-.64,1.11-.64,1.97l-.03,4.53h-1.35s.03-4.66.03-4.66c0-.82-.19-1.45-.6-1.89s-.95-.66-1.64-.66-1.28.22-1.7.67-.64,1.11-.64,1.97l-.03,4.53h-1.36s.05-8.23.05-8.23h1.36s0,1.19,0,1.19c.27-.43.64-.76,1.09-.98.46-.23.96-.34,1.51-.34.69,0,1.3.16,1.83.48.53.31.92.77,1.18,1.37.23-.58.62-1.03,1.15-1.34.53-.32,1.12-.47,1.77-.47s1.21.14,1.71.41Z"/><path class="cls-9" d="M185.6,776.4c-.18-.18-.27-.4-.27-.66s.09-.48.27-.66c.18-.18.4-.27.66-.27s.46.09.64.27c.17.18.26.4.26.66s-.09.48-.27.66-.39.27-.64.27-.48-.09-.66-.27ZM186.91,778.02l-.05,8.22h-1.36s.05-8.23.05-8.23h1.36Z"/><path class="cls-9" d="M190.9,779.17l-.03,4.84c0,.4.08.68.25.85s.46.25.88.25h1s0,1.16,0,1.16h-1.23c-.76-.01-1.33-.19-1.71-.54-.38-.35-.56-.93-.56-1.73l.03-4.84h-1.07s0-1.13,0-1.13h1.07s.01-2.06.01-2.06h1.37s-.01,2.08-.01,2.08h2.14s0,1.14,0,1.14h-2.14Z"/><path class="cls-9" d="M206.29,778.39c.5.27.89.67,1.18,1.2.29.53.43,1.18.42,1.94l-.03,4.84h-1.35s.03-4.66.03-4.66c0-.82-.19-1.45-.6-1.89-.4-.44-.95-.66-1.64-.66s-1.28.22-1.7.67-.64,1.11-.64,1.97l-.03,4.53h-1.35s.03-4.66.03-4.66c0-.82-.19-1.45-.6-1.89s-.95-.66-1.64-.66-1.28.22-1.7.67-.64,1.11-.64,1.97l-.03,4.53h-1.36s.05-8.23.05-8.23h1.36s0,1.19,0,1.19c.27-.43.64-.76,1.09-.98.46-.23.96-.34,1.51-.34.69,0,1.3.16,1.83.48.53.31.92.77,1.18,1.37.23-.58.62-1.03,1.15-1.34.53-.32,1.12-.47,1.77-.47s1.21.14,1.71.41Z"/><path class="cls-9" d="M217.57,782.83l-6.57-.04c.04.81.32,1.44.82,1.9s1.11.69,1.83.69c.59,0,1.08-.13,1.48-.4.4-.27.68-.64.84-1.1h1.47c-.23.8-.67,1.44-1.33,1.93s-1.49.73-2.46.73c-.78,0-1.48-.18-2.09-.54-.61-.35-1.09-.85-1.44-1.5s-.52-1.4-.51-2.25.18-1.59.52-2.23c.34-.64.82-1.13,1.44-1.47.62-.34,1.33-.51,2.13-.5s1.47.18,2.07.52c.6.34,1.06.81,1.38,1.41.32.6.48,1.27.47,2.02,0,.26-.02.54-.05.82ZM215.88,780.37c-.23-.38-.54-.66-.93-.86-.39-.2-.83-.3-1.31-.3-.69,0-1.28.21-1.77.65-.49.44-.77,1.05-.84,1.82l5.19.03c0-.52-.11-.97-.34-1.34Z"/><path class="cls-9" d="M225.88,779.02c.62.61.92,1.48.91,2.62l-.03,4.84h-1.35s.03-4.66.03-4.66c0-.82-.2-1.45-.6-1.89s-.97-.66-1.68-.66-1.29.22-1.72.66-.64,1.1-.65,1.96l-.03,4.54h-1.36s.05-8.23.05-8.23h1.36s0,1.18,0,1.18c.27-.42.64-.74,1.11-.97.47-.23.98-.34,1.54-.34,1,0,1.81.31,2.42.92Z"/><path class="cls-9" d="M230.71,779.42l-.03,4.84c0,.4.08.68.25.85s.46.25.88.25h1s0,1.16,0,1.16h-1.23c-.76-.01-1.33-.19-1.71-.54-.38-.35-.56-.93-.56-1.73l.03-4.84h-1.07s0-1.13,0-1.13h1.07s.01-2.06.01-2.06h1.37s-.01,2.08-.01,2.08h2.14s0,1.14,0,1.14h-2.14Z"/><rect class="cls-13" x="271.15" y="145.18" width="699.3" height="657" rx="20.98" ry="20.98"/><path class="cls-6" d="M365.95,353.14l-6.08,16.18h-3.07l-6.1-16.18h2.84l4.8,13.45,4.82-13.45h2.79Z"/><path class="cls-6" d="M368.3,354.3c-.33-.33-.49-.73-.49-1.21s.16-.88.49-1.21c.33-.33.73-.49,1.21-.49s.86.16,1.19.49c.33.33.49.73.49,1.21s-.16.88-.49,1.21c-.33.33-.72.49-1.19.49s-.88-.16-1.21-.49ZM370.81,356.49v12.83h-2.65v-12.83h2.65Z"/><path class="cls-6" d="M376.24,368.98c-.8-.36-1.43-.86-1.9-1.49-.47-.63-.71-1.33-.74-2.11h2.75c.05.54.31,1,.78,1.36.47.36,1.07.55,1.78.55s1.32-.14,1.73-.43.62-.66.62-1.11c0-.48-.23-.84-.69-1.07s-1.18-.49-2.18-.77c-.96-.26-1.75-.52-2.35-.77-.61-.25-1.13-.63-1.57-1.14-.44-.51-.66-1.19-.66-2.03,0-.68.2-1.31.6-1.87.4-.57.98-1.01,1.73-1.34.75-.33,1.62-.49,2.59-.49,1.46,0,2.63.37,3.53,1.11.89.74,1.37,1.74,1.43,3.01h-2.65c-.05-.57-.28-1.03-.7-1.37-.42-.34-.99-.51-1.7-.51s-1.23.13-1.61.4c-.37.26-.56.61-.56,1.05,0,.34.12.63.37.86.25.23.55.42.91.55.36.13.88.3,1.58.5.93.25,1.7.5,2.29.76.6.26,1.11.63,1.55,1.13.43.5.66,1.16.68,1.98,0,.73-.2,1.38-.61,1.96-.4.57-.97,1.02-1.71,1.35-.74.33-1.6.49-2.6.49s-1.91-.18-2.71-.55Z"/><path class="cls-6" d="M386.87,354.3c-.33-.33-.49-.73-.49-1.21s.16-.88.49-1.21c.33-.33.73-.49,1.21-.49s.86.16,1.19.49c.33.33.49.73.49,1.21s-.16.88-.49,1.21c-.33.33-.72.49-1.19.49s-.88-.16-1.21-.49ZM389.38,356.49v12.83h-2.65v-12.83h2.65Z"/><path class="cls-6" d="M397.38,356.88c.78-.4,1.66-.59,2.62-.59,1.13,0,2.16.27,3.07.81.92.54,1.64,1.32,2.16,2.32.53,1,.79,2.15.79,3.43s-.26,2.44-.79,3.46c-.53,1.02-1.25,1.81-2.18,2.37-.92.57-1.94.85-3.06.85-.99,0-1.87-.19-2.64-.58-.77-.39-1.38-.88-1.83-1.49v1.86h-2.65v-17.22h2.65v6.31c.45-.62,1.07-1.13,1.85-1.53ZM402.78,360.55c-.36-.64-.85-1.13-1.44-1.47-.6-.33-1.24-.5-1.92-.5s-1.3.17-1.9.51c-.6.34-1.08.84-1.44,1.49s-.55,1.42-.55,2.3.18,1.66.55,2.32c.36.66.85,1.16,1.44,1.5.6.34,1.23.51,1.9.51s1.32-.17,1.92-.52c.6-.35,1.08-.86,1.44-1.52.36-.67.55-1.44.55-2.33s-.18-1.65-.55-2.29Z"/><path class="cls-6" d="M408.8,354.3c-.33-.33-.49-.73-.49-1.21s.16-.88.49-1.21c.33-.33.73-.49,1.21-.49s.86.16,1.19.49c.33.33.49.73.49,1.21s-.16.88-.49,1.21c-.33.33-.72.49-1.19.49s-.88-.16-1.21-.49ZM411.31,356.49v12.83h-2.65v-12.83h2.65Z"/><path class="cls-6" d="M417.46,352.09v17.22h-2.65v-17.22h2.65Z"/><path class="cls-6" d="M421.09,354.3c-.33-.33-.49-.73-.49-1.21s.16-.88.49-1.21c.33-.33.73-.49,1.21-.49s.86.16,1.19.49c.33.33.49.73.49,1.21s-.16.88-.49,1.21c-.33.33-.72.49-1.19.49s-.88-.16-1.21-.49ZM423.6,356.49v12.83h-2.65v-12.83h2.65Z"/><path class="cls-6" d="M430.19,358.66v7.1c0,.48.11.83.34,1.04.23.21.61.31,1.15.31h1.63v2.21h-2.1c-1.2,0-2.11-.28-2.75-.84-.64-.56-.95-1.47-.95-2.72v-7.1h-1.51v-2.17h1.51v-3.19h2.68v3.19h3.12v2.17h-3.12Z"/><path class="cls-6" d="M447.29,356.49l-7.87,18.85h-2.75l2.61-6.24-5.05-12.62h2.96l3.61,9.78,3.75-9.78h2.75Z"/><path class="cls-6" d="M362.73,309.5c-.39.73-1.01,1.32-1.86,1.78s-1.95.69-3.28.69h-2.93v6.56h-2.65v-16.18h5.59c1.24,0,2.29.21,3.15.64.86.43,1.5,1.01,1.93,1.73.43.73.64,1.54.64,2.44,0,.82-.19,1.6-.58,2.33ZM359.85,309.12c.5-.46.74-1.11.74-1.94,0-1.77-1-2.65-3-2.65h-2.93v5.28h2.93c1.01,0,1.76-.23,2.26-.69Z"/><path class="cls-6" d="M377.51,313.11h-9.8c.08,1.02.46,1.85,1.14,2.47.68.62,1.52.93,2.51.93,1.43,0,2.44-.6,3.03-1.79h2.86c-.39,1.18-1.09,2.15-2.11,2.9-1.02.75-2.28,1.13-3.78,1.13-1.23,0-2.32-.27-3.29-.83-.97-.55-1.73-1.33-2.28-2.33-.55-1-.83-2.16-.83-3.48s.27-2.48.8-3.48c.54-1,1.29-1.77,2.26-2.32.97-.54,2.08-.81,3.34-.81s2.29.26,3.24.79c.95.53,1.68,1.27,2.21,2.22.53.95.79,2.05.79,3.29,0,.48-.03.92-.09,1.3ZM374.84,310.97c-.02-.98-.36-1.76-1.05-2.35-.68-.59-1.53-.88-2.54-.88-.92,0-1.7.29-2.35.87-.65.58-1.04,1.37-1.16,2.36h7.1Z"/><path class="cls-6" d="M384.42,306.04c.64-.36,1.41-.55,2.29-.55v2.75h-.67c-1.04,0-1.83.26-2.36.79-.54.53-.8,1.44-.8,2.75v6.75h-2.65v-12.83h2.65v1.86c.39-.65.9-1.16,1.55-1.53Z"/><path class="cls-6" d="M391.1,318.19c-.8-.36-1.43-.86-1.9-1.49-.47-.63-.71-1.33-.74-2.11h2.75c.05.54.31,1,.78,1.36.47.36,1.07.55,1.78.55s1.32-.14,1.73-.43.62-.66.62-1.11c0-.48-.23-.84-.69-1.07s-1.18-.49-2.18-.77c-.96-.26-1.75-.52-2.35-.77-.61-.25-1.13-.63-1.57-1.14-.44-.51-.66-1.19-.66-2.03,0-.68.2-1.31.6-1.87.4-.57.98-1.01,1.73-1.34.75-.33,1.62-.49,2.59-.49,1.46,0,2.63.37,3.53,1.11.89.74,1.37,1.74,1.43,3.01h-2.65c-.05-.57-.28-1.03-.7-1.37-.42-.34-.99-.51-1.7-.51s-1.23.13-1.61.4c-.37.26-.56.61-.56,1.05,0,.34.12.63.37.86.25.23.55.42.91.55.36.13.88.3,1.58.5.93.25,1.7.5,2.29.76.6.26,1.11.63,1.55,1.13.43.5.66,1.16.68,1.98,0,.73-.2,1.38-.61,1.96-.4.57-.97,1.02-1.71,1.35-.74.33-1.6.49-2.6.49s-1.91-.18-2.71-.55Z"/><path class="cls-6" d="M403.86,317.91c-.98-.55-1.75-1.33-2.3-2.33-.56-1-.84-2.16-.84-3.48s.29-2.46.86-3.47c.57-1.01,1.36-1.78,2.35-2.33.99-.54,2.1-.81,3.33-.81s2.34.27,3.33.81c.99.54,1.78,1.32,2.35,2.33.57,1.01.86,2.16.86,3.47s-.3,2.46-.88,3.47c-.59,1.01-1.39,1.79-2.41,2.34-1.02.55-2.14.83-3.36.83s-2.3-.27-3.28-.83ZM409.06,315.95c.6-.33,1.08-.81,1.45-1.47.37-.65.56-1.44.56-2.37s-.18-1.72-.54-2.36c-.36-.64-.83-1.13-1.42-1.45-.59-.33-1.23-.49-1.91-.49s-1.31.16-1.9.49c-.58.33-1.04.81-1.38,1.45-.34.64-.51,1.43-.51,2.36,0,1.38.35,2.45,1.06,3.2.71.75,1.6,1.13,2.67,1.13.68,0,1.32-.16,1.92-.49Z"/><path class="cls-6" d="M425.61,306.12c.8.42,1.42,1.04,1.87,1.86.45.82.68,1.82.68,2.98v7.56h-2.63v-7.17c0-1.15-.29-2.03-.86-2.64-.57-.61-1.36-.92-2.35-.92s-1.78.31-2.36.92c-.58.61-.87,1.49-.87,2.64v7.17h-2.65v-12.83h2.65v1.47c.43-.53.99-.94,1.66-1.23.67-.29,1.39-.44,2.15-.44,1.01,0,1.91.21,2.71.63Z"/><path class="cls-6" d="M431.46,308.64c.54-.99,1.26-1.76,2.19-2.32.92-.55,1.94-.83,3.06-.83,1.01,0,1.89.2,2.64.59.75.4,1.35.89,1.8,1.48v-1.86h2.68v12.83h-2.68v-1.91c-.45.61-1.06,1.11-1.84,1.51s-1.66.6-2.65.6c-1.1,0-2.11-.28-3.03-.85-.92-.57-1.64-1.36-2.18-2.37-.54-1.02-.8-2.17-.8-3.46s.27-2.43.8-3.42ZM440.6,309.8c-.36-.65-.84-1.15-1.43-1.49-.59-.34-1.23-.51-1.91-.51s-1.32.17-1.91.5c-.59.33-1.07.82-1.43,1.47-.36.64-.55,1.41-.55,2.29s.18,1.66.55,2.33c.36.67.85,1.18,1.44,1.52s1.23.52,1.9.52,1.32-.17,1.91-.51c.59-.34,1.07-.84,1.43-1.5.36-.66.55-1.43.55-2.32s-.18-1.65-.55-2.3Z"/><path class="cls-6" d="M449.97,301.31v17.22h-2.65v-17.22h2.65Z"/><path class="cls-6" d="M459.74,306.15c.74-1.26,1.74-2.24,3-2.94,1.26-.71,2.65-1.06,4.15-1.06,1.72,0,3.25.42,4.6,1.27s2.32,2.04,2.92,3.6h-3.19c-.42-.85-1-1.49-1.75-1.91-.74-.42-1.61-.63-2.58-.63-1.07,0-2.03.24-2.86.72-.84.48-1.49,1.17-1.97,2.07s-.71,1.95-.71,3.14.24,2.24.71,3.14c.47.9,1.13,1.59,1.97,2.08s1.79.73,2.86.73c.98,0,1.84-.21,2.58-.63.74-.42,1.33-1.05,1.75-1.91h3.19c-.61,1.55-1.58,2.75-2.92,3.58s-2.87,1.26-4.6,1.26c-1.52,0-2.91-.35-4.17-1.06-1.26-.71-2.25-1.69-2.99-2.94-.74-1.26-1.11-2.68-1.11-4.26s.37-3,1.11-4.26Z"/><path class="cls-6" d="M477.43,308.64c.54-.99,1.26-1.76,2.19-2.32.92-.55,1.94-.83,3.06-.83,1.01,0,1.89.2,2.64.59.75.4,1.35.89,1.8,1.48v-1.86h2.68v12.83h-2.68v-1.91c-.45.61-1.06,1.11-1.84,1.51s-1.66.6-2.65.6c-1.1,0-2.11-.28-3.03-.85-.92-.57-1.64-1.36-2.18-2.37-.54-1.02-.8-2.17-.8-3.46s.27-2.43.8-3.42ZM486.57,309.8c-.36-.65-.84-1.15-1.43-1.49-.59-.34-1.23-.51-1.91-.51s-1.32.17-1.91.5c-.59.33-1.07.82-1.43,1.47-.36.64-.55,1.41-.55,2.29s.18,1.66.55,2.33c.36.67.85,1.18,1.44,1.52s1.23.52,1.9.52,1.32-.17,1.91-.51c.59-.34,1.07-.84,1.43-1.5.36-.66.55-1.43.55-2.32s-.18-1.65-.55-2.3Z"/><path class="cls-6" d="M495.94,301.31v17.22h-2.65v-17.22h2.65Z"/><path class="cls-6" d="M511.1,313.11h-9.8c.08,1.02.46,1.85,1.14,2.47.68.62,1.52.93,2.51.93,1.43,0,2.44-.6,3.03-1.79h2.86c-.39,1.18-1.09,2.15-2.11,2.9-1.02.75-2.28,1.13-3.78,1.13-1.23,0-2.32-.27-3.29-.83-.97-.55-1.73-1.33-2.28-2.33-.55-1-.83-2.16-.83-3.48s.27-2.48.8-3.48c.54-1,1.29-1.77,2.26-2.32.97-.54,2.08-.81,3.34-.81s2.29.26,3.24.79c.95.53,1.68,1.27,2.21,2.22.53.95.79,2.05.79,3.29,0,.48-.03.92-.09,1.3ZM508.42,310.97c-.02-.98-.36-1.76-1.05-2.35-.68-.59-1.53-.88-2.54-.88-.92,0-1.7.29-2.35.87-.65.58-1.04,1.37-1.16,2.36h7.1Z"/><path class="cls-6" d="M522.98,306.12c.8.42,1.42,1.04,1.87,1.86.45.82.68,1.82.68,2.98v7.56h-2.63v-7.17c0-1.15-.29-2.03-.86-2.64-.57-.61-1.36-.92-2.35-.92s-1.78.31-2.36.92c-.58.61-.87,1.49-.87,2.64v7.17h-2.65v-12.83h2.65v1.47c.43-.53.99-.94,1.66-1.23.67-.29,1.39-.44,2.15-.44,1.01,0,1.91.21,2.71.63Z"/><path class="cls-6" d="M528.82,308.64c.54-.99,1.26-1.76,2.19-2.32.92-.55,1.95-.83,3.08-.83.84,0,1.66.18,2.48.55.81.36,1.46.85,1.94,1.45v-6.19h2.68v17.22h-2.68v-1.93c-.43.62-1.04,1.13-1.8,1.54-.77.4-1.65.6-2.64.6-1.12,0-2.14-.28-3.06-.85-.92-.57-1.65-1.36-2.19-2.37-.54-1.02-.8-2.17-.8-3.46s.27-2.43.8-3.42ZM537.97,309.8c-.36-.65-.84-1.15-1.43-1.49-.59-.34-1.23-.51-1.91-.51s-1.32.17-1.91.5c-.59.33-1.07.82-1.43,1.47-.36.64-.55,1.41-.55,2.29s.18,1.66.55,2.33c.36.67.85,1.18,1.44,1.52s1.23.52,1.9.52,1.32-.17,1.91-.51c.59-.34,1.07-.84,1.43-1.5.36-.66.55-1.43.55-2.32s-.18-1.65-.55-2.3Z"/><path class="cls-6" d="M544.6,308.64c.54-.99,1.26-1.76,2.19-2.32.92-.55,1.94-.83,3.06-.83,1.01,0,1.89.2,2.64.59.75.4,1.35.89,1.8,1.48v-1.86h2.68v12.83h-2.68v-1.91c-.45.61-1.06,1.11-1.84,1.51s-1.66.6-2.65.6c-1.1,0-2.11-.28-3.03-.85-.92-.57-1.64-1.36-2.18-2.37-.54-1.02-.8-2.17-.8-3.46s.27-2.43.8-3.42ZM553.75,309.8c-.36-.65-.84-1.15-1.43-1.49-.59-.34-1.23-.51-1.91-.51s-1.32.17-1.91.5c-.59.33-1.07.82-1.43,1.47-.36.64-.55,1.41-.55,2.29s.18,1.66.55,2.33c.36.67.85,1.18,1.44,1.52s1.23.52,1.9.52,1.32-.17,1.91-.51c.59-.34,1.07-.84,1.43-1.5.36-.66.55-1.43.55-2.32s-.18-1.65-.55-2.3Z"/><path class="cls-6" d="M564.67,306.04c.64-.36,1.41-.55,2.29-.55v2.75h-.67c-1.04,0-1.83.26-2.36.79-.54.53-.8,1.44-.8,2.75v6.75h-2.65v-12.83h2.65v1.86c.39-.65.9-1.16,1.55-1.53Z"/><path class="cls-6" d="M674.61,302.35l-4.79,16.18h-3l-3.4-12.24-3.61,12.24-2.98.02-4.59-16.2h2.82l3.35,13.17,3.63-13.17h2.98l3.37,13.11,3.38-13.11h2.84Z"/><path class="cls-6" d="M679.08,317.91c-.98-.55-1.75-1.33-2.3-2.33-.56-1-.84-2.16-.84-3.48s.29-2.46.86-3.47c.57-1.01,1.36-1.78,2.35-2.33.99-.54,2.1-.81,3.33-.81s2.34.27,3.33.81c.99.54,1.78,1.32,2.35,2.33.57,1.01.86,2.16.86,3.47s-.3,2.46-.88,3.47c-.59,1.01-1.39,1.79-2.41,2.34-1.02.55-2.14.83-3.36.83s-2.3-.27-3.28-.83ZM684.28,315.95c.6-.33,1.08-.81,1.45-1.47.37-.65.56-1.44.56-2.37s-.18-1.72-.54-2.36c-.36-.64-.83-1.13-1.42-1.45-.59-.33-1.23-.49-1.91-.49s-1.31.16-1.9.49c-.58.33-1.04.81-1.38,1.45-.34.64-.51,1.43-.51,2.36,0,1.38.35,2.45,1.06,3.2.71.75,1.6,1.13,2.67,1.13.68,0,1.32-.16,1.92-.49Z"/><path class="cls-6" d="M695.85,306.04c.64-.36,1.41-.55,2.29-.55v2.75h-.67c-1.04,0-1.83.26-2.36.79-.54.53-.8,1.44-.8,2.75v6.75h-2.65v-12.83h2.65v1.86c.39-.65.9-1.16,1.55-1.53Z"/><path class="cls-6" d="M705.66,312.13l5.91,6.4h-3.58l-4.75-5.52v5.52h-2.65v-17.22h2.65v10.01l4.65-5.61h3.68l-5.91,6.42Z"/><path class="cls-6" d="M719.75,306.15c.74-1.26,1.74-2.24,3-2.94,1.26-.71,2.65-1.06,4.15-1.06,1.72,0,3.25.42,4.6,1.27s2.32,2.04,2.92,3.6h-3.19c-.42-.85-1-1.49-1.75-1.91-.74-.42-1.61-.63-2.58-.63-1.07,0-2.03.24-2.86.72-.84.48-1.49,1.17-1.97,2.07s-.71,1.95-.71,3.14.24,2.24.71,3.14c.47.9,1.13,1.59,1.97,2.08s1.79.73,2.86.73c.98,0,1.84-.21,2.58-.63.74-.42,1.33-1.05,1.75-1.91h3.19c-.61,1.55-1.58,2.75-2.92,3.58s-2.87,1.26-4.6,1.26c-1.52,0-2.91-.35-4.17-1.06-1.26-.71-2.25-1.69-2.99-2.94-.74-1.26-1.11-2.68-1.11-4.26s.37-3,1.11-4.26Z"/><path class="cls-6" d="M737.44,308.64c.54-.99,1.26-1.76,2.19-2.32.92-.55,1.94-.83,3.06-.83,1.01,0,1.89.2,2.64.59.75.4,1.35.89,1.8,1.48v-1.86h2.68v12.83h-2.68v-1.91c-.45.61-1.06,1.11-1.84,1.51s-1.66.6-2.65.6c-1.1,0-2.11-.28-3.03-.85-.92-.57-1.64-1.36-2.18-2.37-.54-1.02-.8-2.17-.8-3.46s.27-2.43.8-3.42ZM746.59,309.8c-.36-.65-.84-1.15-1.43-1.49-.59-.34-1.23-.51-1.91-.51s-1.32.17-1.91.5c-.59.33-1.07.82-1.43,1.47-.36.64-.55,1.41-.55,2.29s.18,1.66.55,2.33c.36.67.85,1.18,1.44,1.52s1.23.52,1.9.52,1.32-.17,1.91-.51c.59-.34,1.07-.84,1.43-1.5.36-.66.55-1.43.55-2.32s-.18-1.65-.55-2.3Z"/><path class="cls-6" d="M755.96,301.31v17.22h-2.65v-17.22h2.65Z"/><path class="cls-6" d="M771.11,313.11h-9.8c.08,1.02.46,1.85,1.14,2.47.68.62,1.52.93,2.51.93,1.43,0,2.44-.6,3.03-1.79h2.86c-.39,1.18-1.09,2.15-2.11,2.9-1.02.75-2.28,1.13-3.78,1.13-1.23,0-2.32-.27-3.29-.83-.97-.55-1.73-1.33-2.28-2.33-.55-1-.83-2.16-.83-3.48s.27-2.48.8-3.48c.54-1,1.29-1.77,2.26-2.32.97-.54,2.08-.81,3.34-.81s2.29.26,3.24.79c.95.53,1.68,1.27,2.21,2.22.53.95.79,2.05.79,3.29,0,.48-.03.92-.09,1.3ZM768.43,310.97c-.02-.98-.36-1.76-1.05-2.35-.68-.59-1.53-.88-2.54-.88-.92,0-1.7.29-2.35.87-.65.58-1.04,1.37-1.16,2.36h7.1Z"/><path class="cls-6" d="M782.99,306.12c.8.42,1.42,1.04,1.87,1.86.45.82.68,1.82.68,2.98v7.56h-2.63v-7.17c0-1.15-.29-2.03-.86-2.64-.57-.61-1.36-.92-2.35-.92s-1.78.31-2.36.92c-.58.61-.87,1.49-.87,2.64v7.17h-2.65v-12.83h2.65v1.47c.43-.53.99-.94,1.66-1.23.67-.29,1.39-.44,2.15-.44,1.01,0,1.91.21,2.71.63Z"/><path class="cls-6" d="M788.84,308.64c.54-.99,1.26-1.76,2.19-2.32.92-.55,1.95-.83,3.08-.83.84,0,1.66.18,2.48.55.81.36,1.46.85,1.94,1.45v-6.19h2.68v17.22h-2.68v-1.93c-.43.62-1.04,1.13-1.8,1.54-.77.4-1.65.6-2.64.6-1.12,0-2.14-.28-3.06-.85-.92-.57-1.65-1.36-2.19-2.37-.54-1.02-.8-2.17-.8-3.46s.27-2.43.8-3.42ZM797.98,309.8c-.36-.65-.84-1.15-1.43-1.49-.59-.34-1.23-.51-1.91-.51s-1.32.17-1.91.5c-.59.33-1.07.82-1.43,1.47-.36.64-.55,1.41-.55,2.29s.18,1.66.55,2.33c.36.67.85,1.18,1.44,1.52s1.23.52,1.9.52,1.32-.17,1.91-.51c.59-.34,1.07-.84,1.43-1.5.36-.66.55-1.43.55-2.32s-.18-1.65-.55-2.3Z"/><path class="cls-6" d="M804.62,308.64c.54-.99,1.26-1.76,2.19-2.32.92-.55,1.94-.83,3.06-.83,1.01,0,1.89.2,2.64.59.75.4,1.35.89,1.8,1.48v-1.86h2.68v12.83h-2.68v-1.91c-.45.61-1.06,1.11-1.84,1.51s-1.66.6-2.65.6c-1.1,0-2.11-.28-3.03-.85-.92-.57-1.64-1.36-2.18-2.37-.54-1.02-.8-2.17-.8-3.46s.27-2.43.8-3.42ZM813.76,309.8c-.36-.65-.84-1.15-1.43-1.49-.59-.34-1.23-.51-1.91-.51s-1.32.17-1.91.5c-.59.33-1.07.82-1.43,1.47-.36.64-.55,1.41-.55,2.29s.18,1.66.55,2.33c.36.67.85,1.18,1.44,1.52s1.23.52,1.9.52,1.32-.17,1.91-.51c.59-.34,1.07-.84,1.43-1.5.36-.66.55-1.43.55-2.32s-.18-1.65-.55-2.3Z"/><path class="cls-6" d="M824.68,306.04c.64-.36,1.41-.55,2.29-.55v2.75h-.67c-1.04,0-1.83.26-2.36.79-.54.53-.8,1.44-.8,2.75v6.75h-2.65v-12.83h2.65v1.86c.39-.65.9-1.16,1.55-1.53Z"/><line class="cls-12" x1="597.6" y1="311.29" x2="621.24" y2="311.72"/><polygon class="cls-2" points="620.06 315.49 626.69 311.82 620.2 307.91 620.06 315.49"/><rect class="cls-13" x="349.84" y="395.97" width="542.95" height="229.56" rx="20.98" ry="20.98"/><path class="cls-1" d="M368.75,396.99h503.08c11.57,0,20.96,9.39,20.96,20.96v38.29H350.02v-40.52c0-10.34,8.39-18.73,18.73-18.73Z"/><path class="cls-3" d="M397.52,427.03c-.84.81-2.12,1.22-3.84,1.22h-2.84v6.16h-1.93v-14.75h4.76c1.66,0,2.93.4,3.8,1.21.87.8,1.3,1.84,1.3,3.11s-.42,2.25-1.26,3.06ZM396.05,425.96c.51-.47.76-1.13.76-1.99,0-1.82-1.04-2.73-3.13-2.73h-2.84v5.42h2.84c1.07,0,1.86-.23,2.37-.7Z"/><path class="cls-3" d="M411.69,429.33h-9.27c.07,1.14.46,2.03,1.17,2.68.71.64,1.58.96,2.59.96.83,0,1.53-.19,2.08-.58.56-.39.95-.91,1.17-1.56h2.07c-.31,1.11-.93,2.02-1.86,2.72-.93.7-2.09,1.05-3.47,1.05-1.1,0-2.09-.25-2.95-.74-.87-.49-1.55-1.2-2.04-2.11-.49-.91-.74-1.96-.74-3.16s.24-2.25.72-3.15c.48-.9,1.15-1.6,2.02-2.08.87-.49,1.86-.73,2.99-.73s2.07.24,2.92.72,1.5,1.14,1.96,1.98c.46.84.69,1.79.69,2.85,0,.37-.02.75-.06,1.16ZM409.27,425.87c-.32-.53-.77-.93-1.32-1.21-.56-.27-1.17-.41-1.85-.41-.97,0-1.8.31-2.49.93s-1.08,1.48-1.17,2.58h7.32c0-.73-.16-1.36-.49-1.89Z"/><path class="cls-3" d="M417.66,423.15c.63-.37,1.39-.55,2.3-.55v1.99h-.51c-2.16,0-3.24,1.17-3.24,3.51v6.31h-1.93v-11.6h1.93v1.88c.34-.66.82-1.18,1.45-1.54Z"/><path class="cls-3" d="M423.9,434.14c-.71-.3-1.26-.73-1.67-1.27-.41-.54-.63-1.17-.68-1.87h1.99c.06.58.33,1.05.81,1.42s1.13.55,1.92.55c.73,0,1.31-.16,1.73-.49.42-.32.63-.73.63-1.23s-.23-.88-.68-1.13-1.15-.49-2.1-.73c-.86-.23-1.56-.45-2.1-.69-.54-.23-1.01-.58-1.4-1.04-.39-.46-.58-1.06-.58-1.81,0-.59.18-1.14.53-1.63.35-.49.85-.88,1.5-1.17.65-.29,1.39-.43,2.22-.43,1.28,0,2.32.32,3.11.97.79.65,1.21,1.54,1.27,2.67h-1.93c-.04-.61-.29-1.09-.73-1.46-.44-.37-1.04-.55-1.79-.55-.69,0-1.24.15-1.65.44-.41.3-.61.68-.61,1.16,0,.38.12.7.37.94.25.25.56.44.93.59.37.15.89.31,1.56.5.83.23,1.51.45,2.03.67.52.22.97.55,1.34.98.37.44.57,1.01.58,1.71,0,.63-.18,1.21-.53,1.71-.35.51-.85.91-1.49,1.2s-1.38.43-2.21.43c-.89,0-1.69-.15-2.39-.45Z"/><path class="cls-3" d="M435.33,433.86c-.88-.49-1.57-1.2-2.07-2.11-.5-.91-.75-1.96-.75-3.16s.26-2.23.77-3.14c.51-.91,1.22-1.61,2.11-2.1s1.88-.73,2.98-.73,2.09.24,2.98.73,1.59,1.18,2.11,2.08c.51.9.77,1.95.77,3.15s-.26,2.25-.79,3.16c-.53.91-1.25,1.61-2.15,2.11-.9.49-1.9.74-3,.74s-2.07-.25-2.95-.74ZM440.23,432.42c.61-.32,1.1-.81,1.47-1.46s.56-1.44.56-2.37-.18-1.72-.55-2.37c-.37-.65-.85-1.13-1.44-1.45-.59-.32-1.23-.48-1.93-.48s-1.35.16-1.94.48c-.59.32-1.05.8-1.41,1.45-.35.65-.53,1.44-.53,2.37s.17,1.74.52,2.39c.35.65.81,1.13,1.39,1.45s1.21.48,1.91.48,1.34-.16,1.95-.49Z"/><path class="cls-3" d="M455.85,423.88c.87.85,1.31,2.08,1.31,3.69v6.83h-1.91v-6.56c0-1.16-.29-2.04-.87-2.66-.58-.61-1.37-.92-2.37-.92s-1.82.32-2.42.95c-.6.63-.9,1.56-.9,2.77v6.41h-1.93v-11.6h1.93v1.65c.38-.59.9-1.05,1.56-1.38.66-.32,1.38-.49,2.17-.49,1.41,0,2.55.43,3.43,1.28Z"/><path class="cls-3" d="M460.31,425.45c.48-.9,1.14-1.59,1.98-2.08.84-.49,1.77-.74,2.8-.74s1.9.22,2.65.66c.75.44,1.3.99,1.67,1.65v-2.12h1.95v11.6h-1.95v-2.16c-.38.68-.95,1.24-1.7,1.68-.76.44-1.63.67-2.63.67s-1.96-.25-2.79-.76c-.83-.51-1.49-1.22-1.97-2.14s-.72-1.96-.72-3.13.24-2.23.72-3.12ZM468.88,426.3c-.35-.65-.83-1.15-1.43-1.49-.6-.35-1.26-.52-1.98-.52s-1.38.17-1.97.51c-.59.34-1.07.83-1.42,1.48s-.53,1.41-.53,2.29.18,1.66.53,2.32.83,1.16,1.42,1.5c.59.35,1.25.52,1.97.52s1.38-.17,1.98-.52c.6-.35,1.08-.85,1.43-1.5s.53-1.42.53-2.3-.18-1.64-.53-2.29Z"/><path class="cls-3" d="M476.54,418.75v15.66h-1.93v-15.66h1.93Z"/><path class="cls-3" d="M485.73,423.14c.65-1.15,1.53-2.05,2.66-2.7s2.37-.97,3.74-.97c1.61,0,3.01.39,4.21,1.16,1.2.78,2.07,1.88,2.62,3.3h-2.31c-.41-.89-1-1.57-1.77-2.05s-1.69-.72-2.76-.72-1.95.24-2.77.72c-.82.48-1.46,1.16-1.93,2.04-.46.88-.7,1.92-.7,3.1s.23,2.2.7,3.08c.47.88,1.11,1.56,1.93,2.04.82.48,1.74.72,2.77.72s1.99-.24,2.76-.71,1.36-1.15,1.77-2.04h2.31c-.55,1.41-1.42,2.5-2.62,3.27-1.2.77-2.6,1.15-4.21,1.15-1.37,0-2.61-.32-3.74-.96-1.12-.64-2.01-1.53-2.66-2.68-.65-1.14-.97-2.43-.97-3.87s.32-2.73.97-3.88Z"/><path class="cls-3" d="M503.91,433.86c-.88-.49-1.57-1.2-2.07-2.11-.5-.91-.75-1.96-.75-3.16s.26-2.23.77-3.14c.51-.91,1.22-1.61,2.11-2.1s1.88-.73,2.98-.73,2.09.24,2.98.73,1.59,1.18,2.11,2.08c.51.9.77,1.95.77,3.15s-.26,2.25-.79,3.16c-.53.91-1.25,1.61-2.15,2.11-.9.49-1.9.74-3,.74s-2.07-.25-2.95-.74ZM508.81,432.42c.61-.32,1.1-.81,1.47-1.46s.56-1.44.56-2.37-.18-1.72-.55-2.37c-.37-.65-.85-1.13-1.44-1.45-.59-.32-1.23-.48-1.93-.48s-1.35.16-1.94.48c-.59.32-1.05.8-1.41,1.45-.35.65-.53,1.44-.53,2.37s.17,1.74.52,2.39c.35.65.81,1.13,1.39,1.45s1.21.48,1.91.48,1.34-.16,1.95-.49Z"/><path class="cls-3" d="M531.71,423.16c.71.37,1.26.93,1.67,1.68.41.75.61,1.66.61,2.73v6.83h-1.9v-6.56c0-1.16-.29-2.04-.86-2.66s-1.34-.92-2.32-.92-1.8.32-2.39.96c-.59.64-.89,1.57-.89,2.78v6.39h-1.9v-6.56c0-1.16-.29-2.04-.86-2.66s-1.34-.92-2.32-.92-1.8.32-2.39.96c-.59.64-.89,1.57-.89,2.78v6.39h-1.93v-11.6h1.93v1.67c.38-.61.89-1.07,1.53-1.4.64-.32,1.35-.49,2.13-.49.97,0,1.83.22,2.58.66.75.44,1.3,1.08,1.67,1.93.32-.82.86-1.45,1.61-1.9.75-.45,1.58-.68,2.5-.68s1.71.19,2.41.56Z"/><path class="cls-3" d="M553.5,423.16c.71.37,1.26.93,1.67,1.68.41.75.61,1.66.61,2.73v6.83h-1.9v-6.56c0-1.16-.29-2.04-.86-2.66s-1.34-.92-2.32-.92-1.8.32-2.39.96c-.59.64-.89,1.57-.89,2.78v6.39h-1.9v-6.56c0-1.16-.29-2.04-.86-2.66s-1.34-.92-2.32-.92-1.8.32-2.39.96c-.59.64-.89,1.57-.89,2.78v6.39h-1.93v-11.6h1.93v1.67c.38-.61.89-1.07,1.53-1.4.64-.32,1.35-.49,2.13-.49.97,0,1.83.22,2.58.66.75.44,1.3,1.08,1.67,1.93.32-.82.86-1.45,1.61-1.9.75-.45,1.58-.68,2.5-.68s1.71.19,2.41.56Z"/><path class="cls-3" d="M559,420.55c-.25-.25-.38-.56-.38-.93s.13-.68.38-.93c.25-.25.56-.38.93-.38s.65.13.9.38c.25.25.37.56.37.93s-.12.68-.37.93-.55.38-.9.38-.68-.13-.93-.38ZM560.87,422.81v11.6h-1.93v-11.6h1.93Z"/><path class="cls-3" d="M566.49,424.4v6.83c0,.56.12.96.36,1.2.24.23.66.35,1.25.35h1.42v1.63h-1.73c-1.07,0-1.88-.25-2.41-.74-.54-.49-.8-1.3-.8-2.43v-6.83h-1.5v-1.59h1.5v-2.92h1.92v2.92h3.03v1.59h-3.03Z"/><path class="cls-3" d="M588.2,423.16c.71.37,1.26.93,1.67,1.68.41.75.61,1.66.61,2.73v6.83h-1.9v-6.56c0-1.16-.29-2.04-.86-2.66s-1.34-.92-2.32-.92-1.8.32-2.39.96c-.59.64-.89,1.57-.89,2.78v6.39h-1.9v-6.56c0-1.16-.29-2.04-.86-2.66s-1.34-.92-2.32-.92-1.8.32-2.39.96c-.59.64-.89,1.57-.89,2.78v6.39h-1.93v-11.6h1.93v1.67c.38-.61.89-1.07,1.53-1.4.64-.32,1.35-.49,2.13-.49.97,0,1.83.22,2.58.66.75.44,1.3,1.08,1.67,1.93.32-.82.86-1.45,1.61-1.9.75-.45,1.58-.68,2.5-.68s1.71.19,2.41.56Z"/><path class="cls-3" d="M604.16,429.33h-9.27c.07,1.14.46,2.03,1.17,2.68.71.64,1.58.96,2.59.96.83,0,1.53-.19,2.08-.58.56-.39.95-.91,1.17-1.56h2.07c-.31,1.11-.93,2.02-1.86,2.72-.93.7-2.09,1.05-3.47,1.05-1.1,0-2.09-.25-2.95-.74-.87-.49-1.55-1.2-2.04-2.11-.49-.91-.74-1.96-.74-3.16s.24-2.25.72-3.15c.48-.9,1.15-1.6,2.02-2.08.87-.49,1.86-.73,2.99-.73s2.07.24,2.92.72,1.5,1.14,1.96,1.98c.46.84.69,1.79.69,2.85,0,.37-.02.75-.06,1.16ZM601.75,425.87c-.32-.53-.77-.93-1.32-1.21-.56-.27-1.17-.41-1.85-.41-.97,0-1.8.31-2.49.93s-1.08,1.48-1.17,2.58h7.32c0-.73-.16-1.36-.49-1.89Z"/><path class="cls-3" d="M615.84,423.88c.87.85,1.31,2.08,1.31,3.69v6.83h-1.91v-6.56c0-1.16-.29-2.04-.87-2.66-.58-.61-1.37-.92-2.37-.92s-1.82.32-2.42.95c-.6.63-.9,1.56-.9,2.77v6.41h-1.93v-11.6h1.93v1.65c.38-.59.9-1.05,1.56-1.38.66-.32,1.38-.49,2.17-.49,1.41,0,2.55.43,3.43,1.28Z"/><path class="cls-3" d="M622.65,424.4v6.83c0,.56.12.96.36,1.2.24.23.66.35,1.25.35h1.42v1.63h-1.73c-1.07,0-1.88-.25-2.41-.74-.54-.49-.8-1.3-.8-2.43v-6.83h-1.5v-1.59h1.5v-2.92h1.92v2.92h3.03v1.59h-3.03Z"/><path class="cls-3" d="M638.38,424.4h-2.43v10.01h-1.93v-10.01h-1.5v-1.59h1.5v-.83c0-1.3.33-2.25,1.01-2.85.67-.6,1.75-.9,3.23-.9v1.61c-.85,0-1.44.17-1.79.5-.35.33-.52.88-.52,1.64v.83h2.43v1.59Z"/><path class="cls-3" d="M642.72,433.86c-.88-.49-1.57-1.2-2.07-2.11-.5-.91-.75-1.96-.75-3.16s.26-2.23.77-3.14c.51-.91,1.22-1.61,2.11-2.1s1.88-.73,2.98-.73,2.09.24,2.98.73,1.59,1.18,2.11,2.08c.51.9.77,1.95.77,3.15s-.26,2.25-.79,3.16c-.53.91-1.25,1.61-2.15,2.11-.9.49-1.9.74-3,.74s-2.07-.25-2.95-.74ZM647.62,432.42c.61-.32,1.1-.81,1.47-1.46s.56-1.44.56-2.37-.18-1.72-.55-2.37c-.37-.65-.85-1.13-1.44-1.45-.59-.32-1.23-.48-1.93-.48s-1.35.16-1.94.48c-.59.32-1.05.8-1.41,1.45-.35.65-.53,1.44-.53,2.37s.17,1.74.52,2.39c.35.65.81,1.13,1.39,1.45s1.21.48,1.91.48,1.34-.16,1.95-.49Z"/><path class="cls-3" d="M657.54,423.15c.63-.37,1.39-.55,2.3-.55v1.99h-.51c-2.16,0-3.24,1.17-3.24,3.51v6.31h-1.93v-11.6h1.93v1.88c.34-.66.82-1.18,1.45-1.54Z"/><path class="cls-3" d="M667.7,425.45c.48-.9,1.14-1.59,1.98-2.08.84-.49,1.77-.74,2.8-.74s1.9.22,2.65.66c.75.44,1.3.99,1.67,1.65v-2.12h1.95v11.6h-1.95v-2.16c-.38.68-.95,1.24-1.7,1.68-.76.44-1.63.67-2.63.67s-1.96-.25-2.79-.76c-.83-.51-1.49-1.22-1.97-2.14s-.72-1.96-.72-3.13.24-2.23.72-3.12ZM676.27,426.3c-.35-.65-.83-1.15-1.43-1.49-.6-.35-1.26-.52-1.98-.52s-1.38.17-1.97.51c-.59.34-1.07.83-1.42,1.48s-.53,1.41-.53,2.29.18,1.66.53,2.32.83,1.16,1.42,1.5c.59.35,1.25.52,1.97.52s1.38-.17,1.98-.52c.6-.35,1.08-.85,1.43-1.5s.53-1.42.53-2.3-.18-1.64-.53-2.29Z"/><path class="cls-3" d="M683.93,418.75v15.66h-1.93v-15.66h1.93Z"/><path class="cls-3" d="M689.14,418.75v15.66h-1.93v-15.66h1.93Z"/><circle class="cls-2" cx="372.65" cy="427.03" r="4.56"/><circle class="cls-10" cx="372.76" cy="427.15" r="7.94"/><path class="cls-3" d="M397.77,482.48c.44.35.8.79,1.06,1.31.26.52.39,1.08.39,1.67,0,.75-.19,1.42-.57,2.02-.38.6-.94,1.07-1.66,1.42-.73.35-1.58.52-2.57.52h-5.5v-14.75h5.29c1,0,1.85.17,2.56.5s1.23.78,1.59,1.34c.35.56.53,1.2.53,1.9,0,.87-.24,1.6-.71,2.17-.47.57-1.1.98-1.87,1.24.54.08,1.03.3,1.47.66ZM390.84,481.05h3.24c.9,0,1.6-.21,2.1-.63.49-.42.74-1.01.74-1.76s-.25-1.33-.74-1.76c-.49-.42-1.21-.63-2.14-.63h-3.19v4.78ZM396.49,487.16c.54-.45.8-1.08.8-1.88s-.28-1.46-.85-1.94c-.56-.47-1.32-.71-2.26-.71h-3.34v5.21h3.41c.96,0,1.71-.23,2.24-.68Z"/><path class="cls-3" d="M412.17,477.83v11.6h-1.92v-1.71c-.37.59-.88,1.05-1.53,1.39s-1.38.5-2.17.5c-.9,0-1.71-.19-2.43-.56-.72-.37-1.29-.93-1.7-1.68-.42-.75-.62-1.66-.62-2.73v-6.79h1.9v6.54c0,1.14.29,2.02.87,2.63s1.37.92,2.37.92,1.84-.32,2.43-.95c.59-.63.89-1.56.89-2.77v-6.37h1.92Z"/><path class="cls-3" d="M417.15,489.16c-.71-.3-1.26-.73-1.67-1.27-.41-.54-.63-1.17-.68-1.87h1.99c.06.58.33,1.05.81,1.42s1.13.55,1.92.55c.73,0,1.31-.16,1.73-.49.42-.32.63-.73.63-1.23s-.23-.88-.68-1.13-1.15-.49-2.1-.73c-.86-.23-1.56-.45-2.1-.69-.54-.23-1.01-.58-1.4-1.04-.39-.46-.58-1.06-.58-1.81,0-.59.18-1.14.53-1.63.35-.49.85-.88,1.5-1.17.65-.29,1.39-.43,2.22-.43,1.28,0,2.32.32,3.11.97.79.65,1.21,1.54,1.27,2.67h-1.93c-.04-.61-.29-1.09-.73-1.46-.44-.37-1.04-.55-1.79-.55-.69,0-1.24.15-1.65.44-.41.3-.61.68-.61,1.16,0,.38.12.7.37.94.25.25.56.44.93.59.37.15.89.31,1.56.5.83.23,1.51.45,2.03.67.52.22.97.55,1.34.98.37.44.57,1.01.58,1.71,0,.63-.18,1.21-.53,1.71-.35.51-.85.91-1.49,1.2s-1.38.43-2.21.43c-.89,0-1.69-.15-2.39-.45Z"/><path class="cls-3" d="M436.46,477.83l-6.98,17.06h-1.99l2.29-5.59-4.68-11.47h2.14l3.64,9.4,3.6-9.4h1.99Z"/><path class="cls-3" d="M448.76,479.42h-2.43v10.01h-1.93v-10.01h-1.5v-1.59h1.5v-.83c0-1.3.33-2.25,1.01-2.85.67-.6,1.75-.9,3.23-.9v1.61c-.85,0-1.44.17-1.79.5-.35.33-.52.88-.52,1.64v.83h2.43v1.59Z"/><path class="cls-3" d="M453.11,488.87c-.88-.49-1.57-1.2-2.07-2.11-.5-.91-.75-1.96-.75-3.16s.26-2.23.77-3.14c.51-.91,1.22-1.61,2.11-2.1s1.88-.73,2.98-.73,2.09.24,2.98.73,1.59,1.18,2.11,2.08c.51.9.77,1.95.77,3.15s-.26,2.25-.79,3.16c-.53.91-1.25,1.61-2.15,2.11-.9.49-1.9.74-3,.74s-2.07-.25-2.95-.74ZM458.01,487.44c.61-.32,1.1-.81,1.47-1.46s.56-1.44.56-2.37-.18-1.72-.55-2.37c-.37-.65-.85-1.13-1.44-1.45-.59-.32-1.23-.48-1.93-.48s-1.35.16-1.94.48c-.59.32-1.05.8-1.41,1.45-.35.65-.53,1.44-.53,2.37s.17,1.74.52,2.39c.35.65.81,1.13,1.39,1.45s1.21.48,1.91.48,1.34-.16,1.95-.49Z"/><path class="cls-3" d="M467.92,478.17c.63-.37,1.39-.55,2.3-.55v1.99h-.51c-2.16,0-3.24,1.17-3.24,3.51v6.31h-1.93v-11.6h1.93v1.88c.34-.66.82-1.18,1.45-1.54Z"/><path class="cls-3" d="M478.09,480.46c.48-.9,1.14-1.59,1.98-2.08.84-.49,1.77-.74,2.8-.74s1.9.22,2.65.66c.75.44,1.3.99,1.67,1.65v-2.12h1.95v11.6h-1.95v-2.16c-.38.68-.95,1.24-1.7,1.68-.76.44-1.63.67-2.63.67s-1.96-.25-2.79-.76c-.83-.51-1.49-1.22-1.97-2.14s-.72-1.96-.72-3.13.24-2.23.72-3.12ZM486.66,481.32c-.35-.65-.83-1.15-1.43-1.49-.6-.35-1.26-.52-1.98-.52s-1.38.17-1.97.51c-.59.34-1.07.83-1.42,1.48s-.53,1.41-.53,2.29.18,1.66.53,2.32.83,1.16,1.42,1.5c.59.35,1.25.52,1.97.52s1.38-.17,1.98-.52c.6-.35,1.08-.85,1.43-1.5s.53-1.42.53-2.3-.18-1.64-.53-2.29Z"/><path class="cls-3" d="M494.32,473.77v15.66h-1.93v-15.66h1.93Z"/><path class="cls-3" d="M499.52,473.77v15.66h-1.93v-15.66h1.93Z"/><circle class="cls-15" cx="372.76" cy="482.16" r="7.94"/><path class="cls-3" d="M390.84,518.56v4.93h5.37v1.59h-5.37v5.08h6.01v1.59h-7.94v-14.77h7.94v1.59h-6.01Z"/><path class="cls-3" d="M404.09,529.97l3.6-9.82h2.05l-4.55,11.6h-2.24l-4.55-11.6h2.07l3.62,9.82Z"/><path class="cls-3" d="M422.16,526.67h-9.27c.07,1.14.46,2.03,1.17,2.68.71.64,1.58.96,2.59.96.83,0,1.53-.19,2.08-.58.56-.39.95-.91,1.17-1.56h2.07c-.31,1.11-.93,2.02-1.86,2.72-.93.7-2.09,1.05-3.47,1.05-1.1,0-2.09-.25-2.95-.74-.87-.49-1.55-1.2-2.04-2.11-.49-.91-.74-1.96-.74-3.16s.24-2.25.72-3.15c.48-.9,1.15-1.6,2.02-2.08.87-.49,1.86-.73,2.99-.73s2.07.24,2.92.72,1.5,1.14,1.96,1.98c.46.84.69,1.79.69,2.85,0,.37-.02.75-.06,1.16ZM419.75,523.21c-.32-.53-.77-.93-1.32-1.21-.56-.27-1.17-.41-1.85-.41-.97,0-1.8.31-2.49.93s-1.08,1.48-1.17,2.58h7.32c0-.73-.16-1.36-.49-1.89Z"/><path class="cls-3" d="M433.84,521.22c.87.85,1.31,2.08,1.31,3.69v6.83h-1.91v-6.56c0-1.16-.29-2.04-.87-2.66-.58-.61-1.37-.92-2.37-.92s-1.82.32-2.42.95c-.6.63-.9,1.56-.9,2.77v6.41h-1.93v-11.6h1.93v1.65c.38-.59.9-1.05,1.56-1.38.66-.32,1.38-.49,2.17-.49,1.41,0,2.55.43,3.43,1.28Z"/><path class="cls-3" d="M440.65,521.74v6.83c0,.56.12.96.36,1.2.24.23.66.35,1.25.35h1.42v1.63h-1.73c-1.07,0-1.88-.25-2.41-.74-.54-.49-.8-1.3-.8-2.43v-6.83h-1.5v-1.59h1.5v-2.92h1.92v2.92h3.03v1.59h-3.03Z"/><path class="cls-3" d="M451.66,522.79c.48-.9,1.14-1.59,1.98-2.08.84-.49,1.78-.74,2.82-.74.9,0,1.74.21,2.52.62s1.37.96,1.78,1.64v-6.14h1.95v15.66h-1.95v-2.18c-.38.69-.95,1.26-1.69,1.7-.75.44-1.62.67-2.62.67s-1.96-.25-2.8-.76c-.84-.51-1.5-1.22-1.98-2.14s-.72-1.96-.72-3.13.24-2.23.72-3.12ZM460.23,523.64c-.35-.65-.83-1.15-1.43-1.49-.6-.35-1.26-.52-1.98-.52s-1.38.17-1.97.51c-.59.34-1.07.83-1.42,1.48s-.53,1.41-.53,2.29.18,1.66.53,2.32.83,1.16,1.42,1.5c.59.35,1.25.52,1.97.52s1.38-.17,1.98-.52c.6-.35,1.08-.85,1.43-1.5s.53-1.42.53-2.3-.18-1.64-.53-2.29Z"/><path class="cls-3" d="M476.48,526.67h-9.27c.07,1.14.46,2.03,1.17,2.68.71.64,1.58.96,2.59.96.83,0,1.53-.19,2.08-.58.56-.39.95-.91,1.17-1.56h2.07c-.31,1.11-.93,2.02-1.86,2.72-.93.7-2.09,1.05-3.47,1.05-1.1,0-2.09-.25-2.95-.74-.87-.49-1.55-1.2-2.04-2.11-.49-.91-.74-1.96-.74-3.16s.24-2.25.72-3.15c.48-.9,1.15-1.6,2.02-2.08.87-.49,1.86-.73,2.99-.73s2.07.24,2.92.72,1.5,1.14,1.96,1.98c.46.84.69,1.79.69,2.85,0,.37-.02.75-.06,1.16ZM474.07,523.21c-.32-.53-.77-.93-1.32-1.21-.56-.27-1.17-.41-1.85-.41-.97,0-1.8.31-2.49.93s-1.08,1.48-1.17,2.58h7.32c0-.73-.16-1.36-.49-1.89Z"/><path class="cls-3" d="M481.43,521.74v6.83c0,.56.12.96.36,1.2.24.23.66.35,1.25.35h1.42v1.63h-1.73c-1.07,0-1.88-.25-2.41-.74-.54-.49-.8-1.3-.8-2.43v-6.83h-1.5v-1.59h1.5v-2.92h1.92v2.92h3.03v1.59h-3.03Z"/><path class="cls-3" d="M486.79,522.79c.48-.9,1.14-1.59,1.98-2.08.84-.49,1.77-.74,2.8-.74s1.9.22,2.65.66c.75.44,1.3.99,1.67,1.65v-2.12h1.95v11.6h-1.95v-2.16c-.38.68-.95,1.24-1.7,1.68-.76.44-1.63.67-2.63.67s-1.96-.25-2.79-.76c-.83-.51-1.49-1.22-1.97-2.14s-.72-1.96-.72-3.13.24-2.23.72-3.12ZM495.36,523.64c-.35-.65-.83-1.15-1.43-1.49-.6-.35-1.26-.52-1.98-.52s-1.38.17-1.97.51c-.59.34-1.07.83-1.42,1.48s-.53,1.41-.53,2.29.18,1.66.53,2.32.83,1.16,1.42,1.5c.59.35,1.25.52,1.97.52s1.38-.17,1.98-.52c.6-.35,1.08-.85,1.43-1.5s.53-1.42.53-2.3-.18-1.64-.53-2.29Z"/><path class="cls-3" d="M501.15,517.89c-.25-.25-.38-.56-.38-.93s.13-.68.38-.93c.25-.25.56-.38.93-.38s.65.13.9.38c.25.25.37.56.37.93s-.12.68-.37.93-.55.38-.9.38-.68-.13-.93-.38ZM503.02,520.15v11.6h-1.93v-11.6h1.93Z"/><path class="cls-3" d="M508.22,516.09v15.66h-1.93v-15.66h1.93Z"/><path class="cls-3" d="M513.21,531.48c-.71-.3-1.26-.73-1.67-1.27-.41-.54-.63-1.17-.68-1.87h1.99c.06.58.33,1.05.81,1.42s1.13.55,1.92.55c.73,0,1.31-.16,1.73-.49.42-.32.63-.73.63-1.23s-.23-.88-.68-1.13-1.15-.49-2.1-.73c-.86-.23-1.56-.45-2.1-.69-.54-.23-1.01-.58-1.4-1.04-.39-.46-.58-1.06-.58-1.81,0-.59.18-1.14.53-1.63.35-.49.85-.88,1.5-1.17.65-.29,1.39-.43,2.22-.43,1.28,0,2.32.32,3.11.97.79.65,1.21,1.54,1.27,2.67h-1.93c-.04-.61-.29-1.09-.73-1.46-.44-.37-1.04-.55-1.79-.55-.69,0-1.24.15-1.65.44-.41.3-.61.68-.61,1.16,0,.38.12.7.37.94.25.25.56.44.93.59.37.15.89.31,1.56.5.83.23,1.51.45,2.03.67.52.22.97.55,1.34.98.37.44.57,1.01.58,1.71,0,.63-.18,1.21-.53,1.71-.35.51-.85.91-1.49,1.2s-1.38.43-2.21.43c-.89,0-1.69-.15-2.39-.45Z"/><path class="cls-3" d="M532.91,521.74h-2.43v10.01h-1.93v-10.01h-1.5v-1.59h1.5v-.83c0-1.3.33-2.25,1.01-2.85.67-.6,1.75-.9,3.23-.9v1.61c-.85,0-1.44.17-1.79.5-.35.33-.52.88-.52,1.64v.83h2.43v1.59Z"/><path class="cls-3" d="M537.26,531.2c-.88-.49-1.57-1.2-2.07-2.11-.5-.91-.75-1.96-.75-3.16s.26-2.23.77-3.14c.51-.91,1.22-1.61,2.11-2.1s1.88-.73,2.98-.73,2.09.24,2.98.73,1.59,1.18,2.11,2.08c.51.9.77,1.95.77,3.15s-.26,2.25-.79,3.16c-.53.91-1.25,1.61-2.15,2.11-.9.49-1.9.74-3,.74s-2.07-.25-2.95-.74ZM542.16,529.76c.61-.32,1.1-.81,1.47-1.46s.56-1.44.56-2.37-.18-1.72-.55-2.37c-.37-.65-.85-1.13-1.44-1.45-.59-.32-1.23-.48-1.93-.48s-1.35.16-1.94.48c-.59.32-1.05.8-1.41,1.45-.35.65-.53,1.44-.53,2.37s.17,1.74.52,2.39c.35.65.81,1.13,1.39,1.45s1.21.48,1.91.48,1.34-.16,1.95-.49Z"/><path class="cls-3" d="M552.08,520.49c.63-.37,1.39-.55,2.3-.55v1.99h-.51c-2.16,0-3.24,1.17-3.24,3.51v6.31h-1.93v-11.6h1.93v1.88c.34-.66.82-1.18,1.45-1.54Z"/><path class="cls-3" d="M572.23,520.15l-6.98,17.06h-1.99l2.29-5.59-4.68-11.47h2.14l3.64,9.4,3.6-9.4h1.99Z"/><path class="cls-3" d="M576.26,531.2c-.88-.49-1.57-1.2-2.07-2.11-.5-.91-.75-1.96-.75-3.16s.26-2.23.77-3.14c.51-.91,1.22-1.61,2.11-2.1s1.88-.73,2.98-.73,2.09.24,2.98.73,1.59,1.18,2.11,2.08c.51.9.77,1.95.77,3.15s-.26,2.25-.79,3.16c-.53.91-1.25,1.61-2.15,2.11-.9.49-1.9.74-3,.74s-2.07-.25-2.95-.74ZM581.16,529.76c.61-.32,1.1-.81,1.47-1.46s.56-1.44.56-2.37-.18-1.72-.55-2.37c-.37-.65-.85-1.13-1.44-1.45-.59-.32-1.23-.48-1.93-.48s-1.35.16-1.94.48c-.59.32-1.05.8-1.41,1.45-.35.65-.53,1.44-.53,2.37s.17,1.74.52,2.39c.35.65.81,1.13,1.39,1.45s1.21.48,1.91.48,1.34-.16,1.95-.49Z"/><path class="cls-3" d="M597.98,520.15v11.6h-1.92v-1.71c-.37.59-.88,1.05-1.53,1.39s-1.38.5-2.17.5c-.9,0-1.71-.19-2.43-.56-.72-.37-1.29-.93-1.7-1.68-.42-.75-.62-1.66-.62-2.73v-6.79h1.9v6.54c0,1.14.29,2.02.87,2.63s1.37.92,2.37.92,1.84-.32,2.43-.95c.59-.63.89-1.56.89-2.77v-6.37h1.92Z"/><path class="cls-3" d="M603.23,529.08l-2.37,5.69h-1.29l1.54-5.69h2.12Z"/><path class="cls-3" d="M614.74,520.62c.76-.44,1.63-.66,2.6-.66,1.04,0,1.98.25,2.81.74.83.49,1.49,1.19,1.97,2.08.48.9.72,1.94.72,3.12s-.24,2.21-.72,3.13c-.48.92-1.14,1.63-1.98,2.14-.84.51-1.77.76-2.8.76s-1.88-.22-2.63-.66c-.75-.44-1.32-.99-1.7-1.67v2.14h-1.93v-15.66h1.93v6.22c.39-.69.97-1.26,1.73-1.69ZM620.35,523.62c-.35-.65-.83-1.14-1.43-1.48-.6-.34-1.26-.51-1.98-.51s-1.36.17-1.96.52c-.6.35-1.08.85-1.44,1.5-.36.66-.54,1.41-.54,2.27s.18,1.64.54,2.3.84,1.16,1.44,1.5c.6.35,1.25.52,1.96.52s1.38-.17,1.98-.52c.6-.35,1.08-.85,1.43-1.5s.53-1.43.53-2.32-.18-1.64-.53-2.29Z"/><path class="cls-3" d="M635.67,520.15v11.6h-1.92v-1.71c-.37.59-.88,1.05-1.53,1.39s-1.38.5-2.17.5c-.9,0-1.71-.19-2.43-.56-.72-.37-1.29-.93-1.7-1.68-.42-.75-.62-1.66-.62-2.73v-6.79h1.9v6.54c0,1.14.29,2.02.87,2.63s1.37.92,2.37.92,1.84-.32,2.43-.95c.59-.63.89-1.56.89-2.77v-6.37h1.92Z"/><path class="cls-3" d="M640.64,531.48c-.71-.3-1.26-.73-1.67-1.27-.41-.54-.63-1.17-.68-1.87h1.99c.06.58.33,1.05.81,1.42s1.13.55,1.92.55c.73,0,1.31-.16,1.73-.49.42-.32.63-.73.63-1.23s-.23-.88-.68-1.13-1.15-.49-2.1-.73c-.86-.23-1.56-.45-2.1-.69-.54-.23-1.01-.58-1.4-1.04-.39-.46-.58-1.06-.58-1.81,0-.59.18-1.14.53-1.63.35-.49.85-.88,1.5-1.17.65-.29,1.39-.43,2.22-.43,1.28,0,2.32.32,3.11.97.79.65,1.21,1.54,1.27,2.67h-1.93c-.04-.61-.29-1.09-.73-1.46-.44-.37-1.04-.55-1.79-.55-.69,0-1.24.15-1.65.44-.41.3-.61.68-.61,1.16,0,.38.12.7.37.94.25.25.56.44.93.59.37.15.89.31,1.56.5.83.23,1.51.45,2.03.67.52.22.97.55,1.34.98.37.44.57,1.01.58,1.71,0,.63-.18,1.21-.53,1.71-.35.51-.85.91-1.49,1.2s-1.38.43-2.21.43c-.89,0-1.69-.15-2.39-.45Z"/><path class="cls-3" d="M659.96,520.15l-6.98,17.06h-1.99l2.29-5.59-4.68-11.47h2.14l3.64,9.4,3.6-9.4h1.99Z"/><path class="cls-3" d="M669.88,521.74v6.83c0,.56.12.96.36,1.2.24.23.66.35,1.25.35h1.42v1.63h-1.73c-1.07,0-1.88-.25-2.41-.74-.54-.49-.8-1.3-.8-2.43v-6.83h-1.5v-1.59h1.5v-2.92h1.92v2.92h3.03v1.59h-3.03Z"/><path class="cls-3" d="M677.34,531.2c-.88-.49-1.57-1.2-2.07-2.11-.5-.91-.75-1.96-.75-3.16s.26-2.23.77-3.14c.51-.91,1.22-1.61,2.11-2.1s1.88-.73,2.98-.73,2.09.24,2.98.73,1.59,1.18,2.11,2.08c.51.9.77,1.95.77,3.15s-.26,2.25-.79,3.16c-.53.91-1.25,1.61-2.15,2.11-.9.49-1.9.74-3,.74s-2.07-.25-2.95-.74ZM682.24,529.76c.61-.32,1.1-.81,1.47-1.46s.56-1.44.56-2.37-.18-1.72-.55-2.37c-.37-.65-.85-1.13-1.44-1.45-.59-.32-1.23-.48-1.93-.48s-1.35.16-1.94.48c-.59.32-1.05.8-1.41,1.45-.35.65-.53,1.44-.53,2.37s.17,1.74.52,2.39c.35.65.81,1.13,1.39,1.45s1.21.48,1.91.48,1.34-.16,1.95-.49Z"/><path class="cls-3" d="M710.79,520.5c.71.37,1.26.93,1.67,1.68.41.75.61,1.66.61,2.73v6.83h-1.9v-6.56c0-1.16-.29-2.04-.86-2.66s-1.34-.92-2.32-.92-1.8.32-2.39.96c-.59.64-.89,1.57-.89,2.78v6.39h-1.9v-6.56c0-1.16-.29-2.04-.86-2.66s-1.34-.92-2.32-.92-1.8.32-2.39.96c-.59.64-.89,1.57-.89,2.78v6.39h-1.93v-11.6h1.93v1.67c.38-.61.89-1.07,1.53-1.4.64-.32,1.35-.49,2.13-.49.97,0,1.83.22,2.58.66.75.44,1.3,1.08,1.67,1.93.32-.82.86-1.45,1.61-1.9.75-.45,1.58-.68,2.5-.68s1.71.19,2.41.56Z"/><path class="cls-3" d="M718.33,531.2c-.88-.49-1.57-1.2-2.07-2.11-.5-.91-.75-1.96-.75-3.16s.26-2.23.77-3.14c.51-.91,1.22-1.61,2.11-2.1s1.88-.73,2.98-.73,2.09.24,2.98.73,1.59,1.18,2.11,2.08c.51.9.77,1.95.77,3.15s-.26,2.25-.79,3.16c-.53.91-1.25,1.61-2.15,2.11-.9.49-1.9.74-3,.74s-2.07-.25-2.95-.74ZM723.23,529.76c.61-.32,1.1-.81,1.47-1.46s.56-1.44.56-2.37-.18-1.72-.55-2.37c-.37-.65-.85-1.13-1.44-1.45-.59-.32-1.23-.48-1.93-.48s-1.35.16-1.94.48c-.59.32-1.05.8-1.41,1.45-.35.65-.53,1.44-.53,2.37s.17,1.74.52,2.39c.35.65.81,1.13,1.39,1.45s1.21.48,1.91.48,1.34-.16,1.95-.49Z"/><path class="cls-3" d="M731.48,531.48c-.71-.3-1.26-.73-1.67-1.27-.41-.54-.63-1.17-.68-1.87h1.99c.06.58.33,1.05.81,1.42s1.13.55,1.92.55c.73,0,1.31-.16,1.73-.49.42-.32.63-.73.63-1.23s-.23-.88-.68-1.13-1.15-.49-2.1-.73c-.86-.23-1.56-.45-2.1-.69-.54-.23-1.01-.58-1.4-1.04-.39-.46-.58-1.06-.58-1.81,0-.59.18-1.14.53-1.63.35-.49.85-.88,1.5-1.17.65-.29,1.39-.43,2.22-.43,1.28,0,2.32.32,3.11.97.79.65,1.21,1.54,1.27,2.67h-1.93c-.04-.61-.29-1.09-.73-1.46-.44-.37-1.04-.55-1.79-.55-.69,0-1.24.15-1.65.44-.41.3-.61.68-.61,1.16,0,.38.12.7.37.94.25.25.56.44.93.59.37.15.89.31,1.56.5.83.23,1.51.45,2.03.67.52.22.97.55,1.34.98.37.44.57,1.01.58,1.71,0,.63-.18,1.21-.53,1.71-.35.51-.85.91-1.49,1.2s-1.38.43-2.21.43c-.89,0-1.69-.15-2.39-.45Z"/><path class="cls-3" d="M743.16,521.74v6.83c0,.56.12.96.36,1.2.24.23.66.35,1.25.35h1.42v1.63h-1.73c-1.07,0-1.88-.25-2.41-.74-.54-.49-.8-1.3-.8-2.43v-6.83h-1.5v-1.59h1.5v-2.92h1.92v2.92h3.03v1.59h-3.03Z"/><path class="cls-3" d="M756.27,531.2c-.88-.49-1.57-1.2-2.07-2.11-.5-.91-.75-1.96-.75-3.16s.26-2.23.77-3.14c.51-.91,1.22-1.61,2.11-2.1s1.88-.73,2.98-.73,2.09.24,2.98.73,1.59,1.18,2.11,2.08c.51.9.77,1.95.77,3.15s-.26,2.25-.79,3.16c-.53.91-1.25,1.61-2.15,2.11-.9.49-1.9.74-3,.74s-2.07-.25-2.95-.74ZM761.17,529.76c.61-.32,1.1-.81,1.47-1.46s.56-1.44.56-2.37-.18-1.72-.55-2.37c-.37-.65-.85-1.13-1.44-1.45-.59-.32-1.23-.48-1.93-.48s-1.35.16-1.94.48c-.59.32-1.05.8-1.41,1.45-.35.65-.53,1.44-.53,2.37s.17,1.74.52,2.39c.35.65.81,1.13,1.39,1.45s1.21.48,1.91.48,1.34-.16,1.95-.49Z"/><path class="cls-3" d="M770.06,521.74v6.83c0,.56.12.96.36,1.2.24.23.66.35,1.25.35h1.42v1.63h-1.73c-1.07,0-1.88-.25-2.41-.74-.54-.49-.8-1.3-.8-2.43v-6.83h-1.5v-1.59h1.5v-2.92h1.92v2.92h3.03v1.59h-3.03Z"/><path class="cls-3" d="M783.54,520.5c.71.37,1.26.93,1.66,1.68.4.75.6,1.66.6,2.73v6.83h-1.91v-6.56c0-1.16-.29-2.04-.87-2.66-.58-.61-1.37-.92-2.37-.92s-1.82.32-2.42.95c-.6.63-.9,1.56-.9,2.77v6.41h-1.93v-15.66h1.93v5.71c.38-.59.91-1.05,1.58-1.38.67-.32,1.42-.49,2.25-.49.87,0,1.66.19,2.37.56Z"/><path class="cls-3" d="M799.47,526.67h-9.27c.07,1.14.46,2.03,1.17,2.68.71.64,1.58.96,2.59.96.83,0,1.53-.19,2.08-.58.56-.39.95-.91,1.17-1.56h2.07c-.31,1.11-.93,2.02-1.86,2.72-.93.7-2.09,1.05-3.47,1.05-1.1,0-2.09-.25-2.95-.74-.87-.49-1.55-1.2-2.04-2.11-.49-.91-.74-1.96-.74-3.16s.24-2.25.72-3.15c.48-.9,1.15-1.6,2.02-2.08.87-.49,1.86-.73,2.99-.73s2.07.24,2.92.72,1.5,1.14,1.96,1.98c.46.84.69,1.79.69,2.85,0,.37-.02.75-.06,1.16ZM797.06,523.21c-.32-.53-.77-.93-1.32-1.21-.56-.27-1.17-.41-1.85-.41-.97,0-1.8.31-2.49.93s-1.08,1.48-1.17,2.58h7.32c0-.73-.16-1.36-.49-1.89Z"/><path class="cls-3" d="M805.45,520.49c.63-.37,1.39-.55,2.3-.55v1.99h-.51c-2.16,0-3.24,1.17-3.24,3.51v6.31h-1.93v-11.6h1.93v1.88c.34-.66.82-1.18,1.45-1.54Z"/><path class="cls-3" d="M811.68,531.48c-.71-.3-1.26-.73-1.67-1.27-.41-.54-.63-1.17-.68-1.87h1.99c.06.58.33,1.05.81,1.42s1.13.55,1.92.55c.73,0,1.31-.16,1.73-.49.42-.32.63-.73.63-1.23s-.23-.88-.68-1.13-1.15-.49-2.1-.73c-.86-.23-1.56-.45-2.1-.69-.54-.23-1.01-.58-1.4-1.04-.39-.46-.58-1.06-.58-1.81,0-.59.18-1.14.53-1.63.35-.49.85-.88,1.5-1.17.65-.29,1.39-.43,2.22-.43,1.28,0,2.32.32,3.11.97.79.65,1.21,1.54,1.27,2.67h-1.93c-.04-.61-.29-1.09-.73-1.46-.44-.37-1.04-.55-1.79-.55-.69,0-1.24.15-1.65.44-.41.3-.61.68-.61,1.16,0,.38.12.7.37.94.25.25.56.44.93.59.37.15.89.31,1.56.5.83.23,1.51.45,2.03.67.52.22.97.55,1.34.98.37.44.57,1.01.58,1.71,0,.63-.18,1.21-.53,1.71-.35.51-.85.91-1.49,1.2s-1.38.43-2.21.43c-.89,0-1.69-.15-2.39-.45Z"/><circle class="cls-15" cx="372.76" cy="524.49" r="7.94"/><path class="cls-3" d="M390.84,565.12v4.93h5.37v1.59h-5.37v5.08h6.01v1.59h-7.94v-14.77h7.94v1.59h-6.01Z"/><path class="cls-3" d="M404.09,576.52l3.6-9.82h2.05l-4.55,11.6h-2.24l-4.55-11.6h2.07l3.62,9.82Z"/><path class="cls-3" d="M422.16,573.22h-9.27c.07,1.14.46,2.03,1.17,2.68.71.64,1.58.96,2.59.96.83,0,1.53-.19,2.08-.58.56-.39.95-.91,1.17-1.56h2.07c-.31,1.11-.93,2.02-1.86,2.72-.93.7-2.09,1.05-3.47,1.05-1.1,0-2.09-.25-2.95-.74-.87-.49-1.55-1.2-2.04-2.11-.49-.91-.74-1.96-.74-3.16s.24-2.25.72-3.15c.48-.9,1.15-1.6,2.02-2.08.87-.49,1.86-.73,2.99-.73s2.07.24,2.92.72,1.5,1.14,1.96,1.98c.46.84.69,1.79.69,2.85,0,.37-.02.75-.06,1.16ZM419.75,569.76c-.32-.53-.77-.93-1.32-1.21-.56-.27-1.17-.41-1.85-.41-.97,0-1.8.31-2.49.93s-1.08,1.48-1.17,2.58h7.32c0-.73-.16-1.36-.49-1.89Z"/><path class="cls-3" d="M433.84,567.77c.87.85,1.31,2.08,1.31,3.69v6.83h-1.91v-6.56c0-1.16-.29-2.04-.87-2.66-.58-.61-1.37-.92-2.37-.92s-1.82.32-2.42.95c-.6.63-.9,1.56-.9,2.77v6.41h-1.93v-11.6h1.93v1.65c.38-.59.9-1.05,1.56-1.38.66-.32,1.38-.49,2.17-.49,1.41,0,2.55.43,3.43,1.28Z"/><path class="cls-3" d="M440.65,568.29v6.83c0,.56.12.96.36,1.2.24.23.66.35,1.25.35h1.42v1.63h-1.73c-1.07,0-1.88-.25-2.41-.74-.54-.49-.8-1.3-.8-2.43v-6.83h-1.5v-1.59h1.5v-2.92h1.92v2.92h3.03v1.59h-3.03Z"/><path class="cls-3" d="M451.66,569.34c.48-.9,1.14-1.59,1.98-2.08.84-.49,1.78-.74,2.82-.74.9,0,1.74.21,2.52.62s1.37.96,1.78,1.64v-6.14h1.95v15.66h-1.95v-2.18c-.38.69-.95,1.26-1.69,1.7-.75.44-1.62.67-2.62.67s-1.96-.25-2.8-.76c-.84-.51-1.5-1.22-1.98-2.14s-.72-1.96-.72-3.13.24-2.23.72-3.12ZM460.23,570.2c-.35-.65-.83-1.15-1.43-1.49-.6-.35-1.26-.52-1.98-.52s-1.38.17-1.97.51c-.59.34-1.07.83-1.42,1.48s-.53,1.41-.53,2.29.18,1.66.53,2.32.83,1.16,1.42,1.5c.59.35,1.25.52,1.97.52s1.38-.17,1.98-.52c.6-.35,1.08-.85,1.43-1.5s.53-1.42.53-2.3-.18-1.64-.53-2.29Z"/><path class="cls-3" d="M476.48,573.22h-9.27c.07,1.14.46,2.03,1.17,2.68.71.64,1.58.96,2.59.96.83,0,1.53-.19,2.08-.58.56-.39.95-.91,1.17-1.56h2.07c-.31,1.11-.93,2.02-1.86,2.72-.93.7-2.09,1.05-3.47,1.05-1.1,0-2.09-.25-2.95-.74-.87-.49-1.55-1.2-2.04-2.11-.49-.91-.74-1.96-.74-3.16s.24-2.25.72-3.15c.48-.9,1.15-1.6,2.02-2.08.87-.49,1.86-.73,2.99-.73s2.07.24,2.92.72,1.5,1.14,1.96,1.98c.46.84.69,1.79.69,2.85,0,.37-.02.75-.06,1.16ZM474.07,569.76c-.32-.53-.77-.93-1.32-1.21-.56-.27-1.17-.41-1.85-.41-.97,0-1.8.31-2.49.93s-1.08,1.48-1.17,2.58h7.32c0-.73-.16-1.36-.49-1.89Z"/><path class="cls-3" d="M481.43,568.29v6.83c0,.56.12.96.36,1.2.24.23.66.35,1.25.35h1.42v1.63h-1.73c-1.07,0-1.88-.25-2.41-.74-.54-.49-.8-1.3-.8-2.43v-6.83h-1.5v-1.59h1.5v-2.92h1.92v2.92h3.03v1.59h-3.03Z"/><path class="cls-3" d="M486.79,569.34c.48-.9,1.14-1.59,1.98-2.08.84-.49,1.77-.74,2.8-.74s1.9.22,2.65.66c.75.44,1.3.99,1.67,1.65v-2.12h1.95v11.6h-1.95v-2.16c-.38.68-.95,1.24-1.7,1.68-.76.44-1.63.67-2.63.67s-1.96-.25-2.79-.76c-.83-.51-1.49-1.22-1.97-2.14s-.72-1.96-.72-3.13.24-2.23.72-3.12ZM495.36,570.2c-.35-.65-.83-1.15-1.43-1.49-.6-.35-1.26-.52-1.98-.52s-1.38.17-1.97.51c-.59.34-1.07.83-1.42,1.48s-.53,1.41-.53,2.29.18,1.66.53,2.32.83,1.16,1.42,1.5c.59.35,1.25.52,1.97.52s1.38-.17,1.98-.52c.6-.35,1.08-.85,1.43-1.5s.53-1.42.53-2.3-.18-1.64-.53-2.29Z"/><path class="cls-3" d="M501.15,564.44c-.25-.25-.38-.56-.38-.93s.13-.68.38-.93c.25-.25.56-.38.93-.38s.65.13.9.38c.25.25.37.56.37.93s-.12.68-.37.93-.55.38-.9.38-.68-.13-.93-.38ZM503.02,566.7v11.6h-1.93v-11.6h1.93Z"/><path class="cls-3" d="M508.22,562.64v15.66h-1.93v-15.66h1.93Z"/><path class="cls-3" d="M513.21,578.04c-.71-.3-1.26-.73-1.67-1.27-.41-.54-.63-1.17-.68-1.87h1.99c.06.58.33,1.05.81,1.42s1.13.55,1.92.55c.73,0,1.31-.16,1.73-.49.42-.32.63-.73.63-1.23s-.23-.88-.68-1.13-1.15-.49-2.1-.73c-.86-.23-1.56-.45-2.1-.69-.54-.23-1.01-.58-1.4-1.04-.39-.46-.58-1.06-.58-1.81,0-.59.18-1.14.53-1.63.35-.49.85-.88,1.5-1.17.65-.29,1.39-.43,2.22-.43,1.28,0,2.32.32,3.11.97.79.65,1.21,1.54,1.27,2.67h-1.93c-.04-.61-.29-1.09-.73-1.46-.44-.37-1.04-.55-1.79-.55-.69,0-1.24.15-1.65.44-.41.3-.61.68-.61,1.16,0,.38.12.7.37.94.25.25.56.44.93.59.37.15.89.31,1.56.5.83.23,1.51.45,2.03.67.52.22.97.55,1.34.98.37.44.57,1.01.58,1.71,0,.63-.18,1.21-.53,1.71-.35.51-.85.91-1.49,1.2s-1.38.43-2.21.43c-.89,0-1.69-.15-2.39-.45Z"/><path class="cls-3" d="M532.91,568.29h-2.43v10.01h-1.93v-10.01h-1.5v-1.59h1.5v-.83c0-1.3.33-2.25,1.01-2.85.67-.6,1.75-.9,3.23-.9v1.61c-.85,0-1.44.17-1.79.5-.35.33-.52.88-.52,1.64v.83h2.43v1.59Z"/><path class="cls-3" d="M537.26,577.75c-.88-.49-1.57-1.2-2.07-2.11-.5-.91-.75-1.96-.75-3.16s.26-2.23.77-3.14c.51-.91,1.22-1.61,2.11-2.1s1.88-.73,2.98-.73,2.09.24,2.98.73,1.59,1.18,2.11,2.08c.51.9.77,1.95.77,3.15s-.26,2.25-.79,3.16c-.53.91-1.25,1.61-2.15,2.11-.9.49-1.9.74-3,.74s-2.07-.25-2.95-.74ZM542.16,576.31c.61-.32,1.1-.81,1.47-1.46s.56-1.44.56-2.37-.18-1.72-.55-2.37c-.37-.65-.85-1.13-1.44-1.45-.59-.32-1.23-.48-1.93-.48s-1.35.16-1.94.48c-.59.32-1.05.8-1.41,1.45-.35.65-.53,1.44-.53,2.37s.17,1.74.52,2.39c.35.65.81,1.13,1.39,1.45s1.21.48,1.91.48,1.34-.16,1.95-.49Z"/><path class="cls-3" d="M552.08,567.04c.63-.37,1.39-.55,2.3-.55v1.99h-.51c-2.16,0-3.24,1.17-3.24,3.51v6.31h-1.93v-11.6h1.93v1.88c.34-.66.82-1.18,1.45-1.54Z"/><path class="cls-3" d="M572.23,566.7l-6.98,17.06h-1.99l2.29-5.59-4.68-11.47h2.14l3.64,9.4,3.6-9.4h1.99Z"/><path class="cls-3" d="M576.26,577.75c-.88-.49-1.57-1.2-2.07-2.11-.5-.91-.75-1.96-.75-3.16s.26-2.23.77-3.14c.51-.91,1.22-1.61,2.11-2.1s1.88-.73,2.98-.73,2.09.24,2.98.73,1.59,1.18,2.11,2.08c.51.9.77,1.95.77,3.15s-.26,2.25-.79,3.16c-.53.91-1.25,1.61-2.15,2.11-.9.49-1.9.74-3,.74s-2.07-.25-2.95-.74ZM581.16,576.31c.61-.32,1.1-.81,1.47-1.46s.56-1.44.56-2.37-.18-1.72-.55-2.37c-.37-.65-.85-1.13-1.44-1.45-.59-.32-1.23-.48-1.93-.48s-1.35.16-1.94.48c-.59.32-1.05.8-1.41,1.45-.35.65-.53,1.44-.53,2.37s.17,1.74.52,2.39c.35.65.81,1.13,1.39,1.45s1.21.48,1.91.48,1.34-.16,1.95-.49Z"/><path class="cls-3" d="M597.98,566.7v11.6h-1.92v-1.71c-.37.59-.88,1.05-1.53,1.39s-1.38.5-2.17.5c-.9,0-1.71-.19-2.43-.56-.72-.37-1.29-.93-1.7-1.68-.42-.75-.62-1.66-.62-2.73v-6.79h1.9v6.54c0,1.14.29,2.02.87,2.63s1.37.92,2.37.92,1.84-.32,2.43-.95c.59-.63.89-1.56.89-2.77v-6.37h1.92Z"/><path class="cls-3" d="M606.89,569.34c.48-.9,1.14-1.59,1.98-2.08.84-.49,1.77-.74,2.8-.74s1.9.22,2.65.66c.75.44,1.3.99,1.67,1.65v-2.12h1.95v11.6h-1.95v-2.16c-.38.68-.95,1.24-1.7,1.68-.76.44-1.63.67-2.63.67s-1.96-.25-2.79-.76c-.83-.51-1.49-1.22-1.97-2.14s-.72-1.96-.72-3.13.24-2.23.72-3.12ZM615.46,570.2c-.35-.65-.83-1.15-1.43-1.49-.6-.35-1.26-.52-1.98-.52s-1.38.17-1.97.51c-.59.34-1.07.83-1.42,1.48s-.53,1.41-.53,2.29.18,1.66.53,2.32.83,1.16,1.42,1.5c.59.35,1.25.52,1.97.52s1.38-.17,1.98-.52c.6-.35,1.08-.85,1.43-1.5s.53-1.42.53-2.3-.18-1.64-.53-2.29Z"/><path class="cls-3" d="M630.27,567.77c.87.85,1.31,2.08,1.31,3.69v6.83h-1.91v-6.56c0-1.16-.29-2.04-.87-2.66-.58-.61-1.37-.92-2.37-.92s-1.82.32-2.42.95c-.6.63-.9,1.56-.9,2.77v6.41h-1.93v-11.6h1.93v1.65c.38-.59.9-1.05,1.56-1.38.66-.32,1.38-.49,2.17-.49,1.41,0,2.55.43,3.43,1.28Z"/><path class="cls-3" d="M634.74,569.34c.48-.9,1.14-1.59,1.98-2.08.84-.49,1.78-.74,2.82-.74.9,0,1.74.21,2.52.62s1.37.96,1.78,1.64v-6.14h1.95v15.66h-1.95v-2.18c-.38.69-.95,1.26-1.69,1.7-.75.44-1.62.67-2.62.67s-1.96-.25-2.8-.76c-.84-.51-1.5-1.22-1.98-2.14s-.72-1.96-.72-3.13.24-2.23.72-3.12ZM643.31,570.2c-.35-.65-.83-1.15-1.43-1.49-.6-.35-1.26-.52-1.98-.52s-1.38.17-1.97.51c-.59.34-1.07.83-1.42,1.48s-.53,1.41-.53,2.29.18,1.66.53,2.32.83,1.16,1.42,1.5c.59.35,1.25.52,1.97.52s1.38-.17,1.98-.52c.6-.35,1.08-.85,1.43-1.5s.53-1.42.53-2.3-.18-1.64-.53-2.29Z"/><path class="cls-3" d="M657.04,568.29v6.83c0,.56.12.96.36,1.2.24.23.66.35,1.25.35h1.42v1.63h-1.73c-1.07,0-1.88-.25-2.41-.74-.54-.49-.8-1.3-.8-2.43v-6.83h-1.5v-1.59h1.5v-2.92h1.92v2.92h3.03v1.59h-3.03Z"/><path class="cls-3" d="M670.52,567.05c.71.37,1.26.93,1.66,1.68.4.75.6,1.66.6,2.73v6.83h-1.91v-6.56c0-1.16-.29-2.04-.87-2.66-.58-.61-1.37-.92-2.37-.92s-1.82.32-2.42.95c-.6.63-.9,1.56-.9,2.77v6.41h-1.93v-15.66h1.93v5.71c.38-.59.91-1.05,1.58-1.38.67-.32,1.42-.49,2.25-.49.87,0,1.66.19,2.37.56Z"/><path class="cls-3" d="M678.04,577.75c-.88-.49-1.57-1.2-2.07-2.11-.5-.91-.75-1.96-.75-3.16s.26-2.23.77-3.14c.51-.91,1.22-1.61,2.11-2.1s1.88-.73,2.98-.73,2.09.24,2.98.73,1.59,1.18,2.11,2.08c.51.9.77,1.95.77,3.15s-.26,2.25-.79,3.16c-.53.91-1.25,1.61-2.15,2.11-.9.49-1.9.74-3,.74s-2.07-.25-2.95-.74ZM682.94,576.31c.61-.32,1.1-.81,1.47-1.46s.56-1.44.56-2.37-.18-1.72-.55-2.37c-.37-.65-.85-1.13-1.44-1.45-.59-.32-1.23-.48-1.93-.48s-1.35.16-1.94.48c-.59.32-1.05.8-1.41,1.45-.35.65-.53,1.44-.53,2.37s.17,1.74.52,2.39c.35.65.81,1.13,1.39,1.45s1.21.48,1.91.48,1.34-.16,1.95-.49Z"/><path class="cls-3" d="M691.19,578.04c-.71-.3-1.26-.73-1.67-1.27-.41-.54-.63-1.17-.68-1.87h1.99c.06.58.33,1.05.81,1.42s1.13.55,1.92.55c.73,0,1.31-.16,1.73-.49.42-.32.63-.73.63-1.23s-.23-.88-.68-1.13-1.15-.49-2.1-.73c-.86-.23-1.56-.45-2.1-.69-.54-.23-1.01-.58-1.4-1.04-.39-.46-.58-1.06-.58-1.81,0-.59.18-1.14.53-1.63.35-.49.85-.88,1.5-1.17.65-.29,1.39-.43,2.22-.43,1.28,0,2.32.32,3.11.97.79.65,1.21,1.54,1.27,2.67h-1.93c-.04-.61-.29-1.09-.73-1.46-.44-.37-1.04-.55-1.79-.55-.69,0-1.24.15-1.65.44-.41.3-.61.68-.61,1.16,0,.38.12.7.37.94.25.25.56.44.93.59.37.15.89.31,1.56.5.83.23,1.51.45,2.03.67.52.22.97.55,1.34.98.37.44.57,1.01.58,1.71,0,.63-.18,1.21-.53,1.71-.35.51-.85.91-1.49,1.2s-1.38.43-2.21.43c-.89,0-1.69-.15-2.39-.45Z"/><path class="cls-3" d="M711.04,573.22h-9.27c.07,1.14.46,2.03,1.17,2.68.71.64,1.58.96,2.59.96.83,0,1.53-.19,2.08-.58.56-.39.95-.91,1.17-1.56h2.07c-.31,1.11-.93,2.02-1.86,2.72-.93.7-2.09,1.05-3.47,1.05-1.1,0-2.09-.25-2.95-.74-.87-.49-1.55-1.2-2.04-2.11-.49-.91-.74-1.96-.74-3.16s.24-2.25.72-3.15c.48-.9,1.15-1.6,2.02-2.08.87-.49,1.86-.73,2.99-.73s2.07.24,2.92.72,1.5,1.14,1.96,1.98c.46.84.69,1.79.69,2.85,0,.37-.02.75-.06,1.16ZM708.63,569.76c-.32-.53-.77-.93-1.32-1.21-.56-.27-1.17-.41-1.85-.41-.97,0-1.8.31-2.49.93s-1.08,1.48-1.17,2.58h7.32c0-.73-.16-1.36-.49-1.89Z"/><path class="cls-3" d="M734.74,566.7l-3.62,11.6h-1.99l-2.79-9.21-2.79,9.21h-1.99l-3.64-11.6h1.97l2.67,9.73,2.88-9.73h1.97l2.81,9.75,2.62-9.75h1.9Z"/><path class="cls-3" d="M736.71,564.44c-.25-.25-.38-.56-.38-.93s.13-.68.38-.93c.25-.25.56-.38.93-.38s.65.13.9.38c.25.25.37.56.37.93s-.12.68-.37.93-.55.38-.9.38-.68-.13-.93-.38ZM738.57,566.7v11.6h-1.93v-11.6h1.93Z"/><path class="cls-3" d="M744.2,568.29v6.83c0,.56.12.96.36,1.2.24.23.66.35,1.25.35h1.42v1.63h-1.73c-1.07,0-1.88-.25-2.41-.74-.54-.49-.8-1.3-.8-2.43v-6.83h-1.5v-1.59h1.5v-2.92h1.92v2.92h3.03v1.59h-3.03Z"/><path class="cls-3" d="M757.68,567.05c.71.37,1.26.93,1.66,1.68.4.75.6,1.66.6,2.73v6.83h-1.91v-6.56c0-1.16-.29-2.04-.87-2.66-.58-.61-1.37-.92-2.37-.92s-1.82.32-2.42.95c-.6.63-.9,1.56-.9,2.77v6.41h-1.93v-15.66h1.93v5.71c.38-.59.91-1.05,1.58-1.38.67-.32,1.42-.49,2.25-.49.87,0,1.66.19,2.37.56Z"/><path class="cls-3" d="M768.75,569.34c.48-.9,1.14-1.59,1.98-2.08.84-.49,1.77-.74,2.8-.74s1.9.22,2.65.66c.75.44,1.3.99,1.67,1.65v-2.12h1.95v11.6h-1.95v-2.16c-.38.68-.95,1.24-1.7,1.68-.76.44-1.63.67-2.63.67s-1.96-.25-2.79-.76c-.83-.51-1.49-1.22-1.97-2.14s-.72-1.96-.72-3.13.24-2.23.72-3.12ZM777.32,570.2c-.35-.65-.83-1.15-1.43-1.49-.6-.35-1.26-.52-1.98-.52s-1.38.17-1.97.51c-.59.34-1.07.83-1.42,1.48s-.53,1.41-.53,2.29.18,1.66.53,2.32.83,1.16,1.42,1.5c.59.35,1.25.52,1.97.52s1.38-.17,1.98-.52c.6-.35,1.08-.85,1.43-1.5s.53-1.42.53-2.3-.18-1.64-.53-2.29Z"/><path class="cls-3" d="M783.05,569.34c.48-.9,1.15-1.59,2-2.08.85-.49,1.83-.74,2.93-.74,1.42,0,2.6.35,3.52,1.04.92.69,1.53,1.65,1.83,2.88h-2.07c-.2-.71-.58-1.26-1.15-1.67-.57-.41-1.28-.61-2.13-.61-1.1,0-1.99.38-2.67,1.13-.68.76-1.02,1.82-1.02,3.21s.34,2.48,1.02,3.24c.68.76,1.57,1.14,2.67,1.14.85,0,1.55-.2,2.12-.59s.95-.96,1.16-1.69h2.07c-.31,1.19-.93,2.13-1.86,2.85-.93.71-2.1,1.07-3.49,1.07-1.1,0-2.08-.25-2.93-.74-.85-.49-1.52-1.19-2-2.09-.48-.9-.72-1.96-.72-3.17s.24-2.25.72-3.14Z"/><path class="cls-3" d="M795.89,569.34c.48-.9,1.15-1.59,2-2.08.85-.49,1.83-.74,2.93-.74,1.42,0,2.6.35,3.52,1.04.92.69,1.53,1.65,1.83,2.88h-2.07c-.2-.71-.58-1.26-1.15-1.67-.57-.41-1.28-.61-2.13-.61-1.1,0-1.99.38-2.67,1.13-.68.76-1.02,1.82-1.02,3.21s.34,2.48,1.02,3.24c.68.76,1.57,1.14,2.67,1.14.85,0,1.55-.2,2.12-.59s.95-.96,1.16-1.69h2.07c-.31,1.19-.93,2.13-1.86,2.85-.93.71-2.1,1.07-3.49,1.07-1.1,0-2.08-.25-2.93-.74-.85-.49-1.52-1.19-2-2.09-.48-.9-.72-1.96-.72-3.17s.24-2.25.72-3.14Z"/><path class="cls-3" d="M819.26,573.22h-9.27c.07,1.14.46,2.03,1.17,2.68.71.64,1.58.96,2.59.96.83,0,1.53-.19,2.08-.58.56-.39.95-.91,1.17-1.56h2.07c-.31,1.11-.93,2.02-1.86,2.72-.93.7-2.09,1.05-3.47,1.05-1.1,0-2.09-.25-2.95-.74-.87-.49-1.55-1.2-2.04-2.11-.49-.91-.74-1.96-.74-3.16s.24-2.25.72-3.15c.48-.9,1.15-1.6,2.02-2.08.87-.49,1.86-.73,2.99-.73s2.07.24,2.92.72,1.5,1.14,1.96,1.98c.46.84.69,1.79.69,2.85,0,.37-.02.75-.06,1.16ZM816.84,569.76c-.32-.53-.77-.93-1.32-1.21-.56-.27-1.17-.41-1.85-.41-.97,0-1.8.31-2.49.93s-1.08,1.48-1.17,2.58h7.32c0-.73-.16-1.36-.49-1.89Z"/><path class="cls-3" d="M823.57,578.04c-.71-.3-1.26-.73-1.67-1.27-.41-.54-.63-1.17-.68-1.87h1.99c.06.58.33,1.05.81,1.42s1.13.55,1.92.55c.73,0,1.31-.16,1.73-.49.42-.32.63-.73.63-1.23s-.23-.88-.68-1.13-1.15-.49-2.1-.73c-.86-.23-1.56-.45-2.1-.69-.54-.23-1.01-.58-1.4-1.04-.39-.46-.58-1.06-.58-1.81,0-.59.18-1.14.53-1.63.35-.49.85-.88,1.5-1.17.65-.29,1.39-.43,2.22-.43,1.28,0,2.32.32,3.11.97.79.65,1.21,1.54,1.27,2.67h-1.93c-.04-.61-.29-1.09-.73-1.46-.44-.37-1.04-.55-1.79-.55-.69,0-1.24.15-1.65.44-.41.3-.61.68-.61,1.16,0,.38.12.7.37.94.25.25.56.44.93.59.37.15.89.31,1.56.5.83.23,1.51.45,2.03.67.52.22.97.55,1.34.98.37.44.57,1.01.58,1.71,0,.63-.18,1.21-.53,1.71-.35.51-.85.91-1.49,1.2s-1.38.43-2.21.43c-.89,0-1.69-.15-2.39-.45Z"/><path class="cls-3" d="M834.62,578.04c-.71-.3-1.26-.73-1.67-1.27-.41-.54-.63-1.17-.68-1.87h1.99c.06.58.33,1.05.81,1.42s1.13.55,1.92.55c.73,0,1.31-.16,1.73-.49.42-.32.63-.73.63-1.23s-.23-.88-.68-1.13-1.15-.49-2.1-.73c-.86-.23-1.56-.45-2.1-.69-.54-.23-1.01-.58-1.4-1.04-.39-.46-.58-1.06-.58-1.81,0-.59.18-1.14.53-1.63.35-.49.85-.88,1.5-1.17.65-.29,1.39-.43,2.22-.43,1.28,0,2.32.32,3.11.97.79.65,1.21,1.54,1.27,2.67h-1.93c-.04-.61-.29-1.09-.73-1.46-.44-.37-1.04-.55-1.79-.55-.69,0-1.24.15-1.65.44-.41.3-.61.68-.61,1.16,0,.38.12.7.37.94.25.25.56.44.93.59.37.15.89.31,1.56.5.83.23,1.51.45,2.03.67.52.22.97.55,1.34.98.37.44.57,1.01.58,1.71,0,.63-.18,1.21-.53,1.71-.35.51-.85.91-1.49,1.2s-1.38.43-2.21.43c-.89,0-1.69-.15-2.39-.45Z"/><path class="cls-3" d="M845.94,575.63l-2.37,5.69h-1.29l1.54-5.69h2.12Z"/><path class="cls-3" d="M391.02,604.2c-.88-.49-1.57-1.2-2.07-2.11-.5-.91-.75-1.96-.75-3.16s.26-2.23.77-3.14c.51-.91,1.22-1.61,2.11-2.1s1.88-.73,2.98-.73,2.09.24,2.98.73,1.59,1.18,2.11,2.08c.51.9.77,1.95.77,3.15s-.26,2.25-.79,3.16c-.53.91-1.25,1.61-2.15,2.11-.9.49-1.9.74-3,.74s-2.07-.25-2.95-.74ZM395.92,602.76c.61-.32,1.1-.81,1.47-1.46s.56-1.44.56-2.37-.18-1.72-.55-2.37c-.37-.65-.85-1.13-1.44-1.45-.59-.32-1.23-.48-1.93-.48s-1.35.16-1.94.48c-.59.32-1.05.8-1.41,1.45-.35.65-.53,1.44-.53,2.37s.17,1.74.52,2.39c.35.65.81,1.13,1.39,1.45s1.21.48,1.91.48,1.34-.16,1.95-.49Z"/><path class="cls-3" d="M404.81,594.74v6.83c0,.56.12.96.36,1.2.24.23.66.35,1.25.35h1.42v1.63h-1.73c-1.07,0-1.88-.25-2.41-.74-.54-.49-.8-1.3-.8-2.43v-6.83h-1.5v-1.59h1.5v-2.92h1.92v2.92h3.03v1.59h-3.03Z"/><path class="cls-3" d="M418.29,593.5c.71.37,1.26.93,1.66,1.68.4.75.6,1.66.6,2.73v6.83h-1.91v-6.56c0-1.16-.29-2.04-.87-2.66-.58-.61-1.37-.92-2.37-.92s-1.82.32-2.42.95c-.6.63-.9,1.56-.9,2.77v6.41h-1.93v-15.66h1.93v5.71c.38-.59.91-1.05,1.58-1.38.67-.32,1.42-.49,2.25-.49.87,0,1.66.19,2.37.56Z"/><path class="cls-3" d="M434.22,599.67h-9.27c.07,1.14.46,2.03,1.17,2.68.71.64,1.58.96,2.59.96.83,0,1.53-.19,2.08-.58.56-.39.95-.91,1.17-1.56h2.07c-.31,1.11-.93,2.02-1.86,2.72-.93.7-2.09,1.05-3.47,1.05-1.1,0-2.09-.25-2.95-.74-.87-.49-1.55-1.2-2.04-2.11-.49-.91-.74-1.96-.74-3.16s.24-2.25.72-3.15c.48-.9,1.15-1.6,2.02-2.08.87-.49,1.86-.73,2.99-.73s2.07.24,2.92.72,1.5,1.14,1.96,1.98c.46.84.69,1.79.69,2.85,0,.37-.02.75-.06,1.16ZM431.81,596.21c-.32-.53-.77-.93-1.32-1.21-.56-.27-1.17-.41-1.85-.41-.97,0-1.8.31-2.49.93s-1.08,1.48-1.17,2.58h7.32c0-.73-.16-1.36-.49-1.89Z"/><path class="cls-3" d="M440.2,593.49c.63-.37,1.39-.55,2.3-.55v1.99h-.51c-2.16,0-3.24,1.17-3.24,3.51v6.31h-1.93v-11.6h1.93v1.88c.34-.66.82-1.18,1.45-1.54Z"/><path class="cls-3" d="M460.17,593.15l-3.62,11.6h-1.99l-2.79-9.21-2.79,9.21h-1.99l-3.64-11.6h1.97l2.67,9.73,2.88-9.73h1.97l2.81,9.75,2.62-9.75h1.9Z"/><path class="cls-3" d="M462.13,590.89c-.25-.25-.38-.56-.38-.93s.13-.68.38-.93c.25-.25.56-.38.93-.38s.65.13.9.38c.25.25.37.56.37.93s-.12.68-.37.93-.55.38-.9.38-.68-.13-.93-.38ZM464,593.15v11.6h-1.93v-11.6h1.93Z"/><path class="cls-3" d="M468.99,604.49c-.71-.3-1.26-.73-1.67-1.27-.41-.54-.63-1.17-.68-1.87h1.99c.06.58.33,1.05.81,1.42s1.13.55,1.92.55c.73,0,1.31-.16,1.73-.49.42-.32.63-.73.63-1.23s-.23-.88-.68-1.13-1.15-.49-2.1-.73c-.86-.23-1.56-.45-2.1-.69-.54-.23-1.01-.58-1.4-1.04-.39-.46-.58-1.06-.58-1.81,0-.59.18-1.14.53-1.63.35-.49.85-.88,1.5-1.17.65-.29,1.39-.43,2.22-.43,1.28,0,2.32.32,3.11.97.79.65,1.21,1.54,1.27,2.67h-1.93c-.04-.61-.29-1.09-.73-1.46-.44-.37-1.04-.55-1.79-.55-.69,0-1.24.15-1.65.44-.41.3-.61.68-.61,1.16,0,.38.12.7.37.94.25.25.56.44.93.59.37.15.89.31,1.56.5.83.23,1.51.45,2.03.67.52.22.97.55,1.34.98.37.44.57,1.01.58,1.71,0,.63-.18,1.21-.53,1.71-.35.51-.85.91-1.49,1.2s-1.38.43-2.21.43c-.89,0-1.69-.15-2.39-.45Z"/><path class="cls-3" d="M488.84,599.67h-9.27c.07,1.14.46,2.03,1.17,2.68.71.64,1.58.96,2.59.96.83,0,1.53-.19,2.08-.58.56-.39.95-.91,1.17-1.56h2.07c-.31,1.11-.93,2.02-1.86,2.72-.93.7-2.09,1.05-3.47,1.05-1.1,0-2.09-.25-2.95-.74-.87-.49-1.55-1.2-2.04-2.11-.49-.91-.74-1.96-.74-3.16s.24-2.25.72-3.15c.48-.9,1.15-1.6,2.02-2.08.87-.49,1.86-.73,2.99-.73s2.07.24,2.92.72,1.5,1.14,1.96,1.98c.46.84.69,1.79.69,2.85,0,.37-.02.75-.06,1.16ZM486.42,596.21c-.32-.53-.77-.93-1.32-1.21-.56-.27-1.17-.41-1.85-.41-.97,0-1.8.31-2.49.93s-1.08,1.48-1.17,2.58h7.32c0-.73-.16-1.36-.49-1.89Z"/><path class="cls-3" d="M500.75,593.62c.76-.44,1.63-.66,2.6-.66,1.04,0,1.98.25,2.81.74.83.49,1.49,1.19,1.97,2.08.48.9.72,1.94.72,3.12s-.24,2.21-.72,3.13c-.48.92-1.14,1.63-1.98,2.14-.84.51-1.77.76-2.8.76s-1.88-.22-2.63-.66c-.75-.44-1.32-.99-1.7-1.67v2.14h-1.93v-15.66h1.93v6.22c.39-.69.97-1.26,1.73-1.69ZM506.36,596.63c-.35-.65-.83-1.14-1.43-1.48-.6-.34-1.26-.51-1.98-.51s-1.36.17-1.96.52c-.6.35-1.08.85-1.44,1.5-.36.66-.54,1.41-.54,2.27s.18,1.64.54,2.3.84,1.16,1.44,1.5c.6.35,1.25.52,1.96.52s1.38-.17,1.98-.52c.6-.35,1.08-.85,1.43-1.5s.53-1.43.53-2.32-.18-1.64-.53-2.29Z"/><path class="cls-3" d="M521.68,593.15v11.6h-1.92v-1.71c-.37.59-.88,1.05-1.53,1.39s-1.38.5-2.17.5c-.9,0-1.71-.19-2.43-.56-.72-.37-1.29-.93-1.7-1.68-.42-.75-.62-1.66-.62-2.73v-6.79h1.9v6.54c0,1.14.29,2.02.87,2.63s1.37.92,2.37.92,1.84-.32,2.43-.95c.59-.63.89-1.56.89-2.77v-6.37h1.92Z"/><path class="cls-3" d="M526.65,604.49c-.71-.3-1.26-.73-1.67-1.27-.41-.54-.63-1.17-.68-1.87h1.99c.06.58.33,1.05.81,1.42s1.13.55,1.92.55c.73,0,1.31-.16,1.73-.49.42-.32.63-.73.63-1.23s-.23-.88-.68-1.13-1.15-.49-2.1-.73c-.86-.23-1.56-.45-2.1-.69-.54-.23-1.01-.58-1.4-1.04-.39-.46-.58-1.06-.58-1.81,0-.59.18-1.14.53-1.63.35-.49.85-.88,1.5-1.17.65-.29,1.39-.43,2.22-.43,1.28,0,2.32.32,3.11.97.79.65,1.21,1.54,1.27,2.67h-1.93c-.04-.61-.29-1.09-.73-1.46-.44-.37-1.04-.55-1.79-.55-.69,0-1.24.15-1.65.44-.41.3-.61.68-.61,1.16,0,.38.12.7.37.94.25.25.56.44.93.59.37.15.89.31,1.56.5.83.23,1.51.45,2.03.67.52.22.97.55,1.34.98.37.44.57,1.01.58,1.71,0,.63-.18,1.21-.53,1.71-.35.51-.85.91-1.49,1.2s-1.38.43-2.21.43c-.89,0-1.69-.15-2.39-.45Z"/><path class="cls-3" d="M545.97,593.15l-6.98,17.06h-1.99l2.29-5.59-4.68-11.47h2.14l3.64,9.4,3.6-9.4h1.99Z"/><circle class="cls-15" cx="372.76" cy="571.04" r="7.94"/><rect class="cls-2" x="347.37" y="673.93" width="224.83" height="66" rx="17.64" ry="17.64"/><path class="cls-9" d="M379.51,713.69c-.91-.41-1.62-.98-2.14-1.7-.52-.73-.79-1.57-.8-2.52h2.43c.08.82.42,1.51,1.01,2.07.59.56,1.46.84,2.59.84s1.94-.27,2.57-.81c.63-.54.94-1.24.94-2.09,0-.67-.18-1.21-.55-1.63-.37-.42-.83-.74-1.38-.95-.55-.22-1.29-.45-2.23-.7-1.15-.3-2.08-.6-2.77-.9-.69-.3-1.29-.77-1.78-1.42-.49-.64-.74-1.51-.74-2.59,0-.95.24-1.8.73-2.53s1.17-1.3,2.04-1.7c.88-.4,1.88-.6,3.02-.6,1.64,0,2.98.41,4.02,1.23s1.63,1.9,1.77,3.26h-2.51c-.08-.67-.43-1.26-1.05-1.77-.62-.51-1.44-.76-2.46-.76-.95,0-1.73.25-2.33.74-.6.49-.9,1.18-.9,2.07,0,.64.18,1.15.54,1.55.36.4.8.7,1.33.91s1.27.45,2.22.71c1.15.32,2.08.63,2.78.94.7.31,1.3.79,1.8,1.43.5.64.75,1.52.75,2.62,0,.85-.23,1.65-.68,2.41-.45.75-1.12,1.36-2,1.83-.89.47-1.93.7-3.13.7s-2.18-.2-3.09-.61Z"/><path class="cls-9" d="M394.56,702.28v8.1c0,.67.14,1.14.43,1.41.28.28.78.41,1.48.41h1.68v1.93h-2.05c-1.27,0-2.22-.29-2.86-.88s-.95-1.55-.95-2.88v-8.1h-1.78v-1.88h1.78v-3.46h2.28v3.46h3.58v1.88h-3.58Z"/><path class="cls-9" d="M400.9,703.52c.57-1.06,1.35-1.88,2.34-2.47.99-.58,2.1-.88,3.32-.88s2.25.26,3.13.78c.89.52,1.55,1.17,1.98,1.95v-2.51h2.31v13.73h-2.31v-2.56c-.45.8-1.12,1.47-2.02,1.99-.89.53-1.93.79-3.12.79s-2.32-.3-3.31-.9c-.99-.6-1.76-1.44-2.33-2.53-.57-1.09-.85-2.32-.85-3.71s.28-2.63.85-3.7ZM411.05,704.54c-.42-.77-.98-1.36-1.69-1.77-.71-.41-1.49-.61-2.34-.61s-1.63.2-2.33.6c-.7.4-1.26.98-1.68,1.75s-.63,1.67-.63,2.71.21,1.97.63,2.74c.42.78.98,1.37,1.68,1.78.7.41,1.48.61,2.33.61s1.63-.21,2.34-.61c.71-.41,1.27-1,1.69-1.78.42-.78.63-1.68.63-2.72s-.21-1.94-.63-2.71Z"/><path class="cls-9" d="M421.83,700.8c.74-.43,1.65-.65,2.72-.65v2.36h-.6c-2.56,0-3.83,1.39-3.83,4.16v7.47h-2.28v-13.73h2.28v2.23c.4-.78.97-1.39,1.72-1.83Z"/><path class="cls-9" d="M429.96,702.28v8.1c0,.67.14,1.14.43,1.41.28.28.78.41,1.48.41h1.68v1.93h-2.05c-1.27,0-2.22-.29-2.86-.88s-.95-1.55-.95-2.88v-8.1h-1.78v-1.88h1.78v-3.46h2.28v3.46h3.58v1.88h-3.58Z"/><path class="cls-9" d="M445.44,713.69c-.91-.41-1.62-.98-2.14-1.7-.52-.73-.79-1.57-.8-2.52h2.43c.08.82.42,1.51,1.01,2.07.59.56,1.46.84,2.59.84s1.94-.27,2.57-.81c.63-.54.94-1.24.94-2.09,0-.67-.18-1.21-.55-1.63-.37-.42-.83-.74-1.38-.95-.55-.22-1.29-.45-2.23-.7-1.15-.3-2.08-.6-2.77-.9-.69-.3-1.29-.77-1.78-1.42-.49-.64-.74-1.51-.74-2.59,0-.95.24-1.8.73-2.53s1.17-1.3,2.04-1.7c.88-.4,1.88-.6,3.02-.6,1.64,0,2.98.41,4.02,1.23s1.63,1.9,1.77,3.26h-2.51c-.08-.67-.43-1.26-1.05-1.77-.62-.51-1.44-.76-2.46-.76-.95,0-1.73.25-2.33.74-.6.49-.9,1.18-.9,2.07,0,.64.18,1.15.54,1.55.36.4.8.7,1.33.91s1.27.45,2.22.71c1.15.32,2.08.63,2.78.94.7.31,1.3.79,1.8,1.43.5.64.75,1.52.75,2.62,0,.85-.23,1.65-.68,2.41-.45.75-1.12,1.36-2,1.83-.89.47-1.93.7-3.13.7s-2.18-.2-3.09-.61Z"/><path class="cls-9" d="M469.53,700.4l-8.27,20.2h-2.36l2.71-6.62-5.54-13.58h2.53l4.31,11.13,4.26-11.13h2.36Z"/><path class="cls-9" d="M482.56,701.67c1.04,1.01,1.55,2.47,1.55,4.37v8.1h-2.26v-7.77c0-1.37-.34-2.42-1.03-3.15-.69-.73-1.62-1.09-2.81-1.09s-2.16.38-2.87,1.13c-.71.75-1.06,1.85-1.06,3.28v7.59h-2.28v-13.73h2.28v1.96c.45-.7,1.06-1.24,1.84-1.63s1.63-.58,2.57-.58c1.67,0,3.02.51,4.06,1.52Z"/><path class="cls-9" d="M487.85,703.52c.57-1.06,1.36-1.88,2.37-2.47s2.17-.88,3.47-.88c1.69,0,3.08.41,4.17,1.23,1.09.82,1.82,1.95,2.17,3.41h-2.46c-.23-.84-.69-1.5-1.37-1.98s-1.52-.73-2.52-.73c-1.3,0-2.36.45-3.16,1.34-.8.89-1.2,2.16-1.2,3.8s.4,2.93,1.2,3.83c.8.9,1.85,1.35,3.16,1.35,1,0,1.84-.23,2.51-.7.67-.47,1.13-1.14,1.38-2.01h2.46c-.37,1.4-1.1,2.53-2.2,3.37-1.1.84-2.48,1.27-4.13,1.27-1.3,0-2.46-.29-3.47-.88s-1.8-1.41-2.37-2.48-.85-2.32-.85-3.76.28-2.66.85-3.72Z"/><path class="cls-9" d="M503.14,697.72c-.3-.3-.45-.67-.45-1.1s.15-.8.45-1.1.67-.45,1.1-.45.77.15,1.06.45c.29.3.44.67.44,1.1s-.15.8-.44,1.1-.65.45-1.06.45-.8-.15-1.1-.45ZM505.34,700.4v13.73h-2.28v-13.73h2.28Z"/><path class="cls-9" d="M519.98,701.67c1.04,1.01,1.55,2.47,1.55,4.37v8.1h-2.26v-7.77c0-1.37-.34-2.42-1.03-3.15-.69-.73-1.62-1.09-2.81-1.09s-2.16.38-2.87,1.13c-.71.75-1.06,1.85-1.06,3.28v7.59h-2.28v-13.73h2.28v1.96c.45-.7,1.06-1.24,1.84-1.63s1.63-.58,2.57-.58c1.67,0,3.02.51,4.06,1.52Z"/><path class="cls-9" d="M534.05,700.95c.89.52,1.56,1.17,1.99,1.95v-2.51h2.31v14.03c0,1.25-.27,2.37-.8,3.35s-1.3,1.74-2.29,2.29c-.99.55-2.15.83-3.47.83-1.8,0-3.31-.43-4.51-1.28-1.2-.85-1.91-2.01-2.13-3.48h2.26c.25.83.77,1.51,1.55,2.02.78.51,1.73.76,2.83.76,1.25,0,2.28-.39,3.07-1.18.79-.78,1.19-1.89,1.19-3.31v-2.88c-.45.8-1.12,1.47-2,2-.89.54-1.92.8-3.11.8s-2.33-.3-3.32-.9c-.99-.6-1.78-1.44-2.34-2.53-.57-1.09-.85-2.32-.85-3.71s.28-2.63.85-3.7c.57-1.06,1.35-1.88,2.34-2.47.99-.58,2.1-.88,3.32-.88s2.23.26,3.12.78ZM535.41,704.54c-.42-.77-.98-1.36-1.69-1.77-.71-.41-1.49-.61-2.34-.61s-1.63.2-2.33.6c-.7.4-1.26.98-1.68,1.75s-.63,1.67-.63,2.71.21,1.97.63,2.74c.42.78.98,1.37,1.68,1.78.7.41,1.48.61,2.33.61s1.63-.21,2.34-.61c.71-.41,1.27-1,1.69-1.78.42-.78.63-1.68.63-2.72s-.21-1.94-.63-2.71Z"/><path class="cls-6" d="M350.77,224.38c.98-1.74,2.32-3.1,4.02-4.08,1.7-.98,3.58-1.47,5.65-1.47,2.43,0,4.55.59,6.37,1.76,1.81,1.17,3.14,2.84,3.97,4.99h-3.49c-.62-1.34-1.51-2.38-2.67-3.1-1.16-.72-2.56-1.09-4.18-1.09s-2.96.36-4.19,1.09c-1.24.73-2.21,1.76-2.91,3.09-.7,1.33-1.06,2.9-1.06,4.69s.35,3.32,1.06,4.66,1.67,2.36,2.91,3.09c1.24.73,2.63,1.09,4.19,1.09s3.01-.36,4.18-1.07c1.16-.71,2.05-1.74,2.67-3.09h3.49c-.83,2.13-2.15,3.78-3.97,4.94s-3.94,1.74-6.37,1.74c-2.07,0-3.95-.48-5.65-1.46-1.7-.97-3.04-2.32-4.02-4.05s-1.47-3.68-1.47-5.86.49-4.13,1.47-5.87Z"/><path class="cls-6" d="M375.09,227.87c.73-1.35,1.72-2.41,2.99-3.15,1.27-.75,2.68-1.12,4.24-1.12s2.87.33,4,.99c1.13.66,1.97,1.49,2.53,2.5v-3.2h2.94v17.54h-2.94v-3.26c-.58,1.02-1.43,1.87-2.58,2.54-1.14.67-2.47,1.01-3.98,1.01s-2.97-.38-4.22-1.15c-1.26-.77-2.25-1.84-2.98-3.23s-1.09-2.97-1.09-4.74.36-3.37,1.09-4.72ZM388.05,229.17c-.53-.98-1.25-1.73-2.16-2.26-.91-.52-1.9-.78-2.99-.78s-2.08.26-2.98.77c-.9.51-1.61,1.26-2.14,2.24-.53.98-.8,2.13-.8,3.46s.27,2.51.8,3.5c.53.99,1.25,1.75,2.14,2.27.9.52,1.89.78,2.98.78s2.08-.26,2.99-.78c.91-.52,1.63-1.28,2.16-2.27s.8-2.15.8-3.47-.27-2.47-.8-3.46Z"/><path class="cls-6" d="M399.63,217.74v23.68h-2.91v-23.68h2.91Z"/><path class="cls-6" d="M420.49,233.74h-14.02c.11,1.73.7,3.08,1.78,4.05s2.38,1.46,3.92,1.46c1.26,0,2.31-.29,3.15-.88s1.43-1.37,1.78-2.35h3.14c-.47,1.69-1.41,3.06-2.82,4.11-1.41,1.06-3.16,1.58-5.25,1.58-1.66,0-3.15-.37-4.46-1.12-1.31-.75-2.34-1.81-3.09-3.18-.75-1.38-1.12-2.97-1.12-4.78s.36-3.4,1.09-4.77c.73-1.36,1.74-2.42,3.06-3.15,1.31-.74,2.82-1.1,4.53-1.1s3.14.36,4.42,1.09c1.28.73,2.27,1.72,2.96,2.99.69,1.27,1.04,2.7,1.04,4.3,0,.56-.03,1.14-.1,1.76ZM416.85,228.51c-.49-.8-1.16-1.41-2-1.82s-1.78-.62-2.8-.62c-1.47,0-2.73.47-3.76,1.41-1.04.94-1.63,2.24-1.78,3.9h11.07c0-1.11-.25-2.06-.74-2.86Z"/><path class="cls-6" d="M438.16,225.5c1.32,1.29,1.98,3.15,1.98,5.58v10.34h-2.88v-9.92c0-1.75-.44-3.09-1.31-4.02-.88-.93-2.07-1.39-3.58-1.39s-2.76.48-3.66,1.44c-.91.96-1.36,2.36-1.36,4.19v9.7h-2.91v-17.54h2.91v2.5c.58-.9,1.36-1.59,2.35-2.08.99-.49,2.09-.74,3.28-.74,2.13,0,3.86.65,5.18,1.94Z"/><path class="cls-6" d="M444.91,227.87c.73-1.35,1.72-2.41,2.99-3.15,1.27-.75,2.69-1.12,4.27-1.12,1.37,0,2.63.32,3.81.94,1.17.63,2.07,1.46,2.69,2.48v-9.28h2.94v23.68h-2.94v-3.3c-.58,1.05-1.43,1.9-2.56,2.58-1.13.67-2.45,1.01-3.97,1.01s-2.97-.38-4.24-1.15c-1.27-.77-2.27-1.84-2.99-3.23s-1.09-2.97-1.09-4.74.36-3.37,1.09-4.72ZM457.87,229.17c-.53-.98-1.25-1.73-2.16-2.26-.91-.52-1.9-.78-2.99-.78s-2.08.26-2.98.77c-.9.51-1.61,1.26-2.14,2.24-.53.98-.8,2.13-.8,3.46s.27,2.51.8,3.5c.53.99,1.25,1.75,2.14,2.27.9.52,1.89.78,2.98.78s2.08-.26,2.99-.78c.91-.52,1.63-1.28,2.16-2.27s.8-2.15.8-3.47-.27-2.47-.8-3.46Z"/><path class="cls-6" d="M466.54,227.87c.73-1.35,1.72-2.41,2.99-3.15,1.27-.75,2.68-1.12,4.24-1.12s2.87.33,4,.99c1.13.66,1.97,1.49,2.53,2.5v-3.2h2.94v17.54h-2.94v-3.26c-.58,1.02-1.43,1.87-2.58,2.54-1.14.67-2.47,1.01-3.98,1.01s-2.97-.38-4.22-1.15c-1.26-.77-2.25-1.84-2.98-3.23s-1.09-2.97-1.09-4.74.36-3.37,1.09-4.72ZM479.5,229.17c-.53-.98-1.25-1.73-2.16-2.26-.91-.52-1.9-.78-2.99-.78s-2.08.26-2.98.77c-.9.51-1.61,1.26-2.14,2.24-.53.98-.8,2.13-.8,3.46s.27,2.51.8,3.5c.53.99,1.25,1.75,2.14,2.27.9.52,1.89.78,2.98.78s2.08-.26,2.99-.78c.91-.52,1.63-1.28,2.16-2.27s.8-2.15.8-3.47-.27-2.47-.8-3.46Z"/><path class="cls-6" d="M493.28,224.4c.95-.55,2.11-.83,3.47-.83v3.01h-.77c-3.26,0-4.9,1.77-4.9,5.31v9.54h-2.91v-17.54h2.91v2.85c.51-1,1.24-1.78,2.19-2.34Z"/><path class="cls-6" d="M511.77,240.86c-1.16-.52-2.08-1.25-2.74-2.18-.66-.93-1-2-1.02-3.22h3.1c.11,1.05.54,1.93,1.3,2.64.76.72,1.86,1.07,3.31,1.07s2.48-.35,3.28-1.04c.8-.69,1.2-1.58,1.2-2.67,0-.85-.23-1.55-.7-2.08-.47-.53-1.06-.94-1.76-1.22-.7-.28-1.65-.58-2.85-.9-1.47-.38-2.65-.77-3.54-1.15-.89-.38-1.64-.99-2.27-1.81-.63-.82-.94-1.93-.94-3.31,0-1.22.31-2.29.93-3.23.62-.94,1.49-1.66,2.61-2.18,1.12-.51,2.4-.77,3.86-.77,2.09,0,3.8.52,5.14,1.57,1.33,1.05,2.08,2.43,2.26,4.16h-3.2c-.11-.85-.55-1.6-1.34-2.26-.79-.65-1.83-.98-3.14-.98-1.22,0-2.21.31-2.98.94-.77.63-1.15,1.51-1.15,2.64,0,.81.23,1.47.69,1.98.46.51,1.02.9,1.7,1.17.67.27,1.62.57,2.83.91,1.47.41,2.66.81,3.55,1.2.9.4,1.66,1,2.3,1.82s.96,1.94.96,3.34c0,1.09-.29,2.11-.86,3.07s-1.43,1.74-2.56,2.34c-1.13.6-2.46.9-4,.9s-2.79-.26-3.95-.78Z"/><path class="cls-6" d="M542.54,223.89l-10.56,25.79h-3.01l3.46-8.45-7.07-17.34h3.23l5.5,14.21,5.44-14.21h3.01Z"/><path class="cls-6" d="M559.18,225.5c1.32,1.29,1.98,3.15,1.98,5.58v10.34h-2.88v-9.92c0-1.75-.44-3.09-1.31-4.02-.88-.93-2.07-1.39-3.58-1.39s-2.76.48-3.66,1.44c-.91.96-1.36,2.36-1.36,4.19v9.7h-2.91v-17.54h2.91v2.5c.58-.9,1.36-1.59,2.35-2.08.99-.49,2.09-.74,3.28-.74,2.13,0,3.86.65,5.18,1.94Z"/><path class="cls-6" d="M565.93,227.87c.73-1.35,1.73-2.41,3.02-3.15,1.29-.75,2.77-1.12,4.43-1.12,2.15,0,3.93.52,5.33,1.57,1.4,1.05,2.32,2.5,2.77,4.35h-3.14c-.3-1.07-.88-1.91-1.74-2.53-.86-.62-1.94-.93-3.22-.93-1.66,0-3.01.57-4.03,1.71-1.02,1.14-1.54,2.76-1.54,4.85s.51,3.74,1.54,4.9c1.02,1.15,2.37,1.73,4.03,1.73,1.28,0,2.35-.3,3.2-.9.85-.6,1.44-1.45,1.76-2.56h3.14c-.47,1.79-1.41,3.23-2.82,4.3-1.41,1.08-3.17,1.62-5.28,1.62-1.66,0-3.14-.37-4.43-1.12-1.29-.75-2.3-1.8-3.02-3.17s-1.09-2.96-1.09-4.8.36-3.4,1.09-4.75Z"/></g></svg>