<svg width="32" height="32" viewBox="0 0 32 32" fill="none" xmlns="http://www.w3.org/2000/svg">
<rect width="32" height="32" rx="5" fill="white"/>
<path fill-rule="evenodd" clip-rule="evenodd" d="M27.9144 8.83843C27.9144 5.62628 25.3106 3.02246 22.0984 3.02246C18.8863 3.02246 16.2825 5.62628 16.2825 8.83843C16.2825 12.0508 18.8863 14.6546 22.0984 14.6546C25.3106 14.6546 27.9144 12.0508 27.9144 8.83843Z" fill="#181D25"/>
<path fill-rule="evenodd" clip-rule="evenodd" d="M3.06812 14.6322H14.7003V3H3.06812V14.6322Z" fill="#E29EB2"/>
<path fill-rule="evenodd" clip-rule="evenodd" d="M22.2483 16.0977L25.361 21.7709L28.4738 27.4438H22.2483H16.0227L19.1355 21.7709L22.2483 16.0977Z" fill="#F6C765"/>
<path fill-rule="evenodd" clip-rule="evenodd" d="M14.6322 22.4332C14.6322 19.221 12.0284 16.6172 8.81621 16.6172C5.60382 16.6172 3 19.221 3 22.4332C3 25.6455 5.60382 28.2489 8.81621 28.2489C12.0284 28.2489 14.6322 25.6455 14.6322 22.4332Z" fill="#5562EB"/>
</svg>
