<svg width="326" height="218" viewBox="0 0 326 218" fill="none" xmlns="http://www.w3.org/2000/svg">
<path d="M254.422 100.655L251.422 95.6551L249.422 94.6551H248.422L247.422 96.6551L245.422 93.6551L249.422 88.6551H246.422V87.6551L251.422 85.6551C251.012 65.8501 275.185 49.8181 275.422 29.6551C281.938 27.4911 287.784 11.9091 289.422 5.6551L305.422 11.6551C285.484 -7.4233 249.601 -1.6615 232.89 18.6591C217.567 37.2901 217.397 65.6011 232.103 84.6551C237.927 92.2021 245.735 97.0381 254.422 100.655Z" fill="#BC45B0"/>
<path d="M30.4224 95.6551C33.1044 99.2261 37.2596 99.4561 41.4224 98.6551L45.4224 100.655V99.6551H43.4224V98.6551L61.4224 94.6551V93.6551H53.4224V92.6551H59.4224L58.4224 88.6551C65.0064 83.9361 70.3954 69.5191 70.4224 61.6551H73.4224C75.3534 53.9071 81.5524 42.0621 87.4224 36.6551L86.4224 33.6551L89.4224 35.6551H90.4224L86.4224 29.6551L88.4224 27.6551L86.4224 22.6551L88.4224 23.6551C61.5744 -11.6715 4.90777 3.88079 0.592173 48.6551C-0.979227 64.9571 10.6359 95.7931 30.4224 95.6551ZM154.422 3.65509L155.422 4.65509L154.422 3.65509Z" fill="#2D99EA"/>
<path d="M159.422 100.655C156.838 94.9811 157.606 91.4601 159.422 85.6551H160.422V100.655C165.409 99.0001 164.422 94.1951 164.422 89.6551C164.422 82.5361 160.982 62.5531 166.164 57.2581C169.725 53.6211 180.677 55.6551 185.422 55.6551V53.6551L178.422 52.6551C183.113 42.0121 189.805 32.3381 194.738 21.6551C196.932 16.9031 198.013 11.3471 203.422 9.65507V5.65507C210.27 7.73377 208.422 15.7791 208.422 21.6551C209.946 18.0551 211.985 8.41717 208.818 5.25767C205.545 1.99317 196.667 3.65507 192.422 3.65507C177.325 3.65507 159.88 1.25047 145.422 6.35417C114.318 17.3341 113.422 45.9141 113.422 73.6551C113.422 78.8941 110.673 96.1801 115.025 99.6271C117.807 101.83 124.094 100.655 127.422 100.655H159.422Z" fill="#5663D9"/>
<path d="M203.422 5.65509V9.65509C197.804 10.6211 196.887 15.9991 194.738 20.6551C189.836 31.2701 181.722 41.6131 178.422 52.6551C185.79 54.2491 201.255 59.9031 207.988 54.0521C211.089 51.3571 210.421 46.3221 210.422 42.6551V13.6551H209.422V21.6551C207.744 15.9791 210.865 6.89729 203.422 5.65509Z" fill="#BC45B0"/>
<path d="M289.422 5.65509C286.546 12.5581 282.218 25.9801 275.422 29.6551C275.061 41.0371 264.753 56.4611 258.968 66.0791C255.724 71.4721 250.414 79.2761 251.422 85.6551L246.422 88.6551H249.422V89.6551L245.422 93.6551L248.422 94.6551H249.422L251.422 95.6551L254.422 101.655L257.422 100.655V102.655L261.422 101.655C261.422 104.281 263.185 103.446 265.422 102.655C267.971 105.572 272.746 104.731 276.422 104.64C287.422 104.37 299.16 99.7151 307.422 92.4701C335.781 67.6031 330.738 12.8261 289.422 5.65509ZM297.422 5.65509L298.422 6.65509L297.422 5.65509ZM246.422 6.65509L247.422 7.65509L246.422 6.65509ZM299.422 6.65509L300.422 7.65509L299.422 6.65509ZM300.422 7.65509L301.422 8.65509L300.422 7.65509Z" fill="#F55857"/>
<path d="M86.4224 22.6551V29.6551L90.4224 35.6551H89.4224L86.4224 33.6551L87.4224 36.6551C81.3674 40.4521 74.4264 54.5951 73.4224 61.6551H70.4224C70.3284 70.0711 64.2364 82.5501 58.4224 88.6551L59.4224 92.6551H53.4224V93.6551H61.4224V94.6551L43.4224 98.6551V99.6551C55.6197 102.559 69.9164 100.655 82.4224 100.655C85.9534 100.655 92.8794 101.956 95.8194 99.6271C99.5734 96.6541 97.4224 84.0361 97.4224 79.6551C97.4224 61.9341 101.676 35.6351 86.4224 22.6551ZM84.7554 24.3221L85.0894 24.9881L84.7554 24.3221Z" fill="#5663D9"/>
<path d="M111.422 202.655H112.422C112.422 179.81 122.625 164.69 132.129 144.67C135.116 138.376 141.815 130.34 142.422 123.655L148.625 116.78L159.422 112.655C152.105 114.014 145.21 114.531 138.422 117.925C105.299 134.487 111.422 171.736 111.422 202.655Z" fill="#5663D9"/>
<path d="M159.422 112.655L147.777 116.815L142.422 123.655C140.044 136.739 127.321 150.579 121.866 162.651C114.209 179.595 112.411 193.837 111.422 212.655L141.422 213.655H202.422V212.655C198.838 212.655 191.089 214.207 190.422 209.655H185.422V208.655L189.422 207.655L205.422 173.655H206.422L207.422 198.655C210.123 192.219 208.422 182.606 208.422 175.655C208.422 151.554 204.299 127.728 179.422 116.993C172.952 114.201 166.253 113.833 159.422 112.655Z" fill="#BC45B0"/>
<path d="M0.422375 175.655H1.42238V166.655H2.42238V184.655H3.42238V182.655H4.42238V189.655H5.42238L4.42238 185.655L8.42238 190.655H9.42238L8.42238 181.655H13.4224C13.7901 176.059 16.7554 167.374 22.4224 165.655V157.655H25.4224C28.2315 146.85 35.2776 132.41 43.4224 124.655L41.4224 120.655L45.4224 119.655V118.655H33.4224V117.655H57.4224C46.2045 112.948 26.6283 116.655 14.4224 116.655C10.7318 116.655 3.85378 115.371 1.45018 118.973C-1.02942 122.689 0.422375 130.37 0.422375 134.655V175.655Z" fill="#2D99EA"/>
<path d="M33.4224 117.655V118.655H45.4224V119.655L41.4224 120.655L43.4224 124.655C34.9301 129.237 33.6138 140.337 29.7835 148.433C28.1052 151.98 25.7223 153.456 25.4224 157.655H22.4224V165.655C16.1837 166.695 13.5917 175.943 13.4224 181.655H8.42237L9.42237 190.655H8.42237L4.42237 185.655C12.612 220.117 58.4578 227.134 82.4184 205.481C98.2224 191.2 97.4224 172.14 97.4224 152.655V126.655C97.4214 123.753 98.2434 118.998 95.1044 117.397C90.5954 115.099 82.3794 116.655 77.4224 116.655C62.7084 116.655 48.1453 117.655 33.4224 117.655Z" fill="#5663D9"/>
<path d="M224.422 156.655H225.422L228.422 126.655C231.665 126.173 231.729 122.576 231.422 119.655L243.422 118.655C239.842 117.153 227.144 115.411 224.677 119.173C222.746 122.116 224.276 127.37 224.387 130.655C224.676 139.304 224.422 148.001 224.422 156.655Z" fill="#BC45B0"/>
<path d="M229.422 116.655V117.655H243.422V118.655L231.422 119.655C231.9 122.043 231.161 127.34 228.422 126.655L225.422 156.655H224.422V125.655C220.114 135.921 223.422 153.497 223.422 164.655V198.655C223.422 202.186 222.121 209.112 224.45 212.052C226.313 214.405 230.805 213.654 233.422 213.655H258.422C276.419 213.655 293.757 213.835 307.133 199.565C334.867 169.975 316.732 122.715 277.422 117.083C261.938 114.865 245.061 116.655 229.422 116.655ZM223.422 118.655L224.422 119.655L223.422 118.655Z" fill="#F55857"/>
<path d="M205.422 173.655L189.422 207.655L185.422 208.655V209.655H190.422C191.022 214.433 203.028 212.989 207.422 213.655C209.751 204.66 208.983 182.141 205.422 173.655Z" fill="#F55857"/>
</svg>
